<!-- by TradingView --><svg width="56" height="56" viewBox="0 0 56 56" xmlns="http://www.w3.org/2000/svg"><path fill="#482C77" d="M0 0h56v56H0z"/><path d="M34.97 27.85a8.28 8.28 0 0 1-5.86-2.33h.01c-.34-.33-.64-.7-.91-1.1a8.5 8.5 0 0 0 1.31-3.22c.36 1.32.95 2.4 1.74 3.2a5.27 5.27 0 0 0 3.7 1.54 5.46 5.46 0 0 0 5.39-5.52 5.46 5.46 0 0 0-5.38-5.51c-2.02 0-4.78.59-5.64 5.51v.01c0 .04 0 .08-.02.12-.24 1.36-.7 2.55-1.31 3.56a7.83 7.83 0 0 1-6.97 3.74c-4.43 0-8.03-3.34-8.03-7.43S16.6 13 21.03 13c2.19 0 4.23.8 5.75 2.23a7 7 0 0 1 .93 1.09c-.31.46-.95 1.58-1.24 3.24l-.02.08a7 7 0 0 0-1.79-3.26c-1-.95-2.29-1.47-3.63-1.47a5.45 5.45 0 0 0-5.38 5.51 5.45 5.45 0 0 0 5.38 5.52c4.07 0 5.28-3.74 5.63-5.5v-.07l.02-.07c.24-1.43.64-2.66 1.23-3.67 1.38-2.41 3.75-3.63 7.05-3.63C39.4 13 43 16.33 43 20.42c0 4.1-3.6 7.43-8.03 7.43ZM27.5 35.77V43H25v-7c0-.88.04-1.6-.18-2.26-.68-2.02-2.85-2.94-4.57-2.94-1.73 0-3.84.78-4.58 2.95-.24.69-.24 1.48-.24 2.25v7H13v-7.28c0-.77.03-1.61.3-2.41.9-2.58 3.68-4.31 6.95-4.31s6.07 1.77 6.93 4.3c.26.78.3 1.58.31 2.46Zm1 .24c0 3.85 3.26 6.99 7.25 6.99 1.85 0 3.54-.67 4.82-1.77V43H43v-7c0-3.85-3.25-6.99-7.25-6.99s-7.24 3.14-7.24 7Zm2.44 0c0-2.82 2.2-5.2 4.81-5.2 2.61 0 4.82 2.38 4.82 5.2 0 2.8-2.2 5.19-4.82 5.19-2.6 0-4.8-2.38-4.8-5.2Z" fill="#fff"/></svg>