<!-- by TradingView --><svg width="56" height="56" viewBox="0 0 56 56" fill="none" xmlns="http://www.w3.org/2000/svg">
<rect width="56" height="56" fill="#F0F3FA"/>
<path d="M33 37V25H37.5L39.5 32.1325L41.5 25H46V37H43V28.375L40.4 37H38.5L36 28.0938V37H33Z" fill="#015289"/>
<path fill-rule="evenodd" clip-rule="evenodd" d="M9 37L13.3136 25H16.8246L21 37H17.7496L16.8001 34H13.1374L12.1879 37H9ZM15.0314 28L13.6631 32H16.2235L15.0314 28Z" fill="#015289"/>
<path fill-rule="evenodd" clip-rule="evenodd" d="M22 37.0001V25.0001H27.25C28.9297 25.0001 31.5 25.241 31.5 27.988C31.5 30.3013 29.6037 30.735 29.6037 30.735C29.6037 30.735 32 30.7022 32 33.5938C32 37.0001 28.4055 37.0001 28.2212 37.0001H22ZM25.0049 30.0001V27.0001H26.7029C27.4742 27 28.4712 27.1283 28.4712 28.436C28.4712 29.7437 27.5069 30.0001 26.7029 30.0001H25.0049ZM25.0049 32.0001V35.0001H27.0361C27.76 35.0001 29.0049 34.8078 29.0049 33.5001C29.0049 32.1924 27.7863 32.0001 27.0361 32.0001H25.0049Z" fill="#015289"/>
<path d="M46.875 19.7973L44.2602 14C44.2602 14 41.6287 18.4564 34.016 19.7973C28.6399 20.7443 23.8035 19.9531 19.4956 20.9287C15.7286 21.7818 13.0946 23.9999 13.0946 23.9999C13.0946 23.9999 17.24 21.9999 21.2343 21.9999C26.1219 21.9999 30.0221 22.9999 35.0773 22.9999C39.1113 22.9999 43.6709 22.1566 46.875 19.7973Z" fill="#87C556"/>
<path d="M9.00005 18.3334L11.386 24C11.386 24 12.7923 21.6557 18.3556 20.3353C23.1267 19.2028 25.9216 20.3353 34.119 18.9584C39.8113 18.0023 42.7804 14.0001 42.7804 14.0001C42.7804 14.0001 39.6308 17.0001 30.8404 17.0001C24.0353 17.0001 20.7613 16.0001 17.6014 16.0001C15.3417 16.0001 10.95 16.6315 9.00005 18.3334Z" fill="#00AEEB"/>
</svg>
