<!-- by TradingView --><svg width="56" height="56" viewBox="0 0 56 56" xmlns="http://www.w3.org/2000/svg"><path fill="#F0F3FA" d="M0 0h56v56H0z"/><path d="M28.66 32.69c.25-3.13 1.25-6.1 3-8.9 3.2-5.19 9.2-8.28 15.16-8.79a.16.16 0 0 1 .17.1l.01.06V32.6c0 .25-.13.38-.38.37H30.57c-1.31 0-1.81.77-2.32 1.82a.07.07 0 0 1-.05.04.07.07 0 0 1-.06-.02c-.82-.67-.87-1.73-2.18-1.77-5.52-.16-11.81-.01-16.67.01-.2 0-.3-.1-.29-.29V15.48c0-.3.18-.44.54-.42 6.4.34 12 3.96 15.32 9.4a19.16 19.16 0 0 1 2.65 7.86c.1.9.9 1.09 1.15.37Z" fill="#FF0100"/><path d="m28.86 32.73-.01.02a.9.9 0 0 1-.36.48.64.64 0 0 1-.52.07c-.35-.1-.6-.46-.67-.96a18.95 18.95 0 0 0-2.62-7.78c-3.28-5.38-8.82-8.96-15.15-9.3-.15 0-.23.02-.26.05-.03.02-.06.06-.06.17v17.34c.01 0 .03.02.08.02l4.13-.04c4.01-.04 8.49-.09 12.54.03.36.01.65.1.88.23.23.13.4.3.56.5.09.1.17.23.26.36l.15.2a3 3 0 0 0 .34.41c.23-.46.47-.89.82-1.2.4-.36.9-.57 1.6-.57 5.3-.02 10.65-.02 16.05 0 .1 0 .13-.02.14-.03.01-.01.04-.05.04-.14V15.2c-5.9.51-11.81 3.58-14.97 8.68a19.58 19.58 0 0 0-2.97 8.81v.03ZM47 15.16V32.6c0 .25-.13.38-.38.37H30.57c-1.31 0-1.81.77-2.32 1.82a.07.07 0 0 1-.05.04.07.07 0 0 1-.06-.02 3.5 3.5 0 0 1-.66-.78c-.34-.5-.66-.96-1.52-.99-4.06-.12-8.52-.07-12.54-.03l-4.13.04c-.2 0-.3-.1-.29-.29V15.48c0-.3.18-.44.54-.42 6.4.34 12 3.96 15.32 9.4a19.16 19.16 0 0 1 2.65 7.86c.1.9.9 1.09 1.15.37.25-3.13 1.25-6.1 3-8.9 3.2-5.19 9.2-8.28 15.16-8.79a.16.16 0 0 1 .17.1l.01.06Z"/><path d="M46.6 37H9.4c-.22 0-.4.2-.4.45v2.1c0 .25.18.45.4.45h37.2c.22 0 .4-.2.4-.45v-2.1c0-.25-.18-.45-.4-.45Z" fill="#FFFF06"/><path d="M46.6 37.23H9.4c-.11 0-.2.1-.2.22v2.1c0 .13.09.22.2.22h37.2c.11 0 .2-.1.2-.22v-2.1c0-.13-.09-.22-.2-.22ZM9.4 37h37.2c.22 0 .4.2.4.45v2.1c0 .25-.18.45-.4.45H9.4c-.22 0-.4-.2-.4-.45v-2.1c0-.25.18-.45.4-.45Z"/></svg>