<!-- by TradingView --><svg width="56" height="56" viewBox="0 0 56 56" xmlns="http://www.w3.org/2000/svg"><path fill="#F0F3FA" d="M0 0h56v56H0z"/><path d="m30.12 22-.27.04a5.43 5.43 0 0 0-1.77.47h-.04c-.17 0-.36.02-.58.04-.55.07-1.05.26-1.5.58.38-.36.67-.62.88-.8a1 1 0 0 1 .22-.14c.28-.13.56-.16.86-.17a62.03 62.03 0 0 1 2.2-.01Z" fill="#A69201"/><path d="M33.75 25.98a28.05 28.05 0 0 1-.03-.32 3.15 3.15 0 0 0-2.14-2.9 6.14 6.14 0 0 0-3.4-.08 4.27 4.27 0 0 0-1.71.92c.07-.1.15-.18.24-.26.44-.33.92-.6 1.41-.83a5.42 5.42 0 0 1 2-.5c.8-.03 1.66.04 2.4.36.86.36 1.45.99 1.78 1.87.15.4.15.82.19 1.25a.02.02 0 0 1-.02.02l-.72.47ZM23.56 22.6l-.34.62-.22-.13a3.66 3.66 0 0 0-.8-.34c-.47-.13-.96-.2-1.47-.18-.8.03-1.63.13-2.38.37a5.8 5.8 0 0 0-2.55 1.63l.16-.24a5.93 5.93 0 0 1 4.44-2.29c.6-.05 1.2-.02 1.8.07.47.07.95.23 1.36.49Z" fill="#0E1750"/><path d="M33.75 26h-2.8c-.02 0-.02-.02-.02-.03l.02-.25c0-.06 0-.12-.02-.18a.86.86 0 0 0-.66-.61c-.35-.09-.72-.1-1.11-.03a1.1 1.1 0 0 0-.67.36c-.1.12-.12.34-.08.49.02.07.07.13.15.2.23.16.48.29.75.37.35.1.71.18 1.06.25a7.01 7.01 0 0 1 1.64.65c.45.3.82.7 1 1.18a3.48 3.48 0 0 1-.18 2.78 3.65 3.65 0 0 1-.89.99l-.2.14c-.4.24-.81.42-1.27.54a6.23 6.23 0 0 1-2.47.13 4.74 4.74 0 0 1-1.88-.57c-.97-.57-1.4-1.55-1.5-2.62a5.6 5.6 0 0 1-.02-.79c-.01 0 .02 0 0 0h2.78c-.02.24 0 .37 0 .49 0 .58.28.94.84 1.08.3.07.61.1.92.09.24-.01.48-.07.72-.16.2-.09.36-.21.48-.39a.16.16 0 0 0 .03-.05.92.92 0 0 0 .05-.42c-.02-.17-.13-.25-.28-.34a2.89 2.89 0 0 0-.82-.35c-.23-.06-.63-.17-1.18-.34l-.47-.15a9.1 9.1 0 0 1-.43-.2 3.06 3.06 0 0 1-1.35-1.24 2.31 2.31 0 0 1-.25-.79 3.64 3.64 0 0 1 0-.97c.07-.5.25-.94.55-1.33l.28-.33a4.14 4.14 0 0 1 1.7-.92 6.14 6.14 0 0 1 3.41.08 3.15 3.15 0 0 1 2.15 3.06l.02.18Z" fill="#203072"/><path d="M28.12 22.5c-.49.24-.97.51-1.4.84a4.85 4.85 0 0 0-.52.59c-.3.4-.5.84-.56 1.33-.04.33-.04.65 0 .97a2.31 2.31 0 0 0 .38 1l-.5.75-.01.02v.02l.14.44H25.32l-.7.55c-.01.26-.03.47 0 .78.1 1.07.53 2.05 1.5 2.62a4.74 4.74 0 0 0 2.13.6c.2.14.43.24.68.3a4.7 4.7 0 0 0 1.86.01l.53-.08a4.2 4.2 0 0 1-2.84 1.74 2.93 2.93 0 0 1-1.82-.39 5.86 5.86 0 0 1-1.47-1.24 9.38 9.38 0 0 1-1.5-2.48l-.48.56c-.36.4-.77.76-1.24 1.03l-1.01-2.23.87-.67c.16-.13.3-.25.41-.38.43-.45.72-1.06.75-1.69.03-.51-.12-1-.38-1.44-.07-.1-.18-.23-.26-.36l.87-2.45c.22.14.41.3.58.5.3.35.5.74.67 1.16h.02l.44-.67c.29-.42.63-.79 1.02-1.1.45-.32.96-.51 1.51-.58a6.06 6.06 0 0 1 .66-.04Z" fill="#FBDC05"/><path d="M23.22 23.22v.02l-.87 2.45a4.2 4.2 0 0 0-.37-.22 2.9 2.9 0 0 0-1.5-.26.97.97 0 0 0-.33 0 3.1 3.1 0 0 0-1.76.93c-.14.15-.27.3-.4.47a3.28 3.28 0 0 0-.53 2.64c.2.81.76 1.28 1.58 1.4a2.36 2.36 0 0 0 1.86-.4v-.02h.06l1.01 2.23.01.04v.02a6.13 6.13 0 0 1-2.97.59 5.8 5.8 0 0 1-1.94-.35 4.12 4.12 0 0 1-2.72-3.86 6.9 6.9 0 0 1 .09-1.4 5.83 5.83 0 0 1 1.37-2.92 5.8 5.8 0 0 1 2.54-1.64 8.65 8.65 0 0 1 2.38-.37c.51-.01 1 .05 1.47.18a3.66 3.66 0 0 1 1.02.47Z" fill="#203072"/><path d="m24.93 24.23-.44.67h-.01a3.99 3.99 0 0 0-.68-1.16c-.17-.2-.36-.36-.58-.5v-.02l.34-.62a3 3 0 0 1 1.37 1.63Z" fill="#A69201"/><path d="M29.16 24.9c-.04.16-.06.4.07.51.2.17.42.3.67.38.21.07.37.12.48.14.35.09.68.14 1 .24.61.18 1.16.37 1.64.77.53.44.83 1 .9 1.69a3.32 3.32 0 0 1-.74 2.6c-.29.34-.63.6-1.04.79a3.02 3.02 0 0 0 1.04-1.96c.08-.55.04-1.14-.16-1.66a2.61 2.61 0 0 0-1-1.18 7.02 7.02 0 0 0-1.64-.65c-.36-.07-.72-.15-1.07-.25-.27-.08-.52-.2-.75-.38a.37.37 0 0 1-.15-.2c-.04-.14-.02-.36.08-.48.15-.19.41-.32.67-.36ZM50.8 25.02l.42-2.38-7.95-.01.76-.62H52l-.47 2.55v.01l-.73.45Z" fill="#0E1750"/><path d="M43.27 22.63h7.95v.01l-.4 2.36s.01 0 0 0h-2.6s.01 0 0 0l-1.46 7.95v.03h.01c0 .02-.01.02-.02.02h-2.82l-.01-.01L45.4 25h-2.6l.46-2.37Z" fill="#203072"/><path d="m48.86 25-1.33 7.36c0 .01 0 .02-.02.02l-.74.6v-.03l1.43-7.94.02-.01h.64ZM20.48 25.21c-.55.12-1.03.41-1.35.86-.43.6-.75 1.32-.83 2.05-.04.32-.02.6.06.9.05.2.14.37.28.54.13.17.27.3.45.4.36.2.75.3 1.17.3a5.1 5.1 0 0 0 .64-.01l-.01.01c-.3.2-.6.33-.9.38-.3.05-.61.06-.95 0-.82-.11-1.38-.58-1.58-1.4a3.28 3.28 0 0 1 .93-3.1 3.1 3.1 0 0 1 1.76-.92.97.97 0 0 1 .33 0ZM13.52 32.98h-.01l-.01-.02-1.3-10.3-3.21-.02.67-.63.02-.01h3.26a.01.01 0 0 1 .02.01l1.27 9.85-.01.02-.7 1.1Z" fill="#0E1750"/><path d="m8.99 22.64 3.2.01h.01v.01l1.3 10.3v.02h.02l-.02.02a599.84 599.84 0 0 1-2.96-.01l-.2-2.47-.01-.01H8.2l-.02.01-1.11 2.47-.02.01H4v-.01L9 22.64Zm.18 5.4-.34.72.01.01h1.4v-.01l-.07-.71-.18-1.77c0-.02 0-.02-.02 0l-.8 1.76Z" fill="#203072"/><path d="M9.17 28.04h1l.07.72v.01h-1.4v-.01l.33-.72ZM25.65 28.46h2.02l.47.15c-.01.21-.04.42 0 .63.04.28.17.5.38.66.25.18.63.25.96.28.3.02.59 0 .86-.07-.12.18-.28.3-.48.39-.24.1-.48.15-.72.16a3.2 3.2 0 0 1-.92-.1c-.56-.13-.84-.5-.84-1.07 0-.12-.06-.23-.04-.47V29H24.54l.77-.54.04-.01h.3ZM41.7 25c.16-.85.32-1.53.47-2.36a2744.3 2744.3 0 0 1-6.47-.02l1.03-.6a.2.2 0 0 1 .1-.02 15120.22 15120.22 0 0 0 6.11.02l-.46 2.54s0 .02-.02.02l-.76.42Z" fill="#0E1750"/><path d="m35.7 22.62.11.01H42.17v.01c-.15.83-.3 1.5-.46 2.36h-3.58c-.01 0 0 0 0 0l-.31 1.43h3.43c.01 0 .02.01.01.02-.15.8-.3 1.75-.46 2.55-.01 0 0 .02 0 0 0 0 .01 0 0 0h-3.43l-.27 1.47.01.01h3.82l.02.02-.46 2.5h-6.68l-.02-.01 1.88-10.34c0-.02.01-.03.03-.03Z" fill="#203072"/><path d="m38.81 25-.2.8v.01h3.41l.01.01-.47 2.47-.01.03-.75.68c-.02 0-.02-.01-.02-.03l.48-2.52v-.01h-3.44v-.01l.26-1.43h.73ZM38.03 29l-.17.85H41.72v.02l-.45 2.5-.01.02-.76.61.46-2.5c0-.01 0-.02-.02-.02H37.1l-.01-.01.26-1.47h.67Z" fill="#0E1750"/><path d="M31.32 33.24a20.53 20.53 0 0 0-1.06.15c-.44.04-.89 0-1.33-.09a1.8 1.8 0 0 1-.68-.3c.42.03.73.03.93.03.41-.01.84-.07 1.3-.18a6.55 6.55 0 0 0 1.23-.08l-.4.47Z" fill="#A69201"/></svg>