<!-- by TradingView --><svg width="56" height="56" viewBox="0 0 56 56" xmlns="http://www.w3.org/2000/svg"><path fill="#F0F3FA" d="M0 0h56v56H0z"/><path d="M20.47 21.88c-.12-.33-.02-.72.12-1.04.17-.4.3-.68.4-.86.8-1.37 1.67-2.55 2.7-3.94l.65-.88c.44-.6.78-1.18 1.02-1.74.13-.3.54-1.5-.2-1.41-1.47.18-3.34.68-4.18 2.01-.1.18-.23.5-.37.98a60.6 60.6 0 0 0-1.02 3.9c-.14.62-.24 1.19-.3 1.7-.05.3-.07.57-.07.82 0 .23 0 .44.18.61.34.34.78.26 1.06-.1a.05.05 0 0 0 0-.05Zm5.97-4.11.02-.02c.13-.24.3-.42.54-.53.48-.23 1-.4 1.55-.53 1.53-.35 2.9-.54 4.56-.77l.69-.1a6.81 6.81 0 0 0 2.38-.72c.24-.13.79-.57.4-.88-1.13-.93-2.87-2.01-4.37-1.65-.22.05-.53.2-.95.42a57.83 57.83 0 0 0-3.5 2.1c-.42.26-2.15 1.4-2.15 1.89 0 .55.26.81.8.8l.03-.01Zm7.98 1.96-.06-.01c-.32-.3-.41-.69-.12-1.05a.57.57 0 0 1 .46-.22c.3 0 .53 0 .7.02.64.09 1.32.22 2.04.4 1.45.35 2.82.74 4.13 1.16.2.07.41.19.63.36.7.53 1.13 1.4 1.39 2.24.2.65.33 1.3.4 1.97.06.46-.44.46-.74.39-.9-.2-1.73-.8-2.51-1.41a169.48 169.48 0 0 0-2.72-2.1 14.96 14.96 0 0 0-2.4-1.54c-.39-.18-.8-.34-1.2-.21Zm-16.28 9.8-.08-.03c-.42-.22-.68-1.12-.8-1.55-.25-.93-.41-1.9-.55-2.83l-.4-2.93a8.16 8.16 0 0 0-.7-2.61c-.14-.3-.56-.9-.9-.45-.92 1.21-1.92 2.95-1.58 4.52.05.2.2.53.43 1a47.5 47.5 0 0 0 2.56 4.42c.3.44.62.89 1.01 1.23.14.12.3.16.5.12.42-.1.57-.4.54-.84 0-.02-.01-.03-.03-.04Zm19.98-2.64a1.3 1.3 0 0 1-.08-.04c-.02-.01-.03-.02-.03-.04-.03-.43.12-.74.55-.84.19-.04.35 0 .49.12.4.34.71.79 1 1.23a47.42 47.42 0 0 1 2.57 4.42c.24.46.38.8.43 1 .35 1.57-.66 3.31-1.57 4.52-.34.46-.77-.16-.91-.45-.4-.8-.58-1.7-.7-2.6a263.5 263.5 0 0 0-.4-2.94c-.14-.94-.3-1.9-.55-2.83-.12-.43-.38-1.33-.8-1.55Zm-16.54 9.24c-.4.13-.81-.03-1.2-.22a14.9 14.9 0 0 1-2.4-1.52c-.38-.28-1.28-.98-2.72-2.1a6.72 6.72 0 0 0-2.5-1.42c-.3-.07-.8-.07-.76.39.08.67.21 1.33.41 1.97.26.84.7 1.71 1.4 2.24.21.17.42.3.62.36 1.3.42 2.68.81 4.13 1.17.72.17 1.4.3 2.05.39.16.02.39.02.69.02.19 0 .34-.08.46-.22.29-.37.2-.75-.13-1.05a.05.05 0 0 0-.05-.01Zm14.42-2v-.06c.28-.36.73-.44 1.07-.1.17.17.17.38.17.61 0 .25-.02.52-.06.83-.07.5-.17 1.06-.31 1.7a60.95 60.95 0 0 1-1.01 3.9c-.14.46-.27.79-.38.97-.84 1.33-2.7 1.83-4.18 2.02-.73.09-.32-1.13-.2-1.42.24-.56.58-1.14 1.02-1.74l.65-.88c1.03-1.4 1.9-2.57 2.7-3.94.1-.18.23-.46.4-.86.14-.32.25-.7.13-1.04Zm-6.96 4.36-.02.02c-.13.24-.32.42-.55.53-.48.23-1 .41-1.55.54-1.53.34-2.9.54-4.56.77l-.69.1c-.78.1-1.68.3-2.38.71-.24.14-.8.57-.41.88 1.13.93 2.88 2.01 4.38 1.65.22-.05.53-.19.95-.42a58.04 58.04 0 0 0 3.5-2.1c.42-.26 2.15-1.4 2.16-1.89 0-.55-.27-.81-.8-.8l-.03.01Z"/></svg>