<!-- by TradingView --><svg width="56" height="56" viewBox="0 0 56 56" xmlns="http://www.w3.org/2000/svg"><path fill="#F0F3FA" d="M0 0h56v56H0z"/><path d="M40.02 40.02A16.95 16.95 0 0 0 45 28c0-4.7-1.9-8.94-4.98-12.02A16.95 16.95 0 0 0 28 11c-4.7 0-8.94 1.9-12.02 4.98A16.95 16.95 0 0 0 11 28c0 4.7 1.9 8.94 4.98 12.02A16.95 16.95 0 0 0 28 45c4.7 0 8.94-1.9 12.02-4.98Zm0 0-9.22-5.27L28 45l-2.8-10.25-9.22 5.27 5.27-9.22L11 28l10.25-2.8-5.27-9.22 9.22 5.27L28 11l2.8 10.25 9.22-5.27-5.27 9.22L45 28l-10.25 2.8 5.27 9.22Z" fill="#00AFF0"/></svg>