<!-- by TradingView --><svg xmlns="http://www.w3.org/2000/svg" width="56" height="56" viewBox="0 0 56 56"><path fill="#F0F3FA" d="M0 0h56v56H0z"/><path d="M25 19h6c.5 1.21 1.95 2 3.5 2s3-.79 3.5-2h5v5h-5.7c-.15 1.16-1.57 2-2.8 2-1.24 0-2.64-.84-2.8-2H20.84L25 19zm6 6H20l-4.17 5H31.7c.1 1.02 1.56 2 2.8 2 1.24 0 2.7-.98 2.8-2H43v-5h-5c-.53 1.14-2.2 2-3.5 2-1.51 0-3-.94-3.5-2zm0 6H15.05L10 37h21c.51 1.26 1.99 2 3.5 2s2.99-.74 3.5-2h5v-6h-5c-.5 1.3-1.97 2-3.5 2s-3-.7-3.5-2z" fill="#333357"/><path d="M34.5 12.73c0-.75.39-1.73.39-1.73s-1.64.86-1.64 2.15c0 .95.41 1.57.8 2.15.4.62.78 1.2.6 2.07-.16.7-.65 1.63-.65 1.63s2.5-.17 2.5-1.73c0-.9-.48-1.52-.96-2.15-.52-.67-1.04-1.35-1.04-2.39zm-1.52 1.7c-.18-.6-.18-.9-.18-.9s-.8 1.1-.8 2c0 .67.28 1.03.62 1.45.16.2.33.41.49.68.38.64.19 1.34.19 1.34s.9-1.08.9-1.97c0-.56-.32-1.04-.64-1.53-.24-.35-.47-.7-.58-1.07zM35.33 12s.12.76.37 1.13c.17.25.37.48.56.7.39.46.74.87.74 1.32 0 .67-.17 1.25-.17 1.25s-.21-.77-.5-1.13l-.32-.38c-.48-.57-1.01-1.2-1.01-1.9 0-.29.1-.5.21-.72.04-.08.09-.17.12-.27z" fill="#BC3434"/></svg>