<!-- by TradingView --><svg width="56" height="56" viewBox="0 0 56 56" xmlns="http://www.w3.org/2000/svg"><path fill="#F0F3FA" d="M0 0h56v56H0z"/><path d="M7 26.98V32h2v-5.06C9 25.32 10.72 24 12.49 24H14v-2h-1.57C9.43 22 7 24.23 7 26.98Z" fill="#06539A"/><path fill-rule="evenodd" d="M23 31a5 5 0 1 1 0-8v-1h2v10h-2v-1Zm0-4a3 3 0 1 1-6 0 3 3 0 0 1 6 0ZM46 31a5 5 0 1 1 0-8v-1h2v10h-2v-1Zm0-4a3 3 0 1 1-6 0 3 3 0 0 1 6 0Z" fill="#F16F27"/><path d="M27 22.68V22h2V22.82c0 1.72 1.42 3.18 3 3.18s3-1.46 3-3.18V22h2v.68c0 2.5-1.72 4.7-4 5.21V32h-2v-4.11c-2.28-.5-4-2.7-4-5.21Z" fill="#06539A"/><path d="M24.63 33 23 34.12C24.15 36.08 28.21 40 35.29 40c7.07 0 11.42-3.92 12.71-5.88L46.33 33c-1.12 1.72-4.9 5-11.04 5-6.14 0-9.67-3.28-10.66-5Z" fill="#F16F27"/></svg>