<!-- by TradingView --><svg width="56" height="56" viewBox="0 0 56 56" xmlns="http://www.w3.org/2000/svg"><path fill="#F0F3FA" d="M0 0h56v56H0z"/><path d="M28 12a34692.88 34692.88 0 0 1 15.99.01V27.1c0 .05 0 .06-.04.02a18.38 18.38 0 0 0-5.81-4.92A21.32 21.32 0 0 0 28 19.66c-3.53 0-7.03.84-10.14 2.53a18.38 18.38 0 0 0-5.81 4.92c-.03.04-.05.03-.05-.02V12.04l.01-.03h.02L28 12Z" fill="#EC1B22"/><path d="M28 21.04c5.01 0 10.02 1.6 13.89 4.87.78.66 1.47 1.34 2.06 2.04.05.05.05.18.05.26A97398.73 97398.73 0 0 0 43.99 44h-.02A30906.53 30906.53 0 0 1 12 44l-.01-.03V28.21c0-.1 0-.22.05-.27.6-.7 1.29-1.38 2.07-2.04A21.51 21.51 0 0 1 28 21.04Z" fill="#2D2F92"/><path d="M36.35 32.66c.03.04.04.03.04-.01v-2.63l.01-.01.02-.01H37V34l-.02.01h-.01c-.95-.88-2.94-2.66-2.94-2.66-.02-.04-.04-.03-.04.01V34l-.02.01h-.59V30a.02.02 0 0 1 .03 0l2.93 2.65ZM19 30.9c-.12.47.64.76.94.9.14.06.33.2.41.27.52.44.45 1.26-.07 1.67-.42.34-1.19.34-1.63.05-.2-.13-.33-.32-.41-.57-.03-.07 0-.1.05-.13l.36-.14c.06-.03.1 0 .11.06.15.54 1.26.6 1.3-.1 0-.28-.22-.48-.44-.59a6.71 6.71 0 0 1-.86-.47.95.95 0 0 1-.43-.9c.06-.86.94-1.05 1.55-.91a.99.99 0 0 1 .7.57v.01l-.46.25h-.03c-.18-.29-.44-.39-.77-.3-.17.04-.28.15-.32.33ZM38.63 30.9c-.11.47.65.76.95.9.14.06.33.2.41.27.52.43.45 1.26-.07 1.67-.42.34-1.18.34-1.63.05-.19-.13-.33-.32-.42-.57-.02-.06 0-.1.06-.13l.36-.14c.06-.02.1 0 .11.06.15.54 1.26.6 1.3-.1 0-.29-.22-.48-.44-.59a6.69 6.69 0 0 1-.87-.47.94.94 0 0 1-.42-.9c.05-.86.93-1.05 1.55-.91a.99.99 0 0 1 .7.57l-.46.26h-.03c-.19-.29-.45-.39-.78-.3-.17.04-.27.15-.32.33ZM23.43 33.42c.68 0 .95-.41.95-1.14v-2.25c0-.02 0-.03.02-.03h.6l.01.02a324.14 324.14 0 0 1-.02 2.75c-.13.93-.79 1.23-1.56 1.23-.78 0-1.43-.3-1.57-1.23l-.02-.53a300.57 300.57 0 0 1 .02-2.24h.59c.02 0 .03.01.03.03v2.25c0 .73.27 1.14.95 1.14ZM41.96 30h-.56c-.02 0-.03.02-.03.04v3.92c0 .02.01.04.03.04h.56c.02 0 .04-.02.04-.04v-3.92c0-.02-.02-.04-.04-.04Z" fill="#F0F3FA"/><path fill-rule="evenodd" d="m26.6 32.32.01-.08c.02-.02.04-.02.06 0l1.26 1.75H28.62l-1.27-1.76v-.04l.02-.01c.32-.04.55-.2.7-.48.18-.32.18-.85 0-1.16-.27-.5-.63-.51-1.15-.53a12.15 12.15 0 0 0-.91.01l-.01.02V34l.02.01h.55c.02 0 .03-.01.03-.03v-1.65Zm.04-1.73v.01l-.01 1.08v.01l.02.01h.42c.13 0 .25-.05.34-.14a.48.48 0 0 0 .14-.34v-.15a.49.49 0 0 0-.3-.45.47.47 0 0 0-.17-.04h-.44ZM15.87 30h-.02v.01c-.65 1.37-1.26 2.7-1.83 3.95-.01.03 0 .04.01.04h.6c.02 0 .04-.01.05-.03l.4-.93.02-.02h.03a220.04 220.04 0 0 1 1.48 0l.01.02.41.93c.01.02.03.03.05.03h.6a755.15 755.15 0 0 0-1.8-4Zm0 1.22h-.01a11.22 11.22 0 0 1-.5 1.25 31.79 31.79 0 0 0 1.02-.02c-.2-.4-.37-.82-.51-1.23ZM30.1 33.01h1.44l.03.01.01.02.41.93c.01.02.03.03.05.03h.6a762.16 762.16 0 0 0-1.82-4l-.02.01-1.82 3.95c0 .03 0 .04.02.04h.6c.02 0 .03-.01.04-.03l.41-.93.02-.02h.02Zm.22-.54a32.99 32.99 0 0 0 1.01-.02 11.23 11.23 0 0 1-.51-1.23 11.32 11.32 0 0 1-.5 1.25Z" fill="#F0F3FA"/><path d="M16.5 38.97a109.14 109.14 0 0 0 .96-.02V36.02a.02.02 0 0 1 .03-.02H19a.02.02 0 0 1 .01.02V42a.03.03 0 0 1-.03.01H17.5l-.02-.01-.01-.03v-1.48l-.01-.02h-.02a42 42 0 0 0-1.9 0v1.5c0 .01 0 .02-.02.03l-.02.01h-1.47a.03.03 0 0 1-.02 0v-.02H14V36h.01l.01-.01h1.5l.01.02v2.92l.01.02h.96ZM34.28 36h2.6c.03 0 .04.01.04.04v1.42h-1.87c-.01 0-.03 0-.03.02l-.02.03v4.48h-.03a88.17 88.17 0 0 1-1.41 0l-.01-.03V37.5a.05.05 0 0 0-.02-.02h-1.87l-.02-.01v-1.42c0-.03.01-.04.03-.04h2.6Z" fill="#F0F3FA"/><path fill-rule="evenodd" d="M30.22 40.24c1.09-.58 1.36-1.72 1.06-2.86-.21-.79-.86-1.38-1.66-1.38a2725.98 2725.98 0 0 0-3.62.02V42l.02.01h1.54c.02 0 .03 0 .03-.03v-1.61l.03-.01h.1c.44-.03.83-.04 1.18.32a3.03 3.03 0 0 1 .73 1.32l.02.01h1.62c.03 0 .04-.01.04-.04a1.98 1.98 0 0 0-1.1-1.7.02.02 0 0 1 0-.02Zm-2.63-2.89v1.61a.05.05 0 0 0 .03.04h1.37a.8.8 0 0 0 .57-.24.82.82 0 0 0 .23-.57v-.06a.82.82 0 0 0-.5-.75.8.8 0 0 0-.3-.06H27.6a.04.04 0 0 0-.02.03ZM37.72 41.98l.54-1.63h.01l.02-.01h1.82a.02.02 0 0 1 .02.01l.5 1.63V42h1.55l.01-.01v-.02l-2.02-5.95a.02.02 0 0 0-.03-.02h-1.88l-.02.02-2.15 5.95a.03.03 0 0 0 0 .03h1.62l.01-.02Zm1.5-4.5-.49 1.47v.01a.02.02 0 0 0 .02.02l.94.01a.02.02 0 0 0 .02-.01v-.01l-.45-1.49a.02.02 0 0 0-.03 0ZM23.48 40.34c.02 0 .04 0 .05.03l.48 1.6c0 .02.02.03.04.03h1.5c.03 0 .04-.01.03-.04l-2.02-5.93c0-.02-.01-.03-.03-.03h-1.86c-.02 0-.03.01-.04.03l-2.16 5.94V42h1.6c.02 0 .04 0 .04-.03l.54-1.6.04-.02h1.79Zm-.87-2.85-.48 1.46v.02h.01l.01.01H23.1v-.02l-.45-1.47-.01-.01a.02.02 0 0 0-.02 0h-.01Z" fill="#F0F3FA"/></svg>