<!-- by TradingView --><svg width="56" height="56" viewBox="0 0 56 56" xmlns="http://www.w3.org/2000/svg"><path fill="#F0F3FA" d="M0 0h56v56H0z"/><path d="M14.76 25.42a.05.05 0 0 0 .02.05l.03.01h.02c2.4-1.31 5.97-3.36 10.98-6.13 1.62-.9 3.18.38 3.19 2.04v14.94c0 .88-.04 1.4-.07 1.53-.4 1.72-3 1.9-3.7.28A3.2 3.2 0 0 1 25 36.9v-9.64c0-.57-.3-1.13-.77-1.45-.72-.49-1.52-.48-2.41 0-3.88 2.15-6.7 3.77-8.71 4.88-.57.31-1.06.48-1.65.38a.22.22 0 0 1-.18-.18c-.54-2.9-.3-5.68.74-8.34 2.21-5.65 7.3-9.35 13.24-10.33 4.3-.7 8.82.32 12.44 2.66 5.77 3.74 8.74 10.85 6.61 17.57a15.78 15.78 0 0 1-5.24 7.68.23.23 0 0 1-.07.02c-.02-2.05-.01-3.6 0-4.46 0-.12-.04-.23.03-.33 2.38-3.3 3.2-7.46 1.81-11.29-2.07-5.75-7.68-9.05-13.56-8.74-5.95.33-11.12 4.15-12.52 10.09Z" fill="#316F57"/><path d="M32.99 39.77c.05-.02.01-.06.01-.11v-7.9c0-.52-.1-1.1-.47-1.46-.64-.63-1.42-.77-2.33-.43a.1.1 0 0 1-.1 0 .1.1 0 0 1-.03-.04c0-.02-.07-.03-.07-.05V25.8c0-.04.07-.07.09-.1a.18.18 0 0 1 .07-.07c1.83-1.02 3.13-1.73 3.9-2.14.48-.26 1.02-.28 1.6-.05 1.27.5 1.34 1.51 1.34 2.75v15.18c0 .14-.1.27-.32.38-4.72 2.45-9.51 2.9-14.35 1.34A16.58 16.58 0 0 1 12 33.52a.14.14 0 0 1 .06-.17l2.82-1.66a.12.12 0 0 1 .1 0 .12.12 0 0 1 .08.07c2.55 7.52 10.88 10.6 17.92 8Z" fill="#51AE61"/></svg>