<!-- by TradingView --><svg width="56" height="56" viewBox="0 0 56 56" xmlns="http://www.w3.org/2000/svg"><path fill="#F0F3FA" d="M0 0h56v56H0z"/><path d="M25.21 14.05c1.2.1 2.38.29 3.54.54 3.82.85 7.45 2.17 10.88 3.95a29.85 29.85 0 0 1 6.83 4.71c1.06 1 2.06 2.21 2.72 3.47.6 1.14.97 2.23.76 3.5a6.95 6.95 0 0 1-2.31 3.84c-.83.76-1.75 1.44-2.77 2.05-.82.48-1.52.87-2.12 1.16a41.22 41.22 0 0 1-9.9 3.24c-2.38.47-4.77.64-7.15.35-1.62-.2-4.18-.87-4.46-2.82-.22-1.5 1.03-2.9 1.97-3.93a17.4 17.4 0 0 0 1.76-2.22 5.14 5.14 0 0 0 .92-3.8c-.32-1.67-1.38-3.04-2.47-4.29a22.75 22.75 0 0 1-3.18-4.4c-.8-1.56-1.34-3.72.53-4.75.5-.28 1.12-.47 1.83-.56.84-.1 1.7-.12 2.62-.04Zm3.48 15.71h1.59c.21 0 .38-.06.49-.18a.55.55 0 0 0-.04-.79.67.67 0 0 0-.47-.15H28.7c-.02 0-.04-.01-.04-.04v-1.57l.02-.03h2.06c.13 0 .2 0 .27-.03.4-.22.39-.65.02-.89a.82.82 0 0 0-.42-.08h-2.47c-.28 0-.48.08-.61.3a.93.93 0 0 0-.06.37v5.1c0 .19.02.33.07.42.29.54 1.14.31 1.13-.31V29.8c0-.02 0-.04.03-.04Zm17.05-1.85c-.31-.4-.72-.42-1.2-.34-1.29.2-2.02 1.62-1.9 2.8.12 1.13.89 2.01 2.06 2.11.4.04.78-.05 1.1-.25.04-.02.08-.02.1.01.25.3.68.35.95.06a.6.6 0 0 0 .15-.42v-5.41c0-.38-.3-.6-.67-.58-.48.03-.55.42-.55.84v1.16c0 .04-.01.05-.04.02Zm-11.9 4.57c3.45.03 3.35-5.06.04-5.08-3.32-.03-3.5 5.06-.04 5.08Zm5.6 0c3.46.03 3.36-5.06.04-5.08-3.31-.02-3.49 5.06-.03 5.08Z" fill="#E6B122"/><path d="M21.14 26.35c-.56-.1-1.28.05-1.46.65-.17.56.27.91.73 1.1.73.31 1.18.5 1.36.59.8.34 1.53.93 1.57 1.87.07 1.4-.92 2.31-2.27 2.42a4.1 4.1 0 0 1-2.93-.87.12.12 0 0 1 .01-.13l.7-.83a.17.17 0 0 1 .23-.03c.63.42 1.54.75 2.26.45.5-.22.74-.85.34-1.29a1.9 1.9 0 0 0-.66-.43c-1.36-.59-3.23-1.16-2.78-3.14.2-.87 1-1.47 1.86-1.63a3.9 3.9 0 0 1 2.86.52c.1.07.12.14.05.24l-.66.8a.18.18 0 0 1-.22.04c-.3-.16-.63-.27-.99-.33ZM7.48 26.5v2c0 .03.01.04.04.04h2.68c.04 0 .09.02.12.05.03.03.04.07.04.11v1.15c0 .04-.01.08-.04.1a.16.16 0 0 1-.11.05H7.49v2.82c0 .12-.07.18-.2.18H6.16a.16.16 0 0 1-.11-.04.15.15 0 0 1-.05-.11v-7.7a.15.15 0 0 1 .05-.1.16.16 0 0 1 .1-.05h4.68c.04 0 .09.02.12.05.03.03.05.07.05.12v1.12c0 .05-.02.09-.05.12a.18.18 0 0 1-.12.05H7.52c-.03 0-.04.01-.04.04ZM13.25 25h-1.09a.17.17 0 0 0-.16.17v7.66c0 .1.07.17.16.17h1.09c.09 0 .16-.08.16-.17v-7.66c0-.1-.07-.17-.16-.17ZM14.35 28.84l-.81-.84a.14.14 0 0 1 0-.2l2.65-2.76a.13.13 0 0 1 .1-.04h1.62c.02 0 .05 0 .07.02l.05.06a.14.14 0 0 1-.03.15l-3.47 3.61a.13.13 0 0 1-.18 0Z" fill="#4D4D4F"/><path d="M33.97 28.61h-.25c-.66 0-1.2.55-1.19 1.2v.31c0 .66.55 1.19 1.21 1.18H34c.66 0 1.2-.54 1.2-1.2v-.3a1.2 1.2 0 0 0-1.22-1.19ZM39.63 28.62l-.27-.01c-.65-.02-1.2.5-1.21 1.15l-.01.33c-.02.65.5 1.2 1.16 1.2l.26.02c.66.01 1.2-.5 1.22-1.16v-.32c.02-.66-.5-1.2-1.15-1.21Z" fill="#E6B122"/><path d="m13.58 30 .78-.81c.05-.06.1-.06.16 0l3.46 3.61c.03.03.03.07.02.12a.1.1 0 0 1-.04.06.1.1 0 0 1-.06.02h-1.6a.24.24 0 0 1-.18-.07l-2.54-2.65a.2.2 0 0 1 0-.28Z" fill="#4D4D4F"/><path d="M44.24 31.08c-.58-.49-.45-1.88.27-2.23.35-.18 1.05-.22 1.24.24.02.07.04.22.04.45v1c0 .15-.02.27-.08.36a1 1 0 0 1-1.47.18Z" fill="#E6B122"/></svg>