<!-- by TradingView --><svg width="56" height="56" viewBox="0 0 56 56" xmlns="http://www.w3.org/2000/svg"><path fill="#F0F3FA" d="M0 0h56v56H0z"/><path d="M30.8 12c1.14.01 2.27.04 3.4.09 1.51.06 3.01.2 4.5.42a9 9 0 0 1 2.13.58c.56.23 1.03.56 1.42 1 .39.6.6 1.25.62 1.94.04 1.14-.3 2.3-.75 3.36-.3.72-.65 1.42-1.03 2.1a49.43 49.43 0 0 1-4.73 6.63 27.61 27.61 0 0 0-7.1-8.16 44.74 44.74 0 0 0-6.1-3.94l-2-1.05c-.55-.29-1.33-.7-1.51-1.32-.14-.47.13-.72.51-.9.26-.12.56-.22.92-.3.8-.17 1.66-.28 2.56-.34 1.07-.06 2.14-.1 3.21-.11h3.95Z" fill="#9BB6D5"/><path d="M26.96 44h-2.32a67.54 67.54 0 0 1-3.18-.14 31.76 31.76 0 0 1-3.7-.48c-.86-.16-1.69-.4-2.48-.72a4.36 4.36 0 0 1-.56-.3 2.5 2.5 0 0 1-1.01-1.2 9.9 9.9 0 0 1-.46-1.2c-.32-1.1-.57-2.29-.73-3.56-.2-1.57-.35-3.19-.42-4.86-.06-1.4-.08-2.7-.08-3.93 0-.19-.03-.65-.02-.97l.02-.4c0-.99.03-1.97.11-2.95.07-.74.17-1.43.32-2.07.33-1.42 1.04-2.72 2.59-3.03.94-.2 1.98-.07 2.9.16 1 .24 2.01.56 3.06.98 1.71.68 3.55 1.5 5.51 2.5.24.11.41.26.52.43.22.33-.05.73-.3.99a7.2 7.2 0 0 1-.63.6l-2.1 1.7c-.95.76-1.92 1.64-2.91 2.63l-.46.46a37.17 37.17 0 0 0-3.9 4.85 25.22 25.22 0 0 0-2.32 4.06 7.13 7.13 0 0 0-.66 2.65 2.82 2.82 0 0 0 .64 1.88c.6.44 1.43.6 2.17.58 1.22-.03 2.46-.36 3.58-.8a21.44 21.44 0 0 0 3.39-1.72c1.75-1.08 3.4-2.3 4.95-3.67a55.35 55.35 0 0 0 4.43-4.33 90.96 90.96 0 0 0 3.47-4.02c1.7-2.07 3.37-4.3 4.7-6.64.4-.67.74-1.37 1.04-2.09.45-1.05.79-2.22.75-3.36a3.81 3.81 0 0 0-.62-1.94c.42.36.69.94.84 1.43.24.75.41 1.54.52 2.37.16 1.17.26 2.4.32 3.68a55.9 55.9 0 0 1 .07 3.09l-.02.78c0 .75 0 1.55-.03 2.4-.1 3.23-.28 6.52-.56 9.87-.07.8-.2 1.56-.42 2.28a3.82 3.82 0 0 1-2.32 2.58c-.53.22-1.12.4-1.76.51-.82.15-1.56.26-2.23.33-3.22.32-6.46.52-9.7.59Z" fill="#173D6E"/><path d="M20.63 28.64a12.16 12.16 0 0 0 2.06 3.25c1.04 1.2 2.2 2.28 3.52 3.23.71.53 1.47.98 2.27 1.35a36.85 36.85 0 0 1-4.95 3.67 21.45 21.45 0 0 1-3.4 1.72c-1.1.44-2.35.77-3.57.8a3.62 3.62 0 0 1-2.17-.58 2.82 2.82 0 0 1-.63-1.88c0-.9.29-1.8.65-2.65.6-1.4 1.42-2.74 2.31-4.06a37.17 37.17 0 0 1 3.91-4.85Z" fill="#9BB6D5"/></svg>