<!-- by TradingView --><svg width="56" height="56" viewBox="0 0 56 56" xmlns="http://www.w3.org/2000/svg"><path fill="#F0F3FA" d="M0 0h56v56H0z"/><path d="m28.66 17.77 1.72-.02a.08.08 0 0 1 .08.06.08.08 0 0 1-.03.1l-1.4 1a.08.08 0 0 0-.03.1l.55 1.64a.08.08 0 0 1-.03.09.08.08 0 0 1-.1 0l-1.38-1.03a.08.08 0 0 0-.1 0l-1.38 1.03a.08.08 0 0 1-.12-.04l-.01-.05.54-1.64a.08.08 0 0 0-.03-.1l-1.4-1a.08.08 0 0 1-.03-.1.08.08 0 0 1 .08-.05l1.72.01a.08.08 0 0 0 .08-.06l.51-1.65c0-.02.02-.03.03-.04a.08.08 0 0 1 .13.04l.52 1.65c0 .02.02.03.03.04l.05.02ZM23.83 20.1l.9-.02a.08.08 0 0 1 .08.06.09.09 0 0 1-.03.1l-.74.52a.09.09 0 0 0-.03.1l.3.85a.09.09 0 0 1-.09.11c-.02 0-.03 0-.05-.02l-.72-.54a.08.08 0 0 0-.1 0l-.72.54a.08.08 0 0 1-.13-.04v-.05l.3-.86a.09.09 0 0 0-.04-.1l-.73-.51a.09.09 0 0 1-.03-.1.09.09 0 0 1 .08-.06l.9.02a.08.08 0 0 0 .08-.06l.26-.87a.09.09 0 0 1 .08-.06l.05.01.04.05.26.87a.09.09 0 0 0 .08.06ZM33 20.1l.89-.01a.08.08 0 0 1 .08.05.09.09 0 0 1-.03.1l-.73.52a.09.09 0 0 0-.03.1l.3.85a.09.09 0 0 1-.09.1h-.05l-.71-.55a.08.08 0 0 0-.1 0l-.72.55a.08.08 0 0 1-.1 0 .09.09 0 0 1-.03-.1l.29-.85a.09.09 0 0 0-.03-.1l-.74-.5a.09.09 0 0 1-.03-.1.09.09 0 0 1 .08-.06H32.2a.09.09 0 0 0 .03-.05l.26-.86c0-.02.01-.04.03-.05a.09.09 0 0 1 .13.05l.26.86a.09.09 0 0 0 .09.05Z" fill="#669934"/><path d="m20.08 26.61 4.28 2.48 3.84 2.22a.24.24 0 0 0 .23 0l3.2-1.84 4.27-2.46 8.02-4.65c1.16-.66 1.84-1.13 2.99-.52 1.43.78 1.47 2.8.02 3.67a953.35 953.35 0 0 1-6.76 3.97l-4.22 2.46c-2.11 1.2-4.25 2.43-6.43 3.71-.96.57-1.7.4-2.68-.17l-6.78-3.93-4.28-2.48a3475.86 3475.86 0 0 1-6.34-3.7c-2.01-1.63.1-4.83 2.46-3.47 2.75 1.6 5.48 3.17 8.18 4.71Z" fill="#146566"/><path d="m35.9 27.01-4.27 2.46-3.87-2.25a.21.21 0 0 0-.23 0l-3.17 1.87-4.28-2.48c3.53-2.1 5.78-3.39 6.73-3.89.75-.39 1.57-.07 2.34.37 2.25 1.3 4.5 2.6 6.75 3.92ZM20.06 31.55c-2.98 1.71-5.96 3.44-8.93 5.17-1.39.82-3.16-.27-3.13-1.88.01-.86.4-1.5 1.15-1.93 2.19-1.24 4.4-2.52 6.63-3.84l4.28 2.48ZM40.17 29.48l5.8 3.35a3 3 0 0 1 .95.78c1.06 1.48-.2 3.64-1.98 3.36a4.46 4.46 0 0 1-1.3-.56c-2.54-1.45-5.1-2.94-7.7-4.47l4.23-2.46Z" fill="#669934"/></svg>