<!-- by TradingView --><svg width="56" height="56" viewBox="0 0 56 56" xmlns="http://www.w3.org/2000/svg"><path fill="#F0F3FA" d="M0 0h56v56H0z"/><path d="M21.1 20.76c-5.87 4.3-7.82 9.72-6.64 17.52a16.97 16.97 0 0 0 26.76.41c-7.7 3.4-13.43.02-14.63-.79a10 10 0 0 1-5.5-17.14Z" fill="url(#ae3vbfnhf)"/><path d="M18.4 13.97C21.56 11.96 24.85 11 28 11a17 17 0 0 1 13.22 27.7c-7.7 3.4-13.43.02-14.63-.8a10 10 0 0 0 7.68-17.69c-1.66-1.97-7.82-8.42-15.87-6.24Z" fill="url(#be3vbfnhf)"/><path d="M34.27 20.21a9.96 9.96 0 0 0-13.17.55c-5.87 4.3-7.82 9.72-6.64 17.52a16.98 16.98 0 0 1 3.94-24.32c8.05-2.17 14.21 4.28 15.87 6.25Z" fill="url(#ce3vbfnhf)"/><defs><linearGradient id="ae3vbfnhf" x1="27.67" y1="23.34" x2="27.67" y2="45" gradientUnits="userSpaceOnUse"><stop stop-color="#DEC244"/><stop offset="1" stop-color="#017A38"/></linearGradient><linearGradient id="be3vbfnhf" x1="31.7" y1="11" x2="31.7" y2="40.18" gradientUnits="userSpaceOnUse"><stop stop-color="#1B75BC"/><stop offset="1" stop-color="#252B6C"/></linearGradient><linearGradient id="ce3vbfnhf" x1="22.86" y1="13.52" x2="22.86" y2="38.28" gradientUnits="userSpaceOnUse"><stop stop-color="#EDA524"/><stop offset="1" stop-color="#ED3724"/></linearGradient></defs></svg>