<!-- by TradingView --><svg width="56" height="56" viewBox="0 0 56 56" xmlns="http://www.w3.org/2000/svg"><path fill="#F0F3FA" d="M0 0h56v56H0z"/><path d="M11.16 25.69a17 17 0 0 1 33.65-.42c.52 3.09 0 7.6-1.68 10.25-.77.94-1.7 1.08-2.76.42-.14-.09-.16-.2-.07-.33l.05-.07a14.29 14.29 0 0 0 2.1-7.19c0-.61.02-1.03-.02-1.49a14.4 14.4 0 0 0-5.1-9.76 14.48 14.48 0 0 0-9.85-3.27 13.82 13.82 0 0 0-7.91 2.87 14.17 14.17 0 0 0-5.63 11.08c-.04 2.8.67 5.38 2.11 7.76.19.3-.36.76-.6.9-1.72.97-2.85-.66-3.33-2.07a18.84 18.84 0 0 1-.96-8.68Z" fill="#F7CF0C"/><path d="M25.99 25.9a.33.33 0 0 0 .1-.11l.02-.02c.44-.37.78-.7 1.01-.98.38-.45.81-1.1 1.38-.63.27.23.54.6.76.82a43.47 43.47 0 0 0 2.94 2.66l.02.07c0 .18-.11.3-.28.29h-7.72c-.1 0-.17-.06-.2-.18a.26.26 0 0 1 .08-.26L26 25.9Z" fill="#3F3F3F"/><path d="M37.35 29c.33 0 .6.15.46.5-.2.47-.47.97-.96 1.22-.46.22-1.06.28-1.57.28H21.13c-.52 0-1.12-.05-1.58-.28-.5-.24-.76-.74-.96-1.21-.14-.35.13-.5.46-.51h18.3ZM21.05 32.18a.24.24 0 0 1 .08-.08c.04-.02.08-.1.12-.1h13.46c.3 0 .78.04.6.43-.13.3-.28.58-.45.83-.37.52-1.18.74-1.85.74h-10c-.55 0-1-.14-1.36-.44-.31-.26-.44-.66-.62-1.07a.31.31 0 0 1 .02-.3ZM32.08 35c.34 0 .62.18.44.53-.4.78-.71 1.3-1.72 1.46l-.84.01h-4.62c-.25.05-.47-.2-.66-.38-.45-.4-.72-.82-.82-1.26-.04-.13.06-.25.28-.36h7.94Z" fill="#1F4877"/><path d="M40.44 37.25c-.49.31-1.05.75-1.67 1.33-.64.58-1.13.97-1.76 1.38-.36.24-.71.41-1.07.52a2.53 2.53 0 0 1-1.78-.14.07.07 0 0 1 .02-.1l.83-.55c1.05-.74 1.93-1.4 2.84-1.8a11.3 11.3 0 0 1 2.59-.76l.03.03c.02.03.02.06-.03.09Z" fill="#357CC0"/><path d="M25.1 42.29a7.8 7.8 0 0 0 3.77-.95c1.18-.6 2.05-1.01 3.4-.72.73.17 1.5.47 2.12.67 2.1.66 4.18-1.42 5.59-2.66a19.41 19.41 0 0 1 1.9-1.39.05.05 0 0 1 .06.09 17.38 17.38 0 0 1-6.65 5.89c-.97.5-1.91.86-2.83 1.09a1.4 1.4 0 0 1-.75-.1 194.6 194.6 0 0 1-2.59-.86c-.18-.06-.58-.17-1.2-.31-.19-.05-.39-.07-.58-.08-.26 0-.52-.06-.8-.08-1.68-.08-2.98-.14-3.91-.2a17 17 0 0 1-2.3-.23 10.7 10.7 0 0 1-2.8-1.06l-.51-.2a1.8 1.8 0 0 1-.5-.32 18.64 18.64 0 0 1-2.61-2.82.11.11 0 0 1 .05-.1 4.15 4.15 0 0 1 1.87.41c1.26.6 2.48 1.54 3.7 2.32a9.36 9.36 0 0 0 5.58 1.6Z" fill="#357CC0"/><path d="M20 38.13c1.42.4 2.75 1 3.99 1.8l1.37.92c.22.15.52.29.74.4.22.11.2.18-.04.2a13 13 0 0 1-3.19-.2 5.78 5.78 0 0 1-1.38-.45 19.43 19.43 0 0 1-3.22-1.95c-.68-.49-1.3-.84-2-1.23-.11-.06-.1-.1.01-.12h.11c1.35.17 2.42.3 3.6.63ZM28.07 38.36a11.88 11.88 0 0 1 4.87 1.6v.02c0 .02-.02.04-.03.04a.16.16 0 0 1-.09.02 7.36 7.36 0 0 0-1.92-.18 8.83 8.83 0 0 0-3.53.95.14.14 0 0 1-.1 0c-1.18-.4-2.15-1.22-3.1-1.85a.1.1 0 0 1-.01-.16.1.1 0 0 1 .05-.03l2.6-.45c.43-.07.85-.06 1.26.04ZM20.81 43.3c-.01-.02 0-.02.06 0 .02.06.05.08.1.09.5.04 1.02.12 1.52.13 1.9.07 2.94.1 4.32.22a8.3 8.3 0 0 1 1.33.19c.72.18 1.39.4 2 .64.43.16.4.25-.04.25-.35.01-.76.1-1.1.12-1.19.09-2.24.08-3.15-.02a18.34 18.34 0 0 1-5.52-1.58l.03-.06c0-.02.01-.02.03-.01.15.05.29.07.42.03Z" fill="#357CC0"/></svg>