<!-- by TradingView --><svg width="56" height="56" viewBox="0 0 56 56" xmlns="http://www.w3.org/2000/svg"><path fill="#F0F3FA" d="M0 0h56v56H0z"/><path d="M15.93 35.06c-.5-.02-.59.2-.75.57a.57.57 0 0 1-.35.32.68.68 0 0 1-.2.05c-.27-.02-.36-.14-.27-.38l1.32-3.41c.04-.09.1-.14.2-.17.26-.07.52-.05.76.05.07.04.13.1.16.17l1.38 3.33c.08.2.01.31-.2.35-.3.04-.5.01-.6-.1a.35.35 0 0 1-.11-.21.8.8 0 0 0-.14-.41.29.29 0 0 0-.21-.11c-.32-.03-.64-.04-1-.05Zm-.19-.78a.1.1 0 0 0 .01.09.1.1 0 0 0 .08.04h.8a.1.1 0 0 0 .08-.04.1.1 0 0 0 .01-.1l-.4-.93a.1.1 0 0 0-.04-.04.1.1 0 0 0-.11 0 .1.1 0 0 0-.04.04l-.39.94ZM21.96 35.35l1.17-3.02a.5.5 0 0 1 .2-.25c.1-.06.2-.08.32-.08.4.02.65.2.75.51.06.19.48 1.23 1.27 3.13a.25.25 0 0 1-.03.25.28.28 0 0 1-.23.11h-.2a.49.49 0 0 1-.27-.08.46.46 0 0 1-.17-.2l-.2-.5a.2.2 0 0 0-.2-.13h-1.24c-.13 0-.22.06-.26.17l-.16.42a.45.45 0 0 1-.17.21.48.48 0 0 1-.27.08H19a.27.27 0 0 1-.18-.07.24.24 0 0 1-.08-.17v-3.54c0-.1.05-.15.16-.15h.42a.18.18 0 0 1 .12.05.17.17 0 0 1 .05.12v2.97c0 .05.02.1.06.13a.2.2 0 0 0 .14.05h2.25l.02-.01Zm1.78-.9c.12 0 .23-.02.33-.07.08-.04.1-.1.07-.18-.23-.62-.38-.93-.46-.93-.07 0-.2.32-.37.97-.02.08.01.14.1.17.1.04.2.05.33.05ZM26.75 33.45c0 .02 0 .04.02.06 0 .02.03.03.05.04a.12.12 0 0 0 .12-.03l1.28-1.21c.2-.18.43-.28.7-.28h.31c.28 0 .32.1.12.28l-1.18 1.12a.23.23 0 0 0-.07.14c0 .05 0 .1.04.15l1.23 1.76c.03.04.07.07.11.09a.27.27 0 0 0 .27-.03.25.25 0 0 0 .09-.11l1.25-3.2a.3.3 0 0 1 .2-.18c.5-.16.86.06 1.07.56.36.87.76 1.88 1.21 3.05.09.21 0 .32-.24.32h-.14c-.1 0-.2-.03-.28-.08a.49.49 0 0 1-.19-.22l-.2-.5c-.05-.1-.12-.14-.23-.14h-1.25c-.1 0-.16.04-.2.12-.17.34-.32.56-.44.67a.35.35 0 0 1-.23.09c-.78 0-1.38.14-1.78-.33a188.99 188.99 0 0 1-.88-1.28.27.27 0 0 0-.22-.03.27.27 0 0 0-.1.05c-.36.3-.52.77-.46 1.4 0 .05 0 .09-.02.13a.25.25 0 0 1-.08.1.26.26 0 0 1-.25.02l-.11-.04a.42.42 0 0 1-.2-.15.39.39 0 0 1-.07-.22v-3.28c0-.19.1-.28.3-.28h.16a.3.3 0 0 1 .2.08c.06.05.09.12.09.2v1.16Zm4.43.83a.09.09 0 0 0 .02.08.1.1 0 0 0 .08.04l.75-.02a.1.1 0 0 0 .04-.01.1.1 0 0 0 .04-.03.09.09 0 0 0 0-.1l-.4-.92a.1.1 0 0 0-.04-.04.1.1 0 0 0-.11 0 .1.1 0 0 0-.04.05l-.34.95ZM35.15 32.71a.29.29 0 0 0-.12.1.27.27 0 0 0-.02.29c.03.04.07.08.12.1.23.13.67.28 1.34.46 1.45.4 1.26 2.06-.2 2.3-1.08.16-1.8-.14-2.16-.92-.1-.2-.03-.32.2-.34l.13-.02c.29-.03.49.06.6.28.18.39.58.49 1.19.3.23-.06.35-.22.34-.48a.37.37 0 0 0-.09-.22.4.4 0 0 0-.2-.13c-.57-.15-1.73-.35-1.9-.84-.14-.42-.16-1.33.46-1.48.8-.19 2.4-.26 2.4.84a.25.25 0 0 1-.08.19c-.1.1-.21.13-.34.1a.33.33 0 0 1-.21-.11c-.41-.52-.9-.66-1.46-.42ZM39.67 32c.13 0 .25.02.35.06.1.03.16.1.2.18l1.38 3.36c.1.25.01.38-.26.38h-.08a.57.57 0 0 1-.55-.33l-.22-.44c-.04-.07-.12-.1-.24-.11h-1.13c-.13.01-.2.05-.24.11l-.22.45a.58.58 0 0 1-.54.34h-.08c-.28 0-.36-.13-.26-.38l1.34-3.37a.3.3 0 0 1 .2-.19c.1-.04.22-.06.35-.06Zm-.45 2.34a.1.1 0 0 0 .02.09.1.1 0 0 0 .08.03l.7-.02a.1.1 0 0 0 .08-.05.1.1 0 0 0 0-.09l-.38-1.02a.1.1 0 0 0-.04-.05.1.1 0 0 0-.12 0 .1.1 0 0 0-.03.05l-.3 1.06ZM28.13 13.07l-.03-.03A.13.13 0 0 0 28 13h-.02l-1.87 1.95.04.03.07.02h3.58l.06-.03a.12.12 0 0 0 .05-.04l-1.78-1.86Zm2.8 2.93H25.1l-1.82 1.9a.2.2 0 0 0 .05.07c.03.02.06.03.1.03h9.19l.09-.03a.2.2 0 0 0 .05-.07L30.94 16Zm2.88 3H22.22l-1.85 1.93.03.04c.02.02.05.03.08.03h15.15c.02 0 .05-.01.07-.03L33.81 19Zm2.9 3.03a1135.52 1135.52 0 0 0-17.4 0l-1.8 1.88.04.03c.03.02.06.04.09.04a1994.35 1994.35 0 0 0 20.89-.04l-1.81-1.9Zm2.89 3L28.09 25H16.47l-1.74 1.82c0 .1.1.14.27.14a974.96 974.96 0 0 1 13.08 0h5.09c2.67 0 5.34.02 8 .04.12 0 .2-.02.24-.07l-1.81-1.9ZM42.43 28H13.6l-1.79 1.87v.05l.05.06.06.02h32.3c.01 0 .03 0 .05-.02a.13.13 0 0 0 .03-.04L42.43 28Zm2.88 3h-3.69a.13.13 0 0 0-.08.03.2.2 0 0 0-.06.1.25.25 0 0 0 0 .1c0 .04.02.08.04.1l1.25 1.61c.03.04.07.06.1.06h4.16c.03 0 .06-.01.08-.03a.18.18 0 0 0 .04-.05L45.3 31Zm2.87 3h-3.76a.13.13 0 0 0-.08.03.2.2 0 0 0-.06.09.25.25 0 0 0 0 .11c0 .04.02.07.04.1l1.24 1.61.05.05.06.01h4.2c.03 0 .06-.01.08-.03a.18.18 0 0 0 .05-.07L48.18 34ZM8.93 32.87 10.72 31h3.73c.03 0 .06.01.08.03a.2.2 0 0 1 .06.09v.11c0 .04-.01.07-.03.1l-1.24 1.61a.15.15 0 0 1-.05.05.12.12 0 0 1-.06.01H9.07a.13.13 0 0 1-.08-.03.2.2 0 0 1-.06-.1ZM6 35.92 7.84 34h3.97a.1.1 0 0 1 .07.03l.05.06a.2.2 0 0 1 0 .1c0 .02 0 .05-.03.07l-1.34 1.7a.11.11 0 0 1-.09.04H6.11a.1.1 0 0 1-.07-.03.15.15 0 0 1-.04-.05Z" fill="#066EB6"/></svg>