<!-- by TradingView --><svg width="56" height="56" viewBox="0 0 56 56" xmlns="http://www.w3.org/2000/svg"><path fill="#F0F3FA" d="M0 0h56v56H0z"/><path d="M24.45 22.29c.03.02.05.05.05.08v10.27c0 2.53-2.15 3.38-4.39 3.36-.07 0-.11-.04-.11-.11v-15.8a.08.08 0 0 1 .12-.08l4.33 2.28ZM30.52 27.13c-.03 1.98-.02 3.68.01 4.51.05 1.2 1.59.83 2.35.67a.1.1 0 0 1 .09.03.1.1 0 0 1 .03.03v3.42c0 .07-.03.1-.1.11-1.35.14-2.57.13-3.84-.03-1.27-.15-2.18-.58-2.65-1.71a5.85 5.85 0 0 1-.41-2.24l.03-9.5c0-.09.04-.15.12-.2l4.24-2.21a.08.08 0 0 1 .1.03c.02.01.02.03.02.04v3.77c0 .1.05.15.15.15h2.18c.1 0 .16.04.16.14v2.73c0 .04-.03.07-.05.1a.13.13 0 0 1-.1.03h-2.2c-.09 0-.13.05-.13.13ZM39.72 24c3.78-.03 6.75 2.05 6.79 5.94.03 3.88-2.9 6.02-6.67 6.06-3.78.04-6.75-2.05-6.79-5.94-.04-3.88 2.89-6.02 6.67-6.06Zm-2.19 6.03c0 1.36.5 3.01 2.23 3.02 1.72 0 2.24-1.65 2.25-3 0-1.36-.5-3.02-2.23-3.02-1.72 0-2.24 1.64-2.25 3ZM14.89 34.5a.1.1 0 0 0-.06-.08.1.1 0 0 0-.1.02c-1.45 1.38-3.36 1.7-5.33 1.51a3.85 3.85 0 0 1-2.65-1.23c-1.23-1.4-.93-3.9.82-4.75.5-.25.98-.42 1.47-.52 1.54-.32 2.86-.6 4-.87.47-.1.95-.27 1.43-.48a.2.2 0 0 0 .12-.17c.04-1.6-1.83-1.44-2.9-1.12-.47.15-.8.62-.96 1.01a.24.24 0 0 1-.24.14l-3.97-.4a.15.15 0 0 1-.1-.05.14.14 0 0 1-.03-.12c.46-2.3 2.14-3.06 4.42-3.3a21 21 0 0 1 3.86 0c1.54.12 2.89.47 3.67 1.8.43.71.66 1.36.66 1.93v5.5c0 .2.52 2.63.5 2.63l-4.27.05a6.12 6.12 0 0 1-.34-1.5Zm-3.13-.95c1.16.09 2.4-.48 2.7-1.61.13-.46.17-.96.15-1.5 0-.1-.05-.12-.13-.1l-2.62.78c-.42.11-.72.26-.9.42-.92.81-.33 1.92.8 2ZM48.38 16.03a.37.37 0 0 0-.37.04.13.13 0 0 0-.05.09.12.12 0 0 0 .03.1c.1.12.24.14.4.06a.16.16 0 0 0 .07-.06.15.15 0 0 0-.01-.17.17.17 0 0 0-.07-.06ZM48.14 22.22c0-.07.03-.08.09-.04.46.33.63.75.52 1.26-.03.11.02.18.14.21l.1.02a.13.13 0 0 0 .1-.02.12.12 0 0 0 .05-.1v-.33c0-.12.05-.14.14-.05l.65.62a.3.3 0 0 0 .23.09c.17 0 .24.09.21.28a.13.13 0 0 0 .03.1.14.14 0 0 0 .1.06.3.3 0 0 0 .3-.17c.05-.08.03-.15-.05-.2a.5.5 0 0 0-.12-.05.54.54 0 0 1-.2-.12l-.88-.85c-.09-.09-.07-.13.06-.13h.26a.18.18 0 0 0 .14-.07.16.16 0 0 0 .02-.16c-.04-.11-.13-.16-.26-.13-.52.09-.93-.07-1.24-.49-.07-.09-.05-.12.07-.11.3.04.6.03.87 0 .08-.02.12-.07.12-.17a.14.14 0 0 0-.05-.1.16.16 0 0 0-.1-.04h-1.35a.16.16 0 0 1-.1-.04l-.49-.46a.11.11 0 0 1-.03-.11c0-.02.02-.04.03-.05a.13.13 0 0 1 .05-.04l.57-.16a.2.2 0 0 1 .08 0c.02 0 .05 0 .07.02l1.26.64a.15.15 0 0 0 .17-.02l.09-.09a.1.1 0 0 0 .01-.12.1.1 0 0 0-.03-.03l-.85-.43c-.1-.05-.1-.1 0-.15.47-.23.89-.2 1.23.11.04.03.08.06.14.08l.15.03c.27-.1.28-.2.04-.34l-.2-.12c-.1-.06-.1-.1.01-.13l1-.29a.16.16 0 0 0 .09-.07.14.14 0 0 0 0-.11l-.02-.08a.13.13 0 0 0-.06-.08.14.14 0 0 0-.1-.01l-.95.27c-.1.03-.13 0-.09-.1.09-.17.1-.32.02-.44a.1.1 0 0 0-.06-.05c-.07-.01-.14.02-.21.11a.3.3 0 0 0-.03.06c-.15.47-.48.74-1.01.82-.11.01-.14-.03-.1-.12l.43-.76c.03-.06.01-.1-.05-.13l-.06-.03a.15.15 0 0 0-.17.03c-.18.2-.33.44-.47.74-.22.48-.52.54-1.03.64h-.01c-.1.02-.13-.01-.1-.1l.16-.64a.26.26 0 0 1 .15-.18l1.15-.58a.12.12 0 0 0 .07-.08c0-.04 0-.08-.02-.12l-.04-.07c-.06-.11-.15-.13-.26-.06l-.73.48c-.1.06-.14.04-.12-.07.07-.57.37-.93.9-1.08.08-.03.12-.09.12-.18v-.08c0-.07-.03-.1-.1-.1a1 1 0 0 0-.46.18c-.11.06-.15.04-.12-.08l.28-1.05a.09.09 0 0 0-.01-.07.1.1 0 0 0-.06-.05l-.1-.02a.16.16 0 0 0-.13.02.16.16 0 0 0-.07.1l-.25.93c-.03.1-.07.11-.14.03l-.2-.29a.1.1 0 0 0-.05-.03.1.1 0 0 0-.1.02.1.1 0 0 0-.03.05l-.04.15.01.1.33.59c.02.04.03.08.02.12l-.16.6c-.03.1-.07.11-.12.02l-.4-.73a.13.13 0 0 0-.07-.06.13.13 0 0 0-.09 0l-.08.02c-.1.03-.13.09-.09.18.17.4.4.75.7 1.08a.1.1 0 0 1 .02.1l-.21.81a.06.06 0 0 1-.04.04.06.06 0 0 1-.06 0l-.54-.53a.24.24 0 0 1-.08-.17v-1.25c0-.07-.04-.12-.11-.13l-.1-.03c-.1-.02-.15.02-.15.12v.9c0 .1-.04.11-.1.04l-.44-.4a.29.29 0 0 1-.09-.22v-.67a.14.14 0 0 0-.04-.1.15.15 0 0 0-.1-.04h-.13c-.08 0-.1.04-.1.11.05.18.04.3-.03.36-.06.06-.12.06-.18-.01a2.47 2.47 0 0 0-.88-.72c-.01 0-.03 0-.04.02a.08.08 0 0 0-.03.02v.14a.22.22 0 0 0 .06.15l.64.61c.05.05.05.1 0 .14-.08.05-.2.08-.34.07-.07 0-.1.02-.1.09v.07c0 .08.04.13.12.14.25.04.45.04.6 0a.4.4 0 0 1 .4.11l.37.36c.09.08.07.13-.06.13h-.85c-.08 0-.11.03-.11.1v.08c0 .1.05.16.17.16h1.22c.12 0 .22.04.3.12l.45.43.02.03a.07.07 0 0 1-.02.08l-.03.02-.62.17a.24.24 0 0 1-.18-.02l-1.27-.64a.15.15 0 0 0-.17.02l-.06.05a.13.13 0 0 0-.01.17l.05.04.81.42c.02 0 .03.02.04.03a.08.08 0 0 1-.01.1.1.1 0 0 1-.05.03l-.4.11a.59.59 0 0 1-.45-.04l-.62-.31c-.07-.04-.12-.02-.16.04l-.04.08a.13.13 0 0 0 .06.18l.27.14c.13.07.13.12-.02.16l-.95.27a.16.16 0 0 0-.1.1.15.15 0 0 0 0 .12l.04.07.06.05c.03.01.06.02.09 0l.96-.27c.11-.03.14 0 .09.1l-.13.24a.16.16 0 0 0 0 .15c.02.05.06.08.1.1.09.03.16 0 .2-.08l.31-.55c.04-.08.1-.13.2-.16l.46-.13c.17-.05.22 0 .13.15l-.37.68c-.05.08-.02.13.07.15l.11.03c.08.02.14-.01.18-.08l.56-1.01c.04-.08.1-.13.18-.16.18-.09.4-.14.67-.16.1 0 .13.04.1.12l-.15.59a.27.27 0 0 1-.15.18c-.34.14-.71.35-1.13.63a.16.16 0 0 0-.07.14v.08l.01.05.04.04a.12.12 0 0 0 .12 0l.81-.41c.16-.08.21-.04.18.13-.1.42-.36.71-.8.88a.27.27 0 0 0-.14.14c-.04.07-.05.13-.03.18a.13.13 0 0 0 .07.09.14.14 0 0 0 .12 0l.38-.2c.05-.03.08-.01.06.05l-.27 1.04c-.01.04 0 .07.02.1.02.04.05.06.08.07l.1.02.1-.01a.13.13 0 0 0 .06-.08l.26-.98c.01-.07.04-.07.07-.01.08.14.13.21.16.22.4.09.5-.03.26-.34l-.25-.35a.3.3 0 0 1-.05-.27l.15-.58c.03-.1.07-.11.13-.01l.39.7c.02.04.05.07.09.08.03.01.07.02.11 0l.13-.03c.05-.01.06-.05.03-.1l-.68-1.24a.18.18 0 0 1-.02-.13l.15-.6c.03-.1.09-.11.17-.04l.46.44c.05.06.08.12.08.2v1.14c0 .14.07.22.2.25l.09.02c.06.02.1 0 .1-.07v-1ZM43.4 17.3a.2.2 0 0 1 .12-.02.2.2 0 0 1 .1.07.18.18 0 0 1 0 .23c-.03.05-.1.1-.2.14a.14.14 0 0 1-.14-.01.13.13 0 0 1-.03-.04c-.1-.18-.05-.3.14-.38ZM51.89 19.7c-.1.05-.23 0-.3-.13-.05-.11-.01-.25.1-.3.1-.04.22.02.28.14.06.12.02.25-.08.3Z" fill="#26ABE3"/><path d="M46.88 19.53c.1.02.12.07.1.16-.04.17-.16.24-.36.22a.2.2 0 0 1-.1-.04.2.2 0 0 1-.07-.09.18.18 0 0 1 .05-.2c.08-.08.2-.1.38-.05ZM48.07 19.93a.13.13 0 0 0-.05-.09c-.12-.07-.22-.08-.32-.03a.21.21 0 0 0-.07.09.2.2 0 0 0 .02.21c.02.03.06.06.1.07.1.04.2-.02.3-.16a.12.12 0 0 0 .02-.1ZM45.74 20.65c.1.09.23.1.3.01.08-.07.07-.2-.02-.29-.1-.08-.23-.09-.3-.01-.09.08-.07.2.02.3ZM48.37 21.1c0 .11-.1.21-.22.21a.22.22 0 0 1-.23-.22c0-.12.1-.21.23-.21.12 0 .22.1.22.21ZM46.25 21.76c.11-.05.18-.16.14-.25-.04-.1-.17-.13-.28-.09-.12.05-.18.16-.14.25.04.1.17.13.28.09ZM47.44 21.69a.34.34 0 0 0-.16-.03c-.09 0-.14.05-.15.14-.02.14.03.24.15.3.08.04.14.03.19-.05a.5.5 0 0 0 .03-.22c0-.08-.02-.12-.06-.14ZM42.16 21.93c.08-.01.17 0 .27.02l.06.03.04.06v.06c0 .03 0 .05-.02.07-.16.18-.31.2-.46.05a.17.17 0 0 1-.04-.18.18.18 0 0 1 .06-.07.19.19 0 0 1 .09-.04ZM46.05 25.41c0 .12-.1.22-.23.22a.22.22 0 0 1-.23-.22c0-.12.1-.21.23-.21.12 0 .23.1.23.21Z" fill="#26ABE3"/></svg>