<!-- by TradingView --><svg width="56" height="56" viewBox="0 0 56 56" xmlns="http://www.w3.org/2000/svg"><path fill="#F0F3FA" d="M0 0h56v56H0z"/><path d="M43.57 38.3a29.1 29.1 0 0 1-1.37 3.77c-.12.25-.31.55-.63.68-.33.14-.71.32-1.14.47-2.57.93-5.42 1.5-8.57 1.69-6.03.37-11.87-.4-17.51-2.34a.98.98 0 0 1-.58-.54c-.5-1.06-.95-2.33-1.34-3.8a43.11 43.11 0 0 1-1.39-9.11 33.51 33.51 0 0 1 2.85-15.24 39.75 39.75 0 0 1 16.12-2.84c3.37.17 6.63.76 9.8 1.76.84.27 1.64.6 2.4.98.1.04.16.12.2.22a46.58 46.58 0 0 1 2.4 10.73 35.9 35.9 0 0 1-1.24 13.56Zm-1.59.13a34.57 34.57 0 0 0 1.42-7.7c.11-1.62.16-2.64.15-3.06-.1-3.54-.77-7.5-2.04-11.88a1.66 1.66 0 0 0-.94-1.14c-4.45-1.92-9.62-2.52-14.51-2.24a38.26 38.26 0 0 0-11 2.47.5.5 0 0 0-.28.29 32.53 32.53 0 0 0-2.29 13.68c.2 4.02.86 8.27 2.34 11.96.12.3.29.5.58.6a41.37 41.37 0 0 0 17.08 2.11c2.6-.2 5.11-.77 7.53-1.68.48-.19.8-.43.95-.72.3-.55.63-1.45 1.01-2.69Z" fill="#213367"/><path d="M39.99 16.08a23.9 23.9 0 0 1 2.45 10.71 35.5 35.5 0 0 1-2.24 12.7c-.2.52-.46.79-1 1.03-.89.42-1.82.76-2.8 1.03a31.11 31.11 0 0 1-10.4 1c-.48-.05-1.34-.18-2.6-.38a41.8 41.8 0 0 1-6.84-1.72c-.66-.23-.95-.67-1.18-1.36-1-3.03-1.6-6.15-1.82-9.35-.3-4.68.4-9.19 2.13-13.51.1-.27.3-.47.58-.6 4.78-2.08 9.97-2.59 15.32-2.04 2.73.28 5.38.98 7.93 2.1.24.11.4.24.47.39Zm2.26 10.73a23.61 23.61 0 0 0-2.42-10.57c-.07-.15-.23-.28-.46-.38a25.75 25.75 0 0 0-7.83-2.08c-5.28-.54-10.4-.04-15.12 2.02-.28.12-.48.32-.58.58a30.14 30.14 0 0 0-2.1 13.34c.21 3.16.81 6.24 1.8 9.24.22.67.51 1.11 1.16 1.33a41.3 41.3 0 0 0 6.76 1.7c1.23.2 2.09.33 2.57.37a30.74 30.74 0 0 0 10.27-.98c.95-.26 1.87-.6 2.76-1.01.52-.25.78-.5.98-1.03a35.03 35.03 0 0 0 2.21-12.53Z" fill="#213367"/><path d="M30.2 20c-.05 0-.1 0-.14.04a.2.2 0 0 0-.06.14v11.43c0 .26-.12.39-.37.39h-3.38a.29.29 0 0 1-.2-.09c-.06-.05-.05-.12-.05-.2V20.18c0-.05-.06-.1-.1-.13a.18.18 0 0 0-.12-.05h-3.15a.61.61 0 0 0-.57.38.64.64 0 0 0-.06.23v5c0 .1.06.2.13.27a.4.4 0 0 0 .27.12h2.44c.04 0 .07.01.1.04s.06.07.06.1v3.64c0 .06-.04.11-.08.15a.21.21 0 0 1-.14.07h-2.49a.24.24 0 0 0-.17.07c-.04.04-.12.1-.12.16v1.62c0 .04.04.08.01.1a.15.15 0 0 1-.1.05h-3.7a.2.2 0 0 1-.19-.13 2256.49 2256.49 0 0 1 0-14.54c0-.5.18-.88.53-1.11.21-.15.58-.22 1.08-.22H36.3c.84 0 1.52.2 1.7 1.06v7.83c0 .07-.03.1-.1.1h-3.71c-.12 0-.18-.05-.18-.17v-4.37c0-.31-.15-.45-.46-.45H30.2Z" fill="#213367"/><path d="M33.86 33c.04 0 .07 0 .1-.04a.15.15 0 0 0 .04-.1v-2.62a.25.25 0 0 0-.07-.17.23.23 0 0 0-.16-.07h-2.64a.12.12 0 0 1-.09-.04.14.14 0 0 1-.04-.1V26.2c0-.12.06-.18.18-.18 2.24-.03 3.95-.02 5.5.02.8.02 1.31.36 1.31 1.22v7.9c0 .58-.05.98-.17 1.2-.22.41-.6.62-1.16.62a1082.46 1082.46 0 0 1-10.5 0 .26.26 0 0 1-.14-.15.28.28 0 0 1-.02-.1v-3.4c0-.09.03-.17.09-.23s.14-.1.22-.1h7.55ZM18.85 37c-.74 0-.86-.77-.85-1.47V33.1c0-.07.11-.1.17-.1h3.62c.06 0 .11.02.15.07.04.04.06.1.06.16v3.6a.2.2 0 0 1-.05.12.16.16 0 0 1-.05.04 159.61 159.61 0 0 0-3.04.01ZM18.78 37.59c-.09 0-.16.06-.16.14l.01 2.08c0 .07.07.14.15.14h.01c.09 0 .15-.07.15-.15v-2.07c0-.08-.07-.14-.16-.14ZM20.58 38.7l.36.53c.1.15.16.14.16-.04v-1.5a.1.1 0 0 1 .03-.06.11.11 0 0 1 .08-.03h.08a.1.1 0 0 1 .07.02c.02.02.03.04.03.07v2c0 .38-.13.41-.38.09a108.66 108.66 0 0 1-1.05-1.46c-.11-.16-.16-.15-.16.04v1.49a.1.1 0 0 1-.04.07.12.12 0 0 1-.08.03h-.07a.1.1 0 0 1-.07-.03.09.09 0 0 1-.03-.06v-2c0-.39.13-.42.38-.1l.7.95ZM23.26 38.27c-.25-.44-.56-.56-.91-.37-.23.12-.27.29-.11.5a.3.3 0 0 0 .08.08l.11.04c.6.11 1.35.24 1.05 1.03-.06.16-.2.27-.45.35-.45.14-.84.05-1.15-.3a.38.38 0 0 1-.1-.23.3.3 0 0 1 .08-.22c.02-.02.05-.02.1 0 .03.02.06.05.07.08.18.5.54.61 1.07.34a.28.28 0 0 0 .15-.18c.1-.44-.65-.54-.85-.58-.37-.07-.55-.28-.54-.64.02-.76 1.36-.8 1.6-.14.05.17.01.26-.12.28h-.05a.07.07 0 0 1-.03-.04ZM24.87 39.73c.34 0 .65-.23.65-.58a40.87 40.87 0 0 1 .05-1.55.07.07 0 0 1 .04-.02h.08c.07 0 .11.03.12.1.05.9.04 1.46-.03 1.7-.12.42-.48.58-.91.57-.44 0-.8-.16-.91-.58-.07-.24-.07-.8-.02-1.7 0-.06.05-.1.12-.1h.08l.04.02c.02.01.02.03.02.04.02.3.02.81.01 1.52 0 .34.31.58.66.58ZM28.17 39.72l.03.03a.08.08 0 0 0 .09-.01l.02-.03.86-2.01a.2.2 0 0 1 .08-.09.2.2 0 0 1 .22 0 .2.2 0 0 1 .07.08l.92 2.04c.02.04.02.08 0 .12a.18.18 0 0 1-.07.1l-.05.02-.03.01a.09.09 0 0 1-.07-.02l-.02-.02-.3-.67c-.03-.07-.08-.1-.16-.1l-.89.06h-.03l-.02.03-.27.63c-.02.06-.07.08-.13.06a.66.66 0 0 0-.32 0c-.06 0-.1-.01-.15-.06-.27-.3-.52-1.1-1.26-1-.06.02-.09.05-.09.1v.83c0 .08-.04.12-.12.12h-.05a.11.11 0 0 1-.08-.03.1.1 0 0 1-.03-.07v-2.05c0-.05.02-.09.05-.12a.18.18 0 0 1 .12-.05c.47-.03 1.42-.15 1.59.42.1.35-.03.62-.38.78-.04.02-.05.05-.02.09l.5.8Zm-1.57-1.76v.57c0 .03.01.06.04.08.02.02.04.03.07.03h.46c.08 0 .17-.01.25-.03a.79.79 0 0 0 .2-.08c.06-.03.11-.07.14-.12.04-.04.05-.1.05-.14v-.05c0-.1-.07-.2-.19-.26a.94.94 0 0 0-.45-.1h-.46a.12.12 0 0 0-.08.02.1.1 0 0 0-.03.08Zm2.4.92a.08.08 0 0 0 .01.07l.03.03a.1.1 0 0 0 .05 0l.6-.01.04-.02.03-.02a.08.08 0 0 0 0-.08l-.33-.73a.08.08 0 0 0-.03-.04.09.09 0 0 0-.1 0 .08.08 0 0 0-.03.04l-.27.76ZM31.55 38.84l-.37-.53c-.1-.16-.16-.14-.16.05v1.5a.1.1 0 0 1-.03.07.12.12 0 0 1-.08.03h-.08a.1.1 0 0 1-.06-.03.09.09 0 0 1-.03-.06v-2.02c0-.39.13-.42.38-.1a94.76 94.76 0 0 1 1.06 1.48c.1.16.16.15.16-.04v-1.5a.1.1 0 0 1 .03-.07.12.12 0 0 1 .08-.03h.08a.1.1 0 0 1 .09.05v2.04c0 .4-.12.43-.37.1a96.4 96.4 0 0 1-.7-.94ZM33.32 38.8c.03.65.55 1.17 1.24.8.16-.1.23-.25.3-.38.13-.2.22-.2.28.04 0 .03 0 .08-.05.16a.46.46 0 0 1-.1.14c-.81.8-1.9.34-1.95-.76-.04-1.1 1.02-1.63 1.9-.88l.1.13c.05.08.07.13.06.16-.04.23-.13.25-.27.06-.09-.13-.17-.28-.33-.36-.71-.33-1.2.22-1.18.88ZM37.03 38.66v.15l-.02.03a.06.06 0 0 1-.04.02h-1.12l-.04.01a.05.05 0 0 0-.02.04v.7l.02.04.04.02h1.28l.02.03.05.11a.05.05 0 0 1-.03.07h-1.59l-.03-.01a.05.05 0 0 1-.02-.04v-2.19l.02-.02.01-.01h1.5a.06.06 0 0 1 .05.03v.16a.05.05 0 0 1-.02.04.06.06 0 0 1-.03.01h-1.21l-.04.02a.05.05 0 0 0-.02.04v.65s0 .02.02.03l.04.02h1.12l.04.01.02.04Z" fill="#213367"/></svg>