<!-- by TradingView --><svg width="56" height="56" viewBox="0 0 56 56" xmlns="http://www.w3.org/2000/svg"><path fill="#F0F3FA" d="M0 0h56v56H0z"/><path d="m21.3 13.45 3.11-2.17a7.07 7.07 0 0 1 9.04.77l9.27 9.19.77 1.14-3.5 6.66-11.85-11.48c-2.99-4.12-5.76-4.5-6.84-4.1Z" fill="url(#a)"/><path d="m42.58 21.03 2.15 3.12a7.15 7.15 0 0 1-.79 9.08l-9.16 9.28-1.03.85-6.74-3.6L38.47 27.9c4.1-3 4.49-5.78 4.1-6.86Z" fill="url(#b)"/><path d="m34.66 42.61-3.13 2.15a7.07 7.07 0 0 1-9.03-.86l-9.19-9.27-.83-1.03 3.63-6.75 11.74 11.59c2.96 4.15 5.73 4.55 6.8 4.17Z" fill="url(#c)"/><path d="m12.12 22.55 9.22-9.1c2.05-.59 4.49 1.1 6.6 3.8L17.49 27.9c-4.11 2.99-4.5 5.77-4.11 6.85l-2.12-3.07a7.15 7.15 0 0 1 .86-9.13Z" fill="url(#d)"/><defs><linearGradient id="a" x1="41.12" y1="26.58" x2="24.74" y2="11.57" gradientUnits="userSpaceOnUse"><stop stop-color="#9B6B21"/><stop offset="1" stop-color="#FEE600"/></linearGradient><linearGradient id="b" x1="29.46" y1="40.9" x2="44.57" y2="24.6" gradientUnits="userSpaceOnUse"><stop stop-color="#9B6B21"/><stop offset="1" stop-color="#FEE600"/></linearGradient><linearGradient id="c" x1="14.95" y1="29.31" x2="31.2" y2="44.46" gradientUnits="userSpaceOnUse"><stop stop-color="#9B6B21"/><stop offset="1" stop-color="#FEE600"/></linearGradient><linearGradient id="d" x1="26.51" y1="14.89" x2="11.39" y2="31.18" gradientUnits="userSpaceOnUse"><stop stop-color="#9B6B21"/><stop offset="1" stop-color="#FEE600"/></linearGradient></defs></svg>