<!-- by TradingView --><svg width="56" height="56" viewBox="0 0 56 56" fill="none" xmlns="http://www.w3.org/2000/svg">
<rect width="56" height="56" fill="#F0F3FA"/>
<rect x="9" y="16" width="5" height="13" fill="url(#paint0_linear_5085_143225)"/>
<path fill-rule="evenodd" clip-rule="evenodd" d="M18.4265 39C23.2005 39 25.4154 35.8774 28.5 32.787C31.5845 35.8774 33.7996 39 38.5735 39C43.7796 39 48 34.7467 48 29.5C48 24.2533 43.7796 20 38.5735 20C34.0719 20 31.4374 23.3118 28.5 26.213C25.723 23.4308 22.8375 20 18.4265 20C13.2204 20 9 24.2533 9 29.5C9 34.7467 13.2204 39 18.4265 39ZM31.7809 29.5C33.4062 31.1875 35.612 34 38.5735 34C41.2786 34 43 32 43 29.5C43 27 41.2786 25 38.5735 25C35.6059 25 33.9062 27.375 31.7809 29.5ZM25.2191 29.5C23.25 27.375 21.5738 25 18.5938 25C15.8886 25 14 26.7738 14 29.5C14 32.2262 15.8886 34 18.5938 34C21.5759 34 23.3125 31.4688 25.2191 29.5Z" fill="url(#paint1_linear_5085_143225)"/>
<path d="M28.4999 32.7812L25.2133 29.4966L27.2499 34.0938L28.4999 32.7812Z" fill="#177C74"/>
<defs>
<linearGradient id="paint0_linear_5085_143225" x1="9.61224" y1="16" x2="11.0357" y2="29.0506" gradientUnits="userSpaceOnUse">
<stop offset="0.0879904" stop-color="#0893B7"/>
<stop offset="0.482993" stop-color="#0A9484"/>
</linearGradient>
<linearGradient id="paint1_linear_5085_143225" x1="8.53791" y1="29.5" x2="48.0114" y2="34.912" gradientUnits="userSpaceOnUse">
<stop stop-color="#009AD2"/>
<stop offset="0.188198" stop-color="#009BCB"/>
<stop offset="0.719698" stop-color="#65A08E"/>
<stop offset="0.913293" stop-color="#8BA164"/>
</linearGradient>
</defs>
</svg>
