<!-- by TradingView --><svg width="56" height="56" viewBox="0 0 56 56" xmlns="http://www.w3.org/2000/svg"><path fill="#F0F3FA" d="M0 0h56v56H0z"/><path d="M28.15 45a17 17 0 1 1-.3-34 17 17 0 0 1 .3 34Zm9.92-14.56c.21-.14.44-.17.68-.1l3.8 1.12a.15.15 0 0 0 .2-.12c.82-4.1.18-7.9-1.93-11.4-.1-.17-.23-.2-.4-.1l-4.98 3.3a.31.31 0 0 1-.4 0l-.99-.74c-.2-.16-.2-.31.02-.46l5.32-3.5c.15-.11.16-.23.04-.36a15.2 15.2 0 0 0-10.06-5.15.35.35 0 0 0-.26.08.32.32 0 0 0-.11.24v5.37c0 .15-.15.19-.27.13l-1.16.16s-.57.32-.57-.16v-5.48c0-.25.04-.37-.22-.34a15.3 15.3 0 0 0-10.14 5.1.19.19 0 0 0 .06.2l5.54 4.1a.08.08 0 0 1 .04.07l-.01.04-.03.03-1.36.9a.19.19 0 0 1-.1.03.17.17 0 0 1-.1-.04l-4.98-3.68c-.16-.11-.28-.09-.38.07a15.31 15.31 0 0 0-2.07 11.61c.05.2.17.26.36.18l3.48-1.4a.36.36 0 0 1 .38.05l1.58 1.16a.02.02 0 0 1 0 .02v.01l-5 1.83c-.18.06-.23.17-.16.33a15.78 15.78 0 0 0 7.02 7.81.22.22 0 0 0 .17-.06.21.21 0 0 0 .05-.07l2.52-6.53c.05-.13.13-.15.24-.07l1.2.9c.08.04.1.1.06.18l-2.4 6.21c-.06.16-.01.27.16.33a15.43 15.43 0 0 0 10.54-.15.23.23 0 0 0 .06-.26l-2.55-6.16c-.07-.17-.03-.31.13-.42l1.03-.67c.15-.1.27-.07.34.1l2.69 6.5a.12.12 0 0 0 .07.07.13.13 0 0 0 .1-.01 15.91 15.91 0 0 0 6.78-7.67c.1-.23.03-.39-.22-.46l-4.95-1.45c-.33-.1-.35-.24-.07-.42l1.21-.8Z" fill="#ECB51E"/><path d="M28.12 19.48h.04l.05.02a226.5 226.5 0 0 0 5.38 3.67.07.07 0 0 1-.02.1l-2.3 1.72c-.07.04-.13.04-.2 0A162.8 162.8 0 0 0 28.24 23L28.1 23c-.06 0-.1 0-.12.02L25.16 25c-.07.05-.13.05-.2 0l-2.3-1.7a.07.07 0 0 1 0-.12 210.91 210.91 0 0 0 5.39-3.68h.07ZM23.76 30.4l-2.45 1.62a.15.15 0 0 1-.17 0l-5.46-4.04a.14.14 0 0 1-.05-.12.14.14 0 0 1 .06-.11l5.86-3.88a.15.15 0 0 1 .17 0l2.23 1.66a.14.14 0 0 1 .06.12.14.14 0 0 1-.06.11l-3.08 2.04a.14.14 0 0 0-.06.11.14.14 0 0 0 .05.12l2.9 2.14a.14.14 0 0 1 .06.12.14.14 0 0 1-.06.11ZM35.11 28.07c.19-.13.19-.26 0-.38l-2.98-1.93a.1.1 0 0 1-.05-.08.1.1 0 0 1 .05-.08l2.38-1.68a.15.15 0 0 1 .17 0l5.65 3.78a.13.13 0 0 1 .06.11c0 .02 0 .04-.02.06a.15.15 0 0 1-.04.06l-5.78 3.96c-.07.05-.14.05-.2 0l-2.3-1.62a.1.1 0 0 1-.04-.08.09.09 0 0 1 .04-.08l3.06-2.04Z" fill="#E62225"/><path d="M27.79 31.7 22.78 28a.14.14 0 0 1-.06-.12.14.14 0 0 1 .06-.11l5.33-3.52a.14.14 0 0 1 .16 0l5 3.71a.14.14 0 0 1 .07.12.14.14 0 0 1-.07.1l-5.32 3.52a.14.14 0 0 1-.16 0Z" fill="#E62225"/><path d="M27.92 32.88c.07 0 .11-.01.14-.03a190 190 0 0 0 2.9-2.04.16.16 0 0 1 .2 0l2.38 1.76.02.03.01.03v.04l-.03.02A230.02 230.02 0 0 0 28 36.48h-.13l-.05-.01a227.36 227.36 0 0 0-5.53-3.78v-.03a.08.08 0 0 1 .03-.06l2.36-1.77c.07-.05.14-.05.2 0 .95.67 1.92 1.34 2.92 2.02.02.02.06.03.12.03Z" fill="#E62225"/></svg>