<!-- by TradingView --><svg width="56" height="56" viewBox="0 0 56 56" xmlns="http://www.w3.org/2000/svg"><path fill="#033E79" d="M0 0h56v56H0z"/><path d="M40.21 14.9c-2.75-2.2-7.27-2.74-10.64-2.9h-3.63c-3.89.27-7.94.9-10.52 3.2a5.34 5.34 0 0 0-1.2 1.97 27.56 27.56 0 0 0 .03 21.72 5.37 5.37 0 0 0 1.53 2.23 8.9 8.9 0 0 0 3 1.56 32.7 32.7 0 0 0 13.89.99c3.1-.44 5.65-1.01 7.85-2.77.42-.35.82-.97 1.2-1.87 3.05-7.46 3.04-14.82-.02-22.09a5.05 5.05 0 0 0-1.49-2.05ZM16.05 38.07A28.16 28.16 0 0 1 13.95 28c0-3.47.83-6.82 2.07-10.07a3.24 3.24 0 0 1 1.77-2.03c3.16-1.46 6.66-1.9 10.18-1.9 3.53 0 7.04.4 10.2 1.86.9.41 1.4 1 1.78 2.02a28.3 28.3 0 0 1 2.1 10.07c.01 3.47-.83 6.83-2.06 10.08a3.25 3.25 0 0 1-1.78 2.03c-3.15 1.46-6.66 1.89-10.18 1.9-3.53 0-7.04-.4-10.2-1.86-.89-.41-1.39-1-1.78-2.02Zm8.41-7.29c.16-.2.3-.19.45.02l2.88 4.17a.22.22 0 0 0 .18.1.22.22 0 0 0 .18-.1l2.91-4.14a.35.35 0 0 1 .58.03c.18.3.4.55.6.78.35.4.68.78.8 1.4a5.24 5.24 0 0 1-.97 4.27c-.32.43-.26.78.18 1.08l1.1.73c.3.2.59.17.84-.1a6.62 6.62 0 0 0 1.76-4.5c0-.13.05-.25.15-.34 5.75-5.43 3.45-15.08-3.96-17.32a.39.39 0 0 0-.44.16l-3.56 5.57c-.07.1-.14.11-.23.03l-3.58-5.53a.4.4 0 0 0-.19-.2.38.38 0 0 0-.26-.02c-6.88 1.8-9.16 11.99-4.3 16.96.1.09.2.15.32.17l.3.07a.21.21 0 0 1 .17.21c-.04 1.66.35 3.7 1.59 4.87.2.2.41.21.64.05L24.28 38c.23-.16.26-.35.08-.57-1.71-2.16-1.68-4.38.1-6.64Zm-.85-9.22 4.21 6.1c.1.14.2.14.3 0l4.02-5.72c.4-.57.82-.59 1.28-.07 2.15 2.46 3.18 4.78 1.53 8.03-.14.27-.28.27-.4-.01a6.24 6.24 0 0 0-3.4-3.36.28.28 0 0 0-.35.11l-2.66 4.17a.19.19 0 0 1-.15.08.18.18 0 0 1-.15-.07c-.49-.62-.86-1.28-1.24-1.95-.42-.73-.84-1.47-1.43-2.18-.1-.13-.23-.16-.38-.1a6.06 6.06 0 0 0-3.42 3.45.12.12 0 0 1-.18-.03 4.3 4.3 0 0 1-.72-1.6c-.46-2.98.45-5.28 2.7-6.93a.3.3 0 0 1 .35 0l.09.08Z" fill="#F2D230"/></svg>