<!-- by TradingView --><svg width="56" height="56" viewBox="0 0 56 56" xmlns="http://www.w3.org/2000/svg"><path fill="#F0F3FA" d="M0 0h56v56H0z"/><path d="m6.48 27.23.56-1.98c.08-.28.13-.44.22-.44.1 0 .14.14.2.39l.69 2.36c.03.1.04.2.04.3 0 .07-.1.15-.31.15H6.6a.23.23 0 0 1-.25-.2c.01-.2.05-.39.12-.58Zm-.85 3 .33-1.3c.13-.49.16-.49.72-.49h1.15c.53 0 .6.13.7.5l.47 1.8c.05.15.07.3.07.45 0 .25-.07.33-.38.4-.28.07-.47.04-.47.22 0 .11.11.19.28.19h2.76c.2 0 .27-.05.27-.2 0-.2-.31-.14-.55-.28-.28-.15-.4-.64-.64-1.46l-2.3-7.75c-.06-.23-.13-.31-.28-.31-.16 0-.2.14-.3.44l-2.4 8.16c-.17.5-.32.83-.57.94-.25.1-.49.03-.49.24 0 .22.14.22.61.22h1.76c.17 0 .25-.06.25-.19 0-.23-.25-.15-.6-.24-.34-.1-.48-.24-.48-.56 0-.26.03-.52.1-.78ZM15.91 26.29c0 .35-.01.45-.22.45-.26 0-.28-.26-.43-.61-.25-.55-.6-.81-1.1-.81-.68 0-1.17.44-1.17.98 0 .18.05.36.15.5.37.52 1.22.75 2.07 1.3.7.46 1.06 1.04 1.06 1.77 0 1.27-1.03 2.13-2.64 2.13-1.31 0-1.64-.19-1.64-.77v-.97c0-.34 0-.5.22-.5.18 0 .28.11.39.36.39.9.6 1.53 1.46 1.53.66 0 1.12-.45 1.12-1.2 0-.22-.04-.45-.14-.65s-.25-.4-.43-.54c-.45-.4-1.3-.66-2.04-1.21a1.5 1.5 0 0 1-.44-.52 1.4 1.4 0 0 1-.16-.65c0-1.06.97-1.88 2.45-1.88 1.02 0 1.5.13 1.5.44v.85ZM17.67 22.69c0-.33-.03-.4-.23-.45-.2-.05-.4-.02-.4-.14 0-.24.34-.22.74-.42.74-.4 1.02-.68 1.1-.68.09 0 .12.06.12.19v4.27c0 .11.01.2.08.2.06 0 .2-.16.5-.4.43-.34.89-.56 1.5-.56 1.42 0 1.92.83 1.92 2.55v3.49c0 .5 0 .7.29.84.22.1.53-.01.53.23 0 .17-.17.19-.6.19h-1.95c-.17 0-.25-.05-.25-.16 0-.24.26-.16.42-.26.23-.14.23-.38.23-.81v-3.79c0-1.1-.31-1.61-1.17-1.61-1.02 0-1.5.6-1.5 1.85V31c0 .41.06.58.31.65.22.04.41-.02.41.16 0 .14-.08.19-.24.19H17.3c-.22 0-.33-.06-.33-.2 0-.17.16-.17.43-.25.2-.06.28-.31.28-.72v-8.14ZM27.75 25.68c-1 0-1.44.57-1.44 1.77v3.6c0 .39.08.55.33.61.22.05.4-.01.4.16 0 .14-.07.18-.23.18h-2.2c-.22 0-.31-.06-.31-.2 0-.15.14-.15.4-.23.2-.06.3-.3.3-.68v-4.3c0-.31-.04-.39-.25-.43-.2-.05-.37 0-.37-.12 0-.16.26-.25.73-.5.62-.3.84-.54.93-.54.1 0 .11.06.1.16v.56l.02.21.03.06a.1.1 0 0 0 .05.03c.08 0 .22-.16.51-.37.52-.38 1.05-.6 1.66-.6.7 0 1.09.24 1.54.72.13.13.19.24.27.24.1 0 .25-.15.53-.36.51-.4 1.09-.6 1.65-.6 1.42 0 1.92.8 1.92 2.42v3.33c0 .48 0 .67.3.8.22.1.53-.01.53.22 0 .16-.19.18-.6.18h-1.97c-.17 0-.25-.04-.25-.15 0-.23.27-.16.42-.25.24-.13.25-.36.25-.77v-3.61c0-1.05-.4-1.54-1.26-1.54-1 0-1.44.57-1.44 1.76v3.61c0 .39.08.55.34.61.21.05.4-.01.4.16 0 .14-.07.18-.23.18h-2.18c-.22 0-.33-.06-.33-.2 0-.15.14-.15.4-.23.2-.06.3-.3.3-.68v-3.7c-.01-1.02-.42-1.5-1.25-1.5ZM38.35 31.54c-.8 0-1.44-1.16-1.44-3.13 0-1.96.6-3.09 1.41-3.09.82 0 1.46 1.16 1.46 3.2 0 1.9-.6 3.02-1.43 3.02Zm-2.88-3.06c0 1.13.31 1.99 1 2.66.58.55 1.29.86 1.9.86.64 0 1.37-.35 1.93-.99.6-.67.89-1.52.89-2.53 0-2.09-1.33-3.48-2.87-3.48-1.49-.01-2.85 1.45-2.85 3.48ZM42.68 26.58c0-.3-.05-.38-.25-.43-.2-.04-.4 0-.4-.12 0-.16.29-.25.76-.48.61-.31.83-.55.93-.55.09 0 .1.06.1.17v1.05c0 .04.07.07.1.07.12 0 .23-.22.5-.54.38-.45.76-.67 1.2-.67.56 0 .9.34.9.97 0 .55-.28.87-.69.87-.4 0-.56-.15-.64-.52-.05-.2-.03-.4-.22-.4-.55 0-.97.81-.97 2.23v2.82c0 .39.07.55.33.61.22.05.4-.01.4.16 0 .14-.07.18-.22.18l-1.07-.01-1.13.01c-.22 0-.34-.06-.34-.2 0-.15.16-.15.42-.23.2-.06.3-.3.3-.68l-.01-4.3ZM49.76 25.3c.55 0 .98.5.98 1.44 0 .82-.34.94-1.84.94-.47 0-.65-.07-.65-.35.05-.52.23-.95.52-1.4.29-.41.6-.63 1-.63Zm.95 2.7h.62c.6 0 .62-.05.62-.57 0-1.59-.88-2.43-2.22-2.43-1.69 0-2.93 1.47-2.93 3.66 0 1.95 1.22 3.34 2.8 3.34 1.4 0 2.4-1.04 2.4-1.7 0-.11-.05-.18-.16-.18-.24 0-.24.33-.49.6-.15.18-.35.32-.57.41-.22.1-.46.15-.7.14-1.12 0-1.87-1.1-1.87-2.8 0-.44.08-.47.52-.47h1.98Z" fill="#00305D"/><path d="M52 34H4v1h48v-1Z" fill="url(#a)"/><defs><linearGradient id="a" x1="4" y1="34.5" x2="52" y2="34.5" gradientUnits="userSpaceOnUse"><stop stop-color="#D9EFFB"/><stop offset=".1" stop-color="#D0ECFA"/><stop offset=".25" stop-color="#B8E4F6"/><stop offset=".45" stop-color="#90D7F1"/><stop offset=".68" stop-color="#59C5E9"/><stop offset=".93" stop-color="#13AEE0"/><stop offset="1" stop-color="#00A8DD"/></linearGradient></defs></svg>