<!-- by TradingView --><svg width="56" height="56" viewBox="0 0 56 56" xmlns="http://www.w3.org/2000/svg"><path fill="#F0F3FA" d="M0 0h56v56H0z"/><path d="M23.63 15.08c-.35-.66-.31-1.3.12-1.89a.4.4 0 0 1 .23-.15c.4-.1.82-.12 1.27-.07.17.02.2-.04.08-.16-.44-.48-.66-.94-.65-1.37 0-.12.07-.19.18-.2l2.55-.24c.14-.01.19.05.16.18-.4 1.52 1.16 2.32 2.36 2.8a.08.08 0 0 1 .05.1l-.04.08a.07.07 0 0 1-.05.02c-1.09-.01-3.63-.12-3.66 1.45a4.06 4.06 0 0 0 .95 2.67.1.1 0 0 1-.01.08.1.1 0 0 1-.04.03c-.03.02-.06.04-.09.03a.16.16 0 0 1-.09-.04 8.13 8.13 0 0 0-2.53-1.5c-2.66-.9-3.34 2.62-3.7 4.38-.02.1-.08.14-.18.14a.15.15 0 0 1-.12-.06.24.24 0 0 1-.06-.12c-.16-1.41-.95-3.63-2.76-3.39-.85.11-1.5.55-1.95 1.32a.25.25 0 0 1-.12.1c-.04.01-.09 0-.13-.03a.12.12 0 0 1-.04-.12c.18-.83.1-1.56-.26-2.2-.05-.07-.04-.15.03-.21a11.87 11.87 0 0 1 2.29-2c1.04-.56 1.87.81 2.2 1.67.04.09.08.08.15 0 .2-.27.38-.78.64-1.07.68-.78 1.51-.91 2.52-.41.29.15.5.24.61.28.1.03.14 0 .09-.1Z" fill="#F37020"/><path d="M31.7 14.87c.33.02.36-.07.1-.27-1.05-.75-1.91-1.82-1.7-3.16.01-.13.08-.18.2-.15l1.74.43c.1.02.17.08.22.18.19.41.46.78.81 1.1.07.07.1.15.1.24.04 1.03-.78 2.7-1.27 3.56a.35.35 0 0 1-.2.16c-.73.27-.98.75-.75 1.46a.22.22 0 0 1-.13.27.22.22 0 0 1-.11.01l-2.06-.28a.24.24 0 0 1-.2-.16c-1.09-2.77 1.04-3.52 3.25-3.4ZM21.59 13.9a3 3 0 0 1-2.64-.12.13.13 0 0 1-.08-.11.13.13 0 0 1 .07-.12 24.33 24.33 0 0 1 4.18-1.9.13.13 0 0 1 .1.09v.07a3.02 3.02 0 0 1-1.63 2.09Z" fill="#F37020"/><path d="M34.8 14.88c.37-.44.7-.83 1.24-.97.13-.03.17.01.15.14-.13.61-.53 1-1.21 1.13a.18.18 0 0 1-.22-.2c0-.03.01-.07.04-.1ZM38.14 14.72a.33.33 0 0 1 .18.43l-.37.87c-.11.26-.3.47-.55.58a.91.91 0 0 1-.75.02l-.05-.02a.92.92 0 0 1-.5-.55c-.09-.26-.07-.55.04-.8l.36-.87a.33.33 0 0 1 .43-.18l1.21.52ZM36.19 17.08c.48.38 1.07.92 1.75 1.61a.64.64 0 0 1 .18.43c0 .08 0 .15-.04.23a.54.54 0 0 1-.12.18c-.06.05-.21.07-.46.05-.47-.05-1-.52-1.68-1.01a4.69 4.69 0 0 0-2.26-.72c-.17-.02-.21-.1-.14-.25l.9-1.94c.08-.16.2-.2.37-.14.13.05.29.13.5.25.48.29.51.92 1 1.3ZM39.28 15.56l.6.46a.3.3 0 0 1 .14.26c0 .9-.24 1.57-.7 2-.28.27-.59.28-.93.03-1.12-.81-.26-2.06.52-2.74a.29.29 0 0 1 .37-.01Z" fill="#994E24"/><path d="M25 18.7c-.93.24-1.77.62-2.6 1.24-.08.06-.1.04-.1-.06.03-.13.13-.38.3-.74.55-1.1 1.35-1.31 2.43-.65a.12.12 0 0 1 .05.12l-.03.06a.11.11 0 0 1-.05.03Z" fill="#F37020"/><path d="M42.22 20.48c-.86-.62-.66-1.23-.48-2.18a.17.17 0 0 1 .31-.06l1 1.74c.03.05.03.1-.01.15-.15.18-.34.31-.56.39a.27.27 0 0 1-.26-.04Z" fill="#994E24"/><path d="M14.7 21.39c-.02.34.07.36.25.08.55-.84 1.54-1.92 2.65-1.8 1.16.13 1.7 1.87 1.96 2.78a.4.4 0 0 1-.02.27c-.35.81-.94 1.14-1.77.98a.32.32 0 0 1-.23-.15c-.3-.48-.7-.66-1.18-.53a.42.42 0 0 1-.27-.01c-1.2-.5-2.08-.96-2.65-1.38-.97-.7-.24-2.23.28-3.01a.2.2 0 0 1 .24-.09l.08.05c.64.63.7 1.92.66 2.8Z" fill="#F37020"/><path d="M36.48 19.65c1.28.68.5 2.05-.26 2.8-.08.09-.15.08-.21 0-.63-.9-1.6-1.76-2.91-2.59-.37-.23-.47-.55-.3-.96.03-.1.1-.16.18-.2 1.1-.43 1.8-.08 2.68.5l.82.45ZM41.19 20.17c.1.46-.07.76-.51.9l-.11.03c-.45.13-.72-.03-.81-.5-.11-.6 0-1.2.37-1.8a.23.23 0 0 1 .17-.12.23.23 0 0 1 .2.07c.32.36.55.83.69 1.42ZM39.3 21.59c.1.38-.04.63-.42.75l-.09.03c-.38.12-.6-.01-.69-.4-.1-.5 0-1.01.3-1.53a.2.2 0 0 1 .23-.08.2.2 0 0 1 .08.05c.27.3.47.69.6 1.18ZM43.46 20.63l.89 2.2c.16.42.03.68-.39.8a.86.86 0 0 1-.12.02 1 1 0 0 1-.99-.66c-.37-.9-.24-1.7.4-2.4a.13.13 0 0 1 .11-.04.13.13 0 0 1 .1.08Z" fill="#994E24"/><path d="M27.94 35.37a7.17 7.17 0 0 0 7.15-7.18c0-3.97-3.2-7.19-7.15-7.19a7.17 7.17 0 0 0-7.16 7.19c0 3.96 3.2 7.18 7.16 7.18Z" fill="#23376C"/><path d="M40.18 23c.03.99.55 1.76 1.15 1.74.6-.02 1.05-.83 1.02-1.8-.03-.98-.55-1.76-1.15-1.74-.6.02-1.05.83-1.02 1.8ZM37.84 24.42c.04.92.55 1.65 1.14 1.63.58-.03 1.02-.8.98-1.72-.04-.92-.54-1.65-1.13-1.62-.58.02-1.03.8-.99 1.71Z" fill="#994E24"/><path d="M13.68 25.55a.3.3 0 0 0 .18-.41.3.3 0 0 0-.12-.13 2.88 2.88 0 0 0-1.78-.45c-.12.01-.16-.03-.13-.15.23-.75.78-1 1.67-.72 2 .62 3.25 1.11 3.77 1.46.26.17.47.36.63.57a.15.15 0 0 1-.16.24l-2.1-.52a.47.47 0 0 0-.52.22c-.79 1.38-2.48 1.4-3.8 1a.15.15 0 0 1-.09-.07.16.16 0 0 1-.01-.12l.25-1.06a.12.12 0 0 1 .07-.07.11.11 0 0 1 .1 0c.7.34 1.38.41 2.04.2Z" fill="#1F83C6"/><path d="M41.87 25.16c.42-.14.87-1.02 1.47-1.09.4-.04.8-.01 1.22.09.12.02.18.1.2.21l.17 1.91c.02.21-.07.34-.28.37-.37.06-.8.05-1.28-.02-1.34-.2-2.37.53-3.55.78a.59.59 0 0 1-.52-.15.54.54 0 0 1-.15-.5c.02-.1.12-.23.28-.4.16-.15.29-.25.38-.28.47-.2.96-.44 1.45-.74.17-.11.43-.12.61-.18Z" fill="#994E24"/><path d="M17.97 27.83a2.4 2.4 0 0 0-1.3-.4c-.51 0-.94-.3-1.3-.67a.28.28 0 0 1 .08-.45c.99-.43 1.7.36 2.63.38.06 0 .09.03.08.1l-.14 1.01c0 .04-.02.04-.05.03Z" fill="#1F83C6"/><path d="M41.48 27.39c1.22-.36 2.25-.62 3.15.44.3.34.41.74.36 1.2l-.17 1.32a.44.44 0 0 1-.12.25c-.66.65-1.6 1.14-2.58.8-1.32-.45-2.43-.85-2.46-2.4-.04-1.5.82-1.32 1.82-1.61Z" fill="#994E24"/><path d="M11.07 27.62a.35.35 0 0 1 .37-.31l1.16.1c.13 0 .26.04.39.08.12.05.22.11.31.19.1.07.16.15.2.25.05.09.07.18.06.28v.09c-.02.18-.15.36-.35.47-.2.12-.47.17-.74.15l-1.16-.1a.34.34 0 0 1-.3-.37l.06-.83ZM14.94 29.82c-.79-.26-1.2-1-.63-1.66a.5.5 0 0 1 .23-.15 4.7 4.7 0 0 1 3.37.58c.13.09.2.24.23.46l.06.62c0 .1-.04.15-.14.18-1.14.29-2.19.28-3.12-.03Z" fill="#1F83C6"/><path d="m37.81 28.6.01-.23c.04-.16.1-.18.2-.06 1.1 1.27 1.34 2.55.7 3.82-.17.35-.39.39-.66.11l-.29-.29a1.4 1.4 0 0 1-.33-1.45 5.5 5.5 0 0 0 .37-1.9Z" fill="#994E24"/><path d="m19.27 32.8-.91-2.26a.22.22 0 0 0-.25-.13c-.49.1-1.2.22-2.15.38-.46.08-1-.14-1.58-.36-.95-.37-1.97-.77-2.81.04-.2.2-.21.4-.04.6.49.6 1.15.9 1.97.87.14 0 .29-.03.45-.06.48-.08 1.06-.18 1.53.2.39.3.78.57 1.18.83.62.4 1.4.25 2.26.08l.28-.05c.07-.02.1-.06.07-.14Zm-.57-.9c-.02.2-.4.34-.82.28-.43-.05-.75-.27-.73-.49.03-.21.4-.34.83-.29.43.06.75.28.72.5Z" fill="#1F83C6"/><path d="M44.04 33.23c-.55.73-1.24 1.08-2.17.78a18.86 18.86 0 0 1-2.15-.89.13.13 0 0 1 .04-.18c1.3-.87 3.05-1.07 4.26.07.07.07.08.14.02.22Z" fill="#994E24"/><path d="M40.35 37.05a.15.15 0 0 0-.14-.01.16.16 0 0 0-.1.11c-.13.8 0 1.57.4 2.3.05.07.04.14-.02.2l-1.06 1.06c-.11.12-.16.1-.14-.07a2.75 2.75 0 0 0-.4-1.89.2.2 0 0 0-.17-.09.2.2 0 0 0-.16.09c-.55.78-.54 1.9-.53 2.76 0 .3-.14.52-.42.63l-.73.3c-.2.08-.29.01-.26-.21l.15-1.08a.4.4 0 0 0-.37-.45.4.4 0 0 0-.21.04c-.6.32-1.02 1.47-1.36 2.05-.05.08-.11.1-.2.08l-1.33-.32c-.13-.04-.2-.12-.21-.25l-.05-.48c0-.07.02-.12.08-.15.67-.35 1.2-.84 1.62-1.5a.2.2 0 0 0-.07-.27.19.19 0 0 0-.1-.02l-1.36.13c-.19.02-.28-.06-.3-.25l-.1-1.05a.24.24 0 0 1 .16-.24.23.23 0 0 1 .1-.01c.81.12 1.63-.02 2.45-.4.3-.15.32-.32.08-.51-.1-.07-.27-.1-.54-.1l-1.3.08a.4.4 0 0 0-.25.1.65.65 0 0 1-.46.17c-.12-.01-.17-.08-.13-.2.1-.31.17-.52.19-.63.1-.47.44-.58.79-.77a.37.37 0 0 1 .27-.04c.77.19 1.77.22 2.36-.39a.22.22 0 0 0 0-.3 1.4 1.4 0 0 0-1.18-.46.1.1 0 0 1-.1-.05.1.1 0 0 1 .01-.11c1.18-1.52 1.98-1.52 3.43-.3.27.23.57.4.92.48 1.1.28 1.92.52 2.53 1.53.35.58-.26 1.6-.64 1.98a.1.1 0 0 1-.1.02.1.1 0 0 1-.08-.07 2.15 2.15 0 0 0-.97-1.44Z" fill="#39B54A"/><path d="m17.09 33.77-.14-.1c-1.42-1.02-3.54-1.49-5.27-.67-.08.03-.1.1-.08.18.29 1.02.72 2.02 1.29 3 .36.63 1.98.84 2.55.88.21 0 .76-.06 1.63-.22a5.2 5.2 0 0 1 1.78-.02c.41.07.83.24 1.24.42.85.35 1.72.72 2.6.22a.53.53 0 0 0 .23-.65.53.53 0 0 0-.14-.2l-1.66-1.5a.33.33 0 0 0-.26-.08c-1.72.2-2.47-.33-3.77-1.26Zm-.81 1.48c-.08.31-.96.36-1.95.1-1-.27-1.74-.74-1.65-1.06.08-.32.96-.36 1.95-.1 1 .27 1.73.74 1.65 1.06Z" fill="#1F83C6"/><path d="M27.18 40.57a.21.21 0 0 0 .17-.2 3.94 3.94 0 0 0-.68-2.34.12.12 0 0 1 .07-.11 10.53 10.53 0 0 0 4.43-.4c.14-.04.24 0 .3.14l.3.76a.24.24 0 0 1-.13.31c-1.45.6-2.2 1.23-2.26 1.9-.02.28.1.4.38.38.52-.06 1.53-.88 1.97-1.24a.23.23 0 0 1 .36.12l.37 1.55c.02.09-.01.15-.1.17-.61.2-1.94.42-2.47 1.1a.45.45 0 0 0 .32.73 3.4 3.4 0 0 0 2.1-.58.23.23 0 0 1 .33.1l.02.12-.16 1.17a.27.27 0 0 1-.2.23c-1.46.32-3.16.69-4.5.44-.81-.16-1.32-.24-1.52-.25-.86-.07-1.48-.03-2-.33-.63-.36-1.09-1.02-1.36-1.98a.99.99 0 0 1 .05-.7l.49-1.05c.09-.19.16-.18.22.02.25.82.82 1.39 1.7 1.7a.23.23 0 0 0 .31-.21 4.64 4.64 0 0 0-1.1-2.88c-.25-.25-.24-.5 0-.75l.46-.46c.27-.27.45-.22.56.14.52 1.71 1.05 2.51 1.57 2.4Z" fill="#39B54A"/><path d="M20.67 41.8a6.73 6.73 0 0 0 1.68-2.59.25.25 0 0 0-.09-.3 4.26 4.26 0 0 0-3.93-.54c-.68.26-1.5.57-2.14.21-.26-.15-.46-.3-.64-.45a2.04 2.04 0 0 0-1.62-.56.07.07 0 0 0-.03.03v.04l.01.04c.83.95 1.74 1.84 2.72 2.65.96.8 2.54 1.62 3.81 1.56.09 0 .17-.03.23-.1Zm.63-1.5c-.06.44-.75.7-1.53.6-.79-.1-1.37-.55-1.32-.98.06-.43.75-.7 1.53-.6.79.11 1.37.55 1.32.99Z" fill="#1F83C6"/></svg>