<!-- by TradingView --><svg width="56" height="56" viewBox="0 0 56 56" xmlns="http://www.w3.org/2000/svg"><path fill="#F0F3FA" d="M0 0h56v56H0z"/><path d="M28 12v9.61c-.46 0-.87.07-1.24.22-.21.1-.49.25-.84.48-3.04 2.02-6.33 4.24-9.87 6.64-.18.12-.55.33-.76.21-.36-.2-.36-.47-.13-.77l11.68-15.75c.23-.31.5-.52.83-.64H28Z" fill="#FCB016"/><path d="M28.27 12c.48.1.8.48 1.08.87L40.8 28.32c.05.06.1.18.18.35.05.12 0 .23-.08.32-.19.22-.4.27-.62.14-.33-.2-.7-.44-1.1-.72-1.45-1-2.44-1.63-3.6-2.4a698.27 698.27 0 0 0-5.75-3.87 3.12 3.12 0 0 0-1.83-.53V12h.27Z" fill="#F6881F"/><path d="M28 25.77v7.8c-.52 0-.94.06-1.25.15l-17.1 5.22c-.28.08-.54.08-.78 0-.17-.07-.51-.23-.64-.42-.2-.3-.27-.6-.2-.92.03-.15.18-.4.44-.75 1.16-1.57 2.28-3.1 3.37-4.61.15-.21.28-.33.54-.43l1.98-.77c3.19-1.22 7.74-2.98 13.64-5.27Z" fill="#FCB016"/><path d="M28 33.57v-7.8c3.8 1.46 7.59 2.92 11.35 4.4 1.45.56 2.64 1 4.4 1.7.15.06.31.2.47.43.32.48 1.45 2.04 3.37 4.66.36.49.58 1.01.25 1.58-.38.63-1.01.46-1.6.28l-16.61-5.03a5.5 5.5 0 0 0-1.63-.22Z" fill="#F6881F"/></svg>