<!-- by TradingView --><svg width="56" height="56" viewBox="0 0 56 56" xmlns="http://www.w3.org/2000/svg"><path fill="#F0F3FA" d="M0 0h56v56H0z"/><path d="M50.5 25c-1.91-.02-4.35-.03-7.33-.02a.46.46 0 0 1-.26-.08c-8.35-6-21.57-6.31-29.82 0a.34.34 0 0 1-.2.08H5.2c-.24 0-.27-.07-.07-.2 3.3-2.18 7.42-3.71 11.36-4.57 11.65-2.52 24.13-1.16 34.34 4.55.23.13.23.21-.02.23h-.31Z" fill="#134E93"/><path d="M17.73 29.43c-.03-.1-.1-.14-.2-.14h-1.5c-.1 0-.18.04-.22.14l-.38 1c-.03.1-.02.18.05.25l.2.24a.05.05 0 0 1 0 .07l-.03.01H13.6c-.11 0-.13-.04-.05-.11.3-.3.52-.61.64-.94.35-.9.87-2.24 1.58-4 .13-.33.08-.57-.15-.71-.2-.14-.19-.2.06-.2 1 0 1.91-.28 2.29.72.34.94.93 2.4 1.74 4.4.09.22.29.48.45.71.06.09.04.13-.07.13h-2.12c-.13 0-.15-.05-.07-.14l.1-.12a.24.24 0 0 0 .05-.24l-.32-1.07Zm-1.5-1.17a.08.08 0 0 0 .04.1l.05.01.82-.04a.09.09 0 0 0 .06-.04.08.08 0 0 0 0-.08l-.46-1.04a.09.09 0 0 0-.13-.04.08.08 0 0 0-.03.04l-.35 1.09ZM22.85 28.67l-.03-.02a.06.06 0 0 0-.05.03l-.02.03v1.85l.03.08c0 .03.03.06.05.09l.2.22c.03.03.02.05-.02.05h-2.04c-.1 0-.13-.04-.07-.13l.05-.1a.49.49 0 0 0 .05-.24v-4.75c.02-.32-.05-.54-.28-.65-.16-.08-.15-.12.03-.12h3.55c.6 0 1.04.08 1.3.23 1.54.9.84 2.76-.62 3.26a.1.1 0 0 0-.04.15l1.93 2.2c.1.1.07.15-.07.15h-1.76a.27.27 0 0 1-.21-.1l-1.98-2.23Zm-.09-2.56-.01 1.76a.11.11 0 0 0 .07.11l.04.01h.84c.23 0 .46-.09.62-.26a.96.96 0 0 0 .27-.66v-.16a.94.94 0 0 0-.54-.84.84.84 0 0 0-.34-.07h-.83a.12.12 0 0 0-.12.1ZM28.24 25h.96c.1.02.13.07.08.13-.18.21-.28.29-.28.55v4.9c0 .09.07.17.13.24l.05.06c.05.07.04.1-.05.1a27.26 27.26 0 0 1-1.78 0c-.1 0-.1-.03-.05-.1l.05-.06a.37.37 0 0 0 .09-.24v-4.9c0-.26-.06-.34-.24-.55-.05-.06-.03-.1.07-.13h.97ZM35.9 25a.1.1 0 0 1 .1.1v1.41c0 .31-.06.32-.2.03-.3-.64-.86-.58-1.67-.54-.08 0-.13.05-.13.13v4.3c0 .1.02.2.08.29l.1.17c.05.06.04.1-.05.1a76.25 76.25 0 0 1-1.86 0c-.08 0-.1-.04-.05-.1a4 4 0 0 0 .11-.17.53.53 0 0 0 .08-.29v-4.3c0-.08-.05-.12-.14-.13-.8-.04-1.45-.1-1.75.54-.13.29-.2.28-.2-.03V25.1a.1.1 0 0 1 .03-.07.1.1 0 0 1 .07-.03h5.48ZM40.03 29.29h-1.51c-.1 0-.18.04-.21.14l-.39 1c-.03.1-.02.18.05.26l.2.23a.05.05 0 0 1 0 .07l-.03.01h-2.05c-.11 0-.13-.04-.05-.11.3-.3.52-.61.64-.94.35-.9.87-2.24 1.58-4 .13-.34.08-.57-.15-.71-.21-.14-.19-.2.06-.2 1 0 1.91-.28 2.29.72.35.94.93 2.4 1.75 4.4.09.21.29.48.45.7.06.1.04.14-.07.14h-2.12c-.13 0-.15-.05-.07-.15l.1-.11a.24.24 0 0 0 .05-.25l-.33-1.06c-.03-.1-.1-.14-.2-.14Zm-.82-.94c.21 0 .35-.02.42-.04.08-.02.1-.07.07-.14l-.48-1.04c-.01-.03-.03-.04-.05-.03-.02 0-.03 0-.04.03l-.42 1.07c-.02.07 0 .12.09.14h.41ZM5.53 31c1.91.02 4.35.03 7.32.02.1 0 .2.03.27.08 8.33 6 21.54 6.31 29.78-.01a.33.33 0 0 1 .2-.07h7.68c.24 0 .27.07.07.2a34.25 34.25 0 0 1-11.35 4.56c-11.63 2.53-24.1 1.17-34.3-4.54-.23-.13-.22-.21.02-.23h.31Z" fill="#134E93"/></svg>