<!-- by TradingView --><svg width="56" height="56" viewBox="0 0 56 56" xmlns="http://www.w3.org/2000/svg"><path fill="#F0F3FA" d="M0 0h56v56H0z"/><path d="M22.63 12.6a9.57 9.57 0 0 1 2.62-.09c.5.03 1.19.18 1.56.53.34.32.38.7.13 1.14a3.68 3.68 0 0 0-1.74-.5c-.86-.04-1.71.02-2.57.17a16.13 16.13 0 0 0-3.9 1.14l-.2-1.19a119.56 119.56 0 0 1 .87-.36c1.04-.4 2.12-.68 3.23-.83Z" fill="url(#a)"/><path d="M16.32 16.81a.64.64 0 0 1-.2-.13.79.79 0 0 1-.18-.77c.02-.1.1-.2.1-.33l.03-.03c.03-.02.04 0 .05.02l.2 1.24Z" fill="#FCD3C2"/><path d="M21.32 12.53c2.75-1 5.77-1.61 8.71-1.52 1.09.03 2.47.22 3.34.88.35.27.54.62.57 1.04a2.1 2.1 0 0 1-.41 1.16c-.25.33-.51.62-.8.86a15.6 15.6 0 0 1-4.6 2.54l-1.09.39c-.99.32-1.98.58-2.99.78-1.55.33-3.1.48-4.68.47l-.77-.06-.89-.09c-.02 0-.04.01-.04.04l.03 1.11c-.71-.13-1.56-.43-2-1.03a1.72 1.72 0 0 1-.27-.74l-.16-1.07c-.08-.62.34-1.29.78-1.7-.01.07-.04.14-.07.2l-.04.12a.79.79 0 0 0 .19.77c.04.05.1.1.2.13.15.15.36.25.61.32.72.17 1.48.23 2.27.17a14.7 14.7 0 0 0 6.35-1.89 4.5 4.5 0 0 0 1.38-1.23c.25-.44.2-.82-.13-1.14-.37-.35-1.05-.5-1.56-.53a9.57 9.57 0 0 0-2.62.1 14.44 14.44 0 0 0-4.03 1.15h-.04c.89-.48 1.8-.89 2.76-1.23Z" fill="url(#b)"/><path d="m29.85 18.07.06.33c.03.09.01.26-.03.5-.25-.2-.5-.37-.78-.5l.75-.33Z" fill="#BA2625"/><path d="M34.12 14.56c.06-.52 0-1.06-.18-1.63a2.1 2.1 0 0 1-.41 1.16 5 5 0 0 1-.8.86 15.6 15.6 0 0 1-4.6 2.54l-1.09.39c-.99.32-1.98.58-2.99.78-1.55.33-3.1.48-4.68.47l-.77-.06-.89-.09c-.02 0-.04.01-.04.04l.03 1.11c.56.11 1.12.18 1.7.2 1.57.04 3.12-.1 4.67-.42a26.3 26.3 0 0 0 3.06-.78l1.97-.72.75-.34c.86-.4 1.66-.86 2.43-1.4.55-.39 1.04-.85 1.45-1.38l.39-.73Z" fill="url(#c)"/><path d="M13.3 23.08a1.2 1.2 0 0 1-.12-1.52.31.31 0 0 0 0-.12c.02-.04.04-.06.06-.07h.01a.04.04 0 0 1 .04.01v.02l.22 1.26c.04.2-.05.32-.21.42Z" fill="#FCD3C2"/><path d="M40.23 17.34c0 .36-.04.65-.12.89-.14.43-.4.86-.74 1.27-.69.8-1.47 1.49-2.36 2.07-1.32.86-2.72 1.6-4.2 2.2l-1.85.72a41.21 41.21 0 0 1-9.58 2.16c-1.38.12-2.72.15-4.03.08a12.3 12.3 0 0 1-3.66-.8c-.03 0-.04 0-.04.03l.04 1.1A2.76 2.76 0 0 1 12.5 26a4 4 0 0 1-.3-.91c-.2-.84-.32-1.49.03-2.26.24-.52.56-.98.97-1.4 0 .07 0 .11-.02.13a1.2 1.2 0 0 0 .13 1.52c0 .02 0 .04.03.06.81.68 2.05.87 3.1.91 1.82.06 3.63-.18 5.39-.6a18.2 18.2 0 0 0 6.76-2.95 4 4 0 0 0 1.3-1.6c.04-.24.06-.41.03-.5l-.06-.33c.86-.4 1.66-.86 2.43-1.4.55-.39 1.04-.85 1.45-1.38l.39-.73 1.15.08c1.1.08 2.15.32 3.16.73.54.22.97.5 1.3.87.28.3.44.67.5 1.1Z" fill="url(#d)"/><path d="M40.52 18.44c-.05-.3-.14-.67-.29-1.1 0 .36-.04.65-.12.89-.14.43-.4.86-.74 1.27-.69.8-1.47 1.49-2.36 2.07-1.32.86-2.72 1.6-4.2 2.2l-1.85.72a41.21 41.21 0 0 1-9.58 2.16c-1.38.12-2.72.15-4.03.08a12.3 12.3 0 0 1-3.66-.8c-.03 0-.04 0-.04.03l.04 1.1c.73.37 1.5.6 2.33.73.7.12 1.31.2 1.85.22 2.38.1 4.77-.1 7.2-.58 1.9-.36 3.76-.84 5.59-1.47l.76-.27c1.68-.6 3.3-1.36 4.87-2.26 1-.58 1.88-1.23 2.67-1.95.3-.27.59-.6.87-.98.47-.61.8-1.36.69-2.06Z" fill="url(#e)"/><path d="M13.71 29.46h-.04a.06.06 0 0 1-.04-.03c-.42-.5-.37-1.16-.03-1.7a.14.14 0 0 0 .02-.06v-.04c0-.02.02-.03.04-.03h.02v.03l.27 1.5v.08a.63.63 0 0 1-.24.25Z" fill="#FCD3C2"/><path d="M43.29 23.25c-.04.53-.16 1-.37 1.4a6.5 6.5 0 0 1-1.36 1.72 21.6 21.6 0 0 1-6.06 3.7c-1.35.6-2.73 1.1-4.14 1.55l-1.8.52c-1.14.3-2.33.56-3.6.8a35 35 0 0 1-6.43.6c-.32 0-.75-.02-1.28-.05l-2.11-.25c-.03 0-.05.01-.05.04l.07 1.29c-1.38-.3-3.12-.92-3.55-2.42a8.79 8.79 0 0 1-.33-1.69c-.08-1.06.61-2.1 1.34-2.83v.04l-.02.07c-.34.53-.39 1.19.03 1.7l.04.01a.23.23 0 0 0 .04.01v.03a.1.1 0 0 0 0 .03c0 .01 0 .03.03.04.86.68 1.97.88 3.05.97.77.04 1.31.05 1.64.03 2.35-.13 4.68-.58 6.98-1.35 1.8-.6 3.62-1.44 5.12-2.61.33-.26.63-.57.9-.91 1.67-.6 3.3-1.36 4.86-2.26 1-.58 1.88-1.23 2.67-1.95.3-.27.59-.6.87-.98a6.9 6.9 0 0 1 2.37 1c.63.44 1 1.02 1.09 1.75Z" fill="url(#f)"/><path d="M43.6 24.46c-.04-.29-.14-.7-.31-1.21-.04.53-.16 1-.37 1.4a6.5 6.5 0 0 1-1.36 1.72 21.6 21.6 0 0 1-6.06 3.7 40.1 40.1 0 0 1-4.14 1.55l-1.8.52c-1.14.3-2.33.56-3.6.8a35 35 0 0 1-6.43.6c-.32 0-.75-.02-1.28-.05l-2.11-.25c-.03 0-.05.01-.05.04l.07 1.29.37.09.1.11c.06-.1.16-.12.29-.05l1.33.15c1.03.07 2 .09 2.89.05 2.79-.13 5.57-.56 8.35-1.3l1.73-.48 1.7-.55a37.4 37.4 0 0 0 4.8-2.05c.64-.34 1.2-.66 1.67-.96a17.8 17.8 0 0 0 2.13-1.55c.95-.87 2.21-2.18 2.07-3.57Z" fill="url(#g)"/><path d="M41.52 28.03c.39.15.74.33 1.06.53.66.42 1.04.99 1.14 1.72-.02.5-.13.94-.34 1.34a8.19 8.19 0 0 1-2.52 2.65c-1.12.8-2.3 1.48-3.57 2.07a35.98 35.98 0 0 1-5.72 2.1l-2.58.64c-2.33.51-4.68.77-7.06.76l-1.4-.09c-.9-.08-1.79-.24-2.65-.5-.03-.01-.04 0-.04.02l-.07 1.1c-.17-.06-.43-.2-.78-.4a2.4 2.4 0 0 1-1.17-1.62 47.2 47.2 0 0 0-.05-.2 4.2 4.2 0 0 1-.15-1.82c.14-.62.5-1.2.91-1.67l.1.11c-.18.45-.12.86.16 1.23l.07.06c0 .03.03.08.05.1 1.11.89 2.77.92 4.13.92 3-.15 5.85-.86 8.55-2.11.8-.38 1.53-.81 2.24-1.31.41-.3.78-.66 1.1-1.07a37.4 37.4 0 0 0 4.79-2.05c.64-.34 1.2-.66 1.67-.96a17.8 17.8 0 0 0 2.13-1.55Z" fill="url(#h)"/><path d="m16.92 34.72.16.96c.01.09 0 .16-.04.22a.52.52 0 0 1-.17.16c-.04-.01-.06-.02-.08-.06a1.21 1.21 0 0 1-.16-1.23c.06-.1.16-.12.29-.05Z" fill="#FCD3C2"/><path d="M44 31.38c-.02-.22-.12-.59-.28-1.1-.02.5-.13.94-.34 1.34a8.18 8.18 0 0 1-2.52 2.65c-1.12.8-2.3 1.48-3.57 2.07a36 36 0 0 1-5.72 2.11l-2.58.63c-2.33.51-4.68.77-7.06.76l-1.4-.09c-.9-.08-1.79-.24-2.65-.5-.03-.01-.04 0-.04.02l-.07 1.1c.44.18.86.32 1.27.4.99.22 2.02.34 3.1.35l1.6-.01c1.6-.15 3.54-.31 5.32-.7l2.49-.59 1.8-.53 2.34-.85a36.5 36.5 0 0 0 2.76-1.27 20.2 20.2 0 0 0 3.1-1.96c1.13-.87 2.56-2.3 2.44-3.83Z" fill="url(#i)"/><path d="M38.45 37.17c.55.33.84.77.89 1.33-.07.4-.19.73-.36.98-.35.52-.82.98-1.42 1.4-.78.53-1.61.97-2.5 1.33l-1.74.63-1.62.43a18.2 18.2 0 0 1-4.48.4l-1.24-.12c-.03 0-.04 0-.04.03l-.03 1.2a4.14 4.14 0 0 1-1.08-.4c-.55-.3-.9-.77-1.02-1.38-.08-.38-.14-.76-.18-1.14-.03-.26 0-.5.1-.75l.48-.03c.04 0 .07.02.1.06.03.08.1.16.2.24.2.18.45.31.74.4.8.2 1.63.2 2.44.13a11.7 11.7 0 0 0 4.1-1.2 6.3 6.3 0 0 0 1.05-.67c.26-.21.46-.42.59-.63.03-.06 0-.1-.07-.12l2.33-.85a36.28 36.28 0 0 0 2.76-1.27Z" fill="url(#j)"/><path d="M39.51 40.08c.14-.44-.04-1.1-.17-1.58-.07.4-.19.73-.36.98-.35.52-.82.98-1.42 1.4-.78.53-1.61.97-2.5 1.33l-1.74.63-1.62.43a18.2 18.2 0 0 1-4.48.4l-1.24-.12c-.03 0-.04 0-.04.03l-.03 1.2c.46.11.93.18 1.4.2 1.49.07 2.95-.05 4.4-.36l1.6-.38a13.17 13.17 0 0 0 5.12-2.61c.47-.42.9-.95 1.08-1.55Z" fill="url(#k)"/><defs><linearGradient id="a" x1="18.53" y1="13.73" x2="27.1" y2="13.73" gradientUnits="userSpaceOnUse"><stop stop-color="#FBD9C9"/><stop offset="1" stop-color="#B13A2F"/></linearGradient><linearGradient id="b" x1="17.07" y1="15.57" x2="33.94" y2="14.51" gradientUnits="userSpaceOnUse"><stop stop-color="#B12625"/><stop offset=".58" stop-color="#EC2528"/><stop offset="1" stop-color="#EE4E27"/></linearGradient><linearGradient id="c" x1="17.67" y1="19.68" x2="34.14" y2="17.84" gradientUnits="userSpaceOnUse"><stop stop-color="#B12726"/><stop offset=".21" stop-color="#E77255"/><stop offset="1" stop-color="#FCE0D2"/></linearGradient><linearGradient id="d" x1="13.45" y1="24.14" x2="40.23" y2="24.35" gradientUnits="userSpaceOnUse"><stop stop-color="#AE2625"/><stop offset=".51" stop-color="#E22527"/><stop offset="1" stop-color="#EE4E27"/></linearGradient><linearGradient id="e" x1="39.33" y1="21.26" x2="13.7" y2="27.39" gradientUnits="userSpaceOnUse"><stop stop-color="#FCE0D2"/><stop offset=".78" stop-color="#EA7758"/><stop offset="1" stop-color="#AE2726"/></linearGradient><linearGradient id="f" x1="12.85" y1="31" x2="43.28" y2="29.56" gradientUnits="userSpaceOnUse"><stop stop-color="#AD2624"/><stop offset=".43" stop-color="#DA2627"/><stop offset="1" stop-color="#EE4E27"/></linearGradient><linearGradient id="g" x1="42.14" y1="26.98" x2="16.16" y2="34.13" gradientUnits="userSpaceOnUse"><stop stop-color="#FCE0D2"/><stop offset=".79" stop-color="#EA7758"/><stop offset="1" stop-color="#B62725"/></linearGradient><linearGradient id="h" x1="16.29" y1="37.86" x2="43.71" y2="35.7" gradientUnits="userSpaceOnUse"><stop stop-color="#AC2624"/><stop offset=".41" stop-color="#DA2728"/><stop offset="1" stop-color="#EE4E27"/></linearGradient><linearGradient id="i" x1="43.35" y1="33.99" x2="17.81" y2="39.81" gradientUnits="userSpaceOnUse"><stop stop-color="#FCE0D2" stop-opacity=".88"/><stop offset=".76" stop-color="#EA7758" stop-opacity=".97"/><stop offset="1" stop-color="#AD2725"/></linearGradient><linearGradient id="j" x1="23.62" y1="42.14" x2="39.34" y2="41.72" gradientUnits="userSpaceOnUse"><stop stop-color="#B62625"/><stop offset=".43" stop-color="#E92528"/><stop offset="1" stop-color="#EE4E27"/></linearGradient><linearGradient id="k" x1="39.56" y1="41.75" x2="25.94" y2="45.11" gradientUnits="userSpaceOnUse"><stop stop-color="#FCE0D2"/><stop offset=".69" stop-color="#EA7758"/><stop offset="1" stop-color="#C12626"/></linearGradient></defs></svg>