<!-- by TradingView --><svg width="56" height="56" viewBox="0 0 56 56" fill="none" xmlns="http://www.w3.org/2000/svg">
<rect width="56" height="56" fill="#F0F3FA"/>
<path fill-rule="evenodd" clip-rule="evenodd" d="M23.1623 11H24.875L13.7127 41.9998H12L23.1623 11ZM14.7248 41.9998L24.7818 13.6969L25.6345 16.1016L16.4375 41.9998H14.7248ZM26.1314 17.2327L17.4748 41.9998H19.1875L27.1194 19.2587L26.1314 17.2327ZM27.4269 21.1715L20.2873 41.9999H22L28.274 23.5917L27.4269 21.1715Z" fill="black"/>
<path fill-rule="evenodd" clip-rule="evenodd" d="M24.8907 10.9999H23.178L34.1936 41.9998H35.9063L24.8907 10.9999ZM27.6395 10.9999H25.9268L36.8498 41.9998H38.5625L27.6395 10.9999ZM28.5409 10.9999H30.2536L41.2344 41.9998H39.5217L28.5409 10.9999ZM32.9127 10.9999H31.2L42.2873 41.9998H44L32.9127 10.9999Z" fill="url(#paint0_linear_5085_142334)"/>
<defs>
<linearGradient id="paint0_linear_5085_142334" x1="26.9475" y1="9.33133" x2="38.686" y2="44.4394" gradientUnits="userSpaceOnUse">
<stop offset="0.0846354" stop-color="#836131"/>
<stop offset="0.163607" stop-color="#B5803E"/>
<stop offset="0.376823" stop-color="#EBD983"/>
<stop offset="0.616789" stop-color="#D9BD6A"/>
<stop offset="0.722103" stop-color="#C19848"/>
<stop offset="0.876359" stop-color="#836131"/>
</linearGradient>
</defs>
</svg>
