<!-- by TradingView --><svg width="56" height="56" viewBox="0 0 56 56" xmlns="http://www.w3.org/2000/svg"><path fill="url(#a)" d="M0 0h56v56H0z"/><path d="M24 39.52v-9.47l-11.95-6.83-.05-.02v-4.17H12.06l15.93 9 .01.02-.05 17.94V46h-.01L12 36.99a.03.03 0 0 1-.01-.03V32.8l.01-.01h.01L24 39.52c.01 0 0 .01 0 0ZM40 25.06l-3.98 2.18H36v-3.87a.02.02 0 0 1 .01-.02c2.65-1.44 5.27-2.88 7.92-4.3.01-.02.07-.01.07 0v17.93l-.01.02-3.9 2.1h-.01l-.08-.01V25.06Z" fill="#B8BE40"/><path d="m27.99 14.2 10.76 6.06a.03.03 0 0 0 .02 0h.01l3.67-2.07c.02 0 .02-.02 0-.03L27.97 10h-.01l-14.4 8.17v.01l3.7 2.08h.02l2.95-1.68 7.73-4.38H28Z" fill="url(#b)"/><path d="m27.97 16.89-8.32 4.71v.03l3.68 2.07a.03.03 0 0 0 .02 0h.01l4.62-2.62H28a.02.02 0 0 1 .02 0L31.43 23l1.24.7h.03l3.68-2.09v-.01L28 16.89a.03.03 0 0 0-.03 0Z" fill="url(#c)"/><path d="m28.02 26.35 2.27-1.29v-.01l-2.28-1.3a.01.01 0 0 0-.01 0l-2.27 1.3v.01l2.28 1.3h.01Z" fill="url(#d)"/><path d="m12 30.1.01-4.19h.02L22 31.56l-.01 4.19h-.01L12 30.1Z" fill="#B8BE40"/><defs><linearGradient id="a" x1="10.42" y1="9.71" x2="68.15" y2="76.02" gradientUnits="userSpaceOnUse"><stop stop-color="#1A1E21"/><stop offset="1" stop-color="#06060A"/></linearGradient><linearGradient id="b" x1="28.01" y1="10" x2="28.01" y2="26.35" gradientUnits="userSpaceOnUse"><stop stop-color="#EDDE96"/><stop offset="1" stop-color="#B8BE33"/></linearGradient><linearGradient id="c" x1="28.01" y1="10" x2="28.01" y2="26.35" gradientUnits="userSpaceOnUse"><stop stop-color="#EDDE96"/><stop offset="1" stop-color="#B8BE33"/></linearGradient><linearGradient id="d" x1="28.01" y1="10" x2="28.01" y2="26.35" gradientUnits="userSpaceOnUse"><stop stop-color="#EDDE96"/><stop offset="1" stop-color="#B8BE33"/></linearGradient></defs></svg>