<!-- by TradingView --><svg width="56" height="56" viewBox="0 0 56 56" xmlns="http://www.w3.org/2000/svg"><path fill="#F0F3FA" d="M0 0h56v56H0z"/><path d="M39.13 30.82c.24-.01.42-.06.56-.13.13-.06.2-.17.17-.32a23.37 23.37 0 0 1 0-5.44c3.42-3.57-2.62-5.62-4.35-3.47-.66.82-.47 2.48-.52 3.54l-6.7.18c-.06 0-.33-.16-.39-.18-.05-.02.04-.12 0-.16a.42.42 0 0 1-.12-.31l.17-3.69c1.14-2.63 3.47-4.43 5.71-5.4.6-.26 1.35-.4 2.27-.42 1.98-.06 4.01.02 6.06.5 2.47.56 5.67 3.26 5.95 5.98.61 4.78-3.68 9.8-8.8 9.32Z" fill="#4FBB43"/><path d="M28 20.84V25h7c1.54.22 3.65.13 5-.18v5.72c.02.15-.18.26-.31.33-.14.07-.32.11-.56.13h-3.85c-.16 0-.28.08-.28.23v9.55c0 .14-.03.22-.17.22H28.2a.22.22 0 0 1-.15-.06.2.2 0 0 1-.06-.15V30H17v-4.3c.01-.1-.04-.2-.14-.32-.08-.1-.1-.19-.07-.24.04-.06.13-.11.28-.14h3.7a.25.25 0 0 0 .17-.08.24.24 0 0 0 .06-.08V21.04c-.05-.68-.38-1.04-1.08-1.04h-1.8c-1.23 0-1.58 1.92-1.54 2.8a.18.18 0 0 1-.06.14.2.2 0 0 1-.14.06h-6.6c-.16 0-.22-.07-.2-.22.22-1.25.6-3.86 1.71-4.94a27.7 27.7 0 0 1 2.5-2.25 3.87 3.87 0 0 1 2.07-.59h6.55c2.34 0 4.2 3.6 5.59 5.84Z" fill="#027F02"/><path d="M17 25v5c-.84.94-1.7 4.19 1.24 4.9.62.15 3.72.26 3.76-.91V30h6v6.66a12.46 12.46 0 0 1-7.75 4.17c-3.34.44-5.1-.22-7.66-1.7-.48-.28-1.63-1.5-3.45-3.68a.58.58 0 0 1-.14-.38V29.6c0-.16.06-.3.17-.42 1.35-1.52 3.27-2.57 5.75-3.65.9-.39 1.54-.57 2.08-.53Z" fill="#4FBB43"/></svg>