<!-- by TradingView --><svg width="56" height="56" viewBox="0 0 56 56" xmlns="http://www.w3.org/2000/svg"><path fill="#F0F3FA" d="M0 0h56v56H0z"/><path d="M21.19 16c1.73.07 3.78.56 5.33 1.2a19.4 19.4 0 0 1 8.3 6.54v.03a.04.04 0 0 1-.07 0l-1.35-1.21a19.12 19.12 0 0 0-12.27-4.92 19.13 19.13 0 0 0-12.61 4 1786.12 1786.12 0 0 0-1.47 1.13s-.02 0-.03-.02v-.06a19.4 19.4 0 0 1 8.76-5.9c1.6-.51 3.67-.85 5.4-.78Z" fill="#C56C2D"/><path d="M4.16 30.05c0 .02-.02.03-.04.03h-.07c-.04 0-.06-.02-.05-.06 1.38-3.92 4.04-7.56 7.83-9.4 6.27-3.04 13.3-1.27 18.19 3.46.03.04.02.05-.02.05H29.88c-7.64-5.95-19.04-4.41-24.47 3.74-.3.46-.72 1.19-1.25 2.18Z" fill="#3D7C4B"/><path d="M16.48 32a.23.23 0 0 0-.22.14l-.77 1.8c-.01.03-.04.06-.08.06h-2.23l-.01-.01a.02.02 0 0 1-.01-.02l3.3-6.83a.24.24 0 0 1 .23-.14H19c.08 0 .13.04.16.1L22 33.8a.15.15 0 0 1-.07.18.15.15 0 0 1-.07.02h-1.83a.38.38 0 0 1-.2-.08.34.34 0 0 1-.13-.16l-.6-1.6a.25.25 0 0 0-.1-.11.26.26 0 0 0-.14-.05h-2.4Zm.42-1.63a.11.11 0 0 0 .04.15l.06.01h1.47a.12.12 0 0 0 .1-.05.11.11 0 0 0 0-.1l-.68-1.8a.11.11 0 0 0-.1-.07.12.12 0 0 0-.11.07l-.78 1.8ZM39.4 32a.23.23 0 0 0-.22.14l-.77 1.8c-.01.03-.04.06-.08.06H36.1l-.01-.01a.02.02 0 0 1-.01-.02l3.3-6.83a.24.24 0 0 1 .23-.14h2.32c.08 0 .13.04.16.1l2.84 6.7a.15.15 0 0 1-.07.18.15.15 0 0 1-.07.02h-1.83a.38.38 0 0 1-.2-.08.34.34 0 0 1-.13-.16l-.6-1.6a.25.25 0 0 0-.1-.11.26.26 0 0 0-.14-.05h-2.4Zm.42-1.63a.11.11 0 0 0 .05.15l.05.01h1.47a.12.12 0 0 0 .1-.05.11.11 0 0 0 0-.1l-.68-1.8a.11.11 0 0 0-.1-.07.12.12 0 0 0-.11.07l-.78 1.8ZM27.91 27c.06 0 .09.04.09.1v1.2c0 .08-.03.11-.1.11h-1.72c-.03 0-.05 0-.07.02a.17.17 0 0 0-.06.04.19.19 0 0 0-.05.13v5.25c0 .04-.01.07-.03.1a.13.13 0 0 1-.1.04 46.74 46.74 0 0 1-1.75 0 .13.13 0 0 1-.09-.04.14.14 0 0 1-.03-.1V28.6a.2.2 0 0 0-.06-.13.17.17 0 0 0-.12-.06H22.1c-.07 0-.1-.03-.1-.1v-1.2c0-.07.03-.11.09-.11h5.82ZM34.91 34h-4.82a.09.09 0 0 1-.06-.03.1.1 0 0 1-.03-.07v-6.8c0-.03 0-.05.03-.07a.09.09 0 0 1 .06-.03h1.82l.06.03a.1.1 0 0 1 .03.07v5.34c0 .03 0 .05.02.07.02.02.04.03.07.03H34.94c.02 0 .03.02.03.02a.1.1 0 0 1 .03.07v1.27a.1.1 0 0 1-.03.07.09.09 0 0 1-.06.03ZM48.8 32.25c.15-.26.06-.52-.26-.77-.66-.53-1.63-1.05-2.15-1.82-.56-.84-.23-1.86.66-2.29a4.96 4.96 0 0 1 3.54-.09.1.1 0 0 1 .03.06l.16 1.34c0 .04-.01.06-.05.04-1.08-.4-1.86-.4-2.33-.01a.29.29 0 0 0-.1.23c0 1.11 2.61 1.44 2.7 2.98.13 2.44-3.08 2.25-4.74 1.82-.04-.01-.07-.04-.08-.09l-.16-1.37c0-.05.01-.07.06-.05 1.54.5 2.45.5 2.73.02Z" fill="#0E6939"/></svg>