<!-- by TradingView --><svg width="56" height="56" viewBox="0 0 56 56" xmlns="http://www.w3.org/2000/svg"><path fill="#F0F3FA" d="M0 0h56v56H0z"/><path fill-rule="evenodd" d="M46.4 41.4c.38-.4.6-.92.6-1.47V16.07c0-.55-.22-1.08-.6-1.46-.38-.4-.9-.61-1.44-.61H11.04c-.54 0-1.06.22-1.44.6-.38.4-.6.92-.6 1.47v23.86a2.09 2.09 0 0 0 1.26 1.91c.25.1.51.16.78.16h33.92c.54 0 1.06-.22 1.44-.6Zm.02-.85c.08-.2.12-.4.12-.62V16.06c0-.43-.16-.85-.47-1.15-.3-.3-.7-.48-1.13-.48H11.05c-.42 0-.83.17-1.13.48-.3.3-.47.72-.47 1.15v23.87a1.65 1.65 0 0 0 .99 1.5c.2.08.4.13.61.13h33.89a1.59 1.59 0 0 0 1.48-1.01Z" fill="#005AA9"/><path d="M46 39.64a1.37 1.37 0 0 1-.83 1.26c-.17.06-.34.1-.52.1h-33.3a1.34 1.34 0 0 1-1.25-.84c-.07-.16-.1-.34-.1-.52V16.36A1.36 1.36 0 0 1 11.35 15h33.3A1.35 1.35 0 0 1 46 16.36v23.28Z" fill="#005AA9"/><path d="M45.41 39.5a.96.96 0 0 1-.95.95H11.48a.95.95 0 0 1-.96-.96V16.48a.96.96 0 0 1 .96-.96h32.98a.95.95 0 0 1 .95.96v23.01Z" fill="#FFD502"/><path d="M32.88 23c.08 0 .12-.05.12-.13v-4.8a.07.07 0 0 1 .07-.07h9.97a.08.08 0 0 1 .07.13l-5.82 7.98c-.05.07-.05.14 0 .21 1.68 2.3 3.33 4.57 4.95 6.83.63.88 1 1.6.85 2.61-.24 1.65-1.68 2.24-3.16 2.24H15.55a3.4 3.4 0 0 1-1.74-.64c-1.45-.93-1.4-2.73-.44-4.01 1.65-2.21 5.21-7.06 10.69-14.56a1.8 1.8 0 0 1 1.5-.79h4.34c.07 0 .1.06.1.13v4.75a.1.1 0 0 0 .07.1l.04.02h2.77Z" fill="#005AA9"/><path d="M28 27c-.02-.02 0 .04 0 0-.03 0 .02.02 0 0h6.18c.2 0 .38.09.5.26 1.54 2.22 3.48 4.76 4.76 6.59.4.57.16 1.15-.5 1.15H17.15c-.26 0-.47-.04-.64-.12a.27.27 0 0 1-.12-.11c-.2-.36-.16-.73.1-1.11 2.89-4.12 5.93-8.49 9.14-13.1.48-.69 1.3-.57 2.23-.52.06 0 .14.03.14.1V27Z" fill="#FFD502"/></svg>