<!-- by TradingView --><svg width="56" height="56" viewBox="0 0 56 56" xmlns="http://www.w3.org/2000/svg"><path fill="#F0F3FA" d="M0 0h56v56H0z"/><path d="m21.16 24.2 3.67-2.22c-.68-1.17-1.37-2.34-2.08-3.5a6.65 6.65 0 0 0-1.33-1.69 4 4 0 0 0-4.7-.04c-.44.33-.97 1-1.57 2.03-4.85 8.16-7.78 13.15-8.82 14.97a2.12 2.12 0 0 0 2.7 3.04c.41-.2.78-.58 1.1-1.13l7.59-12.78c.43-.72.93-1.27 1.76-.95.5.18 1 1.09 1.4 1.79l.28.49Zm10.27 8.91-6.6-11.13-3.67 2.23a7630.8 7630.8 0 0 0 6.35 10.7c.87 1.49 1.49 2.53 3.34 1.88.47-.17.84-.55 1.1-1.16.38-.9.01-1.62-.52-2.52Z" fill="url(#a)"/><path d="M39.87 35.64c-1.64-.64-3.04-3.09-3.78-4.86-.11-.1-.22-.23-.3-.38l-7.53-12.69c-.4-.67-.71-1.1-.95-1.28-1.05-.83-2.63-.4-3.21.82-.45.93-.11 1.67.44 2.6l8.59 14.47c.49.83.9 1.4 1.23 1.7a3.97 3.97 0 0 0 5 .14c.17-.13.34-.3.51-.52Z" fill="url(#b)"/><path d="M36.09 30.78c.57.53 1.41.51 1.9-.23.25-.38.62-1 1.12-1.85.5-.86.94-1.43 1.3-1.72 1.99-1.6 4.66-1.05 5.99 1.17l2.8 4.72c.52.87.78 1.47.8 1.8a2.16 2.16 0 0 1-1.6 2.23c-1.02.27-1.85-.12-2.48-1.17a203.12 203.12 0 0 0-1.6-2.67c-.45-.75-.73-1.21-1.63-1.15-.61.05-1.15 1.01-1.66 1.93l-.36.63c-.28.47-.55.87-.8 1.17-1.64-.64-3.04-3.09-3.78-4.86Z" fill="url(#c)"/><defs><linearGradient id="a" x1="20.24" y1="24.7" x2="29.35" y2="35.29" gradientUnits="userSpaceOnUse"><stop stop-color="#1581C1"/><stop offset="1" stop-color="#135E97"/></linearGradient><linearGradient id="b" x1="25.96" y1="17.01" x2="38.51" y2="36.54" gradientUnits="userSpaceOnUse"><stop stop-color="#1884C4"/><stop offset="1" stop-color="#0D5A90"/></linearGradient><linearGradient id="c" x1="37.31" y1="33.31" x2="48.67" y2="35.95" gradientUnits="userSpaceOnUse"><stop stop-color="#0F7BB8"/><stop offset=".46" stop-color="#15669E"/><stop offset="1" stop-color="#135E97"/></linearGradient></defs></svg>