<!-- by TradingView --><svg width="56" height="56" viewBox="0 0 56 56" fill="none" xmlns="http://www.w3.org/2000/svg">
<rect width="56" height="56" fill="#E31E27"/>
<path fill-rule="evenodd" clip-rule="evenodd" d="M25 33.4656C25 29.7228 30.2912 25.7989 33.6875 24.1035L36.4396 22.7114C39.8253 21.364 43.3971 20.5019 47 20.1425V17C43.0572 17.3856 39.206 18.4569 35.5312 19.9789C34.1048 18.292 31.8691 17 29.1936 17C18.6917 17 10.75 29.1119 9 38.9978H12.0962C13.625 30.8141 20.238 20.1425 29.1936 20.1425C30.6774 20.1425 31.8193 20.845 32.6658 21.4798C27.5 23.6779 22 28.1995 22 34.0221C22 37.152 24.4375 38.9978 27 38.9978C31.186 38.9978 34.2873 35.7574 35.8541 31.9271L33.4042 29.9515C32.4839 32.8803 30.4919 35.8553 27.25 35.8553C25.8002 35.8553 25 34.8078 25 33.4656Z" fill="white"/>
<path d="M34.0119 26.329C34.0119 25.4456 33.8751 24.6927 33.6876 24.1035L36.4397 22.7114C36.8409 23.8609 37.0001 25.086 37.0001 26.329C37.0001 28.1374 36.6019 30.0994 35.8542 31.9271L33.4043 29.9515C33.8147 28.6456 34.0119 27.3488 34.0119 26.329Z" fill="url(#paint0_linear_5085_142739)"/>
<defs>
<linearGradient id="paint0_linear_5085_142739" x1="35.2022" y1="22.7114" x2="35.2022" y2="31.9271" gradientUnits="userSpaceOnUse">
<stop offset="0.0764632" stop-color="#B5776A"/>
<stop offset="0.580858" stop-color="#F8F0EF"/>
<stop offset="0.850815" stop-color="white"/>
</linearGradient>
</defs>
</svg>
