<!-- by TradingView --><svg width="56" height="56" viewBox="0 0 56 56" xmlns="http://www.w3.org/2000/svg"><path fill="#F0F3FA" d="M0 0h56v56H0z"/><path d="m24 27.52-.03.06a.1.1 0 0 1-.16-.02c-.3-.75-.53-1.43-.65-2.05-.12-.57-.5-1.03-.56-1.6a.09.09 0 0 0-.12-.07.09.09 0 0 0-.04.04l-3.58 6.32a.15.15 0 0 0 .06.21c.02.02.05.02.07.02h4.67a.2.2 0 0 1 .2.2v2.32a.19.19 0 0 1-.19.2H17.5a.63.63 0 0 0-.5.23c-.62.78-.89 1.5-1.3 2.43-.41.9.09 1.23.93 1.26.48.02 3.08.02 7.82 0a.21.21 0 0 0 .2-.2V15.6c0-.14.05-.28.14-.4.3-.4.61-.85.84-1.29.5-.94 1.04-1.9 1.65-2.87.03-.04.07-.05.12-.02.04.02.06.06.06.12a11083.29 11083.29 0 0 1 .03 25.67.34.34 0 0 0 .33.3h.43a.34.34 0 0 0 .34-.34V11.14a.14.14 0 0 1 .1-.13.14.14 0 0 1 .16.06l2.3 4.08c.1.17.15.36.15.55v21.17a.23.23 0 0 0 .24.23c2.18-.01 4.71-.02 7.6-.01.57 0 .8-.14 1.07-.54a.28.28 0 0 0 .04-.2c-.07-.51-.3-.81-.65-.91-1.8-.48-3.82-1-6.09-1.58-.08-.02-.14-.05-.16-.1a.19.19 0 0 1 .16-.28h7.92a.23.23 0 0 1 .2.11 64.6 64.6 0 0 0 1.5 2.6c.87 1.43 1.31 2.6.3 3.97-.75 1.02-2.29.83-3.58.82H14.35c-.56 0-1.16-.2-1.58-.63a2.71 2.71 0 0 1-.65-2.7l11.67-20.4a.1.1 0 0 1 .18-.02c.02.02.03.05.03.07v10.22Z" fill="#D1A531"/><path d="M25.28 37.18c.03-1.98.04-3.96.03-5.94 0-1.91 0-3.9.02-5.95.03-2.76.02-5.52-.02-8.28L25.26 16c.07-.47.26-.92.56-1.36a11.35 11.35 0 0 0 .88-1.48.09.09 0 0 1 .12.08l.02 23.86v.02c.21.43.6.65 1.18.65.52 0 .9-.19 1.16-.55a.23.23 0 0 0 .04-.14V13.21c0-.01 0-.03.02-.04a.08.08 0 0 1 .04-.03.08.08 0 0 1 .09.03l1.13 2c.09.16.13.34.13.52v21.3c0 .11.04.23.12.32.4.5.84.45 1.49.44 2.84-.05 4.86-.05 6.06-.01 1.44.04 2.7-.25 2.4-1.97a.16.16 0 0 0-.04-.08l-.8-.8a.27.27 0 0 0-.13-.08l-2.42-.64a79.41 79.41 0 0 0 3.46-.1c.59 0 .47.22.68.58l1.38 2.37c.39.61.57 1.11.57 1.49 0 .55-.22 1.05-.63 1.49-.24.25-.83.38-1.21.38-7.44 0-11.52-.02-15.2 0H14c-.25 0-.56-.15-.95-.45a.17.17 0 0 1-.05-.07l-.48-.97v-.03c-.01-.43 0-.69.06-.77l2.84-4.96c.84-1.52 1.6-2.89 2.31-4.09.33-.55.51-.96.85-1.52.49-.8.98-1.7 1.49-2.7.31-.6.67-1.22 1.07-1.84.32-.47.67-1.1 1.05-1.86.14-.28.23-.34.39-.55.03-.05.06-.1.07-.16a1.5 1.5 0 0 1 .33-.69h.1a.13.13 0 0 1 .13.12v4.1c0 .02 0 .04-.03.06a.09.09 0 0 1-.06.02h-.05a.12.12 0 0 1-.12-.1 2.4 2.4 0 0 0-.26-.79.22.22 0 0 0-.33-.08c-.26.2-.47.43-.62.7-1.14 2.08-2.3 4.2-3.49 6.33-.13.22-.1.43.06.63.23.27.41.39.82.39a162.16 162.16 0 0 0 4-.03.12.12 0 0 1 .07.07l.01.05v1.18a.12.12 0 0 1-.12.11h-5.92a.3.3 0 0 0-.16.05c-.31.2-.55.44-.7.74a51.1 51.1 0 0 0-1.4 2.78c-.12.26-.03.65.15.89a2 2 0 0 0 1.66.82c2.44-.06 4.7-.06 6.8-.03.45.01.8 0 1.07-.02.04 0 .09-.02.12-.05l.57-.48Z" fill="#1E116C"/><path d="m25.26 16 .05 1.01c.04 2.76.05 5.52.02 8.28-.02 2.06-.03 4.04-.02 5.95.01 1.98 0 3.96-.03 5.94-.04-1.82-.06-3.64-.05-5.47.01-2.07 0-3.9-.02-5.46-.04-3.07-.04-6.13 0-9.2.01-.32.02-.67.05-1.05Z" fill="#8A5F32"/><path d="m32.12 27.56-.03.03a.06.06 0 0 1-.1-.05V17.2a.07.07 0 0 1 .1-.06c.02 0 .04.01.04.03l9.11 15.7a.17.17 0 0 1-.14.25h-8.73a.18.18 0 0 1-.18-.17v-2.38c0-.04.02-.08.05-.1a.15.15 0 0 1 .1-.05h4.73a.15.15 0 0 0 .13-.08.15.15 0 0 0 0-.15l-3.53-6.23a.1.1 0 0 0-.2.01c-.2.6-.6 1.37-.83 2.32-.11.45-.37.82-.52 1.26Z" fill="#D1A531"/><path d="M33.02 23.87a.1.1 0 0 1-.1.09.1.1 0 0 1-.08-.1V19.7a.1.1 0 0 1 .07-.09.09.09 0 0 1 .1.05l7.2 12.7a.09.09 0 0 1 0 .08.09.09 0 0 1-.08.04H33a.17.17 0 0 1-.17-.16V31.2a.15.15 0 0 1 .15-.15c1.92.01 3.26.02 4 .05.22 0 .45-.1.7-.33.24-.2.28-.44.13-.7-.98-1.74-2.18-3.91-3.6-6.52-.09-.15-.22-.3-.4-.45a.4.4 0 0 0-.6.12 2 2 0 0 0-.19.64Z" fill="#1E116C"/></svg>