<!-- by TradingView --><svg width="56" height="56" viewBox="0 0 56 56" xmlns="http://www.w3.org/2000/svg"><path fill="#F0F3FA" d="M0 0h56v56H0z"/><path d="M37.39 20.55c-1.12.18-2.22.42-3.32.73a.1.1 0 0 1-.12-.04.09.09 0 0 1 .01-.1l1.07-.94a177 177 0 0 1 10.52-4.54 9.36 9.36 0 0 1 4.29-.62c.2.02.21.07.02.15L37.4 20.55Z" fill="#F07D23"/><path d="M43.49 16.2a187.38 187.38 0 0 0-7.83 3.34l-4.37 1.08-5.12 1.27c-.14.03-.23-.01-.28-.15l-.4-1a.2.2 0 0 1 .15-.28l5.4-1.33 3.22-.8 9.11-2.27c.06-.01.1 0 .12.06l.03.07h-.01v.01h-.02Z" fill="url(#a)"/><path d="M35.03 20.2s3.77-.82 5.77-1.14c-3.44 1.58-10.23 4.83-13.54 6.77a.06.06 0 0 1-.06 0 .06.06 0 0 1-.03-.03l-.34-1.44c-.01-.03 0-.06.03-.07a92 92 0 0 1 8.17-4.09Z" fill="url(#b)"/><path d="m19.22 23.35.85-1.46a.1.1 0 0 1 .07-.06l2.73-.63a.1.1 0 0 1 .11.04l.02.04.28 1.19a.1.1 0 0 1-.04.11.1.1 0 0 1-.04.02l-3.86.9a.11.11 0 0 1-.14-.1c0-.01 0-.04.02-.05Z" fill="#05B1A9"/><path d="m9.07 24.5 7.96-1.88a.08.08 0 0 1 .1.08v.04l-.86 1.48a.08.08 0 0 1-.06.03l-4.98 1.17h-.05l-2.12-.77a.08.08 0 0 1 0-.16Z" fill="#1BAAD3"/><path d="m23.79 17.32-.38-.93a.11.11 0 0 0-.1-.07.11.11 0 0 0-.1.06l-.83 1.41a.78.78 0 0 0-.06.64l1.17 3.61 1.4 4.92 1.72 7.2.4 2.15a18.8 18.8 0 0 1 2.82 3.7c.16.27.64.96.63.64l-1.1-5.25a121.6 121.6 0 0 0-2.85-10.85l-1.1-3.35-1.62-3.88Z" fill="url(#c)"/><path d="M14.7 27.91a.07.07 0 0 1-.09.03l-.02-.01c-.9-.5-1.76-.98-2.38-1.37-.62-.39-.95-.64-.92-.7l.02-.04c.04-.06.43.08 1.1.39.66.3 1.54.75 2.44 1.24h.02a.07.07 0 0 1 .03.1l-.2.36Z" fill="#F5D319"/><path d="M24.52 27.54c.16-.37.09-.92-.2-1.63a.16.16 0 0 0-.18-.1.16.16 0 0 0-.06.03l-2.02 1.24a53.88 53.88 0 0 0-5.6 3.86.57.57 0 0 0-.21.32l-.59 2.37c-.06.25.01.29.2.12 2.63-2.23 5.52-4.3 8.66-6.21Z" fill="url(#d)"/><path d="m23.02 16.24-2.28 3.74-2.2 4.38-.66 1.5-1.24 3.16-.64 2.03-3.15 2.73 1.85-5.16 1.13-2.7.76-1.62 2.88-5.38 1.77-2.71a.12.12 0 0 1 .1-.06h1.62a.06.06 0 0 1 .06.03.06.06 0 0 1 0 .06Z" fill="url(#e)"/><path d="M16.82 29.37a6.96 6.96 0 0 0 .24-.68.15.15 0 0 1 .2-.03l.78.45a.18.18 0 0 1 .09.15.18.18 0 0 1-.08.15l-.76.56a.23.23 0 0 1-.28.01c-.24-.14-.3-.35-.19-.6Z" fill="#F07D23"/><path d="m16 31.05-.74 3.17a.24.24 0 0 1-.15.18c-.64.28-1.37.37-2.18.27a.35.35 0 0 1-.3-.28v-.15c.06-.19.13-.34.22-.46L16 31.05Z" fill="#549C2C"/><path d="m23.38 32.89-2.87-2.16a.3.3 0 0 0-.35 0l-1.2.88a.11.11 0 0 0 0 .16l3.78 4a62.38 62.38 0 0 1 4.14 5.38l.5.65c.2.23.26.2.18-.09a5.6 5.6 0 0 1-.17-1.13c-.02-.26-.04-.52-.09-.77l-.5-3.14a2.04 2.04 0 0 0-.65-1.2c-.88-.9-1.8-1.76-2.77-2.58Z" fill="url(#f)"/><path d="M31.04 42.57c0 .04 0 .09-.02.12a.18.18 0 0 1-.09.08c-.82.3-1.72.3-2.7 0a.48.48 0 0 1-.36-.41l-.86-6.05c1.15 1.2 2.54 2.37 3.27 3.63l.76 2.63Z" fill="#BF2218"/><defs><linearGradient id="a" x1="26.46" y1="20.99" x2="43.52" y2="18.95" gradientUnits="userSpaceOnUse"><stop stop-color="#04B1AB"/><stop offset="1" stop-color="#65C152"/></linearGradient><linearGradient id="b" x1="38.64" y1="20.08" x2="26.85" y2="24.96" gradientUnits="userSpaceOnUse"><stop stop-color="#F2A024"/><stop offset=".57" stop-color="#F25D2A"/><stop offset="1" stop-color="#E26B2D"/></linearGradient><linearGradient id="c" x1="22.96" y1="17.27" x2="28.29" y2="36.33" gradientUnits="userSpaceOnUse"><stop stop-color="#F1D615"/><stop offset="1" stop-color="#DD452C"/></linearGradient><linearGradient id="d" x1="24.6" y1="26.92" x2="16.32" y2="32.79" gradientUnits="userSpaceOnUse"><stop stop-color="#C48835"/><stop offset=".69" stop-color="#A8A439"/><stop offset="1" stop-color="#93CA54"/></linearGradient><linearGradient id="e" x1="17.94" y1="16.15" x2="17.94" y2="33.78" gradientUnits="userSpaceOnUse"><stop stop-color="#CB302B"/><stop offset=".54" stop-color="#E26B2D"/><stop offset="1" stop-color="#9DB13D"/></linearGradient><linearGradient id="f" x1="19.48" y1="31.72" x2="26.34" y2="40.05" gradientUnits="userSpaceOnUse"><stop stop-color="#F07026"/><stop offset="1" stop-color="#D43B2B"/></linearGradient></defs></svg>