<!-- by TradingView --><svg width="56" height="56" viewBox="0 0 56 56" xmlns="http://www.w3.org/2000/svg"><path fill="#F0F3FA" d="M0 0h56v56H0z"/><path d="M13 43V13h30v29.9a.1.1 0 0 1-.03.07.1.1 0 0 1-.07.03H13Z" fill="#005197"/><path d="M21.07 27.28a.16.16 0 0 1-.14.16h-.08c-2.36-.97-4.48-.77-6.37.59-.15.1-.2.07-.15-.1a14.02 14.02 0 0 1 10.3-9.73c.83-.2 1.65-.22 2.3-.3.46-.05.48.02.06.22-3.5 1.64-6 5.27-5.92 9.16ZM28.29 27.45c-.07-.1-.2-.11-.43-.05.3-3.08.36-6.08.16-9.01a.5.5 0 0 1 .52-.52c4 .24 7.32 1.86 9.96 4.84A13.48 13.48 0 0 1 41.36 28a.1.1 0 0 1-.16.05 6.03 6.03 0 0 0-6.1-.68c-.29.13-.53.15-.73.07a8.17 8.17 0 0 0-5.71-.28.57.57 0 0 0-.37.3Z" fill="#5FB847"/><path d="M32.91 21.71a10.83 10.83 0 0 1 1.78 5.52c0 .04-.02.07-.07.07l-.07-.03a10.6 10.6 0 0 0-6.2-9.16v-.08c.03-.04.06-.06.1-.03a10.9 10.9 0 0 1 4.46 3.71Z" fill="#005197"/><path d="M27.52 27.42c-.25-.1-.4-.08-.44.03-.02-.15-.08-.24-.18-.27a7.6 7.6 0 0 0-5.58.24.08.08 0 0 1-.07-.04 10.22 10.22 0 0 1 6.49-9.34.07.07 0 0 1 .06.08c0 .99.07 2.15.19 3.47.1 1.07-.06 3.02-.47 5.83Z" fill="#5FB847"/><path d="M28 27.32v12.26c0 .84-.44 2.35-1.38 2.42h-2.56c-.53 0-.9-.05-1.1-.19-1.31-.9-1-4.28-.67-5.42.51-1.74 2.41-1.39 3.9-1.38.15 0 .81.07.81-.24v-7.45c.02-.05.93-.11 1 0Z" fill="#fff"/><path d="M35 35.88h.02l.03-.01c.76-1.05 1.94-.86 3.29-.85 2.38.01 2.68 1.65 2.66 3.76v2.95c0 .17-.09.27-.25.27h-.49c-.16 0-.27-.3-.26-.46v-3.12c.03-2.41-1.3-2.59-3.26-2.3-.74.1-1.14.57-1.18 1.4-.04.78-.05 2.3-.03 4.2 0 .05-.01.1-.04.14a.23.23 0 0 1-.11.09c-.09.03-.21.04-.38.04-.15 0-.28-.01-.37-.04a.23.23 0 0 1-.11-.09.24.24 0 0 1-.04-.13c.01-1.9 0-3.42-.04-4.2-.05-.84-.44-1.3-1.19-1.41-1.96-.28-3.29-.11-3.25 2.3v3.12c.01.16-.05.46-.21.46h-.53c-.16 0-.26-.08-.26-.25V38.8c-.03-2.1.27-3.75 2.65-3.77 1.35-.01 2.53-.21 3.3.84l.03.01H35Z" fill="#5FB847"/><path d="M25.81 36H24.2c-.66 0-1.2.6-1.2 1.36l.01 2.28c0 .75.51 1.36 1.17 1.36h1.63c.65 0 1.2-.6 1.2-1.35v-2.27c0-.76-.53-1.38-1.19-1.38Z" fill="#005197"/><path fill-rule="evenodd" d="M19.9 36.76c.16.37.01 1.26-.63 1.24h-3.61c-.87 0-1.51.1-1.6 1-.13 1.18-.2 3.01 1.51 3h4.23c.96-.06 1.06-1.24 1.13-2.05v-.04c.1-1.17.1-2.2-.01-3.05-.24-2-2.08-1.91-3.85-1.82l-.63.02c-1.45.04-2.29.72-2.15 2.14.01.1.07.16.18.17.36.03.49.02.65-.04a.25.25 0 0 0 .16-.2c.07-.55.38-1.09.94-1.12.39-.02 1.55-.02 2.74 0 .43.02.72.2.87.58l.07.17Zm.1 2.58c0-.2-.23-.34-.43-.34H15.4c-.2 0-.4.2-.4.41v.81c0 .21.12.41.31.56.19.14.44.22.7.22h3.02c.44 0 .98-.38.97-.85v-.8Z" fill="#5FB847"/></svg>