<!-- by TradingView --><svg width="56" height="56" viewBox="0 0 56 56" xmlns="http://www.w3.org/2000/svg"><path fill="#F0F3FA" d="M0 0h56v56H0z"/><path d="M36.84 16c1.3.26 2 1.75.87 2.7-1.13.93-2.71-.05-2.38-1.52.15-.64.6-1.03 1.33-1.18h.18ZM48 20v1h-3.92c-.05 0-.08.03-.08.09v9.98c.16 2.38 1.54 3.23 4 2.71v1.1c-1.24.18-2.47.15-3.68-.07-1.82-.35-2.3-1.82-2.32-3.47V21.06l-.01-.05a.06.06 0 0 0-.04-.01h-1.9c-.03 0-.05-.02-.05-.06v-.87c0-.04.02-.07.05-.07h1.87c.06 0 .08-.01.08-.07v-1.9a.2.2 0 0 1 .08-.17L43.93 16a.04.04 0 0 1 .04 0H44l.01.03v3.88c0 .06.02.08.08.08H48Z" fill="#DE7C00"/><path d="M8 31.42v-.12c.09-1.81.94-3.01 2.55-3.6a15.1 15.1 0 0 1 5.26-.84c.1 0 .18-.05.19-.15 0-1.36-.01-2.47-.18-3.57-.25-1.62-1.83-2.08-3.23-1.8-1.24.24-1.65 1.37-1.81 2.58 0 .06-.04.08-.1.08H8.35a.09.09 0 0 1-.07-.03.1.1 0 0 1-.02-.07c.23-1.79 1.15-3.05 2.76-3.54a7.5 7.5 0 0 1 4.69.03c1.63.54 2.25 2.3 2.28 4.04a1337.01 1337.01 0 0 1 0 10.56l-.05.01h-1.87l-.05-.01-.01-.05v-2.07c0-.09-.04-.1-.1-.03-.17.2-.32.45-.54.67a5.14 5.14 0 0 1-3.1 1.46c-2.36.25-4.1-.95-4.26-3.55Zm7.9-3.62c-1.43.01-4.07.22-5.12 1.36-.7.74-.85 1.83-.52 2.77.33.93 1.56 1.63 2.69 1.58 1.96-.07 3-2.23 3.05-3.69v-1.94c0-.06-.04-.08-.1-.08ZM34.08 20.82c-.06.27-.04.51.07.73-.78.08-1.5.34-1.79 1.14-.07.2-.08.53-.04.98.1 1.17.2 1.79-.05 2.74-.5 1.9-2.3 3.15-3.91 4a.1.1 0 0 0-.04.03.1.1 0 0 0 .04.14c2.34 1.19 4.22 3.24 4.43 6.05a5.52 5.52 0 0 1-3.44 5.77 8.1 8.1 0 0 1-6.82-.33c-2.21-1.22-3.02-4.03-2.3-6.38a6.37 6.37 0 0 1 2.66-3.34c.03 0 .06 0 .08.02l.92.55.03.02a.08.08 0 0 1 0 .1c-.18.21-.35.43-.52.66-2.45 3.29-.93 9.23 3.94 8.34 2.35-.42 3.27-2.72 3-4.97-.24-2.1-2.12-3.86-3.83-4.75-2.13-1.1-4.04-2-5.15-4.01-1-1.83-.9-4.32.37-5.97 1.3-1.7 3.41-2.34 5.46-2.23.98.05 2.31.43 3.24.6 1.18.22 2.4.26 3.65.1Zm-11.1 3.67c-.21 2.77 2.26 4.42 4.44 5.45.06.03.1.02.16 0l.29-.2a6.11 6.11 0 0 0 1.97-2.47c.92-2.24.43-4.98-1.78-6.08a3.5 3.5 0 0 0-3.96.63 4.13 4.13 0 0 0-1.12 2.67Z" fill="#6C1D45"/><path d="M34.1 21.45c-.1-.22-.13-.48-.07-.75l3.9-.7c.05 0 .07.01.07.07v14.86c0 .05-.02.07-.06.07H36c-.02 0 .01.01 0 0s0 .02 0 0V24c0-1.48-.33-2.57-1.9-2.55Z" fill="#DE7C00"/></svg>