<!-- by TradingView --><svg width="56" height="56" viewBox="0 0 56 56" xmlns="http://www.w3.org/2000/svg"><path fill="#F0F3FA" d="M0 0h56v56H0z"/><path d="M39.9 15.5A18.66 18.66 0 0 1 45 22.9a.1.1 0 0 1-.05.08.1.1 0 0 1-.05.01H11.24c-.2 0-.27-.1-.2-.3.61-1.6 1.46-3.11 2.55-4.54a17.52 17.52 0 0 1 9.28-6.44c3.28-.94 6.61-.96 10-.05 1.9.51 3.7 1.37 5.39 2.57.81.59 1.36 1 1.64 1.25Zm-11.88 6.75h3.35c.17 0 .25-.09.23-.27a28.34 28.34 0 0 0-1.86-8.29c-.28-.66-.96-1.93-1.73-1.93s-1.45 1.27-1.73 1.94a28.37 28.37 0 0 0-1.84 8.29c-.02.18.06.27.24.27h3.34Zm10.34-.13c-1.17-4.47-4.11-8.95-8.5-10.12-.17-.04-.2 0-.11.15.54.9.96 1.87 1.27 2.92A36.74 36.74 0 0 1 32.28 22c.02.18.11.27.29.27h5.69a.1.1 0 0 0 .05 0l.03-.04a.12.12 0 0 0 .02-.1Zm-20.73-.01a.12.12 0 0 0 .02.1c0 .02.02.03.04.04a.1.1 0 0 0 .04 0l5.71.02c.18 0 .27-.1.29-.27.22-2.46.65-4.77 1.28-6.94.3-1.06.73-2.04 1.28-2.93.1-.15.06-.2-.1-.16-4.42 1.17-7.38 5.66-8.56 10.14Zm4.46-8.85a11.95 11.95 0 0 0 .66-.6v-.03a.05.05 0 0 0-.04-.02h-.03a17.38 17.38 0 0 0-10.56 9.37c-.1.2-.03.3.18.3h4.25c.08 0 .15-.03.21-.08s.1-.12.13-.2c.83-3.24 2.66-6.62 5.2-8.74Zm11.82.03c2.53 2.12 4.34 5.48 5.17 8.7.02.08.07.15.13.2.06.05.13.07.2.07l4.23.01c.22 0 .28-.1.19-.3a17.3 17.3 0 0 0-10.54-9.33.05.05 0 0 0-.03.02.06.06 0 0 0 .01.08c.1.1.32.29.64.55Z" fill="#0546A3"/><path d="M42 31.01c0 .13.1.25.17.35.08.1.18.15.3.18l.54.1c.08.01.1.06.09.15-.03.12-.09.2-.17.21h-2.89c-.02 0-.04 0-.06-.02a.14.14 0 0 1-.05-.04.15.15 0 0 1-.02-.14l.02-.06a.06.06 0 0 1 .04-.04l.64-.18c.1-.03.19-.1.25-.18.06-.08.14-.19.14-.3v-5.06c0-.1-.13-.21-.2-.3a.46.46 0 0 0-.25-.17l-.64-.16a.06.06 0 0 1-.04-.04l-.02-.06a.16.16 0 0 1 .01-.14.14.14 0 0 1 .05-.05c.02 0 .04-.06.06-.06 1-.01 1.96.02 2.89 0 .08 0 .14.06.17.18.02.09 0 .14-.09.16l-.54.11a.5.5 0 0 0-.29.19c-.07.1-.1.22-.11.34v5.03ZM23.45 31.37l-.29.45a.25.25 0 0 1-.1.1.23.23 0 0 1-.26-.05.26.26 0 0 1-.07-.12l-.5-2.03a.2.2 0 0 1 .03-.17.22.22 0 0 1 .16-.09c.21-.02.33.05.48.27a3.82 3.82 0 0 0 3.36 1.74c.67 0 2.79-.6 2.01-1.75-.42-.63-2.37-.93-3.32-1.11-.91-.18-2.1-.48-2.5-1.36-.36-.75.4-1.57 1-1.82a5.07 5.07 0 0 1 4.06-.01c.14.06.26.02.36-.1.13-.16.24-.25.33-.27.09-.01.17.07.25.23.24.5.36 1.03.54 1.6.04.13.03.23-.04.32a.29.29 0 0 1-.37.08.33.33 0 0 1-.1-.1 3.7 3.7 0 0 0-3.86-1.58c-.65.11-1.72.8-.8 1.56.25.2.6.36 1.07.47l2.7.6c.64.14 1.72.65 1.85 1.4.16.92-.6 1.65-1.33 1.95a4.9 4.9 0 0 1-4.46-.26.15.15 0 0 0-.1-.01.16.16 0 0 0-.1.06ZM33.1 28.17c.31.04.7.05 1.03.03.82-.06 1.37 0 1.49-1a.4.4 0 0 1 .06-.17c.03-.05.07-.1.12-.12l.1-.05c.17-.02.25.06.25.25l.03 2.7c0 .08-.03.15-.1.19-.08.06-.17.06-.27 0a.18.18 0 0 1-.06-.05.2.2 0 0 1-.03-.07l-.15-.6a.35.35 0 0 0-.1-.18c-.44-.43-1.69-.34-2.3-.3a.17.17 0 0 0-.12.05.2.2 0 0 0-.05.14c.02 1.15-.06 1.96.18 2.43.03.06.08.1.14.11l.8.12c.05 0 .08.04.08.1v.08c0 .11-.04.17-.15.17h-3.08a.1.1 0 0 1-.06-.02.1.1 0 0 1-.04-.06l-.02-.09a.15.15 0 0 1 .02-.1c0-.02.02-.04.03-.05a.11.11 0 0 1 .05-.01l.8-.13c.05 0 .1-.03.12-.07.1-.13.13-.35.13-.67v-4.95c0-.1-.09-.2-.15-.28a.35.35 0 0 0-.26-.12h-.6a.12.12 0 0 1-.08-.04.15.15 0 0 1-.04-.1v-.1c0-.14.06-.21.18-.21h6.4a.2.2 0 0 1 .12.04c.03.02.06.06.08.1l.6 1.48c.1.2.06.33-.1.36h-.06a.37.37 0 0 1-.23-.03.4.4 0 0 1-.18-.17c-.42-.8-1.1-1.2-2.03-1.21l-2.42.01a.24.24 0 0 0-.17.08c-.05.05-.06.12-.06.19v2.17c0 .09.03.14.1.15ZM18.88 25.47c.09.04.16.03.22-.05.17-.22.32-.32.46-.31.08 0 .13.04.16.11l.58 1.54c.07.2.1.37.08.5a.3.3 0 0 1-.07.14.27.27 0 0 1-.14.09c-.05.01-.1 0-.16-.01a.28.28 0 0 1-.13-.1c-.48-.7-.73-1.19-1.49-1.53a3.3 3.3 0 0 0-2.7-.12c-.88.36-1.46.95-1.76 1.78-.36 1-.15 1.97.64 2.9 1.08 1.3 3.37 1.16 4.7.37.1-.07.45-.3 1.04-.73.1-.06.19-.04.29.08.06.1.04.2-.04.28a5.12 5.12 0 0 1-6.63.67c-.96-.69-1.6-1.87-1.35-3.07.33-1.59 1.56-2.42 3-2.82a4.55 4.55 0 0 1 3.3.28Z" fill="#CA1929"/><path d="M27.98 33.01A12898.36 12898.36 0 0 0 44.8 33c.17 0 .22.08.14.24-.38.8-.8 1.85-1.28 2.7A18 18 0 0 1 29.04 45a118.73 118.73 0 0 1-2.1 0 18 18 0 0 1-14.62-9.06c-.48-.84-.9-1.9-1.29-2.7-.07-.15-.02-.23.14-.23H27.98Zm-5.8 9.82c-2.57-2.14-4.42-5.55-5.27-8.81a.37.37 0 0 0-.13-.2.35.35 0 0 0-.21-.07h-4.3c-.21 0-.27.1-.17.3a17.54 17.54 0 0 0 10.7 9.44.06.06 0 0 0 .04-.07s0-.02-.02-.03c-.1-.1-.32-.3-.65-.56Zm2.44-7.2c.25 2.13.69 4.09 1.31 5.87.31.88.83 2.03 1.6 2.6.45.33 1.05-.07 1.4-.43.32-.35.63-.87.9-1.56 1.03-2.64 1.46-5.37 1.8-8.24a.11.11 0 0 0-.03-.08.1.1 0 0 0-.07-.04h-6.9a.16.16 0 0 0-.12.05.18.18 0 0 0-.05.12c-.03.55.1 1.25.16 1.7Zm13.76-1.73a.12.12 0 0 0-.02-.1.11.11 0 0 0-.04-.04.1.1 0 0 0-.05 0l-5.69-.02c-.17 0-.27.09-.29.27a36.68 36.68 0 0 1-1.28 6.91c-.3 1.05-.73 2.03-1.28 2.92-.09.14-.05.2.11.15 4.4-1.16 7.36-5.63 8.54-10.1Zm-4.52 8.86a12 12 0 0 0-.66.6v.03l.03.03h.04a17.4 17.4 0 0 0 10.58-9.37c.1-.2.03-.3-.18-.3H39.4a.34.34 0 0 0-.21.08.37.37 0 0 0-.13.2c-.83 3.23-2.66 6.61-5.2 8.73ZM17.6 33.92c1.18 4.46 4.14 8.93 8.54 10.1.16.03.2-.02.1-.16-.54-.9-.97-1.87-1.27-2.92a36.67 36.67 0 0 1-1.29-6.92c-.01-.17-.1-.26-.28-.26l-5.7.01a.1.1 0 0 0-.08.05.12.12 0 0 0-.02.1Z" fill="#0546A3"/></svg>