<!-- by TradingView --><svg width="56" height="56" viewBox="0 0 56 56" xmlns="http://www.w3.org/2000/svg"><path fill="#F0F3FA" d="M0 0h56v56H0z"/><path d="M29 17a4 4 0 1 0 0-8 4 4 0 0 0 0 8Z" fill="#E90002"/><path d="m24.9 42.18 2.6.09a13.89 13.89 0 0 0 3.68-.02l1.13-.13c1.28-.14 2.52-.46 3.75-.96 2.89-1.17 4.72-3.62 4.26-6.7.02-.2.02-.33 0-.42-.82-3.53-3.93-6.06-7.42-7.13-2.4-.74-4.98-1-7.54-.68-2.38.3-4.48 1-6.64 1.93-.29.12-.3.1-.02-.04a20.33 20.33 0 0 1 9.16-2.4c1.1-.04 2.33.07 3.68.33 4.23.8 8.01 3.34 9.23 7.42.33 1.4.3 2.69-.1 3.86a5.98 5.98 0 0 1-1.45 2.38c.23-.1.43-.26.61-.47a7.54 7.54 0 0 0 2.14-4.72 7.37 7.37 0 0 0-1.38-4.78 9 9 0 0 0-2.82-2.8 16 16 0 0 0-4.76-2.04 19.2 19.2 0 0 0-11.51.64 18.03 18.03 0 0 0-4.85 2.85.17.17 0 0 1-.18-.06 3.31 3.31 0 0 1-.7-1.74c-.4-4.64 5.53-7.28 9.4-8.05 2.94-.58 5.82-.54 8.66.11 6.11 1.41 11.8 5.96 12.16 12.29.04.74-.06 1.62-.3 2.64a8.43 8.43 0 0 1-4.1 5.37 33.53 33.53 0 0 1-5.44 2.63c-1.86.7-3.85.94-5.84 1.02-1.8.07-3.6-.07-5.4-.42Z" fill="#094AA1"/><path d="M40.77 33.47c.15-1.06.16-1.86.04-2.38a6.67 6.67 0 0 1-.22-1.35 7.36 7.36 0 0 1 1.38 4.78 7.54 7.54 0 0 1-2.14 4.72 1.93 1.93 0 0 1-.6.47 5.98 5.98 0 0 0 1.45-2.38c.38-1.17.42-2.46.1-3.86Z" fill="#F5A642"/><path d="M10.86 34.87c-2.3-6.48.74-11.36.74-11.36-1.46 6.52-.26 9.28 0 9.9 2.09 4.9 7.27 8.32 12.63 9.27.59.1 1.09.17 1.5.2.6.04 1.33.17 1.98.18a30.04 30.04 0 0 0 10.5-1.66v.01l-.01.01c-.65.34-1.3.63-1.95.87-2.73 1-5.51 1.56-8.35 1.7-1.23.05-2.6-.03-4.13-.26-5.26-.77-10.79-4.06-12.9-8.86Z" fill="#E90002"/><path d="M21.37 37.81c-5.82-1.84-8.9-6.22-8.34-12.1a15.06 15.06 0 0 1 1.9-6.18h-.04c-2.12 2.79-3.65 5.85-3.56 9.4a11.3 11.3 0 0 0 3.36 7.86 19.3 19.3 0 0 0 6.82 4.4c1.09.48 2.22.81 3.4 1 4.78.49 8.97.37 13.01-2.02 1.23-.73 2.57-2.99 2.5-4.4-.02-.42-.04-.85-.04-1.29-.76.84-2.01 1.65-3.02 2.16-3.8 1.92-8.46 2.44-12.75 1.91-.95-.11-2.03-.36-3.24-.74Z" fill="url(#a)"/><defs><linearGradient id="a" x1="11.33" y1="37.42" x2="38.46" y2="38.64" gradientUnits="userSpaceOnUse"><stop stop-color="#E50005"/><stop offset=".56" stop-color="#FB3504"/><stop offset="1" stop-color="#FE8A14"/></linearGradient></defs></svg>