<!-- by TradingView --><svg width="56" height="56" viewBox="0 0 56 56" xmlns="http://www.w3.org/2000/svg"><path fill="#F0F3FA" d="M0 0h56v56H0z"/><path d="M28 11.6c1.18.67 1.86 1.07 2.07 1.2.05.03.09.02.14.05l1.07.64a2635.37 2635.37 0 0 1 12.3 7.1c.42.28.94.75 1.13 1.16.2.43.29.9.29 1.37 0 .46-.1.92-.26 1.34-.4 1.05-1.46 1.63-2.52 1.8-.5.09-.95-.05-1.45-.2-.3-.08-.64-.3-.83-.41-.85-.5-5.77-3.27-14.5-8.33a3.42 3.42 0 0 0-1.02-.45c-.5-.07-.93.13-1.28.6a.57.57 0 0 0-.14.34v7.94c0 .1-.05.27-.15.49-.41.88-1 1.55-1.93 1.8a3.23 3.23 0 0 1-3.84-1.96 1.22 1.22 0 0 1-.08-.48V14.96c0-.33.03-.56.09-.7.1-.24.23-.48.38-.71.05-.07.1-.13.19-.19l5.3-3.09c.18-.06.36-.16.55-.2.52-.1 1.07-.1 1.64 0 .17.03.35.1.53.2L28 11.6Z" fill="#1E3ED9"/><path d="M28.31 27.08c.53-.3.92-.48 1.16-.54 1-.24 2.04-.08 2.9.57 1.23.95 1.5 2.59.62 3.89-.12.19-.26.33-.42.43-2.39 1.5-5.4 3.27-8.78 5.34-.42.26-.79.62-.79 1.14v5.1a4 4 0 0 1-.1 1.17 2.4 2.4 0 0 1-1.99 1.75c-.9.16-1.99.07-2.74-.4-.5-.31-.87-.77-1.08-1.37-.06-.17-.09-.41-.09-.72V34.8c0-.67.29-1.25.8-1.66.27-.23.77-.45 1.15-.68l9.36-5.38Z" fill="#3F80EE"/></svg>