<!-- by TradingView --><svg width="56" height="56" viewBox="0 0 56 56" xmlns="http://www.w3.org/2000/svg"><path fill="#F0F3FA" d="M0 0h56v56H0z"/><path d="m18.11 30.96-.39-1.2-.01-.03H15.38l-.02.03-.33 1.2-.02.02-.03.02H12.9l-.02-.01-.01-.02-.01-.01v-.02l2.34-6.92.01-.02H17.81a.04.04 0 0 1 .04.03l2.36 6.87a.04.04 0 0 0 .04.03.04.04 0 0 0 .04-.02l2.38-3.35a.04.04 0 0 0 0-.05l-2.4-3.44a.04.04 0 0 1 0-.04l.02-.02.02-.01h2.2l.02.01.02.01 1.25 1.84a.04.04 0 0 0 .04.02h.02l.02-.02 1.29-1.85a.04.04 0 0 1 .03-.01h1.99l.02-.01 1.5-1.96.02-.02.02-.01h.2l.03.01.02.02v.04l-3.97 5.51a.04.04 0 0 0 0 .05l2.4 3.3a.04.04 0 0 1-.02.06h-2.25l-.02-.01-1.24-1.7a.04.04 0 0 0-.04-.01h-.02l-.01.02-2.71 3.68-.02.02-.02.01h-.21l-.03-.01-.01-.02a.04.04 0 0 1 0-.04l1.41-1.87a.04.04 0 0 0-.01-.06h-4.08l-.02-.02c-.01 0-.02 0-.02-.02Zm-1.56-2.79a302.54 302.54 0 0 0 .75-.02.05.05 0 0 0 .01-.04 108.63 108.63 0 0 1-.78-2.8l-.01.03a109.17 109.17 0 0 1-.72 2.82l.02.01h.73ZM51.36 25.9a3.99 3.99 0 0 0-1.92-.4c-.36.03-.7.37-.35.67.16.14.35.25.58.34.47.2.9.4 1.3.62.54.29.9.72 1 1.34.22 1.38-.79 2.32-2.18 2.49-.94.11-1.83 0-2.7-.33a.16.16 0 0 1-.06-.06.15.15 0 0 1-.03-.08v-1.54l.02-.01a.05.05 0 0 1 .05 0c.7.35 1.44.53 2.2.54.29 0 .5-.06.65-.19.17-.15.2-.33.06-.54-.1-.15-.43-.32-.6-.4-.45-.18-.89-.4-1.31-.63-.66-.36-1-.93-1-1.68-.02-.82.35-1.4 1.1-1.75.62-.28 1.29-.32 1.97-.27.62.04 1.23.2 1.82.45.03.02.03.04.02.06l-.56 1.35a.04.04 0 0 1-.03.02.04.04 0 0 1-.03 0ZM8 28.92l.01.02a.04.04 0 0 0 .05 0l.01-.02 1.37-4.88c0-.03.02-.04.05-.04h2.45a.06.06 0 0 1 .06.06v6.86c0 .05-.03.08-.08.08h-1.6a.06.06 0 0 1-.06-.06c0-2.1-.04-3.4.07-4.83 0-.03 0-.05-.02-.07-.03-.02-.04-.02-.05.02l-1.38 4.9c0 .03-.02.04-.05.04H7.11l-.03-.01a.06.06 0 0 1-.03-.04l-1.4-4.92c0-.02 0-.02-.02 0-.06.08 0 .55.03 1l.03.9a538.8 538.8 0 0 0-.01 3.06.05.05 0 0 1-.04 0H4.05a.05.05 0 0 1-.05-.04v-6.9a.06.06 0 0 1 .03-.05h2.48a.04.04 0 0 1 .04.03L8 28.92Z" fill="#069FDB"/><path d="M29.95 24h-1.9a.05.05 0 0 0-.05.05v6.9c0 .03.02.05.05.05h1.9c.03 0 .05-.02.05-.05v-6.9a.05.05 0 0 0-.05-.05ZM35 28.92l.01.02a.04.04 0 0 0 .06-.02l1.37-4.88c0-.03.02-.04.05-.04h2.45a.06.06 0 0 1 .06.06v6.86c0 .05-.03.08-.08.08h-1.6a.06.06 0 0 1-.06-.06c0-2.1-.04-3.4.07-4.83 0-.03 0-.05-.02-.07-.02-.02-.04-.02-.05.02l-1.38 4.9c0 .03-.02.04-.05.04h-1.72l-.03-.01a.06.06 0 0 1-.03-.04l-1.4-4.92c0-.02 0-.02-.02 0-.06.08 0 .55.03 1l.03.9a544.36 544.36 0 0 0-.01 3.06.05.05 0 0 1-.04 0h-1.62a.05.05 0 0 1-.02-.04v-6.92a.06.06 0 0 1 .06-.03h2.47l.02.03L35 28.92ZM43 29.43c.86 0 1-.6 1-1.33v-4.05l.02-.03.03-.01H46l.01.04-.01 4.07c0 1.9-1.12 2.88-3 2.88s-2.98-.98-2.99-2.89a45612.48 45612.48 0 0 0 .01-4.1l.03-.01h1.92c.01 0 .02 0 .03.02l.01.03v4.05c0 .73.13 1.33 1 1.33Z" fill="#069FDB"/></svg>