<!-- by TradingView --><svg width="56" height="56" viewBox="0 0 56 56" xmlns="http://www.w3.org/2000/svg"><path fill="#F0F3FA" d="M0 0h56v56H0z"/><path d="M44 19.78v6.86l-15.96-10.1L12 26.64v-6.86l16.04-9.71L44 19.78Z" fill="url(#a)"/><path d="m28.04 19.78-12.19 7.53 5.47 3.33 6.72-4 10.4 6.38-10.4 6.2L12 29.68v6.66l16.04 9.72L44 36.35V29.7l-15.96-9.9Z" fill="url(#b)"/><path d="m28 10.1-16 9.68v6.86l16-10.07V10.1Zm0 9.71-12.15 7.5 5.47 3.33L28 26.67V19.8Zm0 19.37-16-9.5v6.67l16 9.7v-6.87Z" fill="url(#c)"/><defs><linearGradient id="a" x1="28" y1="26.35" x2="44" y2="26.52" gradientUnits="userSpaceOnUse"><stop stop-color="#02470E"/><stop offset="1" stop-color="#31870D"/></linearGradient><linearGradient id="b" x1="28" y1="26.35" x2="44" y2="26.52" gradientUnits="userSpaceOnUse"><stop stop-color="#02470E"/><stop offset="1" stop-color="#31870D"/></linearGradient><linearGradient id="c" x1="28.49" y1="28.07" x2="12" y2="28.07" gradientUnits="userSpaceOnUse"><stop stop-color="#1C7F2B"/><stop offset="1" stop-color="#53B816"/></linearGradient></defs></svg>