<!-- by TradingView --><svg width="56" height="56" viewBox="0 0 56 56" xmlns="http://www.w3.org/2000/svg"><path fill="#F0F3FA" d="M0 0h56v56H0z"/><circle cx="28" cy="28" r="17" fill="url(#a)"/><circle cx="28" cy="28" r="16.63" fill="url(#b)"/><path d="M28 13.5a14.51 14.51 0 1 1 0 29.01 14.51 14.51 0 0 1 0-29.02Zm0 .86a13.64 13.64 0 1 0 0 27.28 13.64 13.64 0 0 0 0-27.28Z" fill="url(#c)"/><circle cx="28" cy="28" r="14" fill="url(#d)"/><circle cx="19.5" cy="31.5" r="2.5" fill="#1D417B"/><circle cx="36.5" cy="24.5" r="2.5" fill="#1E3F73"/><path d="M24.79 36H17v-1h4.81l5.32-15h3.33l-5.67 16ZM39 21h-4.35l-5.32 15H26l5.67-16H39v1Z" fill="url(#e)"/><defs><linearGradient id="a" x1="36.66" y1="12.99" x2="20.9" y2="43.44" gradientUnits="userSpaceOnUse"><stop stop-color="#CBC9CA"/><stop offset=".27" stop-color="#545353"/><stop offset=".52" stop-color="#FCFCFC"/><stop offset=".69" stop-color="#5B5959"/><stop offset="1" stop-color="#CACACB"/></linearGradient><linearGradient id="b" x1="44.63" y1="28" x2="11.37" y2="28" gradientUnits="userSpaceOnUse"><stop offset=".21" stop-color="#1E3D6D"/><stop offset=".4" stop-color="#3474B3"/><stop offset=".51" stop-color="#68CBE6"/><stop offset=".61" stop-color="#3D82BC"/><stop offset=".82" stop-color="#1F3C6A"/></linearGradient><linearGradient id="c" x1="35.39" y1="15.19" x2="21.94" y2="41.18" gradientUnits="userSpaceOnUse"><stop stop-color="#CBC9CA"/><stop offset=".27" stop-color="#545353"/><stop offset=".52" stop-color="#FCFCFC"/><stop offset=".69" stop-color="#5B5959"/><stop offset="1" stop-color="#CACACB"/></linearGradient><linearGradient id="d" x1="42" y1="28" x2="14" y2="28" gradientUnits="userSpaceOnUse"><stop stop-color="#A8A3A2"/><stop offset=".17" stop-color="#CECECE"/><stop offset=".35" stop-color="#BDBDBE"/><stop offset=".49" stop-color="#FDFDFC"/><stop offset=".66" stop-color="#BBB"/><stop offset=".85" stop-color="#CDCDCE"/><stop offset="1" stop-color="#ABA7A5"/></linearGradient><linearGradient id="e" x1="39" y1="28" x2="17.04" y2="28" gradientUnits="userSpaceOnUse"><stop offset=".21" stop-color="#1E3D6D"/><stop offset=".4" stop-color="#3474B3"/><stop offset=".51" stop-color="#68CBE6"/><stop offset=".61" stop-color="#3D82BC"/><stop offset=".82" stop-color="#1F3C6A"/></linearGradient></defs></svg>