<!-- by TradingView --><svg xmlns="http://www.w3.org/2000/svg" width="56" height="56" viewBox="0 0 56 56"><path fill="#F0F3FA" d="M0 0h56v56H0z"/><path d="M34.34 26.24s.5-.92.63-1.65c0 0 1.74-.61 2.71-.59.98.02 2.45.23 3.5 1.5 0 0-1.16-.5-2.85-.5-1.61 0-3.76 1.13-3.97 1.24h-.02zM6 36c1.9-5.31 6.7-7.99 10.89-7.99 1.54 0 3.52.45 3.77 1.49 0-1.19-1.34-2.02-2.84-2.33-.5-.1-1.03-.2-1.59-.17-1.62 0-3.4.46-4.62 1.12C8.93 29.56 6.55 31.92 6 36zm7.89-.5c.78 0 2.3-.41 3.29-.87l-1.01-.79c-.69.27-1.65.63-2.34.76-.8.15-1.97.03-1.97.03s.74.87 2.03.87zm10.13-6.16s0 .85.55 1.12c0 0-3.92 2.31-5.35 3.13a6.24 6.24 0 0 0-1.09-.75l1.1-.62c1.27-.73 3.14-1.8 4.79-2.88zm-4.58 4.77l-1.5.77c-1.41-1.11-2.39-1.85-4.1-1.85a3.32 3.32 0 0 0-2.95 2.27v-.27c0-1.92 1.55-3.03 3.33-3.03 1.89 0 3.65.8 5.22 2.1zm-.03 2.6l1.39-.88A4.88 4.88 0 0 0 24.8 38c1.13 0 2.69-1 2.69-1a4.18 4.18 0 0 1-3.7 2c-1.61.04-3.54-1.17-4.4-2.28zM37.8 30c1.33-.43 1.77-1 1.77-1l-.47-.06a8.22 8.22 0 0 0-3.03-.02c-1.43.33-1.7 1.76-1.7 1.76.21-.3.83-.8 1.69-.88.86-.07 1.75.2 1.75.2zm7.28-2s-.59 1.3-1.65 1.6c-1.06.3-2.4.04-2.4.04s-.2.63-.71 1.18c0 0 .91.18 1.82.18.5 0 1.05-.15 1.5-.42A2.74 2.74 0 0 0 45.1 28zm-9.95 7.42c-1.42.31-2.75-1.05-2.75-1.05.67 1.16 2.06 2.1 2.9 2.05a6.6 6.6 0 0 0 1.82-.37l.4-.12c1.04-.3 2.1 0 2.1 0-.65-.93-1.63-.93-2.06-.93h-.04c-.4 0-.95.1-2.37.42z" fill="#7E529B"/><path d="M45.1 27.6c-.6-1.77-2.68-2.15-4.27-1.98-1.1.12-2.23.48-3.29.86a31 31 0 0 0-3.3 1.4l-2 .87s.13.3.15.7c0 .23-.02.5-.16.77l2.38-1.15s2.12-1 3.2-1.4c1.07-.41 2.6-.87 3.1-.92h.07c.63-.08 2.86-.34 4.11.85zM18.5 31c1.7 0 2.16-1 2.16-1 0 1.27-1.56 2-2.49 2-.74 0-1.37-.26-1.99-.5-.6-.25-1.19-.5-1.88-.5-1.66 0-2.77.82-3.26 2.44 0 0-.15-.58-.14-1.2 0-1.78 2.06-2.65 3.4-2.65.94 0 1.66.4 2.34.77.62.33 1.2.65 1.87.65zm7.53 1.34l-1.16-.97s-6.28 3.66-8.73 4.77c-.87.39-1.79.56-2.66.56-.96 0-1.86-.33-2.6-1.2.2 1.58 1.77 2.5 3.21 2.5.73 0 1.5-.16 2.05-.35 2.1-.75 6.01-2.9 6.01-2.9l3.88-2.4zm13.86-1.62c1.3-1.05 1.3-3.72 1.3-3.72-.71 1.8-1.23 2.16-1.93 2.65l-.08.06c-.83.57-1.83.68-2.84.79-1.11.11-2.24.23-3.18.97-.65.51-.77 1.26-.77 1.87V34c.08-.7.62-1.24 1.22-1.7.9-.68 2.03-.73 3.15-.78 1.14-.05 2.26-.1 3.13-.8zM49 34s-1.04-2.3-3.94-2.22c0 0-.95-.04-2.55.4-.5.14-1 .3-1.5.46-1.12.36-2.25.72-3.46.82 0 0-2.05.27-3.2-.98 0 0 .55 1.96 3.19 2.08.93.05 1.7-.1 2.36-.23.71-.14 1.3-.32 1.83-.48l1.06-.28.6-.16a8.74 8.74 0 0 1 2.45-.41c1.03.01 2.15.07 3.16 1zm-8.8 3.14c0-.62-.36-1.14-.36-1.14.02.1.02.56-.3 1.05-.4.6-1.15.95-1.9.95-2.1 0-4.86-2-4.86-2 1.78 2.46 3.89 3 4.86 3 .88 0 2.02-.44 2.38-1.18.11-.23.18-.46.18-.68z" fill="#01AAB6"/><path d="M38.25 13.73c0-.93-.23-1.73-.23-1.73-.15 2.52-.71 3.6-1.77 4.24-.9.55-2.24.74-3.47.93-.63.09-1.23.18-1.72.3l-.09.03c-.72.19-2.1.55-3.22 1.87-1.17 1.37-1.5 3.83-1.5 3.83.03-.63-.18-1.1-.26-1.18-.02-.02-.06-.03-.1-.04-.14-.02-.34-.06-.34-.52 0-.61-.27-.9-.27-.9-.29.1-.45.44-.45.44s.6.58.51 1.2c-.1.58.19.85.35 1.02l.02.02c.17.16.12.37.12.37s-.09.13.15 1.6a9.22 9.22 0 0 0 1.46 3.5c.4.54 1.04 1.29 1.04 1.29l-.48-.94c-.7-1.37-1.43-2.75-1.48-4.4a8.08 8.08 0 0 1 .43-2.81s.91-1.77 2.15-2.48c1.24-.71 4.45-1.47 4.45-1.47s3.25-.55 4.15-2.02c.4-.63.55-1.44.55-2.15zm.8 1.27s.13 1.33-.6 2.03c-.74.7-1.1 1.2-1.3 1.52-.13.24-.32.7-.45 1.06-.17.45-.76.88-1.3 1.28-.25.19-.5.37-.68.53-.58.54-.66.69-.78.93l-.07.14-.28.64c-.15.37-.33.8-.51 1.13-.38.71-.84 1.18-1.52 1.6-.65.39-1.62.63-1.98.72l-.14.03-.06.02a.9.9 0 0 0-.5.29c-.17.21-.4.56-.4.56s.7-.25 1.1-.18c1.24.23 1.45 2.04 1.28 3.17-.03.25-.12.49-.2.72-.12.3-.23.59-.23.92 0 .54.31 1.8 1.96 2.89 0 0-1.37-1.66-1.2-2.77.14-.8.2-1 .33-1.4l.18-.58A2.5 2.5 0 0 0 29.63 27c0-.03.03-.1.1-.13l.37-.04c.53-.07 1.5-.18 1.86-.31a3.32 3.32 0 0 0 1.98-1.92c.28-.64.4-.97.48-1.18.07-.22.1-.31.22-.47l.12-.2c.14-.21.29-.46.58-.78.23-.25.55-.47.87-.68.56-.38 1.14-.77 1.32-1.42.1-.4.31-1.14.87-1.8.42-.48.83-1.19.83-2.2 0-.24-.05-.4-.12-.64l-.07-.23zm-20.13 5.9c-2.5-.17-4.93-.6-4.98-3.9l-.06.36c-.03.22-.06.43-.06.62 0 4.05 3.79 4.03 6.9 4.02h.52c1.94 0 3.33 2 3.33 2-.81-2.32-2.3-2.74-2.76-2.86h-.02c-.33-.1-.99-.14-1.93-.2-.29 0-.6-.03-.94-.05zm9.56 12.83c0 1.18-.72 2.27-.72 2.27.33-1.77.18-2.34-.04-2.79a6.42 6.42 0 0 0-1.7-1.9c-.62-.51-1.43-1.56-1.13-2.43.16-.44.58-.71.66-.76h0l-.98.57c-.39.22-.8.31-1.32.31-1.25 0-1.97-.38-2.8-1.75-.28-.47-.85-1.27-1.36-1.43a4.48 4.48 0 0 0-.66-.1 6.93 6.93 0 0 1-2.72-.7A3.78 3.78 0 0 1 13.9 21c.24 1.93 1.28 2.9 2.18 3.36.65.33 1.59.46 2.37.57.3.04.6.08.82.13.92.18 1.5 1.1 1.96 1.86.45.77 1.15 1.09 2.07 1.09.62 0 .98-.12 1.48-.28l.44-.14c.76-.23 1.1.21 1.1.21-.24.02-.76.75-.76.99-.02.68.42 1.46.91 1.85.3.24 1.52 1.27 1.87 2.3.1.27.15.53.15.8z" fill="#C39D4B"/></svg>