<!-- by TradingView --><svg width="56" height="56" viewBox="0 0 56 56" xmlns="http://www.w3.org/2000/svg"><path fill="#F0F3FA" d="M0 0h56v56H0z"/><path d="m37.88 28.89-4.28-4.3 2.67-2.78a.11.11 0 0 0 0-.15l-9.16-9.39c-.18-.18-.14-.27.11-.27h8.01a.4.4 0 0 1 .3.12l9.42 9.45c.07.08.07.15 0 .22l-7.07 7.1Z" fill="#1A76B0"/><path d="M27 40.62c0 .15-.08.37-.23.38H25V23.9l-8 7.23v-9.27c0-.12.04-.2.12-.29l9.73-9.55a.08.08 0 0 1 .08-.01c.02 0 .03.01.04.03.01 0 .03.02.03.04v28.54Z" fill="#1A76B0"/><path d="M25 41h-8v-3.74l-4.15 3.66a.16.16 0 0 1-.05.03c-.02.01-.04.05-.06.05H7.1c-.02 0-.04-.04-.06-.05a.1.1 0 0 1-.04-.1.1.1 0 0 1 .03-.05l9.86-9.67 7.89-7.7c.14-.14.22-.11.22.1V41Z" fill="#B9D0E1"/><path d="m36.03 32.17 8.58 8.67a.1.1 0 0 1 .02.1.1.1 0 0 1-.08.06H38.6l-5.42-5.54c-.08-.08-.08-.16 0-.24l2.85-3.05ZM30.32 28.14l1.32 1.26c.08.08.09.17 0 .25l-3.6 3.74-1.13-1.5a.37.37 0 0 1 .05-.5l3.36-3.25Z" fill="#1A76B0"/><path d="m26.52 23 5.52.01c.12 0 .2.04.29.12l1.2 1.17 4.3 4.37.7.7a.18.18 0 0 1 0 .24l-2.42 2.61-2.82 3.03c-.08.08-.08.16 0 .24L38.66 41l-6.1-.02a.36.36 0 0 1-.27-.13L27 34.96c-.19-.22-.19-.43.01-.65l.96-1.06 3.4-3.8c.07-.1.07-.18-.01-.26l-1.24-1.28-3.57-3.64-1.06-1.11c-.08-.09-.06-.13.05-.13l1-.03Z" fill="#B9D0E1"/></svg>