<!-- by TradingView --><svg width="56" height="56" viewBox="0 0 56 56" xmlns="http://www.w3.org/2000/svg"><path fill="#F0F3FA" d="M0 0h56v56H0z"/><path d="m8.38 25.64-.32 1.72a5.13 5.13 0 0 1 3-.85c1.57 0 1.91.72 1.88 1.08l-.01.34c-.39.34-1.07.77-2.12 1.07C8.9 29.54 7 30.27 7 32.56S8.91 35 9.79 35h2.03v-1.42h-1.9c-.3-.14-.89-.56-.89-1.17 0-.77.76-1.3 2.3-1.88a9.5 9.5 0 0 0 1.5-.7L12.6 35h2.22c.12-2.05.38-6.45.38-7.64 0-1.5-1.17-2.36-3.15-2.36-1.59 0-3.1.43-3.66.64Zm24.8 0-.31 1.72a5.13 5.13 0 0 1 3-.85c1.57 0 1.9.72 1.88 1.08l-.02.34c-.38.34-1.06.77-2.11 1.07-1.91.54-3.81 1.27-3.81 3.56S33.72 35 34.6 35h2.03v-1.42h-1.9c-.3-.14-.89-.56-.89-1.17 0-.77.75-1.3 2.3-1.88a9.5 9.5 0 0 0 1.5-.7L37.4 35h2.21c.13-2.05.39-6.45.39-7.64 0-1.5-1.17-2.36-3.16-2.36-1.58 0-3.1.43-3.65.64Zm-17.82 7.04-.1 2.03c.38.1 1.63.29 3.57.29 2.44 0 4.3-.7 4.3-2.5 0-1.4-1.95-2.85-3.08-3.69-.34-.25-.6-.45-.71-.57-.49-.53-.32-1.54 1.63-1.54 1.55 0 2.36.34 2.56.51v-1.97a27.5 27.5 0 0 0-3.86-.24c-2.4 0-3.52 1.07-3.52 2.37s1.1 2.37 2.35 3.05c1.24.68 1.81 1.36 1.81 1.75 0 .4-.3 1.2-1.81 1.2-1.21 0-2.6-.46-3.14-.69Zm8.17 2.03.1-2.03c.55.23 1.93.68 3.14.68 1.51 0 1.82-.8 1.82-1.19 0-.39-.57-1.07-1.82-1.75-1.24-.68-2.35-1.76-2.35-3.05 0-1.3 1.13-2.37 3.53-2.37 1.92 0 3.37.16 3.86.24v1.97c-.2-.17-1.01-.5-2.57-.5-1.95 0-2.11 1-1.63 1.53.12.12.38.32.72.57 1.12.84 3.08 2.3 3.08 3.69 0 1.8-1.87 2.5-4.3 2.5-1.95 0-3.2-.2-3.58-.29ZM38.44 20.13c-5.3-3.22-11.22 3.22-15.03 3.22a6.14 6.14 0 0 1-5.3-3.08c4.62 2.63 9.03-1.6 13.42-3 3.5-1.11 6.07 1.44 6.91 2.86Z" fill="#1E1916"/><path d="M51 21.2c-5.3-3.23-11.22 3.21-15.03 3.21a6.14 6.14 0 0 1-5.3-3.08c4.62 2.63 9.03-1.6 13.42-3 3.5-1.11 6.07 1.44 6.91 2.86Z" fill="#C6A20E"/></svg>