<!-- by TradingView --><svg width="56" height="56" viewBox="0 0 56 56" xmlns="http://www.w3.org/2000/svg"><path fill="#F0F3FA" d="M0 0h56v56H0z"/><path d="M41.9 35.26c.06.12.1.21.1.29v8.34c0 .03-.02.06-.04.08a.11.11 0 0 1-.08.03h-5.73a.14.14 0 0 1-.1-.04c-.02-.03-.05-.06-.05-.1V42.1c0-.03 0-.05-.02-.07-.02-.02-.04-.02-.07-.02h-7.74c-.11 0-.17-.07-.17-.18v-1.68c0-.1.05-.14.16-.14h7.74c.07 0 .1-.06.1-.13v-9.25c.03-.02.1-.03.14-.03.04 0 .07.02.1.05 1.66 1.35 3.7 3.12 5.36 4.47l.3.15Z" fill="#020B12"/><path d="M41.89 35.26a1.43 1.43 0 0 1-.3-.15c-4.3-3.47-8.42-6.75-12.73-10.26a3.5 3.5 0 0 1-.43-.42l-5.08-4.1-5.08-4.08a.73.73 0 0 1-.27-.56V8.12a.13.13 0 0 1 .07-.1.13.13 0 0 1 .14 0l23.52 19.03c.08.07.15.15.2.25.04.1.07.2.07.3v7.38c0 .11-.05.2-.11.28Z" fill="#7AC6C2"/><path d="M28.43 24.39c-4.87 3.88-9.52 7.63-14.43 11.37v-7.82a.83.83 0 0 1 .32-.66l8.92-7.06 5.2 4.17Z" fill="#4CA7AC"/><path d="M20 31.27V44l-5.9-.01a.1.1 0 0 1-.1-.06.1.1 0 0 1 0-.04V35.7c2-1.5 3.92-2.98 5.74-4.43a.22.22 0 0 1 .26 0Z" fill="#020B12"/><path d="M20.64 35.47c-.12-1.64.25-2.9 1.12-3.8l6.41-6.54a.22.22 0 0 1 .3 0l6.09 5.77c.5.49.82 1.15.93 1.98.34 2.47-2.11 4.17-4.42 3.37-.5-.18-1.1-.6-1.83-1.29-.79-.74-1.88-1.78-3.26-3.12a.28.28 0 0 0-.37-.01 12.84 12.84 0 0 0-2.8 3.3l2.74 2.59a.35.35 0 0 0 .48 0c.14-.14.13-.32-.06-.54-.48-.56-1-1.1-1.55-1.61-.19-.17-.2-.34-.02-.52l.99-1.02c.16-.17.33-.18.5-.02l3.39 3.13a.25.25 0 0 1 0 .35l-2.75 2.86a.8.8 0 0 1-.8.22 3.2 3.2 0 0 1-1.08-.57 15.26 15.26 0 0 1-4-4.53Zm11.95-2.52-3.91-3.67a.4.4 0 0 0-.55.01l-.01.01c-.15.15-.14.4.01.54l3.9 3.67c.17.15.41.15.56 0v-.01a.38.38 0 0 0 0-.55Z" fill="url(#a)"/><path d="M20.02 44 20 42.02l7.73-.02c.18 0 .27.1.27.29v1.44a.29.29 0 0 1-.07.2.25.25 0 0 1-.08.05.23.23 0 0 1-.1.02h-7.73Z" fill="#4CA7AC"/><defs><linearGradient id="a" x1="28.07" y1="25.06" x2="28.07" y2="40.6" gradientUnits="userSpaceOnUse"><stop offset=".27" stop-color="#E3A72D"/><stop offset="1" stop-color="#F7E1B2"/></linearGradient></defs></svg>