<!-- by TradingView --><svg width="56" height="56" viewBox="0 0 56 56" xmlns="http://www.w3.org/2000/svg"><path fill="#F0F3FA" d="M0 0h56v56H0z"/><path d="M38 23a6 6 0 1 0 0-12 6 6 0 0 0 0 12Z" fill="#FFD503"/><path d="M25.47 14.04c-7.13 2.66-12.88 8.11-9.93 16.33 2.23 6.2 8.8 10.5 15.33 7.91 7.26-2.88 6.43-9.79.8-13.89-.34-.25-.3-.39.13-.39h11.65c.1 0 .21.04.3.1a.5.5 0 0 1 .19.25C48.29 36.5 38.55 45.07 28.02 45a18.51 18.51 0 0 1-9.92-2.84c-5.43-3.47-8.44-10.57-6.52-17C13.5 18.8 19 15.05 25.43 13.88c.6-.1.62-.05.04.16Z" fill="#CF242A"/></svg>