<!-- by TradingView --><svg width="56" height="56" viewBox="0 0 56 56" xmlns="http://www.w3.org/2000/svg"><path fill="#F0F3FA" d="M0 0h56v56H0z"/><path d="M25.23 13.04c-.43.1-.77.17-1 .24-5.72 1.55-9.85 6.4-11 11.97a17.2 17.2 0 0 0-.34 3.85c0 .31.05.85.15 1.63a16.07 16.07 0 0 0 1.19 4.37h.03l13.18-6.78a.04.04 0 0 1 .04 0l.02.01v1.97l-.04.03-13.99 7.36a.09.09 0 0 1-.09-.01l-.02-.03A18.48 18.48 0 0 1 11 29.07c-.18-6.87 3.52-13.56 9.96-16.66a16.45 16.45 0 0 1 5.1-1.53c.02 0 .03-.02.04-.04a377.26 377.26 0 0 1 1.4-3.76c.05-.11.07-.1.05.01l-.02.34a1348.63 1348.63 0 0 1 0 11.52 999.03 999.03 0 0 1 .01 6.65l-4.82-5.52a.07.07 0 0 1-.01-.07 29214.56 29214.56 0 0 0 2.55-6.93c0-.04 0-.05-.04-.04Z" fill="#256578"/><path d="M31.3 29.76c.1.11.22.17.36.16l10.1 5.2a.04.04 0 0 0 .05-.02v-.01l.2-.52a16.33 16.33 0 0 0 .7-9.58 15.82 15.82 0 0 0-5.82-9.17 14.85 14.85 0 0 0-6.17-2.76v.02l2.57 6.96v.05c-1.71 1.9-3.3 3.73-4.78 5.47-.05.05-.06.05-.05-.02a.7.7 0 0 0 0-.09V7.84c0-.28 0-.53-.02-.74-.01-.07 0-.07.05-.02a349.33 349.33 0 0 1 1.39 3.69c.04.12.11.16.25.18 1.7.24 3.29.7 4.74 1.4a17.22 17.22 0 0 1 6.82 5.73 18.48 18.48 0 0 1 2.49 16.04 16.78 16.78 0 0 1-1.6 3.58h-.05l-14-7.37a.1.1 0 0 1-.03-.03.09.09 0 0 1-.01-.05v-1.93c0-.01 0-.02.02-.01l2.8 1.45Z" fill="#057AFE"/><path d="m18.53 31.4 3.79-10.29.02-.01h.02l5.17 5.64a.02.02 0 0 1 0 .02.02.02 0 0 1-.01.02l-8.95 4.65h-.03v-.03Z" fill="#256578"/><path d="M31.8 23.14v.02h.04c.15-.11.25-.24.3-.39l1.51-1.64a.04.04 0 0 1 .04-.01.04.04 0 0 1 .03.02l.29.85a2462.43 2462.43 0 0 0 3.46 9.41v.01l-.01.01h-.02l-8.94-4.64h-.01a.03.03 0 0 1 0-.03v-.01l3.3-3.6Z" fill="#057AFE"/><path d="M32.15 22.77a.88.88 0 0 1-.3.39h-.04l-.01-.02.35-.37ZM15.15 40.22l-.9-1.17a.04.04 0 0 1-.01-.04V39l.02-.01 13.18-6.86h.02a.04.04 0 0 1 .03.02l.01.02v1.67l-.02.01-12.27 6.38h-.06Z" fill="#256578"/><path d="m41.74 39.04-.9 1.18-.03.02h-.02L28.5 33.85l-.02-.02v-1.67a.03.03 0 0 1 .02-.03.04.04 0 0 1 .03 0l13.2 6.84V39l.01.02v.03ZM28.51 35.77l11.07 5.75v.01a.01.01 0 0 1 0 .01c-.33.34-.7.67-1.09.98-.12.1-.19.05-.32-.02l-9.64-5.09a.07.07 0 0 1-.04-.06v-1.57l.02-.01Z" fill="#057AFE"/><path d="m17.56 42.6-1.15-1.03-.01-.02a.03.03 0 0 1 .01-.03l11.05-5.74h.01a.03.03 0 0 1 .03 0v1.61l-.02.01-9.88 5.2h-.04Z" fill="#256578"/><path d="m35.06 44.66-6.5-3.3a.12.12 0 0 1-.05-.04.1.1 0 0 1-.02-.06V39.2h.01l8.27 4.52c.03.02.03.03 0 .05-.47.29-.95.55-1.45.81a.72.72 0 0 1-.23.08h-.03Z" fill="#057AFE"/><path d="M27.5 39.24v2.09l-.02.01-6.61 3.35a.03.03 0 0 1-.04 0l-1.62-.91-.02-.01a.03.03 0 0 1 0-.04l.02-.01 8.24-4.51h.02a.03.03 0 0 1 .03.03Z" fill="#256578"/><path d="m28.1 45.97.25-2.84a.04.04 0 0 1 .02-.04h.04l.66.32c.58.29.26.84.02 1.24a12.68 12.68 0 0 1-.95 1.34h-.01a.02.02 0 0 1-.02 0v-.02Z" fill="#057AFE"/><path d="m27.66 43.12.25 2.86V46a.02.02 0 0 1-.02 0c-.06-.04-.12-.1-.18-.18-.25-.32-.5-.7-.79-1.16-.24-.4-.56-.95.02-1.24a71.87 71.87 0 0 1 .7-.32.04.04 0 0 1 .02.03Z" fill="#256578"/></svg>