<!-- by TradingView --><svg width="56" height="56" viewBox="0 0 56 56" fill="none" xmlns="http://www.w3.org/2000/svg">
<rect width="56" height="56" fill="#F0F3FA"/>
<path d="M34.0625 39C40.003 39 42 37.3877 42 37.3877C42 37.3877 35.0773 34.3001 30.6338 32.7726C21.1243 29.5037 10 29.5037 10 29.5037C10 29.5037 24.7535 39 34.0625 39Z" fill="#00685F"/>
<path d="M27.9685 43C32.6482 43 36 40.9405 36 40.9405C36 40.9405 29.7375 39.8408 26.5625 38.9375C19.118 36.8196 9 31 9 31C9 31 17.2327 43 27.9685 43Z" fill="#3EB049"/>
<path d="M37.8716 29.2188C41.7011 31.8221 43 35.5851 43 35.5851C43 35.5851 37.295 34.4147 33.3125 32.3125C24.807 27.8229 11 28 11 28C11 28 17.7313 26 25.776 26C30.1488 26 34.6337 27.0177 37.8716 29.2188Z" fill="#124734"/>
<path fill-rule="evenodd" clip-rule="evenodd" d="M30 25V21.1238C30 17.1875 32.1562 14.5 35.3936 14.5C37.9375 14.5 40 15.5767 40 17.9157C40 21.3093 35.7244 21.7631 35 22C35 25.8393 40.2209 26.5648 41 30H41.5781C41.5781 28.4444 40.5127 27.5017 39.3457 26.3721C38.2318 25.2937 36.6813 24.017 36.6813 22.3739C36.8043 22.2348 36.9997 22.3691 37.341 22.6037C37.9381 23.014 39.119 24 40.9844 24C41.6152 24 43 23.8438 43 23.0993C43 22.2162 39.8373 21.2587 39.9605 20.5671C40.6062 19.6786 41 19.101 41 17.7387C41 14.6289 38.4766 13 35.3936 13C30.761 13 29 16.5227 29 19.8066V25H30ZM41.8906 22.7344C41.0684 22.0777 39.8346 21.7517 39.3457 21.1238C39.3457 21.1238 38.8733 21.4413 38.5312 21.6094C38.1892 21.7774 37.5938 21.9844 37.5938 21.9844C38.7083 22.6544 39.7111 23.4219 41.0625 23.4219C41.5957 23.4219 42 23.2109 42 22.9288C42.0023 22.8581 41.9603 22.79 41.8906 22.7344Z" fill="#124734"/>
<circle cx="37.5" cy="18.5" r="0.5" fill="#124734"/>
</svg>
