<!-- by TradingView --><svg width="56" height="56" viewBox="0 0 56 56" xmlns="http://www.w3.org/2000/svg"><path fill="#F0F3FA" d="M0 0h56v56H0z"/><path d="M28 25.06V20h1v4.84h.01a6.42 6.42 0 0 1 4.47-2.54 5.56 5.56 0 0 1 3.83 1.1 6.54 6.54 0 0 1 2.09 2.42 6.54 6.54 0 0 1 4.96-3.5 6.11 6.11 0 0 1 6.06 3.6 6.36 6.36 0 0 1 .58 2.77V35h-1v-6.3l-.02-.4a4.83 4.83 0 0 0-.36-1.57 5.56 5.56 0 0 0-2.52-2.58 4.14 4.14 0 0 0-2.47-.58 4.99 4.99 0 0 0-4.43 3.72c-.1.3-.15.62-.17.97-.01.1-.03.23-.03.4V35h-1v-6.37c0-.62-.1-1.24-.32-1.81a5.57 5.57 0 0 0-2.76-2.77 4.02 4.02 0 0 0-2.16-.5 5.06 5.06 0 0 0-4.16 2.72c-.37.73-.6 1.57-.6 2.39V35h-1v-2.8c-1.25 2.03-3.89 2.94-5.98 2.73a6.62 6.62 0 0 1-5.2-3.52h-.01c-.32.68-.75 1.3-1.3 1.83a6.1 6.1 0 0 1-8.13.37 6.49 6.49 0 0 1-1.9-2.54 7.8 7.8 0 0 1-.47-2.41 6.39 6.39 0 0 1 5.81-6.61 6.43 6.43 0 0 1 4.67 1.6c.23.21.48.48.7.7v.01L8.03 32.9v.02c.62.46 1.3.77 2.03.92a5.12 5.12 0 0 0 5.33-2.01c.6-.78.59-1.8.67-2.78v-.4A6.53 6.53 0 0 1 22.93 22c2.68.12 4 1.63 5.08 3.07 0 0 0 .01 0 0ZM22.7 34c1.9 0 4.17-1.36 4.88-3.36C29 26.7 26.76 23 22.73 23c-3.03 0-4.34 1.69-5.18 3.34a5.04 5.04 0 0 0-.12 4.3A5.57 5.57 0 0 0 22.69 34ZM6.04 27.97c-.19 2.21.63 3.31 1.33 4.3 2.46-2.5 4.97-5.4 7.42-7.9 0-.01 0 0 0 0-.97-.72-2.64-1.47-3.84-1.37a5.18 5.18 0 0 0-4.91 4.97Z" fill="#13A89E"/></svg>