<!-- by TradingView --><svg width="56" height="56" viewBox="0 0 56 56" xmlns="http://www.w3.org/2000/svg"><path fill="#F0F3FA" d="M0 0h56v56H0z"/><path fill-rule="evenodd" d="M37.5 12c1.25 0 2.16.1 2.73.29a5.61 5.61 0 0 1 3.6 3.83c.11.41.17 1.06.17 1.94v20.86c0 .57-.19 1.25-.57 2.01a5.5 5.5 0 0 1-3.78 2.93c-.62.14-1.25.14-1.9.14h-.35c-1.84 0-3.42-.7-4.57-2.15-.5-.6-.75-1.2-.78-1.77-.04-.8.19-1.47.7-2l2.16-2.18 3.32-3.37c.48-1.31.16-2.25-.98-2.82-.63-.32-1.28-.25-1.97.2-.12.07-.37.32-.75.73l-9.78 9.78-.55.58c-1.44 1.5-2.79 2.9-5.09 2.98h-.24a6.35 6.35 0 0 1-6.78-7.54 5.9 5.9 0 0 1 1.4-3l8.03-8.04 4.78-4.82a2.2 2.2 0 0 0 .03-1.8 1.97 1.97 0 0 0-3.17-.64c-.23.2-.45.42-.66.64l-3.2 3.2c-1.3 1.4-2.68 2.77-4.57 1.6a5.62 5.62 0 0 1-2.63-4v-2.76c.22-1.32.8-2.43 1.72-3.32a5.72 5.72 0 0 1 2.3-1.29c.49-.14 1.3-.2 2.4-.21H37.5ZM21.2 37.68c-.84.97-2.2.97-3.06.03-.43-.47-.58-1.14-.46-2.01a77.37 77.37 0 0 1 4.54-4.67l3.14-3.17 8.09-8.1.54-.55c.55-.6 1.16-1.24 1.75-1.48.82-.34 1.6-.11 2.3.66.35.39.48 1.02.38 1.9a84.55 84.55 0 0 1-4.74 4.87l-2.96 2.98-9.53 9.54Z" fill="url(#a)"/><defs><linearGradient id="a" x1="42.97" y1="13.44" x2="13.33" y2="42.13" gradientUnits="userSpaceOnUse"><stop stop-color="#3F91CE"/><stop offset="1" stop-color="#5D499E"/></linearGradient></defs></svg>