<!-- by TradingView --><svg width="56" height="56" viewBox="0 0 56 56" xmlns="http://www.w3.org/2000/svg"><path fill="#F0F3FA" d="M0 0h56v56H0z"/><path d="M19 26V13.98c0-.02.02-.03.03-.04l.03-.03 2.92-1.61H22V29h-7.69s.02 0 0 0c0 0 .01 0 0 0 0 0 0-.01 0 0s0-.01 0 0c.1.59.33 1.72.61 2.64 1.44 4.67 4.83 8.57 9.6 9.72a8.54 8.54 0 0 0 1.97.27.05.05 0 0 0 .01-.03V11.15c0-.1.05-.15.15-.15 2.6.02 5.27.43 7.71 1.38a15.32 15.32 0 0 1 8.04 6.94 18.2 18.2 0 0 1 2.6 9.62c0 .03-.02.06-.05.06h-7.93l-.02.02v13.09a.1.1 0 0 1-.04.04l-2.92 1.97c-.04.02-.04-.01-.04-.04V26.01l.03-.01h7.43c.03 0 .05-.02.05-.05.03-.2.04-.36.02-.5-.36-2.94-1.62-4.94-3.8-6.98a20.05 20.05 0 0 0-8.27-4.52.06.06 0 0 0-.06.03v30.87c0 .1-.06.15-.16.15-3.63-.06-7.2-.71-10.4-2.48-3.4-1.9-5.74-5.35-6.92-9.07-.57-1.8-.9-3.73-.92-5.63A189.75 189.75 0 0 1 11 26V26h8Z" fill="#F6993C"/></svg>