<!-- by TradingView --><svg xmlns="http://www.w3.org/2000/svg" width="56" height="56" viewBox="0 0 56 56"><path fill="#F0F3FA" d="M0 0h56v56H0z"/><path d="M14 31.1C14.24 18.11 23.42 10.3 28.02 8c-6.04 6.07-2.5 13-.02 15.74-6.68 4.9-8.27 10.5-8.22 13.44.13 6.56 5.67 9.98 8.22 10.57l-.01.25C16.03 44.34 14 35.73 14 31.1z" fill="#FFCF63"/><path d="M21.28 40.69c.12-5.61 4.51-8.99 6.71-9.99-2.89 2.63-1.2 5.63 0 6.81-3.2 2.12-3.97 4.54-3.94 5.81.06 2.84 2.71 4.16 3.93 4.42V48c-5.72-1.58-6.7-5.3-6.7-7.31z" fill="#C1C332"/><path d="M42 31.1C41.76 18.11 32.58 10.31 27.98 8c6.04 6.08 2.5 13 .02 15.74 6.68 4.9 8.27 10.5 8.22 13.44-.13 6.56-5.67 9.98-8.22 10.57l-.02.25C39.94 44.34 42 35.73 42 31.1z" fill="#F68924"/><path d="M34.68 40.69c-.11-5.61-4.5-8.99-6.7-9.98 2.88 2.62 1.2 5.62 0 6.8 3.2 2.12 3.96 4.54 3.94 5.81-.06 2.84-2.72 4.16-3.94 4.42V48c5.73-1.58 6.7-5.3 6.7-7.31z" fill="#179FB9"/><path d="M28 23.74c-2.44-2.7-6.08-9.53 0-15.73 2.54 2.22 6.14 8.79 0 15.73z" fill="#F26724"/><path d="M27.99 37.51c-1.2-1.15-2.93-4.14 0-6.8 1.23.97 2.91 3.73 0 6.8z" fill="#6AAC7E"/></svg>