<!-- by TradingView --><svg width="56" height="56" viewBox="0 0 56 56" xmlns="http://www.w3.org/2000/svg"><path fill="#112E4E" d="M0 0h56v56H0z"/><path d="m34.37 25.86-.62-.61-.61.61c.33-.33.95-.14 1.23 0Zm-.62-.61L30 29l-3.75-3.75.6.6c-.32-.32-.13-.94 0-1.22l2.28-2.27a1.22 1.22 0 0 1 1.73 0l2.9 2.89Z" fill="url(#a5vjiap1x)"/><path d="m26.86 24.62-.61.61.61.62c-.33-.33-.14-.96 0-1.23Zm-.61.61L30 29l-3.75 3.77.6-.61c-.32.33-.94.13-1.22 0l-2.27-2.29a1.23 1.23 0 0 1 0-1.74l2.89-2.9Z" fill="url(#b5vjiap1x)"/><path d="m25.63 32.14.62.61.61-.6c-.33.32-.95.13-1.23 0Zm.62.61L30 29l3.75 3.75-.6-.6c.32.32.13.94 0 1.22l-2.28 2.27c-.48.48-1.26.48-1.73 0l-2.9-2.89Z" fill="url(#c5vjiap1x)"/><path d="m33.14 33.37.61-.62-.6-.61c.32.33.13.95 0 1.23Zm.61-.62L30 29l3.75-3.75-.6.6c.32-.32.94-.13 1.22 0l2.27 2.28c.48.48.48 1.26 0 1.73l-2.89 2.9Z" fill="url(#d5vjiap1x)"/><circle cx="30" cy="29" r="1" fill="#FEFDF8"/><path fill-rule="evenodd" d="M30 32.63a3.63 3.63 0 1 0 0-7.26 3.63 3.63 0 0 0 0 7.26Zm0 .37a4 4 0 1 0 0-8 4 4 0 0 0 0 8Z" fill="#FEFDF8"/><path d="m23.64 27-1.44 1.33h-1.87c-.54 0-.82.15-.82.67 0 .53.28.67.82.67h1.87L23.59 31h-3.51c-1.15 0-2.08-.9-2.08-2s.93-2 2.08-2h3.56ZM5.56 31H4v-4h1.55c.5 0 .95.26 1.14.67l.86 1.82.75-1.78c.18-.43.64-.71 1.16-.71H11v4H9.44v-2.78l-.84 2.04c-.2.39-.63.74-1.12.74h-.73l-1.2-2.78V31Zm5.94 0v-4H13c.44 0 .8.18 1.05.48L16 29.83V27h1.5v4H16c-.44 0-.81-.17-1.06-.47L13 28.24V31h-1.5Z" fill="url(#e5vjiap1x)"/><path fill-rule="evenodd" d="M38 26v4.97h.5v-.83c.25.52.68.86 1.16.86.77 0 1.4-.9 1.4-2s-.63-2-1.4-2c-.48 0-.9.34-1.16.86V26H38Zm1.5 4.5c-.55 0-1-.67-1-1.5s.45-1.5 1-1.5 1 .67 1 1.5-.45 1.5-1 1.5Zm3.74-3.5c-1 0-1.4.64-1.48 1h.6c0-.2.06-.5.88-.5.81 0 .9.61.83.92a2.1 2.1 0 0 1-.67.2c-1.16.1-1.74.63-1.74 1.27S41.91 31 42.74 31c.67 0 1.17-.43 1.33-.65 0 .36.29.65.64.65H45v-.49c-.26.01-.5-.15-.5-.23V28.1c-.06-.36-.26-1.09-1.26-1.09Zm-.17 3.5c.67 0 1-1 .93-1.4-.6 0-1.7.29-1.7.82 0 .57.44.58.77.58ZM45.5 27h.5v.35c.23-.2.55-.35.97-.35.8 0 .95.63 1.02.96l.01.05V31h-.5v-2.8c0-.5-.3-.74-.74-.74-.37 0-.67.28-.76.65V31h-.5v-4Zm3.5 4v-5h.5v3l1.74-1.67h.68l-1.48 1.47 1.16 2.19h-.62L50 29.23l.02-.03-.53.53V31H49Z" fill="#7E683A"/><defs><linearGradient id="a5vjiap1x" x1="27.5" y1="24.64" x2="33.22" y2="24.64" gradientUnits="userSpaceOnUse"><stop stop-color="#9F7F43"/><stop offset=".48" stop-color="#DEBF61"/><stop offset="1" stop-color="#A9955C"/></linearGradient><linearGradient id="b5vjiap1x" x1="25.64" y1="31.52" x2="25.64" y2="25.77" gradientUnits="userSpaceOnUse"><stop stop-color="#9F7F43"/><stop offset=".48" stop-color="#DEBF61"/><stop offset="1" stop-color="#A9955C"/></linearGradient><linearGradient id="c5vjiap1x" x1="32.5" y1="33.36" x2="26.78" y2="33.36" gradientUnits="userSpaceOnUse"><stop stop-color="#9F7F43"/><stop offset=".48" stop-color="#DEBF61"/><stop offset="1" stop-color="#A9955C"/></linearGradient><linearGradient id="d5vjiap1x" x1="34.36" y1="26.5" x2="34.36" y2="32.22" gradientUnits="userSpaceOnUse"><stop stop-color="#9F7F43"/><stop offset=".48" stop-color="#DEBF61"/><stop offset="1" stop-color="#A9955C"/></linearGradient><linearGradient id="e5vjiap1x" x1="14" y1="27" x2="14" y2="31" gradientUnits="userSpaceOnUse"><stop stop-color="#796137"/><stop offset="1" stop-color="#948649"/></linearGradient></defs></svg>