<!-- by TradingView --><svg width="56" height="56" viewBox="0 0 56 56" xmlns="http://www.w3.org/2000/svg"><path fill="#F0F3FA" d="M0 0h56v56H0z"/><path d="M24.5 26.62a.57.57 0 0 0-.28-.3.74.74 0 0 0-.8.07c-.08.05-.16.16-.25.34a59846 59846 0 0 1-3.46 6.5c-.57 1.05-1.25 1.84-2.57 1.77-1.1-.06-1.74-.79-2.2-1.7a.07.07 0 0 1 0-.08l7.42-14.77A2.52 2.52 0 0 1 24.61 17c.84 0 1.56.36 1.95 1.12.13.27.23.53.3.79.21.84 1.52 6.09 3.92 15.26.08.3-.14.66-.43.77-.08.03-.23.06-.45.06h-2.58c-.38 0-.62-.02-.82-.3-.05-.08-.1-.2-.14-.35-.67-2.68-1.2-5.12-1.62-6.84-.11-.48-.2-.77-.24-.89ZM10.87 28.47c-.2.2-.2.39-.26.64l-1.48 6.42a.62.62 0 0 1-.3.39.82.82 0 0 1-.42.08H5.73a.9.9 0 0 1-.4-.07.63.63 0 0 1-.3-.36c-.08-.23.02-.5.1-.85l3.11-12.77c.12-.48.22-.88.46-1.22a1.7 1.7 0 0 1 1.56-.73c.7.03 1.54.38 2.02.97.1.12.23.34.4.67l3.61 7.45v.06l-1.8 3.95v.01a.03.03 0 0 1-.03 0h-.01l-2.6-4.34c-.11-.19-.2-.3-.27-.35-.2-.13-.52-.13-.7.05Z" fill="#E06738"/><path d="M41.2 20c.49 0 .81.03.96.09.53.2.85.73.84 1.32v1.19c0 .58-.32 1.08-.83 1.29-.17.07-.49.11-.95.11h-1.77c-.82 0-1.44.64-1.45 1.5v8.09c0 .33-.13.63-.38.92-.2.24-.45.39-.74.45-.22.05-.57.04-.87.04-.3 0-.63.01-.86-.04a1.37 1.37 0 0 1-.74-.45c-.25-.28-.41-.6-.41-.92V25.5c-.01-.85-.62-1.5-1.44-1.5h-1.77c-.47 0-.79-.03-.96-.1-.51-.2-.84-.71-.83-1.3v-1.18c-.01-.59.31-1.11.84-1.32.14-.06.47-.1.96-.1h10.4ZM47.47 20h-.94A1.5 1.5 0 0 0 45 21.47v12.06c0 .81.71 1.47 1.56 1.47h.93c.85 0 1.51-.67 1.51-1.48V21.46A1.5 1.5 0 0 0 47.47 20Z" fill="#767A7B"/></svg>