<!-- by TradingView --><svg xmlns="http://www.w3.org/2000/svg" width="56" height="56" viewBox="0 0 56 56"><path fill="#F0F3FA" d="M0 0h56v56H0z"/><path d="m5 26.55 4.46 4.17c4.08-3.13 13.92-9.36 20.68-9.21-3.31-1.89-12.98-3.52-25.14 5.04ZM15.27 36C18.9 32.42 27.72 25 34 24l-2.6-1.92c-2.53.15-8.75 1.23-13.43 4.42-4.69 3.19-6.73 4.85-7.16 5.28L15.27 36Z" fill="#1B2F53"/><path d="m51 29.45-4.46-4.17c-4.08 3.13-13.92 9.36-20.68 9.21 3.31 1.89 12.98 3.52 25.14-5.04ZM40.73 20C37.1 23.58 28.28 31 22 32l2.6 1.92c2.53-.15 8.75-1.23 13.43-4.42 4.69-3.19 6.73-4.85 7.16-5.28L40.73 20Z" fill="#DF171D"/></svg>