<!-- by TradingView --><svg width="56" height="56" viewBox="0 0 56 56" xmlns="http://www.w3.org/2000/svg"><path fill="#F0F3FA" d="M0 0h56v56H0z"/><path d="M27 19.5a7.5 7.5 0 1 1-15 0 7.5 7.5 0 0 1 15 0Zm-2.9 0a4.59 4.59 0 1 0-9.18 0 4.59 4.59 0 0 0 9.17 0Z" fill="#EF4136"/><path d="M36.5 18.44a6.73 6.73 0 0 1 7.36-6.41v.62c0 .02 0 .02.02.02h.09c.02 0 .03.01.03.03l-.01 7.25A6.99 6.99 0 0 1 36.5 27h-.63a6.99 6.99 0 0 1-6.86-7.05V12.7c0-.02 0-.03.02-.03h.1l.01-.02v-.62c0-.02.01-.02.02-.02h1.04a6.73 6.73 0 0 1 6.3 6.43Zm0 6.93a6.78 6.78 0 0 1 7.2-6.04v-4.54c0-.1 0-.1-.04 0A6.84 6.84 0 0 1 38 19.53c-.48.06-1 .04-1.5.04s-1.02.02-1.5-.04a6.84 6.84 0 0 1-5.66-4.74c-.03-.1-.05-.1-.05 0v4.54h.01l.72.01a6.79 6.79 0 0 1 6.48 6.03Z" fill="#F7941D"/><path d="M27 29v14.97c0 .02-.03.03-.05.03a3.76 3.76 0 0 1-2.5-.99c-.62-.57-1.27-1.33-1.4-2.16-.04-.2-.05-.5-.05-.9V33c0-.01 0 0 0 0-.01 0 0 0 0 0h-6.95a3.73 3.73 0 0 1-3.07-1.22 4.45 4.45 0 0 1-.98-2.75c0-.02 0-.03.03-.03H27Z" fill="#1B75BC"/><path d="M44 36.5a7.5 7.5 0 0 1-7.5 7.48v-7.1a7.48 7.48 0 0 1-7.5 7.1V29.01h.01V29a7.48 7.48 0 0 1 7.5 7.13v-.01a2544.05 2544.05 0 0 1 .01-7.12A7.5 7.5 0 0 1 44 36.5Z" fill="#A97C50"/><path d="M16.5 44a4.5 4.5 0 1 0 0-9 4.5 4.5 0 0 0 0 9Z" fill="#1B75BC"/></svg>