<!-- by TradingView --><svg width="56" height="56" viewBox="0 0 56 56" xmlns="http://www.w3.org/2000/svg"><path fill="#F0F3FA" d="M0 0h56v56H0z"/><path d="M43.98 43.98a.06.06 0 0 0 .02-.04V12.06a.06.06 0 0 0-.06-.06H12.06a.06.06 0 0 0-.06.06v31.88a.06.06 0 0 0 .06.06h31.88c.02 0 .03 0 .04-.02ZM14 14h28v28H14V14Zm22 25.94V19.06c0-.02 0-.03.02-.04a.06.06 0 0 1 .04-.02h1.9s.02 0 .03.02l.01.03v8.89l.02.04.04.02h1.88a.06.06 0 0 0 .06-.06V16.06c0-.02 0-.03-.02-.04a.06.06 0 0 0-.04-.02H20.06c-.02 0-.03 0-.04.02a.06.06 0 0 0-.02.04v20.89a.06.06 0 0 1-.01.04.06.06 0 0 1-.04.01h-1.9a.06.06 0 0 1-.04-.01.06.06 0 0 1-.01-.04v-8.89l-.02-.04a.06.06 0 0 0-.04-.02h-1.88l-.04.02a.06.06 0 0 0-.02.04v11.88a.06.06 0 0 0 .02.04.06.06 0 0 0 .04.02h19.89a.06.06 0 0 0 .05-.06ZM28.95 39H18.06l-.05-.01-.01-.05v-.88l.01-.04a.07.07 0 0 1 .05-.02h8.87c.02 0 .04 0 .05-.02a.06.06 0 0 0 .02-.04V17.06c0-.02 0-.03.02-.04a.07.07 0 0 1 .05-.02h10.87c.02 0 .04 0 .05.02l.01.03v.89l-.01.05a.07.07 0 0 1-.05.01h-8.86l-.05.02v.01l-.03.04v20.92l-.05.01Z" fill="url(#a)"/><defs><linearGradient id="a" x1="14.77" y1="14.79" x2="42.96" y2="44" gradientUnits="userSpaceOnUse"><stop stop-color="#007F40"/><stop offset="1" stop-color="#3C9C6A"/></linearGradient></defs></svg>