<!-- by TradingView --><svg width="56" height="56" viewBox="0 0 56 56" xmlns="http://www.w3.org/2000/svg"><path fill="#F0F3FA" d="M0 0h56v56H0z"/><path d="M24 20c.99 0 1.84.47 2.57 1.43.1.13.13.26.1.4l-.05.07a.15.15 0 0 1-.17.04.16.16 0 0 1-.07-.06c-.64-.97-1.43-1.44-2.38-1.44-.94 0-1.73.5-2.36 1.47a.15.15 0 0 1-.24.03.16.16 0 0 1-.04-.08.46.46 0 0 1 .08-.4c.72-.97 1.57-1.45 2.56-1.46Z" fill="#0B4588"/><path d="M23.98 21.06c.52-.01 1.77.37 1.77 1.05 0 .36-.12.4-.35.12-.43-.52-.9-.78-1.4-.77-.52.01-.98.29-1.39.83-.22.29-.34.25-.35-.1-.03-.69 1.2-1.12 1.72-1.13Z" fill="#0B4588"/><path d="M24 22.07c.4 0 .72.18.95.54.33.53.24.66-.26.4a4.1 4.1 0 0 1-.3-.37c-.08-.11-.21-.17-.4-.17-.17 0-.3.06-.39.18l-.28.37c-.5.27-.6.14-.27-.4.23-.36.54-.54.94-.55ZM5.7 26.63l.26-.2c.66-.6 1.88-.44 2.51-.02 1.62 1.07 1.56 4.4-.25 5.34-.9.47-1.8.28-2.69-.55-.08-.07-.12-.05-.12.06v.42a.18.18 0 0 1-.18.18H4.2c-.13 0-.2-.07-.2-.2v-7.5c0-.1.05-.16.16-.16h1.2a.17.17 0 0 1 .16.16v2.37c0 .13.06.17.18.1Zm1.12 4.18c.35 0 .68-.2.92-.55a2.48 2.48 0 0 0 .24-2 2 2 0 0 0-.3-.59c-.12-.17-.26-.3-.42-.39a.99.99 0 0 0-.5-.13c-.35.01-.68.2-.92.56a2.48 2.48 0 0 0-.24 2 2 2 0 0 0 .3.58c.12.17.26.3.42.39.16.09.33.13.5.13ZM18.4 24h-1.27a.13.13 0 0 0-.13.13v7.74c0 .07.06.13.13.13h1.27c.07 0 .13-.06.13-.13v-7.74a.13.13 0 0 0-.13-.13ZM21.4 24h-1.24a.16.16 0 0 0-.16.16v1.13c0 .1.08.16.16.16h1.24c.08 0 .15-.07.15-.16v-1.13a.16.16 0 0 0-.16-.16Z" fill="#0B4588"/><path d="M22.8 27.23h-.29a.17.17 0 0 1-.12-.05.18.18 0 0 1-.05-.13v-.87c0-.14.06-.2.19-.2h.3c.06 0 .1-.02.14-.06.03-.03.03-.08.03-.13v-.7c0-.17.09-.29.22-.37l1.15-.68c.13-.08.2-.04.2.12v1.65c0 .12.05.18.16.18h.67c.06 0 .12.02.16.06.05.05.07.1.07.17v.8c0 .1-.04.16-.13.19-.16.05-.4.06-.72.02a.18.18 0 0 0-.15.05.2.2 0 0 0-.06.14v2.98c0 .16.08.25.25.25h.6c.18 0 .26.07.26.22v.82c0 .13-.06.2-.18.22-1.22.19-2.52.24-2.5-1.5v-3c-.02-.12-.08-.18-.2-.18Z" fill="#EB8B41"/><path d="M13.97 31.4c-3.15 2.15-5.17-2.1-1.88-2.8.51-.1 1.1-.23 1.74-.4.1-.01.14-.07.15-.17.03-.36-.08-.6-.34-.72-.69-.3-1.25-.15-1.68.46a.23.23 0 0 1-.24.1l-.97-.18a.16.16 0 0 1-.1-.08.16.16 0 0 1-.02-.13c.28-.8.84-1.28 1.7-1.4 1.55-.24 3.31-.01 3.18 2.09-.1 1.5-.03 2.7.21 3.59.03.08 0 .12-.09.12h-1.14a.27.27 0 0 1-.23-.13.65.65 0 0 1-.1-.27c-.02-.13-.08-.16-.19-.08Zm-.3-2.17-1.31.34a.56.56 0 0 0-.43.5c0 .07 0 .15.03.22.2.64.7.8 1.52.46a.72.72 0 0 0 .49-.72v-.57c0-.2-.1-.29-.3-.23Z" fill="#0B4588"/><path d="M32.49 29a3 3 0 0 1-3.01 3 3.02 3.02 0 0 1-3.01-3 3 3 0 0 1 4.16-2.77A3 3 0 0 1 32.49 29Zm-3 1.74c.38 0 .74-.19 1-.52.27-.33.42-.77.42-1.24 0-.46-.16-.9-.42-1.23a1.3 1.3 0 0 0-1.01-.5c-.38 0-.74.18-1 .51-.27.33-.42.78-.42 1.24 0 .46.16.9.42 1.23.27.33.64.51 1.01.51ZM43.58 29.43a.18.18 0 0 0-.18.2c.1 1.17 1.48 1.7 2.17.55a.24.24 0 0 1 .23-.1l1.1.13c.13.01.17.08.13.2-.5 1.48-2.19 1.86-3.49 1.41-2.93-1.01-2.07-6.59 1.62-5.73 1.6.37 2.07 1.76 2.04 3.22a.12.12 0 0 1-.12.12h-3.5Zm.03-.96 1.84.05a.17.17 0 0 0 .18-.17v-.08a1.06 1.06 0 0 0-.64-1 1.08 1.08 0 0 0-.41-.09h-.04a1.08 1.08 0 0 0-1.1 1.04v.07a.17.17 0 0 0 .17.18ZM49.56 26.56c0 .02 0 .05.02.07l.07.04.07-.01c.03 0 .05-.03.06-.05.34-.57 1-.74 1.94-.52.25.06.33.2.25.43l-.28.82c-.03.1-.11.16-.24.17-.28 0-.62-.12-.9-.06-.46.09-.85.4-.9.94a21.7 21.7 0 0 0-.08 3.4c.01.14-.06.21-.21.21h-1.18a.19.19 0 0 1-.13-.05.16.16 0 0 1-.05-.12V26.2c0-.03.01-.06.04-.08a.13.13 0 0 1 .08-.03h1.19c.17 0 .25.07.25.23v.24ZM37.16 26c.25 0 .46.03.63.1.1.02.15.09.17.18l.8 3.19c.06.22.12.22.19 0l.97-3.16a.4.4 0 0 1 .14-.2.38.38 0 0 1 .22-.08h.87c.2 0 .28.1.22.3l-1.7 5.52a.2.2 0 0 1-.07.1.19.19 0 0 1-.12.05H38.3c-.1 0-.16-.05-.18-.15-.15-.49-.44-1.62-.9-3.4 0-.04-.03-.07-.06-.07s-.05.03-.06.07c-.45 1.78-.75 2.91-.89 3.4-.02.1-.09.15-.18.15h-1.18a.19.19 0 0 1-.12-.04.2.2 0 0 1-.07-.1l-1.7-5.52c-.06-.2 0-.3.21-.3h.87c.08 0 .16.02.23.07a.4.4 0 0 1 .14.2l.97 3.17c.07.21.13.21.18-.01l.8-3.19c.02-.1.08-.16.17-.19.17-.06.38-.09.63-.09Z" fill="#EB8B41"/><path d="M21.41 26h-1.29a.12.12 0 0 0-.12.13v5.74c0 .07.05.13.12.13h1.29c.07 0 .12-.06.12-.13v-5.74a.12.12 0 0 0-.12-.13Z" fill="#0B4588"/></svg>