<!-- by TradingView --><svg width="56" height="56" viewBox="0 0 56 56" xmlns="http://www.w3.org/2000/svg"><path fill="#F0F3FA" d="M0 0h56v56H0z"/><path d="M36.57 18.06a3.07 3.07 0 0 1-1.32 1.61c-.1.07-.18.05-.26-.04l-.33-.4a.88.88 0 0 0-.44-.67.5.5 0 0 1-.2-.27 4.96 4.96 0 0 1-.26-1.63c0-.11.06-.17.17-.16l.1.01c.1.03.16.08.2.17l.22.56c.27.23.47.16.61-.21a.12.12 0 0 1 .11-.07.12.12 0 0 1 .1.07c.09.22.1.46.05.71a.2.2 0 0 0 .04.17.2.2 0 0 0 .15.07h.55c.1 0 .16-.05.18-.14l.05-.35a.28.28 0 0 0-.16-.3c-.33-.14-.44-.47-.35-.98.03-.14.11-.21.26-.21h.66a.33.33 0 0 1 .3.17.34.34 0 0 1-.02.35 2.49 2.49 0 0 0-.41 1.54ZM14.82 21.22c-.11-.14-.19-.18-.3-.28a.27.27 0 0 1-.1-.21v-1.27a.25.25 0 0 1 .16-.23.24.24 0 0 1 .26.06c.54.57.73 1.26.59 2.06-.03.13-.1.17-.22.13a.92.92 0 0 1-.39-.26Z" fill="#FCB330"/><path d="M37.04 19.37c1.56.31 2.56.53 2.99.65.33.1.7.32 1.13.67.25.2.36.4.32.62-.03.2-.23.38-.6.57a8.2 8.2 0 0 1-3.48 1.06c.76-.41 1.22-.7 1.38-.9 1.28-1.44-.7-1.94-1.78-2.2a.2.2 0 0 1-.13-.1.2.2 0 0 1 0-.16.48.48 0 0 1 .17-.21ZM27.72 19.5l-1.87.9a.32.32 0 0 0-.17.24.33.33 0 0 0 .09.29l.4.4c.09.09.1.18.04.28-.13.22-.29.4-.49.57a.34.34 0 0 0-.08.42l.1.12c.67.44 1.3.6 1.7 1.35.04.08.1.13.17.15.08.03.16.01.24-.04.02.09.05.12.09.12-.18-.05-.28-.02-.29.07-.05.5-.24.92-.57 1.3-.24-.07-.48-.2-.73-.42l-.1-.15c.09-.16.13-.38.12-.64 0-.1-.04-.19-.1-.25a.35.35 0 0 0-.25-.1h-7.37c-.05 0-.06-.02-.04-.07l.07-.18c.04-.08.1-.12.18-.12h4.75c.05 0 .07-.02.08-.07l.03-.17c.01-.08-.02-.13-.1-.14l-.95-.16c-.14-.02-.22-.1-.23-.25-.02-.22.18-.37.62-.45.12-.02.2-.1.21-.21.03-.18 0-.29-.12-.33-.54-.24-.84-.53-.9-.87a.62.62 0 0 1 .09-.42.6.6 0 0 1 .32-.26 17.6 17.6 0 0 1 5.06-.9Z" fill="#2391D0"/><path d="M36.75 22.86c-.18-.05-.31-.06-.41-.03-1.15.36-2.2.76-3.3.7-.14-.01-.2-.08-.18-.21l.22-1.36a.4.4 0 0 0-.36-.47c-.29-.02-.5.12-.63.43-.4.1-.67.32-.82.64-.17.35-.29.33-.37-.06a4.1 4.1 0 0 0-.71-1.63c-.18-.25-.37-.25-.57-.02-.5.6-.8 1.34-.85 2.22a.38.38 0 0 1-.18.3.37.37 0 0 1-.36.02 1.49 1.49 0 0 1-.49-.44c-.08-.1-.19-.13-.31-.07-.45.2-.89.1-1.33-.3-.1-.1-.1-.2 0-.28.3-.24.49-.43.57-.58a.2.2 0 0 0-.04-.24l-.37-.38a.45.45 0 0 1 .18-.75c1.16-.36 2.3-.54 3.66-.55a73.66 73.66 0 0 0 4.23-.08.3.3 0 0 1 .1.07l.57.57c.07.07.13.06.2-.01.14-.2.28-.33.43-.4.08-.05.2-.06.35-.03.24.05.9.23 1.97.54.3.09.52.2.68.35a.53.53 0 0 1 .15.43.54.54 0 0 1-.22.4c-.42.3-.93.58-1.53.86-.15.07-.23.21-.28.36Z" fill="#2B9A44"/><path d="M15.98 21.73c0 1 .23 1.8.5 1.8.28 0 .5-.81.5-1.8s-.22-1.8-.5-1.8-.5.81-.5 1.8Z" fill="#FCB330"/><path d="m42.63 20.34 1.86.8a.51.51 0 0 1 .3.44.52.52 0 0 1-.24.47 7.17 7.17 0 0 1-3.73 1.08c-.3 0-.32-.04-.03-.14 1.04-.38 2.58-1.05 1.66-2.44-.18-.27-.12-.35.18-.21Z" fill="#2391D0"/><path d="m17.23 23.7.62-2.27a.56.56 0 0 1 .37-.39l.14-.04c.23-.08.33 0 .31.25-.03.36-.2.91-.48 1.66-.15.4-.53.55-.77.88-.22.31-.29.29-.19-.08ZM14.73 22.98c.47.71.98 1.21 1.12 1.12.14-.1-.13-.76-.6-1.48-.48-.71-.99-1.21-1.13-1.12-.14.1.13.76.6 1.48ZM30.82 25.4c-.28.1-.53.26-.75.5a.46.46 0 0 1-.3.14c-1.24.15-1.4-.92-1.83-1.74-.04 0-.07-.03-.09-.12.21-.3.52-.38.91-.24a.32.32 0 0 0 .37-.1.33.33 0 0 0 .06-.12l.45-1.69a.22.22 0 0 1 .17-.15.21.21 0 0 1 .2.08 3.94 3.94 0 0 1 .81 3.44ZM14.25 23.71c.12.1.18.19.17.26a.1.1 0 0 1-.05.07.1.1 0 0 1-.09 0 3.87 3.87 0 0 1-1.5-1.41c-.12-.18-.08-.27.14-.27h.15c.24 0 .44.09.6.27.16.19.3.45.39.8.03.11.1.2.19.28ZM32.28 22.5l.03.34c.06.72-.15 1.33-.61 1.82-.41.08-.55-.22-.4-.9.09-.37.39-.85.9-1.42l.08.16ZM35.17 25.29l.43.19a.13.13 0 0 1 .08.11.13.13 0 0 1-.08.12c-.59.24-.95.5-1.1.8a.27.27 0 0 1-.2.15c-.12.01-.2-.01-.27-.08-.04-.05-.06-.11-.06-.2.02-.55.02-1.2.01-1.96 0-.13.06-.21.19-.24.26-.07.51-.09.77-.06.14.02.19.09.14.22-.09.23-.12.45-.12.65 0 .14.08.24.2.3Z" fill="#FCB330"/><path d="M39.99 24.13c-.1.1-.18.22-.22.37l-.61-.07c-.2-.03-.36-.1-.51-.22l1.34-.08Z" fill="#2391D0"/><path d="M35.38 27.9c-.04-.38 0-.62.1-.71.5-.78 1.03-1.54 1.59-2.28.1-.14.15-.24.13-.3a.35.35 0 0 0-.05-.14c-.1-.14-.07-.22.1-.22l1.4-.04c.15.12.32.2.5.22h-.14a.3.3 0 0 0-.29.29.3.3 0 0 0 .25.31l1.24.2a.23.23 0 0 1 .19.2.23.23 0 0 1-.12.24 1.7 1.7 0 0 1-1.06.15c-.04 0-.08 0-.11.02a.15.15 0 0 0-.06.1c-.07.4-.26.72-.56.97a.1.1 0 0 0-.04.1.1.1 0 0 0 .08.07 7.8 7.8 0 0 0 3.3-.01c.43-.11.6-.36.53-.75a.4.4 0 0 1 .08-.31c.15-.2.27-.3.34-.32.6-.18.61-.41.04-.69-.93-.45-2.04-.3-3.05-.5a.76.76 0 0 1 .22-.37c.65.01 1.38-.08 1.97.09.57.16 1.07.27 1.5.33.75.1 1.6.56 2.1.82.15.08.26.2.33.35a.7.7 0 0 1 .01.48c-.08.26-.3.45-.64.57-2.45.86-5.1 1.22-7.95 1.06-.12-.01-.16-.07-.13-.19.06-.24.06-.43-.01-.55-.07-.12-.22-.14-.45-.05-.44.15-.89.44-1.34.86Z" fill="#2391D0"/><path d="m8.3 27.02 3.26-1.15a45.5 45.5 0 0 1 9.81-1.29c.99-.01 1.98.1 2.98.35a.41.41 0 0 1 .3.32.43.43 0 0 1-.14.42c-.24.2-.42.32-.54.37-.65.33-.64.62.05.87l1.32.5a.23.23 0 0 1 .15.18.24.24 0 0 1-.08.23c-.85.68-2.07.76-3.7 1.08-.7.13-1.4.22-2.1.26l-2.2.14a35.7 35.7 0 0 1-8-.37 2.04 2.04 0 0 1-1.08-.62c-.42-.42-.3-.85-.03-1.3Z" fill="#2B9A44"/><path d="M32.07 26.45a1.65 1.65 0 0 1-.31-1.1c.37-.05.74-.18 1.1-.4.15-.08.22-.04.22.14v.69c0 .13-.06.2-.2.18-.4-.03-.68.13-.8.49ZM26.25 25.1l.1.15c.04.28.17.52.38.71.09.08.15.18.17.3.12.5.29.94.52 1.32-.16.36-.47.3-.94-.16-.32-.32-.62-1.06-.89-2.23-.03-.13.02-.19.15-.17l.51.08Z" fill="#FCB330"/><path d="m42.98 28.2.01-.06c1.16-.23 2.26-.64 3.3-1.2.65-.37.88-.93.68-1.7a.19.19 0 0 1 .16-.24l.1.01 1.42.68a.63.63 0 0 1 .31.79c-.5 1.41-4.7 1.77-5.98 1.72Z" fill="#2391D0"/><path d="M30.94 25.98c.24.3.35.67.33 1.11a.35.35 0 0 0 .22.34l.14.02c.24-.02.42-.18.54-.48l.5-.05c.33-.04.44.1.3.42a6.3 6.3 0 0 1-1.74 2.42.33.33 0 0 1-.44-.01.34.34 0 0 1-.09-.14c-.14-.42-.3-.98-.46-1.66-.19-.76.21-1.42.7-1.97ZM27.89 26.32l.79.77.12.08c.6.25.7.98.8 1.5.11.64-.04.71-.45.22l-1.22-1.48c-.15-.44-.17-.8-.04-1.1Z" fill="#FCB330"/><path d="M7.55 26.97a.7.7 0 0 1-.02.08c-.32.22-.54.53-.65.93a.4.4 0 0 0 .05.33c.74 1.17 3.7 1.47 5.06 1.57.93.07 3.57.07 7.92 0 1-.01 2-.25 3-.33a12.1 12.1 0 0 0 2.95-.73c.89-.32 1.1-.06.63.76-.4.7-1.13 1.11-2.19 1.21-1.06.1-2.1.24-3.1.46-.99.22-1.64.8-1.95 1.76a.27.27 0 0 1-.36.16l-1.4-.6a.36.36 0 0 1-.21-.27.37.37 0 0 1 .1-.33l.61-.61c.26-.27.2-.38-.16-.32-.55.09-1.33.44-1.38 1.1-.07.9.83 1.44 1.55 1.68.16.05.16.09-.02.1-1.13.08-2.65-.5-2.41-1.93l.1-.68a.17.17 0 0 0-.1-.17.17.17 0 0 0-.2.03l-1.2 1.22a.53.53 0 0 0-.1.59c.02.06.06.12.11.17.71.68 1.55 1.12 2.53 1.32 4.66.94 7.46 1.49 8.41 1.64 3.03.48 6.26.37 9.25.34 1.64-.02 2.98-.13 4.01-.31 1.71-.31 3.62-.7 5.27-1.42.96-.42.9-1.33.05-1.85a6.04 6.04 0 0 0-1.2-.6c-.19-.05-.22-.16-.12-.31l.56-.84a.32.32 0 0 0-.01-.38c-.94-1.16-3.3-1.58-4.42-1.6-.83-.01-.9.2-.2.64l.62.09h-.66a.65.65 0 0 0-.35.02c-.4-.08-.8-.26-1.17-.52-.1-.07-.11-.15-.02-.24.64-.61 1.73-.38 2.87-.3 1.4.1 3.23.4 5.52.9.93.22 1.75.57 2.43 1.06.47.34.47.68 0 1.02l-1.19.88c-.6.45-.52.66.22.63.64-.02 1.23.17 1.75.56.44.33.49.71.13 1.14-1.4 1.68-3.07 2.2-5.63 3.24a23.8 23.8 0 0 1-7.75 1.73c-1.02.05-2.11-.06-3.26-.35-1.55-.38-2.6-.7-3.17-.97-1.47-.7-3.27-1.61-5.05-2.08a37.2 37.2 0 0 1-1.58-.45 19.3 19.3 0 0 0-1.6-.45c-1.68-.35-3.52-.77-5.49-1.26a2.83 2.83 0 0 1-1.51-.93.9.9 0 0 1-.02-1.12c.43-.54.8-.92 1.15-1.15.6-.4.53-.62-.18-.65a39.58 39.58 0 0 1-6-.77c-.37-.07-.8-.24-1.33-.52-1.37-.75-.5-1.9.51-2.32Z" fill="#2391D0"/><path d="M35.35 27.09c-.06.23-.1.3-.11.2-.59.43-1.08.95-1.47 1.57-.11.19-.26.34-.42.43-.15.09-.3.1-.42.05a.2.2 0 0 1-.06-.04c-.04-.04-.04-.1-.01-.18.32-.86.71-1.46 1.17-1.8.45-.35.9-.42 1.32-.23Z" fill="#FCB330"/><path d="M5.83 29.4c.14.25.48.51 1 .79.37.2.35.27-.07.23-.86-.09-2.35-.4-2.7-1.14-.14-.32-.03-.64.33-.94a16 16 0 0 1 1.55-1.1c.17-.1.22-.06.15.12-.23.67-.71 1.27-.26 2.04Z" fill="#2391D0"/><path d="m43 28.14-.02.06c-.07-.02-.13-.02-.22-.02.08 0 .16-.02.23-.04Z" fill="#636269"/><path d="M30.54 30.59c.25.11.81.14 1.69.09a.19.19 0 0 1 .2.15l-.01.09-.03.11a.27.27 0 0 1-.3.2 21.7 21.7 0 0 0-1.54-.23c-.51-.05-.89-.19-1.13-.42a18.05 18.05 0 0 1-1.5-1.56c-.02-.03-.02-.06 0-.1l.06-.07c.04-.05.08-.05.13 0a7.79 7.79 0 0 0 2.43 1.74Z" fill="#FCB330"/><path d="M24.33 30.97c1.35.31 2.31.47 2.88.47 1.74.02 2.66-.12 4 .23.47.12 1 .16 1.58.13 1.77-.12 3.35-.55 4.74-1.3.62-.33 1.26-.28 1.9-.1.12.03.2-.01.25-.13a.83.83 0 0 0 .05-.25c.16.4.42.6.78.58a.6.6 0 0 1 .53.26.62.62 0 0 1 .06.59l-.43 1.01a.17.17 0 0 0 .06.2l.06.03 2.46.4a.43.43 0 0 1 .33.27.44.44 0 0 1-.05.43c-.36.48-.8.8-1.35.95a31.36 31.36 0 0 1-7.32 1.22c-2.38.06-5.08 0-8.09-.19a18.9 18.9 0 0 1-6.17-1.45c-.83-.35-1.15-.85-.96-1.5a.6.6 0 0 1 .21-.32 4 4 0 0 1 1.6-.88c.97-.15 1.93-.37 2.88-.65Z" fill="#2B9A44"/><path d="M41.62 31.31c-.1-.37-.18-.58-.24-.64-.34-.34-.27-.4.2-.19.41.18.65.38.72.59.06.15-.03.38-.28.68l-.57.63a.2.2 0 0 1-.18.06.15.15 0 0 1-.1-.06.13.13 0 0 1-.02-.07l.02-.07.4-.6c.06-.1.08-.21.05-.33ZM19.97 36.62c-.1-.07-.36-.15-.75-.26-.17-.04-.17-.09 0-.14.14-.04.32-.05.54-.01 1.1.18 2.32.57 3.64 1.16a83.22 83.22 0 0 0 5.47 2.26c.11.03.11.05-.01.05-1.17-.03-2.37-.2-3.58-.52-1.42-.36-2.38-.62-3.26-1.5a2.23 2.23 0 0 0-1.1-.56c-.36-.08-.6-.27-.95-.48Z" fill="#2391D0"/></svg>