<!-- by TradingView --><svg width="56" height="56" viewBox="0 0 56 56" xmlns="http://www.w3.org/2000/svg"><path fill="#F0F3FA" d="M0 0h56v56H0z"/><path d="M27.99 7.97c-.07-.26-.13-.26-.19 0-.05.25-.1.47-.18.68-.24.55-.53 1.1-.86 1.65-.07.1-.18.32-.34.66-.22.45-.29.81-.18 1.28.04.18.07.3.07.36 0 .04-.02.05-.05.01-.03-.02-.16-.23-.4-.63-.26-.42-.4-.8-.42-1.16 0-.23.05-.49.19-.78.33-.71.57-1.2.72-1.46.41-.7.67-1.2.77-1.48.21-.59.51-1.24.71-1.94.06-.22.12-.21.16.01.06.32.16.7.33 1.14a59 59 0 0 0 1.24 2.86c.14.32.27.76.4 1.33.24 1.08-.02 1.9-.88 2.58-.08.07-.1.06-.05-.04.48-.9.5-1.76.04-2.56a10.59 10.59 0 0 1-1.08-2.5Z" fill="#E50012"/><path d="M27.78 11.04c.1.43.3 1 .62 1.7.27.59-.65.94-1.05.64-.3-.24-.39-.52-.26-.87a10.8 10.8 0 0 1 .7-1.47Z" fill="#E50012"/><path d="M34.79 19.61V20.3c0 .05 0 .1-.02.14.24 1.41.44 2.39.58 2.92.32 1.23.57 2.34.75 3.32.18 1.03.35 1.82.5 2.37.18.71.38 1.59.6 2.63 0 .05.04.1.08.12l1.66 1.18c.04.03.06.06.06.11v1.78c0 .09-.04.13-.13.13H17.08c-.02 0-.04 0-.06-.02a.08.08 0 0 1-.02-.06v-1.77c0-.02 0-.05.02-.07a.15.15 0 0 1 .04-.05l1.84-1.28a.14.14 0 0 0 .07-.1 73.34 73.34 0 0 0 .65-3.55c.1-.48.18-.94.24-1.37.07-.5.19-1.08.35-1.75.18-.76.26-1.59.47-2.35.14-.51.26-1.13.37-1.86.07-.43.03-.83.05-1.26a.16.16 0 0 0-.05-.13l-3-2.94a.14.14 0 0 1-.05-.1v-.9c0-.06.03-.08.08-.08h.85c.02 0 .04 0 .05-.02a.07.07 0 0 0 .02-.05v-1.23l.02-.04a.06.06 0 0 1 .05-.02h4.86c.02 0 .03 0 .04.02.02 0 .03.02.03.04v1.87c0 .05.02.07.07.07h.86l.05-.01a.07.07 0 0 0 .02-.05V14.1c0-.05.03-.1.07-.1h5.85c.05 0 .08.05.08.1v1.8c0 .03 0 .05.02.07a.1.1 0 0 0 .07.03h.83c.06 0 .08-.03.08-.1v-1.8c0-.05.04-.1.1-.1h4.84c.04 0 .06.05.06.09v1.18a.08.08 0 0 0 .03.06.1.1 0 0 0 .06.03h.82a.1.1 0 0 1 .06.02c.02.02.03.04.03.07v.88a.22.22 0 0 1-.08.17c-1.05.9-2.24 1.85-3.11 2.93a.14.14 0 0 0-.03.1v.08Z" fill="#039DD9"/><path d="M43 40H13l.03-6.85c0-.02 0-.04.02-.05.02-.02.04-.1.06-.1H16v2.5c-.02-.02 0 .02 0 0-.02 0 .02.02 0 0h24c0 .04.04 0 0 0v-2.4c0-.07.05-.1.11-.1h2.81c.02 0 .04 0 .06.02l.02.06V40Z" fill="#E8C871"/><path d="M33.52 36h1.77c.02 0 .05.02.06.04a.1.1 0 0 1 .03.07v.42a.1.1 0 0 1-.02.06.08.08 0 0 1-.06.03h-1.22a.08.08 0 0 0-.06.03c-.02.02-.02.04-.02.06v2.81l-.01.02a.05.05 0 0 1-.03.03h-.02a106.66 106.66 0 0 0-.92-.01.06.06 0 0 1-.02-.04v-2.8a.1.1 0 0 0-.02-.07.08.08 0 0 0-.06-.03h-1.18a.08.08 0 0 1-.06-.03.1.1 0 0 1-.02-.06v-.43c0-.02 0-.05.02-.06a.09.09 0 0 1 .07-.03l1.77-.01Z" fill="#039DD9"/><path fill-rule="evenodd" d="M28.63 36h-.41a56.23 56.23 0 0 0-.47.02.12.12 0 0 0-.04.05l-1.72 3.4c-.03.07-.01.1.06.1h.76c.04 0 .08-.02.12-.04a.24.24 0 0 0 .08-.1l.31-.6c.03-.06.06-.08.11-.08a162.39 162.39 0 0 0 1.6-.02c.06 0 .1.03.12.08l.32.6.08.1.12.03h.76c.08 0 .1-.04.06-.11l-1.76-3.37a.12.12 0 0 0-.05-.04.1.1 0 0 0-.05-.02Zm-.88 2.08 1 .02h.02l.02-.03a.06.06 0 0 0 0-.05l-.53-1-.02-.02a.05.05 0 0 0-.05 0l-.02.02-.46.97a.06.06 0 0 0 .02.08h.02ZM23.15 37.63l-.02.03v.04l.02.03c0 .01.01.02.03.02.33.1.54.3.63.6.2.66-.52 1.15-1.02 1.2a38.73 38.73 0 0 1-2.78 0l-.01-.03v-3.46c0-.01 0-.03.02-.04a154.54 154.54 0 0 1 2.6-.01c.22 0 .45.1.69.32.38.33.4.7.07 1.08l-.23.22ZM21 36.7a.1.1 0 0 1 0-.04l.02-.03.02-.01.03-.01h1.1c.06 0 .12 0 .18.02s.1.05.15.09a.4.4 0 0 1 .1.13c.02.05.04.1.04.15v.03c0 .1-.05.2-.14.28a.5.5 0 0 1-.33.12h-1.12l-.03-.02-.01-.03a.1.1 0 0 1 0-.03L21 36.7Zm.02 1.36a.07.07 0 0 0-.02.04v.8c0 .01 0 .03.02.04l.03.02h1.17a.8.8 0 0 0 .45-.12c.11-.08.18-.2.18-.31v-.04a.33.33 0 0 0-.05-.17.47.47 0 0 0-.13-.14.7.7 0 0 0-.2-.1.88.88 0 0 0-.25-.03l-1.16-.01c-.02 0-.03 0-.04.02Z" fill="#039DD9"/><path d="M43 40v3.94c0 .04-.04.06-.08.06H13.07c-.04 0-.07-.02-.07-.06V40h30Z" fill="#E50012"/><path d="M27.18 42.09c0 .74.61.79 1.2.61.02 0 .03 0 .03.03l-.02.45c0 .06-.03.1-.1.11-.53.13-1.2.07-1.57-.37a1.39 1.39 0 0 1-.03-1.59c.42-.6 1.08-.65 1.76-.5.02 0 .03 0 .03.02v.54a.02.02 0 0 1-.03.02c-.35-.09-.57-.12-.65-.1-.42.15-.62.4-.62.78ZM33.52 41.65c.1.33.06.69-.11 1-.18.3-.47.54-.82.65-.35.1-.72.08-1.04-.08a1.27 1.27 0 0 1-.66-.76c-.1-.33-.06-.7.11-1 .18-.31.47-.55.82-.65.35-.11.72-.08 1.04.07.32.16.56.44.66.77ZM40.38 42.6a.14.14 0 0 0-.04-.1 6 6 0 0 0-.47-.47c-.47-.4-.4-1 .2-1.22.23-.08.55-.08.95.02.02 0 .02.01.02.03v.55c0 .02 0 .03-.03.02a.84.84 0 0 0-.6-.1.17.17 0 0 0-.13.2c0 .03.02.06.04.08.25.28.7.57.74.91.11.86-.88.91-1.48.74a.1.1 0 0 1-.07-.1v-.48a.03.03 0 0 1 .01-.03.03.03 0 0 1 .04 0c.2.13.41.18.6.14.15-.02.22-.09.22-.2ZM15.6 41.31c-.05.01-.07.03-.07.08l-.08 1.87c0 .02-.02.04-.04.04h-.58c-.03 0-.04-.02-.04-.04l.1-2.4c0-.03.03-.05.07-.05.7-.03 1.15-.02 1.36 0 .74.1.73 1.13.09 1.34l-.03.02a.07.07 0 0 0-.02.05v.02l.41 1.04c.01.02 0 .03-.02.03l-.7-.03-.02-.01-.39-1.3a.05.05 0 0 1 .06-.07c.3.05.47-.06.5-.34a.17.17 0 0 0-.1-.17.8.8 0 0 0-.5-.08ZM17.92 42.75h1.03a.05.05 0 0 1 .02.03v.02l-.02.45a.05.05 0 0 1-.04.05H17.2a.05.05 0 0 1-.05-.05l.1-2.41c0-.01 0-.02.02-.03l.03-.01h1.72a.05.05 0 0 1 .04.03v.01l-.02.47a.05.05 0 0 1-.04.05l-1.03-.05a.05.05 0 0 0-.03.02.05.05 0 0 0-.02.03l-.01.35v.02a.05.05 0 0 0 .04.03h.89a.05.05 0 0 1 .03.05l-.02.46a.05.05 0 0 1-.05.05h-.87a.05.05 0 0 0-.04.04l-.01.34v.04a.05.05 0 0 0 .04.01ZM20.98 41.82l-.02.45a.04.04 0 0 1-.04.04h-.78a.04.04 0 0 0-.04.04v.9a.05.05 0 0 1-.05.05h-.66a.05.05 0 0 1-.02-.05l.1-2.41a.04.04 0 0 1 .04-.05h1.65a.05.05 0 0 1 .03.02.05.05 0 0 1 .01.03l-.02.46a.04.04 0 0 1-.04.05h-.95a.05.05 0 0 0-.05.04l-.01.33a.05.05 0 0 0 .03.05h.77a.05.05 0 0 1 .05.03v.02ZM22.24 41.31c-.04 0-.07.03-.07.07l-.08 1.87c0 .03-.02.04-.05.04h-.57c-.03 0-.04-.01-.04-.04l.11-2.38c0-.04.02-.06.06-.07.7-.02 1.15-.01 1.36.01.74.1.73 1.13.09 1.34a.06.06 0 0 0-.04.04.07.07 0 0 0 0 .05l.4 1.03c.01.03 0 .04-.03.04l-.69-.03s-.02 0-.02-.02l-.39-1.3a.05.05 0 0 1 .03-.06h.03c.3.05.47-.07.5-.34a.17.17 0 0 0-.1-.17.79.79 0 0 0-.5-.08ZM24.7 40.8h.74a.04.04 0 0 1 .04.02l.86 2.42v.04l-.02.01h-.68a.04.04 0 0 1-.04-.02l-.23-.65a.04.04 0 0 0-.04-.02h-.76a.04.04 0 0 0-.03.02l-.3.65-.02.02h-.68a.04.04 0 0 1-.02-.05l1.14-2.42a.04.04 0 0 1 .04-.02ZM28.73 40.8h2a.04.04 0 0 1 .03 0v.04l-.02.49a.04.04 0 0 1 0 .02.04.04 0 0 1-.04.02l-.6-.03h-.03a.04.04 0 0 0-.02.04l-.08 1.88a.04.04 0 0 1-.04.04h-.63l-.02-.01a.04.04 0 0 1 0-.03l.07-1.87a.04.04 0 0 0 0-.03h-.02l-.01-.01h-.6a.04.04 0 0 1-.03-.04v-.47l.01-.03.03-.01ZM34.57 41.39l-.08 1.87c0 .02-.01.04-.04.04h-.58c-.02 0-.03-.02-.03-.04l.1-2.39c0-.04.02-.06.06-.06.7-.03 1.15-.02 1.36 0 .74.1.73 1.12.09 1.34l-.02.02a.07.07 0 0 0-.02.07l.4 1.03c.02.03 0 .04-.02.04l-.69-.03c-.01 0-.02 0-.02-.02l-.4-1.3a.05.05 0 0 1 .06-.06c.3.05.47-.06.5-.34a.17.17 0 0 0-.1-.17.8.8 0 0 0-.5-.08c-.04.01-.06.04-.07.08ZM36.97 40.8l-.65-.02a.03.03 0 0 0-.03.03l-.1 2.44c0 .02.01.04.03.04l.65.02c.02 0 .03-.01.03-.03l.1-2.44a.03.03 0 0 0-.03-.03ZM38.16 42.31c-.05 0-.08.03-.08.08l-.01.3c0 .05.02.08.08.08l.98-.04c.03 0 .05.02.05.06l-.04.44c0 .04-.03.07-.07.07h-1.68c-.03 0-.05-.02-.05-.06l.12-2.37c0-.05.02-.07.06-.07h1.7a.04.04 0 0 1 .03.01.04.04 0 0 1 0 .03l-.02.45c0 .04-.02.06-.06.06l-.97-.02a.08.08 0 0 0-.08.07l-.02.3c0 .05.02.07.07.07l.84-.02c.04 0 .06.02.06.06l-.04.45c0 .04-.02.06-.06.06h-.8Z" fill="#FFFEFE"/><path d="M31.56 41.98c-.04.42.21.79.57.82.35.04.67-.27.72-.69.04-.41-.21-.78-.57-.82-.35-.03-.67.28-.72.7ZM25.04 41.4c.06 0 .14.37.22.63a.04.04 0 0 1 0 .04.04.04 0 0 1-.03.01 5.27 5.27 0 0 1-.47-.04.04.04 0 0 1 0-.03c.1-.25.22-.61.28-.61Z" fill="#E50012"/></svg>