<!-- by TradingView --><svg width="56" height="56" viewBox="0 0 56 56" xmlns="http://www.w3.org/2000/svg"><path fill="#F0F3FA" d="M0 0h56v56H0z"/><path d="M50 24.79c0 .84-.05 1.69-.4 2.47-3.05 6.91-10.26 10.5-16.91 12.27a44.66 44.66 0 0 1-10.51 1.46c-4.32.1-8.47-.72-12.24-2.94-2.18-1.3-3.59-3.09-3.94-5.7v-.68c.35-2.84 1.67-4.98 3.47-7.09a.13.13 0 0 1 .06-.04.13.13 0 0 1 .13.03l.04.07.02.08a.07.07 0 0 1-.02.07c-2.08 2.7-2.98 5.85-.48 8.68 4.11 4.67 10.66 5.16 16.3 4.35 5.68-.82 10.99-2.78 15.93-5.87A14.5 14.5 0 0 0 43.98 30c.67-.53 1.4-1.27 2.15-2.22 1.81-2.26 2.03-5.69.05-7.95a8.92 8.92 0 0 0-1.99-1.71 17.03 17.03 0 0 0-4.15-1.85.1.1 0 0 1-.04-.08l.01-.04.04-.1c.02-.04.05-.06.1-.05 1.95.38 3.75 1.05 5.38 2.03 2.43 1.45 4.47 3.83 4.47 6.76Z" fill="#9D9D9D"/><path d="m44 28.82-.03-1.32c.23-.45.4-.98.53-1.6.41-1.96-.62-3.7-1.12-5.56-.04-.17-.15-.26-.32-.26l-2.18.03c.2.01.3-.03.3-.14a.1.1 0 0 0 0-.06.1.1 0 0 0-.05-.04l-.18-.1c-.1-.04-.13-.12-.08-.23l.71-1.63c.05-.1.12-.13.23-.09 3.17 1.37 5.53 4.1 4.14 7.99A7.71 7.71 0 0 1 44 28.82Z" fill="#9D9D9D"/><path d="M27.14 30.18c-.08.15-.05.19.1.11l1.44-.7c.14-.08.63-.1 1.48-.05.07 0 .12.04.14.12.06.29.01.49-.25.64l-4.22 2.57a.92.92 0 0 1-.48.13h-2.69a.1.1 0 0 1-.05-.01.1.1 0 0 1-.04-.04.11.11 0 0 1 0-.11l7.64-13.8a.1.1 0 0 1 .03-.03.09.09 0 0 1 .13.04l6.04 10.81c.05.1.03.14-.07.14h-2.86a.2.2 0 0 1-.19-.11l-2.97-5.26a.07.07 0 0 0-.05-.03h-.03l-.02.03-3.08 5.55ZM12 20.13c0-.09.06-.13.15-.13h3.36c.1 0 .17.05.2.14l1.71 4.68c.06.16.12.16.18 0l1.72-4.68a.2.2 0 0 1 .07-.1.2.2 0 0 1 .11-.04h3.35c.1 0 .15.06.15.16V31.8a.2.2 0 0 1-.06.14.2.2 0 0 1-.13.06h-2.72c-.01 0-.03 0-.04-.02-.01-.01-.05-.03-.05-.05v-5.21c0-.24-.02-.25-.11-.04l-2.3 4.29a.1.1 0 0 1-.03.04.1.1 0 0 1-.15-.04l-2.24-4.26c-.1-.24-.17-.23-.17.04v5.12c0 .04 0 .07-.03.09-.02.02-.05.04-.08.04h-2.72c-.11 0-.17-.06-.17-.18v-11.7ZM43.06 20c.17 0 .28.09.32.26l.53 1.74h-4.72c-.05 0-.1.02-.13.06a.2.2 0 0 0-.06.13v2.55c0 .06.03.12.07.17.05.04.1.09.16.09h3.45c1.58.1 1.27 1.35 1.32 2.5v2.53A14.7 14.7 0 0 1 41.45 32h-3.47c-.04 0-.09-.05-.12-.07a.27.27 0 0 1-.1-.1l-1.02-1.6a.15.15 0 0 1 0-.15.13.13 0 0 1 .04-.05l.07-.03h3.98c.05 0 .1 0 .13-.04a.19.19 0 0 0 .04-.14v-2.54l-.01-.1a.26.26 0 0 0-.13-.13c-.03-.01-.1-.05-.13-.05H37.2c-.98-.07-1.2-.73-1.2-1.72V21.4c.02-1.02 1.18-1.39 2.02-1.4h5.04Z" fill="#00406A"/><path d="M12 23.53v2.84a5.95 5.95 0 0 0 1.12 8.16 12.85 12.85 0 0 0 4.78 2.43c.02 0 .03.02.03.04l.01.1c0 .03 0 .05-.04.04-7.07-.98-12.13-8.46-5.9-13.6Z" fill="#9D9D9D"/><path d="m30.35 27 .73 1.34a.1.1 0 0 1 0 .1.1.1 0 0 1-.03.04.1.1 0 0 1-.05.01l-1.48-.01a.1.1 0 0 1-.05-.01.1.1 0 0 1-.03-.04.1.1 0 0 1 0-.1l.75-1.34a.1.1 0 0 1 .03-.03.1.1 0 0 1 .13.04Z" fill="#00406A"/></svg>