<!-- by TradingView --><svg width="56" height="56" viewBox="0 0 56 56" xmlns="http://www.w3.org/2000/svg"><path fill="#F0F3FA" d="M0 0h56v56H0z"/><path d="M37.55 26.28v.03h-.02c-.06 0-.1.01-.14.04-.04.04-.03.08.02.11.07.04.11.09.12.14.02.16-.02.26-.13.3-.25.07-.3 0-.17-.22.03-.04 0-.12-.1-.22a.32.32 0 0 0-.22-.08l-.38-.01c-.06 0-.1.02-.1.08l-.09.61c-.27 1.92-2.1 2.77-1.02 5.23.15.33.1.6-.13.83a.33.33 0 0 1-.15.08.5.5 0 0 0-.16.07c-.06.04-.06.09 0 .13.17.14.3.3.4.45.03.06.01.09-.06.06l-.58-.16c-.07-.02-.1 0-.07.08a.7.7 0 0 0 .27.34c.05.03.06.08.03.14-.05.06-.12.1-.21.09-.08 0-.12.03-.13.1l-.06.44c0 .06.01.1.06.13l.09.05c.1.07.1.1-.02.08a.19.19 0 0 1-.05-.02.12.12 0 0 0-.1 0c-.25.08-.25.4 0 .95.05.1.02.17-.09.21l-.16.06a.16.16 0 0 0-.11.12c-.06.2-.19.42-.37.63a.2.2 0 0 0-.05.18l.07.3a.06.06 0 0 1-.06.07l-.03-.01a.42.42 0 0 0-.16-.08c-.1-.01-.12.03-.09.11l.05.07a.05.05 0 0 1 0 .07l-.02.01a.49.49 0 0 1-.23-.08.19.19 0 0 0-.16-.02 10 10 0 0 1-.5.14l.02.05c0 .02.03.04.06.03.12-.01.25 0 .37.05.07.02.07.06 0 .09a.53.53 0 0 1-.2.06c-.03 0-.05.02-.03.06l.02.07c.01.03.03.04.06.03l.55-.13c.09-.02.13.02.13.1v.08a.1.1 0 0 1-.07.1l-.83.3a.22.22 0 0 0-.15.18l-.03.21c0 .06-.04.1-.1.12-.19.06-.37.08-.54.06-.06-.01-.1.01-.12.07l-.02.07c-.01.04-.05.05-.11.03l-.2-.1c-.16-.12-.3-.08-.42.05-.06.06-.05.1.03.13l.5.14v.01c-.22 0-.45.12-.7.35a.2.2 0 0 1-.17.05c-.27-.06-.41.06-.4.34l-.02.03-.03.02a.06.06 0 0 1-.06-.02c-.15-.22-.3-.32-.46-.3a.16.16 0 0 0-.13.11.9.9 0 0 0-.04.34c0 .04-.02.08-.06.1l-.59.2a.17.17 0 0 1-.2-.06l-.72-1.02c-.1-.14-.07-.18.1-.14l.26.08c.07.02.1-.01.1-.09s-.06-.17-.18-.26c-.05-.04-.06-.1-.02-.15a.13.13 0 0 1 .05-.05c.08-.04.13-.02.15.07 0 .04.03.08.05.12.03.04.08.05.12.04.12-.03.18-.1.17-.21a.16.16 0 0 0-.06-.12l-.06-.05c-.24-.19-.22-.29.07-.3l.22.02c.08.01.1-.02.05-.08-.07-.12-.09-.33-.05-.61 0-.06.04-.08.1-.07.09.02.19.08.3.04.09-.03.14-.1.15-.18.01-.07 0-.12-.05-.17l-.13-.13c-.08-.08-.07-.1.04-.1l.09.02c.06 0 .1-.02.14-.07a.75.75 0 0 1 .3-.3.1.1 0 0 0 .04-.14c-.02-.06-.09-.1-.2-.11-.16-.02-.17-.07-.03-.16.1-.06.14-.16.12-.29a.1.1 0 0 0-.09-.08l-.08-.02c-.14-.03-.14-.05 0-.06h.07c.05 0 .09-.03.1-.07l.28-.61c.12-.1.28-.14.49-.12.06 0 .11-.02.15-.07.04-.05.1-.09.17-.1.04 0 .08-.04.12-.1.03-.04.05-.1.05-.15.09.06.16.08.2.06.07-.02.1-.06.06-.12-.05-.12-.16-.2-.32-.23-.13 0-.21-.05-.26-.15.08-.07.07-.16-.02-.25a.4.4 0 0 0-.14-.09 4.6 4.6 0 0 0-.4-.53.22.22 0 0 1-.05-.08v-.07a.1.1 0 0 1 .12-.06l.2.03c.1 0 .1-.02.02-.07-.1-.06-.25-.11-.42-.15a.17.17 0 0 1-.13-.14.18.18 0 0 1 .08-.18l.26-.14a.43.43 0 0 0 .13-.06.28.28 0 0 0 .1-.15c.07-.28.2-.46.38-.55.05-.02.05-.06 0-.1-.05-.05-.04-.14.01-.27v-.03c-.04-.05-.1-.07-.2-.06a.47.47 0 0 1-.05-.2c.1-.4.4-.43.88-.11a.5.5 0 0 0 .28.07c.14 0 .15-.04.05-.14a.75.75 0 0 1-.23-.32c-.02-.06-.05-.09-.12-.08a11 11 0 0 0-.81.11c-.13.02-.23-.05-.32-.21-.02-.06 0-.1.05-.1.07-.02.13.05.17.2a.1.1 0 0 0 .12.07.1.1 0 0 0 .04-.02l.17-.12a.1.1 0 0 0 .04-.1v-.31c0-.08-.04-.13-.12-.13-.08 0-.19.03-.33.09-.08.03-.1 0-.06-.08 0 0 .1-.09.32-.24.17-.13.33-.39.46-.78.02-.05.05-.1.1-.13.08-.04.2-.07.36-.08.05 0 .06-.03.04-.07l-.08-.2c-.04-.07-.02-.1.07-.1l.4.06c.04 0 .07-.01.08-.06a.1.1 0 0 0 0-.06.07.07 0 0 0-.06-.04c-.07-.01-.12-.04-.14-.08a.08.08 0 0 1 .01-.1l.04-.02c.12-.03.18-.09.19-.19 0-.07.04-.1.1-.06l.23.11c.07.04.1.02.06-.06-.05-.1-.16-.27-.35-.52-.16-.2-.24-.45-.26-.77 0-.06.02-.1.08-.12.1-.02.18.03.25.14.03.04.06.12.1.24.04.13.06.13.06 0v-.3c0-.04.02-.1.04-.14l.38-.8c.05-.1.02-.17-.07-.23-.2-.12-.44-.3-.7-.53-.02-.02-.05-.03-.1-.03-.07 0-.09.03-.05.1.06.12.05.22-.05.3-.05.05-.1.05-.14 0a.54.54 0 0 1-.19-.41c0-.02.01-.05.03-.07a.32.32 0 0 1 .06-.07c.6-.48.7-1.64 1.29-.51.03.05.04.1.03.17a.3.3 0 0 1-.06.14c-.04.06-.03.1.03.14.22.1.38.1.5 0 .03-.04.08-.05.14-.03.14.05.24.07.28.05.08-.02.08-.05.02-.1-.34-.26-.7-.78-.66-1.24a.76.76 0 0 0-.1-.34c-.02-.07 0-.11.06-.13.3-.12.54-.26.69-.41.05-.06.1-.05.12.02.1.22.2.37.28.43.04.04.08.04.12 0 .2-.14.37-.06.52.24.08.16.03.22-.14.19a.96.96 0 0 1-.48-.3c-.07-.06-.14-.07-.22-.01l-.04.03a.09.09 0 0 0-.03.06.1.1 0 0 0 .02.08c.23.23.36.5.39.82a.17.17 0 0 0 .08.13l.48.3c.05.03.06.01.03-.04l-.13-.26a.3.3 0 0 1 .1-.36l.23-.18a.36.36 0 0 0 .05-.52l-.53-.61a.24.24 0 0 1-.07-.17c0-.18-.1-.25-.28-.22-.06.01-.1-.02-.12-.08-.2-.67.18-.27.95-.4a.18.18 0 0 1 .16.04c.17.15.38.24.6.28.08.02.1 0 .05-.07-.15-.17-.32-.37-.36-.6a21.6 21.6 0 0 0-.25-1.1c-.04-.18.02-.24.2-.2.15.05.39.23.71.55.1.1.15.07.15-.07-.03-.95.86-.87.98-1.76.01-.06.04-.1.09-.15.12-.1.27-.07.44.1.06.05.1.03.1-.05l.14-.92c.09.33.13.54.11.65 0 .08.02.15.08.18.04.03.09.04.12.04.07 0 .13-.04.16-.1l.1-.22a.11.11 0 0 1 .13-.05c.03 0 .05.02.06.04.02.03.03.05.02.08-.03.24-.04.39 0 .45.05.13.16.18.31.17.33-.03.56-.16.68-.39.2-.37.4-.68.57-.94.04-.06.03-.1-.05-.1a.46.46 0 0 1-.39-.31.19.19 0 0 1 0-.17c.14-.27.32-.44.55-.51.2-.07.35-.13.42-.19.05-.03.1-.04.15 0 .06.04.1.1.1.17a.13.13 0 0 1-.04.11.12.12 0 0 1-.11.03c-.2-.06-.33.02-.4.25-.06.2-.02.57.1 1.11a.37.37 0 0 0 .19.25l.08.04a.1.1 0 0 0 .1-.01.1.1 0 0 0 .04-.1c.6-2.4 1.92-.29 2.4-1.38.25-.56.44-.91.56-1.06.04-.05.09-.05.14-.02a.13.13 0 0 1 .04.15 6.26 6.26 0 0 1-.17.47.1.1 0 0 0 .08.09c.14.03.26.02.34-.04a.08.08 0 0 1 .08 0l.25.12c.07.03.1.09.06.16l-.06.12c-.04.07-.01.1.07.1.85-.06 1.32-.43 2-.77a.06.06 0 0 1 .1.07l-.05.33a.16.16 0 0 1-.13.14.96.96 0 0 0-.6.48c-.05.08-.03.13.05.16.03 0 .05.02.07.05.02.02.03.05.03.08v.12c0 .1.04.12.12.09a.46.46 0 0 0 .18-.17c.03-.03.05-.1.07-.21.03-.25.22-.36.3-.56l.24-.5c.04-.07.12-.08.23-.03a.1.1 0 0 1 .04.03c.06.06.09.13.07.22l-.06.5a.14.14 0 0 0 .06.13c.14.08.26.11.36.09.07-.02.09-.05.07-.12a.25.25 0 0 0-.08-.1c-.06-.06-.05-.1.01-.14.21-.11.36-.16.46-.12a.1.1 0 0 0 .05 0l.05-.01.15-.12c.06-.04.1-.03.13.05a.4.4 0 0 1 .01.2c-.01.05-.05.07-.1.05a.48.48 0 0 0-.21-.05c-.06 0-.1.03-.12.1a.6.6 0 0 0-.02.26c.02.06.05.08.1.08l.24-.03c.1-.01.1 0 .02.06-.2.13-.4.33-.64.6-.06.07-.18.09-.34.06-.07-.02-.1-.06-.07-.12l.03-.12a.17.17 0 0 0-.07-.18.17.17 0 0 0-.2 0l-.5.37a.13.13 0 0 0-.06.11v.2c0 .06-.03.08-.1.03-.09-.06-.2-.18-.34-.2-1.1.28-2.09.72-3.18 1.35-.28.35-.54.53-.8.55h-.18c-.14-.04-.24-.03-.3.02-.03.05-.08.05-.12 0l-.22-.25c-.05-.06-.08-.05-.08.02-.08.64-.8.81-.76 1.5 0 .04 0 .05-.04.02a1.64 1.64 0 0 1-.17-.18c-.19-.24-.24-.24-.16.02.1.3-.02.59-.36.86a.12.12 0 0 1-.08.02c-.02 0-.05 0-.07-.02a.7.7 0 0 1-.12-.13c-.09-.11-.12-.1-.09 0l.02.07c.01.06 0 .08-.06.07l-.09-.01c-.07-.01-.1.02-.12.09l-.1.62c0 .11-.04.2-.09.24a.12.12 0 0 1-.1.03.11.11 0 0 1-.09-.07l-.09-.28a.18.18 0 0 0-.17-.12.18.18 0 0 0-.17.12c-.6 1.63-2.03 1.45-1.27 3.44Zm5.04-7.55c0 .04.05.09.12.16.05.05.08.04.09-.02.02-.1 0-.24-.08-.41-.02-.06-.06-.09-.11-.09h-.74c-.05 0-.06.02-.04.06l.02.06c0 .04.03.05.06.05h.14c.08 0 .12.04.12.12v.22c0 .09.02.1.07.02l.12-.2c.1-.17.18-.16.23.03ZM35.74 23c-.02 0-.04-.01-.04-.04a.69.69 0 0 0-.4-.62c-.06-.03-.1-.01-.1.06.01.66.34 1.02 1 1.06h.05c.05-.02.07-.05.07-.08-.02-.07-.05-.1-.12-.1h-.11a.1.1 0 0 1-.1-.05.1.1 0 0 1 0-.1l.09-.19a.14.14 0 0 0-.03-.17.23.23 0 0 0-.18-.07c-.08 0-.1.03-.08.1a.5.5 0 0 1 0 .18V23h-.05Zm2.6.21c.07.03.1.01.11-.06a.84.84 0 0 0-.24-.68.12.12 0 0 0-.1-.04.12.12 0 0 0-.1.07c-.13.3-.02.54.34.71Zm-3.01 4.24c.1.04.16.05.25.11.07.05.1.03.08-.05a.31.31 0 0 0-.1-.2c-.03-.02-.07-.03-.12-.01a2 2 0 0 0-.14.04c-.07.03-.06.07.03.1Zm-1.52 1.04c.03-.01.05-.05.04-.1a.46.46 0 0 0-.04-.18.45.45 0 0 0-.1-.15c-.04-.03-.08-.04-.1-.03-.03.01-.05.05-.05.1s.02.12.05.18c.02.06.06.11.1.14.04.04.08.05.1.04Zm.87 1.88c0-.03 0-.07-.03-.1a.3.3 0 0 0-.12-.09.3.3 0 0 0-.15-.02c-.04 0-.07.03-.09.05 0 .03 0 .07.03.1a.3.3 0 0 0 .12.09c.05.02.1.03.15.02.04 0 .07-.02.09-.05Zm-.77.26.12.07c.2-.07.2-.13-.01-.2l-.74-.2a.03.03 0 0 0-.03.03.03.03 0 0 0 0 .03c.17.1.34.17.54.21a.3.3 0 0 1 .12.06Zm-.65 1.08.16-.12c.03-.03.03-.04-.02-.05l-.31-.04a.08.08 0 0 0-.1.08l.01.04.1.1c.05.03.1.02.16-.01Zm-1.7.96c.1.07.2.08.32.03.06-.03.07-.07.04-.13a.57.57 0 0 0-.16-.17.56.56 0 0 0-.22-.1c-.06 0-.1.02-.1.08 0 .13.03.22.13.29Zm-.38 1.92c.03-.03.05-.08.04-.13a.37.37 0 0 0-.15-.23.29.29 0 0 0-.08-.04.17.17 0 0 0-.08 0 .11.11 0 0 0-.06.02c-.03.03-.04.07-.03.13 0 .06.04.11.08.16l.07.07.08.04h.07c.03 0 .05 0 .06-.02Zm-1.12 2.62-.12.09a.07.07 0 0 0-.03.07.07.07 0 0 0 .05.05c.22.05.42.01.59-.11.06-.05.06-.1 0-.14a.98.98 0 0 0-.32-.15c-.05-.01-.09 0-.1.06l-.02.05c0 .04-.03.06-.05.08Zm.38.67.05.02a.1.1 0 0 0 .06.02l.04-.03a.14.14 0 0 0 .02-.05c0-.03 0-.05-.04-.05h-.73c-.18 0-.21.07-.08.2.2.2.41.17.65-.1 0-.02.02-.02.03-.01Z" fill="#FFCB05"/><path d="M20.8 24.4c0 .03 0 .06.02.09a.12.12 0 0 0 .14.04c.08-.03.12-.1.12-.19a.09.09 0 0 1 .07-.08.09.09 0 0 1 .1.03l.2.3c.03.04.03.08 0 .12-.18.2-.37.35-.6.45a.2.2 0 0 1-.17 0l-.08-.04c-.07-.03-.11-.02-.14.05-.07.17-.06.32.04.45.04.04.05.1.04.15l-.04.27c0 .03.01.05.04.07h.05l.02-.01c.15-.29.42-.55.8-.8.04-.04.1-.05.16-.04.15.02.27-.02.38-.12a.16.16 0 0 1 .23 0l.04.08c.07.24.19.4.36.46.06.02.07.05.02.1l-.37.35c-.04.03-.07.03-.1 0l-.08-.13c-.06-.07-.1-.07-.15 0-.17.3-.4.47-.7.5-.05.01-.1.05-.12.1l-.18.5c-.03.07 0 .09.06.05.3-.18.54-.18.7.02a.35.35 0 0 0 .3.11.34.34 0 0 0 .26-.16l.42-.65a.24.24 0 0 1 .14-.1c.14-.04.18-.14.13-.32a.13.13 0 0 1 .06-.16c.07-.05.16-.05.27 0 .05.01.06.04.04.09l-.11.23a.08.08 0 0 0 .07.11c.03 0 .06 0 .08-.02.07-.05.11-.03.12.05.02.3.02.47 0 .53-.09.21-.11.42-.07.63.03.18.06.18.1 0 .11-.5.7-.84 1.24-1.25.33-.25.27.43.15.6-.1.15-.15.29-.17.4a.13.13 0 0 0 .06.1.13.13 0 0 0 .12.02c.8-.35 2.2.4 2.23.4l.03.02a.05.05 0 0 1 .01.04c-.02.08-.18.44-.01.4l.88-.2H28.07l-.01.03-.54.3c-.35.13-.34.25.02.34 2.26.57-.95.64 1.3 1.55.05.02.08 0 .1-.06a2 2 0 0 0 0-.23c-.02-.29.22-.48.48-.32.28.17.53.42.73.73a.23.23 0 0 1 .03.17.2.2 0 0 1-.04.08.18.18 0 0 1-.07.05c-.02.02-.06 0-.12-.07a.24.24 0 0 1-.05-.12c-.04-.24-.21-.33-.5-.25-.09.02-.36.15-.82.39a.32.32 0 0 0-.19.28v.05c0 .13.06.17.17.12.48-.21 1-.26 1.2.35.01.05 0 .1-.03.14l-.23.3c-.04.05-.03.08.04.1.07 0 .14 0 .2-.05.24-.16.5-.28.81-.36 0 .06.02.12.05.19l-.23.32a.15.15 0 0 1-.13.07c-.37-.02-.67.01-.89.1-.1.04-.15.1-.13.21 0 .06.04.1.1.1.25.05.51.07.78.08.06 0 .07.03.05.08l-.07.15c-.03.05-.01.09.03.1a.1.1 0 0 0 .07.01l-.26.14a.18.18 0 0 0-.04.27c.02.03.05.04.09.05.17.04.31.09.42.15.08.05.08.07-.01.07a.82.82 0 0 1-.2-.03.1.1 0 0 0-.13.06v.07l.04.08c.16.17.3.35.41.53-.06.17 0 .28.16.34.05.1.13.15.26.15-.17.02-.15.12.06.3 0 .05-.02.1-.05.14-.04.06-.08.1-.12.1a.28.28 0 0 0-.17.1.16.16 0 0 1-.15.07c-.21-.02-.37.02-.49.12a1.17 1.17 0 0 1-.17-.38.1.1 0 0 0-.05-.06.1.1 0 0 0-.07-.01l-.2.04c-.1.02-.12 0-.05-.08l.1-.12.01-.01v-.02h-.01l-.07-.04a.08.08 0 0 0-.1 0c-.14.13-.26.14-.37.05-.04-.04-.04-.08 0-.11l.27-.29a.12.12 0 0 1 .12-.03c.25.08.41.1.5.04.1-.06.1-.11 0-.16-.53-.2-.71-.54-1.33-.25-.06.03-.1 0-.1-.06-.12-.56-.47-.9-1.03-1.04a.14.14 0 0 1-.11-.1l-.1-.45c-.01-.05-.04-.08-.1-.08l-.07-.02c-.05 0-.06-.03-.03-.07l.25-.3c.06-.07.04-.1-.04-.09-.35.04-.72-.07-1.12-.32a.19.19 0 0 0-.17-.02l-.26.1c-.08.02-.1 0-.06-.08a3.96 3.96 0 0 1 .12-.26l-.02-.02h-.04c-.01 0-.02 0-.03.02-.26.18-.53.16-.81-.06a.17.17 0 0 1-.07-.15c.01-.17-.03-.27-.14-.3-.06-.03-.17-.02-.3.02-.24.07-.4.11-.46.11-.07 0-.12-.02-.15-.06a.12.12 0 0 1-.02-.06c0-.06.02-.1.07-.13.13-.08.22-.17.25-.27.02-.06 0-.1-.07-.12-.2-.05-.42-.07-.64-.06-.03 0-.06 0-.08-.02a.66.66 0 0 1-.1-.07h-.04a.1.1 0 0 0-.03 0l-.03.03-.05.02c-.05 0-.06-.02-.02-.05.04-.05.06-.09.07-.13 0-.06-.02-.1-.08-.13-.24-.07-.42-.09-.54-.05-.06.01-.11 0-.15-.05a.28.28 0 0 0-.09-.07.14.14 0 0 0-.09 0c-.2.05-.4.08-.59.1-.05 0-.08 0-.1-.02-.03-.03-.03-.07-.01-.12l.03-.04c.1-.08.15-.16.15-.24 0-.06-.02-.08-.08-.06a.3.3 0 0 0-.17.18.13.13 0 0 1-.11.1.74.74 0 0 0-.5.26c-.07.09-.1.09-.1 0v-.09c0-.07-.04-.08-.1-.04l-.12.09c-.06.04-.09.03-.08-.05v-.05c.02-.09-.01-.11-.1-.08-.09.05-.19.12-.3.22a.1.1 0 0 1-.1.03.11.11 0 0 1-.08-.08v-.11c.02-.1-.01-.12-.1-.06-.05.05-.1.1-.12.16-.02.06-.07.07-.12.05-.1-.04-.2-.1-.29-.16-.04-.04-.06-.07-.06-.1l.01-.08a.08.08 0 0 1 .04-.04h.06c.2.1.33.04.42-.15a.19.19 0 0 0 0-.12l-.12-.46a.11.11 0 0 0-.1-.1c-1.15-.1-2.69.2-2.79.13a.14.14 0 0 1-.06-.1c-.01-.11 0-.22.04-.32.03-.1 0-.13-.1-.08l-.05.03c-.07.03-.11.01-.13-.07a.64.64 0 0 1-.01-.26.06.06 0 0 0-.02-.05.05.05 0 0 0-.06 0c-.05.02-.07.05-.07.08-.01.19-.03.31-.04.36-.02.08-.05.08-.08.01-.2-.44-.48-.4-.75-.04l-.5.67a.27.27 0 0 1-.14.1c-1.5.45-3.17.75-3.51.58l-.87-.42c-.15-.07-.17-.04-.07.09.16.22.36.38.6.47.07.03.07.05-.01.07-.4.1-.67-.3-1.02.07a.42.42 0 0 1-.48.1c-.17-.08-.3-.07-.38.04-.04.06-.09.06-.13 0-.16-.22-.37-.27-.62-.15a.07.07 0 0 0-.04.07l.01.03.03.03.25.1c.07.04.07.07.01.11-.33.2-.62.27-.89.21-.06-.01-.1 0-.12.06-.06.14-.1.22-.14.24-.05.02-.09.02-.13-.02l-.26-.27c-.05-.05-.1-.05-.17 0a.52.52 0 0 0-.19.3.14.14 0 0 1-.11.12l-.67.15H5.6a.12.12 0 0 1-.06-.07l-.51-1.5c-.06-.15-.03-.17.1-.06l.18.17c.28.17.35.1.21-.2a.62.62 0 0 1-.03-.42c.03-.11.1-.13.22-.04a.07.07 0 0 1 .03.06.07.07 0 0 1-.04.06.17.17 0 0 0-.08.06.15.15 0 0 0 .07.22c.07.03.16.01.25-.05a.27.27 0 0 0 .07-.39l-.16-.22c-.15-.21.98-.84 1.57-1.44-.02-.06 0-.08.05-.05l.11.05c.04.02.08.02.11 0l.55-.19a.11.11 0 0 0 .08-.1.55.55 0 0 0-.12-.34c-.04-.06-.03-.08.04-.06 1.98-1.05 2.54-.48 2.77-.8a.2.2 0 0 0 .03-.1c.03-.35.09-.61.17-.78.04-.09.1-.14.18-.16.06-.01.1.01.1.07l.07.3c0 .02.03.04.05.04.22.03.04-.49.02-.57 1.41-.35 2.14-.51 2.26-.43a.2.2 0 0 1 .06.08c.14.28.18.62.13 1 0 .03 0 .04.02.04l.06.01c.03 0 .05 0 .05-.04.03-.17.09-.28.2-.34.04-.03.05-.07.02-.12-.1-.15-.23-.43-.4-.82-.04-.13-.02-.21.04-.31a.12.12 0 0 1 .12-.05h.09a.04.04 0 0 1 .02.04v.01l-.14.28a.15.15 0 0 0 0 .15c.1.18.28.18.53 0 .08-.06.09-.13.03-.21l-.22-.32c-.02-.03-.02-.05.01-.06l.06-.02h.03c.34.27.74.6 1.14.46a.23.23 0 0 1 .17 0c.14.05.25.2.33.45.02.05.05.06.09.03l.25-.18c.03-.02.04-.02.04.02l-.01.44c0 .03.01.06.04.07l.05.02.03-.02.02-.04.03-.06c.03-.08.07-.1.14-.06l.26.12c.06.03.08.07.06.14a.8.8 0 0 0-.03.18c.01.1.04.1.1 0 .2-.28.73-.85 1.17-.75.07.02.09.06.07.12-.03.1-.11.18-.25.22-.04 0-.05.03-.05.07l.02.06a.05.05 0 0 0 .04.04h.02c.4-.1.82.2 1.23.27.06.01.1-.01.12-.07.1-.32.46-.56.5-.89.02-.07 0-.09-.07-.06-.28.13-.43.08-.43-.14a.17.17 0 0 1 .07-.14c.44-.27.6.1.79.39a.2.2 0 0 0 .12.08h.13Zm-9.6 1.97a.1.1 0 0 0 .07 0c.02 0 .04-.02.06-.04a.29.29 0 0 0 .05-.06.39.39 0 0 0 .06-.18.3.3 0 0 0 0-.09.17.17 0 0 0-.03-.06.1.1 0 0 0-.05-.04.1.1 0 0 0-.06 0 .17.17 0 0 0-.06.04.29.29 0 0 0-.06.06.39.39 0 0 0-.06.18v.08l.04.07a.1.1 0 0 0 .05.04Zm11.44 1.19c0-.02 0-.04.02-.05.27-.1.42-.29.46-.57.01-.07-.01-.1-.08-.07-.62.2-.86.63-.7 1.28l.02.04c.03.04.06.06.1.04.06-.03.08-.08.05-.14l-.03-.1a.1.1 0 0 1 .06-.15.1.1 0 0 1 .05 0l.2.03c.07 0 .12-.02.15-.08a.24.24 0 0 0 .02-.2c-.02-.07-.06-.08-.12-.04a.46.46 0 0 1-.17.06h-.02l-.01-.05Zm-14.13.18c.1.05.2.07.3.07a.06.06 0 0 0 .06-.03.06.06 0 0 0 0-.05c-.1-.37-.26-.44-.6-.28a.06.06 0 0 0-.02.1c.08.09.16.15.26.2Zm-.38.65a.1.1 0 0 0 .03-.07c0-.03 0-.06-.02-.1a.47.47 0 0 0-.06-.1.66.66 0 0 0-.3-.24c-.07-.02-.13 0-.16.03a.1.1 0 0 0-.03.07c0 .02 0 .06.02.09l.05.1c.03.04.06.08.1.1.06.07.14.12.2.14.08.02.14.01.17-.02Zm18.48.74c.02.06.17.03.43-.07.13-.05.19-.11.16-.18-.03-.07-.1-.07-.24-.01-.26.12-.37.2-.35.26Zm-1.98.94a.9.9 0 0 0 .47-.47c.08-.16.05-.18-.09-.06l-.6.55a.16.16 0 0 0-.05.14c0 .06.03.12.07.17a.05.05 0 0 0 .05.02l.02-.01.01-.03.03-.18c0-.06.04-.1.1-.13Zm-1.24.06a.1.1 0 0 0 .08.03c.03 0 .07-.01.1-.03a.58.58 0 0 0 .12-.07.86.86 0 0 0 .28-.36c.02-.08.02-.15-.02-.18a.1.1 0 0 0-.07-.03c-.03 0-.07.01-.1.03a.59.59 0 0 0-.13.07.87.87 0 0 0-.27.36c-.03.08-.02.15.01.18Zm5.26 2.2-.1.19c-.01.04 0 .06.05.04l.31-.11c.09-.03.1-.09.05-.16a.9.9 0 0 1-.15-.67l-.01-.02-.05-.02a.04.04 0 0 0-.05.01v.02c0 .23-.1.38-.31.44a.07.07 0 0 0-.05.04c-.02.1.05.13.23.12.1 0 .12.03.08.12Z" fill="#F47932"/></svg>