<!-- by TradingView --><svg xmlns="http://www.w3.org/2000/svg" width="56" height="56" viewBox="0 0 56 56"><path fill="#F0F3FA" d="M0 0h56v56H0z"/><path fill-rule="evenodd" d="M4.13 27.07c.07-.7.75-2.09 2.85-2.07 2.1.02 2.64 1.53 2.62 2.29V30.97c.04.2.14.8.4 1.03H8.85c-.24-.04-.77-.3-.79-.81-.18.32-.73.81-1.76.81-1.28 0-2.3-.72-2.3-2 0-1.23.9-2.01 2.88-2.14.41-.04 1.12-.17 1.12-.79 0-.68-.74-.77-1.02-.77-.2 0-1.11.01-1.48 1.11l-1.37-.34zM8 28.78v.67c0 .39-.23 1.28-1.28 1.31-1 .04-1.17-.59-1.1-.97.03-.25.34-.83 1.34-.83.67 0 1.04-.18 1.04-.18z" fill="#FBAE17"/><path fill-rule="evenodd" d="M32.13 27.07c.07-.7.74-2.09 2.82-2.07 2.08.02 2.37 1.53 2.35 2.29V32H36l.01-.83c-.1.27-.72.83-1.74.83-1.26 0-2.27-.72-2.27-2 0-1.23.9-2.01 2.84-2.14.41-.04 1.17-.17 1.17-.79 0-.8-.9-.92-1.17-.92-.2 0-1.25 0-1.67 1.22l-1.04-.3zm3.87 1.5v.82c0 .46-.26 1.56-1.45 1.6-1.13.04-1.32-.73-1.24-1.2.03-.3.38-1 1.51-1 .77 0 1.18-.23 1.18-.23z" fill="#353535"/><path d="M14 30.7V22h2v8.7c.02.69.46 1.15.74 1.3h-1.37c-1.09-.12-1.37-.92-1.37-1.3zM11 30.7V22h2.32c.09 0 .13.1.08.16L11.95 24a.2.2 0 0 0 .16.33h.69c.11 0 .2.09.2.2v6.18c.02.69.46 1.15.74 1.3h-1.37c-1.09-.12-1.37-.92-1.37-1.3z" fill="#FBAE17"/><path fill-rule="evenodd" d="M20.5 32a3.5 3.5 0 1 0 0-7 3.5 3.5 0 0 0 0 7zm0-1.5c1 0 1.82-.9 1.82-2s-.82-2-1.82-2-1.82.9-1.82 2 .82 2 1.82 2z" fill="#FBAE17"/><path d="M26.3 22H25v10h1.3v-1.19A2.59 2.59 0 0 0 28.4 32c1.54 0 2.79-1.57 2.79-3.5s-1.25-3.5-2.8-3.5c-.83 0-1.58.46-2.09 1.19V22zm3.75 6.5c0 1.38-.83 2.5-1.87 2.5-1.03 0-1.87-1.12-1.87-2.5s.84-2.5 1.87-2.5c1.04 0 1.87 1.12 1.87 2.5zM46 22h1.3v6.03L50.24 25h1.59l-2.87 2.87L52 32h-1.66l-2.33-3.18-.71.7V32H46V22zM40.3 25H39v7h1.3v-4.95a1.48 1.48 0 0 1 2.9.43V32h1.3v-4.75a2.25 2.25 0 0 0-4.2-1.12V25z" fill="#353535"/></svg>