<!-- by TradingView --><svg width="56" height="56" viewBox="0 0 56 56" xmlns="http://www.w3.org/2000/svg"><path fill="#F0F3FA" d="M0 0h56v56H0z"/><path d="M36.33 39.12c.34-.16 1.11-.64 1.48-1.34 3.06-.32 9.19-2.16 9.19-6.88-.1-1.2-1.29-3.6-5.23-3.6-1.09.06-3.55.36-4.77 1.19v-5.5c-.88.07-2.92.46-3 1.5v10h1.35c1.1 0 1.64-.55 1.64-1.59s1.85-3.82 4.78-3.82c.64.07 1.92.52 1.92 1.82 0 1.62-1.47 5.4-7.36 5.4-3.64-2.26-11.4-7.24-13.33-9 4.35-2.72 13.33-8.59 14.42-10.24.21-.4.43-1.29-.43-1.62-.85-.33-2.72.94-3.55 1.62L23 24.04c.29-2.55.93-7.96 1.15-9.15-.08-.3-.46-.89-1.36-.89-1.12 0-2.31 2.13-2.72 4.81-.33 2.15-.75 5.21-.92 6.47l-7.53-4.85a1.33 1.33 0 0 0-1.41-.02l-.16.1c-.83.5-1.52 1.4-.73 1.96 2.13 1.52 4.9 3.42 7.92 5.41l-8.88 5.83c-.26.17-.44.47-.32.75.23.57.9.6 1.28.51l9.74-5.4c0 9.9 2.48 13.43 3.19 13.43.57 0 .65-.39.63-.58l-.26-11.06c5.01 3.17 10.1 6.14 13.71 7.76Z" fill="#FBB018"/></svg>