<!-- by TradingView --><svg width="56" height="56" viewBox="0 0 56 56" xmlns="http://www.w3.org/2000/svg"><path fill="#F0F3FA" d="M0 0h56v56H0z"/><path d="M32.7 21.08c.04-.1 0-.15-.1-.16h-.08a.11.11 0 0 0-.1.06c-1.26 2-2.65 3.78-4.2 5.35-.5.5-1.06.94-1.7 1.33-.7.42-1.28.33-1.78-.28a10.25 10.25 0 0 1-1.89-9.98c1.77-5.21 6.98-8.16 12.45-7.23 4.65.79 8.24 4.64 8.66 9.28.31 3.45-1.2 6.84-3.86 9.03a10.93 10.93 0 0 1-8.19 2.53c-.33-.03-.67-.23-1-.62-.65-.76-.3-2.95-.09-3.77.47-1.81 1.1-3.66 1.88-5.54Z" fill="#1B8E45"/><path d="M17.66 30.73c-1.19.17-1.18.28.03.31 2.29.06 4.47.21 6.43 1.04.4.17.39.52.23.9a7.94 7.94 0 0 1-2.17 3.14 7.57 7.57 0 0 1-9.05.6 7.12 7.12 0 0 1-1.07-10.92 7.52 7.52 0 0 1 11.54.87c.41.64.69 1.4 0 1.97-.58.5-1.35.9-2.31 1.2-1.53.46-2.73.76-3.63.9Z" fill="#939192"/><path d="M30.78 39.08c.2.31.26.3.16-.06-.27-1.01-1.95-7.23-.23-7.37a7.12 7.12 0 0 1 6.95 9.17A7.07 7.07 0 0 1 34 45.1c-3.75 1.92-8.02.74-10.07-2.95a6.79 6.79 0 0 1 .66-7.58c.36-.45.61-.73.77-.83 2.05-1.36 4.72 4.27 5.42 5.35Z" fill="#80C243"/></svg>