<!-- by TradingView --><svg width="56" height="56" viewBox="0 0 56 56" fill="none" xmlns="http://www.w3.org/2000/svg">
<rect width="56" height="56" fill="#232074"/>
<path fill-rule="evenodd" clip-rule="evenodd" d="M28 45C37.3888 45 45 37.3888 45 28C45 18.6112 37.3888 11 28 11C18.6112 11 11 18.6112 11 28C11 37.3888 18.6112 45 28 45ZM18 34.5393V21.5L19.2 20H22L28.028 27.1875L34 20H36.8L38 21.5V34.5393L36.8 35.9999H34.2594L33 34.5393V28.6966L29.1985 33H27.0474L23 28.6966V34.5393L21.8259 35.9999H19.2L18 34.5393Z" fill="white"/>
</svg>
