<!-- by TradingView --><svg width="56" height="56" viewBox="0 0 56 56" xmlns="http://www.w3.org/2000/svg"><path fill="#F0F3FA" d="M0 0h56v56H0z"/><path d="m9.39 27.48.02-.01a.05.05 0 0 0-.02-.08 4.26 4.26 0 0 1-2.2-2.36 3.65 3.65 0 0 1-.06-2.68 4.51 4.51 0 0 1 2.35-2.73c.32-.16.76-.27 1.02-.36.2-.06.46-.11.8-.14.86-.08 1.5-.12 1.95-.12h6.7a.06.06 0 0 1 .03.02.06.06 0 0 1 .02.04v17.88a.06.06 0 0 1-.04.05h-.02a760 760 0 0 1-8.37-.01c-.35 0-.6-.02-.72-.06l-.91-.2a4.15 4.15 0 0 1-.8-.24c-.34-.15-.6-.26-.75-.35a4.46 4.46 0 0 1-1.94-2.25 4.7 4.7 0 0 1-.2-3.48c.1-.27.2-.6.35-.84a4.88 4.88 0 0 1 2.79-2.08Zm-.04-3.6a2.39 2.39 0 0 0 1.91 2.51l.83.15c.74.07 1.41.1 2.02.1a5662.46 5662.46 0 0 0 3.37-.05l.01-.03a382.16 382.16 0 0 0-.04-5.46l-.01-.1H14.1c-1.03 0-2.7.05-3.62.65a2.4 2.4 0 0 0-1.09 1.53c-.03.12-.04.36-.04.7Zm8.15 7.92a738.39 738.39 0 0 0-.04-3.1h-.02c-1.5 0-2.85 0-4.07.02-1.1 0-1.98.1-2.64.25a2.84 2.84 0 0 0-2.17 2.86c0 1.44.91 2.54 2.19 2.84.66.16 1.55.33 2.64.33h4.07l.03-.12.01-.03V31.8ZM31.68 27.49a4.9 4.9 0 0 1 2.8 2.08c.16.23.25.57.36.84a4.67 4.67 0 0 1-.2 3.47 4.47 4.47 0 0 1-2.72 2.6c-.2.1-.47.17-.8.24l-.91.2c-.13.04-.37.06-.73.06a760.31 760.31 0 0 1-8.46 0 .06.06 0 0 1-.02-.04V19.06a.06.06 0 0 1 .02-.04.06.06 0 0 1 .04-.02h6.73c.45 0 1.1.05 1.97.12.34.03.6.08.8.15.26.09.7.2 1.03.35a4.53 4.53 0 0 1 2.36 2.74c.33.96.3 1.74-.05 2.67a4.27 4.27 0 0 1-2.25 2.39.05.05 0 0 0 0 .05l.03.02Zm-8.2-6.35-.02 5.42v.02h.03l5.15.03c.4 0 .8-.06 1.16-.18.37-.12.7-.3 1-.51.27-.22.5-.48.65-.77.16-.29.24-.6.24-.9v-.74c0-.63-.32-1.23-.89-1.68a3.63 3.63 0 0 0-2.15-.83h-5.14l-.01.11a.03.03 0 0 0-.02.02v.01Zm-.01 10.66a923.33 923.33 0 0 0 0 3.1l.03.1h4.11c1.11 0 2-.15 2.68-.31 1.29-.3 2.2-1.4 2.21-2.85 0-1.45-.9-2.56-2.19-2.87-.67-.16-1.56-.25-2.67-.26a623.85 623.85 0 0 0-4.15.01v.02l-.02 3.06Z"/><path d="M42.44 27.83a.05.05 0 0 0-.01.05v.02c.02 0 .02.01.03.02.16.05.51.21 1.06.49a4.23 4.23 0 0 1 1.96 1.9c.1.25.3.55.37.86.12.66.35 1.3.5 2.05.08.37.15.63.23.79l.2.5c.18.56.63 1.1 1.1 1.42.12.08.26.15.43.22.15.07.39.2.6.23.11.02.37.04.78.04.07 0 .14.03.2.09.05.05.1.13.11.21v.03a.34.34 0 0 1-.12.17.31.31 0 0 1-.19.06 26.57 26.57 0 0 1-5.02-.3l-.4-.39-.01-.02c-.16-.44-.4-.81-.47-1.3-.07-.53-.2-1-.34-1.71-.08-.42-.08-.88-.18-1.25l-.35-1.17a5.4 5.4 0 0 0-.45-1.13 3.2 3.2 0 0 0-1.27-1.22c-.4-.2-.72-.23-1.24-.33a6.57 6.57 0 0 0-2.8.06c-.06 0-.08-.01-.08-.06v-.57c0-.04.02-.06.06-.06.92.02 1.64-.1 3-.2.5-.04 1.09-.2 1.46-.33 1.08-.4 2-1.26 2.47-2.4.24-.59.18-1.38.13-2.03a3.52 3.52 0 0 0-1.77-2.51c-.24-.1-.41-.26-.63-.3-.13-.01-.48-.08-1.04-.2a5.07 5.07 0 0 0-1.06-.07c-2.33.03-4.92.03-7.78 0-.12 0-.17-.07-.14-.2 0-.12.06-.29.22-.29h8.39c.4 0 1.13.03 2.2.11.28.02.57.07.88.16.44.12.73.2.85.26 1 .38 2.16 1.24 2.53 2.32.07.2.23.53.28.81.1.62.09 1.36-.17 1.94-.11.24-.17.5-.3.72a4.23 4.23 0 0 1-1.74 1.63c-.64.33-1.59.63-2.41.83a.15.15 0 0 0-.07.05Z"/></svg>