<!-- by TradingView --><svg width="56" height="56" viewBox="0 0 56 56" fill="none" xmlns="http://www.w3.org/2000/svg">
<rect width="56" height="56" fill="#F0F3FA"/>
<path fill-rule="evenodd" clip-rule="evenodd" d="M16.0001 29.3823C16.005 36.045 22.1301 41 28.7807 41C36.9175 41 43.0001 34.3751 43.0001 25.927C43.0001 17.4789 35.7985 12 27.4057 12C15.3738 12 10.9991 22.4209 11 27.469C10.9991 27.9765 11.0238 28.6172 11.0873 29C12.1543 21.4886 17.1862 13.4 27.6451 13.4C35.1478 13.4 42.0001 19.123 42.0001 26.3257C42.0001 33.5283 36.7978 39.6 28.7807 39.6C22.3681 39.6 16.6048 35.759 16.6001 29.3823C16.5956 23.3572 21.6109 19 27.1997 19C31.3994 19 36.4001 21.8922 36.4001 26.6563C36.4001 31.5732 33.0437 34 28.7807 34C25.6348 34 22.6001 32.3438 22.6001 29.3823C22.6001 26.816 24.5673 25.5 27.1997 25.5C29.3524 25.5 30.8202 26.9544 31.5898 27.717C31.7613 27.8869 31.8981 28.0225 32.0001 28.1C32.0001 25.5375 29.8008 24 27.1997 24C23.7881 24 22.0001 26.3125 22.0001 29.3823C22.0001 32.4521 24.4688 35.4 28.7807 35.4C33.4825 35.4 37.0001 32.3931 37.0001 26.6563C37.0001 20.9194 31.9636 17.6 27.1997 17.6C20.7698 17.6 16.0001 22.711 16.0001 29.3823ZM39.9975 26.6178C39.9925 19.955 33.8662 15 27.2156 15C19.0788 15 13.0001 21.625 13.0001 30.0731C13.0001 38.5212 20.3735 44 28.7966 44C41.2494 44 44.9972 33.7046 45 28.6231C44.9972 28.0783 44.9762 27.4059 44.9089 27C43.8419 34.5115 39.185 42.6 28.7972 42.6C20.686 42.6 14.0001 36.8771 14.0001 29.6744C14.0001 22.4717 19.1985 16.4 27.2156 16.4C33.6282 16.4 39.3954 20.241 39.4001 26.6178C39.4046 32.6429 34.3854 36.6 28.7966 36.6C24.5969 36.6 19.6001 33.9993 19.6001 29.2353C19.6001 24.3184 23.2177 22 27.6688 22C30.8146 22 33.4001 23.4688 33.4001 26.6178C33.4001 29.1251 31.8377 30.4 28.7972 30.4C26.1648 30.4 24.5957 28.7188 24.0001 28C24.0001 30.6876 26.1961 32 28.7972 32C32.6214 32 34.0001 29.7042 34.0001 26.6178C34.0001 23.5313 31.7437 20.4 27.512 20.4C22.8102 20.4 19.0001 23.4985 19.0001 29.2353C19.0001 34.9722 24.0333 38 28.7972 38C35.2271 38 39.9975 33.289 39.9975 26.6178Z" fill="#F60809"/>
</svg>
