<!-- by TradingView --><svg width="56" height="56" viewBox="0 0 56 56" xmlns="http://www.w3.org/2000/svg"><path fill="#F0F3FA" d="M0 0h56v56H0z"/><path d="M25.1 14.08a7.18 7.18 0 0 1 1.83 4.05c.02.17.07.41.07.6a45326.75 45326.75 0 0 0-.02 7.26l-.02.01-6.47-.01a6.25 6.25 0 0 1-4.6-2.05A7.23 7.23 0 0 1 14 18.99a5033.96 5033.96 0 0 0 .02-6.98l.02-.01 6.73.01c.18 0 .4.06.56.08 1.42.2 2.74.9 3.76 2Zm.9 5.07a6.3 6.3 0 0 0-1.6-4.17 5.48 5.48 0 0 0-1.79-1.28 5.16 5.16 0 0 0-5.98 1.28 6.14 6.14 0 0 0-1.61 4.17c0 1.57.58 3.07 1.6 4.18a5.3 5.3 0 0 0 3.9 1.73 5.3 5.3 0 0 0 3.88-1.73 6.14 6.14 0 0 0 1.6-4.18ZM34.93 12.05c.13-.03.24-.04.32-.04a1987.39 1987.39 0 0 1 6.75.02v7.01c0 .96-.19 1.9-.56 2.8A6.49 6.49 0 0 1 35.5 26 7431.65 7431.65 0 0 1 29 26v-6.6c0-.52.02-.92.05-1.2a6.84 6.84 0 0 1 5.07-5.98c.3-.08.56-.1.81-.16Z" fill="#E80000"/><path d="m37.58 43.95-.14.02a3.7 3.7 0 0 1-.85 0c-.1 0-.39-.05-.85-.12a8.19 8.19 0 0 1-6.7-7.49c-.03-.27-.04-.67-.04-1.2v-8.13c0-.02.01-.03.03-.03h8.07c.81 0 1.64.16 2.48.47a8.36 8.36 0 0 1 5.3 6.78c.1.76.18 1.35.06 2.1-.04.24-.07.6-.12.86a8.42 8.42 0 0 1-2.59 4.68 7.72 7.72 0 0 1-4.65 2.06Zm-.2-2.2c-1.88.03-4.32-.48-4.7-2.85-.06-.31-.06-.7 0-1.18.05-.55.12-1.1.2-1.62.01-.02 0-.03-.02-.03h-1.42c-.02 0-.03 0-.03.03l-.22 1.96c-.03.24-.03.47 0 .68.33 3.1 3.12 4.32 5.71 4.29.86-.01 1.61-.1 2.27-.25 2-.48 3.85-1.86 3.75-4.3-.07-1.6-1.03-2.54-2.35-3.06-1.72-.67-3.42-.74-5.3-1.31a4.38 4.38 0 0 1-1.25-.6 2.04 2.04 0 0 1-.84-2.08c.22-1.22 1.34-1.89 2.39-2.12 1.85-.42 4.99-.16 5.41 2.4.03.18.03.42 0 .71a300.25 300.25 0 0 0-.16 1.53h1.42l.01-.03.15-1.25c.05-.37.06-.66.04-.88-.2-2.07-1.84-3.25-3.6-3.6a8.82 8.82 0 0 0-4.01.12c-1.81.48-3.47 1.9-3.1 4.13.19 1.11.86 1.85 1.8 2.33.8.4 1.65.64 2.53.83.87.18 2.12.4 3.14.73.76.24 1.66.66 2.03 1.48.28.62.24 1.4-.05 2-.69 1.46-2.4 1.9-3.8 1.93ZM19.62 43.95a3.82 3.82 0 0 1-1 .03c-.14-.01-.42-.06-.84-.13a8.14 8.14 0 0 1-6.62-6.73 8.66 8.66 0 0 1 .72-5.45A8.02 8.02 0 0 1 19.44 27a9532.15 9532.15 0 0 1 7.55 0v8.53c0 2.8-1.25 5.35-3.42 6.92a7.74 7.74 0 0 1-3.95 1.5Zm-.4-2.2c-1.88.03-4.32-.48-4.7-2.85-.06-.31-.06-.7 0-1.18.05-.55.12-1.1.2-1.62.01-.02 0-.03-.02-.03h-1.42c-.02 0-.03 0-.03.03l-.22 1.96c-.03.24-.03.47-.01.68.33 3.1 3.13 4.32 5.73 4.29.85-.01 1.6-.1 2.26-.25 2-.48 3.85-1.86 3.75-4.3-.06-1.6-1.02-2.54-2.35-3.06-1.72-.67-3.42-.74-5.3-1.31a4.39 4.39 0 0 1-1.25-.6 2.03 2.03 0 0 1-.84-2.08c.22-1.22 1.34-1.89 2.4-2.12 1.84-.42 4.98-.16 5.4 2.4.04.18.04.42 0 .71a313.68 313.68 0 0 0-.16 1.53h1.43v-.03l.16-1.25c.05-.37.06-.66.04-.88-.2-2.07-1.84-3.25-3.61-3.6a8.83 8.83 0 0 0-4.01.12c-1.81.48-3.47 1.9-3.1 4.13.18 1.11.86 1.85 1.8 2.33.8.4 1.65.64 2.53.83.87.18 2.12.4 3.14.73.77.24 1.66.66 2.03 1.48.28.62.24 1.4-.04 2-.7 1.46-2.41 1.9-3.8 1.93Z" fill="#002BFF"/></svg>