<!-- by TradingView --><svg xmlns="http://www.w3.org/2000/svg" width="56" height="56" viewBox="0 0 56 56"><path fill="#F0F3FA" d="M0 0h56v56H0z"/><path d="M46.83 31H45l1.34-6h1.88l1.22 3.3.76-3.3H52l-1.37 6h-1.88l-1.13-3.32-.79 3.32z" fill="#0061A7"/><path fill-rule="evenodd" d="M4.5 30.28l.96-4.63a.4.4 0 0 0-.28-.43l.09-.22h2.57c.71 0 1.52.59 1.52 1.31 0 .8-.61 1.47-1.4 1.5h-.1c.7.06 1.22.65 1.22 1.35 0 1-.8 1.84-1.78 1.84H4v-.23c.13 0 .42-.12.5-.5zm2.28-4.82l-.45 2.25c1.2-.07 1.65-.47 1.7-1.3.06-.85-.3-1.16-.74-1.14-.35 0-.48.13-.5.2zm-1.1 4.88L6.23 28h.65c.79.13.85.98.78 1.4-.24 1.4-1.29 1.33-1.65 1.3h-.02c-.28-.01-.32-.25-.3-.36zM11.75 29.98c-.14.34-.62 1.02-1.36 1.02-.91 0-.95-.84-.98-1.33v-.02c-.02-.48.76-2.63 2.34-2.65.18 0 .52.13.52.56l.38-.56h.76l-.76 2.84c-.06.18-.13.54.08.57.22.04.38-.14.43-.23l.16.16c-.18.22-.63.66-.98.66-.43 0-.77-.13-.59-1.02zm-1.07-1.22c.13-.45.6-1.38 1.14-1.4.54-.03.34 1.01.18 1.53-.14.52-.59 1.54-1.23 1.53-.57-.01-.3-.95-.14-1.48l.05-.18z" fill="#0061A7"/><path d="M14.36 27.68c-.22 1.04-.74 3.32-.74 3.32h.99c.25-1.92 1.46-3.4 1.77-3.42.25 0 .24.26.2.4-.18.54-.56 1.72-.65 2.1-.11.48.04.92.64.92.49 0 .89-.41 1.03-.62l-.11-.2c-.18.2-.36.25-.43.25-.42-.06.25-1.16.54-2.5.07-.3.03-.89-.67-.93-.7-.04-1.52 1-1.84 1.52l.27-.98c.07-.21.17-.27.2-.27V27h-1.45v.23c.27.08.28.33.25.45zM19.2 25.6L18 31h1.05l.25-1.56c.07-.25.32-.37.44-.4.02.58.55 1.96 1.23 1.96.54 0 .83-.45.9-.68-.03-.05-.13-.17-.16-.17-.07.22-.24.25-.3.24-.53-.1-.8-1.42-.86-2.07l1.24-1.12H22V27h-1.32v.2c.28.05.25.23.2.31l-1.41 1.26.87-3.77h-1.5v.25c.32.04.37.24.35.34z" fill="#0061A7"/><path d="M24.06 30.39l3.92-2.11 3.98 2.1L31 31l-3.02-1.78L25 31l-.94-.61zm1.94 1l2.04-1.02L30 31.4l-.98.61-.98-.61L27 32l-1-.61z" fill="#AD8E6C"/><path d="M24 30.45V26.2l4-2.2 4 2.2v4.25L31 31v-4.31l-3-1.65-3 1.65V31l-1-.55zm2 1.02v-4.33L28 26l2 1.14v4.33L29 32v-4.31l-1-.65-1 .65V32l-1-.53z" fill="#0061A7"/><path fill-rule="evenodd" d="M34 31h4.04c.6-.02 1.78-.44 1.78-1.9 0-.39-.2-1.19-.9-1.34A1.43 1.43 0 0 0 40 26.32c0-.97-.72-1.28-1.08-1.32h-3.66L34 31zm2.67-4.66l-.25 1.02h1.34a.5.5 0 0 0 .5-.51.5.5 0 0 0-.5-.51h-1.09zm-.43 2.12l-.3 1.22h1.6a.6.6 0 0 0 .59-.6.6.6 0 0 0-.6-.62h-1.29z" fill="#0061A7"/><path d="M42.86 31h-1.7l.9-4.47H40.5l.29-1.53h4.71l-.29 1.53h-1.5L42.85 31z" fill="#0061A7"/><path d="M34.9 32.87L52 32v.46L33 35c.1-1.6 1.3-2.08 1.9-2.13z" fill="#DC0714"/></svg>