<!-- by TradingView --><svg xmlns="http://www.w3.org/2000/svg" width="56" height="56" viewBox="0 0 56 56"><path fill="#FFBE00" d="M0 0h56v56H0z"/><path d="M17.87 37h5.09a2.85 2.85 0 0 1-1.98-1.31L17.87 37z" fill="#fff"/><path fill-rule="evenodd" d="M18.67 19H7c1.89.67 2.01 2.07 2 2.68v12.46A3 3 0 0 1 7 37h11.38c2.36 0 6.28-1.3 6.28-4.59 0-3.16-3.38-4.49-4.94-4.76 2.1-.66 3.49-2.22 3.4-4.15-.07-1.55-3-3.64-4.45-4.5zm-4.27 1H12v7h2.4c4.54-.04 5.95-2.24 5.88-3.5-.15-2.93-4.06-3.53-5.88-3.5zM12 28h2.78c2.1-.04 6.65.66 6.82 4 .07 1.44-1.56 3.96-6.82 4H12v-8z"/><path d="M38.06 19h-5.49c1.93.51 2.42 1.72 2.43 2.26l1.02-.4A3 3 0 0 1 38.06 19z" fill="#fff"/><path d="M46.76 20.17L48 19v5.76C46.26 20.23 43.2 20 41.45 20c-5.5 0-7.45 5.41-7.45 7.82 0 3 2.51 8.18 7.45 8.18 3.96 0 6.02-3.13 6.55-4.83V37l-1.24-1.3a11.78 11.78 0 0 1-5.3 1.3c-7.91-.26-10.27-6.23-10.46-9.18.75-7.23 7.18-8.82 10.45-8.82 2.62 0 4.64.78 5.31 1.17z"/><path d="M22.54 19h-4.5c1.87.93 2.06 2.46 1.96 3.11v12.57c.44-.25.9-.8 1-.96V22.37L36 37V22.57c-.22.26-.85 1.1-1 1.54v7.63L22.54 19z" fill="#fff"/></svg>