<!-- by TradingView --><svg xmlns="http://www.w3.org/2000/svg" width="56" height="56" viewBox="0 0 56 56"><path fill="#00AAF2" d="M0 0h56v56H0z"/><path d="M45 25a12 12 0 0 1-10.23 11.87 12.5 12.5 0 0 0-12.16-17.88A12 12 0 0 1 45 25Zm-23.12-6h-.51A12.52 12.52 0 0 0 11 31.42C11 38.37 16.53 44 23.36 44c4.53 0 8.49-2.48 10.64-6.19l-.05-.19c-.58.96-2.58 2.87-6 2.87a7.04 7.04 0 0 1-6.98-6.98c0-2.66 2-5.05 3-5.92-1.67.64-5.01 2.97-5.01 7.2 0 .37.1 1.3.38 2.1a7.6 7.6 0 0 1-1.33-4.59c0-8.52 10.15-10.97 15.06-4.9l-.2-.32c-1.23-1.81-3.33-4.92-8.28-4.92-4.9 0-9 2.94-10.46 8.85-.86-3.02-.52-9.66 7.75-12.01Z" fill="#fff"/></svg>