<!-- by TradingView --><svg xmlns="http://www.w3.org/2000/svg" width="56" height="56" viewBox="0 0 56 56"><path fill="#F0F3FA" d="M0 0h56v56H0z"/><ellipse cx="28" cy="28" rx="21" ry="12" fill="#00016A"/><path d="M22.72 36.14c-.7-.12-2.23-1.05-2.82-3.88-.01-.41-.2-1.33-.82-1.68-.78-.43-1.24-1.76-1.05-2.34.06-.19.14-.35.21-.5.16-.3.28-.54.08-.8-.19.06-.61.05-.8-.36-.2-.47-.23-.48-.62-.66l-.14-.07c-.52-.26-1.03-.58-1-.9 0-.1-.03-.2-.08-.36a4 4 0 0 1-.03-2.25c.16-.43.97-1.66 2.9-3.14.36-.23.82-.67-.23-.58-.88.07-1.32.2-1.49.28a7.43 7.43 0 0 1 1.72-.78c.6-.14.9-.23 1-.26.01-.21.15-.62.54-.53.39.08.16.28 0 .36a3.8 3.8 0 0 1 1.24-.36c.37 0 .3.35.21.53.3-.01.88.02.83.26.16-.21.6-.64 1.03-.64.28 0 .26.19.17.38.18-.25.44-.53.65-.53.1 0 .35-.05.66-.1.79-.14 2-.35 2.52-.16.57.2-.4 1.33-.97 1.87a2.6 2.6 0 0 0-1.52.8c-.19 0-.45-.15 0-.8l.29-.4c.4-.56.62-.85.05-.85-.56 0-.8.83-.86 1.25-.23.22-.76.6-1 .45-.23-.15.16-.7.39-.95-.2.18-.68.56-1.1.65l-.33.05c-.53.06-1.19.14-1.02.85.17.71.97-.1 1.35-.6.17-.1.5-.15.44.35-.02.19.01.35.04.5.05.33.1.55-.48.74-.66.23-2.5 1.62-3.35 2.29-.09.16-.3.6-.46 1.03-.15.43-.18-.3-.17-.73-.4-.06-1.28-.02-1.66.6-.49.77-.17 1.42.48.77.52-.51.22.23 0 .67h.5c-.16.4-.32 1.16.4.97.91-.24 1.8-.2 1.94 0l.08.12c.14.22.35.55.9.57.1.01.3.15.33.6.03.45.98.65 1.45.7.25.08.65.41.28 1.07-.1.28-.28.97-.28 1.4 0 .43-.4.6-.6.62a4.74 4.74 0 0 1-.55 1.9c-.43.57-.22 1.89.75 2.58z" fill="url(#a40smsqqs)"/><path d="M23.13 38.74c.17.86 2.06 1.09 3 1.1h3.94c.53-.22 1.98-.64 3.46-.66 1.49-.02 1.7-.68 1.61-1.01-.24-.13-.92-.41-1.75-.53-.83-.12-1.7.19-2.04.36.21-.14.3-.4.33-.5-.23-.3-.97-.22-1.3 0-.27.16-2.04.26-2.9.29l-.55.67c.12.1.3.33 0 .55-.3.22-1.06-.16-1.4-.38.04-.23-.03-.73-.6-.84a.78.78 0 0 1-.64-.87c-.8.66.1 1.1.64 1.25h-1.45l.62.46h-.97c-.07-.32-.16-.76 0 .1z" fill="url(#b40smsqqs)"/><path d="M39.83 33.65c.16-.23.53-.8.7-1.24.22-.55.47-.88 1.4-1 .14-.27.51-.86.9-.95.18-.04.35-.13.5-.21.24-.14.42-.24.52-.02.07.14 0 .28-.07.4-.09.18-.17.33.18.44.18-.18.55-.63.55-.97.08.4.15 1.43-.21 2.3-.45 1.1-1.69 2.19-2.14 2.17a2.4 2.4 0 0 1-.71-.13c.18-.17.47-.61.21-1.02-.48.15-1.53.42-1.83.23z" fill="url(#c40smsqqs)"/><path d="M42.89 26.3c-.3-.36-.71-.98-.88-1.24.11.5.38 1.55.57 1.84.24.35.7-.15.3-.6zM44.2 28.4c-.31 0-.75-.34-.93-.51l.94 1.12.27.52c.37 0 .51.11.54.17.5.61.4.14.29-.17.2.09.45-.36.55-.6-.21.15-.64.39-.68.18-.04-.27-.58-.7-.97-.7z" fill="#EFC04A"/><path d="M42.8 27.89c0 .34-.03 1.05-.22 1.12-.24.1-.26-.76.22-1.12z" fill="url(#d40smsqqs)"/><path d="M42.01 28.78c.43-.6.18-1.42 0-1.75 0 .2-.52.76-.79 1-.13.65.47.77.8.75z" fill="#EFC04A"/><path d="M34.06 29.96a1.9 1.9 0 0 0-.95 1.81c.32-.05.95-.48.95-1.8z" fill="url(#e40smsqqs)"/><path d="M40.61 28.97c.56.76 1.89.75 2.28.75h.1c-2.15-.26-2.48-1.45-2.38-2.02-.2-.54-.59-1.64-.59-1.72 0-.08.46.42.69.68.34-.19.35-.59.31-.76-.38-.35-1.04-1.05-.6-1.12.54-.09 1.3-1.08.29-1.86-.81-.62-1.07-1.12-1.1-1.3.2.08.7.31 1.1.63.4.32.32.02.23-.17-.82-.49-.95-1.1-.92-1.34-.44-.96-1.56-1.26-2.14-1.42l-.24-.06c-.35-.12-.34-.76-.3-1.07l2.27 1.2-1.75-1.3c-1.51-.93-2.66-.96-3.04-.86v.23h-3.48v.94c0 .11-.77.62-1.15.86v-.34c0-.08-.13-.29-.64-.41-.51-.13-.74.37-.78.63l-.47.63.6.55c.22-.05.6-.24.41-.55a.43.43 0 0 1 .14-.63c-.22.44.17.66.4.72-.14.82-.78.71-1.08.56l-.53.56-.55-1-.65.6.8 1.4c-.3-.16-.88-.29-.8.48.07.76.72.47 1.04.22.21-.62.64-.81.83-.83l.93.72-.53-.81c.33.15.92.84 1.17 1.16l.08-.54c.5.62 1.05.62 1.26.54v.68a2.93 2.93 0 0 1-1.63-.33v.43c-.53-.12-.75-.37-.93-.58-.07-.08-.13-.15-.2-.2-.2-.15-1.1.06-1.54.2-.45.26-1.4 1.03-1.56 1.93-.2 1.14.17 2.46 1.56 2.31 1.11-.11 1.6.18 1.7.34-.12.2-.27.66.1.92.45.33.43 1.3.29 1.42-.11.1-.16.33-.17.43.04.83.47 2.08.68 2.6.91.2 1.7-.85 1.98-1.4l.25-.78c.29-.06.81-.36.61-1.17-.2-.8.14-1.29.34-1.43.97-.85 1.07-1.65 1-1.95l-.81.18-1.67-2.29.16-.18 1.51 2.12a1.73 1.73 0 0 0 1.53-1.4l-1.04-.34c-.46-.39-.52-.65-.49-.73.15.23.7.7 1.64.73 1 .03 1.43.84 1.87 1.65l.24.44c.43.74.74.7.84.6l-.44-1.33.88-1.11 1.35 1.66c-.04.42.26.96.42 1.17l-.68-.26c.12.29.5 1.03 1 1.72z" fill="url(#f40smsqqs)"/><path d="M40.54 20.63l1.42 1.5-.4.83-.4-.57.2-.43c-.38-.36-1.08-1.12-.82-1.33z" fill="#EFC04A"/><defs><linearGradient id="a40smsqqs" x1="38.17" y1="20.07" x2="18.6" y2="26.51" gradientUnits="userSpaceOnUse"><stop stop-color="#EFC04A"/><stop offset=".56" stop-color="#F1E24A"/><stop offset="1" stop-color="#DEBA46"/></linearGradient><linearGradient id="b40smsqqs" x1="38.17" y1="20.07" x2="18.6" y2="26.51" gradientUnits="userSpaceOnUse"><stop stop-color="#EFC04A"/><stop offset=".56" stop-color="#F1E24A"/><stop offset="1" stop-color="#DEBA46"/></linearGradient><linearGradient id="c40smsqqs" x1="38.17" y1="20.07" x2="18.6" y2="26.51" gradientUnits="userSpaceOnUse"><stop stop-color="#EFC04A"/><stop offset=".56" stop-color="#F1E24A"/></linearGradient><linearGradient id="d40smsqqs" x1="38.17" y1="20.07" x2="18.6" y2="26.51"><stop stop-color="#EFC04A"/></linearGradient><linearGradient id="e40smsqqs" x1="38.17" y1="20.07" x2="18.6" y2="26.51" gradientUnits="userSpaceOnUse"><stop stop-color="#EFC04A"/><stop offset=".56" stop-color="#F1E24A"/></linearGradient><linearGradient id="f40smsqqs" x1="38.17" y1="20.07" x2="18.6" y2="26.51" gradientUnits="userSpaceOnUse"><stop stop-color="#EFC04A"/><stop offset=".56" stop-color="#F1E24A"/><stop offset="1" stop-color="#DEBA46"/></linearGradient></defs></svg>