<!-- by TradingView --><svg width="56" height="56" viewBox="0 0 56 56" xmlns="http://www.w3.org/2000/svg"><path fill="#F0F3FA" d="M0 0h56v56H0z"/><path fill-rule="evenodd" d="M23 18.61 10 41h36L33 18.61V10H23v8.61Zm0 2.14L18.29 29H23v-8.25ZM13.07 40H23v-4.8L13.07 40ZM24 40v-5.29l3-1.45V29h-3V19l4-7 4 7v10h-3v4.26l3 1.45V40h-8Zm9 0h9.93L33 35.2V40Zm4.71-11L33 20.75V29h4.71ZM32 16.89V11h-3.42L32 16.89ZM27.42 11 24 16.89V11h3.42ZM24 33v-3h1.03c.21 0 .39.04.53.13.15.08.26.2.33.35.07.15.11.32.11.51 0 .2-.04.37-.11.52a.84.84 0 0 1-.33.35c-.15.08-.32.13-.54.13h-.52V33H24Zm.96-1.46h-.46v-1.09h.45a.6.6 0 0 1 .3.07c.09.05.15.11.18.2.04.07.06.17.06.27 0 .11-.02.2-.06.29a.43.43 0 0 1-.17.19.59.59 0 0 1-.3.07ZM21.5 30v3h.5v-1.01h.54c.22 0 .4-.05.54-.13.15-.09.26-.2.34-.35.07-.15.1-.32.1-.52 0-.19-.03-.36-.1-.5a.83.83 0 0 0-.33-.36 1.04 1.04 0 0 0-.54-.13H21.5Zm.5 1.54v-1.09h.47c.13 0 .23.03.3.07.09.05.15.11.19.2.04.07.05.17.05.27 0 .11-.01.2-.05.29a.43.43 0 0 1-.18.19.6.6 0 0 1-.3.07h-.47ZM19 33v-3h1.07c.2 0 .36.03.5.1.13.07.23.16.3.28.06.12.1.25.1.4a.7.7 0 0 1-.07.31.58.58 0 0 1-.17.21.72.72 0 0 1-.25.12v.03c.1 0 .2.03.28.1.1.05.17.14.23.24.06.11.09.24.09.4 0 .15-.04.29-.1.41a.73.73 0 0 1-.32.3c-.14.06-.32.1-.53.1H19Zm.5-.45h.55c.18 0 .31-.04.4-.12a.38.38 0 0 0 .11-.29.48.48 0 0 0-.06-.24.43.43 0 0 0-.17-.17.54.54 0 0 0-.27-.06h-.56v.88Zm0-1.27h.5c.09 0 .17-.02.24-.06a.4.4 0 0 0 .22-.37.39.39 0 0 0-.11-.29c-.08-.07-.19-.11-.34-.11h-.5v.83ZM35 30v3h.5v-1.01h.52c.22 0 .4-.05.54-.13.14-.09.25-.2.33-.35.07-.15.11-.32.11-.52 0-.19-.04-.36-.11-.5a.83.83 0 0 0-.33-.36 1.02 1.02 0 0 0-.53-.13H35Zm.5 1.54h.46c.12 0 .22-.02.3-.07a.43.43 0 0 0 .17-.2.66.66 0 0 0 .06-.28c0-.1-.02-.2-.06-.28a.41.41 0 0 0-.17-.19.6.6 0 0 0-.3-.07h-.46v1.09ZM32.5 33v-3h1.05c.21 0 .39.04.54.13.14.08.25.2.33.35.07.15.1.32.1.51 0 .2-.03.37-.1.52a.84.84 0 0 1-.34.35c-.14.08-.32.13-.54.13h-.53V33h-.5Zm.5-2.55v1.09h.47a.6.6 0 0 0 .31-.07.43.43 0 0 0 .18-.2.65.65 0 0 0 .05-.28c0-.1-.01-.2-.05-.28a.41.41 0 0 0-.18-.19.61.61 0 0 0-.31-.07h-.46ZM30 30v3h1.13c.2 0 .39-.04.53-.1a.73.73 0 0 0 .31-.3c.07-.12.1-.26.1-.42a.81.81 0 0 0-.08-.39.66.66 0 0 0-.23-.25.57.57 0 0 0-.28-.1v-.02c.1-.03.17-.07.25-.12a.58.58 0 0 0 .17-.2.7.7 0 0 0 .07-.32.79.79 0 0 0-.1-.4.69.69 0 0 0-.3-.28 1.1 1.1 0 0 0-.5-.1H30Zm1.05 2.55h-.55v-.88h.56c.1 0 .2.02.27.06.07.04.13.1.17.17.04.07.06.15.06.24 0 .12-.04.22-.12.3-.08.07-.21.1-.4.1ZM31 31.28h-.5v-.83h.51c.15 0 .26.04.34.11.07.08.11.17.11.29 0 .09-.02.16-.06.23a.4.4 0 0 1-.16.14.53.53 0 0 1-.24.06Z" fill="#3E4095"/></svg>