<!-- by TradingView --><svg width="56" height="56" viewBox="0 0 56 56" xmlns="http://www.w3.org/2000/svg"><path fill="#ED1C24" d="M0 0h56v56H0z"/><path d="M15.02 24c-1.9 1.35-3.02 3-3.02 4.8 0 4.53 7.16 8.2 16 8.2s16-3.67 16-8.2c0-1.8-1.12-3.45-3.02-4.8l-1.02 1.18C41.62 26.35 42 27.63 42 28.8c0 4.7-9.67 6.2-14 6.2-4.54 0-14-1.5-14-6.2 0-1.17.38-2.45 2.04-3.62L15.02 24Z" fill="#fff"/><path d="M12.51 20C9.7 22.22 8 25.05 8 28.14 8 35.24 16.95 41 28 41s20-5.76 20-12.86c0-3.09-1.7-5.92-4.51-8.14l-1.05 1.34c2.55 2 3.56 4.4 3.56 6.8C46 36.64 34.37 39 28 39c-6.37 0-18-2.37-18-10.86 0-2.4 1-4.8 3.56-6.8L12.51 20Z" fill="#fff"/><path fill="#fff" d="M25 22h1v1h-1zM27.5 22h1v1h-1v-1ZM30 22h1v1h-1zM28 37l.33.63.67.13-.47.53.09.71-.62-.3-.62.3.09-.71-.47-.53.67-.13L28 37ZM23.18 36.6l.23.7.63.26-.54.45-.03.73-.56-.42-.66.2.2-.71-.37-.62h.68l.42-.58ZM18.36 35l.05.73.55.43-.63.28-.21.7-.44-.57H17l.36-.62-.21-.7.66.18.55-.43ZM32.88 36.6l-.22.7-.64.26.55.45.03.73.56-.42.66.2-.2-.71.37-.62h-.68l-.43-.58ZM37.7 35l-.04.73-.55.43.63.28.2.7.45-.57h.68l-.36-.62.2-.7-.65.18-.55-.43Z"/><circle cx="33.5" cy="27.5" r=".5" fill="#fff"/><circle cx="37.5" cy="27.5" r=".5" fill="#fff"/><path d="M37 25.18c-.46.52-1.15.84-1.93.84-.86 0-1.62-.4-2.07-1.02v1c.44.6 1.17 1 2 1 .83 0 1.56-.4 2-1v-.82Z" fill="#fff"/><path fill-rule="evenodd" d="M21.9 25c-.5 0-.9.34-.9.77V32l4.32-5.87L24.5 25h-2.6Zm3.94 0 4.36 6.73 1.43-2.57-2.6-4.16h-3.2Zm4.55 0L35 32v-6.23c0-.43-.4-.77-.9-.77h-3.7Zm1.95 5.18 1.71 2.38c.56.77 1.95.43 1.95-.47v-6.3c0-.99-.94-1.79-2.1-1.79H22.1c-1.16 0-2.1.8-2.1 1.79v6.31c0 .9 1.39 1.24 1.95.48l1.74-2.4 1.38 2.42c.18.27.49.4.8.4.3 0 .6-.13.78-.38l1.4-2.35 1.39 2.36c.17.25.47.37.76.37.3 0 .62-.13.79-.39l1.35-2.43Zm-5-.9L26 27.15l-1.59 2.04 1.46 2.52 1.47-2.43Z" fill="#fff"/><path d="m36.72 16.7.11-.25 3.99 1.82c-.26.6-.66 1.88-.66 1.88l-.47-.21c.08-.19.13-.41.17-.61.07-.4-.01-.72-.26-.95a5.01 5.01 0 0 0-.75-.43l-.44-.2-.37.8-.37.8.1.05c.26.11.46.14.6.08.13-.05.25-.2.38-.45l.07-.14.23.1.24.11-.48 1.06-.49 1.05-.23-.1-.24-.1.06-.15c.1-.26.14-.45.1-.58-.05-.14-.2-.27-.46-.38l-.1-.05-.37.8-.37.8.45.2.44.2-.12.24-.11.25-.1-.04-.7-.33c-.41-.2-.8-.37-1.17-.52l-.63-.27-.09-.04.12-.25.11-.24.36.15.35.16.85-1.85.84-1.84-.35-.16-.35-.16.1-.25ZM32.67 15.4l.1.01.68.18c.4.1.8.2 1.2.28l.7.15.09.02-.13.53-.8-.19-.97 4 .8.18-.13.53-.1-.02-.68-.18c-.4-.1-.8-.2-1.2-.28l-.7-.15-.08-.02.13-.53.8.19.96-4-.8-.18.13-.53ZM26.47 15.27l.02-.27 1.62.08 1.72.1c.33.03.62.13.87.27.24.15.41.35.53.6a1.29 1.29 0 0 1 .06.7c-.06.24-.18.43-.36.58-.2.15-.42.26-.69.31l-.08.02.05.01c.45.1.78.3.98.57.11.17.19.35.22.55V19c0 .2-.06.41-.17.6-.23.41-.62.65-1.16.72l-.11.01c-.13.02-.8 0-2.02-.07l-1.73-.09.01-.27.02-.27.38.02.4.02.1-2.05.1-2.05-.38-.02-.4-.02.02-.27Zm3.25.46-.05-.02-.66-.04-.66-.03-.04.85-.04.87.51.02c.36.02.56.03.58.02.37-.02.6-.22.71-.6l.01-.04c.04-.13.05-.26.04-.39-.03-.33-.16-.55-.4-.64Zm.01 2.18-.05-.02-.72-.04-.72-.03-.05.96-.05.96.64.03c.48.02.76.02.84 0 .32-.09.5-.34.55-.75l.01-.19c0-.18-.02-.33-.06-.46a.71.71 0 0 0-.39-.46ZM22.01 15.55l.1-.01.7-.06 1.23-.13.7-.08.1-.01.05.54-.81.08.43 4.08.81-.08.06.54-.1.01-.7.06-1.23.12-.7.1h-.1l-.05-.54.81-.09-.43-4.07-.81.08-.06-.54ZM15 18.17l.09-.03a621.82 621.82 0 0 0 1.74-.72l.62-.27.09-.04.21.5-.71.3.78 1.83.04-.08.58-1.32.56-1.25-.4.17-.21-.5.07-.04a624.78 624.78 0 0 0 1.41-.57l.36-.16.05-.02.21.5-.77.32-.86 1.95 1.35.87 1.35.87.66-.28.22.5-.07.03-.52.2-1 .42-.65.28-.08.04-.22-.5.22-.09.21-.1-.96-.6-.96-.62-.15.33-.15.32.55 1.28.71-.3.22.5-.09.04-.64.25-1.1.46-.62.27-.09.04-.21-.5.71-.3-1.62-3.78-.71.3-.22-.5Z" fill="#fff"/></svg>