<!-- by TradingView --><svg width="56" height="56" viewBox="0 0 56 56" xmlns="http://www.w3.org/2000/svg"><path fill="#BB5E42" d="M0 0h56v56H0z"/><path d="M18.07 18.88c1.68-1.95 4.66-1.5 5.9.69.04.06.11.12.21.17a.13.13 0 0 0 .13-.02.12.12 0 0 0 .05-.12 3.38 3.38 0 0 1 6.19-2.53c.46.7.57 1.56.32 2.58-.02.08.01.14.09.17.07.04.16.04.26 0 .05-.02.1-.06.13-.12 1.36-2.54 4.91-2.62 6.17.06a.11.11 0 0 0 .1.06.12.12 0 0 0 .1-.06c.43-.87 1.29-2.68 2.58-5.41.3-.62 1.24-1.19 1.99-.8 1.03.55.72 1.94.42 2.83-.86 2.55-1.74 5.1-2.64 7.62a.23.23 0 0 0 0 .11c0 .04.01.08.04.11.65.85 1.13 1.68 1.13 2.73 0 1.23-1.04 2.35-2.17 2.88a.33.33 0 0 0-.14.13.32.32 0 0 0-.04.17c.03 1.34.19 2.77.47 4.3.3 1.65.82 4.01 1.56 7.1.37 1.58-1.45 2.38-2.41 1.14a8.26 8.26 0 0 1-.9-1.6c-.3-.68-1.2-2.61-2.69-5.8-.17-.36-.29-.35-.36.04l-1.14 5.9a6.82 6.82 0 0 1-.7 1.93c-.15.29-.35.5-.62.64-1.38.73-2.1-.52-2.37-1.62l-1.67-6.79a.66.66 0 0 0-.16-.33.13.13 0 0 0-.14-.02.14.14 0 0 0-.09.1c-.49 2.73-.89 5.33-1.63 7.73-.15.47-.56 1-1.14 1.1-1.21.24-1.79-.63-2.01-1.65l-1.3-5.88a6.78 6.78 0 0 0-.55-1.52.14.14 0 0 0-.2.06l-.3.69c-1.5 3.49-2.42 5.63-2.78 6.43-.9 1.98-3.3 1.25-2.77-.94.59-2.44 1.1-4.86 1.53-7.29.2-1.16.23-2.62.15-3.8a.32.32 0 0 0-.19-.27c-2.28-1.1-3.55-3.56-1.3-5.58a.42.42 0 0 0 .13-.42 19.6 19.6 0 0 1 .22-11.34c.3-.93.84-1.63 1.96-1.4.8.18.8 1.1.72 1.84-.11 1.02-.21 1.84-.3 2.47-.11.86-.12 2.02 0 3.48 0 .15.06.17.16.05Zm3.27 14.85c.8.37 1.07 1.15 1.27 2 .2.81.34 1.46.43 1.94.09.48.15.48.17-.01.13-2.4.27-4.1.04-6.49a50.22 50.22 0 0 0-1.16-6.89.26.26 0 0 0-.28-.09 3.51 3.51 0 0 1-4.44-2.4c-.91-3.08-.83-5.9-.3-9.01.04-.22.05-.36.01-.44-.1-.23-.18-.23-.26 0a17.96 17.96 0 0 0 .15 12.72c.14.38.37.76.67 1.16.8 1.02 1.9 2.04.64 3.28l-.36.41a.3.3 0 0 0-.07.2c.07 1.75-.06 3.47-.4 5.15-.43 2.2-.88 4.31-1.35 6.34-.04.15-.02.3.05.45a.15.15 0 0 0 .12.08.15.15 0 0 0 .14-.07c.15-.24.27-.44.35-.61.6-1.28 1.6-3.59 2.96-6.91.22-.52.98-1.1 1.62-.8Zm11.32 5.16c.15-.6.37-1.68.64-3.23.12-.63.31-1.47 1-1.74.86-.35 1.36.2 1.7.97l2.97 6.33c.16.33.34.61.53.84a.15.15 0 0 0 .16.04.15.15 0 0 0 .1-.13c.02-.21.01-.4-.03-.55a83.22 83.22 0 0 1-1.83-8.97 13.9 13.9 0 0 1-.16-2.24.31.31 0 0 0-.07-.2c-.18-.24-.3-.38-.35-.43-.6-.62-.69-1.35-.26-2.19.2-.38.5-.76.93-1.14.12-.11.28-.36.33-.57.18-.68.34-1.22.48-1.6.94-2.56 1.84-5.12 2.7-7.7.18-.53.29-1.07.32-1.63a.18.18 0 0 0-.14-.18c-.05-.01-.1.01-.15.07-.22.31-.4.64-.56.98a100.82 100.82 0 0 1-3 6.09c-.97 1.76-1.89 2.82-3.96 2.68-.16 0-.38-.12-.57-.15-.09-.02-.14.02-.17.1a27.41 27.41 0 0 0-.95 7.6l.2 6.93c0 .4.05.4.14.02Zm-2.85-20.2c0-.57-.22-1.11-.63-1.52a2.19 2.19 0 0 0-3.07 0 2.12 2.12 0 0 0 0 3.02 2.19 2.19 0 0 0 3.07 0c.4-.4.63-.94.63-1.5Zm-6.73 2.25a2.04 2.04 0 0 0-.67-1.52 2.3 2.3 0 0 0-1.62-.63c-.61 0-1.2.23-1.63.63a2.1 2.1 0 0 0-.49 2.35 2.31 2.31 0 0 0 2.12 1.33c.61 0 1.2-.23 1.62-.63.43-.4.68-.96.67-1.53Zm13.52.09c0-.57-.23-1.1-.63-1.5a2.18 2.18 0 0 0-3.52.69 2.1 2.1 0 0 0 1.16 2.77 2.19 2.19 0 0 0 2.36-.46c.4-.4.63-.94.63-1.5Zm-9.4 12.8c.86-.5 1.65.2 1.88 1a161.7 161.7 0 0 1 1.71 6.88 3.42 3.42 0 0 0 .45 1.05.13.13 0 0 0 .11.01c.02 0 .04-.02.05-.03.04-.05.06-.12.06-.23a303.4 303.4 0 0 0-.31-6.74 57.37 57.37 0 0 1-.04-6c.1-1.7.43-3.72 1.02-6.06a.23.23 0 0 0-.05-.2c-.58-.7-.98-1.3-1.04-2.24a.42.42 0 0 0-.19-.33.44.44 0 0 0-.38-.06c-.45.14-.83.57-1.25.77-1.05.5-2.1.5-3.16 0-.45-.22-.76-.59-1.2-.82a.36.36 0 0 0-.54.3 3.04 3.04 0 0 1-1.01 2.2.27.27 0 0 0-.08.27c.69 2.71 1.13 5.48 1.32 8.28.12 1.7.06 4.6-.17 8.69-.05.91-.18 1.98.04 2.2.06.05.13.07.2.06a.33.33 0 0 0 .26-.2c.2-.52.38-1.13.52-1.83.45-2.09.82-4 1.13-5.73.08-.5.26-1 .68-1.24Zm-11.37-8.15c-.16-.35-.3-.34-.44.01l-.17.45c-.13.35-.1.7.08 1.03.39.68 1.27 1.7 2.05 1.47a.36.36 0 0 0 .23-.22.35.35 0 0 0-.04-.31c-.55-.82-1.23-1.37-1.71-2.43Zm23.67.24c0 .3-.05.67-.31.92-.54.5-1.37 1.17-1.09 1.75.12.25.3.3.53.18 1.34-.72 1.75-1.68 1.21-2.88-.03-.07-.1-.11-.2-.11s-.14.05-.14.14Z" fill="#fff"/></svg>