<!-- by TradingView --><svg width="56" height="56" viewBox="0 0 56 56" xmlns="http://www.w3.org/2000/svg"><path fill="#F0F3FA" d="M0 0h56v56H0z"/><path d="M45 28a17 17 0 0 1-32.75 6.42c1.66.35 3.36.58 4.95.58 8.65 0 12.8-5.33 13.8-8-1.41.87-5.44 2.6-10.21 2.6-4.57 0-8.3-1.39-9.79-2.14 1.07-1.1 2.6-2.46 4.15-2.46 1.23 0 3.28.3 5.5.62 2.62.37 5.48.79 7.52.79 3.77 0 7.95-.92 11.83-6.43-.9.24-3.82.73-8.36.73-3.38 0-7.5-.6-10.83-1.1a46.95 46.95 0 0 0-5.24-.61c-.63 0-1.35.06-2.09.15A16.99 16.99 0 0 1 45 28Z" fill="#ED1C24"/></svg>