<!-- by TradingView --><svg width="56" height="56" viewBox="0 0 56 56" xmlns="http://www.w3.org/2000/svg"><path fill="#F0F3FA" d="M0 0h56v56H0z"/><path fill-rule="evenodd" d="M28 18.7c-4.55-.01-8.16-.36-10.44-.69-.97-.14-1.86.84-1.65 1.8.52 2.38 1.07 6.1 1.07 10.53 0 4.85-1.04 9.21-1.9 11.84-.3.87.33 1.82 1.24 1.82h23.36c.91 0 1.54-.95 1.25-1.82-.87-2.63-1.9-7-1.9-11.84 0-4.43.54-8.15 1.06-10.52.2-.97-.68-1.95-1.65-1.8-2.28.32-5.9.67-10.44.68ZM23 25a1 1 0 1 0 0-2 1 1 0 0 0 0 2Zm11-1a1 1 0 1 1-2 0 1 1 0 0 1 2 0Zm-12 3.67c-.04-.37.29-.67.69-.67.4 0 .71.3.77.67A4.68 4.68 0 0 0 28 31.62c2.3 0 4.2-1.8 4.54-3.95a.8.8 0 0 1 .77-.67c.4 0 .73.3.69.67A6.1 6.1 0 0 1 28 33a6.1 6.1 0 0 1-6-5.33Z" fill="#0172FF"/><circle cx="30" cy="11" r="3" fill="#FFCD00"/><path d="M18.44 16.47c1.48.24 6.32.46 8.56.53l-1.27-3.99a1.45 1.45 0 0 0-1.8-.95l-4.89 1.44a1.45 1.45 0 0 0-.97 1.85l.37 1.12Z" fill="#FE4646"/><path d="M37 16.52c-2.33.3-6.3.45-8 .48 0-.24.33-.57.5-.7l5.69-3.14c.78-.43 1.81.05 1.81.85v2.5Z" fill="#00CDC8"/></svg>