<!-- by TradingView --><svg width="56" height="56" viewBox="0 0 56 56" xmlns="http://www.w3.org/2000/svg"><path fill="#F0F3FA" d="M0 0h56v56H0z"/><path d="M42 30c-5.5.87-18.42 5.49-26 17 3.57-4.03 13.78-13.06 26-17Z" fill="#E8BA40"/><path d="M37.51 27.55a12.86 12.86 0 0 1-9.55 4.23c-3.79 0-7.2-1.63-9.55-4.23a11.07 11.07 0 0 0 19.1 0ZM18.45 27.47A12.83 12.83 0 0 1 28 11c-3.8.03-7.48 2-9.52 5.51a10.97 10.97 0 0 0-.03 10.96ZM37.55 27.47A12.83 12.83 0 0 0 28 11c3.8.03 7.48 2 9.52 5.51a10.97 10.97 0 0 1 .03 10.96Z" fill="#2A486E"/></svg>