<!-- by TradingView --><svg xmlns="http://www.w3.org/2000/svg" width="56" height="56" viewBox="0 0 56 56"><path fill="#67686C" d="M0 0h56v56H0z"/><path d="M4 26v4h1.76c.18 0 .36-.02.51-.1.33-.15.73-.48.73-1.03 0-.7-.65-.92-.97-.93.27-.14.81-.44.81-1.02 0-.76-.64-.92-.9-.92H4zm1 .54c0-.08.07-.15.15-.15h.08c.36 0 .65.3.65.67 0 .38-.3.68-.65.68h-.08a.15.15 0 0 1-.15-.15v-1.05zm0 1.74c0-.1.07-.17.17-.17h.09c.4 0 .74.34.74.77 0 .42-.33.76-.74.76h-.1a.17.17 0 0 1-.16-.17v-1.19zM7.5 30l1.71-4h.54l1.75 4h-1l-.55-1.2H8.58L8.11 30H7.5zm1.2-1.48h1.12l-.6-1.31-.53 1.3zM27.7 30h.57l.37-1h1.44l.43 1h.94l-1.64-4h-.5l-1.6 4zm2.21-1.4H28.8l.52-1.4.6 1.4zm19.8-2.6h.53L52 30h-1l-.46-1H49l-.4 1H48l1.71-4zm-.56 2.6h1.2l-.65-1.4-.55 1.4zM12.2 26v2.7c0 .28-.04.93-.19 1.3h.58v-2.76L15.47 30H16v-4h-.35v2.87L12.72 26h-.53zm20 2.7V26h.53l2.93 2.87V26H36v4h-.53l-2.89-2.76V30H32c.15-.37.2-1.02.2-1.3zM17 26v4h1v-1.75L19.38 30h1.18l-1.77-2.25L20.56 26h-.78L18 27.75V26h-1zm9.9.84h-.31a1.42 1.42 0 0 0-1.08-.52c-.82 0-1.5.76-1.5 1.69 0 .93.68 1.68 1.5 1.68.2 0 .27-.04.4-.11l.09-.05V28h1v1.84h-.38a8.78 8.78 0 0 1-1.32.16c-1.27 0-2.3-.9-2.3-2s1.03-2 2.3-2h.1c.25 0 .93.03 1.5.37v.47zM37 26h2.5v.54H38v1.2h1.5v.53H38v1.2h1.5V30H37v-4zm3.18 3.73l.25-.77c.15.49 1.24 1.02 1.68.3.23-.39-.22-.64-.73-.92-.52-.29-1.1-.61-1.1-1.15 0-.9.8-1.19 1.45-1.19.53 0 .9.17 1.01.25l-.3.59c-.06-.17-.3-.51-.81-.51-.64 0-1 .65.15 1.18.96.45 1.18.91 1.18 1.17 0 1.08-1.12 1.32-1.56 1.32-.36 0-.97-.18-1.22-.27zM45 26h-1v4h1v-2h1.57v2h.93v-4h-.93v1.6H45V26z" fill="#fff"/></svg>