<!-- by TradingView --><svg width="56" height="56" viewBox="0 0 56 56" fill="none" xmlns="http://www.w3.org/2000/svg">
<rect width="56" height="56" fill="#F0F3FA"/>
<path fill-rule="evenodd" clip-rule="evenodd" d="M13.7598 18.8616L22.4 12.8352C24.2956 11.6666 26.2184 11.0001 28 11.0039C29.9997 11 31.4925 11.5871 33.6 12.929L42.2689 18.6129C44.005 19.7183 45.0001 21.551 44.9997 23.4375C45.0001 24.4206 44.7671 25.4182 44.2391 26.3351C43.7881 27.1185 43.3018 28.0059 42.7815 28.9555C41.3201 31.6228 39.5899 34.7806 37.6153 37.5C34.9375 41.1876 31.8337 45 28.0002 45C24.1668 45 21.2581 41.3345 18.5109 37.5C15.9728 33.9573 13.1939 29.119 11.6272 26.1613C11.1643 25.2873 11.0001 24.3527 11.0047 23.4375C11.0001 21.6315 12.0737 19.9011 13.7598 18.8616ZM28 20.0001C27.2487 19.9882 26.4959 20.3524 26 21.0343L20.3523 29.079C20.1157 29.4043 20.0011 29.7818 20 30.1563C19.9983 30.7242 20.2577 31.285 20.7484 31.6459C21.0834 31.8923 21.4741 32.0001 21.8594 31.9998C22.4103 32.0001 22.9503 31.7294 23.3007 31.2475L27.7534 25.1176C27.8145 25.0336 27.9073 24.9998 28 25.0001C28.095 25.0004 28.1899 25.037 28.25 25.1251L32.6793 31.213C33.0273 31.7228 33.5856 32.0001 34.1569 32.0001C34.5228 32.0001 34.8941 31.9118 35.2188 31.6876C35.7352 31.331 36 30.7387 36.0037 30.1406C36.0011 29.7758 35.8954 29.4088 35.6791 29.092L30 21.0938C29.5254 20.3987 28.75 20.012 28 20.0001Z" fill="#223F77"/>
</svg>
