<!-- by TradingView --><svg width="56" height="56" viewBox="0 0 56 56" xmlns="http://www.w3.org/2000/svg"><path fill="#F0F3FA" d="M0 0h56v56H0z"/><path d="M30.4 45H20l1.58-5h8.81v5Z" fill="#58585A"/><path d="M29 17h5.17l-2.36 6.55h-5.16L29 17Z"/><path d="M26.65 23.52h5.17L31.27 25h-5.16l.54-1.48Z" fill="#58585A"/><path d="M23.76 32H29l-1.96 5L23 33.97l.76-1.97Z" fill="#818285"/><path d="M29.42 40h3.83c.47 0 .92-.09 1.35-.21 1.07.82 2.83 2.14 4.43 3.32A9.73 9.73 0 0 1 33.25 45H22.62l6.8-5Z" fill="#00ADEF"/><path d="M33.3 39.98a4.74 4.74 0 0 0 4.7-4.7 4.73 4.73 0 0 0-2.95-4.33l1.16-4.8c3.4.6 6.79 4.8 6.79 9.13a9.7 9.7 0 0 1-4.74 8.34l-4.96-3.64Z" fill="#EF4C23"/><path d="M41.93 31A9.29 9.29 0 0 1 43 35.28c0 1.79-.48 3.46-1.33 4.9L39.4 32.7l2.53-1.7Z" fill="#ED1C24"/><path d="M37.82 34c-.59-1.94-2.44-3-4.57-3h-8.42c-.7 0-1.4-.07-2.07-.22l2.4-4.78h8.09c1.54 0 3-.07 4.3.56l1.86 6.15-1.6 1.28Z" fill="#F89A1C"/><path d="M32.62 11h-2.2l-1.68 5h5.41l-1.53-5Z" fill="#0095DA"/><path d="M34.07 16h.3l1.74-5h-3.8l1.76 5Z" fill="#ED1B24"/><path d="M31.01 11h-6.18a9.81 9.81 0 0 0-9.49 12.36h5.45a4.77 4.77 0 0 1-.79-2.57c0-2.63 2.18-4.79 4.83-4.79h4.75L31 11Z" fill="#0B4A81"/><path d="M23.97 31c-4.16-.36-7.57-3.74-8.63-7.64h5.45c.85 1.33 2.34 2.64 4.04 2.64h.79l-1.65 5Z" fill="#0095DA"/></svg>