<!-- by TradingView --><svg width="56" height="56" viewBox="0 0 56 56" fill="none" xmlns="http://www.w3.org/2000/svg">
<rect width="56" height="56" fill="#F0F3FA"/>
<path fill-rule="evenodd" clip-rule="evenodd" d="M28.0099 11.9981C18.8238 11.9981 11.9999 19.4243 12 28.0585C11.9999 36.695 19.422 44 28.0099 44C36.724 44 44.0018 36.5619 44 27.762C44 27.2119 43.7892 25.5155 43.543 25.1754C42.3194 26.4568 37.5977 33.8657 36.3036 35.8756L31.7386 42.5166C30.5871 43.0128 29.2486 43 28.0099 43C27.1615 43 25.6765 42.9117 25 42.7352C32.3533 33.117 35.4854 28.9918 38.6494 24.8162C39.5129 23.6767 40.5457 22.6759 41.712 21.8487C41.9799 21.6533 42.2478 21.5447 42.4361 21.3566C42.3377 21.0549 42.2092 20.7639 42.0523 20.488C41.8279 20.0393 41.8062 20.0538 41.3283 20.2275C39.5634 20.8626 37.9093 21.7712 36.4267 22.9199C31.1632 26.906 26.5978 30.6891 21.3892 34.7465C20.9213 35.1317 20.6324 35.3727 20 35.8756C20 34.1373 20 32.5824 20 30.9756C20 30.3136 20 30.296 20.9837 29.6076C24.359 27.2458 27.1256 25.2095 30.5259 22.8837C32.522 21.5184 34.4725 20.1477 36.7452 19.2721C38.0014 18.7652 39.2949 18.5859 40.5753 18.2081C40.3583 17.8518 40.0981 17.5236 39.8006 17.231C39.4898 16.9114 39.2368 16.7043 39.0272 16.7043C38.2512 16.7043 36.6483 17.2359 35.4854 17.535C32.2912 18.4169 24.1016 21.3025 20 23.2929C20 22.2046 20 21.1163 20 20.1456C25.2709 18.3063 29.9693 16.6153 35.5506 16.0368C36.4629 15.9422 37.3566 15.9313 38.2512 15.7979C38.1788 15.5157 36.7018 14.5748 36.4629 14.4228C33.8646 12.7915 31.0199 11.9981 28.0099 11.9981Z" fill="#CE2431"/>
</svg>
