<!-- by TradingView --><svg width="56" height="56" viewBox="0 0 56 56" xmlns="http://www.w3.org/2000/svg"><path fill="#F0F3FA" d="M0 0h56v56H0z"/><path d="M24 23v-8h-1l-8 8v1h8v8.2c0 1-.86 1.8-1.93 1.8h-6.14c-1.07 0-1.93-.8-1.93-1.8V14.82c0-1 .81-1.82 1.82-1.82H32.2c1 0 1.8.86 1.8 1.93v6.14c0 1.07-.8 1.93-1.8 1.93H24Z" fill="#0079B8"/><path d="M35 34v-8h-1l-8 8v1h8v8.2c0 1-.86 1.8-1.93 1.8h-6.14c-1.07 0-1.93-.8-1.93-1.8V25.82c0-1 .81-1.82 1.82-1.82H43.2c1 0 1.8.86 1.8 1.93v6.14c0 1.07-.8 1.93-1.8 1.93H35Z" fill="#0079B8"/></svg>