<!-- by TradingView --><svg width="56" height="56" viewBox="0 0 56 56" xmlns="http://www.w3.org/2000/svg"><path fill="#F0F3FA" d="M0 0h56v56H0z"/><path d="M8 27.92c0-5.33 10-6.14 15-5.88C10.64 22.82 8.95 29 9.64 32A6.46 6.46 0 0 1 8 27.92Z" fill="url(#a)"/><path d="M14.07 16 17 21.8c-.35 0-1.17.07-1.54.11l-1.4-1.66-1.2 2.32A10.1 10.1 0 0 0 10 24l4.07-8Z" fill="url(#b)"/><path d="M44 31.5c0-1.39 1.1-2.5 2.5-2.5 1.39 0 2.5 1.1 2.5 2.5S47.9 34 46.5 34 44 32.9 44 31.5Zm1 0c0 .78.67 1.49 1.5 1.49.82 0 1.5-.7 1.5-1.49 0-.77-.7-1.49-1.5-1.49-.81 0-1.5.72-1.5 1.49ZM38 31.41c0-1.35.84-2.41 2.28-2.41.67 0 1.4.22 1.72.65v-2.04c0-.34.23-.61.57-.61H43v6.88h-.54c-.24 0-.46-.19-.46-.42v-.31c-.33.55-1.14.85-1.77.85C38.8 34 38 32.74 38 31.41Zm1 0c0 .76.67 1.59 1.52 1.59.87 0 1.48-.82 1.48-1.6 0-.75-.64-1.4-1.47-1.4S39 30.66 39 31.41ZM33 34v-5h1v1.03c.26-.6.86-1.03 1.52-1.03.99 0 1.48.62 1.48 1.86V34h-.47c-.32 0-.53-.3-.53-.67v-2.3c0-.66-.23-1-.72-1-.84 0-1.28.87-1.28 1.6v1.7c0 .37-.2.67-.53.67H33ZM31.43 28c-.24 0-.43-.22-.43-.48V27h.57c.24 0 .43.22.43.48V28h-.57ZM31 29v4.46c0 .3.2.54.43.54H32v-4.46c0-.3-.2-.54-.43-.54H31ZM27.6 34a.6.6 0 0 1-.6-.6V29h.38c.33 0 .62.27.62.6v.68c.2-.65 1.1-1.28 1.77-1.28.05 0 .13 0 .23.02v1a1.7 1.7 0 0 0-.3-.02c-.86 0-1.7 1.16-1.7 2v2h-.4ZM24 32.24V30h-1v-1h1v-1h1v1h1v1h-1v2.1c0 .57.23.87.78.87.08 0 .16 0 .22-.02v1.02l-.37.03c-1.06 0-1.63-.6-1.63-1.76ZM18 33.3l.58-.79c.41.35.89.49 1.46.49.47 0 .96-.15.96-.44 0-.38-.85-.54-1.13-.63-.73-.23-1.67-.58-1.67-1.5 0-1.04 1.1-1.43 1.99-1.43.72 0 1.3.18 1.75.54l-.48.84a2.19 2.19 0 0 0-1.31-.38c-.48 0-.86.12-.86.42 0 .38.77.54 1.04.63.73.23 1.67.56 1.67 1.48 0 1.04-1.08 1.47-1.96 1.47-.83 0-1.51-.23-2.04-.7ZM11.64 34c-.44 0-.75-.41-.6-.81l2.03-5.56A.98.98 0 0 1 14 27c.42 0 .8.25.93.63l2.03 5.56c.15.4-.16.81-.6.81a.64.64 0 0 1-.6-.42L15.28 32H12.7l-.47 1.58a.63.63 0 0 1-.6.42Zm1.4-3h1.9L14 28.21s-.6 1.88-.96 2.79Z" fill="#333334"/><defs><linearGradient id="a" x1="23" y1="27" x2="8" y2="27" gradientUnits="userSpaceOnUse"><stop stop-color="#1FA8DA"/><stop offset="1" stop-color="#2F56A0"/></linearGradient><linearGradient id="b" x1="17" y1="20" x2="10" y2="20" gradientUnits="userSpaceOnUse"><stop stop-color="#006498"/><stop offset="1" stop-color="#008399"/></linearGradient></defs></svg>