<!-- by TradingView --><svg width="56" height="56" viewBox="0 0 56 56" xmlns="http://www.w3.org/2000/svg"><path fill="#F0F3FA" d="M0 0h56v56H0z"/><path d="M30.15 16.22a59.7 59.7 0 0 0-6.74-2.03 7.48 7.48 0 0 0-4.29.26c-2.85 1.08-5.2 3.56-7.04 6.11-1.93 2.68-2.81 5.98-1.35 9.25.22.66.44 1.21.68 1.66a27.17 27.17 0 0 0 4.6 6.36c1.82 1.95 4.03 4 6.36 5.26a7.01 7.01 0 0 0 6.13.38 34.9 34.9 0 0 0 3.9-1.78 64.8 64.8 0 0 0 12.36-8.6c2.2-1.94 4.7-5.29 2.18-8.13-1.7-1.9-3.87-2.99-6.34-4.23l-.35-.17a83.15 83.15 0 0 0-3.4-1.61 72.81 72.81 0 0 0-6.7-2.73Z" fill="url(#a)"/><path d="M26.1 30.28c2.13 1.52 2.62 2.96 2.6 3.5l1.75.5-.63-5.45c-3.16-2.5-9.6-7.85-9.82-7.33 0 3.13 3.43 6.9 6.1 8.78Z" fill="url(#b)"/><path d="M25.81 23c-3.87-.58-5.26-2.9-5.47-4 0 0-.34.64-.34 2.39 0 2.18 2.58 4.67 4.9 5.98 2.32 1.31 4.1 2.77 4.1 4.59 0 1.82-1.08 3.04-4.38 3.04-3.45 0-7.67-2.57-9.32-3.96a.18.18 0 0 0-.12-.04c-.1 0-.18.09-.18.18 0 .03.01.07.04.1C16.82 33.66 21.55 38 27.22 38c8.92 0 12.43-7.76 13.69-9.5A4.63 4.63 0 0 1 44 26.6c-.26-.14-.87-.5-1.26-.8a3.3 3.3 0 0 0-2.04-.8c-.73 0-.82.15-.77.22.28.11.49.34.56.44-.1.1-.4.52-.84 1.45-.57 1.17-1.83 2.89-2.95 2.89-1.13 0-1.55-1.75-2.74-3.36-1.2-1.6-3.3-2.9-8.15-3.64Z" fill="#fff"/><defs><linearGradient id="a" x1="13.88" y1="18.23" x2="37.84" y2="38.42" gradientUnits="userSpaceOnUse"><stop stop-color="#24B8D6"/><stop offset=".54" stop-color="#0055A5"/></linearGradient><linearGradient id="b" x1="20.06" y1="33.7" x2="29.68" y2="33.7" gradientUnits="userSpaceOnUse"><stop offset=".3" stop-color="#fff"/><stop offset="1" stop-color="#8A97B9"/></linearGradient></defs></svg>