<!-- by TradingView --><svg width="56" height="56" viewBox="0 0 56 56" fill="none" xmlns="http://www.w3.org/2000/svg">
<rect width="56" height="56" fill="#F0F3FA"/>
<path d="M34 23.0469C34 15.9015 28 11 28 11C28 11 22 15.9791 22 23.0469C22 30.6583 28 36 28 36C28 36 34 31.0466 34 23.0469Z" fill="#FF0000"/>
<path d="M40.5626 39.125C45.3833 34.4843 45.9999 27 45.9999 27C45.9999 27 38.3129 27.1417 33.6043 31.6745C28.223 36.8548 28.0001 44 28.0001 44L28.9344 44C30.9688 44 36.1856 43.3385 40.5626 39.125Z" fill="#00632C"/>
<path d="M15.4258 39.125C10.6051 34.4843 10 26.9999 10 26.9999C10 26.9999 17.6755 27.1417 22.3841 31.6745C27.7653 36.8548 28 44 28 44L27.0539 44C25.0195 44 19.8027 43.3385 15.4258 39.125Z" fill="#00632C"/>
</svg>
