<!-- by TradingView --><svg width="56" height="56" viewBox="0 0 56 56" fill="none" xmlns="http://www.w3.org/2000/svg">
<rect width="56" height="56" fill="#F0F3FA"/>
<path d="M15.2188 24.375L14.4375 28.3438C21.978 26.9299 33.8621 25.0455 43 17C43.9999 16.1196 43.9999 13.9713 43.9999 13C36.6731 19.5307 22.75 23.6875 15.2188 24.375Z" fill="url(#paint0_linear_5085_142064)"/>
<path d="M13.9687 31.4375L13.2 35.3281C20.7405 33.9143 33.2313 31.0552 41.2499 24.6875C42.4373 23.7446 43 21.2213 43 20.25C36.0624 25.875 21.8749 30.5 13.9687 31.4375Z" fill="url(#paint1_linear_5085_142064)"/>
<path d="M12.7587 38L12 42C18.625 40.6875 32.8852 38.3696 40.6875 31.5C41.3755 30.8942 42 28.2838 42 27.3125C34.5625 33 21.8125 36.8125 12.7587 38Z" fill="url(#paint2_linear_5085_142064)"/>
<defs>
<linearGradient id="paint0_linear_5085_142064" x1="13.7174" y1="25.3724" x2="45.911" y2="16.325" gradientUnits="userSpaceOnUse">
<stop offset="0.197878" stop-color="#2C9CD9"/>
<stop offset="0.345548" stop-color="#155582"/>
<stop offset="0.533523" stop-color="#66885C"/>
<stop offset="0.828487" stop-color="#E0C01C"/>
</linearGradient>
<linearGradient id="paint1_linear_5085_142064" x1="12.8302" y1="32.2484" x2="46.3929" y2="22.6198" gradientUnits="userSpaceOnUse">
<stop offset="0.208148" stop-color="#2C9CD9"/>
<stop offset="0.37555" stop-color="#155582"/>
<stop offset="0.579101" stop-color="#698A5B"/>
<stop offset="0.828487" stop-color="#E0C01C"/>
</linearGradient>
<linearGradient id="paint2_linear_5085_142064" x1="11.753" y1="38.9994" x2="45.1127" y2="30.1115" gradientUnits="userSpaceOnUse">
<stop offset="0.241677" stop-color="#2C9CD9"/>
<stop offset="0.422405" stop-color="#14517C"/>
<stop offset="0.563584" stop-color="#62855F"/>
<stop offset="0.839767" stop-color="#E0C01C"/>
</linearGradient>
</defs>
</svg>
