<!-- by TradingView --><svg xmlns="http://www.w3.org/2000/svg" width="56" height="56" viewBox="0 0 56 56"><path fill="#F0F3FA" d="M0 0h56v56H0z"/><path fill-rule="evenodd" d="M7 24v6h.67v-.9c.32.55.87.9 1.5.9.99 0 1.8-.9 1.8-2s-.81-2-1.8-2c-.63 0-1.18.35-1.5.9V24H7Zm1.98 5.46c.71 0 1.3-.65 1.3-1.45 0-.8-.59-1.45-1.3-1.45-.71 0-1.29.65-1.29 1.45 0 .8.58 1.45 1.3 1.45ZM13 26.53c-.38 0-.65.2-.74.3h-.5c.01-.28.31-.83 1.45-.83 1.13 0 1.5.67 1.54 1v3h-.8v-.31c-.23.25-.88.31-1.17.31-.94 0-1.28-.66-1.34-.98 0-1.21 1.67-1.43 2.5-1.39 0-.9-.46-1.1-.94-1.1Zm.98 2.29v-.72c-1.35-.2-1.72.4-1.73.72-.02.25.23.64.7.64.49 0 .89-.43 1.03-.64Zm1.3-2.82h.75v.37c.3-.23.67-.37 1.08-.37.93 0 1.68.7 1.68 1.57V30h-.82v-2.56c0-.5-.43-.91-.98-.91a.96.96 0 0 0-.96.75V30h-.76v-4Zm3.98-2v6H20v-1.8l1.66 1.8h1.12l-1.93-2.26L22.48 26h-.96L20 27.68V24h-.75Z" fill="#D70810"/><path d="M24.5 25a.5.5 0 1 0 0-1 .5.5 0 0 0 0 1Zm1.94 2.17c.11-.13.33-.4.83-.4.45 0 .6.1.76.52-1.25-.2-2.53.52-2.53 1.73 0 .3.43.98 1.41.98.32 0 .86-.06 1.09-.31V30h1v-3c-.04-.33-.43-1-1.63-1s-1.7.95-1.72 1.22h.75a.98.98 0 0 0 .04-.05Zm1.56.93v.6c-.12.17-.47.53-.89.53-.41 0-.62-.33-.61-.54.01-.26.33-.76 1.5-.59Zm-4 1.96V26h1v4.06c0 1.5-1.53 1.85-2.2 2v-.92c.78-.06 1.18-.71 1.2-1.08Zm10-5.56a.5.5 0 1 1-1 0 .5.5 0 0 1 1 0Zm-4 4.38v-2.13h-.5V26h.5v-1h1v1h1.5l-.45.75H31v1.57c0 .42.25.65.6.71.16.03.32 0 .47-.06l.18.77c-.39.25-.8.26-.98.26h-.02c-.87 0-1.2-.74-1.25-1.12ZM33 26v4.16h1V26h-1Zm4 0c.43 0 .82.2 1.1.5.38-.3.88-.5 1.3-.5.83 0 1.6.7 1.6 1.57V30h-1v-2.24c0-.5-.23-.9-.71-.9s-.78.39-.79.89V30h-1v-2.27c0-.5-.25-.9-.73-.9s-.77.41-.77.92V30h-1v-4h1v.4c.27-.25.62-.4 1-.4Z"/><path d="M45.8 26.86c-1.48 2.51-5.07 4.56-6.64 5.19 2.77 0 6.48-.52 8.68-5 .32-.63 1.25-3.65 1.67-5.05-.62.57-2.22 2.35-3.7 4.86Z" fill="url(#ag5ozdi2i)"/><path d="M46.58 27.66c-.96.88-4.67 3.34-6.4 4.45 2.7-1.24 8.31-3.89 9.02-4.57.72-.68 2.22-2.72 2.8-3.66-1.35.9-4.46 2.9-5.42 3.78Z" fill="url(#bg5ozdi2i)"/><path d="M45.87 29.26c-1.1.71-5.2 2.48-7.1 3.28 2.89-.72 8.87-2.3 9.7-2.85.82-.56 2.5-2.4 3.24-3.26-1.5.64-4.74 2.1-5.84 2.83Z" fill="url(#cg5ozdi2i)"/><path d="m50.55 29.19-3 1.93-5.36.5c2.41-1.4 6.58-2.2 8.36-2.43Z" fill="url(#dg5ozdi2i)"/><path d="M36.92 32.03c-2.62 0-6.74-.81-7.97-1.17 1.36.71 5.18 2.14 9.62 2.14 4.45 0 8.74-1.43 10.33-2.14-2.16 0-8.7 1.17-11.98 1.17Z" fill="#790000"/><defs><linearGradient id="ag5ozdi2i" x1="44.34" y1="22" x2="44.34" y2="32.05" gradientUnits="userSpaceOnUse"><stop offset=".37" stop-color="#EC1D24"/><stop offset="1" stop-color="#790000"/></linearGradient><linearGradient id="bg5ozdi2i" x1="48.24" y1="26.87" x2="42.96" y2="29.44" gradientUnits="userSpaceOnUse"><stop offset=".39" stop-color="#B21116"/><stop offset="1" stop-color="#790000"/></linearGradient><linearGradient id="cg5ozdi2i" x1="48.91" y1="28.53" x2="44.72" y2="31.9" gradientUnits="userSpaceOnUse"><stop stop-color="#B21116"/><stop offset="1" stop-color="#790000"/></linearGradient><linearGradient id="dg5ozdi2i" x1="46.91" y1="29.92" x2="46.34" y2="31.62" gradientUnits="userSpaceOnUse"><stop stop-color="#920609"/><stop offset="1" stop-color="#790000"/></linearGradient></defs></svg>