<!-- by TradingView --><svg width="56" height="56" viewBox="0 0 56 56" xmlns="http://www.w3.org/2000/svg"><path fill="#F0F3FA" d="M0 0h56v56H0z"/><path d="M22.4 31c-2.44 0-4.53-2.33-5.2-3.04-.4-.45-1.06-1.04-.45.26.93 1.68 3.02 4.78 6.4 4.78 3.37 0 5.05-2.45 6.66-3.81C31.4 27.82 33 25 35.32 25c1.71 0 3.56 2.68 4.44 4 .11.18.32.26.5.19.23-.1.35-.38.25-.63-1.27-3.12-3.87-5.56-5.83-5.56-2.06 0-4.3 2.1-5.8 3.53C27.35 27.97 25.45 31 22.4 31Z" fill="#1F2750"/><path d="M22.43 23c2.25 0 4.82 2.73 5.85 4.2-.25.24-.7.76-.7.76-1.04-1.33-2.3-2.96-4.54-2.96-2.23 0-3.94 1.66-5.45 3.5-1.48 1.8-3.19 4.5-6.15 4.5-3.02 0-5.4-3.96-6.39-6.17a.62.62 0 0 1 .18-.74c.09-.06.18-.09.27-.09.16 0 .31.09.41.26.8 1.38 2.57 4.74 4.59 4.74 2.3 0 2.4-.9 4.94-3.8 2.44-2.78 4.18-4.2 7-4.2ZM34.04 31a5.17 5.17 0 0 1-4.1-1.95l-.46.4c.87 1.68 2.1 3.55 5.25 3.55s4.69-2.62 6.19-3.98c1.5-1.36 3.03-4.02 5.2-4.02 1.6 0 3.32 2.47 4.14 3.8.08.12.2.2.34.2.04 0 .09 0 .13-.03.22-.09.33-.38.24-.63-1.2-3.11-3.62-5.34-5.46-5.34-1.92 0-4.05 1.94-5.46 3.37C38.63 27.8 36.89 31 34.04 31Z" fill="#A32428"/></svg>