<!-- by TradingView --><svg width="56" height="56" viewBox="0 0 56 56" xmlns="http://www.w3.org/2000/svg"><path fill="#F0F3FA" d="M0 0h56v56H0z"/><path d="M24.97 20.6c0-4.55 1.35-8.96 2.03-10.6-6.84 1.08-12.85 5.68-15 7.85l.47 5.15c3.34-1.47 9.72-2.2 12.5-2.4Z" fill="#00377B"/><path d="M31.03 20.6c0-4.55-1.35-8.96-2.03-10.6 6.84 1.08 12.85 5.68 15 7.85L43.53 23c-3.34-1.47-9.72-2.2-12.5-2.4Z" fill="#FFE800"/><path d="M24.96 26.44c-4.67 0-10.42-1.63-12.46-2.44C14.36 38.05 23.1 45.19 27 47c-2.13-10.4-2.25-18.04-2.04-20.56Z" fill="#00377B"/><path d="M31.04 26.44c4.67 0 10.42-1.63 12.46-2.44C41.64 38.05 32.9 45.19 29 47c2.13-10.4 2.25-18.04 2.04-20.56Z" fill="#FFE800"/></svg>