<!-- by TradingView --><svg width="56" height="56" viewBox="0 0 56 56" xmlns="http://www.w3.org/2000/svg"><path fill="#F0F3FA" d="M0 0h56v56H0z"/><path d="M18.4 21a2.53 2.53 0 0 1 2.55 2.98l-1.27 6.34A3.4 3.4 0 0 1 16.31 33h-6.7a2.53 2.53 0 0 1-2.56-2.98l1.27-6.34A3.4 3.4 0 0 1 11.69 21h6.7Zm-5.63 3.36.16-.84h2.28c.57 0 1.27.38 1.27 1.14 0 .84-1.23 1.56-1.84 1.81 1.43.54 1.84 1.47 1.84 2.09 0 1.5-1.83 1.85-2.74 1.84h-2.36l1.28-5.4L9 27.54h1L9 32h4.74c3.82 0 5.26-1.57 5.26-3.52 0-1.56-1.46-2.08-2.2-2.14.5-.3 1.5-1.14 1.5-2.12 0-1.75-1.88-2.21-2.82-2.22H9.73l3.04 2.36Z" fill="#E92429"/><path d="M25.86 28.47 21.6 26l1.32 2.07c.25.4.2.94-.13 1.25L21 31l4.84-2c.2-.09.22-.41.02-.53Z" fill="#F9A01B"/><path d="M33.87 26.29c1.86-1.62 4.33-1.73 5.51-.23 1.18 1.5.62 4.02-1.25 5.65-1.87 1.62-4.34 1.73-5.51.23-1.18-1.5-.62-4.02 1.25-5.65Zm3.46.35c-.95-.59-2.3 0-3.04 1.3-.73 1.3-.56 2.83.38 3.42.95.59 2.3 0 3.04-1.3.73-1.3.56-2.83-.38-3.42ZM45.87 25H50c-.66.65-2.09 1.98-2.55 2.1-.04 0-.04-.16.31-.72h-2.3c-.79.03-1.48.61-2 1.55-.31.55-.46 1.14-.46 1.68 0 .75.29 1.4.84 1.75.94.59 2.13 0 2.87-1.3l.21-.45h-.62c-.59 0-1.07-.5-1.07-1.13v-.2h3.32c.2 0 .37.18.36.4 0 .09-.01.18-.04.27a5.53 5.53 0 0 1-1.74 2.76c-1.87 1.63-4.34 1.73-5.51.23-1.18-1.5-.62-4.03 1.25-5.66.93-.8 2-1.24 3-1.28ZM27.92 31.38h2.44c.9 0 1.64.73 1.64 1.62h-4.61c-.9 0-1.56-.82-1.35-1.68l1.06-4.5A2.39 2.39 0 0 1 29.43 25l-1.5 6.38Z" fill="#E92429"/></svg>