<!-- by TradingView --><svg width="56" height="56" viewBox="0 0 56 56" xmlns="http://www.w3.org/2000/svg"><path fill="#F0F3FA" d="M0 0h56v56H0z"/><path d="M18.5 30.95A4 4 0 1 1 15 25c.79 0 1.18-.66 1.55-1.35.58-1.07-.31-2.65-1.55-2.65a8 8 0 1 0 7.5 10.79l-1.8-3.08-2.2 2.24Z" fill="#E42313"/><path d="M29.5 30.95A4 4 0 1 1 26 25c.79 0 1.18-.66 1.55-1.35.58-1.07-.31-2.65-1.55-2.65a8 8 0 1 0 0 16c3.44 0 6.86-1.59 7.97-6.35l-.72-1.94h-1.54l-2.22 2.24Z" fill="#E42313"/><path d="M25 29c0-1.1.88-2 1.96-2H33v4h-6.04c-1.08 0-1.96-.9-1.96-2Z" fill="#E42313"/><path d="M44.9 21c-.76 0-1.46.42-1.83 1.1l-4.57 8.44-4.57-8.44a2.09 2.09 0 0 0-1.84-1.1 2.12 2.12 0 0 0-1.83 3.14l6.35 11.73a2.14 2.14 0 0 0 3.78 0l6.35-11.73A2.12 2.12 0 0 0 44.9 21Z" fill="#E42313"/><path d="M48.38 20.15a.58.58 0 0 0 0-.44.58.58 0 0 0 .62-.28.58.58 0 0 0 .62.28.58.58 0 0 0 .47.8.58.58 0 0 0-.19 1.11l.82.35a.58.58 0 0 0 .46-1.07l-.82-.35a.59.59 0 0 0-.16-.04c.06 0 .13-.02.19-.05l1.25-.53a.58.58 0 1 0-.45-1.08l-1.14.49.62-1.54a.58.58 0 1 0-1.08-.43l-.6 1.45-.58-1.45a.58.58 0 0 0-1.08.43l.62 1.53-1.14-.48a.58.58 0 0 0-.45 1.08l1.25.53c.05.02.1.04.16.04a.58.58 0 0 0-.19.05l-.82.35a.58.58 0 1 0 .46 1.07l.82-.35a.58.58 0 0 0-.16-1.11c.22-.02.41-.15.5-.36Zm.6 1.1a.58.58 0 0 0-.59.58v.59a.58.58 0 0 0 1.17 0v-.59a.58.58 0 0 0-.58-.58Z" fill="#E42313"/></svg>