<!-- by TradingView --><svg width="56" height="56" viewBox="0 0 56 56" xmlns="http://www.w3.org/2000/svg"><path fill="#F0F3FA" d="M0 0h56v56H0z"/><path d="M12 16.53c0-1.4 1.08-2.53 2.42-2.53h27.16A2.48 2.48 0 0 1 44 16.53v22.94c0 1.4-1.08 2.53-2.42 2.53H14.42A2.48 2.48 0 0 1 12 39.47V16.53Z" fill="url(#a)"/><path d="m31.7 29.7.22.24c.14.17.24.45.16.75-.08.3-.32.56-.68.77a2.86 2.86 0 0 0-1.23 2.22c0 .66.52 1.47 1.74 1.47 2.17 0 3.89-2.51 3.89-4.51 0-.94-.37-1.57-.77-1.97-.24-.23-.64-.56-1-.56-.48 0-.86.43-1.34.43h-.1a1.13 1.13 0 1 1 0-2.24h1.75c1.4-.19 2.06-1.96 2.06-3.16 0-.72-.27-1.28-.7-1.71-2.7 2.59-5 6.68-5.74 8.32a16.71 16.71 0 0 1-3.55 4.43c-.82.76-1.71 1.46-2.6 1.97a5.5 5.5 0 0 1-2.64.85C18.06 37 17 35.28 17 34.42c0-1.02.72-1.88 1.77-1.88.75 0 1.49.5 1.52 1.3 0 .28-.06.55-.25.74-.17.17-.38.22-.47.24 0 .17.08.32.32.46.25.14.68.24 1.28.24 1.32 0 2.44-.73 3.55-2a33.54 33.54 0 0 0 3.23-4.93c.72-1.24 1.47-2.53 2.3-3.77a16.6 16.6 0 0 1 4.06-4.28c-.9-.37-1.85-.5-2.4-.5-.8 0-2 .08-2.84.15.25.56.5 1.37.5 2.5 0 5.55-4.95 8-7.54 8-2.06 0-3.03-1.6-3.03-3.52 0-1.91 1.34-3.7 2.88-5.1a20.92 20.92 0 0 1 3.55-2.57 4.88 4.88 0 0 0-.63-.05c-1.7 0-3.18.84-4.35 1.94-1 .94-1.85 2.23-2.32 3.13a.48.48 0 0 1-.65.2.44.44 0 0 1-.22-.5C18.71 19.18 22.83 18 24.8 18a7.92 7.92 0 0 1 3.35.78c.15-.05.35-.09.63-.12.57-.07 1.5-.12 2.96-.12 1.63 0 3.19.3 4.44.87.46-.22 1.14-.48 1.63-.63.24-.08.5.06.58.3a.5.5 0 0 1-.26.62c-.29.14-.63.3-.79.4 1 .75 1.66 1.77 1.66 3.04 0 1.68-1.15 3.1-2.48 4.02.42.28.78.64 1.05 1.1.4.71.6 1.62.6 2.8 0 2.89-3.38 5.8-6.26 5.8-1.8 0-3.25-1.12-3.25-3.01 0-2.3 1.83-3.64 2.73-4.03l.31-.13Zm-3.93-7.44c0-.96-.32-1.5-.53-1.72a14.58 14.58 0 0 0-5.14 3.56 8.23 8.23 0 0 0-1.22 1.75 2.9 2.9 0 0 0-.37 1.18c0 1.05.58 2.02 1.72 2.02 2.9 0 5.4-4.83 5.54-6.79Z"/><path d="M29.11 33.85c0-2.05 1.64-3.26 2.46-3.6.12.12.2.47-.4.81a3.54 3.54 0 0 0-1.46 2.62c0 .9.72 1.93 2.2 1.93 2.43 0 4.35-2.84 4.35-4.97s-1.69-2.98-2.23-2.98c-.31 0-.6.13-.85.25-.2.1-.36.17-.5.17h-.1a.67.67 0 0 1-.67-.67c0-.36.3-.66.68-.66h1.75c.4 0 2.52-.77 2.52-3.61 0-1.04-.49-1.8-1.16-2.33-2.9 2.63-5.37 7.03-6.16 8.75-.97 2.13-5.43 6.99-8.37 6.99-2.94 0-3.71-1.6-3.71-2.13 0-.54.28-1.42 1.31-1.42.82 0 1.05.56 1.06.85 0 .44-.2.48-.38.53-.17.04-.34.08-.34.43 0 .74.78 1.17 2.06 1.17 3.02 0 4.98-3.38 7.18-7.17a71.14 71.14 0 0 1 2.28-3.74 15.8 15.8 0 0 1 4.58-4.6 7.13 7.13 0 0 0-3.3-.88c-1.07 0-2.8.13-3.54.2l.03.06c.26.5.71 1.38.71 2.84 0 5.28-4.74 7.55-7.08 7.55-1.37 0-2.57-.68-2.57-3.07 0-3.43 4.85-6.67 7.28-7.86a8 8 0 0 0-1.94-.32c-3.73 0-6.33 3.68-7.17 5.51 1.28-5.05 5.28-6.05 7.17-6.05 1.5 0 2.86.57 3.34.86-.02-.1.68-.32 3.6-.32 1.67 0 3.24.33 4.44.93.7-.36 1.28-.56 1.68-.64-.45.22-.89.5-1.32.83 1.23.71 2 1.75 2 3.03 0 2.07-1.96 3.55-2.94 4.03 1.37.6 2.11 1.62 2.11 3.9 0 3.46-4.57 5.33-5.8 5.33-1.22 0-2.8-.54-2.8-2.55Zm-.88-11.59c0-1.39-.61-2.07-.92-2.24-5.14 2.13-7.25 5.62-7.25 7.01 0 1.4.77 2.47 2.17 2.47 3.26 0 6-5.5 6-7.24Z" fill="#FEFFFE"/><defs><linearGradient id="a" x1="12.78" y1="14.66" x2="44.61" y2="40.1" gradientUnits="userSpaceOnUse"><stop stop-color="#F72029"/><stop offset=".34" stop-color="#FDF410"/><stop offset=".61" stop-color="#6DCE93"/><stop offset=".72" stop-color="#54AEEC"/><stop offset="1" stop-color="#2E3A92"/></linearGradient></defs></svg>