<!-- by TradingView --><svg width="56" height="56" viewBox="0 0 56 56" fill="none" xmlns="http://www.w3.org/2000/svg">
<rect width="56" height="56" fill="#F0F3FA"/>
<path fill-rule="evenodd" clip-rule="evenodd" d="M15.5105 13C14.124 13 13 14.066 13 15.381V40.619C13 41.934 14.124 43 15.5105 43H40.4895C41.876 43 43 41.934 43 40.619V15.381C43 14.066 41.876 13 40.4895 13H15.5105ZM17.2152 40H25.1158C26.1896 40 27 39.1947 27 38.2014V32.6094C27 32.2854 26.7955 32 26.4841 32C26.4375 31.9984 26.3885 32.0027 26.3374 32.0136C25.8417 32.1199 25.4532 32.2667 25.0618 32.4146C24.2926 32.7052 23.5122 33 21.8846 33C18.625 33 17 30.5 17 30.5C17 30.5 18.9375 28 21.8846 28C23.5169 28 24.7999 28.7286 25.7378 29.2612C25.9436 29.378 26.1327 29.4854 26.3053 29.5737C26.5051 29.6758 26.6493 29.4731 26.5938 29.2656C26.5086 28.9473 26.3783 28.6153 26.2371 28.2553C25.9 27.3959 25.5 26.3764 25.5 25C25.5 22 28 20 28 20C28 20 30.5 22.2969 30.5 25C30.5 26.5874 30.1144 27.5716 29.7989 28.3767C29.6754 28.692 29.5626 28.9798 29.4879 29.2656C29.3803 29.6777 29.6406 29.6984 29.7531 29.6406C29.961 29.5338 30.1814 29.3881 30.4247 29.2272C31.228 28.6959 32.2803 28 33.9531 28C37.1562 28 39 30.5 39 30.5C39 30.5 37.1562 33 33.9531 33C32.6451 33 31.8682 32.718 31.0788 32.4315C30.6662 32.2818 30.2502 32.1308 29.7531 32.0182C29.6989 32.0059 29.6452 32.0012 29.593 32.0033C29.2686 32 29 32.2885 29 32.6094V38.2014C29 39.1947 29.6774 40 30.7512 40H38.7848C39.4559 40 40 39.5016 40 38.8808V22.0141C40 19.154 37.2051 16 33.7418 16C30.2785 16 28 19 28 19C28 19 25.9231 16 22.0152 16C18.8879 16 16 19.1212 16 22.0141L16 38.8798C16 39.5006 16.5441 40 17.2152 40Z" fill="#E00615"/>
</svg>
