<!-- by TradingView --><svg width="56" height="56" viewBox="0 0 56 56" xmlns="http://www.w3.org/2000/svg"><path fill="#865EA7" d="M0 0h56v56H0z"/><path d="M15 28.57 16.17 24l2.57 5.71L26 13l5.47 3.41L37 23h-.73l-4.92-6.12v1.27l-1.1-.55.23.97L33.95 23h-.51l-3.38-4.32-.94-.53-.32.74L32.04 23h-.57l-3.24-4.11-2.04-5.39L19.14 33l-3.25-5.36-.89.93ZM31.2 16.7l-1.62-1.2-.58.92-.97-.07.82 2.23.35-.74 1.06.54-.3-1.44 1.24.73v-.97Z" fill="#FFB469"/><path d="M48 25h1.5v.8c.38-.45.72-.8 1.33-.8.37 0 .76.14 1.17.4l-.65 1.45a1.27 1.27 0 0 0-.78-.33c-.77 0-1.07.65-1.07 1.95V32H48v-7ZM47 29h-3.75c.04.79.42 1.63 1.35 1.63.75 0 1.1-.69 1.4-1.28l1 .72c-.48 1.05-1.21 1.93-2.44 1.93C42.7 32 42 30.08 42 28.5c0-1.53.66-3.5 2.5-3.5 1.83 0 2.5 1.95 2.5 3.5v.5Zm-1.27-1.4c-.17-.81-.57-1.22-1.2-1.22-.68 0-1.08.63-1.2 1.23h2.4ZM39.5 23.7 41 23v9h-1.5v-.86c-.54.57-1.02.86-1.7.86-1.83 0-2.8-1.85-2.8-3.5 0-1.61.98-3.5 2.78-3.5.69 0 1.17.31 1.72.93V23.7Zm-3.1 4.8c0 .97.5 2.17 1.62 2.17 1.13 0 1.48-1.15 1.48-2.17 0-1-.34-2.15-1.46-2.15-1.08 0-1.65 1.2-1.65 2.15ZM29 25h1.5v.82c.47-.55.84-.82 1.43-.82 1.6 0 2.07 1.47 2.07 2.83V32h-1.5v-3.8c0-.8.08-1.79-.93-1.79-1.2 0-1.07 1.41-1.07 2.3V32H29v-7ZM28 29h-3.74c.05.8.43 1.63 1.36 1.63.75 0 .88-.17 1.24-.53l.87.7c-.69.73-1.06 1.2-2.15 1.2-1.84 0-2.58-1.89-2.58-3.5 0-1.57.7-3.5 2.52-3.5 1.85 0 2.48 2.06 2.48 3.64V29Zm-1.24-1.25c-.17-.82-.57-1.37-1.22-1.37-.67 0-1.08.76-1.2 1.37h2.42ZM5.5 23v7.5H9V32H4v-9h1.5ZM11.52 25c-.68 0-1.4.3-1.91.73l.84 1.04c.28-.24.7-.43 1.07-.43.66 0 .91.54.98 1.17v.38c-.39-.38-.73-.6-1.3-.6-1.21 0-2.2 1.04-2.2 2.34 0 1.3.99 2.35 2.2 2.35.57 0 .91-.23 1.3-.6V32H14v-4.58c-.11-1.31-1.12-2.42-2.48-2.42Zm.98 3.9v1.46c-.26.28-.48.46-.94.46-.77 0-1.4-.54-1.4-1.19 0-.65.63-1.18 1.4-1.18.46 0 .68.17.94.45Z" fill="#fff"/></svg>