<!-- by TradingView --><svg xmlns="http://www.w3.org/2000/svg" width="56" height="56" viewBox="0 0 56 56"><path fill="#F0F3FA" d="M0 0h56v56H0z"/><path d="M13.6 29.3c0 2.85.72 5.65 1.08 6.7-2-2.53-2.62-7.26-2.68-9.31C12 16.39 21.07 10 29.12 10c4.83 0 8.96 2.35 11.23 4.15.71.56.84 1.57.38 2.37-.63 1.07-2.06 1.31-3.1.63a15.28 15.28 0 0 0-8.88-2.22c-11.63 0-15.15 10.8-15.15 14.36Z" fill="#1C9B38"/><path d="M36.37 41.74c1.76-.99 3.14-2.51 3.63-3.07-.68 1.95-3.34 3.91-4.58 4.65-6.38 3.54-14.05 1.03-17.6-3.3-2.14-2.6-3.18-6.16-3.07-8 .04-.58.6-1 1.3-1.02.94-.03 1.73.66 1.76 1.45.1 1.93.98 4.2 2.43 5.82a12.88 12.88 0 0 0 16.13 3.47Z" fill="#B6D379"/><path d="M37.83 20.55A15.09 15.09 0 0 0 34.28 18c1.94.17 4.26 2.2 5.24 3.1 5.16 5.07 5.05 16.12-3.54 19.67-.37.16-.8.3-1.18.19-.32-.1-.6-.34-.72-.7-.27-.81.17-1.63.88-1.83 6.55-2.24 8.31-12.54 2.87-17.88Z" fill="#76B72C"/><path d="M30.1 23h-4v4.9H21v4h5.1V37h4v-5.1H35v-4h-4.9V23Z" fill="#1C9B38"/><path d="M18 28a10 10 0 0 1 20 0h-3a7 7 0 1 0-14 0h-3Z" fill="#1C9B38"/></svg>