<!-- by TradingView --><svg width="56" height="56" viewBox="0 0 56 56" xmlns="http://www.w3.org/2000/svg"><path fill="#00585E" d="M0 0h56v56H0z"/><path d="M27.48 32.52c-.19-.02-.22.04-.1.2.27.36.65.54.97.85 1.16 1.15 2.41 2.44 3.75 3.38a9.96 9.96 0 0 0 5.48 1.68 9 9 0 0 0 5.36-1.99c.43-.31 1-.8 1.71-1.44.15-.13.34-.2.52-.2.2 0 .4.07.56.22.2.18.27.4.27.63 0 .23-.09.46-.22.67-1.36 2.13-3.47 4.28-5.97 5.02-1.09.32-2.17.47-3.24.46a12.86 12.86 0 0 1-7.25-2.47c-2.95-2.06-5.35-4.31-8.24-6.95a.58.58 0 0 0-.4-.16 28 28 0 0 1-5.52-.49 9.3 9.3 0 0 1-4.23-2.02A2.56 2.56 0 0 1 10 28c0-.44.17-.88.51-1.27a2.7 2.7 0 0 1 1.04-.79 6.17 6.17 0 0 1 2.18-.38c1.47 0 3.01.41 4.24 1.03.94.47 2.55 1.5 4.86 3.11.07.05.16.07.3.07 2.65 0 5.2-.4 7.64-1.18.81-.27 1.68-.66 2.5-1.19 1.85-1.17 2.72-2.75 2.73-4.4 0-1.74-.98-3.56-2.28-5.07a10.75 10.75 0 0 0-4.69-3.23c-.62-.21-.82-.84-.41-1.36.24-.3.62-.4 1.12-.3 1.78.4 3.45 1.09 5.03 2.06 3.1 1.93 6.26 4.99 6.23 8.62a6.8 6.8 0 0 1-.68 2.86c-1.3 2.77-4.14 4.38-7.06 5.17a22.25 22.25 0 0 1-5.78.77Zm-8.96-2.36c-1.8-1.58-3.46-2.88-5.83-2.5-.09.02-.13.13-.06.2.32.33.69.6 1.1.83 1.51.8 3.12 1.26 4.8 1.47Z" fill="#FCFB37"/></svg>