<!-- by TradingView --><svg width="56" height="56" fill="none" xmlns="http://www.w3.org/2000/svg"><path fill="#F0F3FA" d="M0 0h56v56H0z"/><path fill-rule="evenodd" clip-rule="evenodd" d="M48 28.5h-4.014c-.018.337-.057.67-.113 1h4.01c.058-.33.097-.663.117-1zm-.52 2.5h-4c-.12.34-.26.673-.418 1h3.988c.163-.328.306-.661.43-1zm-1.339 2.5c-3.188 4.43-10.11 7.5-18.134 7.5C16.957 41 8 35.18 8 28s8.958-13 20.007-13c7.72 0 14.417 2.84 17.754 7h-3.968c-2.853-3.587-8.185-6-14.293-6C18.389 16 11 21.373 11 28s7.388 12 16.5 12c6.388 0 11.927-2.64 14.67-6.5h3.971zm-3.34-10c.182.326.344.66.487 1h3.993c-.145-.34-.312-.673-.498-1h-3.982zM47.78 26a8.7 8.7 0 01.177 1h-4.012a8.921 8.921 0 00-.172-1h4.007zm-9.89 7.586c-1.84 3.606-5.574 6.073-9.882 6.073-3.598 0-6.796-1.722-8.825-4.39 1.54.357 3.085.671 3.718.671.317 0 .687.029 1.093.06 1.356.106 3.102.242 4.516-.573 1.837-1.059 4.826-1.84 6.462-1.84h2.918zm.66-1.582h-5.02c-1.216 0-2.23.52-3.401 1.121-1.608.825-3.515 1.803-6.651 1.803-1.709 0-3.639-.341-4.982-.675a11.14 11.14 0 01-.995-2.146c2.036.529 4.603 1.16 5.4 1.16.312 0 .677.028 1.075.058 1.36.102 3.114.233 4.534-.586 1.837-1.059 4.73-1.738 6.365-1.738h3.953c-.078.34-.17.675-.279 1.003zm.521-2.585h-5.637c-1.216 0-2.212.505-3.365 1.088-1.58.8-3.455 1.748-6.592 1.748-2.04 0-4.803-.654-6.252-1.098a11.192 11.192 0 01-.272-1.65l1.073.363c2.033.69 4.292 1.458 4.98 1.458 1.376 0 3.668-.364 5.504-1.424 1.837-1.058 3.934-1.36 5.57-1.36h5.028c0 .294-.014.586-.037.875zm-22.162-.82c1.51.596 4.15 1.536 6.097 1.536 1.607 0 3.334-.818 5.023-1.619 1.617-.766 3.2-1.516 4.61-1.516h6.37a11.193 11.193 0 00-.18-1h-4.704c-1.598 0-3.647.318-5.442 1.377-1.795 1.059-4.035 1.424-5.38 1.424-.905 0-4.257-.862-6.34-1.418a11.352 11.352 0 00-.054 1.216zm.175-2.09c1.113.422 3.95 1.279 6.22 1.279 1.57 0 3.257-.875 4.908-1.732 1.58-.82 3.127-1.622 4.505-1.622h5.633c-.113-.29-.238-.574-.373-.852h-4.302c-1.598 0-3.648.302-5.443 1.36-1.795 1.06-4.034 1.425-5.379 1.425-.88 0-3.56-.635-5.465-1.126-.125.413-.227.836-.304 1.268zm.58-2.068c1.614-4.158 5.637-7.105 10.344-7.105 3.72 0 7.012 1.84 9.026 4.664h-4.768c-1.378 0-2.925.802-4.505 1.622-1.65.857-3.338 1.732-4.908 1.732-2.077 0-4.087-.527-5.189-.913z" fill="#234089"/></svg>