<!-- by TradingView --><svg xmlns="http://www.w3.org/2000/svg" width="56" height="56" viewBox="0 0 56 56"><path fill="#FFC80C" d="M0 0h56v56H0z"/><path fill-rule="evenodd" d="M14.13 26.05c1.02-1.2 3.52-3.72 5.32-4.14 0-.6.37-1.96 1.79-2.64l.18-.09c1.8-.86 4.71-2.27 5.78-2.31l-.2.8c.28-.06.9-.3 1.06-.8l.07-.27c.23-.8.68-2.38 1.16-2.43.54-.06 3.18 2.74 3.04 6.03-.01.1-.08.27-.25.27-.18 0-.39-.08-.47-.13.03.29.33.96 1.31 1.38 1.23.51 2.09.19 1.84-.96 1.07.59 3.24 2.27 3.38 4.34a5.85 5.85 0 0 0-1.48-5.83c.5.1 1.64.4 2.22.7-.81-.9-2.92-2.77-4.85-3.1-1.12-1.37-3.66-4.06-4.91-3.86-1.26.2-1.66 2.11-1.7 3.04h-.64c-.4-.45-1.28-1.32-1.62-1.24-.33.09-.47 1.3-.5 1.91-1.52.47-4.75 1.73-5.46 3.01-.72 1.29-.76 1.54-.7 1.5-1.32.8-4.05 2.85-4.37 4.82Zm10.3-7.95c.01.08.02.17 0 .23-.02.03-.18.1-.4.22-.64.32-1.86.94-2.26 1.64.42-.2 1.35-.6 1.7-.63.43-.04 1.9-.62 2.02-1.03.1-.34-.67-.49-1.07-.52l.01.09Zm1.86-.05c.33.16.83.58.26.94-.71.45-1.45.99-1.62 1.73-.03.06-.18.18-.57.19-.21 0-.48-.04-.73-.08-.34-.05-.66-.1-.79-.03l-.26.16c-.19.13-.4.28-.57.28-.25 0-.4-.28-.38-.67-.14.12-.4.44-.4.77s.47.65.7.76c-.4.3-1.04 1.06-.39 1.74l.97-1.14c.1.02.39.06.63.06.3 0 1.23-.72 1.5-1.07-.32 1.01-1.4 2.99-3.1 2.77.17.18.72.53 1.6.53.88 0 1.23-.42 1.3-.63.3-.69 1.08-2.25 1.85-3.02.25-.28-.49-.25-.9-.21.18-.18.78-.64 1.78-1.06 1-.42 1.14-.9 1.09-1.08-.06-.28-.53-.85-1.97-.94Zm-3.44 4.03c.05.06.17.18.3.18.15 0 .68-.54.93-.8l-.74-.1c.05.21.03.65-.49.72Zm6.22-3.9 2.04 1.77c-.03-1.1-.34-3.31-1.4-3.38-.17 0-.53.33-.64 1.62Zm-2.25 3.4c.71-.94 2.05-.42 2.63-.05-1.66.3-2.45 2.81-2.63 4.03 1.66 1.77.8 4.62.15 5.83.4-3.08-.94-4.75-1.66-5.2l-1.11.9c1.4.2 1.39 1.54 1.2 2.19-.84-1.61-2.09-1.46-3.03-1.35l-.31.03c-.97.1-1.6-.95-1.6-2.1 0-.91-.84-.98-1.26-.9 1.27-.67 2 .08 2.1.39.09.3.56 1.21 1.36 1.21.64 0 1.24-.55 1.47-.83.24-.3.83-.9 1.28-.9.45 0 .76.17.85.25.08-.42.06-.83.05-1.24-.04-.75-.07-1.5.5-2.26ZM13 27.55c.13-.51.59-.98.8-1.15-.06.2-.15.6-.12.66.04.07.35-.13.79-.42.34-.24 1.19.08 1.56.26l.63.05c-.07.28-.26.93-.48 1.27a3.34 3.34 0 0 0-.55 1.52 2.98 2.98 0 0 0 .8 1.3c.22.2.67.6 1.25.6.56 0 1.22-.45 1.48-.69 1.19-1.12 4.1-2.86 6.29-.82 2.18 2.05.27 3.8-.96 4.43-.44.26-1.52.74-2.3.6-.22.2-.64.75-.64 1.33 0 .58 1.09 1.06 1.63 1.22.33.04 1.08.12 1.48.08.3-1.5 1.5-4.47 3.89-4.47 2.97 0 2.35 3.42 1.62 4.1a3.22 3.22 0 0 0 2.64-2.74c.22.32.66 1.1.64 1.7.51-1 1.17-3.58-.25-5.76.47.04 1.51.25 1.94.75.25-1.1.23-3.77-1.79-5.69.45-.04 1.48-.01 2.04.41.01-.26-.1-.93-.65-1.56-.68-.8-.8-1.47-.78-1.79a3.03 3.03 0 0 0 .73.62c.45.25 2.57 1.38 2.43 4.25l-1.37-.59c.46.93 1.2 3.49.4 6.3l-.88-.75c.12 1.42.09 4.64-1.04 6.15 1.16-.71 3.48-2.76 3.48-5.22l-.01-1.36c-.04-2.7-.09-5.47 1.27-6.46-.11.55-.3 1.8-.17 2.45.14.65.62 3.09.84 4.22.77-1.83 1.92-6.65.33-11.2 1.46 2.17 3.58 7.94.29 13.53-3.3 5.6-8.1 7.21-10.09 7.32.64-.73 1.96-2.6 2.14-4.3-.75.42-2.65 1.2-4.24.95.37-.4 1.19-1.38 1.47-2.1.34-.93.15-2.1-.82-2.3-.97-.2-2.94 1.08-2.82 4.6V39c-.1-.1-.56-.3-1.66-.36-1.38-.07-3.4-.44-3.7-2.42a3.66 3.66 0 0 1-.5-2.1c.33.13 1.1.38 1.51.38.52 0 1-.62 1.06-1.28.07-.66.7-1.87 1.45-1.96a2.39 2.39 0 0 0-1.78-.85c-.9 0-1.97.76-2.39 1.14v2.42a4.21 4.21 0 0 1-2.03-1.42c-.48-.07-1.57-.36-2.05-.91a7.82 7.82 0 0 1-1.08-2.2c-1.3-1.04-1.7-1.7-1.73-1.9Zm.92.1 1.01-.66.58.28-.54.34c-.07.06-.17.22 0 .43.17.2.43.46.54.57l-.31.54-1.28-1.5Zm5.26 3.99c-.26.15-.76.5-.73.68.03.19.64.75.94 1.01l-.21-1.7Zm1.74 4.04-.52-.95 1.11.4c-.08.2-.43.45-.6.55Zm2.52-1.77.12-.96c.2.07.65.17.78 0 .14-.18-.02-.74-.12-1l1 .18c.14.3-.02 1.06-1.78 1.78Zm-6.3-6.62c.41-.45 1.39-1.4 2.06-1.63-1.13-.22-1.84 1-2.06 1.63Zm-.11 2.26c.04-.46.3-1.54 1.03-2.24.92-.88 1.66-.47 1.93-.24-1.45.12-2.58 1.7-2.96 2.48Zm2.15-1.36c-1.1.54-1.52 1.77-1.59 2.31.72-.88 2.35-2.3 3.05-1 .5-1.01-.1-1.97-1.46-1.3Zm10.43-7.8c.23.45.7 1.6.7 2.5 0 .56-.4 1.65-.81 2.74-.42 1.1-.84 2.22-.84 2.8 0 .53.49 1.3 1.01 2.1.6.94 1.25 1.94 1.25 2.77a5.3 5.3 0 0 0 .98-2.54c0-.92-.9-2.38-1.36-3-.01-.2 0-.65.15-.99a5 5 0 0 0 1.78 1.16 4.1 4.1 0 0 1-.75-2.12c0-.18.02-.39.05-.61.13-1.15.33-2.86-2.16-4.82Z"/><path fill-rule="evenodd" d="M28 46a18 18 0 1 0 0-36 18 18 0 0 0 0 36Zm0-2a16 16 0 1 0 0-32 16 16 0 0 0 0 32Z"/></svg>