<!-- by TradingView --><svg width="56" height="56" viewBox="0 0 56 56" fill="none" xmlns="http://www.w3.org/2000/svg">
<rect width="56" height="56" fill="#F0F3FA"/>
<path d="M18.8796 21.1307L11.6991 24.4601C11.2602 24.6636 10.9997 25.0523 11.0004 25.4534C10.9997 25.7261 11.0882 26.0045 11.3048 26.2342L25.9669 41.7279C26.1445 41.9163 26.3692 42 26.5912 42C27.0476 42 27.4817 41.6957 27.4847 41.2499C27.4852 41.1701 27.4828 41.0864 27.4525 41L20.7136 21.813C20.5358 21.305 20.0105 21 19.4595 21.0001C19.2647 21.0022 19.0666 21.044 18.8796 21.1307Z" fill="url(#paint0_linear_5085_141738)"/>
<path d="M18.8796 21.1307L11.6991 24.4502C11.2385 24.6631 10.9997 25.0795 11 25.5C10.9997 25.7526 11.104 26.0067 11.3048 26.2191L25.963 41.7216C26.3534 42.1345 26.9714 42.0485 27.2889 41.7216L15.121 26.2191V24.4502L18.8796 21.1307Z" fill="#01A1B1"/>
<path fill-rule="evenodd" clip-rule="evenodd" d="M11.6991 24.4601C11.2592 24.6633 10.9997 25.052 11.0002 25.4526C10.9997 25.7235 11.0889 25.9998 11.3048 26.228L25.9629 41.7217C26.3534 42.1344 26.9714 42.0485 27.2889 41.7217L15.1209 26.228V24.4601H11.6991Z" fill="#09708F"/>
<path fill-rule="evenodd" clip-rule="evenodd" d="M15.1208 26H11.1421C11.1421 26 11.1737 26.1048 11.2893 26.2266C16.7145 31.9375 25.9628 41.7219 25.9628 41.7219C26.15 41.9197 26.3896 42.0029 26.6232 41.9999C26.8768 41.9967 27.1235 41.8919 27.2887 41.7219L15.1208 26Z" fill="#085B6D"/>
<path d="M20.7555 22L17.1816 25.7969L27.4847 41.1094L20.7555 22Z" fill="url(#paint1_linear_5085_141738)"/>
<path d="M32.8269 12H22.1803C21.5382 12 20.9998 12.5432 21.0035 13.1792C20.9998 13.3614 21.0126 13.5512 21.078 13.738L27.5418 32.7246C27.6064 32.9092 27.7577 33 27.9089 33C28.0683 33 28.2275 32.8988 28.2847 32.7L33.9506 13.6641C34.0054 13.5008 34 13.337 34.0016 13.1792C34 12.5396 33.4651 12 32.8269 12Z" fill="url(#paint2_linear_5085_141738)"/>
<path d="M32.9167 12H22.1795C21.4938 12 21 12.6206 21.0004 13.3118C21.0036 13.4525 21.0285 13.5961 21.0782 13.738L27.5365 32.7246L25.5285 15.0983L32.9167 12Z" fill="#D61F3D"/>
<path fill-rule="evenodd" clip-rule="evenodd" d="M21.078 13.7375C20.9999 13.5623 20.9999 13.3844 21.0015 13.2126C20.9999 12.6639 21.3834 12.1778 21.8857 12.039C22.0744 11.9869 22.2691 12.052 22.4406 12.1522L26.6579 14.6171L25.7002 15.7923L27.8888 32.9993C27.7426 33.0001 27.5988 32.9029 27.5363 32.7241L21.078 13.7375Z" fill="#C02038"/>
<path d="M27.4973 32.6199L25.6888 15.8227L21 13.493L27.4973 32.6199Z" fill="url(#paint3_linear_5085_141738)"/>
<path d="M33.9998 13.4156L27.4999 16L28.2827 32.7267L33.9998 13.4156Z" fill="url(#paint4_linear_5085_141738)"/>
<path d="M44.7106 25.5331L29.2403 45.8423C29.1559 45.9536 29.0361 46.0011 28.9184 45.9999C28.7155 45.9978 28.5186 45.8511 28.5193 45.6367C28.5194 45.6107 28.5224 45.5837 28.5286 45.5559L34.059 21.2061C34.2161 20.5048 34.876 20 35.591 20C35.8077 19.9975 36.0295 20.0709 36.2439 20.1578L44.0488 23.3389C44.6539 23.584 44.9993 24.1276 44.9999 24.6876C45.0003 24.9782 44.9078 25.2731 44.7106 25.5331Z" fill="#76BB51"/>
<path d="M38.674 25.514H44.7392C44.7392 25.514 44.9999 25.1644 44.9999 24.6872C44.9999 24.1147 44.5987 23.5187 43.9965 23.3084C41.4962 22.4354 36.3674 20 35.6786 20C33.9815 20 38.4058 23.9977 38.4058 23.9977L38.674 25.514Z" fill="#A1CE65"/>
<path d="M37.6096 24H44.8111C44.8111 24 44.5716 23.5092 43.9966 23.3084C41.4962 22.4354 36.3675 20 35.6786 20C33.0545 20 37.6096 24 37.6096 24Z" fill="#80B94E"/>
<path d="M44.7393 25.5H38.6627L29.2188 45.875L44.7393 25.5Z" fill="#588F2A"/>
<path d="M36.723 24.5L28.519 45.6015C28.519 45.6015 31.7009 32.3452 33.9927 21.4375C34.25 20.2127 35.118 20.0914 35.118 20.0914L38.4059 24.0156L36.723 24.5Z" fill="#5C9137"/>
<path d="M36.723 24.5L34.0442 21.2344L28.519 45.5938L36.723 24.5Z" fill="#137B3C"/>
<defs>
<linearGradient id="paint0_linear_5085_141738" x1="13.7714" y1="21.6524" x2="23.7797" y2="42.9914" gradientUnits="userSpaceOnUse">
<stop offset="0.0619023" stop-color="#0EC3F0"/>
<stop offset="0.34477" stop-color="#0F9AB1"/>
<stop offset="1" stop-color="#147F9F"/>
</linearGradient>
<linearGradient id="paint1_linear_5085_141738" x1="24.8967" y1="23.5827" x2="19.6366" y2="32.0704" gradientUnits="userSpaceOnUse">
<stop stop-color="#146F8A"/>
<stop offset="0.471611" stop-color="#006F8A"/>
<stop offset="0.841586" stop-color="#006F8A" stop-opacity="0.67"/>
</linearGradient>
<linearGradient id="paint2_linear_5085_141738" x1="27.5025" y1="12" x2="27.5025" y2="33" gradientUnits="userSpaceOnUse">
<stop stop-color="#F74E63"/>
<stop offset="0.407004" stop-color="#E01F3E"/>
<stop offset="1" stop-color="#AB2033"/>
</linearGradient>
<linearGradient id="paint3_linear_5085_141738" x1="28.1315" y1="18.9979" x2="19.8255" y2="18.4557" gradientUnits="userSpaceOnUse">
<stop offset="0.0320153" stop-color="#A01826"/>
<stop offset="0.71451" stop-color="#70171D"/>
</linearGradient>
<linearGradient id="paint4_linear_5085_141738" x1="27.0508" y1="24.2864" x2="35.6606" y2="18.5646" gradientUnits="userSpaceOnUse">
<stop offset="0.460917" stop-color="#D11C38"/>
<stop offset="1" stop-color="#99152A"/>
</linearGradient>
</defs>
</svg>
