<!-- by TradingView --><svg width="56" height="56" viewBox="0 0 56 56" xmlns="http://www.w3.org/2000/svg"><path fill="#F0F3FA" d="M0 0h56v56H0z"/><path fill-rule="evenodd" d="M31 11c0 .2-.02.4-.06.59.86.42 1.98 1 3.32 1.77 3.47 1.97 4.06 3.23 4.06 3.82 0 .37-.1.83-.2 1.15a13.95 13.95 0 0 1 3.66 12.16l5.78-4.16c1.14 2.36.43 6.23-6.55 13.08C35.44 44.88 30.03 46.08 28 46c-2.03.08-7.44-1.12-13.01-6.59C8.01 32.56 7.3 28.7 8.44 26.33l5.78 4.16a14.08 14.08 0 0 1 3.66-12.16 4.6 4.6 0 0 1-.2-1.15c0-.59.59-1.85 4.06-3.82a65.5 65.5 0 0 1 3.32-1.77A3.01 3.01 0 0 1 28 8a3 3 0 0 1 3 3Zm-3 0a1 1 0 1 0 0-2 1 1 0 0 0 0 2ZM15.3 33.91a13.9 13.9 0 0 1-.96-2.82l-.56 1.19 1.53 1.63Zm26.36-2.82a13.9 13.9 0 0 1-.97 2.82l1.53-1.63-.56-1.2Zm-.64-3.03c0 7.2-5.83 13.05-13.02 13.05a13.04 13.04 0 0 1-13.02-13.05C14.98 20.85 20.81 15 28 15c7.19 0 13.02 5.85 13.02 13.06ZM38 28a10 10 0 1 1-20 0 10 10 0 0 1 20 0Z" fill="#041D4B"/><path d="M22.22 23.69c.4-.64.91-1.14 1.5-1.5.33-.2.4-.13.22.21-.13.26-.23.6-.3 1-.1.69-.13 1.38-.1 2.09.01.16.06.17.14.05a12.96 12.96 0 0 1 1.2-3.5.07.07 0 0 1 .06-.04H26l.01.01a48.3 48.3 0 0 0-2.25 10.31c-.04.45-.02.92-.1 1.31-.12.5-.22.5-.3-.01-.2-1.2-.4-2.54-.59-4.05-.11-.88-.07-1.8-.21-2.67-.04-.29-.04-.57.02-.86v-.06a.13.13 0 0 0-.02-.05l-.03-.04c-.06-.06-.1-.06-.12.02-.51 1.52-.72 2.9-.63 4.15.08 1.13.4 2.3.95 3.52.03.06.04.3-.06.3h-.03a9.27 9.27 0 0 1-.4-10.18ZM33.12 27.83a.82.82 0 0 1-.86.13c-.24-.1-.35-.38-.44-.62-.26-.67-.46-1.32-.6-1.97a8.56 8.56 0 0 1-.2-2.3c.03-.52.31-.87.85-1.05.14-.05.32 0 .57.11.5.25.9.6 1.22 1.04.14.2.25.46.36.8l.24.84c.05.2-.02.34-.21.4l-.46.16c-.2.07-.3 0-.33-.21-.01-.2-.05-.42-.1-.67-.06-.25-.22-.44-.3-.63-.1-.27-.27-.42-.55-.37a.3.3 0 0 0-.25.26c-.05.39-.02.76.08 1.12.13.47.28.94.45 1.4.17.48.5.24.73.01.35-.36.95-.26 1.24.07.27.31.38.82.41 1.22.15 1.79-.25 3.39-1.2 4.8A5.32 5.32 0 0 1 32 34a.05.05 0 0 1-.04-.03v-.02c.12-.63.18-1.15.19-1.56a11.32 11.32 0 0 0-.27-2.34.1.1 0 0 1 .05-.07.1.1 0 0 1 .04-.01h.57c.06 0 .1.03.11.1.03.23.05.5.06.8 0 .26.24.55.52.4a.7.7 0 0 0 .22-.26c.07-.13.18-.27.23-.41.22-.72.38-1.96 0-2.72-.1-.2-.39-.18-.56-.05ZM29.31 27.62l-1.08 3.9c-.02.07-.04.08-.07 0-.3-.61-.57-1.5-.77-2.03-.18-.48-.4-1.1-.67-1.9-.02-.06-.06-.08-.12-.08-.04 0-.06.03-.06.07l-.01.44-.62 5.8c-.01.15-.1.2-.27.17-.66-.18-.67-2.32-.63-3 .16-2.76.6-5.34 1.31-7.75.1-.33.24-.72.4-1.18.02-.04.04-.06.08-.06h.59c.03 0 .05.02.05.07-.04 1.1.02 2.1.16 3.01a3.92 3.92 0 0 0 .48 1.36l.07.02c.03 0 .05-.01.08-.03a5.26 5.26 0 0 0 .34-.72 10.77 10.77 0 0 0 .33-3.67l.02-.01h.64c.04 0 .07.01.08.05l.3.77c.37 1.34.63 2.7.8 4.1.1.89.18 1.7.23 2.4.05.85.04 1.67-.02 2.44-.04.5-.13.97-.27 1.4-.12.41-.35.67-.68.77h-.03l-.02-.01-.02-.03a.1.1 0 0 1-.01-.04l-.5-6.22c0-.03-.02-.05-.04-.06h-.04c-.01 0-.02 0-.03.02Z" fill="#FFF336"/><path d="M16.85 27.91v.28l.48-.01.01.27-1.33.04-.01-.58c0-.13.03-.24.1-.32.06-.08.17-.12.3-.13.17 0 .28.04.34.11.07.08.1.2.11.34Zm-.28-.12c-.03-.04-.08-.05-.15-.05-.07 0-.12.02-.15.06a.23.23 0 0 0-.04.15v.26l.4-.01v-.26a.23.23 0 0 0-.06-.15Zm-.4-1.88.23.03-.05.4 1.09.13-.04.28-1.08-.14-.05.4-.24-.03.14-1.07Zm1.08-.02.07-.26.26.06-.06.26-.27-.06Zm.95-2.15-.1.26-1.08.16.88.34-.1.24-1.23-.48.1-.27 1.06-.15-.86-.34.1-.24 1.23.48Zm.1-1.5-.3.58.3.15.34-.65.21.1-.45.9-1.18-.6.44-.87.2.11-.31.62.25.13.3-.57.2.1Zm.53-2 .17-.22.81 1.11-.16.2-.7-.34-.24-.13.18.2.5.6-.15.2-1.28-.52.18-.23.7.33.2.1-.14-.15-.5-.6.17-.22.7.34.19.1-.14-.16-.5-.61Zm1.55-.4-.2.2.33.35-.2.19-.91-.96.41-.4c.1-.1.2-.14.3-.15.1 0 .21.05.31.15.1.11.16.22.14.32 0 .1-.07.2-.18.3Zm-.1-.28c.01-.05-.01-.1-.06-.15-.04-.05-.1-.07-.14-.07-.05 0-.1.03-.14.07l-.19.18.27.29.19-.18c.05-.05.07-.1.08-.14Zm1.58-.25c-.16.1-.3.15-.44.12-.19-.02-.35-.13-.49-.33s-.19-.38-.15-.56c.02-.14.11-.27.27-.38.15-.1.3-.15.44-.12.18.02.34.13.48.33.14.2.19.38.15.56-.02.14-.1.27-.26.38Zm0-.44c.01-.1-.03-.22-.12-.34a.54.54 0 0 0-.27-.23.32.32 0 0 0-.29.06.32.32 0 0 0-.14.25c0 .1.03.21.12.33.08.13.18.2.28.23.1.03.2 0 .28-.05a.32.32 0 0 0 .15-.25Zm1.12-.88-.26.13.24.46-.24.13-.6-1.18.57-.3a.6.6 0 0 1 .21-.07c.05 0 .1 0 .16.03a.37.37 0 0 1 .2.18.4.4 0 0 1 .04.18c0 .07-.03.13-.09.19.07 0 .12 0 .17.03.04.03.08.09.13.17l.04.08.06.1c.02.03.05.05.08.05l.01.03-.27.14a.67.67 0 0 1-.11-.15l-.06-.11c-.04-.07-.08-.12-.11-.13-.04-.01-.1 0-.17.04Zm.04-.3c.04-.04.04-.1 0-.16-.03-.07-.08-.11-.14-.11a.3.3 0 0 0-.13.04l-.29.15.16.31.28-.14.12-.08Zm1.56-1.2.07.22-.37.12.35 1.04-.27.09-.34-1.04-.38.13-.08-.22 1.02-.35Zm1.52 1-.26.02-.16-1.31.4-.05.37 1 .1-1.06.4-.05.17 1.31-.26.03-.11-.88a8.8 8.8 0 0 1-.03-.22l-.1 1.14-.27.03-.4-1.07a8.66 8.66 0 0 0 .04.21l.11.9Zm2.25-.43-.48-.01-.1.27h-.3L28 16h.3l.44 1.34h-.3l-.08-.28Zm-.07-.23-.15-.52-.18.51.33.01Zm1.47.12-.28-.05-.1.5-.26-.04.23-1.3.64.11c.1.02.16.04.2.07.05.03.09.07.12.11a.37.37 0 0 1 .05.26.4.4 0 0 1-.09.18.27.27 0 0 1-.17.1c.05.04.09.08.1.13.02.05.02.12 0 .2v.1a.67.67 0 0 0-.02.12c0 .03.01.06.03.08v.03l-.3-.05v-.19l.02-.12c.01-.08 0-.14-.02-.17-.02-.04-.07-.06-.15-.07Zm.2-.21c.07-.02.1-.06.11-.13.02-.08 0-.14-.05-.18a.3.3 0 0 0-.13-.04l-.31-.06-.07.35.31.05c.07.02.11.02.15 0Zm1-.37.26.07-.36 1.28-.27-.08.36-1.27Zm1.34 1.85-.26-.1-.16-1.07-.34.87-.24-.09.48-1.23.27.1.15 1.06.34-.86.24.1-.48 1.22Zm1.5.15-.55-.33-.17.3.63.37-.11.2-.88-.5.66-1.15.85.49-.12.2-.6-.35-.15.24.56.33-.11.2Zm1.06 1.21.13.08c.08.03.14.01.2-.05a.11.11 0 0 0 0-.11.61.61 0 0 0-.1-.16l-.09-.11a.89.89 0 0 1-.16-.26c-.03-.1 0-.2.07-.3.08-.1.17-.15.29-.16.11 0 .24.04.37.14.11.09.18.2.21.31a.4.4 0 0 1-.07.35l-.21-.17c.04-.06.05-.13.02-.2a.35.35 0 0 0-.1-.12.3.3 0 0 0-.17-.07c-.05 0-.1.01-.12.05a.11.11 0 0 0-.02.13l.1.15.15.18c.06.08.1.15.12.22.02.1 0 .19-.08.28a.38.38 0 0 1-.3.15.58.58 0 0 1-.38-.14.64.64 0 0 1-.24-.35.4.4 0 0 1 .08-.35l.21.17a.27.27 0 0 0-.05.13c0 .08.05.14.14.21Zm1.64 1.05-.44-.47-.25.24.5.53-.17.16-.69-.72.96-.92.67.7-.17.17-.48-.51-.2.2.44.46-.17.16Zm.65.95-.17-.24-.42.3-.16-.22 1.08-.76.38.53a.6.6 0 0 1 .1.2v.15a.37.37 0 0 1-.15.22.4.4 0 0 1-.18.07.27.27 0 0 1-.2-.05c.01.06.01.11-.01.16a.44.44 0 0 1-.15.15l-.07.05a.68.68 0 0 0-.1.08.11.11 0 0 0-.03.09l-.03.02-.17-.25.04-.06a.67.67 0 0 1 .1-.07l.09-.08c.07-.05.1-.1.11-.13 0-.04-.01-.1-.06-.16Zm.3 0c.05.02.1.02.16-.02.07-.05.1-.1.09-.16a.3.3 0 0 0-.06-.13l-.19-.26-.29.2.18.26c.04.05.07.09.1.1Zm.92.39.14.26-.77.72 1.03-.2.13.25-1.38.2-.12-.23.97-1Zm.7 1.47.11.25-1.23.49-.1-.26 1.23-.48Zm-.61 2.04a.54.54 0 0 1-.23-.33.57.57 0 0 1 .05-.48.73.73 0 0 1 .44-.3c.22-.06.41-.05.57.04.13.07.22.19.27.35.06.21.03.39-.08.53a.48.48 0 0 1-.21.15l-.08-.26c.06-.04.1-.07.12-.11.04-.06.05-.14.02-.24a.28.28 0 0 0-.18-.2.58.58 0 0 0-.36.02c-.14.04-.24.1-.3.18a.3.3 0 0 0-.03.25c.02.1.07.16.15.19.04.02.1.03.16.02l.08.27a.6.6 0 0 1-.39-.08Zm.72 1.45-.08-.64-.34.04.1.73-.24.03-.13-1 1.32-.16.12.96-.23.03-.1-.7-.27.04.08.64-.23.03Zm-.34 1.06.01.16c.03.08.08.12.15.12.05 0 .08-.02.1-.06a.6.6 0 0 0 .07-.18l.04-.13a.9.9 0 0 1 .1-.29c.07-.09.17-.13.3-.12.12 0 .22.04.3.13.07.09.1.22.1.39 0 .14-.04.25-.12.35a.4.4 0 0 1-.33.15l.01-.27c.08 0 .14-.04.17-.1.03-.04.04-.1.04-.16a.3.3 0 0 0-.04-.17.14.14 0 0 0-.12-.07.11.11 0 0 0-.1.06.79.79 0 0 0-.06.17l-.07.23a.6.6 0 0 1-.1.22.32.32 0 0 1-.27.12.38.38 0 0 1-.3-.15.58.58 0 0 1-.1-.4c0-.17.04-.3.12-.4a.4.4 0 0 1 .33-.14v.26c-.07.01-.12.03-.15.05-.05.04-.08.12-.08.23ZM18.58 33.07l.13.24-1.14.66-.14-.23 1.15-.67Zm1.01 3.52-.19-.2.3-1.05-.67.66-.18-.2.95-.9.2.2-.3 1.02.67-.64.18.19-.96.92Zm2.23 1.7-.5-.28.67-1.15.5.29a.7.7 0 0 1 .16.12c.06.08.1.16.11.26 0 .08 0 .16-.03.24a1.02 1.02 0 0 1-.4.53c-.16.1-.33.1-.5 0Zm.67-.75c0-.08-.05-.15-.16-.22l-.22-.12-.43.74.22.13c.11.07.22.06.33-.03a.69.69 0 0 0 .16-.2c.07-.11.1-.21.1-.3Zm2.38 2.08c-.18-.05-.3-.14-.37-.27-.1-.16-.11-.35-.05-.58.07-.23.18-.4.34-.47.13-.07.28-.09.46-.03.18.05.31.14.38.26.1.16.11.35.04.58-.06.23-.17.39-.34.47-.12.08-.27.09-.46.04Zm.35-.28a.54.54 0 0 0 .19-.3.54.54 0 0 0 0-.36.32.32 0 0 0-.22-.19.32.32 0 0 0-.29.05.54.54 0 0 0-.18.3.54.54 0 0 0 0 .36c.04.1.11.16.22.19.1.03.2.01.28-.05Zm3.53.63h-.27l-.58-.92.03.94-.25.01-.05-1.32.3-.01.55.9-.03-.92h.26l.04 1.32Zm2.95-1.16-.62.17.1.33.7-.2.06.23-.97.27-.35-1.27.93-.27.07.23-.68.19.08.27.62-.17.06.22Zm2.55-.8.12-.11c.05-.07.06-.13.02-.2a.11.11 0 0 0-.1-.05c-.05 0-.11.02-.2.05l-.13.05a.9.9 0 0 1-.3.06c-.1 0-.2-.06-.26-.17a.38.38 0 0 1-.05-.32c.03-.1.12-.2.26-.3.11-.07.23-.1.36-.1a.4.4 0 0 1 .3.2l-.22.13c-.05-.06-.11-.09-.18-.08-.05 0-.1.02-.16.06a.3.3 0 0 0-.12.12c-.02.05-.01.1.01.14.03.04.07.06.11.06l.18-.05.22-.08a.6.6 0 0 1 .24-.04c.1.01.19.07.25.17s.08.2.04.33a.58.58 0 0 1-.26.3.64.64 0 0 1-.41.13.4.4 0 0 1-.3-.2l.22-.14c.04.05.08.08.12.09.07.02.15 0 .24-.06Zm1.26-2.44.2-.2.95.91-.19.2-.96-.91Zm2.71-1.84-.24.42.19.22-.15.25-.9-1.07.15-.27 1.38.25-.15.26-.28-.06Zm-.23-.05-.54-.11.37.4.16-.29Z" fill="#041D4B"/></svg>