<!-- by TradingView --><svg width="56" height="56" viewBox="0 0 56 56" xmlns="http://www.w3.org/2000/svg"><path fill="#0188B5" d="M0 0h56v56H0z"/><path d="M18.82 15H12c0 1.56 1.13 2.76 1.7 3h4.64c2.54 0 4.83 2.56 5.66 4 0-5.02-3.45-6.76-5.18-7ZM17.42 20H14v.25c0 1.17.96 2.25 2.14 2.25h.77c.97 0 2.55.17 3.88 2.54 1.06 1.9 2.58 2.07 3.21 1.92A7.29 7.29 0 0 0 17.42 20ZM22 12c1.11.27 3 1.56 3 5-1-.06-3-1.15-3-5ZM37.18 15H44c0 1.56-1.13 2.76-1.7 3h-4.64c-2.54 0-4.83 2.56-5.66 4 0-5.02 3.45-6.76 5.18-7ZM38.58 20H42v.25c0 1.17-.96 2.25-2.14 2.25h-.77c-.97 0-2.55.17-3.88 2.54-1.06 1.9-2.58 2.07-3.21 1.92A7.29 7.29 0 0 1 38.58 20ZM34 12c-1.11.27-3 1.56-3 5 1-.06 3-1.15 3-5ZM18.82 41H12c0-1.56 1.13-2.76 1.7-3h4.64c2.54 0 4.83-2.56 5.66-4 0 5.02-3.45 6.76-5.18 7ZM17.42 36H14v-.25c0-1.17.96-2.25 2.14-2.25h.77c.97 0 2.55-.17 3.88-2.54 1.06-1.9 2.58-2.07 3.21-1.92A7.29 7.29 0 0 1 17.42 36ZM22 44c1.11-.27 3-1.56 3-5-1 .06-3 1.15-3 5ZM37.18 41H44c0-1.56-1.13-2.76-1.7-3h-4.64c-2.54 0-4.83-2.56-5.66-4 0 5.02 3.45 6.76 5.18 7ZM38.58 36H42v-.25c0-1.17-.96-2.25-2.14-2.25h-.77c-.97 0-2.55-.17-3.88-2.54-1.06-1.9-2.58-2.07-3.21-1.92A7.29 7.29 0 0 0 38.58 36ZM34 44c-1.11-.27-3-1.56-3-5 1 .06 3 1.15 3 5ZM28 12l-.93.95A3.56 3.56 0 0 0 26 15.43v25.14c0 .9.38 1.77 1.07 2.48L28 44l.93-.95A3.56 3.56 0 0 0 30 40.57V15.43c0-.9-.38-1.77-1.07-2.48L28 12Z" fill="#F6EB3C"/></svg>