<!-- by TradingView --><svg width="56" height="56" viewBox="0 0 56 56" fill="none" xmlns="http://www.w3.org/2000/svg">
<rect width="56" height="56" fill="#203A77"/>
<path d="M26.7557 24.5373L19.125 33L16.1346 40.9158C16.0332 41.138 15.9991 41.3555 16 41.5613C15.999 42.3579 16.7935 43 17.6258 42.9994C18.0177 43 18.425 42.8878 18.7783 42.5895L27.9999 33.9608L37.2364 42.5739C37.5718 42.857 37.9557 42.997 38.3289 43C39.1944 43 40.0002 42.3436 40 41.5156C40.0031 41.319 39.9767 41.1118 39.8802 40.9002L36.8126 33L29.2443 24.5373C28.9199 24.1845 28.461 24 27.9999 24C27.5389 24 27.0801 24.1845 26.7557 24.5373Z" fill="white"/>
<path d="M19.5526 22L11.6395 22.0001C10.6794 22.0001 10.0009 22.7685 10 23.5626C9.99956 23.9382 10.182 24.3196 10.5 24.628L17.9453 31.0001L26.8678 21.4882C27.1817 21.1667 27.5748 21.0016 28 21.0001C28.4198 20.9985 28.8717 21.1565 29.1875 21.4688L37.875 31.0001L45.5003 24.6563C45.8442 24.3453 45.9988 23.9513 46 23.5625C46.0023 22.7703 45.3677 22.0001 44.4008 22.0001L36.2996 22C35.364 22 34.5141 21.5192 34.1239 20.7103L29.5 10.885C29.2078 10.2793 28.5996 10 28 10.0007C27.4423 10 26.8921 10.3029 26.6104 10.8619L21.7112 20.7542C21.313 21.5442 20.4736 22 19.5526 22Z" fill="#B9D02E"/>
</svg>
