<!-- by TradingView --><svg width="56" height="56" viewBox="0 0 56 56" xmlns="http://www.w3.org/2000/svg"><path fill="#F0F3FA" d="M0 0h56v56H0z"/><path d="m24 7 .7 2H27l-1.85 1.09.7 1.91L24 10.82 22.15 12l.7-1.91L21 9h2.3l.7-2ZM32 7l.7 2H35l-1.85 1.09.7 1.91L32 10.82 30.15 12l.7-1.91L29 9h2.3l.7-2Z" fill="#F9CD13"/><path d="M28.02 14h-.04c-2.47.02-7.8.35-10.95 1.46a1.2 1.2 0 0 0-.78 1.06c-.1 1.49-.25 4.23-.25 7.48v.27c0 5.2-.02 19.87 11.98 23.72V48h.04v-.01C40.02 44.14 40 29.47 40 24.27V24c0-3.25-.14-6-.25-7.48a1.2 1.2 0 0 0-.78-1.06c-3.15-1.1-8.48-1.44-10.95-1.46Z" fill="#231F20"/><path d="m27.35 42.67-.78.53v.6l.61.42.74-.56v-.58l-.57-.41Zm1.36 0 .78.53v.6l-.6.42-.74-.56v-.58l.56-.41Zm-2.01 1.46.48.28.25.77-.29.35h-.7l-.3-.9.56-.5Zm2.16.28.48-.28.57.5-.32.9h-.69l-.3-.35.26-.77Zm-.42.97h-.88l-.3.25v.41l.34.35h.8l.33-.35v-.4l-.29-.26Z" fill="url(#a)"/><path d="m29 29.3.53.64c.43-.97 1.54-1.25 2.13-1.27a2.46 2.46 0 0 1-.66-.89v-2.9c0-.46.12-.8.18-.9-.47 0-1.56-1.45-1.85-1.7-.29-.26-1.13-1.28-2.42-1.28-1.3 0-2.12 1-2.92 1.77A6.33 6.33 0 0 1 22 23.98c.21.17.32.49.35.63v10.5c0 1.9-.17 2.86-.25 3.1.43.03 1.21.35 1.9 1 .67.65 1.78 1.79 3.05 1.79 1.02 0 1.66-.59 1.85-.89l-.64-.4c-.13.13-.53.4-1.09.4-1.65 0-2.37-1.94-2.52-2.91v-13c0-.67.43-2.2 2.26-2.2 1.74 0 2.06 1.43 2.09 2.2v5.1Z" fill="url(#b)"/><path d="M35.39 25.37c-1.91 0-3.46-.42-3.95-.63.14.37.49.97.56 1.23v10.79c0 1.6-.7 2.9-2 2.9-1.85 0-2.4-1.74-2.44-2.6v-10.4c0-.6.4-.88.6-.95-.8-.56-1.4-2.04-1.6-2.71 0 .9-1.04 2.18-1.56 2.71.33.19.54.72.6.96v8.22C25.6 38.01 28 40 30 40c2.02 0 2.26-.68 3.23-1.48a3.21 3.21 0 0 1 1.7-.83c-.55-.2-.85-.7-.93-.93v-10.1c0-.9.92-1.24 1.39-1.29Z" fill="url(#c)"/><path d="M31 33.48c0-.77.53-1.32.8-1.5-1.62 0-2.09-1.08-2.67-2.09-.47-.8-.91-1.2-1.15-1.29v.58A1.73 1.73 0 0 1 29 30.9v6.39c0 .56-.13 1.31-.15 1.4.39.05.78.18.93.23a5.82 5.82 0 0 1 1.5-1.14 2.5 2.5 0 0 1-.28-.49v-3.8Z" fill="url(#d)"/><path d="M25.5 28.35c-.83.16-1.46.97-1.46 1.95s.63 1.8 1.46 1.95v-.52c-.57-.15-1-.73-1-1.43s.43-1.27 1-1.42v-.53Z" fill="#949095"/><path d="m27.79 31.5 1.15-.9v.65l-1.15.9v-.64Z" fill="#D9D9D9"/><path fill="#8A8A8C" d="M18 22h3v4h-3zM18 29h3v4h-3zM24.04 42.99h1.93v2.97l-1.93-.71v-2.26ZM32 42.99h-1.92v2.97l1.93-.71v-2.26ZM18.5 36H21v4h-1.5l-1-2v-2ZM38 22h-3v4h3zM32 22h-2c.73.45 1.07.78 2 1v-1ZM38 29h-3v4h3zM38 36h-3v4h1.5l1.5-3v-1Z"/><path fill-rule="evenodd" d="M28.9 47.35c7.66-2.85 10.6-12.32 10.6-19.03 0-4.43-.2-6.37-.37-7.36a.83.83 0 0 0-.61-.67 44.66 44.66 0 0 0-11.44-1.27c-2.37.07-6.46.39-9.62 1.27a.83.83 0 0 0-.61.67c-.16.99-.37 2.93-.37 7.36 0 6.7 2.94 16.18 10.6 19.03.29.11.59.21.9.3H28l.9-.3Zm-.91-.68c3.72-1.17 6.35-3.99 8.06-7.41a25.32 25.32 0 0 0 2.52-10.94c0-4.28-.19-6.16-.34-7.12-3.49-.97-8.2-1.2-10.23-1.2-2.03 0-6.76.23-10.25 1.2-.15.96-.34 2.84-.34 7.12 0 3.36.76 7.43 2.52 10.94 1.71 3.42 4.34 6.24 8.06 7.4Z" fill="url(#e)"/><path d="M28.13 15c.03.02.05.08.05.16-.01.4-.02 1.05-.01 1.92 0 .2-.23.47-.22.55-.37.02-.75.02-1.13 0-.37-.03-.55-.6-.55-.94v-1.61c0-.05.02-.07.06-.07h.4c.04 0 .06.02.06.06v1.8c0 .02 0 .04.02.06.14.2.26.2.5.21h.23c.1 0 .15-.05.15-.16v-1.92c0-.02.01-.04.04-.04l.4-.02ZM29.37 16.05v1.52c0 .04-.02.06-.06.06H28.9l-.02-.02v-.02l-.01-.02v-2.46c0-.05.02-.07.06-.08a1 1 0 0 1 .43 0c.02 0 .04 0 .05.02l.9 1.58c.02.03.03.04.05.03l.01-.01v-1.52c0-.06.04-.1.1-.09l.31.03c.07 0 .1.04.1.12v2.38c0 .04-.01.07-.05.08-.15.03-.43.06-.53-.1l-.89-1.52c-.03-.04-.04-.04-.04.02Z" fill="#C0BBBC"/><path d="m23.97 15.17.42-.03h.02l.02.01v.02l.01.02v2.51l-.01.04-.03.01-.42.04h-.02l-.01-.01-.02-.02v-2.54l.01-.03.03-.02Z" fill="#F5F3F4"/><path d="m32.04 17.8-.4-.04-.04-.02a.07.07 0 0 1-.02-.05V15.2a.07.07 0 0 1 .02-.04l.02-.02h.03l.4.04c.02 0 .03 0 .04.02l.01.04v2.5a.07.07 0 0 1-.01.04l-.02.01h-.03Z" fill="#E2E0E1"/><path d="m34.45 15.94-.6-.1a.1.1 0 0 0-.05 0 .12.12 0 0 0-.04.02.13.13 0 0 0-.03.05l-.02.05v1.85c0 .08-.03.12-.1.12h-.2c-.07 0-.11-.04-.11-.13 0-.61-.05-1.23 0-1.85 0-.13-.05-.2-.17-.22a1.58 1.58 0 0 0-.53 0 1.27 1.27 0 0 1 0-.46c0-.02.02-.03.05-.03l1.74.18c.01 0 .03 0 .04.02l.02.05v.45ZM22.3 17.37a.09.09 0 0 0 .02.06l.02.02h.03l1.04-.08c.03 0 .04 0 .04.04v.37c0 .04-.02.07-.06.07-.39.02-.7.1-1.11.12-.36.02-.5-.25-.5-.6v-1.83c0-.09.05-.13.12-.14l.32-.03c.05 0 .07.03.07.08v1.92ZM35.02 15.75c.2-.1.35-.14.44-.12.33.07.67.13 1 .18.05.01.08.05.08.11v.31c0 .06-.03.09-.08.08l-.92-.18c-.08-.01-.12.02-.13.11l-.02.26c-.01.08.02.13.1.15l.87.16c.06.02.09.06.09.12v.25c0 .08-.04.1-.1.1l-.88-.18h-.03l-.02.02-.02.02v.03c-.01.23-.08.56.2.61.3.06.62.1.93.18.04.01.06.04.06.1v.33a.07.07 0 0 1-.02.05l-.03.02h-.02c-.4-.08-.76-.15-1.09-.23-.48-.1-.55-.5-.54-.99a65.98 65.98 0 0 0 .02-1c0-.18.02-.32.07-.45 0-.02.02-.03.04-.04ZM20.68 17.79a.12.12 0 0 0-.04-.07.1.1 0 0 0-.08-.01l-.64.1c-.01 0-.03 0-.04.02a.08.08 0 0 0-.02.03l-.1.45c0 .03-.02.05-.04.08a.13.13 0 0 1-.08.03l-.35.06c-.06 0-.08-.02-.06-.1l.65-2.32c.04-.15.1-.3.25-.35.16-.04.29-.06.4-.05l.04.02.03.04.72 2.3c.02.07 0 .1-.05.1l-.4.07c-.04 0-.06 0-.07-.05l-.12-.35Zm-.62-.46.4-.06s.02 0 .03-.02a.1.1 0 0 0 .02-.03.1.1 0 0 0 .01-.08l-.24-.77-.01-.01h-.03l-.01.01-.21.9v.05h.02l.02.01Z" fill="#F5F3F4"/><path d="M37.62 18.68a2.34 2.34 0 0 0-.39-.06.13.13 0 0 1-.09-.05.16.16 0 0 1-.03-.1V16.1c0-.07.03-.11.1-.11.22 0 .48.09.69.14.56.15.94.47 1.06 1.14.07.38.07 1-.18 1.3-.3.34-.75.21-1.16.1Zm-.01-.66c-.01.12.04.19.15.2.14.03.26.04.35.04.36 0 .41-.57.37-.88-.06-.5-.33-.76-.81-.79a.04.04 0 0 0-.04.01.05.05 0 0 0-.01.04 26.58 26.58 0 0 0-.01 1.38Z" fill="#E2E0E1"/><path d="M17.19 18.99a.2.2 0 0 1-.13 0 .08.08 0 0 1-.04-.03.1.1 0 0 1-.02-.06v-2.33c0-.04.01-.09.04-.12a.18.18 0 0 1 .1-.07l.7-.18c.35-.1.83-.18.9.35a.7.7 0 0 1-.2.58l-.02.04a.09.09 0 0 0 .02.07l.03.03c.17.08.26.21.26.41.01.22 0 .38-.1.57-.16.27-.38.45-.67.52l-.09.03a3.66 3.66 0 0 0-.78.19Zm.36-1.71.47-.15c.11-.03.18-.12.2-.27l-.02-.08c-.02-.09-.07-.12-.14-.11l-.52.08a.06.06 0 0 0-.04.02.07.07 0 0 0-.01.05V17.25l.02.02h.04Zm.01.43c-.05.01-.07.05-.07.1v.55l.03.02.02.01h.03l.34-.1c.26-.04.46-.23.39-.54-.04-.16-.18-.16-.3-.14l-.44.1Z" fill="#C0BBBC"/><path fill="#F3F2EE" d="M23 24h1v13h-1z"/><path fill-rule="evenodd" d="M28.04 47a2.48 2.48 0 0 0 2.46-2.5c0-1.38-1.1-2.5-2.46-2.5a2.48 2.48 0 0 0-2.45 2.5c0 1.38 1.1 2.5 2.45 2.5Zm0-.43c1.13 0 2.04-.93 2.04-2.07 0-1.14-.91-2.07-2.04-2.07-1.12 0-2.03.93-2.03 2.07 0 1.14.9 2.07 2.03 2.07Z" fill="gold"/><defs><linearGradient id="a" x1="26.83" y1="43.01" x2="29.42" y2="46.33" gradientUnits="userSpaceOnUse"><stop offset=".18" stop-color="#9F98A0"/><stop offset=".32" stop-color="#fff"/></linearGradient><linearGradient id="b" x1="23.01" y1="22.88" x2="28.55" y2="40.5" gradientUnits="userSpaceOnUse"><stop stop-color="#E1E0DD"/><stop offset=".34" stop-color="#918C92"/><stop offset=".85" stop-color="#F0F1F3"/><stop offset="1" stop-color="#9FA0A4"/></linearGradient><linearGradient id="c" x1="36" y1="31.5" x2="25" y2="31.5" gradientUnits="userSpaceOnUse"><stop stop-color="#C72429"/><stop offset=".8" stop-color="#8C1823"/><stop offset=".91" stop-color="#C32927"/></linearGradient><linearGradient id="d" x1="30.07" y1="28.6" x2="30.07" y2="38.92" gradientUnits="userSpaceOnUse"><stop stop-color="#E1E1E3"/><stop offset="1" stop-color="#C4C2C5"/></linearGradient><linearGradient id="e" x1="39.5" y1="33.13" x2="16.48" y2="33.13" gradientUnits="userSpaceOnUse"><stop stop-color="#D79612"/><stop offset=".24" stop-color="#A8791F"/><stop offset="1" stop-color="#FCC604"/></linearGradient></defs></svg>