<!-- by TradingView --><svg width="56" height="56" viewBox="0 0 56 56" xmlns="http://www.w3.org/2000/svg"><path fill="#F0F3FA" d="M0 0h56v56H0z"/><path d="M44 33c.5-1.6 1-3.23 1-5a17 17 0 0 0-34 0c0 1.77.5 3.4 1 5 3.73-4.87 9.39-8 16-8 6.61 0 12.27 3.13 16 8Z" fill="#1582C3"/><path d="M45 28.12c-.01 1.72-.5 3.31-1 4.88-3.73-4.87-9.39-8-16-8a19.95 19.95 0 0 0-16 8c-.47-1.5-.96-3.02-1-4.67C14.07 22.01 20.55 18 28.06 18c7.41 0 13.83 3.9 16.94 10.12Z" fill="#22B5EB"/><path d="M43.6 34.78a17 17 0 0 1-31.2 0A47.47 47.47 0 0 1 28 32c5.46 0 10.71 1.08 15.6 2.78Z" fill="#1582C3"/><path d="M44 33c-2.35-7.77-8.6-12-15.98-12-7.39 0-13.67 4.23-16.02 12 3.74-5.58 9.53-9.45 16.02-9.45S40.26 27.42 44 33Z" fill="#42C6ED"/><path d="M44 33c-2.35-5.98-8.6-10-15.98-10-7.39 0-13.67 4.02-16.02 10 3.74-4.29 9.53-8 16.02-8S40.26 28.71 44 33Z" fill="#8DD6F9"/></svg>