<!-- by TradingView --><svg width="56" height="56" viewBox="0 0 56 56" xmlns="http://www.w3.org/2000/svg"><path fill="#F0F3FA" d="M0 0h56v56H0z"/><path fill-rule="evenodd" d="M42 12H14v21.34c0 8.17 2.85 9.77 6.43 11.28 2.86 1.2 6.27 2.75 7.62 3.38 1.25-.83 5.48-2.6 7.44-3.38C42 41.7 42 36.48 42 33.34V12Zm-25 3h7.56a3.64 3.64 0 0 1 2.04 6.65A3.87 3.87 0 0 1 24.9 29H17V15Zm4 3h2.14a1.28 1.28 0 1 1 0 2.57H21V18Zm0 5h2.5a1.5 1.5 0 0 1 0 3H21v-3Zm14.5-8H29v14h4v-5h2.5a4.5 4.5 0 0 0 0-9Zm-1 3H33v3h1.5a1.5 1.5 0 0 0 0-3ZM39 37.5c0 .32-.05.59-.14.81-.1.22-.22.4-.38.51a.9.9 0 0 1-.54.18.89.89 0 0 1-.54-.18 1.18 1.18 0 0 1-.38-.51c-.1-.22-.14-.5-.14-.81 0-.32.05-.59.14-.81.1-.23.22-.4.38-.51a.89.89 0 0 1 .54-.18c.2 0 .38.06.54.18.16.11.29.28.38.5.1.23.14.5.14.82Zm-.49 0c0-.2-.02-.38-.07-.52a.7.7 0 0 0-.2-.32.45.45 0 0 0-.3-.11.45.45 0 0 0-.3.1.7.7 0 0 0-.2.33c-.05.14-.07.31-.07.52 0 .2.02.38.07.52a.7.7 0 0 0 .2.32c.08.08.18.11.3.11s.22-.03.3-.1a.7.7 0 0 0 .2-.33c.05-.14.07-.31.07-.52ZM34.66 39h.8c.23 0 .43-.06.59-.18.17-.12.3-.3.38-.52.1-.22.14-.49.14-.8 0-.31-.05-.58-.14-.8-.09-.23-.21-.4-.38-.52a.97.97 0 0 0-.59-.18h-.8v3Zm.78-.54h-.3v-1.92h.3c.14 0 .26.04.36.1.1.07.17.17.21.31.05.14.08.33.08.55 0 .22-.03.4-.08.54a.6.6 0 0 1-.21.32c-.1.06-.22.1-.36.1ZM34.26 36v3h-.41l-.99-1.89h-.01V39h-.48v-3h.42l.97 1.89h.02V36h.48Zm-2.29 3v-3h-.48v3h.48Zm-2.52 0v-3h.9c.17 0 .31.04.43.12.12.08.22.2.28.34.06.15.1.32.1.52s-.04.37-.1.51a.73.73 0 0 1-.3.34l.48 1.17h-.53l-.43-1.06h-.35V39h-.48Zm.8-1.57h-.32v-.91h.32c.1 0 .17.02.23.05.06.04.1.09.14.16.03.07.04.15.04.25a.6.6 0 0 1-.04.25.3.3 0 0 1-.14.15.47.47 0 0 1-.22.05ZM27.56 36v3h1.53v-.52h-1.05v-.72h.96v-.52h-.96v-.72h1.04V36h-1.52Zm-2.02 3v-3h.9a.73.73 0 0 1 .71.49c.06.15.1.33.1.53s-.04.37-.1.52a.8.8 0 0 1-.28.36.76.76 0 0 1-.45.13h-.4V39h-.48Zm.48-1.48h.33c.09 0 .16-.02.22-.06.06-.05.1-.1.14-.18a.7.7 0 0 0 .04-.26c0-.1-.01-.19-.04-.26a.37.37 0 0 0-.14-.18.4.4 0 0 0-.23-.06h-.32v1Zm-1.4-.9c.06.06.1.14.11.26h.46a1 1 0 0 0-.11-.46.77.77 0 0 0-.3-.3.85.85 0 0 0-.43-.12.87.87 0 0 0-.45.11.8.8 0 0 0-.3.31.93.93 0 0 0-.11.46c0 .22.05.4.16.52.11.13.26.22.46.28l.24.08.21.08c.06.04.1.07.13.12.03.04.05.1.05.16 0 .07-.02.14-.05.19a.34.34 0 0 1-.14.13.46.46 0 0 1-.21.04.5.5 0 0 1-.23-.05.39.39 0 0 1-.15-.14.54.54 0 0 1-.07-.25h-.46c0 .21.04.39.12.53.07.14.18.25.31.32.14.07.3.11.48.11.19 0 .34-.04.47-.1a.73.73 0 0 0 .3-.31c.07-.13.1-.29.11-.47a.97.97 0 0 0-.05-.32.75.75 0 0 0-.36-.42 1.22 1.22 0 0 0-.27-.11l-.2-.07a1 1 0 0 1-.14-.05.56.56 0 0 1-.12-.07.32.32 0 0 1-.07-.1.3.3 0 0 1-.03-.14.3.3 0 0 1 .17-.28.42.42 0 0 1 .2-.04c.1 0 .2.03.27.1Zm-1.47.88c0 .32-.05.59-.14.81-.1.22-.22.4-.38.51a.9.9 0 0 1-.54.18.89.89 0 0 1-.54-.18 1.18 1.18 0 0 1-.38-.51c-.1-.22-.14-.5-.14-.81 0-.32.04-.59.14-.81.09-.23.22-.4.38-.51a.89.89 0 0 1 .54-.18c.2 0 .38.06.54.18.16.11.28.28.38.5.1.23.14.5.14.82Zm-.49 0c0-.2-.02-.38-.07-.52a.7.7 0 0 0-.2-.32.45.45 0 0 0-.3-.11.45.45 0 0 0-.3.1.7.7 0 0 0-.2.33c-.05.14-.08.31-.08.52 0 .2.03.38.07.52a.7.7 0 0 0 .2.32c.1.08.2.11.3.11.12 0 .22-.03.31-.1a.7.7 0 0 0 .2-.33c.05-.14.07-.31.07-.52ZM19.02 36v3h.47v-1.06h.35l.43 1.06h.53l-.48-1.17h.02a.73.73 0 0 0 .28-.34c.07-.14.1-.31.1-.51s-.03-.37-.1-.52a.75.75 0 0 0-.27-.34.77.77 0 0 0-.44-.12H19Zm.47 1.43h.33c.09 0 .17-.02.23-.05a.3.3 0 0 0 .13-.15.6.6 0 0 0 .05-.25c0-.1-.02-.18-.05-.25a.32.32 0 0 0-.13-.16.44.44 0 0 0-.23-.05h-.33v.9ZM17 39v-3h.9a.73.73 0 0 1 .7.49c.07.15.1.33.1.53s-.03.37-.1.52a.8.8 0 0 1-.27.36.76.76 0 0 1-.45.13h-.4V39H17Zm.48-1.48h.32c.1 0 .17-.02.23-.06.06-.05.1-.1.14-.18a.7.7 0 0 0 .04-.26c0-.1-.01-.19-.04-.26a.37.37 0 0 0-.14-.18.4.4 0 0 0-.23-.06h-.32v1ZM32.47 35h.51l.17-.68h.82l.16.68h.52l-.78-3h-.62l-.78 3Zm1.38-1.18-.28-1.13h-.02l-.28 1.13h.58ZM32.2 32v3h-.48v-3h.48Zm-1.85 2.28L29.8 32h-.53l.78 3h.62l.78-3h-.53l-.55 2.28h-.02Zm-2.61.72h-.52l.78-3h.62l.78 3h-.51l-.17-.68h-.82l-.16.68Zm.58-2.31.28 1.13h-.57l.27-1.13h.02ZM25.46 32v.52h.7V35h.46v-2.48h.7V32h-1.86Zm-1.58 3h-.51l.78-3h.62l.78 3h-.51l-.17-.68h-.82l-.17.68Zm.59-2.31.28 1.13h-.58l.28-1.13h.02ZM21.43 32v3h.97a.8.8 0 0 0 .43-.1c.12-.08.2-.18.26-.3a.98.98 0 0 0 .1-.43.94.94 0 0 0-.08-.38.64.64 0 0 0-.18-.25.42.42 0 0 0-.25-.1v-.03a.54.54 0 0 0 .36-.33c.03-.09.05-.2.05-.31a.9.9 0 0 0-.08-.4.62.62 0 0 0-.25-.27.81.81 0 0 0-.42-.1h-.9Zm.87 2.48h-.39v-.8h.4c.08 0 .15.02.2.06.06.04.1.09.13.15a.5.5 0 0 1 .05.22.4.4 0 0 1-.1.27c-.06.07-.15.1-.29.1Zm-.03-1.22h-.36v-.75h.37c.1 0 .18.04.24.1.06.07.09.16.09.27 0 .07-.02.14-.05.2a.33.33 0 0 1-.12.13.33.33 0 0 1-.17.05Z" fill="#005D9B"/></svg>