<!-- by TradingView --><svg width="56" height="56" viewBox="0 0 56 56" xmlns="http://www.w3.org/2000/svg"><path fill="#F0F3FA" d="M0 0h56v56H0z"/><path d="m43 21-.26 1.43h-2.99l.27-1.43H43Zm-.36 1.98L40.98 32H38l1.65-9.02h2.99ZM39 23l-2.66 9H33v-9h2.46l-.35 6.57c.14-.48.42-1.66.85-3.53l.75-3.04H39ZM25.48 22l-.26 1.39H26l-.26 1.4h-.78l-.88 4.72c-.1.58-.14.9-.09.97.06.06.32.1.8.1L24.51 32h-1.17c-.65 0-1.12-.02-1.4-.07-.26-.06-.49-.17-.67-.36a.94.94 0 0 1-.28-.63c0-.24.07-.8.23-1.67l.84-4.48h-.62l.26-1.4h.62l.26-1.39h2.9ZM28.33 26h-2.55c.34-1.9 1.63-3 3.6-3 .91 0 1.58.16 1.99.48.4.31.62.7.63 1.16a18 18 0 0 1-.37 2.84L30.86 32H28.2l.14-.93a2.05 2.05 0 0 1-1.75.93c-.47 0-.89-.13-1.24-.39s-.44-.83-.29-1.7l.13-.72c.12-.65.3-1.1.55-1.33.26-.23.83-.5 1.72-.82a5.57 5.57 0 0 0 1.55-.69 2 2 0 0 0 .23-.72c.08-.45.1-.75.05-.88-.05-.14-.15-.21-.3-.21-.2 0-.32.06-.38.17-.07.12-.14.42-.23.9l-.06.39Zm.54 1.71c-.49.31-.79.57-.9.78-.1.21-.19.51-.26.9-.08.45-.1.74-.06.88.04.13.14.2.32.2.17 0 .3-.06.36-.16.07-.1.15-.37.23-.81l.31-1.79ZM45.33 26h-2.55c.34-1.9 1.63-3 3.6-3 .91 0 1.58.16 1.99.48.4.31.62.7.63 1.16a18 18 0 0 1-.37 2.84L47.86 32H45.2l.14-.93a2.05 2.05 0 0 1-1.75.93c-.47 0-.89-.13-1.24-.39s-.44-.83-.29-1.7l.13-.72c.12-.65.3-1.1.55-1.33.26-.23.83-.5 1.72-.82a5.57 5.57 0 0 0 1.55-.69 2 2 0 0 0 .23-.72c.08-.45.1-.75.05-.88-.05-.14-.15-.21-.3-.21-.2 0-.32.06-.38.17-.07.12-.14.42-.23.9l-.06.39Zm.54 1.71c-.49.31-.79.57-.9.78-.1.21-.19.51-.26.9-.08.45-.1.74-.06.88.04.13.14.2.32.2.17 0 .3-.06.36-.16.07-.1.15-.37.23-.81l.31-1.79ZM17.33 26h-2.55c.34-1.9 1.63-3 3.6-3 .91 0 1.58.16 1.99.48.4.31.62.7.63 1.16a18 18 0 0 1-.37 2.84L19.86 32H17.2l.14-.93a2.05 2.05 0 0 1-1.75.93c-.47 0-.89-.13-1.24-.39s-.44-.83-.29-1.7l.13-.72c.12-.65.3-1.1.55-1.33.26-.23.83-.5 1.72-.82a5.57 5.57 0 0 0 1.55-.69 2 2 0 0 0 .23-.72c.08-.45.1-.75.05-.88-.05-.14-.15-.21-.3-.21-.2 0-.32.06-.38.17-.07.12-.14.42-.23.9l-.06.39Zm.54 1.71c-.49.31-.79.57-.9.78-.1.21-.19.51-.26.9-.08.45-.1.74-.06.88.04.13.14.2.32.2.17 0 .3-.06.36-.16.07-.1.15-.37.23-.81l.31-1.79ZM7.93 21h2.88c.9 0 1.58.07 2.02.21.45.14.78.43.99.86.21.42.24 1.11.07 2.06-.11.65-.3 1.1-.54 1.35-.25.25-.68.45-1.3.58.64.15 1.04.4 1.22.75.18.34.2.87.08 1.59l-.18 1.02c-.13.74-.31 1.3-.55 1.65-.23.36-.55.6-.94.73-.4.13-1.18.2-2.34.2H6l1.93-11Zm2.5 2L10 25.45l.29-.01c.77 0 .8-.78.9-1.4.05-.25.18-.85-.18-.98-.09-.04-.29-.06-.58-.06Zm-.68 4-.53 3c.77-.03.98-.15 1.12-.95l.18-1.02c.14-.78.03-1-.77-1.03Z" fill="#252D6D"/><path fill-rule="evenodd" d="M34.27 33H49l-1.27 8H33l1.27-8Zm12.49 2-.07.44h.33l-.09.56h-.33l-.32 2c-.03.23-.04.36-.02.4.03.02.14.03.34.03l-.1.57h-.49c-.27 0-.47-.01-.59-.03a.58.58 0 0 1-.29-.14.38.38 0 0 1-.13-.25c0-.1.02-.32.07-.67l.3-1.91h-.25l.08-.56h.27l.06-.44h1.23Zm-3.64.43.09-.43h-1.53L41 39h1.5l.46-2.66c.05-.3.1-.47.14-.54.03-.07.1-.1.21-.1.1 0 .16.03.17.08.02.06 0 .23-.05.5L42.96 39h1.5l.47-2.75c.06-.35.08-.6.06-.74a.52.52 0 0 0-.25-.36c-.15-.1-.35-.15-.6-.15-.2 0-.4.04-.57.1-.17.08-.32.19-.45.33ZM40.89 37h-1.57l-.12.9a.88.88 0 0 0-.01.34c.02.05.07.08.14.08.1 0 .16-.04.2-.1.04-.07.07-.2.1-.4l.07-.5h1.15l-.04.28c-.03.24-.07.43-.13.55a1.3 1.3 0 0 1-.27.41c-.13.15-.3.26-.48.33-.19.07-.41.11-.67.11-.26 0-.48-.04-.67-.1a.91.91 0 0 1-.41-.3.92.92 0 0 1-.17-.41c-.02-.16-.01-.38.03-.66l.16-1.13c.05-.34.14-.6.26-.8.12-.2.3-.34.52-.44.23-.1.49-.16.77-.16.34 0 .6.06.8.19.21.12.34.29.4.5.06.2.07.5.01.87l-.07.44Zm-1.13-.56.04-.28c.03-.2.04-.33.03-.39-.02-.06-.06-.09-.13-.09-.08 0-.14.03-.16.08-.03.05-.06.18-.09.4l-.04.28h.35Zm-2.78-.85.15-.59h-1.46L35 39h1.46l.26-1.55c.07-.38.12-.63.17-.73a.5.5 0 0 1 .27-.25c.14-.06.34-.09.6-.09L38 35c-.4.02-.75.22-1.02.59Z" fill="#00A9DA"/></svg>