<!-- by TradingView --><svg width="56" height="56" viewBox="0 0 56 56" fill="none" xmlns="http://www.w3.org/2000/svg">
<rect width="56" height="56" fill="#F0F3FA"/>
<path d="M20.5 26H19.5V30H20.5V28.4H20.9843L22.5626 30H24L21.9144 27.8404L23.7276 26H22.4405L21.0783 27.4H20.5V26Z" fill="black"/>
<path fill-rule="evenodd" clip-rule="evenodd" d="M33 26V30H35.5469C36.0429 30 37 29.914 37 28.9677V27.1398C37 26.4731 36.4084 26 35.9219 26H33ZM34 27V29H35.4219C35.6699 29 36 28.957 36 28.4839V27.5699C36 27.2366 35.7622 27 35.519 27H34Z" fill="black"/>
<path fill-rule="evenodd" clip-rule="evenodd" d="M10.6999 29.3V26.7H12.7251C12.8434 26.7 12.9602 26.7332 13.0587 26.8121C13.1528 26.8875 13.2058 26.9852 13.2368 27.0723C13.2948 27.2349 13.3001 27.4335 13.3001 27.5959V28.4219C13.3001 28.7032 13.2305 28.9421 13.0589 29.1056C12.8893 29.2671 12.6772 29.3 12.5169 29.3H10.6999ZM10.3 26.3V29.7H12.6306C12.8715 29.7 13.1535 29.6769 13.3675 29.5702C13.4689 29.5196 13.5477 29.4538 13.6025 29.3674C13.657 29.2817 13.7 29.1567 13.7 28.9677V27.1398C13.7 26.6025 13.3317 26.3 13.045 26.3H10.3ZM10 26H13.045C13.5315 26 14 26.4731 14 27.1398V28.9677C14 29.914 13.1266 30 12.6306 30H10V26ZM10.9999 27H12.7251C12.9694 27 13.0001 27.2626 13.0001 27.5959V28.4219C13.0001 28.895 12.7661 29 12.5169 29H10.9999V27Z" fill="black"/>
<path fill-rule="evenodd" clip-rule="evenodd" d="M28.5 30V26H31.3915C32.0473 26 32.5 26.5838 32.5 27.4162C32.5 28.0324 32.1674 28.3784 32.1674 28.3784C32.1674 28.3784 32.5 28.5081 32.5 28.9622V30H31.5V29.4375C31.5 29.0591 31.2022 29 31.0312 29H29.5162V30H28.5ZM29.5001 27V28H30.9532C31.2026 28 31.5001 27.875 31.5001 27.5C31.5001 27.125 31.2488 27 30.9532 27H29.5001Z" fill="black"/>
<path fill-rule="evenodd" clip-rule="evenodd" d="M4.7 26.3H4.3V29.7H4.7V26.3ZM4 26V30H5V26H4Z" fill="black"/>
<path fill-rule="evenodd" clip-rule="evenodd" d="M6.84143 26H5.5V30H6.56224V27.5469L8.35678 30H9.5V26L8.43776 26V28.1641L6.84143 26ZM8.73776 26.3V29.0043H8.65036L6.69291 26.3H5.8V29.7H6.26224V27H6.54532L8.50902 29.7H9.2V26.3L8.73776 26.3Z" fill="black"/>
<path fill-rule="evenodd" clip-rule="evenodd" d="M15.705 26.3C15.2386 26.3 14.8 26.7398 14.8 27.3617V28.6383C14.8 29.2602 15.2386 29.7 15.705 29.7H17.795C18.2614 29.7 18.7 29.2602 18.7 28.6383V27.3617C18.7 26.7398 18.2614 26.3 17.795 26.3H15.705ZM15.2 27.3299C15.2 26.9561 15.5257 26.7 15.8369 26.7H17.6256C17.7864 26.7 17.9451 26.765 18.064 26.8614C18.1842 26.9587 18.3 27.1195 18.3 27.3299V28.5852C18.3 28.7794 18.1998 28.9519 18.0973 29.0648C17.9991 29.1729 17.831 29.3 17.6256 29.3H15.8369C15.6222 29.3 15.4607 29.1629 15.3707 29.0492C15.2756 28.929 15.2 28.7616 15.2 28.5852V27.3299ZM14.5 27.3617C14.5 26.6097 15.0395 26 15.705 26H17.795C18.4605 26 19 26.6097 19 27.3617V28.6383C19 29.3903 18.4605 30 17.795 30H15.705C15.0395 30 14.5 29.3903 14.5 28.6383V27.3617ZM15.5 27.3299C15.5 27.1419 15.6705 27 15.8369 27H17.6256C17.792 27 18 27.1419 18 27.3299V28.5852C18 28.7733 17.792 29 17.6256 29H15.8369C15.6705 29 15.5 28.7733 15.5 28.5852V27.3299Z" fill="black"/>
<path fill-rule="evenodd" clip-rule="evenodd" d="M24.705 26C24.0395 26 23.5 26.6097 23.5 27.3617V28.6383C23.5 29.3903 24.0395 30 24.705 30H26.795C27.4605 30 28 29.3903 28 28.6383V27.3617C28 26.6097 27.4605 26 26.795 26H24.705ZM24.815 27C24.641 27 24.5 27.1574 24.5 27.3516V28.6484C24.5 28.8426 24.641 29 24.815 29H26.685C26.859 29 27 28.8426 27 28.6484V27.3516C27 27.1574 26.859 27 26.685 27H24.815Z" fill="black"/>
<path fill-rule="evenodd" clip-rule="evenodd" d="M48 32C50.2091 32 52 30.2091 52 28C52 25.7909 50.2091 24 48 24C45.7909 24 44 25.7909 44 28C44 30.2091 45.7909 32 48 32ZM46.7032 30H45.7L47.5033 26H48.5392L50.4 30H49.2969L48.9844 29.2969H47.0469L46.7032 30ZM47.2969 28.4L47.9979 26.7969L48.7188 28.4H47.2969Z" fill="#234BA0"/>
<path fill-rule="evenodd" clip-rule="evenodd" d="M42 32C44.2091 32 46 30.2091 46 28C46 25.7909 44.2091 24 42 24C39.7909 24 38 25.7909 38 28C38 30.2091 39.7909 32 42 32ZM43.0047 27.2H44V26.8203C44 26.2266 43.5312 26 43.1831 26H40.9577C40.5258 26 40 26.5085 40 26.9153V27.4237C40 27.8757 40.2315 28.0816 40.4319 28.2373C40.5865 28.3573 40.7738 28.4 40.9577 28.4H42.6641C42.8182 28.4 43 28.5853 43 28.8C43 28.9395 42.9062 29.2 42.5625 29.2H41.2676C41 29.2 41.0173 28.8 41.0173 28.8H40C40 29.4283 40.1719 30 40.9577 30H43.2864C43.553 30 44 29.7401 44 29.2881V28.2938C44 27.8644 43.5465 27.6 43.2864 27.6H41.4861C41.2326 27.6 41.0047 27.4202 41 27.1953C40.9951 26.9637 41.1903 26.8 41.3828 26.8H42.5625C42.793 26.8 43.0047 26.9153 43.0047 27.0659V27.2Z" fill="#234BA0"/>
</svg>
