<!-- by TradingView --><svg xmlns="http://www.w3.org/2000/svg" width="56" height="56"><path fill="#24A29F" d="M0 0h56v56H0z"/><path d="M47 19.84c-3-.3-4.04 1.35-4.63 2.16-.75-3.24-2.02-2.99-3.37-3.8a4.6 4.6 0 002.45-4.2c1.92 1.4 3.26 1.25 4.91.8-.82 2.44-.3 3.14.64 5.04z" fill="#F7AF2E"/><path d="M17.15 35c1.45 0 2.85-.89 2.85-2.5 0-1.57-1.43-2.13-2.88-2.13H14V35h3.15zM14 23v4.57h2.38c1.5 0 3-.4 3-2.2 0-1.66-1.15-2.37-2.73-2.37H14zm2.65-3c3.13 0 6.93 1.04 6.93 4.87 0 1.88-1.37 3.2-3.08 3.81 2.38.58 3.5 1.85 3.5 3.9 0 3.6-2.95 5.42-6.78 5.42H10V20h6.65zm18.13 3.63c-.12.2-.24.34-.38.43a.79.79 0 01-.49.15c-.18 0-.37-.06-.59-.17l-.04-.03c-.84-.5-1.7-1.01-2.7-1.01-1.16 0-2.04.75-2.04 2.03 0 1.2 1.3 1.8 2.23 2.1 2.64.79 5.23 1.98 5.23 5.03 0 3.4-2.74 5.84-6.13 5.84a9 9 0 01-4.68-1.38c-.46-.28-.85-.6-1.19-.94l1.19-1.7c.09-.14.21-.25.36-.34.16-.1.32-.15.5-.15.24 0 .47.08.7.23l.05.03c.99.62 1.98 1.25 3.2 1.25 1.31 0 2-1.23 2-2.28 0-1.02-1.07-1.92-2.13-2.22-2.84-.8-5.21-2.09-5.21-5.27 0-3.2 2.9-5.23 5.87-5.23 1.86 0 3.86.57 5.24 1.87l-.99 1.76zM38 38h4V24.83c0-2.3-1.5-4.47-4-4.83v18z" fill="#fff"/></svg>