<!-- by TradingView --><svg width="56" height="56" viewBox="0 0 56 56" xmlns="http://www.w3.org/2000/svg"><path fill="#F0F3FA" d="M0 0h56v56H0z"/><path d="M45 28a17 17 0 1 1-34 0 17 17 0 0 1 34 0Z" fill="#78562A"/><path d="M31.73 12.05c-.08.34-.07.68.04 1.03l-.7-.18a.08.08 0 0 0-.06 0 .08.08 0 0 0-.04.06l-.76 2.73a.1.1 0 0 0 .06.13c.18.08.35.12.51.12l-.2.8c-1.6-.34-3.2-.36-4.8-.08l-.33-.76c.18.01.28-.03.3-.14a6.08 6.08 0 0 1 .17-.62.08.08 0 0 1 .04-.02l1.11-.14a.1.1 0 0 1 .1.06l.18.46a.21.21 0 0 0 .23.13l.46-.06a.05.05 0 0 0 .04-.04v-.02l-1.59-2.85-.22-.95c1.83-.2 3.68-.08 5.46.34Z" fill="#DDBF6E"/><path d="m26.27 11.71.22.95-.52.1a.15.15 0 0 0-.12.1l-.76 3.02a.05.05 0 0 0 0 .05.05.05 0 0 0 .05.01l.31-.04.33.76c-1.07.22-2.1.58-3.08 1.08l-.2-.96c.74.12 1.56-.43 1.26-1.27-.25-.68-.52-1.37-.81-2.06.15-.4.38-.82.68-1.24.86-.24 1.75-.4 2.64-.5Z" fill="#E6CF87"/><path d="m40.02 16.88-.2 1.28-.54-.7a.11.11 0 0 0-.12-.03.11.11 0 0 0-.04.02l-.22.18a.12.12 0 0 0-.04.12c0 .02 0 .03.02.04l.44.57a.08.08 0 0 1 .02.05.08.08 0 0 1-.03.05l-1.86 1.48a.09.09 0 0 0-.03.06.09.09 0 0 0 .01.06l.27.34a.1.1 0 0 0 .13.02l1.86-1.47a.08.08 0 0 1 .12.01l.22.3c-.08.77-.1 1.53-.06 2.3l-1 .5a.1.1 0 0 0-.06.13l.15.38a.12.12 0 0 0 .16.07l1.3-.67c-.2 1.52-.34 3.04-.41 4.56-.11 2.31.07 4.61.53 6.89l-.49.95a.1.1 0 0 0 .02.11c.07.09.17.15.3.2a.1.1 0 0 0 .1-.02c.11-.11.19-.25.24-.43a.15.15 0 0 1 .2-.09c.28.13.25.34.21.6a.88.88 0 0 1-.37.61c-.43.3-1.04.06-1.4-.25-.33-.29-.4-.63-.19-1.02.16-.3.38-.43.65-.4a.12.12 0 0 0 .13-.09l.11-.43a.08.08 0 0 0-.03-.08l-.03-.01c-.4-.07-.74.04-.99.32-.81.9-.6 2.12.57 2.58l.1 1.86-2.08-2a.1.1 0 0 0-.15.01l-.25.26a.11.11 0 0 0-.02.12c0 .02.02.03.03.04l1.33 1.28v.01a.03.03 0 0 1-.03.03l-2.17-.49a.14.14 0 0 0-.13.04l-.32.33a.08.08 0 0 0 0 .11l2.08 2a.1.1 0 0 0 .11.02.1.1 0 0 0 .03-.02l.25-.26a.11.11 0 0 0 0-.16l-1.32-1.27a.03.03 0 0 1 .01-.05h.02l2.13.48c.04 0 .07 0 .1-.02.1-.06.2-.14.28-.24l.18 1.26a16.37 16.37 0 0 1-8.64 4.75l-.1-.98 1.97-.56a.1.1 0 0 0 .05-.04.1.1 0 0 0 .01-.08l-.09-.3a.1.1 0 0 0-.05-.06.11.11 0 0 0-.09-.01l-1.28.4a.08.08 0 0 1-.07-.01.08.08 0 0 1-.03-.05l-.61-2.24c-.02-.06-.05-.1-.09-.1a.27.27 0 0 0-.13 0 1.84 1.84 0 0 1-.1-.78 11.55 11.55 0 0 0-.03-22.51l.21-.8.31-1.1a.11.11 0 0 1 .14-.08c.31.09.45.28.56.61a23.15 23.15 0 0 0 .36 1l.63.17h.01v-.01a4.13 4.13 0 0 0-.55-1.53l.02-.01h.02c.5 0 .8-.24.9-.7.18-.87-.82-1.06-1.4-1.2-.12-.36-.13-.7-.05-1.04 3.19.75 6.07 2.43 8.3 4.83ZM23.63 12.21c-.3.42-.53.83-.68 1.24l-.5.24a.07.07 0 0 0-.04.04v.05l.73 1.8c.02.06.05.16.07.3.05.29-.3.44-.51.33-.1-.05-.17-.2-.22-.27a.06.06 0 0 0-.08-.03l-.4.16a.1.1 0 0 0-.05.06.1.1 0 0 0 0 .08c.11.25.3.45.55.57l.2.96a11.73 11.73 0 0 0-5.36 5.8l.08-1.91c0-.08 0-.15-.02-.22l-.2-1 .92.03a.25.25 0 0 0 .2-.1l.3-.4a.07.07 0 0 0 0-.08.07.07 0 0 0-.05-.03l-1.08-.04c-.06 0-.12 0-.19.03l-.24.07a.04.04 0 0 1-.04 0 .04.04 0 0 1-.01-.05c.2-.48.1-.83-.32-1.11-.49-.32-.94-.13-1.37.57l.07-1.75a16.39 16.39 0 0 1 8.24-5.34Z" fill="#F0DF9A"/><path d="m26.03 14.55.23-1a.05.05 0 0 1 .08-.02l.48.92a.05.05 0 0 1-.02.06h-.02l-.7.1a.05.05 0 0 1-.04-.02.05.05 0 0 1-.01-.04ZM31.42 13.62a.1.1 0 0 1 .11-.07l.72.2c.1.03.2.1.25.18.06.09.08.19.05.28l-.01.05a.33.33 0 0 1-.07.12.37.37 0 0 1-.12.1.42.42 0 0 1-.15.04c-.05 0-.1 0-.16-.02l-.71-.2a.1.1 0 0 1-.07-.07.1.1 0 0 1 0-.04l.16-.57Z" fill="#E6CF87"/><path d="M34.86 17.85a1.42 1.42 0 0 1-.66-.96 1.62 1.62 0 0 1 .23-1.2c.23-.36.58-.62.97-.73a1.46 1.46 0 0 1 1.58.57 1.62 1.62 0 0 1 0 1.75c-.22.37-.57.63-.97.74-.4.1-.81.05-1.15-.17Z" fill="#78562A"/><path d="M35 16.02c-.33.5-.27 1.1.13 1.37.4.26.99.06 1.31-.43.32-.5.26-1.11-.14-1.37s-.99-.07-1.3.43Z" fill="#F0DF9A"/><path d="m19.92 17.8-.42.33a.13.13 0 0 0-.04.15l.19.48a.16.16 0 0 1-.05.18l-.35.28a.08.08 0 0 1-.07.01.08.08 0 0 1-.05-.05l-.9-2.96a.1.1 0 0 1 .01-.1 2.9 2.9 0 0 1 .49-.35.1.1 0 0 1 .05.01l2.68 1.55a.08.08 0 0 1 0 .13l-.35.28a.16.16 0 0 1-.18 0l-.43-.29a.13.13 0 0 0-.15 0l-.43.34Z" fill="#78562A"/><path d="M30.58 16.74A11.55 11.55 0 1 1 18.3 34.27a11.56 11.56 0 0 1 7.48-17.6c1.6-.3 3.2-.27 4.8.07Z" fill="#7D5733"/><path d="m19.24 17.6-.32-1a.04.04 0 0 1 .06-.04l.9.55.01.03a.04.04 0 0 1-.01.03l-.58.45-.01.01h-.04v-.02Z" fill="#F0DF9A"/><path d="M40.02 16.88a16.38 16.38 0 0 1-.17 22.43l-.18-1.26c.1-.08.13-.16.1-.22l-.1-1.86c.83.3 1.45.09 1.88-.64a2 2 0 0 0 .28-1.3.34.34 0 0 0-.2-.26l-.8-.4c-.03-.03-.07-.04-.1-.03a.1.1 0 0 0-.09.08 27.75 27.75 0 0 1-.53-6.9c.07-1.51.2-3.03.41-4.55l1.21-.6a.1.1 0 0 0 .06-.15l-.15-.38a.12.12 0 0 0-.17-.06l-1.5.77c-.04-.76-.02-1.52.06-2.28l.24.27a.1.1 0 0 0 .14 0l.23-.17a.11.11 0 0 0 .04-.07.1.1 0 0 0-.02-.08l-.85-1.06.21-1.28ZM15.39 17.55l-.07 1.75-.64.88a.14.14 0 0 0 .03.2l.14.1.1 12.93c-.69.46-.88 1.06-.58 1.8.15.37.42.61.82.73l-.2 2a16.38 16.38 0 0 1 .4-20.39ZM28 18.4c.02 0 .04.02.05.03.6.68 1.21 1.71 1.21 2.63 0 .9-.61 1.94-1.21 2.62a.06.06 0 0 1-.05.02c-.02 0-.04 0-.05-.02-.6-.68-1.21-1.71-1.21-2.63 0-.91.61-1.94 1.21-2.62a.06.06 0 0 1 .05-.02Z" fill="#DDBF6E"/><path d="M15.44 20.14a.08.08 0 0 1-.03-.05.08.08 0 0 1 .01-.06l.44-.61a.47.47 0 0 1 .26-.18h.15c.05 0 .1.03.13.05l.05.04c.08.06.13.15.14.25 0 .1-.03.2-.1.3l-.44.61a.08.08 0 0 1-.1.02l-.51-.37Z" fill="#E6CF87"/><path d="m17.2 20.41.2 1 .02.22-.08 1.9a11.56 11.56 0 0 0 .96 10.73l-.1 1.3-2.13 2.05a.12.12 0 0 0-.03.13l.03.04.72.74-.2 1.23a16.31 16.31 0 0 1-1.6-1.8l.2-2.01.52.02a.1.1 0 0 0 .1-.12l-.05-.39a.13.13 0 0 0-.13-.11c-.36.02-.65-.02-.81-.4-.28-.68.61-1.16 1.1-1.25.39-.07.67.06.83.41a.6.6 0 0 1-.1.71.16.16 0 0 0 0 .23l.25.23a.13.13 0 0 0 .14.02c.02 0 .03-.02.04-.03.29-.34.37-.7.24-1.11-.37-1.18-1.37-1.29-2.37-.74l-.1-12.93 2.11 1.5a.15.15 0 0 0 .21-.03l.2-.28a.12.12 0 0 0-.03-.17l-.89-.64a.07.07 0 0 1-.02-.09.7.7 0 0 1 .76-.36Z" fill="#E6CF87"/><path d="M27.74 25.17a.05.05 0 0 1-.03.04.05.05 0 0 1-.05-.02 3.36 3.36 0 0 0-.55-.72c-.45-.4-.9-.8-1.38-1.18-.62-.51-1.43-1.47-.4-2.08a.5.5 0 0 1 .35-.07.07.07 0 0 1 .05.13c-.2.21-.22.44-.08.7.37.68.83 1.03 1.56 1.76.42.42.6.9.53 1.44ZM28.23 25.2a1.7 1.7 0 0 1 .54-1.45c.74-.74 1.2-1.1 1.58-1.79.13-.25.1-.48-.08-.7a.07.07 0 0 1-.02-.07.08.08 0 0 1 .06-.05.5.5 0 0 1 .35.06c1.05.62.23 1.59-.4 2.1-.47.39-.93.79-1.38 1.2a3.4 3.4 0 0 0-.58.74.05.05 0 0 1-.07-.04ZM30.8 27.02c-.45.8-1.48 1.38-2.34 1.68l-.06-.01a.06.06 0 0 1-.03-.04c-.18-.89-.2-2.08.25-2.87.45-.8 1.5-1.38 2.35-1.68l.05.01.03.04c.19.89.2 2.08-.24 2.87ZM25.2 27.03c-.45-.8-.43-1.99-.24-2.87 0-.02.01-.03.03-.04h.05c.86.29 1.9.87 2.34 1.66.45.8.43 1.99.24 2.87 0 .02-.01.03-.03.04a.06.06 0 0 1-.05 0c-.85-.29-1.89-.87-2.34-1.66Z" fill="#F0DF9A"/><path d="M19.25 26.82a.03.03 0 0 1 .02-.01.03.03 0 0 1 .02.01c.48.86.9 1.73 1.25 2.61.05.15.15.27.28.36.47.31.89.51.97 1.01a1861.22 1861.22 0 0 0 .12.92.03.03 0 0 1-.03 0c-.71-.23-1.13-.67-1.25-1.3a9.66 9.66 0 0 0-.72-2.09l-.68-1.48.02-.03Z" fill="#E6CF87"/><path d="m36.74 26.82.02.02-.67 1.48a9.59 9.59 0 0 0-.72 2.08c-.11.63-.52 1.07-1.23 1.31h-.02a.03.03 0 0 1-.03-.04l.14-.88c.07-.5.49-.7.95-1.01a.75.75 0 0 0 .28-.36 20.73 20.73 0 0 1 1.26-2.62l.02.02ZM35.21 27.16v.01l-1 2.02c-.24.51-.28.75-.2 1.32.1.72-.13 1.23-.72 1.74a.06.06 0 0 1-.1-.04l-.13-.89c-.07-.67.44-.84.66-1.36a20.12 20.12 0 0 1 1.47-2.8h.02ZM20.85 27.2c.54.87 1.01 1.8 1.43 2.79.22.52.73.69.66 1.35a15.28 15.28 0 0 1-.14.92.06.06 0 0 1-.06.02l-.03-.01c-.59-.51-.82-1.02-.72-1.73.09-.57.05-.81-.2-1.32a89.71 89.71 0 0 0-.98-2.03.03.03 0 0 1 .04.01ZM25.2 30.78c-.45-.8-.43-1.99-.24-2.87 0-.02.01-.04.03-.05h.05c.86.3 1.9.88 2.34 1.67.45.8.43 1.99.25 2.87 0 .02-.02.04-.04.05a.06.06 0 0 1-.05 0c-.85-.3-1.9-.88-2.34-1.67ZM28.62 29.53c.45-.8 1.49-1.38 2.34-1.68h.05l.04.05c.18.89.2 2.08-.25 2.87-.45.8-1.49 1.39-2.34 1.68h-.05a.07.07 0 0 1-.04-.05c-.18-.88-.2-2.08.25-2.87Z" fill="#F0DF9A"/><path d="M34.02 33h-.97a.07.07 0 0 1-.06-.04.07.07 0 0 1 0-.07c.22-.36.48-.64.8-.84.33-.21.8-.25 1.24-.35a.43.43 0 0 0 .18-.09 4.5 4.5 0 0 0 1.27-1.63 50.36 50.36 0 0 0 .76-1.87h.03a.05.05 0 0 1 .04.06c-.28.78-.5 1.37-.67 1.78-.31.76-.82 1.27-1.55 2.03a.74.74 0 0 0-.08.11c-.24.37-.42.7-.84.9a.1.1 0 0 0-.06.07c-.02.1-.04.17-.07.19-.23.19-.72.81-1.15 1a.27.27 0 0 1-.1.02 3.53 3.53 0 0 1-1.14-.2V34c.3-.36.65-.62 1.09-.8a.52.52 0 0 1 .19-.02c.32 0 .84.05 1.12-.08a.06.06 0 0 0 .03-.07.06.06 0 0 0-.06-.05ZM18.75 28.14c.28.57.53 1.5.82 2.01.25.44.6.88 1.05 1.33.31.31.83.32 1.34.43.03 0 .07.02.1.04a2.7 2.7 0 0 1 .98 1v.01a.04.04 0 0 1-.04.02l-1.06.02c-.38.01-.7-.52-.95-.9l-.14-.19a6.12 6.12 0 0 1-1.61-2.3 30.04 30.04 0 0 0-.53-1.46l.03-.02ZM23.08 31.08v-.03l.02-.01h.05c.24.3.49.59.74.87.29.3.14.84.07 1.43a.07.07 0 0 1-.1.04c-.5-.38-.91-.82-.82-1.49.04-.28.05-.55.04-.81Z" fill="#F0DF9A"/><path d="M32.9 31.1c-.01.27 0 .53.04.81.1.66-.32 1.1-.8 1.48a.06.06 0 0 1-.06.01.06.06 0 0 1-.04-.05c-.07-.59-.22-1.11.06-1.42a16.74 16.74 0 0 0 .75-.87h.03l.02.02v.03ZM24.18 32.28a.04.04 0 0 1 .03-.04h.04l.82.79c.32.28.22.82.2 1.42a.06.06 0 0 1-.1.05c-.51-.33-.97-.73-.94-1.4 0-.29 0-.56-.05-.82ZM31.8 32.3c-.03.25-.04.52-.03.8.03.66-.42 1.06-.93 1.39a.06.06 0 0 1-.07 0 .07.07 0 0 1-.03-.05c-.02-.6-.12-1.13.2-1.4a17.03 17.03 0 0 0 .82-.8h.03a.04.04 0 0 1 .02.05ZM22 33.1c.27.16.66.1 1.06.1.1 0 .2.02.3.06a2.67 2.67 0 0 1 1 .75.05.05 0 0 1 0 .05l-.03.02-.7.17a.88.88 0 0 1-.84-.22 18.32 18.32 0 0 1-.88-.87.05.05 0 0 1 .04-.06H22Z" fill="#F0DF9A"/><path d="M28.05 36.33a25.08 25.08 0 0 1-2.8 1.26.06.06 0 0 1-.05-.08l.13-.23c.04-.06.1-.1.16-.13l2.19-.86a.1.1 0 0 0 .01-.18l-.48-.28a.38.38 0 0 0-.37 0c-.29.15-.61.33-.94.18a14.47 14.47 0 0 1-.78-.4l.01-.02.02-.01.8-.32a.1.1 0 0 1 .05 0l.19.01a.04.04 0 0 0 .04-.03.04.04 0 0 0-.02-.04 1.9 1.9 0 0 1-.6-.63.08.08 0 0 1 0-.04v-.8a.05.05 0 0 1 .08-.02c.12.12.28.25.49.37.35.22.6.63.47 1.02a.21.21 0 0 0 .1.25 39.53 39.53 0 0 1 1.3.73 39.53 39.53 0 0 1 1.3-.73.21.21 0 0 0 .1-.25c-.14-.39.11-.8.46-1.02a2.4 2.4 0 0 0 .52-.39.05.05 0 0 1 .05.02V34.57a1.9 1.9 0 0 1-.62.65.04.04 0 0 0 .02.04l.02.01.2-.02a.1.1 0 0 1 .03 0l.81.33a.04.04 0 0 1 .02.05l-.01.02-.75.36c-.33.15-.66-.03-.95-.19a.38.38 0 0 0-.37 0l-.48.29a.1.1 0 0 0 .02.18l2.18.86c.07.02.13.07.16.13l.13.23v.03a.06.06 0 0 1-.08.06 25.24 25.24 0 0 1-2.76-1.27Z" fill="#E6CF87"/><path d="M18.3 34.26a11.67 11.67 0 0 0 6.1 4.72l-.05.79-.51-.14a.1.1 0 0 0-.13.07l-.7 2.8a.08.08 0 0 0 0 .06.08.08 0 0 0 .06.04l2.07.53.25 1.04a16.38 16.38 0 0 1-8.8-4.42l.2-1.23.74.77a.1.1 0 0 0 .15 0l.24-.26a.1.1 0 0 0 0-.14l-1.1-1.05a.06.06 0 0 1 0-.09l.5-.51a.06.06 0 0 1 .08 0l1.02.98c0 .02.03.02.05.02.02 0 .04 0 .05-.02l.23-.24a.1.1 0 0 0 0-.15l-.96-.92-.02-.03a.07.07 0 0 1 .02-.07l.37-.39a.07.07 0 0 1 .05-.02.07.07 0 0 1 .05.02l1.1 1.05.06.02c.02 0 .04 0 .06-.02l.2-.21a.11.11 0 0 0 0-.16l-1.47-1.54.09-1.3ZM23.27 34.38c.29.12.68.02 1.07 0 .1-.02.2 0 .3.03a2.69 2.69 0 0 1 1.08.66v.03a.05.05 0 0 1-.03.04c-.1.04-.32.12-.68.23a.89.89 0 0 1-.86-.14 19.01 19.01 0 0 1-.96-.8.06.06 0 0 1 .04-.06h.04ZM32.73 34.36a.06.06 0 0 1 .06.1l-.93.76a.88.88 0 0 1-.86.15 10.1 10.1 0 0 1-.7-.25.05.05 0 0 1-.01-.05l.01-.02c.32-.3.67-.53 1.06-.65.1-.03.2-.04.3-.04.4.03.79.13 1.07 0Z" fill="#F0DF9A"/><path d="m20.44 38.82-1.1 1.9a.04.04 0 0 1-.03.01h-.03l-.42-.28-.01-.02v-.03l1.5-2.57v-.01l.02-.01a.04.04 0 0 1 .03 0l.74.45a.04.04 0 0 1 .02.04l-.55 1.95a.04.04 0 0 0 .04.05l.02-.01 1.4-1.45a.04.04 0 0 1 .05 0l.75.43a.04.04 0 0 1 .02.04l-1.51 2.6a.04.04 0 0 1-.04.02h-.02l-.41-.3-.02-.03v-.02l1.1-1.84a.04.04 0 0 0 0-.05.04.04 0 0 0-.05 0l-1.56 1.63a.04.04 0 0 1-.04 0l-.48-.27-.02-.02v-.02l.66-2.16a.04.04 0 0 0-.06-.03ZM34.1 38.7l.24-.14a.1.1 0 0 1 .1.01l2.44 1.9a.08.08 0 0 1 .03.07.08.08 0 0 1-.04.06l-.38.23a.16.16 0 0 1-.19-.02l-.38-.35a.13.13 0 0 0-.15-.02 47.83 47.83 0 0 0-.99.62.13.13 0 0 0 0 .08l.12.5a.16.16 0 0 1-.07.17l-.39.23a.08.08 0 0 1-.07 0 .08.08 0 0 1-.04-.05l-.5-3.05a.1.1 0 0 1 .04-.1l.23-.14Z" fill="#78562A"/><path d="M30.6 39.25c-.02.26 0 .53.1.79l-.34.11a.1.1 0 0 0-.06.11l.82 2.82.1.98c-1.93.38-3.9.42-5.83.11l-.25-1.04c.14-.06.2-.2.2-.43l-.02-.05a.08.08 0 0 0-.05-.03l-1.46-.36a.1.1 0 0 1-.07-.13l.15-.63a.09.09 0 0 1 .04-.05.09.09 0 0 1 .07 0l1.28.32a.12.12 0 0 0 .13-.05l.02-.04.07-.28a.1.1 0 0 0-.01-.08.1.1 0 0 0-.06-.04l-1.32-.33a.08.08 0 0 1-.05-.04.07.07 0 0 1 0-.06l.12-.51a.08.08 0 0 1 .07-.06h.03l1.43.36a.1.1 0 0 0 .07 0 .1.1 0 0 0 .05-.06l.07-.29a.13.13 0 0 0-.1-.16l-1.45-.36.06-.8c2.03.64 4.1.74 6.2.28Z" fill="#DDBF6E"/><path d="m34.66 40.45-.19-1.03a.04.04 0 0 1 .02-.04.04.04 0 0 1 .05 0l.81.66a.04.04 0 0 1 .02.03.04.04 0 0 1-.02.03l-.63.38a.04.04 0 0 1-.03 0 .04.04 0 0 1-.03-.03Z" fill="#F0DF9A"/><path d="M29.54 43.2a.09.09 0 0 1 0 .08.08.08 0 0 1-.07.04l-.43.02a.27.27 0 0 1-.23-.11l-.55-.77a.75.75 0 0 0-.65-.37.14.14 0 0 0-.15.16l.04 1.03a.12.12 0 0 1-.12.12l-.36.02a.14.14 0 0 1-.14-.14l-.11-2.87a.07.07 0 0 1 .02-.05.07.07 0 0 1 .05-.02l1.52-.02c.53-.02.84.23.92.73.05.36-.1.74-.48.85a.6.6 0 0 0-.17.07.06.06 0 0 0-.02.04.06.06 0 0 0 .02.04c.36.31.66.7.91 1.15Z" fill="#78562A"/><path d="M27.39 40.95a.1.1 0 0 1 .1-.11l.78-.03c.1 0 .2.02.27.08.08.05.12.13.12.21l.01.17c0 .08-.03.16-.1.22a.42.42 0 0 1-.27.1l-.78.04a.1.1 0 0 1-.1-.1l-.03-.58Z" fill="#DDBF6E"/></svg>