<!-- by TradingView --><svg width="56" height="56" viewBox="0 0 56 56" xmlns="http://www.w3.org/2000/svg"><path fill="#F0F3FA" d="M0 0h56v56H0z"/><path d="M10 32h3v1h-3v1h37v-1h-3v-1h4v4H9v-4h1Z" fill="#333489"/><path fill-rule="evenodd" d="m49 23.7-.07.3h-4.82l-4.12-2.68H16.01L11.89 24H7.07L7 23.7 28 14l21 9.7ZM20.13 21h-3.6l2.58-1.32h2.69L20.13 21Zm-4.2 0 2.57-1.32h-2.04L13.5 21h2.42Zm6.21-1.64h-2.5l2.98-1.79h1.46l-1.94 1.8Zm-3.12 0 2.99-1.79h-1l-3.86 1.8h1.87Zm5.4-2.1h-1.27l3.6-2.16-2.33 2.16Zm.46 0L27.32 15l-1.3 2.25h-1.14Zm-.34.31h1.3l-1.03 1.8h-2.2l1.93-1.8Zm1.67 0-1.03 1.8h2.64v-1.8h-1.6Zm-3.94 2.1h2.36L23.74 21H20.6l1.67-1.32Zm2.73 0L24.11 21h3.71v-1.32H25Zm1.4-2.41h1.42v-2.48l-1.43 2.48Zm-3.86 0 2.82-1.7-3.66 1.7h.84Zm-7.15 4.06h-2.57l-5.03 2.36h4.01l3.6-2.36ZM35.87 21h3.6l-2.58-1.32H34.2L35.87 21Zm4.2 0-2.57-1.32h2.04L42.5 21h-2.42Zm-6.21-1.64h2.5l-2.98-1.79h-1.46l1.94 1.8Zm3.12 0-2.99-1.79h1l3.86 1.8h-1.87Zm-5.4-2.1h1.27l-3.6-2.16 2.33 2.16Zm-.46 0L28.68 15l1.3 2.25h1.14Zm.34.31h-1.3l1.03 1.8h2.2l-1.93-1.8Zm-1.67 0 1.03 1.8h-2.64v-1.8h1.6Zm3.94 2.1h-2.36l.89 1.33h3.14l-1.67-1.32Zm-2.73 0 .89 1.33h-3.71v-1.32H31Zm-1.4-2.41h-1.42v-2.48l1.43 2.48Zm3.86 0-2.82-1.7 3.66 1.7h-.84Zm7.15 4.06h2.57l5.03 2.36H44.2l-3.6-2.36Z" fill="#333489"/><path d="M36 32v-8h2v6.54h4V32h-6ZM28 31.88v-7.72c.6-.09 1.68-.16 2.73-.16 1.26 0 2.14.1 2.86.48.66.31 1.07.85 1.07 1.51 0 .7-.5 1.36-1.6 1.68v.04c1.16.24 1.94.95 1.94 1.91 0 .7-.37 1.25-.94 1.63-.7.48-1.88.75-3.78.75-1.02 0-1.79-.06-2.28-.12Zm2-6.57v1.9h.82c1.06 0 1.66-.41 1.66-1.02 0-.58-.5-.94-1.48-.94-.4 0-.84.02-1 .06Zm0 3.13v2.25c.18.03.6.03.9.03.98 0 1.82-.33 1.82-1.15 0-.79-.85-1.13-1.87-1.13H30ZM19.55 32H17.2L15 24h2.33l.68 3.26c.2.94.38 1.95.53 2.8h.03c.15-.9.39-1.83.63-2.82l.83-3.24h2.18l.77 3.31c.21.93.38 1.8.53 2.72h.03c.15-.94.33-1.84.52-2.79L24.8 24H27l-2.36 8h-2.35l-.79-3.2c-.2-.78-.34-1.58-.48-2.5H21c-.16.92-.33 1.71-.57 2.5l-.87 3.2Z" fill="#C37B29"/></svg>