<!-- by TradingView --><svg width="56" height="56" viewBox="0 0 56 56" xmlns="http://www.w3.org/2000/svg"><path fill="#F0F3FA" d="M0 0h56v56H0z"/><path d="m20 23.48-8 4.55v-9.05l8 4.5ZM20 32.52l-8 4.5v-8.99l8 4.5Z" fill="#21449D"/><path d="m12 18.98 8 4.5v-8.99L12 19Z" fill="#618CC9"/><path d="m12 28.03 8 4.5v-9.05l-8 4.55Z" fill="#1C7EC2"/><path d="m12 37.02 8 4.55v-9.05l-8 4.5Z" fill="#618CC9"/><path d="m20 23.48 8 4.55v-9.05l-8 4.5ZM20 32.52l8 4.5v-8.99l-8 4.5Z" fill="#136DA0"/><path d="m28 18.98-8 4.5v-8.99l8 4.5Z" fill="#1C7EC2"/><path d="m20 14.5 8 4.48V10l-8 4.5ZM20 41.57 28 46v-8.98l-8 4.55Z" fill="#3E70B7"/><path d="m28 28.03-8 4.5v-9.05l8 4.55Z" fill="#21449D"/><path d="m28 37.02-8 4.55v-9.05l8 4.5Z" fill="#1C7EC2"/><path d="m36 23.48 8 4.55v-9.05l-8 4.5ZM36 32.52l8 4.5v-8.99l-8 4.5Z" fill="#21449D"/><path d="m44 18.98-8 4.5v-8.99l8 4.5Z" fill="#618CC9"/><path d="m44 28.03-8 4.5v-9.05l8 4.55Z" fill="#1C7EC2"/><path d="m44 37.02-8 4.55v-9.05l8 4.5Z" fill="#618CC9"/><path d="m36 23.48-8 4.55v-9.05l8 4.5ZM36 32.52l-8 4.5v-8.99l8 4.5Z" fill="#3E70B7"/><path d="m28 18.98 8 4.5v-8.99L28 19Z" fill="#1156A2"/><path d="m36 14.5-8 4.48V10l8 4.5ZM36 41.57 28 46v-8.98l8 4.55Z" fill="#1C7EC2"/><path d="m28 28.03 8 4.5v-9.05l-8 4.55Z" fill="#136DA0"/><path d="m28 37.02 8 4.55v-9.05l-8 4.5Z" fill="#1156A2"/><path d="M22.51 17h11.57C36.1 17 38 18.32 38 20.73c0 3.89-3.33 5.94-5 6.48.88 0 3 .22 3 3.46 0 5.38-4.54 7.12-6.95 7.33H18l4.51-21Zm6.23 18C31 34.4 32 33.14 32 31.02c0-1.7-2.06-1.96-2.95-2.02h-2.03l.69-2.84c4.7-.8 6.29-3.2 6.29-4.45 0-.99-1.3-1.7-1.87-1.71H26l-3.5 15h6.24Z" fill="#fff"/></svg>