<!-- by TradingView --><svg width="56" height="56" viewBox="0 0 56 56" fill="none" xmlns="http://www.w3.org/2000/svg">
<rect width="56" height="56" fill="#F0F3FA"/>
<path d="M27.484 10.6277C27.6784 9.35728 27.484 8 27.484 8C27.484 8 31 8.85493 31 13.125C31 16.5402 28.4314 17.2315 27.484 20C27.0592 21.2415 27 23 27 23C27 23 24 20.2154 24 17.854C24 14.0219 27.0524 13.4499 27.484 10.6277Z" fill="url(#paint0_linear_5085_142188)"/>
<path d="M28.0625 45C34.7897 45 40 40.1289 40 33.4492C40 26.7694 34 24.8304 34 20.25C34 18 35 16 35 16C35 16 29 16.4375 29 22.3125C29 26.6876 34 28.4687 34 33.4492C34 37.082 30.8416 39 28 39C24.7043 39 22 36.6875 22 33.4492C22 28.875 26 27.6524 26 25.25C26 22.8476 24.3125 22.3125 22.4952 21.8027C20.1175 25.084 16 27.7655 16 33.4492C16 40.3632 21.3353 45 28.0625 45Z" fill="url(#paint1_linear_5085_142188)"/>
<defs>
<linearGradient id="paint0_linear_5085_142188" x1="27.9646" y1="8" x2="27.9646" y2="23" gradientUnits="userSpaceOnUse">
<stop offset="0.138686" stop-color="#D8231C"/>
<stop offset="0.759124" stop-color="#9D0F1D"/>
</linearGradient>
<linearGradient id="paint1_linear_5085_142188" x1="26.5308" y1="17.0651" x2="28.0061" y2="51.8925" gradientUnits="userSpaceOnUse">
<stop offset="0.0300408" stop-color="#156393"/>
<stop offset="0.208333" stop-color="#2E84B3"/>
<stop offset="0.364583" stop-color="#1991CF"/>
<stop offset="0.530819" stop-color="#1A96D4"/>
<stop offset="0.719627" stop-color="#0C6AA8"/>
</linearGradient>
</defs>
</svg>
