<!-- by TradingView --><svg width="56" height="56" viewBox="0 0 56 56" xmlns="http://www.w3.org/2000/svg"><path fill="#F0F3FA" d="M0 0h56v56H0z"/><path d="M27.99 25.33V5l-3.34 22 3.34-1.67Z" fill="#FB7A2C"/><path d="M27.99 25.33V5l3.36 22L28 25.33Z" fill="#F13A26"/><path d="M27.99 25.23 31.35 27h-6.7l3.34-1.77ZM22.41 29.73 9 25.98l13.41 6.69v-2.94Z" fill="#FB7A2C"/><path d="M22.41 29.91 9 25.98 25 27l-2.59 2.91Z" fill="#F13A26"/><path d="m22.41 29.91 2.24-2.76-2.24 5.52V29.9ZM33.59 29.73 47 25.98l-13.41 6.69v-2.94Z" fill="#FB7A2C"/><path d="M33.59 29.91 47 25.98 31 27l2.59 2.91Z" fill="#F13A26"/><path d="m33.59 29.91-2.24-2.76 2.24 5.52V29.9Z" fill="#FB7A2C"/><path d="m24.65 27-2.24 5.67 5.59 4.4 5.59-4.4L31.35 27h-6.7Z" fill="#0072BD"/><path d="M24.6 35.65 15.7 47 28 37.08l-3.4-1.43Z" fill="#FB7A2C"/><path d="M24.6 35.65 15.7 47l6.71-14.33 2.18 2.98Z" fill="#F13A26"/><path d="m24.56 35.7-2.15-3.03 5.59 4.4-3.44-1.38ZM31.4 35.65 40.3 47 28 37.08l3.4-1.43Z" fill="#FB7A2C"/><path d="M31.4 35.65 40.3 47l-6.71-14.33-2.18 2.98Z" fill="#F13A26"/><path d="m31.44 35.7 2.15-3.03-5.59 4.4 3.44-1.38Z" fill="#FB7A2C"/><circle cx="28" cy="31" r="4" fill="#fff"/><path d="M28.29 28.33c-.1-.22-.2-.22-.58-.33-.38 0-.28.78-.28 1.22 0 .45-.38.78-.67.78-.28 0-.38-.56-.47-1a6.52 6.52 0 0 0-.29-1v2c0 .56.19 1 .57 1.44.38.45 0 .56 0 1 0 .45-.48.56-.67 1.45 0 .22.77.44.86.67.1.22.67-.12.95-.23.29-.1 1.43-.22 1.62-.33.2-.11 1.15-.11 1.34-.11.19 0-.38-.45-.58-.67-.19-.22-.28-.22-.28-.33 0-.11.1-1.22 0-1.45-.1-.22-.48-.33-.67-.44-.19-.11-.28-.33-.38-.67-.1-.33-.19-.89-.28-1.1-.1-.23-.1-.67-.2-.9Z" fill-opacity=".5"/></svg>