<!-- by TradingView --><svg width="56" height="56" viewBox="0 0 56 56" xmlns="http://www.w3.org/2000/svg"><path fill="#F0F3FA" d="M0 0h56v56H0z"/><path fill="url(#a)" d="M15 11h26v29H15z"/><path fill="#75BEE9" d="M15 39h26v6H15z"/><path d="M15 25v-1.15c3.17-3.62 9.34-4.35 15.85-4.35 5 0 8.67-2.18 10.15-3.5v1.82c-1.42 1.35-4.1 3-6.87 3-1.53 0-2.56-.04-3.65-.08-1.24-.04-2.56-.08-4.82-.08-4.84 0-8.94 2.73-10.66 4.34Z" fill="url(#b)"/><path d="M37.47 38c-1.01 0-1.47-.28-1.47-1.07v-.8c0-.82.38-1.13 1.47-1.13h1.06c1.05 0 1.47.32 1.47 1.1v.8c0 .83-.44 1.1-1.47 1.1h-1.06Zm.28-.79h.5c.48 0 .75-.12.75-.52v-.38c0-.38-.26-.52-.75-.52h-.5c-.51 0-.75.12-.75.53v.38c0 .38.27.51.75.51ZM32 38h-1v-3h1v.5c.29-.42.81-.5 1.5-.5 1 0 1.5.36 1.5 1.08V38h-1v-1.5c0-.48-.24-.64-1-.64-.64 0-1 .2-1 .7V38ZM26 35.6h.8l1.2-1.14h1.75l-1.85 1.66L30 38h-1.68l-1.52-1.41H26V38h-1v-5h1v2.6ZM21.14 36h1.76c0-.29-.2-.28-.64-.28h-.47c-.45 0-.65-.01-.65.28Zm1.78 1H24v.03c0 .7-.45.97-1.46.97h-1.06c-.96 0-1.47-.39-1.47-1.07v-.8c0-.73.52-1.13 1.47-1.13h1.06c.96 0 1.47.4 1.47 1.13v.63h-2.86v.08c0 .34.2.47.67.47h.48c.4 0 .57 0 .63-.31ZM16 36h-1v-1h1v-1h1v1h1.99v1H17v.68c0 .33.14.46.5.46.39 0 .5-.12.5-.46v-.19h.99l.01.28c0 .88-.4 1.23-1.61 1.23-1.15 0-1.39-.28-1.39-1.1V36Z" fill="#fff"/><path d="M37.68 41.92h-.54v-.13c0-.61.42-.79 1.83-.79 1.1 0 1.48.07 1.76.33.22.2.27.4.27 1.1V44h-.51v-.38h-.02c-.24.32-.48.38-1.47.38-1.17 0-1.48-.04-1.72-.2-.21-.15-.28-.33-.28-.68 0-.47.13-.7.46-.8.2-.08.51-.1 1.2-.1 1.33 0 1.56.04 1.78.31h.05v-.31c0-.3-.04-.43-.16-.56-.18-.2-.48-.26-1.33-.26-1.11 0-1.31.07-1.32.48v.04Zm1.32.7c-.87.01-1.11.03-1.26.11-.13.08-.2.2-.2.4s.08.32.26.39c.15.06.5.08 1.3.08 1.1 0 1.35-.1 1.35-.5 0-.37-.3-.47-1.45-.47ZM33 41h.6v.44h.03a.9.9 0 0 1 .45-.32c.22-.1.54-.12 1.25-.12.74 0 1.04.05 1.29.22.25.18.38.46.38.84v.3h-.6v-.2c0-.62-.21-.75-1.13-.75-1.43 0-1.68.18-1.68 1.22V44H33v-3ZM28.48 41H29v1.5c0 .55.05.74.24.9.19.13.5.2 1.11.2.9 0 1.65-.14 1.65-1.14V41h.48v3H32v-.48c-.26.38-.68.48-1.7.48-.82 0-1.24-.08-1.5-.28-.24-.19-.32-.47-.32-1.08V41ZM25.58 40H26v1h2v.43h-2v1.16c.01.65.15.97.88.97.62 0 .7-.3.7-.84v-.2H28v.2c0 .83-.25 1.28-1.16 1.28-.9 0-1.26-.4-1.26-1.25v-1.32H25V41h.58v-1ZM24 40h.44v4H24v-4ZM19 41h.52v1.5c0 .55.05.74.24.9.19.13.5.2 1.11.2.8 0 1.2-.1 1.42-.36.15-.15.19-.35.19-.78V41H23v3h-.52v-.48h-.03c-.26.38-.6.48-1.64.48-.81 0-1.23-.08-1.49-.28-.23-.19-.32-.47-.32-1.08V41ZM15 40h.52v2.3h.31l2-1.3h.83l-2.3 1.49L19 44h-.87l-2.34-1.32h-.27V44H15v-4Z" fill="#0070A1"/><path d="M15 33v-1.87a11.34 11.34 0 0 0 4.67-5.37C21.43 21.55 25.22 16 32.38 16c3.55 0 6.53.45 8.62.94v.98a19.36 19.36 0 0 0-7.52-1.33c-5.4 0-8.62 1.85-11.32 6.58a40.52 40.52 0 0 0-1.76 3.57C19.12 29.57 18.12 31.8 15 33Z" fill="url(#c)"/><path d="M15 28.88v-.73c3.38.18 10.34-1.1 13.51-8.24C31.8 12.51 36.91 12 38.6 12c.94 0 1.82.14 2.41.28v.7c-.68-.14-1.5-.25-2.41-.25-5.91 0-8.16 4.76-9.5 7.6l-.29.61C25.96 28.12 21 29 18.8 29a65 65 0 0 1-3.8-.12Z" fill="url(#d)"/><defs><linearGradient id="a" x1="15" y1="11" x2="41.51" y2="39.53" gradientUnits="userSpaceOnUse"><stop stop-color="#00A76D"/><stop offset=".38" stop-color="#1C4F78"/><stop offset=".79" stop-color="#00A6D4"/><stop offset="1" stop-color="#006692"/></linearGradient><linearGradient id="b" x1="41" y1="20.5" x2="15" y2="20.5" gradientUnits="userSpaceOnUse"><stop stop-color="#0EB3E8"/><stop offset="1" stop-color="#E5F2FB"/></linearGradient><linearGradient id="c" x1="28" y1="16" x2="28" y2="33" gradientUnits="userSpaceOnUse"><stop stop-color="#00B2E8"/><stop offset="1" stop-color="#EEF6FC"/></linearGradient><linearGradient id="d" x1="41" y1="20.5" x2="15" y2="20.5" gradientUnits="userSpaceOnUse"><stop stop-color="#0EB3E8"/><stop offset="1" stop-color="#E5F2FB"/></linearGradient></defs></svg>