<!-- by TradingView --><svg width="56" height="56" viewBox="0 0 56 56" xmlns="http://www.w3.org/2000/svg"><path fill="#F0F3FA" d="M0 0h56v56H0z"/><path d="M34.33 25h-8.06c.93.72 2.8 2.65 2.8 4.59 0 4.23-4.72 6.3-7.07 6.82.5.53 2.04 1.59 4.27 1.59 6.2 0 9.73-4.46 9.73-8.03 0-2.85-1.12-4.5-1.67-4.97Z" fill="#FD0002"/><path d="M44.34 25h-7.97a6.47 6.47 0 0 1 2.03 4.59c0 4.23-3.07 6.94-5.4 7.45.5.54 1.17.96 3.37.96C42.5 38 46 33.54 46 29.97c0-2.85-1.1-4.5-1.66-4.97ZM23.83 14H32c-6.08 1.88-8.42 6.52-9.58 13.85C21.25 35.18 15.54 38 12.1 38c-2.75 0-4.55-1.21-5.1-1.82 4.12-.31 5.22-1.69 8.54-11.84 2.65-8.12 6.63-10.28 8.3-10.34Z" fill="#FD0002"/><path fill-rule="evenodd" d="M32.5 24a4.5 4.5 0 1 0 0-9 4.5 4.5 0 0 0 0 9Zm0-1a3.5 3.5 0 1 0 0-7 3.5 3.5 0 0 0 0 7Z" fill="#FD0002"/></svg>