<!-- by TradingView --><svg width="56" height="56" viewBox="0 0 56 56" fill="none" xmlns="http://www.w3.org/2000/svg">
<rect width="56" height="56" fill="#F0F3FA"/>
<path fill-rule="evenodd" clip-rule="evenodd" d="M38 16H37.6V22H38V20.3864L38.8398 19.6406L40.5147 22H41L39.1842 19.4062L40.8435 18H40.2221L38 19.8438V16Z" fill="#746B64"/>
<path fill-rule="evenodd" clip-rule="evenodd" d="M34.4 18.5774V18H34V22H34.4V19.2031C34.6907 18.712 35.0612 18.4 35.5795 18.4C36.3348 18.4 36.6 19.0989 36.6 19.9062V21.9999L37 22V19.717C37 18.7361 36.4852 18 35.5795 18C34.9856 18 34.6403 18.3143 34.4 18.5774Z" fill="#746B64"/>
<path fill-rule="evenodd" clip-rule="evenodd" d="M32.0069 18C32.5767 18 33.4 18.2812 33.4 19.1762V22H33V21.4219C32.7891 21.682 32.2617 22 31.642 22C30.6944 22 30.1875 21.6 30.1875 20.8467C30.1875 19.9046 31.3295 19.696 32.0069 19.696C32.4632 19.696 32.8039 19.6249 33 19.5859V19.1762C33 18.6404 32.4287 18.4 32.0069 18.4C31.396 18.4 30.8121 18.6682 30.8005 19.421C30.7053 19.421 30.456 19.421 30.3757 19.421C30.3757 18.4199 31.2463 18 32.0069 18ZM33 19.9424C32.7725 19.9847 32.45 20.0463 32.0069 20.0463C31.4928 20.0463 30.5625 20.1002 30.5625 20.8467C30.5625 21.5236 31.1631 21.6 31.642 21.6C32.3875 21.6 32.8701 21.1071 33 20.9568V19.9424Z" fill="#746B64"/>
<path fill-rule="evenodd" clip-rule="evenodd" d="M26 16H26.4V18.7031C26.6197 18.4 27.0939 18 27.9034 18C29.1055 18 29.8 18.8438 29.8 20C29.8 21.3906 28.8125 21.9998 27.9057 21.9998C27.1601 22.0101 26.6783 21.7031 26.4 21.2969V22H26V16ZM27.9011 21.6C28.7979 21.6 29.4 20.8594 29.4 20C29.4 19.0469 28.8562 18.4 27.9057 18.4C27.0336 18.4 26.4 19.0625 26.4 20C26.4 20.8281 26.9934 21.6125 27.9011 21.6Z" fill="#746B64"/>
<path d="M38 25H35V26C35.3849 26 36 26 36 27.3438V32.7768C36 34 35 34 35 34V35H39V34C37.8858 34 38 33.4235 38 32.375V28.4694C38 27.1837 38.9633 26 40.25 26C41.4346 26 42 27.2449 42 28.4694V33C42 33.9592 40.9853 34 40.9853 34V35H45V34C44.1422 34 44 33.743 44 32.8571V27.6939C44 26.1429 42.415 25 40.9853 25C38.514 25 38 26.7143 38 26.7143V25Z" fill="#F5841A"/>
<path d="M28 25H25V26C25.9223 26 26 26.4549 26 26.9375V37.7936C26 39 25 39 25 39V40H29V39C28.1476 38.9377 28 38.7898 28 37.7936V29.3438C28 27.5 28.4745 26 30.3191 26C31.7426 26 32 27.1661 32 29.7051C32 32.2441 31.9888 34 30.1843 34C29.643 34 29.4826 33.8391 29.4826 33.8391V34.8112C29.4826 34.8112 29.9356 35 30.7653 35C32.8435 35 34 33.0998 34 30.9719V28.8405C34 26.8298 33.5527 25 30.846 25C29.0815 25 28 26.0456 28 26.0456V25Z" fill="#F5841A"/>
<path d="M22 22H21C20.6875 23.375 20.7584 25 19 25V26H20V31.7345C20 33.8437 20.5812 35 22.9747 35C23.7451 35.0027 24.5 34.8125 24.5 34.8125V34C24.5 34 23.1504 33.9418 22.6022 33.3437C22.1925 32.8967 22 32.1404 22 31.5393V26H23.5V25L22 24.9793V22Z" fill="#F5841A"/>
<path d="M11 21H7V21.5176C7 21.5176 8.48653 21.4035 8.79511 21.7963C8.96717 22.0154 9 22.1977 9 22.4732V31.0183C9 33.5268 10.9789 35 13.4376 35C16.4289 35 18 33.1684 18 30.5604V29.0075C18 26 15.9987 25 13.7244 25C12.741 25 12 25.2846 12 25.2846V26.28C12 26.28 12.8229 26 13.4376 26C15.5 26 16 27.5756 16 29.0075V30.6997C16 32.9375 15.1381 34 13.4376 34C12.1877 34 11 33.248 11 31.3766V21Z" fill="#F5841A"/>
<path d="M47.6576 23.825C47.1936 24.5613 46.4512 25 45.7834 25C45.5491 25 45.324 24.901 45.1233 24.7796C44.3504 24.3123 44.2319 23.1272 44.8587 22.1326C45.3263 21.3905 46.0766 21.0002 46.7485 21.0002C47.556 21.0002 47.998 21.6826 48 22.4375C48.0012 22.8665 47.9294 23.3936 47.6576 23.825Z" fill="#F5841A"/>
</svg>
