<!-- by TradingView --><svg xmlns="http://www.w3.org/2000/svg" width="56" height="56" viewBox="0 0 56 56"><path fill="#F38500" d="M0 0h56v56H0z"/><path d="M8 20.67V20h4v11.04c0 .73.18 2.38 1.97 2.38 1.8 0 2.5-2.76 2.53-4.13 0-4.17-2.1-4.69-3.07-4.43 0 .14-.12.41-.5.41-.4 0-.49-.12-.5-.18 0-.66 1.03-.98 1.54-1.05 1.68-.24 5.03.35 5.03 4.68A4.86 4.86 0 0 1 13.97 34h-.9c-1.99 0-3.57-1.58-3.57-3.52v-8.5c0-.72-.64-1.31-1.38-1.31H8Zm12.52 3.83H19.5v.5H21v6.62c0 2.13 2.85 2.38 3.31 2.38.37 0 .95-.1 1.19-.25v-.73c-1.48.71-1.92-.3-2-.9V25H25v-.5h-1.5V21H22v.95c0 1.23-1.04 2.44-1.48 2.55Zm4.98 0H29v.63A4.42 4.42 0 0 1 31.76 24c1.48 0 3.74.88 3.74 4.84S32.71 34 31.38 34c-1.07 0-1.28-.48-1.25-.68 0-.13.09-.37.3-.37.22 0 .26.17.26.25.04.01.09.05.15.09.15.08.35.21.54.21h.05c.4.01 1.57.04 1.57-4.5-.07-1.33-.35-4-1.84-4-1.48 0-2.16 1.61-2.16 2.5v9.94c0 .48.7.87 1.17.87h.33V39h-5v-.7h.34c.47 0 .66-.38.66-.86V25.73c0-.48-.19-.73-.66-.73h-.34v-.5Zm14.5 0h-3.6v.52h.66c.25 0 .44.2.44.43v6.86c0 .48-.15 1.19-.64 1.19h-.36v.5h4.76v-.5h-.41c-.49 0-.85-.7-.85-1.19v-5.04c.18-.75.84-2.25 2.16-2.25 1.31 0 1.8 1.06 1.84 1.6v5.7c0 .47-.49 1.18-.98 1.18h-.52v.5h5v-.5h-.35c-.49 0-.65-.7-.65-1.19v-5.7c0-1.31-1.72-2.61-3.59-2.61A3.7 3.7 0 0 0 40 25.66V24.5Zm5.63-.58c.63.35 1.55-.05 2.05-.9.5-.85.4-1.83-.23-2.18-.63-.36-1.54.04-2.05.9-.5.84-.4 1.82.23 2.18Z" fill="#fff"/></svg>