<!-- by TradingView --><svg width="56" height="56" viewBox="0 0 56 56" xmlns="http://www.w3.org/2000/svg"><path fill="#F0F3FA" d="M0 0h56v56H0z"/><path d="M27.04 22H30c-.79-2.98-3.38-4-5.53-4C22.3 18 19 19.28 19 22.48s3.1 4.16 4.68 4.5c1.57.36 2.32 1.22 2.32 1.93 0 .7-.17 1.4-1.53 1.4-.66 0-1.13-.46-1.43-.75-.3-.3-.67-.56-1.1-.56H19c.92 3.3 3.66 4 5.47 4 1.44 0 2.22-.66 2.42-1l1.85-3.54c-.35-1.42-1.49-4.33-3.32-4.64-2.29-.38-2.76-1.18-2.76-1.82 0-.64.47-1.54 1.8-1.54.7 0 1.2.6 1.53.98.26.3.63.56 1.05.56Z" fill="url(#a)"/><path fill-rule="evenodd" d="M28 42c11.05 0 20-6.27 20-14s-8.95-14-20-14S8 20.27 8 28s8.95 14 20 14Zm0-2c9.94 0 18-5.37 18-12s-8.06-12-18-12-18 5.37-18 12 8.06 12 18 12Z" fill="#004021"/><path d="M36.56 21a6.07 6.07 0 0 1-2.92 3.31 18.98 18.98 0 0 0-4.03 2.99c.06-1.22-.65-3.83-4.04-4.6v1.22c.1.17.17.54-.32.62a3 3 0 0 1-.38.02c-.66.02-1.65.05-2.87 1.59 1.06.03 3.26.6 3.57 2.62.09.37.15.7.21 1l.22 1.01v7.05c.12.09.59.3 1.47.38.58.05.81 0 .96-.04.13-.03.2-.04.4.04.35.13.93.58 1.17.79v-4.17l.1.1C31.19 36 32.2 37 34.86 37c.5 0 1.48-.37 1.9-.56a2.68 2.68 0 0 1-2.2-1.14l-.36-.52c-.76-1.06-1.47-2.06-2.91-2.6 1.39-.33 4.27-1.69 4.72-4.18l-1.44.77c1.23-1.52 3.36-5.2 2-7.77Z" fill="#5F2B1E"/><defs><linearGradient id="a" x1="30" y1="25.5" x2="19" y2="25.5" gradientUnits="userSpaceOnUse"><stop stop-color="#305F2B"/><stop offset="1" stop-color="#4B8933"/></linearGradient></defs></svg>