<!-- by TradingView --><svg width="56" height="56" viewBox="0 0 56 56" xmlns="http://www.w3.org/2000/svg"><path fill="#F0F3FA" d="M0 0h56v56H0z"/><path fill-rule="evenodd" d="M44 15H12v26h32V15Zm-1 1H13v24h30V16Z" fill="#E00519"/><path d="M36 17h6v16.32c0 3.14-2.69 5.68-6 5.68V17ZM20 17h-6v16.32c0 3.14 2.69 5.68 6 5.68V17Z" fill="#E00519"/><circle cx="24.5" cy="23.5" r="5.5" fill="#E00519"/><circle cx="24.5" cy="33.5" r="5.5" fill="#E00519"/><path fill="#E00519" d="M19 38h12v1H19zM34 38h2v1h-2z"/><path d="M32.5 19c-.68 0-1.5.58-1.5 1.3V39h-1V20.62A2.56 2.56 0 0 1 32.5 18c1.38 0 2.5 1.18 2.5 2.63V39h-1V20.3c0-.72-.82-1.3-1.5-1.3Z" fill="#E00519"/></svg>