<!-- by TradingView --><svg width="56" height="56" viewBox="0 0 56 56" xmlns="http://www.w3.org/2000/svg"><path fill="#F0F3FA" d="M0 0h56v56H0z"/><path d="M12 24h2v7h3v-7h2v7.2L17.7 33h-4.4L12 31.2V24Z" fill="#0062A4"/><path fill-rule="evenodd" d="M7 33h2.8l1.2-1v-3l-.6-.5.6-.5v-3l-1.2-1H5v9h2Zm0-7v1.5h2V26H7Zm0 5v-1.5h2V31H7Z" fill="#0062A4"/><path d="M36 24v9h2v-4h1.23L41 31.2V33h2v-2.67l-1.72-1.83L43 26.67V24h-2v1.8L40 27h-2v-3h-2ZM20 24v9h2v-4h1.23L25 31.2V33h2v-2.67l-1.72-1.83L27 26.67V24h-2v1.8L24 27h-2v-3h-2ZM49 33h2v-7.2L49.7 24H49v9Zm-3 0h-2v-7.2l1.3-1.8H49v2h-3v2h3v2h-3v3ZM33 33h2v-7.2L33.7 24H33v9Zm-3 0h-2v-7.2l1.3-1.8H33v2h-3v2h3v2h-3v3Z" fill="#0062A4"/></svg>