<!-- by TradingView --><svg width="56" height="56" viewBox="0 0 56 56" xmlns="http://www.w3.org/2000/svg"><path fill="#F0F3FA" d="M0 0h56v56H0z"/><path d="m26.61 19 .89 16-2.5-5c-2.43.21-7-.18-7-3.5 0-1.16.28-2.08.42-2.4A3.51 3.51 0 0 0 16 27.45c0 2.56 2.46 6.78 7 6.55l5 12 5-12c4.54.23 7-3.99 7-6.55a3.51 3.51 0 0 0-2.42-3.35c.14.32.42 1.24.42 2.4 0 3.32-4.57 3.71-7 3.5l-2.5 5 .89-16c7.48 3.88 11.52 5.36 12.61 5.62C41.83 39.7 32.61 46.48 28 48c-4.61-1.52-13.83-8.3-14-23.38 1.09-.26 5.13-1.74 12.61-5.62Z" fill="#0B3986"/><path d="M28 11c-1.25 0-1.87.48-2.02.72l-.1 1.28H16v2.13l4.34 2.25a3.47 3.47 0 0 1 0 3.62l6.45-3.32-.1-1.05-.44-.51 1.75-2.4 1.75 2.4-.45.5-.09 1.06L35.66 21a3.47 3.47 0 0 1 0-3.62L40 15.13V13h-9.89l-.09-1.28c-.15-.24-.77-.71-2.02-.72ZM26.15 9.65c.22-.22.9-.65 1.85-.65.95 0 1.63.43 1.85.65L30 11c-.39-.45-1.5-.6-2-.62-.5.02-1.61.17-2 .62l.15-1.35Z" fill="#BE0606"/></svg>