<!-- by TradingView --><svg width="56" height="56" viewBox="0 0 56 56" xmlns="http://www.w3.org/2000/svg"><path fill="#888E63" d="M0 0h56v56H0z"/><path fill="#fff" d="M32 16h1v23h-1zM43 32.05 46.47 24H48l-4.32 10h-1.36L38 24h1.53L43 32.05ZM10 20H8v13.37c.53.45 2.4.63 3.57.63 3.57 0 5.43-2.24 5.43-5s-1.27-5-4.13-5c-1.07 0-2.06.36-2.87.97V20Zm0 11.24v-4.48a3 3 0 1 1 0 4.47ZM25 24h2v10h-2v-1.53A3.76 3.76 0 0 1 21.88 34c-2 0-2.75-1.73-2.88-2.59V24h2v7.41c-.01.25.42.74 1.76.74 1.35 0 2.1-.8 2.24-1.2V24Z"/></svg>