<!-- by TradingView --><svg xmlns="http://www.w3.org/2000/svg" width="56" height="56" viewBox="0 0 56 56"><path fill="#F50000" d="M0 0h56v56H0z"/><path fill-rule="evenodd" d="M14.19 27.43c-.22-.5-.8-1.59-1.53-2.41-.2.09-.82.27-1.64.27-1.02 0-2.63-.42-2.53-1.58.09-.93 1.42-1 2.26-.84.75.15 1.74.55 2.67 1.55.2-.17.65-.53.78-.68-.45-.56-1.3-1.9-1.26-3.17.04-1.49.55-2.57 1.44-2.57.61 0 1.56.5 1.5 2.57-.02.64-.4 2.14-1.36 3.17.21.2.67.6.82.68a5.14 5.14 0 0 1 2.8-1.55c1.56-.17 2.23.17 2.25.96.02.79-1.1 1.42-2.43 1.42a5.6 5.6 0 0 1-1.87-.27 6.65 6.65 0 0 0-1.45 2.44c.35.09.6.4.6.78a.8.8 0 0 1-.8.8.8.8 0 0 1-.82-.8.8.8 0 0 1 .57-.77zm.2-4.02a4.17 4.17 0 0 1-.88-2.53c-.02-1.58.72-1.74.88-1.74.15 0 .94.2.87 1.74a4.78 4.78 0 0 1-.87 2.53zm-4.4.2a3.24 3.24 0 0 1 2.47 1.2c-1.44.5-2.89.04-3.22-.32-.26-.28-.47-.85.75-.88zm6.36 1.2a3.24 3.24 0 0 1 2.47-1.2c1.22.03 1 .6.75.88-.33.36-1.78.82-3.22.32zm-2.78-.17l.81-.71c.1.12.55.5.78.7l.01.01c-.26.22-.64.97-.8 1.32-.15-.51-.6-1.1-.8-1.32zm.2 5.36H15v7h-1.24v-7zm28.47 0H41v7h1.24v-7zm-3.74-9h-1v6h1v-3.65a1.5 1.5 0 0 1 3 0V27h1v-3.81a2.19 2.19 0 0 0-4-1.23V21zM25 18.51h1v3.41a2.44 2.44 0 0 1 1.87-.92c1.44 0 2.6 1.34 2.6 3s-1.16 3-2.6 3c-.73 0-1.4-.35-1.87-.92V27h-1v-8.49zm1 4.72v1.7c.27.8.9 1.35 1.63 1.35.98 0 1.78-.98 1.78-2.2 0-1.21-.8-2.2-1.78-2.2-.73 0-1.36.56-1.63 1.35zm5.9-1.72c.23-.18.96-.53 2-.5 1.3.01 2.05.86 2.1 2.14V27h-1v-.87c-.18.28-.74.84-1.58.87-1.05.03-1.98-.7-1.92-1.66.05-.96.73-2.2 3.5-2.1.04-.5-.21-1.46-1.31-1.48-.33 0-1.08.1-1.51.43l-.29-.68zm3.1 2.43v1.12a1.44 1.44 0 0 1-1.35 1.13c-.92.06-1.12-.64-1.11-1-.01-.45.5-1.35 2.46-1.25zM46.54 30a4.18 4.18 0 0 0-2.37.6l.34.78c.5-.38 1.4-.49 1.78-.5 1.3.02 1.54 1.16 1.5 1.72-3.27-.1-4.02 1.35-4.09 2.47-.06 1.12 1.04 1.97 2.27 1.93a2.46 2.46 0 0 0 1.88-1.01V37H49v-4.5c-.06-1.5-.92-2.47-2.46-2.5zm1.25 4.73v-1.3c-2.3-.12-2.87.93-2.86 1.47 0 .41.23 1.22 1.32 1.15a1.63 1.63 0 0 0 1.54-1.32zM45 18.58h-1V27h1v-2.14l.68-.74L47.69 27H49l-2.58-3.55L48.66 21H47.4L45 23.8v-5.22zM6 30l2.64 7h1.23l2.71-7h-1.33L9.3 35.74 7.4 30H6zm15.97 6.61c-.55.25-1.17.39-1.81.39-2.5 0-3.64-1.57-3.64-3.5S18 30 20.16 30c.63 0 1.28.1 1.84.37l-.36.93c-.37-.2-.8-.33-1.26-.33-1.62.06-2.55 1.14-2.55 2.54 0 1.4.98 2.6 2.55 2.53.46 0 .9-.12 1.27-.33l.32.9zm3.27-8.18V30H27v1h-1.76v3.87c-.02.5.3 1.37 1.64.95l.12.98c-1 .37-3.03.48-3-2.05V31h-1v-1h1v-1.16l1.24-.4zm5.9 8.57a3.42 3.42 0 0 0 3.35-3.5c0-1.93-1.5-3.5-3.35-3.5a3.42 3.42 0 0 0-3.34 3.5c0 1.93 1.5 3.5 3.34 3.5zm0-.94c1.13 0 2.04-1.14 2.04-2.56 0-1.42-.91-2.56-2.04-2.56-1.12 0-2.04 1.14-2.04 2.56 0 1.42.92 2.56 2.04 2.56zm6.1.94v-4.32c.24-.73.85-1.6 2.16-1.5v-1.13c-.4-.13-1.38-.09-2.16 1.12V30H36v7h1.24z" fill="#fff"/></svg>