<!-- by TradingView --><svg xmlns="http://www.w3.org/2000/svg" width="56" height="56" viewBox="0 0 56 56"><path fill="#F0F3FA" d="M0 0h56v56H0z"/><path fill-rule="evenodd" d="M27.1 39.33c.19-.11.2-.3-.1-.6-1.05-1.13-3.5-2.65-4.86-3.43a7.64 7.64 0 0 0 4.95 4.03zm-1.32.09a8.15 8.15 0 0 1 3.2-15.63 8.13 8.13 0 1 1-3.2 15.63zm-4.4-6.9c.86-1.37 2.1-2.85 3.62-3.54a21.2 21.2 0 0 0-2.27 3.3c.63-1 2.42-3.28 4.46-4.4l-.97 1.1 2.35-1.6-.4.65 1.07-.6.07.18.8-.34-.54.6 2.32-1.22-1.22 1.11a8.77 8.77 0 0 1 3.7-1.11l-1.21.43c.22.03.8.15 1.39.44-.84-.04-2.65-.04-3.2.24.4.02 1.3.12 1.73.34-.78.03-2.5.12-3.12.32 1.28-.15 3.97-.27 4.53.46-1.15-.11-3.8-.27-5.18-.08l-.64.35c1.66-.18 5.13-.26 5.7.8l-6.2-.52-.55.32c-.03.06-.03.2.2.2l.23-.03c.9-.13 4.02-.56 6.08 1.07a62.94 62.94 0 0 0-6.94-.85l-.57.35c.95-.03 3.06-.02 3.86.21.8.24 2.62.65 3.43.83a8.9 8.9 0 0 1-2.3 0c-1.12-.13-4.06-.54-5.39-.73l-.81.58c1.06.03 3.48.17 4.6.47 1.4.36 2.49.75 3.2 1.72a19 19 0 0 0-4.54-1.16 16.88 16.88 0 0 1-3.67-.73l-.5.44c1.07.14 3.53.55 4.75 1.1 1.22.56 2.67 1.63 3.25 2.1l-8.33-2.9-.6.44c1.91.48 6.14 1.9 7.78 3.68-2.17-.83-6.83-2.7-8.06-3.46l-.56.49c1.72.5 5.73 1.98 7.94 3.9-1.68-.4-5.67-1.7-8.12-3.65l-.47.41c1.55.72 4.98 2.48 6.36 3.8l-.82.48c-1.5-.92-4.61-2.9-5.77-3.87a7.61 7.61 0 0 1-.47-2.13z" fill="#0A572B"/><path d="M12.02 40.98C13.35 35.17 21.58 21.92 44 11c-1.53 2.04-4.58 6.3-5.54 8.3.96 2.73 1.58 6.77.57 11.8C37.04 41.08 27.88 41.87 24.8 42c-2.37.08-5-.56-7.02-1.05l-1.59-.37c-1.4-.29-3 .03-3.86.3l-.33.17a6.6 6.6 0 0 1 0-.05l.02-.02zm4.86-2.41c6.36 1.14 11.3-.25 14.66-2.33 5.98-4.04 7.15-11.56 6.54-16.32-5.39 3-16.89 10-21.2 18.65z" fill="#633A1E"/></svg>