<!-- by TradingView --><svg width="56" height="56" viewBox="0 0 56 56" fill="none" xmlns="http://www.w3.org/2000/svg">
<rect width="56" height="56" fill="#F0F3FA"/>
<path d="M34.4097 15.2212C38.0363 20.3641 43 23.3603 43 29.6471C43 37.2574 36.3036 45 26.8193 45C17.335 45 13 39.375 13 32.5576C13 21.9044 24.7188 13.2353 24.7188 13.2353L23.2891 20.3287C24.3752 16.2151 28.9689 12.0573 32.7188 9C32.7188 9 32.1574 12.0271 34.4097 15.2212Z" fill="#0163A4"/>
<path d="M33.7341 18.562C31.6712 15.7327 31.625 13 31.625 13C28.0547 15.6159 25.5525 19.2139 24 22.5547V17.8259C24 17.8259 14 24.8933 14 33.9601C14 38.7911 18.9013 44 26.1242 44C33.3471 44 41 39.2588 41 30.7902C41 25.6285 37.0555 23.1175 33.7341 18.562Z" fill="#FDC110"/>
<path d="M26.5667 44C33.7417 44 39 38.9649 39 33.0149C39 27.3125 32.1875 24.6875 29.9688 19C27.125 21.5 25.2813 24.9552 25 27.3125V23C25 23 17 27.5263 17 34.92C17 39.1537 19.3917 44 26.5667 44Z" fill="url(#paint0_linear_5085_141580)"/>
<path d="M25.988 40C31.519 40 34 36.0792 34 32.3237C34 26.969 29.6034 25.9685 29.0312 20C26.7812 22.1562 25.4609 24.9844 25 27.0625V23.874C25 23.874 19 27.6616 19 33.3297C19 36.2804 20.457 40 25.988 40Z" fill="url(#paint1_linear_5085_141580)" fill-opacity="0.2"/>
<path d="M26.033 39C30.4996 39 33 35.7283 33 32.0006C33 27.9842 28.1138 24.6701 28.6562 20.3125C26.1875 23.0156 25 26.0659 25 27.6917V24.6621C25 24.6621 19.9296 27.7374 20.0007 33.1496C20.0356 35.8018 21.5663 39 26.033 39Z" fill="#F68820" fill-opacity="0.3"/>
<path d="M25.7684 38C29.4549 38 32 35.184 32 31.835C32 28.2445 27.4301 25.7392 27.8125 21.2812C25.9375 23.8906 25.1562 26.0312 25 27.2656V25.5625C25 25.5625 21 28.3572 21 32.8219C21 34.6595 22.0818 38 25.7684 38Z" fill="#F57D21" fill-opacity="0.7"/>
<path d="M26.3815 36C28.0754 36 30 34.6971 30 32.36C30 30.0228 27.771 29.3372 27.3629 27C26.647 27.4541 26.1193 28.081 26 28.3953V27.591C26 27.591 23 29.6875 23 32.5938C23 34.7188 24.6875 36 26.3815 36Z" fill="#FDB914" fill-opacity="0.8"/>
<path d="M25.8571 35C27.1429 35 28 34.2031 28 32.7969C28 31.1562 26.8929 30.9375 26.4643 29C25.2143 30.2812 24 31.3857 24 33.1468C24 33.9375 24.5714 35 25.8571 35Z" fill="#FFE2A4"/>
<path d="M26.0938 37C29.037 37 31 35.1562 31 31.6622C31 28.1682 26.6311 25.5916 27.1641 22.1875C25.8594 24.0938 25.0938 26.1562 25 27.4062V26.4062C25 26.4062 22 29.0096 22 32.586C22 34.7812 23.1505 37 26.0938 37Z" fill="#F99D1D" fill-opacity="0.5"/>
<defs>
<linearGradient id="paint0_linear_5085_141580" x1="29.4639" y1="47.5235" x2="23.7713" y2="20.108" gradientUnits="userSpaceOnUse">
<stop offset="0.14485" stop-color="#FC241B"/>
<stop offset="0.376869" stop-color="#F04E23"/>
<stop offset="0.894985" stop-color="#FC241B"/>
</linearGradient>
<linearGradient id="paint1_linear_5085_141580" x1="29.5288" y1="40.4607" x2="24.1015" y2="23.2092" gradientUnits="userSpaceOnUse">
<stop stop-color="#FFC210"/>
<stop offset="0.943596" stop-color="#F83D2F" stop-opacity="0.99"/>
</linearGradient>
</defs>
</svg>
