<!-- by TradingView --><svg width="56" height="56" viewBox="0 0 56 56" xmlns="http://www.w3.org/2000/svg"><path fill="#F0F3FA" d="M0 0h56v56H0z"/><path fill-rule="evenodd" d="M35.9 22.79 48 17l-2.84 17.83L35 40.36 28 42l-7-1.63-10.16-5.54L8 17l12.1 5.8L28 17l7.9 5.79ZM28 19.92l-7.65 5.6L11 21l.4 2.54 9.03 4.2L28 23l7.57 4.74 9.02-4.2L45 21l-9.35 4.52-7.65-5.6Zm0 5.87-7.37 4.63-8.7-4 .32 2.05 8.93 4.4L28 28l6.82 4.86 8.93-4.39.32-2.05-8.7 4L28 25.8Zm0 5.12-5.43 3.86.44 3.67L28 39.63l5-1.19.43-3.67L28 30.91ZM36 35l-.29 2.4 7.27-4.07.32-2.01L36 35Zm-16 0 .29 2.4-7.27-4.07-.32-2 7.3 3.67Z" fill="#CF152D"/></svg>