<!-- by TradingView --><svg width="56" height="56" viewBox="0 0 56 56" xmlns="http://www.w3.org/2000/svg"><path fill="#F0F3FA" d="M0 0h56v56H0z"/><path d="M42.16 23.5c-.46-.9-1-1.7-1.62-2.42a15.28 15.28 0 0 0-4.82-3.74.08.08 0 0 1-.05-.06l-.11-.57c-.42-1.87-1.99-3.29-3.65-4.02a9.62 9.62 0 0 0-6.3-.52c-2.19.53-4.55 2.05-5.15 4.47l-.12.63a.1.1 0 0 1-.05.07c-1.82.9-3.45 2.14-4.8 3.7a11.9 11.9 0 0 0-1.62 2.42c-.01.02-.04.04-.09.04l-.96.26h-.02l-.01-.02v-.01a14.84 14.84 0 0 1 6.75-7 .1.1 0 0 0 .02-.04c.57-2.59 2.68-4.35 5.03-5.13 2.01-.67 4.07-.74 6.18-.2 2.54.65 5.08 2.5 5.67 5.33a.11.11 0 0 0 .06.08 14.79 14.79 0 0 1 6.71 7l-1.05-.27Z" fill="#2574BE"/><path d="M40.54 21.08a.4.4 0 0 1-.03.15.15.15 0 0 1-.04.05.13.13 0 0 1-.17 0 15.43 15.43 0 0 0-5.07-3 .58.58 0 0 1-.29-.36c-.46-2.55-3-3.97-5.22-4.38a9.09 9.09 0 0 0-3.37 0 7.87 7.87 0 0 0-2.86 1.05c-2.03 1.24-3.2 3.54-1.93 5.88.12.23.32.48.48.7-.06.1-.12.12-.17.07a5.16 5.16 0 0 1-1.51-2.8 14.97 14.97 0 0 0-4.72 2.86.1.1 0 0 1-.1-.02.12.12 0 0 1-.03-.04c-.02-.05-.03-.12-.02-.2a15.16 15.16 0 0 1 4.8-3.7.1.1 0 0 0 .05-.07l.12-.63c.6-2.42 2.96-3.94 5.14-4.47 2.2-.54 4.3-.36 6.3.52 1.67.73 3.24 2.15 3.66 4.02l.11.57c0 .03.02.05.05.06 1.84.93 3.46 2.15 4.82 3.74Z" fill="#F62629"/><path d="M35.03 18.1c-.02 0-.03 0-.05.02v.04c.05.8-.11 1.53-.5 2.22-1.27-.52-2.56.24-2.9 1.61a66.73 66.73 0 0 0-6.2-.04c-.39-.25-.75-.53-1.08-.84-1.46-1.36-1.92-3.39-.83-5.17A5.1 5.1 0 0 1 25 14.36c.37-.25.82-.52 1.36-.81a9.09 9.09 0 0 1 3.37 0c2.22.4 4.76 1.82 5.22 4.37.01.05.04.11.1.19Z" fill="#F9F79C"/><path d="M26.35 13.55c-.54.29-1 .56-1.36.8a5.1 5.1 0 0 0-1.52 1.59c-1.1 1.78-.62 3.8.83 5.17.33.31.7.6 1.09.84l-2.4.14-.95-.91c-.16-.23-.36-.48-.48-.71-1.28-2.34-.1-4.64 1.93-5.88a7.87 7.87 0 0 1 2.86-1.04Z" fill="#FBD943"/><path d="M35.03 18.1c.08.1.15.16.2.18a15.43 15.43 0 0 1 5.13 3.02.13.13 0 0 0 .11-.02.15.15 0 0 0 .04-.05.4.4 0 0 0 .03-.15c.62.71 1.16 1.52 1.62 2.42-2.12-.49-4.94-.8-7.04-1.07-.1-.94-.63-1.55-.63-2.05a3.94 3.94 0 0 0 .5-2.26c0-.02.02-.02.04-.01Z" fill="#97CCED"/><path d="m22.04 21.18.95.9a60.52 60.52 0 0 0-9.2 1.42c.04 0 .07-.02.08-.04.44-.87.98-1.68 1.62-2.42-.01.08 0 .15.02.2a.12.12 0 0 0 .08.06.1.1 0 0 0 .1-.03 14.96 14.96 0 0 1 4.7-2.82c.2 1.1.7 2.02 1.48 2.79.05.05.11.03.17-.06Z" fill="#FA77BC"/><path d="M31.54 22.47c.02 1.6 1.05 1.72 2.48 1.1.67-.28.9-.31 1.1-1.14 3.14.37 6.87 1.43 9.82 2.32.45.13.9.34 1.37.61.92.55 1.52 1.3 1.46 2.4-.02.26-.13.7-.35 1.33-1 2.9-1.8 5.24-2.42 7a.7.7 0 0 1-.24.33c-.04.02-.06.02-.05-.03a.7.7 0 0 0-.23-.62 4.84 4.84 0 0 0-1.77-.9c-1.37-.47-2.8-.86-4.32-1.16a55.06 55.06 0 0 0-13.47-.9c-2.47.13-4.89.42-7.24.88a28.7 28.7 0 0 0-5.3 1.53c-.43.18-1.16.58-1.09 1.2 0 .02 0 .03-.03.01a.77.77 0 0 1-.27-.38c-.64-1.81-1.49-4.27-2.55-7.38-1-2.88 1.91-3.76 3.84-4.28a61.55 61.55 0 0 1 19.26-1.92Z" fill="#2574BE"/><path d="M16 34.52a12.8 12.8 0 0 0 3.53 4.41 13.62 13.62 0 0 0 17.88-.83A12.53 12.53 0 0 0 40 34.52c1.14.3 2.3.66 3.44 1.12.27.1.5.23.68.38.2.17.18.31-.05.43a1.9 1.9 0 0 1-.72.02 25.05 25.05 0 0 1-1.37-.27l-.25.3h-.01v.02a.02.02 0 0 0 .02.02c.52.12 1.12.25 1.78.38.69.13 1.62.16 1.9-.66l2.62-7.52c0-.02.02-.03.04-.02.91.33 1.75.78 2.52 1.35.5.36.52.88.13 1.32a1.9 1.9 0 0 1-.3.29c-1.36.9-2.18 1.4-3.1 2.26-.65.62-.67 1.96-.84 3.16-.07.53-.27 1.28-.8 1.42-.12.04-.3.02-.56-.06a100.43 100.43 0 0 0-4.1-1.06.08.08 0 0 0-.03.02c-4.94 5.49-12.91 6.88-19.56 4.39a16.31 16.31 0 0 1-6.42-4.38.1.1 0 0 0-.09-.03l-.17.03c-1.37.34-2.65.68-3.84 1.02-.27.08-.46.1-.58.08-.5-.1-.71-.78-.8-1.27l-.23-1.65c-.08-.69-.25-1.33-.75-1.78-.92-.81-1.62-1.23-2.97-2.14-.16-.1-.31-.27-.45-.5-.33-.51-.02-.94.4-1.22a10.39 10.39 0 0 1 2.41-1.25l.02.02 2.61 7.53c.26.75 1.1.78 1.74.68a30.18 30.18 0 0 0 1.96-.44l-.24-.31a44.24 44.24 0 0 1-1 .2c-.35.07-.97.2-1.23-.01a.17.17 0 0 1-.03-.23 1 1 0 0 1 .36-.32c.4-.2.8-.38 1.23-.52.9-.3 1.78-.57 2.63-.8Z" fill="#2574BE"/><path d="M40 34.52a12.53 12.53 0 0 1-2.59 3.58 13.62 13.62 0 0 1-17.88.83 12.8 12.8 0 0 1-3.53-4.4 45.42 45.42 0 0 1 8.45-1.23c5.28-.28 10.5-.01 15.55 1.22Z" fill="#FFA93F"/><path d="M14.5 26.72c.32-.16.17-.6-.02-.8-.32-.3-.75-.39-1.15-.3-1.9.45-2.2 2.9-1.35 4.56.96 1.9 3.37 1.19 3.9-.68.02-.06.03-.06.04 0 .1.46.1.91 0 1.35-.4 1.5-1.46 2.28-2.87 2.13-1.74-.18-2.99-1.8-3.05-3.73-.07-2.4 2-4.53 4.17-4.22.51.07 1.07.38 1.33.9.53 1.12-.02 2.47-1.15 2.74-.7.17-1.51-.1-1.65-.98-.14-.83.6-1.46 1.3-1.1.2.1.31.22.5.13ZM23.15 26.14l.23-.24c.69-.54 1.81-.67 2.23.29l.02.01a.02.02 0 0 0 .02 0c.21-.33.5-.56.84-.68.51-.18 1.06-.2 1.46.2.27.28.4.61.4 1.02l-.01 2.06c0 .36.05.66.25.93.03.04.02.06-.03.07-.53.1-1.23.15-1.5-.42a2.7 2.7 0 0 1-.1-.93c0-.8 0-1.36-.02-1.64-.04-.73-.76-.71-1.08-.23-.07.1-.1.26-.1.5l.05 1.73a1.51 1.51 0 0 0 .31.97.03.03 0 0 1 0 .02l-.02.01c-.5.11-1.21.2-1.51-.3a1.95 1.95 0 0 1-.15-.81 45.5 45.5 0 0 0-.1-1.8c-.07-.72-.83-.67-1.1-.17-.06.12-.08.3-.06.55l.12 1.77c.03.31.13.59.33.83.02.02.02.04-.01.05-.71.24-1.55.24-1.65-.76l-.27-2.9c-.05-.57.64-.72 1.03-.57.2.08.32.22.37.43 0 .03.02.04.05.01ZM30.35 29.44c-.02.83-.13 1.45.22 2.04.02.03 0 .05-.02.05-.54.07-1.14.12-1.43-.41a2.3 2.3 0 0 1-.12-.94v-4.2c0-.11.08-.22.23-.33a.82.82 0 0 1 .84-.1c.2.08.32.23.36.44 0 .03.02.04.05.02.64-.6 1.53-.63 2.21-.12 1.16.86 1.13 2.68.07 3.64-.23.2-.49.34-.78.4a1.5 1.5 0 0 1-1.58-.51c-.03-.04-.04-.03-.05.02ZM35.6 30.18c-.51.05-1.19.04-1.4-.52a2.32 2.32 0 0 1-.05-.86l.16-2.56c.04-.78 1.46-.66 1.39.17l-.24 2.83c-.03.33.04.62.18.87.03.04.02.06-.03.07ZM19.39 26.55c.03.02.05.01.05-.03.05-.62.86-.77 1.27-.43.08.06.13.14.15.24l.4 3.01c.03.24.15.48.35.72.02.02.02.04 0 .05-.56.23-1.24.33-1.6-.3-.03-.03-.04-.03-.06 0-.24.41-.51.68-.94.79-.99.24-1.9-.37-2.29-1.31-.48-1.15-.03-2.57 1.19-2.98.53-.18 1.02-.1 1.48.24ZM38.04 26.66c.85-.55 2.14-.54 2.4.66.04.21.03.5-.04.87-.2 1.1-.3 1.68-.32 1.73-.06.33-.03.65.1.95 0 .03 0 .05-.03.05-.7.02-1.57-.17-1.44-1.1l.28-1.85c.06-.3.07-.49.04-.58-.08-.27-.27-.39-.58-.36-.34.04-.54.24-.6.62-.14.9-.23 1.56-.27 2a1.39 1.39 0 0 0 .16.8v.02l-.02.01c-.99.01-1.6-.16-1.44-1.37.08-.56.17-1.36.28-2.38.02-.24.07-.4.12-.5.31-.46 1.37-.2 1.3.39 0 .05.01.06.06.04ZM44.6 27.86c.3-.54 1.1-.32 1.35.16.05.1.06.18.04.28l-.84 2.87c-.07.22-.06.48.03.79.01.03 0 .04-.03.04-.6-.03-1.26-.23-1.35-.95 0-.04-.02-.04-.05-.02-.38.26-.74.38-1.17.3-1.01-.2-1.6-1.14-1.58-2.16.02-1.23 1-2.31 2.28-2.15.57.06.99.35 1.27.85.02.03.04.03.06 0Z" fill="#fff"/><path d="M30.4 27.63c-.03.84.34 1.54.82 1.56.48.01.75-.66.78-1.5.03-.85-.21-1.55-.7-1.57-.47-.01-.88.66-.9 1.5ZM18.1 28.5c.12.82.6 1.42 1.07 1.34.47-.08.74-.82.6-1.64-.13-.82-.6-1.42-1.07-1.33-.47.08-.74.8-.6 1.63ZM42.43 29.18c-.21.8 0 1.56.45 1.69.46.13 1-.42 1.2-1.22.21-.8 0-1.56-.45-1.69-.46-.13-1 .42-1.2 1.22Z" fill="#2574BE"/><path d="M34.44 20.19a2.55 2.55 0 0 1 1.56 2.2l-.03.55a2.54 2.54 0 0 1-1.52 1.86A2.49 2.49 0 0 1 31 22.51l.04-.53c.4-1.53 1.92-2.38 3.4-1.8Z" fill="#F62629"/><path d="M33.47 23c.83.02 1.52-.41 1.53-.97.01-.55-.64-1.01-1.47-1.03-.83-.02-1.52.41-1.53.97-.01.55.64 1.01 1.47 1.03Z" fill="#fff"/></svg>