<!-- by TradingView --><svg width="56" height="56" viewBox="0 0 56 56" xmlns="http://www.w3.org/2000/svg"><path fill="#F0F3FA" d="M0 0h56v56H0z"/><path fill-rule="evenodd" d="m28 14-9 14 9 14 9-14-9-14Zm0 2.2L20.41 28 28 39.8 35.59 28 28 16.2Z" fill="#D9231F"/><path d="M33.5 33.34 39.04 42 48 28l-8.96-14-5.54 8.66.7 1.1 4.84-7.57L46.6 28l-7.56 11.8-4.84-7.56-.7 1.1ZM8 28l8.96-14 5.5 8.6-.7 1.1-4.8-7.5L9.4 28l7.56 11.8 4.8-7.5.7 1.1-5.5 8.6L8 28Z" fill="#D9231F"/><path fill="#D9231F" d="M39 24h1v8h-1zM26 32v-8h1l2 5.33V24h1v8h-1l-2-5.33V32h-1ZM19 30c-.45 1.2-1.47 2-2.42 2-1.43 0-2.58-1.8-2.58-4s1.15-4 2.58-4c.95 0 1.97.8 2.42 2h-1.05c-.3-.61-.9-1-1.37-1-.87 0-1.58 1.34-1.58 3s.7 3 1.58 3c.47 0 1.08-.39 1.37-1H19Z"/></svg>