<!-- by TradingView --><svg xmlns="http://www.w3.org/2000/svg" width="56" height="56" viewBox="0 0 56 56"><path fill="#F0F3FA" d="M0 0h56v56H0z"/><path d="M29.07 34H12.05c-1.54 0-2.53-1.84-1.8-3.36l3.88-8.02A2.7 2.7 0 0 1 16.54 21h6.9l3.44-7.38A2.7 2.7 0 0 1 29.3 12h7.65c1.5 0 2.5 1.76 1.85 3.28l-7.27 16.99A2.73 2.73 0 0 1 29.07 34Z" fill="#165DA5"/><path d="M26.93 22h17.02c1.54 0 2.53 1.85 1.8 3.37l-3.82 8.1c-.47.99-1.4 1.53-2.41 1.53h-6.9l-3.5 7.38A2.7 2.7 0 0 1 26.7 44h-7.65c-1.5 0-2.5-1.75-1.85-3.27l7.27-16.99A2.73 2.73 0 0 1 26.93 22Z" fill="#CCDB29"/><path d="M20.08 34h8.99c1.05 0 2.01-.67 2.46-1.73L35.93 22h-9c-1.05 0-2.01.68-2.46 1.74L20.07 34Z" fill="#0E4972"/></svg>