<!-- by TradingView --><svg width="56" height="56" viewBox="0 0 56 56" xmlns="http://www.w3.org/2000/svg"><path fill="#0066CB" d="M0 0h56v56H0z"/><circle cx="28" cy="28" r="16" fill="#fff"/><path fill-rule="evenodd" d="M28 41a9 9 0 1 0 0-18 9 9 0 0 0 0 18Zm0-1a8 8 0 1 0 0-16 8 8 0 0 0 0 16Z" fill="#0066CB"/><path fill-rule="evenodd" d="M26 16.14a12.01 12.01 0 0 0-9.5 15.28 11.52 11.52 0 0 1 9.5-12.3v-2.98Zm0-1.01A13.01 13.01 0 0 0 27.97 41H28c.25 0 .49 0 .73-.02a13 13 0 0 0 12.27-13A13.01 13.01 0 0 0 29 15v5c5.32.52 9.48 5.02 9.48 10.48a8.96 8.96 0 0 1-3.4 7.21 11.23 11.23 0 0 1-7.1 2.31c-3.05 0-5.79-1.02-7.7-2.82a8.98 8.98 0 0 1-2.82-6.7C17.46 25 21.65 20.49 27 20v-5c-.34.03-.67.08-1 .13Zm13.42 16.56A12.02 12.02 0 0 0 30 16.14v3a11.52 11.52 0 0 1 9.42 12.55Z" fill="#0066CB"/></svg>