<!-- by TradingView --><svg width="56" height="56" viewBox="0 0 56 56" fill="none" xmlns="http://www.w3.org/2000/svg">
<rect width="56" height="56" fill="#F0F3FA"/>
<path fill-rule="evenodd" clip-rule="evenodd" d="M6 26.4611L10.2452 30.7685C10.2452 30.7685 13.6449 27.7534 17.9638 25.2167C24.7658 21.2216 30 21.5 30 21.5C30 21.5 26.75 20 24.7658 20C19.7246 20 16.9324 20.3829 11.5719 23.1588C7.83647 25.0931 6 26.4611 6 26.4611ZM11.4389 31.6865L15.6811 36C15.6811 36 21.537 29.8654 25.8529 27.3251C30.4407 24.6249 34 24.0181 34 24.0181L30.7701 22.0052C30.7701 22.0052 26.7746 21.7655 21.4178 24.5453C17.685 26.4824 11.4389 31.6865 11.4389 31.6865Z" fill="#143256"/>
<path fill-rule="evenodd" clip-rule="evenodd" d="M50 29.5389L45.6923 25.2315C45.6923 25.2315 42.2926 28.2466 37.9737 30.7833C31.1717 34.7784 25.9375 34.5 25.9375 34.5C25.9375 34.5 29.1875 36 31.1717 36C36.2129 36 39.0051 35.6171 44.3656 32.8412C48.101 30.9069 50 29.5389 50 29.5389ZM44.4986 24.3135L40.2564 20C40.2564 20 34.4005 26.1346 30.0846 28.6749C25.4968 31.3751 21.9375 31.9819 21.9375 31.9819L25.1674 33.9948C25.1674 33.9948 29.1629 34.2345 34.5197 31.4547C38.2525 29.5176 44.4986 24.3135 44.4986 24.3135Z" fill="#E7282B"/>
</svg>
