<!-- by TradingView --><svg width="56" height="56" viewBox="0 0 56 56" xmlns="http://www.w3.org/2000/svg"><path fill="#F0F3FA" d="M0 0h56v56H0z"/><path fill-rule="evenodd" d="M45 28a17 17 0 1 1-34 0 17 17 0 0 1 34 0Zm-1.47 0a15.52 15.52 0 1 1-31.04 0 15.52 15.52 0 0 1 31.04 0ZM22.05 41.66a14.95 14.95 0 0 0 16.51-3.15 14.94 14.94 0 0 0 3.07-16.53 14.87 14.87 0 0 0-13.52-8.9.16.16 0 0 0-.16.16v1.1a.16.16 0 0 0 .17.17 13.46 13.46 0 1 1-13.6 13.67.16.16 0 0 0-.17-.16h-1.1a.16.16 0 0 0-.17.16 14.88 14.88 0 0 0 8.97 13.48Zm-2.2-21.8c-7.2 7.22-2.19 19.36 7.99 19.61.04 0 .08.02.11.05.03.03.05.07.05.11v1.12a.17.17 0 0 1-.1.15 12.87 12.87 0 0 1-11.36-6.92c-2.65-4.99-1.69-11.2 2.27-15.16a12.98 12.98 0 0 1 22.1 8.98.17.17 0 0 1-.16.17h-1.12a.16.16 0 0 1-.1-.04.16.16 0 0 1-.06-.11c-.27-10.18-12.42-15.17-19.62-7.95Zm19 7.21c-.48-5.7-5.2-10-10.87-10-5.66 0-10.4 4.29-10.88 10-.26 3.1.72 5.92 2.94 8.44a.2.2 0 0 0 .27.03l.8-.64a.23.23 0 0 0 .1-.16.24.24 0 0 0-.07-.18c-4-4.5-3.41-10.84 1.4-14.32a9.06 9.06 0 0 1 5.44-1.74c2.02 0 3.83.58 5.43 1.74 4.82 3.48 5.4 9.83 1.4 14.32a.24.24 0 0 0-.06.18.23.23 0 0 0 .1.16l.8.64a.2.2 0 0 0 .27-.02 10.97 10.97 0 0 0 2.93-8.45Zm-16.12-4.34c-4.72 4.73-1.38 12.4 5.1 12.7.04 0 .08.01.1.05.04.03.05.07.05.11v1.12a.16.16 0 0 1-.1.14.16.16 0 0 1-.06.01c-7.73-.22-11.71-9.59-6.13-15.17 5.58-5.58 14.95-1.6 15.18 6.13a.16.16 0 0 1-.16.16h-1.12a.17.17 0 0 1-.11-.04.17.17 0 0 1-.05-.12c-.3-6.47-7.97-9.81-12.7-5.09Zm3.86 10.44a5.38 5.38 0 0 1 .01-10.38 5.44 5.44 0 0 1 5.15 1.27c.01 0 .03 0 .05-.02l.95-.73a.15.15 0 0 0 0-.23 6.86 6.86 0 0 0-11.61 4.9 6.86 6.86 0 0 0 11.64 4.88.15.15 0 0 0-.05-.18l-.95-.75a.08.08 0 0 0-.05-.01l-.05.01a5.44 5.44 0 0 1-5.1 1.24Z" fill="#C4883E"/></svg>