<!-- by TradingView --><svg width="56" height="56" viewBox="0 0 56 56" xmlns="http://www.w3.org/2000/svg"><path fill="#F0F3FA" d="M0 0h56v56H0z"/><path d="m20.5 14 4.5 4.5-4.5 4.5-4.5-4.5 4.5-4.5ZM31.5 14l4.5 4.5-4.5 4.5-4.5-4.5 4.5-4.5ZM42.5 14l4.5 4.5-4.5 4.5-4.5-4.5 4.5-4.5Z" fill="#DA241C"/><path d="M20 24.68 15 20l-5 4.68V41h10v-8h-2v6h-6V25.65l3-3.07 3 3.03V28h2v-3.32Z" fill="#1E1916"/><path d="M13 26.13 15 24l2 2.13V38h-4V26.13ZM24 25.96 26 24l2 1.96V30h-4v-4.04ZM24 34h4v4h-4z" fill="#969593"/><path d="m26 20 5 4.65V41H21V24.63L26 20Zm3 19v-6h-6v6h6Zm-6-8h6v-5.44l-3-3-3 3.03V31Z" fill="#1E1916"/><path d="M35 25.96 37 24l2 1.96V30h-4v-4.04ZM35 34h6l-6 6v-6Z" fill="#969593"/><path d="m37 20 5 4.7V33h-8v8h-2V24.68L37 20Zm-3 11h6v-5.39l-3-3.03-3 3.07V31Z" fill="#1E1916"/><path d="M43 24.99 47 21v7.01L43 32v-7.01Z" fill="#969593"/></svg>