<!-- by TradingView --><svg width="56" height="56" viewBox="0 0 56 56" xmlns="http://www.w3.org/2000/svg"><path fill="#F0F3FA" d="M0 0h56v56H0z"/><path d="M36.22 38c9.24 0 11.7-4.67 11.78-7-1.19 1.45-4.08 4-11.21 4-7.14 0-6.46-1-16.6-1C12.1 34 6.03 36.26 4 37.36 5.59 36.73 8.02 36 12.95 36c4.92 0 15.06 2 23.27 2Z" fill="url(#a)"/><path d="M15.74 22.98C14.57 25.56 12.76 26.74 12 27c6.46-1.53 7-5.1 7-6.68 0-1.27-.25-2.07-.38-2.32-.47.58-1.7 2.4-2.88 4.98Z" fill="url(#b)"/><path d="M22.07 20.4c-1.06-2-2.37-2.44-2.9-2.4 1.58 2.93.54 5.22-.17 6 2.69-1.37 6.45-4.57 8-6l-4.93 2.4Z" fill="#333031"/><path d="M31.56 15.45 34 15c-9.44 11.33-17.92 13.96-22 13 6.12-.36 15.6-8.58 19.56-12.55Z" fill="url(#c)"/><path d="M34 19.66V16c-5.2 5.67-7.6 6.97-12.86 9.8A17.37 17.37 0 0 1 12 28c.7.69 2.6 2 4.51 2 4.98 0 10.23-4.9 12.4-6.44 1.74-1.23 4.12-3.11 5.09-3.9Z" fill="url(#d)"/><path d="M30.64 32.3c7.2 0 10.9-7.69 11.85-11.52-.23-.65-4.9.23-6.32.82-1.43.6-4.96 3.07-7.18 4.31-2.22 1.24-8.08 6.03-11.16 7.09 5.97 0 13.65-4.06 16.74-6.08-.13 3.45-4.42 4.9-6.55 5.2.42.05 1.53.17 2.62.17Z" fill="url(#e)"/><path d="M35.26 20.36c1.86-.8 5.94-1.9 7.74-2.36l-.51 2.78c-3.76 0-7.23 2.36-12.3 6.31C25.12 31.05 22.33 33 17.32 33c-4 0-5.88-1.97-6.32-2.95.78.41 2.9 1.24 5.12 1.24 3.65 0 5.81-1.6 9.34-3.96 3.53-2.36 7.46-5.96 9.8-6.97Z" fill="url(#f)"/><defs><linearGradient id="a" x1="48" y1="34.5" x2="4" y2="34.5" gradientUnits="userSpaceOnUse"><stop stop-color="#20236B"/><stop offset="1" stop-color="#3F96CA"/></linearGradient><linearGradient id="b" x1="18.51" y1="18.62" x2="12.01" y2="26.39" gradientUnits="userSpaceOnUse"><stop stop-color="#5C5D60"/><stop offset="1" stop-color="#363536"/></linearGradient><linearGradient id="c" x1="34" y1="21.43" x2="12" y2="21.43" gradientUnits="userSpaceOnUse"><stop stop-color="#1C266F"/><stop offset="1" stop-color="#005CA6"/></linearGradient><linearGradient id="d" x1="34" y1="23" x2="12" y2="23" gradientUnits="userSpaceOnUse"><stop stop-color="#409CD0"/><stop offset="1" stop-color="#20246C"/></linearGradient><linearGradient id="e" x1="42.49" y1="26.77" x2="17.83" y2="26.77" gradientUnits="userSpaceOnUse"><stop offset=".2" stop-color="#1B266F"/><stop offset=".62" stop-color="#005AA5"/></linearGradient><linearGradient id="f" x1="43" y1="25.5" x2="11" y2="25.5" gradientUnits="userSpaceOnUse"><stop stop-color="#006BB6"/><stop offset=".58" stop-color="#1B266F"/></linearGradient></defs></svg>