<!-- by TradingView --><svg width="56" height="56" viewBox="0 0 56 56" xmlns="http://www.w3.org/2000/svg"><path fill="#F0F3FA" d="M0 0h56v56H0z"/><path d="M28.01 8.02 28 8l-.01.02c-.97 1.98-2.21 4.23-3.53 6.61C20.55 21.74 16 30.01 16 35.47c.1 6.72 5.18 12.26 11.54 12.52a11.33 11.33 0 0 0 .61 0c6.5-.08 11.76-5.7 11.85-12.52 0-5.46-4.55-13.73-8.46-20.84A176.06 176.06 0 0 1 28 8.02Z" fill="url(#a)"/><path d="M25 20.01V20v.01c-.57 1.14-1.3 2.43-2.06 3.8C20.65 27.91 18 32.65 18 35.8c.05 3.87 3.02 7.06 6.73 7.2a6.83 6.83 0 0 0 .36 0c3.8-.04 6.85-3.27 6.91-7.2 0-3.14-2.65-7.89-4.94-11.98-.76-1.37-1.49-2.66-2.05-3.8Z" fill="#fff" fill-opacity=".2"/><path d="M28.03 8.05c-.27.83-.74 2.58-.74 3.87 0 1.69 1.38 5.13 3.9 10.44.58 1.2 1.1 2.21 1.55 3.1C34.3 28.5 35 30.2 35 33.62a8.79 8.79 0 0 1-3.8 7.63c-1.02.78-1.53 4.15-1.73 6.66 5.88-.76 10.44-6.07 10.53-12.43 0-1.31-.26-2.78-.71-4.36-1.93-5.25-4.27-8.24-6.1-10.59-1-1.28-1.85-2.37-2.4-3.53-1.94-4.12-2.64-7.5-2.72-8.84l-.04-.1Z" fill="url(#b)"/><path d="M30.78 36.06a2 2 0 0 1-.84.27c-.8.1-1.57.24-2.3.41-.4.1-.72.27-1.16.48a2.8 2.8 0 0 0-1.12.94.12.12 0 0 1-.08.05c-.03 0-.06 0-.09-.02-.4-.3-.66-.68-1.1-.97-.61-.4-.97-.64-1.07-.69-.25-.13-.8-.39-1.66-.76-.48-.2-.97-.27-1.42-.48a12.15 12.15 0 0 1-.83-.44c-.05-.03-.08-.07-.09-.1l.01-.1c.02-.04.05-.05.08-.05a13.81 13.81 0 0 1 3.4 1.07c.7.35 1.34.77 1.94 1.27.27.22.48.5.64.84.1.2.18.19.23-.03.12-.5.89-1.03 1.29-1.21a8.35 8.35 0 0 1 3.93-.75c.16.01.24.1.24.27Z" fill="#269047"/><path d="M19.4 35.96c.7.14 1.21.25 1.52.34 1.17.33 2.25.84 3.24 1.53a4.3 4.3 0 0 1 1.21 1.27.06.06 0 0 0 .07 0l.02-.04c.14-.47.42-.82.84-1.05a7.36 7.36 0 0 1 1.77-.77c.58-.13 1.19-.22 1.82-.27.27-.02.52 0 .78.03.23.01.32.09.3.23l-.04.06a.11.11 0 0 1-.04.03l-.58.2c-.4.08-.86.07-1.16.1-.93.13-1.82.42-2.67.87-.33.18-.6.4-.88.7-.15.15-.24.17-.4.03-1-.9-2.1-1.57-3.34-2.02-.14-.06-.47-.15-1-.27a5.97 5.97 0 0 1-1.77-.74.14.14 0 0 1-.08-.09v-.09c0-.02.02-.03.06-.04.1-.02.21-.03.33-.01Z" fill="#269047"/><path d="M19.67 37.4c.63.09 1.07.17 1.33.23.25.06.68.2 1.28.4.47.15.86.39 1.26.57.2.09.41.21.6.36.52.4.92.68 1.25 1.2l.05.04a.12.12 0 0 0 .13 0 .13.13 0 0 0 .04-.06c.44-.8 1.08-1.16 1.94-1.48.8-.3 1.65-.45 2.52-.44l.86.03.03.01.03.03a.08.08 0 0 1 0 .08.37.37 0 0 1-.23.18l-.56.22c-.3.06-.6.1-.9.1-.42.02-.71.04-.88.08a4.3 4.3 0 0 0-2.75 1.56.1.1 0 0 1-.09.04.6.6 0 0 1-.33-.18c-.2-.18-.38-.42-.63-.6-.53-.37-.89-.6-1.09-.72a6.12 6.12 0 0 0-2.2-.72c-.35-.06-.7-.14-1.04-.23-.25-.12-.76-.35-.86-.62-.01-.04 0-.06.04-.06l.2-.03Z" fill="#269047"/><path d="M30.34 39.48c.13-.03.14.06.03.27-.06.11-.22.2-.5.28-.58.15-1.37.11-1.96.26-.54.14-1.5.5-1.64 1.07-.03.13-.06.28-.07.47a.18.18 0 0 1-.1.15.17.17 0 0 1-.18-.02c-.2-.15-.32-.02-.55.01a.16.16 0 0 1-.13-.03.17.17 0 0 1-.06-.12 1.18 1.18 0 0 0-.42-.8 4.89 4.89 0 0 0-1.65-.93 7.6 7.6 0 0 0-1.66-.37 1.38 1.38 0 0 1-.6-.18 1.51 1.51 0 0 1-.6-.63c.77.18 1.53.34 2.3.48.18.04.62.2 1.34.49.38.15.7.34.95.58a7.33 7.33 0 0 1 .83.83l.02-.01.02-.02c.1-.24.19-.43.36-.6.37-.35.8-.6 1.26-.72a7 7 0 0 1 1.22-.26c.6-.05 1.2-.12 1.79-.2ZM24 31.37c-.38-.62-.92-1.11-1.4-1.63-.22-.24-.4-.36-.26-.67.04-.1.07-.1.08.01.02.1.07.17.15.24.26.2.47.42.64.65.12.16.3.36.54.59.2.18.33.54.33.78 0 .1-.03.1-.08.03ZM23.93 30.5c-.1-.08-.3-.26-.38-.44a4.13 4.13 0 0 0-.46-.78.25.25 0 0 1-.03-.24c.02-.04.05-.05.08-.02a2.48 2.48 0 0 1 .82 1.48.02.02 0 0 1-.02.01h-.01ZM25.13 29.94c-.15.16-.23.48-.33.73l-.03.03a.06.06 0 0 1-.07 0 .07.07 0 0 1-.02-.03.46.46 0 0 1-.02-.34c.12-.4.22-.71.54-.92l.04-.02.04.01.03.04v.04c0 .2-.06.35-.18.46ZM21.56 29.49c.28.08.58.34.76.47.52.37.84.63.96.78l.7.88c.06.06.15.32.26.75.02.06 0 .07-.05.05l-.04-.02a.26.26 0 0 1-.14-.14c-.23-.51-.52-.79-.93-1.18-.4-.39-.83-.7-1.3-.92a.6.6 0 0 1-.3-.33 1.9 1.9 0 0 1-.07-.17c-.04-.16.01-.21.15-.17ZM24.94 31.42c-.02.05-.06.05-.1.01a.23.23 0 0 1-.05-.12.35.35 0 0 1 .04-.24c.36-.64.53-.97 1.18-1.2.1-.04.15 0 .15.12v.03c0 .13-.05.22-.16.27-.4.2-.75.57-1.06 1.13ZM24.31 33.44a3.9 3.9 0 0 0-.42-.44l-.46-.45a6.1 6.1 0 0 0-.75-.66l-1.83-1.35a.71.71 0 0 1-.25-.31.13.13 0 0 1 0-.1l.03-.04a.11.11 0 0 1 .05-.03.31.31 0 0 1 .2.02c.64.24 1 .5 1.5.88.16.13.34.3.54.5.37.38.8.8 1.26 1.3.04.03.1.12.17.25a34.73 34.73 0 0 0 .23.44.1.1 0 0 1-.05.09.1.1 0 0 1-.05 0 .22.22 0 0 1-.17-.1ZM25.4 31.82a2.57 2.57 0 0 0-.47.83h-.06l-.03-.02a.13.13 0 0 1-.04-.14c.1-.34.14-.72.35-.99a2.54 2.54 0 0 1 1.82-1.03h.06l.05.04a.13.13 0 0 1 .02.12l-.04.17a.3.3 0 0 1-.08.13.29.29 0 0 1-.13.08c-.62.17-1.1.44-1.45.8Z" fill="#269047"/><path d="m24.78 34.56.04.02a.08.08 0 0 0 .07-.03l.02-.04c.06-.34.2-.6.4-.81.57-.57 1.1-.87 1.85-1.2.26-.12.52-.18.76-.2.24-.02.85-.07 1.05.08.02 0 .03.02.04.04a.13.13 0 0 1 0 .12 2.93 2.93 0 0 1-.75.39c-.67.2-1.09.34-1.25.4-.28.12-.62.3-1.04.55-.2.12-.39.26-.55.44l-.48.53c-.07.07-.14.07-.2 0a34 34 0 0 0-.44-.51c-.15-.17-.31-.33-.47-.47-.96-.84-2-1.54-3.1-2.12a2.1 2.1 0 0 1-.37-.24c-.2-.17-.48-.27-.41-.5l.03-.06a.16.16 0 0 1 .18-.06c.32.1.63.24.93.4.68.37 1.3.76 1.85 1.17.18.14.33.27.44.4.18.2.39.32.57.53l.49.56c.16.18.17.47.34.61Z" fill="#269047"/><path d="M25.18 33.34a.7.7 0 0 0-.25.31c-.02.06-.06.08-.12.06l-.06-.02c-.05-.02-.07-.06-.04-.11a3.7 3.7 0 0 1 1.58-1.82c.3-.16.53-.34.87-.42.32-.07.54-.13.8-.06.03 0 .06.03.08.05a.2.2 0 0 1 .04.2.2.2 0 0 1-.06.1c-.19.14-.39.25-.6.33-.5.18-1.02.44-1.52.78-.2.14-.52.47-.72.6Z" fill="#269047"/><path d="M23.67 34.8a8.9 8.9 0 0 0-1.74-1.14c-.52-.26-1.05-.5-1.59-.72-.2-.08-.48-.27-.87-.58-.07-.15-.07-.26 0-.34a.09.09 0 0 1 .1-.02 12 12 0 0 1 1.83.67c.36.18.86.48 1.47.9.11.08.26.2.43.36.18.17.42.32.57.48.4.4.74.86 1.02 1.37.04.08.08.07.12 0 .1-.2.16-.44.32-.62.34-.41.62-.7.84-.84.7-.5 1.67-.87 2.57-.84h.99c.04 0 .06.02.06.06.02.2-.05.33-.21.39-.33.12-.64.2-.94.23-.33.03-.65.1-.95.18-.58.18-1.13.43-1.66.76-.2.12-.37.25-.52.4a402.18 402.18 0 0 0-.5.48l-.03-.01-1.31-1.17Z" fill="#269047"/><path d="M19.23 33.25c.9.2 1.78.49 2.63.86.24.1.74.4 1.5.91a5.83 5.83 0 0 1 1.66 1.79.1.1 0 0 0 .1 0 5.39 5.39 0 0 1 2.83-2.03c.23-.04.52-.14.8-.15h1.6c.03 0 .05.02.06.06.02.18-.04.3-.19.35-.53.18-1 .28-1.4.3a5.1 5.1 0 0 0-2.9 1.1 2.8 2.8 0 0 0-.48.46c-.08.1-.15.16-.21.17-.13 0-.23-.02-.3-.1a9.6 9.6 0 0 0-1.57-1.32c-.93-.63-1.93-1.11-2.98-1.46a3.92 3.92 0 0 1-1.15-.61c-.11-.1-.11-.2 0-.33Z" fill="#269047"/><defs><linearGradient id="a" x1="28" y1="8" x2="28" y2="48" gradientUnits="userSpaceOnUse"><stop offset=".06" stop-color="#6E1D0C"/><stop offset=".37" stop-color="#F17128"/><stop offset="1" stop-color="#FCEE06"/></linearGradient><linearGradient id="b" x1="33.65" y1="8.05" x2="33.65" y2="47.9" gradientUnits="userSpaceOnUse"><stop stop-color="#305F31"/><stop offset=".5" stop-color="#169B42"/><stop offset=".69" stop-color="#86BF3A"/><stop offset=".85" stop-color="#FAD30E"/><stop offset=".99" stop-color="#FCEB07"/></linearGradient></defs></svg>