<!-- by TradingView --><svg width="56" height="56" viewBox="0 0 56 56" xmlns="http://www.w3.org/2000/svg"><path fill="#F0F3FA" d="M0 0h56v56H0z"/><path d="M43.98 20.13c.02.47.02.88.02 3.09v2.56c0 1.41 0 2.56-.06 3.17l-.02.2c-.1.34-.4.59-.72.59-.15 0-.2.04-.2.11 0 .08.05.12.14.14l.1.01h3.62c.1-.03.14-.07.14-.15 0-.07-.05-.11-.2-.11-.33 0-.62-.25-.72-.6l-.02-.19c-.06-.6-.06-1.76-.06-3.17v-2.56c0-2.21 0-2.62.02-3.09.03-.59.18-.87.78-.87.13 0 .2-.03.2-.14 0-.1-.1-.12-.26-.12h-3.48c-.16 0-.26.03-.26.12 0 .11.07.14.2.14.6 0 .75.28.78.87ZM37.37 30c-.83 0-1.48-.1-2.1-.36-.23-.1-.27-.17-.27-.48 0-.77.06-1.62.07-1.84.02-.21.06-.36.17-.36.13 0 .15.12.15.23 0 .19.05.48.13.72.31 1.04 1.16 1.42 2.05 1.42 1.3 0 1.92-.86 1.92-1.6 0-.7-.21-1.34-1.4-2.25l-.66-.5c-1.58-1.21-2.13-2.2-2.13-3.33 0-1.54 1.32-2.65 3.32-2.65.93 0 1.53.14 1.9.24.14.03.2.07.2.17 0 .18-.05.59-.05 1.68 0 .3-.04.42-.16.42-.1 0-.14-.08-.14-.25 0-.13-.07-.56-.37-.93-.22-.26-.64-.68-1.57-.68-1.06 0-1.7.6-1.7 1.44 0 .65.32 1.14 1.51 2.02l.4.3c1.74 1.27 2.36 2.24 2.36 3.57 0 .82-.32 1.79-1.35 2.44-.72.45-1.52.58-2.28.58ZM29.72 30C26.17 30 23 28.07 23 24.33c0-3.42 2.99-5.33 6.23-5.33.9 0 1.42.06 2.09.14.54.07 1 .2 1.44.24.15.01.21.08.21.17 0 .1-.04.28-.07.77-.03.46-.02 1.23-.04 1.51-.02.21-.05.33-.18.33-.11 0-.14-.12-.14-.31-.01-.44-.2-.93-.56-1.3-.48-.48-1.6-.86-2.92-.86-2.71 0-4.06 2-4.06 4.5 0 3.34 2.63 5 4.56 5 1.28 0 2.06-.14 2.63-.79.25-.27.44-.67.5-.93.04-.22.07-.28.18-.28.1 0 .13.1.13.21 0 .17-.17 1.4-.32 1.87-.07.24-.13.3-.37.4-.58.23-1.67.33-2.6.33ZM17.72 30C14.17 30 11 28.07 11 24.33c0-3.42 2.99-5.33 6.23-5.33.9 0 1.42.06 2.09.14.54.07 1 .2 1.44.24.15.01.21.08.21.17 0 .1-.04.28-.07.77-.03.46-.02 1.23-.04 1.51-.02.21-.05.33-.18.33-.11 0-.14-.12-.14-.31-.01-.44-.2-.93-.56-1.3-.48-.48-1.6-.86-2.92-.86-2.71 0-4.06 2-4.06 4.5 0 3.34 2.63 5 4.56 5 1.28 0 2.06-.14 2.63-.79.25-.27.44-.67.5-.93.04-.22.07-.28.18-.28.1 0 .13.1.13.21 0 .17-.17 1.4-.32 1.87-.07.24-.13.3-.37.4-.58.23-1.67.33-2.6.33ZM12 30H5v.44l3.84.56H9v.74L5 31v1.33L9 33h20v1H9l-4-1v.53l4 .94v.27L5 34v1.33L9 36v.56L5 36v1h7v-2h18v-1h19v-1H30v-1H12v-2Z" fill="#00069F"/></svg>