<!-- by TradingView --><svg width="56" height="56" viewBox="0 0 56 56" xmlns="http://www.w3.org/2000/svg"><path fill="#F0F3FA" d="M0 0h56v56H0z"/><path d="M28 12c3.94 0 7.54 1.42 10.33 3.78a5.5 5.5 0 0 1-3.2 1.18c-2.03 0-4.3-1.33-7.68-1.33-3.37 0-3.72 1.01-6.08 1.01-1.6 0-2.8-.65-3.38-1.12A15.93 15.93 0 0 1 28 12Z" fill="#4CC0D5"/><path d="M17.4 16c.67.49 2.09 1.5 4.26 1.5 2.36 0 3.46-1 5.85-1 3.06 0 5.7 1.18 7.81 1.18 1.49 0 2.9-.81 3.62-1.36.9.85 1.7 1.79 2.38 2.82-2.15 1.97-3.6 2.87-6.4 3.3-2.86.43-4.67 1.18-7.06 1.18-3.87 0-5.6-2.14-9.29-3.52a29.01 29.01 0 0 0-3.77-1.14A16.1 16.1 0 0 1 17.4 16Z" fill="#2577B9"/><path d="M14.29 19.75c1.3.15 3.37.66 6.56 2.37 3.78 2.02 5.45 2.25 7.06 2.25 1.62 0 4.47-.35 8.22-1.21a11.36 11.36 0 0 0 5.64-3.32c.66 1.12 1.2 2.34 1.58 3.62-.63 1.5-2.78 3.9-4.91 5.15-2.28 1.32-5.16 2.04-6.32 2.04-1.15 0-3.14-.49-5.1-1.3-3.43-1.44-5.13-1.72-9-1.72a8.63 8.63 0 0 1-5.81-2.21 15.9 15.9 0 0 1 2.08-5.67Z" fill="#243F7A"/><path d="M43.64 24.62a16.06 16.06 0 0 1 .19 5.73c-1.03 2-3.98 4.48-7 4.48-3.27 0-3.73-.31-7.22-.31-3.48 0-5.79 1.55-8.87 1.55-3.82 0-6.74-2-8-3.24a16 16 0 0 1-.67-6.37c1.7 2.11 2.78 2 6.88 2 5.45 0 10.06 3.06 12.83 3.06 2.76 0 5.01-.98 7.84-2.51a10.31 10.31 0 0 0 4.02-4.4Z" fill="#4CC0D5"/><path d="M39.14 39.48a15.95 15.95 0 0 1-19.18 2.36c1.11.28 2.44.52 3.77.52 3.26 0 8.2-2.28 9.03-2.34.83-.06 1.84-.17 3.02-.17 1.54-.09 2.69-.24 3.36-.37Z" fill="#243F7A"/><path d="M43.42 32.3a15.97 15.97 0 0 1-3.5 6.36c-1.54.76-3.9.47-6.76.47-2.4 0-5.13 2.56-10 2.56-2.55 0-4.75-1.07-6-1.92a16.03 16.03 0 0 1-3.97-5.7 10.46 10.46 0 0 0 6.85 2.75c3.9 0 6.63-1.61 9.2-1.61 2.57 0 5.1.37 8.27.37 2.26 0 4.66-1.97 5.9-3.29Z" fill="#2577B9"/></svg>