<!-- by TradingView --><svg width="56" height="56" viewBox="0 0 56 56" xmlns="http://www.w3.org/2000/svg"><path fill="#F0F3FA" d="M0 0h56v56H0z"/><path d="M23.97 27.72 22.94 34H20l1.77-11h2.8l-.3 2.06h.12A3.94 3.94 0 0 1 27.93 23c2.36 0 3.35 1.96 3 4.09L29.8 34h-2.95l1.04-6.38c.18-1.11-.3-2.12-1.54-2.12-1.19 0-2.14.8-2.38 2.22ZM13.7 34c-3.24 0-5.17-2.31-4.6-5.5a6.53 6.53 0 0 1 6.53-5.5c2.44 0 4.67 1.31 4.34 4H17c0-1.05-.68-1.7-1.73-1.7-1.76 0-2.73 1.61-2.99 3.17-.25 1.42.07 3.2 1.85 3.2 1.12 0 2.03-.63 2.38-1.67h2.97c-.66 2.66-3.16 4-5.8 4ZM44.86 23.78c.1.77.14 1.57.14 2.4 0 2.52-.8 5.2-1.93 7.68l1.8-10.08Zm-.1-.78h-2.93l-.31 1.93C41.1 23.62 39.78 23 38.46 23c-3.1 0-5.13 2.62-5.64 5.44-.49 2.74.7 5.2 3.74 5.2 1.38 0 2.95-.54 3.72-1.74l-.35 1.95c-.23 1.4-1.42 2.15-2.76 2.15-.88 0-1.9-1.03-2.14-2h-2.38c-.4-1.57-.65-3.2-.65-4.8 0-3.45 1.61-5.47 3.26-7.52C37.3 19.12 39.4 16.5 38.49 11c1.86 1.55 5.32 5.88 6.27 12Zm-11.1 14.16A25.48 25.48 0 0 0 36.77 43a28.87 28.87 0 0 0 5.1-6.78C40.6 37.48 38.58 38 36.74 38c-.96 0-2.14-.23-3.08-.84Zm7.25-8.73c-.27 1.51-1.26 2.98-2.97 2.98-1.68 0-2.12-1.54-1.86-2.98.27-1.52 1.22-3.08 2.94-3.08 1.73 0 2.14 1.69 1.9 3.08Z" fill="#1373B2"/></svg>