<!-- by TradingView --><svg width="56" height="56" viewBox="0 0 56 56" xmlns="http://www.w3.org/2000/svg"><path fill="#F0F3FA" d="M0 0h56v56H0z"/><path d="M31.23 15c-.51.2-1.23.92-1.23 1.7v22.96L27 41h-1.23c.51-.2 1.23-.92 1.23-1.7V16.74L30 15h1.23Z" fill="url(#a)"/><path d="M38.86 12C41.7 12 44 14.3 44 17.15v6.7c0 2.84-2.3 5.15-5.14 5.15H26.3v-3h13.16c.85 0 1.54-.7 1.54-1.55v-7.9c0-.86-.7-1.55-1.54-1.55h-9.01L27 16.74c0-2.06 1.41-4.74 4.5-4.74h7.36Z" fill="#F99C1A"/><path d="M29.7 29H16.54c-.85 0-1.54.7-1.54 1.55v1.34h-3v-.74c0-2.84 2.3-5.15 5.14-5.15H29.7v3Z" fill="url(#b)"/><path d="M15 39.45c0 .86.7 1.55 1.54 1.55h10.01L30 39.66c0 2.06-2.11 4.34-5.2 4.34h-7.66A5.15 5.15 0 0 1 12 38.85v-7.37h3v7.97Z" fill="#197AB1"/><defs><linearGradient id="a" x1="28" y1="15.4" x2="28" y2="40.6" gradientUnits="userSpaceOnUse"><stop offset=".2" stop-color="#F99C1A"/><stop offset=".58" stop-color="#197AB1"/></linearGradient><linearGradient id="b" x1="12" y1="29.08" x2="29.7" y2="29.08" gradientUnits="userSpaceOnUse"><stop offset=".51" stop-color="#197AB1"/><stop offset=".61" stop-color="#F99C1A"/></linearGradient></defs></svg>