<!-- by TradingView --><svg width="56" height="56" viewBox="0 0 56 56" xmlns="http://www.w3.org/2000/svg"><path fill="#F0F3FA" d="M0 0h56v56H0z"/><path d="M18.98 25.24 12 19v18l7-6.26a10.13 10.13 0 0 1-.02-5.5Z" fill="#4A00A4"/><path d="M25.28 37.63A9.09 9.09 0 0 1 20.97 35L13 37.67 27 46l-1.72-8.37Z" fill="#FF306B"/><path d="M30.7 37.65 29 46l14-8.4-7.72-2.6a9.04 9.04 0 0 1-4.57 2.65Z" fill="#B04212"/><path d="M38 31a11.23 11.23 0 0 0 .02-6.01L44 19v18l-6-6Z" fill="#0067B4"/><path d="M30.7 18.29c1.8.41 3.4 1.37 4.62 2.71L43 18.4 29 10l1.7 8.29Z" fill="#008B3E"/><path d="M20.92 21a9.09 9.09 0 0 1 4.37-2.69L27 10l-14 8.34L20.92 21Z" fill="#FFAF36"/></svg>