<!-- by TradingView --><svg width="56" height="56" viewBox="0 0 56 56" xmlns="http://www.w3.org/2000/svg"><path fill="#F0F3FA" d="M0 0h56v56H0z"/><path d="M26.1 13.19c-.47-.03-.76-.48-.4-.86.3-.3.58-.55.94-.74.5-.26 1-.45 1.5-.56.59-.14 1.28.25.85.92-.34.54-.86.85-1.47 1.07-.42.14-.89.2-1.42.17Z" fill="#28367D"/><path d="M24.02 13.74c-.35.23-.77.46-1.22.55-.23.05-.38.04-.46 0-.16-.1-.2-.23-.08-.38a3.16 3.16 0 0 1 1.16-1.04l.54-.35c.2-.12.49-.23.89-.32.18-.05.29.03.32.22.01.08-.04.22-.17.41-.25.38-.62.67-.98.9Z" fill="#055096"/><path d="M29.86 13.46c.43-.3.81-.36 1.38-.45.17-.03.4 0 .71.07.8.19 1.23.82.98 1.65-.1.31-.31.6-.64.83-.46.34-.85.46-1.38.44-.28-.01-.8.03-1.05-.07-.5-.2-.98-.73-.84-1.27.09-.32.15-.59.38-.83.09-.1.24-.22.46-.37Z" fill="#2E3071"/><path d="M27.22 16.28c1.02-.59 1.52-1.6 1.13-2.24-.39-.66-1.53-.71-2.54-.13-1.02.59-1.52 1.6-1.13 2.24.39.66 1.53.71 2.54.13Z" fill="#28367D"/><path d="M21.1 14.96c.44-.4.75-.78.68-.86-.07-.08-.5.18-.94.58-.44.4-.75.78-.68.86.08.08.5-.18.94-.58Z" fill="#006CAD"/><path d="M23.13 16.78c.81-.72 1.16-1.64.78-2.05-.39-.42-1.35-.17-2.16.55-.81.72-1.16 1.64-.78 2.05.38.42 1.35.17 2.16-.55Z" fill="#055096"/><path d="M20.53 16.4a3.77 3.77 0 0 1-1.84 2.16c-.62.26-.67-.37-.43-.73.37-.56.8-1.08 1.3-1.56.25-.24.52-.38.8-.4.26-.02.21.4.17.54Z" fill="#006CAD"/><path d="M36.26 20.98c1.38.17 2.6-.8 2.73-2.17a2.58 2.58 0 0 0-2.25-2.8c-1.38-.16-2.6.81-2.73 2.18a2.58 2.58 0 0 0 2.25 2.8Z" fill="#312867"/><path d="M31.65 20.81c1.04-.46 1.6-1.65 1.24-2.65-.36-1-1.5-1.44-2.54-.97-1.04.46-1.6 1.65-1.24 2.65.36 1 1.5 1.44 2.54.97Z" fill="#2E3071"/><path d="M27.02 20.5c.96-.81 1.22-2.07.57-2.81-.64-.75-1.95-.7-2.9.1-.97.8-1.23 2.05-.59 2.8.65.75 1.95.7 2.92-.1Z" fill="#28367D"/><path d="M20.33 18.98c-.71.93-.78 2.06-.15 2.52.64.47 1.72.1 2.43-.84.72-.93.78-2.06.15-2.52-.63-.47-1.72-.1-2.43.84Z" fill="#055096"/><path d="M18.94 21.2c-.08.14-.2.29-.32.46-.28.35-.59.58-.94.72-.39.14-.67.03-.85-.35-.05-.1-.05-.29 0-.53.08-.41.24-.82.49-1.23.25-.41.53-.75.86-1.03.19-.16.35-.24.47-.25.42-.03.66.16.72.56.05.37 0 .75-.18 1.15-.09.2-.17.37-.25.5ZM15.6 23.18c-.19.21-.53.06-.4-.26.17-.42.28-.8.47-1.2.23-.47.47-.9.73-1.26a.22.22 0 0 1 .23-.1c.16.02.18.19.15.33-.1.45-.26.93-.48 1.42-.18.4-.4.75-.7 1.07Z" fill="#006CAD"/><path d="M36.12 26.97c1.37.22 2.64-.7 2.85-2.06a2.54 2.54 0 0 0-2.1-2.88 2.46 2.46 0 0 0-2.84 2.06 2.54 2.54 0 0 0 2.1 2.88Z" fill="#312867"/><path d="M31.99 25.53c1.1-.7 1.34-1.97.52-2.81-.82-.85-2.39-.96-3.5-.25-1.1.7-1.34 1.97-.52 2.81.82.85 2.39.96 3.5.25Z" fill="#2E3071"/><path d="M40.92 26.32c1.08.95 2.65.9 3.52-.1.87-1 .7-2.6-.36-3.54-1.08-.95-2.65-.9-3.52.1-.87 1-.7 2.6.36 3.54Z" fill="#312867"/><path d="M23.68 22.86c-.75 1.07-.57 2.46.39 3.1.95.64 2.33.29 3.07-.79.75-1.07.57-2.46-.39-3.1-.95-.63-2.33-.28-3.07.79Z" fill="#28367D"/><path d="M19.29 23.73c-.5 1.1-.2 2.3.66 2.68.85.36 1.95-.24 2.44-1.35.5-1.12.2-2.32-.65-2.68-.86-.37-1.96.23-2.45 1.35Z" fill="#055096"/><path d="M16.18 24.58c-.34 1.06-.11 2.08.51 2.27.63.19 1.4-.51 1.75-1.57.33-1.06.1-2.08-.52-2.27-.63-.2-1.4.51-1.74 1.57ZM14.42 25.9a6 6 0 0 1 .4-1.36c.1-.26.21-.44.32-.56.13-.15.4-.15.52.02.04.05.06.14.07.26a4.51 4.51 0 0 1-.45 2.38c-.1.26-.28.46-.52.6a.12.12 0 0 1-.08 0c-.62-.08-.32-.96-.26-1.34Z" fill="#006CAD"/><path d="M38.34 32.33c-.41.34-.69.55-1.17.62-.44.07-.87.06-1.29-.02a2.49 2.49 0 0 1-1.77-1.73 2.43 2.43 0 0 1 .61-2.46c.36-.38.8-.62 1.32-.7A2.53 2.53 0 0 1 39 30.56c0 .24-.03.54-.1.89-.08.33-.26.63-.56.88Z" fill="#312867"/><path d="M28.1 28.86c-.38 1.33.4 2.7 1.73 3.06 1.33.35 2.7-.44 3.08-1.78.37-1.33-.41-2.7-1.74-3.06a2.53 2.53 0 0 0-3.08 1.78Z" fill="#2E3071"/><path d="M23.04 28.93c-.26 1.3.5 2.53 1.7 2.77 1.21.23 2.4-.62 2.66-1.91.27-1.3-.5-2.53-1.7-2.77-1.2-.23-2.4.62-2.66 1.91Z" fill="#28367D"/><path d="M21.58 31.24c-.3.24-.63.38-1.01.42-.86.08-1.5-.57-1.72-1.36-.25-.86-.1-1.66.43-2.4.26-.35.65-.64 1.09-.62l.4-.01c.23-.02.47.04.72.18.18.1.34.27.48.5.56.98.54 1.96-.08 2.95-.06.1-.16.21-.31.34Z" fill="#055096"/><path d="M15.62 29.46c-.08 1.14.43 2.1 1.15 2.15.72.06 1.37-.83 1.45-1.96.09-1.14-.42-2.1-1.14-2.16-.72-.05-1.37.83-1.46 1.97ZM14.17 31.23c-.11-.18-.16-.36-.17-.54 0-1.04 0-1.65.04-1.83.06-.31.22-.88.59-.95.32-.06.53.43.6.65.03.1.04.2.04.35 0 .82.03 1.23-.14 1.82-.1.34-.58 1.14-.96.5ZM14.68 32.65c.51.49.79 1.41.82 2.13.03.4 0 1.27-.48 1.38a.1.1 0 0 1-.08-.01.7.7 0 0 1-.26-.22c-.34-.54-.46-1.1-.61-1.84-.1-.45-.04-.86.17-1.24a.7.7 0 0 1 .16-.2.22.22 0 0 1 .28 0ZM18.4 35.36c-.03.81-.84 2.12-1.8 1.13a3.12 3.12 0 0 1-.63-1.01c-.08-.2-.13-.44-.13-.71-.02-.64-.09-1.14.25-1.6.5-.71 1.36-.33 1.76.27.4.59.58 1.23.55 1.92Z" fill="#006CAD"/><path d="M18.95 35.59c.34 1.19 1.37 1.94 2.31 1.69.95-.26 1.44-1.43 1.1-2.62-.33-1.2-1.37-1.95-2.31-1.7-.94.27-1.43 1.44-1.1 2.63Z" fill="#055096"/><path d="M23.3 36.22c.53 1.2 1.85 1.81 2.95 1.35 1.1-.46 1.58-1.82 1.05-3.02-.52-1.2-1.84-1.81-2.94-1.35-1.1.46-1.58 1.82-1.05 3.02Z" fill="#28367D"/><path d="M28.53 36.96a2.53 2.53 0 0 0 3.5.57c1.1-.8 1.3-2.36.44-3.49a2.53 2.53 0 0 0-3.5-.57 2.47 2.47 0 0 0-.44 3.49Z" fill="#2E3071"/><path d="M15.06 38.48c.34.89.81 1.54 1.06 1.44.25-.09.18-.88-.16-1.78-.33-.89-.81-1.54-1.06-1.45-.25.1-.18.9.16 1.79ZM16.73 39.67c.47.99 1.29 1.59 1.82 1.34.54-.25.59-1.25.11-2.23-.47-.99-1.28-1.59-1.82-1.34-.53.25-.58 1.25-.11 2.23Z" fill="#006CAD"/><path d="M20.11 41.17c-.43-.52-.69-1.11-.76-1.77-.05-.45.18-.9.54-1.2.44-.35.98-.36 1.62-.03.31.16.55.35.73.58.44.57.7 1.33.65 2.05-.03.32-.14.58-.32.78-.17.17-.38.3-.63.36-.17.05-.4.03-.68-.05a2.33 2.33 0 0 1-1.15-.72Z" fill="#055096"/><path d="M24.2 41.83c.9.92 2.25 1.07 3.03.33.79-.73.7-2.07-.2-2.99-.89-.91-2.25-1.06-3.03-.33-.78.73-.69 2.07.2 2.99Z" fill="#28367D"/><path d="M16.04 40.49a.19.19 0 0 0-.08.26l1.15 1.92c.06.1.18.12.27.07.1-.05.13-.17.07-.26l-1.15-1.93a.2.2 0 0 0-.26-.06ZM18.24 43.57c-.35-.42-.61-.9-.77-1.41-.1-.28.02-.66.37-.67.53-.02 1.16.55 1.38.86.24.34.43.66.58.98.05.1.1.29.17.57.05.2.04.35-.03.47-.08.13-.2.2-.35.2-.52 0-1.04-.62-1.35-1Z" fill="#006CAD"/><path d="M21.09 44.97c.78.8 1.81 1.09 2.3.63.49-.45.24-1.48-.54-2.29-.79-.8-1.82-1.09-2.3-.63-.5.45-.25 1.48.54 2.29Z" fill="#055096"/><path d="M19.82 45.15a6.94 6.94 0 0 1 1.52 1.7.12.12 0 0 1-.04.1.12.12 0 0 1-.05.03c-.35.08-.54-.09-.77-.32l-1.03-1.03c-.23-.24-.36-.4-.38-.5a.69.69 0 0 1-.02-.13.19.19 0 0 1 .1-.17.2.2 0 0 1 .2 0c.12.06.28.17.47.32Z" fill="#006CAD"/></svg>