<!-- by TradingView --><svg width="56" height="56" viewBox="0 0 56 56" xmlns="http://www.w3.org/2000/svg"><path fill="#F0F3FA" d="M0 0h56v56H0z"/><path d="M48.64 33c-2.1 0-3.64-1.36-3.64-3.5a3.4 3.4 0 0 1 3.55-3.5C50.6 26 52 27.4 52 29.44V30h-6.19v-1.2h4.28c0-.84-.7-1.4-1.5-1.4-.83 0-1.57.6-1.58 1.46V30c0 .98.69 1.6 1.66 1.6.58 0 1.22-.2 1.45-.77H52c-.34 1.5-1.98 2.17-3.36 2.17ZM43.85 28.02l-1.7.1c-.1-.52-.62-.79-1.11-.79-.4 0-1.02.17-1.02.67 0 .45.49.6.84.68l1.21.25c.97.2 1.93.7 1.93 1.84 0 1.57-1.65 2.23-2.97 2.23-1.36 0-2.82-.57-3.03-2.1l1.82-.1c.12.6.66.84 1.21.84.42 0 1.08-.14 1.09-.68 0-.45-.5-.6-.86-.68-1.28-.26-3.08-.46-3.08-2.17 0-1.54 1.54-2.11 2.83-2.11 1.3 0 2.65.57 2.84 2.02ZM33.5 33a3.36 3.36 0 0 1-3.5-3.5c0-1.97 1.38-3.5 3.5-3.5s3.5 1.53 3.5 3.5c0 1.98-1.38 3.5-3.5 3.5Zm0-1.46c1.14 0 1.5-1.16 1.5-2.05 0-.89-.37-2.06-1.5-2.06S32 28.6 32 29.5c0 .9.37 2.05 1.5 2.05ZM23 25a.97.97 0 0 1-.7-.3.98.98 0 0 1-.3-.7c0-.27.1-.5.3-.7.19-.2.42-.3.7-.3.28 0 .51.1.7.3.2.2.3.43.3.7 0 .27-.1.51-.3.7-.19.2-.42.3-.7.3ZM22 26v7h2v-7h-2ZM26 26v-3h2v3h1v2h-1v5h-2v-5h-1v-2h1ZM16 29.26V33h-2V23h2v4.42c.34-.89 1.24-1.42 2.39-1.42 1.8 0 2.62 1.45 2.61 2.82V33h-2v-3.8c0-.93-.59-1.47-1.45-1.47-.99 0-1.54.77-1.55 1.53ZM13 26.54h-2.14C10.7 25.46 9.76 25 8.71 25 6.93 25 6 26.41 6 28s.9 3 2.7 3c1.03 0 1.96-.4 2.16-1.46H13C12.73 31.72 10.72 33 8.66 33 5.79 33 4 30.76 4 28c0-2.75 1.8-5 4.66-5 2.16 0 4.07 1.3 4.34 3.54Z" fill="#F61A29"/></svg>