<!-- by TradingView --><svg width="56" height="56" viewBox="0 0 56 56" fill="none" xmlns="http://www.w3.org/2000/svg">
<rect width="56" height="56" fill="#F0F3FA"/>
<path fill-rule="evenodd" clip-rule="evenodd" d="M42 14H14V35.9932C19.8045 35.8146 21.9664 31.3159 23.6956 27.3166C24.7881 24.7898 27.3699 20.4218 27.3699 20.4218C27.3699 20.4218 24.8609 19.9999 23.1158 19.9999L23.0684 19.9999C21.9749 19.9997 21 19.9996 21 20.6562C21 20.7834 21.137 20.7757 21.3097 20.7659C21.6033 20.7493 22 20.7268 22 21.3534C22 21.9311 21.5694 21.9997 21.0922 21.9997C20.615 21.9997 20 21.5023 20 20.7909C20 19.0823 22.1176 18.9999 23.443 18.9999L29.9329 19C29.7084 19.3263 29.4843 19.647 29.2622 19.9647C27.7304 22.1562 26.297 24.2071 25.5206 26.9994H34.6738C34.6738 26.9994 35.1696 25.4698 36.2385 23.6018C37.681 21.081 39.4957 19.2243 42 19.0189V14ZM42 20.0186C39.4747 20.3631 37.43 25.3926 35.9783 28.9636C35.6841 29.6874 35.4142 30.3512 35.1696 30.904C34.4118 32.7661 32.2589 35.4742 32.2589 35.4742C32.2589 35.4742 32.7292 35.4544 34.0664 35.5778C34.5958 35.6266 35.18 35.7377 35.7183 35.8399C36.3016 35.9508 36.831 36.0514 37.1777 36.0514C37.5922 36.0514 38.0518 35.9034 38.0518 35.4001C38.0518 35.2825 37.9604 35.1758 37.8602 35.0591C37.7058 34.879 37.5309 34.675 37.6391 34.3697C37.7344 34.1012 37.891 33.9989 38.2148 33.9989C38.7799 33.9989 39 34.639 39 35.0153C39 36.546 37.6803 36.9788 36.6273 36.9987C35.8563 37.0133 35.1551 36.9013 34.4509 36.7888C33.8041 36.6855 33.1548 36.5818 32.4466 36.5754C31.4039 36.566 29.5625 36.9987 29.5625 36.9987C29.5625 36.9987 31.5599 34.2385 32.3993 32.8145C33.2557 31.3617 34.4338 27.9993 34.4338 27.9993H25.2284C24.0282 32.2237 20.0745 36.9987 15.2766 36.9987L14 36.9987V42H42V20.0186Z" fill="#E5B000"/>
<path d="M12.0041 29.7075C12.0041 29.1719 11.6118 29 10.9949 29C9.13307 29 9 30.8141 9 31.5C9 34.2188 11.0938 36 14 36V37C11.0938 37 8 35.2867 8 31.7363C8 29.4308 9.40356 28 11.0938 28C12.2908 28 13 28.7188 13 29.7075C13 30.2656 12.6406 31 11.8438 31C11.4288 31 11 30.8361 11 30.3594C11 29.9468 11.2272 29.8438 11.5078 29.8438C11.7884 29.8438 12.0041 30.0748 12.0041 29.7075Z" fill="#E5B000"/>
<path fill-rule="evenodd" clip-rule="evenodd" d="M42.764 19C42.5852 19 42.1767 18.9999 42 19V19.9996C42.3319 19.9996 42.0088 19.9996 42.4219 19.9996C45.125 19.9996 45.2969 21 46.2188 21C46.6719 21 46.9835 20.7565 47 20.4498C47 19.9996 46.7494 19.6747 46.4453 19.5313C45.8169 19.2349 44.4538 19 42.764 19Z" fill="#E5B000"/>
</svg>
