<!-- by TradingView --><svg width="56" height="56" viewBox="0 0 56 56" xmlns="http://www.w3.org/2000/svg"><path fill="#F0F3FA" d="M0 0h56v56H0z"/><path d="M16.81 26v.3H16v2.48c0 .29.05.77.44.77.19 0 .3-.1.46-.3l.1.1-.08.12c-.26.39-.65.53-.92.53-.61 0-1-.63-1-1.1v-2.6h-.38V26H15v-1h1v1h.81Z" fill="#AAA16C"/><path d="M40.81 26v.3H40v2.48c0 .29.05.77.44.77.19 0 .3-.1.46-.3l.1.1-.08.12c-.26.39-.65.53-.92.53-.61 0-1-.63-1-1.1v-2.6h-.38V26H39v-1h1v1h.81Z" fill="#665D36"/><path d="M13 27.64c-.36.1-.47.22-.72.35-.46.24-.69.52-.69.83 0 .4.32.68.7.68.32 0 .72-.15.72-.55v-1.31Zm-2.27 1.47c0-.4.24-.74.7-1 .3-.17.7-.4 1.58-.68v-.35c0-.55 0-.87-.59-.87-.24 0-.69.1-.69.41 0 .11.05.22.05.32 0 .16-.06.27-.18.33a.5.5 0 0 1-.24.05c-.29 0-.36-.2-.36-.4 0-.72 1.04-.92 1.55-.92.91 0 1.45.46 1.45 1.36v1.66c0 .22.02.5.3.5.17 0 .3-.08.43-.17v.21c-.26.28-.57.43-.88.43-.38 0-.82-.25-.84-.62-.43.32-.7.63-1.26.63-.5 0-1.02-.34-1.02-.89ZM28 27.64c-.37.1-.48.22-.72.35-.47.24-.7.52-.7.83 0 .4.32.68.71.68.31 0 .71-.15.71-.55v-1.31Zm-2.27 1.47c0-.4.23-.74.7-1 .29-.17.69-.4 1.57-.68v-.35c0-.55.01-.87-.58-.87-.25 0-.7.1-.7.41 0 .11.06.22.06.32 0 .16-.06.27-.18.33a.5.5 0 0 1-.24.05c-.3 0-.37-.2-.37-.4 0-.72 1.04-.92 1.56-.92.9 0 1.44.46 1.44 1.36v1.66c0 .22.02.5.3.5.17 0 .3-.08.44-.17v.21c-.26.28-.58.43-.89.43-.37 0-.82-.25-.84-.62-.43.32-.7.63-1.25.63-.51 0-1.02-.34-1.02-.89Z" fill="#AAA16C"/><path d="M4 29.81c.41-.04.68-.14.8-.29.11-.15.2-.62.2-1.17v-4.58l-.14-.17a1.1 1.1 0 0 0-.4-.33c-.1-.04-.25-.07-.46-.08V23h1.72l3.85 5.35v-3.82c0-.8-.09-1.26-.92-1.34V23h2.3v.2c-.83.08-.95.55-.95 1.33v4.44c.13.3.48.65 1 .72V30H9.51l-4.07-5.7v4.05c0 .57.05 1.06.21 1.23.1.12.34.2.7.23V30H4v-.19ZM19 26.39v2.32c0 .55.22.78.64.78.27 0 .57-.14.86-.48v-2.32c0-.43-.25-.53-.65-.55V26H22v.12c-.2.02-.42.04-.49.26v2.6c0 .2.03.32.1.4.07.07.21.1.43.1v.1c-.4.12-1.14.27-1.53.42v-.76c-.32.39-.7.76-1.2.76-.65 0-1.3-.53-1.3-1.13v-2.2c0-.39-.16-.52-.53-.55V26h2.02v.12c-.2.02-.42.05-.49.27Z" fill="#AAA16C"/><path d="M37 29.3v-2.6c0-.39-.2-.54-.58-.56V26h2.16v.14c-.39.02-.58.17-.58.57v2.58c0 .4.2.55.58.57V30h-2.16v-.14c.39-.02.58-.17.58-.57Z" fill="#665D36"/><path d="M23 29.31v-2.53c0-.2-.18-.2-.55-.14v-.14L24 26v.83c.14-.28.52-.83 1.14-.83.25 0 .49.04.57.06v1.39h-.14c-.04-.3-.24-.87-.75-.87-.48 0-.7.34-.82.62v2.42c.07.22.3.24.5.26V30h-2.05v-.14c.37-.02.55-.16.55-.55Z" fill="#AAA16C"/><circle cx="37.5" cy="24.5" r=".5" fill="#665D36"/><path d="M46.37 29.38c.1 0 .2-.01.29-.05.99-.36 1.32-1.24 1.34-2.07.01-.64-.27-1.24-.26-1.88.01-.65.3-1.34 1.26-1.38a.9.9 0 0 0-.54.65c-.1.4-.09.84.02 1.32l.24 1.08c.14.64 0 1.24-.43 1.78-.87 1.12-2.86 1.2-4.29 1.17a3.85 3.85 0 0 0 2.7-4c.26.55.3 1.04.3 1.5a3 3 0 0 1-.63 1.88Z" fill="#627A42"/><path d="M45.68 31.38c0 1.28 1.4 1.58 2.41 1.62.34.01.75-.06 1.04-.09.54-.05 1.04 0 1.5.06.17.01.34.04.5.1-.04-.56-.46-1.09-.96-1.42-.65-.44-1.39-.8-2.15-.9-.3-.04-.7-.03-.99-.07-.5-.09-1-.26-1.45-.47 1.57-.4 3-.22 4.32.59.96.6 1.63 1.37 2 2.34.1.28.12.57.08.86-.84-.58-1.73-.47-2.72-.35-.32.04-.73.05-1.22.04-1.62-.05-3.07-.67-3.04-2.5 0-.28.07-.54.19-.78.03-.06.07-.06.12-.02.71.63 1.63 1 2.65 1.08.3.02.77-.03 1.1.02.53.08.92.34 1.22.74a2.38 2.38 0 0 0-1.5-.28l-.48.05a4.57 4.57 0 0 1-2.62-.62Z" fill="#A3AF43"/><path d="M43.3 32.35c-.28.26-.49.55-.6.9-.22.75.18 1.3.66 1.82.22.24.51.53.87.87.22.2.4.4.45.67 0 .06.04.07.08.03.5-.56.77-1.34.38-2.05-.08-.15-.23-.33-.32-.5a3.16 3.16 0 0 1 0-3.09c.05.5.02 1.1.1 1.56.06.45.22.88.48 1.28.14.22.34.44.44.68.29.63.15 1.23-.13 1.85-.3.71-.83 1.27-1.5 1.63a2.3 2.3 0 0 0-.55-1.75c-.22-.25-.6-.5-.8-.71-.93-.96-1.28-2.54-.15-3.53.29-.25.65-.46 1.07-.61h.06c.04 0 .05.03.04.07l-.07.82c-.04.77.13 1.6.58 2.21l.27.41c.11.22.12.47.06.74-.26-.48-.55-.77-.99-1.25a2.1 2.1 0 0 1-.35-.48 2.72 2.72 0 0 1-.09-1.57Z" fill="#A3AF43"/><path d="M33.7 23.46c-1.67-.32-2.71 1.37-2.7 2.84.01 1.5 1.18 3.15 2.83 2.86.88-.16 1.5-.92 1.96-1.6 0-.01 0-.02.01-.01l.2.1v.02c-.69 1.48-1.84 2.58-3.66 2.28a2.53 2.53 0 0 1-1.77-1.14 3.96 3.96 0 0 1-.56-2.43C30.1 24.6 31.5 23 33.34 23c.95 0 2.43.35 2.4 1.4-.02.36-.4.6-.74.6-.26 0-.5-.12-.57-.42-.1-.49-.17-1.01-.74-1.12ZM49 23.6c-.17-.2-.65-.6-1.19-.6-.66 0-2.12.63-4.05 5.05l-1.32-2.64c.08-.24.33-.26.56-.28V25h-2v.15c.42.02.4.16.62.6l1.74 3.14.02-.01C42.05 31.4 39.72 33.59 39 34a9.09 9.09 0 0 0 4.63-4.46l.32-.68c1.45-3.1 2.83-6.05 5.05-5.27Z" fill="#665D36"/></svg>