<!-- by TradingView --><svg width="56" height="56" viewBox="0 0 56 56" xmlns="http://www.w3.org/2000/svg"><path fill="#F0F3FA" d="M0 0h56v56H0z"/><path d="m39.95 19.17.01-.01a.01.01 0 0 0 0-.02 20.6 20.6 0 0 0-7.3-4.13V15h9.31a.77.77 0 0 0 .03.11v13.57a.14.14 0 0 1-.06.12c-3.24 2.12-7.3 3.3-10.7.76a8.95 8.95 0 0 1-1.66-1.61 6.04 6.04 0 0 1-.42-5.58c.36-.85.83-1.6 1.4-2.26.3-.33.67-.62 1.13-.88.98-.56 2.1-.82 3.22-.86 1.7-.07 3.4.26 5.04.8Z" fill="#267FFF"/><path d="M33.47 41H14.01l-.01-.03V15.01h.03a11269.4 11269.4 0 0 1 10.71.01v.01l-.3.1c-1.47.6-2.78 1.44-3.94 2.52a14.57 14.57 0 0 0-1.8 2.58 12.86 12.86 0 0 0-1.54 6.21 12.89 12.89 0 0 0 1.2 5.02c.55 1.21 1.23 2.31 2 3.31.6.75 1.29 1.43 2.1 2.04.73.56 1.43 1.02 2.12 1.4a25.26 25.26 0 0 0 8.9 2.78V41Z" fill="#22CE00"/></svg>