<!-- by TradingView --><svg width="56" height="56" viewBox="0 0 56 56" fill="none" xmlns="http://www.w3.org/2000/svg">
<rect width="56" height="56" fill="#F0F3FA"/>
<path fill-rule="evenodd" clip-rule="evenodd" d="M33 23.6484C33 23.3359 33.2812 23 33.6719 23C34.0625 23 34.3 23.3516 34.3 23.6484V26.7188C34.6656 26.3281 35.222 26 36.0971 26C37.8862 26 39 27.5222 39 29.4625C39 31.336 38.0781 33 36.0971 33C35.2285 33 34.6969 32.6719 34.3 32.2344C34.3 32.7812 33.9565 33 33.6562 33C33.356 33 33 32.75 33 32.0938V23.6484ZM34.3 30.5781C34.6094 31.2344 35.1154 31.7 36 31.7C37.2154 31.7 37.7 30.7031 37.7 29.4625C37.7 28.1406 36.9924 27.2812 36 27.2812C35.1717 27.2812 34.6406 27.6719 34.3 28.25V30.5781Z" fill="#2A3579"/>
<path fill-rule="evenodd" clip-rule="evenodd" d="M26.0902 26.2067C26.2028 26.0703 26.4417 25.9994 26.5938 26C26.9132 26.0014 27.2268 26.2488 27.2268 26.7039C27.2238 26.8485 27.1497 26.996 27.0469 27.125C26.5913 27.6968 26.2969 28.2656 26.2969 29.2471C26.2969 30.2285 26.8438 31.7 28.5 31.7C29.9414 31.7 30.7 30.6093 30.7 29.2471C30.7 28.6262 30.3091 27.8186 29.8594 27.125C29.7704 26.9877 29.7121 26.8428 29.7121 26.7039C29.7121 26.2067 30.0874 26.0039 30.375 26C30.5386 25.9978 30.8249 26.0977 30.936 26.2488C31.5703 27.1107 32 28.1963 32 29.2471C32 31.135 30.7589 32.9995 28.5 32.9995C26.2471 32.9995 25 31.2031 25 29.2471C25 27.9843 25.4427 26.9908 26.0902 26.2067Z" fill="#2A3579"/>
<path fill-rule="evenodd" clip-rule="evenodd" d="M19.3 26.8906C19.3 26.2344 19.0866 26 18.6562 26L-nan -nanL18.6562 26C18.3268 26 18 26.2656 18 26.7188V32.3438C18 32.6875 18.28 33 18.6094 33L-nan -nanL18.6094 33C18.9388 33 19.3 32.7344 19.3 32.3438V28.3125C19.9134 27.735 20.653 27.3 21.4595 27.3C21.9985 27.3 22.6995 27.5156 22.6995 28.3852C22.7 28.3906 22.7 28.6875 22.7002 28.6899L22.7 32.3438C22.7 32.7031 22.9987 33 23.3281 33L-nan -nanL23.3281 33C23.6575 33 23.9973 32.7344 23.9973 32.3438C23.9983 30.8534 24.0028 29.4429 23.9973 27.9525C23.9973 26.6635 23.0156 26 21.7812 26C20.9375 26 19.7031 26.4688 19.3 26.8906Z" fill="#2A3579"/>
<path fill-rule="evenodd" clip-rule="evenodd" d="M12.9287 27.5237C12.4222 27.6813 12.0909 27.3628 12.0234 27.0547L-nan -nanL12.0234 27.0547C12.0117 27.0011 11.9975 26.926 12 26.8765C12 26.5161 12.4002 26.2704 12.6813 26.194C13.033 26.0985 13.5234 26 14.2399 26C15.7613 26 17 26.8029 17 28.0959V32.3438C17 32.7656 16.6657 33 16.3806 33C16.0956 33 15.7 32.8438 15.7 32.2656C15.2313 32.6719 14.4956 33 13.6239 33C12.179 33 10.9742 32.1842 11.0004 30.7716C11.0342 28.9503 13.387 28.6543 14.8417 28.6543C15.1639 28.6543 15.391 28.581 15.7 28.5V28.0959C15.7 27.5237 14.8563 27.3 14.3384 27.3C13.6268 27.3 13.238 27.4275 12.9287 27.5237ZM15.7 29.6094C15.4122 29.6719 15.1632 29.7279 14.8417 29.7279C14.1642 29.7279 12.3 29.7763 12.3 30.7716C12.3 31.4688 12.9287 31.7969 13.6239 31.7969C14.3929 31.7969 15.1426 31.4273 15.7 30.9219V29.6094Z" fill="#2A3579"/>
<path fill-rule="evenodd" clip-rule="evenodd" d="M11.6562 24.3C11.9375 24.3 12.3 24.0209 12.3 23.625C12.3 23.2291 11.9062 23 11.6562 23H5.53125C5.28125 23 5 23.2291 5 23.625C5 24.0209 5.3125 24.3 5.53125 24.3H8V32.375C8 32.6719 8.29667 33 8.68594 33C9.0752 33 9.3 32.75 9.3 32.375V24.3H11.6562Z" fill="#343E7E"/>
<path d="M47.7 23.7188C47.7 23.3411 47.991 23 48.35 23C48.709 23 49 23.3411 49 23.7188V32.2188C49 32.6875 48.709 33 48.35 33C47.991 33 47.7 32.7188 47.7 32.2188V23.7188Z" fill="#343E7E"/>
<path fill-rule="evenodd" clip-rule="evenodd" d="M46.3798 28.3986C46.2278 27.685 45.8653 27.0772 45.3145 26.6486C44.7631 26.2194 44.0602 25.9988 43.2824 26C41.1093 26.0034 40 27.8553 40 29.4588C40 31.3391 41.2344 33 43.5023 33C44.4688 33 44.9531 32.7969 45.4062 32.5469C45.8594 32.2969 45.8864 31.7013 45.6236 31.4219C45.4051 31.1895 45.0411 31.3859 44.7344 31.5C44.428 31.614 44 31.7 43.5023 31.7C42.3465 31.7 41.4781 31.0469 41.4 30H45.6236C46.1372 30 46.5491 29.6207 46.4953 29.1404C46.4674 28.8914 46.432 28.6435 46.3798 28.3986ZM43.2824 27.3C42.2391 27.3016 41.4937 28.0156 41.4 29H45.125C45.125 27.9844 44.3906 27.3 43.2824 27.3Z" fill="#343E7E"/>
<path d="M28.5515 25L28.8764 25.6584L29.6029 25.7639L29.0772 26.2764L29.2013 27L28.5515 26.6584L27.9016 27L28.0257 26.2764L27.5 25.7639L28.2265 25.6584L28.5515 25Z" fill="#F0A020"/>
<path d="M25.6686 22.6847L26.431 23.0688L27.1796 22.6584L27.0499 23.5022L27.6714 24.0873L26.8289 24.2248L26.4645 24.9967L26.0734 24.2379L25.2267 24.1298L25.8275 23.5234L25.6686 22.6847Z" fill="#F0A020"/>
<path d="M24.3 20L24.7017 20.8229L25.6 20.9549L24.95 21.5955L25.1034 22.5L24.3 22.0729L23.4966 22.5L23.65 21.5955L23 20.9549L23.8983 20.8229L24.3 20Z" fill="#EE5A2B"/>
<path d="M29.7841 21.6523L30.786 22.18L31.7888 21.6539L31.5965 22.7699L32.4068 23.561L31.286 23.7229L30.784 24.738L30.2836 23.7221L29.163 23.5584L29.9746 22.7686L29.7841 21.6523Z" fill="#F0A020"/>
<path d="M34.5 16L35.2725 17.6459L37 17.9098L35.75 19.191L36.0451 21L34.5 20.1459L32.9549 21L33.25 19.191L32 17.9098L33.7275 17.6459L34.5 16Z" fill="#EE5A2B"/>
</svg>
