<!-- by TradingView --><svg width="56" height="56" viewBox="0 0 56 56" xmlns="http://www.w3.org/2000/svg"><path fill="#F0F3FA" d="M0 0h56v56H0z"/><path fill="#0D110F" d="M20 23h20v21H20z"/><path d="M20 15h8.93L37 27.03A64.28 64.28 0 0 0 20 36V15Z" fill="#009FDA"/><path d="M20 12h19.97v18.47A138.28 138.28 0 0 0 20 15.7V12Z" fill="#FBE34D"/><path d="M29.25 44H40V14.62L31.7 14l5.6 6.72-8.3 5.06 6.7 5.1-6.04 5.03 5.39 4.16-5.8 3.93Z" fill="#EE3C6A"/><path d="M20 15.23V16h-4v-.77h1.77L16 13.9V13l1.97 1.59L20 13v.91l-1.76 1.32H20ZM20 20l-4-1.7v-.6l4-1.7v.83l-1.03.4v1.54l1.03.4V20Zm-3-2 1.28.5v-1L17 18ZM20 23h-4v-1.24c0-.56.1-1 .31-1.3a1 1 0 0 1 .88-.46c.43 0 .75.15.96.44.22.3.33.74.33 1.32v.37H20V23Zm-2.21-.87v-.37c0-.3-.05-.52-.14-.67a.45.45 0 0 0-.4-.22.45.45 0 0 0-.42.22c-.1.15-.14.37-.14.67v.37h1.1ZM20 27h-4v-1.3a2 2 0 0 1 .32-1.22c.22-.3.52-.44.91-.44.44 0 .78.15 1 .45.14.18.24.42.3.7L20 24v.97l-1.6 1.21H20V27Zm-2.08-.82v-.42c0-.3-.05-.52-.15-.67-.1-.15-.26-.22-.46-.22s-.36.07-.47.22c-.1.15-.15.37-.15.67v.42h1.23ZM20 30c0 .55-.2 1.03-.58 1.42-.4.39-.87.58-1.42.58-.55 0-1.03-.2-1.42-.58-.39-.4-.58-.87-.58-1.42 0-.56.2-1.03.58-1.42.4-.39.87-.58 1.42-.58.55 0 1.03.2 1.42.58.39.4.58.86.58 1.42Zm-.66 0c0-.36-.13-.66-.4-.91a1.31 1.31 0 0 0-.94-.38A1.31 1.31 0 0 0 16.66 30c0 .36.13.67.4.92.25.25.57.37.94.37s.69-.12.95-.37.39-.56.39-.92ZM20 34h-4v-.75h3.31V32H20v2ZM20 37c0 .55-.2 1.03-.58 1.42-.4.39-.87.58-1.42.58-.55 0-1.03-.2-1.42-.58-.39-.4-.58-.87-.58-1.42 0-.56.2-1.03.58-1.42.4-.39.87-.58 1.42-.58.55 0 1.03.2 1.42.58.39.4.58.86.58 1.42Zm-.66 0c0-.36-.13-.66-.4-.91a1.31 1.31 0 0 0-.94-.38A1.31 1.31 0 0 0 16.66 37c0 .36.13.67.4.92.25.25.57.37.94.37s.69-.12.95-.37.39-.56.39-.92ZM18.85 39.02c.35.15.63.4.84.74.2.35.31.73.31 1.15 0 .58-.2 1.07-.58 1.48-.4.4-.87.61-1.42.61a1.9 1.9 0 0 1-1.42-.6c-.39-.42-.58-.91-.58-1.49 0-.42.1-.8.32-1.15.21-.35.5-.6.85-.76v.85c-.15.13-.28.29-.37.49-.1.2-.14.4-.14.6 0 .35.13.66.4.92.25.26.56.39.91.39.38 0 .7-.13.97-.4a1.32 1.32 0 0 0 .27-1.52c-.1-.19-.21-.34-.36-.46v-.85Z"/></svg>