<!-- by TradingView --><svg width="56" height="56" viewBox="0 0 56 56" fill="none" xmlns="http://www.w3.org/2000/svg">
<rect width="56" height="56" fill="#F0F3FA"/>
<path d="M40.5 25V24H43V27H27.75L9.03125 32.8438V31.32L27.75 24H30V25H40.5Z" fill="#FE0002"/>
<path fill-rule="evenodd" clip-rule="evenodd" d="M28 24.5V26.5H42.5V24.5H41V25.5H29.5V24.5H28ZM27.75 24H30V25H40.5V24H43V27H27.75L9 32.8438V31.32L27.75 24ZM27.5 24.6346L9.53125 31.6614V32.1639L27.5 26.5542V24.6346Z" fill="black"/>
<path fill-rule="evenodd" clip-rule="evenodd" d="M41.7812 14H38.4688L37.9688 16.4688L36.4688 14.6562L33.9062 18.5137L32.1562 16.4688H30.9501L29.6131 18H28.2036C26 18 26 18.8932 26 21.1016C26 22.5508 26 24 28.4777 24H44.0212L45 23L44.9999 23H27.8113C27.4197 23 27 22.4833 27 21.9349V19.5313C27 18.7865 27.5892 18.5 28.0217 18.5H30V19.0222H28.9076C28.5722 19.0222 28.0217 19.4414 28.0217 20V21.375C28.0217 22.2259 29.0084 22.5312 29.3438 22.5312C34.3684 22.5312 42.385 22.5066 44.1156 22.501L45 22H31.741C31.4082 22 31 21.5635 31 21.1944V17H31.741L34.0156 19.4884L36.5 15.4871L39 18.4484V14.5H41.4377C42.3969 14.5 43 15 43 15.8925C43 16.4603 42.7656 17.5 41.8438 17.5H40.5V17H41.1832C41.6726 17 42 16.3353 42 16.0625C42 15.6022 41.6922 15 41.1832 15H40V19.5H39.148L37 17.144V21H36V17.4966L34.0156 20.7046L32 18.4484V20.4784C32 21.1775 32.7345 21.5 33.5088 21.5L43 21.5L44.5302 20H41V18.8932L42.625 17.9271C42.625 17.9271 43.5 17.516 43.5 16.0861C43.5 14.6562 42.7253 14 41.7812 14Z" fill="black"/>
<path fill-rule="evenodd" clip-rule="evenodd" d="M42.25 28.25H27.875L29.6875 30.75H40.5312L42.25 28.25ZM23.9688 29.4062L28.125 29.25L30.125 31.625L25.875 31.8125L23.9688 29.4062ZM24.4375 30.4437H20.6406L21.875 32.3438H26.2969L24.4375 30.4437ZM17.1562 31.35H20.5546L22.2188 33.25H18.261L17.1562 31.35ZM17.2812 32.2H14.5L15.6875 33.8125H18.5312L17.2812 32.2ZM13.0625 32.9374L14.7188 32.7L15.5312 34.0625H13.9062L13.0625 32.9374ZM11.25 33.5748H9.85938L10.5312 34.7H11.875L11.25 33.5748ZM11.4558 33.2748H13L13.9246 34.3999H11.9062L11.4558 33.2748Z" fill="#FE0002"/>
<path fill-rule="evenodd" clip-rule="evenodd" d="M40.5178 30.5L40.7999 30.233L42.0313 28.5H28.2397L30.0384 30.4872L30.0523 30.5H40.5178ZM39.9895 31H30.5987L32 32.2822V38.5H38.5V32.4098L39.9895 31ZM25.5577 29L27.0874 28.5709L27.4544 29H25.5577ZM24.299 29.5L25.6039 31.0638L26.1435 31.5H29.6652L29.3366 31.2003L27.8822 29.5H24.299ZM26.762 32H30.2132L31 32.7178V38.5H28V33.0008L26.762 32ZM23.7925 28.9758L9 33.125L11 35.9375V39H39V32.625L41.1791 30.5625L43 28H27.2715L23.8485 28.9601L23.8353 28.9443L23.7925 28.9758ZM23.1292 29.6812L23.3998 30.0009L21.9851 30.0021L23.1292 29.6812ZM23.8448 30.5268L24.9062 31.7812L25.1814 32H21.9717L20.9283 30.5065L23.8448 30.5268ZM22.4698 32.5L24 33.8024V38.5H27V33.4455L25.8105 32.5H22.4698ZM20 38.5H23V34.2603L22.1049 33.5H19.0442L20 34.3691V38.5ZM18.4943 33H21.5162L21.3547 32.8628L20.4025 31.5H17.4184L18.471 32.9787L18.4943 33ZM19.7868 30.6187L18.4274 31H20.0532L19.7868 30.6187ZM19 38.5V34.8183L18.1009 33.9971H16.2923L17 34.7599V38.5H19ZM16.014 33.6971H17.7724L17.7165 33.6461L16.7875 32.3H15.0002L15.4688 33.1094L16.014 33.6971ZM16.3018 31.5962L16.5805 32H14.8622L16.3018 31.5962ZM14.4385 32.7L14.1435 32.2016L13.0382 32.5116L13.1511 32.7H14.4385ZM14.6161 33L14.875 33.4375L15.366 33.9972H13.9882L13.8275 33.828L13.331 33H14.6161ZM16.3 35.062L15.6292 34.2972H14.2732L15 35.0625V38.5H16.3V35.062ZM14.4 38.5H13.0625V35.5461L12.3726 34.7H13.9428L14.4 35.2432V38.5ZM13.6902 34.3999H12.128L12.0312 34.2812L11.5871 33.3H12.9412L13.4062 34.0625L13.6902 34.3999ZM12.5447 32.65L12.7581 33H11.4513L11.4339 32.9616L12.5447 32.65ZM11.6719 34.4531L11.3223 33.6971H10.0204L10.7335 34.7H11.858L11.6719 34.4531ZM12.0843 35L12.6625 35.7666V38.5H11.5V35.7778L10.9469 35H12.0843ZM11.0341 33.0737L11.1836 33.3971H9.88132L11.0341 33.0737Z" fill="black"/>
</svg>
