<!-- by TradingView --><svg width="56" height="56" viewBox="0 0 56 56" xmlns="http://www.w3.org/2000/svg"><path fill="#F20000" d="M0 0h56v56H0z"/><path fill-rule="evenodd" d="M19.6 31.02c-.41.53-.8.96-1.16 1.3-.63.62-1.86.95-1.94-.34-.08-1.29.84-3.01 1.5-4.25l.1-.18v-.01a.01.01 0 0 0-.02-.01l-2.1.42a.08.08 0 0 0-.08.08c-.3 1.46-.53 3.03-.68 4.72a.72.72 0 0 1-.45.61c-1.09.4-1.36-.8-1.3-1.61a15.49 15.49 0 0 1 .6-3.28l-.01-.03a.06.06 0 0 0-.06-.02l-2.38.65a.24.24 0 0 0-.14.12 42.1 42.1 0 0 0-3.26 7.27c-.17.5-.5.65-1 .45a.93.93 0 0 1-.1-.05c-.6-.39-.78-.88-.55-1.47.68-1.84 1.5-3.59 2.42-5.25.08-.15.04-.19-.11-.12l-1.85.83c-.5.22-.82.07-.96-.46l-.03-.11c-.14-.57.07-.94.62-1.14l3.53-1.27a.36.36 0 0 0 .16-.12l.16-.22a56.02 56.02 0 0 1 5.06-7.25c.29-.36.72-.75 1.29-1.19a.44.44 0 0 1 .51-.01c.05.03.1.08.13.13l.21.32c.41.63.66 1 .28 1.82a24.63 24.63 0 0 0-1.7 5.15.1.1 0 0 0 .07.07 47.11 47.11 0 0 1 2.83-.38c.73-.09 1.2.39.8 1.1l-.25.44c-.45.8-1.08 1.9-1.34 2.76-.13.45-.02.52.33.2a11.84 11.84 0 0 0 2.91-4.3c.15-.36.3-.56.45-.63.41-.18 1.44-.33 1.28.45l-.05.22c-.02.11.01.12.1.04l.18-.19c.6-.62 1.17-1.22 2.07-.43a.5.5 0 0 1 .1.64c-.26.41-.77.55-1.42.73l-.59.17c-.25.08-.57.34-.94.8a6.42 6.42 0 0 0-1.57 3.34c-.05.42-.28.67-.7.75l-.25.05c-.42.09-.65-.08-.7-.5a2.4 2.4 0 0 1 .05-.8c.02-.07 0-.08-.05-.01Zm-3.72-8.83a.48.48 0 0 1 .07-.1c.04-.03.05-.01.03.05l-1.54 4.73c-.01.03-.03.05-.07.05l-1.78.36h-.01a.02.02 0 0 1 0-.02c.85-1.5 1.95-3.18 3.3-5.07ZM27.21 30l-1.81.82c-.48.21-.79.07-.91-.43l-.04-.16c-.14-.56.07-.94.62-1.14l3.47-1.25c.1-.03.18-.1.23-.19a56.34 56.34 0 0 1 5.2-7.46c.37-.44.8-.81 1.29-1.12a.42.42 0 0 1 .58.13l.65 1.05a.2.2 0 0 1 .03.1c.02.34-.05.67-.2 1a25.73 25.73 0 0 0-1.7 5.07c0 .06.02.1.09.1h1.08a.44.44 0 0 1 .35.16.43.43 0 0 1 .07.38c-.09.34-.23.48-.64.58l-1.2.27a.17.17 0 0 0-.14.13c-.3 1.5-.52 3.08-.68 4.77-.04.33-.37.6-.73.6-1.68.03-.85-3.27-.54-4.53l.1-.38c.01-.1-.02-.13-.1-.1l-2.27.62a.32.32 0 0 0-.19.15 44.6 44.6 0 0 0-3.26 7.29c-.18.5-.5.65-1 .44l-.12-.05c-.64-.46-.83-.98-.55-1.58l2.38-5.2c.04-.08.02-.1-.06-.07Zm7-7.8a.48.48 0 0 1 .06-.08c.05-.04.06-.03.04.03l-1.54 4.7c-.01.03-.03.05-.06.05l-1.77.36a.02.02 0 0 1-.02-.02 62.71 62.71 0 0 1 3.28-5.04Zm9.68 1.8c.49-.4.64-1.01.34-1.38-.3-.37-.95-.36-1.44.04-.5.39-.65 1-.35 1.38.3.37.95.35 1.45-.04Zm-22.4-.64c.3.38.15 1-.35 1.39-.5.4-1.14.41-1.44.04-.3-.37-.14-.99.35-1.38.5-.4 1.14-.42 1.45-.05Zm18.89 8.6c.67-.17 1.63-1.31 2.17-2 .07-.09.1-.08.1.05-.01.72.36 1.35 1.12 1.31.8-.04 1.37-.61 1.92-1.2.1-.1.16-.1.2.04.27 1.1 1.48.66 2.09.2a6.64 6.64 0 0 0 2-2.56.23.23 0 0 0-.1-.3.22.22 0 0 0-.09-.03c-.22-.03-.37.03-.47.17-.32.5-.87 1.35-1.37 1.5a.28.28 0 0 1-.3-.1.28.28 0 0 1-.03-.3l1.34-2.53a.4.4 0 0 0-.18-.55l-.52-.27a.33.33 0 0 1-.15-.17c-.37-.85-.99-1-1.86-.46-1.44.9-2.7 2.58-3.66 3.86l-.5.66c-.25.32-.52.56-.81.73a.12.12 0 0 1-.12 0 .11.11 0 0 1-.04-.05.1.1 0 0 1 0-.07c.03-.24.13-.5.28-.77l1.47-2.59c.3-.52.5-1.06-.28-1.27a1.29 1.29 0 0 0-.78.09c-.3.1-.44.45-.59.81-.06.16-.13.32-.21.47a27.67 27.67 0 0 0-1.56 3.14c-.32.86-.58 2.54.93 2.18Zm4.08-2.12c-.24-.16.17-1.19.92-2.3.75-1.13 1.56-1.9 1.8-1.75.23.15-.18 1.19-.93 2.3-.75 1.13-1.55 1.9-1.8 1.75Zm-7.75.46.16.23a.4.4 0 0 1-.24.61c-.58.14-1.15-.31-1.5-.7-.15-.16-.29-.15-.42.02-.67.9-.6 1.56.22 1.98 1.37.7 3.32-.18 3.68-1.72.2-.84-.07-1.34-.55-1.88-1.03-1.14.33-2.57 1-1.52l.17.22c.2.18.38.17.56-.03.53-.58.67-1.3-.25-1.57-1.92-.53-3.73 1.54-3.38 3.33.07.36.34.73.55 1.03Z" fill="#fff"/></svg>