<!-- by TradingView --><svg width="56" height="56" viewBox="0 0 56 56" xmlns="http://www.w3.org/2000/svg"><path fill="#F0F3FA" d="M0 0h56v56H0z"/><circle cx="27.73" cy="27.65" fill="url(#a)" r="11.11"/><path d="M44.86 25.7c-.63-.3-1.26-.62-1.88-.94-.46-.23-.99-.49-1.4-.64-.7-.27-1.5-.58-2.25-.92.05-.03.04-.1-.03-.22l-.13-.37c0-.02-.02-.02-.04 0l-.2.2-1.77-.29c.31-.64.55-1.32.7-2.02.38-1.7.1-3.25-.8-4.64-1.21-1.83-3.37-2.93-5.45-3.41a16.07 16.07 0 0 0-8.02.21 15.72 15.72 0 0 0-8.57 6.15 16 16 0 0 0 6.93 23.83l.6 1.49c-2.65-.9-4.9-2.34-6.78-4.3a16.94 16.94 0 0 1-4.75-11.14l-.02-.92c0-.34 0-.68.03-1.03a17.04 17.04 0 0 1 15.71-15.71c.3-.03.67-.04 1.1-.02.35 0 .74-.02 1.03 0 8.16.4 14.9 6.6 15.99 14.7Z" fill="#079EDB"/><path d="M37.16 22.52a12.85 12.85 0 0 1-2.19 3.1 20.06 20.06 0 0 1-5.88 4.24 22.03 22.03 0 0 1-4.29 1.44l-3 .6c-.75.12-1.5.27-2.23.45-.5.13-1.14.33-1.48.75a.16.16 0 0 1-.07.05v-.03c.03-.01.04-.02.04-.04.13-.3.3-.56.52-.78.29-.2.58-.33.88-.42.57-.17 1.14-.3 1.7-.4a48.6 48.6 0 0 0 5.02-1.07 18.51 18.51 0 0 0 3.25-1.28l1.08-.59.11-.07a191.07 191.07 0 0 1 .88-.56l.4-.26.52-.42c.08-.06.19-.1.25-.16.53-.46.96-.84 1.28-1.15.3-.28.5-.51.8-.85a11 11 0 0 0 2.26-3.75c.2-.64.33-1.27.36-1.89.1-1.9-.76-3.6-2.22-4.76a10.97 10.97 0 0 0-6.24-2.16 15.08 15.08 0 0 0-12.4 5.13 15.24 15.24 0 0 0-3.68 10.1 15.47 15.47 0 0 0 2.81 8.61 14.3 14.3 0 0 0 3.86 3.78 14.78 14.78 0 0 0 11.73 2.16c2.72-.63 5.09-1.9 7.1-3.84a13.86 13.86 0 0 0 3.86-6.37c.21-.8.4-1.86-.04-2.62 0-.03 0-.05.04-.05.63.09 1.01.58 1.1 1.2.1.78-.06 1.57-.27 2.33-.22.77-.51 1.51-.87 2.23a15.9 15.9 0 0 1-13.79 8.67c-1.48.08-2.93-.09-4.36-.5a15.57 15.57 0 0 1-8.57-5.74 16.47 16.47 0 0 1-3.18-8.01 16 16 0 0 1 2.77-10.78 15.72 15.72 0 0 1 8.57-6.15c2.6-.74 5.4-.82 8.02-.21 2.08.48 4.24 1.58 5.44 3.41a5.83 5.83 0 0 1 .81 4.64c-.15.7-.39 1.38-.7 2.02Z" fill="#1A67A6"/><path d="m38.93 22.8-.88.95a.04.04 0 0 0-.01.05l.14.38c0 .05.01.1.05.13h.04l.26-.22c.14-.13.25.12.3.22.4.77.72 1.56.97 2.37-.01.05 0 .13.02.25.03.18-.16.43-.3.54a3.64 3.64 0 0 1-2-.95l-.22-.45-.3.25a.03.03 0 0 0-.02.03l.13.4v.02l-.47.01a9.46 9.46 0 0 0-3.34.4c.6-.5 1.15-1.01 1.67-1.56.88-.92 1.61-1.96 2.19-3.1l1.77.29Z" fill="#4EAEE2"/><path d="m39.3 22.98-1.12 1.2-.14-.38v-.05l.89-.94.2-.2c.02-.02.03-.02.04 0l.13.37Z" fill="#212023"/><path d="M39.3 22.98c.07.12.08.2.03.22-.18.18-.35.38-.23.6.49.94.86 1.9 1.11 2.86l.1.35s0 .02.02.03a.06.06 0 0 0 .06.01l.02-.01.26-.26c.06.1.05.18-.01.25a71 71 0 0 1-.95 1.03c0 .02-.02.02-.03 0a.44.44 0 0 1-.04-.17 1 1 0 0 0 .25-.3c.1-.17.06-.37 0-.56a14.48 14.48 0 0 0-1.06-2.72c-.05-.1-.16-.35-.3-.22l-.26.22h-.04c-.04-.03-.06-.08-.05-.14l1.12-1.19Z" fill="#fff"/><path d="M39.33 23.2c.74.34 1.54.65 2.25.92.41.15.94.4 1.4.64.62.32 1.24.64 1.88.95.1.74.15 1.39.14 1.94-.02.66-.03 1.13-.02 1.4l-.03.44c-.9-.72-1.5-1.2-1.82-1.42-.8-.55-1.64-1.02-2.5-1.48l-.06-.17a.03.03 0 0 0-.03-.03.03.03 0 0 0-.03.02c-.08.1-.18.18-.3.25a13.9 13.9 0 0 0-1.11-2.86c-.12-.22.05-.42.23-.6Z" fill="#4EAEE2"/><path d="M37.52 26.52c.26.54.49 1.09.67 1.63l-.75-1.66a.03.03 0 0 0-.02-.01.03.03 0 0 0-.03 0l-.28.26-.13-.39.01-.03.3-.26h.01l.22.46ZM40.63 26.6c.03.07.05.14.04.18l-.26.26a.06.06 0 0 1-.06.01.06.06 0 0 1-.04-.04l-.1-.35a1.04 1.04 0 0 0 .31-.26.03.03 0 0 1 .04 0v.02l.07.17Z" fill="#212023"/><path d="m38.19 28.15.13.38c.18.51.28 1.04.14 1.58a3.33 3.33 0 0 1-1.04 1.61c-.32.3-.68.09-.93-.18l-.02-.03v-.04l.24-.21c.01-.02.03-.02.05 0l.14.07c.48.3.99-.44 1.17-.82.22-.47.23-.94.03-1.43 0-.02-.01-.02-.02 0v.08c-.12.38-.28.7-.48.98-.2.28-.54.51-.9.5-.51-.01-.88-.36-1.08-.84l-.13-.39c-.1-.77.13-1.4.66-1.9.32-.28.7-.4 1.15-.32.02 0 .02 0 .01-.02l-.2-.4v-.03l.28-.26h.04l.01.01.75 1.66Zm-2.32 1.15.01.08c.09.43.45.92.95.84a.73.73 0 0 0 .35-.15c.67-.55.84-1.23.54-2.06-.16-.3-.38-.46-.67-.46-.33 0-.63.19-.84.44-.27.33-.4.71-.37 1.14 0 .06.02.12.03.17Z" fill="#fff"/><path d="M39.52 27.47c.02.14.06.28.12.42 0 .06.02.12.04.17a69.6 69.6 0 0 0 .98-1.03c.06-.07.07-.15.01-.25 0-.04 0-.1-.04-.19.86.46 1.7.93 2.5 1.48.32.22.92.7 1.82 1.42a16.84 16.84 0 0 1-1.04 4.56l-.9-1.11c.22-.76.37-1.55.27-2.33-.08-.62-.46-1.11-1.09-1.2-.04 0-.05.02-.04.05-.03-.04-.07-.04-.1 0-.15.16-.29.38-.4.65a12.25 12.25 0 0 0-3.33-1.58l-.13-.38c-.18-.54-.4-1.09-.67-1.63.58.57 1.22.79 2 .95ZM36.64 26.78c-.67.17-1.1.78-1.26 1.43-.68.14-1.24.27-1.69.4a9.94 9.94 0 0 0-5 3.43c-.35.46-.68.93-1 1.4-.23-.17-.49-.29-.76-.33-.63-.11-1.32.26-1.38.95 0 .03-.02.04-.04.01l-.3-.36c-.02-.02-.04-.02-.06-.01l-.32.12c-.02 0-.02.01-.02.03l.1.35c0 .01 0 .02.02.02l.02.01v.03l.01.03c.49.59 1.02 1.13 1.6 1.63.1 1.72.2 3.06.44 4.69a18.2 18.2 0 0 1-2.9-.72 12.9 12.9 0 0 0-.42-2.48l1.99-.38c.06-.01.06-.03.02-.06l-.03-.03c.02-.01.03-.03.02-.04a13.2 13.2 0 0 1-.49-.57h-.04c-.62.14-1.26.29-1.94.43-.1.03-.14.01-.24-.05-.34-.21-.63-.4-.85-.58a62.5 62.5 0 0 0 1.75-.45c.06 0 .09-.03.07-.06h.01v-.02a23.1 23.1 0 0 1-.41-.66c-.01-.02-.03-.02-.04-.02l-.16.04c.19-.38.36-.76.51-1.14.33-.83.65-1.67.95-2.52 1.48-.36 2.92-.78 4.29-1.44a21.14 21.14 0 0 0 4.21-2.68 9.45 9.45 0 0 1 3.34-.4Z" fill="#79BBE7"/><path d="m39.8 26.68.1.35c.05.19.09.39-.01.57a1 1 0 0 1-.25.29c-.06-.14-.1-.28-.12-.42.14-.11.33-.36.3-.54a.75.75 0 0 1-.02-.25ZM37.1 26.77l.21.4c.01.02 0 .03-.01.02-.45-.07-.83.04-1.15.33-.53.5-.75 1.12-.65 1.89a1.8 1.8 0 0 1-.12-1.2c.15-.65.59-1.26 1.26-1.43l.46-.01Z" fill="#212023"/><path d="M37.72 28.01c.05.5-.07.94-.35 1.32-.27.38-.73.66-1.17.36a.8.8 0 0 1-.3-.34.12.12 0 0 0-.02-.05.6.6 0 0 1-.04-.17c-.02-.43.1-.8.37-1.14.2-.25.5-.44.84-.44.3 0 .51.16.67.46Z" fill="#99C9EC"/><path d="M37.72 28.01c.3.83.13 1.51-.54 2.06a.73.73 0 0 1-.35.15c-.5.08-.86-.4-.95-.84l.02-.03a.8.8 0 0 0 .3.34c.44.3.9.02 1.17-.36.28-.38.4-.82.35-1.32Z" fill="#212023"/><path d="M35.38 28.21c-.1.43-.06.83.11 1.2l.13.4c-.64.22-1.29.35-1.95.39a.53.53 0 0 1 .36-.44l.03-.03a.94.94 0 0 0-.01-.38l-.13-.38c0-.02-.01-.03-.03-.03-.43.05-.62.46-.65.83 0 .06-.01.06-.03 0l-.08-.2c-.02-.05-.05-.06-.09-.03l-.29.19c-.05.03-.06.07-.04.13l.1.28c0 .02.03.03.05.02-.02.03-.02.05-.01.07l.22.36-1.26.9c-.4-.33-.81-.44-1.25-.36-.4.08-.7.26-.92.54-.25.31-.3.7-.18 1.18.02.1.05.13.07.1.07.64.55 1.16 1.12 1.41-.18.4-.33.81-.46 1.22a6.91 6.91 0 0 0-.15 3.83l.34 1.35c-1.13.1-2.26.05-3.38-.15a46.96 46.96 0 0 1-.44-4.7l.74.58a.1.1 0 0 0 .1.02 1.93 1.93 0 0 0 .3-.11v-.03l-.11-.34a.19.19 0 0 0-.06-.09l-.85-.67.56-1.34c.18.07.34.18.47.32.54.54.93.98 1.54 1.5.01.02.03.02.05.02.14-.01.24-.06.3-.15-.03-.22-.08-.37-.16-.43-.4-.35-.71-.65-.96-.93-.32-.35-.58-.62-.8-.81.33-.48.66-.95 1-1.4a9.94 9.94 0 0 1 5-3.43c.46-.14 1.02-.27 1.7-.4ZM41.65 30.11l-.68 1.62c-.85-.53-1.7-1.02-2.5-1.62.13-.54.03-1.07-.15-1.58 1.18.36 2.3.88 3.33 1.58Z" fill="#99C9EC"/><path d="M34.05 29.35c-.47.04-.68.5-.67.91 0 .06-.01.07-.04.02l-.17-.3a.03.03 0 0 0-.03 0h-.01l-.27.18c-.02.01-.04 0-.05-.02a6.64 6.64 0 0 0-.1-.28c-.02-.06 0-.1.04-.13l.29-.19c.04-.03.07-.02.09.03l.08.2c.02.06.03.06.03 0 .03-.37.22-.78.65-.83.02 0 .03.01.03.03l.13.38ZM36.47 31.47c-.02 0-.03 0-.04-.02a205.89 205.89 0 0 1-.1-.38s0-.02.02-.03l.23-.2a.04.04 0 0 1 .05 0c.24.2.49.2.74 0 .3-.25.5-.56.63-.93.1-.27.12-.52.08-.75v-.07c0-.03.01-.03.02 0 .2.48.19.95-.03 1.42-.18.38-.69 1.12-1.17.82l-.14-.08h-.05l-.24.22Z" fill="#212023"/><path d="M38.08 29.16c.04.23.02.48-.08.75-.12.37-.34.68-.63.93-.25.2-.5.2-.74 0a.04.04 0 0 0-.05 0l-.23.2a.07.07 0 0 0-.02.07l.1.34.04.02v.04l.02.03c.25.27.6.47.93.18.49-.44.9-1 1.04-1.61.81.6 1.66 1.1 2.51 1.62a24.5 24.5 0 0 1-1.32 2.7c-.3-.23-.6-.44-.91-.62a4.85 4.85 0 0 0-5.5.27 4.58 4.58 0 0 0-1.57 4.67c.12.53.31 1.08.58 1.66-.62.17-1.24.28-1.87.35-.08-.29-.2-.73-.34-1.35a6.91 6.91 0 0 1 .15-3.83c.13-.41.28-.81.46-1.22.4.18.8.29 1.23.17.4-.11.76-.41.84-.82.04-.19.07-.58-.03-.75v-.04a17.35 17.35 0 0 0-.12-.35l-.02-.01h-.3c-.02 0-.03 0-.03.03l.02.24c.02.36-.15.7-.47.88-.42.23-.98.06-1.36-.17a44.34 44.34 0 0 0 1.96-1.16c.01-.03.01-.05 0-.07-.02-.2-.08-.36-.17-.45l-.4-.37 1.27-.9 1.33 2.19.02.02h.03c.18-.1.26-.18.24-.26-.1-.44-.25-.67-.54-1.16l-.48-.78a.75.75 0 0 1 0-.4 7.33 7.33 0 0 0 1.95-.4c.2.48.57.83 1.09.84.35.01.7-.22.89-.5.2-.27.36-.6.48-.98Z" fill="#B2D5F1"/><path d="M34.05 29.35c.03.12.03.25 0 .38 0 .02 0 .03-.02.03a.53.53 0 0 0-.36.44.75.75 0 0 0 0 .4c.05.22.12.41.2.57.21.37.48.83.82 1.37.02.08-.06.17-.24.25a.04.04 0 0 1-.05-.01l-1.33-2.2-.22-.35c-.01-.02 0-.04.01-.07l.27-.18h.01a.03.03 0 0 1 .02 0h.01l.17.3c.03.05.04.04.04-.02 0-.4.2-.87.67-.91Z" fill="#fff"/><path d="M34.69 32.54c-.34-.54-.6-1-.81-1.37a2.04 2.04 0 0 1-.2-.57l.47.78c.29.5.44.72.54 1.16ZM31.8 31.49l.4.37c.1.1.15.24.17.45-.57-.77-1.5-1.07-2.34-.48-.37.26-.53.64-.5 1.12-.02.03-.05 0-.07-.1-.13-.47-.07-.87.18-1.18.22-.28.53-.46.92-.54.44-.08.86.03 1.25.36Z" fill="#212023"/><path d="M24.8 31.3c-.3.85-.62 1.7-.95 2.52-.15.38-.32.76-.5 1.14l-1.87.52c-.05.01-.1 0-.14-.05l-.45-.53 1.91-.6a.04.04 0 0 0 .02-.05v-.01c-.05-.03-.07-.06-.06-.08l-.27-.6a.06.06 0 0 0-.07-.03l-2.03.63a2.7 2.7 0 0 0 1.09-1.35c.14-.38.25-.68.32-.91l3-.6Z" fill="#4EAEE2"/><path d="M32.37 32.3v.08a10.62 10.62 0 0 0-.2.15 44.2 44.2 0 0 1-1.88 1.1c-.02.01-.02.02 0 .04.38.42 1.1.76 1.64.43a.9.9 0 0 0 .45-.8l-.03-.3c0-.01 0-.02.03-.03l.3-.01c.11.17.08.56.04.75-.08.4-.44.7-.84.82-.43.12-.83.01-1.23-.17a1.85 1.85 0 0 1-1.12-1.4c-.03-.5.13-.87.5-1.13.84-.59 1.77-.3 2.34.48Zm-2.4.59a.87.87 0 0 0 .1.42h.02l1.74-1h.01v-.03l-.36-.26c-.3-.13-.59-.15-.88-.04a.98.98 0 0 0-.65.74c-.01.04-.01.1.01.17Z" fill="#fff"/><path d="M21.8 31.9c-.07.23-.18.53-.32.9a2.7 2.7 0 0 1-1.09 1.36l-.46.15a.04.04 0 0 0-.03.02v.03c.03.14.08.26.15.37v.07l.3.4c.19.42.3.83.3 1.25.01.57-.03 1.18-.12 1.84-.18-.12-.46-.3-.83-.57-1.4-1-2.87-2.78-1.68-4.57a.15.15 0 0 0 .07-.05c.34-.42.98-.62 1.48-.75.74-.18 1.48-.33 2.23-.45Z" fill="#079EDB"/><path d="m31.48 32.02-1.52.87a.33.33 0 0 1-.01-.17c.08-.37.3-.62.65-.74.3-.1.59-.1.88.04Z" fill="#99C9EC"/><path d="m29.96 32.89 1.52-.87.36.26a.02.02 0 0 1 0 .03l-1.75 1a.02.02 0 0 1-.02 0h-.01a.87.87 0 0 1-.1-.42ZM32.69 32.96l-.31.01c-.02 0-.03.02-.03.03l.03.3a.9.9 0 0 1-.45.8c-.54.33-1.26-.01-1.64-.43-.02-.02-.02-.03 0-.04a.41.41 0 0 1 .12-.09c.38.23.94.4 1.36.17.32-.18.5-.52.47-.88l-.02-.24c0-.02.01-.03.03-.03h.3a.04.04 0 0 1 .04.03 17.35 17.35 0 0 1 .1.37Z" fill="#212023"/><path d="m43.02 32.94.89 1.11c-.31.81-.68 1.6-1.11 2.36-.2-.43-.41-.85-.65-1.24.36-.72.65-1.46.87-2.23Z" fill="#99C9EC"/><path d="M39.65 34.42c-.34.6-.74 1.2-1.19 1.79a11.47 11.47 0 0 1-6.21 4.2 8.34 8.34 0 0 1-.58-1.66 4.58 4.58 0 0 1 1.57-4.67 4.85 4.85 0 0 1 5.5-.27c.3.18.6.39.9.61Z" fill="#D8E9F8"/><path d="M27.69 33.45c.21.2.47.46.79.81.25.28.57.58.96.93.08.06.13.2.16.43-.51-.46-.98-.92-1.4-1.4a3.1 3.1 0 0 0-.46-.42 1.42 1.42 0 0 0-1.55-.13.97.97 0 0 0-.5.8c-.01.03-.02.04-.05 0l-.3-.35c-.01-.02-.03-.02-.05-.02l-.34.13h-.02l-.02-.03-.1-.35c0-.02 0-.03.02-.03l.32-.12h.05l.3.37c.03.03.04.02.05-.01.06-.7.75-1.06 1.38-.95.27.04.53.16.76.34Z" fill="#212023"/><path d="M29.6 35.62c-.06.09-.16.14-.3.15-.02 0-.04 0-.05-.02-.6-.52-1-.96-1.54-1.5a1.4 1.4 0 0 0-.47-.32.92.92 0 0 0-.74.02c-.3.14-.46.37-.46.69.02.19.1.35.22.48a8.2 8.2 0 0 0 1.43 1.28l-.02.02-.28.09a.1.1 0 0 1-.09-.02l-.74-.57a12.72 12.72 0 0 1-1.61-1.69l.34-.13c.02 0 .04 0 .05.02l.3.36c.03.03.04.02.04-.01.03-.35.2-.62.51-.8.5-.29 1.1-.2 1.55.13.14.1.29.24.45.42.43.48.9.94 1.4 1.4Z" fill="#fff"/><path d="m22.76 34.16-.16-.2a.04.04 0 0 0-.04-.02l-2.51.79a1.19 1.19 0 0 1-.15-.37v-.03l.03-.02.46-.15 2.03-.63h.04l.03.03.27.6Z" fill="#212023"/><path d="m27.24 33.93-.56 1.34-.64-.63c0-.32.15-.55.46-.69.24-.11.5-.12.74-.02Z" fill="#79BBE7"/><path d="M22.76 34.16c0 .02.01.05.05.08l.01.01a.04.04 0 0 1-.02.05l-1.91.6-.13.03-.02.01a.03.03 0 0 0 0 .05l.75.88a.1.1 0 0 0 .1.03l2.04-.57h.03c.01 0 .02 0 .03.02l.25.27c.02.03 0 .05-.07.06a62.5 62.5 0 0 1-1.75.46l-.24.05a.02.02 0 0 0-.01.02v.01c.38.33.78.63 1.2.88.08.05.14.1.23.08a39.57 39.57 0 0 0 2.04-.43l.32.19.03.03c.04.03.04.05-.02.06l-2 .38-.44.08c-.07 0-.12-.02-.19-.05-.41-.22-.81-.46-1.2-.73a5.77 5.77 0 0 1-1.1-1.02l-.4-.48-.28-.41a.07.07 0 0 1-.02-.05l.01-.02 2.5-.79c.03 0 .04 0 .05.02l.16.2Z" fill="#fff"/><path d="m26.68 35.27.85.67a.2.2 0 0 1 .06.09l.12.33-.02.01a8.2 8.2 0 0 1-1.43-1.25.84.84 0 0 1-.22-.48l.64.63ZM20.89 34.9l.45.53c.04.05.09.06.14.05l1.86-.52.16-.04a23.47 23.47 0 0 0 .44.7l-.25-.27a.05.05 0 0 0-.06-.02l-2.04.57a.1.1 0 0 1-.1-.03l-.75-.88a.03.03 0 0 1 0-.04v-.01h.02l.13-.04Z" fill="#212023"/><path d="M42.15 35.17c.24.4.45.8.65 1.24a16.95 16.95 0 0 1-5.64 5.93 16.9 16.9 0 0 1-5.86 2.36l-.93-1.05a15.9 15.9 0 0 0 11.78-8.48Z" fill="#B2D5F1"/><path d="M23.68 37.41c.22.82.35 1.65.41 2.48-1.25-.4-2.43-.93-3.56-1.6.1-.66.13-1.27.12-1.84 0-.42-.11-.83-.3-1.24.13.16.26.33.4.48.34.4.7.74 1.1 1.02.38.26.78.5 1.2.73.06.03.1.06.18.05l.45-.08Z" fill="#4EAEE2"/><path d="M22.12 36.13c.22.17.5.37.85.58.1.06.13.08.24.05a108.08 108.08 0 0 0 1.98-.43 13.2 13.2 0 0 0 .48.57c.02.01.01.03 0 .04l-.33-.2a39.68 39.68 0 0 1-2.04.43c-.1.03-.15-.02-.22-.07a8.24 8.24 0 0 1-1.2-.9l.24-.07Z" fill="#212023"/><path d="M21.95 42.64c.67.28 1.35.52 2.05.7l.61 1.34c-.7-.14-1.4-.32-2.07-.55l-.6-1.49Z" fill="#4EAEE2"/><path d="m30.37 43.65.93 1.05a12.5 12.5 0 0 1-2.92.28c-.45 0-.94.04-1.35.01-.82-.04-1.62-.14-2.42-.3l-.6-1.34c1.42.4 2.87.57 4.35.5.68-.04 1.35-.1 2.01-.2Z" fill="#79BBE7"/><defs><linearGradient id="a" x1="21.06" y1="19.5" x2="29.06" y2="27.64" gradientUnits="userSpaceOnUse"><stop stop-color="#FFDE06"/><stop offset="1" stop-color="#F46B23"/></linearGradient></defs></svg>