<!-- by TradingView --><svg width="56" height="56" viewBox="0 0 56 56" xmlns="http://www.w3.org/2000/svg"><path fill="#F0F3FA" d="M0 0h56v56H0z"/><path d="M45 23.54v9c0 1.41-.1 2.14 1.21 2.4.53.12.79.3.79.56 0 .17-.05.3-.15.38-.1.08-.27.12-.48.12h-5.19a.62.62 0 0 1-.4-.12c-.1-.07-.15-.18-.15-.33 0-.23.23-.44.7-.63 1-.4 1.26-1.27 1.26-2.32v-8.84c0-1.48-.13-2.57-1.8-2.77-.52-.07-.79-.25-.79-.52 0-.14.05-.26.14-.34.1-.09.25-.13.42-.13h5.96c.17 0 .28.04.36.11.08.07.12.17.12.3 0 .21-.19.38-.56.51-1.23.41-1.44 1.46-1.44 2.62Zm-2.99-2.73-.04.1c.87.42 1.03 1.33 1.03 2.23v8.79c0 1.1-.02 2.22-.84 3.04l.04.08c1.29-.57 1.28-1.95 1.28-3.19V23.3c0-1.12-.3-2.14-1.47-2.48ZM11.85 33l-.07-.06c-.6.7-1.1 1.22-1.5 1.56-.39.35-.76.6-1.12.78l.09.05c.6 0 1.09-.18 1.48-.53.4-.36.78-.96 1.12-1.8Zm7.9-12.3-.04.1a.83.83 0 0 1 .64.83c0 .24-.16.63-.5 1.18v.02l.11.08c.05-.05.1-.13.2-.22.45-.57.68-.99.68-1.27 0-.2-.1-.37-.28-.5-.2-.12-.46-.2-.8-.21Zm-10.24.03-.04.04c.25.09.54.3.88.6.34.32.66.7.97 1.16l7.4 10.63c.14.2.24.4.3.6.08.19.12.38.12.55 0 .13-.03.25-.08.37-.05.1-.13.21-.22.3l.1.05a.92.92 0 0 0 .44-.4c.1-.18.14-.4.14-.64 0-.2-.05-.44-.17-.7-.1-.27-.26-.54-.47-.83L11.56 22a2.96 2.96 0 0 0-2.05-1.26Zm4.58 1.94 2.17 3.1c.07.09.13.16.19.21a.3.3 0 0 0 .17.07c.05 0 .1-.02.17-.06.06-.04.12-.1.18-.18l2.24-2.76c.25-.31.42-.56.5-.75.07-.18.12-.37.12-.56 0-.24-.06-.42-.17-.53-.12-.12-.33-.21-.64-.28a14.3 14.3 0 0 0-.27-.06c-.42-.08-.63-.23-.63-.46 0-.13.04-.23.12-.3.08-.07.2-.11.34-.11h4.72c.2 0 .34.03.42.1.07.06.11.16.11.3 0 .27-.2.45-.62.54-.22.04-.4.1-.54.15-.3.13-.68.42-1.13.85-.46.43-.97 1-1.53 1.67L17.5 26.7a.71.71 0 0 0-.14.2.5.5 0 0 0-.04.22.61.61 0 0 0 .13.38l3.6 5.1c.35.5.69.94 1.03 1.34.34.4.65.71.93.95.12.06.3.13.52.2.31.1.47.24.47.42 0 .17-.05.3-.15.38-.1.08-.24.12-.44.12h-5.43a.8.8 0 0 1-.47-.12.39.39 0 0 1-.17-.33c0-.2.2-.36.63-.5.42-.16.63-.4.63-.74 0-.16-.05-.35-.14-.56-.08-.21-.2-.43-.37-.66l-2.4-3.38a.87.87 0 0 0-.14-.2c-.05-.05-.1-.08-.12-.08a.29.29 0 0 0-.14.07.98.98 0 0 0-.18.17l-2.32 2.9c-.3.38-.5.68-.62.9-.1.23-.15.43-.15.61 0 .34.26.58.77.73a5.58 5.58 0 0 0 .57.18c.42.11.64.29.64.51 0 .17-.06.3-.17.38-.1.08-.26.12-.47.12H8.6a.74.74 0 0 1-.44-.12.35.35 0 0 1-.17-.31c0-.2.2-.36.6-.5a4.52 4.52 0 0 0 1.5-.93c.36-.32.83-.84 1.41-1.57l3.06-3.79a.5.5 0 0 0 .1-.19.75.75 0 0 0 .04-.22c0-.05-.02-.1-.04-.16a1.83 1.83 0 0 0-.12-.27l-3-4.3c-.34-.5-.7-.96-1.07-1.38a7.93 7.93 0 0 0-.93-.93 2.74 2.74 0 0 0-.84-.37c-.38-.11-.56-.28-.56-.5 0-.16.04-.28.13-.35.1-.07.24-.11.44-.11h5.78c.2 0 .34.03.42.1.09.06.13.16.13.3 0 .21-.13.37-.4.48l-.12.05a.96.96 0 0 0-.6.27.9.9 0 0 0-.2.6c0 .12.04.26.1.4.06.14.14.3.26.47Z" fill="#B99E65"/><path d="m27.85 33-.07-.06c-.6.7-1.1 1.22-1.5 1.56-.39.35-.76.6-1.12.78l.09.05c.6 0 1.09-.18 1.48-.53.4-.36.78-.96 1.12-1.8Zm7.9-12.3-.04.1a.83.83 0 0 1 .64.83c0 .24-.16.63-.5 1.18v.02l.11.08c.05-.05.1-.13.2-.22.45-.57.68-.99.68-1.27 0-.2-.1-.37-.28-.5-.2-.12-.46-.2-.8-.21Zm-10.24.03-.04.04c.25.09.54.3.88.6.34.32.66.7.97 1.16l7.4 10.63c.14.2.24.4.3.6.08.19.12.38.12.55 0 .13-.03.25-.08.37-.05.1-.13.21-.22.3l.1.05a.92.92 0 0 0 .44-.4c.1-.18.14-.4.14-.64 0-.2-.05-.44-.17-.7-.1-.27-.26-.54-.47-.83L27.56 22a2.96 2.96 0 0 0-2.05-1.26Zm4.58 1.94 2.17 3.1c.07.09.13.16.19.21a.3.3 0 0 0 .17.07c.05 0 .1-.02.17-.06.06-.04.12-.1.18-.18l2.24-2.76c.25-.31.42-.56.5-.75.07-.18.12-.37.12-.56 0-.24-.06-.42-.17-.53-.12-.12-.33-.21-.64-.28a14.3 14.3 0 0 0-.27-.06c-.42-.08-.63-.23-.63-.46 0-.13.04-.23.12-.3.08-.07.2-.11.34-.11h4.72c.2 0 .34.03.42.1.07.06.11.16.11.3 0 .27-.2.45-.62.54-.22.04-.4.1-.54.15-.3.13-.68.42-1.13.85-.46.43-.97 1-1.53 1.67L33.5 26.7a.71.71 0 0 0-.14.2.5.5 0 0 0-.04.22.61.61 0 0 0 .13.38l3.6 5.1c.35.5.69.94 1.03 1.34.34.4.65.71.93.95.12.06.3.13.52.2.31.1.47.24.47.42 0 .17-.05.3-.15.38-.1.08-.24.12-.44.12h-5.43a.8.8 0 0 1-.47-.12.39.39 0 0 1-.17-.33c0-.2.2-.36.63-.5.42-.16.63-.4.63-.74 0-.16-.05-.35-.14-.56-.08-.21-.2-.43-.37-.66l-2.4-3.38a.87.87 0 0 0-.14-.2c-.05-.05-.1-.08-.12-.08a.29.29 0 0 0-.14.07.98.98 0 0 0-.18.17l-2.32 2.9c-.3.38-.5.68-.62.9-.1.23-.15.43-.15.61 0 .34.26.58.77.73a5.58 5.58 0 0 0 .57.18c.42.11.64.29.64.51 0 .17-.06.3-.17.38-.1.08-.26.12-.47.12H24.6a.74.74 0 0 1-.44-.12.35.35 0 0 1-.17-.31c0-.2.2-.36.6-.5a4.52 4.52 0 0 0 1.5-.93c.36-.32.83-.84 1.41-1.57l3.06-3.79a.5.5 0 0 0 .1-.19.75.75 0 0 0 .04-.22c0-.05-.02-.1-.04-.16a1.83 1.83 0 0 0-.12-.27l-3-4.3c-.34-.5-.7-.96-1.07-1.38a7.92 7.92 0 0 0-.93-.93 2.74 2.74 0 0 0-.84-.37c-.38-.11-.56-.28-.56-.5 0-.16.04-.28.13-.35.1-.07.24-.11.44-.11h5.78c.2 0 .34.03.42.1.09.06.13.16.13.3 0 .21-.13.37-.4.48l-.12.05a.96.96 0 0 0-.6.27.9.9 0 0 0-.2.6c0 .12.04.26.1.4.06.14.14.3.26.47Z" fill="#B99E65"/></svg>