<!-- by TradingView --><svg width="56" height="56" viewBox="0 0 56 56" xmlns="http://www.w3.org/2000/svg"><path fill="#F0F3FA" d="M0 0h56v56H0z"/><path d="M23.4 11.6A17.09 17.09 0 0 0 12.13 22h9.76c.02 0 .03-.02.03-.04a14.99 14.99 0 0 1 5.13-10.93c.03-.02.02-.03 0-.03-1.2.05-2.4.25-3.63.6Zm20.46 10.37A17.1 17.1 0 0 0 28.94 11c-.03 0-.04 0-.01.03a15.01 15.01 0 0 1 5.14 10.94c0 .02.01.03.03.03h9.76v-.03ZM28 22a1431.37 1431.37 0 0 1-5.46-.02v-.01A14.45 14.45 0 0 1 28 11.01 14.45 14.45 0 0 1 33.43 22h-5.44ZM44.1 33.44a16.89 16.89 0 0 0-.02-10.9H34.04c-.02 0-.03 0-.03.03a1217.7 1217.7 0 0 0 0 10.86c0 .02.01.03.03.03H44.1l.01-.02ZM22 28.01v5.43c0 .02-.02.03-.04.03H11.92c-.01 0-.02 0-.02-.02a16.87 16.87 0 0 1 .01-10.9h10.05c.02 0 .03.01.03.03l.01 5.43Zm-9.87 6v.02A17.08 17.08 0 0 0 27.03 45c.03 0 .04 0 .01-.03a14.99 14.99 0 0 1-5.13-10.93c0-.02 0-.03-.02-.03L12.15 34h-.01l-.01.02Zm31.73.02A17.05 17.05 0 0 1 29 45c-.03 0-.04 0-.01-.03 3.16-2.74 5-6.71 5.1-10.92 0-.02.02-.03.03-.03l9.72-.02a.02.02 0 0 1 .02.02v.01ZM33.43 34a1578.04 1578.04 0 0 0-10.9.03A14.45 14.45 0 0 0 28.01 45 14.45 14.45 0 0 0 33.44 34Z" fill="#FD2E02"/></svg>