<!-- by TradingView --><svg width="56" height="56" viewBox="0 0 56 56" xmlns="http://www.w3.org/2000/svg"><path fill="#F0F3FA" d="M0 0h56v56H0z"/><ellipse cx="28" cy="37.5" rx="12" ry="2.5" fill="#5C1425"/><path d="m28 12 1.05 1.66c2.6 4.12 2.6 9.56 0 13.68L28 29l-1.05-1.66a12.96 12.96 0 0 1 0-13.68L28 12ZM47 24.02l-.73 1.77c-1.8 4.38-6.28 7.25-11.26 7.2H33l.73-1.78c1.8-4.38 6.28-7.25 11.26-7.21l2.01.02ZM9 24.02l.73 1.77c1.8 4.38 6.28 7.25 11.26 7.2H23l-.73-1.78C20.47 26.83 16 23.96 11.01 24L9 24.02Z" fill="#5C1425"/></svg>