<!-- by TradingView --><svg width="56" height="56" viewBox="0 0 56 56" xmlns="http://www.w3.org/2000/svg"><path fill="#F0F3FA" d="M0 0h56v56H0z"/><path d="M47.24 17c1.3 3.89.86 8.35-.78 11.85C44.8 32.33 41.88 35 38.12 35c-5.83 0-8.5-3.97-9.12-6.03l1.2-.36c.5 1.67 2.77 5.15 7.92 5.15 3.1 0 5.68-2.2 7.2-5.44a15.14 15.14 0 0 0 .73-10.93l1.19-.39ZM8.76 39c-1.3-3.89-.86-8.35.78-11.85C11.2 23.67 14.12 21 17.88 21c5.83 0 8.5 3.97 9.12 6.03l-1.2.36c-.5-1.67-2.77-5.15-7.92-5.15-3.1 0-5.68 2.2-7.2 5.44a15.14 15.14 0 0 0-.73 10.93L8.76 39Z" fill="#0405F8"/><path d="M44.24 18c1.3 3.89.86 8.35-.78 11.85C41.8 33.33 38.88 36 35.12 36c-5.83 0-8.5-3.97-9.12-6.03l1.2-.36c.5 1.67 2.77 5.15 7.92 5.15 3.1 0 5.68-2.2 7.2-5.44a15.14 15.14 0 0 0 .73-10.93l1.19-.39ZM11.76 38c-1.3-3.89-.86-8.35.78-11.85C14.2 22.67 17.12 20 20.88 20c5.83 0 8.5 3.97 9.12 6.03l-1.2.36c-.5-1.67-2.77-5.15-7.92-5.15-3.1 0-5.68 2.2-7.2 5.44a15.14 15.14 0 0 0-.73 10.93l-1.19.39Z" fill="#0405F8"/></svg>