<!-- by TradingView --><svg xmlns="http://www.w3.org/2000/svg" width="56" height="56" viewBox="0 0 56 56"><path fill="#E0B81B" d="M0 0h56v56H0z"/><path fill-rule="evenodd" d="M31.39 12H24.6c-6.98 0-12.64 5.8-12.64 12.95v6.1C11.97 38.2 17.63 44 24.61 44h6.78c6.98 0 12.64-5.8 12.64-12.95v-6.1C44.03 17.8 38.37 12 31.39 12zm-6.78-1C17.1 11 11 17.25 11 24.95v6.1C11 38.75 17.1 45 24.61 45h6.78C38.9 45 45 38.75 45 31.05v-6.1C45 17.25 38.9 11 31.39 11H24.6z" fill="#fff"/><path fill-rule="evenodd" d="M21.4 33.68v2.75c0 .37.2 1.26.8 1.88a16.9 16.9 0 0 0 2.08 1.59c.38.26.72-.02.72-.5v-4.9h2v1.93c.1.49.35 1.73 1.38 2.76 1.29 1.3 2.12.5 2.12-.44v-3.97c3.14.04 9.5-1.4 9.5-7.47-.04-2.39-1.28-7.16-5.92-7.16h-2.07l-.67-.46.13-.26.96-.3A10.68 10.68 0 0 0 25.2 16c-4.3 0-9.2 3.9-9.2 9.58 0 4.54 3.6 7.3 5.4 8.1zm-2.23-8.7a7.19 7.19 0 0 0 2.17 5.34v-3.9c0-6.97 5.68-7.59 7.14-7.59 1.16 0 1.86.28 2.07.42.12.1.39.29.55.19.15-.1.13-.2.1-.24a7.33 7.33 0 0 0-4.18-1.55c-5.18 0-7.85 3.75-7.85 7.32zM25 32v-6.5a3.9 3.9 0 0 1 3.98-3.94l-1.56 2.2c-.18.26-.42 1.2-.42 2.9V32h-2zm5.73.91c4.8-3.66 4.41-8.53 3.61-10.5 4.41-.25 4.85 3.58 4.51 5.53-1.35 5.9-5.97 5.78-8.12 4.97zm-.23-7.07c0-1.95 1.88-3 2.77-3.29.03.13.06.22.1.31.15.36.32.8.32 3.7 0 1.51-1.52 3.35-2.6 4.39-.18.17-.59.04-.59-.22v-4.9z" fill="#fff"/></svg>