<!-- by TradingView --><svg width="56" height="56" viewBox="0 0 56 56" xmlns="http://www.w3.org/2000/svg"><path fill="#F0F3FA" d="M0 0h56v56H0z"/><path d="M35 16a12.68 12.68 0 0 0-3.46 1.89c-.4.3-1.07 1-1.23 1.37-.35.88-.24 1.4.36 1.55l1.76 1.79a.12.12 0 0 1 .02.12.11.11 0 0 1-.11.07.35.35 0 0 1-.13-.04.63.63 0 0 1-.11-.07 8.96 8.96 0 0 0-4.5-2.86c-3.2-.9-5.4.78-7.59 2.91a.47.47 0 0 1-.17.11l-.12.04c-.1.04-.1.08-.02.14.4.25.66.42.8.48.13.07.2.15.2.25 0 .09-.04.14-.12.15l-.27.03c-.37.05-.38.16-.03.32.21.1.41.25.57.48 1.03 1.43 3.03 2.3 4.73 2.84.31.1.63.4.95.92.9 1.47 1.3 3.12 1.73 4.8 0 .02.02.03.04.04h.06c.02 0 .03-.02.03-.04a6.08 6.08 0 0 0-.16-1.58c-.08-.3-.02-.54.24-.66a.39.39 0 0 0 .2-.28.4.4 0 0 0-.08-.34l-.96-1.14v-.01a.02.02 0 0 1 0-.02l.06-.06c.06-.06.11-.06.17 0 1.27 1.16 2.2 2.6 2.8 4.31.14.38.21.72.23 1.04 0 .09-.04.14-.11.16-.33.1-.53.35-.6.78 0 .07.02.13.09.17.2.14.29.3.25.5-.12.65-.31 1.2-.58 1.63-.36.59-.29.66.22.2.34-.3.6-.76.77-1.38.02-.06.06-.1.12-.12a.15.15 0 0 1 .09 0c.03 0 .05.02.07.04.02.02.03.05.03.08.01.42-.04.78-.16 1.08a4.75 4.75 0 0 1-2.2 2.42c-.06.04-.09.02-.09-.05v-.2c0-.08-.04-.14-.13-.16a6.45 6.45 0 0 1-3.64-2.12 6.79 6.79 0 0 1-1.79-4.88 4.75 4.75 0 0 0-.1-1.43 4.37 4.37 0 0 0-2.37-2.76 3.28 3.28 0 0 0-3.36.4c-.55.43-.72 1.1-.7 1.88 0 .66 0 1.24-.02 1.73 0 .1.03.11.09.03.29-.4.2-1.2.2-2.2-.01-1.05 1.07-1.66 1.95-1.84 1.69-.35 3.54 1.3 3.92 2.89.07.3.07.87 0 1.71-.13 1.4-.23 3.05.28 4.32.04.08.01.13-.06.17a.43.43 0 0 1-.22.04.18.18 0 0 0-.15.06.19.19 0 0 0-.05.16A7 7 0 0 0 23.8 41H10.7l7-19.02H10L12.66 16H35Z" fill="#FF001B"/><path d="M30.48 20.82c-.6-.15-.71-.66-.35-1.54.15-.37.82-1.06 1.2-1.37A12.6 12.6 0 0 1 34.78 16H47l-2.44 6H39c-1.24.01-3.07 1.42-2 2.84.34.44.72.8 1.14 1.1 2.37 1.66 4.83 3.65 4.75 6.77-.13 5-5.48 7.4-9.8 7.92-2.4.29-3.77.4-4.12.36-.1-.01-.11-.06-.03-.12.17-.14.48-.29.95-.44.35-.12.66-.27.93-.45a10.12 10.12 0 0 0 4.39-6.16.1.1 0 0 1 .15 0l.08.08a.22.22 0 0 1 .05.23l-.73 1.85a.11.11 0 0 0 0 .1c.02.03.04.05.08.06.03 0 .05 0 .07-.02.44-.45.73-1.02.87-1.72a.36.36 0 0 1 .11-.2c.41-.36.6-.82.56-1.4 0-.07.01-.15.06-.21a1.31 1.31 0 0 0 .18-1.38l.15-2.27c0-.1-.01-.2-.04-.3-.22-.74-.1-1.68-.52-2.4-.23-.4-.54-1-.94-1.82-.05-.1-.02-.16.1-.15.04 0 .09-.02.12-.06a.13.13 0 0 0 .03-.14 13.62 13.62 0 0 1-1.46-1.69c-.15-.2-.1-.29-.17-.49a.4.4 0 0 0-.11-.17l-1.1-.94a.31.31 0 0 1-.1-.2.8.8 0 0 1 .02-.38c.04-.12 0-.15-.1-.11l-2.1.73Z"/><path d="M25.02 22.86c.88-.66.83-.96.05-1.66-.05-.04-.05-.08 0-.12l.06-.05a.13.13 0 0 1 .08-.03c.03 0 .06 0 .08.03.92.7.94 1.34.08 1.93a.23.23 0 0 1-.1.04l-.12-.01-.1-.04-.04-.02v-.05l.01-.02ZM25.31 26.58a5.2 5.2 0 0 0 3.36-.95c1.45-1.12 1-3.11.12-4.4a.12.12 0 0 1-.02-.07c0-.02 0-.05.02-.07a.17.17 0 0 1 .06-.05.24.24 0 0 1 .09-.03h.1c.04-.01.08 0 .12.01.04.02.06.04.08.07.65 1.39 1.2 2.9.25 4.2-.79 1.08-2.63 1.55-4.25 1.7-.17.02-.25-.03-.24-.17 0-.04.02-.08.04-.12.05-.09.14-.13.27-.12Z" fill="#FF001B"/><path d="M23.64 21.23c.33-.14.62-.18.88-.1.08.02.15.07.2.14.38.47.37.95-.01 1.44-.05.06-.11.1-.18.1L23.4 23c-.04 0-.07 0-.1-.02a.17.17 0 0 1-.07-.08 2.46 2.46 0 0 1-.12-1.77l.04-.07a.17.17 0 0 1 .06-.05.16.16 0 0 1 .14.01c.05.03.1.08.14.15.03.07.08.09.15.06ZM25.13 25.73c3.28-.28 3.92-1.96 3.13-3.6v-.04l.04-.02.12-.04c.14-.05.23-.03.27.06.8 1.83.2 3.51-3.35 3.9h-.1a.23.23 0 0 1-.07-.02l-.13-.08a.1.1 0 0 1-.04-.04v-.05l.06-.04a.22.22 0 0 1 .07-.03ZM22.65 24.57a.27.27 0 0 0 .07-.1.34.34 0 0 0 0-.25.26.26 0 0 0-.06-.1c-.38-.35-.91-.65-1.59-.9-.08-.02-.1-.08-.04-.16.03-.05.06-.06.1-.06.72.1 1.31.47 1.77 1.1a.5.5 0 0 1 .08.17.6.6 0 0 1-.04.4.42.42 0 0 1-.12.15c-.4.3-.71.23-.92-.24-.05-.12-.02-.16.08-.13l.42.16c.1.03.18.02.25-.04Z" fill="#FF001B"/><path d="M34.78 29.4a6.46 6.46 0 0 0-4.37-3.17.08.08 0 0 1-.01-.04v-.1c0-.07.04-.1.1-.09 2.68.57 4.03 2.41 5.49 4.82a.09.09 0 0 1-.01.1l-.05.06a.06.06 0 0 1-.05.02c-.01 0-.03 0-.04-.02l-.77-.88c-.07-.07-.1-.06-.08.05l.06.46c0 .06-.01.1-.07.1l-.08.02c-.02 0-.05 0-.07-.02a.11.11 0 0 1-.04-.06 1.58 1.58 0 0 0-.53-.87c-.3-.25-.35-.2-.15.15.11.2.18.35.2.48.02.08 0 .14-.07.16-.1.04-.18 0-.26-.13a7.85 7.85 0 0 1-.5-.92.1.1 0 0 0-.04-.02.1.1 0 0 0-.05 0 .1.1 0 0 0-.05.03l-.06.08a.13.13 0 0 0-.02.13l.2.55c.29.6.21.68-.23.23-.06-.06-.2-.28-.42-.66-.07-.14-.14-.2-.2-.17-.08.02-.12.08-.1.16l.05.45v.05l-.02.04a.1.1 0 0 1-.04.03l-.04.01h-.1a.13.13 0 0 1-.07-.04.15.15 0 0 1-.05-.08c-.16-.63-.24-1.16-.67-1.35-.07-.03-.1 0-.1.08l.12.85a.08.08 0 0 1-.01.06l-.02.02h-.02l-.07.02a.1.1 0 0 1-.09-.02.14.14 0 0 1-.05-.09 6.76 6.76 0 0 0-1.3-2.9.11.11 0 0 1-.03-.07.1.1 0 0 1 .03-.07l.07-.08c.02-.02.04-.02.06 0 .25.3.5.73.77 1.29.1.23.26.3.44.18a.17.17 0 0 1 .23.05l.04.07c.08.31.15.53.2.65.01.06.04.1.08.12.02.01.05.02.07 0 .03 0 .05-.01.06-.03a.09.09 0 0 0 .03-.05c.03-.22.08-.35.14-.4a.12.12 0 0 1 .09-.03c.03 0 .06.02.08.04.15.2.2.41.16.67-.02.1.02.16.11.16l.17.02c.07 0 .1-.03.1-.11 0-.06-.03-.1-.08-.12a.1.1 0 0 1-.03-.02.11.11 0 0 1-.03-.04.12.12 0 0 1 0-.1c.05-.07.1-.12.18-.15.05-.01.11 0 .17.05a1.83 1.83 0 0 1 .34.37l.02.01h.02l.02-.02c.14-.25.28-.3.42-.2.2.18.46.28.76.32.09.01.1-.02.06-.1Z"/></svg>