<!-- by TradingView --><svg width="56" height="56" viewBox="0 0 56 56" xmlns="http://www.w3.org/2000/svg"><path fill="#F0F3FA" d="M0 0h56v56H0z"/><path fill-rule="evenodd" d="M21 11h15v4h4v4h4v6h-9v-5H21v16h14v-5h9v6h-4v4h-4v4H20v-4h-4v-4h-4V19h4v-4h4v-4h1Zm-8 9v16h3V20h-3Zm7 20h-3v-3h3v3Zm0-4h-3V20h3v16Zm0-17h-3v-3h3v3Zm1-7v3h14v-3H21Zm0 4v3h14v-3H21Zm0 21v3h14v-3H21Zm0 4v3h14v-3H21Zm15-22v-3h3v3h-3Zm0 5v-4h3v4h-3Zm7 0v-4h-3v4h3Zm-7 13v3h3v-3h-3Zm0-1v-4h3v4h-3Zm4 0v-4h3v4h-3Z" fill="#1C1819"/></svg>