<!-- by TradingView --><svg width="56" height="56" viewBox="0 0 56 56" xmlns="http://www.w3.org/2000/svg"><path fill="#F0F3FA" d="M0 0h56v56H0z"/><path d="M20 25.34C20.87 13.9 26.86 10.26 30 10v1.54c-2.22.18-7.75 3.33-8.58 14.25L20 25.34Z" fill="#F21628"/><path d="M22.22 26.12c.43-9.4 5-13.1 7.78-13.78v1.48c-1.75.51-5.95 3.88-6.36 12.8l-1.42-.5Z" fill="#F21628"/><path d="M26.57 18.1A7.74 7.74 0 0 1 30 14.73v1.6c-.43.17-1.25.86-2.13 2.52-.88 1.64-1.75 4.43-2.06 8.15l-1.43-.22c.33-3.9 1.2-6.82 2.2-8.68Z" fill="#F21628"/><path d="M30 17.7v1.87c-.57.36-.65.81-.86 1.42-.45 1.25-.8 3.18-1.01 6.01H26.7c.21-2.93.53-5.13 1.04-6.55.32-.9 1.26-2.59 2.25-2.75ZM36 30.66C35.13 42.1 29.14 45.74 26 46v-1.54c2.22-.18 7.75-3.33 8.58-14.25l1.42.45Z" fill="#F21628"/><path d="M33.78 29.88c-.43 9.4-5 13.1-7.78 13.78v-1.48c1.75-.51 5.95-3.88 6.36-12.8l1.42.5Z" fill="#F21628"/><path d="M29.43 37.9A7.74 7.74 0 0 1 26 41.27v-1.6c.43-.17 1.25-.86 2.13-2.52.88-1.64 1.75-4.43 2.06-8.15l1.43.22c-.33 3.9-1.2 6.82-2.2 8.68Z" fill="#F21628"/><path d="M26 38.3v-1.87c.57-.36.65-.81.86-1.42.45-1.25.8-3.18 1.01-6.01h1.42c-.21 2.93-.53 5.13-1.04 6.55-.32.9-1.26 2.59-2.25 2.75Z" fill="#F21628"/><path d="M30.66 20c11.44.87 15.08 6.86 15.34 10h-1.54c-.18-2.22-3.33-7.75-14.25-8.58l.45-1.42Z"/><path d="M29.88 22.22c9.4.43 13.1 5 13.78 7.78h-1.48c-.51-1.75-3.88-5.95-12.8-6.36l.5-1.42Z"/><path d="M37.9 26.57A7.74 7.74 0 0 1 41.27 30h-1.6c-.17-.43-.86-1.25-2.52-2.13-1.64-.88-4.43-1.75-8.15-2.06l.22-1.43c3.9.33 6.82 1.2 8.68 2.2Z"/><path d="M38.3 30h-1.87c-.36-.57-.81-.65-1.42-.86-1.25-.45-3.18-.8-6.01-1.01V26.7c2.93.21 5.13.53 6.55 1.04.9.32 2.59 1.26 2.75 2.25ZM25.34 36C13.9 35.13 10.26 29.14 10 26h1.54c.18 2.22 3.33 7.75 14.25 8.58L25.34 36Z"/><path d="M26.12 33.78c-9.4-.43-13.1-5-13.78-7.78h1.48c.51 1.75 3.88 5.95 12.8 6.36l-.5 1.42Z"/><path d="M18.1 29.43A7.74 7.74 0 0 1 14.73 26h1.6c.17.43.86 1.25 2.52 2.13 1.64.88 4.43 1.75 8.15 2.06l-.22 1.43c-3.9-.33-6.82-1.2-8.68-2.2Z"/><path d="M17.7 26h1.87c.36.57.81.65 1.42.86 1.25.45 3.18.8 6.01 1.01v1.42c-2.93-.21-5.13-.53-6.55-1.04-.9-.32-2.59-1.26-2.75-2.25Z"/></svg>