<!-- by TradingView --><svg xmlns="http://www.w3.org/2000/svg" width="56" height="56" viewBox="0 0 56 56"><path fill="#F0F3FA" d="M0 0h56v56H0z"/><path d="M26.64 25.73H27v-2.46h-.36l-.49.43c-.49-.55-1.49-.7-1.92-.7A4.3 4.3 0 0 0 20 27.57c0 3.26 2.92 4.43 4.23 4.43 1.04 0 1.83-.49 2.1-.73.2.15.29.45.3.58H27v-2.57h-.36c0 .39-.52 2.27-2.41 2.27-1.9 0-2.23-2.14-2.23-3.98 0-1.84.09-4.13 2.23-4.13 1.7 0 2.32 1.53 2.4 2.3Zm7.47-.04h.5v-2.47h-.29l-.47.53c-.14-.25-.72-.75-1.86-.75a2.5 2.5 0 0 0-2.49 2.48c0 1.28 1.02 2.1 2.85 2.64 1.83.55 1.87 1.42 1.87 1.7s-.18 1.74-2.01 1.74c-1.46 0-2.11-1.54-2.25-2.3h-.46V32h.26l.62-.78c.42.58 1.4.76 1.83.78 1.66 0 2.79-1.15 2.79-2.96 0-1.8-1.62-2.4-3.19-2.84-1.25-.34-1.52-1.06-1.5-1.38 0-1.12 1.12-1.38 1.68-1.37 1.73 0 2.13 1.5 2.12 2.24Zm14.89 0h-.5c0-.74-.28-2.24-2-2.24-.57 0-1.7.25-1.7 1.37-.02.32.26 1.04 1.51 1.38 1.57.43 3.19 1.04 3.19 2.84 0 1.8-1.13 2.96-2.79 2.96-.44-.02-1.41-.2-1.83-.78l-.62.78H44v-2.74h.46c.14.76.79 2.3 2.25 2.3 1.83 0 2.01-1.46 2.01-1.74s-.04-1.15-1.87-1.7S44 26.76 44 25.48A2.5 2.5 0 0 1 46.5 23c1.13 0 1.6.5 1.74.75l.47-.53H49v2.47ZM42 23h-4v.5h1v8h-1v.5h3.98v-.5H41v-8h1V23Zm8 11.5V34H20v.5h30ZM17.74 22.94a7.07 7.07 0 0 0-5.1-2.16A7.18 7.18 0 0 0 5.52 28c0 3.99 3.2 7.22 7.14 7.22 1.99 0 3.8-.83 5.09-2.16a7.63 7.63 0 0 1-6 2.94A7.87 7.87 0 0 1 4 28c0-4.42 3.47-8 7.74-8a7.63 7.63 0 0 1 6 2.94Z" fill="#930C0C"/><path d="M11.22 23.32a5.19 5.19 0 0 0-3.5 2.73l1.35-.35a7.54 7.54 0 0 1 2.81-1.47 21.3 21.3 0 0 1 4-.12l-.4-.46c-.65-.7-2.33-.72-4.26-.33Zm-3.2 4.93c-.48.26-.6.92-.6 1.14l1.83.2c1.47-.76 4.71-2.25 5.92-2.15 1.2.09 2.19 1 2.53 1.45.04-.03.08-.34 0-1.29s-.93-1.6-1.35-1.81c-4.25-.35-6.94 1.52-7.97 2.23-.16.1-.28.2-.36.23Zm1.95 4.52c-.11-.1-.32-.35-.2-.55.13-.26 2.79-2.84 5.29-2.55 2 .24 2.07 1.01 1.85 1.37l-1.17 1.18c.17-.39.1-1.13-1.55-1.05a9.4 9.4 0 0 0-4.22 1.6Z" fill="#6D6C6A"/><path d="M8.82 24.68c.34-.67 1.51-2 3.43-2 1.92 0 2.27 1.33 2.2 2-.66 1.86-2.79 5.8-5.92 6.6-.23-.06-.77-.56-1.12-1.93a5.5 5.5 0 0 0 4.14-2.8c1.35-2.56.62-3.08.14-3.16-.5-.09-1.47-.04-2.87 1.29Zm-.79.79a3.76 3.76 0 0 0-.6 1.79c.02.8 1.73-.6 2.01-.94.23-.26.05-1-.06-1.32a1.56 1.56 0 0 0-1.35.47Zm3.54 8.1-1.8-.87a9.91 9.91 0 0 0 6.27-7.47l.02-.07c.1-.56-.57-1.42-.92-1.77 3.57 2.17 1.64 5.4.35 7.07a14.33 14.33 0 0 1-3.92 3.1Zm1.8-.1c.68-.36 2.23-1.3 2.92-2.18.86-1.11 1.74-2.5.94-4.74.43.28 1.14 1.28.54 2.98a5.6 5.6 0 0 1-4.4 3.94Z" fill="#930C0C"/></svg>