<!-- by TradingView --><svg width="56" height="56" viewBox="0 0 56 56" xmlns="http://www.w3.org/2000/svg"><path fill="#F0F3FA" d="M0 0h56v56H0z"/><path d="M41.92 30h.01c.02.01.02.02 0 .02l-.22.03c-.08 0-.12.05-.13.12-.2 1.76-.4 2.98-.64 3.66-.14.44-.55 1.25-1.21 2.45a12.71 12.71 0 0 1-4.98 5.06c-.78.44-1.76.86-2.94 1.27-.24.08-.83.2-1.78.36-.17.02-.93.03-2.3.03-.9 0-1.66-.07-2.26-.21a13.7 13.7 0 0 1-3.28-1.22.43.43 0 0 0-.57.15c-.32.5-.84 1.63-1.54 1.12-1.01-.72-3.74-1.45-5-1.63-.84-.12-1.9-.1-2.65-.15-.88-.05-.7-1.68-.59-2.36l1.5-9.33a.17.17 0 0 0-.07-.17c-.5-.34-1.12.66-1.46 1.13a.92.92 0 0 1-.53.33.26.26 0 0 1-.23-.04l-.96-.73a.22.22 0 0 1-.07-.09c-.02-.03-.02-.07-.02-.11l.46-3.23a.81.81 0 0 1 .5-.63l4.78-2.06a.3.3 0 0 0 .16-.16 12.85 12.85 0 0 1 2.2-3.47.38.38 0 0 0 .03-.46.38.38 0 0 0-.12-.12l-1.71-.98a.1.1 0 0 1-.05-.08.09.09 0 0 1 .06-.08l6.74-2.58c.06-.02.1-.06.12-.12l2.36-7.53c.07-.25.16-.25.26-.02l2.42 5.51a.25.25 0 0 0 .32.13l7.3-2.8a.21.21 0 0 1 .18.02.6.6 0 0 1 .27.26.13.13 0 0 1-.01.14l-3.51 4.6a.36.36 0 0 0 .15.55c1.6.69 3.09 1.7 4.45 3.02.05.05.1.07.17.05.92-.23 2.21-.44 2.96.08.1.07.18.06.23-.05a.2.2 0 0 1 .1-.1c1.77-.86 3.35-.67 4.75.55a.5.5 0 0 1 .17.4c-.02.44-.06.92-.12 1.45-.03.3-.2.54-.5.7a.23.23 0 0 0-.12.16.23.23 0 0 0 .03.18c1.26 1.82 1.4 3.8-.23 5.38a7.76 7.76 0 0 1-2.88 1.6Z" fill="#0E4A75"/><path d="M35.9 19.87a12 12 0 0 0-5.18-2.76.21.21 0 0 0-.26.14l-.06.2c-.02.07 0 .11.06.13 1.8.42 3.43 1.23 4.89 2.44l-1.6.8a.37.37 0 0 1-.2.04 5.16 5.16 0 0 0-1.98.22L30 21.6l-1.04-3.15c-.01-.04-.04-.07-.1-.07h-2.6c-.34 0-.5-.17-.5-.5v-6.6c0-.31-.06-.32-.15-.02L24 16.31a.37.37 0 0 0 .09.38l1.55 1.54c.07.07.05.1-.04.1l-6.85.23c-.1 0-.1.03-.02.07l3.63 2.08a.4.4 0 0 0 .45-.03l2.64-2.08c.18-.15.23-.11.13.1l-2.74 5.88-.98.29a.1.1 0 0 1-.1-.02.1.1 0 0 1-.04-.1c.11-.65.2-1.32.25-2 .07-.83-.09-1.34-1.05-1.34-.35 0-.62.07-.83.21-.5.36-1.07.64-1.67.85a9.53 9.53 0 0 1 1.86-2.18c.13-.1.11-.19-.04-.25a2.3 2.3 0 0 1-.05-.02.32.32 0 0 0-.4.06c-.82.79-1.53 1.7-2.13 2.74l-1 .51c-.1.05-.12.03-.08-.07a11.98 11.98 0 0 1 2.58-3.55.13.13 0 0 0-.06-.16l-1.67-.95a.06.06 0 0 1-.03-.06.06.06 0 0 1 .03-.04l5.94-2.27a.27.27 0 0 0 .16-.17l2.06-6.58c.02-.08.05-.08.08 0l2.18 4.97c.03.06.07.08.14.06l6.38-2.44c.13-.06.16-.03.07.09l-3.23 4.24c-.04.05-.03.08.03.1 2.1.6 3.95 1.68 5.57 3.22.09.09.07.13-.06.13l-.86.02Z" fill="#F4403B"/><path d="M30 21.6c-.3.07-.52.22-.66.45l-3.5-3.67c-.05-.05-.07-.04-.07.03v3.01c0 .16-.05.3-.14.43l-1.29 1.92-.86.48a.27.27 0 0 0-.13.15c-.06.16-.23.22-.51.18l2.74-5.88c.1-.21.05-.25-.13-.1l-2.64 2.08a.4.4 0 0 1-.45.03l-3.63-2.08c-.08-.04-.07-.07.02-.07l6.85-.23c.1 0 .1-.03.04-.1L24.1 16.7a.37.37 0 0 1-.1-.38l1.62-5.06c.1-.3.14-.3.14.02v6.6c0 .33.17.5.51.5h2.6c.06 0 .09.03.1.07L30 21.6ZM35.9 19.87l-.55.15a11.76 11.76 0 0 0-4.89-2.44c-.06-.02-.08-.06-.06-.12l.06-.21a.2.2 0 0 1 .26-.14 12 12 0 0 1 5.17 2.76Z" fill="#FFBD47"/><path d="m29.34 22.05-.93 1.13c-.5-.37-.98-.42-1.45-.14-.3-.15-.7-.1-1.17.12.1-.08.04-.15-.17-.24a.22.22 0 0 0-.2.02c-.14.08-.18.22-.1.4-.27.19-.6.33-.98.43l1.3-1.92a.77.77 0 0 0 .13-.43v-3.01c0-.07.02-.08.07-.03l3.5 3.67Z" fill="#F4403B"/><path d="M42.73 20.85c-.82.44-.6 1.25 0 1.78.72.65 1.44 1.34 1.67 2.3.17.74.1 1.4-.2 1.97-.73 1.37-2.7 2.23-4.15 2.55a39.05 39.05 0 0 0-8.34 2.67 30.11 30.11 0 0 0-11.87 10.05.09.09 0 0 1-.1 0 9.86 9.86 0 0 0-7.12-1.7c-.23.04-.26-.03-.09-.18 5.27-4.75 11.44-8.6 18.08-10.72a33.35 33.35 0 0 1 6.06-1.38 65 65 0 0 0 3.86-.56c.38-.07.65-.21.82-.42.4-.5.62-1.55-.01-2.02-1.06-.79-1.86-1.39-1.67-2.8a3.1 3.1 0 0 1 4.64-2.2.36.36 0 0 1 .17.34l-.16 1.07c-.02.14-.07.15-.16.04-.57-.73-1.05-1-1.43-.8ZM18.42 22.47l-.76.35c.6-1.04 1.31-1.95 2.13-2.74a.32.32 0 0 1 .4-.06l.05.02c.15.06.17.14.04.25a9.53 9.53 0 0 0-1.86 2.18Z" fill="#FFBD47"/><path d="M29.39 24.99a.1.1 0 0 0 .02.14 10.4 10.4 0 0 1 3.02 3.02.1.1 0 0 1-.03.08.1.1 0 0 1-.04.02l-2.59.74h-.1a.15.15 0 0 1-.08-.07 7.33 7.33 0 0 0-1.51-1.85.15.15 0 0 0-.17.06 18.13 18.13 0 0 0-1.65 3.21.28.28 0 0 1-.14.15l-2.05.99c-.1.04-.13.02-.1-.09a20.62 20.62 0 0 1 2.8-5.2.18.18 0 0 0-.02-.15 12.47 12.47 0 0 0-2.59-1.26c-.15-.05-.15-.11 0-.18l2.25-1.04a.25.25 0 0 1 .25.01l1.34.77c.04.02.08.03.12.02.04 0 .08-.03.11-.07l1.51-1.7c.14-.16.32-.28.52-.36.79-.3 1.62-.55 2.5-.76.27-.06.3-.01.07.15-1.25.88-2.4 2-3.44 3.37ZM14.46 27.32a.08.08 0 0 0-.02-.07.07.07 0 0 0-.08-.01c-.95.4-1.8.82-2.55 1.26-.42.25-.73.53-.93.84-.17.28-.23.26-.18-.07l.46-2.64a.34.34 0 0 1 .2-.25 90.64 90.64 0 0 0 9.31-4.34.1.1 0 0 1 .08.05.1.1 0 0 1 0 .05l-.36 2.59a.04.04 0 0 1-.02.02h-.04c-.25-.25-.39-.36-.75-.18-.16.07-.89.45-2.18 1.11a.3.3 0 0 0-.17.25L15.69 36.6c0 .06-.04.12-.09.16l-3.06 2.56c-.12.1-.17.08-.15-.08l2.07-11.92Z" fill="#FFBD47"/><path d="M28.41 23.18c-.1.17-.2.28-.3.35a.17.17 0 0 1-.18.01l-.97-.5c.47-.28.95-.23 1.45.14ZM25.8 23.16l-.47.18c-.09-.18-.05-.32.1-.4a.22.22 0 0 1 .19-.02c.2.09.26.16.17.24Z" fill="#FFBD47"/><path d="M22.63 40.3a11.76 11.76 0 0 0 12.7-1.35 12.26 12.26 0 0 0 4.55-8.06.35.35 0 0 0-.08-.3l.74-.18a.1.1 0 0 1 .13.07v.05a13.44 13.44 0 0 1-4.47 8.63 12.5 12.5 0 0 1-10.3 2.92 14.18 14.18 0 0 1-3.67-1.19.11.11 0 0 1-.03-.09l.01-.04c.13-.23.27-.38.42-.46Z" fill="#F4403B"/><path d="M39.8 30.6c.07.08.1.18.08.3a12.25 12.25 0 0 1-8.23 10.06c-2.99 1-6 .77-9.02-.66.13-.23.23-.36.3-.41a11.33 11.33 0 0 0 7.77.83c4.66-1.17 7.84-5 8.66-9.7a.6.6 0 0 1 .17-.34.79.79 0 0 1 .27-.08Z" fill="#FFBD47"/><path d="M39.53 30.68a.6.6 0 0 0-.17.34c-.82 4.7-4 8.53-8.66 9.7-2.6.66-5.18.38-7.77-.83.93-1.12 1.95-2.1 3.05-2.95a.21.21 0 0 1 .19-.04c4.01.88 7.55-1.27 8.9-5.05a.28.28 0 0 1 .14-.15c.13-.07.26-.12.4-.16 1.3-.34 2.6-.62 3.92-.86Z" fill="#F4403B"/><path d="M27.24 36.1c.02.03.05.06.09.08.03.02.07.04.12.04l3.1-.03c.03 0 .05-.01.03-.05l-.05-.12c0-.02-.02-.02-.05-.02-1.35.02-2.24.02-2.67.01-.09 0-.21-.03-.37-.1a.93.93 0 0 1 .47-.3l.1.1c.04.02.08.03.13.03h3.27c.05 0 .08-.02.08-.07v-.08l-.01-.03h-.03c-.65-.06-1.6-.07-2.85-.02-.3.02-.37-.08-.22-.29.1-.08.2-.13.32-.17.2.07.35.13.57.13 1-.01 1.99-.02 2.98-.01.02 0 .03-.01.04-.03l.02-.06c.02-.08 0-.11-.09-.12-.94-.03-1.89-.05-2.84-.06-.24 0-.35-.06-.32-.15a.85.85 0 0 1 .27-.14l3.4.03a.1.1 0 0 0 .09-.05.1.1 0 0 0 0-.1l-.03-.06a.04.04 0 0 0-.04-.03h-2.52c-.07 0-.12-.04-.13-.1l-.03-.18a.35.35 0 0 1 .17-.04l2.95.04.05-.01a.08.08 0 0 0 .03-.04l.04-.13c.01-.04 0-.06-.05-.06-.8 0-1.57-.01-2.34-.05-.04 0-.07-.01-.09-.03-.02-.03-.03-.06-.02-.1.15-.1.25-.15.31-.12l2.46.03c.06 0 .08-.03.08-.08v-.07c0-.02 0-.03-.03-.03l-1.8-.03a.13.13 0 0 1-.1-.05.14.14 0 0 1-.03-.12c0-.02.03-.03.07-.05l2.87-1.33a.1.1 0 0 1 .1.02.1.1 0 0 1 .03.11c-1.4 3.4-4.52 5.38-8.26 4.72-.08-.02-.1-.06-.04-.12.2-.23.45-.4.77-.52Z" fill="#FFBD47"/><path d="M31.77 33.21c-.04.02-.06.03-.07.05a.15.15 0 0 0 .03.12.13.13 0 0 0 .1.05l1.8.03c.02 0 .03.01.03.03v.07c0 .05-.02.08-.08.08l-2.46-.03c.2-.2.42-.34.65-.4ZM30.8 33.73c0 .04 0 .07.03.1a41.48 41.48 0 0 0 2.42.08c.05 0 .07.02.06.06l-.04.13-.03.04a.08.08 0 0 1-.05.01l-2.95-.04c.18-.18.37-.3.57-.38ZM30.07 34.15l.03.17c.01.07.06.1.13.1h2.52c.02 0 .03.02.04.04l.03.07a.1.1 0 0 1-.09.14l-3.4-.03.74-.5ZM29.06 34.78c-.03.1.08.14.32.15.95 0 1.9.03 2.84.06.08 0 .11.04.09.12l-.02.06c0 .02-.02.03-.04.03l-2.98.01c-.22 0-.36-.06-.57-.13.1-.12.22-.22.36-.3ZM28.38 35.25c-.15.2-.08.3.22.3a23.95 23.95 0 0 1 2.88.01v.11c0 .05-.02.07-.07.07h-3.27a.22.22 0 0 1-.13-.04.73.73 0 0 1-.1-.09l.47-.36ZM27.44 35.91c.16.07.28.1.37.1.43.01 1.32 0 2.67-.01.03 0 .04 0 .05.02l.05.12c.02.04 0 .05-.04.05l-3.1.03a.19.19 0 0 1-.11-.04.43.43 0 0 1-.1-.09c.04-.08.11-.14.21-.18Z" fill="#F4403B"/><path d="M26.55 17.9c-.15.12-.28.2-.37.25-.22.1-.26.06-.15-.15l1.48-2.7c.04-.07.1-.12.18-.15l4.97-1.87.03.01.03.05c0 .02 0 .03-.02.04-.8.55-2.85 2.05-6.15 4.52ZM27.2 22.81h-1.57c-.09 0-.12-.04-.1-.12l.03-.07a.3.3 0 0 1 .25-.2c.62-.07 1.1.03 1.43.3.07.06.06.1-.04.1Z" fill="#FFBD47"/><path d="m33.66 30-.06-.5c-.02-.1.03-.16.12-.18l.07-.02c.12-.04.18 0 .18.13v1a.17.17 0 0 1-.27.14l-.41-.3c-.16-.13-.23-.09-.2.1.03.23.04.37.02.44a.22.22 0 0 1-.06.09.15.15 0 0 1-.08.04h-.09c-.07-.04-.1-.08-.1-.11l-.13-1.1c-.01-.1.02-.13.1-.14.26-.02.53.13.81.46.09.09.12.07.1-.05ZM31.6 31.15c.16-.14.3-.16.38-.07.08.08.06.14-.03.18l-.7.3c-.09.04-.14.01-.15-.08l-.17-1.26a.12.12 0 0 1 .08-.13l.68-.26c.05-.02.09 0 .1.06l.02.06c.02.09 0 .15-.09.18-.08.04-.17.1-.27.18-.05.03-.08.07-.08.11 0 .03 0 .06.02.09.03.05.08.07.14.04l.2-.07c.09-.04.14 0 .16.08l-.01.08a.1.1 0 0 1-.05.05l-.32.17a.11.11 0 0 0-.05.05.1.1 0 0 0 0 .08l.03.12a.06.06 0 0 0 .08.05l.02-.01ZM29.25 32.08l.05.34c0 .06 0 .12-.04.17a.26.26 0 0 1-.13.1l-.07.03c-.11.05-.18.01-.2-.1l-.17-1.4c-.02-.1.02-.18.12-.21l.19-.07c.08-.03.12 0 .13.07l.04.32c.02.18.07.18.15.02l.25-.57a.37.37 0 0 1 .21-.2l.09-.03h.04c.01 0 .03 0 .04.02a.1.1 0 0 1 .02.04.1.1 0 0 1 0 .05l-.29.9c-.01.05 0 .1.06.13l.4.23c.06.03.07.08.04.15-.13.23-.4.2-.8-.06-.1-.07-.14-.04-.13.07ZM27.43 33.29c.17-.05.3-.2.41-.47.04-.08.08-.09.11 0 .16.37.03.65-.4.84-.62.28-1.1-.26-1-.82.12-.62.46-1.06 1.03-1.31.08-.04.13-.02.15.07l.05.25c.02.09-.02.14-.1.15-.47.05-.7.37-.68.97a.34.34 0 0 0 .43.32ZM25.64 33.72c.1.5.4.99-.2 1.2-.08.02-.13-.01-.16-.1l-.2-1.01c-.1-.5-.4-1 .2-1.2.08-.02.13.01.16.1l.2 1ZM22.75 35.92l.22.76a.09.09 0 0 1-.03.1l-.45.38a.1.1 0 0 1-.1.01.1.1 0 0 1-.05-.07l-.46-2.22a.09.09 0 0 1 .03-.08l.39-.33a.1.1 0 0 1 .08-.01.1.1 0 0 1 .06.06l.21.73a.1.1 0 0 0 .11.06.1.1 0 0 0 .04-.02l.58-.48a.1.1 0 0 0 .03-.09l-.16-.74a.09.09 0 0 1 .04-.08l.24-.2a.1.1 0 0 1 .12 0l.02.04.57 1.95a.09.09 0 0 1-.03.1l-.36.3a.1.1 0 0 1-.1.02.1.1 0 0 1-.05-.07l-.14-.7a.09.09 0 0 0-.06-.06.1.1 0 0 0-.09.02l-.63.53a.09.09 0 0 0-.03.09ZM19.56 37.92c0 .5.4.6.78.43.18-.08.38-.3.6-.67.05-.08.1-.08.13 0 .36.74-.05.98-.55 1.38-.35.28-.77.45-1.18.14-1.3-1 .05-2.91 1.13-3.46.07-.03.12-.01.14.06l.15.53c.03.09 0 .14-.1.15-.74.15-1.11.63-1.1 1.44Z" fill="#0E4A75"/><path fill-rule="evenodd" d="M36.06 27.01v.05l-.02.15c-.02.1.02.15.13.14l1.97-.26c.08 0 .13-.05.14-.13l1.2-6.9c0-.04-.02-.07-.07-.06l-1.89.24a.29.29 0 0 0-.23.19.53.53 0 0 1-.1.16.16.16 0 0 1-.17.05c-1.59-.49-3.18.64-4.1 1.85a4.68 4.68 0 0 0-.94 3.23c.18 2.59 2.3 2.65 3.96 1.27a.07.07 0 0 1 .12.02Zm.7-5.55c-1.02-.28-1.8 1.3-2.06 2.08l-.02.07c-.32 1-.6 1.91-.07 2.75.06.1.16.17.28.2.11.02.24 0 .34-.07.65-.41 1.13-.91 1.23-1.78.04-.26.2-1.24.5-2.94a.27.27 0 0 0-.05-.2.27.27 0 0 0-.16-.11ZM20.02 31.34l-.02-.02c-.26-.3-.25-.53.04-.7l4.24-2.48a.21.21 0 0 0 .1-.15c.15-.78.28-2.29-.55-2.76-1.09-.62-2.57.14-3.48.89a8.17 8.17 0 0 0-2.85 4.66c-.1.48-.09.93.04 1.36.94 3 4.16.74 5.51-.59.23-.22.39-.51.49-.87l.42-1.47c.08-.27.03-.3-.16-.09l-.06.07a7.35 7.35 0 0 1-2.8 2.29c-.37.15-.68.1-.92-.14Zm-.11-1.92 2.12-1.21c.07-.04.1-.1.12-.17.04-.36.01-.68-.08-.95a.52.52 0 0 0-.61-.34c-1.2.27-1.52 1.55-1.65 2.6a.07.07 0 0 0 .03.07.07.07 0 0 0 .07 0Z" fill="#FFBD47"/></svg>