<!-- by TradingView --><svg width="56" height="56" viewBox="0 0 56 56" xmlns="http://www.w3.org/2000/svg"><path fill="#F0F3FA" d="M0 0h56v56H0z"/><path d="M44 35v.96c0 1.04-.58 2-1.51 2.52l-12.64 7.04a3.82 3.82 0 0 1-3.7 0L13.5 38.48A2.9 2.9 0 0 1 12 35.96v-.34c1.87-.14 4.4-.27 7.12-.27 2.44 0 4.02.23 5.78.5 2.18.31 4.64.67 9.35.67 5.57 0 8.53-.86 9.75-1.52Z" fill="#FA9930"/><path d="M19.94 20.3c-4.71 0-7.03 1.5-7.94 2.7v-.39c1.34-1.92 4.48-3.75 6-4.47-1.88-.7-4.5 1.36-6 2.93v-.82c0-1 .54-1.92 1.42-2.42l13.2-7.47a2.8 2.8 0 0 1 2.76 0L33 12.42A26.05 26.05 0 0 1 23 16.07c0 .31.22.93 1.1.93 1 0 7.5-1.06 10.44-3.71l4.27 2.41c-4.33 3.26-12.36 3.17-12.81 3.13 0 .75 1.01 1.17 4.86 1.17 4.46 0 8.48-1.85 10.28-2.98l1.44.81c.88.5 1.42 1.43 1.42 2.42v1.14h-7.5c-2.1 0-4.15-.22-6.43-.46-2.86-.3-6.06-.64-10.13-.64Z" fill="#009E87"/><path d="M30.2 26.64c-.06-.7-.73-1.1-1.63-1.1-.6 0-1.42.25-1.42.99-.02.5.44.77.86.93.17.06.35.11.54.15l.8.2c1.33.29 2.64 1.05 2.65 2.56-.01 1.88-1.8 2.63-3.44 2.63-1.81 0-3.51-1-3.56-3h1.81c.06.93.9 1.45 1.73 1.45.66 0 1.46-.28 1.46-1.08 0-.58-.41-.86-1.4-1.1l-.96-.23c-1.22-.3-2.41-1-2.4-2.39C25.21 24.86 27 24 28.58 24c1.6 0 3.38.86 3.41 2.64h-1.8ZM23 27h-1.9c-.14-.97-.97-1.36-1.92-1.36-1.59 0-2.27 1.45-2.27 2.86 0 1.42.66 2.86 2.26 2.86.93 0 1.75-.42 1.93-1.37L23 30c-.24 1.93-2.01 3-3.86 3-2.57 0-4.14-2.04-4.14-4.5 0-2.45 1.58-4.5 4.14-4.5 1.94 0 3.62 1 3.86 3ZM34 24v9h2v-7.44h1.14c.83 0 1.61.37 1.61 1.38 0 1-.78 1.34-1.6 1.34h-.45v.63L38.93 33H41l-1.88-3.5.08-.03a2.68 2.68 0 0 0 1.48-2.53c0-1.95-1.51-2.94-3.18-2.94H34Z" fill="#025A62"/></svg>