<!-- by TradingView --><svg width="56" height="56" viewBox="0 0 56 56" xmlns="http://www.w3.org/2000/svg"><path fill="#F0F3FA" d="M0 0h56v56H0z"/><path d="M18.8 17 32 22.98c-4.06-.47-10 1.83-10 9.14A8.25 8.25 0 0 0 30.05 41c1.74 0 4.02-.52 4.95-.74-1.21.92-4.76 2.74-9.3 2.74C18.35 43 11 36.63 11 28.74c0-6.31 5.2-10.46 7.8-11.74Z" fill="navy"/><path d="m36.03 37.32 1.76.68C40.37 36.74 45 32.95 45 26.76 45 19 37.5 13 30.19 13c-1.32 0-2.55.18-3.67.45 1.31-.05 3.18-.1 4.24-.1 5.09 0 12.8 4.39 12.8 12.8 0 6.36-4.75 9.96-7.53 11.17Zm-1.92-.76c4.07-1.6 7.89-5.29 7.89-10.79 0-8.36-7.73-11.6-12.84-12.15-.42-.05-1.88-.07-2.95-.09-.81.22-1.55.49-2.22.77.34-.05.67-.08 1-.11.45-.04 2.86-.06 3.3-.06 7.09-.02 12.15 4.69 12.15 11.39 0 5.94-5.2 9.31-8.06 10.37l1.73.67Zm-7.6-22.13H23.7c-.58.26-1.08.53-1.51.77.85-.3 1.95-.43 4.86-.43 2.55 0 10.36 2.08 10.36 10.43 0 5.76-5.13 8.37-8.76 9.23l1.93.75c5.56-1.7 8.43-5.64 8.43-9.66 0-8.14-7-10.93-12.49-11.09Zm-.26 19.06c3.32-.5 9.31-2.86 9.31-8.71 0-7.6-7.91-10.33-12.2-9.7-.34.06-1.15.26-1.6.38-.31.2-.57.37-.76.51.92-.21 2.87-.6 4.6-.6 2.15 0 8.4 2.23 8.4 8.8 0 6.58-5.4 8.49-9.89 8.49l2.14.83Z" fill="navy"/></svg>