<!-- by TradingView --><svg xmlns="http://www.w3.org/2000/svg" width="56" height="56" viewBox="0 0 56 56"><path fill="#F0F3FA" d="M0 0h56v56H0z"/><path fill-rule="evenodd" d="M6 32l9.6-5.08c2.27-3.6 10.67-11.63 24.4-14.13v2.53c-4.29 1.06-14.47 4.59-19.27 9.4 7.23-2.45 22.54-6.85 25.86-4.88 4.15 2.48-6.96 9.9-11.3 11.99a129.05 129.05 0 0 1-10.54 4.31h-7.92c-.72-.44-2.17-1.77-2.17-3.55 0-1.78.19-3.54.28-4.2L6 32zm12.67-5.23c7.08-2.7 22.25-7.65 26.22-5.79.7.45.88 2.22-4.89 5.78v-3.3c-4.46 2.87-14.93 8.46-20.4 7.8-1 0-2.92-.35-2.72-1.8a3.93 3.93 0 0 1 1.79-2.69z" fill="#0B593F"/><path fill="#0E2841" d="M14 36h28v5H14z"/></svg>