<!-- by TradingView --><svg width="56" height="56" viewBox="0 0 56 56" xmlns="http://www.w3.org/2000/svg"><path fill="#181B1E" d="M0 0h56v56H0z"/><path d="M4 23h2v10H4V23ZM12 25H9v-2h8v2h-3v8h-2v-8ZM21.13 29.9c.69.7 1.75 1.3 3.09 1.3 1.13 0 1.78-.54 1.78-1.09 0-.72-.94-.97-2.06-1.23-1.58-.36-3.62-.8-3.62-2.96 0-1.61 1.4-2.92 3.68-2.92a5.4 5.4 0 0 1 3.78 1.35l-1.15 1.5a4.14 4.14 0 0 0-2.78-1.05c-.93 0-1.42.4-1.42.99 0 .65.81.85 1.93 1.11 1.6.37 3.64.85 3.64 3 0 1.76-1.27 3.1-3.88 3.1A5.6 5.6 0 0 1 20 31.46l1.13-1.57ZM43 28c0-2.97 2.2-5 4.97-5A4.36 4.36 0 0 1 52 25.36l-1.73 1.05a2.59 2.59 0 0 0-2.3-1.41A2.88 2.88 0 0 0 45 28c0 1.83 1.32 3 2.97 3 1.05 0 1.9-.6 2.3-1.4L52 30.61A4.38 4.38 0 0 1 47.97 33 4.84 4.84 0 0 1 43 28Z" fill="#fff"/><path d="M40 27s-.65 1.96-2.89 2H31s.73-1.97 2.81-2H40ZM40 23s-.65 1.96-2.89 2H31s.73-1.97 2.81-2H40ZM40 31s-.65 1.96-2.89 2H31s.73-1.97 2.81-2H40Z" fill="#EE3726"/></svg>