<!-- by TradingView --><svg width="56" height="56" viewBox="0 0 56 56" xmlns="http://www.w3.org/2000/svg"><path fill="#F0F3FA" d="M0 0h56v56H0z"/><path d="M42 30.21c0 .54-.8.75-1.2.79 0-.18-.25-.34-.38-.4l-18.4-3.88a7.88 7.88 0 0 1-5.41-4.26l-4.51-9.15c-.4-.8.46-1.63 1.21-1.18 7.97 4.79 20.76 12.5 23.41 14.15 3.7 2.3 5.28 3.26 5.28 3.93Z" fill="#4AC0EE"/><path d="M42.2 36.76 29.42 44c-.4-.21-1.3-1.23-1.7-1.72l-3.36-4.62a1.93 1.93 0 0 1 1.24-3.02c5.94-1.12 14.1-2.7 15.54-3.03 1.71-.39 1.74-1.23 1.54-1.61.43.29 1.31 1.33 1.31 3.22a4.4 4.4 0 0 1-1.8 3.54Z" fill="#007DC6"/></svg>