<!-- by TradingView --><svg width="56" height="56" viewBox="0 0 56 56" xmlns="http://www.w3.org/2000/svg"><path fill="#F0F3FA" d="M0 0h56v56H0z"/><path d="M43 22h2v7h-1.67L41 25.38V29h-2v-7h1.65L43 25.63V22ZM34.5 29c-2 0-3.5-1.5-3.5-3.5s1.49-3.5 3.5-3.5c2 0 3.5 1.5 3.5 3.5S36.5 29 34.5 29Zm0-1.67c.93 0 1.5-.6 1.5-1.83 0-1.25-.56-1.83-1.5-1.83s-1.5.58-1.5 1.83c0 1.24.56 1.83 1.5 1.83ZM30 29h-1.93l-.27-3.2-1.17 3.2h-1.25l-1.18-3.2-.27 3.2H22l.6-7h1.8l1.6 4.35L27.6 22h1.8l.6 7ZM11 29v-7h2v7h-2ZM6.71 22c2 0 3.29 1.56 3.29 3.5S8.71 29 6.71 29H4v-7h2.71Zm0 5.5c.89 0 1.29-.73 1.29-2 0-1.24-.36-2-1.29-2H6v4h.71ZM48.71 22c2 0 3.29 1.56 3.29 3.5S50.71 29 48.71 29H46v-7h2.71Zm0 5.5c.89 0 1.29-.73 1.29-2 0-1.24-.36-2-1.29-2H48v4h.71ZM18.95 29H21l-2.4-7h-2.2L14 29h2.05l1.45-4.68L18.95 29ZM37.59 30A3.38 3.38 0 0 1 41 33.5c0 1.96-1.42 3.5-3.41 3.5H35v-7h2.59Zm.22 6c1.43 0 2.19-1.18 2.19-2.5s-.76-2.5-2.19-2.5H36v5h1.81ZM33 30h1v7h-1.04l-3.95-4.97V37H28v-7h1l4 5v-5ZM16 36h4v1h-5v-7h1v6ZM25.9 37H27l-2.41-7h-1.18L21 37h1.1l1.9-5.52L25.9 37Z" fill="#002154"/></svg>