<!-- by TradingView --><svg width="56" height="56" viewBox="0 0 56 56" xmlns="http://www.w3.org/2000/svg"><path fill="#F0F3FA" d="M0 0h56v56H0z"/><path d="m18 29 5.58-4.59c.14-.14.42-.58.42-1.22 0-.8-.56-1.19-1.11-1.19h-3.9c-.46.03-1.42.15-1.56.31l-.06.07c-.3.33-1.37 1.47-1.37 4.33 0 3.1 1.08 5.93 3.3 8.9-.8.4-2.63 1.63-3.6 3.39-1.57-1.63-4.7-6.18-4.7-11.35v-8.14A2.5 2.5 0 0 1 13.5 17h10.05A5.6 5.6 0 0 1 28 22.66c0 2.43-2.19 4.57-4.48 6.09L26.27 32h.97l8.13-14.53a.93.93 0 0 1 1.6 0l9.97 17.8a.5.5 0 0 1-.44.73H29.94l-2.06 4H23l2.24-4h-1.32L18 29.04h.03L18 29Zm17 3h5l-4-7-4 7h3Z" fill="url(#a)"/><path d="M18.48 38.48c-1.07 1.08-2.15 1.73-2.42 1.46s.38-1.35 1.46-2.42c1.07-1.08 2.15-1.73 2.42-1.46s-.38 1.35-1.46 2.42Z" fill="#0B2E7D"/><path d="M22.12 40.51c-.22.23-.52.33-.58.27-.05-.06.05-.32.27-.55.23-.22.49-.32.55-.26.05.05-.01.32-.24.54Z" fill="#3E8C48"/><path d="M20.94 40.8c-.22.22-.52.32-.58.26-.05-.05.04-.32.27-.54.22-.23.49-.33.54-.27.06.06 0 .32-.23.55Z" fill="#54709B"/><path d="M20.52 41.98c-.22.23-.52.32-.58.27-.05-.06.05-.32.27-.55.22-.22.49-.32.54-.26.06.05 0 .32-.23.54Z" fill="#9B100E"/><path d="m23.54 41.77-1.42-1.42-.2.2 1.43 1.42a.2.2 0 1 0 .2-.2ZM22.6 42.29l-1.63-1.6-.2.2 1.63 1.6a.2.2 0 1 0 .2-.2ZM22.37 43.58l-1.85-1.74-.2.2 1.86 1.74v.01a.2.2 0 1 0 .2-.2Z" fill="#4C95CF"/><path d="m21.45 40.6-3.04-3.08.8-.78 3.03 3.07-.8.78Z" fill="url(#b)"/><path d="m20.24 40.95-2.79-2.77.8-.79 2.79 2.77-.8.79Z" fill="url(#c)"/><path d="M19.82 42.07 16.8 39l.8-.79 3.03 3.07-.8.79Z" fill="url(#d)"/><defs><linearGradient id="a" x1="46.08" y1="34.79" x2="11" y2="34.79" gradientUnits="userSpaceOnUse"><stop stop-color="#1662A1"/><stop offset="1" stop-color="#0A2979"/></linearGradient><linearGradient id="b" x1="20.87" y1="38.49" x2="20.1" y2="39.22" gradientUnits="userSpaceOnUse"><stop stop-color="#98C879"/><stop offset="1" stop-color="#0B6A2C"/></linearGradient><linearGradient id="c" x1="19.75" y1="39.01" x2="19.04" y2="39.7" gradientUnits="userSpaceOnUse"><stop stop-color="#B8EAFA"/><stop offset="1" stop-color="#121F5B"/></linearGradient><linearGradient id="d" x1="19.24" y1="39.96" x2="18.48" y2="40.7" gradientUnits="userSpaceOnUse"><stop stop-color="#E23734"/><stop offset="1" stop-color="#810100"/></linearGradient></defs></svg>