<!-- by TradingView --><svg width="56" height="56" viewBox="0 0 56 56" xmlns="http://www.w3.org/2000/svg"><path fill="#F0F3FA" d="M0 0h56v56H0z"/><path d="M4 28c0-3.06 2.37-5 5.29-5H52v5c0 3.06-2.37 5-5.29 5H4v-5Z" fill="#009795"/><path d="M4 32v1h42.85c1.18 0 2.27-.37 3.15-1H4Z" fill="#EC212A"/><path fill-rule="evenodd" d="M34 30a2 2 0 1 0 0-4 2 2 0 0 0 0 4Zm0-1a1 1 0 1 0 0-2 1 1 0 0 0 0 2ZM21.02 29.72A2 2 0 1 1 22 28v1.6c0 .22-.22.4-.5.4-.22 0-.41-.12-.48-.28ZM21 28a1 1 0 1 1-2 0 1 1 0 0 1 2 0Z" fill="#fff"/><path d="M39 26c-1.1 0-2 .64-2 1.77v1.76c0 .26.2.47.45.47.26 0 .55-.2.55-.47v-1.68c0-.7.4-1.1 1-1.1s1 .4 1 1.1v1.68c0 .26.3.47.55.47.25 0 .45-.2.45-.47v-1.76c0-1.13-.9-1.77-2-1.77ZM10.3 26.03c-.24.08-.36.32-.27.54l1.16 2.94c.24.62 1.17.66 1.47.06l.84-1.45.84 1.45c.3.6 1.23.56 1.47-.06l1.16-2.94c.09-.22-.03-.46-.27-.54a.46.46 0 0 0-.57.25L15 28.87l-1-1.99a.55.55 0 0 0-.5-.3c-.22 0-.41.12-.5.3l-1 1.99-1.13-2.6a.46.46 0 0 0-.57-.24ZM23.5 25c-.26 0-.5.2-.5.44v3.58c0 .54.46.98 1.04.98h.36c.33 0 .6-.04.83-.12.24-.08.35-.41.2-.62-.14-.2-.36-.2-.62-.16l-.41.02-.3-.04a.1.1 0 0 1-.1-.1V27h1.5a.5.5 0 0 0 0-1H24v-.6c0-.24-.24-.4-.5-.4ZM28.44 26h1.73c.26 0 .47.26.47.5s-.21.5-.47.5h-1.7c-.2.01-.47-.04-.47.2 0 .35 1.04.4 1.26.41.34.04.68.06 1 .17.43.16.74.5.74.93 0 .87-.74 1.29-1.61 1.29h-1.92c-.26 0-.47-.26-.47-.5s.2-.5.47-.5h1.92c.36 0 .61.09.61-.29 0-.23-.56-.22-.7-.23-.86-.09-2.3-.24-2.3-1.29 0-.71.71-1.15 1.43-1.19h.01ZM43.44 26h1.73c.26 0 .47.26.47.5s-.21.5-.47.5h-1.7c-.2.01-.47-.04-.47.2 0 .35 1.04.4 1.26.41.34.04.68.06 1 .17.43.16.74.5.74.93 0 .87-.74 1.29-1.61 1.29h-1.92c-.26 0-.47-.26-.47-.5s.2-.5.47-.5h1.92c.36 0 .61.09.61-.29 0-.23-.56-.22-.7-.23-.86-.09-2.3-.24-2.3-1.29 0-.71.71-1.15 1.43-1.19h.01Z" fill="#fff"/></svg>