<!-- by TradingView --><svg width="56" height="56" viewBox="0 0 56 56" xmlns="http://www.w3.org/2000/svg"><path fill="#F0F3FA" d="M0 0h56v56H0z"/><path d="M11.77 24.71a46.24 46.24 0 0 0 1.37.74 304.9 304.9 0 0 0 6.07 3.28 7.07 7.07 0 0 1 .6.34l1.8.94c.06.04.12.03.16-.02.43-.49.93-.9 1.5-1.21.98-.54 2.05-.9 3.22-1.05 1.11-.16 2.24-.13 3.37.08 1.35.25 2.47.73 3.38 1.44.36.29.67.63.94 1.04.13.2.22.41.28.65.05.17.06.42.05.73 0 .02-.02.03-.04.04a439.11 439.11 0 0 1-4.68.6l-1.76.2c-.08.02-.19.02-.3 0a178.55 178.55 0 0 0-3.46-.43l-6.4-.79-.52-.06A8906.1 8906.1 0 0 1 10 30.3c.09-.7.22-1.4.38-2.1a16.46 16.46 0 0 1 1.3-3.46c.02-.04.05-.05.09-.03Zm32.5.03c.6 1.1 1.02 2.17 1.29 3.22.2.8.35 1.57.44 2.32 0 .02 0 .03-.03.04l-10.94 1.32s-.02 0-.03-.02a.04.04 0 0 1 0-.03c.06-.28.06-.55 0-.82a2.58 2.58 0 0 0-.33-.75c-.01-.03-.01-.04.01-.06l.3-.18c.65-.36 1.43-.8 2.35-1.28a2448.18 2448.18 0 0 0 6.95-3.76Zm-3.3-4.49c.02-.02.04-.02.06 0a16.49 16.49 0 0 1 2.9 3.8 356.87 356.87 0 0 0-9.6 5.29h-.05a5.34 5.34 0 0 0-1.2-1 661.8 661.8 0 0 1 7.88-8.09Zm-25.94-.01a4.53 4.53 0 0 0 .36.33 273.28 273.28 0 0 0 2.34 2.35l.58.6a215 215 0 0 1 4.57 4.7 6.11 6.11 0 0 0-1.3 1.02l-9.48-5.18c-.02-.01-.03-.03-.02-.06l.06-.12c.4-.7.84-1.34 1.3-1.92a20.6 20.6 0 0 1 1.53-1.72c.02-.02.04-.02.06 0Zm20.29-3.84a20.3 20.3 0 0 1 4 2.35c.56.43.94.76 1.17.98v.04c-.33.32-.83.82-1.49 1.5-.55.58-.96 1-1.23 1.26a83.96 83.96 0 0 0-2.03 2.09 285.47 285.47 0 0 0-3.26 3.37l-.38-.18a7.2 7.2 0 0 0-1.34-.47c-.02-.01-.02-.02-.02-.05l.53-1.29a1083.31 1083.31 0 0 1 4.05-9.6Zm-14.52 0 4.53 10.83c.01.03 0 .04-.02.05-.59.13-1.16.33-1.71.59-.04.01-.07 0-.1-.02l-2.52-2.61-.12-.12a283.26 283.26 0 0 0-4.65-4.71l-.66-.67c-.02-.02-.02-.04 0-.06a17.22 17.22 0 0 1 5.25-3.28Zm7.53-1.4a18.06 18.06 0 0 1 6.2 1.16l-.03.07a845.29 845.29 0 0 0-4.4 10.94c0 .02-.02.02-.03.02a9.99 9.99 0 0 0-1.75-.18c-.02 0-.03-.01-.03-.03V15.04c0-.02.02-.04.04-.04Zm-.67 0c.02 0 .02 0 .02.02v10.5c0 .4 0 .88-.04 1.44 0 .03 0 .04-.03.04-.51 0-1.02.05-1.54.16-.04 0-.08-.01-.1-.05l-4.41-11.02.01-.03.13-.05c1.94-.65 3.93-.98 5.96-1.01ZM45.94 33c.04 0 .06.02.06.06v3.88c0 .04-.02.06-.06.06H10.06c-.04 0-.06-.02-.06-.06v-3.88c0-.04.02-.06.06-.06h35.88ZM12.1 34a.1.1 0 0 0-.07.02.07.07 0 0 0-.03.05v1.85c0 .03 0 .04.03.06a.1.1 0 0 0 .06.02h.78c.31 0 .58-.09.8-.27.22-.18.33-.4.33-.64v-.17a.8.8 0 0 0-.33-.65 1.23 1.23 0 0 0-.8-.27h-.77Zm5.7 0c-.01 0-.02 0-.03.02l-.94 1.94v.02l.03.01h.3l.03-.01.23-.48c0-.01.01-.02.03-.02h1.04c.02 0 .03 0 .03.02l.24.48c0 .01.01.02.03.02h.33l.03-.01v-.03l-.94-1.94-.03-.02h-.38Zm5.89 0c-.04 0-.06.02-.07.05v1.33c0 .01 0 .02-.02.02h-.03c-.4-.43-.76-.87-1.12-1.31-.04-.05-.08-.08-.12-.08h-.3c-.02 0-.03.01-.03.03v1.91c0 .03.02.05.06.05h.27c.04 0 .06-.01.06-.04v-1.42h.01l1.21 1.43h.01c.02.02.07.03.14.03l.2-.01c.03 0 .04-.02.04-.03v-1.92c0-.02-.02-.04-.06-.04h-.25Zm4.12 0c-.04 0-.06.01-.07.04l-.93 1.92V36H27.12c.03 0 .06 0 .07-.03l.21-.44.03-.03h1.02c.03 0 .06 0 .07.03l.21.44c.01.03.04.04.08.04h.3l.02-.01v-.03l-.94-1.93c0-.02-.02-.03-.05-.03h-.32Zm4.22.01c-.02 0-.03 0-.03.02v1.94c0 .02.02.03.05.03h.34c.03 0 .05-.01.05-.04v-.7s.01-.02.03-.01h.07a7 7 0 0 0 .52 0c.2-.01.36-.04.49-.09.3-.11.45-.3.45-.57 0-.19-.1-.34-.28-.45a1.52 1.52 0 0 0-.53-.13h-1.16Zm5.8-.01c-.03 0-.06.01-.07.04l-.94 1.92v.02l.04.02h.26c.04 0 .06-.02.07-.05l.22-.44.02-.02.14-.01h.89c.03 0 .06.02.07.04l.21.44c.01.03.04.04.08.04h.3l.02-.01v-.03l-.93-1.93c-.01-.02-.03-.03-.06-.03h-.32Zm5.41 0c-.23 0-.44.04-.63.12a1 1 0 0 0-.44.33.9.9 0 0 0-.17.56c0 .22.06.4.18.56.1.14.26.25.46.32.18.07.4.11.63.11.23 0 .47-.04.7-.1.02-.01.03-.02.03-.04l-.03-.2c0-.01-.01-.02-.03-.01a1.7 1.7 0 0 1-.58.12c-.22.01-.4-.02-.56-.1-.26-.13-.39-.35-.39-.66 0-.32.12-.54.37-.67.15-.08.34-.12.56-.11.2 0 .4.04.58.11.02 0 .03 0 .03-.02l.03-.2c0-.01 0-.02-.03-.03-.24-.06-.48-.1-.7-.09Zm-30.44.23c.22 0 .4.06.55.18.15.13.23.28.23.45v.28c0 .17-.07.32-.22.45a.82.82 0 0 1-.55.19h-.37c-.03 0-.05-.01-.05-.04v-1.47c0-.03.01-.04.04-.04h.37Zm15.15.13c.02 0 .03 0 .03.02l.4.84-.01.03-.03.01h-.78l-.03-.01v-.03l.39-.84c0-.02.01-.02.03-.02Zm-9.98 0h.02l.4.87c.02.02 0 .03-.01.03h-.81c-.03 0-.04-.01-.03-.03l.4-.86.03-.01Zm20 0c.02 0 .03 0 .03.02l.4.84v.03H37.53v-.03l.4-.84.03-.02Zm-4.96-.13a.7.7 0 0 1 .39.11c.1.07.16.16.16.26v.05c0 .1-.05.19-.16.26a.7.7 0 0 1-.4.1h-.53c-.02 0-.03 0-.03-.02v-.73c0-.02.01-.03.03-.03h.54Z" fill="#B9B801"/></svg>