<!-- by TradingView --><svg width="56" height="56" viewBox="0 0 56 56" xmlns="http://www.w3.org/2000/svg"><path fill="#F0F3FA" d="M0 0h56v56H0z"/><path d="M33 27v5.24c0 1.64-.58 2.76-2.42 2.76-2.3 0-2.58-1.44-2.58-3.36V27h2v5.88c0 .24.11.8.49.8.41 0 .51-.64.51-.9V27h2ZM27 30h-2v-.7c0-.3-.04-1-.5-1-.42 0-.5.6-.5.87v3.69c0 .28.09.84.5.84.45 0 .5-.6.5-.9V32h-.54v-1H27v4h-1.35l-.2-.71c-.3.47-.74.71-1.35.71-1.7 0-2.1-1.4-2.1-2.8v-2.27c0-1.69.5-2.93 2.43-2.93 1.75 0 2.57.99 2.57 2.66V30ZM21 27v8h-1.96L18 32v3h-2v-8h1.87L19 30.5V27h2ZM39 27v8h-1.96L36 32v3h-2v-8h1.87L37 30.5V27h2ZM51 27v8h-1.96L48 32v3h-2v-8h1.87L49 30.5V27h2ZM13.87 27 15 35h-2.03l-.1-1.44h-.7L12.05 35H10l1-8h2.87Zm-1.05 5-.3-3.21-.38 3.21h.68ZM43.87 27 45 35h-2.03l-.1-1.44h-.7L42.05 35H40l1-8h2.87Zm-1.05 5-.3-3.21-.38 3.21h.68ZM5 27h2.14c1.78 0 2.7.56 2.7 2.28 0 .78-.26 1.21-1.12 1.4.98.22 1.28.83 1.28 1.7v.74C10 34.77 9.15 35 7.48 35H5v-8Zm2 1v2h.51c.21 0 .35-.05.4-.15A3 3 0 0 0 8 28.9c0-.22 0-.77-.26-.86A5.63 5.63 0 0 0 7 28Zm0 3.62V34c.3-.01.8-.06.87-.14.09-.08.13-.28.13-.6v-.9c0-.34-.04-.55-.11-.62a2.7 2.7 0 0 0-.89-.12ZM39 22.66c0 1.7-.2 3.34-2.5 3.34S34 24.35 34 22.66v-1.32c0-1.7.2-3.34 2.5-3.34s2.5 1.65 2.5 3.34v1.32Zm-2-2.53c0-.26-.09-.83-.48-.83-.41 0-.52.56-.52.83v3.59c0 .28.05.98.5.98.46 0 .5-.76.5-1.04v-3.53ZM28 18h2.02c1.86 0 2.98.53 2.98 2.24v.7c0 1.65-1.42 2.06-3 2.06v3h-2v-8Zm2 1.37v2.03c.63.04 1-.04 1-.78v-.65c0-.5-.47-.6-1-.6ZM17 18h1.62c1.04 0 1.74.05 2.1.14.38.1.66.24.85.45.2.21.31.45.36.71.05.26.07.76.07 1.52v2.8c0 .72-.04 1.2-.1 1.45-.08.24-.2.43-.37.56a1.6 1.6 0 0 1-.65.3c-.25.04-.64.07-1.16.07H17v-8Zm2 1.37v5.26c.31 0 .82-.06.9-.18.06-.12.1-.45.1-.98v-3.1c0-.37-.01-.6-.04-.7a.32.32 0 0 0-.16-.23 3.36 3.36 0 0 0-.8-.07ZM23 18h4v1.6h-2V21h1.5v1.52H25v1.88h2V26h-4v-8Z" fill="#FF001B"/></svg>