<!-- by TradingView --><svg width="56" height="56" viewBox="0 0 56 56" xmlns="http://www.w3.org/2000/svg"><path fill="#F0F3FA" d="M0 0h56v56H0z"/><path d="M13 33c1.58 6.87 7.7 12 15 12s13.42-5.13 15-12H13ZM26.01 25.34c.42-.15.87-.25 1.33-.3L25.66 11c-1.34.17-2.62.5-3.85.94l4.2 13.4Zm-8.08-11.4 7.13 11.83c-.39.22-.75.48-1.08.77L14.93 16.5c.9-.96 1.9-1.81 3-2.55Zm-5.54 5.96a17.96 17.96 0 0 0-1.54 3.48l11.62 5.29a6 6 0 0 1 .79-1.35L12.39 19.9Zm9.72 9.95-12.06-2.3a18.37 18.37 0 0 0 .07 3.45H22c0-.4.04-.78.11-1.15ZM30.44 11l-1.68 14.04c.43.05.84.15 1.23.29l4.2-13.4c-1.2-.43-2.45-.75-3.75-.93Zm7.64 2.93-7.13 11.83c.38.22.74.48 1.07.77l9.05-10.05a18.1 18.1 0 0 0-3-2.55Zm5.53 5.97-10.87 7.41a6 6 0 0 1 .8 1.35l11.6-5.29c-.38-1.22-.9-2.38-1.53-3.47Zm2.34 7.64-12.06 2.3c.07.37.11.76.11 1.15h11.88a18.27 18.27 0 0 0 .07-3.45Z" fill="#FF870F"/></svg>