<!-- by TradingView --><svg width="56" height="56" viewBox="0 0 56 56" xmlns="http://www.w3.org/2000/svg"><path fill="#F0F3FA" d="M0 0h56v56H0z"/><path fill="#497D40" d="M33 24h1v7h-1zM16 25.71c0-.94.72-1.71 1.62-1.71H18v1h-.67a.34.34 0 0 0-.33.35V26h1v1h-1v4h-1v-5.29ZM44 31h1v-3.4c-.04-.53-.44-1.6-1.74-1.6-.82 0-1.23.27-1.55.48-.21.15-.39.26-.62.26H41V31h1v-3.47c.06-.18.45-.53.86-.53.51 0 1.14.45 1.14.81V31ZM29 31h-1v-3.19c0-.36-.57-.81-1.1-.81-.41 0-.84.35-.9.53V31h-1v-4.26h.1c.23 0 .41-.11.63-.26.33-.21.75-.48 1.58-.48.6 0 1.01.22 1.3.5l.02-.02c.33-.21.75-.48 1.58-.48A1.72 1.72 0 0 1 32 27.6V31h-1v-3.19c0-.36-.67-.81-1.19-.81a.96.96 0 0 0-.81.53V31Z"/><path fill-rule="evenodd" d="M12.5 31c.82 0 1.54-.4 2-1h.5v-4h-1v.5a2.5 2.5 0 1 0-1.5 4.5Zm0-1a1.5 1.5 0 1 0 0-3 1.5 1.5 0 0 0 0 3ZM21.5 31c.82 0 1.54-.4 2-1h.5v-4h-1v.5a2.5 2.5 0 1 0-1.5 4.5Zm0-1a1.5 1.5 0 1 0 0-3 1.5 1.5 0 0 0 0 3ZM37.5 31c.82 0 1.54-.4 2-1h.5v-4h-1v.5a2.5 2.5 0 1 0-1.5 4.5Zm0-1a1.5 1.5 0 1 0 0-3 1.5 1.5 0 0 0 0 3Z" fill="#497D40"/><path d="M8 25h1v5h-.5a2.5 2.5 0 1 1-.5-3.5V25Zm-1.5 5a1.5 1.5 0 1 0 0-3 1.5 1.5 0 0 0 0 3ZM50 25h1v5h-.5a2.5 2.5 0 1 1-.5-3.5V25Zm-1.5 5a1.5 1.5 0 1 0 0-3 1.5 1.5 0 0 0 0 3Z" fill="#497D40"/></svg>