<!-- by TradingView --><svg width="56" height="56" viewBox="0 0 56 56" xmlns="http://www.w3.org/2000/svg"><path fill="#F0F3FA" d="M0 0h56v56H0z"/><path d="M21 17.03V21h2c1.49 0 3-1 3-2v-1.13c0-.84.75-1.87 2-1.87 1 0 1.9 1.23 2 1.67l.15-4.7c-1.27-.38-4.27-1.04-6.07-.68A7.2 7.2 0 0 0 21 17.03Z" fill="url(#a)"/><path d="M33.38 26H37c-2.03-1.03-2.04-3.22-2-4.18v-4.94C35 12.7 30.67 11 28.1 11c-2.06 0-3.56.86-4.06 1.29 4.89-.26 5.96 2.78 5.96 5.07v5.26A3.38 3.38 0 0 0 33.38 26Z" fill="url(#b)"/><path d="M35 38.97V35h-2.01c-1.48 0-2.49 1-2.99 2v1.13c0 .84-.75 1.87-2 1.87-1 0-1.9-1.23-2-1.67l-.15 4.7c1.27.38 4.27 1.04 6.07.68A7.2 7.2 0 0 0 35 38.97Z" fill="url(#c)"/><path d="M22.62 30H19c2.03 1.03 2.04 3.22 2 4.18v4.94C21 43.3 25.33 45 27.9 45c2.06 0 3.56-.86 4.06-1.29-4.89.26-5.96-2.78-5.96-5.07v-5.26A3.38 3.38 0 0 0 22.62 30Z" fill="url(#d)"/><path d="M38.97 21H35v2c0 1.49 1 2.5 2 3h1.13c.84 0 1.87.75 1.87 2 0 1-1.23 1.9-1.67 2l4.7.15c.38-1.27 1.04-4.27.68-6.07A7.2 7.2 0 0 0 38.97 21Z" fill="url(#e)"/><path d="M30 33.38V37c1.03-2.03 3.22-2.04 4.18-2h4.94C43.3 35 45 30.67 45 28.1c0-2.06-.86-3.56-1.29-4.06.26 4.89-2.78 5.96-5.07 5.96h-5.26A3.38 3.38 0 0 0 30 33.38Z" fill="url(#f)"/><path d="M17.03 35H21v-2.01c0-1.48-1-2.49-2-2.99h-1.13c-.84 0-1.87-.75-1.87-2 0-1 1.23-1.9 1.67-2l-4.7-.15c-.38 1.27-1.04 4.27-.68 6.07A7.2 7.2 0 0 0 17.03 35Z" fill="url(#g)"/><path d="M26 22.62V19c-1.03 2.03-3.22 2.04-4.18 2h-4.94C12.7 21 11 25.33 11 27.9c0 2.06.86 3.56 1.29 4.06-.26-4.89 2.78-5.96 5.07-5.96h5.26A3.38 3.38 0 0 0 26 22.62Z" fill="url(#h)"/><defs><linearGradient id="a" x1="30.15" y1="16.72" x2="21.19" y2="16.72" gradientUnits="userSpaceOnUse"><stop stop-color="#005B5D"/><stop offset="1" stop-color="#548184"/></linearGradient><linearGradient id="b" x1="37.22" y1="18.68" x2="24.04" y2="18.68" gradientUnits="userSpaceOnUse"><stop stop-color="#71C8BB"/><stop offset="1" stop-color="#34BAA8"/></linearGradient><linearGradient id="c" x1="25.85" y1="39.28" x2="34.81" y2="39.28" gradientUnits="userSpaceOnUse"><stop stop-color="#005B5D"/><stop offset="1" stop-color="#548184"/></linearGradient><linearGradient id="d" x1="18.78" y1="37.32" x2="31.96" y2="37.32" gradientUnits="userSpaceOnUse"><stop stop-color="#71C8BB"/><stop offset="1" stop-color="#34BAA8"/></linearGradient><linearGradient id="e" x1="39.28" y1="30.15" x2="39.28" y2="21.19" gradientUnits="userSpaceOnUse"><stop stop-color="#005B5D"/><stop offset="1" stop-color="#548184"/></linearGradient><linearGradient id="f" x1="37.32" y1="37.22" x2="37.32" y2="24.04" gradientUnits="userSpaceOnUse"><stop stop-color="#71C8BB"/><stop offset="1" stop-color="#34BAA8"/></linearGradient><linearGradient id="g" x1="16.72" y1="25.85" x2="16.72" y2="34.81" gradientUnits="userSpaceOnUse"><stop stop-color="#005B5D"/><stop offset="1" stop-color="#548184"/></linearGradient><linearGradient id="h" x1="18.68" y1="18.78" x2="18.68" y2="31.96" gradientUnits="userSpaceOnUse"><stop stop-color="#71C8BB"/><stop offset="1" stop-color="#34BAA8"/></linearGradient></defs></svg>