<!-- by TradingView --><svg width="56" height="56" viewBox="0 0 56 56" xmlns="http://www.w3.org/2000/svg"><path fill="#F0F3FA" d="M0 0h56v56H0z"/><path d="M49 28c0 2.39-2.21 4.68-6.15 6.36C38.9 36.06 33.57 37 28 37s-10.91-.95-14.85-2.64C9.21 32.68 7 30.4 7 28s2.21-4.68 6.15-6.36C17.1 19.94 22.43 19 28 19s10.91.95 14.85 2.64C46.79 23.32 49 25.6 49 28Z" fill="#2905A1"/><path fill-rule="evenodd" d="M15.07 24h3.64c1 .01 1.9.2 2.5 1.04.75 1.03.65 2.56.37 3.8-.32 1.46-1.3 2.67-2.7 3-.45.1-.98.16-1.59.16a1258.37 1258.37 0 0 1-3.27-.03.07.07 0 0 1-.02-.05l1.02-7.87c0-.01 0-.03.02-.03l.03-.02Zm1.49 6.49h-.02l-.01-.02v-.01l-.01-.02.7-4.85a.1.1 0 0 1 .02-.06.08.08 0 0 1 .06-.03c1.16-.02 2.06-.02 2.03 1.73 0 .66-.2 1.26-.36 1.82l-.08.27c-.36 1.22-1.28 1.2-2.17 1.17h-.16Zm21.8-2.14 1.35-4.28a.1.1 0 0 1 .1-.07h2.12l.03.01a.07.07 0 0 1 .04.06v.03l-2.7 7.77a.19.19 0 0 1-.06.1.18.18 0 0 1-.1.03h-2.21c-.02 0-.03 0-.04-.02a.07.07 0 0 1-.02-.04l-.7-4.85a.03.03 0 0 0-.01-.03h-.02l-.01.02-1.93 4.78a.22.22 0 0 1-.08.1.21.21 0 0 1-.12.04h-2.12a.13.13 0 0 1-.09-.04.14.14 0 0 1-.04-.09l-.69-7.82v-.02l.01-.01.02-.01h2.22l.05.01.02.05.23 4.23v.02a.03.03 0 0 0 .04 0l.01-.01 1.71-4.24.04-.05a.1.1 0 0 1 .06-.02h2.17c.01 0 .03 0 .04.02.02.01.03.03.03.05l.6 4.28.01.01.02.01h.01l.01-.02Zm-11.87.56.18-1.4c0-.02.01-.03.03-.05a.09.09 0 0 1 .05-.02h3.62a.06.06 0 0 1 .04.02.06.06 0 0 1 .02.05l-.41 3.05a.39.39 0 0 1-.18.28 6.83 6.83 0 0 1-4.66 1.1 3.99 3.99 0 0 1-1.29-.33c-1.66-.85-1.82-2.86-1.34-4.45a4.21 4.21 0 0 1 3.62-3.1 9.38 9.38 0 0 1 2.14 0c1.23.14 2.02.89 2.17 2.1a.06.06 0 0 1-.01.05.06.06 0 0 1-.04.03l-2.27.33a.08.08 0 0 1-.09-.06c-.3-1.05-1.68-.96-2.37-.42-.4.3-.66.75-.79 1.3-.18.86-.35 2.12.41 2.64.74.5 1.84.23 2.58-.2a.2.2 0 0 0 .1-.15l.09-.62a.05.05 0 0 0-.05-.06h-1.48a.08.08 0 0 1-.05-.03.07.07 0 0 1-.02-.06Z" fill="#F0F3FA"/></svg>