<!-- by TradingView --><svg width="56" height="56" viewBox="0 0 56 56" xmlns="http://www.w3.org/2000/svg"><path fill="#F0F3FA" d="M0 0h56v56H0z"/><path d="M25 11h2v16H11v-2h12.38L18 19.62 19.62 18 25 23.38V11ZM31 11h-2v16h16v-2H32.62L38 19.62 36.38 18 31 23.38V11ZM25 45h2V29H11v2h12.38L18 36.38 19.62 38 25 32.62V45ZM31 45h-2V29h16v2H32.62L38 36.38 36.38 38 31 32.62V45Z" fill="#E11B22"/><path d="M18.41 14 17 15.41 28 26.6 39 15.4 37.59 14 29 23v-8h-2v8l-8.59-9ZM18.41 42.09 17 40.67 28 29.5l11 11.17-1.41 1.42-8.59-9v7.99h-2v-8l-8.59 9ZM42.04 18.46l-1.41-1.42-11.17 11 11.17 11 1.41-1.41-9-8.59h8v-2h-8l9-8.58ZM13.96 18.46l1.41-1.42 11.17 11-11.17 11-1.41-1.41 9-8.59h-8v-2h8l-9-8.58Z" fill="#F99D34"/></svg>