<!-- by TradingView --><svg width="56" height="56" viewBox="0 0 56 56" xmlns="http://www.w3.org/2000/svg"><path fill="#F0F3FA" d="M0 0h56v56H0z"/><path d="M22.14 13a8.95 8.95 0 0 1 5.84 2.55l-6.18 6.2h-.03s-.02 0-.02-.02l-6.17-6.16A8.7 8.7 0 0 1 21.42 13h.72Z" fill="#F8C022"/><path d="m15.58 15.57 6.17 6.16.02.02h.03c.02.08.08.16.2.26a8.8 8.8 0 0 1-.12 12.11l-.1.1c-2.06-2.06-4.12-4.11-6.17-6.18l-.06-.01.02-.02V28A8.81 8.81 0 0 1 13 22.15v-.72l.04-.33a8.7 8.7 0 0 1 2.54-5.53Z" fill="#F7941E"/><path d="M43 21.5v.57a8.93 8.93 0 0 1-2.54 5.9h-.06l-6.18-6.18 6.21-6.21A8.82 8.82 0 0 1 43 21.49Z" fill="#F8C022"/><path d="M34.55 13c2.3.12 4.25.98 5.88 2.58l-6.2 6.2L34 22a8.87 8.87 0 0 1-7.16 2.3A8.73 8.73 0 0 1 22 22c-.11-.1-.18-.18-.2-.26l6.18-6.2c0 .02 0 .02.02.02A8.8 8.8 0 0 1 33.87 13h.68ZM28 19.79a1.63 1.63 0 1 0 0 3.25 1.63 1.63 0 0 0 0-3.25Z" fill="#EF5F23"/><path d="m34.22 21.79 6.18 6.17c.01.01.02.02.04.01h.02c-.02 0-.03.01-.03.03V28A8.84 8.84 0 0 1 43 33.97v.49a8.78 8.78 0 0 1-2.58 5.97l-6.16-6.16c-.02-.02-.04-.02-.08-.02a.46.46 0 0 0-.19-.25l-.28-.34A8.8 8.8 0 0 1 34 22l.22-.21Z" fill="#F7941E"/><path d="m15.55 28.03.06.01c2.05 2.07 4.1 4.12 6.17 6.17l-6.21 6.2A8.72 8.72 0 0 1 13 34.58v-.72a8.95 8.95 0 0 1 2.55-5.83Z" fill="#F8C022"/><path d="M33.99 34c.1.07.16.15.19.25L28 40.42A8.85 8.85 0 0 1 22.05 43h-.52a8.8 8.8 0 0 1-5.96-2.59l6.2-6.2.11-.09a8.72 8.72 0 0 1 8.3-2.2A8.68 8.68 0 0 1 33.99 34Z" fill="#EF5F23"/><path d="M34.18 34.25c.04 0 .06 0 .08.02l6.16 6.16A8.82 8.82 0 0 1 34.57 43h-.7A8.92 8.92 0 0 1 28 40.42l6.18-6.17Z" fill="#F8C022"/></svg>