<!-- by TradingView --><svg width="56" height="56" viewBox="0 0 56 56" xmlns="http://www.w3.org/2000/svg"><path fill="#181B1E" d="M0 0h56v56H0z"/><path d="M28 45c7.73 0 14-5.45 14-17s-6.27-17-14-17-14 5.45-14 17 6.27 17 14 17Z" fill="#B6B7B9"/><path d="M28 44c7.18 0 13-5.13 13-16 0-10.87-5.82-16-13-16s-13 5.13-13 16c0 10.87 5.82 16 13 16Z" fill="#fff"/><path d="M41 31.06c-.3-.07-.11-.16-.43-.2l-.69-.07a.27.27 0 0 0-.23.08c-.24.24-.37.52-.37.82a6.15 6.15 0 0 1-.74 3.07 6.3 6.3 0 0 0-.9 2.02c-.01.08-.05.13-.13.15-.69.16-1.46.53-2.32 1.11-.62.42-1.38.66-2.3.73-.67.06-1.12.4-.9 1.1a.1.1 0 0 1-.03.1.1.1 0 0 1-.1.02 5.98 5.98 0 0 1-3.46-3.63.23.23 0 0 1 .04-.23.24.24 0 0 1 .2-.09c.95.08 1.86-.07 2.73-.45a.41.41 0 0 1 .52.17l.3.52a.32.32 0 0 0 .2.15.33.33 0 0 0 .25-.04c.22-.13.44-.34.66-.62a.23.23 0 0 0 .04-.19c-.1-.46-.27-.82-.51-1.06-.72-.72-2.29-2.25-4.7-4.6-.08-.08-.12-.21-.1-.39 0-.05.02-.09.05-.12a.14.14 0 0 1 .1-.03c.03 0 .06 0 .09.03.78.71 2.3 2.16 4.57 4.35.47.46.76.99.87 1.58.04.22.16.3.37.22l.07-.02a.3.3 0 0 0 .2-.28.3.3 0 0 0-.02-.12 6.13 6.13 0 0 0-1.44-2.04A977.72 977.72 0 0 1 28.6 29a.17.17 0 0 0-.2-.04.48.48 0 0 0-.24.21.44.44 0 0 1-.15.16c-.4.25-.64.41-.7.48l-4.43 4.24c-.84.8-.92 1.9.44 2.17a.31.31 0 0 0 .33-.15.3.3 0 0 0 .03-.12l.05-.41a.19.19 0 0 1 .09-.15.2.2 0 0 1 .17-.02l1.23.42c.65.21 1.06.23 1.77.2a.22.22 0 0 1 .18.1.21.21 0 0 1 .03.2 7.36 7.36 0 0 1-3.22 3.63.19.19 0 0 1-.26-.08.18.18 0 0 1-.02-.1c.04-.37-.06-.66-.29-.88a.36.36 0 0 0-.2-.1c-1.7-.14-2.71-.79-4.25-1.7a.48.48 0 0 0-.2-.08l-.53-.06c-.1 0-.15-.06-.16-.15a4.92 4.92 0 0 0-.55-1.62l-.63-1.2a7.5 7.5 0 0 1-.35-1.32 12 12 0 0 0-.17-1.54c-.13-.74-.74-.55-1.27-.42-.09-.04-.12-.14-.1-.28 1.23-1.42 2.22-2.71 4.06-3.38a.28.28 0 0 1 .28.05.27.27 0 0 1 .09.27c-.2.9-.06 1.8.4 2.7a.4.4 0 0 1-.35.59h-.32a.37.37 0 0 0-.24.09.36.36 0 0 0-.12.22c-.07.53.11.97.55 1.31.24.19.47.24.69.16.46-.17.94-.5 1.45-1l3.5-3.45c.37-.38.55-.84 1-1.17a.14.14 0 0 0 .06-.1.14.14 0 0 0-.03-.1l-1.65-1.79a.16.16 0 0 0-.12-.05.16.16 0 0 0-.12.05 21.8 21.8 0 0 1-2.08 1.92c-.75.61-1.41.52-1.97-.26-.26-.36-.36-.68-.3-.95.1-.44.3-.86.62-1.22a10.84 10.84 0 0 0 1.43-2.03.17.17 0 0 0-.17-.16c-.28.01-.46.14-.53.37a.2.2 0 0 1-.28.11 5.16 5.16 0 0 0-1.18-.5 2.58 2.58 0 0 1-1.9-2.06c-.1-.44.02-.95.33-1.52 1.2-2.19 3.75-1.85 4.75.26.22.45.11 1.28.17 1.89a.38.38 0 0 0 .23.31.39.39 0 0 0 .39-.05c.29-.23.77-.7 1.46-1.4a7.68 7.68 0 0 1 .95-.6.3.3 0 0 1 .12 0c.67.17 1.11.52 1.33 1.04.4.99-.77 2-1.7 2.9a.3.3 0 0 0 0 .4l1.65 1.79a.36.36 0 0 0 .51.02l1.92-1.73a.3.3 0 0 0 .09-.25.28.28 0 0 0-.15-.22c-.68-.36-1.54-1.09-1.44-1.93.05-.35.02-1 .3-1.35 1.19-1.51 2.6.5 3.32 1.28.06.06.12.1.2.12.26.09.46.3.6.65.09.2.22.28.4.23.07-.02.1-.06.1-.13 0-.32-.1-.6-.32-.84a.25.25 0 0 1-.07-.2c.05-.65.15-1.18.3-1.59.62-1.64 2.5-2.4 4-1.23 1.7 1.32 1.43 3.4-.4 4.44-.24.13-.49.19-.75.17a2.68 2.68 0 0 0-1.63.39.3.3 0 0 0-.12.2.3.3 0 0 0 .06.23c.25.3.68.8 1.3 1.5 1 1.17.09 2.07-1.07 2.36a.29.29 0 0 1-.21-.02c-.87-.44-1.41-1.13-2.08-1.9a.1.1 0 0 0-.12-.02.1.1 0 0 0-.03.02l-2.24 2.03a.2.2 0 0 0-.05.24.2.2 0 0 0 .06.07c1.65 1.35 2.9 2.71 4.71 4.44.8.76 1.75.9 2.38-.2a.7.7 0 0 0 .03-.68.28.28 0 0 0-.16-.14c-.3-.1-.58-.14-.86-.11a.27.27 0 0 1-.26-.12.26.26 0 0 1 0-.28c.23-.4.4-.63.44-1.03l.2-1.67a.4.4 0 0 1 .18-.3.42.42 0 0 1 .35-.04 4.82 4.82 0 0 1 2.69 2.06c.2.32.41.6.63.82l.73.74ZM18.96 19.94c-.23-.33-.07-.6.13-.94.32-.52.86-.83 1.62-.95.04-.01.09-.04.11-.07a.18.18 0 0 0 .04-.14.25.25 0 0 0-.13-.2c-.2-.1-.36-.13-.49-.1-1.06.3-2.47 1.44-1.83 2.67.23.44.52.76.87.96.17.1.3.07.38-.09a.23.23 0 0 0-.03-.25c-.31-.4-.54-.7-.67-.89Zm15.42.5c-.63-1.02.49-1.7 1.41-2.03.11-.04.14-.1.09-.2a.25.25 0 0 0-.17-.15c-.21-.05-.38-.05-.5 0-.82.33-1.32.84-1.5 1.52-.1.38-.08.73.07 1.05.2.42.57 1.01 1 .93a.2.2 0 0 0 .15-.12.2.2 0 0 0-.02-.2c-.21-.3-.39-.57-.53-.8Zm-13.38.2c.18.3.45.4.8.26a.22.22 0 0 0 .15-.15c.15-.48.2-1 .14-1.59a.22.22 0 0 0-.08-.15.22.22 0 0 0-.16-.05c-.52.04-.93.04-1.2.02-.92-.08-1.13.75-.64 1.37a.26.26 0 0 0 .17.1l.63.06c.09.01.15.05.2.12Zm15.42-1.27c-.56-.3-1.44-.22-1.51.51-.05.53.5.85.96.82a.3.3 0 0 0 .2-.09c.26-.24.4-.56.4-.97a.09.09 0 0 1 .05-.07.09.09 0 0 1 .1 0c.18.16.27.34.25.55 0 .08-.04.14-.1.2-.15.14-.29.3-.42.46-.15.2-.09.41.13.51a.32.32 0 0 0 .33-.03c.31-.23.55-.52.72-.88.3-.64-.23-1.22-.91-1a.24.24 0 0 1-.2-.01Zm-7.23 1.2c.05-.24.05-.41 0-.5-.03-.07-.08-.09-.15-.05-.24.13-.34.36-.32.71.05.63.16.85.7 1.32.22.2.45.44.67.73.05.06.11.1.18.12.62.18.68.9 1.36 1.04.22.04.27-.03.17-.22a3.55 3.55 0 0 0-.72-.86c-.89-.82-1.5-1.3-1.86-2.08a.34.34 0 0 1-.03-.21Zm-8.16 4.58a83.49 83.49 0 0 0 2.22-2.45.14.14 0 0 0-.06-.14.14.14 0 0 0-.07-.02c-.1 0-.22.03-.37.1-.12.05-.24.13-.33.23-.68.73-1.26 1.37-1.74 1.93-.17.2-.32.58-.45 1.14a.2.2 0 0 0 .1.22l.09.05a.1.1 0 0 0 .13-.02.11.11 0 0 0 .02-.04c.17-.52.32-.85.46-1Zm1.15 6.36c-.77.79-1.4 1.38-2.25 1.37a.15.15 0 0 0-.15.13c0 .12.05.22.17.3.5.35 1.71-.58 2.08-.95 3.2-3.18 6.03-5.9 8.46-8.16a.29.29 0 0 0 .08-.14.46.46 0 0 0 0-.19c0-.06-.06-.1-.17-.13a.2.2 0 0 0-.19.05c-.9.88-1.77 1.7-2.61 2.44-1.01.9-1.79 1.8-2.78 2.67-.23.2-1.11 1.08-2.64 2.61Zm-4.85-.85a6.9 6.9 0 0 0 1.17 4.57 6.26 6.26 0 0 0 4.95 2.52.49.49 0 0 1 .44.24l.4.69a.16.16 0 0 0 .2.07l.05-.03a9.11 9.11 0 0 0 1.59-1.82.22.22 0 0 0-.06-.3.22.22 0 0 0-.1-.04l-1.41-.15a.23.23 0 0 0-.2.08l-.46.55a.28.28 0 0 1-.2.1c-.24.02-.48.01-.72-.04-2.96-.64-4.65-2.5-5.07-5.57-.14-.98.13-1.09.8-1.66a.18.18 0 0 0 .08-.14v-1.47a.17.17 0 0 0-.07-.13.18.18 0 0 0-.15-.04c-.69.18-1.38.95-1.9 1.47a.3.3 0 0 0 .09.48c.24.13.42.29.54.48.02.04.03.09.03.14Zm15.1 6.67c-.54.08-.74-.17-.98-.57a.41.41 0 0 0-.45-.2l-1.32.19a.22.22 0 0 0-.16.11.2.2 0 0 0 0 .2c.39.73.92 1.3 1.6 1.72.13.08.23.05.3-.09.19-.42.33-.6.84-.7 1.12-.21 1.79-.37 2-.46 2.98-1.28 4.34-3.55 4.1-6.82a.38.38 0 0 1 .2-.35l.4-.23c.2-.12.22-.26.06-.44a7.3 7.3 0 0 0-1.75-1.38.16.16 0 0 0-.17.14l-.15 1.37c-.02.13.03.23.15.3l.57.31a.32.32 0 0 1 .16.26 6.18 6.18 0 0 1-.67 3.21 5.48 5.48 0 0 1-2.48 2.63c-.9.44-1.66.7-2.24.8Z" fill="#131211"/><path d="M25.55 26.8a.03.03 0 0 1 0 .03.23.23 0 0 1-.16.07c-.06 0-.12-.01-.2-.04a1.04 1.04 0 0 1-.23-.12 1.47 1.47 0 0 1-.23-.2l-.29-.3a1.47 1.47 0 0 1-.18-.22 1.02 1.02 0 0 1-.11-.24.5.5 0 0 1-.03-.2c0-.06.03-.11.07-.15l.03-.01h.02l1.31 1.37Z" fill="#131211"/></svg>