<!-- by TradingView --><svg width="56" height="56" viewBox="0 0 56 56" xmlns="http://www.w3.org/2000/svg"><path fill="#F0F3FA" d="M0 0h56v56H0z"/><path d="M14 27h4V15.92c4.86.42 6.8 2.04 6.8 2.04-.92.93-2.8 2.88-2.8 4.47V27h4v-4.57c.43-1.9 3.63-5.88 12-6.5V27h4V12c-3.14.32-10.68 1.24-14.43 3.6 0-.18-6.64-3.6-13.57-3.6v15Zm14-6.89c.45-.43 1.88-1.6 2.7-1.86 1.64 1.13 3.3 3 3.3 4.45V27h-4v-4.3c0-1.19-1.27-2.08-1.85-2.48-.05-.04-.1-.08-.15-.1Z" fill="#0571BC"/><path d="M42 29h-4v11.08c-4.86-.42-6.8-2.04-6.8-2.04.92-.93 2.8-2.88 2.8-4.47V29h-4v4.57c-.43 1.9-3.63 5.88-12 6.5V29h-4v15c3.14-.32 10.68-1.24 14.43-3.6 0 .18 6.64 3.6 13.57 3.6V29ZM28 35.9c-.45.43-1.88 1.6-2.7 1.86-1.64-1.13-3.3-3-3.3-4.45V29h4v4.3c0 1.19 1.27 2.08 1.85 2.48.05.04.1.08.15.1Z" fill="#242021"/></svg>