<!-- by TradingView --><svg width="56" height="56" viewBox="0 0 56 56" fill="none" xmlns="http://www.w3.org/2000/svg">
<rect width="56" height="56" fill="#F0F3FA"/>
<path fill-rule="evenodd" clip-rule="evenodd" d="M16.0798 12C13.8266 12 12 13.871 12 16.179V36H44V16.179C44 13.871 42.1734 12 39.9202 12H16.0798ZM33.5008 17.9479L33.9363 16.8698C34.0062 16.6966 34.1675 16.6 34.328 16.6C34.4219 16.6 34.5119 16.6551 34.5861 16.7298L36.937 19.0981C36.9815 19.1429 37.0005 19.1972 37 19.2501C36.9988 19.3782 36.8832 19.4978 36.7399 19.4529L33.7564 18.5176C33.5264 18.4455 33.4072 18.1798 33.5008 17.9479ZM33.4011 19.1935L36.6887 20.0583C36.8868 20.1138 37.0022 20.2891 37 20.4686C36.9988 20.5631 36.965 20.6586 36.8937 20.7385L28.6563 29.9531C28.6207 29.993 28.5749 30 28.5322 30.0007C28.4493 30 28.378 29.908 28.4149 29.8118L32.7087 19.5351C32.8134 19.262 33.1147 19.1134 33.4011 19.1935ZM31.1736 19H24.8228C24.5325 19 24.328 19.2613 24.4208 19.5135L27.8804 28.9118C27.9003 28.9658 27.9493 28.995 28.0007 28.9994C28.0613 29.0046 28.1252 28.9752 28.1485 28.9114L31.576 19.5124C31.6679 19.2604 31.4634 19 31.1736 19ZM23.4451 16H32.555C32.8745 16 33.0896 16.2716 32.9633 16.5153L32.5352 17.5537C32.3947 17.8245 32.0738 18 31.7188 18H24.375C24.0441 18 23.7406 17.8474 23.5873 17.6038L23.0512 16.5404C22.8964 16.2945 23.1111 16 23.4451 16ZM22.4977 17.9479L22.0622 16.8698C21.9923 16.6966 21.8311 16.6 21.6706 16.6C21.5767 16.6 21.4867 16.6551 21.4125 16.7298L19.0615 19.0981C19.017 19.1429 18.9981 19.1972 18.9985 19.2501C18.9997 19.3782 19.1153 19.4978 19.2586 19.4529L22.2422 18.5176C22.4721 18.4455 22.5913 18.1798 22.4977 17.9479ZM22.5975 19.1935L19.3099 20.0583C19.1118 20.1138 18.9964 20.2891 18.9987 20.4687C18.9999 20.5631 19.0336 20.6586 19.1049 20.7385L27.3423 29.9531C27.378 29.993 27.4237 30 27.4664 30.0007C27.5493 30 27.6207 29.908 27.5838 29.8118L23.2899 19.5351C23.1852 19.262 22.8839 19.1134 22.5975 19.1935Z" fill="url(#paint0_linear_5085_142621)"/>
<path fill-rule="evenodd" clip-rule="evenodd" d="M12 35.875V31C12 31 18.2771 34 28.1366 34C36.9081 34 44 31 44 31V35.875H12Z" fill="#0072BB"/>
<path d="M27.8712 31.9254L26 30L28.0455 32.8316C28.1339 32.9495 28.2661 33.0017 28.3984 33C28.5083 32.9986 28.6183 32.9625 28.7031 32.875L39.8438 20.6875C39.9577 20.57 39.9989 20.4177 40 20.2657C40.0013 20.0816 39.9366 19.898 39.78 19.7775L35.7812 17L38.388 19.4827C38.4657 19.5649 38.4952 19.6704 38.5 19.7775C38.505 19.8893 38.4821 20.0029 38.4062 20.0938L28.2891 31.8984C28.226 31.9739 28.1348 32 28.0455 32.0024C27.983 31.9976 27.9214 31.9722 27.8712 31.9254Z" fill="#B01115"/>
<path fill-rule="evenodd" clip-rule="evenodd" d="M12 39.8574V31C12 31 18.25 35 28.1366 35C38.0232 35 44 31 44 31V39.8574C44 42.1453 42.1734 44 39.9202 44H16.0798C13.8266 44 12 42.1453 12 39.8574ZM21.1953 37.3828C21.1953 37.457 21.3789 37.8828 21.3789 37.8828C21.3972 37.959 21.4453 38 21.5195 38L22.481 37.826C22.8015 37.7688 23.1953 37.8485 23.1953 38.2344V38.4827H22.1813C21.7317 38.4827 21 38.7819 21 39.4408V40.044C21 40.6565 21.4684 41 21.9797 41H22.5276C22.7744 41 22.9749 40.935 23.1953 40.6565C23.1953 40.6565 23.1953 41 23.5 41H23.9609C24.0388 41 24.2 40.9609 24.2 40.7109V38.2808C24.2 37.315 23.4721 37 22.6749 37C22.1139 37 21.5212 37.1595 21.2945 37.2447C21.2287 37.2695 21.1953 37.3086 21.1953 37.3828ZM23.1953 39.2344H22.243C22.0872 39.2344 22 39.3673 22 39.5314V39.9297C22 40.0132 22.0402 40.1964 22.1725 40.1964H22.9054C23.0612 40.1964 23.1953 40.1338 23.1953 39.9698V39.2344ZM15 36.4375V39.686C15 40.7443 16.0145 41 16.8088 40.9998C18.0984 41 19 40.088 19 38.4819C19 36.8759 18.1162 36 16.8088 36H15.4133C15.1849 36 15 36.1956 15 36.4375ZM16 37.1734V39.2656C16 39.9133 16.5058 40.0058 16.8889 40C17.5109 39.9905 18 39.5994 18 38.5151C18 37.4307 17.5195 37 16.8889 37H16.2157C16.1056 37 16 37.0101 16 37.1734ZM19.6379 37C19.5618 37 19.5 37.0689 19.5 37.1538V40.8462C19.5 40.9311 19.5618 41 19.6379 41H20.3621C20.4382 41 20.5 40.9311 20.5 40.8462V37.1538C20.5 37.0689 20.4382 37 20.3621 37H19.6379ZM32.2171 40.9688C33.4094 40.9688 33.7968 40.0873 33.7968 39C33.7968 37.9127 33.534 37.0312 32.2171 37.0312C31.0081 37.0312 30.6176 37.9127 30.6176 39C30.6176 40.0873 31.0247 40.9688 32.2171 40.9688ZM32.2577 40C32.8458 40 32.8458 39.4619 32.8458 38.9888C32.8458 38.5156 32.8458 38 32.2577 38C31.6696 38 31.641 38.5938 31.641 38.9888C31.641 39.4688 31.6696 40 32.2577 40ZM34.3 37.1C34.3 37.0448 34.3448 37 34.4 37H34.9095C34.9921 37 35.0977 37 35.1172 37.1288L35.1653 37.3359C35.1653 37.3359 35.4032 37 35.9032 37C36.8393 37 37.3 37.4844 37.3 38.4171V40.8494C37.3 40.9331 37.2588 41 37.1887 41H36.4114C36.3413 41 36.3 40.9328 36.3 40.849V38.5156C36.3 38.1767 36.0536 38 35.7844 38C35.4511 38 35.3 38.2704 35.3 38.5156V40.8484C35.3 40.9322 35.2354 41 35.1653 41H34.427C34.3569 41 34.3 40.9321 34.3 40.8483V37.1ZM25 40.8483V37.1C25 37.0448 25.0448 37 25.1 37L25.6439 37C25.7265 37 25.8242 37 25.8516 37.1288L25.8906 37.3507C25.8906 37.3507 26.2188 37 26.7422 37C27.4247 37 27.6719 37.4739 27.6719 37.4739C27.6719 37.4739 28.0952 37 28.7778 37C29.4187 37 30 37.2568 30 38.3081V40.8488C30 40.9326 29.9431 41 29.873 41H29.1426C29.0725 41 29 40.9326 29 40.8488V38.4171C29 38.1641 28.8316 38 28.5859 38C28.2969 38 28 38.1484 28 38.4171V40.8494C28 40.9331 27.9588 41 27.8886 41H27.1114C27.0412 41 27 40.9328 27 40.849V38.4171C27 38.0781 26.7535 38 26.4844 38C26.151 38 26 38.1719 26 38.4171V40.8484C26 40.9322 25.9353 41 25.8652 41H25.127C25.0569 41 25 40.9321 25 40.8483ZM40 36.1V37.2073C40 37.2073 39.8125 37 39.4015 37C38.6562 37 38 37.4502 38 38.2969V39.5593C38 40.4354 38.5071 41.0625 39.4695 41.0625C40.1633 41.0625 41 40.7342 41 39.7666V36.1C41 36.0448 40.9552 36 40.9 36H40.1C40.0448 36 40 36.0448 40 36.1ZM40 39.6125V38.4535C40 38.2245 39.9044 38 39.6953 38H39.4015C39.1226 38 39 38.2475 39 38.5529V39.4743C39 39.7796 39.1226 40 39.4015 40H39.6953C39.9044 40 40 39.8415 40 39.6125Z" fill="#262569"/>
<defs>
<linearGradient id="paint0_linear_5085_142621" x1="12" y1="12" x2="39.7809" y2="38.1978" gradientUnits="userSpaceOnUse">
<stop offset="0.0738926" stop-color="#F16E4E"/>
<stop offset="0.297492" stop-color="#EB1C22"/>
<stop offset="1" stop-color="#EB1C22"/>
</linearGradient>
</defs>
</svg>
