<!-- by TradingView --><svg xmlns="http://www.w3.org/2000/svg" width="56" height="56" viewBox="0 0 56 56"><path fill="#F0F3FA" d="M0 0h56v56H0z"/><path fill-rule="evenodd" d="M14 36a7 7 0 1 0 0-14 7 7 0 0 0 0 14zm0-3a4 4 0 1 0 0-8 4 4 0 0 0 0 8z" fill="#56474A"/><path d="M29.52 28.85l5.42-6.35H31.1L26 28.2v-5.7h-3v13h3v-6.08l5.43 6.08h3.77l-5.68-6.65z" fill="#56474A"/><path d="M34 19.4a9.98 9.98 0 0 1 7.52-3.4c2.98 0 5.65 1.3 7.48 3.35l-2.1 2.03a6.97 6.97 0 0 0-10.87.13L34 19.39z" fill="#FAA61A"/><path d="M41.46 21c.86 0 2.06.43 1.9 3.37-.18 3.68-.66 7.94-1.83 7.94-1.3 0-1.76-4.42-1.95-7.94-.15-2.8.9-3.37 1.88-3.37zm.04 15a1.5 1.5 0 1 0 0-3 1.5 1.5 0 0 0 0 3z" fill="#EF4C23"/></svg>