<!-- by TradingView --><svg width="56" height="56" viewBox="0 0 56 56" fill="none" xmlns="http://www.w3.org/2000/svg">
<rect width="56" height="56" fill="#F0F3FA"/>
<path d="M45.875 30.6439C46.6252 27.0848 47.2188 24.0041 47.2188 24.0041C47.2188 24.0041 48.0215 23.9949 48.4201 24.0041C48.7896 24.0125 49 24.1145 48.9997 24.5149C49.0027 24.6414 48.9866 24.7977 48.9507 24.9903C48.6128 26.8049 48.2685 28.1429 47.9085 29.8865C47.8479 30.1798 47.772 30.6 48.0933 30.6C48.8465 30.6 49 30.6874 49 31C49 31 49 32 48.2306 32H46.8662C46.2657 32 45.7121 31.4167 45.875 30.6439Z" fill="#204393"/>
<path fill-rule="evenodd" clip-rule="evenodd" d="M41.785 29.513H45.0697C45.0697 29.513 45.4999 28.8696 45.4999 28.0174C45.4999 26.6435 44.6582 26 43.3675 26C41.1041 26 39.9999 27.6746 40.0005 29.4087C39.9999 31.1428 40.9687 32 42.5156 32C44.0624 32 44.9999 31.2031 44.9999 31.2031L44.4793 30C44.4793 30 43.7416 30.6 42.8063 30.6C41.684 30.6 41.785 29.513 41.785 29.513ZM42.0156 28.3H43.6855C43.6855 28.3 43.9661 27.3 43.1243 27.3C42.2826 27.3 42.0156 28.3 42.0156 28.3Z" fill="#204393"/>
<path d="M37.2245 26L37.7524 24H38.9688C39.2953 24 39.5316 24.1326 39.3958 24.6641C39.2161 25.3672 39.0989 26 39.0989 26L40.2956 26L39.9922 27.4H38.875C38.875 27.4 38.5361 28.9219 38.2704 30.1094C38.2605 30.1536 38.2499 30.2211 38.2509 30.2578C38.2509 30.6 38.4183 30.6 38.613 30.6H39.2891C39.5234 30.6 39.6017 31.0397 39.4688 31.5C39.3672 31.8516 39.2651 32.0027 38.7499 31.9968C38.2347 32 37.4915 32 37.312 31.9968C36.1782 31.9365 36.1314 31.1321 36.3235 30.3161C36.5156 29.5 36.948 27.4 36.948 27.4H36L36.3235 26H37.2245Z" fill="#204393"/>
<path d="M33.0471 29.7211C33.3502 27.9703 33.611 26.9614 33.7929 26L34.6296 26C35.3936 26 35.5718 26.4946 35.4845 26.9614C35.0116 29.4896 34.5205 32 34.5205 32H33.52C32.4468 32 32.8325 30.9605 33.0471 29.7211Z" fill="#204393"/>
<path d="M9.8125 32L10.8594 26C10.8594 26 10.9866 26 11.1644 25.9952C11.4413 26.0024 11.8409 26.0432 12.074 26.2054C12.3228 26.3785 12.4722 26.7257 12.4722 26.7257C12.4722 26.7257 13.214 26 14.3539 26C15.4744 26 15.8041 26.9701 15.6023 28.0712C15.3775 29.2987 15.2043 29.8601 15.0053 31.1159C14.9448 31.4977 15.2043 31.6412 15.2043 31.6412C15.2043 31.6412 14.9147 32 14.0462 32C13.0872 32 13.1887 31.121 13.2863 30.6545C13.4852 29.7037 13.5246 29.6572 13.6662 28.9143C13.7927 28.2506 13.9111 27.4 13.2863 27.4C12.6615 27.4 12.4722 28.0712 12.4722 28.0712C12.4722 28.0712 12.1285 29.7934 11.7304 31.4977C11.6131 32 11.4228 32 9.8125 32Z" fill="#204393"/>
<path fill-rule="evenodd" clip-rule="evenodd" d="M27.5 29C27.5 30.3615 26.3615 31.5 25 31.5C23.6385 31.5 22.5 30.3615 22.5 29C22.5 27.6385 23.6385 26.505 25 26.505C26.3615 26.505 27.5 27.6385 27.5 29ZM28 29C28 30.6569 26.6569 32 25 32C23.3431 32 22 30.6569 22 29C22 27.3431 23.3431 26 25 26C26.6569 26 28 27.3431 28 29ZM25 30.5C25.8408 30.5 26.5 29.8408 26.5 29C26.5 28.1592 25.8408 27.5 25 27.5C24.1592 27.5 23.5 28.1592 23.5 29C23.5 29.8408 24.1592 30.5 25 30.5ZM25 31C26.1046 31 27 30.1046 27 29C27 27.8954 26.1046 27 25 27C23.8954 27 23 27.8954 23 29C23 30.1046 23.8954 31 25 31ZM25 29.6339C25.3491 29.6339 25.6322 29.3509 25.6322 29.0018C25.6322 28.6526 25.3491 28.3696 25 28.3696C24.6509 28.3696 24.3678 28.6526 24.3678 29.0018C24.3678 29.3509 24.6509 29.6339 25 29.6339ZM25 30.0018C25.5523 30.0018 26 29.554 26 29.0018C26 28.4495 25.5523 28.0018 25 28.0018C24.4477 28.0018 24 28.4495 24 29.0018C24 29.554 24.4477 30.0018 25 30.0018Z" fill="#EE1C28"/>
<path d="M9.54982 24H8.3879L7.0154 30.9985C7.00093 31.0723 6.99692 31.1453 7.00227 31.2162C7 31.6457 7.41021 32 7.88624 32H8.79397L10.1317 24.6605C10.1946 24.3157 9.91651 24 9.54982 24Z" fill="#204393"/>
<path fill-rule="evenodd" clip-rule="evenodd" d="M19.9325 26.1733L20.4289 24H21.375C21.7982 24 22.2188 24.1094 22.2188 24.533C22.2188 24.5445 22.2188 24.5563 22.2189 24.5683C22.2194 24.6555 22.22 24.7556 22.1938 24.8702C21.6692 27.1629 21.5834 27.6123 21.2003 29.621C21.1764 29.7462 21.1514 29.8775 21.125 30.0156C20.9976 30.6828 21.0742 31 21.2273 31C21.3438 31 21.418 30.9805 21.5645 30.8979C21.5645 30.8979 21.0042 32 20.2311 32C19.458 32 19.3501 31.3885 19.3501 31.3885C19.3501 31.3885 18.795 32.0018 17.5703 32.0018C16.5242 32.0018 16.0056 30.8661 16.0001 29.8124C15.9934 28.5357 16.5299 26.9319 17.7031 26.3135C18.2379 26.0316 18.6381 26 19.0156 26C19.3932 26 19.9325 26.1733 19.9325 26.1733ZM19.7547 27.7176L19.2783 30.1269C19.2783 30.1269 18.9816 30.5649 18.4243 30.6175C17.8558 30.6711 17.77 29.8534 17.8579 29.3033C17.9667 28.6234 18.193 27.4 19.1254 27.4C19.53 27.4 19.7979 27.7176 19.7547 27.7176Z" fill="#204393"/>
<path d="M29.5781 26L28.3357 27.1862C28.3357 27.1862 28.821 27.5645 28.821 27.9427C28.821 28.3209 28 32 28 32H29.8551C29.8551 32 30.0105 31.1537 30.4735 28.8367C30.7494 27.4561 32.1094 28 32.1094 28L33.0404 26.2235C33.0404 26.2235 32.6217 26 32.1094 26C30.9062 26 30.4735 27.1862 30.4735 27.1862C30.4735 26.783 29.9999 26.05 29.5781 26Z" fill="#204393"/>
<path fill-rule="evenodd" clip-rule="evenodd" d="M51 30.5546V25.3338C51 23.3267 49.6814 21.7856 47.8368 21.6875C43.0087 21.4307 33.7541 21 28 21C21.3746 21 13.7339 21.3219 8.52621 21.5787C6.54617 21.6764 5 24.1334 5 26V30C5 32.1732 6.40259 34.1874 8.41726 34.3033C13.6964 34.6068 21.3995 35 28 35C33.768 35 43.014 34.4286 47.8368 34.125C49.5907 34.0146 51 32.5471 51 30.5546ZM8.48641 20.6339C6.04082 20.7545 4.04102 23.3513 4 26L4.00067 30C3.9589 32.6969 5.88171 35.1046 8.37088 35.2478C13.6505 35.5513 21.374 36 28 36C33.7962 36 43.1031 35.5515 47.9255 35.248C50.2211 35.1035 52 33.0428 52 30.5546V25.3338C52 22.8267 50.1938 20.757 47.8797 20.6339C43.0519 20.3771 33.7779 20 28 20C21.3528 20 13.6947 20.377 8.48641 20.6339Z" fill="#EE1C28"/>
</svg>
