<!-- by TradingView --><svg width="56" height="56" viewBox="0 0 56 56" xmlns="http://www.w3.org/2000/svg"><path fill="#F0F3FA" d="M0 0h56v56H0z"/><path d="M49.01 29.87c.21.26.41.52.6.79-.12.43-.28.84-.47 1.24l-1.04-.58c.35-.47.65-.96.91-1.45Z" fill="#ADD3C6"/><path d="M49.62 30.66c-.13.43-.3.84-.48 1.24l-1.04-.58 1.52-.66Z" fill="#00AAAC"/><path d="M45.6 33.22a18.97 18.97 0 0 1-3.44-.9 17.6 17.6 0 0 0 2.86-2.18l2.45 1.21c-.54.66-1.17 1.3-1.88 1.87Z" fill="#51AEE2"/><path d="M45.6 33.22a18.97 18.97 0 0 1-3.44-.9l5.31-.97c-.54.66-1.17 1.3-1.88 1.87Z" fill="#108297"/><path d="m47.68 31.08-2.32-1.27a17 17 0 0 0 1.72-1.98c.6.54 1.14 1.1 1.64 1.7-.3.53-.64 1.05-1.04 1.55Z" fill="#ADD3C6"/><path d="m47.68 31.08-2.32-1.27 3.36-.29c-.3.54-.64 1.06-1.04 1.56Z" fill="#00AAAC"/><path d="m47.92 31.56 1.12.54a9 9 0 0 1-.83 1.35c-.63 0-1.28-.05-1.93-.13.61-.55 1.16-1.14 1.64-1.76Z" fill="#ADD3C6"/><path d="M49.04 32.1c-.24.48-.51.93-.83 1.35-.63 0-1.28-.05-1.93-.13l2.76-1.22Z" fill="#00AAAC"/><path d="M41.84 35.41h-.05c-1.2-.23-2.4-.64-3.6-1.25 1.14-.34 2.27-.83 3.37-1.46l.04-.02.03.01c1.2.43 2.39.7 3.57.85a13.28 13.28 0 0 1-3.33 1.86l-.03.01Z" fill="#51AEE2"/><path d="M41.84 35.41h-.05c-1.2-.23-2.4-.64-3.6-1.25l7-.63a13.2 13.2 0 0 1-3.32 1.87l-.03.01Z" fill="#108297"/><path d="M45.95 33.6c.73.05 1.45.05 2.16-.01a8.9 8.9 0 0 1-1.77 1.73c-1.1.28-2.31.36-3.57.23a12.8 12.8 0 0 0 3.18-1.95Z" fill="#51AEE2"/><path d="M46.34 35.32c-1.1.28-2.31.36-3.57.23l5.34-1.96a8.9 8.9 0 0 1-1.77 1.73Z" fill="#108297"/><path d="M41.88 35.9h.03c1.32.2 2.6.14 3.77-.15a8.61 8.61 0 0 1-3.7 1.21h-.04a8.58 8.58 0 0 1-3.85-.53c1.2.07 2.47-.1 3.74-.52l.03-.01h.02Z" fill="#51AEE2"/><path d="M45.65 35.77a8.62 8.62 0 0 1-3.67 1.2h-.04a8.58 8.58 0 0 1-3.82-.53c.85.12 2.24.13 3.8-.01 1.55-.14 2.92-.4 3.73-.66Z" fill="#108297"/><path d="m49.87 27.7.13.33c0 .85-.12 1.67-.34 2.46-.16-.29-.34-.57-.53-.84.32-.64.56-1.3.74-1.94Z" fill="#ADD3C6"/><path d="M49.67 30.49c-.17-.29-.35-.57-.54-.84.5-.44.83-1 .87-1.63 0 .86-.12 1.68-.33 2.47Z" fill="#00AAAC"/><path d="M49.65 27.17c-.3-.61-.68-1.21-1.12-1.78-.34.67-.73 1.34-1.18 1.98.55.56 1.05 1.14 1.5 1.74.34-.64.6-1.29.8-1.94Z" fill="#1CA142"/><path d="M49.65 27.17c-.3-.61-.68-1.21-1.12-1.78-.34.67-.73 1.34-1.18 1.98l2.3-.2Z" fill="#64B43A"/><path d="m44.53 25.83-2.56 2.01 2.86 1.53c.67-.62 1.29-1.27 1.84-1.95a20 20 0 0 0-2.14-1.59Z" fill="#1CA142"/><path d="m44.53 25.83-2.56 2.01 4.7-.42a20 20 0 0 0-2.14-1.59Z" fill="#82BD4C"/><path d="m47.2 23.3 1.02-.74a8.94 8.94 0 0 0-1.04-1.17c-.62.11-1.25.27-1.88.46.7.43 1.33.92 1.9 1.44Z" fill="#64B43A"/><path d="M48.22 22.56a8.93 8.93 0 0 0-1.04-1.17c-.62.11-1.25.27-1.88.46l2.92.71Z" fill="#AFCB37"/><path d="m48.58 24.77.46-.88c-.2-.4-.43-.78-.69-1.14l-.91.76c.41.4.8.82 1.14 1.26Z" fill="#64B43A"/><path d="M49.04 23.9a9 9 0 0 0-.69-1.15l-.91.76 1.6.38Z" fill="#AFCB37"/><path d="m49.79 26.75.07-.34a9.07 9.07 0 0 0-.75-2.36c-.11.31-.24.62-.38.92.42.57.78 1.17 1.06 1.78Z" fill="#1CA142"/><path d="M49.11 24.05c-.11.3-.24.62-.38.92.57.34.98.85 1.13 1.45a9.03 9.03 0 0 0-.75-2.37Z" fill="#82BD4C"/><path d="M44.92 21.64c.72-.18 1.43-.3 2.13-.37a8.81 8.81 0 0 0-2.03-1.39c-1.13-.08-2.34.05-3.55.4a12.68 12.68 0 0 1 3.45 1.36Z" fill="#64B43A"/><path d="M45.02 19.88c-1.13-.08-2.34.05-3.55.4l5.58 1a8.8 8.8 0 0 0-2.03-1.4Z" fill="#AFCB37"/><path d="M47.07 23.81 45 25.48c.73.5 1.4 1.06 2.02 1.64.5-.63.94-1.29 1.34-1.95-.39-.48-.82-.93-1.3-1.36Z" fill="#1CA142"/><path d="M47.07 23.81 45 25.48l3.36-.31c-.39-.48-.82-.93-1.3-1.36Z" fill="#82BD4C"/><path d="M44.63 22.08c-1.08.38-2.17.88-3.23 1.5a17.44 17.44 0 0 1 3.19 1.63l2.2-1.62a13.47 13.47 0 0 0-2.16-1.51Z" fill="#64B43A"/><path d="M44.63 22.08c-1.08.38-2.17.88-3.23 1.5h5.4a13.46 13.46 0 0 0-2.17-1.5Z" fill="#AFCB37"/><path d="M40.51 20.1h-.03a9.97 9.97 0 0 0-3.77.15 8.62 8.62 0 0 1 3.7-1.21h.04a8.58 8.58 0 0 1 3.85.53c-1.2-.07-2.47.1-3.74.52l-.03.01h-.02Z" fill="#64B43A"/><path d="M36.74 20.23a8.62 8.62 0 0 1 3.67-1.2h.04a8.57 8.57 0 0 1 3.82.53c-.85-.12-2.24-.13-3.8.01-1.55.14-2.92.4-3.73.66Z" fill="#AFCB37"/><path d="M40 28.65v1.26c-.33-.01-.6-.2-.7-.46A1.75 1.75 0 0 1 38 30a1.95 1.95 0 0 1-2-2.01 2 2 0 0 1 1.18-1.84 2 2 0 0 1 .79-.15 1.81 1.81 0 0 1 1.33.56c.1-.26.37-.45.7-.46v2.55Zm-3.28-.67a1.33 1.33 0 0 0 1.33 1.36c.7 0 1.28-.62 1.29-1.31 0-.71-.58-1.36-1.3-1.36-.37 0-.68.12-.94.38-.26.25-.38.56-.38.93ZM35.7 26v4c-.39-.01-.7-.3-.7-.63V26h.7ZM35 25h.68v.19c0 .31-.3.57-.68.58V25ZM32 26.51c.25-.34.56-.51.96-.51.9 0 1.41.64 1.41 1.75V30h-.64v-2.05c0-.84-.3-1.26-.82-1.26-.74 0-.91.9-.91 1.52V30h-.62v-3.92c.29.01.53.19.62.43ZM30.37 29.49c-.12.17-.26.3-.42.38a1.1 1.1 0 0 1-.53.13c-.45 0-.8-.15-1.05-.46a2 2 0 0 1-.37-1.29V26h.64v2.05c0 .42.07.74.2.95.14.2.35.31.62.31a.82.82 0 0 0 .77-.5c.05-.1.08-.22.1-.35.02-.14.03-.36.03-.67V26H31v3.92a.7.7 0 0 1-.63-.43ZM23.31 29.42v-3.84a.6.6 0 0 1 .59-.58h.97c1 0 1.59.4 1.95.92.34.5.5 1.1.5 1.6 0 .67-.25 1.4-.6 1.76-.56.56-1.2.72-1.88.72h-.99a.61.61 0 0 1-.54-.58Zm.7-3.75v3.66h.84c.84 0 1.76-.44 1.76-1.82 0-.75-.44-1.84-1.75-1.84h-.85ZM6.7 29.33v-3.66h.85c1.3 0 1.75 1.09 1.75 1.84 0 1.38-.92 1.82-1.77 1.82H6.7Zm-.7.05v.04c.02.3.25.55.54.58h.99c.67 0 1.32-.16 1.87-.72.35-.37.6-1.1.6-1.77 0-.48-.15-1.1-.5-1.6-.35-.51-.95-.91-1.95-.91h-.97a.6.6 0 0 0-.58.58v3.8Zm9 .02c0 .32.3.59.68.6v-4.4c0-.32-.3-.59-.68-.6v4.4Zm1.32-2.4h-.52v-.63h.52l.01-1.37c.38.01.68.28.68.6l-.01.77h.54V27H17v3c-.38-.01-.68-.28-.68-.6V27Zm5.38 1.65v1.26c-.33-.01-.61-.2-.7-.46a1.75 1.75 0 0 1-1.3.55 1.99 1.99 0 0 1-2-2.01 2 2 0 0 1 1.18-1.84 2.01 2.01 0 0 1 1.51-.01c.22.1.43.23.6.42.1-.26.38-.45.7-.46v2.55Zm-3.29-.67a1.33 1.33 0 0 0 1.33 1.36c.7 0 1.3-.62 1.3-1.31 0-.71-.58-1.36-1.31-1.36-.36 0-.67.12-.93.38-.26.25-.39.56-.39.93Zm-7.3.28c.06.31.2.57.43.77.23.2.5.3.81.3a1.18 1.18 0 0 0 1.05-.63h.76c-.17.42-.41.74-.72.97-.31.22-.68.33-1.09.33a1.87 1.87 0 0 1-1.39-.6 2.08 2.08 0 0 1-.43-2.14 2.02 2.02 0 0 1 1.04-1.1c.23-.1.49-.16.77-.16a1.95 1.95 0 0 1 1.63.88c.1.17.18.36.24.57.05.2.07.44.07.7v.1h-3.17Zm2.43-.61a1.36 1.36 0 0 0-.44-.73c-.2-.17-.45-.26-.74-.26-.3 0-.56.1-.78.27-.21.17-.36.41-.45.72h2.41Z" fill="#706F6F"/></svg>