<!-- by TradingView --><svg width="56" height="56" viewBox="0 0 56 56" xmlns="http://www.w3.org/2000/svg"><path fill="#F0F3FA" d="M0 0h56v56H0z"/><circle cx="28" cy="37" r="3" fill="#9132C2"/><path d="M32.9 14.26a5.32 5.32 0 0 0-9.8 0L12 38.52 13.81 40c2.75-5.36 8.1-9 14.24-9 6.15 0 11.5 3.64 14.24 9L44 38.52 32.9 14.26Z" fill="url(#a)"/><path d="M39.73 29.19c-1.2-1.84-3.57-4.19-6.8-4.19-4.72 0-13.63 7.04-16.73 11.48A15.74 15.74 0 0 1 28.05 31c6.15 0 11.5 3.64 14.24 9L44 38.52l-4.27-9.33Z" fill="url(#b)"/><defs><linearGradient id="a" x1="39.45" y1="25.54" x2="12" y2="25.5" gradientUnits="userSpaceOnUse"><stop offset=".18" stop-color="#5026C4"/><stop offset="1" stop-color="#BB42C1"/></linearGradient><linearGradient id="b" x1="44" y1="32.45" x2="16.2" y2="32.45" gradientUnits="userSpaceOnUse"><stop stop-color="#C341E3"/><stop offset="1" stop-color="#5525AE"/></linearGradient></defs></svg>