<!-- by TradingView --><svg width="56" height="56" viewBox="0 0 56 56" xmlns="http://www.w3.org/2000/svg"><path fill="#F0F3FA" d="M0 0h56v56H0z"/><path d="M45 23.41c-2.3-5.23-7.6-8.9-13.78-8.9-8.28 0-14.22 6.02-14.22 14.15C17.2 22.6 21.84 18 29.38 18 36.28 18 42 22.2 42 29c0 6.76-6 13-13.05 13-6.69 0-10.75-3.76-12.92-5.6 1.24 2.52 5.74 7.6 13.99 7.6 2.84 0 5.89-1.1 7.98-2-2.67 1.65-6.3 3-9.68 3C18.75 45 11 37.39 11 28s7.75-17 17.32-17c7.94 0 14.64 5.25 16.68 12.41Z" fill="#1C7A93"/><path d="M17 28.43c0-5.43 4.68-10.5 11.1-10.5 4.95 0 8.1 2.34 9.17 3.77l-2.36 1.68c-.52-.7-2.8-2.38-6.8-2.38-4.79 0-8.11 3.64-8.11 7.52 0 3.87 3.45 7.55 8.1 7.55 4.24 0 6.99-1.99 7.7-5.07H30v-3h9v1.38c0 5.78-4.86 9.54-10.9 9.54-6.26 0-11.1-5.05-11.1-10.5Z" fill="#F0F3FA"/></svg>