<!-- by TradingView --><svg width="56" height="56" viewBox="0 0 56 56" xmlns="http://www.w3.org/2000/svg"><path fill="#F0F3FA" d="M0 0h56v56H0z"/><path d="M26.9 43h2.2c.16-.09.48-.4.48-.87 0-.3-.34-1.28-.68-2.26-.34-.97-.58-1.95-.58-2.25 0-.6.48-.75 1.08-.75.3 0 .74.28 1.35.67 1.4.89 3.7 2.24 7.27 2.24 4.11 0 8.37-3 9.98-4.56-.13.05-.55.14-1.17.14-.22 0-.68-.36-1.34-.87-1.57-1.23-4.23-3.3-7.44-3.3-3.5 0-7.06 2.72-8.52 4.22a.28.28 0 0 1-.3.07.3.3 0 0 1-.15-.42c2.94-5.27 8.4-4.98 10.9-4.85l.79.03c1.88 0 5.23-1.26 5.23-5.04 0-3.79-5.67-5.65-10.26-6.91-3.68-1.01-6.09-3.28-6.2-4.29 0 2.67 2.62 4.69 6.2 6.76l.71.41c3.06 1.76 4.18 2.48 4.18 4.68 0 2.17-2.2 2.57-4.79 3l-.73.13c-3.94.9-6.27 4.53-7.03 6.44-.05.14-.08.3-.08.45 0-.15-.03-.3-.08-.45-.76-1.91-3.09-5.55-7.03-6.44l-.73-.13c-2.58-.43-4.8-.83-4.8-3 0-2.2 1.13-2.92 4.19-4.68l.71-.41c3.58-2.07 5.18-4.09 5.18-6.76-.12 1-1.5 3.28-5.18 4.29C15.66 19.55 10 21.4 10 25.19c0 3.79 3.35 5.05 5.23 5.05l.8-.03c2.48-.13 7.95-.42 10.9 4.85a.3.3 0 0 1-.16.42.28.28 0 0 1-.3-.07c-1.46-1.5-4.98-4.22-8.5-4.22-3.2 0-5.89 2.07-7.46 3.3-.66.51-1.12.87-1.34.87-.62 0-1.04-.1-1.17-.14 1.61 1.56 5.87 4.56 9.98 4.56 3.58 0 5.88-1.35 7.27-2.24.61-.39 1.05-.67 1.35-.67.6 0 1.08.14 1.08.75 0 .3-.24 1.28-.58 2.25-.34.98-.68 1.95-.68 2.26 0 .48.32.78.48.87Z" fill="#7C6F5B"/><path d="M34 23v5h-1l-1-2.5V28h-1v-5h1l1 2.5V23h1ZM27 28v-5h1.57c.95 0 1.43.83 1.43 1.7 0 .88-.5 1.8-1.45 1.8h-1v-1h.86c.49 0 .59-.36.59-.8 0-.46-.1-.7-.59-.7H28v4h-1ZM24.26 28H23v-5h1.27C25.6 23 26 24.4 26 25.5s-.41 2.5-1.74 2.5ZM24 27c.86 0 1-.81 1-1.5 0-.7-.14-1.5-1-1.5v3Z" fill="#79B05F"/></svg>