<!-- by TradingView --><svg width="56" height="56" viewBox="0 0 56 56" xmlns="http://www.w3.org/2000/svg"><path fill="#F0F3FA" d="M0 0h56v56H0z"/><path fill-rule="evenodd" d="M27.44 14C22.62 14.42 13 18.2 13 29.91 13 37.42 19.3 45 28 45s15-8.16 15-14.57v-2.54c-.06-.14-.46-.41-1.66-.41-1.5 0-4.31.58-6.7 2.09-.84.91-3.2 2.74-5.94 2.74-3.42 0-8.93-2.78-8.93-9.05 0-6.28 4.65-8.92 7.67-9.26ZM38 32a1 1 0 1 0 0-2 1 1 0 0 0 0 2Zm-22-3.98c0-4.26 1.8-7.12 2.7-8.02a17.78 17.78 0 0 0-1.92 8.32c0 8.31 9.65 9.8 10.56 9.8.53 0 1-.08 1.42-.15.3-.05.57-.09.78-.09h.23c.52-.01 1.23-.03 1.23.4 0 .49-1.22.72-3.22.72C19.83 38.54 16 33.35 16 28.02Zm20.1 11.55c.68 0 1.32-.15 1.9-.43-.72.54-1.61.86-2.57.86A4.54 4.54 0 0 1 31 35.36c0-1.32.53-2.51 1.37-3.36a4.93 4.93 0 0 0-.84 2.78 4.7 4.7 0 0 0 4.57 4.8Z" fill="url(#a)"/><path d="M40 10c-2.23 2.6-6.93 3.9-9 4.22 6.5 2.13 6.76 8.07 6.08 10.78 3.15-4.9 2.15-9.22 1.26-10.78 1.2-1.02 1.6-3.24 1.66-4.22Z" fill="#093E9B"/><path d="M31.72 9c-.62 0-1.46.27-2.14.87-.7.61-1.24 1.56-1.24 2.9 0 .87.33 1.6.72 2.15.3.41.65.74.94.95-.3.6-.62 1.48-.62 2.4 0 2.62 1.53 3.3 3.25 3.3 1.37 0 2.5-.83 2.88-1.25l-2.84-2.78a.98.98 0 0 1-.7.29c-.55 0-1-.47-1-1.05 0-.26.1-.5.24-.67l-.54-.54v-.01a.46.46 0 0 1-.05-.04l-.17-.16a2.6 2.6 0 0 1-.49-1.68c0-1.53 1.11-3.27 3.02-3.27 1.6 0 2.27.62 2.4.85l.33-.2c-.22-.4-1.05-1.05-2.73-1.05-2.18 0-3.4 1.98-3.4 3.67 0 .73.16 1.26.36 1.63a4.12 4.12 0 0 1-.57-.64 3.25 3.25 0 0 1-.64-1.9 3.3 3.3 0 0 1 1.1-2.59 3.05 3.05 0 0 1 1.89-.78c.44 0 .77.04 1 .08.25.04.37.08.4.1l.18-.35c-.09-.05-.26-.1-.5-.15A6.42 6.42 0 0 0 31.71 9Zm.26 8.29a.5.5 0 0 0 .48-.5.5.5 0 0 0-.48-.51.5.5 0 0 0-.49.5c0 .28.22.5.49.5Zm-9.19 3.57 1.82 1.75-1.43 4.82a3.94 3.94 0 0 0 2.76 1.11c1.75 0 5-1.14 5-5.19 0-.6-.15-1.28-.23-1.55.07.11.55.34 1.98.34s2.48-.85 2.82-1.28a7.35 7.35 0 0 1 .13 4.82c-.62.08-2.16.05-3.3-.68.27.47 1.27 1.4 2.98 1.35a6.42 6.42 0 0 1-2.99 3.5 6.84 6.84 0 0 1-1.78-2.12c-.02.54.17 1.78 1.1 2.43-.44.28-1.72.84-3.27.84h-1.14l-.49-1.68c-.03.29-.06 1 .1 1.48a7.7 7.7 0 0 1-5.84-8.19l.78-.8c.15.26.47 1.16.55 2.62.02-1.16.14-3.49.45-3.57Z" fill="url(#b)"/><defs><linearGradient id="a" x1="17.11" y1="19.99" x2="42.07" y2="35.19" gradientUnits="userSpaceOnUse"><stop stop-color="#52D2F7"/><stop offset="1" stop-color="#0C46A0"/></linearGradient><linearGradient id="b" x1="35.35" y1="19.98" x2="22.46" y2="27.21" gradientUnits="userSpaceOnUse"><stop stop-color="#1DC0CB"/><stop offset="1" stop-color="#CCDA4C"/></linearGradient></defs></svg>