<!-- by TradingView --><svg width="56" height="56" viewBox="0 0 56 56" xmlns="http://www.w3.org/2000/svg"><path fill="#F0F3FA" d="M0 0h56v56H0z"/><path fill-rule="evenodd" d="M28 41c11.05 0 20-5.82 20-13s-8.95-13-20-13S8 20.82 8 28s8.95 13 20 13Zm0-1c10.5 0 19-5.37 19-12s-8.5-12-19-12S9 21.37 9 28s8.5 12 19 12Z" fill="#280971"/><path d="M11 28c0-3.57 2.63-6.74 6.7-8.75l6.06 6.13c-2.79.8-4.76 2.8-4.76 5.12 0 3.04 3.36 5.5 7.5 5.5 2.32 0 4.4-.78 5.78-2l3.67 3.73A24.63 24.63 0 0 1 28 39c-9.39 0-17-4.92-17-11Z" fill="#457F33"/><path d="M45 28c0 3.58-2.65 6.76-6.74 8.77l-6.06-6.14c2.8-.79 4.8-2.79 4.8-5.13 0-3.04-3.36-5.5-7.5-5.5-2.34 0-4.43.79-5.8 2.02L20 18.3A24.6 24.6 0 0 1 28 17c9.39 0 17 4.92 17 11Z" fill="#280971"/><ellipse cx="28" cy="28" rx="3" ry="2" fill="#280971"/></svg>