<!-- by TradingView --><svg width="56" height="56" viewBox="0 0 56 56" xmlns="http://www.w3.org/2000/svg"><path fill="#F0F3FA" d="M0 0h56v56H0z"/><path d="M29.16 14c-4.67 0-5.86.5-7.16.75C40.97 18.18 45.34 29.68 45.15 35A9.84 9.84 0 0 0 48 27.77C48 17.44 33.83 14 29.16 14Z" fill="#F5BC25"/><path fill-rule="evenodd" d="M8 27.94c0 9.9 12.7 13.5 19.05 14.06C28.7 40.47 32 36.08 32 30.8c0-8.96-8.25-14.27-12.37-15.8C18.9 15.15 8 18.94 8 27.94ZM26 32l1.01-6H28l-1 6h-1Zm-3.85-6L21 32h1.13l.49-2.55h2.66l.2-1H22.8L23.1 27h2.71l.2-1h-3.85ZM16 30h1.14c.02.36.08.57.2.7.17.2.5.3.96.3.4 0 .68-.07.86-.2.17-.15.26-.32.26-.51a.55.55 0 0 0-.22-.44 4.2 4.2 0 0 0-.83-.42c-.45-.2-.78-.36-1-.49a1.45 1.45 0 0 1-.67-1.24c.01-.49.19-.9.54-1.22.36-.32.87-.48 1.55-.48s1.21.16 1.59.48c.38.32.58.77.62 1.3h-1.15a.87.87 0 0 0-.3-.61c-.18-.15-.43-.22-.77-.22-.33 0-.57.05-.71.17a.55.55 0 0 0-.21.44c0 .17.06.3.2.41.12.11.41.26.86.46.67.28 1.1.52 1.28.7.27.26.41.6.41 1.01 0 .52-.2.95-.61 1.32-.41.36-.98.54-1.7.54-.5 0-.94-.08-1.31-.25-.37-.17-.63-.4-.78-.7a2.2 2.2 0 0 1-.2-1.05Zm-3.9-4L11 32h1.85c1.33 0 2.28-.53 2.82-1.79.22-.5.33-1.07.33-1.72 0-1.64-.96-2.49-2.48-2.49H12.1Zm.7 5h-.54l.74-4h.62c.32 0 .54.02.67.07.53.22.62.88.62 1.38 0 .5-.07.93-.21 1.3-.38.94-.91 1.25-1.9 1.25Z" fill="#283873"/></svg>