<!-- by TradingView --><svg width="56" height="56" viewBox="0 0 56 56" xmlns="http://www.w3.org/2000/svg"><path fill="#F0F3FA" d="M0 0h56v56H0z"/><path fill-rule="evenodd" d="M42.23 42.24c.5-.5.77-1.16.77-1.85V15.6A2.6 2.6 0 0 0 40.38 13H15.62A2.62 2.62 0 0 0 13 15.61V40.4A2.6 2.6 0 0 0 15.62 43h24.76c.7 0 1.36-.28 1.85-.76ZM14.51 27.65c-.04-1.12.2-2.1.45-3.18l.02-.1a13.5 13.5 0 0 1 10.03-9.53c.37-.1.7-.18 1.05-.22 1.41-.17 2.8-.16 4.14.04.14.02.62.14 1.43.34a13.53 13.53 0 0 1 9.05 8.31c.25.64.41 1.38.57 2.06l.1.42a11.16 11.16 0 0 1 .13 1.92.1.1 0 0 1-.07.04.9.9 0 0 1-.36 0 .12.12 0 0 1-.1-.11 11.15 11.15 0 0 0-6.85-9.82l-1.2-.4a11.6 11.6 0 0 0-5.01-.24c-.47.08-.87.2-1.28.34l-.56.17A11.08 11.08 0 0 0 18.8 27.7a.08.08 0 0 1-.06.03h-4.15a.08.08 0 0 1-.08-.08Zm4.87 0a6.33 6.33 0 0 1 .21-1.74c.13-.57.25-1.13.44-1.61a10.48 10.48 0 0 1 8.9-6.73 10.5 10.5 0 0 1 11.5 10.01c-.01.15-.13.2-.36.15a.2.2 0 0 1-.16-.17 8.2 8.2 0 0 0-5.29-7.34c-.34-.13-.71-.28-1.06-.34a8.13 8.13 0 0 0-9.62 5.88 9.53 9.53 0 0 0-.32 1.95.07.07 0 0 1-.05.02h-4.12a.07.07 0 0 1-.05-.03.07.07 0 0 1-.02-.05Zm8.51.06a5.43 5.43 0 0 1 10.92-.14.18.18 0 0 0 .18.17h.2a.18.18 0 0 0 .18-.18 7.6 7.6 0 0 0-14.86-1.85l-.05.17c-.17.72-.27 1.1-.27 1.76a.08.08 0 0 0 .08.09h3.57l.05-.02Zm13.5.55a.08.08 0 0 1 .08.07c.05 1.13-.18 2.11-.44 3.2l-.02.09a13.5 13.5 0 0 1-9.44 9.4l-.58.14c-.36.09-.7.17-1.04.22-1.41.17-2.8.16-4.14-.04-.14-.02-.62-.13-1.43-.33a13.53 13.53 0 0 1-9.06-8.3c-.24-.65-.41-1.38-.56-2.06l-.1-.42a11.22 11.22 0 0 1-.14-1.92.1.1 0 0 1 .07-.04.89.89 0 0 1 .36 0 .12.12 0 0 1 .1.11 11.15 11.15 0 0 0 6.86 9.8 11.6 11.6 0 0 0 6.22.63c.45-.07.85-.2 1.26-.33l.57-.18a11.08 11.08 0 0 0 6.5-6.41c.22-.58.33-1.07.46-1.68l.11-.49a6.6 6.6 0 0 0 .16-1.43.08.08 0 0 1 .06-.02l4.15-.01Zm-4.8.02a.07.07 0 0 0-.04-.02h-4.13c-.02 0-.04 0-.05.02a8.13 8.13 0 0 1-9.93 7.83c-.35-.06-.71-.2-1.05-.34l-.34-.12a8.2 8.2 0 0 1-4.97-7.2.2.2 0 0 0-.15-.19c-.24-.04-.36 0-.36.16 0 .92.2 1.7.46 2.64a10.5 10.5 0 0 0 11.05 7.36 10.48 10.48 0 0 0 8.89-6.74c.19-.48.3-1.03.43-1.6l.13-.57a6.3 6.3 0 0 0 .07-1.23Zm-4.8.05v.63c-.17.9-.36 1.62-.56 2.17a6.6 6.6 0 0 1-.6 1.07 7.62 7.62 0 0 1-4.22 3.26 8.06 8.06 0 0 1-5.77-.55 7.61 7.61 0 0 1-3.95-5.6 5.13 5.13 0 0 1-.03-1.04.09.09 0 0 1 .06-.02h.37a.07.07 0 0 1 .07.06 5.5 5.5 0 0 0 4.82 5.54 5.38 5.38 0 0 0 5.45-3c.4-.8.49-1.63.53-2.5a.09.09 0 0 1 .08-.1h3.68l.05.03.02.05Z" fill="#CD000A"/></svg>