<!-- by TradingView --><svg width="56" height="56" viewBox="0 0 56 56" xmlns="http://www.w3.org/2000/svg"><path fill="#F0F3FA" d="M0 0h56v56H0z"/><path d="M31 12.16c-.33-.07-.66-.12-1-.16v8.55l-5.25 4.34 3.47 4.35 1.98-1.45-1.04-1.52a1.82 1.82 0 0 1 .34-2.43c.76-.62 1.86-.49 2.47.29l2.15 2.76c.63.82.5 2-.29 2.66l-4.96 4.14c-.7.58-1.7.47-2.26-.24l-6.26-8.06a1.66 1.66 0 0 1 .27-2.3L26 18.8V12c-7.9.99-14 7.75-14 15.94C12 36.8 19.16 44 28 44a16.03 16.03 0 0 0 15-21.68l-4.98 4.08c-.79.65-1.93.52-2.56-.3L31 20.33v-8.17Zm10.14 6.62-4.06 3.47L35 19.1V13.5a16.09 16.09 0 0 1 6.14 5.29Z" fill="url(#a)"/><path d="M43.92 26.35a14.22 14.22 0 0 1-14.11 12.76c-7.84 0-14.2-6.38-14.2-14.25 0-4.84 2.41-9.12 6.09-11.69A16.07 16.07 0 0 0 12 27.94C12 36.8 19.16 44 28 44a16.03 16.03 0 0 0 15.92-17.65Z" fill="url(#b)"/><defs><linearGradient id="a" x1="41.76" y1="18.56" x2="21.76" y2="38.38" gradientUnits="userSpaceOnUse"><stop stop-color="#F48E20"/><stop offset="1" stop-color="#C04B28"/></linearGradient><linearGradient id="b" x1="14.22" y1="29.73" x2="28.06" y2="43.95" gradientUnits="userSpaceOnUse"><stop stop-color="#0060AA"/><stop offset="1" stop-color="#96BD53"/></linearGradient></defs></svg>