<!-- by TradingView --><svg width="56" height="56" viewBox="0 0 56 56" xmlns="http://www.w3.org/2000/svg"><path fill="#F0F3FA" d="M0 0h56v56H0z"/><path d="m34.97 26.77.25-.15c.29-.2.61-.47.96-.58a1.4 1.4 0 0 1 .95.1c.2.09.3.2.3.35 0 .24-.45.52-.63.59a.45.45 0 0 1-.17.03c-.09 0-.2-.04-.32-.14a.57.57 0 0 0-.37-.14c-.17 0-.34.06-.53.17-.2.12-.31.21-.36.29-.03.04-.05.1-.05.2v2.69c0 .2.1.32.28.33.08.01.05.02.18.03.18 0 .54-.02.54.24 0 .15-.05.22-.16.22h-2.38c-.13 0-.2-.06-.2-.18 0-.27.34-.23.52-.28.15-.03.22-.12.22-.26v-2.94l-.01-.1c-.04-.13-.31-.24-.4-.3l-.28-.18a.16.16 0 0 1-.05-.08c0-.15 1.44-.68 1.58-.68.1 0 .1.58.1.71 0 .04 0 .06.03.06ZM29.77 26.43c-1.05 0-1.27.99-1.27 1.99s.42 1.94 1.47 1.94c.32 0 .88-.1.99-.47.03-.1.04-.19.04-.24V27.1c0-.09-.04-.17-.11-.25a1.56 1.56 0 0 0-1.12-.4Zm.02-.43a3.7 3.7 0 0 1 .98.12l.15.04c.05 0 .08-.03.08-.1V24.4l-.01-.05c0-.23-.47-.33-.63-.4-.13-.03-.2-.08-.2-.16 0-.04.04-.09.1-.13a9.87 9.87 0 0 1 1.62-.65c.08 0 .12.05.12.15v6.66c0 .28.73-.04.73.3 0 .05-.02.1-.06.12-.34.28-1.1.44-1.46.7-.05.05-.09.07-.12.07-.05 0-.08-.04-.08-.12v-.34c0-.02-.01-.03-.03-.03l-.06.04-.16.1c-.3.2-.66.28-1.02.28-1.38 0-2.24-1.19-2.24-2.51 0-1.37.92-2.42 2.28-2.42ZM24.03 26.72c.3-.42.9-.72 1.4-.72h.03c.92 0 1.45.82 1.52 1.66l.02.58v.22l-.01 1.74v.02c0 .17.06.32.26.32a1 1 0 0 1 .1 0l.14.03c.1.02.15.08.15.21 0 .15-.05.22-.16.22h-2.05c-.1 0-.14-.07-.14-.22 0-.08.02-.13.06-.15.04-.03.15-.05.32-.08.2-.05.33-.06.33-.3V28.5c0-.83.15-1.94-.9-1.94-.4 0-1 .34-1.08.77a.7.7 0 0 0-.02.16v2.67c0 .17.05.33.23.35.31.06.48.1.5.13.05.03.07.1.07.18 0 .15-.07.19-.2.19h-2.11c-.12 0-.17-.07-.17-.2 0-.1.02-.16.06-.19.3-.18.62-.01.62-.47v-2.7c0-.13-.02-.22-.05-.26a2.99 2.99 0 0 0-.42-.38c-.04-.04-.06-.08-.06-.1v-.02c0-.03.02-.07.07-.1.38-.29.84-.31 1.24-.54.04-.03.07-.04.1-.04.08 0 .12.06.12.17v.44c0 .03 0 .15.03.1ZM17 26.98c0-.21.2-.43.6-.65.42-.22.87-.33 1.38-.33 1 0 2.02.47 2.02 1.6v2.18c0 .28.05.49.32.49.29 0 .36-.37.57-.37.07 0 .11.05.11.14 0 .5-.54.96-1 .96-.36 0-.68-.27-.92-.54l-.36.24c-.38.2-.78.3-1.2.3-.43 0-.79-.12-1.07-.36-.27-.23-.4-.52-.4-.87 0-1.26 1.67-1.46 2.63-1.52.13 0 .32.01.32-.16v-.4c0-.38-.14-.67-.34-.88-.21-.2-.46-.3-.76-.3-.45 0-.82.25-1.1.74a.35.35 0 0 1-.28.13.65.65 0 0 1-.37-.1.34.34 0 0 1-.15-.3Zm1.83 3.42c.19 0 .37-.04.54-.11.25-.1.63-.27.63-.6v-.72c0-.1 0-.32-.15-.32-.21 0-.48.03-.8.09-.48.09-1.04.35-1.04.91 0 .28.09.48.26.6.12.1.3.15.56.15ZM38 26.98c0-.21.2-.43.6-.65.42-.22.87-.33 1.38-.33 1 0 2.03.47 2.03 1.6v2.18c0 .28.04.49.31.49.29 0 .36-.37.57-.37.07 0 .11.05.11.14 0 .5-.54.96-1 .96-.36 0-.68-.27-.92-.54l-.36.24c-.38.2-.78.3-1.2.3-.43 0-.79-.12-1.07-.36-.27-.23-.4-.52-.4-.87 0-1.26 1.67-1.46 2.63-1.52.13 0 .32.01.32-.16v-.4c0-.38-.14-.67-.34-.88-.21-.2-.46-.3-.76-.3-.45 0-.82.25-1.1.74a.35.35 0 0 1-.28.13.65.65 0 0 1-.37-.1.34.34 0 0 1-.15-.3Zm1.83 3.42c.19 0 .37-.04.54-.11.25-.1.63-.27.63-.6v-.72c0-.1 0-.32-.15-.32-.21 0-.48.03-.8.09-.48.09-1.04.35-1.04.91 0 .28.09.48.26.6.12.1.3.15.56.15ZM12.96 34a.4.4 0 0 1-.31-.13.47.47 0 0 1-.12-.32c0-.3.18-.48.54-.75.19-.13.33-.25.42-.34.16-.17.31-.4.48-.73.17-.3.25-.54.25-.7 0-.22-.4-1.26-1.2-3.12l-.6-1.29a.23.23 0 0 0-.19-.12.63.63 0 0 1-.17-.06c-.04-.03-.06-.1-.06-.23 0-.14.05-.21.15-.21h1.71c.1 0 .15.07.15.2l-.01.08c0 .2-.23.21-.4.21-.1.02-.16.07-.16.17l.12.48a30.4 30.4 0 0 0 1.07 2.6c0 .06.02.08.07.08.07 0 .07-.08.1-.12.6-1.64.9-2.63.9-2.95 0-.24-.16-.27-.36-.27l-.16-.01c-.13-.02-.2-.1-.2-.25s.07-.22.2-.22h1.7c.08 0 .12.09.12.26 0 .09-.02.14-.06.17-.05.02-.17.04-.37.06-.07 0-.12.04-.14.09a38.4 38.4 0 0 1-.71 2.13 29 29 0 0 1-1.95 4.52c-.3.51-.56.77-.81.77ZM6.96 30.43c1.79 0 3.01-1.45 3.01-3.18 0-2-1.26-3.75-3.35-3.75-.28 0-.41.02-.5.07-.08.04-.12.14-.12.3v6.03c0 .54.54.53.96.53Zm-2.95-7.19c0-.16.08-.24.23-.24h1.91C8.63 23 11 24.04 11 26.94c0 1.75-1.17 3.6-2.96 3.99a4.9 4.9 0 0 1-.9.07h-2.9c-.16 0-.24-.11-.24-.34 0-.35.48-.24.72-.27.11-.01.19-.05.22-.1a.67.67 0 0 0 .06-.33v-6c0-.2-.05-.31-.14-.36a1.16 1.16 0 0 0-.5-.08H4.2c-.13 0-.19-.1-.19-.28Z" fill="#E31F29"/><path d="M51 29c.57 0 1 .41 1 .97S51.55 31 51 31c-.57 0-1-.41-1-.96 0-.58.44-1.04 1-1.04Zm-.08.13c-.32 0-.52.25-.52.7 0 .62.3 1.05.67 1.05.3 0 .53-.26.53-.68 0-.62-.34-1.07-.68-1.07Z" fill="#959595"/><path d="M48.77 30.76c.32 0 .59-.1.85-.3.2-.15.24-.28.32-.28.04 0 .06.03.06.07 0 .07-.07.19-.22.32-.32.28-.74.43-1.2.43-.94 0-1.58-.57-1.58-1.44 0-.48.2-.9.56-1.2.28-.24.65-.36 1.07-.36.2 0 .41.04.62.1.14.06.23.11.31.11.1 0 .12-.15.2-.15.1 0 .07.1.1.3.03.24.1.4.1.49 0 .05-.03.08-.08.08-.07 0-.08-.07-.14-.16a1.34 1.34 0 0 0-1.17-.62c-.62 0-1.08.47-1.08 1.19 0 .85.55 1.42 1.28 1.42ZM45.59 30.64c-.33.23-.73.36-1.2.36-.82 0-1.39-.47-1.39-1.05 0-.44.27-.77.78-.9a.8.8 0 0 1-.15-.44c0-.35.31-.61.75-.61.34 0 .55.11.64.11.07 0 .1-.04.13-.04.05 0 .07.03.07.1v.1c0 .17.04.3.04.41 0 .05-.03.07-.08.07-.1 0-.09-.13-.18-.26a.72.72 0 0 0-.61-.34c-.2 0-.36.13-.36.34 0 .32.57.9 1.72 1.74a.68.68 0 0 0 .18-.46c0-.2-.08-.31-.26-.35-.14-.04-.27-.01-.27-.1 0-.04.05-.05.14-.05l.44.02.34-.02c.08 0 .12.01.12.05 0 .09-.21.08-.24.2-.04.17-.01.48-.3.82.33.25.58.43.81.43.1 0 .17-.03.22-.03.04 0 .07.03.07.06 0 .08-.23.2-.54.2-.3 0-.56-.15-.87-.36Zm-.15-.1a7.74 7.74 0 0 1-1.59-1.38c-.3.06-.48.25-.48.52 0 .22.12.45.34.66a1.4 1.4 0 0 0 1.73.2Z" fill="#959595"/></svg>