<!-- by TradingView --><svg width="56" height="56" viewBox="0 0 56 56" xmlns="http://www.w3.org/2000/svg"><path fill="#F0F3FA" d="M0 0h56v56H0z"/><path d="M28.05 17.11h-.1C24.6 17.07 16.9 18.18 12 23c1.25-2.33 6.18-6.97 15.95-7h.1c9.77.03 14.7 4.67 15.95 7-4.9-4.82-12.6-5.93-15.95-5.89Z" fill="#0D3894"/><path d="M28.04 18.96h-.08c-2.93-.04-9.67.9-13.96 5.04 1.1-2 5.41-5.97 13.96-6h.08c8.55.03 12.87 4 13.96 6-4.3-4.13-11.03-5.08-13.96-5.04Z" fill="#0D3894"/><path d="M28.54 20.8h-.08c-2.61-.04-8.63.76-12.46 4.2.98-1.66 4.83-4.98 12.46-5h.08c7.63.02 11.48 3.34 12.46 5-3.83-3.44-9.85-4.24-12.46-4.2ZM24 33l-.1.9a.6.6 0 0 0-.27-.1 1.93 1.93 0 0 0-.36-.02h-1.34c-.21 0-.27 0-.36.07-.1.06-.13.11-.18.33l-.41 1.57-.02.1-.02.1c0 .2.15.27.54.27H22.78l.2-.01a.9.9 0 0 0 .33-.08l-.35.87h-2.65a2.1 2.1 0 0 1-.73-.1.95.95 0 0 1-.58-.85c0-.12.02-.22.07-.45l.43-1.66c.1-.37.26-.61.51-.77a1 1 0 0 1 .35-.13c.1-.02.22-.04.34-.04H24ZM37 33l-1.02 4.67-.06.3c-.08.37-.2.62-.39.78a.83.83 0 0 1-.35.19c-.18.05-.25.06-.58.06H31l.07-.95c.11.05.15.05.25.07.14.03.21.04.4.04h1.96c.33 0 .41-.07.48-.42l.23-1.01c-.16.23-.25.27-.66.27h-1.05a2.86 2.86 0 0 1-.43-.07c-.36-.12-.65-.59-.65-1.07 0-.18.01-.26.1-.62l.31-1.46.03-.18.01-.28a1 1 0 0 0-.04-.32h1.97l-.58 2.67-.03.14c-.02.05-.02.08-.02.12 0 .15.12.23.34.23h.46c.3 0 .38-.1.47-.48l.41-1.9.02-.18.03-.28a1 1 0 0 0-.05-.32H37ZM27 32l-.24 1H25.1l.23-1H27Zm-.32 1.33-.72 3.01a2.44 2.44 0 0 0-.04.4c0 .1 0 .14.04.26H24l.13-.21c.07-.16.14-.35.21-.64l.51-2.16a2.02 2.02 0 0 0 .05-.39c0-.1 0-.15-.05-.27h1.83ZM51 27l-.1.9a.6.6 0 0 0-.27-.1 1.93 1.93 0 0 0-.36-.02h-1.34c-.21 0-.27 0-.36.07-.1.06-.13.11-.18.33l-.41 1.57-.02.1-.02.1c0 .2.15.27.54.27H49.78l.2-.01a.9.9 0 0 0 .33-.08l-.35.87h-2.65a2.1 2.1 0 0 1-.73-.1.95.95 0 0 1-.58-.85c0-.12.02-.22.07-.45l.43-1.66c.1-.37.26-.61.51-.77a1 1 0 0 1 .35-.13c.1-.02.22-.04.34-.04H51ZM46 26l-.24 1H44.1l.23-1H46Zm-.32 1.33-.72 3.01a2.44 2.44 0 0 0-.04.4c0 .1 0 .14.04.26H43l.13-.21c.07-.16.14-.35.21-.64l.51-2.16a2.02 2.02 0 0 0 .05-.39c0-.1 0-.15-.05-.27h1.83ZM43 28.03c0 .15-.03.41-.08.64l-.34 1.61-.03.16-.01.27c0 .11 0 .16.04.29h-1.9l.13-.23c.07-.17.14-.38.2-.7l.38-1.77.03-.13a.95.95 0 0 0 .02-.2c0-.05-.02-.1-.06-.14-.04-.03-.08-.05-.14-.05h-.5c-.26 0-.33.06-.4.38l-.45 2.12a2.98 2.98 0 0 0-.04.43c0 .11 0 .16.04.29H38c.07-.12.1-.17.12-.23.07-.17.14-.38.2-.7l.5-2.35a2.46 2.46 0 0 0 .05-.42.8.8 0 0 0-.04-.3h1.7l-.09.37c.09-.2.14-.27.24-.32.08-.04.11-.05.31-.05h1.09c.54 0 .92.42.92 1.03ZM38 28.04c0 .14-.03.28-.06.45l-.33 1.47-.05.25c-.06.2-.2.41-.35.55-.2.18-.43.24-.98.24h-2.35a.88.88 0 0 1-.37-.07c-.3-.13-.51-.52-.51-.93 0-.11 0-.2.04-.34l.4-1.75c.07-.36.26-.63.52-.77.2-.1.43-.14.91-.14H37.23c.22.03.45.18.59.38.11.18.18.42.18.66Zm-1.68.01c0-.2-.1-.27-.34-.27h-.43c-.24 0-.27 0-.35.08a.56.56 0 0 0-.12.27l-.37 1.64-.01.1a.82.82 0 0 0-.02.1v.02c0 .17.09.23.32.23h.5c.22 0 .24 0 .31-.06.06-.05.1-.12.13-.28l.35-1.55c.02-.09.03-.23.03-.28ZM33 27l-.34 1.2a.99.99 0 0 0-.67-.2h-.68c-.35 0-.48.08-.55.34l-.47 1.94a2.48 2.48 0 0 0-.05.43c0 .11.01.16.05.29H28l.15-.23c.09-.17.17-.38.25-.7l.6-2.35c.02-.04.02-.1.03-.16l.03-.27c0-.11-.01-.16-.06-.29h1.83l-.02.19v.28l-.03.2c.16-.3.27-.43.45-.53.17-.1.36-.14.66-.14H33ZM28 27l-.18.8h-1.38l-.46 1.97-.02.13c0 .21.15.3.49.3h.45c.24 0 .37-.03.6-.12l-.2.92h-2.03c-.17-.03-.3-.03-.4-.06-.34-.1-.62-.52-.62-.96 0-.1.01-.2.04-.33l.43-1.86H24l.18-.79h.72l.17-.87 1.74-.13-.2 1H28ZM11 28c0 .12-.01.27-.04.4l-.23 1h-2.9l-.1.36-.03.22c0 .15.1.23.27.24h1.9c.31 0 .45-.01.63-.08l-.3.86H7.1c-.23 0-.46-.05-.6-.13-.3-.15-.5-.52-.5-.88 0-.08.01-.21.04-.32l.4-1.76c.14-.62.5-.91 1.13-.91h2.2c.36 0 .57.03.73.1.3.14.5.5.5.9Zm-1.7-.02c0-.14-.08-.2-.25-.2H8.5c-.26 0-.31.05-.4.38l-.1.46h1.17l.1-.46.03-.18ZM31 33l-.18.8h-1.38l-.46 1.97-.02.13c0 .21.15.3.49.3h.45c.24 0 .37-.03.6-.12l-.2.92h-2.03c-.17-.03-.3-.03-.4-.06-.34-.09-.62-.52-.62-.96 0-.1.01-.2.04-.33l.43-1.86H27l.18-.79h.72l.17-.87 1.74-.13-.2 1H31ZM24 27l-.1.9a.6.6 0 0 0-.27-.1 1.93 1.93 0 0 0-.36-.02h-1.34c-.21 0-.27 0-.36.07-.1.06-.13.11-.18.33l-.41 1.57-.02.1-.02.1c0 .2.15.27.54.27H22.78l.2-.01a.9.9 0 0 0 .33-.08l-.35.87h-2.65a2.1 2.1 0 0 1-.73-.1.95.95 0 0 1-.58-.85c0-.12.02-.22.07-.45l.43-1.66c.1-.37.26-.61.51-.77a1 1 0 0 1 .35-.13c.1-.02.22-.04.34-.04H24ZM19 28c0 .12-.01.27-.04.4l-.23 1h-2.9l-.1.36-.03.22c0 .15.1.23.27.24h1.9c.31 0 .45-.01.63-.08l-.3.86h-3.1c-.23 0-.46-.05-.6-.13-.3-.15-.5-.52-.5-.88 0-.08.01-.21.04-.32l.4-1.76c.14-.62.5-.91 1.13-.91h2.2c.36 0 .57.03.73.1.3.14.5.5.5.9Zm-1.7-.02c0-.14-.08-.2-.25-.2h-.55c-.26 0-.31.05-.4.38l-.1.46h1.17l.1-.46.03-.18ZM14 26l-1.04 4.34-.03.15-.01.25c0 .1 0 .14.04.26H11l.13-.21c.07-.16.14-.35.21-.64l.83-3.49.03-.15.02-.24c0-.1-.01-.15-.05-.27H14Z" fill="#0D3894"/></svg>