<!-- by TradingView --><svg width="56" height="56" viewBox="0 0 56 56" fill="none" xmlns="http://www.w3.org/2000/svg">
<rect width="56" height="56" fill="#F0F3FA"/>
<path d="M4 25.965C4 25.4321 4.44772 25 5 25Lnan nanL5 25C5.55228 25 6 25.4321 6 25.965V31.035C6 31.5679 5.55228 32 5 32Lnan nanL5 32C4.44772 32 4 31.5679 4 31.035V25.965Z" fill="black"/>
<circle cx="5" cy="23" r="1" fill="black"/>
<path fill-rule="evenodd" clip-rule="evenodd" d="M26.5 32C28.433 32 30 30.433 30 28.5C30 26.567 28.433 25 26.5 25C24.567 25 23 26.567 23 28.5C23 30.433 24.567 32 26.5 32ZM26.5 30C27.3284 30 28 29.3284 28 28.5C28 27.6716 27.3284 27 26.5 27C25.6716 27 25 27.6716 25 28.5C25 29.3284 25.6716 30 26.5 30Z" fill="black"/>
<path fill-rule="evenodd" clip-rule="evenodd" d="M34.5 27C33.6335 27 33.1507 27.585 33 28.3981V30.9062C33 31.6875 32.4945 32 32 32C31.5055 32 31 31.5625 31 30.9062V28.2188C31 26.5625 32.5312 25 34.5 25C36.4688 25 38 26.4062 38 28.2188V30.9062C38 31.5625 37.4459 32.0093 36.9688 31.9998C36.5049 31.9907 36 31.5625 36 30.9062V28.7146C36 27.7504 35.4759 27 34.5 27Z" fill="#E3242B"/>
<path fill-rule="evenodd" clip-rule="evenodd" d="M10.5127 27C9.64621 27 9.15072 27.585 9 28.3981V30.9062C9 31.6875 8.50724 32 8.0127 32C7.51815 32 7 31.5625 7 30.9062V28.2188C7 26.5625 8.54395 25 10.5127 25C12.4814 25 14 26.4062 14 28.2188V30.9062C14 31.5625 13.4586 32.0093 12.9814 31.9998C12.5176 31.9907 12 31.5625 12 30.9062V28.7146C12 27.7504 11.4886 27 10.5127 27Z" fill="black"/>
<path fill-rule="evenodd" clip-rule="evenodd" d="M21 22C20.4477 22 20 22.4062 20 23.125V25.3356C19.5454 25.1196 19.0368 24.9988 18.5 24.9988C16.567 24.9988 15 26.5658 15 28.4988C15 30.4318 16.567 31.9988 18.5 31.9988C20.433 31.9988 22 30.4318 22 28.4988C22 28.4887 22 28.4787 21.9999 28.4687L22 23.125C22 22.4688 21.5523 22 21 22ZM20 28.5C20 29.3284 19.3284 30 18.5 30C17.6716 30 17 29.3284 17 28.5C17 27.6716 17.6716 27 18.5 27C19.3284 27 20 27.6716 20 28.5Z" fill="black"/>
<path fill-rule="evenodd" clip-rule="evenodd" d="M45.9406 29C45.9796 28.7908 46 28.7205 46 28.5C46 26.567 44.433 25 42.5 25C40.567 25 39 26.567 39 28.5C39 30.433 40.2812 32 42.5 32C43.9663 32 45.3125 31.2344 45.7188 29.7031H43.8906C43.644 30.0312 43.2563 30.3 42.5287 30.3C41.8011 30.3 41 29.75 41 29H44.1441H45.9406ZM42.5287 26.6C41.6393 26.6 41.1094 27.1875 41 27.7541H44C43.875 27.1406 43.418 26.6 42.5287 26.6Z" fill="#E3242B"/>
<path fill-rule="evenodd" clip-rule="evenodd" d="M48 22.9893C48 22.4429 48.4373 22 49 22C49.5627 22 50 22.4429 50 22.9893V25H51.012C51.5576 25 52 25.4702 52 26C52 26.5298 51.5576 27 51.012 27H50V29.302C50 29.8242 50.3866 30 50.7958 30H51.012C51.5576 30 52 30.451 52 30.9808V31.0407C52 31.5705 51.5576 32 51.012 32H50.3125C48.8922 32 48 30.7941 48 29.8242V29.6018V27H47.0469C46.5012 27 46 26.5298 46 26C46 25.4702 46.5012 25 47.0469 25H48V22.9893Z" fill="#E3242B"/>
</svg>
