<!-- by TradingView --><svg width="56" height="56" viewBox="0 0 56 56" xmlns="http://www.w3.org/2000/svg"><path fill="#F0F3FA" d="M0 0h56v56H0z"/><path d="M44 32.04c.49-.12 1-.48 1-.95V24.9c0-.47-.51-.8-1-.93V22h5v1.98c-.5.12-1 .45-1 .93V31.1c.02.47.5.82 1 .95V34h-5v-1.96ZM32 32.04c.5-.12 1-.46 1-.95V24.9c0-.49-.5-.81-1-.93V22h10v4h-2.99v-.59c0-.8-.35-.91-1.18-.91H36V27h4v2h-4v2.5h1.83c1 0 1.18-.54 1.18-1.5H42v4H32v-1.96ZM20 32.04c.5-.12 1-.46 1-.95v-6.84c-.82.05-1 .64-1 1.4V27h-3v-5h11v5h-3v-1.35c0-.77-.17-1.35-1-1.4v6.84c0 .51.48.83 1 .95V34h-5v-1.96ZM11 28h1.29c1.02 0 1.21-.89 1.21-1.84 0-.95-.19-2.16-1.21-2.16H11v4Zm-4 4.04c.5-.12 1-.46 1-.95V24.9c0-.48-.5-.81-1-.93V22h5.8c2.71.05 3.7 1.59 3.7 4.1 0 .37 0 .4-.02.68-.1 2.2-1.65 3.22-3.78 3.22H11V31.09c.02.49.5.83 1 .95V34H7v-1.96Z" fill="#015AA8"/></svg>