<!-- by TradingView --><svg width="56" height="56" viewBox="0 0 56 56" xmlns="http://www.w3.org/2000/svg"><path fill="#F0F3FA" d="M0 0h56v56H0z"/><path d="M39 25h2v1.43a2.44 2.44 0 0 1 3-1.32V27a3.7 3.7 0 0 0-.94-.15c-1.13 0-2.06.8-2.06 1.97V33h-2v-8ZM31 29.67c.13 1.1 1 1.8 2.1 1.8.86 0 1.57-.38 2.12-1.03l1.42 1.04A4.28 4.28 0 0 1 33.3 33C31 33 29 31.39 29 29c0-2.38 2-4 4.3-4 2.36 0 3.7 1.91 3.7 4.14v.53h-6ZM35 28c-.02-1.16-.87-1.57-1.98-1.57-1.12 0-1.87.48-2.02 1.57h4ZM22 26v-2h2v-2h2v2h2v2h-2v3.86c0 .79.03 1.36.89 1.36.37 0 .8-.03 1.11-.26v1.76c-.48.23-1.1.28-1.62.28-1.99 0-2.38-1.1-2.38-2.96V26h-2ZM18 26h2v7h-2v-7ZM18.27 23.3a.98.98 0 0 0-.27.7c0 .27.1.5.27.7.2.2.43.3.72.3A.98.98 0 0 0 20 24c0-.29-.1-.52-.3-.7A.96.96 0 0 0 19 23c-.29 0-.53.1-.72.3ZM14 20h2v13h-2V20ZM12 29.5v-.56c0-2.2-1.42-3.94-3.7-3.94C6.1 25 4 26.45 4 28.8c0 .23.02.5.05.7H12ZM10 28H6c.16-1.08.94-1.64 2.02-1.64 1.07 0 1.96.5 1.98 1.64Z" fill="#5B5B5D"/><path d="M5.82 30.35H4A4.44 4.44 0 0 0 8.13 33c1.4 0 2.99-.9 3.87-2h-1.89c-.26.17-.94.81-2.09.81-1.26 0-1.79-.82-2.2-1.46Z" fill="#3AB250"/><path d="M48 25h-2v5.91c0 1.18 1 2.09 2.23 2.09h1.88c0 .63-.53 1-1.2 1H47v2h2.43c1.42 0 2.57-1.1 2.57-2.46V25h-2v5c0 .6-.38 1.07-1 1.07s-1-.47-1-1.06V25Z" fill="#5B5B5D"/></svg>