<!-- by TradingView --><svg width="56" height="56" viewBox="0 0 56 56" xmlns="http://www.w3.org/2000/svg"><path fill="#F0F3FA" d="M0 0h56v56H0z"/><path d="M23 33V20h-3v16h12v-3h-9ZM48 20v16h-3V20z"/><path fill="#1C394A" d="M45 17v3h-3v-3zM34 33v-7h3.77c1.78 0 3.23 1.72 3.23 3.5S39.55 33 37.77 33H34Zm-3 0v7h3v-4.05c7.67-.59 10-2.98 10-6.45a6.5 6.5 0 0 0-6.5-6.5H31v10Z"/><path d="M19 20H8v16h11v-3h-8v-3h7v-3h-7v-4h8v-3Z"/><path d="m43.84 31-.1.16c-.81 1.56-3.93 1.85-5.46 1.84h-9.36c-5.22 0-8.12 2.02-8.92 3h14.35c6.65-.5 9.02-2.36 9.49-5Z" fill="#305673"/></svg>