<!-- by TradingView --><svg xmlns="http://www.w3.org/2000/svg" width="56" height="56" viewBox="0 0 56 56"><path fill="#F0F3FA" d="M0 0h56v56H0z"/><path fill-rule="evenodd" d="M28 44a16 16 0 1 0 0-32 16 16 0 0 0 0 32zm0-1a15 15 0 1 0 0-30 15 15 0 0 0 0 30z" fill="#ACC32B"/><path d="M24.55 41.57a14 14 0 0 1-5.95-23.95l-1.32-1.5a16 16 0 0 0 6.65 27.35l.62-1.9z" fill="#E1393E"/><path d="M28 12c-4.52 0-8.6 1.88-11.52 4.9l2.07 1.87a12.5 12.5 0 0 1 20.9 5.05l-11.7 3.5.39 1.14 11.63-3.37v.03l.83-.27 2.86-.84-.12-.1.12-.03A16 16 0 0 0 28 12z" fill="#0075BF"/></svg>