<!-- by TradingView --><svg width="56" height="56" viewBox="0 0 56 56" xmlns="http://www.w3.org/2000/svg"><path fill="#F0F3FA" d="M0 0h56v56H0z"/><path d="M25.72 12c.9.2 1.57.6 2 1.2a1197.13 1197.13 0 0 1 3.15 4.6.1.1 0 0 1-.06.1.1.1 0 0 1-.06 0 1.4 1.4 0 0 1-.43-.15 1.2 1.2 0 0 0-.47-.16c-.53-.03-.95.18-1.25.62l-8.59 12.73c-.68 1-1.55 1.49-2.6 1.45-1.06-.04-1.9-.57-2.56-1.58-.64-1-1.59-2.36-2.85-4.1v-.27c.76.45 1.4.48 1.9.12.15-.1.56-.65 1.22-1.64l7.5-11.11c.68-1 1.47-1.6 2.38-1.81h.72Z" fill="#92701D"/><path d="M24.26 28.74a303.6 303.6 0 0 1 4.76-7c.07-.1.14-.18.23-.26.96-.88 2-1.1 3.14-.68.55.2 1.2.85 1.93 1.95 1.04 1.53 1.85 2.73 2.42 3.6a.13.13 0 0 1-.1.2l-.08-.03c-.82-.58-1.6-.32-2.36.76-.8 1.15-2.05 3-3.77 5.57-2.79 4.17-4.37 6.5-4.76 7a1.9 1.9 0 0 1-.22.26c-.96.88-2.01 1.1-3.15.68-.54-.2-1.19-.85-1.93-1.94a497.86 497.86 0 0 1-2.42-3.6.13.13 0 0 1 .02-.17.13.13 0 0 1 .16 0c.82.57 1.6.31 2.36-.78.8-1.14 2.05-3 3.77-5.56Z" fill="#BD9A56"/><path d="M43 29.3c-.65 6.88-3.74 10.73-9.27 11.58-.68.1-1.3.12-1.87.06a.47.47 0 0 1-.3-.14.48.48 0 0 1-.12-.31c-.08-3.42.92-6.19 3-8.32 2.04-2.08 4.75-3.2 8.13-3.32a.41.41 0 0 1 .4.28c.03.06.03.12.03.18Z" fill="#D6AD60"/></svg>