<!-- by TradingView --><svg width="56" height="56" viewBox="0 0 56 56" xmlns="http://www.w3.org/2000/svg"><path fill="#F0F3FA" d="M0 0h56v56H0z"/><path d="M12.74 40.55c-.76 0-1.2-.76-1.33-1.13-.5 1.19-.95 3.58 1.33 3.58 3.49 0 9.8-10.57 12.52-15.85 0 8 1.77 9.85 2.65 9.85 1.52 0 6.13-7.71 8.35-11.55 0 5.66.57 11.55 2.08 11.55 1.52 0 2.66-3.06 2.66-4.75 0-1.36-.25-2.08-.38-2.27 0 1.32-.38 3.02-1.33 3.02-.95 0-.95-2.64-.95-6.6 0-3.17.89-10.26 1.33-13.4-1.14.94-2.65 3.58-2.84 4.15-.16.45-.32 1.2-.38 1.51a92.74 92.74 0 0 1-3.04 6.6c-1.14 2.08-3.22 5.85-4.17 5.85-.95 0-1.33-6.17-1.33-10.32S27.53 14 26.4 14c-.9 0-2.4 2.39-3.03 3.58 1.14 0 1.9.57 1.9 2.27 0 1.7-3.23 7.68-5.7 12.2-2.46 4.53-5.88 8.5-6.82 8.5Z" fill="#99171B"/></svg>