<!-- by TradingView --><svg width="56" height="56" viewBox="0 0 56 56" xmlns="http://www.w3.org/2000/svg"><path fill="#F0F3FA" d="M0 0h56v56H0z"/><path fill-rule="evenodd" d="M44 27.91a.67.67 0 1 0-.04 1.25A16.01 16.01 0 0 1 32.69 43.3a.84.84 0 1 0-1.55.4l-1.1.17a.84.84 0 0 0-.54-1.49.84.84 0 0 0-.41 1.58 16.26 16.26 0 0 1-1.58.03.84.84 0 1 0-.79-.04c-.43-.03-.86-.09-1.29-.15a.84.84 0 0 0-.62-1.42.84.84 0 0 0-.8 1.12l-.64-.18a.84.84 0 0 0-.84-.94c-.3 0-.56.15-.7.38a15.98 15.98 0 0 1-3.22-1.8v-.12a.73.73 0 0 0-1-.68c-.46-.39-.9-.8-1.31-1.25a.8.8 0 0 0-.71-1.2c-.1 0-.19.02-.27.05a16 16 0 0 1-1.8-2.96.94.94 0 1 0-.7-1.74l-.27-.88a.94.94 0 0 0 1.64-.64.94.94 0 0 0-1.85-.25 16 16 0 0 1 18.45-19.05.67.67 0 1 0 .96.2l.32.08a.67.67 0 1 0 1.27.39l.3.12a.67.67 0 0 0 .9.36c.3.14.6.28.88.43a.66.66 0 0 0 .43 1.17c.33 0 .6-.23.66-.54a16.08 16.08 0 0 1 5.37 5.58.67.67 0 1 0 .61 1.19c.32.67.59 1.37.81 2.09a.67.67 0 0 0 .3 1.16l.06.24a.67.67 0 1 0 .22 1.32l.04.35a.67.67 0 1 0 .08 1.26v.27ZM27.9 13.45a.67.67 0 1 0 0-1.33.67.67 0 0 0 0 1.33Zm.67.88a.67.67 0 1 1-1.34 0 .67.67 0 0 1 1.34 0Zm-.67 2.2a.67.67 0 1 0 0-1.32.67.67 0 0 0 0 1.33Zm-13.7 10.4a.94.94 0 1 1-1.9 0 .94.94 0 0 1 1.9 0Zm2.2 0a.81.81 0 1 1-1.62 0 .81.81 0 0 1 1.62 0Zm1.48.65a.73.73 0 1 0 0-1.47.73.73 0 0 0 0 1.47Zm3-.68a.67.67 0 1 1-1.33 0 .67.67 0 0 1 1.33 0Zm9.45-11.03a.67.67 0 1 1-1.33 0 .67.67 0 0 1 1.33 0Zm-.66-.88a.67.67 0 1 0 0-1.33.67.67 0 0 0 0 1.33Zm.66-2.2a.67.67 0 1 1-1.33 0 .67.67 0 0 1 1.33 0Zm.85 3.75a.67.67 0 1 0 0-1.33.67.67 0 0 0 0 1.33Zm.66-2.21a.67.67 0 1 1-1.33 0 .67.67 0 0 1 1.33 0Zm1.51 1.54a.67.67 0 1 1-1.33 0 .67.67 0 0 1 1.33 0ZM32.7 15a.67.67 0 1 0 0-1.33.67.67 0 0 0 0 1.33Zm1.58 1.55a.67.67 0 1 0 0-1.33.67.67 0 0 0 0 1.33Zm.67-2.21a.67.67 0 1 1-1.34 0 .67.67 0 0 1 1.34 0Zm1.58 1.54a.67.67 0 1 1-1.33 0 .67.67 0 0 1 1.33 0Zm1.5 0a.67.67 0 1 1-1.32 0 .67.67 0 0 1 1.33 0Zm-15.6 11.56a.6.6 0 1 0 0-1.2.6.6 0 0 0 0 1.2Zm-8.23 1.85a.94.94 0 1 1-1.88 0 .94.94 0 0 1 1.88 0Zm1.4.8a.81.81 0 1 0 0-1.61.81.81 0 0 0 0 1.62Zm3.02-.88a.73.73 0 1 1-1.46 0 .73.73 0 0 1 1.46 0Zm1.6.72a.67.67 0 1 0 0-1.33.67.67 0 0 0 0 1.33Zm2.8-.73a.6.6 0 1 1-1.2 0 .6.6 0 0 1 1.2 0Zm-6.61 2.35a.81.81 0 1 1-1.62 0 .81.81 0 0 1 1.62 0Zm1.48.66a.73.73 0 1 0 0-1.47.73.73 0 0 0 0 1.47Zm3-.68a.67.67 0 1 1-1.33 0 .67.67 0 0 1 1.33 0Zm1.54.53a.6.6 0 1 0 0-1.2.6.6 0 0 0 0 1.2Zm-6.83 2.66a.81.81 0 1 0 0-1.62.81.81 0 0 0 0 1.62Zm3.02-.89a.73.73 0 1 1-1.46 0 .73.73 0 0 1 1.46 0Zm1.6.72a.67.67 0 1 0 0-1.33.67.67 0 0 0 0 1.33Zm2.8-.73a.6.6 0 1 1-1.2 0 .6.6 0 0 1 1.2 0Zm1.8.69a.5.5 0 1 0 0-1.01.5.5 0 0 0 0 1Zm.43-3a.47.47 0 1 1-.94 0 .47.47 0 0 1 .94 0Zm-.47-1.78a.47.47 0 1 0 0-.93.47.47 0 0 0 0 .93Zm11.55-1.13a.47.47 0 1 1-.93 0 .47.47 0 0 1 .93 0Zm-.47-1.1a.47.47 0 1 0 0-.94.47.47 0 0 0 0 .93Zm.47-2.1a.47.47 0 1 1-.93 0 .47.47 0 0 1 .93 0Zm-.47-1.11a.47.47 0 1 0 0-.93.47.47 0 0 0 0 .93Zm.47-2.04a.47.47 0 1 1-.93 0 .47.47 0 0 1 .93 0Zm-11.55 5.07a.47.47 0 1 0 0-.93.47.47 0 0 0 0 .93Zm3.7-6.61a.47.47 0 1 1-.94 0 .47.47 0 0 1 .94 0Zm1.09.47a.47.47 0 1 0 0-.94.47.47 0 0 0 0 .94Zm2.08-.47a.47.47 0 1 1-.93 0 .47.47 0 0 1 .93 0Zm1.04.47a.47.47 0 1 0 0-.94.47.47 0 0 0 0 .94Zm2.06-.47a.47.47 0 1 1-.94 0 .47.47 0 0 1 .94 0Zm1.11.47a.47.47 0 1 0 0-.94.47.47 0 0 0 0 .94Zm1.97-.47a.47.47 0 1 1-.93 0 .47.47 0 0 1 .93 0Zm-.46 3.65a.47.47 0 1 0 0-.94.47.47 0 0 0 0 .94Zm.46 2.66a.47.47 0 1 1-.93 0 .47.47 0 0 1 .93 0Zm-.46 2.04a.47.47 0 1 0 0-.93.47.47 0 0 0 0 .93Zm-8.9-9.99a.47.47 0 1 1-.93 0 .47.47 0 0 1 .94 0Zm-.5-1.02a.55.55 0 1 0 0-1.1.55.55 0 0 0 0 1.1Zm13.22 1.08a.61.61 0 1 1-1.22 0 .61.61 0 0 1 1.22 0Zm-.61 2.12a.61.61 0 1 0 0-1.22.61.61 0 0 0 0 1.22Zm.61.96a.61.61 0 1 1-1.22 0 .61.61 0 0 1 1.22 0Zm-.61 2.22a.61.61 0 1 0 0-1.22.61.61 0 0 0 0 1.22Zm.61.96a.61.61 0 1 1-1.22 0 .61.61 0 0 1 1.22 0Zm-.61 2.25a.61.61 0 1 0 0-1.23.61.61 0 0 0 0 1.23Zm.61.95a.61.61 0 1 1-1.22 0 .61.61 0 0 1 1.22 0Zm1 .61a.67.67 0 1 0 0-1.33.67.67 0 0 0 0 1.33Zm0-1.5a.67.67 0 1 0 0-1.33.67.67 0 0 0 0 1.34Zm0-1.65a.67.67 0 1 0 0-1.33.67.67 0 0 0 0 1.33Zm0-1.56a.67.67 0 1 0 0-1.34.67.67 0 0 0 0 1.34Zm0-1.57a.67.67 0 1 0 0-1.34.67.67 0 0 0 0 1.34Zm-12.63-4.87a.55.55 0 1 0 0-1.1.55.55 0 0 0 0 1.1Zm2.14-.55a.55.55 0 1 1-1.1 0 .55.55 0 0 1 1.1 0Zm1 .55a.55.55 0 1 0 0-1.1.55.55 0 0 0 0 1.1Zm2.13-.55a.55.55 0 1 1-1.1 0 .55.55 0 0 1 1.1 0Zm1.03.55a.55.55 0 1 0 0-1.1.55.55 0 0 0 0 1.1Zm3.72 1.02a.55.55 0 1 1-1.1 0 .55.55 0 0 1 1.1 0Zm-.55 2.12a.55.55 0 1 0 0-1.1.55.55 0 0 0 0 1.1Zm.55 1.02a.55.55 0 1 1-1.1 0 .55.55 0 0 1 1.1 0Zm-.55 2.16a.55.55 0 1 0 0-1.1.55.55 0 0 0 0 1.1Zm.55 1.02a.55.55 0 1 1-1.1 0 .55.55 0 0 1 1.1 0Zm-.55 2.19a.55.55 0 1 0 0-1.1.55.55 0 0 0 0 1.1Zm.55 1.02a.55.55 0 1 1-1.1 0 .55.55 0 0 1 1.1 0Zm-2.13-10.55a.55.55 0 1 0 0-1.1.55.55 0 0 0 0 1.1Zm2.1-.55a.55.55 0 1 1-1.1 0 .55.55 0 0 1 1.1 0Zm-9.98 2.04a.47.47 0 1 0 0-.94.47.47 0 0 0 0 .94Zm2.08-.47a.47.47 0 1 1-.93 0 .47.47 0 0 1 .93 0Zm1.04.47a.47.47 0 1 0 0-.94.47.47 0 0 0 0 .94Zm2.06-.47a.47.47 0 1 1-.94 0 .47.47 0 0 1 .94 0Zm1.11.47a.47.47 0 1 0 0-.93.47.47 0 0 0 0 .93Zm1.97-.47a.47.47 0 1 1-.93 0 .47.47 0 0 1 .93 0Zm-.46 3.65a.47.47 0 1 0 0-.93.47.47 0 0 0 0 .93Zm.46 2.67a.47.47 0 1 1-.93 0 .47.47 0 0 1 .93 0ZM27.2 34.5a.5.5 0 1 0 0-1.01.5.5 0 0 0 0 1Zm.43-3a.47.47 0 1 1-.93 0 .47.47 0 0 1 .93 0Zm-.47-1.88a.37.37 0 1 0 0-.74.37.37 0 0 0 0 .74Zm.37-2.77a.37.37 0 1 1-.74 0 .37.37 0 0 1 .74 0Zm6.74.53a.37.37 0 1 0 0-.73.37.37 0 0 0 0 .73Zm.37-2a.37.37 0 1 1-.74 0 .37.37 0 0 1 .74 0Zm-.37-1.2a.37.37 0 1 0 0-.74.37.37 0 0 0 0 .74Zm-1.22-1.94a.37.37 0 1 1-.74 0 .37.37 0 0 1 .74 0Zm-1.87.37a.37.37 0 1 0 0-.74.37.37 0 0 0 0 .74Zm-1.35-.37a.37.37 0 1 1-.74 0 .37.37 0 0 1 .74 0Zm-1.93.37a.37.37 0 1 0 0-.74.37.37 0 0 0 0 .74Zm6.74-.37a.37.37 0 1 1-.74 0 .37.37 0 0 1 .74 0Zm-.37 6.71a.37.37 0 1 0 0-.73.37.37 0 0 0 0 .73ZM30 34A.5.5 0 1 1 29 34a.5.5 0 0 1 1 0Zm-.55-2.02a.47.47 0 1 0 0-.93.47.47 0 0 0 0 .93Zm.29-2.72a.28.28 0 1 1-.57 0 .28.28 0 0 1 .57 0ZM28 25.67a.28.28 0 1 0 0-.57.28.28 0 0 0 0 .57Zm.28-1.86a.28.28 0 1 1-.56 0 .28.28 0 0 1 .56 0Zm1.18 1.86a.28.28 0 1 0 0-.57.28.28 0 0 0 0 .57Zm.29-1.86a.28.28 0 1 1-.57 0 .28.28 0 0 1 .57 0Zm1.43 1.86a.28.28 0 1 0 0-.57.28.28 0 0 0 0 .57Zm.28-1.86a.28.28 0 1 1-.57 0 .28.28 0 0 1 .57 0Zm1.22 1.86a.28.28 0 1 0 0-.57.28.28 0 0 0 0 .57Zm.28-1.86a.28.28 0 1 1-.56 0 .28.28 0 0 1 .56 0Zm-1.78 3.4a.28.28 0 1 0 0-.56.28.28 0 0 0 0 .56Zm-1.43-.36a.28.28 0 1 1-.57 0 .28.28 0 0 1 .57 0Zm2.93.46a.28.28 0 1 0 0-.57.28.28 0 0 0 0 .57ZM32.26 34a.5.5 0 1 1-1.01 0 .5.5 0 0 1 1 0Zm-.55-2.02a.47.47 0 1 0 0-.93.47.47 0 0 0 0 .93Zm.33-2.72a.33.33 0 1 1-.65 0 .33.33 0 0 1 .65 0ZM15.6 36.98a.81.81 0 1 0 0-1.62.81.81 0 0 0 0 1.62Zm3.02-.9a.73.73 0 1 1-1.46 0 .73.73 0 0 1 1.46 0Zm1.6.73a.67.67 0 1 0 0-1.33.67.67 0 0 0 0 1.33Zm2.8-.74a.6.6 0 1 1-1.2 0 .6.6 0 0 1 1.2 0Zm1.88.6a.6.6 0 1 0 0-1.2.6.6 0 0 0 0 1.2Zm2.91-.6a.6.6 0 1 1-1.2 0 .6.6 0 0 1 1.2 0Zm1.7.6a.6.6 0 1 0 0-1.2.6.6 0 0 0 0 1.2Zm2.95-.6a.6.6 0 1 1-1.2 0 .6.6 0 0 1 1.2 0ZM18.6 38.44a.73.73 0 1 1-1.46 0 .73.73 0 0 1 1.46 0Zm2.27.06a.67.67 0 1 1-1.33 0 .67.67 0 0 1 1.33 0Zm1.54.53a.6.6 0 1 0 0-1.2.6.6 0 0 0 0 1.2Zm2.99-.6a.6.6 0 1 1-1.2 0 .6.6 0 0 1 1.2 0Zm1.8.6a.6.6 0 1 0 0-1.2.6.6 0 0 0 0 1.2Zm2.9-.6a.6.6 0 1 1-1.2 0 .6.6 0 0 1 1.2 0Zm1.74.6a.6.6 0 1 0 0-1.2.6.6 0 0 0 0 1.2ZM20.88 40.9a.67.67 0 1 1-1.33 0 .67.67 0 0 1 1.33 0Zm1.65.68a.71.71 0 1 0 0-1.43.71.71 0 0 0 0 1.43Zm3.07-.72a.71.71 0 1 1-1.42 0 .71.71 0 0 1 1.42 0Zm1.56.72a.71.71 0 1 0 0-1.43.71.71 0 0 0 0 1.43Zm3.05-.72a.71.71 0 1 1-1.42 0 .71.71 0 0 1 1.42 0Zm1.64.72a.71.71 0 1 0 0-1.43.71.71 0 0 0 0 1.43Z" fill="#B9986B"/></svg>