<!-- by TradingView --><svg width="56" height="56" viewBox="0 0 56 56" xmlns="http://www.w3.org/2000/svg"><path fill="#F0F3FA" d="M0 0h56v56H0z"/><path d="M30.4 39.14c-6.66 1.42-12.95 1.02-17.32-.76l2.46-6.76.56 7.62 3.33-.37 2.92-8.09.7 7.71 2.67-.32 2.45-6.55 3.83-.37v6.26l3-.33v-17.3l6.62-.98c.68-.1 1.38.43 1.38 1.12v7.43c0 .57-.43 1.04-1 1.11l-5 .63V37l.5-.08c-2.17.92-4.56 1.69-7.1 2.23ZM37 21.25V27l2.48-.24c.5-.06 1.52-.5 1.52-1.76v-3.08c0-.35-.3-1.02-1.52-.9-1.21.1-2.16.2-2.48.23Z" fill="#00A2E9"/><path d="M7.14 32.45a7.45 7.45 0 0 0 3.23 4.49l6.1-16.26 3.06-.37L20 29l3.24-9.11L26 19.5v8.75l3.86-9.21 12.8-1.54c-4.37-1.69-10.53-2.04-17.06-.65C14.08 19.32 5.82 26.3 7.14 32.45ZM44 18.52a.91.91 0 0 0-.15-.5c2.7 1.3 4.5 3.2 5.01 5.53 1 4.69-3.54 9.85-10.86 13.13v-6.13l3.7-.39c1.24-.12 2.3-1.17 2.3-2.41v-9.23Z" fill="#00A2E9"/><path d="M32 22v5.8l-3 .2 3-6Z" fill="#00A2E9"/></svg>