<!-- by TradingView --><svg width="56" height="56" viewBox="0 0 56 56" xmlns="http://www.w3.org/2000/svg"><path fill="#F0F3FA" d="M0 0h56v56H0z"/><path fill-rule="evenodd" d="M31 32.24a4.5 4.5 0 1 1 2-3.74V33h-2v-.76Zm0-3.74a2.5 2.5 0 1 1-5 0 2.5 2.5 0 0 1 5 0Z" fill="#FB9317"/><path fill-rule="evenodd" d="M16 32.24a4.5 4.5 0 1 0-2-3.74V36h2v-3.76Zm0-3.74a2.5 2.5 0 1 0 5 0 2.5 2.5 0 0 0-5 0Z" fill="#17A450"/><path d="M8.5 33a4.5 4.5 0 1 1 4.47-4H6.05a2.5 2.5 0 0 0 4.45 1h2.24a4.5 4.5 0 0 1-4.24 3Zm-2-6h4a2.5 2.5 0 0 0-4 0Z" fill="#0D549E"/><path d="M42 25.97A4.1 4.1 0 0 0 38.5 24a4.5 4.5 0 1 0 0 9 4.1 4.1 0 0 0 3.5-1.97l-1.58-1.24c-.44.73-1.01 1.21-1.92 1.21a2.5 2.5 0 0 1 0-5c.9 0 1.48.48 1.92 1.21L42 25.97Z" fill="#603817"/><path d="M49.5 24H52l-6 7-1.5-1 5-6Z" fill="#1675BF"/><path d="M48.82 33H51l-2.5-4-1.28 1.35 1.6 2.65Z" fill="#0C559F"/><path d="M44 30.88 46 33h-2v-2.12Z" fill="#076835"/><path d="m46 33-2-2.12 2-2.21V33Z" fill="#18A450"/><path d="m46 28.67-2-2.13 2-2.2v4.33Z" fill="#F49521"/><path d="m46 24.33-2-2.12L46 20v4.33Z" fill="#62390B"/><path d="m44 26.54 2 2.13-2 2.2v-4.33Z" fill="#F0592B"/><path d="m44 22.21 2 2.12-2 2.21v-4.33Z" fill="#382511"/></svg>