<!-- by TradingView --><svg width="56" height="56" viewBox="0 0 56 56" fill="none" xmlns="http://www.w3.org/2000/svg">
<rect width="56" height="56" fill="#F0F3FA"/>
<path fill-rule="evenodd" clip-rule="evenodd" d="M47 16H9V18H47V16ZM47 18.5H9V20H47V18.5ZM9 20.5H47V22H9V20.5ZM47 22.5H9V24H47V22.5ZM9 24.8H47V26H9V24.8ZM47 26.8H9V28H47V26.8ZM9 28.7H47V29.7H9V28.7ZM47 30.5H9V31.5H47V30.5ZM9 32.3H47V33.3H9V32.3ZM47 34H9V35H47V34Z" fill="#24B24C"/>
<path fill-rule="evenodd" clip-rule="evenodd" d="M38 16H19V35H38V27H37C37 30.6875 33.988 33 30.5 33C26.9168 33 24 30.25 24 27H25.2783C26.2687 27 27.5105 27.173 28.375 27.6562C30.2152 28.685 31.637 32 31.637 32L33 31.3125C33 31.3125 30 28.099 30 25.7892C30 22.938 33 20.8468 33 20.8468C32.6696 20.6402 31.6883 20 31.6883 20C31.6883 20 30.2348 22.9392 28.9543 23.8065C27.6739 24.6739 26.8065 25 25.2783 25H24C24 21.9375 27.1154 19 30.5 19C33.8846 19 37 21.6875 37 25H38V16Z" fill="#0A8541"/>
<path fill-rule="evenodd" clip-rule="evenodd" d="M14 36H13H11H10.5938H9V36.5V37.7V38V39.5V40H10.5938H11H13H14H16H18H20H27.0002H28.594H29.0002H31.0002H43H44.5938H45H47V39.5V39H45V38H47V37.7H45V37H47V36.5V36H45H44.5938H43H31.0002H29.0002H28.594H27.0002H20H18H16H14ZM43 36.5H41.2344L41.7633 37.7H43V36.5ZM43 38H41.8955L42.5566 39.5H43V38ZM31.0002 39.5H33.0005L32.2035 38H31.0002V38.2969H29.0002V39H31.0002V39.5ZM32.0441 37.7H31.0002H29.0002V37H31.0002V36.5H31.4065L32.0441 37.7ZM27.0002 36.5H25.8218C25.9463 36.7114 26 37 26 37H24.4C24.4 37 24.4 36.6094 23.5991 36.6094C23.2107 36.6094 22.7 36.6807 22.7 37.1139C22.7 37.5471 23.2031 37.5471 23.2031 37.5471H24.7812C25.0308 37.5471 25.2492 37.6022 25.4295 37.7H27.0002V36.5ZM27.0002 38H25.7784C25.9219 38.1921 26 38.4336 26 38.7015C26 39.0951 25.8529 39.3623 25.7511 39.5H27.0002V38ZM13 39.5H14V38H13V38.2969H11V39H13V39.5ZM14 37.7H13H11V37H13V36.5H14V37.7ZM18 36.5H16.7866L17.578 37.7H18V36.5ZM18 38H17.7758L18 38.3399V38ZM20 39.5V38H21.45C21.7718 38.2064 22.2423 38.2812 22.7833 38.2812H23.8227C24.1225 38.2812 24.3 38.3999 24.3 38.7576C24.3 39.2096 23.8249 39.2096 23.2969 39.2096C22.4782 39.2096 22.6 38.7015 22.6 38.7015H21C21 38.7015 21 39.3125 21.2918 39.5H20ZM20 37.7V36.5H21.2136C21.1271 36.6294 21 36.8624 21 37.1139C21 37.3511 21.0529 37.5442 21.1493 37.7H20ZM16 39.5V38H16.1793L17.0911 39.5H16ZM40.1404 37.7L39.8057 36.87L39.4527 37.7H40.1404ZM37.8627 37.7L38.3818 36.5H37.1783C37.0788 36.7426 36.8582 37.1945 36.6063 37.7H37.8627ZM36.4564 38H37.7329L37.1186 39.42L37.0901 39.5H35.7114C35.8763 39.157 36.0967 38.7175 36.3184 38.2753L36.3186 38.275L36.3186 38.275L36.3186 38.2749L36.3187 38.2748L36.4564 38ZM34.8245 37.7L35.3221 36.5H33.3489L33.8549 37.7H34.8245ZM33.9814 38H34.7001L34.3438 38.8594L33.9814 38ZM39.3251 38H40.2614L40.3944 38.33H39.1848L39.3251 38ZM38.766 39.5H40.8433L40.6406 39H38.9688L38.766 39.5Z" fill="#0B8D45"/>
</svg>
