<!-- by TradingView --><svg xmlns="http://www.w3.org/2000/svg" width="56" height="56"><path fill="#F0F3FA" d="M0 0h56v56H0z"/><path d="M26.38 16.35c1.93-.79 2.72-.07 2.88.4.35 1.1-.88 1.73-1.38 1.86A50.28 50.28 0 0013.58 26c-5.13 3.97-5.06 7.4-4.4 8.61l-1.03-1.25c-1.96-8.92 15.82-16.03 18.23-17.01z" fill="url(#a0ldpswrm)"/><path d="M21.48 22.59c1.52-.67 2.3-.13 2.51.22.58.98-.54 1.95-1.33 2.24a30.12 30.12 0 00-9.93 6.06c-1.95 1.92-2.37 3.97-2.02 5.29l-1.2-1.32c-.94-6.18 10.07-11.66 11.97-12.5z" fill="url(#b0ldpswrm)"/><path d="M38.75 36.06c6.27-3.08 10.08-7.03 9.1-9.98-1.3-3.91-10.56-4.59-20.67-1.5-10.12 3.08-17.25 8.75-15.95 12.66.23.69.7 1.28 1.38 1.76a2.37 2.37 0 01-.29-.58c-1.09-3.27 5.46-8.2 14.63-10.99 9.16-2.8 17.48-2.4 18.57.87.74 2.22-2.04 5.2-6.77 7.76z" fill="url(#c0ldpswrm)"/><defs><linearGradient id="a0ldpswrm" x1="29.32" y1="16.84" x2="8.33" y2="33.11" gradientUnits="userSpaceOnUse"><stop offset=".68" stop-color="#EF3F35"/><stop offset="1" stop-color="#EF3F35" stop-opacity=".5"/></linearGradient><linearGradient id="b0ldpswrm" x1="24.15" y1="23.19" x2="10.39" y2="36.1" gradientUnits="userSpaceOnUse"><stop offset=".54" stop-color="#EF3F35"/><stop offset="1" stop-color="#EF3F35" stop-opacity=".5"/></linearGradient><linearGradient id="c0ldpswrm" x1="48" y1="26.57" x2="11.19" y2="37.08" gradientUnits="userSpaceOnUse"><stop offset=".68" stop-color="#273A96"/><stop offset=".95" stop-color="#273A96" stop-opacity=".5"/></linearGradient></defs></svg>