<!-- by TradingView --><svg width="56" height="56" viewBox="0 0 56 56" xmlns="http://www.w3.org/2000/svg"><path fill="#F0F3FA" d="M0 0h56v56H0z"/><path d="M26.94 24.7c.16-.06.33-.1.5-.14l.44-3.56c-.9.02-1.74.19-2.5.48l1.56 3.22Zm-1.92-3.06c-.64.3-1.22.7-1.73 1.17l2.9 2.3.27-.18-1.44-3.29Zm.74 3.85-2.71-2.44a7.12 7.12 0 0 0-1.41 2.18l3.77.72c.1-.17.22-.32.35-.46Zm-.59.92-3.68-.8a8.55 8.55 0 0 0-.49 2.94l4-1.58c.04-.2.1-.38.17-.56Zm5.02.59v.3L35 29.33v-.27c0-1.05-.14-2.06-.43-3l-3.7.45c.05.15.1.32.13.49h-.81Zm.5-.9 3.78-.36a7.68 7.68 0 0 0-1.43-2.55l-3.08 2c.3.24.54.55.73.9Zm-1.12-1.2 3.33-1.86a6.17 6.17 0 0 0-2.15-1.52L29 24.65c.2.07.39.15.57.26Zm-1.08-.37 2.07-3.08c-.66-.26-1.4-.41-2.2-.44l-.15 3.5c.1 0 .19 0 .28.02ZM28.45 19h.4L33 15h-4.32l-.06.08-.17 3.92Zm.17-3.9L26 19h2.13l.49-3.9Zm7.4 10.79c.2 2.28 1.94 3.68 4.88 4.18l1.06.18.13.03c.82.14 1.91.33 1.91 1.37 0 .55-.22.95-.72 1.16l3.59 1.51c.7-.72 1.13-1.7 1.13-2.98 0-2.85-2.3-4.03-4.82-4.47l-1.12-.2h-.03c-.78-.15-1.9-.36-2.02-1.26l-3.99.48Zm3.98-.67-4 .38v-.16c0-3.12 2.98-4.44 5.75-4.44 2.72 0 5.06.99 5.64 3.52l-3.44.33c-.29-.64-1.01-.85-2.14-.85-1.14 0-1.8.45-1.81 1.22Zm3.98-.28c.06.16.1.34.1.56h3.45a5.57 5.57 0 0 0-.13-.97l-3.42.4Zm2.86 9.42-3.8-1.46c-.24.07-.52.1-.85.1-1.18 0-2.17-.32-2.46-1.36L38.05 31H36c0 3.46 2.89 5 6.04 5 1.82 0 3.66-.49 4.8-1.64ZM35 29.83l-6.18-2.36L31.74 30H35v-.17Zm-4.03.17-2.78-2.22.4 2.22h2.38ZM29 32.23A2.67 2.67 0 0 0 30.5 31h1.72l1.92 1.53a6.37 6.37 0 0 1-4.46 3.3l-.67-3.6ZM28.17 30l-.53-2.22-.66 2.22h1.19Zm-1.78 1.99a3.4 3.4 0 0 0 2.33.32l.85 3.54a8 8 0 0 1-1.53.15 7.2 7.2 0 0 1-2.7-.5l1.05-3.51Zm.03-1.99H25c.14.77.52 1.35 1.02 1.74l-.84 3.7a6.73 6.73 0 0 1-3.45-3.45l5.19-4.21-.5 2.22Zm-4.9 1.49 4.45-4.02-4.94 1.72c.06.81.23 1.58.5 2.3Zm-1.85-1.83a4.52 4.52 0 0 1-.04 3.54l-2.5 2.25c-.93.38-2.01.55-3.1.55-2.24 0-4.36-.79-5.39-2.5l3.44-1.2c.45.52 1.23.7 2.11.7 1.27 0 1.81-.5 1.81-1.35 0-.27-.07-.48-.19-.65l3.86-1.34Zm-.25-.49c-.85-1.33-2.5-2-4.24-2.3l-1.12-.2h-.03c-.82-.16-2.03-.38-2.03-1.42 0-.79.66-1.25 1.81-1.25h.3L8.9 22.88c-.56.66-.9 1.51-.9 2.57 0 2.55 1.77 4.1 4.9 4.63l1.06.18.13.03c.47.08 1.02.17 1.41.43l3.92-1.54Zm-7.48 2.95a2.1 2.1 0 0 1-.3-1.12H8c0 .95.22 1.76.6 2.43l3.34-1.31Zm-3-9.3 10.51 2C19 22.06 16.57 21 13.75 21c-1.81 0-3.71.56-4.81 1.83Zm6.49 1.47 4.07.89.03.32h-3.44c-.03-.6-.25-.98-.66-1.2Zm3.52 9.95-1 .8c.38-.22.71-.48 1-.8Zm15.34-2.03L32.9 31h1.8c-.1.43-.23.83-.4 1.21ZM38.97 31l.7.3c-.02-.1-.02-.2-.02-.3h-.68Z" fill="#1963AD"/></svg>