<!-- by TradingView --><svg width="56" height="56" viewBox="0 0 56 56" xmlns="http://www.w3.org/2000/svg"><path fill="#F0F3FA" d="M0 0h56v56H0z"/><path d="M24.09 20.76C15.37 23.36 9.73 29.33 8 32c4.68-3.56 7.7-2 12.76-2A22 22 0 0 0 35 25c-1.67.95-4.95 2.5-10.01 2.5-4.05 0-8.5.37-9.99.5 1.8-.7 2.68-1.08 12.3-1.65 7.69-.46 13.03-5.06 14.7-7.35-1.28 1.5-5.28 3.73-12.53 4.43A81.14 81.14 0 0 0 17 25.59c3.14-2.03 8.5-2.35 17.86-4.32C42.35 19.7 46.74 14.43 48 12c-3.01 4.32-13.01 5.52-23.91 8.76Z" fill="url(#a)"/><path d="M41.8 33H40l2.1 3-2.1 3h1.8l1.2-1.71L44.2 39H46l-2.1-3 2.1-3h-1.8L43 34.71 41.8 33ZM18.5 35.06V39H17v-3.7c0-1.37 1.08-2.3 2.35-2.3.77 0 1.36.06 1.65.23l-.64 1.4s-.26-.18-.77-.18c-.39 0-1.09.18-1.09.61ZM29 34v3.22c-.03.83.05 2.17 1.89 2.78l.61-1.48c-.5-.17-1.03-.67-1-1.27V34H32v-1h-1.5v-2H29v2h-1v1h1ZM16 36.65c0-1.7-.5-3.65-3.03-3.65-2.09 0-2.97 1.47-2.97 3.12 0 1.64 1.2 2.88 3.22 2.88 1.21 0 2.06-.31 2.34-.47l-.57-1.3a3.4 3.4 0 0 1-1.77.6c-.95 0-1.72-.65-1.72-1.18H16Zm-1.5-1.12h-3c0-.76.76-1.3 1.47-1.3.7 0 1.53.55 1.53 1.3ZM39 36.65c0-1.7-.5-3.65-3.03-3.65-2.09 0-2.97 1.47-2.97 3.12 0 1.64 1.2 2.88 3.22 2.88 1.21 0 2.06-.31 2.34-.47l-.57-1.3a3.4 3.4 0 0 1-1.77.6c-.95 0-1.72-.65-1.72-1.18H39Zm-1.5-1.12h-3c0-.76.76-1.3 1.47-1.3.7 0 1.53.55 1.53 1.3ZM25.69 39h1.57v-.19c-.08-.04-.26-.22-.26-.61v-3.28c.04-.64-.62-1.92-2.47-1.92-1.35 0-2.04.2-2.21.3l.47 1.37c.25-.16.9-.5 1.58-.5.84 0 1.13.44 1.13 1.12h-1.13c-.8-.02-2.37.36-2.37 2.04 0 .62.68 1.67 1.79 1.67a3.2 3.2 0 0 0 1.8-.68l.1.68Zm-.19-2.54v.75c-.09.22-.62.68-1.29.68-.58 0-.79-.31-.79-.68 0-.38.26-.75.95-.75h1.13Z" fill="#F35C17"/><defs><linearGradient id="a" x1="19.54" y1="22.86" x2="25.81" y2="30.41" gradientUnits="userSpaceOnUse"><stop offset=".17" stop-color="#1C56A4"/><stop offset=".49" stop-color="#5ACAF1"/><stop offset=".91" stop-color="#1E55A5"/></linearGradient></defs></svg>