<!-- by TradingView --><svg width="56" height="56" viewBox="0 0 56 56" xmlns="http://www.w3.org/2000/svg"><path fill="#F0F3FA" d="M0 0h56v56H0z"/><path d="M26.3 16.3c3.48-.9 7.26-1.48 9.68-1.75l.15 1.4c-2.37.27-6.08.85-9.48 1.73-1.7.44-3.3.95-4.63 1.53a7.48 7.48 0 0 0-2.77 1.8l-1.1-.89c.71-.88 1.93-1.6 3.32-2.22a33.1 33.1 0 0 1 4.83-1.6ZM18.3 40.23l-.14-1.4c4.71-.53 14.3-1.88 18.12-5.16l1.09.9c-3.52 4.38-13.88 5.09-19.06 5.66ZM27.27 28c-5.14-.8-8.25-3.21-9.27-4.51v-1.6c.8 1.01 4.67 3.95 9.49 4.7 5.1.8 8.63 2.94 9.81 3.98l-.91 1.07c-.98-.85-4.26-2.88-9.12-3.64Z"/><path fill-rule="evenodd" d="M37.98 11a23.51 23.51 0 0 1-.84 7.74c-.47 1.48-1.18 2.54-2.22 2.54-.54 0-1.13-.6-1.5-1.66-1.59.14-3.02.32-4.3.54.26.4.53.83.8 1.3L31.45 24l.79 1.28C36.32 26.76 38 28.4 38 28.8c0 .43-.23.71-.35.8 0-.87-1.63-1.9-4.65-3 .26.43.49.84.67 1.2 2.08.9 3.45 1.8 3.98 2.38.15-.18.27-.34.34-.49 0 .26-.04.52-.12.76.09.13.13.23.13.3 0 .43-.23.71-.35.8 0-.13-.23-.27-.3-.41a3.9 3.9 0 0 1-.4.51c.22.18.58.34.7.48.15-.18.27-.34.34-.5 0 .27-.04.52-.12.77.09.13.13.23.13.3 0 .43-.23.71-.35.8 0-.14-.23-.28-.3-.42-.1.16-.22.31-.36.47.2.19.56.36.68.51.14-.17.25-.33.32-.47 0 .25-.04.5-.12.75.09.13.13.24.13.31 0 .43-.23.7-.35.8 0-.14-.23-.28-.3-.42-1.17 1.8-4.48 3.14-8.22 4.09-.1.28-.19.55-.26.8 5.8-1.34 8.54-3.33 9.12-4.47 0 2.63-4.44 4.46-9.3 5.64.04 2.92 2.56 7.11 4.21 7.11 1.33 0 2.43-1.12 2.8-1.68-.35.83-1.4 2.48-2.8 2.48-1.75 0-3.68-2.21-4.73-5.5a7.68 7.68 0 0 0-.96-2.07c-3.22.68-6.8 1-9.21 1.2v-7.27h.7c1.87-.1 3.58-.24 5.13-.43.2-.7.44-1.46.74-2.23.33-.83.7-1.64 1.09-2.4-4.74-1.4-7.1-3.25-7.66-4.06v-.98l.61.18c.4.88 1.94 2.32 7.6 3.78l.35-.62c-4.73-1.25-7.25-2.98-8.18-3.97-.13.16-.3.32-.38.45v-1.77l.61.18.27-.33c-.28-.24-.49-.45-.64-.63-.06.09-.2.17-.24.25v-1.42l.45.13c.08-.14.18-.28.28-.42-.2-.18-.37-.34-.5-.49-.05.09-.19.17-.23.25v-1.42l.45.13c2.06-3.56 12.37-5.36 18.4-5.9l.25-.46c-.03.01-.05.03-.08.03-13.11.64-18.17 4.1-19.02 5.76 0-4.6 13.12-6.76 19.63-7.26l.08.14c.1-.28.2-.56.27-.85Zm-4.41 19.7-.33.58c.6.26 1.12.52 1.59.77l.78-.42c-.56-.3-1.24-.61-2.04-.93Zm-.92 1.61a136.42 136.42 0 0 0-.48.84c.49-.17.94-.34 1.36-.51l-.88-.33Zm-9.14 4a72.4 72.4 0 0 1-4.8.55v.61c1.62-.08 3.28-.28 4.67-.43.03-.24.08-.48.13-.73Zm7.28-.69.55-1.01c1.3-.41 2.5-.88 3.51-1.41.3.13.56.26.8.4-1.13.68-2.72 1.4-4.86 2.02Zm-7.57 2.71c-1.64.25-3.2.42-4.52.54v.55c1.55-.08 3.16-.27 4.48-.41l.04-.68Zm6.43-.45.46-.97c2.62-.73 4.93-1.66 6.32-2.83.23.16.42.32.57.48-1.15 1.04-3.44 2.32-7.35 3.32Zm-6.43 2.4c-1.64.25-3.2.42-4.52.53v.47c1.6-.08 3.26-.27 4.63-.43a2.8 2.8 0 0 1-.1-.57Zm.76.5 2.1-.3c-.42-.17-.82-.16-1.16-.16-.44 0-.72.24-.94.45Zm10-10.89c.15-.3.23-.52.23-.64 0-.07 0-.15-.03-.25a9.04 9.04 0 0 1 2.81 1.65c-.19.17-.41.34-.67.52-.58-.4-1.35-.83-2.33-1.28Zm-6.43-3-.51.87c-5.33-1.3-7.33-2.75-8.1-3.73l.52-.44c1.4 1 3.82 2.24 7.57 3.18l.52.13Zm.51-.84.5-.83c-.49-.14-1-.27-1.53-.4a30.65 30.65 0 0 1-3.62-1.13c-.32.42-.56.65-.68.5l.3-.65c-.75-.3-1.42-.62-2-.93-.34.17-.64.35-.92.53 1.32.9 3.68 1.96 7.95 2.91Zm-4.18-3.03c1.16.36 2.55.72 4.2 1.09l.98.23c.16-.3.25-.54.25-.67 0-.6-.65-2.4-1.56-3.26-.87.18-1.67.37-2.4.57-.44.52-.88 1.17-1.28 1.76l-.19.28Zm.23-1.68a91.3 91.3 0 0 0-.74 1.51c-.61-.2-1.15-.4-1.63-.6.68-.3 1.46-.61 2.37-.9Zm4.27-2.2c1.59-.34 3.2-.6 4.73-.81a8.43 8.43 0 0 1-.07-1c-2.07.21-3.88.5-5.46.85.24.27.51.59.8.96Zm-2.84-.46-.77 1.38a19.88 19.88 0 0 0-4.11 1.7c-.38-.2-.7-.39-.97-.58 1.2-.83 3.09-1.74 5.85-2.5Zm1.13-1.41a3.2 3.2 0 0 0-.08-.07l-.13.12c-3.13.82-5.93 1.92-7.36 3.34-.2-.2-.33-.42-.4-.62 1.72-1.71 6.67-4.23 17.11-4.9-.17.22-.34.42-.5.6-2.63.3-5.76.8-8.64 1.53Zm9.78 14.87c-.2.17-.42.33-.65.5.23.14.44.3.63.44.21-.16.4-.32.57-.47-.15-.15-.33-.3-.55-.47Zm-17-9.53c.2-.18.43-.35.68-.52-.33-.2-.62-.4-.87-.59-.17.13-.32.26-.45.39.14.21.34.46.63.72Z" fill="#FF0007"/></svg>