<!-- by TradingView --><svg width="56" height="56" viewBox="0 0 56 56" xmlns="http://www.w3.org/2000/svg"><path fill="#F0F3FA" d="M0 0h56v56H0z"/><path d="m28 15 14 5.13V43l-14-5.13V15Z" fill="url(#a)"/><path d="M20.5 18.5 14 16v29l12.5-4.5-7.5-3v-7.09L25 28l-6-2.5V19l1.5-.5Z" fill="#F58323"/><path d="m14 16 14-5 14 5v5l-14-5.18-7.5 2.68L14 16Z" fill="url(#b)"/><path d="m19 25.5 9-3.5 14 5.12V32l-14-5-3 1-6-2.5Z" fill="url(#c)"/><path d="m19 37.5 9-3.5 14 5.28V45l-14-5.04-1.5.54-7.5-3Z" fill="url(#d)"/><path d="m35 18.5 7-2.5v5l-7-2.5Z" fill="url(#e)"/><path d="m35 29.5 7-2.5v5l-7-2.5Z" fill="url(#f)"/><path d="m35 42.5 7-3V45l-7-2.5Z" fill="url(#g)"/><defs><linearGradient id="a" x1="42" y1="29" x2="28" y2="29" gradientUnits="userSpaceOnUse"><stop stop-color="#7B6445"/><stop offset="1" stop-color="#977D5C"/></linearGradient><linearGradient id="b" x1="42" y1="16" x2="14" y2="16" gradientUnits="userSpaceOnUse"><stop offset=".36" stop-color="#F48121"/><stop offset="1" stop-color="#C36B23"/></linearGradient><linearGradient id="c" x1="42" y1="27" x2="19" y2="27" gradientUnits="userSpaceOnUse"><stop offset=".36" stop-color="#F48121"/><stop offset="1" stop-color="#C36B23"/></linearGradient><linearGradient id="d" x1="42" y1="39.5" x2="19" y2="39.5" gradientUnits="userSpaceOnUse"><stop offset=".36" stop-color="#F48121"/><stop offset="1" stop-color="#C36B23"/></linearGradient><linearGradient id="e" x1="42" y1="18.5" x2="35" y2="18.5" gradientUnits="userSpaceOnUse"><stop stop-color="#D6561B"/><stop offset="1" stop-color="#DD6A17"/></linearGradient><linearGradient id="f" x1="42" y1="29.5" x2="35" y2="29.5" gradientUnits="userSpaceOnUse"><stop stop-color="#D6561B"/><stop offset="1" stop-color="#DD6A17"/></linearGradient><linearGradient id="g" x1="42" y1="42" x2="35" y2="42" gradientUnits="userSpaceOnUse"><stop stop-color="#D6561B"/><stop offset="1" stop-color="#DD6A17"/></linearGradient></defs></svg>