<!-- by TradingView --><svg width="56" height="56" viewBox="0 0 56 56" xmlns="http://www.w3.org/2000/svg"><path fill="#F0F3FA" d="M0 0h56v56H0z"/><circle cx="28" cy="28" r="17" fill="url(#a)"/><path d="m28 22 1.18 3.44H33l-3.09 2.12L31.09 31 28 28.88 24.91 31l1.18-3.44L23 25.44h3.82L28 22Z" fill="url(#b)"/><path d="m28 39 .47 1.53H30l-1.24.94.48 1.53-1.24-.94-1.24.94.48-1.53-1.24-.94h1.53L28 39ZM16.24 19l.23 1.53 1.53.25-1.38.7.24 1.52-1.1-1.1-1.38.7.71-1.38-1.09-1.1 1.53.25.7-1.37ZM39.76 19l-.23 1.53-1.53.25 1.38.7-.24 1.52 1.1-1.1 1.38.7-.71-1.38 1.09-1.1-1.53.25-.7-1.37Z" fill="#FCCD00"/><path d="m40.16 23.36-.07.23a2.53 2.53 0 0 0 .03 2.1 4 4 0 0 0 .39.64l.23.32c.04.06.07.08.08.05.3-.47.45-.98.45-1.53a4 4 0 0 0-.08-.83c-.08-.3-.2-.65-.38-.9a1.06 1.06 0 0 0-.18-.23 1.46 1.46 0 0 1-.22-.18.08.08 0 0 0-.07-.03l-.04.02a.08.08 0 0 0-.02.03l-.12.31Zm.46 3.92c-.14-.26-.3-.49-.5-.69l-.51-.47a.08.08 0 0 0-.05-.02c-.08 0-.12.05-.12.17l-.01.3c-.01.09-.02.17-.01.25.02.53.08 1 .36 1.45.23.35.57.63.93.81.08.04.12.12.1.23l-.02.2c-.02.2-.04.34-.03.52l-.03.3-.01.18c0 .08 0 .15-.02.21-.02.08-.04.08-.06 0l-.06-.2c-.05-.18-.1-.36-.18-.52a3.1 3.1 0 0 0-.59-.86c-.06-.1-.12-.03-.19.2-.17.69-.23 1.32-.19 1.9.05.6.29 1.1.71 1.52.08.08.06.15.03.22a9.23 9.23 0 0 1-.6 1.43l-.02-.02V33.98c.01-.28-.04-.64-.14-1.07a2.02 2.02 0 0 0-.28-.58.05.05 0 0 0-.05 0l-.01.02a4.92 4.92 0 0 0-.65 1.62 2.53 2.53 0 0 0 .36 1.8.13.13 0 0 1 0 .15l-.99 1.28c-.1.12-.12.1-.07-.05l.08-.24c.04-.1.09-.2.11-.31.15-.61.18-1.22.1-1.82a1.96 1.96 0 0 0-.2-.62.04.04 0 0 0-.05 0h-.02l-.43.6a3.7 3.7 0 0 0-.28.56c-.34.73-.2 1.7.08 2.43a.14.14 0 0 1-.04.15 11.94 11.94 0 0 1-1.16.87c-.05.02-.07 0-.04-.04a4.14 4.14 0 0 0 .46-2.85h-.04c-.38.4-.71.83-.99 1.29a2.24 2.24 0 0 0-.19 1.97v.1a.14.14 0 0 1-.07.07l-.38.18c-.25.1-.46.2-.73.3l-.79.28c-.08.04-.1.02-.03-.05a4.23 4.23 0 0 0 .9-.68 3.38 3.38 0 0 0 .87-2.28l-.02-.02a.04.04 0 0 0-.04 0 3.64 3.64 0 0 0-1.95 2.01c-.1.3-.18.68-.16 1 0 .1-.03.14-.1.15a367.33 367.33 0 0 1-1.23.22c-.1.02-.22.03-.32.07h-.02v-.02a.05.05 0 0 1 0-.04v-.01l.01-.01.13-.07c.2-.1.45-.23.61-.37a4.25 4.25 0 0 0 1.1-1.67c0-.01 0-.02-.02-.03l-.02-.03a.09.09 0 0 0-.03 0h-.11c-.69.16-1.31.44-1.88.82-.32.22-.54.5-.64.85l-.19.55v.34c.02-.02.04 0 .07.03l.04.08.12.35c.23.59.63 1.04 1.2 1.36a7.7 7.7 0 0 0 .84.38c.01-.01.02-.02.01-.03-.03-.32-.1-.63-.19-.93a2.2 2.2 0 0 0-.91-1.25c-.02-.01-.04-.03-.04-.05l.01-.03.03-.02.72-.1a.07.07 0 0 1 .05.02.08.08 0 0 1 .03.05c.1.8.88 1.48 1.56 1.75l.37.11a3.44 3.44 0 0 1 .37.1h.01a.04.04 0 0 0 .02-.04 4.68 4.68 0 0 0-.42-1.18 1.75 1.75 0 0 0-1.11-.9c-.14-.04-.14-.07 0-.1l.8-.24a.18.18 0 0 1 .2.05c.66.79 1.34 1.18 2.4.93a.45.45 0 0 0 .17-.08c.03-.03.03-.05.01-.08-.34-.5-.72-.88-1.16-1.14a.71.71 0 0 0-.32-.1l-.02-.01-.02-.03v-.03l.03-.02.72-.4a.1.1 0 0 1 .12.01.1.1 0 0 1 .03.04c.03.05.06.13.12.17.41.27.83.38 1.3.42.48.04.92-.05 1.32-.28l.03-.08v-.06a.82.82 0 0 0-.14-.13c-.54-.46-1.36-.73-2.04-.48h-.06c-.02-.01-.02-.02 0-.04l1.04-.86a9.59 9.59 0 0 1 .14.03c.15.05.3.12.46.14.6.08 1.33.03 1.81-.28.2-.13.41-.3.62-.48.04-.04.04-.07-.02-.1-.45-.18-.92-.3-1.38-.34a1.6 1.6 0 0 0-.59.05c-.15.05-.18 0-.07-.11.18-.2.35-.44.5-.7.07-.11.13-.13.26-.13.55 0 1.1-.1 1.62-.29.59-.2.94-.62 1.28-1.14.02-.04.02-.07.02-.1-.01-.02-.03-.04-.07-.05a4.06 4.06 0 0 1-.21-.03c-.09 0-.18-.02-.26-.01l-.7.04c-.2.01-.46.07-.77.16l-.14.07a1 1 0 0 1-.11.06.03.03 0 0 1-.03-.02v-.09c.1-.13.16-.27.2-.43.04-.15.08-.23.23-.25a3.23 3.23 0 0 0 2.44-1.67l.02-.04.16-.43a.05.05 0 0 0 0-.05.05.05 0 0 0-.05-.02c-.57.07-1.1.22-1.59.47-.25.12-.43.26-.6.45-.07.07-.09.06-.06-.03a8.75 8.75 0 0 0 .32-1.32 4.1 4.1 0 0 0 2.2-2.53c.05-.17.07-.35.06-.54 0-.04-.02-.06-.06-.05-.19 0-.4.14-.66.29l-.08.05c-.37.22-.67.5-.89.84a157.92 157.92 0 0 0-.42.64c-.02-.01-.03-.03-.03-.05.11-.42.1-.86.08-1.28v-.1c0-.07.02-.13.08-.17a3.63 3.63 0 0 0 1.52-2.27 3.49 3.49 0 0 0-.05-1.21l-.02-.02a.05.05 0 0 0-.04 0c-.15.1-.28.2-.38.33a6.15 6.15 0 0 0-.94 1.89 3.38 3.38 0 0 1-.22.68l-.02.01c-.03.01-.06 0-.07-.05l-.18-.5Zm-24.78-3.92.07.23a2.53 2.53 0 0 1-.03 2.1 4 4 0 0 1-.39.64l-.23.32c-.04.06-.07.08-.08.05-.3-.47-.45-.98-.45-1.53a4 4 0 0 1 .08-.83c.08-.3.2-.65.38-.9.08-.12.14-.2.18-.23.09-.06.16-.12.22-.18l.03-.03a.08.08 0 0 1 .08.02l.02.03.12.31Zm-.46 3.92c.14-.26.3-.49.5-.69l.51-.47a.08.08 0 0 1 .05-.02c.08 0 .12.05.12.17l.01.3c.01.09.02.17.01.25-.02.53-.08 1-.36 1.45a2.4 2.4 0 0 1-.93.81c-.08.04-.12.12-.1.23l.02.2c.02.2.04.34.03.52l.03.3.01.18c0 .08 0 .15.02.21.02.08.04.08.06 0l.06-.2c.05-.18.1-.36.18-.52.14-.31.34-.6.59-.86.06-.1.12-.03.19.2.17.69.23 1.32.19 1.9-.05.6-.29 1.1-.71 1.52-.08.08-.06.15-.03.22a9.23 9.23 0 0 0 .6 1.43l.02-.02V33.98c-.01-.28.04-.64.14-1.07a2.02 2.02 0 0 1 .28-.58.05.05 0 0 1 .05 0l.01.02a4.92 4.92 0 0 1 .65 1.62 2.53 2.53 0 0 1-.36 1.8.13.13 0 0 0 0 .15l.99 1.28c.1.12.12.1.07-.05a2.48 2.48 0 0 0-.08-.24c-.04-.1-.09-.2-.11-.31a4.95 4.95 0 0 1-.1-1.82 1.96 1.96 0 0 1 .2-.62.04.04 0 0 1 .05 0h.02l.43.6c.06.1.16.28.28.56.34.73.2 1.7-.08 2.43a.14.14 0 0 0 .04.15 11.94 11.94 0 0 0 1.16.87c.05.02.07 0 .04-.04a4.14 4.14 0 0 1-.46-2.85h.04c.38.4.71.83.99 1.29.37.62.43 1.27.19 1.97a.14.14 0 0 0 0 .1c.02.03.04.06.07.07l.38.18c.25.1.46.2.73.3l.79.28c.08.04.1.02.03-.05a4.23 4.23 0 0 1-.9-.68 3.38 3.38 0 0 1-.87-2.28l.02-.02a.04.04 0 0 1 .04 0c.82.38 1.65 1.1 1.95 2.01.1.3.18.68.16 1 0 .1.03.14.1.15a367.33 367.33 0 0 0 1.23.22c.1.02.22.03.32.07h.02v-.02a.05.05 0 0 0 0-.04v-.01l-.01-.01a3.14 3.14 0 0 1-.74-.43 4.25 4.25 0 0 1-1.1-1.68c0-.01 0-.02.02-.03l.02-.03h.14c.69.16 1.31.44 1.88.82.32.22.54.5.64.85l.19.55v.34c-.02-.02-.04 0-.07.03l-.04.08-.12.35a2.55 2.55 0 0 1-1.2 1.36 7.7 7.7 0 0 1-.84.38c-.01-.01-.02-.02-.01-.03.03-.32.1-.63.19-.93.16-.54.46-.96.91-1.25.02-.01.04-.03.04-.05l-.01-.03-.03-.02-.72-.1a.07.07 0 0 0-.05.02.08.08 0 0 0-.03.05c-.1.8-.88 1.48-1.56 1.75l-.37.11a3.44 3.44 0 0 0-.37.1h-.01a.04.04 0 0 1-.02-.04c.08-.39.24-.83.42-1.18.24-.46.61-.76 1.11-.9.14-.04.14-.07 0-.1l-.8-.24a.18.18 0 0 0-.2.05c-.66.79-1.34 1.18-2.4.93a.45.45 0 0 1-.17-.08c-.03-.03-.03-.05-.01-.08.34-.5.72-.88 1.16-1.14.1-.06.2-.1.32-.1l.02-.01.02-.03v-.03l-.03-.02-.72-.4a.1.1 0 0 0-.12.01.1.1 0 0 0-.03.04c-.03.05-.06.13-.12.17-.41.27-.83.38-1.3.42a2.2 2.2 0 0 1-1.32-.28l-.03-.08v-.06a.82.82 0 0 1 .14-.13c.54-.46 1.36-.73 2.04-.48h.06c.02-.01.02-.02 0-.04l-1.04-.86a9.6 9.6 0 0 0-.14.03c-.15.05-.3.12-.46.14-.6.08-1.33.03-1.81-.28-.2-.13-.41-.3-.62-.48-.04-.04-.04-.07.02-.1.45-.18.92-.3 1.38-.34.2-.02.39 0 .59.05.15.05.18 0 .07-.11a4.7 4.7 0 0 1-.5-.7c-.07-.11-.13-.13-.26-.13-.55 0-1.1-.1-1.62-.29-.59-.2-.94-.62-1.28-1.14-.02-.04-.02-.07-.02-.1.01-.02.03-.04.07-.05l.1-.02h.11c.09-.02.18-.03.26-.02l.7.04c.2.01.46.07.77.16l.14.07a1 1 0 0 0 .11.06l.02-.01a.04.04 0 0 0 .02-.03v-.03l-.02-.04a1.53 1.53 0 0 1-.19-.43c-.04-.15-.08-.23-.23-.25a3.23 3.23 0 0 1-2.44-1.67l-.02-.04-.16-.43a.05.05 0 0 1 0-.05.05.05 0 0 1 .05-.02c.57.07 1.1.22 1.59.47.25.12.43.26.6.45.07.07.09.06.06-.03a8.75 8.75 0 0 1-.32-1.32 4.1 4.1 0 0 1-2.2-2.53 1.61 1.61 0 0 1-.06-.54c0-.04.02-.06.06-.05.19 0 .4.14.66.29l.08.05c.37.22.67.5.89.84a157.92 157.92 0 0 1 .42.64c.02-.01.03-.03.03-.05-.11-.42-.1-.86-.08-1.28v-.1a.18.18 0 0 0-.08-.17 3.63 3.63 0 0 1-1.52-2.27 3.49 3.49 0 0 1 .05-1.21l.02-.02a.05.05 0 0 1 .04 0c.15.1.28.2.38.33a6.15 6.15 0 0 1 .94 1.89 3.38 3.38 0 0 0 .22.68l.02.01c.03.01.06 0 .07-.05l.18-.5Z" fill="#FBF101"/><path d="M21.31 16.81 19.4 18.4c.17.2.37.3.6.3.23 0 .49-.12.77-.35a2.27 2.27 0 0 0 .67-1.07l.1-.08.53.7a3.64 3.64 0 0 1-.92 1.13c-.53.45-1.03.65-1.5.64-.46-.02-.87-.26-1.21-.72a1.87 1.87 0 0 1-.41-1.4c.06-.49.33-.92.79-1.3.43-.36.83-.5 1.22-.46.38.05.73.29 1.05.71l.23.31Zm-1.22.17c-.14-.18-.3-.28-.45-.3-.15-.03-.31.03-.48.17a.82.82 0 0 0-.3.46c-.04.18 0 .37.14.57l1.09-.9Zm5.44-1.44c.11.34.06.67-.17.99-.22.31-.59.56-1.1.74a3.5 3.5 0 0 1-1.4.2l-.28-.87.09-.03.21.06.33.04a2.29 2.29 0 0 0 .84-.12c.2-.07.34-.14.42-.22.08-.08.1-.17.08-.26-.03-.08-.07-.13-.14-.15a4.26 4.26 0 0 0-.68.06c-.14.03-.26.05-.38.05-.3.03-.56-.02-.75-.14a1.04 1.04 0 0 1-.23-1.5c.21-.3.57-.55 1.07-.73a3.17 3.17 0 0 1 1.26-.19l.27.84-.08.03a2.08 2.08 0 0 0-1.22.03c-.16.06-.3.13-.39.22-.1.08-.13.17-.1.26.02.07.07.13.13.15.07.02.2.02.4 0a13.97 13.97 0 0 0 .74-.11c.29-.02.52.02.7.13.18.11.3.29.38.52Zm3.43.9a3.1 3.1 0 0 1-.84.12c-.41.02-.72-.06-.93-.23-.2-.17-.32-.47-.33-.9l-.04-1.64-.44.02-.02-.76.43-.02-.02-1 1.07-.03.02 1 1-.03.03.76-1 .03.03 1.24v.32c.01.1.03.18.06.25s.08.13.16.17a.6.6 0 0 0 .3.05c.06 0 .13-.02.22-.04a.87.87 0 0 0 .19-.08h.09l.02.77Zm4.43-.43-2.36-.68c-.05.26-.01.5.13.69.14.19.38.33.72.43a2.02 2.02 0 0 0 1.22-.06l.12.03-.23.87a3.4 3.4 0 0 1-1.42-.11 2.32 2.32 0 0 1-1.36-.89c-.26-.4-.32-.89-.17-1.45.14-.56.42-.95.83-1.18.42-.23.9-.26 1.47-.1.52.15.88.4 1.07.76.2.35.22.8.08 1.31l-.1.38Zm-.86-.93c.06-.23.05-.42-.02-.56-.07-.14-.22-.24-.43-.3a.75.75 0 0 0-.53.01c-.16.07-.28.23-.35.46l1.33.39Zm4.82 3.9-1.92-1.58a.84.84 0 0 0-.14.69 1.8 1.8 0 0 0 1.1 1.02c.22.06.4.1.56.1l.1.08-.53.71a3.85 3.85 0 0 1-1.27-.67 2.45 2.45 0 0 1-.94-1.37c-.1-.48.03-.95.37-1.4.34-.46.74-.72 1.2-.77.47-.04.94.12 1.4.5.43.35.66.73.71 1.13.05.4-.09.82-.4 1.25l-.24.3Zm-.45-1.2a.8.8 0 0 0 .18-.53c-.01-.16-.1-.32-.28-.46a.76.76 0 0 0-.5-.2c-.17 0-.33.1-.5.29l1.1.9Z" fill="url(#c)"/><path d="m35.43 30.26-.57-.26-.87 1.72.57.26.3-.57 1.85.84.29-.58-1.85-.84.28-.57Zm0 2.6-.63.73-.37-.28.62-.72-.44-.34-.62.73-.32-.25.55-.66-.48-.36-.97 1.15 2.1 1.6 1.04-1.24-.48-.36Zm-2.47 2.23.84-.56.36.48-1.4.94-1.56-2.08 1.3-.88.36.47-.74.5.24.33.82-.55.33.43-.82.56.27.36Zm-1.33.25-.2-.5-.92.33-.15-.38.84-.3-.21-.54-1.47.52.93 2.4.63-.23-.38-.97.93-.33Zm-5.38 1.62.12-2.55.83.04c.88.04 1.3.6 1.26 1.33-.04.73-.5 1.26-1.38 1.22l-.83-.04Zm.7-.55h.16c.45.02.65-.24.67-.66.02-.41-.15-.7-.6-.72h-.16l-.07 1.38Zm-1.31-.12-.96-.34.71-1.82-.64-.23-.94 2.4 1.6.56.23-.57Zm-3.08-.77c-.8 0-1.44-.58-1.44-1.34 0-.76.63-1.35 1.44-1.35.82 0 1.45.6 1.45 1.35 0 .76-.63 1.34-1.45 1.34Zm0-.6a.74.74 0 1 0 0-1.47.74.74 0 0 0-.76.73c0 .41.33.73.76.73Zm-1.44-1.83.16-.1-.86-1.38-.5.27.5.8a.68.68 0 0 1-.66-.33c-.22-.34-.09-.78.29-.99a.78.78 0 0 1 1.06.26c.11.19.14.4.1.57l.64.13c.07-.32.02-.68-.19-1a1.45 1.45 0 0 0-1.96-.51 1.3 1.3 0 0 0-.5 1.85c.41.66 1.23.81 1.92.43Z" fill="url(#d)"/><defs><linearGradient id="a" x1="28" y1="11" x2="28" y2="45" gradientUnits="userSpaceOnUse"><stop stop-color="#E8CEB3"/><stop offset=".83" stop-color="#724423"/></linearGradient><linearGradient id="b" x1="28" y1="22" x2="28" y2="31" gradientUnits="userSpaceOnUse"><stop stop-color="#FDFBE9"/><stop offset=".52" stop-color="#FFC903"/></linearGradient><linearGradient id="c" x1="28" y1="12" x2="28" y2="20" gradientUnits="userSpaceOnUse"><stop stop-color="#FDFBE9"/><stop offset=".52" stop-color="#FFC903"/></linearGradient><linearGradient id="d" x1="28" y1="30" x2="28" y2="37" gradientUnits="userSpaceOnUse"><stop offset=".48" stop-color="#FFC903"/><stop offset="1" stop-color="#FDFBE9"/></linearGradient></defs></svg>