<!-- by TradingView --><svg width="56" height="56" viewBox="0 0 56 56" fill="none" xmlns="http://www.w3.org/2000/svg">
<rect width="56" height="56" fill="#F0F3FA"/>
<path fill-rule="evenodd" clip-rule="evenodd" d="M28.0895 13C23.9449 13 19.655 14.0164 15.923 15.8229C13.8763 19.5824 13 24.0308 13 28.2757C13 34.6201 15.0668 39.1258 15.8679 40.6263C19.7724 42.042 23.9204 43 28.0895 43C32.2201 43 36.3868 42.0423 40.2629 40.6437C42.1052 36.8184 43 32.5229 43 28.2757C43 24.0364 42.0823 19.6208 40.2113 15.8014C36.4877 14.0108 32.2204 13 28.0895 13ZM41.6895 42.2432C41.6895 42.2432 34.8895 45 28.0895 45C21.2895 45 14.4895 42.2432 14.4895 42.2432C14.4895 42.2432 11 36.8216 11 28.2757C11 19.7297 14.4895 14.3081 14.4895 14.3081C14.4895 14.3081 20.4842 11 28.0895 11C35.6947 11 41.6895 14.3081 41.6895 14.3081C41.6895 14.3081 45 20.0973 45 28.2757C45 36.4541 41.6895 42.2432 41.6895 42.2432ZM30.75 17C32.6163 17 34 18.4896 34 20.7962C34 22.3118 32.5183 23.5477 30.983 24.8285C29.8056 25.8105 28.5967 26.8189 28 28C28 28 26.9134 26.8694 26.3011 26.0795C25.7449 25.362 25.0661 24.7775 24.4136 24.2156C23.1581 23.1344 22 22.1371 22 20.4375C22 18.5182 23.0312 17 25.3548 17C26.7812 17 28 18.375 28 18.375C28 18.375 28.8837 17 30.75 17ZM37.0105 36.713C37.9274 35.2155 37.0105 33.4062 37.0105 33.4062C37.0105 33.4062 38.7801 33.5285 39.4809 32.384C39.8723 31.7449 40 31.1348 40 30.5678C40 29.4806 39.2599 28.106 38.1739 27.4468C37.6996 27.1589 37.1037 27 36.4375 27C34.9922 27 33.2635 27.6775 31.7176 28.2833C30.6834 28.6886 29.731 29.0618 29 29.1787C29.7251 30.2769 29.9783 31.698 30.2226 33.0686C30.5401 34.85 30.8424 36.546 32.1453 37.3368C32.9722 37.8387 33.795 38.0043 34.5399 38C35.5841 38 36.4753 37.5869 37.0105 36.713Z" fill="#532527"/>
<path d="M18.992 33.4063C18.992 33.4063 18.075 35.2156 18.992 36.713C19.5271 37.5869 20.4184 38 21.4625 38C22.2075 38.0043 23.0303 37.8387 23.8571 37.3368C26.1626 35.9375 25.3326 31.7041 26.9999 29.1787C25.1763 28.8872 21.9772 27 19.5649 27C18.8987 27 18.3028 27.1589 17.8285 27.4468C16.7425 28.106 16.0024 29.4807 16.0024 30.5678C16.0024 31.1348 16.1302 31.7449 16.5215 32.384C17.2223 33.5285 18.992 33.4063 18.992 33.4063Z" fill="#532527"/>
</svg>
