<!-- by TradingView --><svg width="56" height="56" viewBox="0 0 56 56" xmlns="http://www.w3.org/2000/svg"><path fill="#F0F3FA" d="M0 0h56v56H0z"/><path d="m19.26 37.1-.08.4c-.02.06 0 .1.06.13.15.08.44.31.27.88-.2 1.01-.7 3.2-.7 3.2s-.06.4-.6.61a.21.21 0 0 0-.12.14l-.09.38c-.01.08.05.16.13.16h2.75c.07 0 .14-.05.16-.12l.1-.37a.18.18 0 0 0-.07-.2c-.13-.08-.3-.24-.28-.5.1-.5.34-1.49.34-1.49l.93 1.58s.45 1.02 1.63 1.1h1.54c.06 0 .1-.04.12-.1l.08-.4a.12.12 0 0 0-.1-.15c-.16-.02-.43-.08-.58-.28l-1.8-2.4 2.14-1.79s.33-.18.7-.2c.07 0 .13-.05.15-.13l.06-.44a.1.1 0 0 0-.1-.11h-2.45a.14.14 0 0 0-.13.11l-.07.35a.2.2 0 0 0 .08.2c.1.08.22.22.02.37l-2.09 1.74.36-1.76s.12-.28.38-.37a.16.16 0 0 0 .1-.12l.09-.36a.13.13 0 0 0-.13-.16H19.4a.14.14 0 0 0-.14.1ZM26.63 37.15l-.07.37c-.01.04.01.09.06.11.13.07.42.25.37.6L26 42.77a.2.2 0 0 0 .2.23h2.17c.05 0 .1-.03.11-.08l.13-.43a.16.16 0 0 0-.07-.19c-.14-.08-.37-.26-.32-.6l.22-1.02h1.97c.08 0 .15-.05.16-.12l.16-.77a.17.17 0 0 0-.17-.2h-1.82l.32-1.62 1.48.01c.25 0 .45.22.43.46l-.02.16c0 .07.05.13.12.13h.5c.06 0 .11-.05.13-.11l.3-1.47a.13.13 0 0 0-.13-.15h-5.06c-.1 0-.17.06-.18.15ZM37.9 37.26c-.46-.17-2-.6-4.04.23-1.5.76-1.77 1.98-1.86 3-.08 1.02 1.22 3.32 5.2 2.22a.21.21 0 0 0 .14-.16l.14-.65a.14.14 0 0 0-.18-.16c-.49.14-1.64.4-2.36-.04-.93-.55-.9-1.14-.9-1.66s.48-2.09 1.99-2.11c.94 0 1 .58.97.84 0 .07.05.13.12.13h.41c.07 0 .13-.05.15-.11l.32-1.34a.16.16 0 0 0-.1-.2ZM33.22 23.14c-.05.7-.43 1.37-.52 1.54-.2.38-.27.65-.31.78-.04.13-.14.09-.16.06-.02-.02-.04-.12-.05-.14-.02-.02-.06-.02-.1.1-.04.1-.15.24-.2.32-.05.05-.05.13-.05.19 0 .12 0 .57-.1 1.08a3.1 3.1 0 0 1-.8 1.7c-.64.64-1.18.86-1.25.9-.09.04-.21.02-.26 0-.04-.02-.07-.07-.15-.14-.07-.07-.1.03-.1.06l.03.22c.02.18-.1.37-.22.52l-.23.3a.84.84 0 0 0-.15.44c0 .02 0 .04-.03.05-.15.03-.3-.16-.42-.26a3.67 3.67 0 0 1-.71-.78c-.3-.47-.22-.76-.05-1.29.13-.37.05-.75.03-.8-.02-.06.01-.1.1-.06.07.05.13.18.2.3.07.1.1.04.12-.03.04-.17.01-.3 0-.38 0-.05-.03-.15-.12-.18-.11-.04-.22-.07-.28-.12-.03-.02-.05-.07-.02-.1a.72.72 0 0 1 .25-.13c.12-.02.24-.07.38-.05.96.14 1.25-.05 1.63-.15.08-.02.13-.03.18 0 .06.03.22.11.26.19.03.08 0 .39.05.62.05.23.22.02.26-.07.04-.1.08-.32.1-.38 0-.05.05-.3.14-.37.18-.14.24-.32.27-.4.02-.07.07-.3.06-.62 0-.33-.07-.37-.15-.44-.08-.07-.18-.05-.38-.24-.18-.16-.33-.42-.47-.59a1.17 1.17 0 0 0-.6-.4c-.25-.06-.13.18-.12.24.01.05.03.18-.05.25-.08.06-.56.38-.95.32-.64-.1-.86-.55-.9-.71-.03-.18.17-.57.2-.86.02-.13.03-.38.03-.55 0-.17.13-.4.18-.44.05-.05.17-.08.31-.1.15 0 .3.09.33.2.1.43.25.53.3.57.05.03.15-.04.19-.06.04-.02.13-.12.1-.17a.64.64 0 0 1-.08-.18c-.02-.08.08-.07.1-.05.3.16.43.2.73.24.3.03.77-.1.83-.1.04.01.13.05.16.1.02.04.07.14.1.16.05.02.15.03.2.03.08.02.22 0 .2.14-.06.36-.38.54-.41.56l-.01.02v-.01a.64.64 0 0 1-.2.07c-.07 0-.1.02-.13.04-.04.04.03.11.1.17.05.04.21 0 .34-.04h.01c.27-.11.39-.27.52-.47.14-.2.29-.89.3-1 .03-.12.08-.18.14-.22.07-.04.37-.18.42-.19.04 0 .08 0 .12.11.03.11.04.77.05.87 0 .11.06.1.1.09a.59.59 0 0 0 .18-.17c.06-.08.04-.21 0-.28-.05-.07-.12-.17-.07-.26.1-.2.28-.17.32-.16.05.02.21.12.18.59Zm-4 3.67c-.12.04-.45.11-.61.12l-.76.04a.63.63 0 0 1-.36-.16c-.03-.02-.05-.1.04-.1.18 0 .47-.09 1.5 0l.18.01c.03 0 .12.05 0 .09Zm-2.4-.54c-.46.1-.56-.07-.6-.12-.02-.05.03-.09.08-.1.11-.04.26-.12.34-.18.08-.06.25-.28.36-.35a.6.6 0 0 1 .5.03c.22.14.57.2.8.2.22 0 .32-.15.38-.24.06-.08.18-.1.24-.12.18-.05.43-.24.46-.26.03-.02.1-.05.2.03.18.14.27.3.42.54.16.23.37.3.44.3.06.02.1.1.1.12 0 .02-.07.08-.11.1-.05.03-.08.08-.43.04a9.96 9.96 0 0 0-3.18.01Zm-.26 2.45c-.36 0-1.26-.39-1.67-1.96-.1-.4.12-.77.28-.82.1-.04.15-.05.18-.05s.2 0 .19.17c0 .15.12 1.37.44 1.81.09.11.16.12.2.02l.1-.25c.02-.03.13-.12.16.01.08.29.16.66.23.82.07.15.03.24-.1.25Zm-1.97-4.53c.04.03.16.12.29.16.08.03.13 0 .16-.06.02-.05.1-.16-.01-.22s-.43-.21-.62-.7a.11.11 0 0 1 .04-.13l.17-.08c.05-.02.1-.01.15.04.06.04.17.15.27.15.09 0 .1-.03.12-.05.08-.09.3-.4.76-.35l.43.07c.07 0 .3.01.44-.06.14-.07.19 0 .1.09s-.15.13-.08.23l.1.12v.04l-.01.05a.72.72 0 0 1-.22.35c-.11.1-.31.17-.39.2-.16.04-.32 0-.47.04-.05.02-.09.06-.08.12l.03.08c.01.04.08.12.2.12H26a3.49 3.49 0 0 0 .5-.08.71.71 0 0 0-.08.09c-.12.18-.12.25-.14.32-.02.07-.08.1-.15.12-.06.02-.32.12-.52.28-.2.17-.43.17-.61-.03s-.41-.5-.49-.83c-.03-.1.04-.1.08-.08Zm-.24-1.76c.02-.07.13-.26.3-.29a2.97 2.97 0 0 1 .42-.05c.13 0 .14.1.06.15l-.23.12-.33.21c-.11.07-.27 0-.22-.14Zm1.98.06c-.11-.02-.23-.05-.45 0-.24.05-.41.14-.53.2a.73.73 0 0 1-.28.06c-.04 0-.18-.04-.07-.13l.2-.1.22-.11c.15-.1.46-.23.58-.23.1 0 .25.04.33.13.09.09.11.2 0 .18Zm.83 2.33a.3.3 0 0 1 .03.17c0 .05-.16.1-.3-.08a.45.45 0 0 1 .02-.51c.12-.15.3-.04.28.01a.5.5 0 0 0-.03.41Zm3.8-1.93c-.04.03-.18-.02-.23-.05-.1-.05-.18-.1-.31-.2a.56.56 0 0 0-.42-.1 4 4 0 0 0-.27.04c-.1.03-.1-.06-.07-.09a.86.86 0 0 1 .38-.21h.15c.12.01.26.08.36.18.1.1.26.25.37.31.05.03.16.06.05.12Zm-.07-.5a1.48 1.48 0 0 0-.25-.19c-.04-.02-.02-.08.06-.08.25 0 .41.02.53.11.08.07.13.18.09.28-.05.1-.1.07-.14.06-.06 0-.23-.12-.3-.18Zm1.1-.23-.02.12c0 .02-.04.05-.08.05l-.3-.01c-.03 0-.06-.03-.06-.06v-.13c0-.02.01-.05.06-.05l.35.02c.03 0 .05.03.04.06Zm-7.7-.68v-.29c.01-.03.03-.1.08-.15l.2-.13c.09-.06.1-.24.12-.34.06-.3.16-1.25.9-2.08.38-.42.76-.4 1.16-.42.38 0 .8.1 1.02.2.17.09.25.14.32.1l.31-.26c.08-.05.05-.14-.02-.2-.07-.04-.72-.66-1.7-.82-.94-.14-1.76.09-1.98.13a.3.3 0 0 1-.09 0c-.02 0-.1-.03-.06-.09.04-.06.14-.14.24-.21.1-.07.61-.43 1.08-.57l.17-.05c.07-.01.13-.16-.02-.18-.15-.02-.22-.01-.3 0-.08 0-.12-.05-.06-.1.06-.07.17-.13.36-.2a7.15 7.15 0 0 1 2.31-.33 5.5 5.5 0 0 1 3.15 1.26 4.62 4.62 0 0 1 1.46 4.4c-.02.07-.11.18-.16.03-.16-.48-.42-1.13-.73-1.75-.05-.1-.12-.07-.11.03l.04.74c0 .09-.08.29.19.7.1.18.2.33.23.56l.03.36c0 .03.02.1-.1.09l-.7-.12c-.19-.02-1.46-.07-1.94-.03-.48.03-.74.12-1.02.33a.66.66 0 0 1-.17.1c-.02 0-.08 0-.2-.03a1.14 1.14 0 0 0-.44.02c-.11.03-.2.06-.32 0-.17-.1-.45-.49-1.28-.56a9.49 9.49 0 0 0-1.84-.02c-.08 0-.13-.04-.13-.12Zm-.23-2a.82.82 0 0 0-.27.35c-.06.18-.32.8-.35 1.8 0 .12.02.28-.1.32l-.19.07c-.06.01-.1.01-.13-.07a2.6 2.6 0 0 1-.1-.72c0-.21.05-.84.1-1.17.06-.34.02-.53-.08-.71l-.18-.36c-.03-.07 0-.11.08-.16.04-.02.1 0 .16 0 .12 0 .5-.09.8-.26.3-.18.79-.53 1.1-.64.32-.12.46-.18.8-.17.07 0 .15.04.04.1-.11.07-.46.14-.92.66-.28.32-.35.52-.45.67-.1.15-.17.18-.3.3Zm.03 2.8h-.27c-.06 0-.12.01-.12-.04v-.16c0-.02 0-.04.03-.05h.35c.02 0 .05 0 .05.06v.12c0 .02.01.06-.04.06Zm-.65 1.13c-.05-.05-.25-.4-.31-.77-.01-.03-.01-.13.05-.15.06-.01.13-.05.17-.06.04 0 .13-.02.13.1 0 .14-.02.29.08.68l.02.13c.01.08-.09.11-.14.07Zm10.11-1.55s.82-2.93-1.55-5.24l-.13-.1a6.06 6.06 0 0 0-2.63-1.34 5.74 5.74 0 0 0-2.5-.05 9.65 9.65 0 0 0-1.84.57c-.33.1-.29.31-.29.31-.38.92-1.57.86-1.57.86-.03.39.84.76.84.76-.16.32-.66.55-1.24.6-.59.04-.64.53-.64.53.28.44.64.55.32 2.73-.32 2.19 1.55 3.8 1.55 3.8-.14.97.5 2.04.5 2.04-.2.8.55 1.95.55 1.95.05.08.55.66 1.42 1.2l.29.16.03.03c.03.03.06.1-.03.1-.08.01-.33 0-.6.06-.28.07-.24.16-.25.32 0 .21-.1.72.04.88.08.09.2.15.55.13.41-.02.95.03 1.34-.1.1-.03.13.04.06.17a8.62 8.62 0 0 1-1.94 2.49c-.2.16.83.43.91.4a5.4 5.4 0 0 0 1.33-1.77c.02-.05.06-.09.07 0 .01.06.13 1.65.05 2.24-.04.3.22.25.9.41.18.04.08-2.7-.33-3.83v-.03c0-.04.03-.07.06-.08h.03c.23-.03.77-.01.86-.01.09 0 .33.05.46.06.13.01.42.04.41-.34l.01-.69v-.03c0-.1 0-.23-.19-.28-.2-.05-.57-.05-.9.02l-.08-.01c0-.02 0-.04.04-.06.07-.05.67-.34 1.22-.8.6-.53.88-.93 1.07-1.3 0 0 .6-1.23.46-2.57l.1-.14s.41.15.65-.46c.25-.61 1.78-3.22.6-3.59Z"/><path d="M20 15h-5.5c-.29 0-.52.27-.5.6L15.41 35H20V15ZM36 15h5.5c.29 0 .52.27.5.6L40.59 35H36V15Z" fill="#F03"/><path d="M13.75 13.72a1.03 1.03 0 0 0-1.03 1.12l2.24 28.38c.05.6.55 1.06 1.14 1.06h23.82c.6 0 1.1-.46 1.14-1.06l2.22-28.39a1.03 1.03 0 0 0-1.03-1.11h-28.5ZM39.92 45H16.1c-.96 0-1.78-.76-1.86-1.72l-2.23-28.39A1.76 1.76 0 0 1 13.75 13h28.5A1.75 1.75 0 0 1 44 14.89l-2.22 28.39A1.87 1.87 0 0 1 39.92 45Z"/></svg>