<!-- by TradingView --><svg width="56" height="56" viewBox="0 0 56 56" fill="none" xmlns="http://www.w3.org/2000/svg">
<rect width="56" height="56" fill="#F0F3FA"/>
<path d="M8 20.5708V19.9416C8 19.9416 9.27649 19.4469 9.6875 20.7031C10.1855 22.2251 8.625 24 8.625 24C8.625 24 11 23.1106 10.9996 20.8122C11 19.5487 10.3087 18.5701 8.96769 18.5C8.3349 18.4669 8 18.6472 8 18.6472V18L6.5 19.7258L8 20.5708Z" fill="#A6CE39"/>
<path d="M7 22.4388L7 23.0653C7 23.0653 5.72166 23.7385 5.29688 22.4388C4.80099 20.9215 6.45313 19 6.45313 19C6.45313 19 3.99644 19.9225 4 22.25C4.00182 23.4416 4.71628 24.5 6.01562 24.5C6.65274 24.5 7 24.3542 7 24.3542L7 24.9987L8.50545 23.2851L7 22.4388Z" fill="#2E2661"/>
<path fill-rule="evenodd" clip-rule="evenodd" d="M34 27.3927V26.4062C34 26.4062 34.6744 26 35.9005 26C37.1266 26 38 26.4733 38 27.9736V30.0077C38.0187 30.4014 38.0781 31 38.0781 31H36.5V30.2594C36.5 30.2594 36.3437 31 35.1093 31C34.0156 31 33.5 30.2594 33.5 29.5445C33.5 28.5156 34.4843 28 35.6553 28H36.5C36.5 28 36.6875 27 35.6553 27C34.6231 27 34 27.3927 34 27.3927ZM35.5799 30C35.2729 30 35.001 29.7399 35 29.4062C34.999 29.058 35.3067 28.8 35.6647 28.8H36.4844C36.4844 29.3221 36.2394 30 35.5799 30Z" fill="#A6CE39"/>
<path fill-rule="evenodd" clip-rule="evenodd" d="M21 27.3927V26.4062C21 26.4062 21.6744 26 22.9005 26C24.1266 26 25 26.4733 25 27.9736V30.0077L25 31H23.5V30.2594C23.5 30.2594 23.3437 31 22.1093 31C21.0156 31 20.5 30.2594 20.5 29.5445C20.5 28.5156 21.4843 28 22.6553 28H23.5C23.5 28 23.6875 27 22.6553 27C21.6231 27 21 27.3927 21 27.3927ZM22.5998 30C22.2928 30 22.0209 29.7399 22.0199 29.4062C22.0189 29.058 22.3266 28.8 22.6846 28.8H23.5043C23.5043 29.3221 23.2593 30 22.5998 30Z" fill="#2E2661"/>
<path fill-rule="evenodd" clip-rule="evenodd" d="M13.5 27.3927V26.4062C13.5 26.4062 14.1744 26 15.4005 26C16.6266 26 17.5 26.4733 17.5 27.9736V30.0077C17.5187 30.4014 17.5781 31 17.5781 31H16V30.2594C16 30.2594 15.8437 31 14.6093 31C13.5156 31 13 30.4014 13 29.5445C13 28.6875 13.7821 28 14.9531 28H16C16 28 16.1875 27 15.1553 27C14.1231 27 13.5 27.3927 13.5 27.3927ZM15.0799 30C14.7729 30 14.501 29.7399 14.5 29.4062C14.499 29.058 14.8067 28.8 15.1647 28.8H15.9844C15.9844 29.3221 15.7394 30 15.0799 30Z" fill="#2E2661"/>
<path fill-rule="evenodd" clip-rule="evenodd" d="M29.0017 25V31H30.5001V29H31.4688C32.5626 29 33.5017 28.311 33.5017 26.9207C33.5017 25.87 32.9376 25 31.2344 25H29.0017ZM30.5001 26.0009V28H31.1975C31.1975 28 32.0001 27.9326 32.0001 26.9668C32.0001 26.0009 31.1975 26.0009 31.1975 26.0009H30.5001Z" fill="#A6CE39"/>
<path d="M25.5 31V26H27V26.8281C27 26.8281 27.2031 26.0029 28.1484 26.0029C28.4062 26.0029 28.6 26.1219 28.6 26.1219V27.4375C28.6 27.4375 27.7087 27.3122 27.3172 27.7349C27.0501 28.0233 26.9951 28.3428 26.9951 28.9972V31H25.5Z" fill="#2E2661"/>
<path d="M9 25.0045V31.0045H10.5V28.5H13V27.5H10.5V26H13V25.0045H9Z" fill="#2E2661"/>
<path d="M19.9999 26H18.4999V31.4531C18.4999 31.4531 18.4843 31.7891 18.3437 31.8906C18.2405 31.9651 18.1105 31.9969 17.9915 32C17.8131 32.0046 17.6597 31.9531 17.6597 31.9531V32.895C17.6597 32.895 18.039 33 18.6953 33C19.9747 33 19.9999 31.8438 19.9999 31.3047V26Z" fill="#2E2661"/>
<path fill-rule="evenodd" clip-rule="evenodd" d="M38.5 26V33H40V30.3792C40 30.3792 40.3883 31 41.4955 31C42.6026 31 43.5 30.0108 43.5 28.5375C43.5 27.3506 42.9328 26 41.4955 26C40.4077 26 40 26.9618 40 26.9618V26H38.5ZM41.0421 30C41.5711 30 42 29.351 42 28.5146C42 27.6781 41.7263 27 41.0421 27C40.3579 27 40 27.6781 40 28.5146C40 29.351 40.3579 30 41.0421 30Z" fill="#A6CE39"/>
<path fill-rule="evenodd" clip-rule="evenodd" d="M45.5078 29H48.5866C48.5866 29 48.6167 28.5449 48.5866 28.2222C48.4836 27.1186 47.9384 26 46.2393 26C44.9547 26 44 27.0234 44 28.5049C44 30.1326 45.1196 31 46.6813 31C47.6929 31 48 30.6589 48 30.6589V29.6627C48 29.6627 47.4179 30 46.6813 30C45.5911 30 45.5078 29 45.5078 29ZM45.4587 28H47.2411C47.2411 28 47.2705 27 46.4161 27C45.4536 27 45.4587 28 45.4587 28Z" fill="#A6CE39"/>
<path d="M49 31V26H50.5V26.7344C50.5 26.7344 50.7234 26.0029 51.5547 26.0029C51.8125 26.0029 52 26.1219 52 26.1219V27.4375C52 27.4375 51.1149 27.3122 50.7234 27.7349C50.4563 28.0233 50.5 28.3428 50.5 28.9972V31H49Z" fill="#A6CE39"/>
</svg>
