<!-- by TradingView --><svg width="56" height="56" viewBox="0 0 56 56" xmlns="http://www.w3.org/2000/svg"><path fill="#F0F3FA" d="M0 0h56v56H0z"/><path d="M8 21h14l1 .28L27 19l4.96 2H45l3 2.93V35H8V21Z" fill="url(#a)"/><path d="M30 21h-2v14h4v-9h5.59L35 27.84V35h4v-9h4.7L41 28.09V35h4V21H30Z" fill="url(#b)"/><path d="M23 21.28 27 19v16h-4V21.28Z" fill="url(#c)"/><path d="M8 21h14v4H12v2h10l-2.8 4H12v4H8V21Z" fill="url(#d)"/><defs><linearGradient id="a" x1="28" y1="19" x2="28" y2="35" gradientUnits="userSpaceOnUse"><stop stop-color="#00055E"/><stop offset="1" stop-color="#000221"/></linearGradient><linearGradient id="b" x1="28.55" y1="21.6" x2="41.22" y2="33.87" gradientUnits="userSpaceOnUse"><stop stop-color="#FFA600"/><stop offset="1" stop-color="#FF6A00"/></linearGradient><linearGradient id="c" x1="25" y1="19" x2="25" y2="35" gradientUnits="userSpaceOnUse"><stop stop-color="#FFB800"/><stop offset="1" stop-color="#FF9400"/></linearGradient><linearGradient id="d" x1="14.96" y1="21.29" x2="14.96" y2="34.92" gradientUnits="userSpaceOnUse"><stop stop-color="#FFBF00"/><stop offset="1" stop-color="#FF9000"/></linearGradient></defs></svg>