<!-- by TradingView --><svg width="56" height="56" viewBox="0 0 56 56" xmlns="http://www.w3.org/2000/svg"><path fill="#F0F3FA" d="M0 0h56v56H0z"/><path fill-rule="evenodd" d="M39 38.44A15.78 15.78 0 0 1 27.01 44C18.17 44 11 36.61 11 27.5S18.17 11 27.01 11c2.54 0 4.94.6 7.07 1.69C40.1 14.87 44 19.92 44 23.79V44h-1.45c-2.42 0-3.42-2.25-3.55-3.37v-2.19Zm1-10.94a12.5 12.5 0 1 1-25 0 12.5 12.5 0 0 1 25 0Z" fill="#292B2B"/><path d="M40 17.96c0-3.25 2.67-4.66 4-4.96-.36.47-.47 1.37-.47 3.75 0 2.37-1.92 3-2.28 3.16-.37.16-.99.37-1.25-1.95Z" fill="#1CA53D"/><path fill-rule="evenodd" d="M36.88 29a9.5 9.5 0 1 0-2.95 5.5l-3.15-3.92A4.49 4.49 0 0 1 23.26 29H36.88Zm-9.38-6a4.5 4.5 0 0 0-4.24 3h8.48a4.5 4.5 0 0 0-4.24-3Z" fill="#1CA53D"/></svg>