<!-- by TradingView --><svg width="56" height="56" viewBox="0 0 56 56" xmlns="http://www.w3.org/2000/svg"><path fill="#F0F3FA" d="M0 0h56v56H0z"/><path d="m32.83 37.85-9.16-9.1a.44.44 0 0 0-.27-.14l-.04-.1a.37.37 0 0 0-.08-.13l-2.2-2.2a.22.22 0 0 1-.07-.15v-14.8c-.02-.65.06-1.1.22-1.36.52-.81 1.51-1.06 2.43-.72.2.08.51.32.92.73l16.5 16.44c.52.52.8.9.87 1.17.08.38.06.76-.07 1.14a3 3 0 0 1-.7.9l-8.35 8.32Z" fill="#F6D00D"/><path d="M32.83 37.85c-2.73 2.72-5.44 5.43-8.14 8.1-.56.56-.97.88-1.25.97a1.9 1.9 0 0 1-1.56-.22c-.9-.52-.88-1.17-.88-2.24V31.14c0-.1.05-.18.11-.25l2.3-2.28c.09 0 .18.06.26.14l9.16 9.1Z" fill="#E6B122"/></svg>