<!-- by TradingView --><svg width="56" height="56" viewBox="0 0 56 56" xmlns="http://www.w3.org/2000/svg"><path fill="#F0F3FA" d="M0 0h56v56H0z"/><path d="M39.02 21.5 28 10.87l-4.42 4.3A8.18 8.18 0 0 0 21 21c.01 2.53 1.3 5.12 3.17 6.93l3.8 3.67 7.16-6.9a5.68 5.68 0 0 1-.52 7.7L28 38.76l-6.44-6.19a.2.2 0 0 1-.14-.06l-.3-.27c-1.24-1.17-3.6-3.39-3.6-7.29a10.3 10.3 0 0 1 1.97-5.86l-2.51 2.42a9.56 9.56 0 0 0 0 13.87L28 46l11.02-10.63a9.56 9.56 0 0 0 0-13.87ZM27.55 18 31 21.45 27.54 25A4.84 4.84 0 0 1 26 21.45 4.86 4.86 0 0 1 27.55 18ZM20.54 10a4.91 4.91 0 0 1 0 7L17 13.5l3.54-3.5Z" fill="#BA8E25"/></svg>