<!-- by TradingView --><svg width="56" height="56" viewBox="0 0 56 56" xmlns="http://www.w3.org/2000/svg"><path fill="#F0F3FA" d="M0 0h56v56H0z"/><path d="M46.49 22c1.67 0 2.51.9 2.51 2.84v6.3c0 1.9-.84 2.86-2.51 2.86-1.66 0-2.49-.95-2.49-2.86v-6.3c0-1.9.83-2.84 2.49-2.84Zm.51 9.54v-7.08c0-.3-.27-.46-.5-.46-.23 0-.5.15-.5.46v7.08c0 .3.27.46.5.46.23 0 .5-.15.5-.46ZM43 29v2.52c0 1.66-.82 2.48-2.47 2.48-1.69 0-2.53-.95-2.53-2.86v-6.3c0-1.9.85-2.84 2.55-2.84 1.63 0 2.45.77 2.45 2.49V27h-2v-2.54c0-.3-.24-.46-.47-.46-.22 0-.53.15-.53.46v7.08c0 .31.31.46.55.46.22 0 .45-.15.45-.46V29h2ZM27.01 30l.6-8H31v12h-2v-8.17L28.05 34h-2.13L25 25.82V34h-2V22h3.41l.6 8ZM20 32h2v2h-4V22h2v10ZM14.6 34l-.12-2h-.96l-.12 2H11l1.15-12h3.75L17 34h-2.4Zm-.97-4h.76L14 24.12 13.63 30ZM35.6 34l-.12-2h-.96l-.12 2H32l1.15-12h3.75L38 34h-2.4Zm-.97-4h.76L35 24.12 34.63 30ZM11 24H9v3h2v2H9v5H7V22h4v2Z" fill="#163373"/></svg>