<!-- by TradingView --><svg width="56" height="56" viewBox="0 0 56 56" xmlns="http://www.w3.org/2000/svg"><path fill="#F0F3FA" d="M0 0h56v56H0z"/><path d="M33 15v-2h8v22.58A7.3 7.3 0 0 1 33.82 43h-9.63a5.14 5.14 0 0 0 1.88-2h7.02C36.6 41 39 38.27 39 34.63V15h-6Z" fill="#A4CB34"/><path d="M22.67 41v2H15V20.42A7.3 7.3 0 0 1 22.18 13h9.63a5.14 5.14 0 0 0-1.88 2H22.9C19.4 15 17 17.73 17 21.37V41h5.67Z" fill="#00429C"/><path d="M17.5 20.96V40.5h5.14v-.97A3.45 3.45 0 0 1 26.18 36h3.3c1.95 0 3.54-1.94 3.54-4.03v-4.14H22.98v-3.61c0-2.1 1.59-3.97 3.55-3.97h2.45V15.5h-6.36c-2.83 0-5.12 2.45-5.12 5.46Z" fill="#00429C"/><path d="M38.5 35.04V15.5h-5.14v.97A3.45 3.45 0 0 1 29.82 20h-3.3C24.58 20 23 21.94 23 24.03V28h10.02v3.78c0 2.1-1.59 4.22-3.55 4.22h-2.45v4.5h6.36c2.83 0 5.12-2.45 5.12-5.46Z" fill="#A4CB34"/></svg>