<!-- by TradingView --><svg width="56" height="56" viewBox="0 0 56 56" xmlns="http://www.w3.org/2000/svg"><path fill="#181B1E" d="M0 0h56v56H0z"/><path d="M28 20.25v4.92c2.15.8 7.04 2.67 9.44 3.6 2.4.94 3.1 3.55 3.15 4.74.47-.6 1.41-2.37 1.41-4.74 0-2.36-2.07-3.85-3.1-4.3L28 20.24Z" fill="url(#a)"/><path d="M28 35.43V27.5c-2.15-.81-4.97-2.06-7.38-3-2.4-.94-3.9-2.39-4.27-3.51-1.18.94-2.35 3.86-2.35 6.23 0 2.36 2.07 3.85 3.1 4.3l10.9 3.9Z" fill="url(#b)"/><path d="M28 27.5v7.93l7.33 5.3c.55-.74 2.14-2.38 2.59-3.05.56-.85 1.08-1.55 1.08-3.24a4 4 0 0 0-2.16-3.6L28 27.5Z" fill="url(#c)"/><path d="M28 25.17v-4.88l-7.33-5.01C20.12 16 17.25 20 17.25 20s.46.87 2.3 1.84c3.1 1.64 8.45 3.33 8.45 3.33Z" fill="url(#d)"/><path d="M28 45.12v-9.7c.9.46 3.15 1.62 5.03 2.63 1.88 1.01 2.31 2.2 2.3 2.67l-3.92 5.49c-1.06 1.49-3.41.74-3.41-1.09ZM28 10.88v9.41c-.9-.45-3.15-1.6-5.03-2.62-1.88-1.01-2.31-1.92-2.3-2.4L24.6 9.8C25.65 8.3 28 9.05 28 10.88Z" fill="#0063A3"/><defs><linearGradient id="a" x1="42" y1="26.88" x2="28" y2="26.88" gradientUnits="userSpaceOnUse"><stop stop-color="#8DB026"/><stop offset="1" stop-color="#007F4E"/></linearGradient><linearGradient id="b" x1="13.15" y1="26.57" x2="27.98" y2="34.85" gradientUnits="userSpaceOnUse"><stop stop-color="#C3364F"/><stop offset="1" stop-color="#E5C12D"/></linearGradient><linearGradient id="c" x1="38.62" y1="34.12" x2="28" y2="34.12" gradientUnits="userSpaceOnUse"><stop stop-color="#699D3C"/><stop offset="1" stop-color="#007F4E"/></linearGradient><linearGradient id="d" x1="16.64" y1="19.16" x2="27.3" y2="25.87" gradientUnits="userSpaceOnUse"><stop stop-color="#C3364F"/><stop offset="1" stop-color="#E5C12D"/></linearGradient></defs></svg>