<!-- by TradingView --><svg width="56" height="56" viewBox="0 0 56 56" xmlns="http://www.w3.org/2000/svg"><path fill="#F0F3FA" d="M0 0h56v56H0z"/><path d="M24.88 41.87c.21.01.4.09.54.23.16.16.23.36.23.6-.02.49 0 .86.04 1.11.05.26.16.6.35 1.06.1.23.1.44 0 .64a.81.81 0 0 1-.43.41c-.2.09-.4.1-.6.04a.9.9 0 0 1-.53-.46c-.2-.36-.34-.81-.45-1.38a4.67 4.67 0 0 1-.07-1.45.91.91 0 0 1 .34-.62.85.85 0 0 1 .58-.18Zm4.06-31.86.07.01c.2.03.36.12.47.28a.7.7 0 0 1 .14.54l-.3 2.25c-.02.13.03.2.16.2 1.77.02 3.53.22 5.26.59.94.2 1.83.49 2.67.86.77.35 1.39.75 1.85 1.2.48.47.89 1.08 1.23 1.84.43.94.75 2.05.96 3.32.7 4.18.73 8.4.08 12.64a11.38 11.38 0 0 1-1.13 3.72 5.77 5.77 0 0 1-2.77 2.56 11.32 11.32 0 0 1-2.48.66c-2.47.53-5.02.83-7.65.89a.82.82 0 0 1-.6-.23.84.84 0 0 1-.27-.6v-.07a.76.76 0 0 1 .2-.57.75.75 0 0 1 .56-.25c2.4-.02 4.7-.23 6.89-.64a8.33 8.33 0 0 0 3.18-1.11 4.93 4.93 0 0 0 1.94-2.64c.33-1.1.57-2.34.71-3.74.27-2.7.26-5.4-.01-8.11-.14-1.3-.3-2.34-.47-3.1a10.2 10.2 0 0 0-1.04-2.72c-.45-.8-1.38-1.42-2.77-1.86a20.38 20.38 0 0 0-6.16-.93c-.08 0-.1.04-.09.12.1.36.25.72.46 1.09.52.9 1.36 2.17 2.52 3.82.43.62.76 1.08.96 1.4a9.6 9.6 0 0 1 1.8 6.51 8.3 8.3 0 0 1-2.43 5.26 10.99 10.99 0 0 1-5.14 2.69.17.17 0 0 0-.13.11 54.3 54.3 0 0 1-1.94 4.7c-.1.22-.22.38-.36.47a.99.99 0 0 1-.58.13 18.8 18.8 0 0 1-5.91-1.1 5.12 5.12 0 0 1-3.07-2.86 18.52 18.52 0 0 1-1.46-5.42 41.71 41.71 0 0 1-.11-8.75c.11-1.12.35-2.42.73-3.9a6.55 6.55 0 0 1 4.72-4.94c2.19-.66 4.33-1 6.44-.98.23 0 .43.08.6.23.17.15.27.34.3.56v.01c.02.21-.03.4-.16.56a.7.7 0 0 1-.5.28l-.95.06a18.15 18.15 0 0 0-6.1 1.25c-.9.36-1.56.93-1.98 1.7a10.51 10.51 0 0 0-1.2 3.58c-.6 4.16-.55 8.14.15 11.94.29 1.52.86 2.92 1.73 4.18.17.25.52.5 1.06.79.57.3 1.34.54 2.31.72.57.11 1.42.23 2.56.36h.05c.26.04.44-.06.53-.27a70.98 70.98 0 0 0 3.94-11.92c.37-2.01.33-3.66-.1-4.95-.27-.79-.72-1.26-1.37-1.43-.6-.16-1.26-.03-1.98.38-1.3.74-2.04 2.18-2.25 4.32-.3 3.02.6 5.62 2.67 7.78.15.16.26.35.32.57.05.2.05.4 0 .57-.15.4-.5.5-1.06.3a3.6 3.6 0 0 1-1.44-1.25 9.3 9.3 0 0 1-1.05-1.74 12.48 12.48 0 0 1-1.18-5.34c0-2.04.5-3.77 1.5-5.2a5.11 5.11 0 0 1 2.14-1.76c.92-.41 1.84-.5 2.74-.29a3.5 3.5 0 0 1 2.39 2.11c.43.94.64 2.03.61 3.27-.02 1.4-.24 2.95-.66 4.65-.26 1.06-.7 2.55-1.33 4.46l.01.06c.02.02.04.02.06.02a7.48 7.48 0 0 0 4.48-3.81 6.95 6.95 0 0 0 .16-5.9c-.37-.84-.79-1.6-1.27-2.28-1.1-1.55-1.91-2.73-2.44-3.53a10.36 10.36 0 0 1-1.38-2.71 9.58 9.58 0 0 1 0-5.02.85.85 0 0 1 .36-.51.84.84 0 0 1 .6-.14Z" fill="#008039"/></svg>