<!-- by TradingView --><svg width="56" height="56" viewBox="0 0 56 56" xmlns="http://www.w3.org/2000/svg"><path fill="#181B1E" d="M0 0h56v56H0z"/><path d="M38.5 22.26V22h5v.26c-1.3.23-1.5 1.17-1.5 2.36v4.74c0 1.32.37 3.66 2.04 3.9.52.08.88.12 1.06.12 2.33 0 3.2-2.44 3.2-4.36v-4a3.6 3.6 0 0 0-.37-1.78 1.8 1.8 0 0 0-1.1-.9l-.33-.08V22H50v.26c-.5.19-.9.45-1.14.96-.16.37-.24.9-.24 1.6V29c0 3.28-1.61 5-4.3 5-3 0-4.07-2.59-4.07-5.24v-4.14c0-1.15-.48-2.12-1.75-2.36Zm9 .07c.18.1.35.25.49.45s.25.37.31.49c.08-.24.2-.49.37-.75l.16-.2H47.5Zm-7.84 0c.25.2.62.4.78.68.06.1.1.23.1.4v5.23c0 1.52.24 3.86 2.36 4.94l.98.14c.14 0 .26 0 .37.02l-.54-.15c-1.9-.72-2.38-2.55-2.38-4.43v-5.73c.02-.2.05-.34.09-.42.04-.09.15-.2.3-.33l.48-.35h-2.54ZM31.9 33.98H27v-.25c1.23-.17 1.7-1.17 1.7-2.32v-6.68c0-1.14-.45-2.16-1.7-2.32V22h5.43c1.85 0 3.68.9 3.85 2.89.13 1.5-.9 2.28-2.33 2.54l-.47.04.32.15c.47.24.87.57 1.22.97.92 1.03 1.53 2.34 2.23 3.51.32.48.62.85.9 1.1.26.26.55.45.85.58V34h-.23c-.07 0-.15 0-.24-.02a4.64 4.64 0 0 1-2.7-1.13c-1.5-1.3-2.14-4.1-3.1-4.95-.23-.18-.6-.27-1.11-.27h-1.34v3.78c0 1 .17 1.93 1.23 2.25l.38.07v.25Zm-1.62-6.7h1.37c1.82 0 2.73-.91 2.73-2.4 0-1.04-.48-2.28-1.67-2.45a7.2 7.2 0 0 0-.88-.1c-.54 0-.94.17-1.19.5-.24.32-.36.83-.36 1.53v2.92Zm3 .03.38-.1c1.01-.35 1.84-1.19 1.84-2.32 0-1.3-1-2.13-2.2-2.44a2.84 2.84 0 0 1 1.36 2.44c0 .98-.35 1.77-1.08 2.25l-.3.17Zm-.35.32c1.55 1.78 1.6 4.48 4 5.62.45.2.85.34 1.2.4l-.31-.18c-.32-.2-.6-.43-.82-.65-1.3-1.36-1.74-3.75-3.37-4.77a16.31 16.31 0 0 0-.7-.42Zm-4.76-5.14c.34.28.83.57.83 1.06V32.6a.8.8 0 0 1-.07.38c-.13.23-.44.4-.64.57h2.03l-.3-.24a1.95 1.95 0 0 1-.34-.33.8.8 0 0 1-.07-.38v-9.02c.05-.43.42-.93.84-1.09h-2.28ZM15 27.98c0-3 2.1-5.96 5.25-5.96l.3-.02c3.23 0 5.45 2.94 5.45 5.98 0 3.05-2.3 6.02-5.5 6.02-3.14 0-5.5-2.98-5.5-6.02Zm2 0c0 2.25.68 5.56 3.53 5.56 2.8 0 3.53-3.38 3.53-5.56 0-1.6-.27-2.93-.81-3.88-.64-1.13-1.45-1.78-2.76-1.78-2.85 0-3.49 3.46-3.49 5.66Zm1.19-5.1c-1.88.94-2.9 3.07-2.9 5.1a5.9 5.9 0 0 0 2.9 5.16c-1.33-1.04-2.04-2.72-2.04-5.16 0-1.96.56-3.8 2.04-5.1Zm4.2 10.26a6 6 0 0 0 2.81-5.16c0-1.11-.23-2.1-.7-3.01a4.8 4.8 0 0 0-1.83-2.05c.54.52.96 1.2 1.25 2.02.29.81.44 1.86.44 3.04 0 1.96-.45 3.81-1.97 5.16ZM11.2 34H6v-.27c1.3-.24 1.7-1.24 1.7-2.41v-6.64c0-1.19-.39-2.17-1.7-2.41V22h8.69l.31 3.27h-.25l-.17-.54c-.57-1.6-1.61-2.4-3.13-2.4h-.22c-1.29 0-1.87.65-1.87 1.92V27h.77c1.3 0 2.42-.6 2.63-2h.23v4.68h-.23c-.12-.7-.26-1.52-.83-2-.34-.27-1.05-.33-1.82-.33h-.75v3.97c0 1.18.36 2.16 1.6 2.4l.24.01V34ZM13 22.32l.23.13c.3.17.52.34.66.53l.4.5-.18-1.16h-1.12Zm-1.45 4.8a4.47 4.47 0 0 1 .85.56v-1.13c-.23.26-.52.43-.85.57Zm-4.41-4.79.43.37c.19.16.3.28.36.37.05.07.07.2.07.38V32.1c0 .42-.01.68-.04.78-.03.1-.16.23-.4.42l-.29.25H9.4l-.32-.25c-.17-.16-.29-.27-.34-.35a.85.85 0 0 1-.07-.4V23.45c0-.18.02-.3.07-.38.05-.1.17-.21.34-.37l.46-.37h-2.4Z" fill="#E91C2E"/></svg>