<!-- by TradingView --><svg width="56" height="56" viewBox="0 0 56 56" xmlns="http://www.w3.org/2000/svg"><path fill="#F0F3FA" d="M0 0h56v56H0z"/><path d="M19.23 42.79a8.3 8.3 0 0 1-3.88-2.83c.51-2.62 2.08-4.77 5.73-8.9 4.99-5.64 12.2-5.73 15.57-5.06l-3.92 4.02c-7.26-.07-12.02 8.48-13.5 12.77Z" fill="url(#a)"/><path d="M45 28a17 17 0 0 1-20.24 16.7c-1-.4-2-1.16-2-2.47 0-.42.05-.83.13-1.2l.02.02c.7-2.3 3.35-7.5 8.17-8.94 3.87-1.2 5.42-1.3 6.95-.54l-3.1 3.4c-2.29.56-6.93 2.39-6.93 4.95 0 .83 1.1 1.77 4.04 1.49A14 14 0 1 0 14 28.42C16.84 24.71 23.65 18 31 18c.83 0 1.66.1 2.48.3L29.13 23c-1.79-.15-7.42 2.28-14.09 10.64l-.01-.01a14.5 14.5 0 0 0-1.76 2.87A17 17 0 1 1 45 28Z" fill="url(#b)"/><defs><linearGradient id="a" x1="36.63" y1="26.56" x2="16.69" y2="40.82" gradientUnits="userSpaceOnUse"><stop stop-color="#FD2D3F"/><stop offset=".58" stop-color="#F77F69"/><stop offset="1" stop-color="#FC3442"/></linearGradient><linearGradient id="b" x1="17" y1="15.83" x2="37.59" y2="40.82" gradientUnits="userSpaceOnUse"><stop stop-color="#0176A8"/><stop offset=".32" stop-color="#0189C4"/><stop offset=".85" stop-color="#015C83"/></linearGradient></defs></svg>