<!-- by TradingView --><svg width="56" height="56" viewBox="0 0 56 56" xmlns="http://www.w3.org/2000/svg"><path fill="#F0F3FA" d="M0 0h56v56H0z"/><path fill-rule="evenodd" d="M31.99 24.9c-1.69-1.86-5.31-5.93-6.3-7.27-1.23-1.67-4.1-4.63-6.3-4.63-2.18 0-8.84 3.84-9.89 6.49-.36.83-.5 2.82-.5 4.12 0 1.3.68 5.05 3.6 10.28 2.92 5.24 5.02 8.11 9.44 8.11 4.43 0 6.94-1.53 8.08-2.73 1.02-.37 3.33-1.12 4.42-1.12.52 0 1.44.05 2.58.11 1.87.1 4.33.22 6.59.22 3.65 0 5.29-1.25 5.29-3.1 0-6.07-6.43-14.25-11.72-14.25-2.2 0-3.35.95-3.65 1.27-.18.7-.77 2.17-1.64 2.5Zm6.38 3.57a7.74 7.74 0 0 1-3.74-1.25c-.57-.38-.92-.68-1.19-.91-.56-.5-.76-.66-1.9-.66h-4.98c-.89 0-2.23-.2-3.64-.41-1.55-.23-3.2-.47-4.39-.47-2.28 0-4.7 2.31-4.7 7.83 0 2.91 4.25 5 6.3 5.88 2.05.88 5.52 1.94 6.89 1.94 1.36 0 4.28-1.66 5.2-4.26.9-2.6 2.5-5.56 6.15-7.69Z" fill="url(#a)"/><path d="M33.12 26.04c-.37-.29-.68-.4-1.59-.4H27.8c1.53-.16 2.13-1.75 2.71-1.98.44.25 2.91 2.14 3.68 2.36.76.22 1.6.55 1.91.7-.6-.2-1.91-.59-2.97-.68Z" fill="#847CB0"/><path d="m31.17 38.9.27-.19c.73-.46 1.78-3.52 2-4.35.11-.4.27-1.02.4-1.6a16.02 16.02 0 0 0-1.62 3.4 7.21 7.21 0 0 1-4.48 4.15c-.48.21-1.09.46-1.86.76-1.72.68-4.06.77-5.9.68.63.17 1.31.25 2.06.25 4.43 0 6.94-1.53 8.08-2.73.27-.1.64-.23 1.05-.36Z" fill="#A9CD64"/><path d="M9.07 21.9c-.05.6-.07 1.21-.07 1.7 0 1.16.54 4.26 2.71 8.6a20.77 20.77 0 0 0 3.67 3.4c-.9-.85-1.53-1.85-1.55-2.97-.32-.41-.67-.8-1-1.15-.93-.94-2.7-6.17-3.76-9.57Z" fill="#6A44E5"/><path d="M13 27h4v1.5h-2.5V30H17v1.5h-2.5V33H13v-6ZM29.75 27H28v1h1.75v5h1.5v-5H33v-1h-3.25ZM36 27h2.94c1.14 0 2.06.9 2.06 2a2 2 0 0 1-1.43 1.9c.57.68.92 1.17 1.43 2.1h-1.6l-1.43-2h-.47v2H36v-6Zm1.5 3h1.13c.48 0 .87-.45.87-1s-.4-1-.88-1H37.5v2ZM21.5 27H20v4.16c0 1.42 1.12 1.84 2.5 1.84s2.5-.42 2.5-1.84V27h-1.5v3.53c0 1.12-.4 1.21-1 1.21s-1-.09-1-1.2V27Z"/><defs><linearGradient id="a" x1="15.34" y1="15.32" x2="28.29" y2="40.68" gradientUnits="userSpaceOnUse"><stop stop-color="#D8CBFD"/><stop offset="1" stop-color="#C1E181"/></linearGradient></defs></svg>