<!-- by TradingView --><svg width="56" height="56" viewBox="0 0 56 56" xmlns="http://www.w3.org/2000/svg"><path fill="#F0F3FA" d="M0 0h56v56H0z"/><path d="M12 23H8l1.17 7h3.64l3.52-4.58L17 30h3.47L26 23.58V23h-2.46l.22.74-3.3 4.26-.5-5h-3.85L12 28v-5ZM36 23v1h-4.8c-.36 0-.49.14-.5.21a66.08 66.08 0 0 0-1.66 4.47c0 .17.14.28.22.32h5.69l-.94 1h-7.4c-1.17 0-1.6-.74-1.6-1.11 0-.37-.06-.75.65-2.6.98-2.38 2.33-3.18 2.88-3.29H36Z" fill="#1E209B"/><path d="M48 20H18.25L17 22h23.37L38 30h4.33l2.37-8H48v-2Z" fill="#1E209B"/><path fill="#BADA60" d="M8 31h40v1H8zM8 33h40v1H8zM8 35h40v1H8z"/></svg>