<!-- by TradingView --><svg width="56" height="56" viewBox="0 0 56 56" xmlns="http://www.w3.org/2000/svg"><path fill="#F0F3FA" d="M0 0h56v56H0z"/><path fill="#492E25" d="M18 26h4v4h-4zM37 26h4v4h-4z"/><path d="m43 34.25.5-2.47c.68.39 1.76.75 2.83.75 1.27 0 1.67-.6 1.67-1.5 0-.89-.35-1.37-1.71-2-2-.9-3.29-2.2-3.29-3.96 0-2.29 1.81-4.07 4.67-4.07a6 6 0 0 1 2.84.63l-.56 2.4a4.86 4.86 0 0 0-2.31-.58c-1.18 0-1.64.65-1.64 1.33 0 .87.5 1.26 2.05 1.99 2.05.97 2.95 2.26 2.95 4.02 0 2.35-1.63 4.21-4.78 4.21-1.31 0-2.6-.36-3.22-.75ZM16 27v7.3c-.86.31-2.51.7-4.07.7-4.12 0-6.97-2.66-6.93-6.86.02-4.7 3.23-7.14 7.26-7.14 1.55 0 2.76.3 3.35.59l-.6 2.44c-.65-.3-1.44-.5-2.71-.5-2.35 0-4.3 1.3-4.3 4.47 0 2.97 1.76 4.56 3.93 4.56.55 0 .87-.06 1.07-.16V29h-2v-2h5ZM35 27v7.3c-.86.31-2.51.7-4.07.7-4.12 0-6.97-2.66-6.93-6.86.02-4.7 3.23-7.14 7.26-7.14 1.55 0 2.76.3 3.35.59l-.6 2.44c-.65-.3-1.44-.5-2.71-.5-2.35 0-4.3 1.3-4.3 4.47 0 2.97 1.76 4.56 3.93 4.56.55 0 .87-.06 1.07-.16V29h-2v-2h5Z" fill="#1C55A5"/></svg>