<!-- by TradingView --><svg width="56" height="56" viewBox="0 0 56 56" xmlns="http://www.w3.org/2000/svg"><path fill="#F0F3FA" d="M0 0h56v56H0z"/><path d="M15 23v10H4v-9.86c.02-.07.04-.12.08-.14H15Z" fill="#FFD300"/><path d="M52 23v10H15V23h37Z" fill="#C9C9CB"/><path d="M6.8 24H5.51c-.1 0-.2.1-.2.21v1.8c0 .12.1.21.2.21h1.3c.1 0 .2-.1.2-.21L7 24.2c0-.12-.09-.21-.2-.21ZM14.27 28c0 1.44-.33 2.77-1.13 3.9a.26.26 0 0 1-.1.07.24.24 0 0 1-.1.03h-1.16c-.02 0-.03 0-.04-.02a.09.09 0 0 1-.04-.03.1.1 0 0 1 0-.1c.56-1.17.84-2.45.84-3.85a8.84 8.84 0 0 0-.85-3.9c0-.02 0-.04.02-.05a.1.1 0 0 1 .03-.04l.04-.01h1.16c.04 0 .08.01.11.03.04.02.07.04.1.08A6.52 6.52 0 0 1 14.26 28ZM17.2 25h-1.14a.06.06 0 0 0-.06.07v5.87c0 .03.03.06.06.06h1.13c.04 0 .07-.03.07-.06v-5.87a.06.06 0 0 0-.07-.07ZM19 28.47v2.44a.1.1 0 0 1-.02.06.1.1 0 0 1-.07.03h-.83c-.02 0-.04 0-.06-.02a.09.09 0 0 1-.02-.07v-5.79a.12.12 0 0 1 .07-.1l.05-.02h.8c.03 0 .07.02.1.04a.2.2 0 0 1 .07.1 12.45 12.45 0 0 1 .56 2.3h.03l.03-.03c.03-.07.05-.82.05-2.27 0-.03.02-.07.05-.1a.13.13 0 0 1 .1-.04h.76c.04 0 .07.02.1.05.03.03.04.06.04.1v5.73l-.03.09a.12.12 0 0 1-.09.03h-.86a.14.14 0 0 1-.09-.03.15.15 0 0 1-.05-.08l-.63-2.43-.01-.01a.03.03 0 0 0-.04 0v.02ZM22.38 31a14 14 0 0 1-.48 0 .14.14 0 0 1-.1-.05.15.15 0 0 1-.04-.1v-4.44a.13.13 0 0 0-.13-.12h-.48a.14.14 0 0 1-.1-.04.15.15 0 0 1-.03-.1v-1a.14.14 0 0 1 .14-.14 55.99 55.99 0 0 1 2.43 0 .14.14 0 0 1 .14.14v1c0 .03-.01.07-.04.1a.14.14 0 0 1-.1.04h-.48a.12.12 0 0 0-.08.03.13.13 0 0 0-.03.04v4.49c0 .04-.02.07-.05.1a.14.14 0 0 1-.1.05h-.47ZM25.29 29.71h.6a.1.1 0 0 1 .05.01.1.1 0 0 1 .03.02l.02.04.01.04v1.07c0 .03-.01.06-.03.08a.1.1 0 0 1-.07.03h-1.8a.1.1 0 0 1-.07-.03.12.12 0 0 1-.03-.08v-5.78c0-.03.01-.05.03-.08a.1.1 0 0 1 .07-.03h1.74a.1.1 0 0 1 .07.03c.02.03.03.05.03.08v1.06c0 .03-.01.06-.03.08a.1.1 0 0 1-.07.03h-.55a.1.1 0 0 0-.07.04.12.12 0 0 0-.03.08v.85c0 .03 0 .05.03.07a.1.1 0 0 0 .07.04h.5a.1.1 0 0 1 .06.03c.02.02.03.05.03.08v.85c0 .03 0 .06-.03.08a.1.1 0 0 1-.07.03h-.5a.1.1 0 0 0-.07.03.12.12 0 0 0-.03.08v1.06c0 .03.02.06.03.08a.1.1 0 0 0 .08.03ZM28.66 27.94c.58.12.52.76.5 1.3v1.67a.1.1 0 0 1-.02.06.1.1 0 0 1-.06.03h-1c-.02 0-.05 0-.06-.02a.09.09 0 0 1-.02-.06V28.4a.16.16 0 0 0-.05-.11.16.16 0 0 0-.11-.05h-.1c-.01 0-.04.01-.05.03a.09.09 0 0 0-.03.06v2.6c0 .02 0 .04-.02.05a.07.07 0 0 1-.05.02h-1.15c-.02 0-.03 0-.05-.02a.07.07 0 0 1-.01-.04v-5.82c0-.03 0-.06.03-.08a.11.11 0 0 1 .08-.03c.56-.02 1.1-.02 1.57 0 1.2.06 1.13 1.21 1.11 2.1 0 .32-.18.56-.53.72a.06.06 0 0 0-.02.1l.04.01ZM30.79 28.46a.03.03 0 0 0-.03-.02l-.02.01v2.45a.1.1 0 0 1-.03.07.1.1 0 0 1-.07.03h-.87a.08.08 0 0 1-.06-.03.09.09 0 0 1-.02-.06v-5.79a.12.12 0 0 1 .11-.12h.8c.04 0 .08.01.1.04a.2.2 0 0 1 .08.1 12.42 12.42 0 0 1 .55 2.3h.04l.02-.03c.04-.07.05-.83.06-2.27 0-.04.01-.07.04-.1a.13.13 0 0 1 .1-.04h.76c.04 0 .07.02.1.05.03.02.04.06.04.1v5.73a.12.12 0 0 1-.07.1l-.04.02h-.86a.14.14 0 0 1-.09-.03.15.15 0 0 1-.05-.08l-.6-2.43ZM34.3 28.43a.1.1 0 0 0-.08.04.13.13 0 0 0-.03.08v1.03a.15.15 0 0 0 .03.1l.04.03H34.9l.05.04.03.06.01.06.01.94a.2.2 0 0 1-.05.13.17.17 0 0 1-.05.05.16.16 0 0 1-.07.01h-1.71a.11.11 0 0 1-.08-.04.14.14 0 0 1-.04-.1v-5.58a.3.3 0 0 1 .07-.2.25.25 0 0 1 .09-.06.23.23 0 0 1 .1-.02h1.45l.09.03c.03 0 .06.03.08.05l.05.1c.01.03.02.06.01.1l-.02.87c0 .03-.01.07-.04.1a.13.13 0 0 1-.09.04h-.47a.13.13 0 0 0-.1.04.15.15 0 0 0-.03.1l-.01.78a.17.17 0 0 0 .04.1c0 .02.02.03.04.04l.05.01h.43l.05.01c.02 0 .04.02.05.04l.03.05.01.06v.76c0 .04-.01.08-.04.1a.13.13 0 0 1-.1.05h-.44ZM36.63 25h1.22c.04 0 .07.02.1.05.03.03.04.06.04.1v.99c0 .04-.01.07-.04.1a.14.14 0 0 1-.1.04h-.48a.12.12 0 0 0-.12.13v4.44c0 .04-.02.07-.04.1a.14.14 0 0 1-.1.05 14.1 14.1 0 0 1-.96 0 .14.14 0 0 1-.1-.05c-.02-.03-.05-.06-.05-.1v-4.49a.12.12 0 0 0-.11-.08h-.49a.14.14 0 0 1-.1-.04.15.15 0 0 1-.04-.1v-.99c0-.04.02-.07.04-.1a.14.14 0 0 1 .1-.04l1.23-.01ZM41.22 30.68c-.84.86-1.87-.17-1.88-1.12a58.85 58.85 0 0 1 0-3.25c.1-1.5 2.18-1.77 2.7-.5.17.38.23.87.18 1.45a.1.1 0 0 1-.03.06.1.1 0 0 1-.07.03h-1.06a.1.1 0 0 1-.1-.1V26.2a.13.13 0 0 0-.08-.12h-.13a.21.21 0 0 0-.17.21 77.42 77.42 0 0 0-.01 3.24c0 .1.02.2.05.27a.18.18 0 0 0 .18.1.18.18 0 0 0 .16-.13c.05-.22.07-.47.04-.77a.23.23 0 0 0-.16-.2.06.06 0 0 1-.03-.03.07.07 0 0 1-.01-.03v-.6a.15.15 0 0 1 .04-.11.14.14 0 0 1 .1-.04h1.14c.04 0 .08.01.1.04.04.03.05.07.05.12v2.69a.13.13 0 0 1-.13.12h-.6a.12.12 0 0 1-.1-.13.6.6 0 0 0 0-.09.1.1 0 0 0-.07-.09.1.1 0 0 0-.1.03ZM47.36 29.71h.57l.06.03.02.05v1.13c0 .02 0 .04-.02.06a.07.07 0 0 1-.06.02h-1.85a.07.07 0 0 1-.06-.02.08.08 0 0 1-.02-.06v-5.87a.08.08 0 0 1 .05-.04l.03-.01h1.13c.02 0 .04 0 .05.02l.03.06v4.56c0 .02 0 .04.02.05.01.02.03.02.05.02Z"/><path d="M27.93 26.14h-.04c-.08 0-.15.07-.15.16l-.01.97c0 .09.07.16.15.16h.04c.08 0 .14-.07.15-.16v-.97c0-.09-.06-.16-.14-.16Z" fill="#C9C9CB"/><path d="M44.2 25c.36 0 .7.15.96.41.26.27.4.62.4 1v3.2c0 .36-.14.72-.4.98-.25.26-.6.41-.96.41h-.15c-.36 0-.71-.15-.97-.4-.25-.27-.4-.63-.4-1v-3.2c0-.37.15-.72.4-.99.26-.26.6-.4.97-.4h.15Zm-.09 1.08c-.1 0-.18.08-.18.19v3.46c0 .1.07.2.18.2.1 0 .19-.1.19-.2v-3.46c0-.1-.08-.2-.18-.2ZM49.88 25c.3 0 .58.12.78.34.21.22.34.51.34.82v3.68a1.22 1.22 0 0 1-.33.82 1.1 1.1 0 0 1-.78.34h-1.55c-.02 0-.03 0-.04-.02a.07.07 0 0 1-.02-.04l-.01-5.87c0-.02 0-.04.02-.05a.06.06 0 0 1 .04-.02h1.55Zm-.37 1.05c-.01 0-.03 0-.03.02l-.02.03v3.78l.04.01h.03a.2.2 0 0 0 .1-.03.3.3 0 0 0 .1-.08.45.45 0 0 0 .06-.14l.02-.15v-3.03c0-.1-.02-.21-.08-.29-.05-.07-.12-.12-.2-.12h-.02ZM10.9 27H8.1c-.06 0-.1.05-.1.12v1.76c0 .07.04.12.1.12h2.8c.06 0 .1-.05.1-.11v-1.77c0-.06-.04-.12-.1-.12ZM6.87 29.77h-1.4c-.08 0-.14.07-.14.15v1.93c0 .08.06.14.14.14h1.4c.07 0 .13-.06.13-.14v-1.93c0-.08-.06-.15-.13-.15Z"/></svg>