<!-- by TradingView --><svg width="56" height="56" viewBox="0 0 56 56" fill="none" xmlns="http://www.w3.org/2000/svg">
<rect width="56" height="56" fill="#EC1D25"/>
<path fill-rule="evenodd" clip-rule="evenodd" d="M13.945 36C16.2063 36 18.247 35.0488 19.6938 33.522L21.1203 36H25.5739L20.5154 27H14.9688C13.9059 27 13 27.9541 13 29.0242C13 30.0944 13.9059 31 14.9688 31H16.8574C16.0872 31.7861 15.2795 32 14.0962 32C11.9639 32 10 30.3205 10 27.9585C10 25.7508 11.5101 24.228 13.6426 24H18.723L16.2151 20H13.945H13.6426V20.0057C9.51718 20 6 23.6837 6 28C6 32.4183 9.55713 36 13.945 36ZM28.0339 20H19.7017L22.0716 24H28.0388C29.1504 24 30 24.3815 30 25.4608C30 26.54 29.3304 27 28.2188 27H24.0403L29.3276 36H34L30.5617 30.25C30.5617 30.25 34 29.8125 34 25.4608C34 22.4791 31.69 20 28.0339 20ZM43.3053 20H36V36H40V31H42.6726C46.4115 31 49.0001 28.5223 49 25.5C48.9999 22.4624 46.4504 20 43.3053 20ZM39.9998 24V27H42.9216C44.1248 27 44.9998 26.8594 44.9998 25.5242C44.9998 24.189 44.0325 24 43.1248 24H39.9998Z" fill="white"/>
</svg>
