<!-- by TradingView --><svg width="56" height="56" viewBox="0 0 56 56" xmlns="http://www.w3.org/2000/svg"><path fill="#F0F3FA" d="M0 0h56v56H0z"/><path fill="url(#a)" d="M10 16h36v24H10z"/><path d="m17.4 26.43-.03.34-.02.01h-.31v-.01l-.16-.85c0-.01 0-.03-.02-.03-.34-.34-.74-.51-1.2-.51l-.35.01c-.56.03-1.14.32-1.46.84a2.95 2.95 0 0 0-.44 1.56v.52c.04.54.2 1.04.5 1.5a1.87 1.87 0 0 0 2.34.58v-.02l-.04-1.2v-.9c0-.07-.03-.13-.1-.15a294.65 294.65 0 0 0-.61-.17v-.19h.01l1.14-.01h1.47V27.97l-.5.13c-.07.02-.13.05-.13.14v.9a932.84 932.84 0 0 1 .04 1.46 11.65 11.65 0 0 1-2.23.4 4.07 4.07 0 0 1-2.3-.75c-.41-.3-.7-.72-.88-1.25-.08-.24-.11-.5-.12-.75v-.25a2.84 2.84 0 0 1 1.04-2.25 3.98 3.98 0 0 1 2.46-.73 11.98 11.98 0 0 1 2.02.33l-.12 1.09ZM23.42 25a41.33 41.33 0 0 0 2.15.02l.02.2c-.3.1-.47.14-.48.14-.08.03-.1.07-.1.16L25 26v1.6H27.8v-2.1c0-.09-.06-.12-.13-.14a148.42 148.42 0 0 0-.45-.15l-.02-.2h.02a44.63 44.63 0 0 0 2.43 0l.02.2v.01l-.54.17c-.1.02-.12.09-.12.19v4.36l.01.55c0 .09.06.12.13.14l.43.13.07.02.01.01.01.2h-.02a59.23 59.23 0 0 0-2.43 0l-.01-.17v-.04l.44-.14c.09-.02.14-.05.14-.15l.01-.4a492.52 492.52 0 0 0 0-2.03H25v2.41c0 .1.05.14.14.17a64.84 64.84 0 0 1 .44.15l.01.2a61.54 61.54 0 0 0-2.45 0l-.01-.2v-.01l.45-.13c.12-.04.2-.04.2-.2v-1.13a1939.68 1939.68 0 0 0 0-3.79c0-.07-.03-.12-.1-.14l-.5-.16h-.03l-.01-.01v-.01l-.02-.2.01-.01h.29ZM43.3 26.78v4.17h-.01l-.4.04-.09.01h-.02a4486.58 4486.58 0 0 1-3.76-4.63l-.02.43v3.38c0 .12 0 .42.13.46a137.02 137.02 0 0 0 .57.16l.01.2h-1.94l-.02-.2.58-.16c.08-.02.12-.07.12-.15v-.7a791.61 791.61 0 0 0 0-4.26c0-.1-.05-.13-.14-.15a152.8 152.8 0 0 0-.55-.17l-.01-.2V25a23 23 0 0 0 1.75.01l3.23 3.96V25.55c-.01-.09-.03-.15-.12-.17a109.65 109.65 0 0 1-.56-.16l-.01-.2V25a27.55 27.55 0 0 0 1.95.01l.01.2v.01c-.13.04-.32.1-.58.16-.1.03-.1.08-.11.18-.02.4-.02.81-.02 1.22ZM21.28 25.83a2043.64 2043.64 0 0 0 0 4.61c0 .1.03.15.1.18a56.57 56.57 0 0 0 .57.17l.02.2-.01.01a58.88 58.88 0 0 0-2.63-.01l-.01-.2v-.01l.57-.16c.07-.02.1-.06.1-.13l.01-.62c0-1.44.02-2.89 0-4.33 0-.08-.04-.14-.11-.16a36.89 36.89 0 0 0-.56-.17l-.02-.2.01-.01a60.26 60.26 0 0 0 2.63.01l.01.2v.01l-.57.16c-.08.02-.1.07-.1.17l-.01.28ZM34.8 25.2a4.02 4.02 0 0 0-2.48-.02 2.7 2.7 0 0 0-1.75 2.07c-.07.43-.08.87-.03 1.32.06.54.24 1.03.56 1.45.3.39.69.66 1.15.8.58.2 1.23.22 1.83.12.58-.1 1.11-.35 1.53-.8.7-.73.9-1.76.78-2.77a2.51 2.51 0 0 0-1.59-2.16Zm-1.7.21c.26-.04.53-.03.8.04.3.09.54.26.72.51.25.35.38.82.43 1.26.05.41.06.84.03 1.26-.02.49-.1 1.06-.36 1.48-.24.4-.6.62-1.1.65-.25.01-.51-.02-.74-.13-.68-.3-.93-1.12-1-1.84a7.1 7.1 0 0 1-.01-1.4c.04-.43.13-.88.35-1.24.2-.33.5-.52.88-.59Z" fill="#050708"/><defs><linearGradient id="a" x1="10" y1="16.54" x2="46.01" y2="39.99" gradientUnits="userSpaceOnUse"><stop stop-color="#32C6F4"/><stop offset=".51" stop-color="#0674B8"/><stop offset="1" stop-color="#156279"/></linearGradient></defs></svg>