<!-- by TradingView --><svg width="56" height="56" viewBox="0 0 56 56" xmlns="http://www.w3.org/2000/svg"><path fill="#F0F3FA" d="M0 0h56v56H0z"/><path d="M30 32V21h4.93c.05 0 .07.01.07.06v1.88c0 .04-.02.06-.06.06h-1.88c-.04 0-.06.02-.06.05v2.01c0 .16.03.3.1.45.76 1.42 2.4 2.57 4.07 2.04.64-.2 1.14-.57 1.63-1.01A7.63 7.63 0 0 0 41 21.3c.03-1.56-.25-3.04-.83-4.44a4.5 4.5 0 0 0-1.82-2.27c-.6-.32-2.7 1.05-3.57 1.32-.21.07-.43.1-.64.09h-5.1l-.02.02-.02.03v24.63c0 1.08.61 2 1.24 2.77.66.8 1.34 1.17 2.38.87.16-.05.33-.14.5-.28.14-.1.42-.09.51.11.2.44-.2.85-.5 1.1-.93.73-1.95.93-3.06.6-1.73-.54-2.58-2.49-2.96-4.15-.07-.32-.1-.8-.1-1.47L27 16.07l-.02-.05-.05-.02h-5c-.3 0-.57-.03-.8-.1-.56-.15-2.65-1.45-2.88-1.44-1.02.04-1.92 1.34-2.3 2.2-.59 1.3-.9 2.7-.94 4.22-.06 2.42.98 5.12 3.11 6.38 1.88 1.1 3.89.03 4.78-1.76.07-.13.1-.27.1-.42v-2.04c0-.03-.01-.04-.04-.04h-1.91c-.01 0-.03 0-.03-.02l-.02-.03v-1.94l.02-.01H26v11l-2.86-4.5a.08.08 0 0 0-.03-.02.07.07 0 0 0-.09 0 4.3 4.3 0 0 1-3.73 1.64c-2.22-.12-3.96-1.51-4.98-3.47a11.21 11.21 0 0 1-.24-10.03c.66-1.34 1.97-2.56 3.51-2.6.6-.02 1.44.77 1.98.88.44.1.87.13 1.32.12l.62-.02h13.39l.93-.03c.56-.03 1.19-.66 1.72-.82.54-.18 1-.2 1.5-.07 2.33.55 3.47 3.19 3.8 5.34a11.3 11.3 0 0 1-1.47 7.76 5.86 5.86 0 0 1-4.84 2.93 4.82 4.82 0 0 1-3.6-1.67h-.01l-.01.02L30 31.99Z" fill="#16468F"/></svg>