<!-- by TradingView --><svg width="56" height="56" viewBox="0 0 56 56" xmlns="http://www.w3.org/2000/svg"><path fill="#19272D" d="M0 0h56v56H0z"/><path d="M29.86 14.64a.67.67 0 0 0 0 .3l-.01.08a.13.13 0 0 1-.05.05c-.44.25-.94.39-1.5.4 0-.72-.28-1.19-.86-1.4a.1.1 0 0 0-.04-.02h-1.18a.88.88 0 0 0-.26.04c-.9.27-1.68.72-2.36 1.35.18-.51.37-.9.57-1.18a8.37 8.37 0 0 1 2.18-1.9 2.63 2.63 0 0 1 1.8-.32c.3.05.58.28.81.7.03.05.05.11.05.17 0 .49.12.97.35 1.46.08.17.25.27.5.27Z" fill="#70B452"/><path d="M39.7 16.42c-.17.24-.28.57-.32.99 0 .09-.03.18-.07.26-.4.8-.97 1.47-1.72 2-.32.22-1.03.64-2.13 1.25l-1.76.9c-.64.24-1.37.27-2.2.1.83-.32.98-.89 1.37-1.81.43-1.01.71-2.2.2-3.2-.3-.6-.85-.63-1.48-.7l.17-1.03a.23.23 0 0 0-.04-.18c-.16-.2-.41-.38-.75-.54.98-.63 2-1.12 3.03-1.46a.96.96 0 0 1 .27-.04c.66-.02 1.35-.07 2 .1a4.54 4.54 0 0 1 3.42 3.36Z" fill="#F28369"/><path d="m28.3 15.46-1.62 2.61a17.45 17.45 0 0 0-1.92 4.2c-.14.45-.19.98-.15 1.6a5.5 5.5 0 0 1-1.57-2.66.39.39 0 0 0-.17-.23l-.12-.08a7.9 7.9 0 0 0-.1-.68c-.18-.9-.15-1.81.02-2.71.02-.12.1-.32.23-.6.1-.21.16-.42.19-.63l.51-.84a5.98 5.98 0 0 1 2.36-1.35.88.88 0 0 1 .26-.03h1.18a.1.1 0 0 1 .04 0c.58.22.86.69.86 1.4Z" fill="#E95B39"/><path d="M30.96 14.46c.35.16.6.34.76.54a.22.22 0 0 1 .04.18l-.17 1.03-.49.74a6.4 6.4 0 0 0 .24-1.58c.01-.41-.2-.63-.53-.82l.16-.09Z" fill="#DFE5AD"/><path d="M30.8 14.55c.34.19.55.4.54.82a6.4 6.4 0 0 1-.24 1.58c-.48.86-1.06 1.7-1.74 2.5a24.1 24.1 0 0 1-1.7 1.84c-.27.1-.48.45-.61 1.04 0-.14-.03-.2-.1-.18-.13.02-.28.14-.47.36a.32.32 0 0 1-.15.1c-.22.07-.34.21-.35.42l-.82.56a.2.2 0 0 0-.1.17c0 .36.23.56.37.88.1.21.19.3.29.24l-.2.25c-.17.08-.29.02-.35-.17a2.63 2.63 0 0 0-.56-1.1c-.04-.61.01-1.14.15-1.58.45-1.49 1.1-2.89 1.92-4.2l1.62-2.62c.56 0 1.06-.13 1.5-.39a.13.13 0 0 0 .06-.13.67.67 0 0 1 0-.3c.05.02.1.04.16.04.1.02.16.02.19-.01l.6-.12Z" fill="#FAC934"/><path d="M23.09 16.28c-.03.2-.1.42-.2.62-.13.29-.2.5-.22.6-.17.9-.2 1.81-.02 2.72.04.22.08.45.1.68-.13-.07-.3-.2-.53-.39-.16-.14-.27-.11-.33.08-.08-.4-.18-.7-.31-.93-.61-1.05-1.51-1.82-2.89-1.61-.34.05-.57.15-.68.3-.32.4-.66.79-1.03 1.13.05-.37.2-.73.44-1.06a5.81 5.81 0 0 1 4.07-2.39c.26-.03.67.09 1.21.36a.2.2 0 0 0 .17 0l.22-.1Z" fill="#F28369"/><path d="M31.59 16.21c.63.07 1.19.1 1.49.7.5 1 .22 2.19-.2 3.2-.4.92-.55 1.49-1.37 1.81a4.4 4.4 0 0 0-1.84.38c-.53.27-.96.46-1.27.55a.64.64 0 0 0-.23.14c-.26.22-.55.39-.9.5a.14.14 0 0 0-.08.07l-.02.05a.24.24 0 0 1-.06.08l-1.39 1.2c-.1.04-.2-.04-.29-.25-.14-.32-.37-.52-.36-.88a.21.21 0 0 1 .09-.17l.82-.56c.12.48.28.7.5.67a.4.4 0 0 0 .4-.05c.18-.12.35-.27.5-.45.16-.2.15-.44-.04-.73l.33-1.18c.58-.57 1.15-1.18 1.7-1.84.67-.8 1.25-1.64 1.73-2.5l.49-.74Z" fill="#63A17F"/><path d="m39.93 20.01-.05-.41a.09.09 0 0 0-.17-.02l-.09.29a.18.18 0 0 1-.16.12c-1.38.08-2.72.38-4 .93a29.7 29.7 0 0 0 2.13-1.26 5.25 5.25 0 0 0 1.72-2 .75.75 0 0 0 .07-.25c.04-.42.15-.75.31-1 .51.79.66 1.54.46 2.27-.16.57-.23 1.01-.22 1.33Z" fill="#6E685C"/><path d="M39.11 19.9h-.93a.13.13 0 0 1-.08-.22c1-.88 1.49-1.59 1.48-2.1a.11.11 0 0 1 .2-.08l.14.18c.03.04.05.09.05.14.03.68-.13 1.3-.48 1.87a.44.44 0 0 1-.38.21Z" fill="#020303"/><path d="M21.9 20.6c.85 1.38 1.4 2.85 1.6 4.4-2.1-.95-4.19-1.8-6.25-2.52a.37.37 0 0 0-.2-.01.87.87 0 0 1-.51-.03l.17-.25a.38.38 0 0 0 .02-.14l.25-2.57a9.6 9.6 0 0 0 1.03-1.14c.11-.14.34-.24.68-.3 1.38-.2 2.28.57 2.89 1.62.13.22.23.54.31.93Z" fill="#FAC934"/><path d="M39.93 20.01a5 5 0 0 1 2.97 2.13c.03.04.04.09.04.14l.02 1.93a6.37 6.37 0 0 1-3.17 3.16.16.16 0 0 1-.21-.07c-.26-.54-.5-.86-1-1.34-.21-.2-.4-.4-.58-.62a5.4 5.4 0 0 0-4.08-3.18.3.3 0 0 1-.12-.05c-.14-.09-.17-.18-.1-.28l1.76-.91c1.28-.55 2.62-.85 4-.93a.18.18 0 0 0 .16-.12l.1-.3a.09.09 0 0 1 .14-.03l.02.06.05.41Z" fill="#70B452"/><path d="m22.75 20.9.12.08c.08.05.14.13.17.23a5.5 5.5 0 0 0 1.57 2.65c.2.18.38.55.56 1.1.06.19.18.25.35.17l-.05.61c-.1 0-.2-.02-.3-.06l-.93-.1a.05.05 0 0 0-.06.06l.02.02c.3.2.63.32.96.35 0 .24 0 .49-.03.75-.07.71.08 1.4.05 2.1 0 .1 0 .2.03.29l.27 1.03-.55-1.26a.09.09 0 0 0-.1-.05l-.03.01-.65.47a.65.65 0 0 0-.18.19l-.6.93.3-2.13c.23-.11.3-.44.2-.99a.14.14 0 0 0-.1-.1c-.01-.01-.06 0-.13.05-.12-.34-.17-.7-.15-1.12 0-.08-.01-.14-.05-.17a.35.35 0 0 0-.16-.1c-.16-.12-.42-.15-.78-.1l1-.8a11.25 11.25 0 0 0-1.6-4.42c.05-.19.16-.22.32-.08.23.19.4.32.53.4Z" fill="#6E685C"/><path d="m27.67 21.3-.33 1.17a.6.6 0 0 1-.24-.14c-.03-.07-.05-.07-.05 0 .13-.59.34-.94.62-1.04Z" fill="#DFE5AD"/><path d="M33.7 21.83c-.07.1-.04.2.1.28a.3.3 0 0 0 .12.05A5.4 5.4 0 0 1 38 25.34c-.22.04-.29.16-.2.35.16.32.21.6.17.83-.16.87-.6 1.5-1.31 1.88a2.2 2.2 0 0 1-1.34.37c-.98 0-1.8-.07-2.46-.2-.45-.23-.96-.47-1.54-.7a82.93 82.93 0 0 0-5.85-2.13l.05-.6.2-.26 1.39-1.2a.24.24 0 0 0 .06-.07l.02-.05a.14.14 0 0 1 .09-.08c.34-.1.63-.27.89-.5.06-.05.14-.1.23-.13.31-.1.74-.28 1.27-.55a4.41 4.41 0 0 1 1.84-.38c.82.17 1.55.14 2.2-.1Z" fill="#E95B39"/><path d="M27.05 22.33c0-.07.02-.07.05 0-.53.12-.67.91-.63 1.37-.2.04-.37-.19-.5-.67.02-.2.14-.35.37-.43.05-.02.1-.05.14-.1.19-.21.35-.33.46-.35.08-.02.12.04.1.18Z" fill="#6E685C"/><path d="M16.54 22.44c.15.06.32.07.5.03a.37.37 0 0 1 .21.01A74.8 74.8 0 0 1 23.51 25l-1.01.81-2.46.68-1.85.28a.55.55 0 0 0-.14.04c-.7.31-1.52.05-2.22.12-.36-.14-.85-.2-1.13-.39-.41-.26-.55-.68-.42-1.24.11-.48.33-.98.64-1.5.46-.5 1-.95 1.62-1.36Z" fill="#E95B39"/><path d="M24.7 24.85a.08.08 0 0 1-.02.1 1.34 1.34 0 0 1-.73-.09.25.25 0 0 1-.14-.18l-.13-.9a.05.05 0 0 1 .05-.06l.03.01c.43.33.74.7.95 1.12Z" fill="#63A17F"/><path d="M14.92 23.8a5.13 5.13 0 0 0-.64 1.5c-.13.56 0 .98.42 1.24.28.19.77.25 1.13.39.4.55.91.93 1.54 1.14-.55.46-.91.83-1.1 1.1a9 9 0 0 0-.66 1.5.46.46 0 0 1-.13.17c-.29.02-.5.1-.65.25a2.43 2.43 0 0 1-1.58-1.48 4.35 4.35 0 0 1-.25-1.58c0-.95-.04-1.83.41-2.68.16-.28.66-.8 1.51-1.54Z" fill="#70B452"/><path d="M42.96 24.21c.06.57.05 1.08-.03 1.53a3 3 0 0 1-.4.77 55.67 55.67 0 0 0-.5.77c-1.4 1.6-3.1 2.33-5.2 2.83-.36.09-.89.12-1.32.28l-.57-.21a7.35 7.35 0 0 0-2.08-1.6c.66.12 1.48.18 2.46.2.61 0 .81-.1 1.34-.38.7-.38 1.15-1 1.3-1.88.05-.23 0-.51-.16-.83-.09-.19-.02-.3.2-.35.18.21.37.42.58.62.5.48.74.8 1 1.34a.16.16 0 0 0 .2.07 6.37 6.37 0 0 0 3.18-3.16Z" fill="#6E685C"/><path d="M25.17 25.68V26a2.04 2.04 0 0 1-.99-.37.05.05 0 0 1 .03-.06h.03l.93.1Z" fill="#DFE5AD"/><path d="M25.47 25.74c1.98.64 3.93 1.35 5.85 2.13.58.23 1.1.47 1.54.7.9.5 1.6 1.04 2.08 1.6l-.2 3.67c-.7.46-1.44.7-2.23.72-.75.02-1.61-.11-2.58-.4a6.47 6.47 0 0 1-1.55-.73c-.39-.23-.81-.5-1.27-.82a4.8 4.8 0 0 1-1.09-1.3 5.72 5.72 0 0 0-.4-.8l-.14-.33-.27-1.03a.92.92 0 0 1-.03-.28c.03-.72-.12-1.4-.05-2.11l.03-.75.01-.33c.1.04.2.06.3.06Z" fill="#FAC934"/><path d="M42.52 25.74a.06.06 0 0 1 .1.07 5.9 5.9 0 0 1-1.15 1.73 7.97 7.97 0 0 1-6.1 2.46.35.35 0 0 1-.25-.1l-.5-.51a.09.09 0 0 1-.03-.08.09.09 0 0 1 .05-.06c.06-.03.11-.05.13-.04a3.7 3.7 0 0 0 2.08-.34c.2-.1.67-.26 1.4-.48a11.05 11.05 0 0 0 3.27-1.66l1-1Z" fill="#020303"/><path d="M22.5 25.81c.36-.05.62-.02.78.1a22.58 22.58 0 0 0-3.71 6.05c-.23.56-.54 1.39-.92 2.5-.34.4-.77.73-1.27 1-.32 0-.65-.09-.98-.24a.63.63 0 0 1-.28-.25.8.8 0 0 0-.21-.25.35.35 0 0 1-.14-.2 11.1 11.1 0 0 1-.26-3.5c.01-.07 0-.13-.03-.18.06-.05.1-.11.13-.17a9 9 0 0 1 .66-1.5c.19-.27.55-.64 1.1-1.1l2.67-1.58 2.46-.68Z" fill="#FAC934"/><path d="m23.64 27.3.04 1.04-.3 2.13a20.04 20.04 0 0 1-1.49 5 6.31 6.31 0 0 1-1 1.61 1.9 1.9 0 0 1-.68.4l-.76-.18a.15.15 0 0 1-.1-.13c-.06-.56-.39-.95-.47-1.54-.07-.48-.1-.8-.09-.97.01-.2-.03-.26-.14-.2.38-1.11.69-1.94.92-2.5a22.58 22.58 0 0 1 3.71-6.05c.07.02.12.05.16.1.04.03.05.1.05.17-.02.41.03.78.15 1.12Z" fill="#E95B39"/><path d="M38.13 28.04a.1.1 0 0 1-.1-.03.1.1 0 0 1-.02-.1 2.98 2.98 0 0 0 .42-1.54.08.08 0 0 1 .08-.04c.02 0 .03 0 .04.02.29.23.49.57.6 1a.38.38 0 0 1-.25.45l-.77.24Z" fill="#63A17F"/><path d="m20.04 26.49-2.67 1.58a3.06 3.06 0 0 1-1.54-1.14c.7-.07 1.51.2 2.22-.12a.55.55 0 0 1 .14-.04l1.85-.28Z" fill="#6E685C"/><path d="m23.68 28.34-.04-1.04c.07-.05.12-.06.14-.06a.14.14 0 0 1 .09.11c.1.55.04.88-.2.99ZM23.75 29.53a.04.04 0 0 1-.04.01l-.02-.01-.01-.02-.01-.06c0-.03 0-.06.02-.1l.84-1.45a.11.11 0 0 1 .17-.02.1.1 0 0 1 .03.06l.06.37a.34.34 0 0 1-.1.28l-.94.94Z" fill="#020303"/><path d="m25.48 30.18.14.32c-.01.13 0 .26.03.38.3 1.29.23 2.56-.2 3.82-.49 1.4-1.96 4.09-3.68 4.15-.82.04-1.34-.42-1.56-1.36.33-.14.55-.27.68-.4a6.3 6.3 0 0 0 1-1.62 20.05 20.05 0 0 0 1.49-5l.6-.93c.04-.08.1-.14.17-.2l.65-.46a.09.09 0 0 1 .13.04l.55 1.26Z" fill="#63A17F"/><path d="M35.51 30.4c-.18.07-.24.2-.19.36l.38 1.09a2.63 2.63 0 0 1-.96 2l.2-3.67.57.21Z" fill="#DFE5AD"/><path d="M25.62 30.5c.16.27.3.53.4.81.11.28.47.72 1.09 1.3l.83 4.13v.03l1.07 2.3a4.55 4.55 0 0 1 1.02 1.58c-.71.91-1.2 1.46-1.48 1.62-.65.37-1.35.79-2.1 1.25-.2.12-.69.27-1.46.45-.13.03-.56.04-1.3.02a4.23 4.23 0 0 1-3.78-2.64c-.4-.94-.61-1.55-.61-1.82 0-.47-.04-.93-.11-1.38a.4.4 0 0 0 .07-.26.14.14 0 0 0-.1-.12c-.21-.05-.31 0-.3.13l-.36-.02c-.05-.1-.01-.14.1-.16l.28-.06c.05-.01.1-.04.14-.07.16-.16.2-.33.13-.53a22.2 22.2 0 0 0-.42-.93.08.08 0 0 0-.1 0l-1.36 1.05a.08.08 0 0 0-.02.03c-.08.17-.02.38.17.61l-.4-.02c.24 0 .14-.12-.3-.38-.1-.08-.11-.13-.04-.18a17.43 17.43 0 0 0 .86-.6.16.16 0 0 0 0-.09l-.16-1.09c.5-.27.93-.6 1.27-1 .1-.06.15.01.14.2 0 .17.02.49.1.97.07.59.4.98.45 1.54 0 .03.01.06.03.08l.08.05.76.19c.22.94.74 1.4 1.56 1.36 1.72-.06 3.2-2.75 3.67-4.15.43-1.26.5-2.53.2-3.82a1.19 1.19 0 0 1-.02-.38Z" fill="#70B452"/><path d="M15.48 30.84c.03.05.04.11.03.18-.11.21-.23.32-.34.33-.11-.16-.22-.24-.34-.26.15-.15.36-.23.65-.25Z" fill="#DFE5AD"/><path d="M15.5 31.02c-.09 1.19 0 2.35.27 3.5.02.08.07.15.14.2a.8.8 0 0 1 .21.25c.07.11.16.2.28.25.33.15.66.23.98.24l.17 1.1a.16.16 0 0 1-.07.14c-.26.2-.53.37-.8.54-.07.05-.06.1.04.18-.34 0-.47.1-.39.3l-.94-.01c-.9-.04-1.56 0-1.64-1.06-.1-1.4 0-2.56.28-3.47.17-.52.55-1.13 1.14-1.83.12-.01.23-.12.34-.33Z" fill="#F28369"/><path d="M36.5 33.07c-.08.42-.02.93.2 1.55a.25.25 0 0 0-.06-.03.07.07 0 0 0-.06 0 .07.07 0 0 0-.04.04c-.08.29-.22.5-.41.66-.9.72-1.86.68-2.98.47a6.56 6.56 0 0 1-3.22-1.6c.97.29 1.83.42 2.58.4.8-.02 1.54-.26 2.23-.72.58-.46.9-1.13.96-2l.8 1.23Z" fill="#63A17F"/><path d="M29.93 34.16a6.56 6.56 0 0 0 3.22 1.6c1.12.2 2.08.25 2.98-.47.19-.15.33-.37.41-.66a.07.07 0 0 1 .07-.05h.03l.05.05c.52 2.04.07 3.9-1.36 5.57-.5.58-1.17.91-2 1.01a10.93 10.93 0 0 1-1.88-.08l-1.42-.49A4.55 4.55 0 0 0 29 39.06l-1.06-2.29-.01-.03-.83-4.13c.46.31.88.59 1.27.82.54.34 1.06.58 1.55.73Z" fill="#F28369"/><path d="M36.5 33.07a5.94 5.94 0 0 1 1.08 4.67c-.04.18-.2.45-.5.81-.5.6-1.08 1.15-1.75 1.65a5.92 5.92 0 0 0 1.36-5.58 2.96 2.96 0 0 1-.18-1.55Z" fill="#6E685C"/><path d="m18.5 37.88-1.08-.06c-.19-.24-.25-.44-.17-.61l.02-.04 1.36-1.05a.08.08 0 0 1 .12.04l.4.9c.08.2.03.37-.13.53a.28.28 0 0 1-.14.07l-.28.06c-.11.01-.15.07-.1.16Z" fill="#020303"/><path d="M16.72 37.42c.44.26.54.38.3.38l-.69-.08c-.08-.2.05-.3.39-.3ZM19.19 38.15a.64.64 0 0 0-.33-.25c-.01-.13.09-.18.3-.13a.14.14 0 0 1 .1.12.4.4 0 0 1-.07.26Z" fill="#DFE5AD"/><path d="M28.14 42.3c-.04.02-.08.02-.12 0a.07.07 0 0 1-.03-.04.07.07 0 0 1 0-.06c.58-.93.63-1.9.73-2.97a.03.03 0 0 1 .05-.03l.01.01.85 1.07c.27.71-1 1.76-1.5 2.02Z" fill="#020303"/></svg>