<!-- by TradingView --><svg width="56" height="56" viewBox="0 0 56 56" xmlns="http://www.w3.org/2000/svg"><path fill="#F0F3FA" d="M0 0h56v56H0z"/><path d="M18.57 16v5c-.9 0-1.74.05-2.54.38a6.58 6.58 0 0 0 1.55 12.66c2.04.32 4.35-.66 5.85-2.04H19v-5h8v-6h-1.88l-1.84 1.78c-.02.02-.03.02-.05 0A6.45 6.45 0 0 0 18.86 21h5.9c.2 0 .42-.11.57-.24.44-.4.84-.82 1.37-1.36.03-.03.03-.07 0-.1a11.53 11.53 0 0 0-7.08-3.25c-.06 0-.1-.03-.15-.05H40v5h-8v18h-5v-3.54c-.22.2-1.02.88-1.21 1.02a11.62 11.62 0 0 1-16.2-1.73A11.48 11.48 0 0 1 18.56 16Z" fill="#3C436E"/><path d="m19.47 16 .15.05c2.75.27 5.1 1.35 7.08 3.25.03.03.03.07 0 .1-.53.54-.93.96-1.37 1.36-.15.13-.31.24-.5.24h-6.26v-5h.9ZM40 21v-5c3.19.03 5.7 1.14 7.97 3.33v.05l-3.43 3.4-.02.01h-.02A6.2 6.2 0 0 0 40 21ZM39.35 21a6.52 6.52 0 0 0-4.55 2.17 6.58 6.58 0 0 0-.7 7.68 6.68 6.68 0 0 0 10.44 1.34l.02.01L48 35.61v.04a11.62 11.62 0 0 1-10.38 3.14c-2.39-.46-3.86-1.71-5.61-3.53V21h7.35Z" fill="#F2990F"/></svg>