<!-- by TradingView --><svg width="56" height="56" viewBox="0 0 56 56" xmlns="http://www.w3.org/2000/svg"><path fill="#F0F3FA" d="M0 0h56v56H0z"/><path d="M22.94 31.5a15.56 15.56 0 0 0-7.3-1.84h-4.45l-.23-.42h5.23c.36 0 4.7-.06 7.26.62 3.2.85 5.4 2.52 5.84 2.8.43.28 6.26 4.42 6.26 4.42s-.98 1-1.94 1c-.9 0-1.89-.7-1.89-.7s-3.11-2.23-3.59-2.55c-.48-.33-2.93-2.16-5.17-3.32" fill="#036198"/><path d="M22.71 34.77c2.2 1.46 3.5 2.52 3.92 2.83L29 39.3s.9.7 2 .7c.84 0 1.87-.97 1.87-.97l-5.1-3.57c-.44-.3-1.93-1.47-4.73-2.2-2.34-.62-5.67-.6-5.89-.6h-4.25l.25.42h3.45c.52 0 3.77.16 6.09 1.7M23.43 28.08c2.84 1.52 5.64 3.6 6.17 3.99l4.79 3.4s1 .68 1.91.68c.92 0 1.9-.98 1.9-.98s-6.8-4.87-7.42-5.3c-.61-.43-3.07-2.42-7-3.36-3.08-.77-8.22-.68-8.58-.68H8.97l.25.42h5.44c1.12 0 5.46.07 8.77 1.83ZM47.99 27.58a19.7 19.7 0 0 0-2.05-.25l-1.6.5-.9-.83s1.89.17 2.42.26c.46 0 .3-.26.08-.76-.22-.48-.76-.5-.76-.5h-4.77s-.86.02-1.85-.23c-1-.25-1.37-1.06-1.37-1.06-.39.96 1.14 2.07 1.14 2.07l4.73 3.72c.6.42 1.13.09 1.13.09s1.22-.67 1.9-.83c.6-.17 2.5-.26 2.73-.17.54.09 1.14.67 1.14.67.3-2.33-1.07-2.49-1.97-2.66M24.31 21.4c3.12 1.36 7.58 4.67 8.23 5.15l7.08 5.04s1.01.73 1.95.73 1.86-.94 1.86-.94-9.08-6.5-9.74-6.95c-.66-.48-3.67-3-9.27-4.46-3.84-1.01-10.44-.97-11.2-.97H5l.25.43h7.54c1.9 0 7.38.16 11.52 1.95" fill="#036198"/><path d="M23.84 24.72c-3.37-1.68-7.53-1.89-9.95-1.89H7.23l-.25-.43h7.23c.78 0 6.26-.05 9.88.77 4.18.94 7.77 3.67 8.15 3.93l8.6 6.13s-.94.97-1.95.97c-.92 0-1.93-.72-1.93-.72s-5.37-3.82-5.9-4.18c-.52-.37-4.1-3-7.23-4.57" fill="#036198"/></svg>