<!-- by TradingView --><svg width="56" height="56" viewBox="0 0 56 56" xmlns="http://www.w3.org/2000/svg"><path fill="#F0F3FA" d="M0 0h56v56H0z"/><path d="M29.06 12.04a13.79 13.79 0 0 1-1.24 2.61l.8.39a27.57 27.57 0 0 1 1.73.98 52.26 52.26 0 0 1 3.05 2l1.8 1.27.75.5c.58.4 1.17.79 1.77 1.16.8.5 1.69 1 2.58 1.38.6.25 1.28.46 1.88.54.26.04.54.04.85 0a15.83 15.83 0 0 0-4.91-7.16 15.72 15.72 0 0 0-8.98-3.66l-.08-.01Z" fill="url(#a)"/><path d="M24.62 13.57c1.1.22 2.19.6 3.2 1.08l.8.39a27.5 27.5 0 0 1 1.73.98c1.54.87 4.26 2.84 4.94 3.3v.04l-3.06-1.93c-.56-.35-1.13-.68-1.7-1l-.8-.44-1.03-.52c-.4-.19-.82-.37-1.23-.54l-.65-.25a14.1 14.1 0 0 0-2.09-.6 10.34 10.34 0 0 0-2.2-.2h-.36a7.88 7.88 0 0 0-2.57.58l-.36.12a15.33 15.33 0 0 1 1.41-.81 8.12 8.12 0 0 1 3.97-.2Z" fill="#327119"/><path d="M19.53 18.7c-.07.02-.15.03-.22.03a5.18 5.18 0 0 0-1.17.47c-.4.23-.76.48-1.08.74a4.4 4.4 0 0 0-.52.55 7.63 7.63 0 0 1 .84.13c-.17.24-.28.4-.35.46-.42.5-.82 1.01-1.19 1.55-.16-.2-.27-.35-.33-.45l-.19-.35-.15-.36a4.34 4.34 0 0 1-.21-.9 7.14 7.14 0 0 1 2.16-1.46 5.4 5.4 0 0 1 2.41-.4Z" fill="#3C801D"/><path d="M19.53 18.7c.17.03.33.04.5.08l.21.04.15.04h.03l.38.11h.03l.2.08.08.03c-.93.19-1.78.47-2.6.95a4.04 4.04 0 0 0-.82.63l.54.15c.36.11.71.25 1.06.4l1.11.54.33.17c-.1.14-.24.3-.42.34-.17.04-.4.06-.57.11a3.22 3.22 0 0 0-1.7 1.39.77.77 0 0 1-.22.22h-.07l-.08-.03a.08.08 0 0 0-.05-.03c-.01-.01-.02-.02-.03-.01l-.18-.09-.5-.26-.22-.15-.02-.02-.18-.13a.12.12 0 0 0-.04-.04l-.02-.01c-.16-.13-.3-.26-.44-.4l-.15-.18c.37-.54.77-1.05 1.2-1.55a8.45 8.45 0 0 0 .34-.47 7.63 7.63 0 0 0-.84-.13c.2-.24.37-.42.52-.54.31-.26.68-.5 1.08-.74a5.18 5.18 0 0 1 1.17-.47c.07 0 .15 0 .22-.02Z" fill="#3C801D"/><path d="m17.93 17.17.07-.01a5.49 5.49 0 0 1 2.6.2l.19.04.03.01.06.03h.04l.03.01.33.11a.3.3 0 0 1 .1.04l.15.06a.1.1 0 0 1 .07.03c.02 0 .04 0 .05.02l.08.03.05.03.12.04.05.02.2.1c.03-.01.04 0 .05.01l.14.07.03.01.04.02.22.1.02.02.16.08h.01a.03.03 0 0 1 .02 0l.02.02c.02 0 .03 0 .04.02l.2.1.17.1a.3.3 0 0 1 .09.05h.02l.06.04c.02 0 .04.02.05.03l.06.03.1.05.1.06.05.03.06.03a.1.1 0 0 1 .05.03h.01l.01.02.04.01.02.01.05.03.26.16.1.05.02.02c.02 0 .04.02.06.04l.04.02.05.03.03.02.43.26.8.49.72.45 2.03 1.25.08.05c.48.28.96.56 1.46.82.79.42 1.6.79 2.43 1.11l.94.33c.73.23 1.48.4 2.24.5l.91.08h.34l.08.01h.27a.52.52 0 0 1 .22 0h.02l.02-.01h.01a.1.1 0 0 1 .08 0c.02 0 .04-.01.07 0l.04-.01.28-.01.04-.01.18-.02h.08a.27.27 0 0 1 .12-.02l.14-.02.11-.01a.25.25 0 0 1 .12-.02l.31-.05.08-.02c.02-.02.04-.02.06-.01l.07-.02a.06.06 0 0 1 .06 0c.02 0 .03-.01.03-.02a.25.25 0 0 1 .12-.03.14.14 0 0 1 .09-.01l.15-.04a.18.18 0 0 1 .1-.03h.01l.04-.01.42-.12.4-.13.49-.18.48-.2.37-.17.42-.2.48-.27v-.02l-.01-.06c-.3.04-.59.04-.85 0-.6-.08-1.28-.3-1.88-.54-.9-.38-1.78-.88-2.58-1.38-.6-.37-1.19-.76-1.77-1.16l-.74-.5a.46.46 0 0 1-.18-.07c-.58-.38-1.15-.75-1.73-1.11l-1.03-.65-.04-.03c-.56-.35-1.13-.68-1.7-1l-.8-.44-1.03-.52c-.4-.19-.82-.37-1.23-.54l-.65-.25c-.68-.25-1.37-.45-2.09-.6a10.33 10.33 0 0 0-2.56-.2 7.88 7.88 0 0 0-2.57.58 4.5 4.5 0 0 1-.39.14l-.06.03a16.05 16.05 0 0 0-4.38 4.33h.05l.16-.16.12-.12a5.74 5.74 0 0 1 2.67-1.47l.06-.01.1-.03Z" fill="url(#b)"/><path d="m21.93 19.45-.05-.03c-.25-.13-.5-.24-.76-.34-.94.19-1.8.47-2.62.95a4.03 4.03 0 0 0-.81.63l.54.15c.36.11.71.25 1.06.4l1.11.54.33.17.88.44a8.84 8.84 0 0 0 5.65.9c-.3-.1-.55-.24-.81-.43a10.74 10.74 0 0 1-.95-.75 104.15 104.15 0 0 0-1.73-1.42l-.56-.42-.4-.27s-.02 0-.02-.02l-.2-.12a.23.23 0 0 1-.07-.05l-.04-.02-.1-.07-.08-.03a.11.11 0 0 0-.03-.02l-.19-.1-.11-.07a.07.07 0 0 1-.04-.02Z" fill="url(#c)"/><path d="m20.6 17.35-.42.01h-.1l-.04.01-.31.01h-.02l-.06.01h-.05l-.01.02h-.1l-.26.04h-.02a4.72 4.72 0 0 0-.8.18c-.28.09-.55.2-.82.33-.78.4-1.38 1-1.79 1.78l-.08.2a10.83 10.83 0 0 0-.77.66c.04.3.12.59.22.87l.15.36v.3c.02.34.07.67.14 1l.03.1c.06.24.13.47.21.7-.26.1-.51.17-.77.2l-.13.01h-.25l-.27-.04-.13-.04a1.14 1.14 0 0 1-.33-.22l-.12-.14a1.45 1.45 0 0 1-.17-.35c-.06-.2-.1-.42-.1-.64 0-.26.02-.5.06-.74l.08-.38a8.21 8.21 0 0 1 1.25-2.64l.21-.2.07-.07a5.74 5.74 0 0 1 2.9-1.52 5.5 5.5 0 0 1 2.6.2Zm-5.26 5.07v-.01.01Z" fill="url(#d)"/><path d="m21.61 22.36-.88-.44c-.1.14-.24.3-.42.34a4.3 4.3 0 0 1-.21.04l-.36.07a3.22 3.22 0 0 0-1.7 1.39.77.77 0 0 1-.22.22h-.07l.15.06.04.01.3.1.03.02.28.08.1.03a.1.1 0 0 1 .05 0l.05.02h.04l.2.06.47.09.37.05a.1.1 0 0 1 .05.01.1.1 0 0 1 .04 0l.96.07c.5 0 1-.01 1.49-.06l.7-.07a17.48 17.48 0 0 0 4.24-1.17l-.05-.01a.18.18 0 0 1-.1.04 9.86 9.86 0 0 1-2.24.05 8.85 8.85 0 0 1-3.3-1Zm-.52 2.21H21a41.68 41.68 0 0 0 .08 0Z" fill="url(#e)"/><path d="M35.59 28.36c-.02 0-.02.01 0 .02.46.16.78.47.85.97v.41c-.06.42-.26.73-.61.93-.54.3-.87.33-1.52.3a4.05 4.05 0 0 1-.86-.14c-.18-.04-.35-.13-.42-.3a.74.74 0 0 1-.03-.25v-3.74c0-.1.01-.18.03-.22.04-.07.11-.12.2-.16.2-.07.44-.13.72-.15.81-.07 2.06-.12 2.3 1 .03.13.04.26.03.39-.03.45-.3.76-.7.94Zm-.9-.32c.3-.04.54-.22.57-.55.08-.71-.74-.72-1.24-.64l-.02.01v1.18l.02.02h.52c.03 0 .08 0 .15-.02Zm-.51 2.11c.5.08 1.25.01 1.24-.67 0-.48-.4-.66-.81-.66H34v1.28l.01.02h.02c.04.02.09.03.15.03ZM4.45 26h3.42c.01 0 .03.02.03.04.06.15.1.27.1.44-.03.15-.06.3-.23.36a.64.64 0 0 1-.2.03H6.51V30.84c0 .05 0 .08-.02.1l-.14.03c-.19.04-.37.04-.55.01a.6.6 0 0 1-.19-.07l-.02-.02-.07-.09-.01-.02-.03-.07a2112.55 2112.55 0 0 1-.02-3.37v-.46l-.02-.01H4.14a.04.04 0 0 1-.03-.02c-.07-.13-.09-.26-.1-.4H4c.02-.2.08-.4.3-.44h.15ZM9.46 27l.19.02.27.04.19.05.13.06c.38.16.62.43.72.8.03.1.04.28.04.53a871.14 871.14 0 0 1-.02 1.85c-.03.1-.09.2-.19.27-.1.08-.21.14-.3.18-.22.09-.46.15-.71.17-.3.04-.6.04-.89 0-.33-.03-.69-.14-.92-.32-.33-.26-.42-.64-.38-1.04a.94.94 0 0 1 .56-.8c.16-.08.34-.13.54-.17l.9-.1.4-.04h.02v-.22c-.08-.66-1.14-.53-1.54-.4L8.1 28l-.07.04a.18.18 0 0 1-.07-.05l-.02-.02-.01-.01-.03-.05-.05-.1a.2.2 0 0 0-.03-.06l-.01-.17v-.04l.01-.04.01-.03.02-.05.01-.02.03-.04.07-.08.17-.1A3.75 3.75 0 0 1 9.45 27Zm-.43 2.31c-.2.04-.4.13-.44.36-.04.2.04.36.22.48.32.1.65.11 1 .02a.75.75 0 0 0 .18-.08H10v-.86a.02.02 0 0 0-.01-.02l-.96.1ZM13.52 27c.53.02 1.03.22 1.32.68.09.21.14.4.15.55V30.83l.01.1c-.22.08-.5.1-.73.04-.2-.05-.27-.22-.27-.42v-2.12c-.02-.66-.57-.67-.99-.43v.01l-.01.02v2.9c-.2.07-.47.09-.68.05a.38.38 0 0 1-.26-.16.63.63 0 0 1-.06-.26v-2.68c0-.62 1.04-.9 1.52-.87ZM23.52 27c.53.02 1.03.22 1.32.68.09.21.14.39.15.54v2.6l.01.1c-.22.08-.5.1-.73.04-.2-.04-.27-.22-.27-.42v-2.12c-.02-.66-.57-.66-.99-.42v.01l-.01.01v2.91c-.2.07-.47.08-.68.04a.38.38 0 0 1-.26-.16.63.63 0 0 1-.06-.25v-2.69c0-.62 1.04-.9 1.52-.87ZM42.52 27c.53.02 1.03.22 1.32.68.09.21.14.39.15.54v2.6l.01.1c-.22.08-.5.1-.73.04-.2-.04-.27-.22-.27-.42v-2.12c-.02-.66-.57-.66-.99-.42v.01l-.01.01v2.91c-.2.07-.47.08-.68.04a.38.38 0 0 1-.26-.16.63.63 0 0 1-.06-.25v-2.69c0-.62 1.04-.9 1.52-.87ZM19.48 31c-.53-.02-1.03-.22-1.32-.68a1.6 1.6 0 0 1-.15-.54v-2.6l-.01-.1c.22-.08.5-.1.73-.04.2.04.27.22.27.42v2.12c.02.66.57.66.99.42v-.01l.01-.01v-2.91c.2-.07.47-.08.68-.04.11.02.2.07.26.16.04.08.06.17.06.25v2.69c0 .62-1.04.9-1.52.87ZM38.48 31c-.53-.02-1.03-.22-1.32-.68a1.6 1.6 0 0 1-.15-.54v-2.6l-.01-.1c.22-.08.5-.1.73-.04.2.04.27.22.27.42v2.12c.02.66.57.66.99.42v-.01l.01-.01v-2.91c.2-.07.47-.08.68-.04.11.02.2.07.26.16.04.08.06.17.06.25v2.69c0 .62-1.04.9-1.52.87ZM28.63 30.47a2.08 2.08 0 0 1-1.4.11 1.5 1.5 0 0 1-1.2-1.3c-.05-.36-.04-.73.06-1.07.17-.61.65-1.02 1.29-1.15a2.87 2.87 0 0 1 1.83.21c.14.08.26.17.34.28.08.11.08.22.08.4v2.84c0 .2-.02.37-.06.5-.18.55-.64.86-1.2.97-.37.07-.74.08-1.12.03a2.44 2.44 0 0 1-.63-.16c-.26-.1-.4-.3-.36-.58a.48.48 0 0 1 .2-.32h.03c.28.16.59.26.9.3.48.04 1.19-.04 1.25-.61a4.47 4.47 0 0 0 0-.45Zm-1.57-1.3c.07.37.28.62.66.69a1.2 1.2 0 0 0 .9-.18v-1.75c-.21-.11-.44-.16-.67-.15-.52.03-.84.33-.9.82-.02.2-.02.38.01.58ZM47 30.47a2.04 2.04 0 0 1-1.4.12 1.5 1.5 0 0 1-1.17-1.32 2.5 2.5 0 0 1 .05-1.06c.17-.6.65-1.01 1.28-1.14.6-.13 1.26-.07 1.82.2a.9.9 0 0 1 .33.28c.09.12.09.23.09.4v2.85c0 .2-.03.37-.07.5-.17.54-.63.85-1.19.96-.36.07-.73.09-1.11.04a2.4 2.4 0 0 1-.63-.16c-.25-.1-.4-.31-.35-.58a.49.49 0 0 1 .2-.32h.03c.28.16.58.25.9.29.46.05 1.17-.04 1.23-.61a4.51 4.51 0 0 0 0-.45Zm-1.55-1.3c.06.37.27.62.65.7a1.18 1.18 0 0 0 .9-.2v-1.73l-.01-.01c-.2-.1-.43-.16-.66-.14-.52.02-.84.33-.9.81-.02.2-.01.39.02.58ZM50.45 27l.28.03h.05l.25.06.14.04.08.04.1.05c.37.19.58.49.63.9l.02.21v1.7c0 .25 0 .39-.16.54-.26.25-.67.36-1.04.4-.72.08-1.91.03-2.13-.89-.05-.2-.04-.42 0-.64.06-.2.15-.35.3-.47.1-.1.24-.17.4-.24l.18-.05.2-.04 1.24-.14a.02.02 0 0 0 .01-.01c0-.17 0-.32-.1-.47-.15-.2-.43-.24-.68-.24a2.5 2.5 0 0 0-1.04.22l-.1.04-.07-.06-.06-.09s0-.02-.02-.02l-.01-.03c0-.01 0-.02-.02-.03v-.02l-.02-.08v-.2l.08-.16.07-.07a.2.2 0 0 0 .08-.05l.1-.05.32-.1c.3-.06.61-.09.92-.08Zm-.28 3.22a1.5 1.5 0 0 0 .83-.14v-.87h-.01l-.73.07c-.24.02-.58.1-.63.36-.07.39.2.56.54.58ZM16.55 27l.12.02c.27.04.33.23.33.47v3.64c0 .2-.04.42-.13.64-.1.23-.26.4-.47.53-.18.07-.36.1-.53.08-.27-.04-.42-.28-.44-.55v-.03l.03-.02.15-.08c.28-.16.39-.43.39-.75v-3.89l.22-.05.33-.01Z" fill="#0B0046"/><path d="m20.56 34.06.55.02.05.02.21.01a1.93 1.93 0 0 0 .27.03c.06 0 .11.02.17.03.76.1 1.5.29 2.23.54l.33.12-.05.23c-.9-.32-1.8-.53-2.75-.65-.5-.05-.96-.07-1.37-.05-1.4.05-2.82.45-4.09 1.06-.6.3-1.18.62-1.74.99l-.2-.31v-.02l.02-.02.09-.06.75-.44.45-.24.32-.16.51-.23.62-.24.2-.07.61-.2a11.03 11.03 0 0 1 1.5-.3h.08l.34-.03.9-.03Z" fill="#82CBE0"/><path d="M31.46 33.95h-.04a9.1 9.1 0 0 0-2.9.23 11 11 0 0 0-2.87 1.17c.7.31 1.37.65 2.04 1l1.1.58c.25 0 .5.02.74.05.07.01.14.03.2.06.92.42 1.85.81 2.8 1.08.25.08.55.14.88.2a6.34 6.34 0 0 0 2.6-.07 6.45 6.45 0 0 0 1.66-.78h.01a7.8 7.8 0 0 0 1.3-1.1h-.03l-.35-.08a7.06 7.06 0 0 1-.73-.23l-.27-.1-.79-.32-.35-.16-.92-.4-.35-.14-.03-.01-.4-.16c-.01 0-.03 0-.04-.02l-.94-.33-.52-.15h-.03l-.06-.02c-.35-.1-.7-.17-1.04-.22h-.03l-.64-.08Z" fill="#254898"/><path d="M41.74 35.72c-.34.37-.75.76-1.23 1.18a10.3 10.3 0 0 1-2.43 1.57c-.67.3-1.37.5-2.1.59l-.44.04a8.67 8.67 0 0 1-3.22-.53c-.45-.16-.9-.34-1.33-.54-.75-.34-1.48-.7-2.2-1.1.25 0 .5.02.74.05.07.01.14.03.2.06.92.42 1.85.81 2.8 1.08.25.08.55.14.88.2a6.34 6.34 0 0 0 2.6-.07 6.46 6.46 0 0 0 1.32-.57l.34-.2c.22-.16.53-.38.77-.6a15.92 15.92 0 0 0 .54-.5l.59.07c.35.01.68-.02 1-.12.35-.1.67-.26.95-.47a.7.7 0 0 1 .22-.14Z" fill="#0C1F6C"/><path d="M20.2 34.36c.41-.02.87 0 1.37.05a12.42 12.42 0 0 1 2.75.65l.05-.23a18.39 18.39 0 0 1 1.25.5h.01l.04-.01h-.02v.03c.7.31 1.37.65 2.04 1l1.1.58c.72.4 1.45.76 2.2 1.1.44.2.88.38 1.33.54a8.67 8.67 0 0 0 3.66.49 7.08 7.08 0 0 0 2.1-.59c.89-.4 1.7-.94 2.43-1.57a13.45 13.45 0 0 0 1.53-1.5c.03-.02.03-.02.02 0l-.11.2c-.32.5-.62.94-.9 1.34a16.41 16.41 0 0 1-2.71 2.98c-.79.67-1.63 1.22-2.55 1.66-1.16.55-2.4.87-3.73.94-.86.04-1.71-.02-2.56-.17l-.77-.16a13.11 13.11 0 0 1-2.6-.92c-.63-.3-1.24-.62-1.83-.98l-1.26-.73a53.44 53.44 0 0 0-3.33-1.76 25.16 25.16 0 0 0-2.49-1.03 13.22 13.22 0 0 0-1.4-.4c-.19.12-.38.21-.58.3-.25.1-.34.21-.38.49l-.5-.75c.57-.37 1.15-.7 1.75-.99a10.4 10.4 0 0 1 4.09-1.06ZM30.95 40l.14-.15-.14.15Z" fill="url(#f)"/><path d="M41.95 35.6a15.95 15.95 0 0 1-21.58 6.49 15.97 15.97 0 0 1-5.51-4.93c.04-.28.13-.38.38-.49a6.9 6.9 0 0 0 .6-.3 13.22 13.22 0 0 1 2.4.78c.32.13.82.35 1.47.65 1.16.55 2.21 1.13 3.33 1.76l1.26.73a18.74 18.74 0 0 0 3.06 1.48c.45.16.9.3 1.37.42l.77.16c.85.15 1.7.21 2.56.17a9.86 9.86 0 0 0 3.73-.94c.92-.44 1.76-1 2.55-1.66a16.4 16.4 0 0 0 2.7-2.98c.3-.4.6-.84.91-1.34Zm-15.88 7.52Z" fill="url(#g)"/><defs><linearGradient id="a" x1="24.08" y1="13.2" x2="40.78" y2="21" gradientUnits="userSpaceOnUse"><stop stop-color="#4B9E25"/><stop offset="1" stop-color="#61B026"/></linearGradient><linearGradient id="b" x1="18.54" y1="15.84" x2="40.22" y2="23.79" gradientUnits="userSpaceOnUse"><stop stop-color="#265E15"/><stop offset="1" stop-color="#57A725"/></linearGradient><linearGradient id="c" x1="19.94" y1="19.99" x2="25.06" y2="22.78" gradientUnits="userSpaceOnUse"><stop stop-color="#3C801D"/><stop offset="1" stop-color="#57A725"/></linearGradient><linearGradient id="d" x1="17.01" y1="17.09" x2="17.01" y2="24.14" gradientUnits="userSpaceOnUse"><stop offset=".21" stop-color="#12392A"/><stop offset="1" stop-color="#3B8325"/></linearGradient><linearGradient id="e" x1="19.93" y1="22.34" x2="26.4" y2="24.1" gradientUnits="userSpaceOnUse"><stop stop-color="#3C801D"/><stop offset="1" stop-color="#255B15"/></linearGradient><linearGradient id="f" x1="14.37" y1="38.44" x2="42.06" y2="38.44" gradientUnits="userSpaceOnUse"><stop stop-color="#7AC5DD"/><stop offset="1" stop-color="#2D63A0"/></linearGradient><linearGradient id="g" x1="14.86" y1="39.8" x2="41.95" y2="39.8" gradientUnits="userSpaceOnUse"><stop stop-color="#7EC8DE"/><stop offset="1" stop-color="#6FBAD6"/></linearGradient></defs></svg>