<!-- by TradingView --><svg width="56" height="56" viewBox="0 0 56 56" xmlns="http://www.w3.org/2000/svg"><path fill="#F0F3FA" d="M0 0h56v56H0z"/><path d="M27.93 11a16.98 16.98 0 0 1 13.34 6.4 16.98 16.98 0 0 1-4.44 25.14c-.47.28-.85.56-1.35.48-.61-.1-.98-.44-1.11-1.02-.18-.77.26-1.18.92-1.58a14.4 14.4 0 0 0-7.35-26.8 14.4 14.4 0 0 0-7.13 26.87c.66.38 1.1.79.94 1.56-.13.59-.5.93-1.1 1.03-.5.08-.9-.2-1.36-.47a16.98 16.98 0 0 1-4.64-25.1A16.99 16.99 0 0 1 27.93 11Z" fill="#005EA5"/><path d="M27.93 16.63a11.36 11.36 0 0 1 6.45 20.81 2 2 0 0 1-.98.42c-.75.04-1.4-.55-1.37-1.31.03-.8.52-1.03 1.18-1.51a8.73 8.73 0 0 0-5.27-15.79 8.76 8.76 0 0 0-5.06 15.85c.66.48 1.15.7 1.2 1.5.03.76-.6 1.36-1.35 1.33a2 2 0 0 1-.99-.4 11.36 11.36 0 0 1 6.19-20.9Z" fill="#2696D3"/><path d="M33.72 28a5.7 5.7 0 0 1-9.76 4.05 5.7 5.7 0 1 1 8.08-8.08 5.7 5.7 0 0 1 1.68 4.04Zm-2.62 0a3.09 3.09 0 0 0-5.3-2.18 3.09 3.09 0 1 0 4.39 4.38c.58-.58.9-1.37.9-2.2Z" fill="#FFD22A"/><path d="M28.99 45h-1.92c-1.23-.1-2.14-.22-2.72-.38-.92-.25-.67-.99-.38-1.66l3.3-7.47c.3-.69 1.2-.77 1.52-.1l3.4 7.7c.3.71.39 1.36-.54 1.55-.88.18-1.76.3-2.66.36Z" fill="#E81D2E"/></svg>