<!-- by TradingView --><svg width="56" height="56" viewBox="0 0 56 56" xmlns="http://www.w3.org/2000/svg"><path fill="#F0F3FA" d="M0 0h56v56H0z"/><path d="m27.76 13.05-.22-.03a.17.17 0 0 0-.2.15l-1.38 10.77c-.01.1.06.18.15.2l.22.02c.1.01.18-.05.2-.15l1.38-10.77a.17.17 0 0 0-.15-.19Z" fill="#1A7150"/><path d="M28.84 16.2c-.17-.27-.56-.38-.76-.4a.27.27 0 0 1-.12-.04.3.3 0 0 1-.09-.09.35.35 0 0 1-.05-.12.4.4 0 0 1 0-.14l.27-2.24a.13.13 0 0 1 .11-.12h.06c1.27.38 2.13 2.07 2.37 3.27.16.8.22 1.61.18 2.47 0 .18-.06.2-.16.04a9.29 9.29 0 0 0-.93-1.18c-.38-.41-.6-1.03-.88-1.46ZM25.76 26.04a.33.33 0 0 0-.12.09l-.03-.05a49.88 49.88 0 0 0-9 2.17c-1.65.57-3.41 1.32-4.68 2.56-.72.7-.57 1.52.32 1.98 1.44.73 3.3.87 4.88.92.28.01.3.1.07.26-.37.24-.59.63-.64 1.14-.08.82 1.37 1.34 2.02 1.48 1.77.39 3.46.54 5.34.49 4.24-.12 8.51-.76 12.82-1.92 1.05-.28 9.43-2.8 7.49-5-.2-.23-.44-.4-.74-.5a14.5 14.5 0 0 0-4.7-.84.12.12 0 0 1-.03-.17c.22-.25.35-.4.4-.48 1.52-2.22-3.93-2.6-4.86-2.64-2.48-.12-5.03.02-7.64.41-.25.04-.36-.07-.33-.33l.15-1.15a.51.51 0 0 1 .46-.44c3.84-.4 7.58-.66 11.4-.24 1.33.14 3.76.58 4.6 1.6.66.83.12 1.84-.72 2.5a.07.07 0 0 0 .04.13c1.29.07 9.7.36 7.32 3.72a6.37 6.37 0 0 1-1.8 1.5 30.1 30.1 0 0 1-5.8 2.53 71.61 71.61 0 0 1-17.9 3.19c-2.02.1-11.16.32-11.33-2.57-.04-.62.5-1.27.97-1.65.14-.12.12-.18-.07-.19-1.96-.05-4.1-.25-5.97-.93-1.77-.63-2.34-2.02-.74-3.34a14.7 14.7 0 0 1 3.95-2.3 62.2 62.2 0 0 1 14.84-3.74.23.23 0 0 1 .16.25 59.9 59.9 0 0 0-.19 1.5l.06.06Z" fill="#BDA141"/><path d="M25.64 26.13a.33.33 0 0 1 .12-.09.72.72 0 0 1 .4-.03c.09.02.12.07.11.15l-.1.76a.15.15 0 0 0 .1.17h.08c2.29-.37 4.67-.5 7.14-.37.9.04 2.68.27 3.4.96.5.48.14 1.13-.27 1.48-.17.15-.14.21.08.2a9 9 0 0 1 3.81.69c.56.23.75.65.57 1.25-.27.88-2.62 1.92-3.38 2.2a40.36 40.36 0 0 1-14.11 2.4c-.88 0-4.6-.21-4.72-1.44-.05-.5.22-.74.53-1.12a.08.08 0 0 0-.06-.13c-.81 0-4.72-.23-4.53-1.58.14-.95 1.5-1.66 2.3-2.04a32.45 32.45 0 0 1 8.33-2.37.11.11 0 0 1 .07.12l-.6 4.6a.14.14 0 0 1-.11.1c-.34.06-.58.11-.72.16-.41.13-.42.27-.03.43.58.23 1.22.23 1.91-.01.37-.13.37-.26 0-.4l-.33-.1c-.09-.04-.13-.1-.11-.19l.62-4.73c0-.07-.02-.1-.09-.09l-.4.06c-.07 0-.1-.02-.1-.09l.1-.95Z" fill="#1A7150"/></svg>