<!-- by TradingView --><svg width="56" height="56" viewBox="0 0 56 56" fill="none" xmlns="http://www.w3.org/2000/svg">
<rect width="56" height="56" fill="#F0F3FA"/>
<path fill-rule="evenodd" clip-rule="evenodd" d="M20.5567 39.6094C19.8982 39.0261 19.3434 38.5704 18.2563 38.2432C17.7795 38.1002 17.1902 38.0017 16.6093 38C15.9952 37.9982 15.3904 38.1033 14.9379 38.3235C16.6714 38.299 17.7905 38.3895 19.3875 39.0556C19.5832 39.1372 19.7733 39.2339 19.9599 39.3288C20.1622 39.4317 20.3603 39.5324 20.5567 39.6094ZM18.0983 34.7821C17.5832 33.8149 14.187 32.2459 12.5243 33.115C14.9194 33.1347 16.0588 33.7479 17.0338 34.2726C17.3927 34.4657 17.7294 34.6469 18.0983 34.7821ZM11.2443 28C10.4526 28 9.60036 28.1093 8.66902 28.3332H8.67247C8.93794 28.3486 9.21947 28.3364 9.51295 28.3236C9.86148 28.3084 10.2269 28.2924 10.6022 28.3213C11.8383 28.4148 13.1217 28.7219 14.2959 29.1112C14.5076 29.1826 14.7179 29.2627 14.9222 29.3405C15.2472 29.4643 15.557 29.5823 15.833 29.6503C14.4676 28.6074 13.006 28 11.2443 28ZM9.57406 29.4417C8.84816 29.118 7.90911 28.8999 7 28.7519C8.33657 27.9785 10.158 27 12.1224 27C12.6767 27 13.2522 27.0794 13.847 27.2812C16.6654 28.2337 18.1972 31.9049 19.4448 34.895C19.9347 36.0691 20.3808 37.1382 20.8437 37.8965C21.7986 39.4579 24.0766 41.7126 25.7583 42C25.0289 41.6754 24.0498 40.2678 23.756 39.3379C23.3939 38.189 23.6041 36.2076 24.1278 35.2126C24.1327 35.6214 24.0985 36.0291 24.0643 36.4377C24.0322 36.8212 24 37.2054 24 37.5918C24 38.4665 24.2413 39.3527 24.8699 40.2678C25.0998 40.6034 25.6362 41.1859 26 41.3549C25.9294 41.1796 25.8639 41.0188 25.8033 40.8701C25.136 39.233 25.0677 39.0653 25.4629 37.1602C25.4848 37.0543 25.52 36.77 25.5188 36.6328C25.5188 35.4541 25.0569 34.5944 24.5973 33.7389C24.4661 33.4947 24.3351 33.2508 24.2151 33C23.0918 34.3281 22.4531 35.6406 22.4531 37.2499C22.4531 38.3687 22.9513 39.3004 23.4689 40.2683L23.4993 40.3253C22.3145 39.5669 20.6432 36.5345 20.1541 34.99C19.7566 33.7219 19.9623 30.1719 22.054 28.5C20.947 29.741 20.1203 32.6407 21 35.3983C21 33.3203 21.645 32.5257 22.2993 31.7195C22.9728 30.8897 23.6562 30.0477 23.6562 27.7812C23.6562 27.5706 23.7329 27.286 23.8138 26.9856C23.9042 26.6498 24 26.2942 24 26C23.3942 26.1192 22.0795 26.5421 21.6379 26.8295C19.5544 28.1863 19.3875 30.7969 19.3875 33.2113C18.048 29.637 16.5099 26.7727 12.6548 26C13.8312 23.8299 15.7271 22.5328 17.6535 21.2148C17.8908 21.0524 18.1286 20.8897 18.3656 20.725C15.92 19.8103 14 17.8438 14 15C15.3377 16.1692 19.1959 17 21.2857 17C23.055 17 24.9148 16.5154 26.8033 16.0233C28.7514 15.5156 30.7301 15 32.6719 15C37.3342 15 41.8688 16.1875 41.8688 19.5549C43.8563 19.6124 45.5089 20.1019 46.6807 21.124C47.5266 21.8597 48 22.8328 48 23.9376C48.0028 24.5587 47.8084 25.4531 47.3454 26C46.5714 25.1736 45.5552 25 44.2958 25C35.6736 25 30 31.5567 30 39.3379C30 41.0567 30.4891 42.875 31 44C26.2909 44 23.1692 42.5041 21.3674 40.3906C21.1478 40.4444 20.9301 40.5307 20.7004 40.6217C20.2453 40.8021 19.7427 41.0013 19.084 41.004C18.4813 40.9996 17.7478 40.8225 16.8002 40.3002C16.432 40.097 16.1688 39.9354 15.9416 39.796C15.3787 39.4505 15.0371 39.2408 13.8672 38.8698C13.8393 38.8606 13.8115 38.8514 13.7837 38.8422C13.4318 38.7263 13.0937 38.6149 12.7516 38.4648C12.9293 38.3774 13.1058 38.2882 13.2819 38.1993C14.4788 37.5949 15.6569 37 17.0563 37C18.1076 36.9956 18.7898 37.3457 19.6563 37.7904L19.7021 37.8139L18.7827 35.6553C18.6192 35.6879 18.4648 35.7199 18.3172 35.7505C17.6441 35.89 17.1136 36 16.5142 36C15.4007 36 14.4961 35.4303 13.5951 34.8627C13.2028 34.6157 12.8112 34.369 12.4034 34.17C12.2112 34.076 11.7951 33.9244 11.3728 33.7705C10.8532 33.5811 10.3241 33.3883 10.1906 33.295C10.8423 32.7008 12.717 32 14.4217 32C15.1787 32 15.9349 32.1702 16.5972 32.5342C17.0696 32.7955 17.3478 33.0945 17.6405 33.409C17.773 33.5514 17.9085 33.697 18.0663 33.8437C17.9228 33.202 16.9472 31.0237 16.5972 30.6153C16.2631 30.6661 15.9935 30.7267 15.7359 30.7846C15.2339 30.8974 14.7771 31 13.9762 31C12.4107 31 11.6135 30.5475 10.7156 30.0378C10.3672 29.84 10.0036 29.6336 9.57406 29.4417ZM37.1745 22C36.6156 22 34.8337 21.6913 34.7156 20.6094C35.3383 20.409 36.8616 20 37.6854 20C38.3939 20 38.962 20.1839 39.5406 20.3712C39.6349 20.4017 39.7295 20.4323 39.825 20.4623C39.4523 21.4045 38.3081 22 37.1745 22Z" fill="#00468C"/>
<path fill-rule="evenodd" clip-rule="evenodd" d="M38.2813 25C39.4799 24.4531 41.4533 23.7 43.4688 23.7C44.1995 23.6938 45.5547 23.8653 46.2231 24.1785C46.511 24.3146 46.7833 24.5514 47 24.6334C47 21.6406 44.4604 20.7203 41.8475 20.7C41.5459 20.7643 41.5632 21.3492 41.0625 22.0469C40.2656 23.0156 38 22.8997 38 24.2812C38 24.5872 38.125 24.8594 38.2813 25Z" fill="#CDA71B"/>
</svg>
