<!-- by TradingView --><svg width="56" height="56" viewBox="0 0 56 56" xmlns="http://www.w3.org/2000/svg"><path fill="#F0F3FA" d="M0 0h56v56H0z"/><path d="M28 10c.77 0 1.36.26 1.77.9.27.41.26 1.32.28 1.67 0 .06.02.12.07.17.04.05.1.09.16.1.85.18 1.3.7 1.36 1.58.02.38-.11.66-.4.84-.28.17-.27.34.01.49 3.4 1.82 6.67 3.83 10.12 5.56.37.19.76.62 1.32.7a.2.2 0 0 0 .15-.06.18.18 0 0 0 .06-.15c-.12-.94-.32-2.67 1-2.7 1.06-.03 1.1.97 1.1 1.77 0 .09.04.13.12.13.73-.03 1.65-.04 1.85.77.19.74-.5 1.23-1.2 1.23h-4.1c-.07 0-.13.04-.15.1l-1.21 2.78a.21.21 0 0 1-.08.1.21.21 0 0 1-.12.02h-3.94c-.04 0-.08 0-.1-.02a.17.17 0 0 1-.07-.09l-1.07-2.84a.08.08 0 0 0-.08-.05h-13.7c-.02 0-.03 0-.05.02a.08.08 0 0 0-.03.03L20 25.9a.17.17 0 0 1-.07.09.17.17 0 0 1-.1.02H15.9c-.04 0-.08 0-.12-.03a.21.21 0 0 1-.08-.1l-1.2-2.77a.16.16 0 0 0-.17-.1h-4.09c-.7 0-1.39-.48-1.2-1.23.2-.8 1.12-.8 1.85-.77.08 0 .12-.04.12-.12 0-.81.04-1.81 1.1-1.78 1.31.03 1.12 1.76 1 2.7a.18.18 0 0 0 .06.15.19.19 0 0 0 .15.05c.56-.06.95-.5 1.32-.69 3.45-1.73 6.71-3.74 10.11-5.56.3-.15.3-.32.02-.49-.29-.18-.42-.46-.4-.84.05-.88.5-1.4 1.36-1.58a.3.3 0 0 0 .16-.1.28.28 0 0 0 .07-.17c.02-.35 0-1.26.28-1.67.4-.64 1-.9 1.77-.9Zm0 3.98h.05l1.83 1c.07.03.14.04.21.03.52-.08.75-.38.68-.9a.6.6 0 0 0-.14-.32.63.63 0 0 0-.3-.19l-.67-.19a.48.48 0 0 1-.25-.17.46.46 0 0 1-.1-.28c.02-.98.12-2.35-1.31-2.36-1.43 0-1.34 1.37-1.32 2.35 0 .1-.03.2-.1.29a.48.48 0 0 1-.25.17l-.66.19a.63.63 0 0 0-.3.19.6.6 0 0 0-.15.32c-.07.51.16.81.68.9.07 0 .15 0 .2-.04a4988.95 4988.95 0 0 1 1.87-1H28Zm-13.55 8.09a.2.2 0 0 0-.09.09.19.19 0 0 0 .06.22.2.2 0 0 0 .12.04h26.92a.2.2 0 0 0 .12-.04.19.19 0 0 0 .06-.23.2.2 0 0 0-.09-.08l-13.45-7.5a.2.2 0 0 0-.2 0l-13.45 7.5Zm-3.09-.68a1.6 1.6 0 0 1-.85.12.56.56 0 0 0-.37.1.54.54 0 0 0-.22.3l-.02.1c0 .3.13.46.38.46l2.01.01c.1 0 .14-.04.14-.13v-2.23a.32.32 0 0 0-.1-.23.33.33 0 0 0-.23-.1h-.14a.4.4 0 0 0-.28.12.4.4 0 0 0-.12.28v.9a.34.34 0 0 1-.2.3Zm33.28 0a.35.35 0 0 1-.2-.3v-.9a.4.4 0 0 0-.4-.39h-.14a.33.33 0 0 0-.23.1.32.32 0 0 0-.1.22v2.23c0 .09.05.13.14.13l2.01-.01c.26 0 .38-.16.39-.46l-.03-.1a.54.54 0 0 0-.21-.3.56.56 0 0 0-.38-.1c-.34.03-.62 0-.85-.12Zm-28.16 3.95c0 .03.03.05.05.07l.08.02h2.56a.14.14 0 0 0 .13-.09l.78-2.16a.13.13 0 0 0-.06-.16.14.14 0 0 0-.07-.02h-4.13a.14.14 0 0 0-.12.06.13.13 0 0 0-.01.12l.79 2.16Zm23.83-2.16a.13.13 0 0 0-.06-.16.14.14 0 0 0-.07-.02h-4.14a.14.14 0 0 0-.1.06.13.13 0 0 0-.02.12l.79 2.16c0 .03.03.05.05.07l.08.02h2.56c.02 0 .05 0 .07-.02a.13.13 0 0 0 .05-.07l.79-2.16Z" fill="red"/><path d="M28 21.04a1464.57 1464.57 0 0 1-9.01-.03c-.03-.01-.06-.03-.06-.05a.72.72 0 0 1-.06-.4c0-.05.1-.1.28-.18l8.79-4.83a.07.07 0 0 1 .04-.02h.04c.01 0 .03 0 .04.02l8.8 4.83c.17.07.26.13.27.18.02.12 0 .25-.06.4 0 .02-.03.04-.06.05a1465.3 1465.3 0 0 1-9.01.03Zm0-.51h7.64c.17 0 .18-.05.03-.14-2.47-1.43-5.03-2.7-7.52-4.12a.39.39 0 0 0-.14-.02c-.08 0-.13 0-.15.02-2.5 1.4-5.05 2.7-7.53 4.12-.15.09-.14.13.04.13H28ZM29 34.4v3.16c0 .08.03.16.08.22l2.5 3.12c.03.06 0 .1-.07.1h-7.74c-.06 0-.08-.03-.05-.1l2.01-2.85c.16-.28.27-.57.27-.89V26.3c0-.08-.07-.15-.12-.2l-2.7-2.5a.1.1 0 0 1-.03-.11c0-.02.02-.04.04-.05a.12.12 0 0 1 .06-.02h8.01a.1.1 0 0 1 .09.05.09.09 0 0 1 0 .09l-1.05 1.63a.12.12 0 0 0 .04.16l.06.02c2.13.1 3.2 1.15 4.05 2.95 1.7 3.64-1.35 7.24-5.31 6-.1-.03-.14 0-.14.09Zm-.8-1.9c.75 1.07 1.75 1.47 3.12 1.19.6-.12 1-.26 1.19-.42 1-.82 1.44-1.91 1.3-3.28a5 5 0 0 0-.62-2.11 3.2 3.2 0 0 0-1.68-1.37 4.22 4.22 0 0 0-3.02.1c-.05 0-.06 0-.05-.05l.91-2.18v-.02a.04.04 0 0 0-.02-.04h-3.8a.1.1 0 0 0-.1.06.1.1 0 0 0 .02.12l1.48 1.3c.04.04.07.09.07.15v11.63c0 .44-.08.78-.25 1.05-.22.33-.83.66-1.14 1-.2.2-.16.37.14.37h3.53c.08 0 .1-.08.05-.14-.4-.52-.68-.94-.95-1.26-.2-.23-.38-.57-.38-1.02v-5.05c0-.1.14-.1.2-.02ZM20 37.9a.1.1 0 0 1-.03.06c-.01.02-.03.04-.06.04H16.1c-.03 0-.05-.02-.06-.04a.1.1 0 0 1-.03-.06V26.47c0-.02 0-.04.03-.06a.08.08 0 0 1 .06-.03h3.82c.03 0 .05.01.06.03a.1.1 0 0 1 .03.06V37.9Zm-.54-10.83c0-.02 0-.04-.02-.05a.07.07 0 0 0-.05-.02h-2.77c-.02 0-.04 0-.05.02a.08.08 0 0 0-.02.05V37.3c0 .02 0 .04.02.05.01.02.03.03.05.03h2.77c.02 0 .04-.01.05-.03a.08.08 0 0 0 .02-.05V27.07ZM40 37.89a.12.12 0 0 1-.03.08.1.1 0 0 1-.07.03h-3.8a.1.1 0 0 1-.07-.03.11.11 0 0 1-.03-.08v-11.4c0-.03.01-.06.03-.08a.1.1 0 0 1 .07-.03h3.8a.1.1 0 0 1 .07.03.11.11 0 0 1 .03.08v11.4Zm-.54-10.83c0-.02 0-.03-.02-.04a.06.06 0 0 0-.05-.02h-2.78c-.02 0-.04 0-.05.02a.07.07 0 0 0-.02.04v10.25c0 .02 0 .04.02.05l.05.02h2.78c.02 0 .04 0 .05-.02a.07.07 0 0 0 .02-.05V27.06Z" fill="red"/><path d="M29.22 26.73c2.32.43 2.76 2.36 3.07 4.58.06.36 0 .67-.16.92a5.47 5.47 0 0 1-.85 1.01.13.13 0 0 1-.1 0 5.36 5.36 0 0 1-2.73-3.72 2.89 2.89 0 0 1 .47-2.68.3.3 0 0 1 .3-.11Zm.54 4.56c.2.32 1.06.98 1.38 1.09.33.12.5-.02.5-.41 0-.62-.06-1.2-.2-1.75-.31-1.33-.58-2.25-1.89-2.67-.07-.03-.12 0-.16.06-.8 1.21-.37 2.52.37 3.68ZM19.98 38.38l1.06 3.52a.07.07 0 0 1-.01.07.08.08 0 0 1-.06.03h-6.4a.08.08 0 0 1-.05-.03.07.07 0 0 1-.01-.07l1.37-3.52c0-.02.02-.03.03-.04l.04-.01h3.96l.05.01.02.04Zm-.65.6a.08.08 0 0 0-.03-.04.08.08 0 0 0-.04-.02h-2.82c-.02 0-.04 0-.05.02a.08.08 0 0 0-.03.04l-.7 2.38a.07.07 0 0 0 0 .07.08.08 0 0 0 .07.03h4.46a.08.08 0 0 0 .08-.07v-.03l-.94-2.39ZM34.96 41.9l1.05-3.52c0-.02.02-.03.03-.04l.04-.01h4.01l.03.04 1.38 3.53a.07.07 0 0 1-.03.1H35.04a.07.07 0 0 1-.06-.03.07.07 0 0 1-.02-.06Zm4.66-2.92a.09.09 0 0 0-.08-.06H37c-.1 0-.18.03-.26.08a.44.44 0 0 0-.16.2l-.83 2.12c-.03.1 0 .14.1.14h4.4c.1 0 .12-.04.1-.12l-.74-2.36Z" fill="red"/></svg>