<!-- by TradingView --><svg width="56" height="56" viewBox="0 0 56 56" xmlns="http://www.w3.org/2000/svg"><path fill="#F0F3FA" d="M0 0h56v56H0z"/><path d="M49 28c0 3.71-2.21 7.27-6.15 9.9C38.9 40.53 33.57 42 28 42s-10.91-1.48-14.85-4.1C9.21 35.27 7 31.71 7 28s2.21-7.27 6.15-9.9C17.1 15.47 22.43 14 28 14s10.91 1.47 14.85 4.1C46.79 20.73 49 24.3 49 28Zm-14.6-2h3.69c1.6-.02 4.28.8 2.41 3.12-.94 1.18-2.22 1.93-3.52 2.73-.13.09-.12.14.04.15h3.4c.66 0 1.17-.12 1.55-.35 2.28-1.36 2.93-4.92.29-6.33a4.84 4.84 0 0 0-2.18-.32H30.4c-.06 0-.1.02-.12.08v.05c1.53 4.4-4.4 5.89-7.36 6.17-2.08.2-4.05.1-5.7-1.02a3.85 3.85 0 0 1-1.68-2.33c-.68-2.86 1.24-5.67 3.63-7.01a7.3 7.3 0 0 1 3.37-.84c4.14-.14 8.26.63 11.7 2.96a.15.15 0 0 0 .22-.06l1.5-3.05a.08.08 0 0 0-.04-.1l-.04-.02c-2.06.18-3.72-.46-5.76-1.17-5.82-2.02-13.45-1.78-16.91 4.31-2.07 3.65-1.35 7.74 2.33 9.78 1 .56 2.3.9 3.9 1 3.55.25 6.83-.45 9.83-2.09 2.07-1.13 3.71-3.07 4.94-5.48.04-.09.1-.18.2-.18Zm-8.33 12.89a.07.07 0 0 0 .02.1l.03.01h4.5c.08 0 .12-.03.13-.1l.06-1.63a19.21 19.21 0 0 1 1.12-6.1.11.11 0 0 0-.03-.05.1.1 0 0 0-.11-.02c-3.08 1.2-3.8 5.02-5.72 7.79Z" fill="#205A99"/></svg>