<!-- by TradingView --><svg width="56" height="56" viewBox="0 0 56 56" xmlns="http://www.w3.org/2000/svg"><path fill="#F0F3FA" d="M0 0h56v56H0z"/><path d="M28 41.03c-.06.03-.04-.03-.04-.03L22 35.32V12.54c1.66-1.6 3.76-3.42 5.88-5.48A.22.22 0 0 1 28 7v34.03Z" fill="#008BD1"/><path d="M34 35.33c-1.44 1.4-2.93 2.84-4.46 4.29-.46.43-.9.88-1.31 1.35-.04.05-.08.07-.12.07-.05 0-.06.03-.11 0V7l5.83 5.52c.1.1.17.24.17.38v22.43Z" fill="#2AC5F4"/><path d="m20 33.75-3-3.07V17.52l3-2.9v19.13Z" fill="#1B75BC"/><path d="m36 33.87-2 1.46V15.88c.57-.47 1.53-.87 2-1.2v19.2Z" fill="#0057A8"/><path d="m36 14.66 2.83 2.82c.05.05.08.1.1.16.03.06.07.12.07.19v13.12l-3 2.92V14.66Z" fill="#009EE2"/><path d="m20 14.62 2 1.67v18.98c-.88-.49-1.58-1-2-1.52V14.62Z" fill="#214099"/><path d="M17 25.08c-.77.73-1.82 2.21-2.54 2.92H10l7-7v4.08ZM39 20.62c2.45 2.37 4.5 4.69 6.86 6.97.13.12.17.35.12.41H41.6L39 24.73v-4.1Z" fill="#58595B"/><path d="M14.46 28c4.47 4.37 9 8.64 13.5 13 .05.03.1.04.15.04.04 0 .08-.02.12-.07.42-.47.85-.92 1.31-1.35 4.04-3.84 8.05-7.73 12.04-11.62h4.4c-5.94 5.81-11.96 11.56-17.95 17.32-6-5.77-11.88-11.7-18.03-17.32h4.46Z" fill="#808285"/><path d="M20 37.46v4.63l-2.84-2.8a.64.64 0 0 1-.16-.43V34.6l3 2.86Z" fill="#1B75BC"/><path d="M39 34.63v4.3a.51.51 0 0 1-.14.35l-2.67 2.78a.13.13 0 0 1-.14.03c-.05-.02-.06-.03-.04-.05L36 37.6l3-2.96Z" fill="#009EE2"/><path d="M36 37.6v4.44l-2-1.28v-1.2l2-1.95Z" fill="#0057A8"/><path d="m20 37.46 2 1.97v1.3L20 42v-4.54Z" fill="#214099"/><path d="M34.02 39.56v1.2l-.03 2.42c0 .16-.07.3-.18.41L28.21 49H28v-3.68l6.02-5.76Z" fill="#2AC5F4"/><path d="m22 39.43 6 5.85V49h-.1l-5.66-5.44c-.1-.1-.24-.27-.24-.41v-3.72Z" fill="#008BD1"/></svg>