<!-- by TradingView --><svg width="56" height="56" viewBox="0 0 56 56" xmlns="http://www.w3.org/2000/svg"><path fill="#F0F3FA" d="M0 0h56v56H0z"/><path d="M33 36V26c-.01 0 0 0 0 0h1.5c2.94.04 4.82 2.29 5.42 4.97.07.3.08.6.08.95A153627.67 153627.67 0 0 1 39.98 43a113239.39 113239.39 0 0 0-13.75-.02 15.44 15.44 0 0 1-12.66-8.33 14.72 14.72 0 0 1 4.35-18.45c2.31-1.74 4.9-2.77 7.76-3.1.46-.05.9-.06 1.33-.09l.66-.01h12.31a.02.02 0 0 1 .02.02v.95c0 .25-.02.48-.05.68A6.5 6.5 0 0 1 33.19 20h-6.05c-1.8 0-3.7.66-5.13 1.74a8.29 8.29 0 0 0-2.97 6.98c.12 1.28.56 2.8 1.3 3.84.58.83 1.3 1.51 2.15 2.07a8.37 8.37 0 0 0 4.18 1.34c.15 0 .37.03.68.03H33Z" fill="#080500"/></svg>