<!-- by TradingView --><svg width="56" height="56" viewBox="0 0 56 56" xmlns="http://www.w3.org/2000/svg"><path fill="#F0F3FA" d="M0 0h56v56H0z"/><path d="m33.83 13.22.1.46c.31.93.18 1.94.16 2.6-.12 1.03-.54 3.06-1.55 4.24-1.32 2.28-4.4 4.67-5.2 6.63-.82-.45-2.05-.4-2.94-.36-.3.02-.4.17-.4.46v4.9c-.37-.59-.71.14-1.1.18a.34.34 0 0 1-.26-.08c.03-.86.04-1.72.03-2.58 0-.29-.2-.42-.55-.4 0-.14.01-1.2.1-1.26.1.09.2.13.3.14.07 0 .1-.03.12-.09.05-.24.1-.68-.1-.87a.8.8 0 0 0-.23-.18c.18-.27.3-.64.37-1.12l.03.04h.04c.04-.03.04-.07 0-.13 1.05-5.17 6.02-6.46 5.62-13.16-.03-.53-.34-3.78-.73-4.6.4-.09.7-.03.88.16 1.68 1.78 3.49 3.4 5.31 5.02Z" fill="#2E5F8E"/><path d="M27.64 8.04c.16.1.24.26.26.49.02-.03.04 0 .05.1l.1.37.13.33a18.05 18.05 0 0 1 .52 3.1c.35 5.99-4.6 9.29-6.31 14.62a4.17 4.17 0 0 0-3.6.15c.2-1.44.5-2.67.86-3.7.63-1.76 1.18-3.2 1.46-4.64.27-1.38.52-3.33-.2-4.53a71.17 71.17 0 0 0 6.74-6.3Z" fill="#068CCC"/><path d="M20.9 14.33c.07.07.1.13.13.19l.07.07.04.12.04.14.13.31c0 .05.01.08.03.12a.3.3 0 0 1 0 .19c.1.6.1 1.2.02 1.82v.21l-.02.06-.04.39-.19.91c-.28 1.44-.83 2.88-1.46 4.63a19.36 19.36 0 0 0-.86 3.71 3.21 3.21 0 0 0-1.14 3.05c.13.96.6 1.67 1.44 2.13 1.83 6.49 7.05 9.77 13.47 11.41l.26.03c.33.04.53.13.58.28-1.54.5-3.11.8-4.71.9h-1.57a17.71 17.71 0 0 1-12.1-5.6c-4.32-4.58-5.39-11.13-2.07-16.57.9-1.49 2.05-2.93 3.45-4.31a72.14 72.14 0 0 1 4.5-4.2Z" fill="#06CFFD"/><path d="m37.62 21.5-.64-1.34c.3.95.5 1.91.61 2.9l.05 1.25c0 .77-.09 1.56-.25 2.36l-2.67-.13c-1.82-.13-3.69-.1-5.53-.08l-1.14.02a.25.25 0 0 1-.17-.06.47.47 0 0 1-.11-.15l.45-.72.08-.13.38-.5.09-.1 1.85-1.84a.37.37 0 0 0 .06-.1c.06-.04.1-.1.13-.16l.04-.03a.65.65 0 0 0 .18-.2l.36-.41.06-.08c.17-.15.31-.33.42-.54a.44.44 0 0 0 .12-.13l.55-.81.08-.16a.32.32 0 0 0 .08-.1l.08-.16.16-.23.14-.3a9.66 9.66 0 0 0 1.02-3.3V14.88l-.01-.37-.14-.69-.02-.14-.1-.46c3.22 2.73 6.42 5.59 8.87 9.01a12.98 12.98 0 0 1 2.3 6.75 5.54 5.54 0 0 0-2.16-1.29c-1.47-.44-3-.75-4.58-.92a9.48 9.48 0 0 0-.64-5.27Z" fill="url(#a)"/><path d="M22.22 28.01c-.05.03-.05.07 0 .13 0 .06 0 .12-.03.18l-.07.95h-1.67c-.18 0-.27.09-.27.26v.39c0 .15.08.23.24.23h.81c.16 0 .24.08.24.23v.96c0 .18-.09.28-.27.31-1.21.17-1.97-.24-2.25-1.21-.11-.37-.14-.76-.08-1.16.25-1.73 2.03-1.96 3.35-1.27Z" fill="#068CCC"/><path d="m25.25 27.76.02-.05a.07.07 0 0 1 .06-.02h.55c.23 0 .45.1.62.26.16.16.25.4.25.63v.2a.9.9 0 0 1-.25.63.87.87 0 0 1-.62.26h-.55c-.02 0-.04 0-.06-.02a.08.08 0 0 1-.02-.06v-1.83Z" fill="#1F5386"/><path d="M34.54 26.78c-.42-.01-.68.1-.78.34l-1.4 3.65c-.05.12-.1.12-.14 0l-1.34-3.57c-.2-.51-1.31-.45-1.76-.4-.3.03-.44.2-.43.51v5c0 .19.1.28.28.28h.71c.19 0 .32-.09.32-.27v-4.4l.01-.03h.05c.01 0 .02 0 .03.02l1.53 4.47c.02.05.05.1.1.13.04.04.1.06.15.06l.53.04c.13 0 .24-.03.34-.08a.19.19 0 0 0 .1-.11l1.65-4.5c.07-.18.1-.17.1.02v4.42a.23.23 0 0 0 .07.17.24.24 0 0 0 .17.06h.56c.08 0 .1.04.08.1a10.01 10.01 0 0 0-.18 5.93l.72 1.88c.01.02.02.02.04.02.01 0 .02-.02.01-.04-.67-2.64-.55-5.26.34-7.85l1.4-3.99c.12-.31.27-.94.46-1.87 1.59.17 3.11.48 4.58.92.81.26 1.53.7 2.15 1.29.03 1.01-.04 1.96-.21 2.83a14.91 14.91 0 0 1-3.9 7.5 17.81 17.81 0 0 1-6.62 4.48l-.64.23a.16.16 0 0 0-.08-.12.42.42 0 0 0-.2-.13.31.31 0 0 0-.27-.16c-.04-.03-.05-.05 0-.04l-.8-.56-.54-.46a.24.24 0 0 0-.1-.09.4.4 0 0 0-.2-.15l-1.13-1.1a.82.82 0 0 0 .01-.05 14.21 14.21 0 0 1-3.88-10.66c.83-.19 1.34-.66 1.52-1.4a1.8 1.8 0 0 0-.61-1.95l.04-.14a.24.24 0 0 0 .04-.11.3.3 0 0 0 .1-.17l.08-.16c.06-.07.12-.17.17-.3.03.07.07.12.11.15.04.04.1.06.17.06l1.14-.02c1.84-.03 3.71-.05 5.53.08l2.67.13c-.12.59-.21.98-.28 1.18-.37 1.13-.8 2.37-1.28 3.71v-4.25c0-.1-.16-.33-.23-.4a.4.4 0 0 0-.27-.12l-.79-.01Z" fill="url(#b)"/><path d="M26.43 30.5c-.3 3.95 1.2 7.74 3.88 10.66l-.01.04 1.13 1.11a.4.4 0 0 1 .2.15c.01.05.05.08.1.09l.55.46.07.15c-.1-.03-.2-.07-.29-.12a26.06 26.06 0 0 1-6.4-5.04 16.05 16.05 0 0 1-3.2-5.66l.18-.09c.07.06.16.09.27.08.38-.04.74-.79 1.1-.19-.05.4.33.55 1.1.41.1-.01.14-.07.14-.17v-1.72c0-.05.03-.08.08-.08l1.1-.08Z" fill="#1F5386"/><path d="M22.45 32.34c.76 2.09 1.67 4 3.21 5.66 1.86 2.01 4 3.69 6.4 5.04.09.05.15-.1.25-.06.28.25 1.09.7 1.23.92.04.03.07.07.08.12l-.22.08c-7.74-2.06-12.37-4.87-14.31-11.72 1.1.4 2.22.38 3.36-.04Z" fill="#068CCC"/><defs><linearGradient id="a" x1="36.38" y1="13.22" x2="36.38" y2="26.34" gradientUnits="userSpaceOnUse"><stop offset=".39" stop-color="#7FBE0B"/><stop offset="1" stop-color="#96C870"/></linearGradient><linearGradient id="b" x1="27.02" y1="31.33" x2="39.85" y2="33.28" gradientUnits="userSpaceOnUse"><stop stop-color="#9FD210"/><stop offset="1" stop-color="#429A02"/></linearGradient></defs></svg>