<!-- by TradingView --><svg width="56" height="56" viewBox="0 0 56 56" xmlns="http://www.w3.org/2000/svg"><path fill="#F0F3FA" d="M0 0h56v56H0z"/><path d="M8 38V18h39.86c.1 0 .14.05.14.15v19.72c0 .08-.04.12-.12.12L8 38Z" fill="#390"/><path d="m45 30.23-1.64.07-1.85-.57a.26.26 0 0 0-.18 0l-1.53.58-1.54.03c-.46-.15-.97-.2-1.5-.14 0-.1-.05-.14-.13-.15-.39-.3-.68-.58-.9-.85-.81-1.05.58-1.94 1.35-2.22.02 0 .03-.02.05-.03a.15.15 0 0 0 .04-.12l-.01-.06c-.36-.74-.68-1.73-.01-2.32.6-.53 1.56-.15 2.24.22a.1.1 0 0 0 .12-.03 3.7 3.7 0 0 1 .63-1.32c1.18-1.38 2.1.24 2.44 1.33.02.09.08.11.15.07.74-.35 1.62-.82 2.26-.19.58.57.34 1.47.04 2.17-.04.07-.02.12.06.14.39.13.77.31 1.13.53.68.43 1.2 1.3.44 2-.47.45-1.02.74-1.66.86Z" fill="#326101"/><path d="M42.37 25.38a6.9 6.9 0 0 1-.16 2.7c-.06.25-.13.25-.2 0a5.2 5.2 0 0 0-2.08-2.9l-.06-.06a.22.22 0 0 1-.07-.22c.12-.62.4-1.36.93-1.67.99-.58 1.55 1.55 1.64 2.15Z" fill="#BFFF00"/><path d="M39.87 25.35c.72.6 1.28 1.29 1.68 2.07.1.19.06.23-.11.12a4.92 4.92 0 0 0-3.63-.61c-.1-.02-.16-.04-.19-.08-.41-.52-.97-1.89-.08-2.25.7-.27 1.7.4 2.33.75ZM41.68 29.46a4.9 4.9 0 0 0 .85-1.76c.15-.73.17-1.52.06-2.4.86-.76 2.95-1.3 2.28.78a5.27 5.27 0 0 1-3.19 3.38Z" fill="#BFFF00"/><path d="M42.37 25.38a.2.2 0 0 0 .22-.08c.11.88.1 1.67-.06 2.4a4.9 4.9 0 0 1-.85 1.76.7.7 0 0 0-.17-.28c.44-.63.34-1.12-.29-1.5a4.6 4.6 0 0 0-3.48-.51l-.02-.17.01-.04c0-.02.02-.03.03-.03.06-.04.07-.04.05 0a4.92 4.92 0 0 1 3.63.6c.17.11.2.08.11-.1a6.63 6.63 0 0 0-1.68-2.08c.06-.05.08-.1.06-.18a5.2 5.2 0 0 1 2.08 2.9c.07.26.14.26.2 0a6.9 6.9 0 0 0 .16-2.69Z" fill="#390"/><path d="M41.52 29.18a4.98 4.98 0 0 1-4.52.51c-.77-.26-1.86-1.15-.74-1.94.45-.31.94-.5 1.48-.58a4.6 4.6 0 0 1 3.48.5c.63.39.73.88.3 1.5ZM44.62 27.24a.16.16 0 0 1 .16-.07c.6.1 1.1.33 1.52.67 1 .82-.04 1.63-.83 1.85a5.8 5.8 0 0 1-3.24-.03c-.21-.06-.22-.13-.01-.22a5.9 5.9 0 0 0 2.4-2.2Z" fill="#BFFF00"/><path d="M25.5 35.1c.9 0 1.5-.57 1.5-1.46V30.1c0-.06.05-.1.12-.1h.76c.07 0 .1.04.1.1.02 1.04.02 2.09 0 3.15 0 .76-.09 1.29-.23 1.59-.42.85-1.33 1.16-2.25 1.16-.93 0-1.84-.32-2.25-1.16-.14-.3-.22-.83-.24-1.6-.01-1.05-.01-2.1 0-3.14 0-.07.04-.1.11-.1h.78c.07 0 .1.03.1.1v3.54c0 .9.6 1.45 1.5 1.45ZM29.91 30h-.82c-.05 0-.09.04-.09.1v5.8c0 .06.04.1.09.1h.82c.05 0 .09-.04.09-.1v-5.8c0-.06-.04-.1-.09-.1ZM35.87 30c.1 0 .13.06.13.15l-.02.71c0 .04-.01.08-.04.1a.14.14 0 0 1-.1.04h-1.7c-.1 0-.14.05-.14.14v4.74c0 .08-.04.12-.12.12h-.78c-.07 0-.1-.03-.1-.1v-4.74c0-.1-.1-.16-.2-.16h-1.66c-.1 0-.14-.04-.14-.14v-.73a.13.13 0 0 1 .04-.1.13.13 0 0 1 .1-.03h4.73ZM11.08 31c-.05 0-.08.03-.08.08v1.3c0 .07.04.1.1.1h4.6c.09 0 .14-.03.16-.12.47-1.66 1.53-2.5 3.17-2.53.98-.02 1.94.56 2.5 1.39.69 1.05.71 2.2.07 3.44-.04.08-.02.13.06.17a2.48 2.48 0 0 0 1.13.2.1.1 0 0 1 .06.08v.92a.1.1 0 0 1-.1.1c-.67.05-1.3-.11-1.9-.5a.18.18 0 0 0-.2 0c-1.99 1.22-4.17.21-4.78-2.02-.03-.08-.09-.13-.18-.13h-4.6c-.06 0-.09.03-.09.1v1.35c0 .05.03.07.08.07h3.81c.07 0 .11.05.11.11v.77c0 .06-.04.12-.1.12h-4.82c-.02 0-.04-.04-.05-.05-.01-.01-.03-.03-.03-.05v-5.75c0-.1.06-.15.15-.15h4.75c.06 0 .1.04.1.1v.79c0 .03-.01.06-.03.08a.1.1 0 0 1-.08.03h-3.81ZM45 30.23l-2.92 2.78a.27.27 0 0 0-.08.2v2.66c0 .09-.04.13-.12.13h-.75a.13.13 0 0 1-.1-.04.13.13 0 0 1-.03-.1V33.2a.32.32 0 0 0-.1-.23l-2.64-2.63 1.54-.03 1.58 1.68a.1.1 0 0 0 .15 0l1.83-1.7 1.64-.06Z" fill="#fff"/><path d="M19.71 31.1c1.1.46 1.46 1.64 1.08 2.75a.12.12 0 0 1-.08.07.11.11 0 0 1-.1-.02 6.18 6.18 0 0 0-3.54-1.49.12.12 0 0 1-.04-.15c.5-1.05 1.58-1.63 2.68-1.17ZM18.56 33.92a4.75 4.75 0 0 1 1.27.8.11.11 0 0 1-.01.1.1.1 0 0 1-.05.04c-.56.22-1.1.22-1.6 0a2.1 2.1 0 0 1-1.12-1.15.1.1 0 0 1 .1-.15c.48.04.95.16 1.4.36Z" fill="#BFFF00"/></svg>