<!-- by TradingView --><svg width="56" height="56" viewBox="0 0 56 56" xmlns="http://www.w3.org/2000/svg"><path fill="#F0F3FA" d="M0 0h56v56H0z"/><path d="M37.91 14.91a1045.4 1045.4 0 0 0-9.38-4.48c-.39-.2-.61-.31-1.1-.07-3.66 1.8-7.88 3.85-12.66 6.12a.58.58 0 0 0-.32.4l-3.2 14.04a.49.49 0 0 0 .1.41l3.44 4.24a.06.06 0 0 0 .04.02.06.06 0 0 0 .05-.02l1.91-2.01c.36-.36.7-.77 1.02-1.18.37-.47.74-.93 1.15-1.31.42-.4.4-.83.26-1.28a12.9 12.9 0 0 1-.6-2.54.14.14 0 0 0-.13-.13l-4.3-.08c-.46 0-.5-.14-.11-.39l2.72-1.76a.15.15 0 0 0 .03-.23c-.14-.13-.3-.22-.47-.3-.15-.1-.3-.17-.41-.28a5.13 5.13 0 0 0-.8-.67c-.31-.21-.62-.58-.84-.84l-.05-.06c-.16-.19-.12-.26.13-.21l3.54.68a.2.2 0 0 0 .17-.05.2.2 0 0 0 .06-.16 8 8 0 0 1 0-1.73c.02-.16.02-.3 0-.42-.02-.2-.07-.33-.13-.4-.57-.61-2.57-3.05-1.24-3.79 1.03-.57 2.57-.5 3.7-.33a.05.05 0 0 1 .04.04.05.05 0 0 1-.02.05c-1.31.98-2 2.32-2.08 4.02a.41.41 0 0 0 .12.31l2.35 2.34a.31.31 0 0 0 .36.06c.63-.3 1.27-.5 1.94-.59a.5.5 0 0 0 .38-.27c1.22-2.43 3.25-2.66 5.48-1.42.52.3.9.51 1.14.67.38.24.35.33-.1.27a14.72 14.72 0 0 0-5.97.37c-.21.06-.42.11-.5.35-.18.56-.34 1.22-.48 1.96-.01.08.02.13.08.17.37.18.69.31.96.39.57.17.91.33 1.43.57l.35.16c.64.3 1.16.27 1.86.25h.12c1.57-.07 3.08.29 4.54 1.06a4.95 4.95 0 0 1 2.67 3.9c.01.06-.01.07-.07.03a64.87 64.87 0 0 0-2.6-1.92 35.15 35.15 0 0 0-4.37-2.27c-.7-.31-1.21-.5-1.54-.59a.39.39 0 0 0-.18 0l-2.37.53c-.22.05-.27.16-.16.35.08.14.17.24.27.35.1.11.2.23.3.4.34.56.67 1.14.98 1.72.3.56.59.7 1.1.96l.1.04a8.2 8.2 0 0 1 4.02 4.9 5.22 5.22 0 0 1-1.57 5.77c-.15.12-.23.09-.23-.1 0-.78-.08-1.5-.22-2.16-.4-1.96-.99-3.9-1.75-5.81a130.9 130.9 0 0 0-1.02-2.54c-.1-.23-.27-.4-.5-.52-1.48-.75-2.7-1.38-3.66-1.91a.1.1 0 0 0-.07-.01.1.1 0 0 0-.06.04l-1.7 2.33a.5.5 0 0 0-.1.32c.14 3.02-.18 5.72-2.24 8.06a.14.14 0 0 0 0 .18l3.07 3.78c.04.05.09.08.15.08l13.74-.05h1a.2.2 0 0 0 .16-.08l9.25-11.52c.03-.05.02-.1-.02-.14L41.66 17.3a1.06 1.06 0 0 1-.02-.3c0-.19.01-.31-.3-.48a41.96 41.96 0 0 0-3.43-1.62Z" fill="url(#a)"/><path d="M19.99 22.75a2.28 2.28 0 0 0-.75-.66c-.27-.1-.44-.01-.5.26l-.1.46c-.06.22.03.36.25.43a2.57 2.57 0 0 0 1.43 0 .09.09 0 0 0 0-.14c-.11-.1-.22-.23-.33-.35Z" fill="url(#b)"/><path d="M22.68 24.13a.18.18 0 0 0 .07-.12l.08-.71a.18.18 0 0 0-.16-.2l-.05-.01a2.17 2.17 0 0 0-.86.06c-.24.07-.38.2-.4.34 0 .07.02.15.07.22a.8.8 0 0 0 .24.2c.1.06.23.12.37.16l.46.1h.04c.05 0 .1-.01.14-.04Z" fill="url(#c)"/><path d="M17.86 23.41c.28.03.39.2.32.53-.07.32-.33.5-.77.56-.07 0-.12-.01-.16-.06l-.94-.93a.11.11 0 0 1-.03-.06c-.03-.19.06-.27.28-.24l.6.1.7.1Z" fill="url(#d)"/><path d="M19.21 25.9c.16.05.26.08.4.24.34.43.76.4 1.24.35l.26-.02c.27-.01.52-.05.73-.12.06-.02.1-.06.12-.12l.23-.62a.25.25 0 0 0 0-.18 1.83 1.83 0 0 0-1.25-1.2l-.32-.1c-.31-.1-.67-.22-.97-.14-.24.07-.5.17-.79.3a.17.17 0 0 0-.1.16c-.04.46.02.87.16 1.25.03.06.07.11.14.14l.15.05Z" fill="url(#e)"/><path d="m24.75 25.57-1.8-.78a.91.91 0 0 0-.01.73.96.96 0 0 0 .51.52l.04.01c.23.1.5.11.73.02a.93.93 0 0 0 .53-.5Z" fill="url(#f)"/><path d="M16.52 26.44a.2.2 0 0 1-.16-.15c0-.02-.01-.05 0-.07v-.03c.04-.28.19-.53.4-.7.23-.16.5-.23.77-.2h.02a1 1 0 0 1 .68.42 1.05 1.05 0 0 1 .18.78v.03a.2.2 0 0 1-.15.16.2.2 0 0 1-.08 0l-1.66-.24Z" fill="url(#g)"/><path d="M21.94 27.6c.03.05.07.09.13.1l1.23.36a.23.23 0 0 0 .28-.15l.01-.03a1 1 0 0 0-.05-.7.8.8 0 0 0-.5-.43l-.05-.02a.77.77 0 0 0-.33-.02.85.85 0 0 0-.31.12 1.04 1.04 0 0 0-.42.57l-.01.03a.22.22 0 0 0 .02.17Z" fill="url(#h)"/><path d="m20.31 28.74.04-.02.72-.94a.06.06 0 0 0 .02-.04.06.06 0 0 0-.03-.04l-.24-.19a3.04 3.04 0 0 0-.98-.51c-.3-.08-.53-.06-.63.07l-.03.04c-.05.07-.07.16-.05.26.01.1.06.23.14.36.08.14.18.28.31.41.13.14.28.28.44.4l.25.19h.04Z" fill="url(#i)"/><path d="M45.96 31.4a.14.14 0 0 0 .04-.13l-3.42-15.04a.82.82 0 0 0-.5-.58c-.79-.32-1.5-.65-2.16-.97-2.3-1.16-4.96-2.42-8.48-4.1l-2.85-1.36c-.6-.28-.81-.3-1.37-.03l-1.16.6-1.4.73c-3 1.43-6.62 3.17-10.86 5.23-.23.1-.37.3-.43.57a749.84 749.84 0 0 1-3.36 14.95.45.45 0 0 0 .09.38l9.81 12.08a.72.72 0 0 0 .57.27h15.08c.7 0 .9-.34 1.14-.74.09-.13.18-.28.3-.43.53-.65 1.05-1.42 1.57-2.08l7.4-9.35Zm-7.46 8.87c-.84 1.03-1.64 2.01-2.43 3.02a.32.32 0 0 1-.1.1c-.05.02-.28.08-.33.08H20.52a.5.5 0 0 1-.4-.2l-9.47-11.66a.39.39 0 0 1-.09-.23c0-.3.02-.58.1-.88.25-1.03 1.2-5.24 2.84-12.63.1-.43.18-.86.23-1.27.03-.2.13-.35.3-.45.24-.14.57-.3.99-.5a281 281 0 0 0 4.34-2.08c1.28-.63 2.54-1.24 3.94-1.9 1.38-.65 2.56-1.22 3.55-1.73l.19-.1c.4-.2.7-.37 1.1-.26.56.15 1.38.57 2.04.92l.78.4a682.43 682.43 0 0 1 7.61 3.5l1.54.73c.46.22 1.02.45 1.7.68a.68.68 0 0 1 .44.52 186.3 186.3 0 0 0 3.13 13.94l.14.53c.04.14.03.34-.03.6 0 0-4.96 6.38-6.99 8.87Z" fill="url(#j)"/><defs><linearGradient id="a" x1="11.62" y1="29.71" x2="45.17" y2="30.88" gradientUnits="userSpaceOnUse"><stop stop-color="#CE3A20"/><stop offset="1" stop-color="#E1851E"/></linearGradient><linearGradient id="b" x1="11.62" y1="29.71" x2="45.17" y2="30.88" gradientUnits="userSpaceOnUse"><stop stop-color="#CE3A20"/><stop offset="1" stop-color="#E1851E"/></linearGradient><linearGradient id="c" x1="11.62" y1="29.71" x2="45.17" y2="30.88" gradientUnits="userSpaceOnUse"><stop stop-color="#CE3A20"/><stop offset="1" stop-color="#E1851E"/></linearGradient><linearGradient id="d" x1="11.62" y1="29.71" x2="45.17" y2="30.88" gradientUnits="userSpaceOnUse"><stop stop-color="#CE3A20"/><stop offset="1" stop-color="#E1851E"/></linearGradient><linearGradient id="e" x1="11.62" y1="29.71" x2="45.17" y2="30.88" gradientUnits="userSpaceOnUse"><stop stop-color="#CE3A20"/><stop offset="1" stop-color="#E1851E"/></linearGradient><linearGradient id="f" x1="11.62" y1="29.71" x2="45.17" y2="30.88" gradientUnits="userSpaceOnUse"><stop stop-color="#CE3A20"/><stop offset="1" stop-color="#E1851E"/></linearGradient><linearGradient id="g" x1="11.62" y1="29.71" x2="45.17" y2="30.88" gradientUnits="userSpaceOnUse"><stop stop-color="#CE3A20"/><stop offset="1" stop-color="#E1851E"/></linearGradient><linearGradient id="h" x1="11.62" y1="29.71" x2="45.17" y2="30.88" gradientUnits="userSpaceOnUse"><stop stop-color="#CE3A20"/><stop offset="1" stop-color="#E1851E"/></linearGradient><linearGradient id="i" x1="11.62" y1="29.71" x2="45.17" y2="30.88" gradientUnits="userSpaceOnUse"><stop stop-color="#CE3A20"/><stop offset="1" stop-color="#E1851E"/></linearGradient><linearGradient id="j" x1="11.62" y1="29.71" x2="45.17" y2="30.88" gradientUnits="userSpaceOnUse"><stop stop-color="#CE3A20"/><stop offset="1" stop-color="#E1851E"/></linearGradient></defs></svg>