<!-- by TradingView --><svg width="56" height="56" viewBox="0 0 56 56" xmlns="http://www.w3.org/2000/svg"><path fill="#F0F3FA" d="M0 0h56v56H0z"/><path d="M14.66 36s1.26 2 3.48 2h5.02c-.83-1.49-2.6-4.71-3.92-7.03l-.43-.8s-.9-1.99 0-3.83c.23-.55.43-.87.43-.87l6.26-11.1c1.31-2.34 3.55-2.37 3.55-2.37h-7.59s-1.9.08-3.32 2.45a672.12 672.12 0 0 0-6.65 11.84s-1.2 1.89.16 4.34l2.73 4.87.3.53-.02-.03Z" fill="url(#a)"/><path d="M25.5 14.18 23.16 18h18.38l-3.65-6h-8.84s-2.24 0-3.55 2.18Z" fill="url(#b)"/><path d="M18.14 38c-2.22 0-3.68-2.35-3.68-2.35l-.31-.52c1.88 3.29 4.09 6.76 4.09 6.76S19.3 44 22.08 44H34v-6H18.14Z" fill="url(#c)"/><path d="M45.27 25.03H28.73L27 28.23 28.7 31H34v13h3.86S40 44 40 41.83V31h5.3l1.7-2.8-1.73-3.2v.03Z" fill="url(#d)"/><defs><linearGradient id="a" x1="20.04" y1="37.15" x2="20.04" y2="19.21" gradientUnits="userSpaceOnUse"><stop stop-color="#1866A4"/><stop offset=".2" stop-color="#1D7DB9"/><stop offset=".5" stop-color="#2296CF"/><stop offset=".8" stop-color="#25A4DC"/><stop offset="1" stop-color="#27AAE1"/></linearGradient><linearGradient id="b" x1="23.16" y1="15.01" x2="41.54" y2="15.01" gradientUnits="userSpaceOnUse"><stop stop-color="#1866A4"/><stop offset=".2" stop-color="#1D7DB9"/><stop offset=".5" stop-color="#2296CF"/><stop offset=".8" stop-color="#25A4DC"/><stop offset="1" stop-color="#27AAE1"/></linearGradient><linearGradient id="c" x1="32.89" y1="39.51" x2="16.36" y2="39.51" gradientUnits="userSpaceOnUse"><stop stop-color="#1866A4"/><stop offset=".2" stop-color="#1D7DB9"/><stop offset=".5" stop-color="#2296CF"/><stop offset=".8" stop-color="#25A4DC"/><stop offset="1" stop-color="#27AAE1"/></linearGradient><linearGradient id="d" x1="36.99" y1="43.14" x2="36.99" y2="26.19" gradientUnits="userSpaceOnUse"><stop stop-color="#1866A4"/><stop offset=".2" stop-color="#1D7DB9"/><stop offset=".5" stop-color="#2296CF"/><stop offset=".8" stop-color="#25A4DC"/><stop offset="1" stop-color="#27AAE1"/></linearGradient></defs></svg>