<!-- by TradingView --><svg width="56" height="56" viewBox="0 0 56 56" xmlns="http://www.w3.org/2000/svg"><path fill="#F0F3FA" d="M0 0h56v56H0z"/><path d="M31.2 24.16c-.1-.1-.29-.29-.55-.58a4.72 4.72 0 0 0-.54-.47c-.07-.05-.09-.14-.05-.25a32.23 32.23 0 0 1 9.73-1.84c4.9-.17 11.81 1.38 12.2 7.57.02.17-.02.18-.1.03-2.56-4.6-8.8-5.67-13.5-5.5-2.43.09-4.83.43-7.19 1.04ZM25.01 24.9l.23 1.28-3.73 2.07v-1.2c1.2-.8 2.16-1.52 3.5-2.15ZM29.88 24.37l-3.2 1.13c-.19-.78 0-1.35.55-1.69.97-.59 1.85-.4 2.65.56Z" fill="#EE2127"/><path d="M31.2 23.9c.17.21.16.4-.05.54l-.92.68a.15.15 0 0 1-.11.03.16.16 0 0 1-.1-.06l-.53-.71c-.7-.82-1.48-.98-2.33-.48-.5.3-.65.77-.49 1.45.2.59.58 1.08 1.16 1.48 1 .7 1.85 1.4 2.53 2.12 1.28 1.35 1.64 3.3.32 4.82A3.38 3.38 0 0 1 28 35c-1.84-.02-2.9-1.18-3.74-2.72a.11.11 0 0 1 0-.09.11.11 0 0 1 .05-.06l1.16-.7c.07-.04.12-.02.15.04.54 1.1 1.4 2.16 2.71 1.9 1.36-.27 2.01-1.79 1.11-2.92a9.24 9.24 0 0 0-1.41-1.4c-1.44-1.16-2.3-1.7-2.88-3.03-.57-1.82.4-3.78 2.69-4 1.85-.19 2.74 1.15 3.37 1.89ZM15.17 30.92c.22-.33 1-.54 1.32-.52.02 0-.02.31 0 .33a.1.1 0 0 1 .02.07v1.16c.02.63-.55.96-1 1.37a6.17 6.17 0 0 1-9.12-.76 6.58 6.58 0 0 1 2.45-10.03c3.8-1.67 7.83.73 8.7 4.82a.12.12 0 0 1-.03.1.11.11 0 0 1-.09.04H15.9a.1.1 0 0 1-.1-.06c-.1-.21-.16-.5-.24-.69-1.09-2.58-3.89-3.7-6.36-2.4a4.71 4.71 0 0 0-2.4 4.8c.06.6.24 1.15.53 1.67 1.78 3.16 5.9 3.1 7.85.1ZM21.53 34.9a.1.1 0 0 1-.03.07.1.1 0 0 1-.07.03h-1.3a.1.1 0 0 1-.07-.03c-.02-.02-.06-.05-.06-.08V23.64l.02-.02a.07.07 0 0 0-.06-.05H16.8c-.1 0-.14-.04-.14-.14v-1.32c0-.03.01-.06.04-.08a.1.1 0 0 1 .07-.03h8.1c.04 0 .07.01.1.04.02.02.03.06.03.09v1.31c0 .1-.04.14-.13.14h-3.25c-.02 0-.04 0-.06.02a.08.08 0 0 0-.02.06V34.9Z" fill="#2E3591"/><path d="M20 27.92v1.12l-1.66 1.18c-.16.12-.25.08-.25-.13v-.56c0-.2.09-.37.25-.49L20 27.92ZM17.92 29.05c.04.04.08.07.08.1v5.73c0 .08-.04.12-.11.12h-1.3c-.08 0-.12-.04-.12-.13v-3.9c0-.1.01-.32-.04-.37-.05-.05-.18-.02-.3-.01h-4c-.08 0-.12-.05-.12-.13L12 29.12c0-.07.04-.11.12-.11l5.71-.01c.03 0 .06.02.1.05Z" fill="#EE2127"/></svg>