<!-- by TradingView --><svg width="56" height="56" viewBox="0 0 56 56" xmlns="http://www.w3.org/2000/svg"><path fill="#F0F3FA" d="M0 0h56v56H0z"/><path fill-rule="evenodd" d="M28 45a17 17 0 1 0 0-34 17 17 0 0 0 0 34Zm-7.3-7.3a1.66 1.66 0 1 0 0-3.32 1.66 1.66 0 0 0 0 3.32Zm13.07-1.66a1.66 1.66 0 1 0 3.31 0 1.66 1.66 0 0 0-3.31 0Zm-9.29-2.13a1.66 1.66 0 1 0 0-3.32 1.66 1.66 0 0 0 0 3.32Zm5.5-1.66a1.66 1.66 0 1 0 3.31 0 1.66 1.66 0 0 0-3.31 0Zm-9.29 1.66a1.66 1.66 0 1 0 0-3.32 1.66 1.66 0 0 0 0 3.32Zm13.08-1.66a1.66 1.66 0 1 0 3.31 0 1.66 1.66 0 0 0-3.31 0Zm-9.29-2.13a1.66 1.66 0 1 0 0-3.32 1.66 1.66 0 0 0 0 3.32Zm5.5-1.66a1.66 1.66 0 1 0 3.31 0 1.66 1.66 0 0 0-3.31 0Zm-9.29 1.66a1.66 1.66 0 1 0 0-3.32 1.66 1.66 0 0 0 0 3.32Zm13.08-1.66a1.66 1.66 0 1 0 3.31 0 1.66 1.66 0 0 0-3.31 0Zm-9.29-2.13a1.66 1.66 0 1 0 0-3.32 1.66 1.66 0 0 0 0 3.32Zm5.5-1.66a1.66 1.66 0 1 0 3.31 0 1.66 1.66 0 0 0-3.31 0Zm-1.9-2.14a1.66 1.66 0 1 1 0-3.32 1.66 1.66 0 0 1 0 3.32Zm-1.68 5.93a1.66 1.66 0 1 0 3.32 0 1.66 1.66 0 0 0-3.32 0Zm-5.7-2.13a1.66 1.66 0 1 0 0-3.32 1.66 1.66 0 0 0 0 3.32Zm13.07-1.66a1.66 1.66 0 1 0 3.31 0 1.66 1.66 0 0 0-3.31 0Zm-9.29-2.13a1.66 1.66 0 1 0 0-3.32 1.66 1.66 0 0 0 0 3.32Zm5.5-1.66a1.66 1.66 0 1 0 3.31 0 1.66 1.66 0 0 0-3.31 0Zm-1.9-2.14a1.66 1.66 0 1 1 0-3.32 1.66 1.66 0 0 1 0 3.32Z" fill="#D9231F"/></svg>