<!-- by TradingView --><svg width="56" height="56" viewBox="0 0 56 56" xmlns="http://www.w3.org/2000/svg"><path fill="#F0F3FA" d="M0 0h56v56H0z"/><path d="M17.63 15.72a20.64 20.64 0 0 1 3.43-2.68V13h-.01l-.01-.01h-8.98c-.02 0-.03 0-.04.02a.06.06 0 0 0-.02.04v16.07a.04.04 0 0 0 .04.04h.02a13.68 13.68 0 0 0 1.2-1.1 6.73 6.73 0 0 0 1.72-3.97c.06-.51.1-1.14.12-1.79.02-.49.05-1 .09-1.48a7.43 7.43 0 0 1 2.45-5.1Zm13 1.04c2.95-1.14 6.58-2.44 10.05-3.66.08-.02.08-.06 0-.1h-.09l-4.9.01h-.47c-.43-.01-.97-.02-1.39 0-.26.01-.44.07-.71.17A125.6 125.6 0 0 0 22.5 17.3c-.62.28-1.23.59-1.85.93-.72.4-1.44.9-2.13 1.48a5.94 5.94 0 0 0-2.33 4.33l-.09 1.68a11.85 11.85 0 0 1-1.36 4.81 9.78 9.78 0 0 1-2.28 2.83 7.93 7.93 0 0 0-.44.42c-.02.1-.03.23-.03.38a320.6 320.6 0 0 1 .03 2.37c.65-.37 1.2-.72 1.68-1.04a6.7 6.7 0 0 0 2.51-2.94c.62-1.55.64-3.19.66-4.83l.01-.61c.02-.85.26-1.62.72-2.36.25-.39.5-.73.77-1.03a13.3 13.3 0 0 1 2.09-1.84 27.4 27.4 0 0 1 3.65-2.22c1.1-.56 1.8-.9 2.08-1.03 1.52-.7 3-1.32 4.43-1.88Zm13.32 2.59-2.1.73-2.44.85c-2.57.9-4.77 1.68-7.38 2.67a90.88 90.88 0 0 0-6.37 2.65c-.78.36-1.58.78-2.4 1.25-1.23.7-2.39 1.52-3.3 2.6a4.97 4.97 0 0 0-1.21 2.89 12.38 12.38 0 0 0-.05 1.25c.01.88.02 1.87-.16 2.76a4.88 4.88 0 0 1-1.86 2.8c-.43.34-.88.66-1.35.96a112.76 112.76 0 0 1-3.29 1.96l-.02-.01-.01-.02-.01-.02V40.7l.01-.04.04-.03a8.22 8.22 0 0 0 5.58-5.83 11.9 11.9 0 0 0 .46-3.24c.03-.83.05-1.43.19-2.19.22-1.2.81-2.21 1.78-3.06.83-.72 1.78-1.3 2.77-1.79 1.13-.57 2.32-1.1 3.55-1.6a132.02 132.02 0 0 1 6.67-2.5c1.08-.39 2.37-.81 3.23-1.1l.53-.18A222.2 222.2 0 0 1 44 16.89v2.4l-.01.03-.04.03ZM20.07 41.03a5.37 5.37 0 0 1-.82 1.67l-.08.1c-.05.06-.1.1-.12.15-.02.03 0 .05.03.05h24.88l.03-.01V24.27a.02.02 0 0 0-.01-.02h-.01l-.34.1a187.08 187.08 0 0 0-5.01 1.56l-1.26.4a179.56 179.56 0 0 0-10.8 3.92c-.57.23-1.25.53-2.03.9-.78.36-1.5.77-2.13 1.21a4.1 4.1 0 0 0-1.6 2.07 6.25 6.25 0 0 0-.26 1.72l-.09 2.57c-.03.8-.16 1.57-.38 2.33Z" fill="#221E51"/><path d="M29 35h6v1h-5v4h4v-1h-3v-1h4v3h-6v-6ZM36 35h6v1h-5v2h3v1h-3v1h5v1h-6v-6Z" fill="#F0F3FA"/></svg>