<!-- by TradingView --><svg width="56" height="56" viewBox="0 0 56 56" xmlns="http://www.w3.org/2000/svg"><path fill="#F0F3FA" d="M0 0h56v56H0z"/><path d="M36.7 10c.1 0 .15.02.16.07v.04l-6.32 10.91a.08.08 0 0 1-.13 0L24.05 10H36.7Z" fill="#C7C8CA"/><path d="M30.22 21.43H17.79c-.02 0-.07-.02-.14-.08l6.31-10.89c.07-.1.13-.1.19 0a9621.09 9621.09 0 0 0 6.2 10.64c.1.15.04.28-.13.33Z" fill="#B2B3B6"/><path d="M17.8 21.43c0 .04.01.07.05.07H30.2l-6.34 10.99a.78.78 0 0 1-.24-.22l-5.99-10.35a.72.72 0 0 0-.14-.21c0-.1.07-.21.17-.36.07.06.12.08.14.08Z" fill="#939598"/><path d="m17.62 21.92-.06.02-.11-.16c.03-.04.04-.07.03-.07.07.07.11.14.14.2Z" fill="#005E9D"/><path d="m17.45 21.78.11.16 5.99 10.35c.08.11.17.2.27.24 0 .25-.1.37-.3.35h-.14c-3.77-.02-7.54-.02-11.3-.01-.23 0-.65-.06-.97 0-.02.02-.05.01-.08 0-.02-.07-.01-.11 0-.14l6.29-10.83a.45.45 0 0 1 .13-.12Z" fill="#008FD5"/><path d="M11.1 32.88c.02.06.08.1.16.1a4551.32 4551.32 0 0 1 12.33 0 .09.09 0 0 1 .03.12l-6.24 10.79a.08.08 0 0 1-.14 0l-6.21-10.76c-.04-.06-.04-.15 0-.27.03.02.06.03.08.02Z" fill="#005E9D"/><path d="M30.37 43.78a.7.7 0 0 0-.02.22H17.73a.26.26 0 0 1-.06-.03c-.03-.02-.03-.04-.02-.07l6.3-10.88a.07.07 0 0 1 .1-.03l.02.03 6.15 10.6a.5.5 0 0 0 .15.16Z" fill="#008FD5"/><path d="M42.9 44H30.35c0-.08 0-.15.02-.22l6.21-10.73a.08.08 0 0 1 .07-.04.08.08 0 0 1 .07.04l6.27 10.84c.02.03.01.05-.01.06l-.08.05Z" fill="#8DD8F8"/></svg>