<!-- by TradingView --><svg width="56" height="56" viewBox="0 0 56 56" xmlns="http://www.w3.org/2000/svg"><path fill="#F0F3FA" d="M0 0h56v56H0z"/><path d="m43 42.96-.01.03-.03.01H13.04l-.03-.01-.01-.03V13.04l.01-.03.03-.01h29.92l.03.01.01.03v29.92ZM17.23 28.83c.03-.02.03-.01.02.02a9.94 9.94 0 0 0-.4 4.93 6.54 6.54 0 0 0 3.5 4.66c1.5.8 3.1 1.23 4.74 1.38 2.3.2 4.65-.32 6.77-1.29 1.2-.55 2.2-1.48 3.17-2.32.1-.09.1-.07.04.03a72.3 72.3 0 0 1-1.11 1.66c-.16.23-.42.5-.56.75-.15.3-.28.55-.46.8a45.95 45.95 0 0 0-1.15 1.73h.03l.24-.23c.55-.41 1-.8 1.36-1.15a5.45 5.45 0 0 1 1.05-.83c.07-.04.08-.03.02.03l-.71.77v.03h.04a11.83 11.83 0 0 0 2.32-2.02 14.8 14.8 0 0 0 2.56-3.75c.22-.46.47-1.04.74-1.73.42-1.08.68-2.34.26-3.43a.99.99 0 0 0-.35-.5 2.35 2.35 0 0 0-.9-.32c-.18-.04-.44-.03-.6-.04a1.9 1.9 0 0 0-.76.11c-.37.13-.7.26-1.01.4a49.5 49.5 0 0 0-3.97 2.15c-1.56.93-2.9 1.76-4.05 2.48-.12.08-.29.16-.38.2-.14.09-.16.19-.18.34 0 .09 0 .15.04.18.01.02.03.03.05.03.16.02.3 0 .43-.06.52-.22 1.03-.4 1.52-.54.11-.03.3-.15.58-.36.05-.04.22-.11.52-.22.03 0 .03 0 .02.02l-.75.88c-.03.05-.02.05.02.02.69-.5 1.5-1.04 2.45-1.63.24-.14.42-.24.55-.29.38-.15.71-.26 1.04-.44l.45-.23 1.7-.74c.16-.06.31-.05.47.06.5.32-.15 1.29-.36 1.67a12.9 12.9 0 0 1-1.42 2 9.12 9.12 0 0 1-2.3 1.94c-.44.26-1.15.5-1.5.65-.2.09-.45.11-.62.19-.13.06-.28.1-.45.14-.93.18-1.9.23-2.84.2-3-.04-5.37-1.5-5.96-4.58a4.49 4.49 0 0 1-.07-1.05 9.5 9.5 0 0 1 1.55-4.89c.99-1.49 2.23-2.71 3.73-3.67a18.14 18.14 0 0 1 5.09-2.24l.01-.03c.07-.24.23-.26.4-.37.1-.06.13-.14.1-.24-.02-.02-.01-.04 0-.05.11-.06.17-.11.19-.15.1-.26.13-.47.38-.61.21-.12.47-.23.77-.33a53.1 53.1 0 0 1 1.08-.35v-.04h-.02l-2.57.62c-.08.02-.08.01 0-.03a80.65 80.65 0 0 1 7-3.37v-.01l-.01-.01h-.04a45 45 0 0 0-3.67.66l-.36.06c-.12.01-.24.04-.36.08l-.49.15c-1.55.4-3.03.85-4.42 1.36-.1.03-.1.02-.03-.04l.42-.39c.1-.09.3-.19.56-.3a32.98 32.98 0 0 1 3.51-1.18l.01-.03c0-.03-.02-.04-.04-.04a6.09 6.09 0 0 0-1.12.01c-.72.1-1.52.28-2.4.56-3.26 1.01-6.48 2.55-9.02 4.86a11.6 11.6 0 0 0-1.23 1.32h.02l.12-.11c.14-.1.16-.09.06.06l-.25.43c-.07.12-.04.14.07.06.38-.3.75-.54 1.1-.74.78-.46 1.53-1.1 2.15-1.67.03-.03.06-.03.09 0l.13.1V21a.03.03 0 0 1 0 .02c-.73.5-1.37 1.01-1.94 1.53-.16.16-.33.28-.49.38a5.85 5.85 0 0 0-2.37 2.3c0 .02.02.03.03.03l.03-.01c.28-.3.56-.58.85-.85.25-.22.43-.36.54-.4.02 0 .02 0 .02.02l-.16.22c-.38.46-.57.85-.94 1.24-.3.3-.57.66-.8 1.04l-.39.64a21 21 0 0 0-1.64 3.05c-.06.2-.03.22.08.03a44.02 44.02 0 0 1 .83-1.4Z" fill="#32810B"/></svg>