<!-- by TradingView --><svg width="56" height="56" viewBox="0 0 56 56" xmlns="http://www.w3.org/2000/svg"><path fill="#F0F3FA" d="M0 0h56v56H0z"/><path d="M6 27.71v-.44c1.58-4 3.34-7.96 5.26-11.87.4-.8.83-1.6 1.31-2.4.23-.4.48-.71.75-.96a.15.15 0 0 1 .22.01c.02.02.03.05.03.07.11.53-.2 1.5-.37 2.06a134.72 134.72 0 0 1-3.89 10.65c-.04.1-.01.13.08.06.56-.4 1.08-.76 1.55-1.07.94-.61 2.6-1.6 3.07.04.23.8-.17 1.21-.37 1.81-.16.47-.28.88-.36 1.22-.5 2-.97 4.03-1.38 6.05a61.23 61.23 0 0 1-.76 3.1c-.07.28-.16.53-.27.75-.09.2-.16.19-.2-.02-.05-.2-.07-.42-.07-.64.03-3.1.43-6.5.9-9.54.01-.08-.02-.1-.08-.05-1.07.8-2.06 1.46-2.96 1.99a3.5 3.5 0 0 1-.86.36c-.91.25-1.46-.28-1.6-1.18ZM20.5 27.66a.1.1 0 0 0 .03 0l.02-.02c.65-.75 1.88-.8 2.71-.37.61.32.72.84.72 1.49L24 31.9c0 .06-.02.09-.06.09h-1.82c-.06 0-.12-.03-.12-.08v-3.21c0-.17-.06-.26-.24-.25h-.01c-.18 0-.27.08-.27.25v3.2c0 .04-.02.06-.07.06a16.13 16.13 0 0 1-1.82 0c-.05 0-.07-.02-.07-.07v-3.2c0-.16-.1-.25-.27-.24h-.01c-.18 0-.24.08-.24.25v3.21c0 .05-.06.08-.12.08h-1.82c-.04 0-.06-.03-.06-.09l.01-3.15c0-.65.11-1.16.72-1.48.83-.44 2.07-.39 2.71.36l.02.02h.04ZM27 30.92v1c0 .05.02.08-.04.08H25.1c-.06 0-.1-.02-.11-.07v-2.97c0-.9.47-1.5 1.44-1.8.86-.26 2.23-.22 2.9.25.41.28.65.69.66 1.21v3.3c0 .06-.03.08-.09.08h-1.87c-.05 0-.04-.02-.04-.07v-3.08c-.02-.26-.19-.4-.45-.4-.63-.03-.57.68-.55 1.03 0 .05.09.08.15.08h.37c.07 0 .11.03.11.1v1.09c0 .02-.01.05-.03.07a.12.12 0 0 1-.08.02h-.38c-.06 0-.14.03-.14.08ZM37 30.92v1c0 .05.02.08-.04.08H35.1c-.06 0-.1-.02-.11-.07v-2.97c0-.9.47-1.5 1.44-1.8.86-.26 2.23-.22 2.9.25.41.28.65.69.66 1.21v3.3c0 .06-.03.08-.09.08h-1.87c-.05 0-.04-.02-.04-.07v-3.08c-.02-.26-.19-.4-.45-.4-.63-.03-.57.68-.55 1.03 0 .05.09.08.15.08h.37c.07 0 .11.03.11.1v1.09c0 .02-.01.05-.03.07a.12.12 0 0 1-.08.02h-.38c-.06 0-.14.03-.14.08ZM47 30.92v1c0 .05.02.08-.04.08H45.1c-.06 0-.1-.02-.11-.07v-2.97c0-.9.47-1.5 1.44-1.8.86-.26 2.23-.22 2.9.25.41.28.65.69.66 1.21v3.3c0 .06-.03.08-.09.08h-1.87c-.05 0-.04-.02-.04-.07v-3.08c-.02-.26-.19-.4-.45-.4-.63-.03-.57.68-.55 1.03 0 .05.09.08.15.08h.37c.07 0 .11.03.11.1v1.09c0 .02-.01.05-.03.07a.12.12 0 0 1-.08.02h-.38c-.06 0-.14.03-.14.08ZM15.94 27h-1.88c-.03 0-.06.02-.06.05v4.9c0 .03.03.05.06.05h1.88c.03 0 .06-.02.06-.05v-4.9c0-.03-.03-.05-.06-.05ZM33 30c0 .42.32.56.86.54.09 0 .14.04.14.12v1.25c0 .05-.03.08-.1.08-1.46.08-2.89-.28-2.9-1.81v-3.12c0-.04.03-.06.08-.06h1.81c.06 0 .11.03.11.08V30ZM42.56 28c.02 0 .03 0 .04-.02.25-.3.6-.6.87-.92a.17.17 0 0 1 .14-.06h1.76c.07 0 .08.02.04.07l-1.8 2.1a.15.15 0 0 0-.03.1v2.64c0 .05-.03.08-.08.08a26.8 26.8 0 0 1-1.9 0c-.04 0-.07-.03-.07-.08v-2.63a.15.15 0 0 0-.04-.1l-1.58-2.1c-.04-.05-.03-.08.04-.08h1.6c.06 0 .1.02.13.06l.84.92.04.02Z" fill="#ED3237"/><path d="M28.5 33.79c.27 0 .5-.2.5-.47a.48.48 0 0 0-.49-.48c-.27 0-.49.2-.5.47 0 .26.22.48.49.48ZM32.32 34.6c.03 0 .06-.02.09-.04a.24.24 0 0 0 .06-.08.28.28 0 0 0 0-.2c-.04-.14-.13-.19-.29-.15a.2.2 0 0 0-.11.08c-.03.04-.07.1-.07.14v2.59c0 .04 0 .06-.03.06h-.91c-.04 0-.06-.02-.06-.06v-1.95c0-.87.05-1.57.8-1.88 1.91-.77 2.48 2.68.46 2.54-.05 0-.08-.04-.08-.1v-.8c0-.07.03-.11.09-.13l.05-.01ZM15.07 34.44c0 .03.02.06.04.08.02.02.4.03.42.03h.64c.08 0 .12.04.12.13v.63c0 .1-.04.14-.12.14h-.62c-.12 0-.53.06-.55.18l.01.1c.04.07.45.1.52.1l.77.01c.03 0 .05.02.05.05v1.04c0 .03-.01.05-.04.05-.93.06-2.29.09-2.3-1.17v-1.45c0-1.47 1.16-1.38 2.3-1.35.02 0 .04.02.04.05v1.07c0 .03-.02.05-.05.04-.65-.1-1.3 0-1.23.27ZM39.96 33h-.92c-.02 0-.04.02-.04.05v3.9c0 .03.02.05.04.05h.92c.02 0 .04-.02.04-.05v-3.9c0-.03-.02-.05-.04-.05ZM21.56 35.15l.03-.01.01-.03a.08.08 0 0 0 0-.06c-.15-.28-.5-.26-.63.03-.13.3-.12.57.04.83.11.2.26.22.45.1.05-.04.1-.04.13 0l.48.52.02.05a.14.14 0 0 1 0 .1.12.12 0 0 1-.05.05c-1.75 1.15-3.04-1.66-1.4-2.56.97-.53 2.02.27 1.94 1.43 0 .05-.03.08-.08.08h-1.24c-.12 0-.17-.06-.17-.19v-.15c0-.15.06-.2.19-.18.12.02.21.02.28 0Z" fill="#0093DD"/><path d="M35.47 35.05c-.15-.28-.5-.26-.63.03-.13.3-.12.57.04.83.11.2.27.22.46.1.04-.04.09-.04.13 0l.47.52.03.05a.14.14 0 0 1-.02.1.12.12 0 0 1-.03.05c-1.76 1.15-3.04-1.66-1.4-2.56.97-.53 2.01.27 1.94 1.43 0 .05-.03.08-.09.08h-1.24c-.11 0-.17-.06-.17-.19v-.15c0-.15.06-.2.2-.18.11.02.2.02.27 0l.03-.02.01-.03a.08.08 0 0 0 0-.06ZM18.22 34c.89 0 1.2.76 1.2 1.62l-.01 1.34c0 .03-.01.04-.03.04h-.94c-.01 0-.02 0-.03-.02a.06.06 0 0 1-.02-.03v-1.69c0-.1-.09-.16-.18-.16-.08 0-.21.07-.21.16l-.01 1.68v.02l-.02.02a.05.05 0 0 1-.03.02h-.9c-.02 0-.04-.02-.04-.04V35.6c0-.86.32-1.61 1.22-1.61ZM24.05 35.24c-.04.06-.05.24-.05.53v1.19c0 .03-.03.04-.06.04h-.89c-.03 0-.04-.02-.04-.05L23 35.67c0-1.03.32-1.78 1.33-1.66.06.01.1.05.1.12v.97c0 .07-.04.1-.1.07a.35.35 0 0 0-.17-.02c-.04 0-.07.04-.11.09ZM26.36 38h-.7l-.16-.07a.1.1 0 0 1-.04-.03.09.09 0 0 1-.02-.05v-.75c0-.05.03-.06.07-.05.69.2.94-.14.94-.75 0-.5 0-.84-.02-1.04a.3.3 0 0 0-.1-.21.33.33 0 0 0-.23-.08c-.5.02-.55.76.09.71.07 0 .1.03.1.1v.73c0 .05-.02.08-.07.1-1 .27-1.68-.6-1.53-1.47.29-1.56 2.75-1.52 2.8.14.01 1.1.19 2.27-1.13 2.72ZM38.19 35.15c-.04 0-.08.04-.11.09-.05.06-.07.24-.08.53v1.19c0 .03 0 .04-.03.04h-.92c-.03 0-.04-.02-.04-.05L37 35.67c0-1.03.33-1.77 1.36-1.66.06 0 .1.05.1.12v.97c0 .07-.03.1-.1.07a.38.38 0 0 0-.17-.02ZM43 35.9c.05.02.14.02.27 0 .06 0 .09.03.09.1v.83c0 .12-.06.18-.17.17-.82-.06-1.29-.5-1.4-1.3-.24-1.84 2.3-2.4 2.66-.58.05.25.06.84.02 1.77 0 .03-.01.04-.03.04h-.9c-.02 0-.03-.02-.03-.04 0-.66.07-1.18-.06-1.56a.37.37 0 0 0-.07-.13.33.33 0 0 0-.12-.08.3.3 0 0 0-.28.02c-.28.17-.31.65.03.76ZM48.46 35.9c.04.02.13.02.27 0 .06 0 .08.03.08.1v.83c0 .12-.05.18-.17.17-.82-.06-1.28-.5-1.4-1.3-.24-1.84 2.3-2.4 2.67-.58.05.25.05.84.02 1.77 0 .02-.01.04-.04.04H49c-.02 0-.03-.02-.03-.04 0-.66.07-1.18-.06-1.56a.37.37 0 0 0-.08-.13.33.33 0 0 0-.12-.08.3.3 0 0 0-.27.02c-.29.17-.32.65.02.76ZM28.95 34h-.9c-.03 0-.05.03-.05.06v2.88c0 .03.02.06.05.06h.9c.03 0 .05-.03.05-.06v-2.88c0-.03-.02-.06-.05-.06Z" fill="#0093DD"/><path d="M41.82 37H40.8l-.02-.03-.6-1.96a.05.05 0 0 1 0-.04l.47-.95.02-.01.02-.01h.93l.02.02a.05.05 0 0 1 0 .05l-.49.96a.05.05 0 0 0 0 .05l.7 1.85a.05.05 0 0 1 0 .05l-.02.01-.02.01ZM46.65 35.33c-.09.2-.08.63-.2.88-.23.55-.67.81-1.3.79-.1 0-.15-.06-.15-.17v-.87c0-.13.06-.17.17-.15.09.03.18-.02.26-.13a.53.53 0 0 0 .08-.26c.04-.38.04-.74.23-.98.28-.34.67-.49 1.18-.43.05.01.08.04.08.1v.99c0 .04-.02.07-.06.08l-.19.04c-.04 0-.07.05-.1.11Z" fill="#0093DD"/></svg>