<!-- by TradingView --><svg width="56" height="56" viewBox="0 0 56 56" xmlns="http://www.w3.org/2000/svg"><path fill="#283B75" d="M0 0h56v56H0z"/><path d="M32.32 16.56v-.01c-2.38-.88-5-1-7.45-.37h-.01v-.01l-.45-1.7v-.02l.07-.02a14.4 14.4 0 0 1 8.6.47l1.33-2.89a.02.02 0 0 1 .02 0l1.6.72a.02.02 0 0 1 .02.01.02.02 0 0 1 0 .02l-3.5 7.59.01.01a8.94 8.94 0 0 1 3.85 4.46l3.24-.9a.02.02 0 0 0 .01 0v-.01a12.41 12.41 0 0 0-4.62-5.97l1-1.45.02-.01a14.2 14.2 0 0 1 5.36 6.96l3.09-.85h.01l.48 1.7v.01l-8.1 2.24a8.84 8.84 0 0 1-1.13 6.12h.01l2.7 1.98h.03a12.16 12.16 0 0 0 1.88-6.12v-1.05a19.84 19.84 0 0 0-.05-.64l1.77-.18h.01a11.87 11.87 0 0 1 .08 1.42v.16c0 .2 0 .4-.02.58-.13 2.5-.87 4.8-2.21 6.9v.02l2.57 1.88v.02l-1.04 1.42h-.02L34.7 34.1h-.02A8.85 8.85 0 0 1 29 37.03v3.34h.01a.02.02 0 0 0 .01.01 12.35 12.35 0 0 0 7.68-3.5l1.25 1.27v.01A14.14 14.14 0 0 1 29 42.2V46h-1.97l-.01-.02-.02-.01V37.01a8.86 8.86 0 0 1-5.7-2.9l-2.73 1.96v.02a12.33 12.33 0 0 0 7.5 4.18c.02 0 .03.01.03.03l-.27 1.72v.01h-.07a14.15 14.15 0 0 1-8.66-4.9h-.01L14.48 39h-.01l-1.04-1.43v-.02l6.8-4.88h.01v-.02a8.9 8.9 0 0 1-1.13-6.07l-3.24-.9h-.02a12.27 12.27 0 0 0 1.12 8.03v.01l-1.58.8-.01.01h-.01a.02.02 0 0 1-.01-.01 14.12 14.12 0 0 1-1.27-9.33l-3.08-.86v-.01l.47-1.7 8.1 2.23h.02a8.95 8.95 0 0 1 3.85-4.5l-1.4-3.04h-.01a12.38 12.38 0 0 0-5.28 5.6l-1.62-.76v-.01a14.2 14.2 0 0 1 6.15-6.5l-1.33-2.89v-.01l1.62-.74h.01l3.5 7.6v.01h.01a9.12 9.12 0 0 1 5.82 0l1.4-3.05Zm.08 15.85-3.38-2.55H29v5.35h.01a7.03 7.03 0 0 0 4.13-2.09 7.15 7.15 0 0 0-4.5-12.17A7.18 7.18 0 0 0 27 35.22L27 35.2v-5.25l-3.36 2.47h-.04A6.1 6.1 0 0 1 22.56 31l5.51-3.96h.02l5.38 3.93V31a6.1 6.1 0 0 1-1.07 1.42Z" fill="#fff"/></svg>