<!-- by TradingView --><svg width="56" height="56" viewBox="0 0 56 56" xmlns="http://www.w3.org/2000/svg"><path fill="#F0F3FA" d="M0 0h56v56H0z"/><path d="M39.68 34c-.95-.78-1.85-1.63-2.99-2.13a3.66 3.66 0 0 0-5.99-1.77c-.17-.76.28-1.85.63-2.52.24-.44.52-.84.86-1.2a5.38 5.38 0 0 1 3.85.26c2.74 1.26 4.08 4.38 3.64 7.35Z" fill="#E3B01D"/><path d="M17.01 29.5c.87.64 1.65 1.36 2.34 2.17a3.75 3.75 0 0 0 2.37 4.75 6.12 6.12 0 0 1-4.46.19 7.38 7.38 0 0 1-.25-7.1Z" fill="url(#a)"/><path fill-rule="evenodd" d="M21.08 13c-.1 0-.22.04-.34.09-.5.23-.74.63-.74 1.22v2.1c0 .41.03.7.08.83.12.3.32.5.61.65.16.07.4.1.75.1l3.97.01c.04 0 .06.01.06.06v4.36c0 .02-.01.06-.06.1a15.38 15.38 0 0 0-2.44-1.94 8.95 8.95 0 0 0-4.01-1.3c-3.78-.33-7.22 1.7-9.18 4.91-2.86 4.7-2.25 11.07 1.66 14.96a9.41 9.41 0 0 0 13.97-.53c.04-.06.06-.05.06.02v2.3a.04.04 0 0 0 .03.04V41h5l.02-.02.02-.01a.05.05 0 0 0 .02-.04v-2.25c0-.07.02-.08.07-.03.6.68 1.28 1.27 2.04 1.77a9.3 9.3 0 0 0 11.22-.65 11.33 11.33 0 0 0 3.31-4.73c.63-1.69.89-3.43.77-5.23-.29-4.38-2.83-8.48-6.99-10.01a9.1 9.1 0 0 0-4.52-.46 9.48 9.48 0 0 0-4.3 1.84c-.48.36-.93.77-1.37 1.24a.19.19 0 0 1-.19.05c-.02 0-.04-.02-.04-.05v-4.41l.04-.01h4.25c.15 0 .31-.04.48-.12.3-.14.49-.35.6-.63.06-.15.07-.42.07-.81v-1.91c0-.37 0-.63-.07-.8a1.2 1.2 0 0 0-.57-.61c-.16-.08-.5-.12-1.04-.12H21.08Zm14.29 11.5a6.12 6.12 0 0 0-4.04 3.08c-.35.67-.8 1.76-.63 2.52-.1.07-.14.14-.15.2a6.25 6.25 0 0 0 3.63 6.07c.07.03.16.02.26-.02a3.74 3.74 0 0 0 2.25-4.48c.94.41 1.72 1.06 2.5 1.71l.5.41a6.98 6.98 0 0 1-.92 2.57c-.03.05-.02.07.04.04a6.35 6.35 0 0 0 4.13-5.05c.56-4.4-3.25-8-7.57-7.04ZM24.84 33.4c.43-.89.63-1.85.63-2.88v-.01c0-.15 0-.23-.11-.32a3.67 3.67 0 0 0-6 1.5c-.7-.82-1.48-1.54-2.35-2.18 1.3-2.51 3.97-3.92 6.74-3.12.06.01.07 0 .03-.05a6.2 6.2 0 0 0-10.13 1.53 6.33 6.33 0 0 0 3.56 8.74l.01-.02a.1.1 0 0 1 .04.03l.07.04a6.12 6.12 0 0 0 5.56-.9c.84-.62 1.5-1.4 1.95-2.36Z" fill="url(#b)"/><defs><linearGradient id="a" x1="18.97" y1="31.43" x2="18.97" y2="36.95" gradientUnits="userSpaceOnUse"><stop stop-color="#D29F2E"/><stop offset="1" stop-color="#FC0"/></linearGradient><linearGradient id="b" x1="34.53" y1="14.23" x2="21.6" y2="34.62" gradientUnits="userSpaceOnUse"><stop stop-color="#FFDB4B"/><stop offset=".36" stop-color="#F2BF0D"/><stop offset="1" stop-color="#C93"/></linearGradient></defs></svg>