<!-- by TradingView --><svg width="56" height="56" viewBox="0 0 56 56" xmlns="http://www.w3.org/2000/svg"><path fill="#F0F3FA" d="M0 0h56v56H0z"/><path d="M38.37 20h-3.32c-.05 0-.1.03-.14.06a.25.25 0 0 0-.09.11.35.35 0 0 0 .05.39c.05.06.15.11.3.16.52.17.8.6.83 1.25v3.45c0 .08-.13.17-.2.17h-4.07a.15.15 0 0 1-.13-.1.15.15 0 0 1-.01-.05v-3.91c0-.12.04-.23.12-.32.22-.23.48-.4.79-.52a.4.4 0 0 0 .24-.24c.11-.33-.23-.46-.5-.45h-2.36c-.24 0-.27.03-.08-.13 1.94-1.64 4.17-2.53 6.7-3.28 3.13-.94 7.1-.95 9.6 1.4 2.43 2.27 2.29 5.77.92 8.6a14.8 14.8 0 0 1-4.38 5.37.1.1 0 0 1-.1-.05.1.1 0 0 1-.01-.06V22.1c-.01-.83.3-1.3.92-1.37a.37.37 0 0 0 .23-.13c.06-.07.1-.15.1-.24v-.12c0-.17-.1-.24-.27-.24H39.9c-.15 0-.23.05-.23.2v.2c0 .21.1.32.3.34.62.05 1.03.43 1.04 1.16v10.22c0 .89-.47 1.54-1.18 1.94a17.05 17.05 0 0 1-7.12 2.25c-5.55.47-9.83-3.38-7.89-9.26.7-2.12 1.93-4.33 3.69-6.02a.68.68 0 0 1 .27-.16c.34-.1.85.01 1.04.34.13.22.2.6.2 1.12L30 29.96c0 .34-.06.63-.17.87a.44.44 0 0 1-.2.21c-.32.16-.7.27-.79.53-.03.1-.02.19.02.28a.3.3 0 0 0 .1.12c.05.02.1.03.16.03h3.34c.05 0 .1 0 .14-.03a.24.24 0 0 0 .1-.12c.04-.13.03-.27-.05-.43a.32.32 0 0 0-.22-.17c-.56-.11-.84-.48-.84-1.1v-3.54c0-.06.03-.11.07-.15.04-.05.1-.07.16-.07h3.98c.05 0 .1.02.13.05.03.04.07.08.07.13V30c-.01.38-.09.66-.2.84a.56.56 0 0 1-.2.21l-.61.31c-.1.05-.15.1-.18.17-.06.15-.03.29.1.39a.3.3 0 0 0 .2.08h3.4c.1 0 .18-.05.21-.15.05-.13.02-.27-.07-.41-.1-.15-.22-.24-.37-.25a.77.77 0 0 1-.49-.26.8.8 0 0 1-.2-.51c-.05-2.69-.06-5.91-.01-8.58 0-.63.27-1 .8-1.11a.4.4 0 0 0 .26-.2c.1-.18.11-.32.04-.44-.03-.06-.14-.09-.3-.09ZM17.16 37.34c3.25-2.22 4.68-5.83 3.19-8.06-1.49-2.23-5.33-2.25-8.57-.03-3.25 2.22-4.68 5.83-3.2 8.07 1.5 2.23 5.33 2.24 8.58.02Z" fill="#0FA855"/></svg>