<!-- by TradingView --><svg width="56" height="56" viewBox="0 0 56 56" xmlns="http://www.w3.org/2000/svg"><path fill="#F0F3FA" d="M0 0h56v56H0z"/><path d="M12.03 27.09a6.15 6.15 0 0 0 3.1.82c.1-6.54 4.26-12.56 10.59-14.58 2.04-.65 4.2-.85 6.34-.58 4.47.5 8.06 2.65 10.75 6.26a.11.11 0 0 0 0-.08l-.18-.28a15.04 15.04 0 0 0-1.45-1.9 19.4 19.4 0 0 0-7.37-4.85l-.13-.05-.4-.13c-.28-.1-.57-.2-.85-.26-.47-.1-.94-.18-1.41-.26l-.38-.06C29.61 11 28.61 11 27.58 11h-.18a8.63 8.63 0 0 0-1.06.06l-.25.04c-.34.05-.7.1-1.05.17-.3.06-.6.12-.9.2A17.23 17.23 0 0 0 11.2 26.45l.06.09c.24.2.5.38.76.55ZM23.9 24.4l-.2.02-.05-.32-.04-.3.45-.06a5 5 0 0 1 .04.31c0 .1.02.2.04.32l-.24.03Zm-2.3.27c-.07 0-.14.02-.2.03l-.02-.16-.03-.48.4-.05v.07c.03.17.05.34.05.57l-.2.02Zm1.33-.16.42-.05-.04-.29a12.2 12.2 0 0 0-.05-.33c-.1 0-.18.02-.26.03l-.12.03.01.18.04.43Zm-.54.07a1.6 1.6 0 0 1-.23.02l-.02-.26-.03-.37.23-.02.15-.03.03.27.03.37-.16.02Zm25.05-.94c.17 0 .34-.02.53-.05 0 0 0-.03.03 0l-.21.3-.32.5-.58.87c-.34.49-.68.97-1.04 1.44l-.57.76-.26.35-.55.75-.2.27-.14.13-.27-1.1-.08.05-.24.13-1.5.93-.44.27c-.19.13-.38.25-.58.36-.84.5-1.7.92-2.57 1.34l-.71.34c-5.2 2.53-11 4.34-16.83 3.95-.57-.04-1.21-.06-1.9-.09-2.57-.1-5.78-.2-8.17-1.3-.97-.45-1.92-.96-2.84-1.51l.52-2.82s1.75 2.26 7.45 3.27c5.7 1 14.67-.62 17.16-1.22 1.9-.42 3.77-1 5.57-1.75l.34-.12.83-.41a31.1 31.1 0 0 0 2.87-1.51c.56-.31 1.07-.61 1.42-.85 1.38-.96 3.68-3.18 3.68-3.18s.07-.05.07-.07a10.87 10.87 0 0 0-.84.4l-.25.15-.28.16c-.1.04-.18.1-.27.15-.1.07-.2.14-.32.2l-.54.26-1.28.64c-1.28.66-5.2 2.44-5.2 2.44a61.79 61.79 0 0 1-16.27 3.33c-9.98.75-13.95-3.2-13.95-3.2l.52-2.65c.02-.06.02-.11.02-.17a.4.4 0 0 1 .03-.08l.12-.57s-.9 6.45 19.03 4.94c3.92-.3 10.55-2.53 14.76-4.08-.24-.22-.53-.54-.79-.84a13.29 13.29 0 0 0-.85-.9l.6.01c.5.02 1.01.03 1.52.03.7 0 1.4-.03 2.1-.1l1.08-.1h.03l.56-.05Zm-9.43-5.18c-.67.05-1.34.16-2 .31l-.15-2.65-.06-.03-.04-.03-2.63 3.62v-.02.02l.07 1.55-.11.06-.72.34-.24-3.79-.06-.03-.03-.02-2.64 3.6h-.02l.1 1.58-.81.38-.23-3.75-.06-.03-.04-.03-2.65 3.59.1 1.55-3.86 1.8-2.24 1.02a.36.36 0 0 1 .22-.53c.42-.17.82-.37 1.22-.58.06-.03.1-.1.15-.18l.08-.14c-1.23-.04-1.34-.12-1.22-.84l1.05-.13c0-.22-.02-.43-.03-.64l-.04-.53 3.1-.37c0 .18.02.33.04.47l.01.1.03.18c0 .1.02.2.04.31.3-.15.32-.7.06-1.4l-1.17.14-.1-.45-.06-.29-2.32 1a86.48 86.48 0 0 1-.24-1.78l-.16.03-.4.05a137.48 137.48 0 0 0 .2 1.6v.34l-.6.26-.21-1.64-.56.1.06.5.15 1.29-.3.13.02.16.04.49v.05c.05.43.1.87.17 1.3a.42.42 0 0 1-.15.43l-.94.9-.25.26.83.1h.07c2.13.23 7.63.68 11.77-.23 5.25-1.15 7.8-2.37 7.8-2.37a1.04 1.04 0 0 1-.48-.9c.02-.68.22-1.33.57-1.91l.65-1.26 1.07-2.05c.1-.2.17-.4.25-.64l.14-.4h-.78c-.5 0-.98-.01-1.46.03Zm-12.15 4.66 1.95-2.66-1.55 2.64-.4.02Zm.5.03 1.04-1.77-1.04 1.98v-.2Zm.07 1.23-.05-.8 1.97-3.82.22 3.62-2.14 1Zm3.13-3 1.95-2.67-1.55 2.64-.4.03Zm.5.02 1.03-1.77-1.03 1.98v-.2Zm.07 1.28-.07-.85L32.03 18l.22 3.66-2.12 1Zm3.52-3.23c-.19.05-.36.15-.5.29v-.06l2.07-2.67-1.4 2.39-.17.05Zm.32-.1.83-1.42-.71 1.4-.12.03Zm.25-.08 1.53-2.95.15 2.49c-.55.13-1.11.29-1.68.46ZM28.66 42.8c6.8.73 12.76-3.12 15.73-9.09h.04l-.14.34a.3.3 0 0 1-.01.03l-.02.05C41.89 40.23 35.4 45 28.73 45h-.45c-5.12-.29-10.04-2.26-13.32-6.32a26.9 26.9 0 0 1-1.66-2.38h-.02l-.2-.4s1.64.32 2.51.4c1.36.12 2.32.12 2.32.12l.09.13.1.16c2.35 3.45 6.48 5.57 10.56 6.1Z" fill="#F1B41C"/></svg>