<!-- by TradingView --><svg width="56" height="56" viewBox="0 0 56 56" xmlns="http://www.w3.org/2000/svg"><path fill="#F0F3FA" d="M0 0h56v56H0z"/><path d="M42 14.03c-2.02-.26-7.64 1.35-14 9.87 1.3.51 5.9-.75 14-9.87Z" fill="#007676"/><path d="M30 20.02c-1.15-.16-4.36.8-8 5.92.74.3 3.37-.45 8-5.92Z" fill="#6AB745"/><path d="M32.68 29H30v1h.27L27 35h1.75l.65-1h2.64l.21 1H34l-1.25-6h-.07Zm-.95 3.52h-1.35l1.02-1.57.33 1.57ZM18.68 29H16v1h.27L13 35h1.75l.65-1h2.64l.21 1H20l-1.25-6h-.07Zm-.95 3.52h-1.35l1.02-1.57.33 1.57ZM47.68 29H45v1h.27L42 35h1.75l.65-1h2.64l.21 1H49l-1.25-6h-.07Zm-.96 3.46h-1.3l.98-1.51.32 1.51ZM37.96 29l1.69 3.23.7-3.23H42l-1.3 6h-1.66l-1.68-3.28-.71 3.28H35l1.3-6h1.66ZM9.85 29h1.2c1.08 0 1.95.54 1.95 1.64 0 .88-.95 1.86-1.87 2.22L12.19 35h-1.71l-1-2h-.47l-.42 2H7l1.05-5H7.5v-1h2.35Zm-.61 2.9h1.24c.53 0 .9-.5.9-.94 0-.45-.43-.66-.96-.66h-.84l-.34 1.6ZM21.5 29h4.24c1.25 0 2.26.91 2.26 2.04 0 2.19-1.97 3.96-4.4 3.96H21l1-3.96h1.81l-.61 2.46h.71c1.22 0 2.09-.88 2.09-1.98 0-.57-.4-1.07-1.03-1.07h-1.5l-1.97-.58V29Z" fill="#20214F"/></svg>