<!-- by TradingView --><svg width="56" height="56" viewBox="0 0 56 56" xmlns="http://www.w3.org/2000/svg"><path fill="#F0F3FA" d="M0 0h56v56H0z"/><path fill-rule="evenodd" d="M42.08 21H13.92A5 5 0 0 0 9 26.07v3.86A5 5 0 0 0 13.92 35h28.16A5 5 0 0 0 47 29.93v-3.86A5 5 0 0 0 42.08 21Zm-28-1A6.18 6.18 0 0 0 8 26.27v3.46A6.18 6.18 0 0 0 14.08 36h27.84c3.36 0 6.08-2.8 6.08-6.27v-3.46A6.18 6.18 0 0 0 41.92 20H14.08Z"/><path d="M39 24h2v6h-2z"/><path fill-rule="evenodd" d="M34 24h-7v6h7a3 3 0 1 0 0-6Zm-1 1h-4v4h4a2 2 0 1 0 0-4Z"/><path d="M15 24h2v2h6v-2h2v6h-2v-3h-6v3h-2v-6Z"/><path fill-opacity=".2" d="M13 31h30v2H13z"/></svg>