<!-- by TradingView --><svg width="56" height="56" viewBox="0 0 56 56" fill="none" xmlns="http://www.w3.org/2000/svg">
<rect width="56" height="56" fill="#F0F3FA"/>
<path d="M19 11V19H12V37H19V45H37V37H44V19H37V11H19Z" fill="#009A41"/>
<path fill-rule="evenodd" clip-rule="evenodd" d="M29.509 30.9622C29.5749 30.6756 29.6518 30.3415 29.9699 30.0952C30.1882 29.9262 30.4076 29.8455 30.6333 29.7624C30.8047 29.6993 30.9798 29.6349 31.1609 29.5295C31.4381 29.3681 31.5096 29.1885 31.5764 29.0206C31.6503 28.8347 31.7186 28.6632 32.0542 28.5469C32.3706 28.4372 32.8915 28.4938 33.203 28.5276C33.3025 28.5384 33.3806 28.5469 33.4238 28.5469C33.6024 28.5469 32.7027 26.4385 31.7499 25.4858C31.4035 25.1393 30.5435 25 29.7205 25H28.7812L28.4999 24.3543L29.0156 24C29.0445 24.0267 29.0747 24.056 29.1063 24.0865C29.296 24.2702 29.5333 24.5 29.8279 24.5C30.3297 24.5 30.6875 24.3356 30.9928 24.1954C31.22 24.091 31.4181 24 31.6249 24H32.2343C32.2343 24 32.4456 23.6406 32.7113 23.1633C32.9446 22.7441 33.2997 22.4802 33.6628 22.2103C34.1596 21.8411 34.6714 21.4608 34.9062 20.6562C34.9698 20.4382 34.9999 19.9684 34.9999 19.75C34.9999 18.5625 34.4919 17.2672 33.4238 16.75C32.456 16.2814 31.849 16.3084 31.2175 16.3365C30.8383 16.3533 30.4502 16.3706 29.9699 16.2812C29.7382 16.2381 29.5631 16.189 29.4028 16.1439C29.1244 16.0657 28.8904 16 28.4812 16C26.9887 16 26.2675 16.8986 25.3633 18.025C25.3116 18.0895 25.2592 18.1548 25.206 18.2207C25.1351 18.3086 25.0659 18.3932 24.9989 18.4751C24.4172 19.1864 23.9999 19.6966 23.9999 20.468C23.9999 21.644 24.9081 22.5792 25.8908 23.1633L24.7296 24.533C24.7296 24.533 24.1638 24.9796 21.9903 25.6644C20.6546 26.0852 19.8177 26.6715 19.3749 28C18.9966 29.135 18.9982 30.2877 18.9997 31.4553C18.9998 31.5298 18.9999 31.6043 18.9999 31.6789C19.1659 34.3363 20.0306 37.8824 22.5263 39.3013C23.157 39.6599 24.0736 40 25.0626 40C27.3015 40 29.9057 39.611 32.0542 39.0312L29.7499 37.8125C29.7499 37.8125 28.5037 38.0044 26.9686 38C25.6249 38 24.7482 37.7264 24.015 37.3362C23.3162 36.9642 23.0543 35.2355 22.7459 33.199C22.6201 32.3685 22.4865 31.4868 22.3124 30.625L22.5263 29.875C22.5263 29.875 22.9999 30.625 22.9999 32C22.9999 33.0331 23.3343 33.7 24.7296 33.7C26.1249 33.7 26.9394 32.7573 27.4391 31.6789C27.4391 31.6789 29.0469 31.7068 29.3149 31.4407C29.4239 31.3326 29.4639 31.1585 29.509 30.9622ZM27.8589 32.4526C27.231 32.3382 26.5491 33.1676 26.5491 33.9111C26.5491 34.6547 27.6163 35.5269 27.6163 35.5269C29.5882 37.393 32.0937 39 34.9655 39C35.993 39 35.9999 38.2184 35.9999 36.3992C35.9999 35.341 35.4222 34 35.4222 34L33.3672 34.7119V35.8558C33.3672 35.8836 33.5268 35.9406 33.7583 36.0233C34.0979 36.1446 34.5922 36.3211 34.9655 36.5422L34.0665 36.3992C34.0665 36.3992 33.0105 36.6566 31.0412 36.0989C30.1077 35.8346 29.6468 34.7642 29.3368 34.0446C29.1689 33.6547 29.0453 33.3677 28.9149 33.3677C28.7247 33.3677 28.6869 33.5968 28.6569 33.7785C28.6372 33.8978 28.6209 33.9967 28.5669 33.9967C28.4749 33.9967 28.4518 33.7996 28.4222 33.5457C28.3725 33.1196 28.3041 32.5337 27.8589 32.4526Z" fill="#CCFF00"/>
<path fill-rule="evenodd" clip-rule="evenodd" d="M30 31.4488C30 31.4488 30.2968 30.4676 30.8325 30.125C31.0699 29.9731 31.2983 29.9831 31.5306 29.9964C31.5306 29.9964 31.979 30 32.22 29.9044C32.4034 29.8126 32.514 29.663 32.6238 29.5143C32.7394 29.3578 32.8542 29.2024 33.0524 29.117C33.2318 29.0397 33.4077 29.0028 33.5786 29.0002C34.9816 29 36.0102 31.0405 35.9999 32.2964C35.9974 32.6072 35.9138 32.9099 35.704 33.2135C35.2845 33.8209 34.0082 34.0013 34.0082 34.0013H32.7749C32.7749 34.0013 32.2611 32.9309 31.7266 32.4257C31.1608 31.8909 30 31.4488 30 31.4488ZM30.3629 34.8773C31.0312 35.6348 31.9929 35.9963 32.6641 35.9963C32.6641 35.9282 32.6668 35.8556 32.6697 35.7781C32.6889 35.2565 32.7164 34.5095 31.9929 33.3634C31.3567 32.5462 30.4049 32.4 29.5 32.4C29.5 33.4531 29.7018 34.128 30.3629 34.8773ZM26.8252 35.5209C27.4781 36.3128 28.718 37.2938 28.718 37.2938C28.718 37.2938 27.9411 37.5051 27.0634 37.5013C25.1873 37.4931 24.4066 37.0958 23.6875 35.8777C23.3165 35.2492 23.2812 34.0013 23.2812 34.0013H25.7809C25.7809 34.0013 26.3712 34.9702 26.8252 35.5209Z" fill="#DF4E00"/>
</svg>
