<!-- by TradingView --><svg width="56" height="56" viewBox="0 0 56 56" fill="none" xmlns="http://www.w3.org/2000/svg">
<rect width="56" height="56" fill="#F0F3FA"/>
<path d="M41.3578 14H14.6422C13.9467 14 13.2792 14.2745 12.7845 14.764C12.2899 15.2535 12.008 15.9186 12 16.6149V37.5894C12 40.625 13.6501 42 18.4486 42C20.3046 42 22.1424 41.6953 23.8241 40.9087C25.788 39.8952 30.0469 37 32.4695 37C33.4818 37 33.0469 37 33.5312 37C33.8318 37 34 36.8288 33.9951 36.5924C34.0005 36.4477 33.9512 36.2787 33.8475 36.1094C33.5742 35.6634 31.2361 31.6605 31.1248 31.4476C31.0744 31.3513 31 31.2447 31 31.1426C31 31.0192 31.0696 30.9025 31.2969 30.8193C31.7119 30.6672 38.4179 27.9607 38.6406 27.8594C38.7915 27.7907 38.9952 27.6802 39 27.4836C39.0023 27.3901 38.9475 27.277 38.8431 27.1398C38.5191 26.7141 36.5188 24.3421 36.367 24.18C36.2701 24.0716 36.1275 24 35.9823 24C35.8371 24 35.6944 24.0716 35.5976 24.18C35.3141 24.4333 30.6391 29.1786 30.4062 29.4219C30.1734 29.6651 29.9996 29.8068 29.7556 29.9067C29.5116 30.0066 29.2452 30 28.9844 30C28.2255 30 28 30.0988 28 30.2804C28 30.4375 28.0794 30.5298 28.1524 30.6624C28.3125 30.9531 30.6776 34.5393 30.8396 34.8231C30.9129 34.9516 31 35.1715 31 35.3906C31 35.6555 30.9069 35.9192 30.5966 36.019C30.0297 36.2014 25.2717 38 25.049 38C24.8263 38 24.5935 38 24.5935 37.5894C24.5992 36.3089 24.2136 34.2838 23.5625 33.1875C22.8975 32.0677 22 30.5155 22 29.0016C22 26.7231 22.9294 24.4766 24.7352 23.0355C26.2616 21.7901 28.2375 21 30.2239 21C31.2673 21 32.3021 21.2378 33.2591 21.6774C33.8103 21.9288 34.3476 22.2709 34.8687 22.5799C34.924 22.6261 34.9888 22.6595 35.0585 22.6776C35.1282 22.6956 35.2011 22.698 35.2718 22.6844C35.3425 22.6708 35.4094 22.6417 35.4675 22.5991C35.7325 22.4047 35.8696 22.0031 36.2579 22C36.3965 21.9989 36.5424 22.0772 36.6909 22.2657L41.2262 27.8294C41.378 28.022 41.3906 28.1953 41.1351 28.3159L40.25 28.8594C40.1016 28.9453 39.9993 29.0198 39.9997 29.1484C39.9999 29.2089 40.0204 29.2692 40.0591 29.3163C40.2109 29.5393 41.7862 32.1974 41.8672 32.3596C41.9482 32.5217 42.0046 32.6382 42.0025 32.7656C41.9995 32.9504 41.8844 33.1292 41.7159 33.2078L40.3442 33.9409C40.2733 33.9915 40 34.1233 40 34.7618V37.0067C40 37.3108 39.75 38 38.6406 38H36.2441C36.0234 38 35.8049 38.0338 35.6221 38.1583C35.4393 38.2827 35.2172 38.5299 35 38.8594C34.5469 39.5469 33 42 33 42H41.3578C42.0321 42.0052 42.7419 41.6834 43.2178 41.2143C43.7085 40.7305 43.9947 40.0535 44 39.364V16.6149C43.9946 15.9178 43.7136 15.2512 43.2184 14.7611C42.7231 14.271 42.0541 13.9973 41.3578 14ZM35.8612 17.5189C35.7802 17.7722 34.6767 19.7973 34.3832 20.3142C34.0896 20.8311 33.5024 20.4054 33.0469 20.3142C32.2803 20.1488 31.2759 19.9961 30.4961 20C25.3818 20 21 23.3974 21 28.8906C21 30.8595 22 32.6654 22.7919 33.9256C22.9483 34.1745 23 34.4626 23 34.7567C23 35.0508 22.9483 35.3389 22.7919 35.5878C22.5793 35.9104 22.2483 36.1361 21.8706 36.2162C20.2145 36.7419 18.8699 37.1552 17.35 38C16.1927 34.4689 14 31.5374 14 27.4836C14 18.125 22.4375 15 29.0625 15C31.1973 15 33.6763 15.5001 35.598 16.3736C35.8561 16.4967 36 16.7766 36 17.0612C35.997 17.226 35.9645 17.3893 35.8612 17.5189ZM38.6992 31C38.9414 31 39 30.8867 39 30.7774C39 30.6289 38.8928 30.4486 38.7812 30.2539C38.6697 30.0592 38.5714 30.0036 38.4099 30C38.3519 29.9987 38.2525 30.0254 38.1992 30.0508C38.0646 30.1149 37.2289 30.5283 37.1276 30.5891C37.0317 30.646 37.0022 30.7136 37 30.7774C36.996 30.8953 37.1071 31 37.2188 31H38.6992Z" fill="#ED2227"/>
</svg>
