<!-- by TradingView --><svg width="56" height="56" viewBox="0 0 56 56" xmlns="http://www.w3.org/2000/svg"><path fill="#263944" d="M0 0h56v56H0z"/><path d="M25.5 20.05c-.05 1.01-.82 2-2.24 1.95a2 2 0 0 1-1.45-3.35c.41-.47.99-.65 1.6-.65 1.14 0 2.13.84 2.08 2.05Zm-2.04.99a.97.97 0 0 0 .68-.35 1.08 1.08 0 0 0 .15-1.15 1.05 1.05 0 0 0-.57-.54.95.95 0 0 0-1.07.3 1.08 1.08 0 0 0-.15 1.14 1.06 1.06 0 0 0 .57.54c.13.04.26.06.39.06ZM9.82 19.5h.68v-1.45l.02-.03.04-.02h.88c.02 0 .03 0 .04.02l.02.04v3.9a.06.06 0 0 1-.04.04h-.91s-.02 0-.03-.02l-.01-.03v-1.42l-.01-.03h-.68a428.45 428.45 0 0 0-.8 0c-.02.01-.02.02-.02.03v1.42l-.01.03-.04.02h-.9s-.02 0-.03-.02a1003.22 1003.22 0 0 1 0-3.97h.02l.02-.01h.9a.05.05 0 0 1 .04.03v1.44l.01.03h.81ZM13 18.07a.04.04 0 0 1 .01-.03l.01-.01.02-.03h2.9s.02 0 .03.02l.03.03v.89l-.01.02c-.01.02-.05.04-.07.04h-1.9l-.01.01-.01.02v.51l.01.02.03.01h1.7c.02 0 .05 0 .05.02a30.38 30.38 0 0 1 0 .82c0 .03-.03.03-.05.03h-1.71l-.02.01V21l.03.01h1.91c.02 0 .03 0 .04.02v.03l.01.9v.01l-.01.02-.02.01h-.02l-2.9.01a.03.03 0 0 1-.02-.01l-.01-.01-.02-.02v-3.9ZM20 32.06a.04.04 0 0 1 .01-.02l.01-.01.02-.03h2.9s.02 0 .03.02l.03.03v.89l-.01.02c-.01.02-.05.04-.07.04h-1.9l-.01.01-.01.02v.51l.01.02.02.01h1.71c.02 0 .05 0 .05.02a30.38 30.38 0 0 1 0 .82c0 .03-.03.03-.05.03h-1.71l-.02.01V35l.03.01h1.91c.02 0 .03 0 .04.02v.03l.01.9v.01l-.01.02-.02.01h-.02l-2.9.01a.03.03 0 0 1-.02-.01l-.01-.01-.02-.02v-3.9ZM37 32.06a.04.04 0 0 1 .01-.02l.01-.01.02-.03h2.9s.02 0 .03.02l.03.03v.89l-.01.02c-.01.02-.05.04-.07.04h-1.9l-.01.01-.01.02v.51l.01.02.02.01h1.71c.02 0 .05 0 .05.02a30.38 30.38 0 0 1 0 .82c0 .03-.03.03-.05.03h-1.71l-.02.01V35l.03.01h1.91c.02 0 .03 0 .04.02v.03l.01.9v.01l-.01.02-.02.01h-.02l-2.9.01a.03.03 0 0 1-.02-.01l-.01-.01-.02-.02v-3.9ZM20.43 21.97a.02.02 0 0 1-.01.03h-1.14a.05.05 0 0 1-.04-.02l-.74-1.17a.07.07 0 0 0-.03-.02l-.03-.01h-.4a.04.04 0 0 0-.03.01.04.04 0 0 0-.01.03v1.15a.04.04 0 0 1 0 .02.03.03 0 0 1-.03.01H17.03a.05.05 0 0 1-.03-.03v-3.92l.01-.03.04-.02h1.83c.94 0 1.58.74 1.4 1.7-.07.35-.25.6-.54.78a9.53 9.53 0 0 0-.17.13v.03l.86 1.33ZM18 19.03v.96l.01.01h.76c.24 0 .5-.15.5-.42v-.18c0-.25-.3-.4-.5-.4h-.74l-.02.01v.02ZM8 27.26v-.48c.14-.98.8-1.65 1.72-1.76a2.25 2.25 0 0 1 1.72.5.06.06 0 0 1 0 .07l-.55.7a.04.04 0 0 1-.06 0l-.17-.12c-.28-.2-.58-.26-.91-.18-.9.22-.96 1.7-.08 2.02.28.1.58.08.9-.05l.04-.03.01-.05v-.39l-.01-.02-.03-.02H10.01l-.01-.02v-.74l.02-.01h1.52l.03.01.01.03v1.64a.09.09 0 0 1-.03.07c-.57.45-1.19.64-1.85.55-.96-.13-1.53-.7-1.7-1.72ZM20.8 26.9a1.93 1.93 0 0 1-.54 1.44 2.1 2.1 0 0 1-1.44.66c-.55.03-1.1-.16-1.5-.51a1.96 1.96 0 0 1-.57-2.15 2 2 0 0 1 1.07-1.14 2.16 2.16 0 0 1 2.3.31c.4.36.65.85.68 1.38Zm-2.04 1.13a.95.95 0 0 0 .68-.34 1.04 1.04 0 0 0 .26-.74 1.08 1.08 0 0 0-.33-.71.99.99 0 0 0-.71-.27.95.95 0 0 0-.68.34 1.04 1.04 0 0 0-.25.74 1.08 1.08 0 0 0 .32.71.99.99 0 0 0 .71.27ZM28.17 25a10.37 10.37 0 0 1 .53.02l.02.03 1.62 3.9v.02a.03.03 0 0 1-.02.03h-1.07a.06.06 0 0 1-.06-.03l-.26-.65a.05.05 0 0 0-.05-.03 70.22 70.22 0 0 1-1.45 0c0 .02-.01.02-.02.03l-.26.64c0 .02-.01.02-.02.03l-.03.01h-1.06a.03.03 0 0 1-.03-.03v-.01l1.62-3.91a.06.06 0 0 1 .05-.04h.5Zm-.43 2.4v.01a.03.03 0 0 0 .01.02h.81a.03.03 0 0 0 .02-.03l-.4-1.02-.02-.01a.02.02 0 0 0-.02.01l-.4 1.02ZM24.65 26.88l-.02.01v.04h.02c.55.16.79.65.66 1.23-.2.87-1.16.83-1.83.84a66.17 66.17 0 0 1-1.47-.02V25.02l.04-.02 2.1.01c.57.02 1.06.4 1.04 1.05a.89.89 0 0 1-.54.82ZM23 25.92v.66l.02.01h.71c.06 0 .12 0 .17-.02l.14-.08a.35.35 0 0 0 .1-.1.27.27 0 0 0 .03-.14v-.03a.3.3 0 0 0-.13-.23.5.5 0 0 0-.3-.1h-.71l-.01.01-.02.02Zm0 1.47v.69h.01v.01a.02.02 0 0 0 .02 0h.84a.5.5 0 0 0 .3-.09.3.3 0 0 0 .13-.23v-.07a.3.3 0 0 0-.12-.23.5.5 0 0 0-.31-.1h-.85l-.02.02ZM16 28.95l-.01.03-.04.02h-2.9a.05.05 0 0 1-.05-.05v-3.94h.03l.92-.01.03.01.02.04v2.9l.01.03.03.02h1.91a.05.05 0 0 1 .05.04v.9ZM34 28.95l-.01.03a.05.05 0 0 1-.04.02h-2.9a.05.05 0 0 1-.05-.05v-3.94h.03l.92-.01.03.01.02.04v2.9l.01.03.03.02h1.91a.05.05 0 0 1 .05.04v.9ZM26.1 36h-.58a2.5 2.5 0 0 1-1.43-.62.04.04 0 0 1 0-.03l.53-.66a.05.05 0 0 1 .07 0c.37.3.78.44 1.22.44.4 0 .54-.44.12-.55a23.2 23.2 0 0 1-.73-.2c-.57-.19-1.04-.4-1.05-1.1-.02-.73.51-1.19 1.18-1.26a2.41 2.41 0 0 1 1.78.48v.01a.05.05 0 0 1 0 .04l-.47.69-.03.02h-.04c-.35-.25-.73-.4-1.14-.35-.18.03-.26.13-.23.31 0 .03.02.06.04.07.25.2.6.24.97.33a2.54 2.54 0 0 1 .75.4c.3.4.37.8.18 1.24-.2.44-.58.69-1.14.74ZM8.97 32h-.94c-.02 0-.03.01-.03.03v3.94c0 .02.01.03.03.03h.94c.02 0 .03-.01.03-.03v-3.94c0-.02-.01-.03-.03-.03ZM10 35.98V32h.01l.01-.01H10.96v.01l1.5 2.05h.04v-2.03a.02.02 0 0 1 .01-.02h1.02v3.98l-.02.01h-.88l-.01-.01-1.56-2.12v-.01h-.03v2.12l-.01.01h-1a.02.02 0 0 1-.01 0 .03.03 0 0 1-.01-.02ZM41 35.98v-3.96a.02.02 0 0 1 .01-.02H41.95a.02.02 0 0 1 .02.01l1.5 2.05a.02.02 0 0 0 .03 0v-2.03a.02.02 0 0 1 .02-.02h1.01v3.98l-.02.01h-.88l-.01-.01-1.55-2.12-.02-.01h-.02v2.12l-.01.01h-1a.02.02 0 0 1-.01 0v-.02ZM16.6 34.47h.01l.87-2.42a.06.06 0 0 1 .06-.05h1.1a.03.03 0 0 1 .03.02.03.03 0 0 1 0 .02l-1.55 3.92a.06.06 0 0 1-.05.04 14.4 14.4 0 0 1-.97-.02l-.02-.02-1.55-3.92a.03.03 0 0 1 0-.03.03.03 0 0 1 .03-.01h1.11a.06.06 0 0 1 .06.04l.86 2.43h.01ZM29.5 36a13.47 13.47 0 0 1-.49-.02.06.06 0 0 1-.01-.04V33.01h-.02l-.02-.01H28.02v-.01l-.02-.02V32.01h.03a192.8 192.8 0 0 1 2.97.02v.93l-.01.03-.03.01h-.92s-.02 0-.03.02V35.95l-.02.03-.03.02h-.46ZM47.5 36a13.47 13.47 0 0 1-.49-.02.06.06 0 0 1-.01-.04V33.01h-.02l-.02-.01H46.02v-.01l-.02-.02V32.01h.03L47.5 32a148.58 148.58 0 0 1 1.5.01V32.96l-.01.03-.03.01h-.92s-.02 0-.03.02V35.95l-.02.03-.03.02h-.46ZM34 33.53h.02a249.65 249.65 0 0 1 .88-1.51l.04-.02h1.01l.04.02V35.99l-.02.01H35v-2.23l-.03-.01h-.02a103.38 103.38 0 0 0-.95 1.51l-.05-.05c-.37-.61-.7-1.1-.92-1.46v-.01a.01.01 0 0 0-.02 0v.01L33 35.95a.05.05 0 0 1-.01.03.04.04 0 0 1-.04.02h-.92l-.02-.01-.01-.02v-3.92l.02-.04.03-.01h1.02l.03.01.03.03a263.95 263.95 0 0 1 .87 1.5ZM51 35.95V36h-.98a.04.04 0 0 1-.02-.04V35.02h.01a.04.04 0 0 1 .03-.02h.9l.03.01.01.03.02.9Z" fill="#A58771"/></svg>