<!-- by TradingView --><svg width="56" height="56" viewBox="0 0 56 56" xmlns="http://www.w3.org/2000/svg"><path fill="#F0F3FA" d="M0 0h56v56H0z"/><path fill="#384391" d="M14 22h2v12h-2zM19 22h-2v12h4v-2h-2V22ZM4 22h2v5h5v-5h2v12h-2v-5H6v5H4V22ZM24 22h-2v12h4v-2h-2V22ZM42 22h3.34L50 31.88V22h2v12h-3.34L44 24.12V34h-2V22Z"/><path fill-rule="evenodd" d="M36 34a6 6 0 1 0 0-12 6 6 0 0 0 0 12Zm0-2a4 4 0 1 0 0-8 4 4 0 0 0 0 8Z" fill="#384391"/><path d="M31 22a6 6 0 0 0 0 12v-2a4 4 0 0 1 0-8v-2Z" fill="#384391"/></svg>