<!-- by TradingView --><svg xmlns="http://www.w3.org/2000/svg" width="56" height="56" viewBox="0 0 56 56"><path fill="#F0F3FA" d="M0 0h56v56H0z"/><path d="M31.66 12h-4.85l12.12 22.24L45 36.5 31.66 12z" fill="url(#a35u32luv)"/><path d="M30.53 36.71c4.54.15 9.97 2.78 12.1 4.1L45 36.5c-5.84-2.67-10.36-3.76-11.89-3.98l-2.58 4.2z" fill="url(#b35u32luv)"/><path d="M23.18 14.31L11 36.56 13.5 41l9.69-17.81 7.34 13.53 2.61-4.2-9.96-18.2z" fill="url(#c35u32luv)"/><defs><linearGradient id="a35u32luv" x1="30.58" y1="12" x2="43.07" y2="35.9" gradientUnits="userSpaceOnUse"><stop stop-color="#CC1A1D"/><stop offset="1" stop-color="#990101"/></linearGradient><linearGradient id="b35u32luv" x1="32.01" y1="34.85" x2="43.73" y2="38.13" gradientUnits="userSpaceOnUse"><stop stop-color="#F95143"/><stop offset="1" stop-color="#D52223"/></linearGradient><linearGradient id="c35u32luv" x1="32.35" y1="26.72" x2="11" y2="26.72" gradientUnits="userSpaceOnUse"><stop stop-color="#D32021"/><stop offset="1" stop-color="#FD5647"/></linearGradient></defs></svg>