<!-- by TradingView --><svg width="56" height="56" viewBox="0 0 56 56" xmlns="http://www.w3.org/2000/svg"><path fill="#F0F3FA" d="M0 0h56v56H0z"/><path fill-rule="evenodd" d="M28 40c11.05 0 20-5.37 20-12s-8.95-12-20-12S8 21.37 8 28s8.95 12 20 12Zm9-19v14.9c2.13.38 2.92-.44 3-.89v-3.97c2.69 0 5-1.2 5-4.37 0-4.72-5.33-5.74-8-5.67Zm3 2.52v5.06h.09c.8 0 2.52.02 2.52-2.28 0-1.9-1.7-2.68-2.61-2.78Zm-28 1.3v7.37c.73 1.09 3.02 1.9 4 2.17V30h1.58v4.88c.9.62 2.66 1 3.42 1.12V21c-.76.11-2.51.5-3.42 1.12V27H16v-4.36c-.98.27-3.27 1.08-4 2.17Zm12 11.3V21.68c.17-.56 1.1-1.68 3.52-1.68 5.17 0 7.48 4.78 7.48 8.5 0 3.72-2.3 8.5-7.48 8.5-2.41 0-3.35-.33-3.52-.88ZM27.52 23c1.53.04 3.48 1 3.48 5.5s-1.95 5.46-3.48 5.5c-.18 0-.36 0-.52-.03V23.03c.16-.02.34-.03.52-.03Z" fill="#F91F2D"/></svg>