<!-- by TradingView --><svg width="56" height="56" viewBox="0 0 56 56" xmlns="http://www.w3.org/2000/svg"><path fill="#F0F3FA" d="M0 0h56v56H0z"/><path fill-rule="evenodd" d="M28 17a3 3 0 1 0 0-6 3 3 0 0 0 0 6Zm0-1.52a1.48 1.48 0 1 0 0-2.96 1.48 1.48 0 0 0 0 2.96ZM16.5 24a2.5 2.5 0 1 0 0-5 2.5 2.5 0 0 0 0 5Zm0-1.4a1.1 1.1 0 1 0 0-2.2 1.1 1.1 0 0 0 0 2.2ZM39.5 24a2.5 2.5 0 1 1 0-5 2.5 2.5 0 0 1 0 5Zm0-1.4a1.1 1.1 0 1 1 0-2.2 1.1 1.1 0 0 1 0 2.2ZM10.5 31a2.5 2.5 0 1 0 0-5 2.5 2.5 0 0 0 0 5Zm0-1.4a1.1 1.1 0 1 0 0-2.2 1.1 1.1 0 0 0 0 2.2ZM45.5 31a2.5 2.5 0 1 1 0-5 2.5 2.5 0 0 1 0 5Zm0-1.4a1.1 1.1 0 1 1 0-2.2 1.1 1.1 0 0 1 0 2.2Z" fill="#BEA549"/><path d="M27.22 18.64c.3-.85 1.55-.86 1.86 0l4.13 10.92L32 31l-3.84-10.2-4.48 12.53 4.47 5.75 9.72-13.58c.23-.34.58-.5.93-.5.6-.01 1.2.42 1.2 1.13v5.52L38.39 33v-5.44l-3.99 5.98 1.75 3.95 6.76-5.94c.86-.75 2.21-.07 2.08 1.05l-.44 3.76c-.06.48-.32.92-.71 1.2l-1.51 1.11c-.32.24-.7.34-1.06.33a1.7 1.7 0 0 1-1.56-1.1l-.4-1.11-2 1.79c-.33.3-.75.43-1.16.42a1.7 1.7 0 0 1-1.53-1l-1.32-2.99-4.29 5.57a1.1 1.1 0 0 1-1.72 0l-4.24-5.47-.94 2.78A1.7 1.7 0 0 1 20.47 39c-.4 0-.8-.15-1.13-.45l-1.73-1.8v.52c0 .93-.76 1.68-1.61 1.73-.3.02-.6-.05-.9-.2l-2.26-1.22a1.75 1.75 0 0 1-.9-1.14l-.9-3.87c-.26-1.06.94-1.88 1.88-1.3L15 32.41v1.62l-2.2-.98.74 3.12L16 37.42V26.13c0-.69.58-1.13 1.18-1.13.32 0 .63.13.87.4l4.06 4.6-.58 1.92-3.92-4.6v7.28l2.93 2.9 6.68-18.86Zm13.39 17.02.66 1.83 1.67-1.23.34-2.93-2.67 2.33Z" fill="#BEA549"/></svg>