<!-- by TradingView --><svg width="56" height="56" viewBox="0 0 56 56" xmlns="http://www.w3.org/2000/svg"><path fill="#F0F3FA" d="M0 0h56v56H0z"/><path d="m39.4 14.94-.14-.88c-.05-.27-.3-.68-.64-.59-.17.04-.22.13-.18.26-.42-.24-.6.42-.58.69.08.68.3 1.3.7 1.83.02.03.02.06 0 .1l-.46.63c-.03-.62.04-1.16-.22-1.62-.15-.27-.6-.52-.8-.13-.4-.1-.61.35-.63.66a3.93 3.93 0 0 0 .67 2.23c.03.03.03.06 0 .1l-.94 1.02c.13-.66.35-2.03-.29-2.51-.24-.18-.47-.17-.7.04-.52-.23-.9.47-.93.88a5.46 5.46 0 0 0 .5 2.85c0 .03 0 .06-.03.09l-1 .88c.05-.28.1-.56.13-.84.09-.74.16-1.26-.05-1.86-.13-.38-.44-.76-.86-.7-.16.02-.3.12-.43.3-.55 0-.92.62-.96 1.08a6.36 6.36 0 0 0 .56 3.43l-.02.04-.94.88c.14-.66.24-1.32.29-1.98.04-.56-.05-1.1-.28-1.62-.1-.22-.24-.4-.43-.56-.36-.29-.67-.3-.94-.04a1.1 1.1 0 0 0-.35-.15.57.57 0 0 0-.36.02c-.67.28-1 1-1.06 1.69-.09 1.03 0 2.11.26 3.25a5.1 5.1 0 0 0 .68 1.66v.03l-1.48 1.82a14 14 0 0 0-.13-3.26 2.95 2.95 0 0 0-.8-1.66c-.4-.41-.85-.52-1.34-.31a.96.96 0 0 0-1.06.13c-.73.56-.94 1.55-.86 2.43.16 1.77.57 3.34 1.23 4.7.19.39.47.79.84 1.2.03.03.03.06.02.09l-.63 1.26a27.41 27.41 0 0 0-.87-3.46c-.41-1.25-1.26-2.62-2.62-2.85-.24-.04-.41-.01-.53.1-.54-.2-.99-.12-1.33.24-1.52 1.57.03 4.43.98 6.17a8.95 8.95 0 0 0 2.98 3.43c.03.02.04.04.03.07l-.6 2.4c-.7-1.3-1.48-2.5-2.34-3.6a6.62 6.62 0 0 0-1.86-1.64 2.43 2.43 0 0 0-1.7-.33 6.15 6.15 0 0 0-.85-.04 1.22 1.22 0 0 0-1.01.51.03.03 0 0 1-.03 0V16a3.9 3.9 0 0 1 2.8-3.82c.36-.11 1.08-.19 2.16-.19h17.5c.58 0 1.2.2 1.85.55.03.02.04.04.04.08-.08.6.04 1.15.35 1.66a.1.1 0 0 1 0 .1l-.3.55Z" fill="#00AB3B"/><path d="m40.58 13.68-.8 2.06c-.16.07-.27.14-.35.21-.14.12-.17.1-.08-.06.3-.58.46-1.22.75-1.78.07-.12.13-.43.2-.94.05-.36-.02-.66-.19-.9-.2-.28-.14-.34.17-.18.22.11.34.33.34.64 0 .33 0 .65-.04.95Z" fill="#007874"/><path d="m39.4 14.94-.42.77c-.07.12-.09.11-.07-.02.07-.5.08-1.66-.47-1.96-.04-.13.01-.22.18-.26.34-.09.59.32.64.6l.15.87Z" fill="#006C23"/><path d="m39.78 15.74.8-2.06c.35.48.34 1 .42 1.57 0 .03-.01.05-.05.05-.53 0-.71.22-1.17.44Z" fill="#00BCCF"/><path d="m38.1 16.98-.57.75c-.03.03-.04.03-.03-.02.15-.67.31-2.07-.43-2.48.22-.39.66-.14.81.13.26.46.2 1 .22 1.62Z" fill="#006C23"/><path d="M41.3 16.44c-.47.12-.92.2-1.35.21-.18.01-.34-.01-.48-.06-.05-.01-.08 0-.1.04l-.58 1.03-.7.33c-.06.03-.08.02-.04-.04l.97-1.42a.08.08 0 0 1 .08-.04c.8.08 1.5-.02 2.1-.29.37-.16.47-.4.32-.73-.04-.09-.02-.12.08-.08l.2.08c.1.04.16.12.19.22a.4.4 0 0 1-.06.32c-.13.2-.34.35-.63.43Z" fill="#007874"/><path d="M41 16.44V39.6c0 .72-.05 1.26-.16 1.6A3.93 3.93 0 0 1 37.06 44H26.55c-.53-.27-.82-.6-.89-.99 1.76.27 3.5.31 5.23.13.87.07 1.73 0 2.6-.24.93-.25 1.88-.71 2.37-1.54.19-.31.28-.6.29-.87.01-.68-.69-1.26-1.28-1.51a3.64 3.64 0 0 0-1.93-.27 8.48 8.48 0 0 0-1.96.06 20.2 20.2 0 0 0-5.13 1.5l.46-3.33c1.33.23 2.68.3 4.06.17.59.03 1.18 0 1.77-.06 1.46-.17 3.37-.55 3.94-2.12.3-.84-.47-1.51-1.18-1.76a3 3 0 0 0-1.52-.15 5.6 5.6 0 0 0-1.22-.03c-1.75.2-3.52.73-5.3 1.58.23-.83.51-1.64.85-2.4.81.1 1.65.12 2.53.04.77.03 1.54-.03 2.31-.18a23 23 0 0 0 1.08-.25c.86-.21 1.75-.65 2.16-1.44.48-.92-.17-1.51-1.02-1.74a1.9 1.9 0 0 0-1.02-.02c-.6-.1-1.22-.05-1.86.12-.97.26-1.94.62-2.92 1.08.46-.83.98-1.6 1.55-2.33l1.39.25c1.24.2 2.49.18 3.73-.08.56-.12.98-.35 1.28-.7.48-.55.4-1.03-.22-1.43-.3-.2-.67-.29-1.08-.28-.46-.15-.95-.2-1.48-.11-.62.1-1.32.26-2.11.5l1.53-1.73 1.43.31c.84.24 1.66.3 2.46.15.51-.09 1.34-.71.76-1.28a1.44 1.44 0 0 0-1.08-.4 4.6 4.6 0 0 0-2.37-.04l1.13-1.3.26.06c.01.07.12.13.3.18.86.19 2.47.42 3.1-.2.29-.3.27-.61-.04-.86a.97.97 0 0 0-.58-.2c-.18-.12-.36-.2-.55-.23-.36-.05-.81-.04-1.35.05l1.03-1.38c.17-.12 1.6.1 2.04-.04 1.21-.37.42-1.4-.53-1.23-.25.04-.51.1-.78.21l.58-1.03c.02-.04.05-.05.1-.04.45.16 1.07-.03 1.53-.15Z" fill="#00BCCF"/><path d="m36.18 19.24-.69.68c-.06.06-.08.05-.05-.04.18-.54.28-1.1.29-1.7 0-.57-.04-1.08-.53-1.4.22-.22.45-.23.7-.05.63.48.41 1.85.28 2.5Z" fill="#006C23"/><path d="M38.3 18.7c.59.02 1.3-.05 1.8-.37.25-.15.46-.45.23-.73.27-.07.5 0 .68.2.3.36-.33.8-.61.88a4.25 4.25 0 0 1-2.12.12.05.05 0 0 1-.02-.04l.01-.02.03-.04Z" fill="#007874"/><path d="m33.73 21.47-.72.62c-.04.03-.05.02-.03-.03.2-.68.32-1.39.33-2.1 0-.65-.12-1.32-.79-1.6.12-.17.27-.27.43-.29.42-.06.73.32.86.7.21.6.14 1.12.05 1.86l-.13.84Z" fill="#006C23"/><path d="m38.06 18.72-1.03 1.38-.92.23c-.07.02-.09 0-.04-.05l1.45-1.63a.08.08 0 0 1 .08-.03l.46.1Z" fill="#007874"/><path d="m31.16 23.8-1.24 1.25c-.08.07-.1.06-.06-.03.52-1.3.73-2.65.64-4.09-.03-.5-.27-.95-.7-1.33.27-.26.58-.25.94.04.19.15.33.34.43.56.23.52.32 1.06.28 1.62-.05.66-.14 1.32-.29 1.98Z" fill="#006C23"/><path d="M36.15 21.36c.87.16 1.59.18 2.15.07.52-.1 1.2-.62.63-1.15.22 0 .41.08.58.2.31.25.33.57.05.85-.64.63-2.25.4-3.1.2-.2-.04-.3-.1-.31-.17ZM35.9 21.3l-1.14 1.3-1.17.34c-.09.03-.1 0-.04-.05l1.71-1.77a.08.08 0 0 1 .1-.02l.53.2Z" fill="#007874"/><path d="m27.49 27.92-1.19 1.73c-.04.06-.05.05-.03-.02.36-1.52.44-3.08.25-4.67-.12-.92-.45-1.76-1.3-2.27.5-.2.94-.1 1.35.31.42.44.69.99.8 1.66a14 14 0 0 1 .12 3.26Z" fill="#006C23"/><path d="M35 24.17c.48.04.96.05 1.42.02.45-.02.8-.16 1.06-.42.44-.45.13-.92-.35-1.14.43 0 .8.13 1.08.41.58.57-.25 1.2-.76 1.28-.8.14-1.62.1-2.46-.15ZM33.56 23.86l-1.53 1.72-1.37.62c-.14.06-.16.04-.06-.07l2.26-2.54c.02-.03.06-.04.1-.02l.6.3ZM31.9 27.69c.84 0 1.66-.05 2.46-.14a2.79 2.79 0 0 0 1.74-.75c.6-.66.31-1.27-.48-1.6.41 0 .77.08 1.08.28.63.4.7.88.22 1.44-.3.34-.72.57-1.28.69-1.24.26-2.49.28-3.73.08Z" fill="#007874"/><path d="m24.76 32.5-.84 2.14c-.05.13-.07.12-.06-.02.05-.49.06-1.02.01-1.5a16.2 16.2 0 0 0-1.23-4.88c-.36-.85-1.01-1.6-1.9-1.95.12-.11.3-.14.53-.1 1.36.23 2.2 1.6 2.62 2.85.35 1.1.64 2.24.87 3.46Z" fill="#006C23"/><path d="M30.52 27.44c-.57.72-1.09 1.5-1.55 2.33l-1.32.82c-.09.05-.1.04-.06-.05a25.38 25.38 0 0 1 2.18-3.34c.03-.03.05-.03.09-.02l.66.26ZM30.24 32.2c.86-.1 1.7-.25 2.53-.45 1-.24 2.23-.94 2.27-2.06.03-.6-.76-1-1.29-1.12.3-.09.64-.08 1.02.02.85.23 1.5.82 1.02 1.74-.4.79-1.3 1.23-2.16 1.44l-1.08.25c-.77.15-1.54.21-2.31.18ZM27.7 32.16c-.33.76-.61 1.57-.84 2.4l-.98.6c-.1.07-.14.04-.1-.08.3-1.06.66-2.08 1.08-3.06.01-.03.04-.05.07-.04l.78.18Z" fill="#007874"/><path d="m22.8 38.6-.23 1.68-.02.01h-.01v-.01a16.9 16.9 0 0 0-3.45-5.79 5.29 5.29 0 0 0-2.18-1.46c.58-.1 1.15 0 1.7.33.7.41 1.32.96 1.85 1.63a24.7 24.7 0 0 1 2.34 3.61Z" fill="#006C23"/><path d="M30.37 37.1c.8-.06 1.58-.18 2.35-.35 1.02-.22 2-.76 2.41-1.72.19-.43.14-.81-.14-1.15a2.59 2.59 0 0 0-1.61-.87 3 3 0 0 1 1.52.15c.7.25 1.49.92 1.18 1.76-.57 1.57-2.48 1.95-3.94 2.12-.6.07-1.18.09-1.77.06Z" fill="#007874"/><path d="M15.03 36.15c.34.69.82 1.36 1.44 2 1.62 1.72 3.48 3.44 5.75 4.2.03.01.05.04.05.07 0 .59-.21 1.02-.62 1.3-.18.12-.45.2-.81.22-.52.05-1.14.06-1.87.05a3.93 3.93 0 0 1-3.24-1.63c-.61-.82-.72-1.6-.73-2.7a363.69 363.69 0 0 1 .03-3.5Z" fill="#00AB3B"/><path d="m26.31 36.93-.46 3.33-.92.51c-.06.04-.08.02-.07-.05l.56-3.98v-.02l.02-.02a.06.06 0 0 1 .05 0l.82.23ZM30.9 43.13c.47-.04 1-.12 1.55-.24 1.24-.26 2.6-1.02 2.8-2.35a.92.92 0 0 0-.13-.56c-.4-.77-1.34-1.15-2.18-1.28.67-.09 1.31 0 1.93.27.6.25 1.3.83 1.28 1.5 0 .28-.1.57-.29.88-.5.83-1.44 1.29-2.37 1.54-.87.23-1.73.31-2.6.24ZM25.66 43c.07.4.36.72.89.99-.47.03-.8 0-.99-.07-.5-.2-.8-.56-.88-1.09 0-.04.01-.05.05-.04l.93.21Z" fill="#007874"/></svg>