<!-- by TradingView --><svg xmlns="http://www.w3.org/2000/svg" width="56" height="56" viewBox="0 0 56 56"><path fill="#F0F3FA" d="M0 0h56v56H0z"/><path fill="#003D71" d="M6 28h1v4H6zM7.5 28v4h1v-2.7l2.02 2.7h.98v-4h-1v2.58L8.6 28H7.5zM21 28v4h1v-2.7l2.02 2.7H25v-4h-1v2.58L22.1 28H21z"/><path fill-rule="evenodd" d="M18.22 28a2 2 0 1 0 0 4h.56a2 2 0 1 0 0-4h-.56zm.12.8a1.15 1.15 0 1 0 0 2.3h.32a1.15 1.15 0 0 0 0-2.3h-.32zM14 28h-2v4h2a2 2 0 1 0 0-4zm-.28.72H13v2.57h.72a1.28 1.28 0 1 0 0-2.57z" fill="#003D71"/><path fill="#003D71" d="M33.5 28h1v4h-1z"/><path fill="#B50937" d="M44.5 28h1v4h-1z"/><path d="M26.35 28h-.85v4H29v-.77h-2.5v-.85H29v-.76h-2.5v-.85H29V28h-2.65zM31.23 28c1.4 0 1.84.76 1.9 1.13h-1.18c0-.16-.19-.5-.79-.5-.6 0-.83.27-.83.43 0 .16.1.34 1.51.5 1.14.13 1.38.76 1.38 1.06 0 .53-.37 1.38-1.93 1.38-1.57 0-2.05-.9-2.08-1.38h1.06c.08.44.67.6 1.02.6.37 0 .84-.12.84-.47.01-.28-.7-.44-1.05-.48-1.53-.2-1.75-.75-1.77-1.05-.03-.3.17-1.23 1.92-1.22z" fill="#003D71"/><path fill-rule="evenodd" d="M34.77 32l1.65-4h1.1l1.72 4H38.1l-.33-.8H36.2l-.34.8h-1.08zm1.66-1.58l.56-1.42.55 1.42h-1.11z" fill="#003D71"/><path fill-rule="evenodd" d="M39.63 32l1.65-4h1.1l1.72 4h-1.15l-.33-.8h-1.58l-.34.8h-1.07zm1.65-1.58l.57-1.42.55 1.42h-1.12z" fill="#B50937"/><path d="M46 28H48.93a1.07 1.07 0 0 1 .55 1.99c.24.22.31.63.32.99.01.4.14.84.2 1.02h-1.07a3.6 3.6 0 0 1-.17-1.02c.02-.34-.37-.47-.56-.49H47V32h-1v-4zm1 .6v1.08h1.46a.54.54 0 1 0 0-1.07H47z" fill="#B50937"/><path d="M40.75 17.72c-2.38-1.8-3.42-3.73-3.74-4.72 0 3.6 2.06 6.17 5.22 8.14 2.5 1.55 3.2 2.5 3.34 2.99.16-2.13-1-3.49-1.6-3.9l-3.22-2.51zM41.54 24.83c-2.44-.86-3.71-2.27-4.04-2.87.19 1.88 1.8 3.27 4.04 4.04a7.85 7.85 0 0 1 2.93 1.58c.04-.56-.49-1.88-2.93-2.75z" fill="#003D71"/><path d="M40.5 21.22c-2.42-1.37-3.46-3.07-3.78-3.87-.19 4.97 6.67 7.15 7.79 8.04.9.72.66 1.65.36 2.12a5.26 5.26 0 0 1 5.09-1.26c.1-.32.07-.96-.93-.96-.99 0-1.2-.25-1.18-.37h.91c-.88-.97-2.55-.16-3.28.37-.09-1-1.87-2.32-4.98-4.07z" fill="url(#avrsojsu3)"/><defs><linearGradient id="avrsojsu3" x1="36.72" y1="18.75" x2="47.4" y2="25.28" gradientUnits="userSpaceOnUse"><stop offset=".47" stop-color="#1197D5"/><stop offset="1" stop-color="#003D71"/></linearGradient></defs></svg>