<!-- by TradingView --><svg width="56" height="56" viewBox="0 0 56 56" xmlns="http://www.w3.org/2000/svg"><path fill="#F0F3FA" d="M0 0h56v56H0z"/><path d="M8 21.7a2.7 2.7 0 0 1 2.7-2.7h10.6a2.7 2.7 0 0 1 2.7 2.7v12.6a2.7 2.7 0 0 1-2.7 2.7H10.7A2.7 2.7 0 0 1 8 34.3V21.7Z" fill="#1E2C61"/><path fill-rule="evenodd" d="M23 28c0 4.42-3.13 8-7 8s-7-3.58-7-8 3.13-8 7-8 7 3.58 7 8Zm-2.08 4A5.8 5.8 0 0 1 16 35a5.8 5.8 0 0 1-4.92-3H10l.54-1.09A7.97 7.97 0 0 1 10 28c0-3.66 2.41-6.67 5.49-6.97L16 20l.51 1.03c3.08.3 5.49 3.3 5.49 6.97 0 1.04-.2 2.03-.54 2.91L22 32h-1.08Z" fill="#F1C711"/><path d="M40 21h4c2.88 0 4 1.53 4 4.2 0 2.23-.27 4.76-3.13 4.76h-1.84V36H40V21Zm3.03 2.57v3.81l.23.01c.74 0 1.78-.2 1.78-1.36V24.8c0-.77-1.18-1.23-2-1.23ZM31 21h3.43c1.08 0 1.9.1 2.46.29.56.19 1 .58 1.35 1.16.34.59.52 1.52.52 2.82 0 .88-.13 1.49-.37 1.84-.24.34-.72.6-1.43.8.8.2 1.33.54 1.62 1.01.28.47.42 1.2.42 2.17v1.39c0 1.01-.1 1.76-.31 2.25-.2.49-.53.82-.97 1-.45.18-1.36.27-2.74.27H31V21Zm3.44 2.57v3.33h.34c.34 0 .55-.1.64-.29.1-.19.14-.73.14-1.62 0-.47-.03-.8-.11-.98-.08-.19-.18-.31-.3-.36a2.3 2.3 0 0 0-.71-.08Zm0 5.67v4.2c.48-.02.79-.11.92-.27.14-.15.2-.53.2-1.14v-1.4c0-.64-.06-1.03-.18-1.16-.12-.14-.43-.21-.94-.23ZM30 21v15h-4V21h4Z" fill="#1E2C61"/><path d="M40 28h5l-5 3v-3ZM16.25 21.45V30H21l-4.75-8.55Zm-.6 8.55-3-2.99L11 30h4.65Zm-2.74-3.44 2.84 2.84v-7.95l-2.84 5.1ZM20.39 31l-5.46 1.73L11.29 31h9.1Zm.83 0Zm-.22.33L15.74 33h4.17L21 31.33ZM14.32 33 11 31.42 12.12 33h2.2Z" fill="#F1C711"/></svg>