<!-- by TradingView --><svg width="56" height="56" viewBox="0 0 56 56" xmlns="http://www.w3.org/2000/svg"><path fill="#181B1E" d="M0 0h56v56H0z"/><path d="M29.32 14c1.86 1.47 11.95-1.72 13.18 1.53 2 5.31-5.07 20.29-21.27 25.5L19 41.5c-.31-.08-.65-.03-1 0-.97 0-2.25-.48-3.16-.5-.81-.02-1.36-.32-1.63-.91-.14-.29-.2-.84-.2-1.67L13 15.94c0-.79.26-1.33.77-1.64.29-.16.8-.3 1.56-.3 4.66.03 9.17 0 13.99 0Z" fill="#F61C2E"/><path d="M43.18 14.6c.76 1.26 1 2.53.71 3.81-.66 3-3.76 5.78-6.14 7.55a22.46 22.46 0 0 1-6.23 3.29.12.12 0 0 0-.02.13l.05.05.94.58.8.64c.14.25.3.49.46.7a5.33 5.33 0 0 1 .93 4.4c-.45 2.05-2.3 3.76-4.07 4.95a24.25 24.25 0 0 1-6.18 3.04c-1.48.48-3.27.42-5.36-.17a3.99 3.99 0 0 1-1.67-1.5c-.16-.25-.08-.54.26-.86a3 3 0 0 1 .98.06 3.9 3.9 0 0 0 2.16.6l1.5-.11c.64-.05 1.16-.31 1.78-.5 2.7-1 5.9-2.82 7.67-5.17a5.18 5.18 0 0 0 1.07-2.97c.02-.64-.26-1.19-.84-1.64a8.58 8.58 0 0 0-5.05-.93c-.59-.07-1.11-.44-1.57-1.12-.25-.26-.3-.54-.18-.84a.2.2 0 0 1 .16-.13l.53-.1a23.85 23.85 0 0 0 14.38-8.39 7.66 7.66 0 0 0 1.76-3.5c.1-.53-.12-1.08-.65-1.65-2.13-.8-4.48-.86-7.05-.19a54.46 54.46 0 0 0-9.3 3.31 33.36 33.36 0 0 0-7.49 4.83 6.53 6.53 0 0 0-2.28 3.87.19.19 0 0 1-.15.16l-.22.06c-.54-.11-1-.4-1.36-.86-.35-.43-.35-.92-.2-1.4.92-2.94 3.36-4.72 5.88-6.3a45.19 45.19 0 0 1 5.46-2.95c1.3-.58 3.13-1.2 4.67-1.87A28.15 28.15 0 0 1 37.07 12c1.12-.02 2.2.12 3.25.5a5.94 5.94 0 0 1 2.86 2.1Z" fill="#FEFFFF"/><path d="M41.36 14.82c-.81.1-1.63.18-2.44.21-1.08.05-1.9.12-2.43.22-2.02.35-4 .9-5.92 1.67l-4.12 1.61c-.72.28-1.1.68-1.8.9-.23.06-.48.18-.73.35l-1.67 1.01-.79.43c-.52.28-.98.65-1.38 1.1-.28 0-.47.07-.56.22a5 5 0 0 1-.43.65 5.84 5.84 0 0 0-2.88 4.08c-.04.21-.17.31-.38.3-.56-.03-.88-.27-.96-.7l.22-.07a.19.19 0 0 0 .15-.16 6.53 6.53 0 0 1 2.28-3.87 33.36 33.36 0 0 1 7.5-4.83 54.46 54.46 0 0 1 9.29-3.3c2.57-.68 4.92-.62 7.05.18ZM42.32 23.68c-.03-.04-3.32 4.82-9.83 6.33l-.94-.58a.12.12 0 0 1-.06-.12l.03-.06a22.45 22.45 0 0 0 6.23-3.3c2.38-1.76 5.48-4.54 6.14-7.54a5.04 5.04 0 0 0-.71-3.8c.97.34 1.55 1.17 1.75 2.48a6.3 6.3 0 0 1-1.2 4.78 26.3 26.3 0 0 1-1.41 1.81Z" fill="#A0262D"/><path d="M27.58 20.45c.38.5.46.88.1 1.45a37.33 37.33 0 0 0-5.47 18.81c0 .44-.34.55-.98.33a3.31 3.31 0 0 1-.85-.92c-.39-.62-.25-1.34-.16-2.07a.15.15 0 0 0-.07-.14.14.14 0 0 0-.14 0c-1.08.6-2.08.57-2.99-.09-1.25-.9-1.4-2.26-1.17-3.82.18-1.17.48-2.34.9-3.52.05-.1.12-.2.2-.26.1-.06.2-.09.31-.08.72.03 1.6.43 1.76 1.21a40.9 40.9 0 0 0-.82 4.15c-.02.17-.03.32-.02.45a.13.13 0 0 0 .07.1.12.12 0 0 0 .13 0l1.37-.96c.49-.27.75-.55.8-.84.83-5.12 2.6-9.87 5.3-14.26.5-.8 1.29 0 1.73.46Z" fill="#FEFFFF"/><path d="m25.87 28.36-.53.1a.2.2 0 0 0-.17.13c-.12.3-.06.58.19.84l-.68 2.22a37.5 37.5 0 0 0-1.52 9.23c0 .05.01.11.05.15.03.05.08.08.14.09l.73.14c-.62.19-1.14.45-1.78.5l-1.5.11a3.9 3.9 0 0 1-2.16-.6l2.6-.23c.63.22.96.1.97-.33.2-6.94 2.03-13.2 5.48-18.8.35-.58.27-.96-.1-1.46.43.17.8.52 1.11 1.05.2.35.23.67.07.96-.75 1.33-1.47 2.68-2.15 4.04-.28.55-.42 1.25-.75 1.86Z" fill="#A0262D"/><path d="M20.08 22.33c.57.23 1.03.63 1.38 1.2.1.14.11.26.07.35-.8 1.78-1.43 3.61-1.9 5.5a.19.19 0 0 1-.16.14l-.34.03c-.63-.3-1.73-1.02-1.49-1.88.39-1.38.87-2.87 1.45-4.48.08-.08.22-.3.43-.65.1-.15.28-.22.56-.21Z" fill="#FEFFFF"/><path d="m19.13 29.55.34-.03a.19.19 0 0 0 .16-.14c.47-1.89 1.1-3.72 1.9-5.5.04-.09.02-.2-.07-.35.05-.17.1-.23.17-.18.72.56.9 1.21.55 1.96l-.39.82c-.34.94-.82 1.96-1 2.94-.13.6-.27 1.59-1.12 1.1-.32-.17-.5-.38-.54-.62Z" fill="#A0262D"/><path d="M26.93 30.55c-.1.02-.14.13-.1.3.01.1.06.16.13.2.22.13.45.2.7.2.72.05 1.43.07 2.13.08.23 0 .59.06 1.08.17.4.09.77.08 1.1-.02.6.45.87 1 .85 1.64a5.18 5.18 0 0 1-1.07 2.97c-1.78 2.35-4.97 4.17-7.67 5.17l-.73-.14a.23.23 0 0 1-.14-.09.24.24 0 0 1-.05-.15c.14-3.12.6-6.25 1.52-9.23l.68-2.22c.46.68.98 1.05 1.57 1.12Z" fill="#F61C2E"/><path d="M31.98 31.48c-.34.1-.7.11-1.11.02a6.2 6.2 0 0 0-1.08-.17c-.7-.01-1.41-.04-2.12-.07a1.56 1.56 0 0 1-.71-.21.27.27 0 0 1-.14-.2c-.03-.17 0-.28.11-.3a8.58 8.58 0 0 1 5.05.93ZM19.75 35.09l-1.37.96a.12.12 0 0 1-.18-.03.13.13 0 0 1-.02-.07c0-.13 0-.28.02-.45.2-1.4.47-2.77.82-4.15.25-.1.45-.04.63.2.27.37.14 1.18.1 1.63a4.1 4.1 0 0 1-.35.89c-.25.55-.14.89.35 1.02Z" fill="#A0262D"/><path d="M42 24v14.5c0 .79-.11 1.35-.34 1.7-.37.54-.95.8-1.74.8H32.1c.92-.8 1.67-1.51 2.25-2.19a5.23 5.23 0 0 0 1.4-4.34 5.58 5.58 0 0 0-2.46-3.82l-.8-.64C41.66 25 42 24 42 24Z" fill="#BBB"/><path d="M32.1 41.24c-1.01.7-2.1 1.36-3.27 2-1.02.54-2.07.98-3.17 1.3-1.29.38-2.4.52-3.36.44a5.39 5.39 0 0 1-3.23-1.4c2.09.58 3.88.64 5.36.16 2.11-.67 4.17-1.69 6.18-3.04 1.77-1.2 3.62-2.9 4.07-4.95.33-1.53.03-3.1-.93-4.4a6.3 6.3 0 0 1-.46-.7c1.52 1.06 2.72 2.76 2.71 4.63 0 1.38-.55 2.71-1.45 3.76-.58.67-1.53 1.4-2.45 2.2Z" fill="#A0262D"/></svg>