<!-- by TradingView --><svg width="56" height="56" viewBox="0 0 56 56" fill="none" xmlns="http://www.w3.org/2000/svg">
<rect width="56" height="56" fill="#F0F3FA"/>
<path fill-rule="evenodd" clip-rule="evenodd" d="M28 45C37.3888 45 45 37.3888 45 28C45 18.6112 37.3888 11 28 11C18.6112 11 11 18.6112 11 28C11 37.3888 18.6112 45 28 45ZM39.3269 26.8001C40.2364 26.8001 41.3583 27.0001 41.3583 27.0001C41.4337 26.8097 41.5231 26.6217 41.6109 26.4371L41.6109 26.437L41.6109 26.437L41.6109 26.437L41.611 26.4369C41.8097 26.0189 42 25.6186 42 25.2501C42 24.1876 39.3269 24.0001 38.75 24.0001C36.6875 24.0001 34.2747 24.6241 33.75 27.2189C33.244 29.7212 34.9442 30.5256 36.3439 31.1878C37.2761 31.6288 38.075 32.0068 38 32.7814C37.8937 33.8801 37 34.0001 35.6562 34.0001C35.2187 34.0001 33.9617 33.6395 33.4863 33.4485C33.157 33.3161 32.7707 33.4586 32.6398 33.7982C32.449 34.2931 32.2788 34.8788 32.1429 35.3462C32.0897 35.5292 32.0418 35.6941 32 35.8282C32 36.0214 33.4481 37 35.4897 37C37.5312 37 40.334 36.5728 41.125 33.6485C41.6676 31.6423 40.8576 30.4369 39.3269 29.6174C38.9967 29.4406 38.6409 29.3161 38.3086 29.1999L38.3086 29.1999C37.5096 28.9204 36.8462 28.6883 37 27.8907C37.1693 27.0127 38.4548 26.8001 39.3269 26.8001ZM19.9455 25C19.9806 24.9158 20 24.8237 20 24.7273C20 24.3256 19.6642 24 19.25 24C18.8358 24 18.5 24.3256 18.5 24.7273C18.5 24.8237 18.5194 24.9158 18.5545 25H16.875L16 28H17.7812L16 37H19.25L21.5 25H19.9455ZM19.3359 22C18.5625 22 18.0131 22.3105 17.4716 22.7921C17.3554 22.8954 17.296 23.0564 17.3 23.2049C17.307 23.4639 17.4975 23.696 17.7715 23.697C17.9452 23.6976 18.0839 23.6378 18.2344 23.522C18.2602 23.5022 18.2866 23.4815 18.3135 23.4605L18.3139 23.4602L18.314 23.4601C18.58 23.2518 18.9017 23 19.3359 23C19.8033 23 20.0507 23.1974 20.2777 23.3786C20.3025 23.3984 20.327 23.418 20.3516 23.4371C20.5152 23.5644 20.7515 23.7015 20.9453 23.7C21.1797 23.7 21.4 23.522 21.4 23.2049C21.4 23.1049 21.3635 22.9833 21.2798 22.8813C20.8123 22.3116 20.1094 22 19.3359 22ZM23 20C23 20 23.74 20.1012 23.5 22.655C22.8438 27.3738 21 36.6867 21 36.6867C21 36.6867 23.1113 37 24.8255 37C28.5656 37 31.4029 35.9155 32.6563 31.373C32.8793 30.5646 32.9953 29.7563 32.9966 29C33.0003 26.7749 32.0106 25 29.8304 25C27.4149 25 26.1293 26.6247 26.1293 26.6247C26.1293 26.6247 26.7052 22.5993 26.7812 21.5625C26.8491 20.6379 26.8323 20 25.5838 20H23ZM24.7867 33.7232C24.9809 32.6028 25.2298 31.3901 25.4351 30.3898C25.4794 30.1738 25.5217 29.9677 25.561 29.7745C25.561 29.7745 26.535 28 27.9375 28C29.34 28 29.9062 29.5625 29.5 30.9062C29.0938 32.25 28.6816 33.09 27.2799 33.7509C26.911 33.9248 26.419 34 25.9668 34C25.3159 34 24.7475 33.949 24.7475 33.949L24.7867 33.7232ZM19.3081 20C18.1094 20 17.0625 20.4875 16.125 21.4941C16.0419 21.5971 15.9952 21.729 16 21.8595C16.0059 22.0201 16.085 22.1787 16.2111 22.2789C16.489 22.4997 16.8351 22.4311 17.1562 22.0781C17.5612 21.6331 18.2625 21.1 19.3009 21.1C20.6472 21.1 21.292 21.8356 21.6719 22.2789C21.8218 22.4538 22.101 22.5072 22.3669 22.3222C22.5192 22.2163 22.6082 22.0393 22.6 21.8595C22.5939 21.7255 22.5246 21.5899 22.436 21.4812C21.5864 20.4392 20.6406 20 19.3081 20Z" fill="#272261"/>
</svg>
