<!-- by TradingView --><svg width="56" height="56" viewBox="0 0 56 56" xmlns="http://www.w3.org/2000/svg"><path fill="#F0F3FA" d="M0 0h56v56H0z"/><path d="M37.47 24h9.3c1.61 0 2.7 1.69 2.03 3.18L45.75 34h-3.68l2.9-6.7a.93.93 0 0 0-.83-1.3h-3.97l-3.49 8H33l4.47-10Z" fill="#2F2C49"/><path fill-rule="evenodd" d="M28.01 24.66c-4.06 1.37-6.68 4.43-5.86 6.82.82 2.4 4.78 3.23 8.84 1.86 4.06-1.37 6.68-4.43 5.86-6.82-.82-2.4-4.78-3.23-8.84-1.86Zm.35 2.14c-1.83 1.13-2.8 3.03-2.17 4.24.63 1.22 2.62 1.29 4.45.16 1.83-1.13 2.8-3.03 2.17-4.24-.63-1.22-2.62-1.29-4.45-.16Z" fill="#2F3E72"/><path d="M20.93 24H27l-1.06 2H20.8a4.75 4.75 0 0 0-4.8 4.49c0 1.06 1.74 1.47 2.62 1.51h4.82l-1 2h-6c-3.17 0-4.27-1.77-4.42-2.65-.1-.53.16-2.17 2.11-4.5 1.96-2.33 5.35-2.87 6.8-2.85Z" fill="#2F2C49"/><path d="M11.5 24h3.61l-4.5 10H7l4.5-10Z" fill="#2F3E72"/><path d="M13.06 21H17l-1.06 2H12l1.06-2Z" fill="#3E93C2"/></svg>