<!-- by TradingView --><svg width="56" height="56" viewBox="0 0 56 56" xmlns="http://www.w3.org/2000/svg"><path fill="#F0F3FA" d="M0 0h56v56H0z"/><path fill-rule="evenodd" d="m33.12 21.42-5.68-1.8a3.43 3.43 0 0 0-3.78 1.22l-3.5 4.73a3.25 3.25 0 0 0 .01 3.89l3.52 4.72a3.43 3.43 0 0 0 3.79 1.2l5.67-1.83a3.32 3.32 0 0 0 2.33-3.15l-.01-5.84c0-1.43-.95-2.7-2.35-3.14Zm-4.9-4.14a5.98 5.98 0 0 0-6.6 2.11l-3.5 4.73a5.67 5.67 0 0 0 .02 6.8l3.51 4.7a5.98 5.98 0 0 0 6.61 2.1l5.67-1.82c2.43-.78 4.08-3 4.07-5.5l-.01-5.85c0-2.5-1.66-4.71-4.1-5.48l-5.68-1.8Z" fill="url(#a)"/><path fill-rule="evenodd" d="M25.73 44C33.61 44 40 37.5 40 29.5S33.61 15 25.73 15s-14.27 6.5-14.27 14.5S17.86 44 25.73 44Zm-.23-3a11.5 11.5 0 1 0 0-23 11.5 11.5 0 0 0 0 23Z" fill="url(#b)"/><path fill-rule="evenodd" d="M28 45a17 17 0 1 0 0-34 17 17 0 0 0 0 34Zm0-3a14 14 0 1 0 0-28 14 14 0 0 0 0 28Z" fill="url(#c)"/><defs><linearGradient id="a" x1="39.6" y1="28.43" x2="20.87" y2="21.82" gradientUnits="userSpaceOnUse"><stop stop-color="#CE2918"/><stop offset=".48" stop-color="#FE7E2A"/></linearGradient><linearGradient id="b" x1="35.6" y1="31.25" x2="16.92" y2="19.59" gradientUnits="userSpaceOnUse"><stop stop-color="#FF6422"/><stop offset="1" stop-color="#C82216"/></linearGradient><linearGradient id="c" x1="14.94" y1="17.03" x2="45" y2="31.59" gradientUnits="userSpaceOnUse"><stop stop-color="#FF6422"/><stop offset="1" stop-color="#FF331D"/></linearGradient></defs></svg>