<!-- by TradingView --><svg width="56" height="56" viewBox="0 0 56 56" xmlns="http://www.w3.org/2000/svg"><path fill="#F0F3FA" d="M0 0h56v56H0z"/><path fill-rule="evenodd" d="M28 45a17 17 0 1 0 0-34 17 17 0 0 0 0 34Zm0-1a16 16 0 1 0 0-32 16 16 0 0 0 0 32Z" fill="#00009C"/><path fill-rule="evenodd" d="M42 36 28 12 14 36h28ZM29.22 17.24 28 15l-6.62 11h4.08L21 34h6.62l2.21-3.47c.43 0 1.18.23 1.18.64 0 .33-.13.53-.2.6L29.42 34h2.54l1.26-2.01c.15-.23.43-.76.43-1.05 0-.48-.28-.78-.43-.87.6-.27 1.79-1.18 1.79-2.6a3.07 3.07 0 0 0-1.55-2.6l-.7 1.46c.15.26.46.8.46.91 0 1.23-1.55 1.69-1.87 1.69-.27 0-.46-.24-.52-.37.06-.09.25-.34.52-.63.26-.3.32-.8.32-1l-.84.54H29L25.7 33h-1.6l3.9-7h2.25c.84-.1 2.75-.43 2.75-2.19 0-1.75-1.79-2.61-2.56-2.81h-2.02l-2.45 4h-1.4l4.65-7.76ZM30 22.5 28.5 25h1.62c.32 0 .88-.35.88-.96 0-.48-.7-1.4-1-1.54Z" fill="#00009C"/></svg>