<!-- by TradingView --><svg width="56" height="56" viewBox="0 0 56 56" xmlns="http://www.w3.org/2000/svg"><path fill="#F0F3FA" d="M0 0h56v56H0z"/><path fill-rule="evenodd" d="M18.32 19.37a5.98 5.98 0 0 1 .27-3.61c.02-.05.05-.1.1-.13a1 1 0 0 1 .55-.14 4.43 4.43 0 0 1 3.82 1.91.1.1 0 0 0 .13-.04c.3-.58.74-1.13 1.33-1.64.21-.18.4-.24.56-.15.24.12.42.26.55.43.1.13.16.11.15-.06 0-.08-.02-.17-.04-.26s-.04-.18-.04-.26a4.56 4.56 0 0 1 2.07-4.37.27.27 0 0 1 .3 0 4.67 4.67 0 0 1 2.01 4.84c-.02.16.03.18.14.08l.09-.08c.34-.32.56-.53.99-.16a5.64 5.64 0 0 1 1.38 1.67.1.1 0 0 0 .13-.02 4.48 4.48 0 0 1 3.76-1.9c.2 0 .37.04.52.11.05.03.08.07.11.12a6 6 0 0 1 .34 3.64c0 .07.02.09.08.05.96-.63 2-.87 3.15-.73a.26.26 0 0 1 .22.18 5.56 5.56 0 0 1-.36 4.32c-.11.23-.29.47-.45.68-.05.06-.1.12-.13.18-.06.08-.04.12.06.12.94 0 1.72.25 2.35.75.27.22.38.3.32.71a4.5 4.5 0 0 1-1.22 2.5c-.04.05-.03.09.02.11 1.5.71 2.58 1.69 3.04 3.33a.3.3 0 0 1-.06.28c-1.32 1.56-3.44 2.08-5.17.82-.34-.25-.7-.63-1.03-.99-.2-.22-.4-.43-.57-.59a4.78 4.78 0 0 0-5.6-.81c-2.9 1.5-3.35 5.36-2.87 8.34 0 .03.02.06.04.08.02.02.05.04.08.04 3.24.54 6.24.82 9.01.87 2.65.04 5.18-.3 7.55-1.12-1.52 1.18-3.68 1.84-5.56 2.12-3.9.57-7.82.34-11.66-.24a97.4 97.4 0 0 0-5.69-.72A32.7 32.7 0 0 0 10 41a28.29 28.29 0 0 1 6.1-2.12 32.8 32.8 0 0 1 6.9-.9c.72 0 1.45.11 2.18.23l1.21.17c.05 0 .1-.01.13-.04a.18.18 0 0 0 .06-.12c.4-3.25-.3-7.5-4.09-8.39a4.68 4.68 0 0 0-4.03.9c-.32.23-.65.58-.96.92-.26.27-.5.53-.73.72-1.83 1.55-3.94 1.19-5.47-.51a.22.22 0 0 1-.06-.15c0-.2.03-.4.09-.56a4.91 4.91 0 0 1 2.96-2.91c.05-.02.06-.05.02-.09a4.38 4.38 0 0 1-1.27-2.75.37.37 0 0 1 .1-.3 3.11 3.11 0 0 1 2.08-.9c.28-.02.46-.04.55-.06.06 0 .07-.03.04-.08a5.43 5.43 0 0 1-.97-5.18.32.32 0 0 1 .27-.22 4.73 4.73 0 0 1 3.15.76c.05.03.07.02.06-.05Zm9.18-1.52c-1.32-1.9-1.6-4.13.29-5.8.07-.06.14-.06.2.01.6.58 1.01 1.29 1.27 2.12.47 1.52-.18 3-1.32 4.1-.04.03-.07.03-.1 0-.07-.05-.18-.2-.34-.43Zm-5.03 3c.3-1.15.14-2.22-.56-3.19a4.43 4.43 0 0 0-2.64-1.52.1.1 0 0 0-.07.02.1.1 0 0 0-.05.06 3.67 3.67 0 0 0 .56 3.18c.58.8 1.7 1.33 2.64 1.52a.1.1 0 0 0 .12-.07Zm11.45-3.19c.58-.8 1.7-1.33 2.65-1.51a.1.1 0 0 1 .11.07 3.67 3.67 0 0 1-.57 3.2c-.58.8-1.7 1.32-2.65 1.5a.1.1 0 0 1-.12-.08 3.67 3.67 0 0 1 .58-3.18Zm-9.06-.85c-2.16 2-1.75 4.6-.14 6.78.2.26.32.42.4.48.04.04.08.03.12 0 1.3-1.32 2-3.07 1.4-4.83a5.9 5.9 0 0 0-1.54-2.43c-.08-.08-.16-.08-.24 0Zm6.26 6.78c-.2.26-.33.43-.4.48-.05.04-.09.03-.13 0-1.3-1.32-2-3.07-1.4-4.83a5.9 5.9 0 0 1 1.54-2.43c.08-.07.16-.07.25 0 2.15 2 1.75 4.6.14 6.78Zm-12.32.98c.37-1.17.26-2.3-.41-3.34a4.66 4.66 0 0 0-2.67-1.73.1.1 0 0 0-.13.07 3.83 3.83 0 0 0 .41 3.35c.57.87 1.7 1.48 2.67 1.73a.1.1 0 0 0 .13-.08Zm18.65-3.35a4.64 4.64 0 0 1 2.67-1.73.1.1 0 0 1 .08.01l.05.06c.36 1.18.26 2.3-.42 3.35a4.66 4.66 0 0 1-2.67 1.72.1.1 0 0 1-.07 0 .11.11 0 0 1-.05-.07 3.8 3.8 0 0 1 .41-3.34Zm-13.3 7.11c.13.03.21.03.24 0 .03-.02.06-.1.08-.23.38-3.1-1.23-5.6-4.45-5.87l-.03.01-.02.01-.01.01-.01.03c-.72 3.19 1.16 5.49 4.2 6.04Zm7.31.03c-.66-3.3 1.03-5.66 4.28-6.15a.13.13 0 0 1 .14.1c.78 3.3-1.33 5.5-4.36 6.1h-.02a.05.05 0 0 1-.03-.03v-.02Zm-3.48-5.5c-.06-.06-.12-.06-.18-.01-3.07 2.68-2.34 6.34-.03 9.18a.13.13 0 0 0 .1.05.13.13 0 0 0 .1-.03c2.91-2.76 2.69-6.42.01-9.2ZM14.06 26c-.03-.1 0-.18.1-.23 1.73-.94 4.08-.97 5.4.8a6.4 6.4 0 0 1 .86 1.69.1.1 0 0 1-.05.05c-2.64 1.08-5.3.76-6.3-2.3Zm21.4 2.3c2.64 1.09 5.3.77 6.3-2.29.04-.1.01-.18-.08-.23-1.74-.94-4.09-.98-5.4.8a6.34 6.34 0 0 0-.87 1.67l.05.05Zm-23.4 3.47c-.08-.05-.1-.12-.06-.2.67-1.52 2.2-2.75 3.97-2.26a5.23 5.23 0 0 1 1.42.66v.06c-1.2 2.08-3.12 3.24-5.33 1.74Zm26.4-1.75c1.2 2.08 3.1 3.25 5.31 1.76.08-.05.1-.11.06-.2-.66-1.51-2.18-2.75-3.95-2.27a5.2 5.2 0 0 0-1.42.65v.06Z" fill="#9CAA3B"/></svg>