<!-- by TradingView --><svg width="56" height="56" viewBox="0 0 56 56" xmlns="http://www.w3.org/2000/svg"><path fill="#F0F3FA" d="M0 0h56v56H0z"/><ellipse cx="36.5" cy="27.5" rx="4.5" ry="3.5" fill="#00A4E2"/><path d="M31 30.15v8.36c.35 1.97 2.7 3.49 5.5 3.49s5.15-1.52 5.5-3.5V30a6.24 6.24 0 0 1-5.54 3.23A6.25 6.25 0 0 1 31 30.15Z" fill="#FCDA00"/><path d="M31 16.56v1.5l-7.04 2.69L14 17.89v20.5c.16.65 2.64 2.35 11 3.61V30c2.05-.06 6-1.2 6-4.28v-.92a6.63 6.63 0 0 1 5.5-2.8 6.63 6.63 0 0 1 5.5 2.8v-8.24c-.35-2-2.7-3.56-5.5-3.56s-5.15 1.55-5.5 3.56Z" fill="url(#a)"/><path d="M31 18c0 2.2-3.8 4-8.5 4S14 20.2 14 18s3.8-4 8.5-4c3 0 5.63.73 7.14 1.83l-4.06.71A8.22 8.22 0 0 0 22.5 16c-2.49 0-4.5.9-4.5 2s2.01 2 4.5 2 4.5-.9 4.5-2a.99.99 0 0 0-.14-.5h4.07c.05.16.07.33.07.5Z" fill="url(#b)"/><defs><linearGradient id="a" x1="42" y1="27.5" x2="14" y2="27.5" gradientUnits="userSpaceOnUse"><stop stop-color="#00A4E2"/><stop offset=".18" stop-color="#BEE6F9"/><stop offset=".34" stop-color="#00A4E2"/><stop offset=".5" stop-color="#00A4E2"/><stop offset=".66" stop-color="#BEE6F9"/><stop offset=".89" stop-color="#00A4E2"/></linearGradient><linearGradient id="b" x1="15.9" y1="15.65" x2="30.69" y2="19.35" gradientUnits="userSpaceOnUse"><stop stop-color="#FDDE1B"/><stop offset="1" stop-color="#FEF5B4"/></linearGradient></defs></svg>