<!-- by TradingView --><svg width="56" height="56" viewBox="0 0 56 56" xmlns="http://www.w3.org/2000/svg"><path fill="#F0F3FA" d="M0 0h56v56H0z"/><path fill-rule="evenodd" d="m28 12.19-6 5.67V24h-6.5l-4.24 4L15 31.53V26h7v4.58l12.74-12.03L28 12.2Zm7.37 5.77L28 11l-6.35 6H15v6.28L10 28l5 4.72V39h6.65L28 45l6.51-6.15.17.15h6.82L29.49 27.46l7.3-6.97L44.74 28l-7.38 6.97.63.6L46 28l-8.58-8.1 3.03-2.9h-4.07l-1.01.96Zm-1.5 20.3-8.02-7.4-3.85 3.6v3.68l6 5.67 5.88-5.55ZM16 23v-5h5v5h-5Zm20.75-5H38l-10.1 9.42L39 38h-3.86l-9.34-8.4L21 34V38h-5V27h5v4.5h1.46L36.76 18Z" fill="#A10F22"/></svg>