<!-- by TradingView --><svg width="56" height="56" viewBox="0 0 56 56" xmlns="http://www.w3.org/2000/svg"><path fill="#F0F3FA" d="M0 0h56v56H0z"/><path d="M21.78 39.16c-.26.22-.52.56-.73.84h-.01a.13.13 0 0 1-.04-.05v-.03l.46-.68c.9-1.26 2.06-2.5 3.5-3.75.26-.23.75-.54 1.46-.93a46.3 46.3 0 0 1 6.8-3c1.8-.63 2.92-1 3.35-1.13.99-.26 5.53-1.17 5.43.85-.04.81-1.04 1.35-1.68 1.38-1.58.06-2.76.13-3.54.2-1.89.14-3.78.44-5.69.89a15.31 15.31 0 0 0-5.65 2.59c-1.31.96-2.54 1.9-3.66 2.82Z" fill="#292C7A"/><path d="M21.2 41.9c-.21.17-.26.13-.13-.12a11.87 11.87 0 0 1 2.7-2.44 28.45 28.45 0 0 1 4.94-2.5c3.06-1.21 6.05-2.1 8.97-2.66.78-.15 5.62-.66 5.3 1.2-.21 1.26-1.06 1.6-2.15 1.53a48.25 48.25 0 0 0-6.72-.02c-1.38.1-2.81.3-4.2.71a29.9 29.9 0 0 0-4.45 1.62 27.47 27.47 0 0 0-4.25 2.68ZM29.04 22.5l-2.4-.2c-2.48-.3-4.93-.57-7.35-.8-1.05-.1-2-.08-2.9.06-1.88.3-3.78.88-5.68 1.76a8.75 8.75 0 0 0-3.18 2.5c-3.21 4.02 6.08 3.33 7.8 3.04 2.7-.45 5.05-.87 7.05-1.52 1.15-.38 2.13-.6 2.92-.68a11.7 11.7 0 0 1 2.93-.11l2.47.22h.04l.03-.05c.1.03.16.1.26.13 1.05.23 2.12.3 3.2.2.27.12.6.2 1.01.23 1.08.1 2.33.24 3.36.13 2.4-.27 4.66-.91 6.76-1.93a8.62 8.62 0 0 0 3.06-2.42c.35-.44 1-1.48.62-2.04-.4-.6-.98-.98-1.73-1.13a17.45 17.45 0 0 0-8.57.45c-1.05.32-2.09.66-3.12 1l-.19-.02c-.04 0-.07-.03-.08-.08 0-.02 0-.05.02-.06a25.46 25.46 0 0 1 9.9-2.52c1.6-.04 4.3.56 4.71 2.63l.02.41c-.21.84-.6 1.59-1.17 2.23-2.03 2.3-4.55 3.54-7.3 4.34-2.5.72-5.27 1.5-7.93 1.94-2.62.43-4.91.7-6.9.78-1.06.05-2.4-.23-3.18-1.09-.86-.93-.35-1.8.37-2.54.15-.16.14-.19-.05-.08-.79.43-1.74.8-2.85 1.1l-2.19.59A31.7 31.7 0 0 1 10.72 30c-1.6-.02-4.7-.5-4.72-2.65 0-1.21 1.12-2.5 1.9-3.25.85-.8 1.79-1.48 2.82-2.05.72-.4 1.77-.8 3.14-1.23a68.6 68.6 0 0 1 7.2-1.88c2.88-.55 5.64-.86 8.27-.94.66-.02 1.28.06 1.85.22 1.14.32 2.57 1.59 1.4 2.99-.3.36-.64.63-1.04.8-.83.35-1.66.52-2.5.5Z" fill="#292C7A"/><path d="M34.85 21.81c.28-.17.57-.24.86-.2.03.01.06.02.09.05a.2.2 0 0 1 .05.08c.08.25.05.47-.08.65-.3.46-1.04 1.5-2.2 3.12-.2.29-.26.57-.2.85 0 .07.04.12.1.15.27.1.52.29.75.55-1.07.09-2.14.02-3.19-.22-.1-.02-.16-.1-.26-.12.05-.2.16-.43.34-.69.49-.68.88-1.21 1.17-1.57.04-.06.05-.1.03-.11a.19.19 0 0 0-.2-.03c-1.3.61-2.6 1.36-3.88 2.23a11.7 11.7 0 0 0-2.93.1c.08-.6.19-1.12.3-1.52.11-.34.03-.42-.26-.24a52.2 52.2 0 0 1-3.6 2.16c-.34.19-.7.27-1.07.26a.18.18 0 0 1-.1-.03.21.21 0 0 1-.07-.08.24.24 0 0 1 0-.22c.13-.25.29-.44.46-.58 1.34-1.06 2.71-1.88 4.11-2.97a26 26 0 0 1 1.57-1.13l2.4.2c-.38.7-.78 1.35-1.2 1.97-.17.24-.24.41-.21.5.1.34.28.43.56.3 2.11-1.04 4.74-2.23 6.66-3.46ZM37.07 25.72a.17.17 0 0 0 0 .14l.04.05.06.03c.68.17 1.2 0 2.03-.23a22.8 22.8 0 0 0 2.37-.87c.32-.13.6-.19.82-.18.02 0 .05 0 .07.02l.05.07a.17.17 0 0 1-.02.16c-.85 1.2-2.76 1.84-4.16 2.2-.58.16-1.08.2-1.49.13-.8-.15-2.5-.74-1.57-1.97.32-.42.78-.85 1.4-1.3a17.4 17.4 0 0 1 4.5-2.45 7.34 7.34 0 0 1 3.62-.34c.4.06.75.2 1.03.41.08.06.14.14.16.23.03.1.03.2 0 .3-.27.72-2.23 1.83-3.04 1.77a.26.26 0 0 1-.16-.07.34.34 0 0 1-.1-.17.43.43 0 0 1 .1-.4l.54-.5c.19-.17.22-.35.1-.53-.04-.05-.09-.08-.15-.07a10.84 10.84 0 0 0-5.52 2.59c-.3.26-.52.59-.68.98ZM14.76 26.99l4.18-.19c.05 0 .1.02.14.04.04.03.08.07.1.12a.33.33 0 0 1-.02.31c-.37.63-1.23.8-1.85.84l-3.28.19c-.66.03-1.45 0-1.93-.46a.3.3 0 0 1-.1-.18c-.02-.2.06-.4.25-.57 1-.9 2.84-2.48 5.51-4.7a1 1 0 0 1 .63-.27l5.1.03c.12 0 .22.05.31.15.1.1.16.24.2.39v.02c-.15.29-.3.43-.45.43h-4.03a.7.7 0 0 0-.55.27l-.42.48c-.14.16-.11.24.09.25l2.22.1c.35.02.4.17.15.45l-.24.28c-.22.26-.53.4-.85.4-.9.02-1.87.01-2.88 0-.4 0-.8.16-1.16.5-.38.35-.77.68-1.16.98-.12.1-.1.14.04.14Z" fill="#D82430"/></svg>