<!-- by TradingView --><svg width="56" height="56" viewBox="0 0 56 56" xmlns="http://www.w3.org/2000/svg"><path fill="#F0F3FA" d="M0 0h56v56H0z"/><path fill-rule="evenodd" d="M51 28 28 12 5 28l23 16 23-16Zm-2 0L28 13.5 7 28l21 14.5L49 28Z" fill="#0001EE"/><path d="M37 30v4h2v1h-3v-5h1ZM35 30v1h-3v1h2.5v1H32v1h2.98v1H31v-5h4ZM29.15 32.37c.54.2.85.66.85 1.2 0 .9-.59 1.43-1.7 1.43H26v-5h2.22c.8 0 1.58.4 1.58 1.3 0 .48-.22.84-.65 1.07Zm-1-1.59H27v1.3h1.15c.48 0 .73-.25.73-.67 0-.4-.27-.63-.73-.63ZM27 34.2h1.24c.53 0 .81-.25.81-.68 0-.47-.27-.7-.8-.7H27v1.38ZM26 35h-1.01l-.4-1h-2.21l-.4 1H21l1.92-5h1.12L26 35Zm-3.33-2h1.63l-.82-2.16-.81 2.16ZM19.94 30H21l-1.7 2.04L21 35h-1.01l-1.29-2.33-.7.76V35h-1v-5h1v2.36L19.94 30ZM24.63 29c-1.47 0-2.6-.32-3.42-.96A3.36 3.36 0 0 1 20 25.29h2.02c0 .75.24 1.29.68 1.61a3.4 3.4 0 0 0 1.99.49c.7 0 1.25-.13 1.62-.39.38-.26.57-.64.57-1.13 0-.42-.17-.73-.49-.95-.31-.22-.9-.41-1.73-.58l-.91-.17c-2.32-.43-3.48-1.5-3.48-3.2 0-.9.36-1.62 1.07-2.16.7-.54 1.69-.81 2.94-.81 1.43 0 2.5.3 3.23.89.74.59 1.13 1.42 1.17 2.48H26.7c-.04-.6-.24-1.04-.62-1.33-.36-.29-.95-.43-1.76-.43-.63 0-1.1.11-1.44.34-.34.23-.5.55-.5.96 0 .43.15.75.45.98.32.23.87.42 1.66.58l.94.17c1.26.25 2.17.62 2.73 1.11.57.48.85 1.15.85 2.01 0 1.03-.38 1.83-1.15 2.4-.77.56-1.84.84-3.22.84ZM33 27.12v-7.24l.73-.63L34 18h-4l.27 1.25.73.63v7.24l-.73.63L30 29h4l-.27-1.25-.73-.63Z" fill="#0001EE"/></svg>