<!-- by TradingView --><svg width="56" height="56" viewBox="0 0 56 56" xmlns="http://www.w3.org/2000/svg"><path fill="#F0F3FA" d="M0 0h56v56H0z"/><path fill-rule="evenodd" d="M36.68 12H19.32A2.31 2.31 0 0 0 17 14.3v27.4c0 1.27 1.04 2.3 2.32 2.3h17.36A2.31 2.31 0 0 0 39 41.7V14.3c0-1.27-1.04-2.3-2.32-2.3ZM19 11c-1.66 0-3 1.33-3 2.97v28.06A2.98 2.98 0 0 0 19 45h18c1.66 0 3-1.33 3-2.97V13.97A2.98 2.98 0 0 0 37 11H19Z" fill="#3F98CE"/><path fill-rule="evenodd" d="M28.03 32A6.99 6.99 0 0 0 35 25c0-3.87-3.12-7-6.97-7a6.99 6.99 0 0 0-6.98 7c0 3.87 3.13 7 6.98 7ZM31 22a3 3 0 0 1-1.83 2.76l.16.26a2.94 2.94 0 0 1 2.89.79 2.31 2.31 0 0 0 1.39-2.11 2.33 2.33 0 0 0-2.67-2.3c.04.2.06.4.06.6Zm1.47 4.12A2.7 2.7 0 0 0 34 23.7a2.72 2.72 0 0 0-3.16-2.67 3 3 0 0 0-5.68 0A2.72 2.72 0 0 0 22 23.7c0 1.07.64 2 1.56 2.43-.26.39-.4.84-.4 1.33 0 1.4 1.22 2.54 2.74 2.54.85 0 1.61-.36 2.11-.92.5.56 1.27.92 2.12.92 1.51 0 2.74-1.14 2.74-2.54 0-.5-.15-.95-.4-1.34Zm-.65-.18a2.44 2.44 0 0 0-2.22-.6 2.36 2.36 0 0 0 2.22.6Zm-2.64-.48a2.76 2.76 0 0 0 2.92.8c.24.35.38.76.38 1.2 0 1.2-1.05 2.17-2.35 2.17-.77 0-1.45-.34-1.88-.86a2.4 2.4 0 0 0 0-2.62c.24-.3.56-.54.93-.69Zm-.23-.3a2.7 2.7 0 0 1-.15-.27 3 3 0 0 1-1.6 0c-.04.1-.09.18-.14.26.37.16.7.4.95.69.26-.29.58-.52.94-.68Zm-2.27-.14.15-.26a3 3 0 0 1-1.77-3.35 2.33 2.33 0 0 0-2.66 2.3c0 .94.57 1.75 1.4 2.1a2.83 2.83 0 0 1 2.88-.8Zm-2.48.93a2.44 2.44 0 0 1 2.21-.62 2.36 2.36 0 0 1-2.2.62Zm-.28.33a2.79 2.79 0 0 0 2.9-.82c.39.15.71.39.96.68a2.4 2.4 0 0 0 0 2.63c-.43.52-1.11.86-1.88.86-1.3 0-2.35-.97-2.35-2.17 0-.44.14-.84.37-1.18Zm4.6-2.58c0 .27.03.54.11.8a2.58 2.58 0 0 1-1.26 0 2.7 2.7 0 0 0-1.79-3.36 2.57 2.57 0 0 1 4.84-.01 2.7 2.7 0 0 0-1.9 2.57Zm.39 0c0 .23.03.45.1.67a2.57 2.57 0 0 0 1.51-2.87 2.32 2.32 0 0 0-1.61 2.2ZM25.43 22c0 1.06.65 1.97 1.57 2.37a2.32 2.32 0 0 0-1.52-2.86c-.03.15-.05.32-.05.49Zm2.82 5.46c0-.35-.08-.67-.24-.96a2.04 2.04 0 0 0 0 1.91c.16-.29.24-.61.24-.95Z" fill="#E22E2E"/><path fill-rule="evenodd" d="M28 35a10 10 0 1 0 0-20 10 10 0 0 0 0 20Zm0-.36a9.64 9.64 0 1 0 0-19.28 9.64 9.64 0 0 0 0 19.28Z" fill="#3F98CE"/><path fill-rule="evenodd" d="M28 34a9 9 0 1 0 0-18 9 9 0 0 0 0 18Zm0-.33a8.67 8.67 0 1 0 0-17.34 8.67 8.67 0 0 0 0 17.34Z" fill="#3F98CE"/><path fill-rule="evenodd" d="M28.03 33a8.04 8.04 0 0 0 8.07-8c0-4.42-3.61-8-8.07-8a8.04 8.04 0 0 0-8.08 8c0 4.42 3.62 8 8.08 8Zm0-.32A7.71 7.71 0 0 0 35.78 25a7.71 7.71 0 0 0-7.75-7.68A7.71 7.71 0 0 0 20.28 25a7.71 7.71 0 0 0 7.75 7.68Z" fill="#3F98CE"/><path fill="#3F98CE" fill-opacity=".4" d="M19 35h18v3H19zM22 39h12v2H22z"/></svg>