<!-- by TradingView --><svg width="56" height="56" viewBox="0 0 56 56" fill="none" xmlns="http://www.w3.org/2000/svg">
<rect width="56" height="56" fill="#F0F3FA"/>
<path d="M21.0771 35.2473L28 16L21.9535 17.6896C20.5377 18.0853 19.3846 19.1787 18.8507 20.6318L11 42L18.2296 38.4787C19.5391 37.8409 20.5615 36.6806 21.0771 35.2473Z" fill="#E32525"/>
<path d="M30.0771 35.2473L37 16L30.9535 17.6896C29.5377 18.0853 28.3846 19.1787 27.8507 20.6318L20 42L27.2296 38.4787C28.5391 37.8409 29.5615 36.6806 30.0771 35.2473Z" fill="#25317B"/>
<path d="M42.927 24.1337L46 16L40.0254 17.7017C38.5827 18.1102 37.3337 19.2393 36.7897 20.7399L33 31L40.0254 27.4706C41.3598 26.812 42.4017 25.6138 42.927 24.1337Z" fill="#25317B"/>
</svg>
