<!-- by TradingView --><svg width="56" height="56" viewBox="0 0 56 56" xmlns="http://www.w3.org/2000/svg"><path fill="#181B1E" d="M0 0h56v56H0z"/><path d="M47.98 24H51l-2.43 3.48L51 31h-3.02L46 27.48 47.98 24Z" fill="#F61A29"/><path fill="#B3B5B8" d="M5 24h2v7H5zM43.88 24H41l2.12 3.48L41 31h2.88L46 27.48 43.88 24ZM25.38 24H29l-6.38 7H19l6.38-7ZM32 24h-2v7H33.39L35 29h-3v-5ZM36 29v-5h3.34L41 26h-3v3h3l-1.66 2H36v-2Z"/><path d="M27 24h2v7h-2.58L25 29h2v-5Z" fill="#B3B5B8"/><path fill-rule="evenodd" d="M18.5 24H15v7h3.5a3.5 3.5 0 1 0 0-7Zm0 2H17v3h1.5a1.5 1.5 0 0 0 0-3Z" fill="#B3B5B8"/><path d="M8 24h2v7H8v-7ZM12 24h2v7h-2l-2-3.74V24l2 3.74V24ZM38 27h6v1h-6z" fill="#B3B5B8"/></svg>