<!-- by TradingView --><svg width="56" height="56" viewBox="0 0 56 56" xmlns="http://www.w3.org/2000/svg"><path fill="#F0F3FA" d="M0 0h56v56H0z"/><path d="M23 42.5c0 1.95 10.67 2.04 16 1.84-11.89 1.67-18-.21-18-1.41 0-.96 2.5-1.69 3.75-1.93-.57.27-1.75.95-1.75 1.5Z" fill="url(#a)"/><path d="M19 43.5c0 1.95 10.67 2.04 16 1.84-11.89 1.67-18-.21-18-1.41 0-.96 2.5-1.69 3.75-1.93-.57.27-1.75.95-1.75 1.5Z" fill="url(#b)"/><path d="M21 35.39c0-3.45 5.19-7.03 7.78-8.39-1.58 1.09-6.11 5.21-6.11 8.39 0 2.53 4.22 6.13 6.33 7.61-2.67-1.1-8-4.17-8-7.61Z" fill="url(#c)"/><path d="M36 24.18c0-3.05-1.95-5.39-2.92-6.18.45.85 1.36 2.93 1.36 4.47 0 5.27-8.44 11.14-8.44 14.83 0 2.31 3.08 4.76 4.62 5.7-.44-.75-1.32-2.52-1.32-3.64 0-4.7 6.7-9 6.7-15.18Z" fill="url(#d)"/><path d="M24 15.47c0-3.73 1.91-7.2 2.87-8.47a19.15 19.15 0 0 0-1.37 6.47c0 3.2 1.37 6.03 4.11 9.4 2.75 3.37 6.39 7 6.39 10.55 0 2.83-2.86 4.9-4.29 5.58.73-.75 1.03-2.62 1.03-3.9 0-1.29-.25-4.43-3.47-8.29-3.21-3.85-5.27-6.7-5.27-11.34Z" fill="url(#e)"/><defs><linearGradient id="a" x1="39" y1="43" x2="21" y2="43" gradientUnits="userSpaceOnUse"><stop stop-color="#EEC889"/><stop offset="1" stop-color="#FF0003"/></linearGradient><linearGradient id="b" x1="35" y1="44" x2="17" y2="44" gradientUnits="userSpaceOnUse"><stop stop-color="#EEC889"/><stop offset="1" stop-color="#FF0003"/></linearGradient><linearGradient id="c" x1="26.93" y1="35.02" x2="21" y2="35" gradientUnits="userSpaceOnUse"><stop stop-color="#1F5790"/><stop offset="1" stop-color="#00A8ED"/></linearGradient><linearGradient id="d" x1="33.42" y1="30.54" x2="26" y2="30.51" gradientUnits="userSpaceOnUse"><stop stop-color="#001F93"/><stop offset="1" stop-color="#00A8ED"/></linearGradient><linearGradient id="e" x1="36" y1="23" x2="24" y2="23" gradientUnits="userSpaceOnUse"><stop stop-color="#601AA6"/><stop offset="1" stop-color="#A950E7"/></linearGradient></defs></svg>