<!-- by TradingView --><svg width="56" height="56" viewBox="0 0 56 56" xmlns="http://www.w3.org/2000/svg"><path fill="#F0F3FA" d="M0 0h56v56H0z"/><path d="M36 13h-5v25.26c0 .4-.6.74-1 .74s-1-.33-1-.74V13h-2v25.26c0 .4-.6.74-1 .74s-1-.33-1-.74V23h-1.28c0 3.96-3.17 7-7.09 7h-4.46c-.65 0-1.17.53-1.17 1.18v8.64c0 .65.52 1.18 1.17 1.18h31.66c.65 0 1.17-.53 1.17-1.18v-8.64c0-.65-.52-1.18-1.17-1.18H39.7c-4.18 0-7.7-3.22-7.7-8.28 0-3.8 2.59-6.72 5.62-6.72 0-.9-.73-2-1.61-2Z" fill="#F7941D"/><circle cx="17" cy="22" r="6" fill="#F7941D" fill-opacity=".5"/></svg>