<!-- by TradingView --><svg width="56" height="56" viewBox="0 0 56 56" xmlns="http://www.w3.org/2000/svg"><path fill="#F0F3FA" d="M0 0h56v56H0z"/><path d="M12.15 43.8a.6.6 0 0 1 .05-.85L43 15.15a.6.6 0 0 1 .85.05.6.6 0 0 1-.05.85L13 43.85a.6.6 0 0 1-.85-.05ZM28.47 30.73l14.54 13.12c.24.22.62.2.84-.05a.6.6 0 0 0-.05-.85L29.37 29.92l-.9.81ZM27.42 28.17 12.99 15.15a.59.59 0 0 0-.84.05.6.6 0 0 0 .05.85l14.32 12.93.9-.81ZM24 21.5c0-.28.26-.5.57-.5h6.86c.31 0 .57.22.57.5s-.26.5-.57.5h-6.86c-.31 0-.57-.22-.57-.5ZM28.5 37c.28 0 .5.3.5.69v5.62c0 .38-.22.69-.5.69s-.5-.3-.5-.69v-5.62c0-.38.22-.69.5-.69ZM37.5 26c.28 0 .5.3.5.69v5.62c0 .38-.22.69-.5.69s-.5-.3-.5-.69v-5.62c0-.38.22-.69.5-.69ZM43.5 26c.28 0 .5.3.5.69v5.62c0 .38-.22.69-.5.69s-.5-.3-.5-.69v-5.62c0-.38.22-.69.5-.69ZM40.5 30c.28 0 .5.26.5.58v1.84c0 .32-.22.58-.5.58s-.5-.26-.5-.58v-1.84c0-.32.22-.58.5-.58Z" fill="#59215C"/><path fill-rule="evenodd" d="M12 27.6c0-.33.29-.6.64-.6h5.72c.59 0 .86.69.42 1.06l-2.01 1.68 1.99 1.9c.3.3.32.78.05 1.1a.7.7 0 0 1-1.04.06l-2.17-2.07-2.54 2.12c-.4.34-1.06.07-1.06-.46V27.6Zm1 .4h4l-4 3.5V28Z" fill="#59215C"/><path d="M24.79 19c-.44 0-.79-.4-.79-.88v-3c0-.72.72-1.14 1.24-.72l.93.73 1.24-2.73c.1-.25.33-.4.57-.4.24 0 .46.15.57.39l1.28 2.74.93-.73c.52-.42 1.24 0 1.24.71v3c0 .5-.35.89-.79.89H24.8ZM28 13.5l-1.12 2.54c-.13.3-.46.38-.7.2L25 15.5V18h6v-2.5l-1.19.74c-.23.18-.56.1-.7-.2L28 13.5Z" fill="#59215C"/></svg>