<!-- by TradingView --><svg width="56" height="56" viewBox="0 0 56 56" xmlns="http://www.w3.org/2000/svg"><path fill="#F0F3FA" d="M0 0h56v56H0z"/><path fill-rule="evenodd" d="M40.55 13.5a32.8 32.8 0 0 0-25.1 0l-1.38.57-.57 1.38a32.8 32.8 0 0 0 0 25.1l.57 1.38 1.38.57a32.8 32.8 0 0 0 25.1 0l1.38-.57.57-1.38a32.8 32.8 0 0 0 0-25.1l-.57-1.38-1.38-.57Zm-.5.57a31.5 31.5 0 0 0-24.1 0l-1.33.55-.55 1.32a31.5 31.5 0 0 0 0 24.12l.55 1.32 1.32.55a31.5 31.5 0 0 0 24.12 0l1.32-.55.55-1.32a31.5 31.5 0 0 0 0-24.12l-.55-1.32-1.32-.55Z" fill="#004A96"/><path fill-rule="evenodd" d="M39.81 14.35a30.87 30.87 0 0 0-23.62 0l-1.3.54-.54 1.3a30.87 30.87 0 0 0 0 23.62l.54 1.3 1.3.54a30.87 30.87 0 0 0 23.62 0l1.3-.54.54-1.3a30.87 30.87 0 0 0 0-23.62l-.54-1.3-1.3-.54Zm-.48.56c-7.26-3-15.4-3-22.66 0l-1.24.52-.52 1.24c-3 7.26-3 15.4 0 22.66l.52 1.24 1.24.52c7.26 3 15.4 3 22.66 0l1.24-.52.52-1.24c3-7.26 3-15.4 0-22.66l-.52-1.24-1.24-.52Z" fill="#F41E40"/><path d="M19.45 18c-.9.68-2.05 2-2.5 2.65 9.67 6.2 11.58 16.77 11.33 21.28 1.86 0 3.28-.48 3.76-.72-.5-12.61-8.6-20.67-12.6-23.21Z" fill="#004A96"/><path d="M15 24.79c.3-1.37 1.21-2.98 1.63-3.61C26.05 27.8 27.86 37.81 27.59 42a9.1 9.1 0 0 1-3.7-.79c.16-8.4-5.86-14.45-8.89-16.42Z" fill="#004A96"/><path d="M32.54 15c1.6.53 3.1 1.7 3.64 2.23-3.21 2.21-6.81 6.57-8.21 8.48a28.85 28.85 0 0 0-2.38-3.09c1.8-3.05 5.39-6.35 6.95-7.62Z" fill="#F41E40"/><path d="M39.06 20.52a10.62 10.62 0 0 0-2.5-2.83 35.58 35.58 0 0 0-8.22 8.68c.8 1.15 1.76 3.24 2.13 4.13a28.01 28.01 0 0 1 8.59-9.98Z" fill="#F41E40"/><path d="M41 24.79a11.73 11.73 0 0 0-1.63-3.68c-4.91 3.42-7.73 8.17-8.52 10.12.7 2.26 1.46 5.45 1.75 6.76 1.1-7.14 6.06-11.78 8.4-13.2Z" fill="#F41E40"/></svg>