<!-- by TradingView --><svg width="56" height="56" viewBox="0 0 56 56" xmlns="http://www.w3.org/2000/svg"><path fill="#F0F3FA" d="M0 0h56v56H0z"/><path fill="#CF0201" d="M8 19h40v18H8z"/><path d="M9 26c.18-.13.44-.35.58-.47h.3l.53-.57h.45l4.26-3.1h2.6l2.54 1.56H21l2.5 1.16.82-.28 2.76.96 1.85-1.1.58.32.5-.32.6.42.62-.42h1.58l.86.32h1.62l.81.48.57-.57 1.01.78h.9l6.2-4.17h1.14l.58-.18h.5V20H9v6Z" fill="#fff"/><path d="M9 28.67c.9.12 2.58.45 3.38.95h1.01c.39 0 .87-.12 1.4-.26a6.46 6.46 0 0 1 2.73-.31c1.48.27 3.24.57 3.4.57H47V36H9v-7.33Z" fill="gray"/><path d="M9.7 30H9v2.2c1.92 0 2.24.8 4.34.8 2.1 0 3.83-.96 5.6-.96 1.76 0 1.88.63 4.31.63 2.43 0 4.06-.88 5.21-.88.93 0 2.08.17 2.54.25a7.76 7.76 0 0 0-2.54-.66c-1.03 0-2.1.66-4.05.66-1.96 0-5-1.47-6.42-1.47s-2.62.68-4.44.68c-1.82 0-3.4-1.25-3.85-1.25ZM9.7 33H9v2.2c1.92 0 2.24.8 4.34.8 2.1 0 3.83-.96 5.6-.96 1.76 0 1.88.63 4.31.63 2.43 0 4.06-.88 5.21-.88.93 0 2.08.17 2.54.25a7.76 7.76 0 0 0-2.54-.66c-1.03 0-2.1.66-4.05.66-1.96 0-5-1.47-6.42-1.47s-2.62.68-4.44.68c-1.82 0-3.4-1.25-3.85-1.25Z" fill="#D4D4D4"/><path d="M46.27 29H47v2.2c-2.01 0-2.34.8-4.53.8-2.2 0-4-.96-5.85-.96-1.85 0-1.98.63-4.52.63-2.54 0-4.24-.88-5.45-.88-.96 0-2.17.17-2.65.25a8.4 8.4 0 0 1 2.65-.66c1.08 0 2.2.66 4.24.66 2.05 0 5.23-1.47 6.71-1.47 1.48 0 2.74.68 4.65.68 1.9 0 3.54-1.25 4.02-1.25ZM46.27 32H47v2.2c-2.01 0-2.34.8-4.53.8-2.2 0-4-.96-5.85-.96-1.85 0-1.98.63-4.52.63-2.54 0-4.24-.88-5.45-.88-.96 0-2.17.17-2.65.25a8.4 8.4 0 0 1 2.65-.66c1.08 0 2.2.66 4.24.66 2.05 0 5.23-1.47 6.71-1.47 1.48 0 2.74.68 4.65.68 1.9 0 3.54-1.25 4.02-1.25Z" fill="#D4D4D4"/><path d="M41.03 26h2.94l.03 1.03h-.12c-.07-.33-.14-.54-.24-.63-.1-.1-.29-.15-.6-.15h-.28v3.1c0 .23.03.37.1.43.06.06.2.1.4.11V30h-1.51v-.1c.22-.03.36-.07.4-.14.06-.06.1-.22.1-.49v-3.02h-.3c-.29 0-.48.05-.59.15-.1.1-.18.3-.23.63H41l.03-1.03ZM38.64 26v.11c-.22.02-.36.05-.43.12-.07.06-.1.2-.1.41v1.9c0 .3.04.55.13.72.15.32.44.47.87.47.48 0 .8-.16.96-.48.09-.18.13-.46.13-.84v-1.54c0-.32-.03-.52-.11-.6-.08-.09-.22-.14-.43-.16V26H41v.11c-.22.02-.37.08-.44.17-.07.08-.1.28-.1.59v1.54c0 .4-.06.73-.19.96-.22.42-.65.63-1.29.63-.62 0-1.05-.2-1.27-.62a1.84 1.84 0 0 1-.19-.89v-1.85c0-.21-.03-.35-.1-.41-.06-.06-.2-.1-.42-.12V26h1.64ZM35.5 28.47l-.67-1.63-.66 1.63h1.33ZM33 30v-.1a.46.46 0 0 0 .33-.18c.08-.1.2-.37.39-.8l1.2-2.92h.12l1.44 3.37c.1.22.17.36.23.42.06.05.15.08.29.1V30h-1.47v-.1c.17-.02.28-.04.33-.06.04-.03.07-.08.07-.17l-.03-.15a1.72 1.72 0 0 0-.08-.23l-.24-.57h-1.51l-.28.7a.69.69 0 0 0-.04.21c0 .1.04.17.12.21.05.02.14.04.28.05V30H33ZM30 29.9c.19-.03.3-.07.36-.13.06-.05.09-.2.09-.43v-2.68c0-.22-.03-.36-.08-.42-.06-.07-.18-.11-.37-.13V26h1.45v.11c-.2.01-.32.05-.38.11-.07.06-.1.2-.1.4v2.9c0 .07.01.12.03.16.02.04.06.06.13.07l.12.01h.23c.46 0 .77-.04.93-.13.16-.09.31-.31.46-.68H33L32.75 30H30v-.1ZM24 29.9c.23-.03.37-.08.43-.14.06-.06.09-.22.09-.49v-2.61c0-.22-.04-.36-.1-.43-.07-.06-.2-.1-.42-.12V26h1.63v.11c-.22.02-.36.06-.42.12-.07.07-.1.2-.1.43v1.17h1.78v-1.17c0-.22-.03-.36-.1-.43-.06-.06-.2-.1-.42-.12V26H28v.11c-.22.02-.36.06-.42.12-.06.07-.1.2-.1.43v2.68c0 .23.04.37.1.43.06.06.2.1.42.12V30h-1.63v-.1c.23-.03.38-.08.43-.14.06-.06.09-.22.09-.49V28.1H25.1v1.24c0 .23.03.37.1.43.06.06.2.1.42.12V30H24v-.1Z" fill="#fff"/><path d="m22.5 28.47-.67-1.63-.66 1.63h1.33ZM20 30v-.1a.46.46 0 0 0 .33-.18c.08-.1.2-.37.39-.8l1.2-2.92h.12l1.44 3.37c.1.22.17.36.23.42.06.05.15.08.29.1V30h-1.47v-.1c.17-.02.28-.04.33-.06.04-.03.07-.08.07-.17l-.03-.15a1.72 1.72 0 0 0-.08-.23l-.24-.57h-1.51l-.28.7a.69.69 0 0 0-.04.21c0 .1.04.17.12.21.05.02.14.04.28.05V30H20ZM16 29.9c.24-.03.39-.09.46-.17.06-.09.1-.29.1-.6v-2.7l-.08-.09a.61.61 0 0 0-.22-.19.77.77 0 0 0-.26-.04V26h.99l2.21 2.86v-1.99c0-.32-.05-.54-.14-.64-.06-.06-.2-.1-.41-.12V26H20v.11c-.22.02-.36.08-.44.17-.07.08-.1.28-.1.6V30h-.1l-2.55-3.26v2.39c0 .32.05.53.14.63.06.07.2.1.4.13V30H16v-.1ZM14.5 28.47l-.67-1.63-.66 1.63h1.33ZM12 30v-.1a.46.46 0 0 0 .33-.18c.08-.1.2-.37.39-.8l1.2-2.92h.12l1.44 3.37c.1.22.17.36.23.42.06.05.15.08.29.1V30h-1.47v-.1c.17-.02.28-.04.33-.06.04-.03.07-.08.07-.17l-.03-.15a1.72 1.72 0 0 0-.08-.23l-.24-.57h-1.51l-.28.7a.69.69 0 0 0-.04.21c0 .1.04.17.12.21.05.02.14.04.28.05V30H12ZM9.03 26h2.94l.03 1.03h-.12c-.07-.33-.14-.54-.24-.63-.1-.1-.29-.15-.6-.15h-.28v3.1c0 .23.03.37.1.43.06.06.2.1.4.11V30H9.76v-.1c.22-.03.36-.07.4-.14.06-.06.1-.22.1-.49v-3.02h-.3c-.29 0-.48.05-.59.15-.1.1-.18.3-.23.63H9L9.03 26Z" fill="#fff"/></svg>