<!-- by TradingView --><svg width="56" height="56" viewBox="0 0 56 56" xmlns="http://www.w3.org/2000/svg"><path fill="#F0F3FA" d="M0 0h56v56H0z"/><path d="M33.48 15c5.11 0 7.5.85 11.52 2.9-4.98-4.75-9.45-5.9-14.1-5.9C22.66 12 14 16.74 14 25.01S23.7 37 25.78 37c2.07 0 3.75-1.86 3.75-3.53 0-1.66-1.03-3.9-3.3-4.03-4.2-.13-6.28-2.82-6.28-5.65 0-2.82 2.33-8.79 13.53-8.79Z" fill="url(#a)"/><path d="M45 17.9c-1.82-1.71-6.67-4.68-13.66-4.68-5.34 0-11.33 2.98-15.5 5.7 3-4.47 9.14-6.92 15.05-6.92 4.66 0 9.13 1.15 14.11 5.9Z" fill="url(#b)"/><path d="M21.44 19.53c-1.18.92-3.04 3.44-3.04 7.92 0 2.93.9 5.53 1.9 7.45 2.32 1.42 4.6 2.1 5.48 2.1 2.07 0 3.75-1.86 3.75-3.53 0-1.66-1.03-3.9-3.3-4.03-4.2-.13-6.23-2.82-6.23-5.65 0-1.1.32-2.72 1.44-4.26Z" fill="url(#c)"/><path d="M25.52 40.67c-8.85 0-13.37-5.26-14.52-7.89C12.22 39.64 19.19 44 27.3 44 35.44 44 44 39.26 44 30.99S34.4 19 32.36 19c-2.05 0-3.7 1.86-3.7 3.53 0 1.66 1.01 3.9 3.25 4.03 4.16.13 6.09 2.82 6.09 5.65 0 2.82-1.42 8.46-12.48 8.46Z" fill="url(#d)"/><path d="M33.64 19.23a5.22 5.22 0 0 0-1.28-.23c-2.05 0-3.7 1.86-3.7 3.53 0 1.66 1.01 3.9 3.25 4.03 2.67.09 4.44 1.3 5.38 2.85.9-5.16-1.78-8.75-3.65-10.18Z" fill="url(#e)"/><defs><linearGradient id="a" x1="45" y1="24.5" x2="14" y2="24.5" gradientUnits="userSpaceOnUse"><stop stop-color="#0476A2"/><stop offset="1" stop-color="#1CA3DE"/></linearGradient><linearGradient id="b" x1="15.85" y1="15.46" x2="45" y2="15.46" gradientUnits="userSpaceOnUse"><stop stop-color="#0B8BBC"/><stop offset="1" stop-color="#119DD6"/></linearGradient><linearGradient id="c" x1="23.97" y1="19.53" x2="23.97" y2="37" gradientUnits="userSpaceOnUse"><stop offset=".54" stop-color="#056A9B"/><stop offset="1" stop-color="#25A6DF"/></linearGradient><linearGradient id="d" x1="34.53" y1="29" x2="31.07" y2="39.57" gradientUnits="userSpaceOnUse"><stop stop-color="#EB1E25"/><stop offset="1" stop-color="#BF2227"/></linearGradient><linearGradient id="e" x1="28.72" y1="22.53" x2="37.54" y2="22.53" gradientUnits="userSpaceOnUse"><stop offset=".5" stop-color="#EB1E25"/><stop offset=".94" stop-color="#C22026"/></linearGradient></defs></svg>