<!-- by TradingView --><svg width="56" height="56" viewBox="0 0 56 56" xmlns="http://www.w3.org/2000/svg"><path fill="#F0F3FA" d="M0 0h56v56H0z"/><path d="M38.76 20.26a2.45 2.45 0 0 0-.75-.17c-2.3-.25-4.3.85-5.9 2.47l-.01.01h-.03a.06.06 0 0 1-.05-.02c-.02-.04-.03-.07-.01-.1.43-1.03 1-2.05 1.7-3.06a6.16 6.16 0 0 1 1.78-1.86c.1-.06.2-.1.3-.13.16-.03.3-.1.44-.07 1.1.21 1.66.84 2.36 1.69.1.12.24.25.4.39a46.83 46.83 0 0 1 .43.36l.02-.02c.03-.01.03-.03.01-.05-.99-1.15-1.74-2.78-.93-4.28a4.72 4.72 0 0 1 3.7-2.42l.02.02c.06.05.06.12 0 .2a7.87 7.87 0 0 0-1.92 3.34 10.88 10.88 0 0 0-.27 2.93l.02-.01c.05-.6.18-1.12.4-1.57.95-2 3.16-.62 4.2.35v.02l.02.03c0 .03 0 .05-.03.07a10.56 10.56 0 0 0-1.2-.08c-1.03 0-2.15.3-2.8 1.13-.07.09-.05.11.05.07a7.93 7.93 0 0 1 3.77-.73c.18.01.33.05.47.1.04.02.06.04.05.08l-.22 1.41a.07.07 0 0 1-.03.05.06.06 0 0 1-.05 0 8.95 8.95 0 0 0-3.12-.35c-.29.02-.57.08-.84.2-.12.05-.12.07.01.07a8.53 8.53 0 0 1 3.84.44c.08.03.11.1.1.18l-.25 1.63a.05.05 0 0 1-.04.05h-.03l-.02-.02a4.04 4.04 0 0 0-2.28-1.3c-.13-.02-.13 0-.02.06.96.5 1.93 1.2 1.95 2.4a3.21 3.21 0 0 1-.82 2.07h-.04a.08.08 0 0 1-.04-.02 10.34 10.34 0 0 0-1.4-3.4c-.28-.38-.65-.86-1.1-.93-.93-.14-1.42.57-1.73 1.35-.26.68-.47 1.24-.6 1.7a55.3 55.3 0 0 0-1.2 4.44.07.07 0 0 1-.1 0c-.3-.33-.67-.51-1.12-.55a.08.08 0 0 1-.06-.04.08.08 0 0 1-.01-.07c.27-.97.62-1.92 1.05-2.86a52.9 52.9 0 0 1 2.2-4.27c.02-.05 0-.06-.04-.05-1.11.19-2.02.77-2.44 1.86a4.98 4.98 0 0 0-.27 2.69h-.04a.73.73 0 0 1-.2-.12c-.96-.85-2.26-2.84-1.22-4.15.53-.66 1.26-.87 2.16-1.03a7.33 7.33 0 0 1 1.78-.13Z" fill="#00963A"/><path d="M38.2 33.29c-.1.08-.25.25-.48.5a3.44 3.44 0 0 1-2.62 1.2 2.3 2.3 0 0 1-1.29-.41c-.4-.3-.65-.7-.74-1.2a4.85 4.85 0 0 1 .1-2.06c.29-1.16 1.2-2.31 2.6-2.32 1.75-.01 2.03 1.77.95 2.66-.25.2-.85.35-1.13.07-.3-.31-.12-.57.08-.92.04-.08.02-.12-.08-.12h-.05a.3.3 0 0 0-.24.1 2.45 2.45 0 0 0-.59 1.85c.02.25.06.47.28.65.63.52 1.38-.05 1.81-.56.4-.48.74-1.03 1.02-1.67.04-.1.11-.18.2-.25a.15.15 0 0 0 .06-.08 32 32 0 0 1 .81-5.32c.17-.67.4-1.53.89-2.04.6-.63 1.58-.42 1.85.37.08.23.11.45.1.65-.05.7-.18 1.44-.39 2.22-.33 1.23-.77 2.4-1.32 3.54-.13.26-.2.5-.23.7-.04.46-.29 2.15.52 2.15.69 0 .9-.61 1.12-.95a.14.14 0 0 0 .02-.09c-.06-.9.12-1.77.56-2.61.5-.96 1.47-1.92 2.71-1.7 1.04.17 1.27.83 1.28 1.63 0 .97-.3 1.9-1.08 2.47-.45.34-.97.51-1.54.54-.04 0-.06.02-.05.06.02.34.09.58.19.7.38.52 1.13.34 1.55-.03.71-.6 1.1-1.46 1.61-2.23.07-.11.2-.2.41-.25.42-.12.8.1.9.5.04.19 0 .41-.12.67a6.92 6.92 0 0 1-1.78 2.4c-.75.65-1.6.91-2.52.79a2.19 2.19 0 0 1-1.62-1.09c-.02-.03-.04-.03-.07 0-.55.49-1.2 1.2-1.98 1.19-.86 0-1.42-.87-1.64-1.7 0-.04-.03-.04-.06-.01Zm6-4.14c-.55.23-.81 1.13-.83 1.62v.04l.03.03a.1.1 0 0 0 .08.02c.17-.03.32-.1.44-.21.4-.34.7-.88.58-1.37a.19.19 0 0 0-.04-.08.21.21 0 0 0-.08-.05.23.23 0 0 0-.18 0ZM9.46 28.88c.49-.26.68-.86.43-1.35a.99.99 0 0 0-1.35-.41c-.49.26-.68.86-.43 1.35.25.49.85.67 1.35.41ZM27.6 32.15c.09-.16.14-.36.16-.6.07-.72.14-2.53 1.2-2.55.61-.01.95.6.9 1.16-.02.1-.05.24-.12.43-.2.57-.4 1.75-.05 2.29.06.09.13.12.22.12.26 0 .59-.37.68-.5.4-.63.51-1.3.72-2.2.02-.09.08-.22.2-.42.41-.68 1.53-.43 1.49.38-.02.4-.05.76-.09 1.05l-.51 3.9a29.19 29.19 0 0 0-.16 4.06c0 .5.42 1.48-.33 1.7-.55.14-1.1-.16-1.32-.66-.28-.64.1-1.3.1-1.98-.03-1.44 0-2.77.05-4.01.01-.1-.01-.1-.06-.02-.27.51-.78.93-1.32.93-.27 0-.54-.1-.79-.34a1.84 1.84 0 0 1-.48-.69.07.07 0 0 0-.1.01c-.69.88-1.67 1.8-2.76 1.79-1.48-.03-2.24-1.46-2.23-2.88a5.74 5.74 0 0 1 .2-1.6.04.04 0 0 0-.02-.02h-.44a.04.04 0 0 0-.03.04c.24 1.63-.63 3.47-2.5 3.46-1.21 0-1.67-.75-1.67-.76l-.02-.02a.05.05 0 0 0-.05 0l-.02.02C17.97 34.9 17 36 16.33 36c-1.33 0-1.57-1.41-1.45-2.35a6.5 6.5 0 0 0 .03-1 .1.1 0 0 0-.11-.04.11.11 0 0 0-.05.02.73.73 0 0 0-.21.25c-.2.47-.45.97-.77 1.5-.46.76-1.6 1.2-2.03.1a.06.06 0 0 0-.05-.04.07.07 0 0 0-.06.03c-.45.74-1.18 1.72-2.25 1.56-1.05-.15-1.28-1.2-1.34-2.08-.05-.57-.05-1.2-.02-1.9.04-.84.05-2.05 1.1-2.05.5 0 .73.4.75.81a8 8 0 0 1-.05 1.34 5 5 0 0 0-.02 1.24c.03.13.12.2.27.23.04.01.07 0 .1-.02.47-.37.8-1 1.07-1.53.08-.15.12-.33.13-.54a4.3 4.3 0 0 1 .3-1.73c.13-.3.35-.47.66-.5.93-.11 1.19.67 1.02 1.4-.11.51-.32 1.34-.15 1.61.09.15.19.15.3.03.2-.24.37-.5.5-.77l.97-1.87c.25-.48.63-.7 1.13-.7.5 0 .8.29.85.75.03.3.01.66-.06 1.1-.18.99-.29 1.68-.32 2.07-.01.17 0 .33.07.48.01.04.03.07.06.1a.25.25 0 0 0 .23.05.25.25 0 0 0 .1-.06c.55-.5.86-1.24 1.2-1.88.05-.08.15-.31.3-.68.13-.34.35-.61.66-.84.14-.1.39-.17.75-.23.04 0 .06-.02.07-.05.16-.51.6-.82 1.1-.81.36 0 .67.11.95.33 1.25.97 2.46-.34 3.76-.33.23 0 .45.04.68.12 1.02.34 1.14 1.66.7 2.5-.26.49-.8.86-1.38.68a.4.4 0 0 1-.28-.25c-.13-.35 0-.57.18-.93.04-.08.01-.12-.08-.12-.1 0-.21 0-.29.1a2.95 2.95 0 0 0-.62 1.98c.02.7.39.9.81.92.99.04 1.68-1.14 2.06-1.85Zm-6.5-.42c-.07-.37-.31-.39-.6-.54a.08.08 0 0 0-.1 0c-.58.48-.77 1.07-.56 1.77.08.26.24.38.5.37.76-.04.87-1.06.76-1.6Z" fill="#00963A"/></svg>