<!-- by TradingView --><svg width="56" height="56" viewBox="0 0 56 56" xmlns="http://www.w3.org/2000/svg"><path fill="#F0F3FA" d="M0 0h56v56H0z"/><path d="M35.7 33.33c-.21.25-.46.55-.66.75-1.8 1.45-3.6 1.92-6.5 1.92H18.9l-1.83-8.32c-.03-.14-.09-.15-.17-.03l-5.46 8.28c-.03.05-.08.07-.14.07H5.03a.06.06 0 0 1-.02-.08l3.82-5.85a.15.15 0 0 1 .13-.07h2.93c.1 0 .17-.03.22-.11l1.8-2.82a.05.05 0 0 0 .01-.05.05.05 0 0 0-.05-.02h-2.94a.05.05 0 0 1-.05-.03.05.05 0 0 1 0-.06l6.09-8.85a.12.12 0 0 1 .1-.06h3.19a.05.05 0 0 1 .05.05l3.2 14.9c0 .04.03.05.06.05h1.23a.02.02 0 0 0 .01-.02v-.01c-1.3-2.4-1.03-5-.06-7.5 1.6-4.15 5.15-7.07 9.63-7.43a9.09 9.09 0 0 1 3.3.26c2.89.86 3.99 3.65 3.97 6.62 0 .04-.02.08-.06.08h-5.06c-.05 0-.08-.05-.07-.1.22-1.77-.92-2.81-2.56-2.62-.81.09-1.42.35-2.06.89a6.97 6.97 0 0 0-2.32 3.73c-.02.05-.05.1-.1.1h-2.08c-.06 0-.1 0-.12.06-.27.8-.4 2.14-.13 2.86.02.06.07.08.13.08h1.98c.1 0 .17.06.2.17.18.92.68 1.36 1.53 1.54 1.62.34 3.36-.05 4.22-1.61.04-.08.01-.1-.07-.1h-2.35c-.06 0-.08-.04-.07-.1l.71-2.9h7.74l-1.35 5.97c0 .02 0 .03.03.03h1.3c.02 0 .04 0 .04-.03L44.56 18H49l-4.13 17.88c0 .03-.02.05-.04.07-.03.02-.05.05-.08.05h-9.51c-.07 0-.1-.06-.08-.12l.6-2.52c.02-.1 0-.1-.06-.03Z" fill="#A28548"/></svg>