<!-- by TradingView --><svg width="56" height="56" viewBox="0 0 56 56" fill="none" xmlns="http://www.w3.org/2000/svg">
<rect width="56" height="56" fill="#F0F3FA"/>
<path d="M17.9265 37C14.4375 37 10 38 10 38C10 38 14.1875 36 20.465 36C28.1325 36 33.3941 38 38.9375 38C46.2239 38 49 35 49 35C49 35 46.9375 40 37.4577 40C30.3208 40 25.0636 37 17.9265 37Z" fill="#0087CE"/>
<path d="M16.6563 24.25C16.6563 24.25 13.9063 20.5 12.5241 16.6562C12.1212 15.5359 12.0001 14.6139 11.9978 14.2107C11.9954 14.075 12.0001 14 12.0001 14C12.0001 14 12.2678 15.1687 12.524 15.8608C14.0529 19.991 17.3751 23.6875 17.3751 23.6875L16.6563 24.25Z" fill="#F9A41A"/>
<circle cx="13.4566" cy="16.7479" r="0.25" fill="#F9A41A"/>
<ellipse cx="13.1864" cy="15.999" rx="0.251816" ry="0.25" fill="#F9A41A"/>
<ellipse cx="12.9152" cy="15.25" rx="0.251816" ry="0.25" fill="#F9A41A"/>
<circle cx="12.1129" cy="17.2468" r="0.25" fill="#F9A41A"/>
<ellipse cx="11.8427" cy="16.498" rx="0.251816" ry="0.25" fill="#F9A41A"/>
<ellipse cx="11.5715" cy="15.749" rx="0.251816" ry="0.25" fill="#F9A41A"/>
<path d="M19.2971 18.5977C18.0531 20.2407 17.4368 22.5625 17.4368 22.5625C17.4368 22.5625 16.8609 22.0811 16.5597 21.5591C16.172 20.8869 15.9957 20.3237 15.9996 19.6822C16.0014 19.3985 16.0384 19.0995 16.108 18.769C16.502 16.8972 18.5796 15 20.1741 15C20.7858 15 21.3847 15.2732 21.7902 15.511C21.9381 15.5978 22.0001 15.7387 21.9996 15.8812C22.0001 16.0074 21.93 16.1349 21.8116 16.2273C21.1431 16.749 19.9521 17.7326 19.2971 18.5977Z" fill="url(#paint0_linear_5085_143168)"/>
<path d="M23.2111 22.9999C21.0499 22.9999 18.5594 24.2422 18.5594 24.2422C18.5594 24.2422 18.2916 23.6229 18.5418 22.8885C18.9229 21.7699 19.6276 20.8442 20.6372 20.2308C21.787 19.5321 23.6011 18.996 25.2814 19C26.1635 19.0021 27.0087 19.183 27.7015 19.5025C28.2641 19.7619 29.0002 20.4459 29.0002 21.6403C29.0001 22.8348 28.0814 23.3958 27.7514 23.3513C26.8769 23.2334 24.4384 22.9999 23.2111 22.9999Z" fill="url(#paint1_linear_5085_143168)"/>
<path d="M21.1476 28.9587C19.0938 25.5 18.8126 25.0001 18.0758 25.0001C17.339 25.0001 17 26.7071 17.0001 27.98C17.0001 30.5034 19.3438 35 22.2797 35C22.8068 35.0001 23.5967 34.8289 24.2188 34.2813C24.8305 33.743 25.0001 33.1907 25 32.7866C25 31.4376 21.9191 30.2579 21.1476 28.9587Z" fill="url(#paint2_linear_5085_143168)"/>
<path d="M15.1406 28.9701C15.6495 25.9122 16.9999 25 16.9999 25C15.8437 25 13.4826 25.2307 12.4911 26.6463C11.6372 27.8656 11 29.7459 10.9999 31.2833C11 32.7393 11.5234 34.3555 13.0625 34.8125C13.3805 34.9069 13.9589 35 14.1856 35C14.9094 35 15.4527 34.4505 15.4063 33.7813C15.3661 33.2018 15.0001 32.2425 15.0001 31.0312C15.0001 30.405 15.0172 29.7119 15.1406 28.9701Z" fill="url(#paint3_linear_5085_143168)"/>
<path d="M11.0496 24.9724C12.4261 24.0474 13.0544 23.9855 14.0026 23.9837C14.7094 23.9823 14.9999 24.1067 14.9999 24.1067C14.9999 24.1067 14.5868 22.1927 14.0071 21.7584C13.2598 21.1986 12.8525 20.9871 11.9498 20.9882C11.6662 20.9886 11.3697 20.9885 11.0569 21.036C8.7847 21.3814 6.00897 23.2093 6.00707 25.4725C6.00645 26.2189 6.7758 27.9979 7.75257 27.996C8.72933 27.9941 9.67304 25.8975 11.0496 24.9724Z" fill="url(#paint4_linear_5085_143168)"/>
<path fill-rule="evenodd" clip-rule="evenodd" d="M36.2388 30L34.7332 26L34.2051 26.0027L32.7388 30H33.3325L33.6914 29.009H35.2787L35.645 30H36.2388ZM34.9167 27.9568C34.9772 28.127 35.0404 28.3044 35.1094 28.5H33.8359C34.0614 27.8177 34.2264 27.3516 34.4688 26.6719C34.6351 27.1657 34.7682 27.5396 34.9166 27.9568L34.9167 27.9568ZM22 30H22.5V28.5C23.3677 28.5 24.3 28.3672 24.3 27.1874C24.3 26.7717 24.0884 26.3736 23.7381 26.1797C23.6353 26.1268 23.4879 26.0876 23.412 26.0675C23.39 26.0616 23.374 26.0574 23.3669 26.0549L23.2736 26.0447C22.8852 26.002 22.7649 25.9887 22 26.01V30ZM22.5984 27.9957L22.5984 27.9957C22.5636 27.9939 22.5304 27.9922 22.5 27.9908V26.5C23.0075 26.5 23.8 26.5 23.8 27.2422C23.8 27.8176 23.3832 28.0078 22.9312 28.0078C22.8307 28.0078 22.707 28.0014 22.5984 27.9957L22.5984 27.9957ZM26.9945 26L28.5 30H27.9062L27.54 29.009H25.9527L25.5938 30H25L26.4664 26.0027L26.9945 26ZM27.3706 28.5C27.3016 28.3044 27.2385 28.127 27.1779 27.9568C27.0294 27.5397 26.8963 27.1657 26.73 26.6719C26.4876 27.3516 26.3226 27.8177 26.0972 28.5H27.3706ZM31.4216 30H32L31.341 28.3791C31.236 28.1637 31.2014 28.1127 31.0119 27.9934C31.4614 27.8278 31.7196 27.5 31.7196 27.0187C31.7196 26.0051 30.7149 26 30.1562 26C29.9667 26.0054 29.6895 26.0054 29.5 26V30H30V28.2092C30.1349 28.2092 30.2726 28.2092 30.4075 28.215C30.7149 28.2317 30.7978 28.4061 30.8668 28.5514L30.8711 28.5605L31.4216 30ZM30.4791 27.7105C30.3194 27.7163 30.1596 27.7163 30 27.7163V26.4869C30.1164 26.4905 30.2329 26.4893 30.3493 26.4881C30.4075 26.4875 30.4657 26.4869 30.5239 26.4869C30.8945 26.4869 31.1919 26.7128 31.2069 27.1045C31.2069 27.5148 30.8471 27.7166 30.4791 27.7105ZM37.6774 26.0044C37.8161 25.9985 37.9605 25.9985 38.098 26.0044C39.2005 26.0511 40 26.8752 40 28.0041C39.999 29.2937 38.9341 29.9695 37.7231 29.9984C37.5447 30.0027 37.3679 29.9975 37.1911 29.9924C37.1274 29.9905 37.0638 29.9886 37 29.9872V26.0044H37.6774ZM37.5 29.5C38.4873 29.5373 39.4662 29.2003 39.4662 28.0278C39.4576 26.7937 38.56 26.4614 37.5 26.5V29.5ZM41.5 30V26H41V30H41.5ZM44.4396 26.6573C44.3904 26.6351 44.0266 26.5 43.7264 26.5C43.4085 26.5 43.1641 26.7032 43.166 27.0209C43.166 27.4089 43.5102 27.602 43.8521 27.7938C44.0727 27.9176 44.2924 28.0408 44.4179 28.2155C44.5409 28.3952 44.6001 28.6168 44.5998 28.8432C44.5998 29.5137 44.1036 30 43.4343 30C43.1477 29.9991 42.8783 29.9136 42.6067 29.8275L42.6001 29.8254L42.6691 29.3132C42.9247 29.4344 43.1411 29.5 43.4215 29.5C43.8012 29.5 44.0965 29.2956 44.1001 28.8992C44.1001 28.4868 43.7479 28.2952 43.4157 28.1146C43.302 28.0527 43.1906 27.9921 43.0965 27.9244C42.8169 27.7371 42.6364 27.3803 42.6393 27.0152C42.6353 26.3921 43.1382 26 43.7361 26C44.0012 26 44.2632 26.067 44.5117 26.1707L44.4396 26.6573ZM48 26.4889V26H46V30H48V29.4999H46.5V28.1763H48V27.6875H46.5V26.4889H48Z" fill="#F19E16"/>
<path d="M27.6433 34H27.1109L26.6058 32.9206C26.5415 32.8098 26.4678 32.6726 26.1789 32.661C26.0547 32.6569 25.9674 32.6569 25.8433 32.6569V33.9913H25.3433V31.0037C25.5174 31.0082 25.6876 31.0082 25.8618 31.0037C26.0087 31.0037 26.1512 30.9954 26.2936 31.0037C26.7785 31.0223 27.3433 31.1605 27.3433 31.7643C27.3433 32.1931 27.1244 32.3785 26.7362 32.4956C26.9104 32.5845 26.9425 32.623 27.039 32.785L27.6433 34ZM25.8433 32.2873C25.9902 32.2873 26.0962 32.2873 26.2432 32.2831C26.5552 32.2873 26.8433 32.1846 26.8433 31.8284C26.8268 31.4829 26.6296 31.36 26.2843 31.36C26.1253 31.36 26.0036 31.3641 25.8433 31.36V32.2873Z" fill="#1D1D1B"/>
<path fill-rule="evenodd" clip-rule="evenodd" d="M29.9975 31C30.8221 31.0081 31.5 31.5469 31.5 32.4877C31.5 33.4286 30.833 33.9999 29.993 33.9999C29.1351 34.0073 28.5 33.3783 28.5 32.4548C28.5 31.5313 29.2191 30.9985 29.9975 31ZM29.993 33.64C30.6148 33.6519 31 33.0903 31 32.5126C31 31.9128 30.6428 31.3585 29.9975 31.36C29.3836 31.3575 29 31.9475 29 32.5126C28.9989 33.08 29.3778 33.64 29.993 33.64ZM22 34H22.5V32.8002L22.509 32.8005H22.509C22.8684 32.8134 23.2908 32.8284 23.6138 32.6254C23.8573 32.4588 24 32.1774 23.9998 31.8911C23.9998 31.4156 23.6596 31.1342 23.232 31.0414C22.8395 31.0032 22.6918 30.9904 22 31.0074V34ZM22.6087 32.431L22.6086 32.431L22.6086 32.431C22.5763 32.4288 22.5424 32.4264 22.5 32.4248V31.3625C23.0469 31.3625 23.5017 31.3665 23.5 31.8874C23.4986 32.3049 23.1875 32.4377 22.7713 32.4377C22.704 32.4377 22.6582 32.4345 22.6087 32.431ZM32.5 34H33V32.8002L33.009 32.8005C33.3684 32.8134 33.7908 32.8284 34.1138 32.6254C34.3573 32.4588 34.5 32.1774 34.4998 31.8911C34.4998 31.4156 34.1596 31.1342 33.732 31.0414C33.3395 31.0032 33.1918 30.9904 32.5 31.0074V34ZM33.1087 32.431C33.0763 32.4288 33.0424 32.4264 33 32.4248V31.3625C33.3871 31.3379 34.0017 31.3665 34 31.8874C33.9986 32.3049 33.6418 32.4377 33.2713 32.4377C33.204 32.4377 33.1582 32.4345 33.1087 32.431ZM37.67 31.36V31H36V34H37.7V33.64H36.5V32.632H37.5809V32.2656H36.5V31.36H37.67ZM27.6433 34H27.0649L26.5598 32.9206L26.5558 32.9139C26.4924 32.8043 26.4159 32.6723 26.1328 32.661C26.0087 32.6569 25.9674 32.6569 25.8434 32.6569H25.8433V34H25.3433V31.0037C25.5174 31.0082 25.6876 31.0082 25.8618 31.0037C25.9111 31.0037 25.9599 31.0027 26.0084 31.0018C26.1043 31 26.199 30.9982 26.2936 31.0037C26.7785 31.0223 27.3433 31.1605 27.3433 31.7643C27.3433 32.1931 27.1244 32.3785 26.7362 32.4956C26.9104 32.5845 26.9425 32.623 27.039 32.785L27.6433 34ZM25.8433 32.2873H25.8434C25.9902 32.2873 26.0963 32.2873 26.2432 32.2831C26.5552 32.2873 26.8433 32.1846 26.8433 31.8284C26.8268 31.4829 26.6296 31.36 26.2843 31.36C26.2299 31.36 26.1798 31.3605 26.1311 31.361C26.0375 31.3619 25.9487 31.3627 25.8433 31.36V32.2873ZM40.7216 34H41.3L40.6957 32.785C40.5993 32.623 40.5671 32.5845 40.393 32.4956C40.7811 32.3785 41 32.1931 41 31.7643C41 31.1605 40.4352 31.0223 39.9504 31.0037C39.8557 30.9982 39.7611 31 39.6651 31.0018C39.6166 31.0027 39.5678 31.0037 39.5185 31.0037C39.3443 31.0082 39.1742 31.0082 39 31.0037V34H39.5V32.6569H39.5001C39.6242 32.6569 39.6654 32.6569 39.7896 32.661C40.0727 32.6723 40.1491 32.8043 40.2126 32.9139L40.2165 32.9206L40.7216 34ZM39.5001 32.2873H39.5V31.36C39.6055 31.3627 39.6942 31.3619 39.7879 31.361C39.8366 31.3605 39.8866 31.36 39.941 31.36C40.2863 31.36 40.4835 31.4829 40.5 31.8284C40.5 32.1846 40.2119 32.2873 39.8999 32.2831C39.753 32.2873 39.647 32.2873 39.5001 32.2873ZM44.5 31V31.3685H43.5V34H43V31.3685H42V31H44.5ZM47.459 31.0007L46.4805 32.3269L45.539 31.002H45L46.2305 32.7273V34H46.7303V32.726L48 31.0007H47.459Z" fill="#1D1D1B"/>
<path fill-rule="evenodd" clip-rule="evenodd" d="M22.3 25V23H22V25H22.3ZM25 24.5L24.1009 23H23.7V24.997H24V23.4297L24.9214 25H25.3V23.003H25V24.5ZM33.401 23L34.3 24.5V23.003H34.6V25H34.2214L33.2943 23.4297V24.997H33V23H33.401ZM47.6999 24.5L46.8009 23H46.3999V24.997H46.6942V23.4297L47.6213 25H47.9999V23.003H47.6999V24.5ZM27.0845 23.0019C27.1628 22.9994 27.244 22.9994 27.3227 23.0019C27.8817 23.02 28.4 23.4016 28.4 24.002C28.3999 24.0903 28.3881 24.1781 28.3648 24.2633C28.2509 24.6642 27.9013 24.93 27.4961 24.9767C27.3683 24.9877 27.2375 24.9962 27.1097 24.9992C27.0109 25.0013 26.9118 24.9988 26.8128 24.9963L26.8128 24.9963C26.7752 24.9953 26.7375 24.9944 26.7 24.9937V23.0019H27.0845ZM27 24.7502C27.0869 24.7532 27.161 24.7532 27.2484 24.7502C27.7056 24.7392 28.0966 24.5176 28.0966 24.0135C28.0936 23.6358 27.8793 23.4395 27.7598 23.3656C27.5438 23.2258 27.2831 23.2343 27.0277 23.2428L27 23.2437V24.7502ZM31.6094 23.9916C31.6094 23.4044 31.1887 23 30.6037 23C30.0506 22.9978 29.6088 23.4126 29.6104 23.9693C29.6089 24.5618 30.0071 25.0044 30.601 24.9996C31.1833 25 31.6094 24.5718 31.6094 23.9916ZM31.3077 23.9994C31.3184 24.4026 31.0247 24.7951 30.601 24.7871C30.1695 24.7871 29.907 24.4023 29.9094 24.0056C29.9094 23.6133 30.1811 23.2125 30.6046 23.2142C31.0461 23.2131 31.3077 23.5812 31.3077 23.9994ZM37.3 23V23.2442H36.3V23.8435H37.3V24.0877H36.3V24.7503H37.3V25H36V23H37.3ZM39.991 23.3255L39.9951 23.3269L40.0442 23.0853C39.8828 23.0331 39.7124 23.0042 39.54 23C39.2301 23 39.0672 23.0936 38.9717 23.1818C38.8787 23.271 38.8276 23.387 38.8285 23.507C38.8274 23.6187 38.8691 23.7295 38.9453 23.8198C39.0428 23.9353 39.1916 23.9981 39.3413 24.0612C39.4194 24.0941 39.4977 24.1271 39.5691 24.1678C39.6871 24.2366 39.7701 24.319 39.7701 24.4489C39.7678 24.6763 39.5319 24.7683 39.3342 24.7683C39.1553 24.7683 39.0166 24.7177 38.8541 24.6585L38.8457 24.6554L38.8008 24.9118L38.8112 24.9144C38.9867 24.9576 39.1588 25 39.3437 25C39.6946 25 40.0996 24.8234 40.1006 24.4213C40.1055 24.2569 40.0082 24.0986 39.8547 24.0021L39.3246 23.7267L39.3219 23.7246C39.24 23.6591 39.168 23.6016 39.168 23.5091C39.1669 23.3184 39.366 23.2304 39.5323 23.2304C39.7199 23.2304 39.9467 23.3099 39.991 23.3255ZM42 23V25H41.7V23H42ZM45.25 25L44.3893 23.0017L44.0885 23L43.25 24.9928H43.5512L43.7565 24.4906H44.7157L44.924 25H45.25ZM44.4402 23.7994C44.5045 23.9556 44.5664 24.1089 44.6282 24.2622L43.8491 24.2651C43.8599 24.2365 43.8703 24.2085 43.8807 24.1808C43.9135 24.0929 43.9454 24.0076 43.9841 23.9128C43.9972 23.8806 44.0105 23.8484 44.0238 23.8162C44.0622 23.7233 44.1007 23.6299 44.136 23.5353C44.1634 23.4631 44.1861 23.3909 44.2089 23.3185C44.2165 23.2943 44.2241 23.2701 44.2319 23.2458C44.2601 23.3337 44.2908 23.4245 44.3245 23.5128C44.3611 23.6092 44.4006 23.7056 44.4402 23.7994Z" fill="#1D1D1B"/>
<defs>
<linearGradient id="paint0_linear_5085_143168" x1="24.8781" y1="15" x2="15.0769" y2="17.4033" gradientUnits="userSpaceOnUse">
<stop offset="0.200423" stop-color="#F0F3FA"/>
<stop offset="0.608251" stop-color="#96C157"/>
</linearGradient>
<linearGradient id="paint1_linear_5085_143168" x1="29.858" y1="20.4855" x2="18.5679" y2="23.49" gradientUnits="userSpaceOnUse">
<stop stop-color="#F0F3FA"/>
<stop offset="0.571233" stop-color="#97C257"/>
</linearGradient>
<linearGradient id="paint2_linear_5085_143168" x1="27.7778" y1="33.2845" x2="16.3163" y2="29.5035" gradientUnits="userSpaceOnUse">
<stop offset="0.120509" stop-color="#F0F3FA"/>
<stop offset="0.489936" stop-color="#A2CE61"/>
</linearGradient>
<linearGradient id="paint3_linear_5085_143168" x1="13.6835" y1="35.1434" x2="18.1527" y2="25.7113" gradientUnits="userSpaceOnUse">
<stop offset="0.61125" stop-color="#A2CE61"/>
<stop offset="1" stop-color="#F0F3FA"/>
</linearGradient>
<linearGradient id="paint4_linear_5085_143168" x1="6.18506" y1="24.224" x2="16.429" y2="24.2603" gradientUnits="userSpaceOnUse">
<stop offset="0.532626" stop-color="#A2CE61"/>
<stop offset="1" stop-color="#F0F3FA"/>
</linearGradient>
</defs>
</svg>
