<!-- by TradingView --><svg width="56" height="56" viewBox="0 0 56 56" xmlns="http://www.w3.org/2000/svg"><path fill="#F0F3FA" d="M0 0h56v56H0z"/><path d="M21.12 18h1.98l-3.12 6H18l3.12-6Z" fill="#F41F2D"/><path d="M23.02 18H25l-3.12 6H19.9l3.12-6Z" fill="#25265F"/><path d="M15.12 31h1.98l-3.12 6H12l3.12-6Z" fill="#F41F2D"/><path d="M17.02 31H19l-3.12 6H13.9l3.12-6Z" fill="#25265F"/><path d="M49.4 30H43l.6-1h.5l1.54-3H45l.64-1H52l-.78 1.47h-1.28l.24-.47h-3.26l-.54 1h3.08l-.47 1h-3.08l-.52 1h3.2l.31-.47h1.28L49.4 30ZM36.56 30h-2.65l.43-1h.4l-.04-.3h-2.68l-.33.3h.4l-.44 1H29l.43-1h.95l4.56-4h.6l.52 4H37l-.44 1Zm-1.97-2-.16-1.35L33 28h1.6Z" fill="#0B0E0F"/><path d="M29.01 30h-1.38l-1.56-1.77h-1.14l-.48.77h.66l-.48 1H22l.48-1h.65l1.76-3h-.66l.48-1h4.3c.68 0 1.97.15 1.99 1.06 0 .17-.05.36-.16.56-.54 1-1.9 1.46-2.98 1.58l.81.8h.82L29 30Zm-1.27-2.65c.6 0 1.47-.14 1.79-.73.33-.62-.58-.62-1-.62H26.2l-.8 1.35h2.34Z" fill="#0B0E0F"/><path d="M17.64 30H15l.5-1h.65l1.71-3h-.66l.53-1h4.32c.73 0 1.98.24 1.95 1.18 0 .17-.06.35-.17.55-.65 1.2-2.34 1.72-3.66 1.72h-2.35l-.35.55h.67l-.5 1Zm3-2.43c.94 0 1.58-.3 1.87-.84.29-.53-.13-.73-1.06-.73h-2.27l-.88 1.57h2.35Z" fill="#0B0E0F"/><path d="M14.54 30h-.9l-2.75-3.35L9.52 29h.67l-.49 1H7l.5-1h.66l1.8-3H9.3l.5-1h1.57l2.75 3.35L15.48 26h-.67l.5-1H18l-.5 1h-.66l-2.3 4ZM6.46 30H4l.45-1h.61l1.64-3H6.1l.45-1H9l-.45 1h-.62L6.3 29h.62l-.45 1ZM44 25c.79 0 1.2.45.9 1l-.28.56h-1.26l.11-.22c.13-.25-.05-.34-.4-.34h-2.53c-.35 0-.73.09-.86.34l-.06.1c-.16.31.07.54.5.54h3c.8 0 1.2.47.91 1.03l-.69 1.33c-.16.3-.64.66-1.08.66H38c-.79 0-1.2-.55-.9-1.1l.28-.56h1.26l-.11.22c-.13.25.05.43.4.43h3.32l.34-.65c.13-.25-.05-.33-.4-.33h-3.16c-.78 0-1.19-.56-.9-1.12l.46-.89c.28-.55 1.15-1 1.94-1H44Z" fill="#0B0E0F"/></svg>