<!-- by TradingView --><svg width="56" height="56" viewBox="0 0 56 56" xmlns="http://www.w3.org/2000/svg"><path fill="#016738" d="M0 0h56v56H0z"/><path d="m31.52 18.18-1.13 1.23a.13.13 0 0 1-.08.04c-.03 0-.06 0-.08-.02l-5.94-3.95a1.55 1.55 0 0 0-.55-.4.12.12 0 0 0-.16.08v.07c.19.7.2 1.4.44 2.09a9.47 9.47 0 0 0 4.14 5.07.1.1 0 0 0 .06-.02L36.43 17c.05-.03.06-.02.05.03-.18.59-.34 1.2-.49 1.86-.11.5-.56 1.46-1.34 2.88a15.59 15.59 0 0 1-4.28 4 .2.2 0 0 1-.21 0l-10.07-6.8-.62-.4a.09.09 0 0 0-.1 0 .09.09 0 0 0-.03.09c.1.4.19.82.26 1.23.7 4.29 4.53 7.52 8.37 9.12a.23.23 0 0 0 .22-.02c7.7-5.12 11.66-7.75 11.88-7.91.04-.03.08-.03.11-.01l.03.03v.04l-.38 1.72c-.64 2.67-2.51 5.17-4.57 6.98a23.1 23.1 0 0 1-4.89 3.33.23.23 0 0 1-.23-.01l-13.06-8.67c-.2-.21-.42-.35-.67-.4-.06-.01-.09.01-.08.08a14.3 14.3 0 0 0 5.94 9.75 20.9 20.9 0 0 0 5.71 3c.08.03.16.02.23-.03l14.67-9.6c.12-.09.15-.06.09.06l-1.38 2.71c-2.07 3.98-5.69 7.2-9.53 9.68-.02.01-.06.03-.06.06v5.14c0 .02.02.04 0 .05a.07.07 0 0 1-.04.02H24.1a.13.13 0 0 1-.1-.04c-.02-.02-.01-.05-.01-.08V40.3c.03-.13 0-.24 0-.33a.21.21 0 0 0-.1-.15l-2.52-1.37a23.47 23.47 0 0 1-8.37-12.04.32.32 0 0 1 0-.2A24.27 24.27 0 0 1 25.67 12.1c.45-.22 1.27-.58 2.47-1.07a.18.18 0 0 1 .17 0c1.38.73 2 1.9 1.84 3.49a.09.09 0 0 1-.08.07h-.04l-2.87-1.65a.1.1 0 0 0-.09 0 .1.1 0 0 0-.05.07 4.42 4.42 0 0 0 1.14 3.83c.07.07.14.08.23.03l4.5-3.1c.15-.1.21-.07.17.11-.06.28-.13.64-.2 1.08-.06.39-.15.74-.26 1.05-.26.77-.62 1.5-1.07 2.18Z" fill="#fff"/><path d="m20.09 18.95 10.07 6.8a.19.19 0 0 0 .2.01 15.59 15.59 0 0 0 4.29-4c-1 1.7-2.4 3.08-4.16 4.14a.43.43 0 0 1-.47-.02c-2.85-1.95-5.72-3.9-8.61-5.84l-.58-.34c-.35-.21-.6-.46-.74-.75ZM35.26 29.83c.2 0 .18.1-.1.35-1.1.95-2.24 1.76-3.41 2.43l-1.17.66a.54.54 0 0 1-.57-.02l-12.8-8.49a.26.26 0 0 1-.12-.2v-.07l13.05 8.66a.23.23 0 0 0 .23.01c1.77-.9 3.4-2 4.89-3.33ZM21.4 38.45l2.49 1.37c.06.04.1.09.12.15.01.1 0 .2-.03.33-.09-.02-.17-.13-.24-.3a.16.16 0 0 0-.08-.08l-2.32-1.28a.12.12 0 0 1-.06-.06.1.1 0 0 1 0-.07c.01-.07.06-.09.12-.06Z" fill="#021B0A"/></svg>