<!-- by TradingView --><svg width="56" height="56" viewBox="0 0 56 56" xmlns="http://www.w3.org/2000/svg"><path fill="#F0F3FA" d="M0 0h56v56H0z"/><path d="M44 39.85A4.15 4.15 0 0 1 39.85 44h-23.7A4.16 4.16 0 0 1 12 39.85v-23.7A4.15 4.15 0 0 1 16.15 12h23.7A4.16 4.16 0 0 1 44 16.15v23.7Z" fill="#012B77"/><path d="M27.51 13.97 26.2 16a.22.22 0 0 1-.15.1 12.07 12.07 0 0 0-9.5 16.09c.04.1.01.23-.08.4a123.46 123.46 0 0 1-1.18 2.05.05.05 0 0 1-.05 0l-.02-.02a14.08 14.08 0 0 1-1.07-10.4 14.35 14.35 0 0 1 13.34-10.35.08.08 0 0 1 .04.07v.04ZM40.13 20.8a14.25 14.25 0 0 1 .43 13.77.07.07 0 0 1-.1-.02l-1.16-2.02a.26.26 0 0 1-.02-.23 12.06 12.06 0 0 0-9.66-16.23.26.26 0 0 1-.18-.12l-1.22-2a.07.07 0 0 1 0-.06.07.07 0 0 1 .06-.03c4.9.17 9.34 2.72 11.85 6.95ZM22.24 24.35l5.38-8.26a.05.05 0 0 1 .07 0l.01.03v14.27a.05.05 0 0 1-.06.01l-.02-.01-5.38-5.98-.01-.03v-.03ZM28.5 16.8l9.4 14.74a.05.05 0 0 1 0 .05.05.05 0 0 1-.05.02h-9.39l-.03-.01-.01-.04V16.83a.05.05 0 0 1 .08-.03ZM21.9 25.08l5.77 6.41a.05.05 0 0 1 0 .06.05.05 0 0 1-.04.03h-9.95a.05.05 0 0 1-.05-.06v-.02l4.18-6.42a.05.05 0 0 1 .08 0ZM25.5 35.83l-6.77-3.74a.05.05 0 0 1 .03-.09h17.73a.05.05 0 0 1 .01.1l-10.96 3.73a.05.05 0 0 1-.04 0ZM34.8 36h-7.9l-.02-.01-.02-.03v-.03l.03-.01 10.92-3.71h.02l.03.01v.06l-3.02 3.7a.05.05 0 0 1-.03.02ZM21 35.86l-3.28-3.46c-.15-.16-.13-.19.07-.08a4020.65 4020.65 0 0 1 6.64 3.6 1.03 1.03 0 0 0 .03.05V36h-.01l-.02.01h-3.1a.47.47 0 0 1-.34-.14Z" fill="#FFCC07"/><path d="M40.29 35.04A14.27 14.27 0 0 1 15.46 35h2.37c.15 0 .28.04.4.22a12.1 12.1 0 0 0 19.52-.12.34.34 0 0 1 .13-.1h2.41s.01 0 0 0c0 0 .01 0 0 0v.04Z" fill="#FFCC07"/></svg>