<!-- by TradingView --><svg width="56" height="56" viewBox="0 0 56 56" xmlns="http://www.w3.org/2000/svg"><path fill="#F0F3FA" d="M0 0h56v56H0z"/><path d="m20.56 24-2.4-4.3a3.75 3.75 0 0 1-.53-1.36c-.07-.73 0-1.24.39-1.92l1.66-2.97c.41-.79.81-1.32 1.19-1.6a3.9 3.9 0 0 1 2.68-.85h8.72c.7 0 1.21.07 1.55.2.74.27 1.16.54 1.61 1.3a49.67 49.67 0 0 1 2.64 4.9c.2.46.11 1-.24 1.64a484.96 484.96 0 0 1-2.73 4.87v.05l.04.03a.1.1 0 0 0 .04.01h5.39c.91 0 1.64.46 2.07 1.22l2.99 5.26c.28.5.4 1.02.36 1.55-.02.35-.2.83-.53 1.43l-4.4 7.99c-.3.53-.73.94-1.3 1.2a3.6 3.6 0 0 1-1.55.35h-5.34c-1.19 0-1.7-.42-2.26-1.42a2146.97 2146.97 0 0 1-2.66-4.7.07.07 0 0 0-.07 0 157.48 157.48 0 0 1-2.75 4.85c-.5.86-1.3 1.28-2.4 1.27h-4.44c-.83.02-1.43-.1-1.8-.27a3.27 3.27 0 0 1-1.46-1.22 349.5 349.5 0 0 1-4.47-7.8 3.91 3.91 0 0 1-.54-1.5c-.07-.72.06-1.38.4-2 1.48-2.7 2.32-4.27 2.52-4.68.49-.97 1.82-1.53 2.82-1.53h4.8Z" fill="#FE0000"/><path d="M23.2 15.57c-.39-.61-.9-1.23-.98-1.67-.12-.6.1-.89.68-.89h9.93c.22 0 .39.08.52.25.58.75 1.02 1.5 1.33 2.26a.2.2 0 0 1 0 .16c-.08.2-.24.3-.46.31L24.2 16c-.51 0-.74-.03-1-.43ZM21.47 21.87l-1.86-3.16c-.34-.59-.3-.8.03-1.32.5-.76.82-1.27.99-1.5.03-.06.08-.1.13-.12a.39.39 0 0 1 .36 0c.06.03.1.08.13.13l4.48 7.31a.47.47 0 0 1-.17.65.54.54 0 0 1-.24.08c-.57.04-1.2.05-1.9.04a1.18 1.18 0 0 1-.98-.56c-.22-.32-.54-.84-.97-1.55ZM27.46 22.91 25 18.96a.6.6 0 0 1 0-.64c.06-.1.14-.18.25-.23.1-.06.22-.09.35-.09h4.35c.11 0 .22.03.32.08s.17.13.23.22a.55.55 0 0 1-.03.6l-2.8 4.02c-.07.11-.15.1-.22-.01ZM36.03 18.23c-1.02 1.7-2.03 3.43-3.09 5.12-.26.42-.67.62-1.22.63h-1.49c-.38 0-.63-.16-.74-.46-.1-.25.11-.54.23-.72.3-.45 1.28-1.94 2.94-4.5.27-.41.76-.73 1.33-.7.4 0 1.34-.1 1.9.2.05.01.08.04.1.07a.32.32 0 0 1 .08.24c0 .05-.02.09-.04.12ZM15.9 26.07c.3 0 .75-.07 1.07-.07h22.47c.48 0 .9.2 1.24.6.44.52.83 1.07 1.18 1.67a.4.4 0 0 1 0 .46c-.28.4-1.3.27-1.54.27H17.8c-.44 0-.73-.03-.88-.1-.75-.34-1.22-1.16-1.56-1.9-.21-.47-.08-.93.54-.93ZM15.32 30.9c1.84 3.31 2.91 5.24 3.23 5.78.22.38.4.78.57 1.2.02.06.03.12 0 .18-.28.9-.77 1.68-1.46 2.34a.24.24 0 0 1-.3.03c-.27-.19-.49-.4-.63-.65-.84-1.45-2.18-3.82-4.01-7.1a2.47 2.47 0 0 1-.32-.8c-.1-.69.75-2.22 1.02-2.52.42-.47.92-.14 1.19.3.14.22.38.64.71 1.24ZM20.46 31c.84 0 1.53 0 2.1.02.1 0 .2.03.3.08.09.05.17.13.22.21a.55.55 0 0 1 0 .57A223.57 223.57 0 0 1 20.5 36a.09.09 0 0 1-.04 0l-.02-.02c-.62-.95-1.49-2.31-2.58-4.08a.54.54 0 0 1 0-.57.6.6 0 0 1 .21-.22c.1-.05.2-.08.3-.08.56-.02 1.26-.03 2.1-.03ZM32.71 31.78a.15.15 0 0 1-.02-.12c.1-.43.4-.65.9-.66h3.86c.25 0 .45.04.6.1.06.02.1.06.13.12.12.26.13.46.03.62l-2.65 4.1c-.04.08-.1.08-.14 0l-2.7-4.16ZM22.58 40.97c-.58.03-1.16.04-1.76.02-.1 0-.21-.04-.3-.1a.6.6 0 0 1-.22-.2.57.57 0 0 1 0-.59l4.96-8.35c.34-.57.88-.72 1.6-.74.66-.01 1.4-.08 1.77.38a.23.23 0 0 1 .03.25l-5.03 8.88c-.15.27-.5.42-1.05.45ZM35.6 40.13l4.81-8.23c.44-.75 1.02-.86 1.82-.9.83-.03 1.43.16 1.53 1.08.01.07-.03.19-.13.36-.7 1.18-2.25 3.82-4.63 7.93-.21.36-.49.61-.82.63H36.1c-.1 0-.2-.03-.3-.09a.6.6 0 0 1-.2-.2.56.56 0 0 1-.01-.58ZM33.27 36.02c.32.56.89 1.44.75 1.84a5.04 5.04 0 0 1-1.52 2.27c-.05.03-.1.03-.16 0a2.69 2.69 0 0 1-.6-.52c-.76-1.25-1.5-2.51-2.22-3.78-.34-.59-.42-.92-.18-1.54.24-.63.5-1.16.76-1.56.16-.26.33-.4.5-.4.37-.03.62.17.81.5l1.86 3.2Z" fill="#F0F3FA"/></svg>