<!-- by TradingView --><svg width="56" height="56" viewBox="0 0 56 56" xmlns="http://www.w3.org/2000/svg"><path fill="#F0F3FA" d="M0 0h56v56H0z"/><path d="M43.7 34.5a17 17 0 1 0-31.4-13 17 17 0 0 0 31.4 13Zm-4.66-17.54a15.61 15.61 0 1 1-22.08 22.08 15.61 15.61 0 0 1 22.08-22.08ZM31.16 20c-.47 0-.74.11-.82.3-.02.06-.08.1-.17.1a.29.29 0 0 0-.1.05.35.35 0 0 0-.12.14c-.13.26-.37.36-.73.28a.14.14 0 0 1-.06-.03.13.13 0 0 1-.04-.05.12.12 0 0 1 .02-.12c.15-.2.34-.3.57-.27.22.01.28-.08.19-.27-.1-.18-.3-.16-.62.04a.61.61 0 0 0-.2.22.58.58 0 0 0-.08.28v2.18c0 .08.04.15.13.15h1.03c.03 0 .06-.02.08-.04l.02-.02.06-.05c.07-.05.13-.05.2 0 .1.07.23.1.36.1.07-.01.14-.05.2-.1l.08-.08a.2.2 0 0 1 .25-.02c.19.14.36.2.52.21.04 0 .07 0 .1-.03a.17.17 0 0 0 .06-.07c.17-.36.27-.6.3-.7a.3.3 0 0 0-.04-.25c-.04-.07-.1-.08-.17-.04l-.23.18c-.03.02-.05.03-.08.03a.11.11 0 0 1-.07-.04c-.06-.06-.05-.12.03-.16.2-.11.26-.25.17-.4a.51.51 0 0 1-.08-.2c0-.1.03-.16.1-.2a.33.33 0 0 1 .28-.02c.18.06.24.25.17.58 0 .04 0 .07.02.1s.04.06.08.07c.47.18.68.5.63.97 0 .1.04.18.15.18h.92c.07 0 .15-.03.22-.06l.06-.03a.74.74 0 0 0 .4-.38.69.69 0 0 0 .05-.27v-1.72a.53.53 0 0 0-.16-.37.57.57 0 0 0-.38-.17h-3.3Zm.92.95c-.15-.01-.23-.06-.24-.14 0-.08.03-.1.1-.1.1 0 .16.06.2.14.05.07.02.1-.06.1Zm-.55.72-.15.06a.25.25 0 0 0-.13.14c-.06.16.04.3.3.42.07.02.08.06.04.12-.02.04-.05.05-.08.05a1.3 1.3 0 0 1-.8-.36.13.13 0 0 1 .02-.2l.62-.34c.08-.03.14-.04.19-.01.08.04.07.08 0 .12Zm2.31.53c-.03.06-.08.1-.13.1l-.08-.01a.22.22 0 0 1-.08-.06.33.33 0 0 1-.05-.09.42.42 0 0 1-.03-.11c-.01-.08 0-.16.03-.22.04-.06.08-.1.14-.1l.08.01.08.06.05.1c.02.03.03.06.03.1.01.08 0 .16-.04.22Zm-3.74-.19a.25.25 0 0 1-.16-.15c-.03-.05 0-.09.06-.1.08 0 .14.05.19.15v.04l-.01.04a.08.08 0 0 1-.08.02Zm4.25.33c0-.03.01-.06.04-.09.05-.06.1-.08.16-.06.02 0 .04.02.05.04.01.02.01.05 0 .07-.02.07-.08.11-.16.12h-.04l-.02-.02a.08.08 0 0 1-.03-.06Zm-4.66.25c.08-.1.21-.1.4 0 .05.04.05.07-.01.1a.38.38 0 0 1-.36 0 .07.07 0 0 1-.04-.05v-.02l.01-.03Zm-5.1.75c.02-.03.11-.08.27-.16.08-.05.13-.1.14-.17a.1.1 0 0 0-.07-.1.1.1 0 0 0-.05-.02c-.16.02-.24.01-.26 0a.18.18 0 0 1-.05-.07.2.2 0 0 1-.01-.09c0-.03 0-.06.02-.08a.24.24 0 0 1 .06-.08c.12-.1.18-.19.2-.26 0-.1-.03-.14-.13-.12-.22.06-.36-.01-.41-.22-.02-.08-.05-.13-.08-.15a.16.16 0 0 0-.1-.04.16.16 0 0 0-.15.1.5.5 0 0 1-.09.13c-.06.05-.12.05-.17-.01a.52.52 0 0 0-.26-.17c-.08-.02-.14 0-.17.08-.07.16-.11.24-.14.25-.36.05-.4-.03-.12-.25.22-.18.44-.42.67-.7.15-.2.48-.44 1-.74a.21.21 0 0 1 .22 0c.03 0 .05.02.08.04.11.08.17.08.18 0l-.02-.1a.14.14 0 0 1 .07-.16c.26-.17.59-.22.98-.13.26.07.31.2.14.39-.05.06-.19.08-.4.07a.18.18 0 0 0-.18.1.18.18 0 0 0 .04.2l.27.28a.07.07 0 0 0 .05.02.06.06 0 0 0 .05-.02c.17-.2.3-.42.37-.63.03-.08.09-.12.17-.1.17.01.3-.09.39-.31a.17.17 0 0 1 .17-.12h.45c.08 0 .28.04.28.13v2.69c0 .12-.07.18-.2.18H27c-.07 0-.2-.02-.23-.08a.8.8 0 0 1-.03-.06c-.07-.17-.12-.16-.16 0l-.06.26a.3.3 0 0 1-.11.17l-.2.14c-.47.35-.9.67-.9 1.8-.02.07-.02.14.02.2l.09.16c.12.22.25.46.45.68.57.59 1.06.75 1.95.73.5-.01.96.11 1.38.31.12.06.17.05.14-.04a.4.4 0 0 1-.02-.08c0-.1.04-.19.14-.19h2.72c.2 0 .18.1.05.25l-.39.38a.07.07 0 0 0-.02.04c-.02.06 0 .11.05.15.03.02.05.02.08 0 .36-.2.57-.42.65-.64a.19.19 0 0 1 .17-.13h.1c.02 0 .05.02.06.04a.1.1 0 0 1 .03.07c0 .11.05.2.18.28.07.05.12.1.13.18.05.24.06.45.03.65-.01.05.01.09.06.1h.08a.1.1 0 0 0 .05-.05c.13-.25.2-.5.21-.76 0-.11-.04-.17-.16-.17h-.1c-.11 0-.17-.05-.16-.17.01-.12.16-.23.26-.22h1.38c.08 0 .08.08.08.16V30h-7.25a2.33 2.33 0 0 0-2.32 2.34v4.57c0 .03 0 .05-.02.06a.09.09 0 0 1-.06.03h-3.2c-.1 0-.15-.05-.15-.14V32c.01-1.3.53-2.21 1.32-3.2.05-.07.05-.13 0-.2l-.19-.25c-.32-.4-.71-.91-.74-1.24a1.56 1.56 0 0 0-.2-.55c-.16-.3-.18-.88-.2-1.21v-.05c0-.2.07-.61.24-.72.07-.05.08-.1.02-.16l-.19-.19c-.05-.05-.05-.1 0-.16l.5-.5c.06-.06.13-.07.2-.02.08.04.1.1.09.19a.54.54 0 0 1-.33.4c-.08.04-.08.07 0 .1l.07.03h.06c.2-.03.38-.05.51-.04.1 0 .15.05.16.14.04.44-.27 1.05-.93 1.43a.2.2 0 0 0-.08.09.2.2 0 0 0-.02.1c0 .04.02.08.05.1.02.03.06.05.1.06.11.02.23-.06.34-.24.06-.1.15-.12.25-.06.06.03.12.05.16.05.08 0 .11-.05.1-.13a.52.52 0 0 1 0-.31c.04-.1.12-.18.2-.24.07-.05.13-.1.17-.16.05-.07.06-.33.03-.41-.08-.2-.12-.43-.12-.7a.19.19 0 0 0-.1-.17l-1.01-.58a.2.2 0 0 1-.1-.2.2.2 0 0 1 .03-.08l.2-.35c.05-.08.11-.1.2-.09.31.08.46.28.42.6 0 .12.03.14.13.07.05-.04.09-.11.13-.22a.22.22 0 0 0-.04-.2c-.1-.13-.14-.24-.12-.34a.2.2 0 0 1 .15-.16c.21-.06.41.03.61.26.05.06.06.12.02.2l-.06.1c-.06.1-.05.19.05.26l.44.36.02-.02.03-.02.02-.03Zm.65-2.66c-.05.1-.02.23.11.38a.13.13 0 0 0 .11.05.13.13 0 0 0 .1-.06c.12-.2.08-.34-.1-.43a.17.17 0 0 0-.12-.01.17.17 0 0 0-.1.07Zm1.48.33c.12.08.23.12.33.12a.1.1 0 0 0 .1-.07.1.1 0 0 0-.04-.1.4.4 0 0 0-.37-.09c-.1.03-.11.07-.02.14Zm.64.62c.1-.2.08-.31-.05-.36a.14.14 0 0 0-.15.05.14.14 0 0 0-.03.05c-.04.12-.02.22.04.29l.04.03a.12.12 0 0 0 .12-.01.12.12 0 0 0 .03-.05Zm-2.3 1.23c.02.02.22-.19.6-.63.14-.16.16-.27.05-.34-.1-.07-.2-.01-.3.17-.26.52-.39.79-.36.8Zm.92-.64c-.1-.01-.12.02-.08.11.07.13.15.2.27.19.1-.01.12-.06.08-.15-.04-.08-.13-.13-.27-.15Zm1.28.1c-.06.13-.05.23.02.3a.09.09 0 0 0 .13-.02.09.09 0 0 0 .02-.04c0-.1-.01-.17-.06-.25a.07.07 0 0 0-.06-.03l-.03.01a.06.06 0 0 0-.02.03Zm-1.67.51c-.1.13-.1.22.04.29.31.15.48.2.51.17.03-.03-.06-.19-.26-.46-.08-.13-.18-.12-.29 0Zm-1.83.5a.4.4 0 0 0-.08.28c0 .12.06.15.16.09.07-.04.12-.1.14-.2.02-.07 0-.13-.09-.18a.1.1 0 0 0-.13.02Zm1 1.1.17-.17a.17.17 0 0 0 .04-.2 1.39 1.39 0 0 0-.38-.47c-.05-.04-.07-.03-.07.03v.48c0 .1-.05.16-.15.16-.26.01-.4.08-.41.2-.02.1.02.15.11.18.19.06.36.1.51.09.06 0 .1-.03.12-.09l.06-.2v-.01Zm-2.42.6c-.11.12-.18.2-.2.25-.04.11-.01.15.1.11.18-.06.3-.17.36-.32a2 2 0 0 0 0-.25.1.1 0 0 0-.13-.08l-.1.05v.05c0 .06-.01.18-.03.2Zm2.22.6c.07.07.15.1.25.07a.1.1 0 0 0 .07-.07.1.1 0 0 0-.03-.1c-.07-.05-.15-.06-.24-.04-.1.02-.12.07-.05.15Zm-.83.56.24-.29c.1-.12.08-.16-.08-.1a.71.71 0 0 0-.4.39c-.07.12-.04.21.09.27.02 0 .04 0 .05-.03l.1-.23v-.01Zm.98.47.02.06a.1.1 0 0 0 .12.04.1.1 0 0 0 .04-.04.66.66 0 0 0 .1-.46c-.01-.07-.05-.1-.12-.1h-.07c-.02 0-.04 0-.06.02a.09.09 0 0 0-.03.06v.43Zm-2.03-.22a.12.12 0 0 0-.05.17l.04.04c.1.06.2.06.32.01.09-.04.1-.09.02-.15-.12-.1-.23-.12-.33-.07Zm2.34.6-.01-.01a.03.03 0 0 0-.02.01v.01a.21.21 0 0 0 0 .18.1.1 0 0 0 .06.05.1.1 0 0 0 .07-.01.1.1 0 0 0 .06-.1c0-.04-.01-.07-.04-.09a.74.74 0 0 0-.12-.05Zm-.95.4a.1.1 0 0 0 .05 0c.02 0 .03-.02.05-.03a.2.2 0 0 0 .04-.05.25.25 0 0 0 .02-.07v-.13c-.02-.04-.05-.07-.08-.07a.1.1 0 0 0-.05 0 .14.14 0 0 0-.05.03.2.2 0 0 0-.04.05.25.25 0 0 0-.03.07l.01.13c.02.04.05.06.08.07Zm-.52-.16c.09-.12.06-.16-.09-.14-.2.02-.32.15-.34.36a.11.11 0 0 0 .14.12c.02 0 .04-.02.05-.04l.24-.3Zm7.58.28a.62.62 0 0 0 .4-.17c.08-.08.06-.13-.05-.14-.37-.04-.6.13-.7.52-.01.08.01.1.09.05a.2.2 0 0 0 .09-.11c.02-.09.07-.14.17-.15Zm-6.75.12c-.12.15-.1.3.1.45a.1.1 0 0 0 .14-.05.53.53 0 0 0-.04-.38.11.11 0 0 0-.1-.07.12.12 0 0 0-.1.05Zm5.6.72c.05-.01.07-.05.09-.1a.28.28 0 0 0-.02-.17.3.3 0 0 0-.05-.07.25.25 0 0 0-.06-.06.17.17 0 0 0-.06-.02h-.06c-.04.02-.07.06-.08.1-.02.06 0 .12.01.17l.05.08.06.05.06.03H30Zm1.68.12a.08.08 0 0 0 .02-.05.2.2 0 0 0 0-.08.45.45 0 0 0-.04-.1.66.66 0 0 0-.23-.25.2.2 0 0 0-.07-.02h-.06a.08.08 0 0 0-.02.06.2.2 0 0 0 0 .08c0 .03.02.06.04.1a.66.66 0 0 0 .23.24.2.2 0 0 0 .07.03l.06-.01Zm1.06-.3c-.02-.03-.05-.04-.1-.03a.28.28 0 0 0-.12.06.32.32 0 0 0-.06.06.24.24 0 0 0-.03.06v.06l.01.04c.02.02.06.03.1.03.04-.01.09-.04.13-.07a.32.32 0 0 0 .05-.06.24.24 0 0 0 .03-.06l.01-.05c0-.02 0-.04-.02-.05Zm-7.22.36a.13.13 0 0 0 0-.11.2.2 0 0 0-.1-.09.22.22 0 0 0-.08-.02h-.06a.15.15 0 0 0-.06.03.12.12 0 0 0-.03.05.13.13 0 0 0 0 .11.22.22 0 0 0 .17.1c.02.01.05.01.07 0 .02 0 .04 0 .05-.02a.12.12 0 0 0 .04-.05Zm5.08.85c.05-.02.08-.08.08-.16a.73.73 0 0 0-.06-.29.73.73 0 0 0-.16-.24c-.06-.06-.12-.08-.17-.06-.04.02-.07.07-.07.16 0 .08.02.18.06.28.04.1.1.19.16.25.06.05.12.08.16.06Zm1.74-.25a.17.17 0 0 0 .03-.07.2.2 0 0 0 0-.08.25.25 0 0 0-.04-.08.3.3 0 0 0-.07-.07.28.28 0 0 0-.18-.05.19.19 0 0 0-.14.07.17.17 0 0 0-.03.08.2.2 0 0 0 0 .08l.05.08a.3.3 0 0 0 .24.12c.06 0 .11-.03.14-.08Zm-8.57 0c-.03.02-.03.05-.01.07.08.1.12.08.13-.04 0-.04-.01-.06-.05-.07-.02 0-.04.01-.07.04Zm4.44.38c-.12.08-.12.16-.02.25l.09.03.09-.03c.14-.09.14-.17 0-.25a.16.16 0 0 0-.16 0Zm4.56-6.9c-.12-.01-.2.06-.26.22v.03a.07.07 0 0 0 .06.06c.12.02.2 0 .27-.03a.15.15 0 0 0 .06-.16.15.15 0 0 0-.13-.11Z" fill="#03539B"/></svg>