<!-- by TradingView --><svg width="56" height="56" viewBox="0 0 56 56" xmlns="http://www.w3.org/2000/svg"><path fill="#F0F3FA" d="M0 0h56v56H0z"/><path d="M28 22.36V9.15c.17-.16.31-.19.43-.1a156449 156449 0 0 1 15.55 11.44l.02.09v8.91a.08.08 0 0 1-.04.07.08.08 0 0 1-.07 0L28 22.36Z" fill="#930037"/><path d="M28 9.15v13.2l-15.89 7.22a.08.08 0 0 1-.07 0 .08.08 0 0 1-.04-.07v-8.74a.56.56 0 0 1 .23-.45L28 9.15Z" fill="#E01A33"/><path d="m20.39 35-.01.86c0 .09-.05.14-.13.14h-4.13c-.07 0-.12.02-.12.1v1.81c0 .07.04.09.1.09h4.83c.05 0 .07.06.07.11v1.8a.1.1 0 0 1-.02.06.08.08 0 0 1-.06.03h-6.83a.07.07 0 0 1-.05-.02l-.02-.03-.02-.03v-9.85l.02-.02.03-.02.02-.03h6.83c.03 0 .05.01.06.03.02.01.04.04.04.06v1.8c0 .05-.03.11-.08.11H16.1c-.07 0-.1 0-.1.08v1.81c0 .03.02.06.04.08.02.03.05.03.08.03h4.13c.08 0 .12.05.12.14l.02.86ZM28.9 36.4a.1.1 0 0 0-.02.02.1.1 0 0 0 0 .12l2.06 3.2c.11.18.07.26-.13.26h-1.66a.8.8 0 0 1-.4-.1.87.87 0 0 1-.3-.3l-1.72-2.45a.33.33 0 0 0-.11-.1.3.3 0 0 0-.15-.05h-1.32a.14.14 0 0 0-.1.05.17.17 0 0 0-.05.1v2.44c0 .26-.11.41-.36.41h-.97a.67.67 0 0 1-.47-.23.74.74 0 0 1-.2-.5v-9.14c0-.03.01-.07.03-.09a.11.11 0 0 1 .09-.04c1.44 0 2.94 0 4.5.02.48 0 1 .14 1.59.43a2.77 2.77 0 0 1 1.56 2.34c.2 1.76-.43 2.96-1.86 3.6ZM25 32.1V35h2.26c.74 0 1.45-.67 1.45-1.44v-.24c0-.35-.15-.68-.42-.93a1.52 1.52 0 0 0-1.02-.4l-2.09.01c-.02 0-.05 0-.07.02-.02.02-.1.05-.11.08ZM39.1 38h-3.96a.18.18 0 0 0-.1.03.2.2 0 0 0-.08.08l-.56 1.4a.77.77 0 0 1-.28.35.75.75 0 0 1-.42.14h-1.35c-.2 0-.25-.1-.17-.28l3.97-9.57a.23.23 0 0 1 .21-.15H38c.1 0 .17.05.21.15l4.06 9.81a.02.02 0 0 1 0 .03h-.01l-.02.01H40.1l-.02-.03-.78-1.86a.22.22 0 0 0-.08-.1c-.04-.02-.08-.01-.12-.01Zm-3.29-2.13a.1.1 0 0 0 .01.09l.03.03.05.01h2.47a.09.09 0 0 0 .07-.04.1.1 0 0 0 0-.09l-1.21-3.09a.09.09 0 0 0-.17 0l-1.25 3.1Z" fill="#09307B"/><path d="M41.92 42H14.08c-.04 0-.08.04-.08.08v1.84c0 .04.04.08.08.08h27.84c.04 0 .08-.04.08-.08v-1.84c0-.04-.04-.08-.08-.08Z" fill="#E01A33"/></svg>