<!-- by TradingView --><svg width="56" height="56" viewBox="0 0 56 56" xmlns="http://www.w3.org/2000/svg"><path fill="#F0F3FA" d="M0 0h56v56H0z"/><path fill-rule="evenodd" d="M42 43.54V12.46c0-1.38-1.21-2.46-2.57-2.46H16.57C15.2 10 14 11.08 14 12.46v31.08c0 1.38 1.21 2.46 2.57 2.46h22.86C40.8 46 42 44.92 42 43.54Zm-1 .02v-31.1c0-1-.53-1.46-1.5-1.46h-23c-.97 0-1.5.46-1.5 1.45v31.1c0 1 .53 1.45 1.5 1.45h23c.97 0 1.5-.45 1.5-1.44Z" fill="#09A3F0"/><path fill-rule="evenodd" d="M35.69 32.07a10.24 10.24 0 0 0 3.19-7.39c0-2.77-1.15-5.43-3.2-7.38a11.13 11.13 0 0 0-7.7-3.07c-2.88 0-5.65 1.1-7.7 3.07a10.24 10.24 0 0 0-3.19 7.38c0 2.78 1.15 5.43 3.2 7.4a11.13 11.13 0 0 0 7.7 3.05c2.89 0 5.66-1.1 7.7-3.06Zm2.02-3.52a9.74 9.74 0 0 0-2.28-11 10.91 10.91 0 0 0-14.89 0 9.9 9.9 0 0 0-3.08 7.13 9.9 9.9 0 0 0 3.08 7.14 10.92 10.92 0 0 0 14.89 0c.98-.93 1.75-2.05 2.28-3.27Z" fill="#09A3F0"/><path fill-rule="evenodd" d="M37.36 28.4a9.4 9.4 0 0 0-2.2-10.6c-.94-.91-2.06-1.63-3.29-2.12a10.53 10.53 0 0 0-11.06 2.11 9.54 9.54 0 0 0-2.97 6.89 9.54 9.54 0 0 0 2.97 6.88 10.53 10.53 0 0 0 14.36 0 9.72 9.72 0 0 0 2.2-3.16Zm-2.45 2.91a9.2 9.2 0 0 0 2.86-6.64 9.2 9.2 0 0 0-2.86-6.64 10 10 0 0 0-6.92-2.75 10 10 0 0 0-6.92 2.75 9.2 9.2 0 0 0-2.87 6.64 9.2 9.2 0 0 0 2.87 6.64 10 10 0 0 0 6.92 2.75 10 10 0 0 0 6.92-2.75Z" fill="#09A3F0"/><path fill-rule="evenodd" d="M36.68 28.13a8.71 8.71 0 0 0-2.04-9.84 9.76 9.76 0 0 0-13.31 0 8.85 8.85 0 0 0-2.76 6.39c0 2.4 1 4.7 2.76 6.38a9.62 9.62 0 0 0 10.26 1.96 9.45 9.45 0 0 0 3.05-1.96 9.02 9.02 0 0 0 2.04-2.93Zm-2.3 2.69a8.51 8.51 0 0 0 2.66-6.14c0-2.3-.95-4.52-2.65-6.15a9.26 9.26 0 0 0-6.4-2.54c-2.4 0-4.71.91-6.41 2.54a8.51 8.51 0 0 0-2.65 6.15c0 2.3.95 4.51 2.65 6.14s4 2.55 6.4 2.55c2.4 0 4.7-.92 6.4-2.55Z" fill="#09A3F0"/><path d="M36.68 24.68a8.05 8.05 0 0 1-2.54 5.9 8.73 8.73 0 0 1-6.15 2.44c-2.3 0-4.52-.87-6.15-2.44a8.17 8.17 0 0 1-2.55-5.9c0-2.21.92-4.33 2.55-5.9a8.89 8.89 0 0 1 6.15-2.44c2.3 0 4.52.88 6.15 2.44a8.17 8.17 0 0 1 2.54 5.9Z" fill="#EC1F27"/><path d="M29.1 25.87h-2.77c-.66 0-1.2-.28-1.58-.87-.37-.55-.3-1.32-.27-2 .04-.77.5-1.6 1.2-1.86.22-.1.6-.13 1.14-.13h6.32c.82 0 1.23.43 1.23 1.29 0 2.52 0 4.38-.02 5.58 0 .26-.24.49-.5.49h-1.37c-.3 0-.48-.22-.48-.5v-4.4c0-.06-.07-.1-.14-.1h-4.8c-.08 0-.13.05-.13.14v.08a.06.06 0 0 0 .02.04.06.06 0 0 0 .05.02 41.1 41.1 0 0 1 2.65 0c.65.05 1.17.33 1.55.86.45.61.34 1.12.33 1.95-.01.86-.5 1.96-1.51 1.93h-7.23c-.78 0-1.17-.43-1.17-1.27 0-2.97 0-4.82.02-5.53 0-.37.2-.56.6-.57.47-.02.86-.02 1.18 0 .38 0 .57.2.58.59v3.68c0 .26.08.73.41.72h4.69c.02 0 .04 0 .04-.03v-.07c0-.02-.02-.04-.04-.04Z" fill="#F7EFF8"/><path d="M32.17 23h-5.1c-.38 0-.55.23-.52.55v.04c-.05.3.1.42.44.41h2.82c.47.04.86.3 1.16.72.14.2.21.5.21.9 0 .8.08 2.35-1.16 2.36l-6.89.02c-.73 0-1.13-.18-1.13-.96V21.8c0-.27.06-.4.34-.4h.93c.3 0 .45.14.45.42v3.73c0 .51.28.77.84.79.87.02 2.48.02 4.84.01.04 0 .07-.01.1-.04a.13.13 0 0 0 .03-.09v-.62c0-.08-.04-.12-.13-.12h-3.07c-.63 0-.94-.17-1.28-.64-.32-.46-.25-1.07-.23-1.75.02-.9.65-1.67 1.6-1.68h6.93c.17 0 .33.07.46.19.12.12.19.28.19.44v5.65c0 .2-.1.3-.31.3h-1.1c-.21 0-.32-.1-.32-.3v-4.53c0-.06-.03-.16-.1-.16Z" fill="#E70929"/><path d="M17.7 38h-.57c-.07 0-.13.07-.13.15v3.7c0 .08.06.15.13.15h.57c.08 0 .13-.07.13-.15v-3.7c0-.08-.05-.15-.13-.15ZM19.78 39.82l.38.64c.08.13.13.11.13-.05v-2.25c0-.1.04-.16.12-.16h.37c.1 0 .16.07.16.19v3.58c0 .1-.04.17-.13.2-.27.07-.47.02-.59-.17-.06-.09-.37-.63-.92-1.62l-.38-.64c-.09-.13-.13-.11-.13.05v2.25c0 .1-.04.16-.13.16h-.37c-.1 0-.15-.07-.15-.19v-3.58c0-.1.04-.17.13-.2.27-.07.47-.02.59.17l.92 1.62ZM36.78 41.42v.42c0 .05-.01.09-.04.11a.12.12 0 0 1-.09.05h-1.52a.12.12 0 0 1-.1-.05.17.17 0 0 1-.03-.1v-3.7c0-.04.01-.08.04-.1a.12.12 0 0 1 .09-.05h.41c.04 0 .07.02.1.05.02.02.03.06.03.1v2.96c0 .04.02.08.04.11s.06.05.1.05h.84c.04 0 .07.01.1.04.02.03.03.07.03.11ZM37.77 39.62h.03l.04-.05.45-1.28c.07-.19.2-.29.37-.29h.27c.16 0 .2.09.13.26l-.74 1.8c-.23.56-.2 1.04-.19 1.76 0 .07-.03.12-.09.15a.76.76 0 0 1-.27.03.84.84 0 0 1-.27-.03c-.07-.03-.1-.08-.1-.15.02-.72.05-1.2-.17-1.76l-.74-1.8c-.07-.18-.03-.26.13-.26h.27c.18 0 .3.1.37.29l.45 1.28c0 .02.02.04.04.04h.02Z" fill="#09A3F0"/><path fill-rule="evenodd" d="M21.13 38.12c-.01.03-.02.05-.01.08v3.61c0 .05.02.1.05.13.03.04.07.06.12.06h1.14c.41 0 .8-.2 1.1-.54.28-.34.44-.8.44-1.28v-.38c0-.23-.04-.47-.12-.69-.08-.22-.19-.42-.33-.58-.15-.17-.32-.3-.5-.4a1.35 1.35 0 0 0-.6-.13h-1.15l-.06.02a.16.16 0 0 0-.05.04.2.2 0 0 0-.03.06Zm.7.7v.07l.02 2.22.01.07c.01.03.02.05.04.06l.05.04.06.02h.28c.14 0 .26-.04.39-.1.12-.07.22-.15.32-.27.09-.1.16-.24.2-.39.06-.14.08-.3.08-.45v-.22c0-.32-.12-.62-.3-.84a.92.92 0 0 0-.71-.34h-.29l-.06.02a.16.16 0 0 0-.05.04.2.2 0 0 0-.03.07ZM29.11 41.78v-.95c0-.1.04-.15.12-.16.79-.07 1.42-.14 1.53-1.04.22-1.78-1.18-1.67-2.19-1.6l-.08.01a.1.1 0 0 0-.07.04.14.14 0 0 0-.03.08v3.63c0 .14.06.21.18.21h.36c.12 0 .18-.07.18-.22Zm.04-3.02a.14.14 0 0 0-.03.09v.92c0 .04.01.07.03.1a.1.1 0 0 0 .08.03h.24a.7.7 0 0 0 .45-.16c.12-.1.18-.23.18-.37v-.13a.45.45 0 0 0-.05-.2.53.53 0 0 0-.13-.17.65.65 0 0 0-.2-.11.74.74 0 0 0-.25-.04h-.25a.1.1 0 0 0-.07.04Z" fill="#09A3F0"/><path d="M34.3 41.41A2 2 0 0 0 32.9 38a1.99 1.99 0 0 0-2 2 2 2 0 0 0 2 2c.52 0 1.03-.21 1.4-.59ZM34.04 40a1.15 1.15 0 1 1-2.3 0 1.15 1.15 0 0 1 2.3 0Z" fill="#09A3F0"/><path d="M27.55 41.41a2.02 2.02 0 0 0 0-2.82 1.95 1.95 0 0 0-2.79 0 2.02 2.02 0 0 0 0 2.82 1.95 1.95 0 0 0 2.79 0Zm-.58-1.4c0 .46-.36.83-.81.83a.82.82 0 0 1-.81-.83c0-.45.36-.82.8-.82.46 0 .82.37.82.82Z" fill="#CF6470"/></svg>