<!-- by TradingView --><svg width="56" height="56" viewBox="0 0 56 56" xmlns="http://www.w3.org/2000/svg"><path fill="#F0F3FA" d="M0 0h56v56H0z"/><path d="M29.95 14.35c1.53-.47 3.1-.7 4.74-.69.05 0 .07-.02.07-.07l-.02-.09c0-.04-.03-.06-.08-.06-2.13-.03-4.21.23-6.24.78-4.11 1.32-7.42 4.12-9.82 7.63a29.66 29.66 0 0 0-4.74 11.77.11.11 0 0 1-.1.04.11.11 0 0 1-.06-.02l-.1-.08a.25.25 0 0 1-.08-.1.24.24 0 0 1-.02-.14c1.18-7.3 4.8-15.2 11.54-19.17.43-.26.86-.47 1.29-.65a14.15 14.15 0 0 1 4.54-1.3v-.05a.21.21 0 0 0-.03-.04 16.86 16.86 0 0 0-8.69 3.07c-5.33 3.75-8.68 9.92-9.98 16.1 0 .02 0 .03-.02.03l-.02-.01-.28-.23a.2.2 0 0 1-.07-.13v-.06c1.83-8.54 7.26-17.41 16.6-19.58.06-.01.07-.04.05-.08-.01-.04-.04-.06-.07-.05-3.97.55-7.39 2.1-10.26 4.63a25.53 25.53 0 0 0-6.84 9.63c-.26.63-.32.6-.2-.05l.04-.2c.17-.96.3-1.69.7-2.47 1.77-3.6 4.62-7.4 8.09-9.44a15.87 15.87 0 0 1 8.5-2.27 17.4 17.4 0 0 1 9.69 3.3 17.09 17.09 0 0 1 6.1 8.18v.01l-.03.07c-.02.04-.04.04-.06 0a15.25 15.25 0 0 0-2.99-4.88c-2.22-2.46-5.3-2.84-8.48-2.54-10.27 1.57-15.53 12.4-16.59 21.34 0 .09-.05.1-.12.06l-.17-.11a.1.1 0 0 1-.05-.1c.67-6.35 2.98-12.64 7.36-17.42a16.6 16.6 0 0 1 6.9-4.56Z" fill="url(#a)"/><path d="M43.61 34.9c-.15.35-.23.34-.24-.03-.22-4.93-1.5-10.04-4.27-14.13a12.33 12.33 0 0 0-6.4-4.93.03.03 0 0 1 .02-.04h.02c.63.05 1.2.17 1.73.33 5.52 1.77 8.72 6.77 10.3 12.09.22.7.28 1.35.2 1.93-.25 1.62-.7 3.22-1.36 4.79Z" fill="#137DB7"/><path d="M40.2 31.87c-1-5.07-3.57-11.5-8.97-13.47-.07-.03-.1-.07-.08-.11.02-.05.05-.07.1-.06 4.94.76 8.38 4.7 10.05 9.06a26.84 26.84 0 0 1 1.89 8.23c0 .15-.03.3-.1.43-3.15 5.53-7.99 8.54-14.5 9.05l-1.2-.03a17.24 17.24 0 0 1-9.57-3.33.23.23 0 0 1-.1-.23l.35-2.55c.35-2.08.96-4.1 1.82-6.06l1.2-2.22c1.88-3.23 5.72-5.88 9.22-3.24 1.46 1.1 2.59 2.61 3.37 4.52l.98 2.64.7 2.48c-.1-2.43-.63-4.83-1.56-7.2-1.23-3.14-3.27-5.87-6.93-6.4-.27-.03-.27-.07 0-.13 3.63-.68 6.9 1.57 8.67 4.64a18.28 18.28 0 0 1 2.32 6.9l.3 2.02.02.02h.1c.06 0 .09-.02.08-.08l-.47-3.6c-.82-4.73-3.5-11.32-8.97-12.41l-.02-.01v-.01l-.02-.03v-.08c0-.05.03-.07.07-.06 2.95.22 5.35 1.42 7.2 3.6a16.1 16.1 0 0 1 3.16 5.8c.56 1.66.94 3.35 1.13 5.05l.13 1.51.01.03.04.02.05-.02v-.03c-.03-.46-.04-.93-.05-1.4 0-.32-.05-.78-.16-1.39-.1-.62-.2-1.23-.27-1.85Z" fill="url(#b)"/><defs><linearGradient id="a" x1="30.28" y1="12.51" x2="18.25" y2="30.66" gradientUnits="userSpaceOnUse"><stop stop-color="#1486BE"/><stop offset="1" stop-color="#14AAE4"/></linearGradient><linearGradient id="b" x1="24.8" y1="25.87" x2="33.41" y2="43.43" gradientUnits="userSpaceOnUse"><stop stop-color="#11B2E5"/><stop offset=".65" stop-color="#1486BE"/><stop offset="1" stop-color="#127BB5"/></linearGradient></defs></svg>