<!-- by TradingView --><svg width="56" height="56" viewBox="0 0 56 56" xmlns="http://www.w3.org/2000/svg"><path fill="#F0F3FA" d="M0 0h56v56H0z"/><path d="M47 40H9.04a2.3 2.3 0 0 1-.03-.12.2.2 0 0 1 .01-.14l18.8-31.67a.14.14 0 0 1 .13-.07.15.15 0 0 1 .13.07L47 40ZM28.09 10.32a.17.17 0 0 0-.3 0l-16.74 28.2a.16.16 0 0 0 0 .17.17.17 0 0 0 .15.08h33.48c.03 0 .06 0 .09-.02a.16.16 0 0 0 .06-.23L28.1 10.32Z" fill="#F3CA6A"/><path d="m28.09 10.32 17.06 28.43a.16.16 0 0 1 0 .17.17.17 0 0 1-.15.08H10.84a.17.17 0 0 1-.07-.06.16.16 0 0 1 0-.17L27.8 10.32a.17.17 0 0 1 .15-.08.17.17 0 0 1 .15.08Zm-1.77 11c-.3.14-.62.25-.96.34-.37.09-.6.23-.7.41-.11.21-.1.46.03.73.08.15.2.23.38.25.35.03.76-.06 1.2-.26l-.03 4.75c-.78.36-1.23.65-1.35.88-.26.46-.22.81.14 1.05.15.1.3.1.46.04l.72-.34.02 5.7c0 .17-.05.3-.16.43-.13.15-.37.36-.7.66-.37.3-.44.6-.22.86.1.1.23.17.37.2.14.01.29-.02.4-.1a4.56 4.56 0 0 1 2.16-.78c.26-.03.43-.09.54-.19.22-.21.23-.47.04-.8a.5.5 0 0 0-.45-.25h-.43c-.22 0-.33-.11-.33-.32l.05-6.02c3.29-.51 7.59-1.07 5.84-5.72-.85-2.25-2.88-2.82-6.1-1.7.33-.78 0-1.57.18-2.55a.37.37 0 0 1 .08-.33.4.4 0 0 1 .32-.15h.7c.17 0 .25-.08.25-.24a.92.92 0 0 0-.22-.61.6.6 0 0 0-.69-.2l-2.64.78a.43.43 0 0 0-.3.28c-.11.32 0 .56.37.7.08.04.18.04.27.01l.41-.12c.2-.06.3.01.3.21l.05 2.4Z" fill="#2C348C"/><path d="m27.5 21.06-1.5.43v-2.46c0-.2-.12-.27-.32-.2h-.12a.39.39 0 0 1-.27 0c-.36-.15-.48-.39-.37-.71a.43.43 0 0 1 .3-.28l2.64-.79a.6.6 0 0 1 .7.21c.14.18.21.38.21.61 0 .16-.08.24-.25.24h-.65a.4.4 0 0 0-.4.49l.03 2.46Z" fill="#FA201E"/><path d="m27.53 27.08-.09-4.55c1.32-.56 3.9-1.04 4.76.54.51.92.54 1.8.1 2.6a.74.74 0 0 1-.37.33c-1.35.58-2.81.94-4.4 1.08Z" fill="#2C348C"/><path d="M27.53 22.5v6.02l-.08 6.05c0 .22.11.33.34.33h.42c.2 0 .35.08.45.26.2.32.18.58-.04.8-.1.09-.28.15-.54.18-.77.07-1.49.33-2.15.78a.59.59 0 0 1-.78-.1c-.22-.26-.15-.55.22-.86.33-.3.37-.36.5-.5.11-.13.13-.4.13-.56V22.86l1.53-.37Z" fill="#FA201E"/></svg>