<!-- by TradingView --><svg width="56" height="56" viewBox="0 0 56 56" xmlns="http://www.w3.org/2000/svg"><path fill="#F0F3FA" d="M0 0h56v56H0z"/><path d="M28.14 12.08c-.1-.01-.15.1-.15.34a.2.2 0 0 1-.09.17L7.34 27.88a.22.22 0 0 0-.09.17.2.2 0 0 0 .09.16l20.24 15.05c.09.06.18.08.29.03.1-.03.16-.13.2-.3l13.14-10.63 5.2-4.23a.14.14 0 0 0 0-.22L28.97 13.83c-.2-.26-.44-.5-.74-.7-.02-.01-.03-.03-.02-.06l.04-.1s0-.02.02-.03a.08.08 0 0 1 .07-.02l.03.02c.36.31.7.46 1.03.74.47.4.97.78 1.48 1.13a408.9 408.9 0 0 1 9.91 7.28c1.05.76 2.72 2 5.03 3.71l.14.07.15.07 2.42 1.8a.36.36 0 0 1 .14.3.35.35 0 0 1-.14.28c-.9.67-1.56 1.12-2.14 1.62-.13.11-.28.22-.43.32l-.67.44a38023.18 38023.18 0 0 1-17.2 12.77c-.1.07-.13.14-.13.2 0 .09.04.17.12.25-.1.1-.2.1-.3.04a35.8 35.8 0 0 1-1.67-1.1A2032.43 2032.43 0 0 0 5.03 28.2a.23.23 0 0 1 .04-.29c.34-.32.55-.53.91-.75.6-.37 1.2-.75 1.77-1.16a16757.38 16757.38 0 0 1 10.76-7.52c1.89-1.29 4.52-3.13 7.9-5.52l.55-.35c.19-.12.4-.28.65-.48.19-.16.36-.17.53-.05Z" fill="#EFE0BC"/><path d="M28.14 12.08c4.5 3.18 9 6.32 13.54 9.41.07 0 .13.01.18.07.27.3.68.46.94.65.34.24.67.48 1.02.7.2.15.56.47.87.64.5.26.96.66 1.31.93.3.22.63.44.99.66.68.43 1.55 1.04 2.62 1.85a26.48 26.48 0 0 0 1.38.99.09.09 0 0 1-.03.11L28.1 43.92c-.08-.08-.12-.16-.12-.24 0-.07.04-.14.12-.2A37327.94 37327.94 0 0 0 45.3 30.7c.05-.05.28-.2.67-.45.15-.1.3-.2.43-.32.58-.5 1.23-.95 2.14-1.62a.36.36 0 0 0 .14-.29.36.36 0 0 0-.14-.29l-2.42-1.8a.5.5 0 0 0-.15-.07.44.44 0 0 1-.14-.07 510 510 0 0 0-6.3-4.64 409.05 409.05 0 0 0-8.64-6.35c-.51-.35-1-.73-1.48-1.13-.34-.28-.67-.43-1.03-.74a.08.08 0 0 0-.1 0l-.02.03-.04.1c0 .03 0 .05.02.06.3.2.54.44.74.7l-.88-.66a.24.24 0 0 0-.29 0L9.58 27.9a.17.17 0 0 0-.06.13.17.17 0 0 0 .06.13l5.5 4.47 12.73 10.3c.05.03.1.06.17.06h.09c-.04.18-.1.28-.2.31-.1.05-.2.03-.3-.03L7.35 28.2a.21.21 0 0 1-.09-.16.2.2 0 0 1 .09-.17l20.56-15.3a.2.2 0 0 0 .09-.16c0-.24.05-.35.15-.34Z" fill="#AD977C"/><path d="M28.98 13.83 46.4 27.91a.14.14 0 0 1 .05.11.14.14 0 0 1-.05.11l-5.2 4.23a6.04 6.04 0 0 0-2.39-2.26c0-.16.09-.3.26-.42.33-.23.3-.34-.11-.33-.34 0-.56-.2-.67-.61a.1.1 0 0 0-.05-.07.11.11 0 0 0-.1 0c-.08.03-.16.17-.23.4l-1.53-.69a.2.2 0 0 1-.12-.14.46.46 0 0 0-.15-.26c.2-.37.46-.72.56-1.13.24-1 .42-1.9.55-2.72.13-.83-.7-1.2-1.28-.58l-.8.86c-.26.3-.07.64-.36.92-.57.53-1.23-.1-1.03-.78a.27.27 0 0 0 0-.16c-.22-.68-.72-2.23-1.67-1.79-.35.17-.45.54-.47.9-.05 1.1-.1 2.05-.17 2.86a4.9 4.9 0 0 0 .56 2.08.34.34 0 0 1-.1.4l-.15.13c-.16.13-.29.1-.4-.06a3.91 3.91 0 0 1-.75-2.5c.04-.42.08-1.15.1-2.16.02-.55-.04-.56-.17-.02a44.32 44.32 0 0 0-.28 1.16.12.12 0 0 1-.12.03.12.12 0 0 1-.06-.03 1.8 1.8 0 0 1-.27-.51c-.01-.04-.04-.05-.07-.05-.05.01-.08.04-.08.09v2.57c0 .11.02.21.07.31l.72 1.6c.04.1.02.16-.09.2l-.46.15c-.16.06-.28 0-.35-.15-.54-1.14-.95-1.63-.87-2.5l.12-1.68c.02-.27-.02-.28-.13-.03a13.71 13.71 0 0 0-.38 1.06.1.1 0 0 1-.15-.02l-.2-.31c-.12-.2-.19-.18-.18.05l-.04 1.29c-.03.74.35 1.33.6 1.93.07.18.02.23-.17.15-1.6-.7-1.83-2.56-1.28-4.01.58-1.51 1.79-2.37 3.29-2.9l.05-.05a.11.11 0 0 0-.05-.17l-1-.35a.13.13 0 0 0-.12.02c-.9.6-1.62-.54-.72-1.08a.3.3 0 0 1 .22-.03l.37.09c.06.01.12 0 .17-.04l.97-.78a.1.1 0 0 0 0-.17.11.11 0 0 0-.07-.02h-.55a.15.15 0 0 1-.15-.18c.37-2.33-2.56-2.44-4.19-2.17a7.91 7.91 0 0 0-3.6 1.51c-.91.71-1.58 1.34-1.99 1.88a10.54 10.54 0 0 0-2.02 4.9c-.06.27-.07.54-.04.81-.08.33-.09.65-.03.98-.04.29-.02.56.07.82-.04.4.02.74.17 1.02l.06.58c0 .1-.02.15-.06.17-1.01.54-1.77 1.45-2.55 2.25l-5.5-4.47a.17.17 0 0 1-.07-.13.17.17 0 0 1 .06-.13l18.23-14.72a.23.23 0 0 1 .29 0l.88.66Z" fill="#164C96"/><path d="m36.11 27.98-3.75 4.8a.22.22 0 0 1-.26.06c-.44-.21-.98-.03-.98.5a5.69 5.69 0 0 1-.03.41 8.92 8.92 0 0 1-2.72 1.05.13.13 0 0 1-.06-.03c-.28-.33-.54-.66-1-.42-.23.12-.28.32-.4.48-.04.07-.1.1-.17.09a8.85 8.85 0 0 1-2.83-.7.24.24 0 0 1-.15-.25c0-.5-.21-.78-.65-.85a.38.38 0 0 0-.22.03l-.3.13a.17.17 0 0 1-.18-.03 7.58 7.58 0 0 1-1.7-2 .18.18 0 0 1 0-.2l.17-.23a.78.78 0 0 0-.15-1.1c-.03-.02-.2-.07-.53-.16-.26-.07-.38-.28-.37-.64a7.39 7.39 0 0 1-.15-2.43c0-.07.04-.12.1-.15a.95.95 0 0 1 .22-.06c.75-.11 1.04-.98.48-1.5a4.13 4.13 0 0 0-.24-.2c-.06-.05-.08-.11-.05-.18a7.85 7.85 0 0 1 2.62-3.3.14.14 0 0 1 .12.04l.03.06c.04.2.1.33.18.4.08.12.13.22.13.33a.2.2 0 0 1-.08.17 6.6 6.6 0 0 0-2 2.65.57.57 0 0 0 .08.6l.31.4c.1.12.17.11.21-.05.3-1.2.9-2.26 1.77-3.16a.4.4 0 0 1 .31-.12l.6.05c.1 0 .12.05.04.13a7.34 7.34 0 0 0-2.08 3.65.25.25 0 0 0 .16.3c.7.25 2.26.42 2.9-.13.06-.04.1-.1.1-.17a5.2 5.2 0 0 1 2.14-3.55.1.1 0 0 0-.05-.12c-1.04-.4-.83-1.17-.16-1.76.14-.12.12-.17-.06-.16l-1.4.11a.19.19 0 0 1-.17-.08.6.6 0 0 1-.1-.23l-.2-.48c-.03-.06 0-.1.05-.13l.35-.16c.06-.02.1-.07.1-.13.06-.73-.71-.8-1.32-.7-1.08.17-2.12.69-3.13 1.56a9.02 9.02 0 0 0-3.1 5.57c-.36-.06-.71-.06-1.07 0 .28-1.87.95-3.5 2.02-4.9.41-.54 1.08-1.17 1.99-1.88a7.91 7.91 0 0 1 3.6-1.5c1.63-.28 4.56-.17 4.19 2.16a.15.15 0 0 0 .15.18h.55c.02 0 .04 0 .06.02a.11.11 0 0 1 .05.11.1.1 0 0 1-.04.06l-.97.78a.18.18 0 0 1-.17.04l-.37-.1a.3.3 0 0 0-.22.04c-.9.54-.18 1.67.72 1.08a.12.12 0 0 1 .11-.02l1 .35c.03 0 .05.02.06.04a.11.11 0 0 1-.05.18c-1.5.53-2.71 1.39-3.3 2.9-.54 1.45-.3 3.31 1.3 4.01.18.08.23.03.16-.15-.25-.6-.63-1.19-.6-1.93l.04-1.29c0-.23.06-.24.18-.05l.2.3a.1.1 0 0 0 .1.05.1.1 0 0 0 .09-.07c.15-.5.27-.83.34-1 .1-.26.15-.25.13.02l-.12 1.68c-.08.87.33 1.36.87 2.5.07.16.19.2.35.15l.46-.16c.1-.03.13-.1.1-.2l-.73-1.59a.74.74 0 0 1-.07-.3v-2.58c0-.05.03-.08.08-.09.03 0 .06.01.07.05.1.24.19.41.27.51a.12.12 0 0 0 .12.04.12.12 0 0 0 .08-.09l.26-1.1c.13-.55.19-.54.17.01a32.95 32.95 0 0 1-.1 2.17c-.1.97.32 1.8.76 2.49.1.17.23.19.4.06l.14-.12a.35.35 0 0 0 .1-.41 4.9 4.9 0 0 1-.56-2.08c.06-.81.12-1.77.17-2.87.02-.35.12-.72.47-.89.95-.44 1.45 1.11 1.67 1.8.02.04.02.1 0 .15-.2.69.46 1.31 1.03.78.29-.28.1-.62.37-.92l.8-.86c.57-.62 1.4-.25 1.27.58a33.5 33.5 0 0 1-.55 2.72c-.1.4-.35.76-.56 1.13Z" fill="#fff"/><path d="m27.18 19.62-.18-.8c-.03-.13.02-.18.15-.15.6.14 1.09.25 1.1.92 0 .17-.08.25-.25.25h-.55c-.15 0-.24-.07-.27-.22ZM25.78 20.46a.77.77 0 0 1-.27.13c-.54.05-.86-.11-.97-.5-.1-.32-.2-.32-.32 0l-.12.32a.18.18 0 0 1-.16.12l-.48.04c-.23.02-.26.1-.09.25l.33.29c.05.04.08.1.08.17 0 .11-.02.21-.06.3l-.58.03a.93.93 0 0 1-.18-.41.13.13 0 0 0-.09-.1.14.14 0 0 0-.13.02 7.85 7.85 0 0 0-2.55 3.28c-.03.07-.01.13.05.17l.24.21c.56.52.27 1.39-.48 1.5a.95.95 0 0 0-.21.06.17.17 0 0 0-.11.15c-.09.81-.04 1.62.15 2.43l-1.18.48-.17-.77a1.9 1.9 0 0 0-.06-.82l.03-1.01.08-.8a9.02 9.02 0 0 1 3.1-5.58c1.02-.87 2.06-1.4 3.14-1.57.6-.1 1.38-.02 1.32.71 0 .06-.04.1-.1.13l-.35.16c-.06.02-.08.07-.05.13l.2.48Z" fill="#164C96"/><path d="M25.5 20.59c.06.1.04.2-.07.25-.39.2-.5.48-.34.83.14.3.06.38-.24.22l-.33-.17a.25.25 0 0 0-.22 0l-.5.2c-.08.04-.13.02-.14-.07a.46.46 0 0 1 .06-.27.6.6 0 0 0 .06-.3.24.24 0 0 0-.08-.17l-.33-.29c-.17-.15-.14-.23.09-.25l.48-.04c.08 0 .13-.04.16-.12l.12-.33c.11-.31.22-.3.32.02.1.38.43.54.97.49Z" fill="#fff"/><path d="M25.78 20.46c.02.09.06.17.1.23.05.06.1.09.18.08l1.4-.1c.18-.02.2.03.06.15-.67.59-.88 1.35.16 1.76a.1.1 0 0 1 .05.12 5.2 5.2 0 0 0-2.14 3.55.28.28 0 0 1-.1.17c-.64.55-2.2.38-2.9.13a.26.26 0 0 1-.16-.3 7.34 7.34 0 0 1 2.08-3.65c.08-.08.07-.12-.05-.13l-.59-.05a.4.4 0 0 0-.31.12 6.88 6.88 0 0 0-1.77 3.16c-.04.16-.1.17-.2.04l-.32-.4a.57.57 0 0 1-.08-.59 6.6 6.6 0 0 1 2-2.65.2.2 0 0 0 .08-.17c0-.1-.05-.21-.13-.32l.58-.03a.46.46 0 0 0-.06.27c0 .09.06.11.14.08l.5-.22a.25.25 0 0 1 .22.01l.33.17c.3.16.38.09.24-.22-.16-.35-.05-.63.34-.83.1-.06.13-.14.08-.25a.77.77 0 0 0 .27-.13ZM33.05 27.89c-.04.13-.1.13-.15 0-.52-1.14-.42-2.11-.3-3.35 0-.02 0-.03.02-.05a.09.09 0 0 1 .1-.01l.04.04.69 1.88c.03.07.03.15 0 .22l-.4 1.27ZM34.61 28.1v-1.33c0-.08.03-.16.08-.22l1.23-1.6a.09.09 0 0 1 .05-.03h.06l.04.05v.05c-.26 1.22-.46 2.18-1.32 3.13-.09.1-.14.09-.14-.05Z" fill="#ED1B23"/><path d="m39.46 26.39.08-.08c.12-.35.23-.52.33-.52.09 0 .19.17.31.52l.08.08.1.05c.38.01.58.06.61.15.03.08-.1.23-.4.45l-.06.1-.02.12c.1.35.12.55.04.6-.07.06-.25-.02-.56-.23-.02-.02-.06-.02-.11-.02-.06 0-.1 0-.12.02-.31.2-.5.28-.58.22-.07-.05-.05-.25.06-.6 0-.02 0-.06-.02-.1-.01-.06-.03-.1-.05-.11-.3-.23-.43-.38-.4-.47.03-.08.23-.13.6-.13l.1-.05Z" fill="#E2BC68"/><path d="m18.53 26-.08.8h-1.02c-.03-.27-.02-.54.04-.81.36-.06.71-.06 1.06 0ZM23.26 29.31a.87.87 0 0 0-.02-.13c-.15-.32-.36-.43-.63-.35l-1.43.48a.2.2 0 0 1-.15-.02.18.18 0 0 1-.1-.11 6.73 6.73 0 0 1-.17-2.58l.03-.02a.07.07 0 0 1 .08.02c1.21 1.16 2.72 1.5 4.52 1 .1-.02.16.02.2.11l.26.75c.04.1 0 .16-.08.2a4.35 4.35 0 0 0-2.6 3.61c0 .03-.01.05-.03.07a.14.14 0 0 1-.14.05 8 8 0 0 1-1.52-1.98.17.17 0 0 1 .06-.14.18.18 0 0 1 .06-.03l1.37-.47a.44.44 0 0 0 .3-.46ZM18.42 27.81c.08.26.1.53.06.82-.34.05-.67.04-1.01-.03-.09-.26-.11-.53-.07-.82.33-.05.67-.04 1.02.03Z" fill="#ED1B23"/><path d="M37.9 29.07c-.07.19-.3.29-.69.28a.16.16 0 0 0-.1.03c-.03.03-.05.06-.05.08a.22.22 0 0 0 .1.17c.33.2.44.45.33.78-.12.33-.02.4.29.21.11-.07.22-.12.33-.15a.25.25 0 0 1 .2.02l.43.23c.1.05.14.02.13-.09l-.06-.53a6.04 6.04 0 0 1 2.4 2.26L28.07 43h-.1a.32.32 0 0 1-.16-.08L15.1 32.61c.78-.8 1.54-1.7 2.55-2.24.04-.02.06-.08.06-.17.02.08.06.15.12.2.04.34.14.66.32.95.08.3.22.59.43.86.16.36.37.69.62.96.22.35.47.64.76.87 1.88 1.84 3.94 2.7 6.49 3.26.27.06.47.14.6.25.41.35.47.96.1 1.36-.44.5-1.38.49-1.64-.2-.05-.15-.1-.42-.14-.82a.25.25 0 0 0-.1-.18c-.2-.17-.4-.2-.62-.09-.38.2-.33.8-.24 1.14.8 2.88 5.18 1.37 3.72-1.62a.05.05 0 0 1 0-.04.05.05 0 0 1 .04-.03c.8-.1 1.73-.3 2.77-.6a.7.7 0 0 1 .57.08c1.5.87-.26 2.66-1.14 1.53-.26-.32-.47-.95-1.05-.55-.18.13-.24.3-.17.5.2.64.62 1.08 1.28 1.32 1.71.62 3.3-1.2 2.48-2.81-.86-1.7-2.5-.97-3.97-.63-2.92.67-5.26-.24-7.57-1.92l-.84-.84-.78-.96-.45-.85-.4-.94-.24-.85a.33.33 0 0 0 0-.15l1.18-.48c-.01.36.11.57.37.64.32.09.5.14.53.17.34.25.42.76.15 1.1l-.17.22a.18.18 0 0 0 0 .2c.49.8 1.05 1.47 1.7 2 .06.05.12.06.19.03l.3-.13a.38.38 0 0 1 .21-.03c.44.07.65.36.65.85 0 .12.05.2.15.24.86.38 1.8.62 2.83.71.08 0 .13-.02.17-.09.12-.16.17-.36.4-.48.46-.24.72.1 1 .42a.12.12 0 0 0 .13.04 8.91 8.91 0 0 0 2.65-1.05 5.71 5.71 0 0 0 .03-.41c0-.54.54-.72.98-.51.04.02.1.02.14.01.05-.01.1-.04.12-.08l3.76-4.79c.06.06.11.15.14.26a.2.2 0 0 0 .12.14l1.53.69Z" fill="#0E3060"/><path d="m18.48 28.63.17.77v.15l-1 .07c-.16-.28-.22-.62-.18-1.02.34.07.68.08 1 .03Z" fill="#fff"/><path d="m38.81 30.1.05.53c.02.1-.03.14-.12.09l-.44-.23a.25.25 0 0 0-.2-.02c-.1.03-.21.08-.32.15-.31.2-.41.12-.3-.21.12-.33.01-.59-.32-.78a.21.21 0 0 1-.1-.17c0-.02.02-.05.05-.08a.16.16 0 0 1 .1-.03c.39 0 .62-.09.7-.28.07-.23.15-.37.23-.4a.1.1 0 0 1 .15.07c.1.41.33.62.67.61.4-.01.44.1.1.33-.16.12-.25.26-.25.42Z" fill="#E2BC68"/><path d="m18.65 29.55.23.85c-.35.06-.7.06-1.06 0a.52.52 0 0 1-.12-.2l-.06-.58 1-.07ZM25.63 32.22a.4.4 0 0 0-.28-.41l-.75-.26c-.14-.05-.17-.14-.1-.27a3.08 3.08 0 0 1 1.75-1.65.27.27 0 0 1 .2.01c.32.15.57.36.72.63a.32.32 0 0 1-.02.37.34.34 0 0 1-.36.11l-.43-.11c-.33-.08-.56.17-.54.47 0 .07.03.14.07.2.05.06.1.1.18.13l.53.18c.04.01.07.04.08.07.02.04.03.08.01.11a3.1 3.1 0 0 0 .04 1.88.16.16 0 0 1-.04.17.17.17 0 0 1-.16.04l-1.77-.43a.67.67 0 0 1-.54-.57l-.04-.2c-.05-.29.06-.37.33-.25.71.3 1.08.23 1.12-.22ZM31.53 32.1a.16.16 0 0 1-.11.06.16.16 0 0 1-.12-.06 1.73 1.73 0 0 1-.43-1.3.3.3 0 0 1 .16-.25l1.3-.73c.06-.04.12-.03.17.04.23.34.28.62.16.83-.24.41-.61.88-1.13 1.42Z" fill="#ED1B23"/><path d="m18.88 30.4.4.94h-1.14c-.18-.28-.28-.6-.32-.93.36.05.71.05 1.06 0Z" fill="#fff"/><path d="M29.83 30.93c.02.78.26 1.2.62 1.83a.18.18 0 0 1-.02.2 9.72 9.72 0 0 1-1.95.79c-.43.13-.7-.02-.78-.43a3.56 3.56 0 0 1 .3-2.2c.26-.6 1.08-.38 1.7-.32.04 0 .07.02.1.04.02.03.03.06.03.1Z" fill="#ED1B23"/><path d="M36.34 31.14c.1 0 .2.17.32.52 0 .02.03.04.08.08l.1.05c.38 0 .58.06.61.15.03.08-.1.23-.4.45-.03.01-.04.05-.06.1-.02.05-.03.1-.02.11.1.36.12.56.05.61-.07.05-.26-.03-.57-.24l-.11-.01-.12.01c-.31.21-.5.29-.58.23-.07-.05-.05-.25.06-.6 0-.02 0-.06-.02-.11-.02-.06-.03-.09-.05-.1-.3-.23-.43-.38-.4-.47.02-.08.22-.13.6-.13.02 0 .06-.02.1-.06.05-.03.08-.05.09-.08.12-.34.23-.51.32-.51Z" fill="#E2BC68"/><path d="m19.29 31.34.45.85c-.4.07-.8.07-1.17.02a2.5 2.5 0 0 1-.43-.86h1.15ZM20.52 33.15l.84.84-1.41.05a3.58 3.58 0 0 1-.76-.87l1.33-.02Z" fill="#ED1B23"/><path d="m33.47 33.89.08-.08c.13-.35.24-.52.33-.52.09 0 .2.17.32.52 0 .02.03.05.08.08l.1.05c.38 0 .58.06.61.15.03.08-.1.23-.4.45l-.06.1c-.02.06-.03.1-.02.12.1.35.12.55.05.6-.07.06-.26-.02-.57-.23l-.11-.02c-.06 0-.1 0-.12.02-.31.2-.5.28-.58.23-.07-.05-.05-.25.06-.6l-.02-.12c-.02-.05-.04-.09-.06-.1-.3-.22-.43-.38-.4-.47.03-.08.23-.12.6-.13.03 0 .06-.02.11-.05Z" fill="#E2BC68"/></svg>