<!-- by TradingView --><svg xmlns="http://www.w3.org/2000/svg" width="56" height="56" viewBox="0 0 56 56"><path fill="#F0F3FA" d="M0 0h56v56H0z"/><path d="M20.82 24h5.9c-.56-1.18-2.36-4-5.02-4h-7.39c-2.1.1-6.31 1.43-6.31 5.86 0 .42.1 1.44.5 2.14h5.82c-.17-.26-.54-.9-.5-1.6.07-1.23.73-5.29 4.1-5.29 1.3 0 2.9 1.9 2.9 2.89zm14.36 4h-5.9c.56 1.18 2.36 4 5.02 4h7.39c2.1-.1 6.31-1.43 6.31-5.86 0-.42-.1-1.44-.5-2.14h-5.82c.17.26.54.9.5 1.6-.07 1.23-.73 5.29-4.1 5.29-1.3 0-2.9-1.9-2.9-2.89z" fill="#DA251C"/><path d="M28 21a3 3 0 1 0 0-6 3 3 0 0 0 0 6zM9 30h6.04c.42.46 1.6 1.17 2.96 1.17 1.7 0 5.58-1.86 8.53-5.73 2.94-3.86 5.19-5.44 7.75-5.44h8.22c.94.17 3.15.82 4.5 2.05h-6c-.27-.4-1.2-1.19-2.78-1.19-1.97 0-5.35 1.54-8.28 5.18l-.5.62c-2.6 3.26-4.09 5.12-7.79 5.34h-7.73c-1.07-.14-3.56-.58-4.92-2z"/><path fill="#DA251C" d="M8 33h40v1H8z"/><path fill-rule="evenodd" d="M11.6 36h1.31c0-.62-.62-1-1.3-1h-.9c-.64 0-1.44.46-1.44 1.03 0 .45.33.85.8.99l.37.07c.46.1 1.07.21 1.2.55.14.3-.11.62-.47.62h-.2c-.36 0-.65-.26-.65-.58v-.13H9c0 .8.72 1.45 1.6 1.45h.85c.92 0 1.64-.74 1.54-1.57-.08-.71-.9-.86-1.59-.98a9.78 9.78 0 0 1-.36-.07.59.59 0 0 1-.47-.44c-.04-.2.14-.4.37-.4h.16c.35 0 .5.15.5.46zm6.23-1H16V39h1v-1.4h.83c.65 0 1.17-.58 1.17-1.3 0-.72-.52-1.3-1.17-1.3zm-.83.8h.57c.24 0 .43.22.43.5s-.2.5-.43.5H17v-1zm6-.8h1v4h-1v-4zm5.03 0H28v4h1v-2.58L30.77 39H32v-4h-1v2.54L29.26 35h-1.23zm9.78 0H36v4h1.81c.93 0 1.69-.83 1.69-1.86v-.28c0-1.03-.76-1.86-1.69-1.86zm-.58.8H37v2.5h.23c.7 0 1.27-.56 1.27-1.25s-.57-1.25-1.27-1.25zM47 37a2 2 0 1 1-4 0 2 2 0 0 1 4 0zm-1 0c0 .64-.45 1.15-1 1.15s-1-.51-1-1.15c0-.64.45-1.15 1-1.15s1 .51 1 1.15z"/></svg>