<!-- by TradingView --><svg width="56" height="56" viewBox="0 0 56 56" xmlns="http://www.w3.org/2000/svg"><path fill="#F0F3FA" d="M0 0h56v56H0z"/><path d="m40.2 22.7-.07-.29c-.02-.08-.03-.09-.05-.02 0 .03-.02.04-.05.03-.03 0-.05 0-.06.04l-.76 2.9c-.14.54-.32 1.1-.53 1.67l-.6 1.64c-.05.13-.31.44-.79.94-.84.89-1.39 1.75-2.19 2.98-.22.34-.44.8-.67 1.37-.61 1.56-2.24 2.5-3.58 3.45-.35.24-.79.45-1.21.6a.15.15 0 0 0-.1.14c0 .05.02.1.06.18l-5.13 2.3c-.96-.02-1.94.63-2.7 1.18-.34.24-1.08.81-2.24 1.72-1.13.89-2 1.97-2.95 2.93a.14.14 0 0 1-.14.04.14.14 0 0 1-.1-.12l-.2-1.46c0-.07 0-.14.03-.2.2-.46.32-.75.34-.87.23-1.43.53-2.89.9-4.36.02-.07.06-.1.13-.1l.06.02a.2.2 0 0 0 .18-.06l.9-.9c.03-.04.07-.04.1-.02.12.07.25.12.4.14.07.02.13 0 .18-.05.77-.87.84-2.17.35-3.26a.1.1 0 0 0-.19-.02c-.04.06-.04.13.01.2-.9-1.15-1.67-1.97-1.55-3.54.04-.5.18-.51.44-.05.04.07.09.23.15.46.22.9.42 1.9 1.13 2.26a.24.24 0 0 0 .2.01c.15-.06.23-.19.26-.38l.6.57c-.07.34-.1.56-.1.64.05.62.23.67.56.14.28-.46.6-.94.94-1.43.9-1.26 1.72-2.95 3.06-3.77a.15.15 0 0 1 .16 0 .16.16 0 0 1 .08.14c-.01.94-.58 1.65-1.16 2.66-.16.3-.24.58-.23.86a.24.24 0 0 0 .36.2c.44-.24.8-.56 1.1-.98l1.48-1.8c.19-.24.4-.45.64-.61a.33.33 0 0 1 .51.32c-.04.21-.16.43-.39.65a.17.17 0 0 0-.04.18c.04.11.16.15.38.12a.5.5 0 0 0 .18-.07c1.2-.66 2.42-1.71 3.85-2.07.27-.08.32 0 .13.2-.29.33-.88.7-1.78 1.12-1 .48-1.92 1.04-2.76 1.68-1.5.73-2.72 1.44-3.65 2.12-1.51 1.1-2.55 1.81-3.3 3.1-.1.14-.07.28.05.4l.57.57a.05.05 0 0 1 .02.05l-.01.02-.02.02-1.7.98c-.17.1-.22.05-.16-.14.07-.24.12-.51.13-.81 0-.05-.02-.07-.07-.05l-.06.02a.6.6 0 0 0-.38.15c0-.08-.01-.13-.07-.17-.07-.04-.13-.03-.18.03a7.23 7.23 0 0 0-1.83 2.84c-.13.39.05.65.41.82a.2.2 0 0 0 .2 0 2 2 0 0 0 .77-.83.2.2 0 0 1 .27-.07l.07.08c.06.11.17.17.35.16 1.18-.06 2.5-1.06 3.24-1.84a.32.32 0 0 0 .05-.4c.14-.2.11-.34-.1-.44-.23-.22-.5-.37-.77-.44a.14.14 0 0 1-.11-.12.14.14 0 0 1 .08-.14l1.38-.6c.09-.05.14-.02.16.07l.05.27c.01.1.04.2.1.27 1.14 1.37 5.11-1.08 6.12-1.84a.23.23 0 0 0 .1-.2.22.22 0 0 0-.12-.18l-.94-.54a.07.07 0 0 1-.04-.05.07.07 0 0 1 .02-.06 9.48 9.48 0 0 0 1.42-2.1c.01-.02.03-.03.06-.02l.87.34c.04.02.05.04.02.07l-.76.92a.21.21 0 0 0 0 .27c.27.36.5.5 1 .4a4.62 4.62 0 0 0 2.88-2.07c.52-.8.85-1.79 1.36-2.59.38-.58 1.26-2.04-.1-2.03-1.13.01-2.17-.05-3.12-.19a.22.22 0 0 1-.17-.11L31 27.56v-4.33c.04-.77.46-1.28 1.1-1.53.6-.24 1.47-.32 2.6-.25 1.12.08 1.89 1.09 2.05 2.06.01.07 0 .13-.05.2-.26.3-.5.59-.97.55-.53-.04-.84-.28-.96-.71a1.52 1.52 0 0 0-.28-.65c-.38-.36-1.15-.39-1.47.1a1.5 1.5 0 0 0-.24.76c-.04.88-.04 2.08 0 3.6 0 .58.39 1.35 1.11.93.35-.2.65-.88.86-1.18a.23.23 0 0 1 .17-.1c.46-.05.82-.02 1.07.08.08.03.13.08.16.16l.34.75a.2.2 0 0 0 .14.11.2.2 0 0 0 .18-.05c.77-.69 1.1-1.55.98-2.59a1 1 0 0 0-.2-.26c-.03-.03-.03-.05 0-.08l1-.99c.1-.1.1-.2-.02-.3a.56.56 0 0 1-.17-.35.24.24 0 0 1 .05-.2 3.3 3.3 0 0 0 .53-3.44l-.01-1.28v-.1c0-.07-.02-.1-.08-.1a7.69 7.69 0 0 0-2.63.33c-.89.24-1.37.38-1.44.41a.2.2 0 0 0-.13.17l-.1.74c-.02.07-.06.11-.13.12l-1.44.2a.1.1 0 0 0-.08.07v.03c.02.1.09.13.2.1a5.9 5.9 0 0 1-2.75.06c.07-1.48.6-2.94.96-4.38 0-.04.03-.05.07-.05l.05.01c.03 0 .05.02.05.05l-.3 2.14c-.03.15 0 .3.07.42.08.13.2.22.33.27.12.04.26-.03.43-.2.06-.07.23-.18.5-.33.05-.03.08-.02.08.05v.92c.06.02.12.03.16.02.08.07.15.14.23.18.06.03.13.04.2.01a6.33 6.33 0 0 0 3.14-2.47c.04-.06.1-.08.17-.05.65.25 1.3.11 1.92-.41.38-.32.56-.65.54-1-.01-.4-.06-.72-.15-.95.08 0 .09-.1 0-.27a.15.15 0 0 1 .05-.18c.37-.32.65-.7.85-1.13.03-.05.03-.1.02-.15a.19.19 0 0 0-.08-.12c-.02 0-.06 0-.13.03-.03-.18-.07-.28-.13-.3l.55-2.04a.12.12 0 0 0-.1-.16l-.5-.05c.72-.14 1.5-.13 2.15-.23.9-.13 1.8-.35 2.33-.15a.23.23 0 0 1 .13.32.23.23 0 0 1-.1.1 10.84 10.84 0 0 0-2.86 2.6c-.44.57-.56 1.78-.6 2.46-.02.31.01.87.08 1.67.17 1.82.07 3.64-.3 5.46Z" fill="#1D1D1B"/><path d="m39.38 10.46.49.05a.12.12 0 0 1 .1.1v.06l-.55 2.04c-.78.32-1.46.73-2.03 1.24-.2.19-.46.5-.75.92-.32.47-.58.77-.77.91-.79.6-1.59 1.33-2.4 2.2-.44.5-.72 1-.84 1.52v-.92c0-.07-.03-.08-.08-.05-.27.15-.44.26-.5.33-.17.17-.31.24-.43.2a.62.62 0 0 1-.33-.27.65.65 0 0 1-.08-.42l.3-2.14c0-.03 0-.05-.04-.05h-.05c-.04-.01-.06 0-.07.04-.36 1.44-.89 2.9-.96 4.38-.24-.14-.35-.33-.35-.56.01-.96.57-1.67.67-2.63.07-.69.1-1.54.08-2.56-.01-.48-.03-1.72-.85-1.56-.96.2-1.9.6-2.86 1.2-.2.11-.41.37-.43.6-.04.87.28 1.99 1.3 2.2a.16.16 0 0 0 .2-.17c-.06-.67.32-1.12.4-1.7a6.64 6.64 0 0 0 .08-.9c.02-.01.04-.02.06-.01.03 0 .05.03.05.06.1.5.15 1.05.15 1.64 0 .82-.38 1.5-.45 2.27-.02.2.06.25.24.16.13-.08.27-.2.4-.39.06-.07.1-.15.13-.23.18-.57.23-1.07.5-1.2a.15.15 0 0 1 .18.04l.02.07c.18 1.1-.57 2.48-1.18 3.34-.11.15-.25.29-.42.4a.44.44 0 0 1-.53-.03c-.4-.36-.32-.96-.37-1.68a5.49 5.49 0 0 0-1-2.33c-.15-.22-.05-.62-.21-.88-.2-.32-.51-.37-.96-.15-.54.27-.91.62-1.11 1.07-.04.08-.02.12.08.12h.2c.12 0 .18.06.18.18v.63a.27.27 0 0 1-.1.2c-.26.23-.31.52-.15.9a.2.2 0 0 0 .3.07l1.32-.94c.06-.05.11-.04.15.03l.04.07c.05.08.04.15-.04.2-.86.67-1.33 1.61-2.04 2.4a.35.35 0 0 1-.37.1c-.22-.07-.33-.2-.34-.4a5.27 5.27 0 0 1 .65-2.92.1.1 0 0 0-.13-.1c-.2.05-.38.12-.52.22a9.05 9.05 0 0 0-2.16 2.1c-.26.37-.55.71-.87 1.04a4.06 4.06 0 0 0-1.02 2.1c.07.2.13.2.16.49.28 2.22.34 4.53.2 6.94-.03.54.16 1.22.58 1.58a.3.3 0 0 0 .4 0 .3.3 0 0 0 .08-.11l.4-1.02c.16-.42.28-.4.35.06.04.24-.03.56-.2.94-.11.27-.05.32.19.15l1.15-.83a.17.17 0 0 1 .27.15 1.5 1.5 0 0 1-.42.97c-.87.94-1.55 1.53-1.72 2.78l-.59-.57a4.42 4.42 0 0 0-.29-1.66l-1.35-3.19c-.34-.82-.53-1.98-.57-3.49 0-.06-.03-.1-.08-.12a.36.36 0 0 0-.06-.02c-.08-.01-.13.02-.15.1-.36 1.05-.72 2.61-.4 3.77.28 1.04 0 1.79-.38 2.7a5.56 5.56 0 0 0-.15 2.68c.01.1.14.65.4 1.62.18.67.26 1.43.23 2.25-.01.24.12.33.39.28l.1-.04a.63.63 0 0 0 .35-.48c.11-.68.04-1.3-.2-1.85-.36-.79-.64-1.55-.85-2.28a4.4 4.4 0 0 1 .13-1.69l.06-.02h.02l.02.01a.05.05 0 0 1 .01.04c.06 1.13.13 1.81.7 2.78.36.6.43 1.65.55 2.1.08.33.19.52.33.57a.5.5 0 0 0 .55-.14.5.5 0 0 0 .1-.17c.28-.86.25-1.7-.09-2.5-.05-.08-.05-.15 0-.21a.1.1 0 0 1 .09-.05.1.1 0 0 1 .09.07c.5 1.09.42 2.4-.35 3.26a.18.18 0 0 1-.18.05 1.3 1.3 0 0 1-.4-.14c-.03-.02-.07-.02-.1.02l-.9.9a.2.2 0 0 1-.18.06l-.06-.01c-.07-.01-.11.02-.13.09a48.9 48.9 0 0 0-.9 4.36c-.02.12-.13.41-.34.87a.37.37 0 0 0-.03.2l.2 1.46a.14.14 0 0 0 .18.12c.02 0 .04-.02.06-.04.96-.96 1.82-2.04 2.95-2.93 1.16-.9 1.9-1.48 2.23-1.72.77-.55 1.75-1.2 2.71-1.18-1.55.7-2.41 1.3-3.84 2.38a21.12 21.12 0 0 0-3.72 3.59c-.52.61-.81.52-.89-.28-.05-.6 0-1.27.13-2.03.12-.62.22-1.34.3-2.15.04-.3.14-.7.3-1.16.21-.66.31-1.05.3-1.17-.26-1.58-.32-2.2-.67-3.54a8.5 8.5 0 0 1-.35-3c.33-3 .36-4.53.84-6.32.27-1.03.37-1.57.71-2.29.4-.85.77-1.74 1.08-2.68.18-.54.44-1 .76-1.38.6-.72 1.59-1.84 2.94-3.37.45-.5.95-.88 1.45-1.28.28-.22.55-.63.89-.8.75-.38 1.36-.73 1.84-1.03.59-.37 1.2-.7 1.86-1 2.02-.89 3.92-1.52 5.72-1.9 1.52-.33 3.27-.58 5.26-.76Z" fill="#0F121B"/><path d="M38.4 12.14a.54.54 0 0 1-.45.14.17.17 0 0 1-.12-.08.16.16 0 0 1 0-.14c.22-.51.6-.88 1.15-1.1a.43.43 0 0 1 .54.21c.14.3.06.55-.26.78a.36.36 0 0 1-.2.06c-.35 0-.57.05-.66.13ZM37.62 11.33c-.09.85-1.94 1.4-2.58 1.52-.07.02-.13 0-.16-.07-.17-.34-.12-.64.13-.91.63-.69 1.47-.92 2.5-.7.08.02.12.08.11.16ZM32.5 15.08c-.2.2-.47.66-.81.8a.16.16 0 0 1-.22-.1l.01-.1c.36-.94.56-1.76.58-2.44.01-.54.28-.87.8-1l.5-.13c.51-.13.73.07.64.6-.06.4-.24.87-.54 1.42-.2.36-.65.63-.97.95ZM36.22 13.24a10.1 10.1 0 0 0 1.17-.6.1.1 0 0 1 .05 0l.1.04a.1.1 0 0 1 .02.17c-1.81 1.43-3.56 2.9-4.76 4.74a4.97 4.97 0 0 1-1.1 1.18.16.16 0 0 1-.15-.06.15.15 0 0 1-.03-.08c-.03-.31-.01-.59.05-.82a6.74 6.74 0 0 1 3.33-4.19c.42-.23.92-.21 1.32-.38ZM39.42 12.7c.06.03.1.13.13.31-.17.46-.45.86-.84 1.18l-1.5 1.24c-.3.25-.73.93-1.28 2.01a1.9 1.9 0 0 1-.55.7 15 15 0 0 1-1.97 1.2c-.19.1-.4.16-.62.18-.04 0-.1 0-.16-.02.12-.53.4-1.03.85-1.51.8-.88 1.6-1.62 2.39-2.2.19-.15.45-.45.77-.92.3-.42.54-.73.75-.92a6.88 6.88 0 0 1 2.03-1.24Z" fill="#FE0"/><path d="M38.84 14.83c-.81.5-1.48 1.2-2.02 2.13-.11.18-.06.26.15.25.93-.04 1.6-.52 2.02-1.44.02.36-.16.7-.54 1-.63.53-1.27.67-1.92.42-.07-.03-.13-.01-.17.05a6.33 6.33 0 0 1-3.15 2.47.22.22 0 0 1-.19-.01.84.84 0 0 1-.23-.18c.23-.02.43-.08.62-.18.7-.36 1.36-.76 1.97-1.2.21-.15.4-.38.55-.7a7.26 7.26 0 0 1 1.28-2.01l1.5-1.24c.4-.32.67-.72.84-1.18.07-.03.11-.04.13-.03.04.03.07.07.08.12.01.05 0 .1-.02.15-.2.44-.48.81-.85 1.13a.15.15 0 0 0-.04.18c.08.17.07.26 0 .27Z" fill="#0F121B"/><path d="M30.39 20.6c.88.2 1.8.18 2.75-.05 1.03-.05 2.07-.07 3.12-.06.48.01 1.82-.14 1.92-.7.01-.1-.03-.15-.13-.14l-2.78.38-.18-.01a.4.4 0 0 1-.15-.08.34.34 0 0 1-.1-.13.3.3 0 0 1-.01-.16c.02-.14.14-.25.37-.33 1-.35 2.04-.61 3.1-.78.23-.04.46-.03.67.03l.01 1.28c-.11 1 .07 2.03-.42 2.9-.24.46-.55.68-.93.67a.4.4 0 0 1-.35-.25.39.39 0 0 1 .09-.42l.43-.43c.08-.09.09-.18 0-.27l-.09-.1c-.1-.12-.22-.13-.34-.03-.37.3-.3 1.08-.3 1.64 0 .07-.03.13-.08.18l-.1.11a.43.43 0 0 0-.11.16c-.53 1.38-2.48.46-2.96 1.78a.12.12 0 0 0 .03.13.12.12 0 0 0 .13.02c.3-.15.62-.22.96-.23.3 0 .32.08.07.24l-.44.28c-.18.12-.16.18.05.2.72.03 1.08-.01 1.71-.36.47-.25.96-.45 1.46-.6a2.87 2.87 0 0 1-.98 2.6.2.2 0 0 1-.32-.07l-.34-.75a.29.29 0 0 0-.16-.16c-.25-.1-.61-.13-1.07-.08a.24.24 0 0 0-.17.1c-.21.3-.5.98-.86 1.18-.72.42-1.1-.35-1.12-.94-.03-1.51-.03-2.7.01-3.59.01-.27.1-.53.24-.75.32-.5 1.1-.47 1.47-.1.1.09.2.3.28.64.12.43.43.67.96.71.47.04.7-.25.97-.56a.22.22 0 0 0 .05-.2c-.16-.96-.93-1.97-2.06-2.05a6.23 6.23 0 0 0-2.59.25c-.64.25-1.06.76-1.1 1.53v4.33c.02 1.32.73 1.97 1.97 1.96a96.8 96.8 0 0 1 2.55 0 .14.14 0 0 1 .08.13 2.6 2.6 0 0 1-.49 1.25c-.3.4-.61.96-.93 1.69-.32.76-.6 1.26-.8 1.5-.74.86-1.94 1.81-3.05 1.46a.2.2 0 0 1-.14-.17.2.2 0 0 1 .1-.2c.2-.09.42-.24.55-.47a5.5 5.5 0 0 1 2.7-2.34c.1-.05.14-.16.1-.34-.02-.1-.08-.14-.17-.12l-.21.02a.15.15 0 0 1-.15-.06.15.15 0 0 1 0-.16l.43-.76c.06-.09.03-.13-.08-.14-.68-.03-1.15.41-1.68.89a.1.1 0 0 1-.1.03l-.08-.02c-.1-.02-.12-.07-.06-.15.14-.18.34-.37.6-.6.03-.01.02-.04 0-.07-.03-.03-.06-.04-.1-.02-1.45.8-1.97 2.02-2.85 3.6-.72 1.27-1.71 2.17-3.2 2.1a.26.26 0 0 1-.25-.24c0-.04 0-.08.03-.12a.82.82 0 0 1 .27-.34c.06-.04.1-.1.14-.16.05-.13.06-.33.03-.6-.01-.09-.06-.12-.14-.12-.24.02-.42.12-.53.38-.49 1.2-1.54 2-2.8 2.5-.49.18-.87.43-1.31.74a.26.26 0 0 1-.4-.21c.03-1.18 3.75-3.4 5.01-4.1.62-.35 1.19-.8 1.69-1.35.84-.64 1.76-1.2 2.76-1.68.9-.42 1.5-.8 1.78-1.11.19-.22.14-.29-.13-.21-1.43.36-2.65 1.41-3.85 2.07a.5.5 0 0 1-.18.07c-.22.03-.34-.01-.38-.12a.17.17 0 0 1 .04-.18c.23-.22.35-.44.4-.65a.33.33 0 0 0-.15-.33.33.33 0 0 0-.37 0 3.3 3.3 0 0 0-.64.61 164.5 164.5 0 0 0-1.48 1.81c-.3.42-.66.74-1.1.98a.25.25 0 0 1-.36-.2c-.01-.28.07-.57.23-.86.58-1.01 1.15-1.72 1.16-2.66a.16.16 0 0 0-.16-.16c-.03 0-.05 0-.08.02-1.34.82-2.16 2.5-3.06 3.77-.35.5-.66.97-.94 1.43-.33.53-.51.48-.56-.14 0-.08.03-.3.1-.64.16-1.25.84-1.84 1.7-2.78.27-.29.42-.61.43-.97a.17.17 0 0 0-.18-.18.17.17 0 0 0-.1.03l-1.14.83c-.24.17-.3.12-.19-.15.17-.38.24-.7.2-.94-.07-.46-.19-.48-.35-.06l-.4 1.02a.3.3 0 0 1-.48.11 2.06 2.06 0 0 1-.58-1.58c.14-2.4.08-4.72-.2-6.94-.03-.28-.09-.28-.16-.48-.02-.04 0-.1.02-.21.2-.8.53-1.43 1-1.9.32-.33.61-.67.87-1.04a9.04 9.04 0 0 1 2.16-2.1c.14-.1.32-.17.52-.22a.1.1 0 0 1 .11.04.1.1 0 0 1 0 .12 5.27 5.27 0 0 0-.63 2.85c.01.2.12.34.34.4a.36.36 0 0 0 .37-.1c.71-.78 1.18-1.72 2.04-2.39.08-.05.09-.12.04-.2l-.04-.07c-.04-.07-.09-.08-.15-.03l-1.31.94a.2.2 0 0 1-.25 0 .2.2 0 0 1-.06-.08c-.16-.37-.1-.66.16-.89a.26.26 0 0 0 .1-.2v-.63c0-.12-.07-.18-.19-.18h-.2c-.1 0-.12-.04-.08-.12.2-.45.57-.8 1.11-1.07.45-.22.77-.17.96.15.16.26.06.66.2.88.43.65.95 1.52 1.01 2.33.05.72-.04 1.32.37 1.68a.44.44 0 0 0 .53.03c.17-.11.31-.25.42-.4.61-.86 1.36-2.25 1.18-3.34a.15.15 0 0 0-.14-.13l-.07.02c-.26.13-.3.63-.5 1.2a.77.77 0 0 1-.11.23c-.14.18-.28.31-.41.39-.18.1-.26.04-.24-.16.07-.78.46-1.45.45-2.27 0-.59-.05-1.14-.15-1.64a.07.07 0 0 0-.05-.06l-.06.01a6.66 6.66 0 0 1-.08.9c-.08.58-.46 1.03-.4 1.7a.16.16 0 0 1-.13.17c-.02.01-.05.01-.07 0-1.02-.21-1.34-1.33-1.3-2.2.02-.23.23-.49.43-.6.95-.6 1.9-1 2.86-1.2.82-.16.84 1.08.85 1.56.02 1.02 0 1.87-.08 2.56-.1.96-.66 1.67-.67 2.63 0 .23.11.42.35.56ZM38.84 14.83c.1.23.14.54.15.94-.42.92-1.09 1.4-2.02 1.44-.2.01-.26-.07-.15-.25a5.98 5.98 0 0 1 2.02-2.13Z" fill="#FE0"/><path d="M38.97 18.57c-.21-.06-.44-.07-.68-.03-1.05.17-2.08.43-3.09.78-.23.08-.35.2-.37.33-.01.05 0 .1.01.16.02.05.06.1.1.13.04.04.1.06.15.08.06.02.12.02.18.01l2.78-.38c.1-.01.14.03.13.14-.1.56-1.44.71-1.92.7-1.05-.01-2.1 0-3.12.06-.11.02-.18-.01-.2-.1a.09.09 0 0 1 .02-.08.1.1 0 0 1 .06-.03l1.44-.2c.07-.01.11-.05.12-.12l.11-.74a.2.2 0 0 1 .13-.17c.07-.03.55-.17 1.44-.41 1-.28 1.87-.4 2.63-.33.06 0 .09.03.08.1v.1ZM37.8 25.47c-.51.15-1 .35-1.47.6-.64.35-.99.4-1.7.35-.22 0-.24-.07-.06-.19l.44-.28c.25-.16.22-.24-.07-.24-.34 0-.66.08-.96.23a.12.12 0 0 1-.13-.02.12.12 0 0 1-.03-.13c.48-1.32 2.43-.4 2.96-1.78a.43.43 0 0 1 .1-.16l.1-.1a.25.25 0 0 0 .08-.19c0-.56-.06-1.34.31-1.64.12-.1.24-.09.34.03l.1.1c.08.1.07.18-.01.27l-.43.43a.4.4 0 0 0 .26.67c.38 0 .69-.21.93-.66.49-.88.3-1.92.42-2.9.47 1.24.3 2.39-.53 3.43a.24.24 0 0 0-.05.2c.02.16.08.27.17.35.11.1.12.2.01.3l-1 .99c-.02.03-.02.05.01.08.1.1.16.18.2.26Z" fill="#0F121B"/><path d="M29.2 21.35h-.32c-.4.01-.6.34-.59.73v7.04c.01.4.34.71.74.7h.32c.4 0 .66-.33.65-.73v-7c0-.4-.4-.75-.8-.74ZM21.9 21.43h-.06a.84.84 0 0 0-.84.83l-.01 6.8c0 .46.37.84.83.84h.06c.46 0 .84-.37.84-.83v-6.8a.84.84 0 0 0-.83-.84ZM24.57 23.46a.54.54 0 0 0-.47-.53l-.61-.09a.42.42 0 0 1-.33-.26c-.27-.71.11-1.15.85-1.15h2.85c.67.01.78.68.63 1.2a.19.19 0 0 1-.12.13c-.6.2-1.05.4-1.06 1.11v5.35c0 .33-.17.5-.5.5h-.78a.48.48 0 0 1-.33-.14c-.09-.08-.12-.24-.13-.36v-5.76Z" fill="#1D1D1B"/><path d="M40.2 22.7a35.83 35.83 0 0 1-1.99 6.2c-.08.16-.2.31-.35.47-.59.61-.93 1-1.03 1.13-.64.97-1.1 1.64-1.37 2-.2.28-.4.66-.58 1.16a6.13 6.13 0 0 1-2.25 2.81 19.65 19.65 0 0 1-3.03 1.86.4.4 0 0 1-.07-.18.15.15 0 0 1 .1-.15c.43-.14.87-.35 1.22-.6 1.34-.95 2.97-1.88 3.58-3.44.23-.58.45-1.03.67-1.37.8-1.23 1.35-2.1 2.2-2.98.47-.5.73-.81.77-.94l.6-1.64c.22-.57.4-1.13.54-1.66l.76-2.91c0-.04.03-.05.06-.04.03 0 .05 0 .05-.03.02-.07.03-.06.05.02l.07.28Z" fill="#0F121B"/><path d="M18.71 25.35c.04-.66-.41-1.27.15-1.88.2-.22.31-.18.35.1.12.92.13 2.22.04 3.9-.02.37-.15.6-.37.67-.08.02-.14 0-.18-.07-.66-1.03-.04-1.82.01-2.72ZM37.25 24.58c.36-.4.6-.63.69-.7.08-.08.2-.1.36-.05l.07.13a.17.17 0 0 1-.05.2c-.3.23-.91.67-1.85 1.34-.31.22-.65.33-1.02.33-.24 0-.3-.1-.18-.3l.04-.08c.11-.18.27-.3.48-.35a4.15 4.15 0 0 0 1.46-.52Z" fill="#FE0"/><path d="M20.16 34.2c-.03.2-.11.32-.25.38a.25.25 0 0 1-.2 0c-.72-.37-.92-1.36-1.14-2.27-.06-.23-.11-.39-.15-.46-.26-.46-.4-.44-.44.05-.12 1.57.65 2.4 1.55 3.55.34.8.37 1.64.09 2.5a.49.49 0 0 1-.45.34.5.5 0 0 1-.2-.03c-.14-.05-.25-.24-.33-.56-.12-.46-.2-1.5-.55-2.11a5.16 5.16 0 0 1-.71-2.82.05.05 0 0 0-.04 0l-.06.01-.02.03a4.39 4.39 0 0 0-.1 1.66c.2.73.48 1.5.83 2.28.25.56.32 1.17.21 1.85a.62.62 0 0 1-.36.48l-.09.04c-.27.05-.4-.04-.4-.28a7.81 7.81 0 0 0-.22-2.25c-.26-.98-.39-1.52-.4-1.62-.1-.83-.18-1.9.15-2.68.38-.91.66-1.66.38-2.7-.32-1.16.04-2.72.4-3.78.02-.07.07-.1.15-.09.02 0 .04 0 .06.02.05.02.08.06.08.12.04 1.51.23 2.67.57 3.49l1.35 3.19c.18.42.28.97.29 1.66Z" fill="#FE0"/><path d="M23.21 38.87c.58.2 1.07.26 1.48.16a16.2 16.2 0 0 0 4.43-2.1c.07-.03.07-.08.02-.14-.4-.44-1.68-.08-2.2.13a79.96 79.96 0 0 0-3.82 1.68l-.05-.27c-.02-.09-.07-.12-.16-.08l-1.38.6a.14.14 0 0 0-.05.22c.02.03.05.04.08.05.28.07.53.22.77.44-.45-.05-.93-.08-1.33.15-.83.5-1.53 1.1-2.1 1.8a.3.3 0 0 0 .23.49c1.07.02 2.61-1.24 3.3-2 .07.14.06.29-.05.4-.74.78-2.06 1.78-3.24 1.84-.18 0-.3-.05-.35-.16a.19.19 0 0 0-.17-.1.2.2 0 0 0-.17.1 2 2 0 0 1-.78.81.2.2 0 0 1-.19 0c-.36-.16-.55-.42-.4-.81a7.22 7.22 0 0 1 1.82-2.84c.05-.06.11-.07.18-.03.05.04.08.09.07.17a6.18 6.18 0 0 0-1.81 2.96c-.02.07-.01.13.02.19.11.2.26.2.44-.01.41-.45.66-1.28.94-1.76l.79-1.32c.02-.05.03-.12 0-.2l.06-.03c.05-.02.07 0 .07.05-.01.3-.06.57-.13.81-.06.19 0 .23.16.13l1.7-.97a.06.06 0 0 0 .03-.04v-.03l-.02-.02-.57-.57c-.12-.12-.14-.26-.06-.4.76-1.29 1.8-2 3.3-3.1.94-.68 2.15-1.39 3.66-2.12-.5.55-1.07 1-1.7 1.34-1.25.7-4.97 2.93-5 4.1a.25.25 0 0 0 .13.24.26.26 0 0 0 .27-.02c.44-.31.82-.56 1.3-.74a4.72 4.72 0 0 0 2.81-2.5c.1-.26.3-.36.53-.38.08 0 .13.03.14.11.03.28.02.48-.03.6a.37.37 0 0 1-.14.17.82.82 0 0 0-.28.34.25.25 0 0 0 .22.36c1.5.07 2.5-.83 3.2-2.1.89-1.58 1.4-2.8 2.86-3.6.04-.02.07-.01.1.02.02.03.03.06 0 .08-.26.22-.46.41-.6.59-.06.08-.05.13.06.15l.09.02a.1.1 0 0 0 .09-.03c.52-.48 1-.92 1.68-.89.1 0 .14.05.08.14l-.44.76a.15.15 0 0 0 .07.21c.03.02.06.02.09.01l.2-.02c.1-.02.16.02.18.12.04.18 0 .3-.1.34a5.5 5.5 0 0 0-2.7 2.34c-.13.23-.36.38-.54.48a.2.2 0 0 0-.1.19.2.2 0 0 0 .13.17c1.11.35 2.3-.6 3.05-1.46.2-.24.48-.74.8-1.5.32-.73.63-1.3.93-1.7a2.59 2.59 0 0 0 .48-1.3.14.14 0 0 0-.07-.08 96.31 96.31 0 0 0-2.55 0c-1.24.02-1.95-.63-1.97-1.95l.82 1.33c.04.06.1.1.17.11.95.14 1.99.2 3.11.2 1.37-.02.48 1.44.1 2.02-.5.8-.83 1.8-1.35 2.59a4.62 4.62 0 0 1-2.89 2.06c-.49.12-.72-.03-1-.4a.21.21 0 0 1 .01-.26l.76-.92c.03-.03.02-.05-.02-.07l-.87-.34c-.03 0-.05 0-.06.03a9.49 9.49 0 0 1-1.44 2.12.07.07 0 0 0 .04.08l.94.54a.23.23 0 0 1 .1.3.22.22 0 0 1-.08.08c-1 .76-4.98 3.2-6.13 1.84Z" fill="#0F121B"/><path d="M31.42 33.07a3.54 3.54 0 0 1-1.05.85.13.13 0 0 1-.13-.1c-.2-.8.84-1.43 1.48-1.52a.14.14 0 0 1 .14.05.14.14 0 0 1 .01.14c-.1.2-.3.37-.45.58ZM23.21 38.87a.53.53 0 0 1-.09-.27c1.27-.6 2.55-1.16 3.82-1.68.52-.21 1.8-.57 2.2-.13.05.06.05.1-.02.15a16.2 16.2 0 0 1-4.43 2.1c-.4.1-.9.04-1.48-.17ZM19.53 39.23c.03.09.02.16 0 .2l-.79 1.33c-.28.48-.53 1.3-.94 1.76-.18.2-.33.2-.44.01a.26.26 0 0 1-.02-.19 6.18 6.18 0 0 1 1.81-2.96.6.6 0 0 1 .38-.15ZM22.33 39.56c.21.1.24.25.1.45-.69.75-2.23 2.01-3.3 1.99a.3.3 0 0 1-.27-.18.3.3 0 0 1 .04-.3c.57-.72 1.27-1.32 2.1-1.8.4-.24.88-.21 1.33-.16Z" fill="#FE0"/></svg>