<!-- by TradingView --><svg width="56" height="56" viewBox="0 0 56 56" xmlns="http://www.w3.org/2000/svg"><path fill="#F0F3FA" d="M0 0h56v56H0z"/><path d="m28.85 36-.79-1.9c-.03-.1-.1-.1-.18-.1h-3.94c-.06 0-.1-.03-.14-.01a.07.07 0 0 0-.04.04l-.09.18c-.29.92-.82 1.77-1.83 1.79H10.7c-1.6 0-3.53-.77-3.7-2.6V30h4v1.56c-.01.64.85 1.02 1.31 1.03.62.02 2.7.19 2.69-.81V22h4v11c-.01 0 0 .02 0 0h1.04c.1 0 .34-.2.31-.33 0-.02 0-.04.02-.05l.02-.03c1.27-3.44 2.68-7.15 3.97-10.59h3.13l4.14 11c-.01 0 0 .01 0 0-.02 0 .01 0 0 0H33V22h7.25c1.96.09 3.99 2.1 4.3 4 .06.38.08.77.06 1.18a4.1 4.1 0 0 1-1.8 3.07v.02l.4.65c.08.1.13.24.19.33l.42.74 1.6 2.79c0 .01.02.02.03 0 .1-.08.18-.18.26-.28l.25-.3c.6-.7 1.1-1.5 1.45-2.4.38-.92.5-1.82.46-2.8-.16-4.39-4.48-7.13-8.1-8.76l-.63-.27c-8.63-3.4-20-3.33-28.4.96A16.23 16.23 0 0 0 6 24.5v-.01c.18-.43.55-.9.85-1.22l.8-.82c.9-.88 1.85-1.62 2.86-2.23 4.29-2.58 9.22-3.77 14.19-4.12.85-.06 1.63-.1 2.49-.1 6.96.03 16.24 1.14 21.4 6.8 1.8 1.99 2.87 4.37 2.21 7.14a9.4 9.4 0 0 1-3.15 4.8c-.68.59-1.39 1.11-2.13 1.58a21.92 21.92 0 0 1-3.6 1.8A36.02 36.02 0 0 1 35.66 40l-.15-.05h-.01v-.02h.06a109.05 109.05 0 0 1 7-2.92c.04-.03.04-.06 0-.1a.67.67 0 0 1-.1-.14c-.5-.84-1.4-2.23-2.84-4.78L37 32c-.03 0 .02-.02 0 0s0-.03 0 0v2.25c0 .86-.14 1.74-1.2 1.75h-6.95Zm11.92-8.73v-.93c0-.8-.77-1.33-1.63-1.34H37c-.02 0 0-.02 0 0 0-.01.01.01 0 0v4h1.94c.9 0 2.05-.76 1.83-1.73ZM26.89 30.8l.03.03h.02c.03-.03.03-.05 0-.07l.03-.04v-.04c-.06-.06-.05-.14-.07-.2a6137.06 6137.06 0 0 1-.96-3.21c-.02-.1-.04-.1-.07 0l-1 3.25v.08l-.07.08v.04a.1.1 0 0 1 .05.06c0 .02.01.03.03.03h2.01Z" fill="#B44733"/></svg>