<!-- by TradingView --><svg width="56" height="56" viewBox="0 0 56 56" xmlns="http://www.w3.org/2000/svg"><path fill="#F0F3FA" d="M0 0h56v56H0z"/><path d="M36.32 15.03c1.37 1.5 2.35 3.16 2.51 5.2-.4.16-.7.38-.94.67-.05-1.47-.95-3.03-1.9-4.07-.41-.42-1.6-1.43-2.23-1.27a.48.48 0 0 0-.23.14.44.44 0 0 0-.12.24c-.06.5 0 1 .18 1.52.63 1.78 1.28 3.55 1.95 5.31l-.04.1a.24.24 0 0 1-.14.15c-1.57.69-3.23 1.14-4.97 1.36-1.17-3.3-2.27-6.55-3.3-9.75a9.8 9.8 0 0 1-.5-2.45c-.03-.41.09-1.21.33-1.53 1.29-1.74 4.8.49 6.05 1.36 1.24.87 2.36 1.88 3.35 3.02Z" fill="url(#a)"/><path d="M36.51 25.54c1.52 4.17 2.56 7.07 3.13 8.7.1.3.16.66.2 1.11-.1.18-.2.44-.3.8-.35 1.2-1.6 1.67-2.84 1.8l-2.76-.34c.64-.86.44-1.6.1-2.6-.77-2.2-1.63-4.69-2.43-7.07.51-.39 1.3-.58 2.19-.96.77-.33 1.55-.8 2.33-1.4.12-.1.25-.1.38-.04Z" fill="url(#b)"/><path d="m16.2 32.2 1.89-.5 11.97 4.65c1.28.55 2.58.97 3.88 1.26l2.76.33c1.24-.12 2.5-.58 2.83-1.79.1-.36.2-.62.3-.8.34 1.8.16 3.5-.54 5.11a6.08 6.08 0 0 1-2.03 2.51c-1.97 1.3-4.66 1.27-6.82.47-1.78-.6-3.54-1.24-5.28-1.92a1123.1 1123.1 0 0 1-10.2-4c-2.32-.94-2.43-2.39-2.6-4.52a26.8 26.8 0 0 1-.1-2.51 3.1 3.1 0 0 1 1.3-2.42l.37-.11h.01a.01.01 0 0 1 0 .02l-.3.2c-.13.09-.12.11.03.09l.12-.04c.1-.03.15 0 .17.08l1.08 4.49a.06.06 0 0 0 .01.03h.02v.01a.07.07 0 0 0 .07 0l1.06-.64Z" fill="url(#c)"/><path d="M38.83 20.24c-.4.15-.7.37-.94.66-.34.84-1.05 1.5-2.15 1.98-.12.06-.19.02-.2-.1l-.04.1a.24.24 0 0 1-.14.14c-1.57.69-3.23 1.14-4.97 1.36-4.65.8-9.3 1.56-13.96 2.3-.28.04-.65.17-1.11.39-4.13 1.07-4.33 8.06-1.01 10 0 0-1.52-4.2 3.78-5.36 0 0 4.87-1.32 7.2-1.88 4.3-1.04 14.4-3.22 13.54-9.6Z" fill="url(#d)"/><defs><linearGradient id="a" x1="38.22" y1="17.82" x2="28.61" y2="17.72" gradientUnits="userSpaceOnUse"><stop stop-color="#0D4790"/><stop offset=".5" stop-color="#0F82B8"/><stop offset="1" stop-color="#01A7CF"/></linearGradient><linearGradient id="b" x1="34.29" y1="26.77" x2="37.02" y2="37.66" gradientUnits="userSpaceOnUse"><stop stop-color="#1066A1"/><stop offset="1" stop-color="#1A1B6D"/></linearGradient><linearGradient id="c" x1="15.18" y1="34.47" x2="38.69" y2="41.88" gradientUnits="userSpaceOnUse"><stop stop-color="#1E1F71"/><stop offset=".5" stop-color="#1A3E88"/><stop offset="1" stop-color="#069BC5"/></linearGradient><linearGradient id="d" x1="38.16" y1="23.87" x2="12.59" y2="32.11" gradientUnits="userSpaceOnUse"><stop stop-color="#1992C9"/><stop offset=".43" stop-color="#00ABD1"/><stop offset=".8" stop-color="#0B85B8"/><stop offset="1" stop-color="#1F2A7C"/></linearGradient></defs></svg>