<!-- by TradingView --><svg width="56" height="56" viewBox="0 0 56 56" xmlns="http://www.w3.org/2000/svg"><path fill="#F0F3FA" d="M0 0h56v56H0z"/><path d="M30.52 11c6.49.9 12.14 5.34 13.44 11.88-.97-.45-1.76-1.39-2.37-2.81-.04-.08-.09-.1-.16-.04-.04.03-.04.08-.01.15.5 1.19 1.21 2.93 1.27 4.38.05 1.25.3 2.62.12 3.75a6.47 6.47 0 0 1-2.03 3.9c1.43-3.4 1.36-6.6-.2-9.61-.21-.41-.25-.4-.1.04 1.6 4.77-.87 10.35-4.65 13-.4.3-.44.26-.1-.1 6.46-6.6 4.49-17-4.23-20.5.4-.16.64-.31.72-.47.09-.16-.04-.3-.37-.43a14.43 14.43 0 0 0-12.33.92c-.06.03-.1.02-.14-.05l-.06-.1v-.04a15.46 15.46 0 0 1 6.07-2.61c.33-.07.34-.19.05-.35a.29.29 0 0 1-.15-.29l2.49-.62h2.74Z" fill="#144A19"/><path d="M25.29 11.62c0 .13.04.23.15.29.3.16.28.28-.05.35a15.46 15.46 0 0 0-6.06 2.61c-.02.01-.02.03 0 .04l.05.1c.04.07.08.08.14.05a14.43 14.43 0 0 1 12.33-.92c.33.13.45.27.37.43-.09.16-.32.31-.72.46a11.02 11.02 0 0 0-9.2.57c0 .06.03.07.08.04.2-.1.4-.17.6-.2 5.49-.95 9.82.76 13.02 5.12-.04-.02-.04-.02-.02.02l-.04-.02-.09-.03c-3.43-3.34-7.28-4.62-11.55-3.86-3.23.58-5.88 2.32-7.95 5.23-.23.01-.38.1-.45.27a.16.16 0 0 1-.13.09c-.06 0-.1-.02-.11-.07-.04-.13-.11-.13-.21 0-3.76 5.03-2.54 11.87 1.18 16.37h.03l-.05.04a.04.04 0 0 1-.03.01.04.04 0 0 1-.03-.01 14.21 14.21 0 0 1-4.48-10.53c0-.07-.03-.09-.1-.05l-.11.07-.01.02c.05.69-.13 1.31-.51 1.87-1.92-9.23 4.62-17.38 13.95-18.36Z" fill="#0F0358"/><path d="M43.96 22.88c.18.77.4 1.7.63 2.8 1.14 5.3-.1 9.9-3.73 13.84a14.19 14.19 0 0 1-6.06 4c-1.24.4-2.82.76-4.73 1.08a5.02 5.02 0 0 0-2.15-.2.12.12 0 0 1-.07-.1l.02-.06.1-.13a.14.14 0 0 1 .12-.06 15.45 15.45 0 0 0 9.96-3.95c.81-.73.78-.76-.1-.11a13.99 13.99 0 0 1-14.78 1.34 3.77 3.77 0 0 1-.98-.66c-.15-.14-.13-.17.06-.09 1.4.63 2.78.97 4.17 1.04 2.45.38 4.95-.04 7.49-1.25.08-.04.08-.06-.01-.06-.14 0-.3.05-.5.13a2 2 0 0 1-.47.16c-5.42.92-9.74-.82-12.96-5.2v-.02H20v-.01h.02c3.9 4.07 9.85 5.4 14.9 2.85a12.67 12.67 0 0 0 5.87-6.02c1.1-1 1.78-2.3 2.03-3.9.18-1.12-.07-2.49-.12-3.74-.06-1.45-.77-3.19-1.27-4.38-.03-.07-.03-.12.01-.15.07-.05.12-.04.16.04.6 1.42 1.4 2.36 2.37 2.81Z" fill="#740127"/><path d="M26.42 41.62c-1.39-.07-2.78-.41-4.17-1.04-.19-.08-.2-.05-.06.1.2.2.53.42.98.65a13.99 13.99 0 0 0 14.79-1.34c.87-.65.9-.62.09.1a15.45 15.45 0 0 1-9.96 3.96.14.14 0 0 0-.12.07l-.1.12a.11.11 0 0 0 0 .12.12.12 0 0 0 .11.06 5.02 5.02 0 0 1 2.09.18c-7.5 1.84-14.82-2.88-17.44-9.41-.27-.68-.7-2.42-1.3-5.21a2.83 2.83 0 0 0 .53-1.89l.12-.07c.06-.04.1-.02.1.05a14.21 14.21 0 0 0 4.52 10.54l.01-.01c4.67-5 .05-.04.05-.04h-.03c-3.72-4.5-4.94-11.34-1.18-16.36.1-.14.17-.14.21 0 .02.04.05.07.11.06.06 0 .1-.04.13-.1.07-.16.22-.25.45-.26-2.4 3.62-2.7 7.53-.91 11.73.38.91.46.89.22-.06-1.35-5.33.24-9.8 4.77-13.38.02-.01.04 0 .09.04.03.02.03.05 0 .08-4.08 4.02-5.22 9.67-2.57 14.8 1.67 3.23 4.49 5.4 8.47 6.5Z" fill="#FF4901"/></svg>