<!-- by TradingView --><svg xmlns="http://www.w3.org/2000/svg" width="56" height="56" viewBox="0 0 56 56"><path fill="#F0F3FA" d="M0 0h56v56H0z"/><circle cx="27" cy="25" r="13" fill="url(#anh5nhagv)"/><path d="M26.17 42.25c8.86 0 16.04-7.02 16.04-15.68 0-4.85-2.25-9.18-5.78-12.06A15.9 15.9 0 0 1 44 28.01C44 36.84 36.69 44 27.66 44A16.41 16.41 0 0 1 14 36.78a16.15 16.15 0 0 0 12.17 5.47Z" fill="#012363"/><ellipse cx="21.33" cy="20.62" rx="3.64" ry="3.56" fill="#8491B3" fill-opacity=".7"/><ellipse cx="21.33" cy="20.62" rx="5.47" ry="5.35" fill="#8491B3" fill-opacity=".3"/><ellipse cx="21.33" cy="20.62" rx="1.3" ry="1.27" fill="#FAFBFF" fill-opacity=".9"/><ellipse cx="21.33" cy="20.62" rx="2.65" ry="2.6" fill="#FAFBFF" fill-opacity=".5"/><defs><linearGradient id="anh5nhagv" x1="17.95" y1="15.46" x2="36.16" y2="33.26" gradientUnits="userSpaceOnUse"><stop stop-color="#234078"/><stop offset="1" stop-color="#00144A"/></linearGradient></defs></svg>