<!-- by TradingView --><svg width="56" height="56" viewBox="0 0 56 56" xmlns="http://www.w3.org/2000/svg"><path fill="#F0F3FA" d="M0 0h56v56H0z"/><path d="M34.86 18.7c.44-1.23.64-2.5.6-3.8l-.21-2.12c-.01-.09.02-.17.07-.24.05-.06.13-.1.22-.11a15.31 15.31 0 0 0 9.16-4.24c.31-.3.38-.25.2.14a55.11 55.11 0 0 1-2.5 4.91c-2.14 3.68-5.42 6.88-8.87 9.71-1.89 1.56-3.99 2.7-6.3 3.43-.62.2-.66.13-.1-.22 2.87-1.75 6.57-4.02 7.73-7.47Z" fill="#E42B31"/><path d="M35.45 14.9c.05 1.3-.15 2.57-.59 3.8a44.2 44.2 0 0 0-3.07-.84 11.37 11.37 0 0 0-13.53 12.5.35.35 0 0 0 .14.23.36.36 0 0 0 .28.07c1.87-.36 3.6-.83 5.2-1.42 7.16-2.62 13.43-6.23 18.1-11.97.29-.36.36-.32.22.12-.88 2.7-2.5 5.02-4.51 7.43a28.03 28.03 0 0 1-2.61 2.75 59.15 59.15 0 0 1-14.97 9.98 632.89 632.89 0 0 0-4.5 2.09.53.53 0 0 1-.63-.13 16.35 16.35 0 0 1-3.94-9.4c-.76-11.5 10.35-19.94 21.47-16.48.94.3 1.94.88 2.95 1.27Z" fill="#FDDF13"/><path d="M26.3 44.96c.37-1.46.88-2.72 1.52-3.79.31-.52.23-.6-.25-.2l-4.3 3.5a15.41 15.41 0 0 1-5.83-2.73.23.23 0 0 1-.04-.34.25.25 0 0 1 .1-.08 41.3 41.3 0 0 0 8.3-4.1c4-2.6 6.64-4.5 7.94-5.7a54.43 54.43 0 0 0 5.64-6.06c.46-.57.57-.51.34.18-1.93 5.8-6 9.87-10.53 13.91-.29.26-.24.4.15.39 7-.03 11.95-5.37 11.6-12.19-.05-.82.78-1.87 1.67-3.51.23-.43.41-.41.55.05A16.18 16.18 0 0 1 26.3 44.96Z" fill="#2A3B8F"/><path d="m26.3 44.96-3.04-.5 4.31-3.5c.48-.38.56-.31.25.21a14.15 14.15 0 0 0-1.52 3.79Z" fill="#040916"/><path d="M11.27 31.93a16.15 16.15 0 0 1 .48-7.83l7.04 1.2a11.13 11.13 0 0 0-.53 5.05.35.35 0 0 0 .05.15l-7.04 1.43Z" fill="url(#a)"/><defs><linearGradient id="a" x1="14.89" y1="24.1" x2="14.89" y2="31.93" gradientUnits="userSpaceOnUse"><stop offset=".23" stop-color="#FDDF13"/><stop offset="1" stop-color="#F6832A"/></linearGradient></defs></svg>