<!-- by TradingView --><svg width="56" height="56" viewBox="0 0 56 56" xmlns="http://www.w3.org/2000/svg"><path fill="#F0F3FA" d="M0 0h56v56H0z"/><path d="M37 11.63c.56-.12.95-.53.88-.92-.08-.4-.6-.61-1.15-.5-.56.12-.95.53-.88.92.08.4.6.62 1.15.5ZM33.02 12.4c.55-.15.93-.58.84-.97-.1-.4-.62-.6-1.17-.45-.56.14-.93.57-.84.96.09.39.61.6 1.17.45ZM31.32 13.49a.5.5 0 0 1 0 .37.48.48 0 0 1-.26.26l-.96.4c-.38.15-.8.2-1.14.11-.34-.08-.6-.29-.7-.57l-.03-.06a.87.87 0 0 1-.05-.45c.03-.15.1-.31.19-.47.1-.15.22-.3.38-.42s.33-.23.52-.3l.97-.4a.45.45 0 0 1 .35 0c.12.06.2.15.25.27l.48 1.26ZM26.08 18.63c1-.34 1.6-1.27 1.34-2.1-.26-.8-1.28-1.2-2.28-.85-1 .34-1.6 1.28-1.34 2.1.26.81 1.28 1.2 2.28.85ZM19.68 17.97c.63-.28.97-.92.76-1.45-.2-.52-.9-.73-1.52-.45-.64.27-.98.92-.77 1.44.21.53.9.73 1.53.46ZM13.92 23.17c-.38-.15-.65-.3-.8-.48a.45.45 0 0 1-.05-.54 4.1 4.1 0 0 1 4.21-2.11c.22.02.34.14.38.36l.37 2.43a.46.46 0 0 1-.21.46l-1.95 1.18a.39.39 0 0 1-.46-.05L14.3 23.4c-.1-.1-.23-.18-.37-.23ZM25.73 22.27c.15 2.94-2.89 2.6-4.17 1.02-.26-.32-.4-.57-.4-.76-.02-.18.09-.45.32-.8 1.1-1.72 4.1-2.39 4.25.54Z" fill="#403347"/><path d="M40.84 27.04c-.02.08-.07.11-.14.11-6.26-.52-12.35 3.39-17.45 7.1-.48.34-2.38 2.08-5.7 5.2-1 .94-3.23-1.3-3.8-2.04a.71.71 0 0 1-.06-.74 9.13 9.13 0 0 1 1.73-2.48c1.42-1.34 3.34-3.06 5.76-5.15 3.4-2.96 8.34-6.01 12.79-7 2.76-.62 5.3-.59 7.63.1a.36.36 0 0 1 .22.4l-.98 4.5Z" fill="#DC703D"/><path d="M23.1 43.77a64.6 64.6 0 0 1-1.44 1.8 1.16 1.16 0 0 1-1.5.26l-3-1.8c-.6-.35-.68-.81-.25-1.37 3.62-4.82 8.24-9.04 13.64-11.55 3.52-1.64 7.51-3.36 11.17-2.86.45.06.77.5.95 1.33.28 1.26.38 2.43.3 3.52a.59.59 0 0 1-.14.34.55.55 0 0 1-.3.18c-2.64.47-5.4 1.43-8.28 2.85-3.88 1.92-6.46 3.33-7.71 4.22a16.32 16.32 0 0 0-3.43 3.08Z" fill="#DC703D"/></svg>