<!-- by TradingView --><svg width="56" height="56" viewBox="0 0 56 56" xmlns="http://www.w3.org/2000/svg"><path fill="#F0F3FA" d="M0 0h56v56H0z"/><path d="M27.66 12v.57c0 .05-.02.07-.06.07h-3.47c-.03 0-.04.01-.04.04v.67c0 .04-.02.07-.06.07h-6.3c-.04 0-.06.02-.06.06v.65c0 .03-.02.05-.05.05h-3.39c-.03 0-.04.02-.04.04v3.4c0 .03-.01.04-.04.04h-.64c-.06 0-.09.03-.09.08v6.27c0 .04-.02.06-.06.06h-.66c-.03 0-.05.02-.05.06v3.47a.05.05 0 0 1-.03.04h-.02l-.6.01v-4.3l.7.01c.04 0 .06-.02.06-.05v-6.25c0-.04.02-.06.06-.06h.65c.03 0 .05-.02.05-.06v-3.33a.08.08 0 0 1 .09-.08h3.33a.07.07 0 0 0 .07-.07v-.65c0-.04.02-.06.06-.06h6.26c.03 0 .05-.02.05-.06V12h4.28ZM32.55 12l.02.68c0 .05.03.07.08.07h6.27a.08.08 0 0 1 .08.08v.61c0 .05.02.07.07.07h3.32a.06.06 0 0 1 .06.05v3.36c0 .06.02.08.08.08h.63c.03 0 .05.02.05.05v6.27c0 .03.01.04.05.04h.7c.02 0 .04.02.04.05v4.2c0 .04-.02.06-.07.06h-.53c-.04 0-.07-.02-.07-.07v-3.48c0-.03-.01-.04-.04-.04h-.7a.05.05 0 0 1-.05-.05v-6.3c0-.02 0-.04-.02-.05a.06.06 0 0 0-.04-.02h-.65a.05.05 0 0 1-.05-.05v-3.37c0-.04-.02-.05-.05-.05h-3.41c-.02 0-.04-.01-.05-.03a.07.07 0 0 1-.02-.05v-.63c0-.04-.02-.06-.07-.06h-6.26a.02.02 0 0 1-.02-.02v-.7c0-.05-.02-.07-.06-.07h-3.46c-.05 0-.07-.03-.07-.08V12h4.24Z" fill="#B20000"/><path d="M15.45 15.44a.08.08 0 0 0-.03.05c0 .8 0 1.89.02 3.3 0 .04-.03.07-.08.07h-.65l-.03.01V25.18c0 .05-.03.07-.08.07h-.67c-.04 0-.05.02-.05.05v2.28c0 .05-.03.07-.08.07h-.52c-.04 0-.07-.02-.07-.07V24.6a.06.06 0 0 1 .06-.05h.68c.04 0 .06-.02.06-.05v-6.26a.07.07 0 0 1 .07-.07h.6a.07.07 0 0 0 .08-.07c.02-.78.02-1.83-.01-3.18 0-.09 0-.14.02-.16.02-.02.08-.03.16-.03a68.72 68.72 0 0 0 3.23 0 .07.07 0 0 0 .02-.05v-.62a.07.07 0 0 1 .02-.05.07.07 0 0 1 .05-.02h6.27c.03 0 .05-.01.05-.05v-.68a.06.06 0 0 1 .06-.06h2.96c.05 0 .08.03.08.08v.51c0 .05-.02.08-.07.08h-2.28c-.04 0-.05.01-.05.05v.67c0 .05-.03.07-.07.07h-6.3l-.02.01-.01.03v.65c0 .05-.03.08-.08.08a499.67 499.67 0 0 0-3.34 0ZM40.52 15.44l-.06-.02c-.79 0-1.88 0-3.28.02-.06 0-.09-.03-.09-.08v-.65a.04.04 0 0 0-.04-.04h-6.28c-.05 0-.07-.02-.07-.07v-.67c0-.04-.02-.05-.05-.05h-2.28c-.05 0-.07-.03-.07-.08v-.51c0-.05.02-.08.07-.08h2.97a.06.06 0 0 1 .06.06v.68c0 .04.01.06.05.06h6.26a.07.07 0 0 1 .07.07v.6a.07.07 0 0 0 .07.08c.77.02 1.83.02 3.18-.01.09 0 .14 0 .16.02.02.02.03.07.02.16a68.55 68.55 0 0 0 .01 3.23l.05.02h.61a.07.07 0 0 1 .07.04v6.28c0 .04.02.06.05.06h.69a.06.06 0 0 1 .06.05v2.97c0 .05-.03.07-.08.07h-.52c-.04 0-.07-.02-.07-.07V25.3c0-.03-.02-.05-.05-.05h-.67c-.05 0-.07-.02-.07-.07V18.9a.04.04 0 0 0-.04-.04h-.65c-.05 0-.08-.02-.08-.08a429.46 429.46 0 0 0 0-3.34Z" fill="#B20000"/><path d="m16.7 16.69-.02.02.02 3.25a.08.08 0 0 1-.05.08h-.67c-.04 0-.06.02-.06.06v6.26c0 .05-.02.08-.07.08h-.67c-.03 0-.05.02-.05.05v1.1c0 .04-.02.06-.06.06h-.53c-.05 0-.08-.02-.08-.07v-1.76c0-.05.03-.08.08-.08h.67c.03 0 .05-.02.05-.05v-6.26c0-.05.02-.07.07-.07h.63c.04 0 .06-.02.06-.06a113.16 113.16 0 0 0 0-3.28l.04-.03c1.12.03 2.2.03 3.25.02.04 0 .06-.02.06-.05v-.63c0-.05.02-.07.06-.07h6.27c.03 0 .05-.02.05-.05v-.67c0-.05.03-.08.08-.08h1.76c.05 0 .08.03.08.08v.52c0 .05-.03.07-.07.07h-1.1c-.03 0-.05.02-.05.05v.67c0 .05-.03.07-.08.07h-6.26c-.04 0-.06.02-.06.06v.64a.08.08 0 0 1-.05.08h-.03l-3.26-.02-.01.01ZM39.95 16.02l.02.04c-.03 1.12-.03 2.2-.02 3.24 0 .04.02.06.05.06h.63c.05 0 .07.03.07.07v6.26c0 .03.02.05.05.05h.67c.05 0 .08.03.08.08v1.76c0 .05-.03.08-.08.08h-.53c-.04 0-.06-.03-.06-.07v-1.1c0-.03-.02-.05-.05-.05h-.67c-.05 0-.07-.03-.07-.08V20.1c0-.03-.02-.05-.06-.05h-.64a.08.08 0 0 1-.08-.05v-.04l.02-3.25-.01-.01-.02-.02-3.25.02a.08.08 0 0 1-.09-.08v-.64c0-.04-.02-.06-.05-.06h-6.27c-.05 0-.07-.02-.07-.07v-.67c0-.03-.02-.05-.06-.05h-1.1c-.04 0-.06-.02-.06-.06v-.53c0-.05.03-.08.08-.08h1.76c.05 0 .07.03.07.08v.67c0 .03.02.05.05.05h6.27c.05 0 .07.02.07.07v.63c0 .04.02.06.06.06a116.49 116.49 0 0 0 3.29 0Z" fill="#B20000"/><path d="m17.95 17.94-.02.03a137.47 137.47 0 0 0-.01 3.25.08.08 0 0 1-.06.02h-.63c-.04 0-.06.02-.06.05l.01 6.33v.02a.04.04 0 0 1-.04.02H15.8c-.05 0-.08-.02-.08-.07v-.57c0-.04.02-.05.05-.05h.66c.06 0 .09-.03.09-.09l-.02-6.29a.05.05 0 0 1 .02-.03.05.05 0 0 1 .03-.01h.65c.04 0 .07-.03.07-.07a251.93 251.93 0 0 0 0-3.2 275.22 275.22 0 0 0 3.21-.01c.04 0 .07-.03.07-.07v-.67l.01-.01.02-.01h6.31c.05 0 .08-.03.08-.09v-.65c0-.03.02-.05.05-.05h.57c.05 0 .08.02.08.07v1.34a.04.04 0 0 1-.04.04h-6.34c-.03 0-.05.02-.05.06v.63a.08.08 0 0 1-.02.06.08.08 0 0 1-.06.02 148.76 148.76 0 0 0-3.21 0ZM38.01 17.94H38a143.14 143.14 0 0 0-3.25-.02.08.08 0 0 1-.02-.06v-.63c0-.04-.02-.06-.05-.06h-6.34a.04.04 0 0 1-.04-.04V15.8c0-.05.03-.07.08-.07h.57c.03 0 .05.01.05.05v.65c0 .06.03.09.08.09h6.33l.02.04v.65c0 .04.02.06.06.06a252.68 252.68 0 0 0 3.21.02l.01.03v3.18c0 .04.02.06.06.06h.65a.04.04 0 0 1 .03.01.05.05 0 0 1 .02.04l-.02 6.29c0 .05.03.08.09.08h.65c.04 0 .05.02.05.05v.58c0 .05-.02.07-.07.07h-1.34a.04.04 0 0 1-.04-.04l.01-6.33c0-.04-.02-.06-.06-.06h-.63a.07.07 0 0 1-.06-.02.08.08 0 0 1-.02-.06 148.4 148.4 0 0 0 0-3.22Z" fill="#B20000"/><path d="M18.53 18.52c.01-.02.04-.03.08-.03 1.03.03 2.06.04 3.07.03.04 0 .06-.03.06-.07v-.62a.07.07 0 0 1 .07-.08l5.84.02c.01 0 .02 0 .02.02v.59a.04.04 0 0 1-.03.04h-.01l-5.13-.01c-.05 0-.07.02-.07.07v.64c0 .06-.03.08-.09.08a85.86 85.86 0 0 0-3.14 0v.04c-.02 1.1-.01 2.14.01 3.09 0 .05-.02.08-.08.08h-.64c-.05 0-.07.03-.07.07v5.13a.04.04 0 0 1-.02.04h-.6c-.02 0-.03 0-.03-.03V21.8a.07.07 0 0 1 .04-.07h.65c.04 0 .06-.02.06-.06a83.5 83.5 0 0 0 0-3.15ZM37.44 18.52c.02.01.02.04.02.08a81.78 81.78 0 0 0-.02 3.07c0 .04.02.06.06.06h.63a.07.07 0 0 1 .05.02.07.07 0 0 1 .02.05v5.83c0 .02-.02.02-.04.02h-.58a.04.04 0 0 1-.04-.02V22.48c0-.04-.01-.06-.06-.06h-.64c-.06 0-.09-.03-.09-.09a83.66 83.66 0 0 0 .02-3.13l-.05-.02a85.9 85.9 0 0 0-3.1.02c-.05 0-.08-.02-.08-.08v-.64c0-.05-.02-.07-.07-.07h-5.13a.04.04 0 0 1-.03 0 .04.04 0 0 1-.01-.03v-.59c0-.02 0-.03.02-.03h5.83a.07.07 0 0 1 .07.07v.62c0 .05.03.07.07.07a87.84 87.84 0 0 0 3.15 0Z" fill="#B20000"/><path d="M27 20.53a.7.7 0 1 0 0-1.4.7.7 0 0 0 0 1.4ZM28.97 20.53a.7.7 0 1 0 0-1.4.7.7 0 0 0 0 1.4ZM25.5 20.86a.7.7 0 1 0 0-1.39.7.7 0 0 0 0 1.4ZM30.47 20.86a.7.7 0 1 0 0-1.39.7.7 0 0 0 0 1.4ZM24.06 21.46a.7.7 0 1 0 0-1.38.7.7 0 0 0 0 1.38ZM31.9 21.46a.7.7 0 1 0 0-1.38.7.7 0 0 0 0 1.38ZM22.76 22.34a.7.7 0 1 0 0-1.4.7.7 0 0 0 0 1.4Z" fill="#B20000"/><path d="M33.2 22.34a.7.7 0 1 0 0-1.4.7.7 0 0 0 0 1.4ZM26.98 22.58a.7.7 0 1 0 0-1.38.7.7 0 0 0 0 1.38ZM29 22.58a.7.7 0 1 0 0-1.38.7.7 0 0 0 0 1.38ZM25.52 23.01a.7.7 0 1 0 0-1.39.7.7 0 0 0 0 1.39Z" fill="#B20000"/><path d="M30.45 23a.7.7 0 1 0 0-1.38.7.7 0 0 0 0 1.39ZM21.65 23.45a.7.7 0 1 0 0-1.4.7.7 0 0 0 0 1.4ZM34.32 23.45a.7.7 0 1 0 0-1.39.7.7 0 0 0 0 1.39ZM24.2 23.8a.7.7 0 1 0 0-1.4.7.7 0 0 0 0 1.4Z" fill="#B20000"/><path d="M31.77 23.79a.7.7 0 1 0 0-1.39.7.7 0 0 0 0 1.39ZM27 24.52a.7.7 0 1 0 0-1.4.7.7 0 0 0 0 1.4ZM28.97 24.52a.7.7 0 1 0 0-1.39.7.7 0 0 0 0 1.39ZM20.75 24.76a.7.7 0 1 0 0-1.39.7.7 0 0 0 0 1.39ZM35.22 24.76a.7.7 0 1 0 0-1.39.7.7 0 0 0 0 1.39ZM23.12 24.88a.7.7 0 1 0 0-1.38.7.7 0 0 0 0 1.38Z" fill="#B20000"/><path d="M32.85 24.89a.7.7 0 1 0 0-1.4.7.7 0 0 0 0 1.4ZM25.57 25.15a.7.7 0 1 0 0-1.39.7.7 0 0 0 0 1.39ZM30.4 25.15a.7.7 0 1 0 0-1.39.7.7 0 0 0 0 1.39ZM20.16 26.2a.7.7 0 1 0 0-1.4.7.7 0 0 0 0 1.4ZM35.81 26.2a.7.7 0 1 0 0-1.4.7.7 0 0 0 0 1.4ZM22.33 26.21a.7.7 0 1 0 0-1.38.7.7 0 0 0 0 1.38ZM33.64 26.21a.7.7 0 1 0 0-1.39.7.7 0 0 0 0 1.4ZM24.45 26.27a.7.7 0 1 0 0-1.39.7.7 0 0 0 0 1.4ZM31.52 26.27a.7.7 0 1 0 0-1.39.7.7 0 0 0 0 1.4ZM19.84 27.69a.7.7 0 1 0 0-1.39.7.7 0 0 0 0 1.39ZM21.9 27.69a.7.7 0 1 0 0-1.39.7.7 0 0 0 0 1.39ZM23.82 27.69a.7.7 0 1 0 0-1.39.7.7 0 0 0 0 1.39Z" fill="#B20000"/><path fill-rule="evenodd" d="M29.73 29.73a2.46 2.46 0 1 0-3.48-3.48 2.46 2.46 0 0 0 3.48 3.48Zm-.57-.57a1.66 1.66 0 1 0-2.34-2.35 1.66 1.66 0 0 0 2.34 2.35Z" fill="#B20000"/><path d="M32.16 27.69a.7.7 0 1 0 0-1.39.7.7 0 0 0 0 1.39ZM34.08 27.69a.7.7 0 1 0 0-1.39.7.7 0 0 0 0 1.39ZM36.14 27.69a.7.7 0 1 0 0-1.39.7.7 0 0 0 0 1.39ZM27.99 29.14a1.15 1.15 0 1 0 0-2.3 1.15 1.15 0 0 0 0 2.3ZM17.95 38.02l.02.01a133.45 133.45 0 0 0 3.24.02.08.08 0 0 1 .03.05v.64c0 .04.01.06.05.06h6.34a.04.04 0 0 1 .03.03v1.35c0 .05-.02.07-.07.07h-.57c-.04 0-.05-.02-.05-.05v-.66c0-.05-.03-.08-.09-.08H20.6a.05.05 0 0 1-.04-.03v-.67c0-.04-.03-.06-.07-.06a254.61 254.61 0 0 0-3.21-.02l-.01-.03v-3.17c0-.04-.02-.06-.06-.06h-.65a.04.04 0 0 1-.04-.03v-6.31c0-.05-.02-.08-.08-.08h-.65c-.04 0-.05-.02-.05-.05v-.58c0-.05.02-.07.07-.07h1.35l.02.01.02.03-.02 6.33c0 .04.02.05.06.05h.63a.07.07 0 0 1 .06.03.08.08 0 0 1 .02.05 147.75 147.75 0 0 0 0 3.22ZM38.7 38.68a254.82 254.82 0 0 0-3.21.02c-.05 0-.07.02-.07.06v.65c0 .02 0 .03-.02.04h-6.33c-.05 0-.08.04-.08.1v.65c0 .03-.02.05-.05.05h-.57c-.05 0-.08-.02-.08-.07v-1.35a.04.04 0 0 1 .04-.04h6.34c.03 0 .05-.01.05-.05v-.64a.08.08 0 0 1 .08-.07 143.25 143.25 0 0 0 3.22-.01l.01-.03a137.66 137.66 0 0 0 .01-3.25.08.08 0 0 1 .06-.02h.64c.03 0 .05-.02.05-.05l-.01-6.34a.04.04 0 0 1 .03-.03h1.35c.05 0 .07.02.07.07v.57c0 .03-.01.05-.05.05h-.65c-.06 0-.09.03-.09.09l.02 6.29a.05.05 0 0 1-.01.03h-.02l-.02.01h-.65c-.04 0-.06.03-.06.07a272.84 272.84 0 0 0 0 3.2Z" fill="#B20000"/><path d="M12 32.6v-4.28l.57-.01a.08.08 0 0 1 .09.08v3.45c0 .03.01.05.04.05h.67c.04 0 .05.02.05.05v6.23c0 .03.02.06.04.08.02.02.05.03.08.03h.58c.04 0 .07.02.07.07V41.78h3.44c.04 0 .06.02.06.06v.63c0 .06.03.09.09.09h6.25c.03 0 .05.02.05.05v.67c0 .04.02.06.06.06h3.47a.06.06 0 0 1 .06.05v.55c0 .04-.02.05-.06.05h-4.18c-.04 0-.06-.02-.06-.05v-.68c0-.03-.02-.04-.05-.04h-6.26c-.04 0-.07-.03-.07-.07v-.58c0-.09-.04-.13-.12-.13H13.6c-.06 0-.08-.03-.08-.08v-3.3c0-.06-.03-.08-.08-.08h-.64a.04.04 0 0 1-.05-.05v-6.28c0-.04-.02-.06-.06-.06l-.7.02Z" fill="#B20000"/><path d="m15.45 40.53.05.02c.79 0 1.89 0 3.29-.02.05 0 .08.03.08.08v.65a.04.04 0 0 0 .01.03.04.04 0 0 0 .03 0h6.29c.04 0 .07.03.07.08v.67c0 .03.01.05.05.05h2.28c.05 0 .07.02.07.07v.52c0 .05-.02.07-.07.07h-2.97a.06.06 0 0 1-.06-.05V42c0-.03-.02-.05-.05-.05h-6.26a.07.07 0 0 1-.08-.07v-.6a.07.07 0 0 0-.07-.08 70.2 70.2 0 0 0-3.17.01c-.1 0-.15 0-.17-.02-.02-.02-.02-.07-.02-.16a67.02 67.02 0 0 0-.01-3.23.07.07 0 0 0-.05-.02h-.61a.07.07 0 0 1-.08-.07v-6.26c0-.03-.01-.05-.05-.05h-.68c-.02 0-.03 0-.04-.02a.06.06 0 0 1-.02-.04V28.4c0-.05.02-.08.07-.08h.52c.05 0 .08.03.08.07v2.28c0 .04.01.05.05.05h.67c.05 0 .07.03.07.07v6.29a.04.04 0 0 0 .04.04h.65c.05 0 .08.02.08.08a430 430 0 0 0 0 3.34Z" fill="#B20000"/><path d="m16.02 39.95-.03-.04c.03-1.12.03-2.2.03-3.25 0-.03-.02-.05-.06-.05h-.63c-.05 0-.07-.03-.07-.07v-6.26c0-.04-.02-.05-.05-.05h-.67c-.05 0-.08-.03-.08-.08v-1.76c0-.05.03-.08.08-.08h.53c.04 0 .06.02.06.07v1.1c0 .03.02.05.05.05h.67c.05 0 .07.02.07.07v6.27c0 .03.02.05.06.05h.64a.08.08 0 0 1 .08.05v.04l-.02 3.25.01.01.02.01 3.26-.02a.08.08 0 0 1 .08.09v.64c0 .04.02.05.06.05h6.26c.05 0 .08.03.08.08v.66c0 .04.02.06.05.06h1.1c.04 0 .06.02.06.06v.52c0 .06-.02.08-.07.08h-1.76c-.05 0-.08-.02-.08-.07v-.67c0-.03-.02-.05-.05-.05h-6.27c-.04 0-.07-.02-.07-.07V40c0-.04-.01-.06-.05-.06a112.88 112.88 0 0 0-3.3 0Z" fill="#B20000"/><path d="m19.19 36.77.05.01c1.11.02 2.14.01 3.1-.01.05 0 .08.02.08.08v.64c0 .05.02.07.07.07h5.13l.03.01.01.03v.59c0 .02 0 .03-.03.03H21.8a.07.07 0 0 1-.07-.08v-.62c0-.04-.02-.07-.06-.07a85.62 85.62 0 0 0-3.15 0 83.59 83.59 0 0 0 0-3.15c0-.04-.02-.06-.06-.06h-.63a.07.07 0 0 1-.07-.08l.02-5.82c0-.02 0-.03.02-.03h.59a.04.04 0 0 1 .03.01.04.04 0 0 1 .01.03l-.01 5.13c0 .05.02.07.06.07h.65c.05 0 .08.03.08.09a83.03 83.03 0 0 0-.02 3.13Z" fill="#B20000"/><path d="M19.83 29.67a.7.7 0 1 0 0-1.38.7.7 0 0 0 0 1.38ZM21.9 29.68a.7.7 0 1 0 0-1.4.7.7 0 0 0 0 1.4ZM23.82 29.67a.7.7 0 1 0 0-1.38.7.7 0 0 0 0 1.38ZM32.16 29.67a.7.7 0 1 0 0-1.38.7.7 0 0 0 0 1.38ZM34.08 29.67a.7.7 0 1 0 0-1.39.7.7 0 0 0 0 1.4ZM36.14 29.67a.7.7 0 1 0 0-1.38.7.7 0 0 0 0 1.38Z" fill="#B20000"/><path d="M37.44 37.45c-.01.02-.04.02-.08.02a83.6 83.6 0 0 0-3.07-.01c-.04 0-.06.02-.06.06v.63a.07.07 0 0 1-.07.07h-5.83c-.02 0-.03-.01-.03-.03v-.59l.01-.03h5.16c.05 0 .07-.03.07-.07v-.65c0-.05.03-.08.08-.08a86.31 86.31 0 0 0 3.15 0v-.04c.02-1.11 0-2.14-.02-3.1 0-.05.03-.08.08-.08h.65c.04 0 .07-.02.07-.07l-.02-5.12a.04.04 0 0 1 .01-.03l.02-.01h.6c.02 0 .03 0 .03.02l.01 5.83a.07.07 0 0 1-.07.07h-.63c-.04 0-.06.02-.06.06a85.38 85.38 0 0 0 0 3.15Z" fill="#B20000"/><path d="m39.94 39.95-.03.02c-1.13-.02-2.21-.03-3.26-.02-.04 0-.06.02-.06.06v.63c0 .04-.02.07-.07.07h-6.27c-.03 0-.05.01-.05.05v.66c0 .06-.02.08-.07.08h-1.76c-.06 0-.08-.02-.08-.08v-.52c0-.04.02-.06.06-.06h1.1c.04 0 .05-.02.05-.06v-.66c0-.05.03-.08.08-.08h6.27c.04 0 .06-.02.06-.05v-.65a.08.08 0 0 1 .02-.05.08.08 0 0 1 .06-.03l3.26.02h.01v-.01l.02-.01-.02-3.26a.08.08 0 0 1 .02-.06l.03-.02h.67c.04 0 .06-.02.06-.06V29.6c0-.05.02-.07.08-.07h.66c.03 0 .05-.02.05-.06v-1.1c0-.04.02-.06.07-.06h.52c.05 0 .08.03.08.08v1.76c0 .05-.03.08-.08.08h-.66c-.04 0-.06.01-.06.05v6.26c0 .05-.02.07-.07.07H40c-.03 0-.05.02-.05.06a110.04 110.04 0 0 0 0 3.29Z" fill="#B20000"/><path d="M41.19 41.2a69.54 69.54 0 0 0-3.39.03.07.07 0 0 0-.02.05v.61a.07.07 0 0 1-.07.07h-6.26c-.04 0-.06.02-.06.05v.69a.06.06 0 0 1-.05.06h-2.97c-.05 0-.08-.03-.08-.08v-.52c0-.04.03-.07.08-.07h2.28c.03 0 .05-.02.05-.05v-.67c0-.05.02-.07.07-.07h6.28l.03-.01.02-.03v-.65c0-.05.02-.08.08-.08a430.2 430.2 0 0 0 3.34 0 398.45 398.45 0 0 0 0-3.34c0-.06.03-.09.08-.09h.68l.01-.04v-6.28c0-.05.02-.07.07-.07h.67c.03 0 .05-.02.05-.05v-2.28c0-.05.02-.07.07-.07h.52c.05 0 .08.03.08.08v2.96a.06.06 0 0 1-.06.06H42c-.03 0-.05.02-.05.05v6.26a.07.07 0 0 1-.04.06h-.63a.07.07 0 0 0-.08.08c-.02.77-.02 1.83.02 3.17 0 .1-.01.15-.03.16Z" fill="#B20000"/><path d="m42.45 42.45-.1.02c-1.34-.03-2.43-.03-3.29-.02-.04 0-.06.03-.06.07v.62c0 .05-.03.07-.07.07H32.6l-.03.01V43.93c0 .05-.03.07-.08.07h-4.15c-.04 0-.05-.02-.05-.05v-.57c0-.03 0-.04.03-.04h3.5c.04 0 .06-.02.06-.06v-.67c0-.04.03-.06.07-.06h6.23c.04 0 .06-.02.06-.06v-.64a.09.09 0 0 1 .03-.06.08.08 0 0 1 .06-.03 93.4 93.4 0 0 0 3.43.02 91.63 91.63 0 0 0-.01-3.46.08.08 0 0 1 .05-.06h.68c.04 0 .05-.02.05-.06v-6.23c0-.04.03-.06.07-.06h.67c.04 0 .06-.02.06-.06v-3.5c0-.03 0-.04.03-.04h.57c.04 0 .05.02.05.05v4.16c0 .04-.02.06-.06.06h-.68c-.01 0-.02 0-.03.02l-.01.02v6.31c0 .05-.03.07-.07.07h-.62c-.05 0-.07.02-.07.07a104.94 104.94 0 0 0 0 3.38ZM24.45 31.09a.7.7 0 1 0 0-1.39.7.7 0 0 0 0 1.39ZM31.52 31.09a.7.7 0 1 0 0-1.39.7.7 0 0 0 0 1.39ZM20.16 31.17a.7.7 0 1 0 0-1.39.7.7 0 0 0 0 1.39ZM22.33 31.15a.7.7 0 1 0 0-1.39.7.7 0 0 0 0 1.39ZM33.65 31.15a.7.7 0 1 0 0-1.39.7.7 0 0 0 0 1.39ZM35.81 31.17a.7.7 0 1 0 0-1.4.7.7 0 0 0 0 1.4ZM25.57 32.21a.7.7 0 1 0 0-1.39.7.7 0 0 0 0 1.39ZM30.4 32.2a.7.7 0 1 0 0-1.38.7.7 0 0 0 0 1.39ZM23.12 32.47a.7.7 0 1 0 0-1.38.7.7 0 0 0 0 1.38ZM32.85 32.48a.7.7 0 1 0 0-1.4.7.7 0 0 0 0 1.4ZM20.75 32.6a.7.7 0 1 0 0-1.39.7.7 0 0 0 0 1.39ZM35.22 32.6a.7.7 0 1 0 0-1.39.7.7 0 0 0 0 1.39Z" fill="#B20000"/><path d="M27 32.84a.7.7 0 1 0 0-1.39.7.7 0 0 0 0 1.4ZM28.97 32.84a.7.7 0 1 0 0-1.39.7.7 0 0 0 0 1.4ZM24.2 33.57a.7.7 0 1 0 0-1.4.7.7 0 0 0 0 1.4ZM31.77 33.57a.7.7 0 1 0 0-1.4.7.7 0 0 0 0 1.4ZM21.65 33.91a.7.7 0 1 0 0-1.39.7.7 0 0 0 0 1.4ZM34.32 33.91a.7.7 0 1 0 0-1.38.7.7 0 0 0 0 1.38ZM25.52 34.35a.7.7 0 1 0 0-1.39.7.7 0 0 0 0 1.39ZM30.45 34.35a.7.7 0 1 0 0-1.39.7.7 0 0 0 0 1.39Z" fill="#B20000"/><path d="M26.98 34.78a.7.7 0 1 0 0-1.4.7.7 0 0 0 0 1.4ZM29 34.78a.7.7 0 1 0 0-1.4.7.7 0 0 0 0 1.4ZM22.76 35.02a.7.7 0 1 0 0-1.39.7.7 0 0 0 0 1.4ZM33.2 35.02a.7.7 0 1 0 .01-1.39.7.7 0 0 0 0 1.4Z" fill="#B20000"/><path d="M24.06 35.9a.7.7 0 1 0 0-1.4.7.7 0 0 0 0 1.4ZM31.9 35.9a.7.7 0 1 0 0-1.4.7.7 0 0 0 0 1.4ZM25.5 36.5a.7.7 0 1 0 0-1.39.7.7 0 0 0 0 1.4ZM30.47 36.5a.7.7 0 1 0 0-1.39.7.7 0 0 0 0 1.39Z" fill="#B20000"/><path d="M27 36.84a.7.7 0 1 0 0-1.4.7.7 0 0 0 0 1.4ZM28.97 36.83a.7.7 0 1 0 0-1.38.7.7 0 0 0 0 1.38Z" fill="#B20000"/></svg>