<!-- by TradingView --><svg width="56" height="56" viewBox="0 0 56 56" xmlns="http://www.w3.org/2000/svg"><path fill="#F0F3FA" d="M0 0h56v56H0z"/><path d="M26.6 14.41a4.84 4.84 0 0 0-2.03 7.99c.24.26.57.6.99 1 .77.75.7 2.06-.24 2.67-.8.52-1.48.2-2.13-.43a10.48 10.48 0 0 1-2.37-3.1 8.21 8.21 0 0 1-.51-5.82 8.78 8.78 0 0 1 2.7-3.98A7.46 7.46 0 0 1 28.3 11c2.54.1 4.43 1.38 6 3.34a7.15 7.15 0 0 1 1.64 4.24 7.7 7.7 0 0 1-2.1 5.53c-.43.48-1.24 1.34-2.42 2.6-.75.79-1.66 1.7-2.73 2.73-.54.51-1.11.8-1.84.46-.93-.46-1.3-1.71-.52-2.51 1.1-1.13 2.78-2.83 5.03-5.1a4.51 4.51 0 0 0 1.32-3.11 4.84 4.84 0 0 0-6.08-4.78Z" fill="#06A38F"/><path d="M39.6 23.81a6.75 6.75 0 0 1 4.8 1.4c2.2 1.66 3.65 4.05 3.6 6.88a7.98 7.98 0 0 1-3.25 6.32c-.68.55-1.41.94-2.19 1.17a9.66 9.66 0 0 1-3.68.37 5.93 5.93 0 0 1-2.1-.7c-1.2-.63-2.07-1.5-3.07-2.52-.27-.28-.45-.5-.53-.69-.6-1.34.87-2.66 2.17-2.13.23.1.58.37 1.03.83l.94.93a4.3 4.3 0 0 0 4.67.68 4.76 4.76 0 0 0 2.76-3.53c.79-4.33-4.44-7.6-7.74-4.48l-5.21 4.92c-.6.55-1.36.55-1.97.04-.53-.44-.8-1.15-.5-1.8.1-.2.35-.5.75-.9a131.4 131.4 0 0 1 4.8-4.5c.5-.44.9-.78 1.23-1a7.18 7.18 0 0 1 3.5-1.29Z" fill="#332C2B"/><path d="M14.6 27.36a4.83 4.83 0 0 0-3.32 3.65 4.7 4.7 0 0 0 3.76 5.68 4.5 4.5 0 0 0 4.22-1.35l.62-.66c.26-.3.49-.5.66-.6.46-.25.91-.27 1.35-.06.73.34 1.2 1.2.93 2-.05.16-.17.36-.38.62a8.44 8.44 0 0 1-5.33 3.3c-.26.05-.62.06-1.1.06-.5 0-.97.02-1.46-.06-2.53-.4-4.46-2.09-5.74-4.29-.52-.9-.8-2.01-.8-3.1a8.3 8.3 0 0 1 1.55-5.26c1.3-1.72 3.14-3.1 5.27-3.38a6.71 6.71 0 0 1 4.6 1c.81.5 1.6 1.13 2.38 1.86 2.18 2.06 3.16 2.97 4.2 3.99.37.36.6.64.68.84.36.9-.4 1.96-1.33 2.1-.44.07-.86-.08-1.26-.45-1.67-1.56-3.2-3-4.57-4.33a8.85 8.85 0 0 0-1.3-1.1 4.5 4.5 0 0 0-3.63-.46Z" fill="#E7BB1E"/></svg>