<!-- by TradingView --><svg width="56" height="56" viewBox="0 0 56 56" xmlns="http://www.w3.org/2000/svg"><path fill="#F0F3FA" d="M0 0h56v56H0z"/><path d="M31.65 16.05c-2.75 4.13-5.14 9-5.54 13.94a5.92 5.92 0 0 0 .06 1.43l-.03.02h-.03a39.42 39.42 0 0 1-1.6-6.11.34.34 0 0 1 .06-.26A99.97 99.97 0 0 1 31.62 16h.02l.01.03v.02Z" fill="#004827"/><path d="M9.03 33.38a58.4 58.4 0 0 0 6.62 1.49c3.87.56 7.79.75 11.76.57.76-.03 1.98-.21 3.64-.54 2.83-.56 6.5-1.9 8.52-4.13 1.87-2.05 1.96-4.2.28-6.42-1.98-2.61-6.43-4.08-9.58-4.46h-.01l-.01-.01a.03.03 0 0 1 0-.03l.05-.1v-.01c2.78.06 5.32.38 7.65.97 3 .76 6.65 2.4 7.74 5.51 1.83 5.2-4.95 8.3-8.72 9.32a42.23 42.23 0 0 1-20.48.38A37.33 37.33 0 0 1 9 33.45l.03-.06Z" fill="#004827"/><path d="m23.94 22.39-1.83.2c-2.56.27-5.82 1.18-7.28 3.33-.79 1.16-.13 2.72.8 3.53 1.64 1.45 3.86 2.06 6.17 2.53 4.02.81 8.08.84 12.19.1a28.8 28.8 0 0 1-9.18 1.34 33.95 33.95 0 0 1-8.48-1.27c-2.1-.6-4.87-1.7-5.92-3.63-.72-1.33.1-2.77 1.2-3.6 1.86-1.42 4.51-2.05 6.8-2.36a28.74 28.74 0 0 1 5.55-.2v.02h-.02Z" fill="#E7AB00"/></svg>