<!-- by TradingView --><svg width="56" height="56" viewBox="0 0 56 56" xmlns="http://www.w3.org/2000/svg"><path fill="#F0F3FA" d="M0 0h56v56H0z"/><path d="M33 17.71c0 .3-.02.52-.3.65-.1.04-.2.05-.3.02-.2-.05-.32-.2-.37-.46l-.44-2.52c-.09-.52-.17-.89-.24-1.1a3.54 3.54 0 0 0-3.53-2.3 3.5 3.5 0 0 0-3.31 2.86l-.57 3.16c-.1.55-.94.48-.94-.11V12h-3v4.81c0 .62.01.99.02 1.12A3.44 3.44 0 0 0 23.45 21a3.47 3.47 0 0 0 3.4-2.48c.04-.11.11-.48.22-1.1l.36-2.04c.03-.18.07-.3.12-.38.16-.24.5-.3.74-.15.18.11.23.25.27.47.16.88.3 1.66.4 2.32.1.53.18.9.25 1.1a3.5 3.5 0 0 0 5.87 1.11c.61-.7.92-1.52.92-2.47V12h-3v5.71Zm0 20.58c0-.3-.02-.52-.3-.65a.44.44 0 0 0-.3-.02c-.2.05-.32.2-.36.46l-.45 2.52c-.09.52-.17.89-.24 1.1a3.54 3.54 0 0 1-3.53 2.3 3.5 3.5 0 0 1-3.31-2.86l-.56-3.16c-.1-.55-.95-.48-.95.11V44h-3v-4.81c0-.62.01-.99.03-1.12A3.44 3.44 0 0 1 23.45 35a3.47 3.47 0 0 1 3.4 2.48c.04.11.12.48.22 1.1l.36 2.04c.03.18.07.3.12.38.16.24.5.3.74.15.18-.11.23-.25.27-.47.16-.88.3-1.66.4-2.32.1-.53.18-.9.26-1.1a3.5 3.5 0 0 1 5.86-1.11c.61.7.92 1.52.92 2.47V44h-3v-5.71ZM17.36 23.3c-.13-.28-.34-.3-.65-.3H11v-3h5.38a3.5 3.5 0 0 1 1.36 6.79c-.2.07-.57.15-1.1.24l-2.32.41c-.22.04-.36.1-.47.27-.15.24-.09.58.15.74.08.05.2.1.38.12l2.04.36c.62.1.99.18 1.1.21 1.5.46 2.5 1.83 2.48 3.41a3.44 3.44 0 0 1-3.07 3.43c-.13.01-.5.02-1.12.02h-4.8L11 33h5.9c.6 0 .67-.85.12-.94l-3.16-.57a3.5 3.5 0 0 1-2.85-3.31c-.08-1.55.84-3 2.3-3.53.2-.07.57-.15 1.1-.24l2.51-.44c.25-.05.4-.17.46-.36.03-.1.02-.2-.02-.3Zm21.93-.3c-.3 0-.52.02-.65.3-.04.1-.05.2-.02.3.05.2.2.32.46.37l2.52.44c.52.09.89.17 1.1.24a3.54 3.54 0 0 1 2.3 3.53 3.5 3.5 0 0 1-2.86 3.31l-3.16.57c-.55.1-.48.94.11.94H45v3h-4.81c-.62 0-.99-.01-1.12-.02A3.44 3.44 0 0 1 36 32.55a3.47 3.47 0 0 1 2.48-3.4c.11-.04.48-.11 1.1-.22l2.04-.36c.18-.03.3-.07.38-.12.24-.16.3-.5.15-.74-.11-.18-.25-.23-.47-.27-.88-.16-1.66-.3-2.32-.4-.53-.1-.9-.18-1.1-.25a3.5 3.5 0 0 1-1.11-5.87 3.6 3.6 0 0 1 2.47-.92H45v3h-5.71Z" fill="#ED1A2D"/></svg>