<!-- by TradingView --><svg xmlns="http://www.w3.org/2000/svg" width="56" height="56" viewBox="0 0 56 56"><path fill="#F0F3FA" d="M0 0h56v56H0z"/><path d="M47 21.7v16.29H28V38H9V21.7l5 2.83v-5.54l5 2.86v-5.87l5.5 2.88V13l3.5 1.97v-.01L31.5 13v5.84l5.5-2.87v5.86l5-2.85v5.54l5-2.83zm-36 4.43v6.28L14 31v-3.35l-3-1.52zm34 6.27v-6.28l-3 1.52V31l3 1.4zm-29-8.97v6.63l3-.9v-4.22l-3-1.51zm24 6.62v-6.63l-3 1.5v4.23l3 .9zm-19-9.51v8.13l3-.45v-6.17l-3-1.51zm14 8.12v-8.13l-3 1.5v6.18l3 .45zm-8.5-9.82V28h3v-9.16L28.01 18l-1.51.84z" fill="#262360"/><path fill-rule="evenodd" d="M28.62 31h-2.79v.12c.14.01.17.14.17.2v3.36c0 .14-.1.2-.17.22v.1h2.8c.65-.03 1.23-.38 1.25-1.1.02-.57-.4-.9-.62-.98.4-.16.5-.62.5-.84.01-.87-.75-1.08-1.14-1.08zm-1.78.69h1.63a.46.46 0 0 1 0 .92h-1.63v-.92zm1.64 1.58h-1.64v1.08h1.64a.54.54 0 1 0 0-1.08zM21.18 31H20v.1c.15 0 .2.18.2.26v3.36c-.02.12-.14.17-.2.18v.1h1.18v-.1c-.12 0-.17-.15-.18-.23v-1.05l.58-.46c.34.44 1.07 1.35 1.18 1.51.11.16-.01.22-.1.23v.1h1.46v-.1c-.15-.03-.32-.2-.39-.27l-1.55-2c.5-.42 1.48-1.27 1.55-1.35a.95.95 0 0 1 .3-.17V31H22.5v.1c.27.05.17.2.08.26L21 32.76v-1.4c0-.19.12-.25.18-.25V31zm10.12 3.88V35h1.3v-.12c-.22 0-.2-.17-.17-.26l.29-.62h1.79l.3.56c.07.26-.07.32-.16.32V35h1.44v-.12c-.14 0-.27-.17-.32-.26-.47-.95-1.44-2.91-1.53-3.15-.1-.23.04-.32.11-.34V31h-1.4v.13c.23.02.19.24.14.34l-1.5 3.15c-.09.2-.23.26-.29.26zm2.33-2.85l-.65 1.41h1.28l-.63-1.4z" fill="#C79973"/></svg>