<!-- by TradingView --><svg width="56" height="56" viewBox="0 0 56 56" xmlns="http://www.w3.org/2000/svg"><path fill="#F0F3FA" d="M0 0h56v56H0z"/><path d="M6 20h5v4.8l4.74-4.8h6.72l-5.87 6.09L23.04 36h-6.18l-4.05-6.4L11 30.88V36H6V20Zm1 1v14h3v-4.64l3.09-2.18L17.4 35h3.79l-5.88-9.04L20.1 21h-3.94L10 27.24V21H7ZM24 20h6.78l2.81 8.73L36.41 20H43v16h-5v-8.85L35.53 36h-3.8L29 26.9V36h-5V20Zm1 1v14h3V23.5l.98-.14L32.48 35h2.3l3.24-11.63.98.13V35h3V21h-4.87L33.6 32l-3.54-11H25Z" fill="#C40000"/><path fill-rule="evenodd" d="M49 21h-3v14h3V21Zm-4-1v16h5V20h-5Z" fill="#C40000"/></svg>