<!-- by TradingView --><svg width="56" height="56" viewBox="0 0 56 56" xmlns="http://www.w3.org/2000/svg"><path fill="#F0F3FA" d="M0 0h56v56H0z"/><path d="M45 41.81c0 .05-.02.1-.06.14a.2.2 0 0 1-.13.05H11.2a.2.2 0 0 1-.13-.05.18.18 0 0 1-.06-.14V14.2c0-.05.02-.1.06-.14a.2.2 0 0 1 .13-.05h33.62c.05 0 .1.02.13.05.04.04.06.09.06.14V41.8ZM28.32 16.75a7.6 7.6 0 0 1 1.66-.87c2.9-1.13 6.18-1.21 8.98.26A10.4 10.4 0 0 1 44.02 22l.1.47c.05.2.11.36.2.47.04.06.06.05.06-.02V14.9a.3.3 0 0 0-.08-.2.3.3 0 0 0-.22-.1H23.71c-.07 0-.1.04-.1.1v4.1c0 .14-.07.21-.2.21h-2.09a.13.13 0 0 1-.09-.04.13.13 0 0 1-.04-.09v-4.14c0-.1-.05-.14-.14-.14h-.3a.17.17 0 0 0-.13.05.16.16 0 0 0-.05.12v4.06c0 .05-.02.1-.05.13a.18.18 0 0 1-.14.05h-2.22c-.03 0-.06 0-.08-.02a.1.1 0 0 1-.03-.08l-.03-3.95c0-.25-.1-.37-.3-.37h-.02a.22.22 0 0 0-.11 0 .23.23 0 0 0-.1.04.28.28 0 0 0-.1.21l-.02 4.07a.1.1 0 0 1-.1.1h-2.32a.17.17 0 0 1-.17-.17v-4.06a.19.19 0 0 0-.12-.18.2.2 0 0 0-.07-.01h-.16c-.14 0-.43.07-.43.2v4.13c0 .03 0 .05-.02.07a.09.09 0 0 1-.06.02H11.7c-.12 0-.18.06-.18.18v1.63c0 .15.07.19.22.19h2.19c.02 0 .04.02.05.04l.02.02v4.92c-.02.02-.05.02-.08.02h-2.1c-.2 0-.3.11-.3.31v1.42c0 .19.1.27.28.27h2.12c.03 0 .05.02.07.04.02.01.01.03.01.05v13.26c0 .04.04.06.08.06h6.28a.09.09 0 0 0 .07-.05l.01-.04a.09.09 0 0 0-.02-.05c-3.67-4.17-5.46-8.16-5.6-13.1a.15.15 0 0 1 .08-.16l.06-.01h2.3a.1.1 0 0 1 .08.03.1.1 0 0 1 .03.07c.09.98.23 1.9.43 2.78.53 2.3 1.5 3.86 2.92 5.99a29.78 29.78 0 0 0 3.83 4.5c.04.03.08.04.12.04h19.54c.05 0 .09-.01.12-.04a.15.15 0 0 0 .04-.1v-3.69a.11.11 0 0 0-.06-.1.12.12 0 0 0-.13.01 16.49 16.49 0 0 1-5.24 2.64c-.64.19-1.42.3-2.04.39l-.3.04c-.66.1-1.25.16-1.79.17-1.8.03-3.49-.14-5.03-.51-5.64-1.36-11-6.21-11.7-12.1-.02-.08.02-.12.1-.12h2.4c.05 0 .1.01.13.04.04.04.06.08.07.12.53 4.44 4.7 7.51 8.51 9.06.67.27 1.67.5 3 .67a14.02 14.02 0 0 0 5.55-.28c1.92-.45 4.07-1.6 5.66-2.89.29-.23.55-.52.8-.87a.3.3 0 0 0 .07-.18v-6.3c0-.14-.03-.14-.08-.02-.09.21-.15.43-.21.66a10.28 10.28 0 0 1-4.37 5.72 10.46 10.46 0 0 1-14.1-2.88 10.08 10.08 0 0 1-1.78-6.09c.07-3.2 1.94-6.17 4.5-8.01Zm13.64 8.35a7.6 7.6 0 0 0-2.28-5.42 7.85 7.85 0 0 0-11.01 0 7.6 7.6 0 0 0 0 10.84 7.85 7.85 0 0 0 11.01 0 7.6 7.6 0 0 0 2.28-5.42Zm-1.38 0a6.1 6.1 0 0 1-1.84 4.38 6.29 6.29 0 0 1-4.44 1.8 6.33 6.33 0 0 1-4.44-1.8 6.13 6.13 0 0 1 0-8.74 6.33 6.33 0 0 1 8.88 0 6.13 6.13 0 0 1 1.84 4.37Zm-1.16.02c0-1.33-.54-2.6-1.5-3.54a5.12 5.12 0 0 0-8.27 1.62 4.92 4.92 0 0 0 2.75 6.53 5.15 5.15 0 0 0 5.53-1.08 4.95 4.95 0 0 0 1.49-3.53ZM14.95 21h2.3c.07 0 .13.06.13.14v4.72c0 .08-.06.14-.14.14h-2.3a.13.13 0 0 1-.12-.14v-4.72c0-.08.06-.14.13-.14Zm5.45 0h-2.28a.12.12 0 0 0-.12.12v4.76c0 .06.05.12.12.12h2.28c.07 0 .12-.06.12-.12v-4.76a.12.12 0 0 0-.12-.12Zm15.82 1.83a1.9 1.9 0 0 1-1.92 1.89 1.9 1.9 0 0 1-1.92-1.89 1.9 1.9 0 0 1 1.92-1.88 1.9 1.9 0 0 1 1.92 1.88Zm-4.02 5.35a1.9 1.9 0 0 0 1.92-1.89 1.9 1.9 0 0 0-1.92-1.89 1.9 1.9 0 0 0-1.92 1.9c0 1.04.86 1.88 1.92 1.88Zm6.25-1.9a1.9 1.9 0 0 1-1.92 1.9 1.9 1.9 0 0 1-1.92-1.9c0-1.04.86-1.88 1.92-1.88a1.9 1.9 0 0 1 1.92 1.89Z" fill="#FD0002"/></svg>