<!-- by TradingView --><svg width="56" height="56" viewBox="0 0 56 56" xmlns="http://www.w3.org/2000/svg"><path fill="#F0F3FA" d="M0 0h56v56H0z"/><path d="M19 18v2.86c0 .04-.01.07-.04.1-.02.02-.06.04-.09.04H13.1c-.06 0-.09.02-.09.08v1.85l.02.05.05.02H17v3h-3.92c-.05 0-.08.07-.08.12v8.78a.1.1 0 0 1-.03.07.1.1 0 0 1-.07.03H9.1a.1.1 0 0 1-.07-.03.11.11 0 0 1-.03-.08V18h10Z" fill="#3B60AE"/><path d="M28.35 18c2.35 0 4.61 1.79 4.13 4.95a3.58 3.58 0 0 1-2.5 2.9.09.09 0 0 0-.02.07l.01.04 3.31 4.16c.05.05.04.1-.01.14l-2.3 1.72a.11.11 0 0 1-.09.02.12.12 0 0 1-.07-.05 442.63 442.63 0 0 1-3.62-5.12c-.07-.1-.11-.14-.15-.16-.06-.02-.04 0-.04.07v5.16c0 .06-.07.1-.13.1h-2.83c-.03 0-.04-.03-.04-.06V18h4.35ZM27 20.74l-.02 2.79.01.02.03.01 1.24.01a2 2 0 0 0 .63-.1c.2-.06.38-.15.53-.27.15-.12.27-.26.35-.42.08-.16.13-.33.13-.5v-.26c0-.35-.17-.68-.47-.92-.3-.25-.72-.39-1.15-.39H27l-.01.03Z" fill="#F8981D"/><path d="M50 18v3h-3c-.01 0 0 0 0 0s0-.01 0 0 0-.01 0 0v13.94c0 .02-.05.03-.06.04a.05.05 0 0 1-.03.02H44V21h-3v-3h9Z" fill="#1DAD4B"/><path d="M21.48 22.32a1.7 1.7 0 0 0 0-3.4 1.7 1.7 0 0 0 0 3.4Z" fill="#E11F28"/><path d="M37.71 23.93c-.5-.13-1.16-.08-1.07.64.02.14.13.3.34.47.97.83 1.98 1.63 3.03 2.42 1.52 1.14 2.48 2.84 1.92 4.66-.66 2.18-3.12 3.17-5.24 2.8a4.86 4.86 0 0 1-3.81-2.8.13.13 0 0 1 .04-.16l2.25-1.73a.07.07 0 0 1 .08 0l.02.02c.5 1.13 2 2.16 3.22 1.43.85-.49.21-1.25-.33-1.73-.61-.55-1.58-1.3-2.63-2.1a6.44 6.44 0 0 1-1.94-2.28c-.76-1.53.3-3.48 1.82-4.14 2.53-1.1 4.87.06 6.51 2 .04.04.04.08 0 .12l-2.14 1.65c-.05.03-.1.03-.13-.02a3.59 3.59 0 0 0-1.94-1.25Z" fill="#3B60AE"/><path d="M22.92 23h-2.84c-.04 0-.08.04-.08.1v11.8c0 .06.04.1.08.1h2.84c.04 0 .08-.04.08-.1V23.1c0-.06-.04-.1-.08-.1Z" fill="#E11F28"/><path d="M30.8 32.8c-.13 0-.23.1-.23.22v1.74c0 .12.1.22.22.22h.01c.12 0 .22-.1.22-.22v-1.74c0-.13-.1-.22-.22-.22ZM32.25 32.79c.13 0 .24.08.3.23.23.5.43.99.63 1.47l.08.3c0 .06-.01.1-.05.13a.22.22 0 0 1-.19.06.15.15 0 0 1-.1-.07l-.23-.4a.15.15 0 0 0-.14-.07 4.01 4.01 0 0 1-.59 0 .15.15 0 0 0-.14.08l-.22.4a.15.15 0 0 1-.1.07.21.21 0 0 1-.2-.06.15.15 0 0 1-.05-.13 32.83 32.83 0 0 1 .7-1.77c.07-.16.17-.24.3-.24Zm-.2 1.36.42-.03h.01a.03.03 0 0 0 .02-.02v-.03a1.8 1.8 0 0 0-.1-.47.46.46 0 0 0-.08-.14c-.03-.03-.06-.04-.1-.04-.07 0-.12.08-.16.2-.03.13-.05.3-.04.48v.01a.03.03 0 0 0 .01.03.03.03 0 0 0 .03 0ZM25.14 34.08c.02 0 .03 0 .03-.02l.33-1.09a.13.13 0 0 1 .1-.1c.18-.05.37-.05.54.02a.11.11 0 0 1 .08.1v1.8c0 .1-.05.16-.16.16h-.08c-.11 0-.17-.06-.18-.17l-.01-.97c0-.24-.04-.25-.1-.01l-.27.95c-.05.14-.13.18-.27.19-.14 0-.23-.04-.27-.19l-.28-.95c-.07-.23-.1-.23-.1.02l-.01.96c0 .12-.06.18-.18.18h-.08c-.1 0-.16-.05-.16-.16l-.01-1.8a.11.11 0 0 1 .08-.1.86.86 0 0 1 .55-.02c.05.01.08.05.1.1a49.74 49.74 0 0 0 .35 1.1ZM26.99 33.2c-.1 0-.14.04-.14.13v.2c0 .1.06.16.16.16h.8c.07 0 .13.03.16.1l.02.08c0 .11-.06.17-.17.17h-.83c-.09 0-.13.04-.13.13v.33a.12.12 0 0 0 .12.12h.92c.1 0 .17.05.22.16l.01.08a.12.12 0 0 1-.11.1h-1.39a.22.22 0 0 1-.22-.22V33.1a.25.25 0 0 1 .25-.25h1.32c.09.04.13.1.11.19-.01.1-.07.15-.18.15h-.92ZM28.4 33.1a.26.26 0 0 1 .26-.25h.68c.25 0 .48.1.65.27.18.17.27.4.27.64v.3a.9.9 0 0 1-.27.65.93.93 0 0 1-.65.26h-.68a.25.25 0 0 1-.26-.25V33.1Zm.44.21v1.2a.12.12 0 0 0 .12.12h.32a.53.53 0 0 0 .38-.17.57.57 0 0 0 .16-.4v-.3c0-.15-.06-.3-.16-.4a.53.53 0 0 0-.38-.17h-.32a.12.12 0 0 0-.12.12Z" fill="#080A0C"/><path d="m48.68 39-2.56-.42c-4.81-.8-9.68-1.26-14.55-1.46-8.51-.34-16.96.04-25.36 1.15-.28.04-.28.02-.01-.05a69.25 69.25 0 0 1 12.47-2.11c9.24-.7 18.47.05 27.7 2.23a20.34 20.34 0 0 1 2.31.66Z" fill="#3B60AE"/></svg>