<!-- by TradingView --><svg width="56" height="56" viewBox="0 0 56 56" xmlns="http://www.w3.org/2000/svg"><path fill="#F0F3FA" d="M0 0h56v56H0z"/><path d="M43.64 23.9a23.98 23.98 0 0 1 .03 8.05C42.51 39.6 37.48 46.78 29.51 48h-2.95c-3.37-.5-6.2-1.91-8.47-4.25-6.73-6.92-7.84-18.08-3.53-26.57 1.69-3.34 4.4-6.32 7.75-7.9A13.18 13.18 0 0 1 27.9 8c8.6 0 14.49 8.03 15.74 15.9Zm-15.6 23.53c2 0 4-.5 5.86-1.48a15.67 15.67 0 0 0 4.98-4.22 20.38 20.38 0 0 0 3.31-6.3 23.97 23.97 0 0 0-.03-14.86 20.38 20.38 0 0 0-3.33-6.3 15.67 15.67 0 0 0-4.99-4.2 12.61 12.61 0 0 0-5.87-1.48c-2.02 0-4.01.51-5.87 1.5a15.67 15.67 0 0 0-4.98 4.21 20.38 20.38 0 0 0-3.31 6.3 23.97 23.97 0 0 0 .02 14.87c.78 2.36 1.91 4.5 3.34 6.3a15.67 15.67 0 0 0 4.99 4.2 12.6 12.6 0 0 0 5.87 1.46Z" fill="#133283"/><path d="m29.26 26.55 8.8 1.42c.05 0 .09.03.11.07a.2.2 0 0 1 .05.12 30.12 30.12 0 0 1-1.14 7.36c-.2.68-.58 1.62-1.15 2.84-1.75 3.7-5.45 6.34-9.62 5.07-4.73-1.43-7.52-5.31-8.19-10.14a.15.15 0 0 0-.04-.1.14.14 0 0 0-.1-.03c-.57-.02-1.85-.11-1.93-.86a7.4 7.4 0 0 1-.02-1.4c0-.08.05-.12.13-.12h5.7a.1.1 0 0 0 .07-.03.1.1 0 0 0 .03-.07v-2.22c0-.08-.04-.13-.12-.14l-4.13-.67a.13.13 0 0 1-.1-.14c.06-1.17.29-2.11.62-3.41 1.18-4.61 3.78-10.64 9.22-11.22 4.3-.46 7.53 3.45 9.05 7.06.27.64.6 1.48.99 2.55.07.18.2.33.38.42l1.44.7a.44.44 0 0 1 .25.4v.86c0 .07-.04.13-.1.13H32.3c-.07 0-.1-.06-.11-.13l-.13-1.89c-.01-.18-.08-.2-.19-.06l-2.67 3.5c-.05.07-.04.11.05.13Zm-.9-7.08h2.8a.12.12 0 0 0 .08-.04.12.12 0 0 0 .03-.1 7.47 7.47 0 0 0-1.45-3.18c-.83-1.07-2.56-1.43-3.54-.3A4.95 4.95 0 0 0 25 19.4c0 .04.02.07.04.1.03.02.07.04.1.04h1.83c.07 0 .11.03.13.1.14.62-.05 1.02-.57 1.19a.3.3 0 0 0-.2.29v3.55c0 .16.04.18.14.05l2.6-3.41a.2.2 0 0 0-.02-.28l-.77-.6a.12.12 0 0 1-.04-.1v-.74c0-.07.03-.1.1-.1ZM26.02 30.2a.1.1 0 0 1 .05-.09.09.09 0 0 1 .1.01c.24.2.46.42.67.65.93 1.04 1.93 2.1 3.02 3.19.44.45.88 1.52-.13 1.67-.16.02-.25.12-.25.28v.06c0 .13.07.2.19.2h6.14c.06 0 .1-.04.1-.11.01-.27-.08-.52-.28-.74-2.95-3.41-5.28-6.12-7-8.13a.4.4 0 0 1-.02-.5l4.54-5.95a.12.12 0 0 1 .08-.04l.65-.05c.08 0 .12-.05.12-.13v-.6c0-.1-.04-.14-.13-.14H28.8a.16.16 0 0 0-.15.1c-.12.23 0 .41.22.55a15.15 15.15 0 0 1 .7.5.26.26 0 0 1-.02.3l-3.26 4.27c-.17.22-.26.2-.26-.1v-4.29a.54.54 0 0 1 .17-.38c.1-.1.26-.23.45-.38a.34.34 0 0 0 .14-.18c.03-.13.03-.21 0-.26a.28.28 0 0 0-.12-.08.38.38 0 0 0-.15-.03l-4.82-.02c-.08 0-.12.03-.12.11v.76c0 .05.02.1.06.13l.57.44c.05.04.07.09.07.15V35.3a.14.14 0 0 1-.04.1.14.14 0 0 1-.1.04h-.48c-.11 0-.16.06-.16.17l.02.25c.01.1.07.16.17.16h5.54c.09 0 .14-.05.15-.14.01-.15-.02-.23-.1-.25a3.92 3.92 0 0 0-.95-.11.29.29 0 0 1-.27-.18.3.3 0 0 1-.02-.12V30.2Zm3.29 5.08.62-.04c.02 0 .03 0 .05-.02a.12.12 0 0 0 .06-.08v-.06c-.1-.43-.31-.8-.63-1.13-.59-.58-1.54-1.57-2.86-2.98-.15-.15-.22-.12-.22.1v4.03c0 .04.02.09.05.12.03.03.08.05.12.05h.94c.16 0 .23.08.23.23v.6c0 .07-.02.14-.07.19a.25.25 0 0 1-.18.07h-2.75a.12.12 0 0 0-.09.04.13.13 0 0 0-.03.1c.28 1.57 1.1 4.47 2.85 5 .96.28 1.95-.08 2.62-.92a6.98 6.98 0 0 0 1.29-4.03.14.14 0 0 0-.14-.1h-1.84a.18.18 0 0 1-.13-.05.2.2 0 0 1-.05-.14v-.8c0-.11.05-.17.16-.18Z" fill="#133283"/><path d="M26.03 30.2v5.02a.3.3 0 0 0 .18.27c.04.02.07.03.11.03.3 0 .61.03.95.11.08.02.11.1.1.25-.01.1-.06.14-.15.14h-5.54c-.1 0-.16-.05-.17-.16l-.02-.25c0-.11.05-.17.16-.17h.48a.13.13 0 0 0 .1-.04.14.14 0 0 0 .04-.1V21.37a.18.18 0 0 0-.07-.15l-.57-.44a.15.15 0 0 1-.06-.13v-.76c0-.08.04-.11.12-.11l4.82.02c.06 0 .1 0 .15.03.05.02.09.05.11.08.04.05.04.13.01.26a.34.34 0 0 1-.14.18c-.2.15-.34.27-.45.38a.52.52 0 0 0-.16.38v4.3c0 .28.08.31.25.09l3.26-4.27a.26.26 0 0 0 .05-.2.26.26 0 0 0-.1-.17l-.63-.43c-.22-.14-.34-.32-.22-.55.04-.07.09-.1.16-.1h5.08c.09 0 .13.05.13.14v.6c0 .08-.04.13-.12.13l-.65.05a.11.11 0 0 0-.08.04l-4.54 5.94a.4.4 0 0 0 .01.5c1.73 2.02 4.06 4.73 7.01 8.14.2.22.3.47.28.74 0 .07-.03.1-.1.1h-6.14c-.12 0-.18-.06-.18-.19v-.06c0-.16.08-.26.24-.28 1.01-.15.57-1.22.13-1.67a79.7 79.7 0 0 1-3.02-3.19 6.24 6.24 0 0 0-.72-.67.09.09 0 0 0-.09.05.1.1 0 0 0-.01.05Z" fill="#8DC7F6"/></svg>