<!-- by TradingView --><svg width="56" height="56" viewBox="0 0 56 56" xmlns="http://www.w3.org/2000/svg"><path fill="#F0F3FA" d="M0 0h56v56H0z"/><path d="M27.9 30.86c-.13.15-.23.32-.32.51-2.55 1.02-5.35.39-7.53-1.1a.26.26 0 0 0-.29.01 9.52 9.52 0 0 1-6.62 1.57.15.15 0 0 1-.14-.15V14.27a.33.33 0 0 1 .19-.3l6.58-2.96a.14.14 0 0 1 .12.01.13.13 0 0 1 .06.1c.06 3.19.26 6.25.6 9.2.1.88.2.88.28 0a72.91 72.91 0 0 0 .22-8.88.16.16 0 0 1 .22-.06l4.12 2.56c.17.1.26.26.29.45l2.23 16.47Z" fill="#8BC684"/><path d="M28.2 31.37c.08-.2.19-.36.32-.51l1.85-.7a.27.27 0 0 1 .26.04c1.17.87 2.23 1.6 3.73 1.61l2.4-.01c1.3-.02 2.25-.64 3.25-1.52a.31.31 0 0 1 .44.03 5.86 5.86 0 0 0 3.65 2.1c.32.04.32.1 0 .17a5.94 5.94 0 0 0-2.98 1.86.42.42 0 0 0-.11.27l-.2 7.35c0 .11.05.17.15.18 2 .21 3.98.02 5.97.63l.05.06c.04.06.01.08-.08.07-4.28-.6-7.45-.37-9.52-.54-5.4-.44-10.79-.6-16.14-.46-.16 0-.24-.08-.24-.24v-6.68c0-.27.12-.45.35-.56a10.55 10.55 0 0 1 7.62-.44.1.1 0 0 0 .08-.08v-.06l-.85-2.57Zm11.75 10.5c.17.01.25-.07.25-.24l.03-5.76c0-1.6-1.79-2.16-3.08-2.4-1.85-.35-4.89-.24-6.14 1.33-.15.19-.23.47-.24.84 0 .95 0 3.26.02 5.73 0 .06.02.12.06.17.05.04.1.07.17.07l8.93.26Zm-9.7-.47c.02 0 .04-.02.04-.04.04-1.7.04-3.91 0-5.43 0-.65-.15-1.1-.67-1.42a.1.1 0 0 0-.1 0 .1.1 0 0 0-.04.1l.66 6.76c0 .03.01.04.04.04l.07-.01ZM19.84 42h-6.68a.16.16 0 0 1-.11-.04.14.14 0 0 1-.05-.1v-7.71l.01-.06.04-.05a.16.16 0 0 1 .13-.04l6.68.8c.04 0 .07.02.1.04.03.03.04.06.04.1v6.91c0 .04-.02.08-.05.1a.16.16 0 0 1-.1.05Z" fill="#A7D29D"/></svg>