<!-- by TradingView --><svg width="56" height="56" viewBox="0 0 56 56" xmlns="http://www.w3.org/2000/svg"><path fill="#2B2E68" d="M0 0h56v56H0z"/><path d="M28.61 15.66c1.38-2.98 1.28-5.8-.3-8.46-.17-.29-.23-.27-.2.07.17 1.37-.44 2.5-1.41 3.44-.92 1.01-2.13 1.78-3.4 2.59h-.01l-.6.38c-2.18 1.38-4.25 3.5-4.65 6.06a9.25 9.25 0 0 0 1.42 5.8 13.16 13.16 0 0 0-.8 7.89c.64 3.22 3.1 5.98 5.91 7.58.08.05.12.03.14-.06.72-3.1 2.27-5.9 4.65-8.37.07-.07.06-.12-.02-.17a81.07 81.07 0 0 1-3.93-2.57 25.68 25.68 0 0 1-4.45-3.95l4.64-5.52a21.14 21.14 0 0 0 3.01-4.71Zm-8.73 8.84c-1-1.14-.93-2.64-.53-4.01.85-2.47 2.88-4.37 5.1-5.72 1.16-.68 2.22-1.5 3.16-2.47.18-.2.33-.41.43-.64a.16.16 0 0 1 .06-.07c.04-.02.06 0 .06.04a9.1 9.1 0 0 1-.86 3.16 24.56 24.56 0 0 1-3.24 4.97l-4 4.73c-.06.07-.12.07-.18 0Zm.5 2.57c1.6 2.2 4.1 4.09 6.58 5.56.12.07.14.16.04.26a12.02 12.02 0 0 0-3.02 5.3c-.03.11-.09.13-.18.06-2.3-1.85-4.12-4.27-4.71-7.14-.22-1.05.61-2.86 1.17-4.03l.02-.03a.07.07 0 0 1 .1.02Z" fill="url(#a)"/><path fill-rule="evenodd" d="M26.5 43.2c.32-1.8 1.01-3.5 2.07-5.09 1.29-1.9 2.74-3.7 4.36-5.38l2-2.56c.05-.06.05-.11 0-.16a29.58 29.58 0 0 1-.25-.27c-.32-.36-.67-.74-1.05-1.08a42.16 42.16 0 0 0-7-5.02c-.09-.05-.1-.12-.02-.2a17.9 17.9 0 0 0 4.65-8.34c.02-.12.1-.15.2-.08a14.27 14.27 0 0 1 4.28 3.91c2.3 3.25 2.32 7.7.84 11.36a.27.27 0 0 0 .02.24c.64 1.2 1.09 2.46 1.33 3.78a6.89 6.89 0 0 1-.25 3.04c-.92 2.39-3.05 4.22-5.15 5.5-.98.6-1.8 1.15-2.43 1.65-1.44 1.16-2.57 2.73-2.24 4.48v.01h-.03a8.16 8.16 0 0 1-1.34-5.79Zm9.6-11.7c.72.9.96 1.92.73 3.1l-.63 2a11.3 11.3 0 0 1-3.7 4.01 26.5 26.5 0 0 0-4.24 3.2c-.09.17-.2.33-.34.46-.09.08-.12.06-.12-.05l.05-.52a15.2 15.2 0 0 1 2.18-4.92 45.73 45.73 0 0 1 4.53-5.5l1.37-1.77c.06-.07.11-.07.17 0Zm-.5-2.55c-1.6-2.2-4.11-4.09-6.6-5.56-.11-.07-.12-.16-.03-.26A12.04 12.04 0 0 0 32 17.82c.03-.11.1-.13.18-.06 2.3 1.85 4.13 4.27 4.72 7.15.22 1.05-.61 2.86-1.17 4.03a.07.07 0 0 1-.05.04.07.07 0 0 1-.07-.03Z" fill="url(#b)"/><defs><linearGradient id="a" x1="26.27" y1="12.4" x2="17.18" y2="29.39" gradientUnits="userSpaceOnUse"><stop stop-color="#CDA727"/><stop offset=".3" stop-color="#FFE99B"/><stop offset=".5" stop-color="#D1AB2E"/><stop offset="1" stop-color="#CBA421"/></linearGradient><linearGradient id="b" x1="35.11" y1="19.83" x2="26.81" y2="47.59" gradientUnits="userSpaceOnUse"><stop stop-color="#CBA421"/><stop offset=".63" stop-color="#D1AB2E"/><stop offset=".79" stop-color="#FDE799"/><stop offset=".94" stop-color="#DAB742"/></linearGradient></defs></svg>