<!-- by TradingView --><svg width="56" height="56" viewBox="0 0 56 56" xmlns="http://www.w3.org/2000/svg"><path fill="#F0F3FA" d="M0 0h56v56H0z"/><path d="m44.75 33.8-2.68-1.05.71-.18a10.01 10.01 0 0 0 5.11-8.67l.04-.8c.19-3.56-1.88-6.63-5.36-7.51a13.6 13.6 0 0 0-3.54-.47c-1.76.03-3.5.42-5.22 1.15a363.9 363.9 0 0 0-4.73 2.07c-.5.22-.87.44-1.14.68l-.03-.05c-.47.13-.88.27-1.22.42-2.1.94-3.72 1.65-4.83 2.13-.9.38-1.77.79-2.64 1.2a696.3 696.3 0 0 1-7.8 3.74c-.31.15-.8.5-1.49 1.04l-1.62 1.52a8.2 8.2 0 0 0-1.54 6.4c.14.84.4 1.56.8 2.19a6.1 6.1 0 0 0 4.05 2.72c1.27.3 2.45.34 3.54.1 1.31-.28 2.63-.54 3.96-.79a32 32 0 0 0 3-.74c.02.05 0 .1-.01.14-.02.04-.05.06-.1.09-.58.25-1.1.5-1.56.73-.3.15-.6.2-.9.37-.29.17-.63.28-.96.4-1.27.23-2.55.36-3.84.38l-.54.01c-1.37 0-2.59-.15-3.67-.47A5.93 5.93 0 0 1 6.4 36.6c-1.49-5.45 1.46-9.08 6.04-11.3 1.64-.81 8.46-4.04 20.46-9.7 4.13-1.95 8.42-2.28 12.48-.08 4.55 2.46 5.46 8.12 3.97 12.67a9.92 9.92 0 0 1-4.59 5.6Z" fill="#FFCE00"/><path d="M47.93 23.1c-.15-1-.26-1.69-.35-2.06-1.26-5.27-6.83-6.47-11.34-5.4-.56.14-1.47.47-2.72 1-1.86.77-3.72 1.56-5.58 2.38.27-.24.65-.46 1.14-.68 1.37-.61 2.94-1.3 4.73-2.07a13.87 13.87 0 0 1 5.22-1.15c1.02-.02 2.2.13 3.54.47 3.48.88 5.55 3.95 5.36 7.5Z" fill="#FBAF01"/><path d="m47.93 23.1-.04.8c-.34 3.64-2 6.44-4.96 8.41-.07.04-.11.13-.15.26l-.7.18-.57-.16c3.26-1.93 5.38-4.3 5.78-8.24a9.53 9.53 0 0 0-.34-3.7c-1-3.38-3.9-4.87-7.24-4.95-1.68-.03-3.23.19-4.65.68l-3.23 1.35-12.98 5.8-5.47 2.58-2.14 1.05c-.75.37-1.38.81-1.87 1.32a7.89 7.89 0 0 0-2.09 6.84c.6 2.98 3.34 4.74 6.24 4.74a14 14 0 0 0 2.41-.33c2.7-.53 5.37-1.14 8.03-1.82l-1.39.87-.44.12c-1 .28-1.96.55-3.01.74-1.32.25-2.65.51-3.96.8-1.09.23-2.27.2-3.54-.1-.7-.3-1.14-.48-1.32-.57-3.68-1.84-4.42-6-2.6-9.5.3-.57.5-.99.6-1.25l1.63-1.52a87.7 87.7 0 0 1 3.87-1.97c3.72-1.76 7.8-3.64 12.26-5.65.74-.33 1.36-.63 1.85-.9l.03.04c1.86-.82 3.72-1.61 5.58-2.39 1.25-.52 2.16-.85 2.72-.98 4.51-1.08 10.08.12 11.34 5.39.09.37.2 1.06.35 2.06Z" fill="#F47D00"/><path d="m29.09 30.27.4-4.17c-.17.3-.34.56-.52.75-.12.14-.24.17-.36.09-.04.15-.17.18-.41.1a.84.84 0 0 1-.5-.43.74.74 0 0 0-.35.25 4.45 4.45 0 0 0-1 3.3c.03.45.21.75.55.9.13.05.3.02.5-.1l-.12-.02a.06.06 0 0 1-.04-.04v-.06l.59-.76a.45.45 0 0 1 .26-.17c.05-.01.08.01.08.07v.13c.3-.43.61-.38.92.16Z" fill="url(#paint0_linear_108_44919)"/><path d="m40.4 32.39 1.1.2c3.27-1.93 5.39-4.3 5.8-8.24a9.53 9.53 0 0 0-.35-3.7c-1-3.38-3.9-4.87-7.24-4.95-1.68-.03-3.23.19-4.65.68l-3.23 1.35-12.98 5.8-5.47 2.58-2.14 1.05c-.75.37-1.38.81-1.87 1.32a7.89 7.89 0 0 0-2.09 6.84c.6 2.98 3.34 4.74 6.24 4.74.52 0 1.32-.11 2.41-.33 2.7-.53 5.37-1.14 8.03-1.82l1.85-.46 1.94-1.48c.88-.68 1.54-1.16 1.98-1.43A15.48 15.48 0 0 1 40.4 32.4Zm-25.03-2.92c-.07-.73-.47-1.45-1.26-1.5a5.06 5.06 0 0 0-2.4.75 29.57 29.57 0 0 1-.46.26v-.08a.07.07 0 0 0-.05-.08h-.04c-.27.1-.42.3-.45.6a277.86 277.86 0 0 1-.55 6.22c-.07.65-.1 1.3-.12 1.95 0 .05.01.1.05.13.03.03.07.06.11.06.16.01.26-.02.29-.1.29-.04.58-.1.87-.2a.52.52 0 0 0 .38-.48c.1-1.25.17-2.03.18-2.35.02-.29.14-.48.37-.58l.25-.1a6.57 6.57 0 0 0 1.42-.74 3.61 3.61 0 0 0 1.26-1.99c.04.32.05.56.03.7a49.38 49.38 0 0 0-.4 4.09c0 .2.09.3.3.3.12 0 .19-.05.2-.14.47-.05.82-.15 1.05-.28.19-.1.28-.22.29-.34.07-1.04.24-2.42.49-4.17.06-.43.25-.74.58-.93.13.22.24.34.33.38.16.06.28 0 .37-.2.08.15.16.17.24.09l.36-.43c-.2.8-.28 1.59-.23 2.35.02.35.14.82.25 1.1.31.78.82 1.05 1.5.82a3.25 3.25 0 0 0 1.84-.64 5.29 5.29 0 0 0 1.77-3.4l.14.82c.17 1.16.84 1.66 2.02 1.48.13-.02.15-.05.07-.1a3.23 3.23 0 0 0 2.6-1.86l-.03.65c-.02.23.1.34.32.32.13-.01.18-.05.16-.12.44-.03.88-.14 1.33-.32.2-.17.31-.4.34-.7.12-1.12.22-2.24.32-3.37.04-.51.16-.96.34-1.36.18-.38.45-.66.83-.86.04.1.09.16.13.23.1.15.18.29.15.57l-.37 3.6-.04 1c0 .06.02.12.05.16.04.04.1.07.15.08.12.01.24-.02.34-.09.54-.1.94-.2 1.23-.34.28-.13.43-.32.45-.57l.23-2.48.2-3.04c.05-.69-.27-1.09-.98-1.2a1.9 1.9 0 0 0-.95.2c0-.04-.05-.08-.12-.1-.41.2-.84.5-1.27.9.12-1.17.2-1.92.21-2.26.02-.22.04-.76-.11-.94-.32-.35-.9-.2-1.23.07 0-.05 0-.08-.02-.09a.12.12 0 0 0-.13-.01c-.38.17-.58.47-.63.9-.06.61-.1 1.1-.15 1.45-.04.3-.06.64-.09.99-.03.47-.06.95-.14 1.41-.4-.67-1.24-.73-1.93-.51a.34.34 0 0 0 .03-.08.12.12 0 0 0-.07-.08.14.14 0 0 0-.11 0 5.69 5.69 0 0 0-2.76 2.83c-.28.62-.4 1.3-.37 2.03.01.2-.03.39-.1.55.06-1.09.09-3.05-1.32-3.22-.3-.03-.7.04-1.2.22-.1-.14-.31-.08-.64.18a4 4 0 0 0-1.62 1.92c.02-.78-.47-.93-1.09-.74v-.06a.06.06 0 0 0-.03-.04.05.05 0 0 0-.05 0A3.5 3.5 0 0 0 17 29.7c-.3-.37-.78-.1-1.12.1l-.05.02c0-.06-.05-.08-.14-.05a.25.25 0 0 0-.11.08l-.2.2v-.58Zm19.91-3.71c-.04.72-.12 1.43-.24 2.13-.07.44-.17 1.44.1 1.8.16.22.38.24.66.08.57.02 1.07-.16 1.52-.54a.3.3 0 0 0 .1-.27 8.85 8.85 0 0 1-.03-1.87c.02-.34.15-1.52.37-3.53v-.06c.08-.7.23-2.05-1.02-1.52a.88.88 0 0 0-.37-.03l-.22.12c-.32.17-.55.3-.59.8-.06.96-.16 1.93-.28 2.89Zm1.08-4.8c.22 0 .36-.02.42-.1 1.03-.24 1.53-.86 1.5-1.85-.03-.7-.48-.97-1.11-.64-.13-.12-.36-.05-.7.22-.91.97-.95 1.76-.1 2.37Z" fill="url(#a)"/><path d="M36.78 20.87c-.33-.14-.52-.36-.54-.66a1.8 1.8 0 0 1 .93-1.84c.63-.33 1.08-.07 1.1.64.04 1-.46 1.61-1.49 1.86Z" fill="#fff"/><path d="M37.17 18.37c-.7.41-1.01 1.03-.93 1.84.02.3.2.52.54.66-.06.07-.2.1-.42.09-.84-.61-.8-1.4.11-2.37.34-.27.57-.34.7-.22Z" fill="#4E100B"/><path d="M27.91 18.97c-.5.28-1.11.58-1.85.91-4.46 2-8.54 3.89-12.26 5.65-1.16.55-2.45 1.2-3.87 1.97.68-.55 1.18-.9 1.5-1.04 2.73-1.29 5.33-2.53 7.79-3.73.87-.42 1.74-.83 2.64-1.21l4.83-2.13c.34-.15.75-.29 1.22-.42Z" fill="#FBAF01"/><path d="M37.96 29.05c-.09-.7.05-1.36.41-1.96a1040.87 1040.87 0 0 1 2.88-4.74c0-.02 0-.03-.02-.04a.08.08 0 0 0-.07-.04l-.25.06-2.4.84c-.19-.95.18-1.63 1.12-2.06 1.1-.37 2.21-.77 3.34-1.19.47-.18 1.05-.24 1.06.48.01.25-.05.48-.19.7a678.67 678.67 0 0 1-3.24 5.13.65.65 0 0 0-.12.39.09.09 0 0 0 .12.08l1.67-.5c.54-.19 1.06-.22 1.2.44.13.57-.07.93-.6 1.08-1.27.35-2.73.8-4.38 1.32-.16.05-.33.05-.53.01ZM31.83 24.04l-.03.26c0 .05.01.09.07.1.05.01.09 0 .12-.06.35-.5.76-.86 1.23-1.1.4-.17.72-.23.95-.2.7.11 1.03.51.99 1.2a1356 1356 0 0 1-.21 3.04l-.23 2.48c-.02.25-.17.44-.45.57-.29.13-.7.25-1.23.34a.42.42 0 0 1-.12-.33c.13-1.54.27-3.07.42-4.6.05-.47-.24-.76-.7-.62-.39.2-.66.48-.84.86-.18.4-.3.85-.34 1.36-.1 1.13-.2 2.25-.32 3.38a.99.99 0 0 1-.34.69c-.45.18-.9.29-1.33.32-.06-.08-.09-.2-.08-.33l1-9.95c.01-.18.12-.36.31-.54.33-.28.9-.42 1.23-.07.15.18.13.72.11.94-.02.34-.1 1.1-.21 2.26Z" fill="#fff"/><path d="M30.7 20.91c-.2.18-.3.36-.31.54l-1 9.95c-.01.14.02.25.08.33.02.07-.03.1-.16.12-.23.02-.34-.09-.32-.32l.04-.65.05-.61.4-4.17.06-.54c.13-.8.14-1.68.23-2.4.04-.36.1-.84.15-1.45.05-.43.25-.73.63-.9.04-.02.09-.02.13.01.01.01.02.04.02.1ZM39.63 21.11c-.94.43-1.3 1.11-1.12 2.06a.5.5 0 0 1-.33.03.1.1 0 0 1-.08-.1c-.1-1.18.4-1.85 1.53-1.99ZM36.74 21.98c-.24.08-.68.19-.72.5-.24 2.07-.45 4.14-.64 6.2-.04.46-.02.87.42 1.09-.28.16-.5.14-.65-.07-.28-.37-.18-1.37-.1-1.8.1-.71.19-1.42.23-2.14.12-.96.21-1.93.28-2.9.05-.6.38-.65.81-.91.13-.02.26 0 .37.03Z" fill="#4E100B"/><path d="M35.8 29.77c-.44-.22-.46-.63-.42-1.08.19-2.07.4-4.14.64-6.2.04-.32.48-.43.72-.5 1.29-.55 1.1.9 1.02 1.57l-.38 3.53c-.05.62-.03 1.24.05 1.87a.3.3 0 0 1-.11.27c-.45.38-.95.56-1.52.54Z" fill="#fff"/><path d="M37.96 29.05c.09.1.01.15-.23.14a.16.16 0 0 1-.15-.15c-.04-.6.06-1.16.3-1.67.22-.46.45-.88.7-1.28l2.33-3.76.25-.06a.07.07 0 0 1 .07.04.08.08 0 0 1 0 .08l-2.86 4.7c-.36.6-.5 1.26-.4 1.96Z" fill="#4E100B"/><path d="M47.9 23.9a10.01 10.01 0 0 1-5.12 8.67c.04-.13.08-.22.15-.26a10.83 10.83 0 0 0 4.96-8.4Z" fill="#FBAF01"/><path d="M27.6 25.05c-2.28 1-3.26 3.68-2.97 6.06.12.98.74 1.73 1.79 1.63.08.05.06.08-.07.1-1.18.18-1.85-.32-2.02-1.48a25.2 25.2 0 0 0-.14-.82l.04-.24c.07-.16.11-.35.1-.55-.03-.73.1-1.4.37-2.03a5.69 5.69 0 0 1 2.81-2.84h.06l.05.04.02.05s0 .03-.03.08Z" fill="#4E100B"/><path d="m29.54 25.56-.06.54c-.16.3-.33.56-.5.75-.13.14-.25.17-.37.09-.3-.33-.61-.44-.91-.33a.74.74 0 0 0-.35.25 4.45 4.45 0 0 0-1 3.3c.03.45.21.75.55.9.13.05.3.02.5-.1.32-.2.58-.48.78-.85.3-.43.6-.38.9.16l-.05.61a3.23 3.23 0 0 1-2.62 1.86c-1.04.1-1.66-.65-1.78-1.63-.3-2.38.7-5.05 2.98-6.06.7-.22 1.52-.16 1.93.51Z" fill="#fff"/><path d="M33.04 30.67c-.1.07-.22.1-.34.09a.22.22 0 0 1-.15-.08.23.23 0 0 1-.05-.16l.04-1 .37-3.6c.04-.4-.15-.5-.28-.8.47-.14.76.15.71.61l-.42 4.6c0 .13.03.24.12.34ZM28.61 26.94c-.04.15-.17.18-.41.1a.84.84 0 0 1-.5-.43c.3-.1.6 0 .91.33Z" fill="#4E100B"/><path d="m24.22 30.3-.03.24c-.2 1.3-.75 2.6-1.77 3.4-.5.38-1.12.6-1.83.64-.54-.14-.89-.42-1.05-.84-.41-1-.34-2.39-.08-3.4.35-1.4 1.1-2.4 2.25-3.04.5-.18.9-.25 1.2-.22 1.4.17 1.38 2.13 1.31 3.22Z" fill="#fff"/><path d="M21.71 27.3a4.53 4.53 0 0 0-2.25 3.04 5.94 5.94 0 0 0 .08 3.4c.16.42.51.7 1.05.84-.7.23-1.2-.04-1.5-.82a4.14 4.14 0 0 1-.26-1.1c-.05-.76.03-1.55.23-2.35l.4-.9a4 4 0 0 1 1.61-1.93c.33-.26.54-.32.64-.18Z" fill="#4E100B"/><path d="M15.37 29.47v.58l-.15 1.2c-.22.82-.64 1.49-1.26 1.98-.44.36-1.27.66-1.67.84-.23.1-.35.3-.37.58-.01.32-.08 1.1-.18 2.35a.52.52 0 0 1-.38.48c-.3.1-.58.16-.87.2a1.1 1.1 0 0 1-.02-.25c.2-2.77.43-5.53.7-8.3 0-.04.03-.1.08-.15a.54.54 0 0 1 .14-.1c.82-.4 1.76-.95 2.72-.9.8.04 1.19.76 1.26 1.49Z" fill="#fff"/><path d="M18.36 28.66c-.39.33-.75.71-1.08 1.13-.06.07-.1.1-.15.1-.05-.02-.1-.08-.13-.2a3.5 3.5 0 0 1 1.3-1.14h.03a.06.06 0 0 1 .03.05v.06Z" fill="#4E100B"/><path d="m19.45 29.4-.39.9a28 28 0 0 1-.36.44c-.08.08-.16.06-.24-.08-.17-.3-.4-.36-.7-.19-.33.2-.52.5-.58.93a62.97 62.97 0 0 0-.49 4.17c0 .12-.1.24-.29.34-.23.13-.58.23-1.05.28a1.17 1.17 0 0 1-.04-.37l.52-6c.34-.2.86-.51 1.17-.12.03.11.08.17.13.18.04.01.09-.02.15-.09.33-.42.7-.8 1.08-1.13.62-.2 1.11-.04 1.1.74Z" fill="#fff"/><path d="m22.27 28.7-.2.02a.13.13 0 0 0-.07.2c.21.27.31.58.29.94-.05.65-.1 1.13-.14 1.43a3.9 3.9 0 0 1-.88 1.73c-.14-.02-.26-.1-.36-.26-.1-.16-.16-.37-.2-.63a4.76 4.76 0 0 1 .5-2.66 2 2 0 0 1 .53-.67c.19-.14.37-.17.53-.1Z" fill="#BC3123"/><path d="M22.27 28.7c.2.1.35.37.42.76a4.91 4.91 0 0 1-.4 2.57c-.16.34-.34.6-.53.78-.17.15-.34.22-.49.2.51-.64.8-1.22.88-1.72.05-.3.1-.78.14-1.43.02-.36-.08-.67-.3-.93a.13.13 0 0 1 .03-.19.13.13 0 0 1 .06-.02l.19-.02ZM11.25 28.98a.29.29 0 0 0-.08.15c-.27 2.77-.5 5.53-.7 8.3 0 .06 0 .14.02.24-.03.09-.13.12-.29.11a.18.18 0 0 1-.16-.19c.02-.65.05-1.3.12-1.95a277.86 277.86 0 0 0 .55-6.21c.03-.3.18-.5.45-.6a.07.07 0 0 1 .07 0 .07.07 0 0 1 .03.07l-.01.08Z" fill="#4E100B"/><path d="M8.3 29.02c-.1.26-.3.68-.6 1.26-1.82 3.5-1.08 7.65 2.6 9.49.18.09.62.28 1.32.56a6.1 6.1 0 0 1-4.05-2.72 5.75 5.75 0 0 1-.8-2.19 8.2 8.2 0 0 1 1.54-6.4Z" fill="#FBAF01"/><path d="M12.98 32.43c-.12.02-.19 0-.21-.05-.02-.03-.01-.07.02-.1.45-.39.68-.89.69-1.5 0-.31-.01-.54-.04-.67a1.32 1.32 0 0 0-.38-.6c.44-.13.7 0 .8.35.28 1.11 0 1.97-.88 2.57Z" fill="#4E100B"/><path d="M13.06 29.5c.2.2.32.4.38.61.03.13.04.36.04.68 0 .6-.24 1.1-.7 1.5-.02.02-.03.06-.01.1.02.04.1.06.21.04l-.75.32a.1.1 0 0 1-.11-.05l-.01-.04c.05-.73.11-1.59.2-2.57.01-.2.05-.33.25-.43.18-.1.35-.14.5-.15Z" fill="#A62C1F"/><path d="m15.83 29.82-.52 6c0 .1 0 .22.04.37-.01.09-.08.13-.2.14-.21 0-.3-.1-.3-.3.08-1.38.21-2.74.4-4.1.02-.13 0-.37-.03-.69l.16-1.2c.07-.05.14-.12.2-.19a.25.25 0 0 1 .1-.08c.1-.03.15-.01.15.05ZM28.18 30.11c-.2.37-.46.65-.79.86l-.11-.03-.03-.01a.06.06 0 0 1-.02-.06l.02-.03.57-.76a.45.45 0 0 1 .27-.17c.05-.01.08.01.08.07v.13ZM18.46 30.66c-.09.19-.2.25-.37.19-.09-.04-.2-.16-.33-.38.3-.17.53-.1.7.19Z" fill="#4E100B"/><path d="m41.5 32.59.57.16 2.68 1.04 1.33.86c.12.08.1.12-.04.12-2.27 0-4.46.47-6.58 1.42-1.09.5-2.2 1.08-3.33 1.75-.93.56-2.08 1.15-3.43 1.78A24.87 24.87 0 0 1 23.74 42h-3.32a24.88 24.88 0 0 1-3.55-.47c1.5-.3 2.9-.75 4.17-1.34.66-.28 1.3-.59 1.93-.94.98-.55 1.93-1.15 2.84-1.8l1.94-1.48c.88-.68 1.53-1.15 1.98-1.43A15.48 15.48 0 0 1 41.5 32.6Z" fill="#97C124"/><path d="M39.75 33.44c-1.34.33-3.15.91-4.54 1.73-.79.47-1.92 1.15-3.4 2.06a26.52 26.52 0 0 1-5.25 2.64 3.62 3.62 0 0 1-1.08.2.11.11 0 0 1-.05-.15c.15-.33 1.01-.76 1.32-.94 2.4-1.4 4.63-2.85 5.86-3.63a14 14 0 0 1 6.65-2.3c.36-.03.65 0 .88.07.14.04.15.1.01.17-.15.07-.28.12-.4.15Z" fill="#5E9D31"/><path d="M25.81 37.45c-.91.65-1.86 1.25-2.84 1.8-.63.35-1.27.66-1.93.94-.1-.06-.25-.07-.46-.04a8.4 8.4 0 0 0 2-1.37l1.38-.87 1.85-.46Z" fill="#9C7201"/><path d="M22.57 38.78a8.4 8.4 0 0 1-1.99 1.37 8.2 8.2 0 0 1-2 .48c.33-.12.68-.23.97-.4.3-.17.6-.22.9-.37.46-.24.98-.48 1.56-.73.05-.03.08-.06.1-.09a.26.26 0 0 0 .02-.14l.44-.12Z" fill="#FBAF01"/><path d="M21.04 40.2c-1.28.58-2.67 1.03-4.17 1.33l-2.33-.45.2-.07c1.3-.02 2.58-.15 3.85-.38a8.2 8.2 0 0 0 2-.48c.2-.03.36-.02.45.04Z" fill="#5E9D31"/><defs><linearGradient id="a" x1="46.33" y1="20.82" x2="7.82" y2="36.63" gradientUnits="userSpaceOnUse"><stop stop-color="#A62C1F"/><stop offset=".5" stop-color="#CB3525"/><stop offset="1" stop-color="#A62C1F"/></linearGradient></defs></svg>