<!-- by TradingView --><svg width="56" height="56" viewBox="0 0 56 56" xmlns="http://www.w3.org/2000/svg"><path fill="#F0F3FA" d="M0 0h56v56H0z"/><path d="m28.24 10.29 6.74 14.72c.13.3.32.57.54.8l9.85 9.97c.2.2.17.36-.11.45l-16.6 5.65c-.45.16-.94.16-1.39.01l-16.6-5.42a.25.25 0 0 1-.1-.41c2.12-2.21 5.06-5.32 8.8-9.32.8-.86 1.45-1.83 1.95-2.91 1.2-2.6 3.33-7.12 6.38-13.54.19-.39.37-.39.54 0Zm1.89 26.42-.7 3.68c-.04.22.05.3.27.25.54-.14.96-.18 1.24-.13l.04-.02v-.05a.17.17 0 0 0-.08-.1 3.95 3.95 0 0 1-1.12-.61c-.13-.1-.14-.2-.02-.32l.16-.16c.07-.07.15-.08.23-.03.69.39 1.37.49 2.05.28 3.5-1.03 6.7-2.05 9.62-3.03a.61.61 0 0 0 .39-.44.6.6 0 0 0-.16-.56l-7.28-7.25c-.17-.16-.31-.15-.43.06l-.18.3c-.14.21-.23.2-.27-.05a4.1 4.1 0 0 1-.03-1.22l.53-1.22a.36.36 0 0 0-.34-.5H21.63a.27.27 0 0 0-.26.36l6.27 15.33a.36.36 0 0 0 .36.22c.14-.01.24-.1.3-.25.59-1.5 1.2-3.02 1.83-4.54Z" fill="#4CA7FB"/><path d="m22.77 22.86 4.88-10.45a.3.3 0 0 1 .28-.17.3.3 0 0 1 .28.18l4.82 10.53c.07.16.02.25-.15.27-3.35.42-6.68.38-9.99-.12-.14-.02-.19-.1-.12-.24ZM33.86 27.3c-.05.42-.04.83.03 1.23.04.25.13.26.26.04l.19-.3c.12-.2.26-.21.43-.05l7.28 7.25a.6.6 0 0 1 .02.83.62.62 0 0 1-.25.17c-2.91.98-6.12 2-9.62 3.03-.68.2-1.36.11-2.05-.28-.08-.05-.16-.04-.23.03l-.16.16c-.12.11-.11.22.02.32.37.29.74.5 1.12.62a.16.16 0 0 1 .08.1v.04l-.04.02c-.28-.05-.7-.01-1.24.13-.22.05-.3-.03-.27-.25l.7-3.68 3.73-9.4ZM25.95 40.63 13.03 36.4a.34.34 0 0 1-.22-.42c.01-.05.04-.1.09-.15l7.94-7.92a.34.34 0 0 1 .56.12l4.97 12.14a.34.34 0 0 1-.42.46Z" fill="#BFDBFE"/></svg>