<!-- by TradingView --><svg width="56" height="56" viewBox="0 0 56 56" xmlns="http://www.w3.org/2000/svg"><path fill="#F0F3FA" d="M0 0h56v56H0z"/><path d="M12 22V27.62c0 .01 0 .02.02.02a.04.04 0 0 0 .04 0L19.2 22h3.7l-5.7 4.23-.02.01a.05.05 0 0 0 0 .06l7.8 7.63c.05.04.04.07-.03.07h-7.48a.18.18 0 0 1-.14-.06l-3.75-4.33c-.05-.05-.1-.06-.15-.01l-1.36 1.07c-.05.03-.06.08-.06.13v3.1c0 .06-.04.1-.1.1H6V22h6ZM32 22v11.91c0 .06-.03.09-.09.09h-5.83c-.05 0-.08-.03-.08-.08V22h6ZM44.12 22l6.87 11.94a.04.04 0 0 1 0 .04v.01h-6.24a.13.13 0 0 1-.12-.06l-1.94-3.48a.14.14 0 0 0-.13-.08h-5.32c-.02 0-.05 0-.07.02a.14.14 0 0 0-.05.05l-1.93 3.48a.14.14 0 0 1-.13.08H32.17l-.02-.03a.06.06 0 0 1 0-.05L39.4 22h4.72Zm-4.01 3.54a.05.05 0 0 0-.1 0l-1.7 2.8a.06.06 0 0 0 0 .05l.01.02h3.32l.02-.02.01-.03v-.02l-1.56-2.8Z" fill="#6E0E1C"/></svg>