<!-- by TradingView --><svg width="56" height="56" viewBox="0 0 56 56" xmlns="http://www.w3.org/2000/svg"><path fill="#F0F3FA" d="M0 0h56v56H0z"/><path fill-rule="evenodd" d="M25.07 42c1.28 0 2.52-.17 3.7-.49A13.9 13.9 0 0 0 45 34h-9.49c-1.52 2.62-4 4.6-6.97 5.5A12.21 12.21 0 0 1 20.52 28c0-5.3 3.34-9.8 8.02-11.5 2.97.9 5.45 2.88 6.97 5.5H45a13.9 13.9 0 0 0-16.23-7.51A14.04 14.04 0 0 0 11 28c0 7.73 6.3 14 14.07 14Zm0-2h.18a14.01 14.01 0 0 1-6.74-12c0-5.1 2.7-9.55 6.74-12h-.18A12.03 12.03 0 0 0 13 28c0 6.63 5.4 12 12.07 12ZM33 22h2.5v12H33V22Zm-6.5 0H24v12h2.5v-3.58l.65-.99L29.4 34h2.38l-3.23-6.73L32 22h-2.56l-2.94 5.04V22Z" fill="#FE0002"/></svg>