<!-- by TradingView --><svg width="56" height="56" viewBox="0 0 56 56" xmlns="http://www.w3.org/2000/svg"><path fill="#F0F3FA" d="M0 0h56v56H0z"/><path fill-rule="evenodd" d="M28 44c2.49 0 4.85-.57 6.95-1.58H35v-.03a16 16 0 0 0 0-28.78v-.03h-.05a15.94 15.94 0 0 0-13.9 0H21v.03a16 16 0 0 0 0 28.78v.03h.05A15.93 15.93 0 0 0 28 44Zm1.5-1.58c.86-.08 1.7-.25 2.5-.48V29.5h-8v12.44c.8.23 1.64.4 2.5.48V32h3v10.42ZM24 26.5V14.06c.8-.23 1.64-.4 2.5-.48V24h3V13.58c.86.08 1.7.25 2.5.48V26.5h-8ZM42.5 28c0 .3 0 .58-.03.87H37v8a12.6 12.6 0 0 0 3.39-6.37h1.9A14.52 14.52 0 0 1 35 40.7V15.3a14.52 14.52 0 0 1 7.29 10.2h-1.9A12.6 12.6 0 0 0 37 19.13v8h5.47l.03.87Zm-29 0c0-.3 0-.58.03-.87H19v-8a12.6 12.6 0 0 0-3.39 6.37h-1.9c.77-4.4 3.52-8.12 7.29-10.2v25.4a14.52 14.52 0 0 1-7.29-10.2h1.9A12.6 12.6 0 0 0 19 36.87v-8h-5.47L13.5 28Z" fill="#BDAA89"/></svg>