<!-- by TradingView --><svg width="56" height="56" viewBox="0 0 56 56" fill="none" xmlns="http://www.w3.org/2000/svg">
<rect width="56" height="56" fill="#F0F3FA"/>
<path d="M31.0474 27.1818L24.625 36.125L40.3106 42.9287C40.4575 42.9851 40.6178 43 40.7712 43C41.1421 43 41.5049 42.855 41.7433 42.5661C41.9183 42.3531 42 42.0959 42.0034 41.8389C42.0015 41.5999 41.9225 41.3609 41.7653 41.1576" fill="#02579D"/>
<path d="M20.4779 13.4625C20.2232 13.1601 19.8147 13 19.394 13.0006C19.2655 13.0027 19.1359 13.021 19.0091 13.0566C18.4696 13.2093 18 13.6562 18 14.375V23.3847L26.0688 20.0349" fill="#02579D"/>
<path d="M31.203 27.3033L33.35 30.1882L26.0001 36.7188L23.8325 35.8609" fill="#13285B"/>
<path d="M41.6972 13.4061C41.4437 13.1416 41.0762 12.9992 40.7009 13C40.5101 13.0004 40.3174 13.0379 40.1367 13.1152L14.2591 24.5417C14.2591 24.5417 13.8202 24.7385 13.6668 24.8192C13.1817 25.084 13 25.3635 13 25.9688C13 26.574 13.5444 27 14.2591 27C14.8096 27 15.6136 26.6723 16.1162 26.574C18.3747 25.8907 20.6411 24.818 24.1405 23.6901L24.1547 23.6843L24.1991 23.6739C24.2596 23.6541 24.3238 23.6425 24.3931 23.6425C24.7408 23.6425 25 23.8911 25 24.1953C25 24.3759 24.9314 24.5414 24.7749 24.6424L24.7525 24.6546L24.7167 24.679C20.8857 27.4313 18.6806 30.9296 17.1575 34.8797C16.5898 36.3499 16.2218 37.7298 16.079 39.2401V39.243C16.0346 39.6988 15.9999 40.1593 15.9999 40.6163C15.9999 41.4568 15.9999 42.673 16.9702 42.9389C17.1037 42.9754 17.2379 42.9958 17.3735 42.9958C17.7776 42.9958 18.1687 42.828 18.4167 42.5312L41.7508 14.7968C41.9154 14.5999 41.998 14.3692 41.9999 14.1387C42.002 13.8777 41.9006 13.617 41.6972 13.4061Z" fill="#FDA715"/>
</svg>
