<!-- by TradingView --><svg width="56" height="56" viewBox="0 0 56 56" xmlns="http://www.w3.org/2000/svg"><path fill="#F0F3FA" d="M0 0h56v56H0z"/><path d="M26.8 28.8c.48.48.93.68 2.24 1 .45.12.76.2.96.29.23.09.59.33.38.62-.1.15-.35.27-.7.32-.7.11-1.38-.1-2-.6a1.39 1.39 0 0 0-.51-.26c-.64-.11-1.29.43-1.29 1.07 0 .65.94 1.33 2.28 1.66.3.07.79.1 1.25.1 1.57-.03 3.23-.93 3.08-2.73-.13-1.55-1.7-2.03-3-2.32-.72-.16-1.18-.36-1.23-.52-.1-.35.3-.49 1.15-.49.33 0 .58.05.9.27.59.43.75.5 1.03.5.52 0 .87-.24 1-.7.12-.46-.19-.97-.82-1.38a3.83 3.83 0 0 0-2.29-.63c-.93.02-1.96.31-2.55 1-.67.8-.63 2.06.11 2.8ZM14 25v7c0 .54.42.85.7.93.12.04.46.07.76.07H16v-3.59c0-3.37 0-3.6-.1-3.81-.23-.46-.52-.6-1.28-.6H14ZM6 27.1V32s0 1 1 1h1v-2.9c0-.16.3-.28.4-.2l2.3 2.68c.24.28.5.4.9.42.53.03 1.04-.46 1-1a1.95 1.95 0 0 0-.52-1.03L10.1 28.7c.64-.65 1.33-1.25 1.98-1.89.2-.2.34-.35.37-.42.3-.57-.13-1.32-.76-1.38l-.16-.01c-.2 0-.35.06-.53.2-.27.2-.73.6-1.22 1.03L8 27.8V23a1 1 0 0 0-1-1H6v5.1Z" fill="#088BCF"/><path d="M16.15 23.15a1.15 1.15 0 1 1-2.3 0 1.15 1.15 0 0 1 2.3 0Z" fill="#FFB116"/><path fill-rule="evenodd" d="M21 33a3.91 3.91 0 0 1-4-4.05c.01-2.24 1.7-4 4.09-3.94A3.87 3.87 0 0 1 25 28.95 3.9 3.9 0 0 1 21 33Zm1.58-5.23a2 2 0 0 1-.27 2.74c-.3.3-.73.47-1.22.49a2 2 0 0 1-1.33-3.57c.34-.29.8-.45 1.33-.43.65.02 1.17.32 1.49.77Z" fill="#088BCF"/><path fill-rule="evenodd" d="M37.5 33a3.91 3.91 0 0 1-4-4.05c.01-2.25 1.7-4 4.09-3.95a3.87 3.87 0 0 1 3.91 3.95 3.9 3.9 0 0 1-4 4.05Zm1.58-5.23a2 2 0 0 1-.27 2.73c-.3.3-.73.48-1.22.5a2 2 0 0 1-1.33-3.57c.34-.3.8-.46 1.33-.43.65.02 1.17.31 1.49.77Z" fill="#FFB116"/><path d="M43.8 25H43v8h.8c.66 0 1.2-.54 1.2-1.2v-3.3a1.5 1.5 0 0 1 3 0v3c0 .83.67 1.5 1.5 1.5h.5v-4.75a3.25 3.25 0 0 0-5.15-2.64A1.2 1.2 0 0 0 43.8 25Z" fill="#FFB116"/></svg>