<!-- by TradingView --><svg width="56" height="56" viewBox="0 0 56 56" xmlns="http://www.w3.org/2000/svg"><path fill="#F0F3FA" d="M0 0h56v56H0z"/><path d="M27.64 32.2a2.39 2.39 0 0 0 1.33-1.86c.06-.4.03-1.26.03-2.6v-7.6c0-.05.15-.14.2-.14h3.21c.03 0 .05 0 .06.03.02.01.03.03.03.06 0 3.75 0 6.76-.02 9.03 0 1.14-.08 2.1-.24 2.84-.7 3.45-4.14 4.23-7.16 4a.05.05 0 0 1-.03-.01L22 32.64a.05.05 0 0 1 0-.06.05.05 0 0 1 .04-.03c1.4.01 2.8 0 4.22-.01.45 0 .91-.12 1.37-.34ZM36.5 36h-3.46a.04.04 0 0 1-.03-.01.04.04 0 0 1-.01-.03V20.04a.04.04 0 0 1 .02-.04h3.67l.01.02 6.61 10.52a.04.04 0 0 0 .07-.02V20.04a.04.04 0 0 1 .04-.04h3.54l.03.01.01.03v15.92a.04.04 0 0 1-.04.04H43.1l-.01-.02-6.47-10.3a.04.04 0 0 0-.07.02v10.26a.04.04 0 0 1-.04.04Z" fill="#231F20"/><path d="M9.05 20H15.98l.02.03a.05.05 0 0 1-.01.05l-6.91 7.9-.02.02h-.03l-.02-.02-.01-.03v-7.9l.01-.04.04-.01Z" fill="#F15725"/><path d="M17.22 28c0 .03.01.06.03.08a30937.56 30937.56 0 0 0 6.99 7.86v.03a.05.05 0 0 1-.05.03h-3.94a.37.37 0 0 1-.28-.12l-5.98-6.58c-.4-.44-.56-.72-.56-1.3 0-.58.17-.86.56-1.3l5.98-6.57a.38.38 0 0 1 .28-.13h3.94a.05.05 0 0 1 .03.08l-6.97 7.84a.12.12 0 0 0-.03.08ZM9.02 32.19l1.86-2.17.01-.02a.04.04 0 0 1 .04 0l.01.02 5.05 5.9.01.02v.03l-.02.02-.02.01H9.05l-.03-.01-.02-.04v-3.73c0-.01 0-.02.02-.03Z" fill="#231F20"/></svg>