<!-- by TradingView --><svg width="56" height="56" viewBox="0 0 56 56" xmlns="http://www.w3.org/2000/svg"><path fill="#F0F3FA" d="M0 0h56v56H0z"/><path d="M23 42.53a16.84 16.84 0 0 1-10.45-8.87l-.09-.17a16.81 16.81 0 0 1-1.42-7.94 18.07 18.07 0 0 1 5.9-12.08c.37-.35.97-.47 1.36-.76h.03V12.8a19.81 19.81 0 0 0-3.4 4.12 18.9 18.9 0 0 0-2.26 5.9c-.17.96-.33 1.88-.29 2.84 0 .02.01.03.02.03l.03.02h.01c0-.24.02-.4.03-.47.17-.82.27-1.57.54-2.42.07-.22.18-.43.32-.64a278.64 278.64 0 0 1 .46-.62l.02.01v.02a4.92 4.92 0 0 0-.36 1.48c.27-.93.64-1.87 1.1-2.81a16.68 16.68 0 0 1 3.84-5.09 16.17 16.17 0 0 1 7.3-3.77c.49-.08.83-.19 1.34-.25 2.36-.3 4.6-.15 6.73.43 3.34.9 6.26 2.68 8.75 5.32.28.3.39.78.6 1.1.07.1.1.2.12.28 0 .05-.01.05-.05.02-2.3-2.46-4.99-4.18-8.05-5.15-1.57-.5-3.28-.77-5.13-.8h-.03c-.02.02-.02.02 0 .03l1.52.22c.31.04.85.17 1.63.4.27.07.48.16.64.27.25.18.44.31.55.41.18.17.16.2-.07.1a4 4 0 0 0-.74-.27c-.16-.04-.4-.04-.58-.13l-.02.01.03.03 1.45.52c.22.07.43.21.7.3l.27.11c3.67 1.74 6.6 4.6 8.24 8.3a15.85 15.85 0 0 1 1.05 3.33c.1.52.18.91.22 1.18.43 3.2-.12 6.5-1.47 9.43a18.42 18.42 0 0 1-4.32 5.93c-.11.1-.2.17-.28.2a6.06 6.06 0 0 0-1.04.53l-.02-.04c-.02-.03-.02-.07.01-.1a18.39 18.39 0 0 0 4.48-6.3c.25-.6.47-1.1.63-1.65.32-1.1.55-2.17.7-3.25a13.37 13.37 0 0 0 .06-1.88 17 17 0 0 1-.49 2.69c-.13.51-.24.84-.34.97l-.41.59c-.17.24-.2.22-.1-.06a11.61 11.61 0 0 0 .35-1.44c-.16.33-.18.68-.34.98-.13.26-.26.7-.37.97a16.59 16.59 0 0 1-6.32 7.64 16.57 16.57 0 0 1-11.82 2.37c-.5-.1-.94-.15-1.4-.29-.78-.23-1.3-.37-1.9-.6a18.73 18.73 0 0 1-6.9-4.67c-.36-.38-.6-1.02-.78-1.38-.1-.2-.07-.21.07-.05a18.4 18.4 0 0 0 8.82 5.33c.9.26 1.77.36 2.6.5.4.06.95.04 1.35.1l.33-.03v-.01c-.41-.04-.83-.16-1.2-.21a11.8 11.8 0 0 1-1.9-.43 2.24 2.24 0 0 1-.62-.27l-.6-.43c-.12-.1-.11-.12.05-.07.47.15.88.3 1.3.32.06 0 .06 0 .01-.02Zm-4-24.78a13.67 13.67 0 0 0-2.95 5.5 14.1 14.1 0 0 0-.38 5.43c.01.08.04.15.09.2-.05.02-.08.05-.07.09l.24 1.2a15.14 15.14 0 0 0 2.63 5.73c.1.13.2.21.27.33.09.13.07.15-.06.06l-.69-.48c-.22-.15-.31-.3-.51-.56a30 30 0 0 1-1.16-1.81 21.9 21.9 0 0 1-1.16-2.7c-.13-.52-.33-1-.41-1.5a13.83 13.83 0 0 1-.03-5.88c.13-.68.35-1.31.52-1.9v-.03h-.04l-.32.68a17.37 17.37 0 0 0-1.59 6.58 3.97 3.97 0 0 0 .17 1.42c.7 2.62 2.03 4.86 3.99 6.72.04.04.09.04.15.02.05.1.14.22.27.33a13.89 13.89 0 0 0 11.16 3.1 15.25 15.25 0 0 0 7.1-3.1c.12-.11.14-.1.06.05l-.4.62c-.12.17-.3.34-.53.52a15.33 15.33 0 0 1-9.54 3.11 14.58 14.58 0 0 1-4.5-.85l.01.03c1.17.6 2.41 1.08 3.73 1.42.33.09.76.14 1.08.23.27.07.54.13.8.16.78.1 1.38.15 1.82.18.27.02.56 0 .87-.08 2.9-.67 5.35-2.09 7.33-4.24.03-.03.03-.06.02-.08a.52.52 0 0 0 .12-.11 13.64 13.64 0 0 0 3.33-8.56 16.23 16.23 0 0 0-.2-3.12 15.37 15.37 0 0 0-3.02-6.65c-.1-.14-.09-.16.06-.07l.68.48c.17.12.34.3.52.56a17.5 17.5 0 0 1 1.77 3.1 14.61 14.61 0 0 1 .46 10.6v.04c.02.02.03.01.04 0 .36-.7.6-1.25.73-1.62.26-.76.47-1.26.6-1.9L42.3 30c.18-.82.25-1.58.35-2.45.04-.37.05-.62.02-.75a16.82 16.82 0 0 0-1.09-3.34 13.55 13.55 0 0 0-7.13-6.83c-.45-.2-.87-.32-1.24-.45-.32-.1-.64-.2-.96-.26-1-.2-1.95-.33-2.85-.37-.76-.04-1.51.03-2.25.2a.34.34 0 0 0-.2-.04c-2.62.42-5 1.44-7.11 3.07-.2.16-.23.14-.07-.07.15-.17.26-.34.35-.51.09-.15.23-.3.43-.45a14.97 14.97 0 0 1 12.05-2.96c.64.12 1.49.4 2 .57l.02-.01-.01-.03a12.84 12.84 0 0 0-1.73-.78c-.54-.24-1.13-.36-1.68-.54-.59-.19-1.2-.26-1.75-.39-.22-.05-.51-.1-.89-.13l-1.4-.11c-.23-.01-.46 0-.7.06a14 14 0 0 0-7.46 4.33Z" fill="#2F6DAF"/><path d="M16.4 26.32c-.03.05-.04.08-.04.13.17 2.9 1.27 5.39 3.28 7.48a11.73 11.73 0 0 0 3.74 2.66c.12.07.25.1.4.1l.03.04c.01.02 0 .03-.02.04-.37.04-.7 0-1-.1-.32-.13-.82-.38-1.5-.76a11.66 11.66 0 0 1-5.53-7.02.43.43 0 0 1-.09-.2 14.1 14.1 0 0 1 .38-5.45A13.67 13.67 0 0 1 19 17.75c.04.04.09.03.14-.01a12.04 12.04 0 0 1 4.2-2.46c.36-.17.77-.22 1.14-.34.4-.13.67-.05 1.04-.05.06 0 .07.03.02.07a15 15 0 0 0-2.73 1c-.84.4-1.73 1-2.67 1.83a11.21 11.21 0 0 0-3.79 8.39c0 .06.02.1.06.14Z" fill="#70B5DB"/><path d="M38.15 18.92c.1.16.2.3.32.45a12.25 12.25 0 0 1 2.6 5.12c.06.28.06.62 0 1-.01.06-.03.06-.05.01-.15-.37-.26-.94-.4-1.33-.45-1.17-.99-2.2-1.64-3.09a11.33 11.33 0 0 0-8.32-4.73c-.42-.04-.81-.02-1.18.07a2.94 2.94 0 0 0-.15-.03 11.53 11.53 0 0 0-7.25 3.27l-.02-.02h-.02a12.76 12.76 0 0 0-2.76 4.07c-.07.15-.1.14-.06-.02.05-.32.03-.64.17-.98a12.5 12.5 0 0 1 1.96-3.2 11.68 11.68 0 0 1 5.79-3.77 8.25 8.25 0 0 1 2.24-.2c.9.04 1.86.16 2.86.37.32.06.64.15.95.26.38.13.8.24 1.25.45a13.48 13.48 0 0 1 3.7 2.3Z" fill="#70B5DB"/><path d="M29.48 16.42c2.22.31 4.1 1.24 5.61 2.78.2.21.27.35.39.62.06.14.04.15-.06.04a10.7 10.7 0 0 0-1.83-1.49 8.85 8.85 0 0 0-2.82-1.14 8.08 8.08 0 0 0-3.4-.02 8.33 8.33 0 0 0-5.52 4 9.1 9.1 0 0 0-1.13 5.72c0 .03 0 .04-.02.03h-.01c-.01 0-.02 0-.02-.02a5.29 5.29 0 0 1-.3-2.26 9.35 9.35 0 0 1 1.7-4.97l.01-.05a11.53 11.53 0 0 1 7.25-3.27c.06 0 .11.02.15.03Z" fill="#B8DEE4"/><path d="M40.3 27.1c.1.75.14 1.58.12 2.48a13.64 13.64 0 0 1-3.33 8.56.52.52 0 0 1-.12.1.45.45 0 0 0-.14.1c-.66.58-1.37 1.08-2.14 1.5-.99.54-2.05.95-3.2 1.24-.4.1-.72 0-1.1.04l-.01-.01v-.06l.02-.02.61-.15c.45-.1.8-.25 1.31-.45.24-.1.47-.19.7-.3 1.25-.6 2.36-1.39 3.33-2.35a11.19 11.19 0 0 0 3.23-6.6 5.1 5.1 0 0 0 0-1.58c.04-.2.03-.5-.01-.86a11.45 11.45 0 0 0-3.1-6.55c-.06-.06-.12-.1-.15-.1v-.06a12.31 12.31 0 0 0-3.92-2.7c-.39-.16-.37-.2.04-.13.22.04.47.05.72.15a11.9 11.9 0 0 1 7 7.54c.03.08.08.15.15.2Z" fill="#70B5DB"/><path d="M36.32 22.09c.03 0 .09.04.15.1 1.73 1.83 2.76 4.01 3.1 6.55.04.37.05.65 0 .86-.21 1.3-.57 2.39-1.07 3.27-.46.82-1.02 1.55-1.67 2.21-.19.18-.42.4-.65.4-.07 0-.09-.02-.03-.07a8.74 8.74 0 0 0 2.66-7.87 7.6 7.6 0 0 0-.6-1.94 8.76 8.76 0 0 0-8.98-4.92c-.05 0-.06 0 0-.04.14-.1.3-.15.49-.18a8.44 8.44 0 0 1 3.56.21 8.7 8.7 0 0 1 2.1.84c.29.16.6.42.94.58ZM19.64 33.93a11.47 11.47 0 0 1-3.28-7.48c0-.05.02-.08.04-.13a.18.18 0 0 0 .07-.12c.15-.77.33-1.42.53-1.96a8.98 8.98 0 0 1 2.31-3.42c.17-.16.4-.23.56-.39h.04l.01.02a10.25 10.25 0 0 0-2.1 2.95c-.13.3-.25.7-.36 1l-.13.4a8.32 8.32 0 0 0 1.76 7.64 8.61 8.61 0 0 0 6.66 2.93c.37.02.7-.08 1.03-.05.18.02.18.05 0 .1-.43.12-.86.19-1.28.2a8.74 8.74 0 0 1-5.06-1.25c-.27-.16-.53-.3-.8-.44Z" fill="#B8DEE4"/><path d="M33.98 36.33a11.3 11.3 0 0 1-7.47 3.31c-.03 0-.07 0-.13-.03a.86.86 0 0 0-.37-.14 8.8 8.8 0 0 1-4.75-2.33c-.34-.32-.54-.48-.7-.84-.06-.17-.04-.19.09-.06a8.95 8.95 0 0 0 6.17 2.72 8.33 8.33 0 0 0 8.23-6.33c.16-.58.25-1.05.27-1.43.04-.72.05-1.33.01-1.83-.01-.24.02-.25.1-.02.09.22.14.48.17.77.05.52.05 1.07 0 1.66-.01.22-.08.6-.19 1.13a8.06 8.06 0 0 1-1.4 3.2c-.03.05-.05.12-.03.22Z" fill="#B8DEE4"/><path d="m26.38 39.61.13.03a11.3 11.3 0 0 0 7.46-3.31 11.81 11.81 0 0 0 2.77-4.15c.03-.05.04-.05.04.01 0 .5-.06.87-.28 1.37a12.18 12.18 0 0 1-6.02 6.12c-.14.07-.41.17-.8.3-.27.1-.54.2-.8.33a13.89 13.89 0 0 1-10.92-3.13.92.92 0 0 1-.27-.33 12.49 12.49 0 0 1-2.59-4.71c-.06-.23-.28-.86-.24-1.11.04-.19.05-.37.04-.56 0-.04.01-.05.05-.03l.05.08a10.44 10.44 0 0 0 .88 2.45 11.8 11.8 0 0 0 4.87 5.3c.46.27 1.08.54 1.84.81 1.15.4 2.38.6 3.7.57.04 0 .07-.01.1-.04Z" fill="#70B5DB"/></svg>