<!-- by TradingView --><svg width="56" height="56" viewBox="0 0 56 56" xmlns="http://www.w3.org/2000/svg"><path fill="#F0F3FA" d="M0 0h56v56H0z"/><path d="M22.72 17.1c-1.77.17-3.76.55-5.97 1.13-2.91.76-5.6 1.77-8.03 3.02a2.4 2.4 0 0 0-1.4 2.39c0 .19.08.35.23.47a.3.3 0 0 1-.03.18c-.3-.09-.48-.32-.51-.7a2.54 2.54 0 0 1 1.06-2.3c.41-.33 1.57-.87 3.47-1.6 3.9-1.5 7.84-2.49 11.84-2.98.34-.04.56-.21.66-.52.01-.02.02-.03.04-.03l.02.01c-.23.67-.69.98-1.38.93Z" fill="#404297"/><path d="M27.4 16.22c3.4-.27 6.82-.3 10.24-.06 3 .17 6.14.65 9.41 1.44.6.14 1.38.34 1.28 1.04a.46.46 0 0 1-.2.32.43.43 0 0 1-.36.05c-.69-.22-1.5-.42-2.44-.6-6.85-1.32-14.44-.8-21.38.46a94.8 94.8 0 0 0-5.13 1.18c-3.9 1-7.56 2.4-11 4.23-.06.03-.16.04-.3.01a.3.3 0 0 0 .03-.18.6.6 0 0 1-.23-.47 2.4 2.4 0 0 1 1.4-2.4 39.42 39.42 0 0 1 8.03-3.01c2.21-.58 4.2-.96 5.97-1.13.14.25.46.4.95.43a.16.16 0 0 1 .15.14l.08.58c0 .03.02.06.04.08l.09.03c.07 0 .12-.04.15-.12.01-.25.07-.48.19-.69a.4.4 0 0 1 .16-.15l.8-.46c.12-.07.1-.11-.04-.12l-.74-.03a.14.14 0 0 1-.1-.06c-.03-.04-.04-.08-.04-.11.02-.06.05-.09.1-.1l1.26-.15a.3.3 0 0 1 .27.1l.26.3c.07.07.1.06.11-.04l.01-.2c0-.03.02-.06.04-.09a.17.17 0 0 1 .08-.06c.29-.09.58-.14.87-.16Zm2.08 1.65.11-.02c.1 0 .2-.02.29-.03l-.4.05Z" fill="url(#a)"/><path d="m25.37 19.46.42-.01c.02 0 .04 0 .05.02l.02.05a.08.08 0 0 1-.06.08l-.41.05a.08.08 0 0 0-.07.08l.02.41c0 .02 0 .04-.02.05a.08.08 0 0 1-.13-.04l-.05-.4a.08.08 0 0 0-.03-.06.08.08 0 0 0-.06-.01l-.41.02c-.02 0-.04-.01-.05-.03a.08.08 0 0 1-.01-.1.08.08 0 0 1 .04-.03l.42-.05c.02 0 .04 0 .05-.02a.08.08 0 0 0 .02-.06l-.02-.41c0-.02 0-.04.02-.05a.08.08 0 0 1 .13.04l.05.4a.08.08 0 0 0 .08.07Z" fill="#C68CB2"/><path d="M23.75 19.76a16 16 0 0 1-.2 1.08c-.1.36-.35.45-.69.55-.11.04-.19.09-.23.15-.07.1-.04.14.08.12.58-.08.87.18.87.78.04.23 0 .3-.1.25l-.2-.7a.2.2 0 0 0-.16-.15l-.74-.15c-.33-.07-.34-.16-.01-.25.24-.08.5-.2.77-.34.07-.03.12-.1.15-.17l.46-1.17Z" fill="#5E2F4B"/><path d="m23.75 19.76.22.97c.02.1.08.15.17.17l.84.17c.26.06.27.13.02.24l-.84.36a.28.28 0 0 0-.16.16l-.33.9c0-.11-.03-.2-.09-.29 0-.6-.3-.86-.87-.78-.12.02-.15-.02-.08-.12.04-.06.12-.11.23-.15.34-.1.6-.19.68-.55a16 16 0 0 0 .2-1.08Z" fill="#D6ADC8"/><path d="M36.2 20.45c-.06-.08-.14-.11-.23-.09-.79.2-2.52.81-2.75 1.74a.25.25 0 0 0 .1.26c.03.02.06.04.1.04.7.15.67 1.12.61 1.85-.03 1.6.01 3.28-.21 4.86-.09.6-.91.8-.33 1.53.07.09.2.14.4.15.8.05 1.6-.02 2.4-.22-.6.23-1.32.34-2.2.34-.68 0-1-.3-.95-.9.01-.09.04-.16.1-.21.3-.34.46-.65.48-.95a87.61 87.61 0 0 0 .07-6.03.3.3 0 0 0-.07-.1c-.12-.1-.29-.2-.5-.26a.22.22 0 0 1-.14-.17c-.21-1.14 2.04-1.85 2.91-2.01h.1l.07.06.05.1ZM20.56 22.33c-.89.35-2.98 1.38-2.91 2.62 0 .08.03.15.08.21.04.06.12.13.22.2.38.28.48 1.11.5 1.55l-.16 4.8a1.8 1.8 0 0 1-.46 1.06c-.04.05-.1.06-.18.03.31-.3.47-.63.48-.99.07-2.36.08-4.26.03-5.7-.03-.81-1-.68-.66-1.7.32-1.01 2.1-1.9 3.03-2.22a.1.1 0 0 1 .12.04c.04.07.01.1-.1.1Z" fill="#5E2F4B"/><path d="M23.67 22.73c.02.1.02.18 0 .22-.07.15-.13.15-.18-.01a1 1 0 0 1-.01-.25c.1.06.14-.03.1-.25.06.08.09.18.09.29Z" fill="#C68CB2"/><path d="M37.88 23.28c-.53.28-.67.69-.42 1.23.03.07.03.15 0 .22-.14.34-.5.57-1.1.69.47-.24.78-.48.96-.72a.2.2 0 0 0 .02-.22c-.28-.57-.23-1.12.54-1.2ZM29.96 23.59l.05.04c-.43.23-.74.6-.94 1.08a.37.37 0 0 1-.14.18l-.3.19c.38-.52.66-1.26 1.33-1.5ZM44.89 23.74c-.95-.17-1.75 0-2.42.51-1.75 1.33-1.87 4.65.06 5.93.65.39 1.2.54 1.64.44l1.34-.27c-1.95 1-4-.05-4.43-2.11-.28-1.4-.03-3 1.06-3.97.76-.68 1.68-.86 2.75-.53ZM28.26 23.86c-.47-.03-1.2.5-1.63.74v-.1c.44-.37.91-.62 1.43-.77.05-.02.09 0 .1.06.02.06.06.08.1.07ZM14.37 24.08c-1.03.5-1.4 1.2-1.12 2.1a.4.4 0 0 1 0 .23 6.2 6.2 0 0 1-1.35 2.48l1.15-2.47a.3.3 0 0 0 .01-.23c-.34-1.03.32-1.8 1.31-2.11ZM24.65 24.45a6.99 6.99 0 0 0-2.66 1.5c-.2.18-.3.43-.26.76.01.08.05.14.11.2.3.2.45.4.47.58.09.88.05 1.98-.11 3.3l-.49.88a.87.87 0 0 0-.1.46c0 .16.06.3.16.39.15.14.37.17.67.11.53-.1 1.05-.19 1.57-.24-.58.21-1.18.33-1.8.36-.71.04-.99-.6-.61-1.13.33-.47.51-.91.53-1.32.03-.88.04-1.83.03-2.83a.38.38 0 0 0-.22-.35c-.76-.34-.33-1.1.16-1.47a7.83 7.83 0 0 1 2.26-1.25c.17-.06.27-.04.3.05Z" fill="#5E2F4B"/><path d="M26.63 24.5v.1c-.4.24-1.07.7-1.07 1.21 0 .46.58.58.6 1.1.02.59.01 1.52-.03 2.8-.01.43-.1.77-.25 1.01-.15.23-.23.41-.22.53.03.39.18.53.58.54.68.01 1.36-.1 2.03-.31-.76.38-1.56.5-2.39.38a.32.32 0 0 1-.2-.12c-.52-.63.2-1.02.24-1.6.08-1.41.1-2.48.07-3.2-.01-.25-.16-.48-.43-.7a.38.38 0 0 1-.13-.19c-.23-.72.64-1.29 1.2-1.56ZM44.54 25.38c.44 1.16.6 2.24.48 3.25-.04.36-.18.55-.41.55a4.4 4.4 0 0 0-.54-4.14c.12 0 .27.1.47.34ZM11.04 25.42c-.62.33-1.19.68-1.69 1.05-.36.26-.58.63-.69 1.1-.02.13 0 .25.05.35.06.1.15.19.26.23.09.03.17.13.24.3.07.16.1.56.1 1.2 0 2.34-.02 4.04-.07 5.1-.03.74-.65 1.15-.62 1.84a.4.4 0 0 0 .18.31.4.4 0 0 0 .36.04 2 2 0 0 1 .75-.1c-.39.15-1.32.53-1.46-.16a.84.84 0 0 1 .1-.6c.3-.52.45-.9.46-1.14.1-1.86.11-3.9.04-6.1-.02-.44-.1-.49-.43-.71a.32.32 0 0 1-.14-.23c-.07-.52.13-.97.58-1.36a5.56 5.56 0 0 1 1.98-1.12ZM29.8 26.1c.25 1.15.28 2.3.1 3.47-.06.41-.33.78-.32 1.23a.4.4 0 0 0 .28.38c.05.02.11.03.17.02l1.78-.15c-.67.28-2.96.78-2.25-.81.31-.72.26-1.75.3-2.34a3.06 3.06 0 0 0-.56-2.11c.08-.06.25.05.5.3ZM40.86 30.34c-.96.23-1.8.3-2.52.22-.16-.01-.3-.15-.45-.4-.46-.79-.92-1.56-1.4-2.33-.04-.05-.02-.08.07-.09a.1.1 0 0 1 .1.06l1.38 2.36c.1.16.24.24.42.24l2.4-.06Z" fill="#5E2F4B"/><path d="M36.32 20.82a.83.83 0 0 0-.11-.37c-.07-.08-.15-.11-.24-.09-.79.2-2.52.81-2.75 1.74a.25.25 0 0 0 .2.3c.7.15.67 1.12.61 1.85l-.01 1.06a29.17 29.17 0 0 1-.2 3.8c-.03.22-.16.39-.29.54-.21.28-.4.52-.04.99.07.09.2.14.4.15.8.05 1.6-.02 2.4-.22.31-.15.46-.38.45-.7-.01-.1-.1-.32-.3-.66-.2-.38-.26-.8-.15-1.26a.15.15 0 0 1 .12-.11l.08-.01c-.05-.05-.02-.08.07-.09a.1.1 0 0 1 .1.06l1.38 2.36c.1.16.24.24.42.23l2.4-.05c.36-.27.41-.58.17-.95a2.22 2.22 0 0 0-.4-.4c-.16-.14-.35-.3-.47-.49a19.75 19.75 0 0 1-1.57-2.83.16.16 0 0 1 .02-.18 2.2 2.2 0 0 1 1.35-.86.2.2 0 0 0 .1-.06.2.2 0 0 0 .06-.1c.1-.42.04-.71-.16-.88-.6-.53-1.3-.63-2.08-.31-.53.28-.67.69-.42 1.23.03.07.03.15 0 .22-.14.34-.5.57-1.09.69a4.85 4.85 0 0 1-.08-2.4c-.03-.72-.01-1.46.03-2.2Z" fill="url(#b)"/><path d="M31.64 23.96c-.27-.31-.64-.5-1.13-.53-.54 0-1.1.47-1.44 1.28a.37.37 0 0 1-.14.18l-.3.19-.37-1.22c-.38-.02-.94.32-1.36.58l-.27.16c-.4.24-1.07.7-1.07 1.21 0 .23.14.37.28.52.15.15.3.32.32.58.02.59.01 1.52-.03 2.8-.01.43-.1.77-.25 1.01-.15.23-.23.41-.22.53.03.39.18.53.58.54.68.01 1.36-.1 2.03-.31.35-.08.53-.3.55-.64 0-.26-.1-.48-.19-.7a1.67 1.67 0 0 1-.17-.52c-.06-.67-.05-1.68.01-3.02.02-.37.3-.64.83-.81.08-.06.25.05.5.3.25 1.16.28 2.31.1 3.48-.02.17-.09.34-.15.5-.09.23-.18.47-.17.73a.4.4 0 0 0 .28.38c.05.02.11.03.17.02l1.78-.15c.2.04.4 0 .6-.14.41-.3.37-.86.12-1.23a1.5 1.5 0 0 1-.34-1c-.04-1.1-.06-2.2-.07-3.3 0-.4-.17-.87-.48-1.42Z" fill="url(#c)"/><path fill-rule="evenodd" d="M44.89 23.74c.3-.04.63.12.97.5 1.86 1.69 2.3 4.9-.35 6.1l-1.34.28c-.44.1-.99-.05-1.64-.44-1.93-1.28-1.81-4.6-.06-5.93.67-.5 1.47-.68 2.42-.5Zm-.82 1.3c.12 0 .27.1.47.34.44 1.16.6 2.24.49 3.25-.05.36-.19.55-.42.55l-.58-.2a7.16 7.16 0 0 1-.6-3.24c.01-.35.22-.59.64-.7Z" fill="url(#d)"/><path d="M24.79 24.73c0-.05-.04-.15-.14-.28a6.99 6.99 0 0 0-2.66 1.5c-.2.18-.3.43-.26.76.01.08.05.14.11.2.3.2.45.4.47.58.09.88.05 1.98-.11 3.3l-.49.88a.87.87 0 0 0-.1.46c0 .16.06.3.16.39.15.14.37.17.67.11.53-.1 1.05-.19 1.57-.24.87-.15 1.25-.6 1.13-1.35a.31.31 0 0 0-.1-.2c-.4-.33-.55-.76-.43-1.27-.02-1.61.04-3.23.18-4.84Z" fill="url(#e)"/><path d="M20.56 22.33c.16.12.24.26.24.41 0 .85-.08 1.81-.22 2.9l-.05 4.85v.18c-.02.54-.02.87.51 1.19.07.04.12.1.14.19.25 1.07-.82 1.4-1.68 1.56-.21-.03-.43 0-.65.04-.42.05-.82.11-1.11-.2-.04-.04-.07-.03-.09.02v.08a.27.27 0 0 0-.1.05c-.03.01-.05.05-.06.1-.06.22-.16.34-.3.36l-2.48.73a.32.32 0 0 1-.33-.1l-.74-.93a3.58 3.58 0 0 0-1.48-1.52c-.2.1-.31.21-.34.33-.13.49-.14.98-.05 1.47a.3.3 0 0 0 .14.2l.34.22c.07.04.11.1.13.17.15.5.06.89-.28 1.17-.53.46-1.26.8-2.19 1.05a2 2 0 0 0-.75.1.4.4 0 0 1-.49-.19.4.4 0 0 1-.05-.17c-.01-.36.14-.64.3-.92.15-.28.3-.56.32-.92.05-1.06.07-2.76.07-5.1a4.1 4.1 0 0 0-.1-1.2c-.07-.17-.15-.27-.24-.3a.48.48 0 0 1-.26-.23.51.51 0 0 1-.04-.34c.1-.48.32-.85.68-1.1.5-.38 1.07-.73 1.7-1.06.08-.12.24-.21.47-.27.62-.16.87.3.79.87-.03.2-.14.37-.26.54-.1.15-.2.3-.25.48a5.68 5.68 0 0 0-.18 1.7c0 .06.1.11.28.15a6.2 6.2 0 0 0 1.35-2.48.4.4 0 0 0 0-.23c-.28-.9.1-1.6 1.12-2.1.1-.1.42-.24.93-.43.49-.18.88-.2 1.16-.05.08.05.12.11.14.2.05.37.02.69-.1.94-.15.32-.43.44-.71.56-.26.1-.53.22-.7.48a25.8 25.8 0 0 0-1.06 1.72c-.28.52-.24 1 .14 1.46.38.46 1.12 1.46 2.21 3l1.1.82c.03.02.07.03.1.02a1.17 1.17 0 0 1 .07 0c.08.03.14.02.18-.03.28-.33.43-.68.46-1.05l.16-4.8c-.02-.45-.12-1.28-.5-1.55-.1-.08-.18-.15-.22-.2a.38.38 0 0 1-.08-.22c-.07-1.24 2.02-2.27 2.9-2.62Z" fill="url(#f)"/><path d="m13.64 33.76.74.93a.31.31 0 0 0 .33.1l2.48-.73-2.48.88a.44.44 0 0 1-.49-.14l-2.06-2.56c.56.28 1.06.78 1.48 1.52ZM19.5 33.6c-.53.17-1.42.45-1.84-.05v-.08c.01-.05.04-.06.08-.02.45.48 1.15.1 1.76.16Z" fill="#5E2F4B"/><path d="M47.01 33.03c1.2.1 1.87.68 1.99 1.75-.16.24-.3.38-.43.4a.77.77 0 0 1-.28.09c-2.23-.26-4.1-.4-5.58-.4-4.84-.04-9.87.39-15.1 1.27-6.57 1.1-13.01 2.83-19.05 5.79-.3.15-.42.06-.35-.27l.05-.25a.96.96 0 0 1 .52-.67 65.4 65.4 0 0 1 14.11-5.23 82.3 82.3 0 0 1 14.84-2.53c3.1-.24 6.19-.23 9.28.05Z" fill="url(#g)"/><path d="m24.62 27.87-2.27.44c0-.3-.02-.56-.04-.82-.02-.17-.18-.37-.47-.59a.28.28 0 0 1-.1-.2c-.04-.32.04-.57.25-.75a6.99 6.99 0 0 1 2.66-1.5c.1.13.14.23.14.28-.09 1.05-.15 2.1-.17 3.14Zm3.82-.6c-.76.1-1.52.22-2.27.34l-.01-.7c-.01-.26-.17-.43-.32-.58-.14-.15-.27-.3-.28-.52 0-.52.67-.97 1.07-1.2l.27-.17c.42-.26.98-.6 1.36-.58l.37 1.22.3-.2c.07-.04.11-.1.14-.17.34-.81.9-1.28 1.44-1.28.49.04.86.22 1.13.53.31.55.48 1.02.48 1.42 0 .49 0 .97.02 1.45-.73.07-1.46.15-2.18.24a9.62 9.62 0 0 0-.16-.97c-.25-.26-.42-.37-.5-.31-.54.17-.81.44-.83.81l-.03.66Zm10.53-.8c-1.67.01-3.33.09-4.97.2l.02-1.36.01-1.06c.06-.73.1-1.7-.62-1.85a.25.25 0 0 1-.16-.1.25.25 0 0 1-.03-.2c.23-.93 1.96-1.54 2.75-1.74.1-.02.17 0 .24.09.08.16.12.28.11.37-.04.74-.06 1.48-.03 2.2-.17.87-.15 1.67.08 2.4.59-.12.95-.35 1.1-.69a.28.28 0 0 0-.01-.22c-.25-.54-.1-.95.42-1.23.79-.32 1.48-.22 2.08.3.2.18.25.47.16.89a.2.2 0 0 1-.06.1.2.2 0 0 1-.1.06c-.52.09-.97.38-1.35.86a.16.16 0 0 0-.02.18l.38.8Zm8.36.48c-.15-1-.68-2-1.47-2.7-.34-.39-.66-.55-.97-.5-.95-.18-1.75 0-2.42.5a3.59 3.59 0 0 0-1.28 2.24c.75.02 1.5.05 2.24.1a7.21 7.21 0 0 1 0-.85c.01-.35.22-.59.64-.7.12 0 .27.1.47.34.17.45.3.89.39 1.31.8.07 1.6.16 2.4.26ZM20.55 28.7c-.74.16-1.47.33-2.17.5l.07-2.29c-.02-.44-.12-1.27-.5-1.54-.1-.08-.18-.15-.22-.2a.38.38 0 0 1-.08-.22c-.07-1.24 2.02-2.27 2.9-2.62.17.12.25.26.25.41 0 .85-.08 1.81-.22 2.9l-.03 3.06Zm-5.51 1.4a83.2 83.2 0 0 0-5.74 1.84l.01-2.3a4.1 4.1 0 0 0-.1-1.2c-.07-.16-.15-.26-.24-.3a.48.48 0 0 1-.26-.22.51.51 0 0 1-.04-.34c.1-.48.32-.85.68-1.1.5-.38 1.07-.73 1.7-1.06.08-.12.24-.21.47-.27.62-.16.87.3.79.87-.03.2-.14.37-.26.54-.1.15-.2.3-.25.48a5.68 5.68 0 0 0-.18 1.7c0 .06.1.11.28.15a6.2 6.2 0 0 0 1.35-2.48.4.4 0 0 0 0-.23c-.28-.9.1-1.6 1.12-2.1.1-.1.42-.24.93-.43.49-.18.88-.2 1.16-.05.08.05.12.11.14.2.05.37.02.69-.1.94-.15.32-.43.44-.71.56-.26.1-.53.22-.7.48-.5.75-.84 1.33-1.06 1.72-.28.52-.24 1 .14 1.46.2.23.48.61.87 1.13Z" fill="url(#h)"/><defs><linearGradient id="a" x1="7.32" y1="20.15" x2="48.33" y2="20.15" gradientUnits="userSpaceOnUse"><stop stop-color="#8384BC"/><stop offset="1" stop-color="#3D3F96"/></linearGradient><linearGradient id="b" x1="28" y1="27.16" x2="28.81" y2="31.72" gradientUnits="userSpaceOnUse"><stop stop-color="#EAD3E2"/><stop offset="1" stop-color="#CC99BA"/></linearGradient><linearGradient id="c" x1="28" y1="27.16" x2="28.81" y2="31.72" gradientUnits="userSpaceOnUse"><stop stop-color="#EAD3E2"/><stop offset="1" stop-color="#CC99BA"/></linearGradient><linearGradient id="d" x1="28" y1="27.16" x2="28.81" y2="31.72" gradientUnits="userSpaceOnUse"><stop stop-color="#EAD3E2"/><stop offset="1" stop-color="#CC99BA"/></linearGradient><linearGradient id="e" x1="28" y1="27.16" x2="28.81" y2="31.72" gradientUnits="userSpaceOnUse"><stop stop-color="#EAD3E2"/><stop offset="1" stop-color="#CC99BA"/></linearGradient><linearGradient id="f" x1="28" y1="27.16" x2="28.81" y2="31.72" gradientUnits="userSpaceOnUse"><stop stop-color="#EAD3E2"/><stop offset="1" stop-color="#CC99BA"/></linearGradient><linearGradient id="g" x1="15.15" y1="39.57" x2="49" y2="37.36" gradientUnits="userSpaceOnUse"><stop stop-color="#0098DB"/><stop offset="1" stop-color="#8FD2EF"/></linearGradient><linearGradient id="h" x1="24.85" y1="22.47" x2="25.61" y2="27.54" gradientUnits="userSpaceOnUse"><stop stop-color="#ECD8E4"/><stop offset="1" stop-color="#CFA0C0"/></linearGradient></defs></svg>