<!-- by TradingView --><svg width="56" height="56" viewBox="0 0 56 56" xmlns="http://www.w3.org/2000/svg"><path fill="#F0F3FA" d="M0 0h56v56H0z"/><path d="M28.03 11a18.06 18.06 0 0 1 17.92 19.43c-.32 4.27-2 8.05-5.05 11.33a.73.73 0 0 1-.55.24 482742.6 482742.6 0 0 0-24.74-.04.74.74 0 0 1-.55-.24 18.3 18.3 0 0 1-5.01-11.35A18.07 18.07 0 0 1 28.03 11ZM40 17a.1.1 0 0 0 .09-.04.1.1 0 0 0 .02-.1.63.63 0 0 0-.23-.3c-3.47-2.8-7.83-4.68-11.9-4.68s-8.2 1.88-11.67 4.68c-.11.1-.19.2-.22.3a.1.1 0 0 0 .02.1.1.1 0 0 0 .08.04H40Zm.67 23.68c2.85-3.38 4.38-7.1 4.38-11.51a.38.38 0 0 0-.27-.39L16.94 17.51c-.36-.14-.4-.07-.14.2l22.08 22.8c.6.63 1.12.97 1.79.17ZM16.26 18.4a.13.13 0 0 0-.23-.03.13.13 0 0 0-.03.08v22.42c0 .03.02.07.04.1.03.02.06.03.1.03h9.62a.13.13 0 0 0 .11-.06.13.13 0 0 0 .01-.12L16.26 18.4Z" fill="#177A47"/></svg>