<!-- by TradingView --><svg width="56" height="56" viewBox="0 0 56 56" xmlns="http://www.w3.org/2000/svg"><path fill="#F0F3FA" d="M0 0h56v56H0z"/><path d="M22.2 13.32c-.17.6-.19 1.01-.2 1.24v8.77l-8.1 14.21-5.68-.01a.22.22 0 0 1-.19-.11.22.22 0 0 1 0-.22l13.72-24.08a.23.23 0 0 1 .3-.1c.16.09.21.19.16.3Z" fill="#C93D3D"/><path d="m31.09 18.18 2.94 5.24 7.98 14.12L27.93 40c0-8.57 0-17.1-.02-25.6 0-.26-.18-.43-.53-.5.13-.44.29-.7.47-.8a.33.33 0 0 1 .24-.03.31.31 0 0 1 .2.15l2.8 4.96Z" fill="#1D4A60"/><path d="M34.52 13.5a3.3 3.3 0 0 0-.52 1.54v8.38l-2.91-5.24 2.78-4.98a.31.31 0 0 1 .41-.13c.05.02.1.05.13.1.05.06.08.17.11.33Z" fill="#C93D3D"/><path d="m22.2 13.32 2.73 4.82-2.93 5.2v-8.8c0-.22.03-.62.2-1.22ZM42 37.54l-8-14.12v-8.38a3.3 3.3 0 0 1 .52-1.54l13.43 23.78c.1.16.05.24-.13.24l-5.81.02Z" fill="#912D2D"/><path d="M27.39 13.9c.34.07.61.23.61.48V40l-14.1-2.46 8.24-14.51 2.8-4.89 2.45-4.25Z" fill="#296887"/></svg>