<!-- by TradingView --><svg width="56" height="56" viewBox="0 0 56 56" xmlns="http://www.w3.org/2000/svg"><path fill="#F0F3FA" d="M0 0h56v56H0z"/><path d="m17.01 15.27.57-.37c1.82-1.22 3.85-2.6 6.07-4.18a9.1 9.1 0 0 1 3.81-1.65c2.62-.45 4.61 1.5 6.7 2.93 2.27 1.54 4.69 3.14 7.26 4.79 1.54.99 3.15 2.55 3.49 4.35.06.34.09.9.09 1.71v11.41c-.01 1.33-.6 2.43-1.52 3.38-.26.26-.67.58-1.23.96l-8.35 5.65c-.55.37-1.1.75-1.67 1.16-.78.55-1.35.91-1.72 1.08a6.3 6.3 0 0 1-6.47-.87 612.25 612.25 0 0 0-10.56-7.21l-.78-.63c-1.42-1.18-1.66-2.9-1.67-4.6L11 24c0-1.72-.01-2.92.67-4.35.34-.7.87-1.3 1.6-1.82.9-.64 2.15-1.49 3.74-2.56Z" fill="#CFD0D3"/><path d="M28 12.46v3.95a92.4 92.4 0 0 1-3.48 2.21c-.96.02-2.29-1.48-3.06-2.08-.33-.25-.46-.18-.39.23.06.3.13.63.13.95-.01.7.01 1.27-.08 2.05-.05.46-.07.92-.06 1.36l-3.35 2.2c-.21-.05-.2-.14-.39-.27-.88-.61-1.75-1.24-2.62-1.88.89-1.6 2.64-2.26 4.04-3.3l6.79-4.65c.7-.5 1.53-.76 2.47-.77Z" fill="#1A1C3B"/><path d="m41.42 21.28-3.2 2.16L35 21.06v-4.4c0-.2-.13-.24-.3-.13l-3.28 2.18a11.9 11.9 0 0 0-3.42-2.3v-3.95c.91 0 1.72.25 2.42.73 2.5 1.72 5.29 3.6 8.37 5.6.76.5 1.48 1.09 2.16 1.78.11.12.27.36.47.71ZM34.92 25.63c-.35.36-.73.67-1.13.92-.8.52-1.6 1.02-2.42 1.52L28 25.76V21.24a.07.07 0 0 0-.03-.06.07.07 0 0 0-.05 0c-.24.05-.44.13-.65.29-.91.67-1.84 1.3-2.8 1.9L21 21.12v-4.36c-.07-.41.13-.48.46-.23l13.46 9.09Z" fill="#3266A1"/><path d="m35 21.06-3.48 2.28-3.45-2.33c1-.83 2.2-1.64 3.35-2.3l3.28-2.18c.17-.11.3-.07.3.12v4.41Z" fill="#1A1C3B"/><path d="M14.7 21.18 28 30.3v4.66c-.26.02-.38-.1-.73-.34L14 25.55s-.04-1.43 0-2.21c.04-.8.36-1.52.7-2.16Z" fill="#3266A1"/><path d="m28 25.75-3.39 2.23-3.42-2.3 3.28-2.32a35.6 35.6 0 0 0 2.8-1.9 1.7 1.7 0 0 1 .68-.32.07.07 0 0 1 .04.04l.01.03v4.54ZM41.42 21.28c.37.67.61 1.43.58 2.29v1.96l-14 9.42v-4.66l3.37-2.22c.81-.5 1.62-1 2.42-1.52.4-.25.78-.56 1.14-.92l3.28-2.19 3.2-2.16ZM28 43.65v-4c3.71-2.46 7.43-4.92 11.07-7.37l1.72-1.16a10.77 10.77 0 0 1 1.17-.7l.02.02v.03c.02.83.02 1.43.02 1.81a5.4 5.4 0 0 1-.36 2.37 6.53 6.53 0 0 1-2.33 2.27l-6.67 4.45-1.68 1.18c-.9.65-1.89 1.01-2.96 1.1Z" fill="#1A1C3B"/><path d="M28 39.64v4a5.9 5.9 0 0 1-2.86-1.04c-2.88-2.08-5-3.4-9.29-6.23a5.3 5.3 0 0 1-1.16-1.1 3.16 3.16 0 0 1-.64-1.75 26.8 26.8 0 0 1-.01-3.05l.02-.02a.06.06 0 0 1 .06 0L28 39.65Z" fill="#3266A1"/></svg>