<!-- by TradingView --><svg width="56" height="56" viewBox="0 0 56 56" xmlns="http://www.w3.org/2000/svg"><path fill="#F0F3FA" d="M0 0h56v56H0z"/><path d="M27.69 14.56h3.08L29.2 16h-3.05l1.55-1.44ZM41.57 14.57h1.37c.04 0 .06.01.06.05v1.33c0 .04-.02.05-.06.05H40l1.57-1.43ZM25.4 17h2.9l-1.37 1.4a.11.11 0 0 1-.08.04h-2.84l1.4-1.44ZM39.05 17h3.84c.07 0 .11.04.11.11v1.25a.1.1 0 0 1-.03.07.1.1 0 0 1-.07.03h-5.22L39.05 17ZM26.14 19.54 24.49 21h-3.13l1.62-1.46h3.16ZM35.36 21l1.27-1.45h6.28c.06 0 .09.03.09.1v1.27c0 .05-.02.08-.07.08h-7.57ZM20.53 22h3.36l-1.86 1.46h-3.35L20.53 22ZM34.39 22h8.51a.1.1 0 0 1 .1.1v1.26c0 .07-.03.1-.1.1H32.87l1.5-1.46ZM20.9 24.56 19.16 26h-3.11l1.84-1.43h3.03ZM29.85 26l1.48-1.46h11.6c.01 0 .03 0 .05.02l.02.06v1.3c0 .05-.02.08-.07.08H29.85ZM17.6 27c-.38.3-.4.7-.77.88-.33.18-.66.15-.29.23.17.03.4.13.7.3l-2.74.03-1.24-.45c.07-.06.08-.1 0-.1.11.03.2.03.25 0 .49-.35.95-.65 1.38-.89h2.7ZM27.26 28.46l-.42-.51a.09.09 0 0 1-.05-.07v-.05c.01-.01.02-.03.04-.03l1.51-.8h14.58c.05 0 .08.03.08.08v1.3c0 .05-.03.08-.08.08H27.26ZM18.68 29.55l1.7 1.3c.11.07.15.12.12.15h-3.4l-1.6-1.45h3.18ZM31.03 31l-1.8-1.46h13.7c.05 0 .07.02.07.08v1.3c0 .05-.03.08-.08.08h-11.9ZM21.6 32 23 33.45h-3.1L18.47 32h3.12ZM33.47 33.46 32.23 32h10.69c.05 0 .08.03.08.08v1.3l-.03.06a.07.07 0 0 1-.05.02h-9.45ZM36.25 36l-1.54-1.46h8.22c.05 0 .07.03.07.08v1.29a.1.1 0 0 1-.03.07.1.1 0 0 1-.06.02h-6.66ZM24.07 34.55l1.3 1.45h-3.28l-1.28-1.45h3.26ZM38.42 38.48 37.22 37h5.64c.09 0 .14.05.14.15v1.17c0 .1-.06.16-.16.16h-4.42ZM26.7 37l1.07 1.45h-3.16L23.32 37h3.39ZM28.7 39.55 30.09 41h-3.44l-1.26-1.45h3.33ZM40.68 41l-1.2-1.44h3.47c.03 0 .05.01.05.05v1.33c0 .05-.02.06-.06.06h-2.26Z" fill="#D2AB67"/><path d="m27.95 14.43-1.43 1.45-1.03 1.1-1.38 1.45-.99 1.12L21.7 21l-1.06 1.1-1.53 1.46-1.26 1.13-1.69 1.43-1.53 1.12c-.43.24-.9.54-1.38.89-.06.03-.14.04-.25 0l.01-15.05c0-.05.03-.08.08-.08h15.88c.27 0 .31.1.12.29l-1.14 1.14ZM41.75 14.42l-1.44 1.45c-3.45 3.45-6 6.94-10.46 10.26l-1.5 1.1-1.25.81a.09.09 0 0 0-.02.12c0 .02.02.03.03.03l1.11.5 1.62 1.1 1.83 1.47c3.64 3.2 6.64 6.8 9.8 10.26l1.09 1.17c.2.2.15.31-.13.31h-10.6c-.08 0-.12-.04-.12-.11l-.02-.08a.24.24 0 0 0-.06-.08c-3.29-2.67-10.06-11.92-15.35-14.38-.37-.08-.39-.2-.05-.38 6.4-4.26 9.78-9.02 14.54-13.55l1.33-1.33a.28.28 0 0 1 .2-.09h10.37c.31 0 .36.11.14.34l-1.06 1.08Z" fill="#50210B"/><path d="m14.42 28.36 1.62 1.45 1.74 1.45 1.2 1.1 1.44 1.44 1.1 1.12 1.3 1.46 1.03 1.1 1.3 1.44 1.06 1.13 1.35 1.46 1.15 1.21c.17.19.13.28-.11.28H13.15a.13.13 0 0 1-.1-.04.14.14 0 0 1-.04-.1V27.79l1.4.57Z" fill="#50210B"/></svg>