<!-- by TradingView --><svg width="56" height="56" viewBox="0 0 56 56" xmlns="http://www.w3.org/2000/svg"><path fill="#F0F3FA" d="M0 0h56v56H0z"/><path d="M16.33 20.1a29.76 29.76 0 0 0-4.41 3.39h-.03a.04.04 0 0 1-.03-.03v-.02c.17-.56.39-1.07.67-1.55a13.49 13.49 0 0 1 3.38-3.9 10.33 10.33 0 0 1 3.55-1.82c.35-.1.84-.25 1.18-.12.5.19.72.56.7 1.12a.85.85 0 0 1-.45.72c-.28.17-.62.33-1 .47-.3.11-.9.37-1.8.78-.55.25-1.14.57-1.76.96Z" fill="#E0DF13"/><path d="M9.96 25.37a5.45 5.45 0 0 1-.14-6.95c.16-.2.3-.32.43-.37.2-.07.4-.07.6-.02.37.11.6.37.68.79.02.07 0 .15-.04.24a13.7 13.7 0 0 0-1.3 4.14 19.4 19.4 0 0 0-.23 2.17Z" fill="#8EC416"/><path d="M20.57 22.57c-.23-.02-.46-.09-.71-.1h-.87c-.39.03-1.22.11-2.49.25-.3.03-.6.1-.93.14-.12.02-.13-.01-.03-.08a14.16 14.16 0 0 1 7.16-2.22 12.99 12.99 0 0 1 2.4.1c.3.09.54.64.36.94-.06.1-.19.22-.37.35-.87.6-1.85.87-2.93.8a12.66 12.66 0 0 1-1.59-.18Z" fill="#FAB519"/><path d="M14.03 29.26c-.02 0-.03 0-.04.02l.01.03v3.65l-.02.01-.01.02h-.02l-.02.01h-1.87c-.02 0-.03 0-.04-.02a.05.05 0 0 1-.02-.03v-7.86l.01-.03.04-.06h1.85c.02 0 .04.06.06.07.01.01.04.03.04.05v3.71l.04.02c.2.01.29.02.44-.13l3.9-3.67a.2.2 0 0 1 .14-.05h1.02c.09 0 .1.03.04.09l-3.33 3.07c-.25.23-.43.31-.15.61a1940.33 1940.33 0 0 0 3.36 3.74c.02.04 0 .05-.04.05h-2a.25.25 0 0 1-.19-.08l-2.82-3.2a.08.08 0 0 0-.06-.02h-.32ZM32.03 28.73l-.04.01.01.03v3.2h-.02l-.01.02h-.02l-.02.01h-1.87l-.04-.01a.04.04 0 0 1-.02-.04v-6.87l.01-.03.04-.05h1.85c.02 0 .04.05.06.06.01.01.04.03.04.05v3.24l.04.02c.2.01.29.01.44-.11l3.9-3.21a.21.21 0 0 1 .14-.05h1.02c.09 0 .1.03.04.08l-3.33 2.68c-.25.2-.43.28-.15.54.94.93 2.05 2.34 3.3 3.56l.06.05c.02.04 0 .09-.04.09h-2c-.04 0-.08-.04-.1-.06a.24.24 0 0 1-.09-.05l-2.82-3.14a.08.08 0 0 0-.06-.02h-.32ZM43.62 30.77a.07.07 0 0 0-.03-.03h-3.81a.07.07 0 0 0-.02.03l-.66 1.17a.1.1 0 0 1-.04.04L39 32h-.73l-.05-.02a.1.1 0 0 1-.04-.04.1.1 0 0 1 0-.1l3.86-6.82c.02-.03.04-.03.06 0 .06.08.13.17.18.28a1861.78 1861.78 0 0 0 4.5 7.64l-.03.03a.15.15 0 0 1-.05.01l-1.64.02-.06-.01a.1.1 0 0 1-.04-.04l-1.34-2.18Zm-3.33-.89-.01.03v.03l.03.03c.01 0 .02.03.04.03h2.62l.03-.03.03-.03v-.06l-1.31-2.23a.07.07 0 0 0-.03-.03.07.07 0 0 0-.07 0 .07.07 0 0 0-.02.03l-1.31 2.23Z" fill="#25AB32"/><path d="M23.88 25c.5 0 .95-.02 1.38.07a4.82 4.82 0 0 1 3.45 2.61c.48.93.27 2.13-.2 3.03a5.78 5.78 0 0 1-1.17 1.56.1.1 0 0 1-.04 0l-1.51-.05a.1.1 0 0 1-.07-.03.1.1 0 0 1-.02-.07c.01-.1.04-.19.1-.26.48-.7.96-1.46 1.06-2.31.08-.68.05-1.36-.1-2.05a3.47 3.47 0 0 0-1.77-2.15c-.17-.1-.32-.15-.44-.17a9.1 9.1 0 0 0-1.34 0 1.2 1.2 0 0 0-.44.16A3.47 3.47 0 0 0 21 27.5c-.15.69-.18 1.37-.1 2.05.1.85.58 1.61 1.06 2.3.06.08.09.18.1.27a.09.09 0 0 1-.06.09.1.1 0 0 1-.03 0l-1.52.06a.1.1 0 0 1-.07-.02 5.78 5.78 0 0 1-1.14-1.54c-.46-.9-.67-2.1-.2-3.03a4.82 4.82 0 0 1 3.46-2.62c.43-.08.88-.06 1.38-.06ZM8.88 26.88c.22.2.53.44.63.73a.12.12 0 0 1-.05.14.46.46 0 0 1-.26.06c-.8-.05-1.52-.31-2.18-.79-.32-.23-1.45-1-1.16-1.5.07-.1.18-.12.34-.07l.81.28c.65.22 1.28.67 1.87 1.15ZM4.03 35.99c7.77-1.6 15.85-2.6 23.8-2.6A115 115 0 0 1 52 35.88l-.01.01c-.17 0-.33-.02-.47-.04-6.23-1.09-12.73-1.04-19.01-1.24A199.56 199.56 0 0 0 4.03 36Z" fill="#25AB32"/></svg>