<!-- by TradingView --><svg width="56" height="56" viewBox="0 0 56 56" xmlns="http://www.w3.org/2000/svg"><path fill="#F0F3FA" d="M0 0h56v56H0z"/><path d="M29.39 40h-2.75l-1.82-.15a26.39 26.39 0 0 1-10.46-3.07c-4.9-2.64-8.27-7.62-5.16-12.88 1.94-3.3 6.19-5.6 10.02-6.67a32.14 32.14 0 0 1 17.43-.05c3.79 1.03 7.96 3.25 10.04 6.53 2.56 4.06 1.16 8.4-2.44 11.29-4.12 3.31-9.54 4.74-14.86 5Zm-6.83-20.5a15.95 15.95 0 0 0-5.2 2.8 9.72 9.72 0 0 0-2.11 2.19c-1.7 2.67-1.7 5.29 0 7.84 1.82 2.7 5.17 4.46 8.26 5.33a25.95 25.95 0 0 0 14.66-.11c4.54-1.33 10.27-5.17 9.03-10.5-.65-2.75-2.74-4.64-5.21-6.11-.34-.2-.38-.17-.1.11 2.67 2.74 1.42 5.76-1.68 7.45-3.78 2.06-8.45 2.5-12.73 1.79-2.69-.45-5.96-1.6-7.56-3.75-1.64-2.22-.73-4.7 1.46-6.12.74-.49 1.15-.77 1.24-.85.1-.09.08-.11-.06-.07Z" fill="#234492"/></svg>