<!-- by TradingView --><svg width="56" height="56" viewBox="0 0 56 56" xmlns="http://www.w3.org/2000/svg"><path fill="#F0F3FA" d="M0 0h56v56H0z"/><path d="M45 28a17 17 0 1 1-34 0 17 17 0 0 1 34 0Z" fill="#36ADE2"/><path d="M28.04 15.36c.02 0 .04.02.06.05.61 1.84 1.85 3.4 2.99 5a9.52 9.52 0 0 1 1.51 2.8c.74 3.09-1.34 6-4.6 6-3.25 0-5.32-2.94-4.57-6.02a9.5 9.5 0 0 1 1.53-2.79c1.14-1.6 2.39-3.15 3.01-4.99.01-.03.04-.05.07-.05Z" fill="#A91E20"/><path d="M21 36.31c-.02 0 0-.07.04-.23.69-2.37 1.14-4 1.35-4.9.02-.12.1-.18.21-.18h2.25c.1 0 .15.05.15.14v7.67c0 .05-.02.1-.05.13a.18.18 0 0 1-.13.05h-1.28c-.1 0-.15-.05-.15-.15v-5.46c0-.33-.04-.33-.13-.01l-1.39 5.44a.2.2 0 0 1-.06.1.2.2 0 0 1-.1.04 5.58 5.58 0 0 1-1.4 0 .2.2 0 0 1-.1-.04.19.19 0 0 1-.06-.1l-1.4-5.43c-.1-.33-.13-.32-.13.01l.01 5.45c0 .1-.05.15-.15.15H17.2a.18.18 0 0 1-.13-.05.18.18 0 0 1-.05-.12L17 31.15c0-.1.05-.14.15-.14h2.25c.12 0 .19.05.21.16.21.9.66 2.54 1.36 4.91.05.16.06.23.03.23ZM33 37.86v.99c0 .04-.02.08-.04.1a.15.15 0 0 1-.1.05h-5.71a.15.15 0 0 1-.1-.05.16.16 0 0 1-.05-.1v-7.7c0-.04.02-.08.04-.1a.15.15 0 0 1 .1-.05h5.53c.04 0 .07.02.1.05.03.02.04.06.04.1v1.03c0 .04-.01.08-.04.1a.15.15 0 0 1-.1.05h-3.88a.15.15 0 0 0-.1.05.16.16 0 0 0-.05.1v1.36c0 .04.01.08.04.11s.07.05.1.05h3.62c.04 0 .08.01.1.04.04.03.05.07.05.11v1.01c0 .05-.01.08-.04.11a.15.15 0 0 1-.1.05h-3.62a.15.15 0 0 0-.1.04.16.16 0 0 0-.05.11v2.08c0 .04.02.08.05.1.02.04.06.05.1.05h4.06c.04 0 .08.02.1.05.03.03.05.07.05.1Z" fill="#fff"/><path fill-rule="evenodd" d="M36.6 38.76v-2.6c0-.11.06-.17.17-.17h.62c1.45.02 2.64.03 3.3-1.26.64-1.23.29-2.95-1.03-3.53-.3-.13-.9-.2-1.82-.18a108.33 108.33 0 0 1-2.76-.01.13.13 0 0 0-.07.07l-.01.06v7.6c0 .17.09.26.26.26h1.12c.15 0 .23-.08.23-.24Zm.03-6.33v.04l-.01 2a.12.12 0 0 0 .03.09.12.12 0 0 0 .08.03h1.36c.45.01.96-.2 1.17-.62a.9.9 0 0 0 .1-.4v-.1c.02-.64-.64-1.1-1.22-1.12h-1.4a.11.11 0 0 0-.08.04.12.12 0 0 0-.03.04Z" fill="#fff"/></svg>