<!-- by TradingView --><svg width="56" height="56" viewBox="0 0 56 56" xmlns="http://www.w3.org/2000/svg"><path fill="#F0F3FA" d="M0 0h56v56H0z"/><path d="M14 15.55c0-.86.7-1.55 1.55-1.55h15.43a14 14 0 1 1 0 28H15.55c-.86 0-1.55-.7-1.55-1.55v-24.9Z" fill="#EE7202"/><path d="M23.1 32.36c-.79 3.69-4.56 5.84-6.55 6.5 0 0 2.37-1.95 2.8-5.12a4.7 4.7 0 0 0-.61-2.9c-1.06-2.07-2.58-3.98-2.73-6.37-.03-.6 0-1.2.1-1.8.67-4.41 4.29-5.59 6.72-5.67a5.04 5.04 0 0 0-3.3 3.32c-.14.54-.15 1.11-.05 1.66.38 2.01 2.2 4.6 3.17 6.78a5.8 5.8 0 0 1 .44 3.6Z" fill="#FFED00"/><path d="M30.06 32.5c-.78 3.69-4.56 5.84-6.55 6.5 0 0 2.38-1.95 2.8-5.12a4.7 4.7 0 0 0-.61-2.9c-1.06-2.07-2.58-3.98-2.72-6.37-.04-.6 0-1.2.1-1.8.67-4.41 4.28-5.59 6.71-5.67a5.04 5.04 0 0 0-3.3 3.32c-.13.54-.15 1.1-.04 1.66.37 2 2.2 4.6 3.16 6.78a5.8 5.8 0 0 1 .45 3.6Z" fill="#FFED00"/><path d="M36.88 32.5c-.78 3.69-4.55 5.84-6.54 6.5 0 0 2.37-1.95 2.8-5.12a4.7 4.7 0 0 0-.61-2.9C31.47 28.9 29.95 27 29.8 24.6c-.03-.6 0-1.2.1-1.8.67-4.41 4.3-5.59 6.72-5.67a5.04 5.04 0 0 0-3.3 3.32c-.13.54-.15 1.1-.05 1.66.38 2 2.21 4.6 3.17 6.78a5.8 5.8 0 0 1 .44 3.6Z" fill="#FFED00"/></svg>