<!-- by TradingView --><svg width="56" height="56" viewBox="0 0 56 56" fill="none" xmlns="http://www.w3.org/2000/svg">
<rect width="56" height="56" fill="#F0F3FA"/>
<path fill-rule="evenodd" clip-rule="evenodd" d="M35.4063 22.906L36.238 22.0743C36.052 22.4428 35.7917 23.2914 36.238 23.7376L35.4063 22.906ZM40.4999 27.9999L35.4061 22.906L31.4863 26.8258C30.8379 27.4743 30.8379 28.5256 31.4863 29.1741L35.4061 33.0939L40.4999 27.9999Z" fill="#0F6731"/>
<path d="M35.406 33.0938L40.4999 27.9998L45.5937 33.0938L41.674 37.0136C41.0255 37.6621 39.9742 37.6621 39.3258 37.0136L35.406 33.0938Z" fill="#851821"/>
<path fill-rule="evenodd" clip-rule="evenodd" d="M45.5937 33.094L44.762 33.9257C44.948 33.5572 45.2083 32.7086 44.762 32.2624L45.5937 33.094ZM40.5001 28.0001L45.5939 33.094L49.5137 29.1742C50.1621 28.5257 50.1621 27.4744 49.5137 26.8259L45.5939 22.9061L40.5001 28.0001Z" fill="#233E9B"/>
<path fill-rule="evenodd" clip-rule="evenodd" d="M40.5 28.0001L45.5939 22.9062L41.6741 18.9863C41.0257 18.3379 39.9744 18.3379 39.3259 18.9863L35.4062 22.9061L40.5 27.9999L40.4999 28L40.5 28.0001Z" fill="#DFA222"/>
<ellipse cx="40.5" cy="28" rx="1.5" ry="1.50003" fill="#F0F3FA"/>
<path fill-rule="evenodd" clip-rule="evenodd" d="M40.5 32.9845C43.2687 32.9845 45.4952 30.7428 45.4952 27.9998C45.4952 25.2568 43.2687 23.0151 40.5 23.0151C37.7313 23.0151 35.5048 25.2568 35.5048 27.9998C35.5048 30.7428 37.7313 32.9845 40.5 32.9845ZM40.5 33.4998C43.5376 33.4998 46 31.0374 46 27.9998C46 24.9623 43.5376 22.4998 40.5 22.4998C37.4624 22.4998 35 24.9623 35 27.9998C35 31.0374 37.4624 33.4998 40.5 33.4998Z" fill="#F0F3FA"/>
<path fill-rule="evenodd" clip-rule="evenodd" d="M32.4693 24.9998L30.5537 27H28.0857C27.3637 27 27 27.2178 27 28.0061C27 28.7945 27.3637 29 28.0857 29H30.5537L32.3927 30.9998H27.748C26.2303 30.9998 25 29.6567 25 27.9998C25 26.343 26.2303 24.9998 27.748 24.9998H32.4693ZM8 31H6V25H7.99425C8.63376 25 9.21054 25.3958 9.45651 26.0035L10.5604 28.7306L11.534 26.0581C11.7659 25.4216 12.3569 25 13.0173 25H15V31H13V26.8342L11.9198 29.8921C11.662 30.4724 11.0991 31 10.4792 31H9.53355L8 26.8342V31ZM16 31V25H18C18.5922 25 19.0617 25.2696 19.396 25.7205L22 29.24V25H24V31H22C21.417 31 20.9167 30.7386 20.5806 30.2991L18 26.86V31H16Z" fill="#136439"/>
<path fill-rule="evenodd" clip-rule="evenodd" d="M45.7042 22.3716L46.1285 22.7958L40.9242 28.0001L46.1285 33.2045L45.7043 33.6287L40.4999 28.4244L35.2956 33.6287L34.8713 33.2045L40.0757 28.0001L34.8714 22.7958L35.2957 22.3716L40.4999 27.5759L45.7042 22.3716Z" fill="#F0F3FA"/>
<path d="M13 36V32H14V35.3027H16V36H13Z" fill="#0F5D33"/>
<path d="M17.3617 36H16.3791L17.8763 32H19.058L20.5531 36H19.5705L18.4841 32.9141H18.4502L17.3617 36ZM17.318 34.3471H19.6391V35H17.318V34.3471Z" fill="#0F5D33"/>
<path d="M25 32V36H24.3603L22 33.6034V36H21V32H21.8167L24 34.3471V32H25Z" fill="#0F5D33"/>
<path d="M27.5814 36H26V32H27.5941C28.0304 32 28.4059 32.0801 28.7207 32.2402C29.0356 32.3991 29.2777 32.6276 29.4471 32.9258C29.618 33.224 29.7034 33.5807 29.7034 33.9961C29.7034 34.4128 29.618 34.7708 29.4471 35.0703C29.2777 35.3698 29.0342 35.5996 28.7165 35.7598C28.4003 35.9199 28.0219 36 27.5814 36ZM27 35.2754H27.5433C27.8144 35.2754 28.0424 35.2311 28.2273 35.1426C28.4137 35.0527 28.5534 34.9141 28.6466 34.7266C28.7412 34.5378 28.7885 34.2943 28.7885 33.9961C28.7885 33.7005 28.7412 33.459 28.6466 33.2715C28.5534 33.084 28.4144 32.946 28.2294 32.8574C28.0445 32.7689 27.8165 32.7246 27.5454 32.7246H27V35.2754Z" fill="#0F5D33"/>
</svg>
