<!-- by TradingView --><svg width="56" height="56" viewBox="0 0 56 56" xmlns="http://www.w3.org/2000/svg"><path fill="#F0F3FA" d="M0 0h56v56H0z"/><path d="M25.03 15.13A7.01 7.01 0 0 1 27 20v6.03c0 .24-.03.43-.09.55-.13.28-.37.42-.73.43h-6.12c-1.78-.01-3.3-.56-4.58-1.66a7.06 7.06 0 0 1-1.85-8.25 6.98 6.98 0 0 1 11.4-1.96Z" fill="#00386B"/><path d="M39.22 13.77a7 7 0 0 1 1.07 11.75 6.99 6.99 0 0 1-9.24-.57 7.02 7.02 0 0 1 1.18-10.86 7.11 7.11 0 0 1 6.99-.32Z" fill="#009A4E"/><path d="M14.57 40.48a7.09 7.09 0 0 1-.21-8.62A6.97 6.97 0 0 1 20.4 29H26c.25 0 .43.03.55.08.3.13.44.38.44.73v5.82c0 .52-.02.92-.05 1.19-.68 5.98-8.51 8.44-12.38 3.66ZM41 40.97c-4.05 4.15-11.46 1.56-11.97-4.35-.02-.24-.03-.63-.03-1.19v-5.31c0-.34.03-.57.09-.69.07-.17.2-.29.38-.36.11-.05.28-.07.5-.07h6.06c1.84.02 3.6.73 4.91 2.04a7.1 7.1 0 0 1 .07 9.93Z" fill="#00386B"/></svg>