<!-- by TradingView --><svg width="56" height="56" viewBox="0 0 56 56" xmlns="http://www.w3.org/2000/svg"><path fill="#F0F3FA" d="M0 0h56v56H0z"/><path d="M37.3 29v5.53c-1.81-.11-4-.08-5.42-.1v-.36a1034.7 1034.7 0 0 1 .03-12.12 2.68 2.68 0 0 0-.05-.53l-.03-.02a.06.06 0 0 0-.07.02c-.55.62-1.34 1.48-2.38 2.56-.33.34-.38.08-.38-.25V9.03c.1-.06.15-.03.24.05l3.54 3.53c.1.1.2.25.22.44v8.54c0 .05.02.1.05.13l.1.1 2.72.88a.22.22 0 0 1 .13.2v5.97a.13.13 0 0 0 .13.12h1.17Z" fill="#201613"/><path d="M29 9v14.73c0 .37.06.53.4.17l2.46-2.68a.06.06 0 0 1 .09 0l.01.03c.03.15.05.32.04.5v13.91c-.73.1-2.15.06-2.85-.06l1.27-1.09a.04.04 0 0 0 .01-.04l-.01-.02h-.02c-.83-.04-1.66.03-2.76.06-.12 0-.21.24-.35.36-.51.45-1.05.57-1.32.85-.1.1-.14.07-.14-.06V34.5c0-.05-.02-.07-.06-.07H24V14.2c0-.5-.05-1.02.36-1.37L29 9Z" fill="#D42112"/><path d="M24 29v5.43l5.15 1.17c.7.12 1.78.1 2.5 0l-.03 2.29c0 .03.02.05.03.07.02.02.05.04.08.04h2.9l.04-.03a.07.07 0 0 0 .02-.05v-1.28a.09.09 0 0 1 .03-.07.08.08 0 0 1 .06-.02c1.07.04 2.11 0 3.13-.16.51-.08.75-.36.7-.85.05 0 .13.03.21.1.03.03.06.04.1.04h2.96a.1.1 0 0 0 .08-.03c.02-.02.04-.05.04-.08V19.41c0-.26-.2-.4-.38-.5l.31-.2a.09.09 0 0 1 .14.02c.72 1.18 1.2 2.24 1.77 3.18.1.17.16.41.16.74v5.6c0 .18 0 .75.16.75h3.71c.13 0 .16.05.1.17l-6.93 10.77a.12.12 0 0 1-.1.06H8.1c-.1 0-.13-.05-.07-.14l7.01-10.82c.04 1.72.04 3.39 0 5.01l.03.19c.04.08.05.15.03.18l-1.73.02c-.04 0-.06.02-.06.06v3.39c0 .06.03.1.1.1 2.54 0 4.54 0 6-.04.48-.02.91-.08 1.3-.19.3-.08.48-.27.52-.58.13-1.12-1.01-.98-1.72-1.1-.02 0-.03 0-.03-.02s.02-.03.04-.03c.44-.04 1.72.02 1.39-.83-.15-.38-.71-.57-1.09-.63.08-.03.2-.04.18-.16V15.56c.03-.08.2.03.4.34.59.99 1.53 2.03 2.2 3.12.35.57.4 1.1.4 1.85v8c0 .04.03.07.05.1.03.01.06.03.1.03H24Z" fill="#201613"/><path d="M20 15.56V34.6l-1.19-.1a77.93 77.93 0 0 0-3.81-.08V19.84c0-.17.31-.38.47-.5 1.46-1.21 2.93-2.47 4.53-3.78ZM41.7 18.87c.2.1.3.28.3.54v16.47c0 .04-.14.12-.18.12h-3.27c-.32 0-.06-.29-.07-.54-.03-.43-1.11-.9-1.48-.93V22.3c0-.12.12-.25.32-.39l4.05-2.86c.11-.08.23-.14.34-.18Z" fill="#D42112"/><path d="M15.1 34.42a73.99 73.99 0 0 1 4.72.15c.38.06.94.25 1.09.63.33.85-.95.8-1.4.83-.01 0-.02 0-.03.02v.01c0 .02.01.03.03.03.7.11 1.85-.03 1.72 1.1-.04.3-.21.5-.51.58-.4.1-.83.22-1.32.23H13v-3.56l2.1-.02ZM24.54 34.43h1.4c.05 0 .06.02.06.07v1.16c0 .13.05.15.15.06.26-.28.65-.64 1.15-1.1.14-.12.27-.18.39-.18a44.25 44.25 0 0 1 2.9.01.04.04 0 0 1 0 .06l-1.26 1.1-.53.4c-.03.02-.03.05 0 .08l2.01 1.82a.05.05 0 0 1 .01.05l-.01.02-.03.02h-3.26c-.05 0-.1-.02-.14-.04a.33.33 0 0 1-.1-.08l-1.15-1.29c-.09-.1-.13-.08-.13.05v1.27c0 .02 0 .04-.02.06-.01 0-.03.03-.05.03h-3.21c-.03 0-.06-.03-.09-.05a.12.12 0 0 1-.03-.08v-3.33a.12.12 0 0 1 .12-.12h1.82ZM32.49 34.42c1.41.03 3.28 0 5.1.1.32.05 1.24.2 1.26.63.01.14.02.27.05.4.04.48-.19.76-.7.84a16.35 16.35 0 0 1-3.17.2.08.08 0 0 0-.04.05l.01.04v1.24c0 .02-.03.04-.04.05a.07.07 0 0 1-.05.02h-3.24a.1.1 0 0 1-.1-.1v-3.35a.12.12 0 0 1 .04-.08.11.11 0 0 1 .08-.04h.8Z" fill="#FFF503"/><path d="M34.98 35.12a.05.05 0 0 1 .02-.04l.02-.01h.62a.5.5 0 0 1 .3.1.3.3 0 0 1 .12.23v.21c0 .04-.01.09-.04.13a.33.33 0 0 1-.09.1.45.45 0 0 1-.14.07.55.55 0 0 1-.16.02h-.6a.05.05 0 0 1-.05-.05v-.76Z" fill="#201613"/><path d="M16.72 35.16a.08.08 0 0 1 .07-.08h.58a.7.7 0 0 1 .3.07c.08.04.13.1.13.15v.32c0 .06-.05.11-.13.15a.7.7 0 0 1-.3.06h-.58a.08.08 0 0 1-.06-.03.08.08 0 0 1-.02-.06v-.58Z" fill="#D42112"/><path d="M16.7 36.5a.1.1 0 0 1 .11-.11h.6l.15.01.14.07c.04.02.07.05.1.09l.02.11v.39c0 .08-.04.15-.11.2a.52.52 0 0 1-.3.1h-.59a.1.1 0 0 1-.1-.1l-.01-.76Z" fill="#201613"/></svg>