<!-- by TradingView --><svg width="56" height="56" viewBox="0 0 56 56" xmlns="http://www.w3.org/2000/svg"><path fill="#F0F3FA" d="M0 0h56v56H0z"/><path fill-rule="evenodd" d="M13 13h30v30H13V13Zm15.21 1H42v13.79L28.21 14Zm-.42 0H14v13.79L27.79 14ZM14 28.21V42h13.79L14 28.21ZM28.21 42H42V28.21L28.21 42ZM14.46 28 28 14.46l.37.37-12.9 12.88L28.1 40.34l7.07-7.07-5.56-5.56 4.1-4.1 6.12 6.1-.42.42-5.63-5.63-3.25 3.25 5.63 5.63L28 41.54 14.46 28Zm22.06-.25 2.64 2.64-2.74 2.73-2.64-2.63 2.74-2.74Zm-6.3-11.07-.57-.57-11.61 11.6L28.1 37.77l4.5-4.5-5.56-5.56 6.8-6.8 7.39 7.4.31-.31-7.9-7.9-7.7 7.7 5.43 5.44-3.42 3.42-8.86-8.86 11.13-11.12Zm.26.25L19.6 27.8l8.34 8.34 2.9-2.9-5.43-5.44 7.96-7.96-2.9-2.9Zm3.04 13.3 2.74-2.74-2.48-2.48-2.74 2.74 2.48 2.48Zm.31-4.52 1.65 1.65-2.07 2.08-1.68-1.68 2.1-2.05Z" fill="#642915"/></svg>