<!-- by TradingView --><svg width="56" height="56" viewBox="0 0 56 56" xmlns="http://www.w3.org/2000/svg"><path fill="#F0F3FA" d="M0 0h56v56H0z"/><path d="M20.65 23.01v8.97l-.01.01-.01.01a400603.33 400603.33 0 0 1-16.36-.02c-.22-.07-.31-.24-.25-.46l.2-.73a6.48 6.48 0 0 1 .13-.41 999.09 999.09 0 0 1 2.13-7.12.5.5 0 0 1 .42-.26 11325.89 11325.89 0 0 1 13.75.01ZM52 31.99l-.01.01H21l-.01-.01V23H52a.01.01 0 0 1 .01 0V32Z" fill="#000E77"/><path d="M14.12 25.32c-.86-.01-1.42.65-1.59 1.41a3.71 3.71 0 0 0 0 1.59c.1.52.38 1.05.87 1.33.27.15.56.2.87.14.41-.08.8-.35 1.08-.65v2.28a.02.02 0 0 1 0 .02c-.33.17-.69.3-1.05.35-.17.02-.36.02-.56 0a2.9 2.9 0 0 1-1.73-.88 4.75 4.75 0 0 1-1.21-3.16c-.02-.34 0-.66.04-.96a4.33 4.33 0 0 1 1.44-2.7 2.82 2.82 0 0 1 1.66-.75c.23 0 .47.01.73.05.23.03.48.1.66.25l.03.06a1176.17 1176.17 0 0 1-.01 2.33c-.07-.1-.14-.2-.23-.28a1.43 1.43 0 0 0-1-.43ZM51.64 31.63v.01H21.22v-8.27a.01.01 0 0 1 .01-.01h30.4l.01.01v8.26ZM4.57 31.66l2.46-8.2h1.61l2.3 8.2h-.01v.01H9.21l-.37-1.45H6.68l-.35 1.44-.01.01H4.57v-.01ZM17.64 26.66h1.55a.01.01 0 0 1 .01 0v1.75h-1.56a.01.01 0 0 0 0 .02v1.54h1.78l.01.01v1.68a.01.01 0 0 1-.01.01H16v-8.2h3.42a.01.01 0 0 1 .01 0v1.84h-1.79v1.34Z" fill="#F9B700"/><path d="M51.42 31.42v.01H21.44v-7.85h29.98v7.84Z" fill="#000E77"/><path d="M31.22 28.44a.74.74 0 0 0-.35-.06.66.66 0 0 0-.52.29c-.24.35 0 .8.4.88a.7.7 0 0 0 .58-.11c.12-.09.2-.2.23-.33l.01-.34a17133.4 17133.4 0 0 1 .04-4.77h1.4L33 29.2l-.01.24c-.03.13-.08.26-.14.39-.5.98-1.71 1.4-2.75 1.05-1.03-.34-1.68-1.38-1.38-2.44a2.1 2.1 0 0 1 1.35-1.39 2.32 2.32 0 0 1 1.16-.09v1.47l-.01.01ZM28.52 24H27v7h1.52v-7ZM42.99 24h-1.5l-.02.01v6.98l.01.01H43l.01-.01v-6.98l-.01-.01ZM46 28.44a.74.74 0 0 0-.35-.06.66.66 0 0 0-.52.29c-.24.35 0 .8.4.88a.7.7 0 0 0 .58-.11c.12-.09.2-.2.23-.33.01-.05.02-.16.02-.34V24h1.43a21779.17 21779.17 0 0 1-.02 5.44c-.03.13-.07.26-.14.39-.5.98-1.7 1.4-2.74 1.05-1.03-.34-1.69-1.38-1.38-2.44a2.1 2.1 0 0 1 1.35-1.39c.37-.13.75-.16 1.15-.1l-.01.01v1.48ZM35 28.34h-.01.01V31l-.02.01h-1.51a.01.01 0 0 1-.01-.01v-5.46c.09-.92 1.05-1.48 1.9-1.53.6-.03 1.14.36 1.5.79v.01l-.96.93c-.07-.2-.29-.26-.48-.25-.21.02-.34.17-.41.36-.02.05-.01.1-.01.19V27h.5v1.32l-.01.02h-.5Z" fill="#fff"/><path d="M36.72 26.92c.37 0 .66-.28.67-.63 0-.35-.3-.63-.66-.63a.65.65 0 0 0-.66.62c0 .35.29.64.65.64Z" fill="#fff"/><path d="m7.86 26.02.63 2.63H7.08l.77-2.63Z" fill="#000E77"/><path d="M40.03 28.58a.24.24 0 0 0-.17-.14.65.65 0 0 0-.63.17.63.63 0 0 0-.01.86c.14.15.31.2.53.18.27-.04.5-.15.7-.35l.83.8v.02a1.95 1.95 0 0 1-3.23.04c-.67-.94-.4-2.26.58-2.87a1.95 1.95 0 0 1 2.7.67l-1.29 1.27h-.02l-.33-.37.34-.26v-.02ZM48 31v-1.32h.01c.07 0 .16-.02.26-.04.14-.03.27-.04.37-.1.27-.14.3-.44.33-.7.04-.27.11-.55.22-.81.14-.31.36-.55.67-.72a2.62 2.62 0 0 1 1.14-.3v1.39h-.01c-.27-.03-.61.02-.69.3l-.05.26-.12.72a1.27 1.27 0 0 1-.72.93l-.23.12c-.1.05-.22.1-.38.14a4.87 4.87 0 0 1-.8.12ZM37.43 27h-1.42l-.01.01V31l.01.01h1.42l.02-.01V27l-.02-.01ZM26.12 30.41a1.86 1.86 0 0 0 .47-2.18 2 2 0 0 0-.47-.64 2.35 2.35 0 0 0-3.08 0 2 2 0 0 0-.47.64 1.86 1.86 0 0 0 .47 2.18c.4.38.96.59 1.54.59.58 0 1.13-.21 1.54-.59Zm-.7-1.4c0 .42-.37.77-.81.77a.79.79 0 0 1-.81-.77c0-.43.36-.77.8-.77.45 0 .81.34.81.77Z" fill="#fff"/></svg>