<!-- by TradingView --><svg width="56" height="56" viewBox="0 0 56 56" xmlns="http://www.w3.org/2000/svg"><path fill="#F0F3FA" d="M0 0h56v56H0z"/><path d="m38.07 19.4-1.6 1.56-2.65 2.58c-.05.05-.04.08.03.08 1.59.1 4.2.65 4.45 2.42.23 1.67-1.95 2.57-3.31 2.66l.01-.18a.15.15 0 0 0-.04-.12l-3.05-3.29-1.2-1.25 4.66-4.67a.06.06 0 0 0 .02-.06s0-.02-.02-.02l-.03-.11H26.6c-.04-.17-.15-.2-.32-.32l-.42-.31a42.7 42.7 0 0 0-3.5-2.78l-1.57-1.18c-.05.02-.1-.03-.14-.14a63.07 63.07 0 0 1 4.95-2.54c.85-.39 1.79-.74 2.82-1.06 1.96-.67 4.33-.98 6.27-.24 1.76.67 3.45 2.49 4.34 4a26.28 26.28 0 0 1 3.13 8.41c.03.17 0 .18-.08.03-.78-1.47-2.36-2.69-3.83-3.5-.06-.03-.12-.02-.17.03Z" fill="url(#a)"/><path d="M20.64 14.27c.05.11.1.16.14.14 1.7 1.31 3.38 2.42 5.07 3.96l.42.3c.17.13.28.16.32.33h-9.08c-.26 0-.46 0-.6.03a12.97 12.97 0 0 0-5.9 2.87v-.03c.8-.79 1.52-1.65 2.35-2.4a37.63 37.63 0 0 1 7.28-5.2Z" fill="#8AB63B"/><path fill-rule="evenodd" d="m30.72 23.86 1.2 1.25 3.04 3.3a.15.15 0 0 1 .04.1l-.01.19a5.5 5.5 0 0 1-1.99-.07c-.02 0 .02 0 0 0s.02-.02 0 0c-.02 0 0-.02 0 0 0 .01 0-.02 0 0V33c-.02-.02 0 .03 0 0-.03 0 .02.02 0 0h3.45c.28 0 1.39 0 1.7-.15.53.73 1.03 1.49 1.5 2.27.17.28.35.55.54.83.2.28.4.56.58.87.24.39.59.9 1.06 1.52.1.14.15.28.2.45.02.09.09.11.2.07a10.55 10.55 0 0 1-2.35 4.98c-2.16 2.54-5.91 2.43-8.9 1.72-5.74-1.38-10.6-4-15.33-7.4l-.68-.5c-.28-.21-.28-.26.02-.15 1.04.42 1.96.49 3.2.49H25v-9.18c0-.03.02.02 0 0s.03 0 0 0l-5.2.03c-.06 0-.08.02-.08.07v4.58c0 .04-.03.07-.07.07h-2.07c-.34 0-.61-.03-.81-.1-2.24-.76-3.8-2.7-3.64-5.07a4.92 4.92 0 0 1 3.2-4.2c.28-.12.61-.2.98-.2H26c-.01-.01.01 0 0 0 0-.01.01.01 0 0v4.62s0 .01 0 0l4.72-4.76Zm.28 2.5C31.02 27.4 31 38 31 38h-4.88c-.03 0-.07 0-.09-.03a.12.12 0 0 1-.03-.09v-6.76c0-.14.05-.26.15-.36l4.85-4.4Z" fill="url(#b)"/><path d="M42.22 38.86c-.1.04-.17.02-.2-.07a1.3 1.3 0 0 0-.2-.45c-.46-.63-.81-1.13-1.05-1.52-.36-.6-.78-1.13-1.12-1.7-.47-.78-.97-1.54-1.5-2.27a9.01 9.01 0 0 0 3.3-2.42 6.7 6.7 0 0 0 1.3-2.44c.1-.31.16-.3.17.02.17 3.78.12 7.27-.7 10.85Z" fill="#126497"/><path d="M34.1 10.24c-1.82-.49-3.93-.17-5.7.43-1.02.32-1.96.67-2.8 1.06a63.07 63.07 0 0 0-4.96 2.54c.05.11.1.16.14.14l1.57 1.18c1.17.86 2.33 1.72 3.5 2.78l.42.3c.17.13.28.16.32.33h2.65c1.18-2.9 3.4-6.51 4.85-8.76Z" fill="url(#c)"/><path d="M26 28.67s0-.01 0 0V24c0-.01.01.01 0 0-.01 0 .01 0 0 0h-8.69c-.37 0-.7.07-.99.2a4.93 4.93 0 0 0-3.19 4.2c-.15 2.36 1.4 4.31 3.64 5.07.2.07.47.1.81.1H20V29h5v4.07l1-4.4Z" fill="url(#d)"/><path d="M22.71 38h-4.53a8.05 8.05 0 0 1-3.2-.5c-.29-.12-.3-.07-.01.15l.68.5a50.08 50.08 0 0 0 6.02 3.8L22.71 38Z" fill="url(#e)"/><defs><linearGradient id="a" x1="40.56" y1="18.08" x2="31.47" y2="21.83" gradientUnits="userSpaceOnUse"><stop stop-color="#0D437C"/><stop offset="1" stop-color="#389DCF"/></linearGradient><linearGradient id="b" x1="24.22" y1="31.25" x2="40.77" y2="40.3" gradientUnits="userSpaceOnUse"><stop stop-color="#83B13B"/><stop offset="1" stop-color="#539038"/></linearGradient><linearGradient id="c" x1="32.31" y1="10.3" x2="26.3" y2="18.06" gradientUnits="userSpaceOnUse"><stop stop-color="#174E84"/><stop offset="1" stop-color="#278CB0"/></linearGradient><linearGradient id="d" x1="13.6" y1="26.93" x2="23.97" y2="33.17" gradientUnits="userSpaceOnUse"><stop stop-color="#96C038"/><stop offset="1" stop-color="#6DA238"/></linearGradient><linearGradient id="e" x1="13.6" y1="26.93" x2="23.97" y2="33.17" gradientUnits="userSpaceOnUse"><stop stop-color="#96C038"/><stop offset="1" stop-color="#6DA238"/></linearGradient></defs></svg>