<!-- by TradingView --><svg width="56" height="56" viewBox="0 0 56 56" xmlns="http://www.w3.org/2000/svg"><path fill="#F0F3FA" d="M0 0h56v56H0z"/><path d="M12 31.8v-8.15c9.4 0 14.88 7.41 16 11.12v-10.9C28 16.2 33.67 10 41.76 10H42v21.8C42 39.64 35.28 46 27 46c-8.28 0-15-6.36-15-14.2Z" fill="url(#a)"/><path d="M12 23.65v8.15c0 5.16 2.9 9.68 7.26 12.16 3.85-1 7.82-4.66 8.74-9.33-1.2-3.75-6.72-10.98-16-10.98Z" fill="#36B4E6"/><defs><linearGradient id="a" x1="40.61" y1="10.85" x2="22.81" y2="45.23" gradientUnits="userSpaceOnUse"><stop stop-color="#7972B6"/><stop offset=".51" stop-color="#6092CD"/><stop offset="1" stop-color="#46B4E7"/></linearGradient></defs></svg>