<!-- by TradingView --><svg width="56" height="56" viewBox="0 0 56 56" xmlns="http://www.w3.org/2000/svg"><path fill="#F0F3FA" d="M0 0h56v56H0z"/><path d="M25.84 12c-.43 0-.47.32-.25.7 1.44 2.41 1.82 4.73 1.12 6.93-1.34 4.24-4.95 6.38-9.44 5.38A11.97 11.97 0 0 1 12 22.08V12h13.84Zm-3.52 1.9c-1.55-1.05-3.32-1.51-4.97-.81-2.48 1.05-2.76 3.63-2.54 6.07.13 1.49 1.13 2.35 2.46 2.92 3.1 1.34 6.34.3 7.27-3.12.54-1.95-.5-3.88-2.22-5.06Z" fill="#E8594B"/><path d="M44 38h-3V26h-5v1.58c0 .15.2.5.3.61 1.64 1.91 1.63 3.78-.04 5.6a.62.62 0 0 0 .1.93c2.26 1.62 2.64 4.26.69 6.28H44v2.53c0 .1-.14.28-.21.36a.4.4 0 0 1-.29.11H12v-5.15c.61 2.82 2.32 4.32 5.12 4.45 5.12.23 6.86-1.85 6.88-6.86v-8.46c0-.14.08-.2.22-.2h.1c.18 0 .26.08.27.26.02 2.81.03 5.58 0 8.3-.01 2.04-.27 3.28-.94 4.5-.08.14-.09.46-.02.95.02.12.09.21.21.21h7.89c2.93-.02 5.65-.4 5.87-3.69.13-1.89-.8-3.2-2.79-3.93-.17-.06-.17-.13 0-.21a3.38 3.38 0 0 0 2-2.4c.55-2.6-1.5-4.73-4.04-4.77h-8.8c-.05 0-.09.23-.12.25a.27.27 0 0 0-.15.3c.06.27-.04.45-.3.45h-3.22c-.14 0-.18.04-.18.19v9.24c0 1-.7 2.15-1.8 2.37-.73.14-1.27-.18-1.6-.95a.88.88 0 0 1-.07-.36v-.12c0-.17-.28-.37-.45-.37H12V22.11c0-.15.45.06.56.16a9.86 9.86 0 0 0 4.7 2.74c4.5 1 8.1-1.14 9.45-5.38.7-2.2.32-4.52-1.12-6.94-.22-.37-.2-.69.22-.69H44v26Z" fill="#E61F26"/><path d="M29 30.17c0-.05.02-.1.05-.12a.13.13 0 0 1 .1-.05h1.97a1.42 1.42 0 0 1 1.41 1.43v.15A1.43 1.43 0 0 1 31.11 33h-1.97a.13.13 0 0 1-.1-.05.18.18 0 0 1-.04-.12v-2.66ZM29 36.2c0-.04.02-.09.05-.12a.16.16 0 0 1 .12-.06L31.5 36c.4 0 .77.14 1.06.4.28.25.44.6.44.96v.23c0 .18-.04.36-.1.52a1.5 1.5 0 0 1-1.37.86l-2.34.03a.16.16 0 0 1-.12-.05.2.2 0 0 1-.05-.14l-.02-2.6Z" fill="#E61F26"/><ellipse cx="19.43" cy="17.74" rx="5.3" ry="5.32" fill="#E96F5D"/><ellipse cx="19.16" cy="17.74" rx="4.1" ry="4.11" fill="#EC8677"/><ellipse cx="18.92" cy="17.51" rx="2.65" ry="2.66" fill="#F1ADAA"/></svg>