<!-- by TradingView --><svg width="56" height="56" viewBox="0 0 56 56" xmlns="http://www.w3.org/2000/svg"><path fill="#65C8DD" d="M0 0h56v56H0z"/><path d="M46 35v-5h.7v2.39h.05L48.67 30h.88l-1.86 2.25L49.55 35h-.83l-1.48-2.23-.55.67V35H46ZM42 35v-5h1.68c.33 0 .6.06.81.18.21.11.37.27.48.47.1.2.16.42.16.66 0 .21-.04.39-.1.53a.92.92 0 0 1-.29.34 1.2 1.2 0 0 1-.38.19v.05c.15 0 .3.06.44.16.15.1.27.23.37.42.1.18.14.4.14.65 0 .26-.06.49-.17.7-.1.2-.27.36-.5.47-.23.12-.52.18-.88.18H42Zm.7-.65h1c.32 0 .56-.07.7-.2a.7.7 0 0 0 .22-.53c0-.16-.04-.3-.1-.44a.82.82 0 0 0-.32-.31.94.94 0 0 0-.48-.12h-1.03v1.6Zm0-2.19h.92c.16 0 .3-.03.42-.1a.75.75 0 0 0 .41-.69c0-.2-.07-.38-.2-.52s-.34-.2-.61-.2h-.95v1.51ZM37.57 30.65V30h3.55v.65H39.7V35H39v-4.35h-1.43ZM35 30v5h-.62l-2.33-3.67H32V35h-.69v-5h.64l2.34 3.67h.04V30H35ZM30.6 32.5c0 .52-.08.97-.26 1.34a1.92 1.92 0 0 1-1.8 1.16 1.93 1.93 0 0 1-1.8-1.16 3.07 3.07 0 0 1-.27-1.34c0-.52.09-.97.27-1.34a1.92 1.92 0 0 1 1.8-1.16c.4 0 .75.1 1.06.3.31.2.56.49.74.86.18.37.26.82.26 1.34Zm-.68 0c0-.4-.06-.73-.18-1a1.39 1.39 0 0 0-.5-.62c-.2-.14-.44-.21-.7-.21-.27 0-.5.07-.71.21-.2.14-.37.35-.5.62-.11.27-.17.6-.17 1s.06.73.18 1 .28.48.49.62c.2.14.44.21.7.21.27 0 .5-.07.71-.2.21-.15.38-.36.5-.63s.18-.6.18-1ZM22.57 30.65V30h3.56v.65h-1.44V35H24v-4.35h-1.43ZM19.1 35h-.73l1.65-5h.8l1.65 5h-.73l-1.3-4.1h-.03L19.1 35Zm.13-1.96h2.38v.64h-2.38v-.64ZM15.79 35H14.3v-5h1.54c.45 0 .83.1 1.16.3.32.2.57.48.74.86.17.37.26.81.26 1.33s-.09.97-.26 1.35c-.18.37-.43.66-.76.86-.33.2-.72.3-1.19.3Zm-.8-.66h.76c.35 0 .64-.07.87-.21.24-.15.4-.36.52-.63.12-.28.18-.61.18-1 0-.4-.06-.73-.18-1a1.3 1.3 0 0 0-.5-.63c-.23-.14-.51-.21-.85-.21H15v3.68ZM10.7 35v-5h2.87v.65H11.4v1.52h2.03v.65H11.4v1.53h2.2V35h-2.9ZM6.5 35v-5h.7v2.39h.05L9.17 30h.88l-1.86 2.25L10.05 35h-.83l-1.48-2.23-.55.67V35H6.5ZM49.3 27v-5h.7v4.35h2V27h-2.7ZM45.25 27h-.74l1.65-5h.8l1.66 5h-.74l-1.3-4.1h-.03l-1.3 4.1Zm.12-1.96h2.39v.64h-2.39v-.64ZM40.6 27v-5h1.68c.32 0 .6.06.8.18.22.11.38.27.49.47.1.2.15.42.15.66 0 .21-.03.39-.1.53a.92.92 0 0 1-.28.34 1.2 1.2 0 0 1-.39.19v.05c.15 0 .3.06.45.16.14.1.26.23.36.42.1.18.14.4.14.65 0 .26-.05.49-.16.7-.11.2-.28.36-.5.47-.24.12-.53.18-.89.18H40.6Zm.69-.65h1c.33 0 .57-.07.71-.2a.7.7 0 0 0 .22-.53c0-.16-.04-.3-.11-.44a.82.82 0 0 0-.32-.31.94.94 0 0 0-.48-.12H41.3v1.6Zm0-2.19h.93c.15 0 .3-.03.41-.1a.75.75 0 0 0 .42-.69c0-.2-.07-.38-.2-.52-.14-.14-.34-.2-.62-.2h-.94v1.51ZM39.7 24.5c0 .52-.1.97-.27 1.34a1.92 1.92 0 0 1-1.8 1.16 1.93 1.93 0 0 1-1.8-1.16 3.07 3.07 0 0 1-.27-1.34c0-.52.09-.97.27-1.34a1.92 1.92 0 0 1 1.8-1.16c.4 0 .75.1 1.06.3.31.2.56.49.74.86.18.37.27.82.27 1.34Zm-.69 0c0-.4-.06-.73-.18-1a1.39 1.39 0 0 0-.5-.62c-.2-.14-.44-.21-.7-.21-.26 0-.5.07-.7.21-.22.14-.38.35-.5.62s-.18.6-.18 1 .06.73.18 1 .28.48.5.62c.2.14.44.21.7.21.26 0 .5-.07.7-.2.22-.15.38-.36.5-.63s.18-.6.18-1ZM32.3 27v-5h.7v4.35h2.07V27H32.3ZM30.82 23.6c-.05-.14-.1-.27-.18-.38a1.16 1.16 0 0 0-.6-.49 1.3 1.3 0 0 0-1.12.15c-.2.14-.37.35-.49.62s-.18.6-.18 1 .06.73.18 1 .29.48.5.62c.21.14.45.21.72.21.25 0 .47-.05.65-.16.19-.11.33-.26.43-.46.1-.2.16-.43.16-.7l.18.04h-1.32v-.6h1.81V25c0 .4-.08.76-.25 1.06-.16.3-.39.53-.67.7-.3.16-.62.24-.99.24-.42 0-.78-.1-1.1-.3-.3-.2-.55-.5-.73-.87a3.12 3.12 0 0 1-.26-1.33c0-.39.05-.73.15-1.04.1-.31.25-.57.43-.79a1.88 1.88 0 0 1 1.48-.67c.25 0 .48.04.7.12a1.84 1.84 0 0 1 .98.84c.11.19.19.4.23.64h-.71ZM22 27v-5h.7v2.39h.05L24.67 22h.88l-1.86 2.25L25.55 27h-.83l-1.48-2.23-.55.67V27H22ZM21.02 23.65h-.7a1.18 1.18 0 0 0-.42-.73c-.1-.08-.22-.14-.36-.19a1.32 1.32 0 0 0-1.12.15c-.2.14-.37.35-.5.62-.11.27-.17.6-.17 1s.06.73.18 1c.12.28.28.48.5.62.2.14.44.21.7.21a1.16 1.16 0 0 0 1.04-.55c.07-.12.12-.26.15-.42h.7c-.04.25-.11.47-.22.67a1.8 1.8 0 0 1-.98.85 2 2 0 0 1-.7.12 1.92 1.92 0 0 1-1.8-1.16 3.09 3.09 0 0 1-.26-1.34c0-.52.09-.97.27-1.34a1.9 1.9 0 0 1 1.8-1.16c.24 0 .46.04.67.11a1.77 1.77 0 0 1 1 .84c.1.2.18.44.22.7ZM14 27v-5h.75v4.35H17V27h-3ZM7.88 22.65V22h3.56v.65H10V27h-.68v-4.35H7.88ZM4 27v-5h1.64c.35 0 .65.07.88.21.24.14.41.34.53.58.12.25.18.52.18.83 0 .3-.06.58-.18.83-.12.24-.3.44-.53.58-.23.14-.53.21-.89.21H4.51v-.64h1.06c.23 0 .41-.04.55-.12.14-.1.24-.2.31-.36.07-.14.1-.31.1-.5s-.03-.36-.1-.5a.74.74 0 0 0-.31-.35 1.09 1.09 0 0 0-.56-.12H4.7V27H4Z" fill="#fff"/></svg>