<!-- by TradingView --><svg width="56" height="56" viewBox="0 0 56 56" xmlns="http://www.w3.org/2000/svg"><path fill="#F0F3FA" d="M0 0h56v56H0z"/><path d="M29.75 17.99c-.3-.27-1.77-1.53-4.43-3.78-.19-.16-.31-.43-.38-.8-.2-1.14-.34-2.22-.44-3.24 0-.1.04-.15.14-.17.23-.02.5.08.8.32a146.1 146.1 0 0 1 3.43 2.77c.29.26.51.68.68 1.26.33 1.14.63 2.38.9 3.7.07.36-.04.44-.34.23a3.8 3.8 0 0 1-.36-.3Z" fill="#FDD405"/><path d="m20.69 16.75-3.15-4.72a.35.35 0 0 1 .02-.42.33.33 0 0 1 .4-.1l6.21 2.89c.05.02.1.05.12.1l3.63 4.53a.35.35 0 0 1 .01.42c-.04.06-.1.1-.18.13a.33.33 0 0 1-.21-.01l-6.7-2.69a.34.34 0 0 1-.15-.13Z" fill="#FEBA14"/><path d="M32.55 12.3c.71 1.09 1.32 2.04 1.82 2.84.27.41.32.78.16 1.1-.36.73-.78 1.5-1.28 2.32a.2.2 0 0 1-.18.1.2.2 0 0 1-.16-.12l-2.05-4.37a.96.96 0 0 1 0-.82l.84-1.7a.2.2 0 0 1 .22-.1.2.2 0 0 1 .08.03c.12.1.3.33.55.71ZM35.61 19.78l.35-2.92a.9.9 0 0 1 .52-.75l1.5-.73c.36-.17.55-.06.57.33.04.6.01 1.4-.07 2.42a.85.85 0 0 1-.41.69c-.72.46-1.4.87-2.05 1.24a.27.27 0 0 1-.39-.12.29.29 0 0 1-.02-.16Z" fill="#FDD405"/><path d="m27.44 21.97-8.27.33a.1.1 0 0 1-.05 0l-8.75-4.49a.1.1 0 0 1-.01-.16.1.1 0 0 1 .05-.02l9.6.34a.1.1 0 0 1 .04.01l7.43 3.8a.1.1 0 0 1 .04.05.1.1 0 0 1-.03.12.1.1 0 0 1-.05.02Z" fill="#FEBA14"/><path d="M38.58 20.75c.57-.71.58-1.08 1.57-.76 1.16.37 2.02.62 2.6.75a.29.29 0 0 1 .2.19.3.3 0 0 1-.05.29l-1.35 1.73a.76.76 0 0 1-.77.27l-3.15-.81a.24.24 0 0 1-.17-.17.25.25 0 0 1 .05-.23l1.07-1.26Z" fill="#FDD405"/><path d="m19.24 23.43 8.3 1.37a.2.2 0 0 1 .1.05.2.2 0 0 1 .05.22.2.2 0 0 1-.06.1l-6.04 4.68a.2.2 0 0 1-.12.04H10.2a.2.2 0 0 1-.12-.04.2.2 0 0 1-.07-.23.2.2 0 0 1 .08-.1l9.01-6.06a.2.2 0 0 1 .14-.03Z" fill="#FEAD18"/><path d="m42.02 24.76 2.92 3a.2.2 0 0 1 .05.2.2.2 0 0 1-.15.14l-2.48.47a.2.2 0 0 1-.16-.04l-3.97-3.25a.2.2 0 0 1-.07-.22.2.2 0 0 1 .07-.1.2.2 0 0 1 .1-.04l3.53-.22a.2.2 0 0 1 .16.06Z" fill="#FDD405"/><path d="m30.02 27.8-1.88 7.65a.17.17 0 0 1-.07.1l-9.7 6.77a.17.17 0 0 1-.2 0 .18.18 0 0 1-.05-.2l4.13-10.77a.17.17 0 0 1 .08-.1l7.45-3.64a.17.17 0 0 1 .24.1v.1Z" fill="#FEAD18"/><path d="m40.06 32.71-2.23-4.75a.27.27 0 0 1 .1-.35.26.26 0 0 1 .12-.03c.42-.03 2.34 1.39 3.83 2.38.23.16.5.52.78 1.08.85 1.69 1.58 3.2 2.2 4.55.07.15.03.24-.13.27-.05 0-.14-.03-.25-.1-.99-.63-2.22-1.38-3.7-2.25a1.8 1.8 0 0 1-.72-.8Z" fill="#FEBA14"/><path d="M31.41 46.77c-.12.3-.22.3-.33 0a9 9 0 0 1-.24-1.2c-.4-2.58-.86-5.52-1.4-8.8-.08-.4.04-.9.35-1.49 1.28-2.43 2.31-4.45 3.1-6.05.12-.22.2-.21.27.03.59 2.26 1.12 4.58 1.58 6.95a3.5 3.5 0 0 1-.2 1.87c-1.2 3.36-2.24 6.25-3.13 8.69Z" fill="#FEAD18"/><path d="m36.32 36.94-.46-7.74c0-.03 0-.07.02-.1a.16.16 0 0 1 .26 0l3.4 5.1.02.06 1.6 8.75c0 .03 0 .07-.02.1a.16.16 0 0 1-.27.02l-4.52-6.1a.16.16 0 0 1-.03-.09Z" fill="#FEBA14"/></svg>