<!-- by TradingView --><svg width="56" height="56" viewBox="0 0 56 56" xmlns="http://www.w3.org/2000/svg"><path fill="#F0F3FA" d="M0 0h56v56H0z"/><path d="M28 11c-1.77 0-3.38.27-5 .77V37h-1V12a16.8 16.8 0 0 0-11 16 17 17 0 0 0 17 17c2.2 0 4.08-.4 6-1.17V26h3.82c2.1 0 3.6 1.57 3.6 3.67 0 2.53-1.83 4.32-4.42 4.32v-.9c2.21 0 3.54-1.28 3.54-3.42 0-1.96-1.46-2.67-2.72-2.67H35v16.43c5.96-2.64 10-8.5 10-15.43a17 17 0 0 0-17-17Zm5 26h-1v-9.5l-3.27 2.05h-.42L25 27.1V37h-1V26.72l1.06-.6 3.42 2.33 3.55-2.32.97.6V37Z" fill="#09334F"/></svg>