<!-- by TradingView --><svg width="56" height="56" viewBox="0 0 56 56" xmlns="http://www.w3.org/2000/svg"><path fill="#F0F3FA" d="M0 0h56v56H0z"/><path d="M30.7 14.71a58.53 58.53 0 0 0-4.93 5.46c-.07.08-.05.1.04.07.04-.02.13-.07.25-.16.46-.33.98-.53 1.57-.63.98-.15 2.05.17 2.44 1.13.62 1.52-.41 3.48-1.18 4.86a88.2 88.2 0 0 0-2.44 4.7 40.63 40.63 0 0 0-2.4 6.3c-.72 2.5-.72 5.3.8 7.48.58.84 1.4 1.5 2.48 2a5.22 5.22 0 0 1-2.31-.85c-.47-.31-.98-.69-1.55-1.13a75.69 75.69 0 0 1-6.21-5.47 64.86 64.86 0 0 1-4.78-5.12 5.45 5.45 0 0 1-1.47-3.77c.09-1.8.7-3.54 1.6-5.2 2.62-4.92 6.88-9 11.63-12a30.86 30.86 0 0 1 5.13-2.6c1.25-.49 3.08-1.16 4.38-.52 1.15.57.54 1.84-.1 2.49l-2.96 2.96Z" fill="#E62F36"/><path d="M30.7 14.71c.3.2.63.37.9.58A72.1 72.1 0 0 1 43.67 26.7c1.73 2.06 1.81 4.54.08 6.63a72.07 72.07 0 0 1-11.47 11.04c-.5.39-1 .7-1.48.96-1.14.59-2.3.79-3.46.58a6.04 6.04 0 0 1-2.49-2c-1.51-2.17-1.51-4.97-.78-7.49a40.61 40.61 0 0 1 2.39-6.3 88.24 88.24 0 0 1 2.44-4.69c.77-1.38 1.8-3.34 1.18-4.86-.4-.96-1.46-1.28-2.44-1.13-.59.1-1.11.3-1.57.63-.12.09-.2.14-.25.16-.1.03-.1 0-.05-.07a58.47 58.47 0 0 1 4.93-5.46Z" fill="#262364"/></svg>