<!-- by TradingView --><svg width="56" height="56" viewBox="0 0 56 56" fill="none" xmlns="http://www.w3.org/2000/svg">
<rect width="56" height="56" fill="#353A4C"/>
<path d="M23.4815 23H22V33H23.4815C23.7543 33 24 32.7825 24 32.5142V29.6142L26.4542 33H28.0312C28.2969 33 28.4989 32.765 28.5 32.5142C28.5004 32.414 28.4324 32.3114 28.3619 32.2201L26.0536 29.3511L28.996 26H26.568L24 28.9462V23.4858C24 23.2175 23.7543 23 23.4815 23Z" fill="#FBB217"/>
<path d="M47.4329 23H46V26H44.5V27.4859C44.5 27.7525 44.7407 28 45.0256 28H46L46 31.3903C46 32.2793 46.5907 33 47.5404 33H49.3673C49.6522 33 50 32.7838 50 32.5171V31H48.4646C48.1797 31 48 30.7838 48 30.5171V23.4829C48 23.2162 47.7178 23 47.4329 23Z" fill="#FBB217"/>
<path d="M11 26H12.5077C12.7796 26 13 26.2199 13 26.4912V32.5088C13 32.7801 12.7796 33 12.5077 33H11V26Z" fill="#FBB217"/>
<path fill-rule="evenodd" clip-rule="evenodd" d="M31.5239 26H30V33H31.5239C31.7869 33 32 32.7801 32 32.5088V29.1209C32 29.1209 32 28 33.0504 28C34.0025 28 34 28.8753 34 28.8753V33H35.5239C35.7868 33 36 32.7801 36 32.5088V28.5625C36 27 35.2819 26 33.8438 26C32.4056 26 32 27.3438 32 27.3438V26.4375C32 26.1662 31.7869 26 31.5239 26Z" fill="#FBB217"/>
<path fill-rule="evenodd" clip-rule="evenodd" d="M16.5239 26H15V33H16.5239C16.7869 33 17 32.7801 17 32.5088V29.1209C17 29.1209 17 28 18.0504 28C19.0025 28 19 28.8753 19 28.8753V33H20.5239C20.7868 33 21 32.7801 21 32.5088V28.5625C21 27 20.2819 26 18.8438 26C17.4056 26 17 27.3438 17 27.3438V26.4375C17 26.1662 16.7869 26 16.5239 26Z" fill="#FBB217"/>
<path fill-rule="evenodd" clip-rule="evenodd" d="M11 25C12.1046 25 13 24.1981 13 23.2021C13 23.1338 13.0082 23.0664 13 23H11V25Z" fill="#E02126"/>
<path fill-rule="evenodd" clip-rule="evenodd" d="M50 28C48.8954 28 48 27.1981 48 26.2021C48 26.1338 47.9918 26.0664 48 26H50V28Z" fill="#E02126"/>
<path fill-rule="evenodd" clip-rule="evenodd" d="M43.9287 30C43.9755 29.7751 44 29.7382 44 29.5C44 27.567 42.8261 26 40.6087 26C38.6157 26 37 27.567 37 29.5C37 31.433 38.6157 33 40.6087 33C41.6534 33 42.4848 32.6859 43.1641 32.0156C43.3667 31.8156 43.3036 31.4957 43.0648 31.3376L42.2391 30.7344C41.9086 31.125 41.4212 31.4 40.6087 31.4C39.9914 31.4 39 30.8281 39 30H42.2391H43.9287ZM39 28.6777H42C41.9219 27.9375 41.2812 27.5 40.6087 27.5C39.8524 27.5 39.2207 27.9665 39 28.6777Z" fill="#FBB217"/>
<path fill-rule="evenodd" clip-rule="evenodd" d="M7.6138 23H6V31.3486V31.4531C6 32.3074 6.6556 33 7.54688 33H9.527C9.80549 33 10 32.7836 10 32.5167V31H8.59375C8.29688 31 8 30.7812 8 30.25V23.4833C8 23.2164 7.89229 23 7.6138 23Z" fill="#FBB217"/>
</svg>
