<!-- by TradingView --><svg width="56" height="56" viewBox="0 0 56 56" xmlns="http://www.w3.org/2000/svg"><path fill="#F0F3FA" d="M0 0h56v56H0z"/><path d="M26.93 19.4a4.98 4.98 0 0 0 6.74 0 .1.1 0 0 1 .08.02l.03.04c.14.37.23.68.3.94.22 1.01.64 2.78 1.25 5.31 1.21 5.03 2.48 10.36 3.8 16.01a.36.36 0 0 0 .35.27h6.4c.1 0 .14-.04.1-.14-.2-.63-.46-1.33-.78-2.1-.76-1.84-1.38-3.34-1.84-4.51-1.37-3.46-4.1-10.27-8.17-20.43-.63-1.57-1.5-2.98-3.21-3.5a5.22 5.22 0 0 0-2.17-.28A5.05 5.05 0 0 0 25.74 14H14.62A2.62 2.62 0 0 0 12 16.6v4.77c0 .28.14 1.08.54 1.25.48.2 1.05.2 1.6.2.4 0 .8 0 1.17.07 2.16.46 3.66 2.21 3.14 4.42a3.76 3.76 0 0 1-2.26 2.6c-.52.23-.94.3-1.27.24l-.08-.02c-.7-.14-2.07-.41-2.46.29-.26.46-.38.9-.38 1.46v3.46c0 .96.6 1.65 1.75 1.66h2.69l.03.03.02.02a.1.1 0 0 1 .05.09.1.1 0 0 1-.01.05l-2.24 4.68a.08.08 0 0 0 0 .08l.03.03h.01l.03.02h6.3c.09 0 .17-.04.23-.09a.37.37 0 0 0 .13-.2l.16-.52c1.15-3.53 2.97-8.89 5.47-16.08.33-.95.53-1.58.62-1.9a1.3 1.3 0 0 0-.22-1.18c-.35-.47-1.17-.3-1.63-.04-.17.1-.36.32-.56.68-.67 1.14-1.18 2.08-1.66 2.94a331.74 331.74 0 0 1-1.89 3.41L18.56 34H15v-1.1c0-.07.03-.14.07-.19.05-.05.1-.08.18-.09a6.22 6.22 0 0 0 5.64-7.38 6.06 6.06 0 0 0-2.9-3.95c-.97-.61-1.9-.8-2.99-.94v-2.59c.12-.7.7-.72 1.24-.75l.25-.01h8.68c.05 0 .1.01.15.04.04.03.08.07.1.11.32.84.82 1.65 1.51 2.25Zm4.9-4.94a2 2 0 0 1-.68 3.3 2.1 2.1 0 0 1-2.25-.45 2.02 2.02 0 0 1-.6-1.42 2 2 0 0 1 .6-1.43 2.09 2.09 0 0 1 2.92 0Zm-6.28 5.36a2.25 2.25 0 0 1-2.28 2.23c-1.25 0-2.27-1-2.27-2.23a2.25 2.25 0 0 1 2.27-2.22c1.26 0 2.28 1 2.28 2.22Zm2.17 4.7c.24-.8.42-1.34.52-1.64.1-.32.28-.6.53-.81.27-.24.42-.33.8-.25.74.17 1.1 1.02 1.06 1.7a87.94 87.94 0 0 1-.23 2.75c-.1 1.03-.18 1.94-.24 2.74-.1 1.5-.3 3.76-.56 6.8-.12 1.28-.2 2.5-.28 3.91l-.14 2.05c0 .06-.03.12-.07.16a.25.25 0 0 1-.17.07h-6.27a.11.11 0 0 1-.08-.04.1.1 0 0 1-.03-.07c.02-.23.06-.46.14-.69l.7-2.28a1382.27 1382.27 0 0 0 4.32-14.4Zm9.6 17.17-.98-5.04-2.56-13.5c-.13-.69-.27-1.09-.97-1.32a.93.93 0 0 0-.74.05c-.67.34-.7.93-.72 1.58l-.03.44c-.06.67-.07 1.34-.08 2.01l-.03 1.35-.12 2.48c-.13 4.3-.27 8.3-.42 12 0 .18.08.26.25.26h6.14a.27.27 0 0 0 .21-.1.26.26 0 0 0 .06-.21Z" fill="#FE8038"/></svg>