<!-- by TradingView --><svg width="56" height="56" viewBox="0 0 56 56" xmlns="http://www.w3.org/2000/svg"><path fill="#F0F3FA" d="M0 0h56v56H0z"/><path d="M31.83 19a17 17 0 0 0-3.77 1.68.13.13 0 0 0-.06.1c-.02-.03-.06-.03-.1 0-1.68 1.05-3 2.22-4.6 3.83l-7.04 7.06a8.2 8.2 0 0 1-3.55 2.19c-.35.1-.91.14-1.7.14H4.14c-.17 0-.17-.03 0-.08 2.98-.94 5.49-3.15 7.76-5.43l6.35-6.37a11.21 11.21 0 0 1 3.23-2.45 6.4 6.4 0 0 1 2.77-.65c2.5-.02 5.02-.02 7.6-.02Z" fill="#97C93D"/><path d="M31.83 19c1.76.13 3.39.83 4.89 2.12l2.99 2.98c1.7 1.68 3.4 3.38 5.1 5.09 2.05 2.06 4.45 3.89 7.1 4.75.12.04.12.06 0 .06h-7.92c-.27 0-.7-.12-1.3-.34-1.36-.5-2.3-1.33-3.48-2.5L32.4 24.3c-1.01-1.04-2.1-1.98-3.28-2.8l-1.1-.72c0-.05.02-.08.05-.1 1.17-.7 2.42-1.26 3.77-1.68Z" fill="url(#a)"/><defs><linearGradient id="a" x1="40" y1="19.85" x2="40" y2="34" gradientUnits="userSpaceOnUse"><stop stop-color="#0A58A4"/><stop offset=".26" stop-color="#1795AF"/><stop offset="1" stop-color="#1CA7B5"/></linearGradient></defs></svg>