<!-- by TradingView --><svg width="56" height="56" viewBox="0 0 56 56" xmlns="http://www.w3.org/2000/svg"><path fill="#F0F3FA" d="M0 0h56v56H0z"/><path d="M30.98 13.14c-.46.17-.93.25-1.42.22a.15.15 0 0 1-.1-.04l-1.23-1.2a.33.33 0 0 0-.44-.03c-.57.46-1.08 1.07-1.66 1.5l-.7.48a.17.17 0 0 1-.23-.02c-.1-.1-.1-.19-.03-.27a27.97 27.97 0 0 0 2.47-2.86c.15-.2.12-.41.1-.65.06-.25.12-.33.2-.23a22.42 22.42 0 0 0 3.04 3.1Z" fill="#6A4907"/><path d="M27.75 10.27c.01.24.04.44-.1.65-.52.72-1.35 1.68-2.48 2.86-.07.08-.06.17.03.27a.17.17 0 0 0 .23.02l.7-.49c.58-.42 1.09-1.03 1.66-1.5a.33.33 0 0 1 .44.03l1.23 1.2c.03.04.06.05.1.05.5.03.96-.05 1.42-.22 1.25.9 2.57 1.68 3.96 2.33l.57.31c.25.15.53.23.82.26.32.04.59.1.8.18.4.15.82.26 1.27.33-.83.1-1.64.02-2.43-.25a.83.83 0 0 0-.33-.06.12.12 0 0 0-.06.03.12.12 0 0 0-.04.12c0 .03.01.05.03.06.42.36.81.48 1.16.35.58.32 1.2.48 1.84.5.5 0 .99.13 1.46.1 1.07-.05 2.13-.08 3.2-.08.03 0 .08.02.13.07-.15.08-.23.16-.25.24-5.54.76-11.31-1.1-15.01-5.26-.07-.08-.15-.08-.23-.01l-2.4 2.15-.04-.15a.13.13 0 0 0-.09-.1.14.14 0 0 0-.12.03c-.57.43-1.06.75-1.48.95a.61.61 0 0 1-.42.05c-.18-.04-.23-.15-.15-.31.2-.4.49-.69.86-.88.12-.07.34-.3.65-.72.45-.3.8-.6 1.06-.88.64-.74 1.31-1.48 2-2.23Z" fill="#DEB967"/><path d="M43.11 17.63A60.8 60.8 0 0 1 35 38.05a40 40 0 0 1-6.7 8.03.42.42 0 0 1-.56.01 33.8 33.8 0 0 1-5.25-5.96c-.39-.55-.8-1.1-1.23-1.64a57.63 57.63 0 0 1-6.7-14.58c-.38-1.25-.74-2.5-1.1-3.76l-.51-2.29a.16.16 0 0 1 .04-.14.16.16 0 0 1 .14-.05c4.6.49 8.7-.57 12.34-3.16l2.4-2.15c.08-.07.16-.07.23.01 3.7 4.16 9.46 6.02 15.01 5.26Z" fill="#005BAC"/><path d="M24.68 13.38a3.1 3.1 0 0 1-.65.72c-.37.2-.66.49-.86.88-.08.16-.03.27.15.31.14.03.28.02.42-.05a9.06 9.06 0 0 0 1.54-.98.14.14 0 0 1 .12.04l.03.06.04.15a17.35 17.35 0 0 1-12.42 3.17.17.17 0 0 0-.1.1v.08l.51 2.29-.08.89-.8-3.27c-.01-.31.08-.52.28-.6l1.17.25c1.79.17 3.54-.04 5.25-.63.05-.01.08-.04.1-.07.04-.08.02-.12-.08-.12h-.38c.5-.13.95-.34 1.35-.65.31-.24.61-.41.9-.52.77-.32 1.8-.98 2.24-1.23.42-.24.85-.51 1.27-.82Z" fill="#FDF7AD"/><path d="m29.61 16.5-1.38 2.18-2.37-.9a10 10 0 0 1-.02-.08l1.89-2.34.84-1.07c.21-.27.45-.3.71-.07l.98.83c.18.16.2.33.05.52l-.7.92Z" fill="#A1A497"/><path d="m27.73 15.36-1.89 2.34c-1.01.07-1.87.23-2.59.46-2.98.94-4.62 3.83-4.46 6.84.04.82.15 1.64.33 2.47l-1.19 2.13a6.48 6.48 0 0 1-1.57-3.45c-.19-1.68-.07-3.22.36-4.62 1.11-3.68 4.47-4.09 7.7-5.59a5.66 5.66 0 0 1 3.3-.58Z" fill="#3D6AB3"/><path d="M43.2 23.3c-.23-.26-.28-.6-.14-1l.24-.7c.4-1.71.74-3.43 1.01-5.15a.5.5 0 0 0 .19-.2l.25-.25c.2-.18.28-.13.24.13a59.94 59.94 0 0 1-1.78 7.17ZM11.34 16.04l.3.6c.56 2.74 1.01 4.8 1.34 6.16.03.15.04.3.02.42-.01.08-.04.09-.1.02-.06-.1-.12-.16-.18-.18A44.2 44.2 0 0 1 11 16.07c-.01-.09.03-.13.12-.12.07 0 .14.03.22.09Z" fill="#090602"/><path d="M18.92 16.6h.38c.1 0 .12.04.08.12-.02.03-.05.06-.1.07-1.71.6-3.46.8-5.25.63l2.32-.14c.02 0 .04 0 .06-.03.02-.03.03-.06.01-.1a.1.1 0 0 0-.09-.06l-3.39-.33a.18.18 0 0 0-.16.08.17.17 0 0 0 0 .18l.08.14c-.2.1-.3.3-.28.61-.17-.1-.23-.26-.19-.44.03-.1.01-.2-.04-.3a.53.53 0 0 0-.26-.2l-.45-.19-.3-.6c2.54.54 5.06.73 7.58.56ZM38.4 16.55c.98.11 1.8.34 2.86.25l3.05-.35a72.56 72.56 0 0 1-1.01 5.15l-.24.7c-.14.4-.1.74.15 1l-.77 2.08a27.43 27.43 0 0 1-.16-2.76c.01-.22.05-.46.12-.7.32-1.17.64-2.52.98-4.05a.88.88 0 0 0-.02-.48c-.05-.05-.1-.07-.14-.07-1.06 0-2.12.03-3.19.09-.47.02-.96-.1-1.46-.12.33.06.65.04.96-.06.06-.01.1-.05.1-.12l-.01-.08c0-.08-.05-.14-.13-.16a5.6 5.6 0 0 0-2.76-.07c-.35.13-.74.01-1.16-.35a.12.12 0 0 1 .07-.2c.09-.01.2 0 .33.05.8.27 1.6.35 2.43.25Z" fill="#A07317"/><path d="M44.5 16.26a.5.5 0 0 1-.18.2l-3.06.34c.81-.17 1.6-.36 2.4-.56.23-.07.51-.06.84.02Z" fill="#DEB967"/><path d="m29.61 16.5 2.58 2.8a.2.2 0 0 1-.03.3l-3.26 2.44-1.43-2.02.76-1.34 1.38-2.19Z" fill="#5276B9"/><path d="m12.58 17.77.8 3.27 1.1 4.3a.3.3 0 0 1-.18.35.31.31 0 0 1-.14.03c-.54-.02-.82-.3-.85-.84a.52.52 0 0 0-.06-.22 4.72 4.72 0 0 1-.53-1.6c.06.02.12.08.19.18.05.07.08.06.1-.02.01-.12 0-.27-.03-.42a222.9 222.9 0 0 1-1.34-6.16l.45.19c.1.04.2.12.26.2.05.1.07.2.05.3-.05.18.01.33.18.45Z" fill="#DEB967"/><path d="M38.57 17.3c-.65-.02-1.26-.18-1.84-.5a5.6 5.6 0 0 1 2.77.07c.07.02.12.08.12.16v.08c0 .07-.03.1-.09.12-.3.1-.63.12-.96.06Z" fill="#6A4907"/><path d="m14.03 17.42-1.17-.26-.08-.14a.17.17 0 0 1 .07-.24.18.18 0 0 1 .1-.02l3.38.33a.1.1 0 0 1 .1.07c0 .03 0 .06-.02.1a.08.08 0 0 1-.06.02l-2.32.14Z" fill="#090602"/><path d="M43.36 17.4c.05.14.06.3.02.47a84.32 84.32 0 0 1-.98 4.04c-.07.25-.1.5-.12.71v.73c.03.63.08 1.3.16 2.03-.11.86-.41 1.73-.9 2.6l-1.1 1.9-.56.16a.27.27 0 0 0-.17.14l-1.69 3.2a53.9 53.9 0 0 1-4.36 7.2c-.55.78-1.41 1.73-2.01 2.6a.33.33 0 0 1-.12.11 27.62 27.62 0 0 0-1.7 1.75.1.1 0 0 0-.03.08l-.03.13a.14.14 0 0 1-.07.07c-.41.22-.84.6-1.28 1.13a.45.45 0 0 1-.6.07c-.35-.25-.6-.47-.77-.65-.3-.32-.64-.52-.88-.8A67.13 67.13 0 0 0 24.23 43a30.5 30.5 0 0 1-3.58-4.95l.61.45c.43.54.84 1.09 1.23 1.64a33.81 33.81 0 0 0 5.25 5.96.42.42 0 0 0 .56 0 40 40 0 0 0 6.7-8.04 60.8 60.8 0 0 0 8.11-20.42c.02-.08.1-.16.25-.24Z" fill="#FBF2CC"/><path d="m25.84 17.7.02.08a64.68 64.68 0 0 0-5.09 6.98l-1.65 2.7c-.18-.82-.29-1.64-.33-2.46-.16-3.01 1.48-5.9 4.46-6.84.72-.23 1.58-.39 2.6-.46Z" fill="#7089C6"/><path d="m25.86 17.78 2.37.9-.76 1.34a38.72 38.72 0 0 0-3.99 7.59l-.6 1.45-.32.07a4.45 4.45 0 0 0-.53-.94c-.21-.3-.44-.58-.68-.87a2.58 2.58 0 0 1-.58-2.56 64.7 64.7 0 0 1 5.09-6.98Z" fill="#FDF7AD"/><path d="m27.48 20.02 1.42 2.02a46.6 46.6 0 0 0-5.42 5.57 38.72 38.72 0 0 1 4-7.59Z" fill="#95A8D7"/><path d="M20.77 24.76a2.58 2.58 0 0 0 .59 2.56c.23.29.46.57.67.87.21.27.39.58.54.94a36.85 36.85 0 0 0-2.44 4.26c-.17.36-.36.9-.55 1.61-.28-.5-.66-1.04-.86-1.5a20.3 20.3 0 0 0-1-2.1c-.36-.67-.2-1.22.21-1.8l1.2-2.13 1.64-2.7Z" fill="#A1A497"/><path d="M19.58 35c.2-.71.38-1.25.55-1.61.61-1.3 1.42-2.71 2.44-4.26l.3-.07c-.34.99-.79 3 .97 2.83 1-.1 1.95-.29 2.9-.6 4.42-1.43 8.69-3.63 12.8-5.77l.46-.3c.18-.13.4-.2.63-.22.08 0 .11.03.08.11a58.5 58.5 0 0 1-5.8 12.54c-.23.38-.77.28-1.05.34-2.68.57-5.45.95-8.33 1.14-1.09.07-2.15.07-3.18.01a.42.42 0 0 1-.19-.06.39.39 0 0 1-.13-.13L19.58 35Z" fill="#FFF202"/><path d="M22.54 38.79c-.04.01-.12 0-.23-.02-.18-.04-.19-.08-.04-.12a.35.35 0 0 1 .15 0c.08.01.15 0 .21-.06a7.87 7.87 0 0 1 2-1c1.27-.48 2.55-1.34 3.54-1.84.61-.31 1.2-.65 1.76-1.02.9-.6 1.97-1.24 3.22-1.94.97-.54 2.47-1.7 4.5-3.47.52-.44.85-1.03 1.14-1.55.08-.14.18-.16.3-.04l.06.06a.2.2 0 0 1 .05.21 47.1 47.1 0 0 1-4.33 9.26c-.14.23-.38.37-.72.43-1.36.23-3.42.56-6.2.97-.88.13-2.52.21-4.9.25a.68.68 0 0 1-.36-.1.19.19 0 0 0-.07-.03h-.08Z" fill="#FFD005"/><path d="M41.53 27.98c-.42 1.54-.99 3.04-1.7 4.51a59.48 59.48 0 0 1-2.9 5.33c-.25-.01-.52.1-.81.35a.26.26 0 0 0-.09.15c0 .05-.02.08-.03.1l-1.72 2.49c-.7 1-1.4 1.66-2.04 2.55a20.18 20.18 0 0 1-4.02 3.87.16.16 0 0 1-.2 0 8.4 8.4 0 0 1-.83-.55 39.28 39.28 0 0 1-7.03-8.17.52.52 0 0 0-.54-.23c-.01 0-.02.07-.01.2a67.86 67.86 0 0 1-3.47-6.26 25.85 25.85 0 0 1-1.56-4.14l.04-.04c.04-.02.06-.01.08.02l.44.87c.17.35.43.65.78.91.42.31.67.55.9 1.07a54.87 54.87 0 0 0 3.83 7.03 30.5 30.5 0 0 0 3.58 4.95c.88.92 1.52 1.6 1.94 2.08.24.28.59.48.88.8.16.18.42.4.77.65a.45.45 0 0 0 .6-.07c.44-.53.87-.9 1.28-1.13a.14.14 0 0 0 .07-.07l.03-.13c0-.03 0-.05.02-.07a27.62 27.62 0 0 1 1.7-1.76c.06-.02.1-.06.13-.1.6-.88 1.46-1.83 2.01-2.6a53.9 53.9 0 0 0 4.36-7.2c.57.17.81-.37 1.12-.85.26-.4.7-1.3 1.3-2.66l1.1-1.9Z" fill="#A07317"/><path d="M40.44 29.88a25.36 25.36 0 0 1-1.3 2.66c-.3.48-.55 1.02-1.12.84l1.69-3.2c.04-.07.1-.12.17-.14l.56-.16Z" fill="#DEB967"/><path d="M36.93 37.82c-.56.98-1.16 1.9-1.8 2.74l-1.15 1.55a30.96 30.96 0 0 1-5.71 5.83.26.26 0 0 1-.32 0c-3.33-2.46-6.09-5.9-8.34-9.36l.01-.2a.52.52 0 0 1 .55.23 39.27 39.27 0 0 0 7.02 8.17c.1.1.38.28.84.56.07.04.13.04.2-.01a20.18 20.18 0 0 0 4.01-3.87c.65-.89 1.33-1.55 2.04-2.55L36 38.42a.27.27 0 0 0 .03-.1.26.26 0 0 1 .1-.15c.28-.25.55-.36.8-.35Z" fill="#090602"/></svg>