<!-- by TradingView --><svg width="56" height="56" viewBox="0 0 56 56" xmlns="http://www.w3.org/2000/svg"><path fill="#F0F3FA" d="M0 0h56v56H0z"/><path d="M40.02 40.02a17 17 0 1 0-24.04-24.04 17 17 0 0 0 24.04 24.04ZM30.1 34h9.44a.05.05 0 0 0 .05-.05v-.02l-9.35-15.49a.1.1 0 0 0-.16 0l-3.46 5.72a.53.53 0 0 0-.08.28v17.4a.15.15 0 0 1-.17.16 14.14 14.14 0 0 1-12.44-14.73 14.14 14.14 0 0 1 13.36-13.33A14.1 14.1 0 0 1 41.78 31a13.89 13.89 0 0 1-3.72 6.85 14.29 14.29 0 0 1-8.4 4.17c-.15.02-.22-.04-.22-.19l.1-18.74c0-.14.04-.15.1-.03L34.5 31h-2.97l-1.44 2.97V34ZM16.25 34h8.08l.02-.03 1.56-2.86c.02-.04-.03-.1-.07-.11H21.78l-.02-.02v-.06l7.97-13.26a.05.05 0 0 0 0-.06l-1.55-2.57-.02-.02a.06.06 0 0 0-.08.02L16.2 33.92a.05.05 0 0 0 .02.07l.03.01Z" fill="#FFD200"/></svg>