<!-- by TradingView --><svg width="56" height="56" viewBox="0 0 56 56" xmlns="http://www.w3.org/2000/svg"><path fill="#F0F3FA" d="M0 0h56v56H0z"/><path fill="#FF0" d="M8.7 32.8H47v5.62H8.7z"/><path d="M22 18h-1.37v-1H48v15.67h-1V28h-4v4.67h-1V28h-4v4.67h-1V28h-4v4.67h-1V28h-4v4.67h-1V28h-3.05v-1H27v-4h-5v-5Zm1 0v4h4v-4h-4Zm5 0v4h4v-4h-4Zm5 0v4h4v-4h-4Zm5 0v4h4v-4h-4Zm5 0v4h4v-4h-4Zm4 5h-4v4h4v-4Zm-5 4v-4h-4v4h4Zm-5 0v-4h-4v4h4Zm-5 0v-4h-4v4h4Z"/><path fill-rule="evenodd" d="M47 33H9v5h38v-5ZM8 32v7h40v-7H8Z"/><path d="M21.13 17.2a6.73 6.73 0 0 1 .49 1.07l.06.03c-.04.01-.04.04-.02.1.15.4.42 1.01.78 1.81l1.21 2.85.06.09.06.07-.01.04v.08l1.63 3.83.47 1.09 1.41 3.29.3.73a.06.06 0 0 1 0 .05.06.06 0 0 1-.05.03l-4.11-.01-3.16-12.96a.07.07 0 0 0-.08-.05l-.03.01c-.2.86-.88 1.03-1.6 1.2-1 .24-2.29-.79-2.72-1.6a50.2 50.2 0 0 1-.3-.54.24.24 0 0 0-.2-.13H9.08a.08.08 0 0 0-.08.05v2.05a.08.08 0 0 0 .04.04h.03c1.82-.03 3.28 1.03 3.62 2.78.44 2.27-1.36 3.75-3.5 3.8-.03 0-.04.02-.04.06v1.3c0 .02 0 .04.02.06l.05.02h2.15a.26.26 0 0 0 .22-.13l3.9-6.84a.68.68 0 0 1 .3-.3.2.2 0 0 1 .13 0c.66.16.27 1.35.1 1.8-1.09 3.14-2.2 6.25-3.34 9.34-1.11.09-2.2.07-3.25-.07l1.14-2.47a.03.03 0 0 0-.02-.04h-.02l-1.36.01c-.67 0-1.05-.6-1.1-1.23a9.39 9.39 0 0 1 .07-2.4.16.16 0 0 1 .05-.04.89.89 0 0 1 .44-.12c.71-.03 1.15-.05 1.31-.08 1.5-.24 2.03-1.38 1.7-2.76-.4-1.69-2.17-1.66-3.53-1.4a.08.08 0 0 1-.1-.05L8 21.63v-3.95c0-.69 1.64-.68 2.09-.68h5.35c.03 0 .04-.1.06-.11a.14.14 0 0 0 .05-.05c.7-1.18 1.5-2 2.98-1.81.71.09 1.3.33 1.76.73.42.37.7.85.84 1.45Zm-1.53.59a1.4 1.4 0 0 0-1.39-1.4 1.38 1.38 0 0 0-1.38 1.4 1.4 1.4 0 0 0 .85 1.29 1.38 1.38 0 0 0 1.51-.3c.26-.27.41-.62.41-1Z" fill="#FC7216"/><path d="M18.21 19.18a1.4 1.4 0 0 0 1.39-1.4 1.4 1.4 0 1 0-2.77 0c0 .78.62 1.4 1.38 1.4Z" fill="#FF0"/><path d="M23.4 32.35h-1.26a456.8 456.8 0 0 0-1.77-8.59c-.26-1.2-.45-2-.56-2.4-.04-.13-.14-.23-.31-.32a.15.15 0 0 0-.13 0c-.26.13-.37.24-.38.58l-.36 10.7h-1.4c.29-3.19.57-6.37.83-9.55.04-.45.03-.89-.03-1.3-.02-.14-.1-.22-.24-.24-.46-.07-.64.42-.75.78l-2.96 10.31-1.4-.01a609.4 609.4 0 0 0 3.35-9.33c.16-.46.55-1.65-.11-1.82a.2.2 0 0 0-.14.01.68.68 0 0 0-.3.3L11.6 28.3a.26.26 0 0 1-.22.13h-2.3l-.05-.02a.07.07 0 0 1-.02-.05v-1.31c0-.04.02-.06.05-.06 2.14-.05 4.08-1.53 3.64-3.8-.34-1.75-1.8-2.8-3.61-2.76a.08.08 0 0 1-.08-.08v-1.99c0-.14.08-.14.08-.14h6.18c.04 0 .15.06.18.08.04.03.07.06.09.1l.29.55c1 1.85 3.55 1.48 4.32.39a.07.07 0 0 1 .07 0 .07.07 0 0 1 .04.04l3.16 12.96Zm-8.14-12.37a1.1 1.1 0 0 0-1.09-1.1 1.08 1.08 0 0 0-1.08 1.1 1.1 1.1 0 0 0 1.08 1.1 1.08 1.08 0 0 0 1.1-1.1Z" fill="#FF0"/><path d="M14.17 21.08c.6 0 1.1-.5 1.1-1.1a1.1 1.1 0 1 0-2.18 0c0 .6.48 1.1 1.08 1.1ZM22.14 32.34l-3.5-.01.35-10.71c0-.34.12-.45.38-.58a.15.15 0 0 1 .13 0c.17.09.27.2.3.32.12.4.3 1.2.57 2.4.61 2.84 1.2 5.7 1.77 8.58ZM17.23 32.33h-3.15L17.04 22c.1-.36.29-.85.75-.78.14.02.22.1.24.24.06.41.07.85.03 1.3-.26 3.18-.54 6.36-.83 9.56ZM21 35.68A1.31 1.31 0 0 1 19.7 37h-.37A1.32 1.32 0 0 1 18 35.69v-.37A1.31 1.31 0 0 1 19.31 34h.37A1.32 1.32 0 0 1 21 35.3v.38Zm-1.5.66c.08 0 .16-.02.23-.07.07-.04.14-.1.2-.18a.9.9 0 0 0 .13-.27 1.1 1.1 0 0 0 0-.63.9.9 0 0 0-.13-.27.64.64 0 0 0-.2-.18.47.47 0 0 0-.23-.07.47.47 0 0 0-.23.07.64.64 0 0 0-.2.18.9.9 0 0 0-.14.27 1.1 1.1 0 0 0 0 .63c.03.1.08.2.13.27.06.08.13.14.2.18.08.04.16.07.24.07ZM38.8 34.62a.16.16 0 0 0-.06.06.15.15 0 0 0 .01.18c.03.02.05.04.09.05.6.15 1.41.27 1.57.86.15.6-.3 1.08-.9 1.19-.78.12-1.63 0-1.8-.89v-.05a.11.11 0 0 1 .07-.07l.06-.01h.65c.08 0 .14.03.17.1.12.35.36.44.73.3a.14.14 0 0 0 .08-.07c.1-.24-.09-.38-.3-.44-.6-.17-1.36-.3-1.36-.94 0-.93 1.15-.97 1.81-.84.39.08.61.3.68.67.02.12-.03.18-.16.18h-.54a.16.16 0 0 1-.12-.05l-.22-.2a.2.2 0 0 0-.1-.06.6.6 0 0 0-.36.03ZM13.5 36.36v.52a.11.11 0 0 1-.04.09.12.12 0 0 1-.09.03h-2.25a.13.13 0 0 1-.08-.03.12.12 0 0 1-.04-.09v-2.76c0-.04.01-.07.04-.09a.12.12 0 0 1 .08-.03h.76c.03 0 .06.01.08.03.03.02.04.05.04.09v2c0 .04.01.07.04.09.02.02.05.03.08.03h1.25c.03 0 .06.02.09.04.02.02.03.05.03.08ZM15.93 34h-.86a.07.07 0 0 0-.07.07v2.86c0 .04.04.07.08.07h.85c.04 0 .08-.03.08-.07L16 34.07a.07.07 0 0 0-.07-.07ZM24.23 35.7a1.4 1.4 0 0 0-.16-.2c-.05-.04-.07-.03-.07.03v1.35a.12.12 0 0 1-.12.12h-.75c-.09 0-.13-.05-.13-.13v-2.79c0-.02 0-.04.03-.06a.1.1 0 0 1 .06-.02h.74c.06 0 .1.02.14.07.22.28.44.69.8 1.22l.16.2c.05.05.07.04.07-.03v-1.34l.03-.09a.12.12 0 0 1 .09-.03h.75c.09 0 .13.04.13.13v2.78c0 .02 0 .05-.03.06a.1.1 0 0 1-.06.03h-.74a.17.17 0 0 1-.14-.07c-.22-.28-.44-.69-.8-1.22ZM30.96 35.2c-.22.66-.37 1.15-.44 1.46a.5.5 0 0 1-.18.3.17.17 0 0 1-.1.04h-.49a.26.26 0 0 1-.14-.04.2.2 0 0 1-.09-.11L29 35.02h-.04c-.03 0-.04 0-.04.03v1.84a.1.1 0 0 1-.04.08.14.14 0 0 1-.1.03h-.64c-.09 0-.13-.04-.13-.11v-2.84c0-.01 0-.02.02-.03l.04-.02h1.33l.07.02c.02.01.03.03.03.05l.46 1.56c.03.12.06.12.1 0l.44-1.54c0-.03.02-.05.05-.07a.16.16 0 0 1 .08-.02h1.29a.1.1 0 0 1 .06.02c.02.01.03.03.03.05v2.78c0 .1-.06.15-.18.15h-.58c-.11 0-.17-.05-.17-.14l-.03-1.66c0-.14-.03-.15-.08 0ZM36.18 36.42v.48a.1.1 0 0 1-.03.07.11.11 0 0 1-.07.03h-2.49a.1.1 0 0 1-.07-.03.1.1 0 0 1-.03-.07v-2.8a.1.1 0 0 1 .03-.07.1.1 0 0 1 .07-.03H36c.03 0 .06 0 .08.03a.1.1 0 0 1 .03.07v.47a.1.1 0 0 1-.03.07.11.11 0 0 1-.08.03h-1.41a.11.11 0 0 0-.08.03.1.1 0 0 0-.03.07v.24c0 .03.01.06.03.07.02.02.05.03.08.03h1.34a.11.11 0 0 1 .07.03.1.1 0 0 1 .03.07v.44a.1.1 0 0 1-.03.07.1.1 0 0 1-.07.03h-1.34a.11.11 0 0 0-.08.03.1.1 0 0 0-.03.07v.36a.1.1 0 0 0 .03.07.1.1 0 0 0 .08.03h1.5c.02 0 .05.01.07.03a.1.1 0 0 1 .03.08ZM43.5 35.05a7.7 7.7 0 0 1 .43 0A.1.1 0 0 0 44 35a.1.1 0 0 0 .01-.04v-.8c0-.1.06-.16.17-.16h.71c.08 0 .12.04.12.11v2.77c0 .03-.01.06-.04.08a.12.12 0 0 1-.08.04h-.75c-.08 0-.13-.04-.13-.12v-.99c0-.06-.02-.08-.08-.08a20.87 20.87 0 0 1-.84 0c-.06 0-.08.02-.08.08v1c0 .07-.04.1-.12.1l-.75.01a.12.12 0 0 1-.1-.03.12.12 0 0 1-.03-.09v-2.77c0-.07.04-.1.12-.1l.7-.01c.12 0 .18.06.18.17v.79a.1.1 0 0 0 .03.07.1.1 0 0 0 .08.03l.4-.01Z" fill="#FC7216"/></svg>