<!-- by TradingView --><svg width="56" height="56" viewBox="0 0 56 56" xmlns="http://www.w3.org/2000/svg"><path fill="#F0F3FA" d="M0 0h56v56H0z"/><path d="M28 11v17H11a18.5 18.5 0 0 1 1.33-6.55.1.1 0 0 1 .07-.03.1.1 0 0 1 .04 0l2.36 1.02a.06.06 0 0 1 .03.07l-.01.02-1.1 1.1a.1.1 0 0 0 .05.16l2.85.8a.15.15 0 0 0 .14-.05l.79-.78a.18.18 0 0 1 .2-.04l2.6 1.12a.08.08 0 0 1 .05.1l-.02.03-.43.39a.09.09 0 0 0 0 .13l.04.02 1.8.5a.27.27 0 0 0 .3-.13c.04-.06.08-.1.13-.14.05-.04.1-.05.16-.03l1.26.55c.2.1.24.2.35.35a.2.2 0 0 0 .14.09c.67.11 1.3.3 1.88.58.06.02.11.01.16-.04.06-.08.06-.17-.02-.26a1.6 1.6 0 0 0-.52-.34.12.12 0 0 1-.03-.2l.84-.75a.08.08 0 0 1 .1-.01l.01.02.37.52c.06.09.12.09.18 0l.24-.31a.37.37 0 0 0 .03-.4l-.34-.73a3.65 3.65 0 0 1-.1-.45c-.05-.27-.25-.34-.35-.54l-.48-1.02a1.94 1.94 0 0 1-.16-.88 18.9 18.9 0 0 0-.04-1.76l-.03-.01h-.06l-.53.54a.1.1 0 0 1-.08.02.1.1 0 0 1-.07-.05l-1.33-2.92a.13.13 0 0 1 0-.08c0-.03.01-.06.04-.08l.69-.69a.24.24 0 0 0 .06-.22l-.67-2.9a.1.1 0 0 0-.07-.07.1.1 0 0 0-.1.02l-1.14 1.14a.09.09 0 0 1-.08.03.09.09 0 0 1-.06-.05l-1.06-2.32a.12.12 0 0 1 .07-.17A18.65 18.65 0 0 1 28 11Z"/><path d="M44.98 28H28v5.41c-1.02.7-1.95.58-2.74-.38a.11.11 0 0 0-.09-.05.12.12 0 0 0-.09.04c-.87 1.03-2.22 1.15-3.08 0a.1.1 0 0 0-.14 0c-.4.4-.74.8-1.38.8a1.84 1.84 0 0 1-1.62-.79.1.1 0 0 0-.08-.04.1.1 0 0 0-.08.03c-.32.3-.59.67-1.09.76-.8.16-1.43-.1-1.9-.75a.12.12 0 0 0-.18 0c-.42.46-.75.8-1.42.8a1.8 1.8 0 0 1-1.55-.8.12.12 0 0 0-.09-.05.12.12 0 0 0-.1.04l-.28.33a.14.14 0 0 1-.24-.06A25.39 25.39 0 0 1 11 28h17V11c.57 0 1.23.06 2.16.2A16.85 16.85 0 0 1 43.5 21.34a.11.11 0 0 1-.12.1c-.23-.02-.53 0-.78-.16a1.82 1.82 0 0 0-1.83-.16.03.03 0 0 1-.02-.02v-.01c.1-1.12-.13-1.97-.71-2.54-1.51-1.5-4.13-1.16-4.98.86a.12.12 0 0 1-.18.05c-1.45-.97-3.29.03-3.04 1.84.01.1-.03.14-.12.13-.84-.05-2-.17-2.4.62-.31.65-.03 1.33.66 1.61.98.4 1.68.6 2.72.18a.2.2 0 0 1 .17 0c.86.45 1.7.42 2.55-.08a.21.21 0 0 1 .17-.02 5.7 5.7 0 0 0 3.36.02c.13-.04.43-.02.57.03a4.4 4.4 0 0 0 2.62.16c.32-.08.56-.16.83-.07.39.14.83.2 1.33.2a.15.15 0 0 1 .15.12c.16.68.3 1.42.42 2.23.09.6.12 1.2.11 1.56Z" fill="#0666D9"/><path d="M18.73 18.67a1025.38 1025.38 0 0 1-2 1.96.1.1 0 0 1-.07-.02l-2.76-1.84a.12.12 0 0 1-.03-.17 15.88 15.88 0 0 1 4.93-4.81c.03 0 .05.02.07.05l1.82 2.78a.1.1 0 0 1 .01.06 745.84 745.84 0 0 1-1.97 2ZM22.31 19.14 24 21.7a.07.07 0 0 1-.02.09l-2.33 2.08a.07.07 0 0 1-.09 0l-2.38-1.6a.07.07 0 0 1-.03-.04.07.07 0 0 1 .02-.06l3.05-3.05a.07.07 0 0 1 .08-.01l.02.02ZM24.97 23.24l.93 1.43a.1.1 0 0 1-.02.13l-1.21 1.08a.1.1 0 0 1-.13 0L23.21 25a.1.1 0 0 1-.04-.12.1.1 0 0 1 .02-.04l1.62-1.62a.1.1 0 0 1 .08-.03.1.1 0 0 1 .08.05ZM44.98 28c.04.41.02.71-.03 1.14a33 33 0 0 1-.6 2.9 16.52 16.52 0 0 1-2.54 5.63.18.18 0 0 1-.13.02.17.17 0 0 1-.07-.03l-3.92-2.98a.15.15 0 0 0-.2 0l-2.8 2.81v.04l2.93 4.18a.13.13 0 0 1-.03.18c-2.75 1.87-5.6 2.71-8.89 3.07-.31.04-.5.05-.7.03V28h16.98Zm-14.41 1.6a.13.13 0 0 0 .02-.15.13.13 0 0 0-.04-.04l-1.6-1.08a.13.13 0 0 0-.16.02l-.32.28a.13.13 0 0 0-.02.17l1.09 1.54a.13.13 0 0 0 .14.05l.04-.03.85-.75Zm-.03 1.85a.07.07 0 0 0 0 .1l1.85 2.64a.07.07 0 0 0 .08.02c.01 0 .02 0 .03-.02l1.67-1.91a.07.07 0 0 0 0-.1l-2.35-1.79a.07.07 0 0 0-.1 0l-1.18 1.06Z"/><path d="M27.85 33.87c.06.13.15.26.15.4v10.72c-.93.05-1.55-.11-2.88-.34a16.92 16.92 0 0 1-12.5-9.52.13.13 0 0 1 .08-.1c.02-.02.04-.02.06-.02.7.07 1.28-.11 1.78-.55.04-.04.1-.05.16-.02.12.06.28.23.37.28.93.5 1.82.4 2.66-.28.04-.03.08-.03.13 0 1 .8 2 .8 3 .01a.16.16 0 0 1 .22.02c.77.82 2.16.67 2.92-.03a.17.17 0 0 1 .11-.04c.04 0 .08.01.11.04.74.62 1.58.75 2.52.38.22-.09.6-.4 1.1-.95Z" fill="#0666D9"/></svg>