<!-- by TradingView --><svg width="56" height="56" viewBox="0 0 56 56" xmlns="http://www.w3.org/2000/svg"><path fill="#F0F3FA" d="M0 0h56v56H0z"/><path fill-rule="evenodd" d="m49.99 37.99.01-.03V18.04l-.01-.03-.03-.01H6.04l-.03.01-.01.03v19.92l.01.03.03.01h43.92l.03-.01Zm-.48-.5V18.5l-.03-.02H6.5c-.01 0-.02 0-.03.02l-.01.03v18.93l.01.03.03.02h42.98s.02 0 .03-.02Z" fill="#0066B3"/><path d="m49 36.96-.01.03-.03.01H7.04l-.03-.01-.01-.03V19.04l.01-.03.03-.01h41.92l.03.01.01.03v17.92Z" fill="#0066B3"/><path d="M17.67 27.48V29.99l-.04.01h-6.59l-.03-.01-.01-.04v-8.9l.01-.04.03-.01H14l.03.01-.02.04v6.33l.04.02a.05.05 0 0 0 .02.03h3.57l.03.01.01.04ZM20.95 21h-2.9a.05.05 0 0 0-.05.05v8.9c0 .03.02.05.05.05h2.9c.03 0 .05-.02.05-.05v-8.9a.05.05 0 0 0-.05-.05Z" fill="#F0F3FA"/><path fill-rule="evenodd" d="M44.83 28.8A4 4 0 0 0 46 25.94V25a4 4 0 0 0-1.22-2.84 4.1 4.1 0 0 0-2.9-1.16h-.83a4.1 4.1 0 0 0-2.88 1.2A4 4 0 0 0 37 25.06V26a4 4 0 0 0 1.22 2.84 4.1 4.1 0 0 0 2.9 1.16h.83a4.1 4.1 0 0 0 2.88-1.2Zm-1.74-3.27c.01-1-.29-2.27-1.6-2.28-1.33-.01-1.65 1.25-1.66 2.26 0 1 .29 2.27 1.6 2.28 1.33.01 1.65-1.25 1.66-2.26ZM32 27.26c0-.06.03-.09.08-.09 1.13.02 1.63.01 1.84-.01 1.48-.18 2.33-1.04 2.57-2.6.38-2.5-1.38-3.56-3.37-3.56h-4.05c-.04 0-.07.02-.07.07v8.84c0 .02 0 .05.02.06l.06.03h2.84c.02 0 .04 0 .06-.02a.08.08 0 0 0 .02-.06v-2.66Zm.03-3.94c-.02.02-.03.03-.03.05v1.55a.08.08 0 0 0 .08.07h1.16a.76.76 0 0 0 .7-.45c.04-.1.06-.2.06-.29v-.2c0-.2-.08-.38-.22-.52a.76.76 0 0 0-.54-.23h-1.16c-.02 0-.04 0-.05.02Z" fill="#F0F3FA"/><path fill-rule="evenodd" d="M24.37 27.26c0-.06.03-.09.09-.09 1.12.02 1.63.01 1.84-.01 1.47-.18 2.33-1.04 2.56-2.6.38-2.5-1.38-3.56-3.36-3.56h-4.06c-.04 0-.06.02-.06.07v8.84c0 .02 0 .05.02.06.01.02.03.03.05.03h2.85c.02 0 .04 0 .05-.02a.08.08 0 0 0 .02-.06v-2.66Zm.03-3.94-.02.05v1.55a.08.08 0 0 0 .07.07h1.16a.76.76 0 0 0 .7-.45c.04-.1.06-.2.07-.29v-.2c0-.2-.08-.38-.23-.52a.76.76 0 0 0-.53-.23h-1.16c-.02 0-.04 0-.06.02Z" fill="#F0F3FA"/><path d="M11.02 32.1c-1.86-.6-2.06 2.9-.34 2.88.39 0 .7-.2.92-.57a.11.11 0 0 1 .1-.06h1.83a.06.06 0 0 1 .05.05v.03c-.56 1.29-2.1 1.65-3.4 1.55-1.19-.09-2.18-.62-2.6-1.73a1.82 1.82 0 0 1 .13-1.78c.8-1.33 2.3-1.62 3.79-1.4a2.6 2.6 0 0 1 2.1 1.54c.07.16.02.24-.17.24h-1.7c-.05 0-.08-.02-.1-.07-.17-.37-.37-.6-.6-.68ZM37.5 35.38v-4.3c0-.05.03-.08.07-.08h1.63c.03 0 .07 0 .1.03.04.01.07.04.1.07l1.78 2.36h.02c0 .01 0 .01 0 0h.02V31H43v4.95l-.01.03-.03.02h-1.64a.2.2 0 0 1-.17-.1l-1.79-2.27c-.04-.05-.06-.04-.06.03v2.22c0 .06-.02.12-.07.12h-3.42c-.02 0-.04-.04-.05-.05a.12.12 0 0 1-.04-.06l-.14-.48c-.02-.05-.05-.07-.1-.07h-1.55c-.06 0-.09.03-.1.09l-.1.44c-.02.07-.05.13-.1.13h-3.39l-.04-.05a.08.08 0 0 1-.02-.05c-.02-1.44-.15-1.57-1.42-1.5-.04 0-.06.03-.06.08v1.4c0 .06-.02.12-.07.12H25.2c-.06 0-.1-.07-.11-.13l-.14-.46c-.01-.05-.04-.07-.09-.07h-1.55c-.05 0-.09.03-.1.1l-.1.42c0 .03-.02.06-.04.08-.02.02-.05.06-.07.06h-3.43c-.05 0-.1-.05-.15-.08a.36.36 0 0 1-.11-.11l-1.03-1.6c-.04-.07-.08-.08-.14-.03l-.26.24a.15.15 0 0 0-.04.11v1.35c0 .06-.03.12-.07.12h-1.69c-.05 0-.08-.06-.08-.13v-4.74c0-.06.02-.13.07-.13h1.7c.04 0 .07.08.07.14v1.4l.02.02h.04l1.32-1.49a.2.2 0 0 1 .16-.07h2.12c.13 0 .14.05.04.14l-1.97 1.82-.02.03a.1.1 0 0 0 .01.11l1.77 2.3.04.04h.04l.03-.02a.1.1 0 0 0 .03-.04l1.58-4.3c.01-.06.05-.08.09-.08h1.82l.01.03 1.84 4.37c.08.2.19.23.19 0V31l3.2.01c.66 0 1.6.1 1.73 1.03.1.66-.1 1.15-.58 1.47-.05.04-.05.07 0 .1.6.34.56 1.14.62 1.8 0 .16.04.16.1.03l1.59-4.35c0-.02.02-.04.04-.06l.06-.03h1.81c.04 0 .07.02.1.04.03.03.06.06.07.1l1.71 4.26c.04.08.05.08.05-.02ZM15.8 31h-1.75c-.03 0-.05.03-.05.06v4.88c0 .03.02.06.05.06h1.75c.03 0 .05-.03.05-.06v-4.88c0-.03-.02-.06-.05-.06Z" fill="#F0F3FA"/><path d="M46.76 34.21h-.74c-.01 0-.02 0-.02-.02v-.9c0-.04.02-.06.04-.06h2.5c.05 0 .07.03.07.09v2.4c0 .08-.03.12-.1.12h-1.08c-.07 0-.1-.05-.1-.13v-.18c-.02-.07-.05-.08-.1-.04-.64.54-1.36.57-2.16.45-1.1-.17-1.89-1-2-2.3-.14-1.5.96-2.43 2.17-2.6 1.07-.14 2.4 0 3.08 1.04a1.59 1.59 0 0 1 .24.7v.02l-.02.02h-1.6c-.08 0-.15-.04-.2-.12-.26-.45-.63-.6-1.1-.45-1.31.42-.7 3.18.91 2.35.11-.06.2-.16.26-.3.03-.06.02-.09-.05-.09Z" fill="#F0F3FA"/><path d="M28.7 32.64v-.04a.05.05 0 0 1 .05-.02l1.06.02a.5.5 0 0 1 .31.11c.08.07.13.17.13.27v.05c0 .1-.05.2-.14.26a.5.5 0 0 1-.31.1l-1.07-.01s-.02 0-.03-.02a.05.05 0 0 1-.02-.03l.01-.7ZM24.12 32.82h.01l.49 1.37c.01.05 0 .07-.05.08a11.94 11.94 0 0 1-.91 0c-.05 0-.06-.03-.05-.08l.49-1.37h.01ZM34.21 34.22l.43-1.22.02-.03a.04.04 0 0 1 .05 0l.01.02.46 1.22a.04.04 0 0 1 0 .04.04.04 0 0 1-.05.02h-.9a.04.04 0 0 1-.02-.03v-.02Z" fill="#0066B3"/></svg>