<!-- by TradingView --><svg width="56" height="56" viewBox="0 0 56 56" xmlns="http://www.w3.org/2000/svg"><path fill="#F0F3FA" d="M0 0h56v56H0z"/><path d="M34 30h-2v-4c-.02.02 0-.03 0 0-.02 0 .02-.02 0 0h6.84c.04 0 .08.17.11.2s.05.07.05.12v10.4c0 .11-.05.18-.15.21-3.8 1.24-8.47 1.64-12.1-.1-3.55-1.69-5.09-5.77-4.69-9.82.84-8.57 9.59-10.3 16.07-8.2.06.02.12.07.15.13a.3.3 0 0 1 .03.21l-.92 3.89a.11.11 0 0 1-.05.07.1.1 0 0 1-.1 0c-2.9-1.11-7.01-1.45-9.16 1.2-1.17 1.43-1.28 3.89-.79 5.69.83 3.05 3.7 4.08 6.5 3.65.11-.02.21-.14.21-.26V30ZM22 33.23v4.54c0 .06-.02.12-.06.16a.2.2 0 0 1-.15.07H10.2a.2.2 0 0 1-.15-.07.24.24 0 0 1-.06-.16V18.23c0-.06.02-.12.06-.16a.2.2 0 0 1 .15-.07h4.5a.2.2 0 0 1 .15.07c.04.04.14.1.14.16V33h6.79a.2.2 0 0 1 .15.07c.04.04.06.1.06.16ZM45.83 18h-4.66c-.1 0-.17.08-.17.18v19.64c0 .1.08.18.17.18h4.66c.1 0 .17-.08.17-.18V18.18c0-.1-.08-.18-.17-.18Z" fill="#C7262F"/></svg>