<!-- by TradingView --><svg width="56" height="56" viewBox="0 0 56 56" xmlns="http://www.w3.org/2000/svg"><path fill="#F0F3FA" d="M0 0h56v56H0z"/><path d="M46.18 34h-1.4l2.7-5h1.72l.92 5h-1.4l-.58-3.74h-.04L46.18 34Zm.16-2h2.9l-.16 1h-2.9l.16-1ZM40.1 34l.88-5h2.21c.4 0 .74.07 1 .2.27.14.46.33.58.58.11.25.14.54.07.88a1.8 1.8 0 0 1-1.18 1.44c-.32.13-.68.19-1.1.19h-1.39l.17-.95h1.16c.2 0 .36-.03.5-.07a.76.76 0 0 0 .34-.22c.08-.1.14-.23.17-.39.09-.52-.32-.66-.77-.66h-.63l-.72 4h-1.3Zm3.41-2.29.93 2.29h-1.41l-.9-2.29h1.38ZM31.12 30l.18-1h4.52l-.18 1h-1.62l-.71 4h-1.28l.71-4h-1.62ZM25.09 34l.88-5h1.3l-.36 2h2.1l.36-2h1.3l-.9 5H28.5l.35-2h-2.1l-.36 2h-1.3ZM20.7 34h-1.4l2.7-5h1.72l.91 5h-1.39l-.58-3.74h-.04L20.69 34Zm.16-2h2.9l-.16 1h-2.9l.16-1ZM18.22 29h1.27l-.6 3.42c-.07.31-.2.6-.4.83-.2.24-.46.42-.78.55a2.66 2.66 0 0 1-1.91.04 1.1 1.1 0 0 1-.57-.5 1.31 1.31 0 0 1-.08-.87h1.28a.72.72 0 0 0 .02.32c.03.1.09.16.16.2.08.05.18.07.3.07a.7.7 0 0 0 .32-.07c.1-.05.18-.13.24-.23a1 1 0 0 0 .14-.35l.6-3.41ZM10.78 34l.9-5h3.72l-.18 1H12.8l-.18 1h2.24l-.17 1h-2.25l-.18 1h2.44l-.18 1h-3.73ZM35.48 34l.89-5h3.73l-.18 1h-2.44l-.17 1h2.24l-.18 1h-2.24l-.18 1h2.44l-.18 1h-3.73ZM9.28 30.54c.01-.18-.04-.32-.16-.42-.12-.1-.3-.15-.55-.15-.17 0-.31.02-.43.06a.66.66 0 0 0-.28.16.45.45 0 0 0-.13.24.3.3 0 0 0 .01.2c.03.05.07.1.13.14.06.04.14.08.23.11l.32.08.44.1c.25.05.47.12.66.2.19.1.34.2.46.32.11.12.2.26.24.42.04.15.04.33 0 .53-.05.3-.18.57-.4.79-.2.22-.47.39-.81.5-.34.12-.73.18-1.17.18-.45 0-.83-.06-1.14-.18a1.28 1.28 0 0 1-.67-.56 1.41 1.41 0 0 1-.12-.94h1.24a.6.6 0 0 0 .06.39c.07.1.17.18.3.24.14.05.3.08.49.08.17 0 .32-.02.45-.07a.8.8 0 0 0 .32-.18.47.47 0 0 0 .15-.26.28.28 0 0 0-.05-.23.58.58 0 0 0-.25-.18c-.12-.05-.27-.09-.46-.13l-.54-.12a2.1 2.1 0 0 1-1-.47c-.23-.22-.31-.5-.24-.88.05-.3.19-.56.4-.8.23-.22.5-.4.85-.52a3.17 3.17 0 0 1 2.16 0c.28.13.49.3.61.54.13.23.17.5.11.8H9.28ZM48.06 27h-1.39l2.7-5h1.71l.92 5h-1.39l-.59-3.74h-.04L48.06 27Zm.17-2h2.9l-.17 1h-2.9l.17-1ZM41 22h1.6l.82 3.1h.06l1.9-3.1h1.6l-.88 5h-1.26l.55-3.07h-.05L43.52 27h-.8l-.74-3.09h-.05L41.38 27h-1.26l.89-5ZM40.2 22l-.89 5h-1.3l.9-5h1.29ZM33.1 27l.88-5h2.21c.4 0 .73.07 1 .2.27.14.46.33.57.58.12.25.14.54.08.88a1.8 1.8 0 0 1-1.18 1.44c-.32.13-.69.19-1.1.19h-1.4l.18-.95h1.16c.2 0 .36-.03.5-.07a.76.76 0 0 0 .34-.22c.08-.1.14-.23.17-.39.08-.5-.33-.66-.77-.66h-.64l-.71 4h-1.3Zm3.4-2.29.93 2.29h-1.4l-.9-2.29h1.38ZM28.3 27l.9-5h2.2c.4 0 .73.07 1 .22.27.14.46.34.57.6a1.94 1.94 0 0 1-1.12 2.41c-.32.15-.7.22-1.1.22h-1.36l.17-.95h1.12c.2 0 .36-.04.5-.1a.86.86 0 0 0 .53-.67c.09-.53-.29-.73-.76-.73h-.63l-.72 4h-1.3ZM26.8 22l-.88 5h-1.3l.89-5h1.3ZM20.18 23l.18-1h4.52l-.18 1h-1.62l-.7 4H21.1l.7-4h-1.62ZM16.12 27l.88-5h1.3l-.71 4h2.22l-.18 1h-3.51ZM14.9 22h1.3l-.58 3.18c-.06.37-.22.7-.45.97-.24.27-.54.48-.91.63a3.26 3.26 0 0 1-2.37 0 1.42 1.42 0 0 1-.68-.63 1.5 1.5 0 0 1-.11-.97l.57-3.18h1.3l-.56 3.08a.79.79 0 0 0 .04.46c.06.13.15.23.29.31.13.08.29.11.48.11a1.11 1.11 0 0 0 .93-.43 1 1 0 0 0 .2-.45L14.9 22ZM4.89 22h1.6l.8 3.1h.07l1.9-3.1h1.6l-.88 5H8.72l.54-3.07h-.04L7.4 27h-.8l-.74-3.09H5.8L5.26 27H4l.89-5Z"/></svg>