<!-- by TradingView --><svg width="56" height="56" viewBox="0 0 56 56" xmlns="http://www.w3.org/2000/svg"><path fill="#F0F3FA" d="M0 0h56v56H0z"/><path d="M28.37 12.57c-.66-.22-.65-.36.04-.43 1.72-.18 3.4-.19 5.06-.03 8.93.86 12.7 10.47 7.2 17.42-2.04 2.6-4.7 4-7.95 4.2-.74.04-1.5-.05-2.26-.29-.3-.1-.31-.2-.03-.34 4.85-2.36 7.29-6.92 5.9-12.2a11.98 11.98 0 0 0-7.96-8.33Z" fill="#FDB720"/><path d="M34.36 29.16c-.59-6.47-4.91-10.3-11.16-10.69a10.49 10.49 0 0 0-8.58 3.56l-.93 1.09c-.29.31-.38.26-.29-.17 1.25-5.51 4.81-10 10.64-10.45 5.7-.43 10.31 2.87 11.8 8.5.65 2.42.44 6.13-1.24 8.23-.14.17-.22.15-.24-.07Z" fill="#EE3126"/><path d="M24.33 23.27c-4.26 1.6-7.63 5.9-7.44 10.64.09 2.11.75 4.11 1.98 6 .21.34.15.4-.18.2-6.01-3.57-8.85-10.22-4.79-16.6 3.94-6.18 13.09-6.1 17.66-.72.31.36.24.47-.2.33a10.2 10.2 0 0 0-7.03.15Z" fill="#126BB5"/><path d="M25.79 23.07c.2-.04.24.03.12.2a23.8 23.8 0 0 0-1.34 2.06c-4.71 8.46 2.77 16.6 11.3 15.68.62-.07.66.06.12.4A16.48 16.48 0 0 1 27.08 44c-5.47-.03-9.09-4.18-9.66-9.28-.6-5.3 3.21-10.63 8.37-11.65Z" fill="#5EBB46"/><path d="M43.7 24.86c.33 2.31.39 4.57.18 6.79-.04.5-.16 1.07-.35 1.71-1.45 4.9-4.7 7.28-9.76 7.16-2.06-.05-4-.7-5.8-1.95-3.49-2.43-4.92-5.8-4.3-10.12.09-.54.25-.57.49-.08 1.9 3.87 5.51 6.18 9.78 5.7 4.6-.53 8.3-4.2 9.41-8.71a1 1 0 0 1 .3-.53c.03-.02.05-.02.05.03Z" fill="#126BB5"/></svg>