<!-- by TradingView --><svg width="56" height="56" viewBox="0 0 56 56" xmlns="http://www.w3.org/2000/svg"><path fill="#F0F3FA" d="M0 0h56v56H0z"/><path d="M45.06 27H47l-9.06 15H36l9.06-15Z" fill="#EF6711"/><path d="M41.06 27H43l-9.06 15H32l9.06-15Z" fill="#0D4B6C"/><path d="M37.06 27H39l-9.06 15H28l9.06-15Z" fill="#EF6711"/><path d="M33.06 27H35l-9.06 15H24l9.06-15ZM8 16h2.07l13.69 22.62-1.06 1.67L8 16Z" fill="#0D4B6C"/><path d="M12 16h2.05l11.63 19.39-1.05 1.67L12 16Z" fill="#EF6711"/><path d="M16 16h2.02l9.58 16.16-1.04 1.67L16 16Z" fill="#0D4B6C"/><path d="M20 16h1.99l7.53 12.93-1.02 1.67L20 16Z" fill="#EF6711"/></svg>