<!-- by TradingView --><svg width="56" height="56" viewBox="0 0 56 56" xmlns="http://www.w3.org/2000/svg"><path fill="#F0F3FA" d="M0 0h56v56H0z"/><path d="M33.72 14.34a5.65 5.65 0 0 1-.57-.59 58.35 58.35 0 0 0-.86-1.1l.01-.01c1.4-.16 2.96.37 3.22 1.91l.08.55c.03.22.12.37.2.59a.1.1 0 0 0 .07.06 1.94 1.94 0 0 1 .78.36v-.01c-.23-.18-.41-.4-.55-.65a2.03 2.03 0 0 1-.21-.8c-.03-.32-.03-.7 0-1.12 0-.05.02-.06.07-.05.36.14.7.33 1.01.56.55.42.84 1.13.86 1.78 0 .16 0 .4-.03.7l.04.18.2.6c.03.08.05.08.06 0 0-.1-.02-.22 0-.34a562.4 562.4 0 0 0 .12-1.34.04.04 0 0 1 .04 0c.63.24 1.06.68 1.28 1.31.2.57.27 1.15.21 1.77a2.8 2.8 0 0 1-.17.77c-.17.42-.21.73-.34 1.24v.03l.02.02.25.12a.02.02 0 0 0 .02 0 .02.02 0 0 0 0-.02c-.04-.36-.02-.7.09-1.03a15.51 15.51 0 0 1 .69-1.49 4.06 4.06 0 0 1 .66 3.6c-.15.36-.37.66-.68.9a.15.15 0 0 0-.05.09c-.07.35-.14.6-.12.83 0 .04.01.04.03 0a3.54 3.54 0 0 1 1.34-1.7l.01.01.01.02c.22.72.24 1.44.07 2.17-.06.25-.16.48-.3.71-.23.38-.5.7-.8 1-.1.08-.26.2-.37.35l-.5.68c-.06.1-.1.2-.1.34 0 .03 0 .04.02.01.27-.36.58-.65.94-.89a5.45 5.45 0 0 1 1.13-.56v.02l.01.01c0 .28 0 .53-.02.76-.04.43-.17.82-.38 1.22a3.55 3.55 0 0 1-1.76 1.67c-.09.04-.2.09-.3.16-.29.23-.82.6-1.2.96-.22.23-.43.43-.63.61-.13.12-.19.27-.26.41-.17.32-.4.56-.7.74a37.85 37.85 0 0 0-.35.22l-.08.44a.02.02 0 0 0 .01.02h.01l.97-.27a.07.07 0 0 0 .05-.05 4.64 4.64 0 0 1 2.24-2.62l1.04-.55c.03-.02.05 0 .05.03.06.85-.23 1.66-.78 2.3-.48.55-1.29.9-2.02.96-.15.01-.31.02-.47.07l-2.15.64c-.16.05-.2.15-.3.25-.44.42-.97.68-1.58.78a.16.16 0 0 0-.08.04l-.55.54c-.04.04-.03.06.03.06l1.02-.1c.02 0 .03 0 .04-.02a6.06 6.06 0 0 1 4.93-2.05.03.03 0 0 1 0 .04l-.01.03c-.4.56-.87 1.09-1.4 1.6-.27.24-.56.42-.86.54-.88.32-1.58.15-2.61 0h-.16c-1.48.22-2.91.45-4.28.69a10.14 10.14 0 0 0-.88.2c-.02.04 0 .07.04.08l2.5.73c.07.02.07.04 0 .06l-.56.16a.17.17 0 0 1-.1 0l-2.18-.9c-.1-.03-.23 0-.33.04l-2.12.85a.23.23 0 0 1-.14 0l-.54-.12c-.05-.02-.05-.03 0-.05l2.5-.75c.03-.01.06-.03.07-.06a.06.06 0 0 0-.05-.07l-1.85-.35a20.4 20.4 0 0 0-1.07-.17c-.83-.11-1.64-.23-2.43-.37l-.1.01c-.83.23-1.58.16-2.4-.11a2.9 2.9 0 0 1-1.17-.74 10.27 10.27 0 0 1-1.1-1.38h.02a7.8 7.8 0 0 1 2.48.43c.19.06.37.15.54.27.67.44 1.25.88 1.76 1.32.05.05.13.08.21.1a68.2 68.2 0 0 1 1 .1l.01-.02a.1.1 0 0 0 0-.04 35.9 35.9 0 0 0-.53-.46.76.76 0 0 0-.26-.13 4 4 0 0 1-1.67-1.05.87.87 0 0 1-.18-.23.08.08 0 0 0-.04-.04 45.76 45.76 0 0 1-1.75-.35c-.16-.03-.31-.05-.45-.05-.19 0-.42.01-.6-.01a2.5 2.5 0 0 1-1.4-.64 3.27 3.27 0 0 1-1.08-2.67.03.03 0 0 1 .02-.01l.23.06a4.81 4.81 0 0 1 3.04 3.1l.04.02.98.19h.01a.02.02 0 0 0 0-.02l-.06-.33a.05.05 0 0 0-.03-.04 2.23 2.23 0 0 1-1.24-1.42c-.01-.06-.04-.08-.08-.11l-1.5-1.19c-.17-.13-.34-.16-.53-.25a3.51 3.51 0 0 1-1.57-1.33 3.93 3.93 0 0 1-.62-2.42h.03a4.76 4.76 0 0 1 2.1 1.52l.01-.01.01-.02.06-.31v-.04l-.6-.58-.49-.41a3.4 3.4 0 0 1-1.1-1.59A3.52 3.52 0 0 1 14.1 22a.04.04 0 0 1 .03 0l.29.3c.29.33.54.69.76 1.06.1.18.2.37.27.58.02.05.05.05.08 0l.03-.03a.18.18 0 0 0 .02-.15l-.22-.76a.1.1 0 0 0-.03-.05c-.87-.67-1.1-1.6-.93-2.64a4.76 4.76 0 0 1 .84-1.98.04.04 0 0 1 .03.02 3.72 3.72 0 0 1 .75 2.37.02.02 0 0 0 .03 0l.05-.07a.14.14 0 0 0 .03-.1l-.06-.61c0-.1-.04-.23-.1-.37a3.64 3.64 0 0 1-.1-2.35 2.23 2.23 0 0 1 1.41-1.53.07.07 0 0 1 .05.02l.01.03c.07.3.11.63.13.99 0 .17-.03.33-.01.49 0 .03 0 .03.02 0 .09-.2.15-.35.18-.46a.56.56 0 0 0 0-.25 2.6 2.6 0 0 1 1.96-3.07c.04 0 .07 0 .07.05.1.75-.01 1.46-.35 2.12a1.26 1.26 0 0 1-.15.22.02.02 0 0 0 0 .02h.06c.08-.05.16-.08.24-.11l.16-.04a.06.06 0 0 0 .03-.04l.23-.72c.04-.1.06-.22.07-.35a1.88 1.88 0 0 1 1.32-1.67l.66-.2a4.97 4.97 0 0 1 1.33-.13v.02l-1.34 1.6c-.04.05-.03.06.02.04.17-.09.26-.11.38-.26.39-.44.85-.74 1.4-.92.3-.1.65-.15 1.06-.15a5.96 5.96 0 0 1 1.67.21v.01c-.5.49-1.06.86-1.7 1.12-.17.08-.37.12-.57.14a7.12 7.12 0 0 1-1.93-.09l-.15.11a7.27 7.27 0 0 1 2.37.48v.01c-.27.17-.55.39-.8.52-.35.18-.72.3-1.1.35h-.32c-.12-.03-.27-.02-.41-.05a3.4 3.4 0 0 1-1.05-.4l-.83.02s-.02 0-.02.02l-.1.3.01.01a6.05 6.05 0 0 1 2.34.23c-.39.47-.84.86-1.37 1.16-.19.1-.37.17-.57.23-.02 0-.03.02-.02.05v.04a2.95 2.95 0 0 1-1.36 1.81c-.22.13-.55.26-1 .4l-1.04.28a.13.13 0 0 0-.07.06c-.19.32-.35.6-.5.82-.07.13-.17.22-.27.31a.31.31 0 0 0-.07.14 447.3 447.3 0 0 1-.46 1.72l.19.63c0 .04.02.04.04 0l.1-.25a.6.6 0 0 0 .03-.27 3.46 3.46 0 0 1 1.1-2.82 2.84 2.84 0 0 1 1.55-.67c.02 0 .03.01.03.03a3.97 3.97 0 0 1-1.18 2.54A8.84 8.84 0 0 1 16 23.24l-.42 1a.13.13 0 0 0 0 .08c.13.6.13 1.22 0 1.85-.02.05-.01.09 0 .11a15.38 15.38 0 0 0 .57.52l.02-.33a.74.74 0 0 0-.07-.3c-.28-.76-.3-1.72.1-2.46a3.64 3.64 0 0 1 1.31-1.38.05.05 0 0 1 .05.04c.25.76.25 1.5 0 2.22-.1.27-.26.57-.5.9-.2.29-.42.56-.63.8a.27.27 0 0 0-.05.13l-.14 1.01c-.02.14-.03.25.02.38.23.57.37 1.18.42 1.83 0 .08.03.14.08.18a14.22 14.22 0 0 0 .54.41.02.02 0 0 0 0-.02v-.33l-.02-.04a4 4 0 0 1-.71-1.53c-.1-.43-.07-.83.09-1.21a5.63 5.63 0 0 1 .98-1.59.04.04 0 0 1 .03.02c.3.5.5 1.05.56 1.62.04.28.02.56-.04.86a5.43 5.43 0 0 1-.75 1.85l.01.3c.01.08-.01.2.08.27a23.62 23.62 0 0 1 .6.44l.01-.01v-.01l-.05-.6a3.9 3.9 0 0 1 .26-1.66 3.2 3.2 0 0 1 1.46 2.17c.07.48.03 1.02-.11 1.62a.84.84 0 0 0-.04.31l.04.3c0 .03.02.04.04.04l.61.12a.02.02 0 0 0 .02 0 .02.02 0 0 0 0-.03 2.91 2.91 0 0 1-.25-1.85l.02-.01a.05.05 0 0 1 .04 0c.59.24 1.1.6 1.56 1.05.23.23.41.48.54.76.23.48.35.98.38 1.51 0 .04.02.07.04.1.12.11.31.3.6.55.08.08.3.16.47.18l1.44.23 1.06.21 1.15.25a3.51 3.51 0 0 0 .9-.05l3.46-.65a1 1 0 0 0 .41-.2 20.06 20.06 0 0 1 .67-.55c.04-.31.1-.6.17-.85.24-.81.74-1.55 1.46-2.04a4.65 4.65 0 0 1 .93-.5.04.04 0 0 1 .02.03c.1.8-.05 1.51-.49 2.15 0 .02 0 .02.02.02l.76-.24c.02-.01.04-.03.04-.05.02-.16.05-.3.08-.42a.63.63 0 0 0-.01-.27 4.54 4.54 0 0 1-.02-1.86c.17-.86.59-1.54 1.37-1.96.02 0 .03 0 .03.02.17.79.2 1.57.1 2.34 0 .04.01.05.05.02l.61-.56a12.48 12.48 0 0 1 .09-.55c0-.06 0-.13-.05-.22-.23-.48-.44-1-.58-1.54a3.1 3.1 0 0 1 .48-2.6h.05l.02.02c.32.38.58.8.76 1.27.13.34.2.64.2.92 0 .48-.1 1-.34 1.42l-.26.46c-.06.1-.1.2-.11.28l-.05.32c0 .03 0 .03.02.01l.66-.56a5.38 5.38 0 0 0 .54-2.76l-.15-.29a1.36 1.36 0 0 0-.2-.26 4.05 4.05 0 0 1-1.17-2.26 4.59 4.59 0 0 1 .1-1.78h.02c.2.12.37.26.53.42.4.37.77.77.94 1.24.17.45.2.92.1 1.42-.07.43-.14.78-.2 1.02-.02.06 0 .14.08.25l.01.03c0 .02.02.04.03.05h.03l.46-.56a.17.17 0 0 0 .04-.13c-.08-.43-.1-.85-.08-1.25.02-.42-.02-.77-.02-1.21 0-.02 0-.03-.02-.05a2.5 2.5 0 0 0-.5-.48 4.26 4.26 0 0 1-1.76-1.7 4.7 4.7 0 0 1-.65-1.85h.04c.33.1.7.2 1 .34.34.17.63.4.88.7.03.05.04.05.03 0l-.21-.71a.04.04 0 0 0-.04-.03 6.7 6.7 0 0 1-2.03-.6 2.4 2.4 0 0 1-.64-.44c-.42-.4-.7-.89-.85-1.44 0-.03 0-.04.03-.04.69.04 1.37.2 2.03.45.4.16.72.41.99.76.16.22.3.41.4.57.07.13.14.33.22.6a22.18 22.18 0 0 1 .26.89l.18-.87v-.04a5.04 5.04 0 0 1-.94-1.36c-.1-.21-.16-.39-.18-.54a.12.12 0 0 0-.06-.08l-.96-.52a.06.06 0 0 0-.05 0c-1.06.38-2.2.07-3.06-.64-.24-.2-.46-.47-.64-.68-.05-.04-.03-.07.03-.08a10.14 10.14 0 0 1 2.16-.12l-.06-.22c0-.02-.02-.02-.04-.03-.11 0-.21 0-.34-.02l-.26-.07a.51.51 0 0 0-.26.02l-1.24.32c-.27.07-.59.04-.94-.08a4.77 4.77 0 0 1-1.39-.75v-.01l.02-.01 1.03-.3c.03 0 .03-.01 0-.02a3.87 3.87 0 0 1-2.95-1.37h.02c.26-.07.55-.12.87-.15a3.5 3.5 0 0 1 2.01.25c.51.26.97.6 1.37 1 .03.04.12.07.28.1.02 0 .02 0 0 0Zm1.69.51c0-.04-.03-.05-.07-.05-.23.04-.46.03-.7-.02l-.05.01a.26.26 0 0 0-.05.07l.01.05c.2.18.42.29.67.33h.19c.03 0 .05-.01.04-.04l-.04-.35Zm-14.6.32.34-.32c.02-.01.02-.02 0-.03a.62.62 0 0 0-.21-.04 2.5 2.5 0 0 1-.8.06c-.04 0-.06.02-.07.05l-.05.26c0 .03 0 .05.04.05l.73-.02h.01Zm16 1.06c.23.22.34.43.37.77a.11.11 0 0 0 .06.09l.74.4c.03.01.04 0 .02-.02l-.3-.67c-.03-.07-.06-.12-.1-.13a3.74 3.74 0 0 1-.82-.47l.03.03Zm-18.24.14c-.2.14-.42.25-.64.32a.15.15 0 0 0-.09.08l-.25.67c-.02.05 0 .06.05.03l.67-.38a.1.1 0 0 0 .05-.07c.05-.24.13-.45.24-.62.04-.06.03-.07-.03-.03Zm.78 1.05a.51.51 0 0 0-.18-.06 2 2 0 0 1-.7-.16h-.03l-1 .52a.14.14 0 0 0-.08.09 5.16 5.16 0 0 1-1.12 2.02l-.01.04.05.52c0 .04.01.04.03.01.2-.31.3-.5.32-.56.24-1 .82-1.7 1.77-2.11a4.92 4.92 0 0 1 .97-.3h-.01l-.01-.01Zm.83-.09a.2.2 0 0 0 .04 0h-.04Zm19.35 3.74-.34-.14c-.05-.01-.06 0-.03.04.22.37.34.75.37 1.2 0 .16.03.41.07.77 0 .03.02.06.04.09l.31.36a.02.02 0 0 0 .03-.01l.08-.36c.02-.07 0-.2-.03-.35a30.32 30.32 0 0 0-.45-1.57.14.14 0 0 0-.05-.03Z" fill="#060808"/><path d="M21.7 14.28c-.14.13-.3.23-.46.3-.35.14-.72.2-1.1.16-.04 0-.06-.03-.06-.07a1.8 1.8 0 0 1 1.16-1.61 5.86 5.86 0 0 1 1.84-.38.02.02 0 0 1 0 .02L22 14c-.1.12-.2.18-.3.28ZM35.09 13.73a2.39 2.39 0 0 1 .34.95l-.02.01c-.6.12-1.24-.11-1.69-.48-.2-.17-.45-.47-.63-.7a28.36 28.36 0 0 0-.6-.78.03.03 0 0 1 .04-.02c.46-.01.9.04 1.33.17.47.13.96.44 1.23.85ZM26.15 13.3a5.2 5.2 0 0 1-1.62.95 6.16 6.16 0 0 1-2.2-.07 3.02 3.02 0 0 1 2.3-1.16 5.78 5.78 0 0 1 1.63.16v.03a1.4 1.4 0 0 1-.11.1ZM29.4 13.18a9 9 0 0 1 1.54-.12c.42 0 .82.12 1.22.34a5.04 5.04 0 0 1 1.15.9l-.01.01c-.68.13-1.35.12-2.02 0a2.9 2.9 0 0 1-.82-.3 5.3 5.3 0 0 1-1.09-.8.04.04 0 0 1 .04-.03ZM19.6 13.62c.08.56 0 1.1-.2 1.6-.1.27-.24.5-.42.68a3 3 0 0 1-1.15.72.07.07 0 0 1-.05-.03l-.02-.02a2.52 2.52 0 0 1 1.79-3 .06.06 0 0 1 .04.03v.02ZM36.62 15.93c-.08-.08-.15-.13-.2-.2-.26-.32-.4-.68-.43-1.14a8.4 8.4 0 0 1 0-.96H36c.57.22 1.12.56 1.42 1.1.2.35.33.88.3 1.34a17.17 17.17 0 0 1-.04.52h-.01c-.4-.17-.75-.4-1.06-.66ZM33 15.62a4.1 4.1 0 0 1-1.68-.7c-.04-.02-.03-.03 0-.05.36-.11.72-.22 1.1-.3.23-.07.5-.1.81-.08.57.02 1.07.35 1.5.68.04.03.03.05-.01.06-.59.17-1.07.3-1.46.37a.8.8 0 0 1-.26.02ZM21.8 14.62c.14-.04.32-.09.44-.1a7.31 7.31 0 0 1 2.02.41v.01c-.21.14-.43.32-.62.4a2.67 2.67 0 0 1-2.72-.1.04.04 0 0 1 0-.02v-.02a2 2 0 0 1 .89-.58ZM19.9 15.77a6.87 6.87 0 0 1 2.15.17l-.01.02c-.32.36-.69.67-1.1.94a2.7 2.7 0 0 1-2.43.2.07.07 0 0 1-.04-.04.07.07 0 0 1 0-.04 1.51 1.51 0 0 1 1.43-1.25ZM39.49 19.4a3.1 3.1 0 0 1-.1.23h-.03a5.8 5.8 0 0 1-.48-.59c-.13-.17-.24-.38-.35-.58a2.69 2.69 0 0 1-.32-1.61 85.2 85.2 0 0 0 .1-1.08l.02-.01h.02a2.06 2.06 0 0 1 1.2 1.53c.16.67.17 1.42-.06 2.12ZM37.1 17v.03c0 .04-.02.06-.04.07-.45.16-.88.2-1.3.14a3.32 3.32 0 0 1-2.2-1.35v-.01h.02c.18-.03.4-.07.59-.08l.65-.02c.4-.02.86 0 1.23.13.32.11.73.37.91.66.04.07.08.21.13.43ZM16.48 19.35l-.3.37a.02.02 0 0 1-.02 0 .02.02 0 0 1-.02-.01 3.61 3.61 0 0 1-.23-2.23 2.27 2.27 0 0 1 1.3-1.66.06.06 0 0 1 .05.02l.01.02a4.16 4.16 0 0 1-.8 3.48Z" fill="#FAD407"/><path d="m26.45 17.53.37-.67.02-.01h1.77l.02.01.44.7a.04.04 0 0 0 .04.02h.65a.04.04 0 0 0 .04-.02l.48-.7a.04.04 0 0 1 .04-.02h1.4l.02.01.02.03v1.63s0 .02-.02.03H23.6l-.02-.03v-1.63s0-.02.02-.03h1.5l.01.01.43.67a.04.04 0 0 0 .04.02h.84a.04.04 0 0 0 .04-.02Z" fill="#060808"/><path d="M26.44 17.64a.07.07 0 0 0 .06-.03l.36-.64a.07.07 0 0 1 .06-.04h1.6a.09.09 0 0 1 .08.04l.42.68a.04.04 0 0 0 .03.01h.69a.2.2 0 0 0 .17-.09l.38-.6a.05.05 0 0 1 .04-.03h1.33l.01.03v1.45l-.01.03-.03.02h-7.94s-.02 0-.03-.02l-.01-.03v-1.45l.01-.02.03-.02h1.3c.03 0 .06.02.08.05l.41.65.03.01h.93Z" fill="#ED1C24"/><path d="M16.9 19.77a1.14 1.14 0 0 1-.13.03.02.02 0 0 1-.01-.02A2.8 2.8 0 0 1 18 18.05a4.5 4.5 0 0 1 2.11-.6.04.04 0 0 1 .01.03 2.83 2.83 0 0 1-1.44 1.73c-.17.08-.47.19-.89.3l-.9.26ZM38.72 19.62l.03.1v.02a.03.03 0 0 1-.03.02h-.01c-.7-.1-1.36-.3-1.98-.59a2.33 2.33 0 0 1-.65-.44 2.95 2.95 0 0 1-.75-1.25v-.02a.05.05 0 0 1 .05-.02c.65.07 1.28.22 1.88.47.59.24.92.71 1.25 1.22.07.1.14.27.2.49ZM15.27 18.52c.43.6.65 1.4.64 2.1 0 .25-.05.56-.16.95a45.92 45.92 0 0 1-.39 1.28 2.4 2.4 0 0 1-.9-2.32 4.57 4.57 0 0 1 .78-2.02.03.03 0 0 1 .03.01ZM40 19.2a10.1 10.1 0 0 1 .32-.66c.35.51.65 1.26.7 1.86.03.43.02.81-.05 1.16a2.06 2.06 0 0 1-.77 1.23.03.03 0 0 1-.03 0v-.02l-.4-1.43a2.2 2.2 0 0 1 .04-1.72l.19-.42Z" fill="#FAD407"/><path fill-rule="evenodd" d="M28.76 21.84h-1.52l-.03-.01V21.49l.02-.01h3.85c.01 0 .02 0 .02-.02v-1.24a.04.04 0 0 0-.04-.04H28.4c-.02 0-.03 0-.03-.02v-.07c0-.02 0-.03.03-.03h.37l.02-.01.01-.02v-1.25H26.48s-.02 0-.02.02v1.11c0 .02 0 .03-.02.03l-.2-.02v-1.1l-.02-.03-.03-.02h-1.94c-.01 0-.02 0-.02.02v1.18c0 .02.01.02.03.02h.44c.03 0 .04.02.04.04v.17l-.01.02-.03.01h-.43c-.03 0-.04.01-.04.03v1.24l.01.02h1.4c.04 0 .05.02.05.05v.2l-.01.03-.03.01h-1.38c-.02 0-.03.01-.03.03l-.1 1.4a.03.03 0 0 0 .02.03h1.45c.06 0 .09.04.09.1v.12c0 .06-.03.1-.09.1h-1.43a.06.06 0 0 0-.06.05L24 25.03a.03.03 0 0 0 .02.02h1.6c.05 0 .08.03.08.08v.13c0 .04-.03.07-.08.07h-1.58a.04.04 0 0 0-.04.03l-.18 1.27a.04.04 0 0 0 0 .03.04.04 0 0 0 .04.02h1.76c.05 0 .08.02.08.07v.17a.07.07 0 0 1-.05.06h-1.91c-.02 0-.04.02-.04.05l-.23 1.17c-.01.03 0 .05.04.05h.82c.04 0 .06.01.06.05v.18c0 .03-.02.05-.05.05h-.88c-.04 0-.06.02-.07.05l-.25 1.26a.02.02 0 0 0 .01.02h3.07V28.7a.05.05 0 0 1 .02-.03.05.05 0 0 1 .03-.02l.2.01c.03 0 .05.02.05.05v1.12l.01.03h2.15a.04.04 0 0 0 .03-.03v-1.06c0-.05.03-.08.09-.08h.14c.05 0 .07.02.07.07v1.06c0 .03.02.05.05.05h3.26a.02.02 0 0 0 .01-.02l-.23-1.23c0-.03-.02-.05-.06-.05h-2.26l.16-.34.01-.01h1.99a.03.03 0 0 0 .03-.02.03.03 0 0 0 0-.03l-.2-1.1c0-.03-.02-.04-.05-.04h-1.18c-.01 0-.02-.01-.01-.02.07-.11.12-.23.15-.36l.02-.01h.9l.02-.01v-.02l-.12-1.24a.07.07 0 0 0-.02-.05.07.07 0 0 0-.05-.02h-2.34a.03.03 0 0 0-.03.03v1.28c0 .02 0 .03.03.03h.08c.02 0 .02 0 .01.02L29 27l-.01.02h-1.69l-.02-.01v-.35c0-.01 0-.02.02-.02h1.56v-1.3c0-.03-.01-.04-.04-.04h-1.5c-.03.02-.04.01-.06-.01v-.25H31.36c.03 0 .04-.02.04-.06l-.17-1.34c0-.02-.02-.03-.04-.03h-3.94c-.02 0-.02-.01-.02-.02v-.27c0-.02 0-.02.02-.02h1.5c.02 0 .03 0 .04-.02l.01-.03v-1.37c0-.03-.01-.04-.04-.04Zm-3.84-1.72v1.06h.56c.18 0 .36.05.36.25a7340.86 7340.86 0 0 1 0 6.15c0 .02-.02.04-.03.05a.07.07 0 0 1-.05.02h-1.19c-.02 0-.03 0-.03.03l-.01.77c0 .03.01.04.04.04l5.02.06c.02 0 .03 0 .03-.02l.85-1.75c.01-.02 0-.03-.02-.03h-1.1c-.01 0-.03 0-.04.03l-.41.64a.42.42 0 0 1-.21.18c-.11.04-.26.06-.44.05a33.28 33.28 0 0 0-1.06-.03.13.13 0 0 1-.07-.06 3953.09 3953.09 0 0 0-.07-5.84v-.03c0-.27 0-.5.33-.51l.72-.01c.07 0 .1-.03.1-.1l.02-.94c0-.03-.02-.05-.05-.05h-2.2l-1.02.02c-.02 0-.03 0-.03.02Z" fill="#060808"/><path d="M28.95 20.03v-1.26h2.14l.01.02v1.26h-2.15v-.02Z" fill="#060808"/><path d="M26.1 18.86h-1.73a.05.05 0 0 0-.05.05v.95c0 .03.02.05.05.05h1.74c.02 0 .05-.02.05-.05v-.95a.05.05 0 0 0-.06-.05ZM28.71 18.88l-.01 1.05v.02h-.02l-2.1-.03a.02.02 0 0 1-.03-.01l.02-1.03a.02.02 0 0 1 .01-.02h2.13v.02ZM30.99 18.86h-1.9a.04.04 0 0 0-.05.04v1.03c0 .02.02.04.04.04h1.9c.03 0 .05-.02.05-.04V18.9a.04.04 0 0 0-.04-.04Z" fill="#ED1C24"/><path d="M16.5 20.9c.02-.01.02-.02.02-.03a2.78 2.78 0 0 1 1.88-1.21.04.04 0 0 1 .03.04 4.01 4.01 0 0 1-1.2 2.39 8.84 8.84 0 0 1-1.26 1.02v-.01l-.01-.01a3.3 3.3 0 0 1 .55-2.19ZM37.71 19.87a2.63 2.63 0 0 1 1.73 2.4l.06.73v.02a.02.02 0 0 1-.03 0 4.73 4.73 0 0 1-2.36-3.32.03.03 0 0 1 .03 0l.57.17Z" fill="#FAD407"/><path d="m25.96 20.08-1 .02c-.03 0-.04 0-.04.02v1.06c-.02 0-.03-.01-.03-.04a26.81 26.81 0 0 0 .02-1.06h1.05Z" fill="#0D9248"/><path d="m28.3 21.3.03-.01.01-.03v-.95s0-.02.02-.03l.03-.01h2.6l.03.01.01.04v1.02l-.01.03-.04.02h-3.72c-.02 0-.03-.01-.01-.03a.1.1 0 0 1 .03-.03l.04-.02h.03l.95-.01ZM24.93 21.3c.2.04.43.02.63.03h.03l.07.03c.01 0 .03.02.03.05 0 .01 0 .02-.02.02h-1.34l-.01-.04v-1.02l.01-.04.04-.01.32-.01c.04 0 .05.01.05.04v.9a.06.06 0 0 0 .02.04.07.07 0 0 0 .06.02h.11Z" fill="#ED1C24"/><path d="M29 23.26v-1.4h2.03l.01.02.18 1.37a.03.03 0 0 1 0 .03.03.03 0 0 1-.03 0h-2.16a.03.03 0 0 1-.03-.02Z" fill="#060808"/><path d="M25.7 21.94v1.22l-.01.03-.03.01h-1.39a.04.04 0 0 1-.03-.03v-.01l.08-1.22a.04.04 0 0 1 .04-.04h1.3l.03.01v.03ZM29.09 23.17v-1.24h1.86l.01.02.16 1.22a.03.03 0 0 1 0 .02h-.02v.01h-2l-.01-.03ZM28.67 21.95h-1.44a.03.03 0 0 0-.03.04v1.18c0 .02.01.03.03.03h1.44c.02 0 .03-.02.03-.03v-1.19a.03.03 0 0 0-.03-.03Z" fill="#ED1C24"/><path d="m14.07 22.3.04-.1.01-.02a.04.04 0 0 1 .04 0h.02c.27.3.53.63.77.99.6.91.78 1.93.51 3.01 0 .03-.02.04-.04.02a3.72 3.72 0 0 1-1.16-1.24 3.35 3.35 0 0 1-.19-2.65ZM41.48 24.24a2 2 0 0 1-.16.46 4.62 4.62 0 0 1-1.17 1.39 5.12 5.12 0 0 1-.07-1.58 3.21 3.21 0 0 1 1.36-2.28v.01c.19.67.2 1.33.04 2ZM17.13 25.2a10.56 10.56 0 0 1-.85 1.1.03.03 0 0 1-.03-.03 3.16 3.16 0 0 1-.22-1.76 3.2 3.2 0 0 1 1.45-2.03.04.04 0 0 1 .02.03c.28.92.17 1.9-.37 2.7ZM39.42 25.82a6.46 6.46 0 0 1-.17.63 4.04 4.04 0 0 1-1.18-3.92c.12.07.22.14.3.23.5.46.93.9 1.1 1.53.04.18.05.38.07.56a1 1 0 0 1 0 .22c-.01.15-.05.4-.12.75Z" fill="#FAD407"/><path d="m24.09 24.93.1-1.23s0-.02.02-.03h1.48l.01.04v1.22l-.01.04h-1.56a.05.05 0 0 1-.04-.02v-.02ZM27.23 24.9v-1.16c0-.01 0-.03.02-.04l.03-.01h3.82l.03.01.02.03.15 1.17a.05.05 0 0 1-.01.03.05.05 0 0 1-.04.02h-3.97l-.03-.01-.02-.04ZM29.14 26.5v-1.07l.01-.03a.05.05 0 0 1 .04-.02h2.18c.01 0 .03 0 .03.02l.02.03.1 1.06a.05.05 0 0 1-.02.05H29.19l-.04-.01a.05.05 0 0 1-.01-.04ZM25.7 25.45v1.09c0 .01 0 .03-.02.04a.06.06 0 0 1-.04.01h-1.66a.06.06 0 0 1-.06-.04v-.02l.16-1.09c0-.01 0-.02.02-.03l.03-.02h1.51c.02 0 .03 0 .04.02l.02.04ZM28.74 25.38H27.3a.04.04 0 0 0-.04.05v1.1c0 .02.02.04.04.04h1.45c.03 0 .05-.02.05-.05v-1.1a.04.04 0 0 0-.05-.04Z" fill="#ED1C24"/><path d="M17.34 29.74c-.22-.28-.4-.6-.52-.96-.22-.61-.3-1.08-.06-1.67a5.59 5.59 0 0 1 .86-1.42h.02l.01.02c.26.47.43.96.49 1.49.03.23.01.48-.04.73a5.44 5.44 0 0 1-.75 1.82h-.01ZM38 29.43c-.27-.7-.6-1.38-.57-2.12.02-.55.19-1.06.49-1.54.03-.04.06-.04.09 0 .51.67.93 1.52.82 2.36-.06.4-.15.72-.27.94a58 58 0 0 0-.4.67v-.01c-.06-.1-.12-.2-.16-.3ZM16.55 29.34c0 .09.04.21.03.3 0 .05-.02.07-.06.06a3.51 3.51 0 0 1-2.19-1.95 3.8 3.8 0 0 1-.33-1.72.03.03 0 0 1 .03 0 4.7 4.7 0 0 1 1.94 1.5c.1.12.19.28.25.45.16.45.27.9.33 1.36ZM39.8 29.28a2.44 2.44 0 0 1-.76.34h-.02v-.04c.05-.52.15-1.01.29-1.49.07-.26.17-.48.3-.65a4.15 4.15 0 0 1 1.89-1.4v.01l.01.02c.06.82-.19 1.57-.66 2.24-.27.39-.6.7-.98.93l-.07.04Z" fill="#FAD407"/><path d="M24.35 28.17h-.75a.05.05 0 0 1-.03-.06l.2-1c0-.01 0-.02.02-.03l.03-.01h1.83l.04.01.01.04v.35l-.01.03a.05.05 0 0 1-.04.02h-1.2l-.03.01a.05.05 0 0 0-.02.04v.55l-.01.04a.05.05 0 0 1-.04.01ZM28.88 27.22l-.13.15a.32.32 0 0 1-.2.12c-.22.03-.44.04-.65.02a5.4 5.4 0 0 0-.62-.03c-.02 0-.03 0-.03-.02V27.13l.04-.01h1.54c.09 0 .1.03.05.1ZM31.7 27.15l.17.93v.02a.05.05 0 0 1-.05.03h-1.77a.05.05 0 0 1-.04-.02.05.05 0 0 1 0-.04l.45-.93a.05.05 0 0 1 .04-.02h1.18l.01.03ZM26.13 28.7v1.05l-.01.02-.03.01h-2.82a.04.04 0 0 1-.02-.02v-.02l.22-1.11a.04.04 0 0 1 .04-.03l2.58.06.03.01.01.02ZM28.6 28.67h-1.94a.05.05 0 0 0-.05.05v1c0 .04.02.06.05.06h1.93c.03 0 .06-.02.06-.05v-1a.05.05 0 0 0-.06-.06ZM32.02 28.68l.2 1c.02.04.02.06 0 .09a.04.04 0 0 1-.03.01h-3.05l-.03-.01-.02-.03v-1c0-.02 0-.03.02-.04l.03-.01c.15-.02.3-.01.42.01.1.02.13-.03.21-.03a257.57 257.57 0 0 0 2.25.01Z" fill="#ED1C24"/><path d="M18.45 28.78c.58.43.97.97 1.18 1.64a3.76 3.76 0 0 1-.09 2.1.05.05 0 0 1-.04 0l-.16-.08a2.14 2.14 0 0 1-1.08-1.49 5.13 5.13 0 0 1-.08-.84c-.02-.45.04-.88.18-1.3.02-.05.05-.06.09-.03ZM36.12 29.98a2.49 2.49 0 0 1 1-1.16.03.03 0 0 1 .03.02c.1.59.15 1.16.12 1.73-.05.9-.43 1.6-1.28 1.97a.03.03 0 0 1-.03 0 .03.03 0 0 1-.01-.02c-.2-.84-.16-1.77.17-2.54ZM16.04 31.9a3.2 3.2 0 0 1-.73-2.14h.02c.63.18 1.18.49 1.66.9a5.26 5.26 0 0 1 1.4 2.17l-.02.02h-.02a2.52 2.52 0 0 1-2.31-.95ZM39.41 31.94a3.17 3.17 0 0 1-2.31.92l-.02-.01a.04.04 0 0 1 0-.04 4.57 4.57 0 0 1 2.2-2.53 25.82 25.82 0 0 0 .93-.47v.02c0 .81-.27 1.51-.8 2.11Z" fill="#FAD407"/><path d="M33.33 30.87v.9l-.01.03-.03.01H22.18l-.03-.01-.01-.03v-.97l.04-.01H22.89l.01-.03.21-.67.02-.02h9.24a.04.04 0 0 1 .04.02l.28.71a.04.04 0 0 0 .04.03h.56l.03.01.01.03Z" fill="#060808"/><path d="M33.24 30.95v.73a.04.04 0 0 1-.01.03.04.04 0 0 1-.03 0H22.23l-.01-.03v-.77l.01-.02.03-.02H22.95l.02-.02.2-.67a.04.04 0 0 1 .04-.02H32.34l.01.02.28.71a.04.04 0 0 0 .04.03h.53a.04.04 0 0 1 .03 0v.02l.01.01Z" fill="#ED1C24"/><path d="M20.88 33.65a1.84 1.84 0 0 1-.32-.4 2.9 2.9 0 0 1-.37-1.82c0-.05.02-.06.06-.04a4.1 4.1 0 0 1 1.9 1.64 3.96 3.96 0 0 1 .4 1.58h-.01a3.93 3.93 0 0 1-1.66-.96ZM33.5 33l.06-.11c.21-.32.44-.6.73-.84a6.26 6.26 0 0 1 1.05-.65.04.04 0 0 1 .02.04A2.89 2.89 0 0 1 33 34.57l-.01-.01v-.02l.09-.55a3.99 3.99 0 0 1 .42-1ZM21.85 35.23c-.86.24-1.77.16-2.58-.18-.36-.15-.7-.39-1.01-.72a13.34 13.34 0 0 1-.9-1.11l.01-.02h.02c.76.03 1.5.18 2.23.43.19.07.36.15.52.25a17 17 0 0 1 1.72 1.3c.03.02.03.04-.01.05ZM36.83 34.8c-.58.52-1.37.71-2.14.62a36.63 36.63 0 0 1-1.11-.18 6.2 6.2 0 0 1 4.59-2h.02a.04.04 0 0 1 .01.03v.02c-.41.55-.87 1.05-1.37 1.5Z" fill="#FAD407"/><path d="M17.03 40.5h-.02l-.2.24c-.08.1-.15.18-.21.22-.14.1-.3.16-.49.2a2 2 0 0 1-.64-.06 4.06 4.06 0 0 0-.48-.23c-.16-.07-.3-.13-.4-.2l-.46-.29a11.37 11.37 0 0 1-1.46-1.25c-.36-.36-.57-.59-.84-.82l-.21-.2-1.05-1.04c-.19-.19-.36-.33-.54-.5L10 36.5c0-.02.01-.04.04-.06h.06c1.01.3 2.24.17 3.26.28h.04v-.04l-.02-.1-.01-.09c-.17-1.09-.3-2.1-.46-3.16 0-.06.02-.09.05-.1l.11.07.56.47a2501.75 2501.75 0 0 1 2.67 2.31c.03.02.04.04.02.07a13.73 13.73 0 0 0-.5.7 142.59 142.59 0 0 1-1.39 1.97.08.08 0 0 0 .04.07 75.55 75.55 0 0 0 1.93 1.22l.63.37ZM43.24 34.25c-.01.01-.02.03-.01.05l-.18.75a29.38 29.38 0 0 0-.53 2.2l.03.02c.02 0 .04-.01.04-.03l.06-.01c.13 0 .24.05.34.06.22.02.43.01.64-.04l1.77.02c.19.05.36.07.5.06.12-.01.13.02.04.1-.26.2-.52.41-.77.64-.24.21-.5.42-.8.63l-1.17.88c-.65.48-1.15.78-2.03 1.34a4.34 4.34 0 0 1-1.12.48l-.38.01a.7.7 0 0 1-.34-.07c-.33-.2-.43-.36-.67-.66v-.04a.05.05 0 0 1 .02-.03l.3-.15c.22-.1.47-.25.66-.35a7.77 7.77 0 0 0 .95-.53 9.6 9.6 0 0 1 .66-.44.07.07 0 0 0-.01-.06l-1.66-2.6v-.01l.01-.02 3.62-2.58c.07-.06.1-.04.08.05-.02.11-.08.21-.05.33Z" fill="#0D9248"/><path fill-rule="evenodd" d="m36.97 39.64.01.2v.18c-.04.09-.12.13-.2.18h-.01c-.02.02-.03.03-.01.05l.2.39a28.15 28.15 0 0 1 .48-.18h.04l.68-.35c.03-.02.04-.04.02-.06l-.17-.36c-.01-.04-.04-.05-.07-.03l-.18.08a.12.12 0 0 1-.15-.05.11.11 0 0 1-.02-.05l-.01-.43a.05.05 0 0 1 .03-.04l.83-.43a.1.1 0 0 1 .1.02l.3.32a.12.12 0 0 1 .02.1.12.12 0 0 1-.07.1l-.15.06c-.05.02-.06.06-.03.11l.16.32c.02.03.05.04.1.03l1.42-.66c.02 0 .03-.03.02-.05l-.18-.37c0-.03-.03-.03-.05-.02-.12.07-.22.08-.29.02a1.73 1.73 0 0 1-.2-.17c-.08-.1-.16-.18-.22-.23l-.03-.03-1.8-1.7a.06.06 0 0 0-.06-.01l-.36.16a.16.16 0 0 1-.05.01.45.45 0 0 0-.17.07l-.08.05c-.02 0-.03.01-.03.03a298.83 298.83 0 0 0 .18 2.74Zm.47-1.94.07.9a.02.02 0 0 0 .02 0l.57-.24.01-.01a.02.02 0 0 0 0-.02l-.64-.65h-.02a.02.02 0 0 0-.01.01Z" fill="#ED1C24"/><path d="m28.17 39.39-.03-.33c0-.04.02-.07.06-.07l2.4-.23a.1.1 0 0 1 .1.06l.42.96v.02l-.36.21h-.03c-.2-.44-.48-.65-.86-.61l-.53.04a.03.03 0 0 0-.02.01.03.03 0 0 0-.01.02l.07.7c0 .08.05.11.13.1l.17-.03a.2.2 0 0 0 .11-.06.19.19 0 0 0 .05-.12c0-.1 0-.19-.02-.26-.01-.04 0-.06.04-.06l.3-.03c.04 0 .06.01.07.05l.13 1.38v.02l-.38.03a.02.02 0 0 1-.01 0v-.01h-.01c0-.22-.02-.47-.28-.44l-.21.01c-.02 0-.03.02-.03.04l.08.82c0 .07.05.1.13.1.15 0 .3-.02.46-.05.44-.07.72-.45.83-.86a.07.07 0 0 1 .03-.05.08.08 0 0 1 .06 0l.27.08c.02 0 .03.01.04.03v.04l-.23 1.2c0 .02-.02.04-.04.04l-2.02.2c-.15.02-.36-.02-.55.05-.02 0-.03 0-.04-.02l-.04-.41a.06.06 0 0 1 .05-.07h.03c.17.02.27-.05.25-.23l-.2-2.03c0-.1-.08-.18-.18-.17l-.11.01c-.06 0-.08-.03-.09-.08Z" fill="#ED1C24"/><path fill-rule="evenodd" d="m26.22 40.81.5-.16.15-.13.11-.23c.16-.3.18-.58.06-.86a.9.9 0 0 0-.7-.55 8.14 8.14 0 0 0-1.27-.18l-.53-.08c-.06-.02-.1 0-.1.06l-.06.36c0 .06.02.09.07.1.06 0 .12.02.17.05a.13.13 0 0 1 .06.13l-.32 2.17a.14.14 0 0 1-.13.12h-.17c-.04-.02-.07 0-.07.04l-.06.4c0 .03 0 .05.05.06l1.28.18c.03 0 .05 0 .05-.04l.06-.4c0-.04-.01-.06-.05-.06l-.16-.02a.06.06 0 0 1-.04-.03.26.26 0 0 1-.04-.2 17.89 17.89 0 0 1 .14-.8v.01c.13.03.21.1.26.2a12.38 12.38 0 0 1 .33.82l.28.61c0 .02.02.03.04.03l.84.12c.02 0 .03 0 .04-.03l.06-.44a.03.03 0 0 0 0-.02h-.02c-.13-.01-.29-.07-.36-.2-.17-.3-.3-.62-.46-.93a.1.1 0 0 1-.03-.06c0-.02 0-.03.02-.04Zm-.07-.57c.2-.13.3-.47.14-.65a.5.5 0 0 0-.3-.16 11.4 11.4 0 0 0-.58-.07l-.12.84c0 .02 0 .03.02.03.2.06.64.13.84 0Z" fill="#ED1C24"/><path d="m17.35 34.78.13.12c1.26 1.1 5.08 3.34 10.17 3.44 2-.14 6.96-1.03 10.78-3.46l.14-.08 2.8 4.42-.11.08c-1.66 1.18-6.48 3.7-13.6 3.7-6.92 0-11.64-2.65-13.15-4.1l-.1-.09 2.94-4.03Zm21.12.44c-3.87 2.4-8.8 3.28-10.8 3.42h-.02c-5.01-.09-8.82-2.23-10.24-3.4l-2.59 3.54c1.55 1.4 6.14 3.91 12.84 3.91 6.88 0 11.58-2.38 13.3-3.55l-2.5-3.92Z"/><path d="m27.78 11 .46 1.39h1.49l-1.2.86.45 1.39-1.2-.86-1.2.86.45-1.4-1.2-.85h1.49l.46-1.39ZM17.15 36.33l.27-.48 1.56.83-.21.47-.45-.2-1.17 2.12.44.28c.35.2.93-.15 1.18-.35l.35.35-1.1.96-2.43-1.3.26-.48.42.18 1.23-2.19-.35-.2Z" fill="#ED1C24"/><path fill-rule="evenodd" d="M20.96 41.61c.84.31 1.84-.24 2.21-1.24.38-1 0-2.05-.85-2.36-.85-.3-1.84.25-2.21 1.24-.38 1 0 2.05.85 2.36Zm.23-.55c.42.15.97-.28 1.22-.97.26-.68.13-1.36-.28-1.5-.42-.16-.97.27-1.23.95-.26.69-.13 1.36.29 1.52Z" fill="#ED1C24"/><path d="m32.85 41.44.18.45 1.28-.45-.2-.45-.4.15-.6-1.83 2.12 1.98.69-.25-.92-2.75.4-.16-.17-.48-1.37.4.2.47.4-.12.42 1.19-1.62-1.37-1.4.44.2.48.39-.14.74 2.29-.34.15Z" fill="#ED1C24"/></svg>