<!-- by TradingView --><svg width="56" height="56" viewBox="0 0 56 56" xmlns="http://www.w3.org/2000/svg"><path fill="#F0F3FA" d="M0 0h56v56H0z"/><path d="M28 14c4.75 0 9.55 1.55 13.54 4.14C44.76 20.23 48 23.74 48 28c0 4.25-3.24 7.77-6.46 9.86A25.26 25.26 0 0 1 28 42c-4.75 0-9.55-1.55-13.54-4.14C11.24 35.77 8 32.26 8 28c0-4.25 3.24-7.77 6.46-9.86C18.45 15.54 23.25 14 28 14ZM9.9 28c0 1.5.62 3.05 1.46 4.25a16.76 16.76 0 0 0 6.2 5.1A23.48 23.48 0 0 0 28 39.99c3.55 0 7.21-1 10.44-2.64a16.76 16.76 0 0 0 6.2-5.1A7.66 7.66 0 0 0 46.09 28c0-1.5-.6-3.06-1.45-4.25a16.77 16.77 0 0 0-6.2-5.1A23.47 23.47 0 0 0 28 16.01c-3.55 0-7.2 1-10.44 2.64a16.75 16.75 0 0 0-6.2 5.1A7.66 7.66 0 0 0 9.91 28ZM28 18.39c2.9 0 5.85.76 8.54 2.02 2.23 1.04 4.68 2.66 5.97 4.81.52.88-.3 1.87-1.2 1.43-.1-.05-.23-.2-.41-.47a9.42 9.42 0 0 0-2.61-2.57 19.39 19.39 0 0 0-9.33-3.24l-.01.01.02.01.03.01v11.96c0 .61-.4 1.05-1 1.05s-1-.44-1-1.05V20.4h.02c0-.01.02-.01.01-.02v-.01l-.02-.01h-.02a19.4 19.4 0 0 0-9.3 3.25 9.43 9.43 0 0 0-2.6 2.58c-.18.26-.32.42-.42.47-.9.44-1.7-.55-1.19-1.43 1.28-2.15 3.74-3.78 5.97-4.82a20.4 20.4 0 0 1 8.54-2.02Zm-7 10.5c0 .03-.04.11-.07.11h-1.74c-.35 0-.57.02-.7.11-.63.4-.63 1.34 0 1.73.17.11.48.17.93.16H23.27c.45.01.88.02 1.14-.11.71-.36.8-1.3.17-1.78-.15-.12-.8-.11-1.25-.11h-.16c-.11.02-.17-.08-.17-.2v-4.49c0-.36-.03-.62-.1-.77-.32-.71-1.37-.73-1.74-.11-.1.17-.17.52-.16 1.01v4.45Zm14.08.1c-.03 0-.08-.07-.08-.1v-4.44c0-.48-.05-.84-.15-1-.37-.62-1.43-.6-1.74.1-.07.15-.11.41-.11.77v4.48c0 .12-.05.22-.16.2h-.17c-.45 0-1.1 0-1.25.1-.62.5-.54 1.42.17 1.78.27.14.72.13 1.18.12h3.82c.46.01.77-.06.94-.16.62-.4.63-1.33 0-1.73-.14-.09-.36-.11-.7-.11h-1.75Zm-7.04 6.7h-.08a18.6 18.6 0 0 1-5.4-.94c-.43-.14-.74-.2-.93-.15-.63.12-.91 1.08-.44 1.6.12.13.32.24.6.34 2.02.67 4.13 1.08 6.2 1.08 2.08 0 4.2-.4 6.21-1.08.3-.1.5-.21.6-.33.48-.53.2-1.48-.43-1.61-.2-.04-.5.01-.93.15-1.75.58-3.55.9-5.4.94Z" fill="#283281"/></svg>