<!-- by TradingView --><svg xmlns="http://www.w3.org/2000/svg" width="56" height="56" viewBox="0 0 56 56"><path fill="#F0F3FA" d="M0 0h56v56H0z"/><path d="M28.48 16.31a2.95 2.95 0 0 1 1.33-3.97l.05-.03a3 3 0 0 1 4.02 1.32l3.91 7.73L32.4 24l-3.91-7.69z" fill="#3957A7"/><path d="M27.92 16.31a2.95 2.95 0 0 0-1.33-3.97l-.06-.03a3 3 0 0 0-4.01 1.32l-3.92 7.73L24 24l3.92-7.69zM16.14 24.77a3.01 3.01 0 0 0-4.23.02l-.04.05a2.94 2.94 0 0 0 .02 4.18l6.2 6.09 4.26-4.25-6.21-6.09z" fill="#1A1A55"/><path d="M39.86 24.93a3.01 3.01 0 0 1 4.23.02l.04.04a2.94 2.94 0 0 1-.02 4.19l-6.2 6.08-4.26-4.24 6.21-6.09zM35.32 38.47c1.4.86 1.84 2.69.97 4.08l-.03.05a3 3 0 0 1-4.12.96l-7.37-4.6L28 33.92l7.32 4.55z" fill="#3957A7"/><path d="M40.94 18c1.66 0 3 1.33 3 2.97v.06a2.98 2.98 0 0 1-3 2.97H32.4l3.73-6h4.82z" fill="#1A1A55"/><path d="M15.45 18c-1.65 0-2.99 1.39-2.99 3.02v.06a2.94 2.94 0 0 0 3 2.92H24l-3.74-6h-4.82zM13.95 37.05a2.95 2.95 0 0 0 1.9 3.73l.07.02a3 3 0 0 0 3.77-1.9l2.66-8.04-6.9 1.65-1.5 4.54z" fill="#3957A7"/><path d="M42.05 37.2a2.95 2.95 0 0 1-1.9 3.74l-.07.02a3 3 0 0 1-3.77-1.9l-2.66-8.04 6.9 1.65 1.5 4.53zM23.78 43.45a3 3 0 0 1-4.12-.97l-.03-.05a2.94 2.94 0 0 1 .98-4.07L28 33.92v7.03l-4.22 2.5z" fill="#1A1A55"/></svg>