<!-- by TradingView --><svg width="56" height="56" viewBox="0 0 56 56" xmlns="http://www.w3.org/2000/svg"><path fill="#F0F3FA" d="M0 0h56v56H0z"/><path d="M14.65 29.71c.4.14 1.4.27 3 .41.7.07 1.28-.12 1.72-.55.07-.07.1-.15.1-.25v-4.96c0-.1.04-.2.11-.26.07-.07.17-.1.27-.1h2c.05 0 .1 0 .15.02a.41.41 0 0 1 .22.22l.03.15c-.02 1.6-.06 3.01-.1 4.14-.04.75.14 1.82 1.23 1.6 1.05-.2 1.63-2.14 1.71-3 .07-.8.1-1.74.1-2.75 0-.25.13-.38.4-.38h2.18a.44.44 0 0 1 .3.13.42.42 0 0 1 .13.3l-.27 4.23c-.02.5.1.9.36 1.24.1.12.23.21.4.25.15.04.31.04.47-.02.4-.15.76-.42 1.06-.82.2-.25.3-.65.32-1.2.05-2.05 1.2-3.69 3.24-4.2 1.55-.38 4.15.25 4.23 2.14a.34.34 0 0 1-.16.3c-.55.36-1.12.58-1.73.68a.27.27 0 0 1-.18-.03.26.26 0 0 1-.11-.13c-.24-.64-.82-1.02-1.51-.7-.53.23-.84.69-.93 1.37-.2 1.49.57 2.58 2.13 2.8 1.41.19 2.57-.36 3.42-1.5.26-.36.37-.85.34-1.48v-2.78c0-.36.2-.58.57-.58h1.8c.3 0 .36.18.35.47v3.64c-.02.67-.08 1.55.45 1.92.8.55 1.64-.42 1.96-1.12a9.5 9.5 0 0 0 .78-4.42.42.42 0 0 1 .12-.32c.05-.04.1-.08.15-.1.06-.02.12-.07.18-.07h1.93c.11 0 .22.08.3.16a.4.4 0 0 1 .13.29v9.44c0 2.38-1.21 4.4-3.82 4.82a5.95 5.95 0 0 1-2.8-.15c-.68-.21-1.36-.73-1.93-.99-1-.43-2-.54-3-.3-.32.07-.86.32-1.62.77-2.49 1.44-4.82 1.14-7.35-.1-1.28-.64-2.58-1.05-3.98-.63-.13.04-.7.34-1.72.9-2.18 1.19-4.62.96-6.87-.16-1.63-.82-3.17-1.33-4.85-.46-.33.17-.6.1-.8-.18l-.74-.99c-.24-.32-.17-.57.19-.76a7.06 7.06 0 0 1 6.03-.25c1.65.64 2.93 1.69 5.02 1.15.81-.2 1.35-.79 2.2-1.15 2.27-.95 4.35-.6 6.52.45 1.69.82 3.19 1.28 4.97.28l1.35-.75c2.38-1.01 4.57-.5 6.87.7 1.1.59 2.42.63 3.23-.39.32-.41.5-1.15.52-2.21.02-1.13.02-1.97.02-2.51 0-.25-.07-.27-.21-.06-1.24 1.78-4.12 2.23-5.53.24-.06-.08-.13-.09-.21-.03-2.26 1.68-5.81 1.93-7.96-.13a.13.13 0 0 0-.1-.04.13.13 0 0 0-.1.04 4.3 4.3 0 0 1-3.7 1.41c-1.13-.1-1.82-.62-2.09-1.58 0 0 0-.02-.02-.02a.06.06 0 0 0-.06-.01.06.06 0 0 0-.03.02c-1.14 1.58-2.7 2-4.66 1.28a.3.3 0 0 0-.25.01c-1.48.7-3.1.54-4.63.16-.8-.19-1.77-.37-2.92-.54-.59-.08-2.03.03-4.34.33-.28.03-.44-.09-.47-.37L8 30.3c-.02-.26.1-.4.36-.43l3.43-.34c.1 0 .17-.06.22-.14.56-1.01.31-2.59.1-3.72l-.69-3.76c-.29-1.62-.38-2.75-.27-3.38.9-5.3 10.4-4.47 8.66 1.4a3.95 3.95 0 0 1-1.79 2.17c-.34.22-.62.16-.86-.15l-.72-.98c-.23-.31-.18-.58.15-.8 1.42-.9.63-3.29-1.26-2.85-1.37.32-1.62 1.73-1.39 2.92.6 3 1.07 5.28 1.07 7.88 0 .46-.15.93-.43 1.41-.05.1-.03.15.07.18Z"/></svg>