<!-- by TradingView --><svg width="56" height="56" viewBox="0 0 56 56" xmlns="http://www.w3.org/2000/svg"><path fill="#F0F3FA" d="M0 0h56v56H0z"/><path d="M28.29 36h-.56c-5.61-.03-11.42-.64-16.8-2.39-1.93-.62-4.13-1.57-5.61-3-3.32-3.22.36-5.97 2.95-7.17 4.26-1.97 9.2-2.82 13.92-3.2a68.62 68.62 0 0 1 17.02.68c2.33.4 4.6 1 6.78 1.78 1.88.68 5 2.13 5.81 4.27 1.11 2.91-2.74 5.06-4.8 5.9a34.15 34.15 0 0 1-6.58 1.97 60.57 60.57 0 0 1-10.23 1.1c-.63.01-1.27.03-1.9.06Z" fill="#E30614"/><path d="M50.73 28.09c0 1.93-2.4 3.79-6.68 5.16-4.27 1.36-10.08 2.13-16.13 2.13-6.05 0-11.85-.77-16.12-2.13-4.28-1.37-6.69-3.23-6.69-5.16 0-1.94 2.4-3.8 6.69-5.16 4.27-1.37 10.07-2.14 16.12-2.14 6.05 0 11.86.77 16.13 2.14 4.28 1.37 6.68 3.22 6.68 5.16Z" fill="#FFE000"/><path d="M30.74 24.59c.27-.18.5-.24.71-.18.15.03.16.09.03.17-.5.3-.49.77-.44 1.35.12 1.66.15 2.8.09 3.43-.09.86-.6 1.53-1.5 2.02a.16.16 0 0 1-.16 0c-.93-.46-1.54-1.08-1.6-2.18-.04-1.01-.01-2.22.1-3.64.03-.45-.12-.79-.44-1.03-.13-.1-.12-.15.04-.18.2-.02.38 0 .57.07.06.02.1 0 .13-.06.24-.5.39-1.2.93-1.55.78-.51 1.3 1.18 1.4 1.72l.03.04.03.03a.09.09 0 0 0 .08-.01Z" fill="#E30614"/><path d="M29.2 22.92a.1.1 0 0 1 .05-.03.1.1 0 0 1 .06 0 .1.1 0 0 1 .04.04.1.1 0 0 1 .02.06v.1c0 .06-.03.1-.08.1s-.08 0-.11-.03a.13.13 0 0 1-.03-.1c0-.06.02-.1.05-.14ZM29.6 23.14c.07.07.16.08.2.03.05-.05.03-.15-.04-.22s-.16-.08-.2-.03c-.05.05-.03.15.04.22ZM28.82 23.67a.04.04 0 0 1-.03-.01.05.05 0 0 1-.02-.04v-.03c0-.07.02-.13.07-.18a.27.27 0 0 1 .18-.07l.14-.01a.27.27 0 0 1 .18.06.24.24 0 0 1 .08.17v.03a.05.05 0 0 1 0 .04l-.02.01h-.02l-.56.03ZM29.83 23.69c.17 0 .32-.06.32-.16s-.13-.19-.3-.2c-.18 0-.32.06-.33.16 0 .1.13.19.3.2ZM29.4 24.12l-.02.04-.04.01-.6.02-.07-.01a.2.2 0 0 1-.07-.03.15.15 0 0 1-.04-.05.12.12 0 0 1-.01-.05v-.06c0-.03.02-.07.05-.1a.21.21 0 0 1 .13-.04l.6-.02a.05.05 0 0 1 .05.03v.02l.01.24ZM29.57 24.17l-.03-.01v-.12a.24.24 0 0 1 .06-.15.2.2 0 0 1 .15-.06h.38c.05 0 .1.03.15.07.03.04.06.1.05.16v.11l-.04.02-.72-.02ZM29.27 24.32l-.8.02a.13.13 0 0 0-.12.14v.06c0 .07.06.13.13.13l.8-.02c.07 0 .13-.07.13-.14v-.05a.13.13 0 0 0-.14-.14ZM30.39 24.33l-.73-.02a.1.1 0 0 0-.1.11v.12c0 .06.04.1.1.11l.72.02a.1.1 0 0 0 .1-.1v-.12a.1.1 0 0 0-.1-.12ZM29.3 24.8h-.63c-.06 0-.1.04-.1.1v.1c0 .07.04.12.1.12l.62.01c.06 0 .1-.05.1-.1v-.1a.11.11 0 0 0-.1-.12ZM30.24 24.8l-.57-.01a.1.1 0 0 0-.1.1v.13c0 .05.04.1.1.1l.56.02a.1.1 0 0 0 .1-.1v-.13a.1.1 0 0 0-.09-.1ZM29.3 25.3l-.58-.02a.1.1 0 0 0-.1.1l-.01.14c0 .06.05.1.1.1l.57.02a.1.1 0 0 0 .11-.1v-.14a.1.1 0 0 0-.1-.1ZM30.17 25.29h-.5a.11.11 0 0 0-.11.11v.13c0 .06.05.11.11.11h.5c.07 0 .12-.05.12-.12v-.12a.11.11 0 0 0-.12-.11ZM29.3 25.8h-.58a.1.1 0 0 0-.1.1v.14c0 .05.05.1.1.1h.58a.1.1 0 0 0 .1-.1v-.14a.1.1 0 0 0-.1-.1ZM30.2 25.8h-.56a.08.08 0 0 0-.08.08v.19c0 .04.04.07.08.07h.55c.04 0 .08-.03.08-.07v-.19a.08.08 0 0 0-.08-.08Z" fill="#FFE000"/><path d="M11.23 26.64c-.08-.22-.12-.21-.12.02v4a.13.13 0 0 0 .13.12h.54a.1.1 0 0 1 .08.04.1.1 0 0 1 .01.09l-.01.05a.06.06 0 0 1-.06.04h-1.67l-.06-.03a.08.08 0 0 1-.02-.05v-.06a.08.08 0 0 1 .08-.08h.6c.08 0 .11-.04.11-.1V26.3a.09.09 0 0 0-.09-.1h-.61c-.04 0-.06 0-.07-.04l-.02-.04a.1.1 0 0 1 .05-.11.1.1 0 0 1 .04-.02H12c.09 0 .14.04.17.12l.97 3.02c.06.18.12.18.18 0l1.03-3.02a.18.18 0 0 1 .17-.12h1.8a.1.1 0 0 1 .06.03c.02.01.03.04.03.06v.06a.08.08 0 0 1-.08.08h-.63c-.05 0-.08.03-.08.08v4.38c0 .06.03.09.09.09h.61a.08.08 0 0 1 .08.07v.06c0 .05-.02.08-.08.08H13.9c-.02 0-.04 0-.06-.02a.08.08 0 0 1-.02-.06v-.06a.08.08 0 0 1 .07-.07h.62c.06 0 .1-.03.1-.1V26.6c0-.22-.04-.22-.11-.01L13 30.9a.14.14 0 0 1-.12.1c-.13.01-.21-.05-.25-.19l-.03-.11-1.38-4.06Z" fill="#E30614"/><path d="m29.32 26.32-.61-.01a.08.08 0 0 0-.08.08v.17c0 .04.03.08.08.08h.6c.05 0 .08-.03.08-.07v-.17a.08.08 0 0 0-.07-.08ZM30.2 26.31h-.58a.06.06 0 0 0-.06.07v.2c0 .04.03.07.06.07h.58c.04 0 .07-.03.07-.07v-.2a.06.06 0 0 0-.07-.07Z" fill="#FFE000"/><path d="M36.48 29.38c.08.12.12.1.12-.03v-2.06a.11.11 0 0 0-.04-.09.12.12 0 0 0-.08-.03h-.4c-.04 0-.06-.02-.06-.06v-.06l.01-.04.04-.01h1.3a.07.07 0 0 1 .05.02l.01.02v.07l-.01.04a.07.07 0 0 1-.05.02h-.44c-.07 0-.11.04-.11.11v3.42c0 .36-.1.4-.32.1l-2.38-3.3c-.08-.12-.12-.1-.12.03v3.19c0 .07.04.1.11.1h.42c.04 0 .06.02.06.06v.06c0 .04-.02.06-.06.06h-1.29a.08.08 0 0 1-.05-.02.07.07 0 0 1-.02-.06v-.04c0-.02 0-.03.02-.04a.06.06 0 0 1 .04-.02h.43a.1.1 0 0 0 .08-.03.1.1 0 0 0 .03-.07v-3.46c0-.06-.03-.09-.1-.09h-.41c-.02 0-.04 0-.05-.02l-.04-.05a.05.05 0 0 1 .02-.08l.03-.02h1.46l.08.03c.03.01.05.03.07.06l1.65 2.3Z" fill="#E30614"/><path d="m30.22 26.8-.58.01a.1.1 0 0 0-.1.11v.13c0 .06.05.1.11.1h.57a.1.1 0 0 0 .1-.11v-.13a.1.1 0 0 0-.1-.1Z" fill="#FFE000"/><path d="M44.82 30.85a1.88 1.88 0 0 0 2.1-.43A2 2 0 0 0 47.5 29a2.06 2.06 0 0 0-.57-1.41 1.93 1.93 0 0 0-1.36-.59 1.88 1.88 0 0 0-1.37.58 2 2 0 0 0-.57 1.42 2.06 2.06 0 0 0 .56 1.41c.18.19.4.34.63.44Zm.67-3.69h.13c.53 0 .97.41.97.91v1.83c0 .5-.42.92-.95.92h-.13a.94.94 0 0 1-.97-.9v-1.84c0-.5.42-.91.95-.92ZM23.83 30.73c0 .02 0 .04.02.05l.06.03c.31 0 .65 0 1.02-.03.65-.05.78-.51.88-1.1.01-.04.03-.05.07-.05h.06c.03 0 .05.01.05.05v1.2c0 .08-.04.12-.12.12h-3.44c-.05 0-.07-.02-.07-.07v-.06a.06.06 0 0 1 .04-.05h.49c.08 0 .11-.05.11-.12v-3.48a.1.1 0 0 0-.08-.05.1.1 0 0 0-.05 0 .82.82 0 0 1-.48-.03c-.02 0-.03-.02-.03-.04v-.06c0-.03 0-.04.04-.04h2.05c.01 0 .03 0 .04.02l.01.04v.05c0 .05-.02.07-.07.07h-.5a.1.1 0 0 0-.07.03.1.1 0 0 0-.03.07v3.45Z" fill="#E30614"/><path d="m29.3 26.8-.58.01a.09.09 0 0 0-.09.1v.16c0 .05.04.09.09.09h.6c.04 0 .08-.05.08-.1v-.16c0-.05-.04-.1-.1-.1Z" fill="#FFE000"/><path fill-rule="evenodd" d="M41.07 30.9a1.9 1.9 0 0 0 1.35-1.89c0-.9-.5-1.65-1.34-1.9a4.6 4.6 0 0 0-1.28-.1L38.5 27c-.05 0-.09.03-.09.09v.05c0 .03.02.04.05.04h.48c.04 0 .06.03.06.1v3.44c0 .07-.03.1-.07.1h-.48c-.03 0-.05.01-.05.04v.05c0 .06.03.09.1.09h1.29a4.6 4.6 0 0 0 1.28-.1Zm-1.2-3.7a.07.07 0 0 0-.03.05l-.02 3.5a.07.07 0 0 0 .02.05.07.07 0 0 0 .05.02h.48c.31 0 .6-.12.83-.34.22-.22.35-.52.35-.84v-1.27a1.2 1.2 0 0 0-.71-1.1c-.14-.06-.3-.09-.45-.09h-.48c-.02 0-.03 0-.05.02Z" fill="#E30614"/><path d="m29.31 27.3-.63.01a.1.1 0 0 0-.1.1v.15c0 .05.05.1.1.1h.64a.1.1 0 0 0 .09-.1v-.15a.1.1 0 0 0-.1-.1ZM30.3 27.31h-.65a.1.1 0 0 0-.1.1v.14c0 .06.04.1.1.1h.65a.1.1 0 0 0 .1-.1v-.14a.1.1 0 0 0-.1-.1ZM29.3 27.8l-.67.01a.1.1 0 0 0-.1.1l.01.14c0 .05.04.1.1.1l.67-.01a.1.1 0 0 0 .1-.1v-.14a.1.1 0 0 0-.1-.1ZM30.34 27.8h-.7a.07.07 0 0 0-.08.07v.21c0 .05.04.08.07.08h.71c.04 0 .07-.04.07-.08v-.21a.07.07 0 0 0-.07-.07Z" fill="#FFE000"/><path fill-rule="evenodd" d="m19.94 29.9.27.83a.07.07 0 0 1 0 .06.07.07 0 0 1-.06.02h-.46c-.05 0-.07.03-.07.08v.05c0 .03.01.05.05.05h1.9c.04 0 .07-.02.07-.07v-.06c-.02-.05-.06-.08-.12-.06a.73.73 0 0 1-.3 0 .17.17 0 0 1-.13-.1c-.89-2.3-1.35-3.5-1.4-3.6-.07-.12-.16-.13-.28-.04l-.01.02-1.48 3.61a.2.2 0 0 1-.14.12.6.6 0 0 1-.27-.01c-.06-.02-.1 0-.12.06v.04c0 .07.03.1.1.1h1.21l.02-.03.03-.07a.07.07 0 0 0-.01-.06l-.02-.02h-.03a.95.95 0 0 0-.41 0 .1.1 0 0 1-.1-.03.1.1 0 0 1-.02-.1l.33-.8c0-.02.02-.04.04-.05a.12.12 0 0 1 .06-.02h1.23c.06 0 .1.03.12.08Zm-.67-1.73c0-.02-.02-.04-.05-.04-.03 0-.05.01-.06.04a12.25 12.25 0 0 1-.55 1.4.07.07 0 0 0 .04.05l.04.01a9.28 9.28 0 0 1 1.06 0l.02-.01.02-.04v-.03c-.2-.45-.37-.9-.52-1.38Z" fill="#E30614"/><path d="m29.3 28.3-.65-.02a.12.12 0 0 0-.11.12v.1c0 .06.04.12.1.12l.65.01c.06 0 .11-.05.11-.11v-.1a.12.12 0 0 0-.1-.12ZM30.35 28.3l-.7-.02a.08.08 0 0 0-.08.08v.18c0 .04.03.08.07.08l.7.02c.04 0 .08-.03.08-.08v-.18a.08.08 0 0 0-.07-.08ZM29.3 28.78h-.61a.1.1 0 0 0-.1.1l-.01.13c0 .06.04.1.1.1l.6.02a.1.1 0 0 0 .11-.1v-.14a.1.1 0 0 0-.1-.1ZM30.32 28.78h-.66a.1.1 0 0 0-.1.1V29c0 .06.04.1.1.1h.65a.1.1 0 0 0 .1-.1v-.12a.1.1 0 0 0-.1-.1ZM29.37 29.3h.01l.02.01a.05.05 0 0 1 .01.04v.02a.3.3 0 0 1-.09.2.27.27 0 0 1-.2.08h-.15a.27.27 0 0 1-.2-.1.29.29 0 0 1-.06-.2v-.03a.05.05 0 0 1 .02-.05h.02l.62.03ZM30.23 29.28a.07.07 0 0 1 .05.02.07.07 0 0 1 .02.05v.05c0 .06-.02.12-.07.17a.27.27 0 0 1-.17.07h-.25a.27.27 0 0 1-.18-.06.22.22 0 0 1-.08-.16v-.05a.08.08 0 0 1 .02-.05.07.07 0 0 1 .05-.03h.61ZM29.16 30.01c.06.13.15.2.2.18.06-.03.06-.16 0-.28-.06-.13-.15-.2-.2-.18-.06.03-.06.16 0 .28ZM29.52 30.16c-.02-.1 0-.2.06-.31a.2.2 0 0 1 .07-.08.18.18 0 0 1 .1-.02h.17c.08 0 .1.03.04.1l-.42.43a.02.02 0 0 1-.02 0h-.01V30.2c.02-.01.02-.03.01-.05Z" fill="#FFE000"/></svg>