<!-- by TradingView --><svg width="56" height="56" viewBox="0 0 56 56" xmlns="http://www.w3.org/2000/svg"><path fill="#F0F3FA" d="M0 0h56v56H0z"/><path fill-rule="evenodd" d="M40 45H16V20.15L40 9v36Zm-8-24.88-5.98 2.81v.02l4.98 1.3v16.47l-4.98-1.65H26V18a.01.01 0 0 1 0-.01L37 12.8H37v21.75l-.01.01-4.99 3.1V20.12ZM19.01 40.76c.08.25.4.42.63.5.22.09.44.15.67.2.6.11 1.22.13 1.86.07.48-.04.98-.15 1.41-.37.13-.06.23-.14.31-.24.07-.08.11-.18.11-.29V18.99h-.01l-4.97 2.4a.03.03 0 0 0-.02.03 306157.68 306157.68 0 0 1 .01 19.34Z" fill="#29366C"/></svg>