<!-- by TradingView --><svg width="56" height="56" viewBox="0 0 56 56" fill="none" xmlns="http://www.w3.org/2000/svg">
<rect width="56" height="56" fill="#DE0B15"/>
<path fill-rule="evenodd" clip-rule="evenodd" d="M9 31V19H11.8261L15.4743 28.124L19.1739 19H22V31H20V21.6875L16.0395 31H14.8577L11 21.6875V31H9ZM26.1562 31H24L28.5962 19H30.6103L35 31H32.7188L31.6562 28H27.2149L26.1562 31ZM27.9999 26L29.5 21.5L30.9999 26H27.9999ZM37 19V31H39V27H40.9727C43.0962 27 46 26.6062 46 22.9062C46 19.8562 43.9258 19 40.9727 19H37ZM38.9999 21V25H41.9999C41.9999 25 43.9999 24.8037 43.9999 22.9877C43.9999 21.1718 41.9999 21 41.9999 21H38.9999ZM9.74959 34.2471C9.85739 33.5586 10.9025 33.5 11.4441 33.5C12.1139 33.5 13 33.7152 13 34.5C12.9364 34.4994 12.8654 34.4998 12.7925 34.5002H12.7924H12.7923H12.7922H12.7921H12.792H12.7919H12.7918H12.7918H12.7917H12.7916H12.7915H12.7914C12.7037 34.5007 12.6131 34.5012 12.529 34.5C12.4393 34.4987 12.3487 34.4973 12.2572 34.4958C11.7716 34.4878 11.263 34.4795 10.7542 34.5C10.2776 34.5192 9.72086 34.6469 9.4433 34.8716C9.13145 35.124 8.99806 35.4274 9.00002 35.7969C9.00002 36.7947 10.127 37 10.9751 37C11.6522 37 12.4947 36.8583 13 36.5C13.1571 36.9854 13.3839 37 14 37C14 36.9371 13.9996 36.876 13.9992 36.817V36.817V36.8169V36.8168V36.8167V36.8166V36.8166V36.8165V36.8165V36.8165V36.8165V36.8165V36.8164C13.9985 36.7045 13.9979 36.6006 14 36.5078C13.5999 36.5078 13.5999 36.5003 13.6 35.9111L13.6 35.8772V34.5C13.6 33.3146 12.5068 33 11.4441 33H11.4218H11.4214C10.8478 33 9.9981 33 9.42307 33.5785C9.25896 33.7436 9.13323 33.9758 9.10384 34.2265C9.10341 34.2304 9.24697 34.2329 9.39883 34.2355H9.39884H9.39886H9.3989L9.399 34.2355H9.39901C9.5694 34.2385 9.75016 34.2417 9.74959 34.2471ZM12.7838 35.0002H12.7838H12.7839H12.7839H12.7839H12.784H12.784C12.858 34.9998 12.9305 34.9994 13 35V35.9531C12.4947 36.3594 11.7902 36.5 11.1462 36.5C10.5021 36.5 9.60015 36.4531 9.60015 35.7969C9.60015 35.1406 10.3138 35 10.7714 35C10.9707 35 11.1688 34.9991 11.3652 34.9982C11.7533 34.9964 12.1348 34.9947 12.5068 35C12.5995 35.0013 12.6927 35.0008 12.7837 35.0002H12.7837H12.7837H12.7837H12.7838H12.7838H12.7838ZM34.7197 33H34L36.0989 37H36.6144L38.7 33H38.0097L36.35 36.1923L34.7197 33ZM31 33H30.4V37H31V33ZM30.4 32H31V32.5958H30.4V32ZM45 35C45 35.0574 44.9979 35.1142 44.9938 35.1704H44.4209H41.5474C41.6211 35.9074 42.1425 36.4998 43.0101 36.4998C43.7652 36.4998 44.3862 36.0135 44.6017 35.5291L44.9028 35.9373C44.6017 36.4998 43.9426 37 43.0418 37C41.7736 37 41 36.1046 41 35C41 33.8954 41.78 33 43.0101 33C44.2403 33 45 33.8954 45 35ZM41.5694 34.6861C41.7018 34.0196 42.1923 33.5 42.9784 33.5C43.7645 33.5 44.272 33.8969 44.4209 34.6861H41.5694ZM21.3751 35.6604C20.9043 36.6415 20.0899 37 19.062 37C17.7137 37 16.6636 36.2264 16.6636 35C16.6636 33.6604 17.7137 33 19.062 33C20.2041 33 21.1086 33.5281 21.3751 34.458H20.7714C20.5267 33.8016 19.8526 33.5 19.0264 33.5C18.0623 33.5 17.229 33.9475 17.229 34.9942C17.229 35.9524 18.1565 36.5 19.0264 36.5C19.8963 36.5 20.5557 36.0781 20.7714 35.4238L21.3751 35.6604ZM25 32H25.6V33H26.6084V33.5H25.6V35.6406C25.6 36.3955 26.0473 36.4 26.6084 36.4C26.6084 36.4 26.6105 36.9998 26.6084 37C25.616 37 25 36.8023 25 35.9978V33.5H23.9988V33H25V32Z" fill="white"/>
</svg>
