<!-- by TradingView --><svg width="56" height="56" viewBox="0 0 56 56" xmlns="http://www.w3.org/2000/svg"><path fill="#F0F3FA" d="M0 0h56v56H0z"/><path d="M21.98 32.66c.07.65.2 1.67.99 1.92.53.17 1 .17 1.19.17.09 0 .15.02.15.09 0 .1-.17.16-.39.16-.4 0-2.38-.02-3.06-.07-.42-.04-.51-.1-.51-.18 0-.08.04-.11.13-.13.09-.02.1-.33.07-.66l-.88-9.42h-.05l-4.5 9.44c-.38.8-.43.96-.6.96-.13 0-.22-.18-.56-.83-.48-.9-2.06-4.03-2.15-4.22a296.2 296.2 0 0 1-2.42-5.17h-.07l-.74 8.42c-.02.3-.02.62-.02.93 0 .28.2.51.48.56.31.08.59.1.7.1.07 0 .14.03.14.09 0 .12-.1.16-.33.16-.67 0-1.55-.06-1.7-.06-.16 0-1.04.06-1.54.06-.18 0-.31-.04-.31-.16 0-.06.1-.1.18-.1.15 0 .28 0 .55-.05.6-.1.66-.81.74-1.5l1.31-11.84c.02-.2.1-.33.2-.33.11 0 .19.07.28.27l5.6 11.42 5.4-11.4c.07-.16.14-.29.27-.29s.18.15.22.49l1.23 11.17ZM49.2 34.74c-.1 0-.42 0-.7-.07-.63-.18-.9-.38-1.31-1.4l-1.63-4.05c3.7-1.34 5.44-4.58 5.44-4.58s-1.74 2.25-6 3.17l-2.3-5.68c-.35-.88-.44-1.13-.66-1.13-.18 0-.25.29-.77 1.38-.42.9-1.24 2.85-2.36 5.5l-.53 1.27c-3.43 1.86-4.34 5.71-4.34 5.71s.8-2.77 3.72-4.22l-.9 2.18c-.5 1.23-.77 1.54-1 1.7-.35.22-.76.22-.88.22-.15 0-.22.04-.22.13 0 .1.1.13.3.13h3.23c.3 0 .4-.04.4-.15 0-.1-.09-.1-.2-.1-.2 0-.47 0-.7-.08a.45.45 0 0 1-.23-.42c0-.16.07-.42.16-.69.16-.52.65-1.84 1.24-3.4a9.6 9.6 0 0 1 3.05-.37c.7.02 1.35-.04 1.97-.15l1.18 3.14c.28.7.5 1.27.5 1.51 0 .13-.04.27-.24.36-.16.08-.5.1-.7.1-.12 0-.18.03-.18.12 0 .1.17.13.5.13h3.84c.3 0 .48-.02.48-.13 0-.07-.04-.12-.15-.12ZM42 28.2c-.92.04-1.73.2-2.46.46a156.5 156.5 0 0 1 2.1-5.18l1.74 4.6c-.44.06-.9.1-1.37.12Z" fill="#231F20"/><path d="M26 22.44c-.04-.63-.22-.92-.84-1.05a3.85 3.85 0 0 0-.73-.06c-.2 0-.32-.03-.32-.16s.13-.17.41-.17c1 0 2.18.05 2.55.05.91 0 1.64-.05 2.28-.05 3.39 0 3.99 1.79 3.99 2.77 0 1.5-.88 2.41-1.91 3.22 1.53.52 3.4 1.83 3.4 3.99 0 1.97-1.55 4.02-5 4.02-.22 0-.76-.04-1.3-.06l-1.4-.05c-.21 0-.63 0-1.08.02-.43 0-.91.04-1.29.04-.24 0-.37-.06-.37-.19 0-.09.07-.15.3-.15.28 0 .5-.03.67-.07.38-.07.57-.48.64-1.01V22.44Zm2 4.22c0 .15.06.18.14.2.17.04.45.06.88.06.62 0 1.27-.07 1.59-.35.49-.39.77-1.05.77-1.95 0-1.24-.97-2.87-2.58-2.87-.26 0-.43 0-.62.04-.13.04-.18.11-.18.32v4.55Zm2.72 1.48c-.4-.28-1.07-.4-1.8-.45-.33-.02-.52-.02-.8-.02-.07 0-.12.04-.12.13v4.38c0 1.22.06 1.53.66 1.77.51.2 1.18.22 1.6.22.85 0 2.28-.44 2.28-2.36 0-1.15-.4-2.7-1.82-3.67Z" fill="#EC1C24"/></svg>