<!-- by TradingView --><svg width="56" height="56" viewBox="0 0 56 56" xmlns="http://www.w3.org/2000/svg"><path fill="#F0F3FA" d="M0 0h56v56H0z"/><path d="M7.7 22 5 32h2.54L10 24.09V32h3.07l4.73-7.45L15.84 32h4.92l2.13-2.45L26.65 28h-2.83l2.83-3.45 1.2 7.45h3.08L29.1 22h-3.41l-6.76 8.38L21.21 22h-4.08L12 29.88V22h-4.3Z"/><path fill-rule="evenodd" d="m33.45 22-1.15 6H36l-3.94 1.47-.54 2.53h3.3l.35-3h5.69c.57 0 1 1.02.87 1.6l-.3 1.4h3.1c.1-.5.3-1.7.41-2.53.1-.83-.88-1.26-1.38-1.37 1.25 0 1.94-.96 2.13-1.44.1-.33.32-1.33.4-2.74.07-1.4-1.49-1.9-2.27-1.92H33.45Zm2.64 2.5-.52 2.5h5.75c.65 0 1.21-.49 1.33-1.16l.07-.43a.77.77 0 0 0-.74-.91H36.1ZM47.73 22H51l-1.81 10h-3.35l1.9-10Z" fill="#C92524"/><path fill="#CF242A" d="M5 33h44v2H5z"/></svg>