<!-- by TradingView --><svg width="56" height="56" viewBox="0 0 56 56" xmlns="http://www.w3.org/2000/svg"><path fill="#F0F3FA" d="M0 0h56v56H0z"/><path d="M14.31 29.82a28.7 28.7 0 0 1-.97 4.08l-3.03-6.52c-.11-.23-.18-.22-.22.04-.4 2.53-.78 4.93-1.16 7.18-.26 1.52-1.8 1.48-2.84 1.33-.07-.01-.1-.05-.09-.13.14-.74.99-5.7 2.55-14.9.07-.43.29-.8.72-.88.39-.08.7.14.92.65 1.28 2.95 2.56 5.88 3.85 8.8.03.05.06.16.08.32.01.05.03.08.07.08.03 0 .07-.02.12-.05Z" fill="url(#a)"/><path d="M20.22 22.45c-.48 1.7-1.1 3.27-1.84 4.7l-4.07 8.63-.02.03a.06.06 0 0 1-.1-.03l-.85-1.88c.43-1.35.75-2.7.97-4.08l4.03-9.14c.3-.68 1.23-1.03 1.53-.18.14.38.25 1.03.35 1.95Z" fill="#E4BD5C"/><path d="m34.45 34.32-2.9-.53c-.34-.82-.58-1.44-.7-1.85-.27-.86.88-1.93 1.5-2.3.06-.04.07-.1.01-.15-.35-.37-1.8-.24-2.39-.2l-.09-.03a.16.16 0 0 1-.06-.08l-1.34-3.73c-.04-.11-.08-.11-.12 0-.96 2.7-2.14 5.9-3.53 9.6-.24.62-.7.95-1.4.95h-1.98c.4-.44.7-1.04.86-1.58.12-.13.2-.29.26-.49l.15-.52c1.7-4.39 3.36-8.67 4.95-12.84.22-.57 1-.8 1.38-.2.1.15.18.34.27.56l5.06 13.13.07.26Z" fill="#D7AD59"/><path d="m38.5 23.72-1.46 2.8-3.2-6.32a.13.13 0 0 1 0-.13.12.12 0 0 1 .05-.04 63.93 63.93 0 0 0 1.8.03c.72 0 1.11.3 1.46.98.46.9.91 1.79 1.34 2.68Z" fill="url(#b)"/><path d="M43.71 36c.3-.12.59-.4.85-.73.46-.22.44-.7.44-1.68V23.26c0-1.74 1.14-3.21 2.85-3.23.03 0 .06.01.08.04.02.02.07.05.07.09v13.73c0 1.1-.41 2.1-1.6 2.11h-2.69Z" fill="#C99B46"/><path d="m43.06 32.72-2.81.12-.87-1.9a.13.13 0 0 0-.05-.05.12.12 0 0 0-.14 0 46.62 46.62 0 0 1-2.33 4.56c-.23.4-.7.54-1.15.55h-2.23c.47-.36.81-.9 1.02-1.48.01-.05 0-.12-.05-.2.07.04.12.03.14-.01 1.22-2.47 2.24-4.45 3.07-5.94.13-.25.15-.47.03-.68l-.65-1.17 1.45-2.8.6 1.15c0 .03.02.05.04.06a.14.14 0 0 0 .2-.03c.1-.12.18-.25.25-.39.57-1.18 1.1-2.24 1.6-3.18.15-.3.34-.61.56-.92.38-.53 2.37-.37 2.89-.32l.03.01.03.03a.09.09 0 0 1 0 .08 306.15 306.15 0 0 0-3.76 7.3c-.22.43-.2.84.07 1.21.39.57 1.08 1.9 2.06 4Z" fill="#FADD8F"/><path d="M29.5 30.85a6.69 6.69 0 0 0-2.65 2.32c-.25.36-.42.72-.5 1.09-.01.03-.04.04-.07.02l-.05-.03c-.02-.01-.03-.03-.03-.05.19-2.78 1.58-4.3 4.17-4.53.44-.04.8-.04 1.1 0 .13.02.14.07.03.15-.85.57-1.05 1.56-1.48 2.42a4.25 4.25 0 0 1-3.14 2.44h-.09a.18.18 0 0 1-.07-.06.2.2 0 0 1-.03-.18 6.12 6.12 0 0 1 1.94-2.83l.9-.73c.06-.06.06-.07-.03-.03Z" fill="#7CC140"/><path d="M43.06 32.72c.35.66.7 1.33 1.04 2.01.07.15.22.33.46.54-.26.33-.48.6-.79.73h-.75c-.68 0-1.22-.18-1.61-.9-.4-.73-.8-1.49-1.16-2.26l2.81-.12Z" fill="url(#c)"/><path d="m22.17 33.64-1.95-11.19c-.48 1.7-1.1 3.27-1.84 4.7l1.16 7.12c.08 1 .96 1.99 1.98 1.65.41-.44.63-.96.79-1.5l-.14-.78Z" fill="url(#d)"/><path d="M33.8 32.52c.05.09.71 1.95.7 2-.2.58-.55 1.06-1.02 1.42-1.2.16-2.1-2.26-2.36-3.27l2.68-.15Z" fill="url(#e)"/><defs><linearGradient id="a" x1="13.89" y1="31.46" x2="7.52" y2="31.49" gradientUnits="userSpaceOnUse"><stop stop-color="#E4BD5C"/><stop offset="1" stop-color="#D59943"/></linearGradient><linearGradient id="b" x1="36.16" y1="20.78" x2="38.67" y2="24.15" gradientUnits="userSpaceOnUse"><stop stop-color="#CAA04C"/><stop offset="1" stop-color="#FADD8F"/></linearGradient><linearGradient id="c" x1="41.65" y1="33.3" x2="42.48" y2="35.96" gradientUnits="userSpaceOnUse"><stop stop-color="#FADD8F"/><stop offset="1" stop-color="#96731F"/></linearGradient><linearGradient id="d" x1="19.48" y1="30.56" x2="20.45" y2="35.94" gradientUnits="userSpaceOnUse"><stop stop-color="#E4BD5C"/><stop offset="1" stop-color="#8E6126"/></linearGradient><linearGradient id="e" x1="32.27" y1="32.91" x2="32.87" y2="35.93" gradientUnits="userSpaceOnUse"><stop stop-color="#D7AD59"/><stop offset="1" stop-color="#7A5908"/></linearGradient></defs></svg>