<!-- by TradingView --><svg width="56" height="56" viewBox="0 0 56 56" fill="none" xmlns="http://www.w3.org/2000/svg">
<rect width="56" height="56" fill="#F0F3FA"/>
<path d="M8.9375 22C8.11391 22 7 22 7 22V34.4576C7 35.3095 7.72533 36 8.62007 36H12V25.9979C12 23.875 13.2342 23 14.5625 23C16.0813 23 17 24.0602 17 25.9979V34.4598C17 35.3116 17.6989 36 18.5936 36H22V25.9979C22 23.8665 23.2472 22.9751 24.5938 23C25.9103 23.0243 27 23.7696 27 25.9979V34.4598C27 35.3116 27.5703 36 28.4651 36H31.375C33.6654 36 35.2913 35.102 35.875 32.9712C36.4587 30.8404 37.8125 29.3438 37.8125 29.3438C37.8125 29.3438 36.2812 29.0469 36 27.2812C36.886 27.8596 38.5 28.7648 39.5989 27.9826C41.0165 26.9736 40.3438 25.0156 39.2344 25.0156C38.7031 25.0156 38.2766 25.4403 38.4 25.9101C38.5772 26.5848 39.4217 26.2956 39.4217 26.2956C39.4217 26.2956 39.5066 27 38.4688 27C37.9587 27 37.3032 26.4901 37.3 25.7896C37.2956 24.82 38.1881 24 39.3433 24C41.2812 24 42.2792 25.9548 41.9688 27.625C42.7681 27.5668 43.4884 27.6716 44 28.25C44 28.25 42.3281 27.9826 42.1562 29C43 29.2188 45 29.6908 45 32.2241C45 33.8388 43.7538 35 42.3281 35C41.1823 35 40 34.4531 40 33.1399C40 32.6094 40.3281 32 41.0165 32C41.7048 32 41.8926 32.6104 41.7253 32.9712C41.6118 33.2159 41.0165 33.2188 41.0165 33.2188C41.4531 33.9062 43 33.6026 43 32.3325C43 31.0625 42.1406 30.5 41.0165 30.5C39.447 30.5 38.5 31.8811 38.5 33.2188C38.5 34.5564 39.5989 36 42.1562 36H50L42.3 19.0775H37.7L32 31.0625V25.1871C32 20.1875 28.1031 19 25.8643 19C21.5625 19 20.3691 22.25 20.3691 22.25C20.3691 22.25 19.3125 19 15.1875 19C10.625 19 10.25 22 8.9375 22Z" fill="#EC1C2A"/>
</svg>
