<!-- by TradingView --><svg width="56" height="56" viewBox="0 0 56 56" xmlns="http://www.w3.org/2000/svg"><path fill="#F0F3FA" d="M0 0h56v56H0z"/><path d="m17.3 19.2 5.36-7.72a3.47 3.47 0 0 1 4.7-.94 6 6 0 0 1 1.37 1.51l2.99 4.23c.1.16.08.29-.09.39-.1.05-.2.06-.3 0-.88-.43-1.61-.22-2.2.63a1927.96 1927.96 0 0 1-10 14.47 3.47 3.47 0 0 1-4.71.93 5.94 5.94 0 0 1-1.37-1.5l-2.99-4.24c-.1-.15-.08-.28.1-.38.09-.06.19-.06.29-.01.88.44 1.62.23 2.2-.62l4.65-6.74Z" fill="#36B6AF"/><path d="M31.37 33.8 26 41.53a3.47 3.47 0 0 1-4.7.93 6 6 0 0 1-1.37-1.51l-3-4.23c-.1-.16-.07-.29.1-.39.1-.05.19-.06.3 0 .87.43 1.6.22 2.2-.63a6880.84 6880.84 0 0 1 10.02-14.47 3.47 3.47 0 0 1 4.7-.93 6 6 0 0 1 1.36 1.51l2.99 4.23c.1.16.08.29-.1.39-.09.05-.19.06-.29 0-.88-.43-1.61-.23-2.2.63l-4.65 6.74Z" fill="#3DA76A"/><path d="M44.87 29.13c.41-.05.72.01.92.17.17.14.24.4.2.76-.7 7.25-4.92 13.05-12.93 12.9a.56.56 0 0 1-.37-.14.54.54 0 0 1-.16-.36c-.1-1.4.05-2.8.42-4.17 1.58-5.8 6.06-8.53 11.92-9.16Z" fill="#95C347"/></svg>