<!-- by TradingView --><svg width="56" height="56" viewBox="0 0 56 56" xmlns="http://www.w3.org/2000/svg"><path fill="#F0F3FA" d="M0 0h56v56H0z"/><path d="m28.44 22.9-.03-.01A42.44 42.44 0 0 1 40.37 19c.05-.02.1 0 .13.03l1.61 1.63a.03.03 0 0 1 0 .05h-.02c-4.65-.02-9.2.7-13.65 2.18Z" fill="#EB2427"/><path d="M22.02 27.1A41.3 41.3 0 0 1 52 23.23a.03.03 0 0 1-.01.03l-3.73 2.3a.17.17 0 0 1-.14.02 39.83 39.83 0 0 0-26.09 1.53c-.2.08-.2.07-.01-.03Z" fill="#282560"/><path d="m17.9 33.08-.15.73c-.03.12-.1.19-.23.19h-1.08c-.13 0-.19-.07-.16-.2l1.69-7.73c0-.05.04-.07.1-.07h1.47a.06.06 0 0 1 .04.02.05.05 0 0 1 .01.05l-.52 2.38c-.02.13.02.15.12.07 1.36-1 3.34-.5 3.56 1.31.1.85-.02 1.65-.36 2.4-.4.9-1.3 1.66-2.3 1.76a2.19 2.19 0 0 1-2.09-.93c-.05-.06-.08-.05-.1.02Zm1.4-.27c.18.05.36.04.54 0 .19-.06.37-.16.54-.3.17-.14.32-.32.45-.52s.23-.44.3-.68c.14-.49.14-1 0-1.4-.15-.4-.42-.69-.76-.78a1.02 1.02 0 0 0-.54.01c-.18.06-.37.15-.54.3-.16.13-.32.31-.45.52-.13.2-.23.43-.3.68-.14.48-.14.99 0 1.4.15.4.42.68.77.77ZM8.65 28.66c-.03.14.01.16.12.06.87-.8 2.68-1.18 3.2.2.03.06.06.07.1.03a2.64 2.64 0 0 1 2.12-.93c.82.02 1.4.49 1.42 1.3 0 .1-.03.33-.09.66-.1.56-.37 1.87-.82 3.94-.01.05-.05.08-.1.08h-1.44c-.06 0-.09-.03-.08-.1l.84-3.91c.11-.51 0-.93-.64-.85-.98.12-1.34 1.14-1.53 1.98a145.2 145.2 0 0 0-.59 2.81c0 .05-.03.07-.08.07H9.6c-.05 0-.06-.03-.05-.1l.84-3.98c.1-.41-.06-.77-.53-.78-.8-.02-1.34.73-1.5 1.41a95.5 95.5 0 0 0-.73 3.37c-.01.05-.05.08-.1.08H6.06a.06.06 0 0 1-.06-.04v-.03l1.2-5.63c.02-.1.09-.16.2-.16h1.22c.1 0 .14.05.12.14l-.09.38ZM26.83 31.82c-.74-.24-1.26-.42-1.57-.54-.38-.14-.65-.3-.8-.46a1.42 1.42 0 0 1-.17-1.78c.74-1.11 2.58-1.2 3.72-.86.57.17.97.53 1.2 1.09.07.16.02.25-.15.27L28 29.7c-.17.03-.3-.03-.36-.19-.23-.5-1.42-.54-1.85-.28-.45.29-.18.7.25.83 1.03.32 2.9.6 2.8 2.05-.08 1.01-1 1.68-2.03 1.83-1.51.21-3.07-.09-3.66-1.64v-.01a.04.04 0 0 1 .01-.03h.02l1.48-.23h.03l.03.03c.4.8 1.11 1.03 2.12.67.47-.17.49-.74-.02-.9ZM33.27 32.73c.47-.17.5-.74-.01-.9-.74-.25-1.27-.43-1.58-.55-.38-.14-.64-.3-.8-.46a1.42 1.42 0 0 1-.17-1.78c.74-1.11 2.59-1.2 3.73-.86.56.17.97.53 1.2 1.09.07.16.01.25-.16.27l-1.04.16c-.18.03-.3-.03-.37-.19-.23-.5-1.42-.54-1.84-.28-.46.29-.18.7.24.83 1.04.32 2.9.6 2.8 2.05-.07 1.01-1 1.68-2.03 1.83-1.5.21-3.06-.09-3.66-1.64a.04.04 0 0 1 0-.03.04.04 0 0 1 .03-.02l1.48-.22h.04l.02.03c.41.8 1.12 1.03 2.12.67Z" fill="#161717"/></svg>