<!-- by TradingView --><svg width="56" height="56" viewBox="0 0 56 56" xmlns="http://www.w3.org/2000/svg"><path fill="#F0F3FA" d="M0 0h56v56H0z"/><path d="M24 22.19c0 .06.07.06.1.02 1.07-1.37 2.1-2.62 3.83-3.18a.05.05 0 0 1 .05 0 .05.05 0 0 1 .02.05v6.87l-.01.03-.03.02h-.94l-.02-.02v-1.92c0-.02-.02-.03-.03-.04a.06.06 0 0 0-.04-.02h-2.8c-.02 0-.13.03-.13.06v1.86c0 .05.03.08-.02.08h-.93l-.02-.02-.03-.02v-8.51a.1.1 0 0 0-.07 0C20.74 18.25 21 21.02 21 23H20v-2.2c.01-.23 0-.57-.03-1.01-.1-1.04-.93-1.88-1.85-2.33a.04.04 0 0 0-.03 0l-.01.02-.08.01V35.1c0 .06 0 .07-.05.04l-.87-.5a.14.14 0 0 1-.08-.13v-18.5h.01a4.2 4.2 0 0 1 3.49 2.4.03.03 0 0 0 .03-.02A4.38 4.38 0 0 1 23.95 16c.07 0 .05.1.05.16v6.03Zm3-1.54s-1.59 1.44-1.96 2.3a.04.04 0 0 0 0 .03l.02.01H27v-2.34ZM29.56 23.2l-.02.01a.03.03 0 0 0-.02.03c-.1.9-.02 1.9-.04 2.72 0 0 0 .02-.02.03l-.03.01h-1l-.03-.01v-6.88c0-.02 0-.04.03-.04a4.26 4.26 0 0 1 2.1.14c1.34.47 1.84 1.63 1.45 2.9a1.86 1.86 0 0 1-.53.8.07.07 0 0 0 0 .07l.02.02c.9.82 1.5 1.72 1.5 2.96l-.02.03h-1.02c-.04 0-.06-.01-.06-.05-.12-1.45-.89-2.36-2.3-2.73Zm-.1-3.02.03 2.5c0 .03.02.06.04.08.02.02.05.03.09.03h.07a1.23 1.23 0 0 0 .88-.38 1.3 1.3 0 0 0 .37-.92v-.15c0-.34-.15-.67-.38-.9a1.25 1.25 0 0 0-.9-.38h-.07a.13.13 0 0 0-.09.04.12.12 0 0 0-.03.08ZM33.45 20h-1.21l-.02-.04v-.89l.02-.05a.07.07 0 0 1 .05-.02h3.39c.02 0 .03.01.03.03v.93c0 .03-.01.04-.04.04h-1.11v5.96l-.01.03-.03.01h-1l-.03-.01-.01-.02V20l-.03-.01ZM36 26v-7h1v7h-1ZM38.63 21.06v4.89l-.01.03a.05.05 0 0 1-.04.02h-.92l-.02-.01-.01-.02V19h.03c1.73.45 3.11 1.5 4 2.89.05.06.09 0 .1-.06l-.04-2.73a.1.1 0 0 1 .03-.08.12.12 0 0 1 .09-.03h.96l.02.03v6.91l-.02.04a.07.07 0 0 1-.05.02h-1.07c-.02 0-.03 0-.05-.02a6.15 6.15 0 0 0-2.9-5.02c-.04-.02-.1.06-.1.1ZM44 24v1.95l-.02.02-.01.02h-.93c-.03 0-.04 0-.04-.03V19.02l.02-.01a.05.05 0 0 1 .04 0c3.3 1.12 4.63 3.87 4.94 6.96V26h-.02V26h-1.04c-.02 0-.04-.01-.04-.04-.02-.55-.13-1.38-.27-1.96H44Zm2.15-1.07c-.36-.87-1.36-1.6-2.1-2.05l-.02-.01c-.04 0-.03.02-.03.04v2.05l.03.03.04.01h2.02c.06 0 .08-.02.06-.07ZM11.8 24.6v1.39l-.02.01h-.75c-.02 0-.03 0-.03-.03v-4.9c0-.04.02-.06.05-.06h1.23c1.6 0 1.94 2 1.18 3-.36.47-.9.65-1.61.55-.03 0-.05 0-.05.04Zm0-2.71v1.76c0 .02.02.04.03.05l.06.03h.18a.87.87 0 0 0 .63-.27.91.91 0 0 0 .26-.65v-.09c0-.24-.1-.47-.26-.64a.88.88 0 0 0-.63-.27h-.19c-.02 0-.04.01-.05.03a.07.07 0 0 0-.03.05Z" fill="#BB8934"/><path d="M14.7 21.74h-.79a.13.13 0 0 1-.09-.03.11.11 0 0 1-.03-.08v-.54c0-.06.03-.09.1-.09h2.72v.73l-.02.01h-.93c-.04 0-.06.02-.06.05-.1 1.39-.05 2.8-.05 4.16l-.01.04-.03.01h-.71l-.03-.01-.02-.03v-4.17c0-.03-.02-.05-.05-.05ZM15.93 25.33c-.16.18-.15.43.01.57.17.14.42.1.58-.07.16-.18.15-.44-.01-.57-.17-.14-.42-.11-.58.07ZM12.55 25.97c.23 0 .42-.16.42-.36 0-.2-.18-.37-.41-.37-.23 0-.42.16-.42.36 0 .2.18.36.41.37ZM43.97 30.46a4 4 0 0 1-3.46 4.5 3.98 3.98 0 0 1-2.5-7.42 4.03 4.03 0 0 1 4.43.28c.84.64 1.4 1.6 1.53 2.64ZM37 31a3 3 0 1 0 6-.09c0-1.76-1.52-2.87-2.93-2.9A3 3 0 0 0 37 30.99ZM25.68 34.83h-.03a.04.04 0 0 0-.02.04 5.51 5.51 0 0 1-5.38 6.12h-.73a5.5 5.5 0 0 1-5.51-5.8 6.93 6.93 0 0 1 .42-2.12.06.06 0 0 1 .05 0c.38.16.73.38 1.06.65a.14.14 0 0 1 .05.16c-.94 3.17 1.26 6.12 4.66 5.78a4.18 4.18 0 0 0 3.1-1.76c1.4-1.93 1.12-4.43-.97-5.8a7.03 7.03 0 0 0-1.93-.8.05.05 0 0 1 0-.04c.08-.22.2-.35.4-.5.29-.23.51-.37.6-.69.43-1.39-.82-2.5-2.07-2.34-.04 0-.05.02-.05.05v8.13c0 .06-.03.08-.08.04l-.98-.55a.16.16 0 0 1-.09-.15V26.6l.02-.02c1.85-.18 4.58.4 4.5 2.92-.01.27-.13.62-.2.9v.07l.02.12c.02.06.05.11.1.16.04.05.07.04.08-.02.56-2.73 2.5-3.91 5.27-3.72h.02l.01.03v1.06c0 .05-.03.07-.08.06-1.64-.2-3.25.45-3.81 2.06v.02a.04.04 0 0 0 .02.03l.01.03H27v1h-2.89c-.03 0-.05.02-.04.05.32 1.62 1.62 2.53 3.21 2.52h.66c.03 0 .06.01.06.03v1.07c0 .03-.01.05-.05.05a8.36 8.36 0 0 1-2.27-.19ZM29.7 31.9a.03.03 0 0 0-.02 0h-.01v.02c-.1.99-.04 2.26-.05 3.02 0 .04-.01.06-.05.06h-.99l-.01-.01V27.08c0-.03 0-.05.03-.05a7.24 7.24 0 0 1 1.9.06 1.9 1.9 0 0 1 1.44 1.24 3.2 3.2 0 0 1-.33 3.11c-.03.03-.02.06 0 .09l.45.45a4 4 0 0 1 .95 3.01l-.02.01h-.93c-.03 0-.05-.01-.05-.04-.25-1.53-.9-2.63-2.31-3.07Zm-.08-3.63v2.94c0 .02 0 .04.02.05.01.02.03.03.05.03h.08a1 1 0 0 0 .46-.11c.14-.08.27-.18.38-.32.11-.13.2-.3.26-.47.06-.17.09-.36.09-.55v-.2c0-.38-.13-.75-.35-1.02a1.09 1.09 0 0 0-.84-.42h-.11a.07.07 0 0 0-.04.05v.02Z" fill="#BB8934"/><path d="M34 28h-1.32c-.03 0-.05.01-.05-.02a3.48 3.48 0 0 1 .02-.96.06.06 0 0 1 .04-.02h3.54c.03 0 .04.01.04.04V28c0 .01.01 0 0 0 0 0 .01 0 0 0H35v7h-1v-7Z" fill="#BB8934"/><path d="M5.06 27.14c.98 1.51 2.91 2.46 4.6 3.03.48.16.81.3 1.02.43a5.77 5.77 0 0 1 2.45 4.53.2.2 0 0 1-.16.2c-1.24.3-2.49.18-3.72-.35a4 4 0 0 1-1.68-1.3c-.5-.69-.92-1.42-1.25-2.2-.57-1.35-1-2.83-1.32-4.44 0-.05 0-.06.05-.03v.05l.01.08Zm3.43 5.2a8.98 8.98 0 0 1-1.97-2.24 15.83 15.83 0 0 1-1.24-2.28l-.01.02a11.6 11.6 0 0 0 2.49 4.06c.3.32.74.68 1.3 1.1 1.19.85 2.4 1.6 3.66 2.22.09.04.16.06.22.06a.02.02 0 0 0 .02-.02.02.02 0 0 0-.01-.02 6.53 6.53 0 0 1-.75-.35c-.75-.45-1.27-.86-2.33-1.6-.25-.19-.49-.34-.7-.46a6.4 6.4 0 0 1-.68-.48Z" fill="#73BB4F"/><path d="M7.92 37.38a.03.03 0 0 1-.02-.04c.27-.43.54-.92.86-1.28A.2.2 0 0 1 8.9 36h4.5a.08.08 0 0 1 .08.06l.3 1.27a.04.04 0 0 1-.03.05H7.92ZM16.3 37.38c-.03 0-.05 0-.07-.02a.15.15 0 0 1-.06-.06c-.19-.34-.45-.82-.39-1.24l.03-.04a.08.08 0 0 1 .05-.02h7.74a.08.08 0 0 1 .06.03l.01.03v.03c-.09.44-.26.86-.5 1.25a.08.08 0 0 1-.07.04h-6.8ZM49 36.05a4.9 4.9 0 0 1-.7 1.08c-.1.12-.12.25-.32.25h-22.2c-.13 0-.18-.06-.15-.19l.33-1.15.02-.03.03-.01h22.95a.04.04 0 0 1 .03.02l.01.02v.01Z" fill="#BB8934"/></svg>