<!-- by TradingView --><svg width="56" height="56" viewBox="0 0 56 56" fill="none" xmlns="http://www.w3.org/2000/svg">
<rect width="56" height="56" fill="#F0F3FA"/>
<path d="M28.1534 27.0656L16.715 27.5L11.4422 23.6292C11.1434 23.413 10.9997 23.1204 11 22.8299C11.0003 22.4573 11.2374 22.0882 11.6877 21.8883L17.6035 19.2623C18.0318 19.0723 18.5033 18.9987 18.9681 19C19.6031 18.9987 20.2254 19.2216 20.7068 19.596L28.7281 25.8353C28.9281 25.9909 29.0008 26.1886 29 26.3799C29.0008 26.7251 28.6531 27.0491 28.1534 27.0656Z" fill="#3F326F"/>
<path d="M33.9596 11.7721L31.2833 24.0009C31.1666 24.6191 30.6406 24.9988 30.0938 25C29.8241 25.0006 29.5495 24.9092 29.3162 24.7091L21.7122 17.8693C21.2502 17.4729 20.9992 16.9241 21 16.3741C20.9992 15.7066 21.2878 15.0375 21.9064 14.6369C23.0091 13.923 24.3501 13.0824 25.5176 12.4296C27.1675 11.507 28.9671 10.7827 30.9084 10.2257C31.4368 10.0741 31.9238 9.99827 32.3476 10C33.3168 10.0041 34.002 10.4141 33.9995 11.2519C34.002 11.41 33.9952 11.5834 33.9596 11.7721Z" fill="#E2322D"/>
<path d="M42.6805 19.3618L33.8266 25.8953C33.7207 25.9735 33.5927 26.0005 33.4693 26C33.2255 26.0005 33 25.8347 33 25.6073V20.8313C33 20.3005 33.4457 19.8353 34.0881 19.6956L41.7431 18.0306C41.8486 18.0077 41.95 17.9982 42.0465 18.0003C42.6098 17.9994 43.0009 18.4172 43 18.8316C43.001 19.0181 42.8909 19.2065 42.6805 19.3618Z" fill="#3F326F"/>
<path d="M28.1534 28.9344L16.715 28.5L11.4422 32.3708C11.1434 32.587 10.9997 32.8796 11 33.1701C11.0003 33.5427 11.2374 33.9118 11.6877 34.1117L17.6035 36.7377C18.0318 36.9277 18.5033 37.0013 18.9681 37C19.6031 37.0013 20.2254 36.7784 20.7068 36.404L28.7281 30.1647C28.9281 30.0091 29.0008 29.8114 29 29.6201C29.0008 29.2749 28.6531 28.9509 28.1534 28.9344Z" fill="#3F326F"/>
<path d="M33.9596 44.2279L31.2833 31.9991C31.1666 31.3809 30.6406 31.0012 30.0938 31C29.8241 30.9994 29.5495 31.0908 29.3162 31.2909L21.7122 38.1307C21.2502 38.5271 20.9992 39.0759 21 39.6259C20.9992 40.2934 21.2878 40.9625 21.9064 41.3631C23.0091 42.077 24.3501 42.9176 25.5176 43.5704C27.1675 44.493 28.9671 45.2173 30.9084 45.7743C31.4368 45.9259 31.9238 46.0017 32.3476 46C33.3168 45.9959 34.002 45.5859 33.9995 44.7481C34.002 44.59 33.9952 44.4166 33.9596 44.2279Z" fill="#E2322D"/>
<path d="M42.6805 36.6382L33.8266 30.1047C33.7207 30.0265 33.5927 29.9995 33.4693 30C33.2255 29.9995 33 30.1653 33 30.3927V35.1687C33 35.6995 33.4457 36.1647 34.0881 36.3044L41.7431 37.9694C41.8486 37.9923 41.95 38.0018 42.0465 37.9997C42.6098 38.0006 43.0009 37.5828 43 37.1684C43.001 36.9819 42.8909 36.7935 42.6805 36.6382Z" fill="#E2322D"/>
</svg>
