<!-- by TradingView --><svg width="56" height="56" viewBox="0 0 56 56" xmlns="http://www.w3.org/2000/svg"><path fill="#F0F3FA" d="M0 0h56v56H0z"/><path d="M36.52 13c6.67 0 7.73 10.18 7.44 15.27 0 .43.2 14.73-8.04 14.73-3.16 0-7.65-2.24-11.54-4.74-4.82-3.09-8.78-5.86-8.78-9.91s4.16-7.57 9.24-10.88c3.8-2.49 8.1-4.47 11.68-4.47Z" fill="url(#a)"/><path d="M19.48 13c-6.67 0-7.74 10.18-7.44 15.27 0 .43-.2 14.73 8.04 14.73 3.16 0 7.65-2.24 11.54-4.74 4.82-3.09 8.78-5.86 8.78-9.91s-4.16-7.57-9.24-10.88c-3.8-2.49-8.1-4.47-11.68-4.47Z" fill="url(#b)"/><path d="M17 29.58v-2.45c0-.62.56-1.13 1.24-1.13h1.96c.3 0 .58.1.8.27.22-.17.5-.27.8-.27h1.96c.68 0 1.24.5 1.24 1.13v2.47c0 .22-.2.4-.44.4-.25 0-.44-.18-.44-.4v-2.38c0-.27-.25-.5-.56-.5h-1.53c-.3 0-.55.23-.55.5v2.36c0 .23-.2.42-.46.42H21c-.24 0-.44-.18-.44-.4v-2.38c0-.27-.25-.5-.55-.5h-1.54c-.3 0-.55.23-.55.5v2.36c0 .23-.2.42-.46.42-.25 0-.46-.19-.46-.42ZM30.33 24.42v1.55h-2.87c-.79 0-1.42.57-1.42 1.27v1.49c0 .7.63 1.27 1.42 1.27h2.4c.77 0 1.4-.57 1.4-1.27v-4.3c0-.24-.2-.43-.46-.43s-.47.19-.47.42Zm.04 2.3v1.95c0 .28-.25.5-.56.5h-2.34c-.31 0-.57-.22-.57-.5v-1.44c0-.28.26-.5.57-.5h2.9ZM32.6 24c-.22 0-.4.19-.4.43v.14c0 .24.18.43.4.43.22 0 .4-.19.4-.43v-.14c0-.24-.18-.43-.4-.43Zm0 2c-.22 0-.4.2-.4.45v3.1c0 .25.18.45.4.45.22 0 .4-.2.4-.45v-3.1c0-.25-.18-.45-.4-.45ZM34.51 26.82h3.24c.22 0 .4.17.4.38v.24h-2.83A1.3 1.3 0 0 0 34 28.7v.04c0 .7.59 1.26 1.32 1.26h2.36A1.3 1.3 0 0 0 39 28.74v-1.48c0-.7-.59-1.26-1.32-1.26h-3.17a.42.42 0 0 0-.43.41c0 .23.2.41.43.41Zm3.69 1.38v.5c0 .29-.24.51-.53.51h-2.25a.52.52 0 0 1-.53-.5c0-.29.24-.51.53-.51h2.78Z" fill="#FDFFFE"/><defs><linearGradient id="a" x1="26.94" y1="21.08" x2="41.16" y2="27.04" gradientUnits="userSpaceOnUse"><stop stop-color="#9B1D20"/><stop offset="1" stop-color="#BD2124"/></linearGradient><linearGradient id="b" x1="26.2" y1="13" x2="34.81" y2="30.3" gradientUnits="userSpaceOnUse"><stop stop-color="#DE2429"/><stop offset="1" stop-color="#9B1D20"/></linearGradient></defs></svg>