<!-- by TradingView --><svg width="56" height="56" viewBox="0 0 56 56" xmlns="http://www.w3.org/2000/svg"><path fill="#F0F3FA" d="M0 0h56v56H0z"/><path d="M50 28.8c-.13 0-.25.02-.37.04l1.44-2.2.02-.03a5.8 5.8 0 0 1 .3-.47l.02-.02.07-.05a1.13 1.13 0 0 0 .48-1.25 1.08 1.08 0 0 0-1.04-.82H49c-.3 0-.6.14-.8.38a1.14 1.14 0 0 0-.26.93l-.01.02a.62.62 0 0 1-.07.12l-.28.43-.24-.37-.15-.23-.03-.07-.01-.07v-.02c0-.3-.11-.58-.32-.79-.2-.2-.47-.33-.76-.33H42.5c-.2 0-.4.07-.56.17-.16-.1-.35-.17-.55-.17h-3.3c-.41 0-.8.27-.97.65a1.15 1.15 0 0 0 .14 1.19c.01.04.04.13.05.3v2.8a1.99 1.99 0 0 0-.92-.1v-1.78c0-.41-.04-.8-.15-1.16-.1-.36-.28-.71-.56-1a3.26 3.26 0 0 0-2.17-.9h-5.88c-.42 0-.8.28-.98.67a1.15 1.15 0 0 0 .14 1.18v.02c.02.03.05.13.05.3v1.6a3.24 3.24 0 0 0-1.88 0v-1.24c0-.36-.06-.71-.2-1.05a2.23 2.23 0 0 0-.65-.87 3.29 3.29 0 0 0-2.11-.61h-5.85c-.18 0-.35.1-.5.18-.15-.08-.33-.18-.5-.18h-3.65c-.45 0-.85.35-1.01.79l-.37 1-.36-1C9.6 24.35 9.2 24 8.74 24H5.09c-.42 0-.8.32-.98.7-.07.16-.1.32-.1.48 0 .26.08.5.24.7v.02c.02.03.05.13.05.3v4.67a1.12 1.12 0 0 1-.06.31 1.14 1.14 0 0 0-.14 1.19c.18.39.56.63.98.63h1.77c.28 0 .55-.12.75-.32.2.2.47.32.76.32h1.92c.3 0 .57-.13.77-.35.2.22.48.35.77.35h3.3c.18 0 .35-.06.5-.14.15.08.32.14.5.14h3.3c.36 0 .7-.2.9-.51.2.3.53.51.89.51h3.12c.24 0 .46-.1.64-.25a1.95 1.95 0 0 0 1.91-.07c.2.19.45.32.72.32h5.87a3.35 3.35 0 0 0 1.81-.59 1.95 1.95 0 0 0 2.2.36c.17.12.38.23.6.23h3.3c.29 0 .57-.17.77-.39a1.95 1.95 0 0 0 2.14.03c.2.2.46.36.75.36h3.3c.25 0 .5-.15.69-.32.28.17.61.26.96.26 1.1 0 2-.93 2-2.07 0-1.14-.89-2.06-2-2.06m-6.74 0c-.4 0-.78.13-1.09.34v-2.66l.22.32v.01l1.38 2.06a2.02 2.02 0 0 0-.51-.06" fill="#231F20"/><path d="M50 29.22c-.53 0-.99.26-1.28.66v-.4l2.01-3.07.02-.02c.17-.29.3-.48.34-.53.03-.04.09-.09.18-.15a.71.71 0 0 0 .3-.78.68.68 0 0 0-.65-.52h-1.91a.7.7 0 0 0-.51.24.72.72 0 0 0-.17.55l.01.1v.02c0 .05-.02.17-.14.36l-.62.93-.57-.87c-.14-.2-.22-.35-.23-.4a.64.64 0 0 1-.03-.22.71.71 0 0 0-.2-.5.68.68 0 0 0-.48-.2H42.5a.67.67 0 0 0-.55.3.67.67 0 0 0-.56-.3l-3.3.01c-.25 0-.5.16-.6.4a.72.72 0 0 0 .08.74c.06.07.13.24.14.56v3.52a1.55 1.55 0 0 0-1.72-.26v-2.33c0-.38-.04-.72-.13-1.04-.1-.3-.24-.6-.47-.83a2.33 2.33 0 0 0-.86-.56c-.33-.13-.68-.2-1.03-.2l-5.88.02c-.26 0-.5.15-.6.4a.72.72 0 0 0 .08.74c.05.07.13.23.14.56v2.23a2.87 2.87 0 0 0-2.69 0v-1.86c0-.3-.06-.6-.17-.88-.12-.28-.3-.53-.53-.71-.23-.2-.52-.33-.81-.4-.3-.06-.62-.08-1.05-.08l-5.85.01c-.2 0-.38.09-.5.23a.66.66 0 0 0-.5-.23h-3.65a.68.68 0 0 0-.64.46l-.75 2.06-.73-2.05a.67.67 0 0 0-.63-.46H5.08c-.26 0-.5.16-.61.4a.71.71 0 0 0 .09.75c.05.07.13.23.14.56v4.69c-.02.33-.1.5-.15.57-.16.2-.2.5-.09.74.11.24.35.4.61.4h1.77c.26 0 .64-.2.75-.44.1.28.48.43.76.43h1.92c.28 0 .69-.16.78-.43.11.24.5.43.77.43h3.3c.19 0 .37-.1.5-.24.12.14.3.23.5.23h3.3c.26 0 .5-.16.6-.4.03-.07.1-.2.16-.2h.26c.07 0 .15.18.15.18.1.25.35.41.62.41h3.12c.24 0 .45-.13.58-.33a1.55 1.55 0 0 0 2.06-.13c0 .02 0 .04.02.06.1.24.35.4.6.4l5.88-.01c.35 0 .7-.07 1.03-.2.31-.11.6-.28.82-.51a1.57 1.57 0 0 0 2.2.42c.14.18.33.28.55.28h3.3a.68.68 0 0 0 .66-.57 1.57 1.57 0 0 0 2.35.07l.04.09c.1.24.35.4.61.4h3.3c.26 0 .5-.16.61-.4.28.25.65.4 1.05.4.88 0 1.6-.74 1.6-1.66 0-.91-.72-1.65-1.6-1.64m-5.33.88c-.27-.52-.8-.87-1.4-.87a1.6 1.6 0 0 0-1.5 1.06v-4.15c.01-.35.1-.51.14-.56l.04-.05.07.09c.16.17.4.5.7.96l.01.01 1.94 2.9v.61Z" fill="#FFF200"/><path d="m10.25 29 1.4-4h3.64c-.18.23-.28.58-.29 1.03v4.92c.01.46.1.8.28 1.04h-3.3c.2-.23.29-.58.3-1.03v-4.29L10.45 32H8.52l-1.8-5.3v4.28c0 .45.1.8.29 1.03H5.24c.19-.24.29-.59.3-1.03v-4.92c0-.45-.1-.8-.29-1.04H8.9l1.35 3.98ZM19.86 29H19v1.96c.01.46.14.8.32 1.04h-3.3c.19-.24.29-.59.3-1.04v-4.92c0-.44-.1-.8-.29-1.03l5.85-.01c.4 0 .7.02.9.07.21.05.4.14.54.27.29.25.44.62.45 1.1v1.51c0 .32-.04.55-.13.7-.15.24-.4.37-.74.37l-.18-.01.97 2.03c.17.36.35.69.55.96H21.1l-1.25-3ZM19 28h1.54c.44 0 .46-.32.46-.75v-.35c0-.53.03-.9-.53-.9H19v2ZM27.71 32c.19-.24.28-.59.29-1.04v-4.92a1.8 1.8 0 0 0-.28-1.03l5.8-.01c.26 0 .52.05.77.15.26.1.46.24.62.42.26.27.39.75.4 1.43v2.98c-.02.68-.15 1.16-.4 1.44-.16.17-.36.31-.62.41-.25.1-.52.16-.79.16h-5.79V32Zm2.96-1h1.27c.55 0 .7-.54.7-.98v-3.05c0-.44-.14-.98-.7-.97h-1.26v5ZM41.3 32h-3.29c.19-.24.29-.59.3-1.04v-4.92c0-.45-.1-.8-.3-1.04h3.3c-.18.23-.3.58-.31 1.04v4.92c.01.46.13.8.31 1.04M47.59 27.86l1.17-1.87c.17-.27.26-.53.26-.77 0-.05 0-.12-.02-.22h1.92c-.14.09-.26.2-.34.3a5.9 5.9 0 0 0-.4.64L48 29.34v1.62c.01.46.15.8.34 1.04h-3.3c.18-.23.28-.58.3-1.04v-1.62l-2.06-3.22c-.31-.5-.58-.88-.8-1.11h3.59c0 .19.03.35.08.49s.15.33.3.56l1.13 1.8ZM26.8 30.9c0 .53-.42.96-.92.96a.93.93 0 0 1-.92-.95c0-.53.4-.95.92-.95.5 0 .92.42.92.95M37.57 30.89c0 .52-.42.95-.93.95a.94.94 0 0 1-.92-.95c0-.53.42-.95.93-.95.5 0 .92.42.92.95ZM44.17 30.88c0 .52-.41.95-.92.95a.93.93 0 0 1-.92-.95c0-.53.41-.95.92-.95.5 0 .92.42.92.95ZM50.92 30.87c0 .53-.42.95-.93.95a.94.94 0 0 1-.92-.95c0-.52.42-.95.93-.95.5 0 .92.43.91.95" fill="#ED1C24"/><path d="M26.65 29.54v-.65c0-.47-.7-.34-.94-.34-.39 0-.47.24-.47.57v1.79c0 .6 1.4.56 1.4 0v-1.37" fill="#939598"/><path d="M26.79 31.04c-.12.5-.93.57-1.3.4-.37-.16-.39-.33-.39-.7v-1.42c0-.22-.06-.62.13-.78.29-.23.72-.14 1.06-.14.3 0 .5.2.5.51v2.14Zm-.14-1.5v-.65c0-.47-.7-.34-.94-.34-.39 0-.47.24-.47.57v1.79c0 .6 1.4.56 1.4 0v-1.37" fill="#231F20"/><path d="M26.89 27.57a2.8 2.8 0 0 0-1-.17c-.38 0-.77.05-1.11.22-.19.09-.49.26-.48.52.02.3.34.47.58.56.32.12.66.17 1 .17.37 0 .76-.05 1.1-.22.21-.1.5-.25.48-.52-.02-.3-.34-.47-.58-.56" fill="#939598"/><path d="M26.98 28.32c-.33.17-.73.21-1.1.22a2.8 2.8 0 0 1-1-.17c-.2-.07-.44-.2-.54-.4a.32.32 0 0 0-.03.17c.01.3.33.47.57.56.32.12.66.17 1 .17.37 0 .77-.05 1.1-.22.21-.1.5-.25.48-.52 0-.05-.02-.1-.04-.15-.08.16-.28.27-.43.35" fill="#BCBEC0"/><path d="m26.77 28.12-.5-.33.34-.13c.03-.01.03-.06 0-.07-.1-.02-.25-.09-.34-.06l-.39.1c-.07.02-.29-.07-.38-.1-.1-.02-.25.05-.34.07-.04 0-.03.05 0 .06l.33.13-.5.33c-.02.01-.02.05 0 .06.1.04.24.16.34.12l.56-.2a22.96 22.96 0 0 0 .52.19c.12.04.24-.06.36-.11.02-.01.02-.05 0-.06m-1.27-.52c.1.03.24.1.35.1v.33a.83.83 0 0 0-.24.08v-.33c0-.02 0-.02-.02-.03l-.3-.12a.51.51 0 0 1 .21-.03m-.22.63-.2-.09.46-.3v.3l-.1.04c-.07.03-.14.06-.16.05m.64-.2v-.33c.1-.01.23-.07.33-.1.06-.01.15.01.23.03l-.3.11v.01c-.01 0-.02.01-.02.03v.33a.88.88 0 0 0-.24-.08Zm.45.17-.14-.06v-.3l.45.3-.16.07c-.06.03-.06.02-.15-.02" fill="#231F20"/><path d="m26.37 28.2-.14-.06v-.3l.45.3-.16.07c-.06.03-.06.02-.15-.02M25.5 27.6c.1.03.24.1.35.1v.33a.84.84 0 0 0-.24.08v-.33c0-.02 0-.02-.02-.03l-.3-.12c.08-.02.16-.04.21-.03" fill="#939598"/><path d="m25.28 28.23-.2-.09.46-.3v.3l-.1.04c-.07.03-.14.06-.16.05M25.92 28.03v-.33c.1-.01.23-.07.33-.1.06-.01.15.01.23.03l-.3.11v.01c-.01 0-.02.01-.02.03v.33a.88.88 0 0 0-.24-.08Z" fill="#BCBEC0"/><path d="M25.23 29.93c-.22 0-.36.14-.36.31 0 .17.17.31.4.3l.1.01c.28 0 1.07-.07 1.55-.72 0 0 .03-.05.03-.1 0-.03 0-.06-.04-.09a.18.18 0 0 0-.12-.04s-.05.06-.18.13c-.11.07-.88.34-1.38.2" fill="#231F20"/><path d="M26.76 29.77c-.43.59-1.14.64-1.4.64h-.09c-.13 0-.22-.07-.22-.17s.1-.17.21-.17l.1.02c.2.05.78.03 1.38-.35.05-.01.02.03.02.03" fill="#BCBEC0"/><path d="M25.23 30.67c-.22 0-.36.14-.36.3 0 .18.17.31.4.31h.1c.28 0 1.07-.06 1.55-.71 0-.01.03-.05.03-.11 0-.02 0-.05-.03-.08a.2.2 0 0 0-.13-.04s-.05.06-.17.13c-.12.06-.89.34-1.39.2" fill="#231F20"/><path d="M26.76 30.5c-.43.6-1.14.65-1.4.65h-.09c-.13 0-.23-.08-.23-.18 0-.09.1-.17.22-.17l.09.03c.2.04.79.02 1.39-.36.05-.01.02.03.02.03" fill="#BCBEC0"/><path d="M25.23 29.2c-.21 0-.36.14-.36.31 0 .17.18.31.4.31h.1c.29 0 1.07-.06 1.55-.71 0-.01.03-.05.03-.11 0-.03 0-.06-.03-.09a.18.18 0 0 0-.13-.04s-.05.06-.17.13c-.12.07-.89.35-1.39.2" fill="#231F20"/><path d="M26.76 29.04c-.43.59-1.14.64-1.4.64h-.09c-.13 0-.22-.07-.22-.17s.1-.17.21-.17l.1.02c.2.05.78.03 1.38-.35.05-.02.02.03.02.03" fill="#BCBEC0"/><path d="M25.88 29.06c-.43 0-.9-.07-1.27-.3-.2-.12-.46-.32-.44-.6.04-.75 1.2-.9 1.71-.9.53 0 1.72.13 1.72.9 0 .75-1.2.9-1.72.9m1-1.49a2.8 2.8 0 0 0-1-.17c-.37 0-.76.05-1.1.22-.19.09-.49.26-.48.52.02.3.34.47.58.56.32.12.66.17 1 .17.37 0 .76-.05 1.1-.22.21-.1.5-.25.48-.52-.02-.3-.34-.47-.58-.56" fill="#231F20"/></svg>