<!-- by TradingView --><svg width="56" height="56" viewBox="0 0 56 56" xmlns="http://www.w3.org/2000/svg"><path fill="#F0F3FA" d="M0 0h56v56H0z"/><path d="M36.74 12c1.3 0 2.32.48 3.08 1.43l.48.77c.39.62.96 1.13 1.73 1.53 1.32.68 1.98 1.83 1.97 3.43v17.7c0 1.6-.66 2.74-1.98 3.43-.77.4-1.35.9-1.73 1.52l-.49.78a3.74 3.74 0 0 1-3.08 1.4L19.26 44c-1.3 0-2.32-.48-3.08-1.43l-.48-.77a4.34 4.34 0 0 0-1.73-1.53c-1.32-.68-1.98-1.83-1.97-3.43v-17.7c0-1.6.66-2.74 1.98-3.43.77-.4 1.35-.9 1.73-1.52l.49-.78a3.74 3.74 0 0 1 3.08-1.4L36.74 12Z" fill="#050000"/><path d="M33.4 19.69a7.43 7.43 0 0 0 1.08 3c.14.19.5.62 1.1 1.3 1.17 1.35 1.17 3.53.83 5.24-.04.22.01.25.16.08l1.85-2.04a4.73 4.73 0 0 0 .67-5.6c-.34-.67-.78-1.26-1.23-1.85-.27-.36-.54-.73-.78-1.1a7.86 7.86 0 0 1-.93-3.44.04.04 0 0 0-.04 0 13.3 13.3 0 0 0-2.32 2.5 2.5 2.5 0 0 0-.39 1.9Z" fill="url(#a)"/><path d="M34.08 23.03a8.17 8.17 0 0 1-1.24-4.22c0-.1-.03-.11-.1-.03l-.5.65a9.73 9.73 0 0 0-1.35 1.96c-.45 1-.72 2.44-.39 3.5.21.69.54 1.45 1 2.3.17.36.35.71.53 1.05a7.2 7.2 0 0 1 .8 5.26c0 .07.01.08.06.03l1.4-1.55c.59-.69 1-1.25 1.21-1.69.9-1.8.93-4.08-.22-5.8-.18-.28-.44-.58-.71-.88l-.5-.58Z" fill="url(#b)"/><path d="M23.09 17.97a8.17 8.17 0 0 1-.5-2.53v-.02a.03.03 0 0 0-.04-.01h-.01c-.8.83-1.43 1.54-1.92 2.14-.83 1-1.39 1.9-.97 3.19.15.45.45 1.04.9 1.76l.9 1.4c.99 1.63 1.62 3.8 1.29 5.7-.04.23.01.26.17.1l1.52-1.7c.07-.08.08-.17.02-.26-1.2-1.96-1.97-4.73-.57-6.89a20.97 20.97 0 0 1 .44-.69.1.1 0 0 0-.02-.06l-.58-.8-.63-1.33Z" fill="url(#c)"/><path d="m19.97 22.52.03.06.83 1.32A8.88 8.88 0 0 1 22.4 30c-.06.4-.28.63-.57.93l-.13.13c-.65.68-1.32 1.4-2.02 2.17-.1.1-.13.1-.1-.05a8.6 8.6 0 0 0 .13-2.27c-.08-1.17-.66-2.3-1.2-3.37l-.08-.14-.74-1.44-.05-.08c-.54-.96-.97-1.75-.83-2.91a4.3 4.3 0 0 1 1.45-2.7 15.25 15.25 0 0 0 1.14-1.26l.03.02v.02c-.62 1.35-.1 2.31.54 3.47Z" fill="url(#d)"/><path d="M29.6 17.04a6.19 6.19 0 0 1-.25-1.94.03.03 0 0 0-.03 0c-1.35 1.19-2.2 2.92-1.6 4.76l.42 1.06 1.72 2.88c.05.09.07.08.08-.02a7.22 7.22 0 0 1 1.23-3.63c0-.03 0-.06-.02-.08l-1.1-1.94-.45-1.09Z" fill="url(#e)"/><path d="M25.82 23c-.9-2.21-.46-4.01 1.3-5.42.03-.03.05-.02.03.03a4.6 4.6 0 0 0 .38 3.06l.64 1.26.3.46c.52.81 1.01 1.58 1.38 2.53.6 1.52.55 3.01-.12 4.48-.2.44-.58 1.06-1.12 1.84-.03.04-.05.04-.05-.01l.01-.77a8.3 8.3 0 0 0-1.13-4.48c-.12-.2-.4-.69-.87-1.45l-.75-1.54Z" fill="url(#f)"/><path d="M24.48 26.67c-1.2-2.12-1.33-4.6.34-6.51.06-.06.08-.05.07.03-.16 1.56.3 2.78 1 4.12l.45.76a9.12 9.12 0 0 1 1.74 4.86c.02.34 0 .67-.07 1-.05.32-.18.62-.36.92a18.07 18.07 0 0 1-1.3 1.76h-.03a.03.03 0 0 1-.01-.04c.5-2.23-.24-4.18-1.39-6.05l-.44-.85Z" fill="url(#g)"/><path d="m31.35 27.99.02-.1v-.1a11 11 0 0 0-.58-.98c-.11-.17-.16-.15-.13.05a5.09 5.09 0 0 1-.15 1.94c-.06.2-.01.22.12.07.23-.25.47-.54.72-.88Z" fill="#DC212A"/><path d="M22.25 36.88c0-.1-.03-.11-.1-.03l-1.5 2.02c-.03.02-.04.02-.06 0l-1.4-1.98c-.12-.17-.19-.15-.19.05v1.12c0 .04.03.09.05.12.02.04.06.07.1.09.24.12.35.33.34.63a.1.1 0 0 1-.03.07.12.12 0 0 1-.08.03h-2.75c-.05 0-.08-.03-.09-.08-.07-.36.05-.59.37-.66.05-.01.09-.04.09-.1v-2.24c0-.04-.03-.08-.05-.11a.22.22 0 0 0-.09-.08c-.26-.12-.38-.34-.34-.65.01-.05.04-.08.1-.08h2.3c.02 0 .05 0 .07.02.03.01.05.03.06.05l1.52 2.01.03.03a.08.08 0 0 0 .1-.03l1.52-2.04a.1.1 0 0 1 .04-.03l.05-.01h2.33c.08 0 .13.04.13.12.01.19-.07.37-.24.53-.36.34-.21 1.98-.19 2.38.03.4.5.37.43.89a.1.1 0 0 1-.03.06.1.1 0 0 1-.06.02h-2.8a.1.1 0 0 1-.07-.03.1.1 0 0 1-.04-.06c-.03-.3.1-.53.4-.68a.13.13 0 0 0 .08-.12v-1.23Z" fill="#DC222A"/><path fill-rule="evenodd" d="M25.8 35.66c.1.07.2.13.2.18v2.14c-.01.22-.23.36-.43.46a.14.14 0 0 0-.08.13v.34c0 .04.02.05.05.06.27.02.65.03 1.14.03h3.97c.73.01 1.25-.28 1.57-.85.52-.94.49-2.49-.66-3a3.7 3.7 0 0 0-1.28-.15h-4.75l-.03.01-.02.01a.1.1 0 0 0-.03.03l-.02.04v.04l.1.3c0 .03.02.06.05.08l.21.15Zm2.22-.06a.06.06 0 0 0-.02.04v2.63l.02.04.05.02h1.38a1.43 1.43 0 0 0 .98-.4 1.35 1.35 0 0 0 .41-.96v-.04c0-.36-.15-.7-.4-.96-.27-.25-.63-.4-1-.39h-1.38c-.01 0-.03 0-.04.02ZM39.23 38.47l-.22-.15a.1.1 0 0 1-.04-.1l.02-.04c.16-.2.34-.43.38-.66.14-.79-.05-1.5-.57-2.15-.17-.2-.57-.37-.8-.37h-3.65c-.65 0-1 .17-1.28.69-.52.95-.46 2.16.3 2.98.16.17.43.31.64.31 1.32.03 2.54.03 3.67 0l.3-.03c.24-.05.5-.09.77.03.05.02.1.01.14-.03l.35-.37a.07.07 0 0 0 .01-.09l-.02-.02Zm-2.7-.3a.15.15 0 0 0-.08-.07.3.3 0 0 1-.1-.05.25.25 0 0 1-.05-.08.19.19 0 0 1-.02-.09c0-.03.01-.05.03-.08.24-.37.51-.44.82-.22l.04.02a.11.11 0 0 0 .1-.02.1.1 0 0 0 .02-.04c.79-1.64-1.85-2.62-2.44-.97-.37 1.05.53 1.76 1.64 1.67h.02l.02-.02v-.04Z" fill="#DC222A"/><defs><linearGradient id="a" x1="32.29" y1="20.04" x2="36.25" y2="22.36" gradientUnits="userSpaceOnUse"><stop offset=".42" stop-color="#F0D13B"/><stop offset="1" stop-color="#DC212A"/></linearGradient><linearGradient id="b" x1="32.29" y1="20.04" x2="36.25" y2="22.36" gradientUnits="userSpaceOnUse"><stop offset=".42" stop-color="#F0D13B"/><stop offset="1" stop-color="#DC212A"/></linearGradient><linearGradient id="c" x1="18.94" y1="19.65" x2="23.01" y2="22.94" gradientUnits="userSpaceOnUse"><stop offset=".38" stop-color="#F0D13B"/><stop offset="1" stop-color="#DC212A"/></linearGradient><linearGradient id="d" x1="18.94" y1="19.65" x2="23.01" y2="22.94" gradientUnits="userSpaceOnUse"><stop offset=".38" stop-color="#F0D13B"/><stop offset="1" stop-color="#DC212A"/></linearGradient><linearGradient id="e" x1="25.33" y1="19.36" x2="29.39" y2="22.55" gradientUnits="userSpaceOnUse"><stop offset=".41" stop-color="#F0D13B"/><stop offset="1" stop-color="#DC212A"/></linearGradient><linearGradient id="f" x1="25.33" y1="19.36" x2="29.39" y2="22.55" gradientUnits="userSpaceOnUse"><stop offset=".41" stop-color="#F0D13B"/><stop offset="1" stop-color="#DC212A"/></linearGradient><linearGradient id="g" x1="25.33" y1="19.36" x2="29.39" y2="22.55" gradientUnits="userSpaceOnUse"><stop offset=".41" stop-color="#F0D13B"/><stop offset="1" stop-color="#DC212A"/></linearGradient></defs></svg>