<!-- by TradingView --><svg width="56" height="56" viewBox="0 0 56 56" xmlns="http://www.w3.org/2000/svg"><path fill="#F0F3FA" d="M0 0h56v56H0z"/><path d="M43 14c-.56 1.93-1.13 4.06-1.68 5.98-.23.8-.45 1.33-.64 1.6a3.44 3.44 0 0 1-1.79 1.28c-.4.12-1.02.17-1.89.14h-1.84c-.04 0-.07.02-.08.07-.37 1.25-1.62 5.39-3.77 12.84a6.04 6.04 0 0 1-.66 1.66c-.42.58-1 1-1.73 1.26a5 5 0 0 1-1.7.17h-2.1c-.04 0-.05-.02-.04-.05 2.46-8.49 3.7-12.62 3.75-12.8.22-.82.44-1.4.68-1.73a3.52 3.52 0 0 1 1.76-1.27 5.8 5.8 0 0 1 1.8-.15h1.96c.04 0 .07-.03.08-.07.55-1.86 1.1-3.9 1.6-5.69.23-.85.48-1.46.72-1.81A3.42 3.42 0 0 1 39.86 14H43Z" fill="#0067B1"/><path d="m20.08 31.87.8-2.81c.26-.87.5-1.43.7-1.7.41-.53.96-.93 1.64-1.18.35-.14.9-.2 1.66-.18h2.18c.04 0 .05.03.04.07-.88 2.99-1.56 5.34-2.04 7.06l-.8 2.81a5.88 5.88 0 0 1-.7 1.7c-.4.53-.95.93-1.63 1.18-.36.14-.91.2-1.66.18h-2.18c-.04 0-.06-.03-.05-.07.89-2.99 1.57-5.34 2.04-7.06ZM11 39a5.86 5.86 0 0 1 2.53-8.48 3.5 3.5 0 0 1 1.73-1.34c.4-.14.98-.2 1.76-.17h2.06c.03 0 .04.01.03.04-1.15 4.13-1.79 6.43-1.9 6.88-.2.75-.4 1.27-.63 1.58-.44.61-1 1.05-1.68 1.3-.32.13-.92.19-1.8.19H11Z" fill="#ED1C24"/></svg>