<!-- by TradingView --><svg width="56" height="56" viewBox="0 0 56 56" xmlns="http://www.w3.org/2000/svg"><path fill="#F0F3FA" d="M0 0h56v56H0z"/><path d="M20.62 16h11.72l.04.01.03.03a.07.07 0 0 1-.01.08L13.99 37.97a.07.07 0 0 1-.06.03H7.07a.07.07 0 0 1-.06-.05.07.07 0 0 1 0-.07L22.93 19a.07.07 0 0 0 0-.1l-2.36-2.78a.07.07 0 0 1-.01-.08l.03-.03.04-.01Z" fill="#342C2A"/><path d="M24.67 38h-6.9a.07.07 0 0 1-.07-.04.07.07 0 0 1 .01-.07l18.4-21.86a.07.07 0 0 1 .07-.03h6.9a.07.07 0 0 1 .06.04.07.07 0 0 1-.01.07l-18.4 21.86a.07.07 0 0 1-.06.03ZM28.58 37.88l18.29-21.85a.08.08 0 0 1 .12 0l.01.05v21.84c0 .02 0 .04-.02.05-.02.02-.03.03-.05.03h-6.86c-.02 0-.04-.01-.05-.03a.07.07 0 0 1-.02-.05v-5.13c0-.01 0-.03-.02-.04a.08.08 0 0 0-.08-.03.08.08 0 0 0-.04.02l-4.27 5.23a.08.08 0 0 1-.06.03h-6.89a.08.08 0 0 1-.07-.04.07.07 0 0 1 .01-.08Z" fill="#FF1E02"/></svg>