<!-- by TradingView --><svg width="56" height="56" viewBox="0 0 56 56" xmlns="http://www.w3.org/2000/svg"><path fill="#F0F3FA" d="M0 0h56v56H0z"/><path d="M39 11c-.01 0 0 0 0 0-.01 0 0 0 0 0s0-.01 0 0v13.16a.13.13 0 0 1-.19.13c-6.6-3-10.38-4.7-11.34-5.1a2.66 2.66 0 0 0-1.73-.12c-.14.04-.2-.02-.15-.16a.16.16 0 0 1 .07-.1L39 11Z" fill="#17AC4E"/><path d="M19.23 24.81c-.79-.42-1.36-.38-2.14.05a.2.2 0 0 1-.2 0c-.07-.04-.1-.08-.12-.12-.04-.15.01-.26.14-.34l1.81-1.14c1.1-.7 1.71-1.08 1.85-1.14 1.65-.77 3.46-.46 5.1.37l12.59 6.36c.53.27.73.37.74.99v5.14a.1.1 0 0 1-.05.1.1.1 0 0 1-.1 0c-.91-.5-2.5-1.34-4.74-2.5L19.23 24.8ZM9.24 30.1c-.19 0-.48.11-.87.32-.13.07-.22.04-.29-.09l-.04-.06c-.08-.15-.05-.26.09-.35l2.17-1.37c.92-.6 1.67-.97 2.23-1.1 1.49-.32 2.8.05 4.14.76l.71.37c2.85 1.4 10.36 4.94 21.62 10.6v5.47c.01.35-.12.43-.4.26-.44-.26-.77-.46-1.02-.58-6.02-3.11-14.97-7.7-26.82-13.78a3.4 3.4 0 0 0-1.52-.45Z" fill="#005A9E"/></svg>