<!-- by TradingView --><svg width="56" height="56" viewBox="0 0 56 56" xmlns="http://www.w3.org/2000/svg"><path fill="#F0F3FA" d="M0 0h56v56H0z"/><path d="M6 26.5v-1.32l.02-.03.04-.01A25.7 25.7 0 0 1 9.13 25a40.09 40.09 0 0 1 3.28.15l.03.01.02.03V26.02l-.02.02a.05.05 0 0 1-.04.01 30.27 30.27 0 0 0-3.56-.21 15.3 15.3 0 0 0-1.83.1l-.01.04v.54l.04.02h3.93c.04 0 .03.02.03.04v.8c0 .03.01.05-.03.05H7.04s-.02 0-.03.02l-.01.03v.54l.04.02c.71.07 1.1.1 1.82.1a28.97 28.97 0 0 0 3.54-.2l.02.01V28.78l-.01.03-.03.02a30.63 30.63 0 0 1-4.78.14 19.4 19.4 0 0 1-1.58-.16L6 28.78v-1.33a.05.05 0 0 0-.04-.02h-1.9l-.04-.01a.04.04 0 0 1-.02-.03v-.8c0-.02 0-.03.02-.04l.03-.01h1.9c.02 0 .04 0 .05-.02v-.03Zm10.15 2.76 2.28-5.55.08-.23c0-.18-.16-.21-.33-.21-.01 0-.02 0-.03-.02a.05.05 0 0 1-.02-.03v-.17c0-.02 0-.03.02-.04l.03-.01h2.22l.04.01.01.04v.17l-.01.03a.05.05 0 0 1-.04.02.45.45 0 0 0-.3.1c-.1.11-.18.24-.23.38l-2.8 6.78v-.01a.28.28 0 0 0-.02.08c0 .12.18.13.28.13h.03l.02.04v.18c0 .02 0 .03-.02.04a.05.05 0 0 1-.03.01h-2.55l-.03-.01a.04.04 0 0 1-.02-.04v-.18c0-.01 0-.02.02-.03l.03-.01c.1 0 .3-.01.3-.13a.8.8 0 0 0-.08-.31l-2.83-6.54a1.22 1.22 0 0 0-.23-.4.45.45 0 0 0-.3-.08c-.01 0-.02 0-.03-.02a.04.04 0 0 1-.02-.03v-.17c0-.02 0-.03.02-.04l.03-.01h2.25l.04.01.01.04v.17l-.01.03a.05.05 0 0 1-.04.02c-.15 0-.33.02-.33.2l.1.24 2.4 5.55c0 .01 0 .02.02.02a.05.05 0 0 0 .05 0c.01 0 .02 0 .02-.02Zm8.85-1.3v-1.9c-.76-.13-1.51-.2-2.29-.2-.72 0-1.45.07-2.17.18v1.91c.76.13 1.53.19 2.3.2.73-.01 1.44-.07 2.16-.19Zm-2.2 1.05c-1.09 0-2.18-.12-3.24-.33v-3.35a16.23 16.23 0 0 1 6.44 0v3.35c-1.05.21-2.12.32-3.2.33ZM45.76 27.53c-.21-.16-.46-.26-.72-.28-.21 0-.39.12-.54.38-.16.27-.24.59-.23.9 0 .29.1.43.28.43.2 0 .57-.44 1.13-1.31l.08-.12m-.11.55c-.18.34-.41.66-.68.93-.24.23-.45.34-.64.34a.4.4 0 0 1-.35-.2.92.92 0 0 1-.13-.51c0-.42.13-.83.39-1.15a1.14 1.14 0 0 1 .9-.5c.25.01.48.08.69.2l.22-1.12c-.1.02-.2.04-.3.04a.36.36 0 0 1-.27-.09.68.68 0 0 1-.14-.32c.14.07.3.1.46.1a2 2 0 0 0 .74-.14l-.45 2.27a3.4 3.4 0 0 0-.08.66c0 .23.07.35.2.35.14 0 .36-.15.67-.47.3-.29.55-.62.77-.98l.17.11a5 5 0 0 1-.92 1.22c-.37.35-.67.53-.89.53-.28 0-.42-.22-.42-.67 0-.2.02-.4.06-.6Zm-3.82.15c.27 0 .53-.1.75-.25a.64.64 0 0 0 .31-.52c0-.18-.08-.26-.24-.26a.67.67 0 0 0-.52.3c-.16.21-.27.46-.3.73Zm-.01.2c0 .4.17.61.51.61.3 0 .63-.14.99-.42.38-.32.71-.7.97-1.13l.17.1c-.26.5-.62.92-1.06 1.26-.43.34-.84.5-1.23.5a.75.75 0 0 1-.6-.24.95.95 0 0 1-.2-.66 1.47 1.47 0 0 1 .81-1.35c.17-.07.34-.11.52-.11.16 0 .31.04.43.14a.45.45 0 0 1 .16.36c0 .24-.15.46-.44.66-.31.19-.67.29-1.03.28Zm-4.3.14c.5-1.05.94-1.58 1.33-1.58.16 0 .25.12.25.36-.02.24-.06.48-.11.7l-.13.64c.2-.44.45-.86.76-1.23.26-.31.49-.47.68-.47.2 0 .31.12.31.37-.01.2-.05.41-.1.61l-.06.33c-.03.14-.05.29-.05.43 0 .17.05.25.17.25.27 0 .68-.5 1.23-1.49l.17.1c-.6 1.18-1.12 1.77-1.57 1.77-.29 0-.43-.2-.43-.57 0-.2.04-.4.08-.6l.06-.29a2.64 2.64 0 0 0 .06-.4.08.08 0 0 0-.1-.05c-.14 0-.41.3-.8.9-.35.54-.52.85-.52.93a.2.2 0 0 0 0 .04l-.1.03a.33.33 0 0 1-.1 0c-.12 0-.18-.06-.18-.18a7.9 7.9 0 0 0 .11-.56l.08-.44c.05-.19.08-.38.1-.57 0-.1-.03-.14-.1-.14-.15 0-.37.27-.66.8-.3.54-.44.86-.44.96l.03.09a.52.52 0 0 1-.2.05c-.15 0-.22-.08-.22-.24l.06-.6.05-.45c.02-.14.02-.29.02-.43a.54.54 0 0 0-.1-.37c.11-.04.23-.07.34-.08.13 0 .19.07.19.21l-.05.58-.06.6Zm-1.64.18c-.4.22-.61.4-.61.51 0 .12.08.17.25.17a.39.39 0 0 0 .3-.12c.07-.09.11-.2.1-.32a.64.64 0 0 0-.04-.24Zm.35-.18c.05.09.07.2.07.3a.72.72 0 0 1-.26.55.9.9 0 0 1-.62.24.59.59 0 0 1-.36-.1.32.32 0 0 1-.15-.27.45.45 0 0 1 .2-.33c.21-.16.44-.29.68-.4l-.16-.26c-.2-.33-.3-.58-.3-.77 0-.26.15-.47.45-.63.19.07.28.16.28.27 0 .15-.12.3-.35.45l.23.43.18.34c.21-.12.41-.26.6-.4.18-.17.35-.34.51-.53l.17.1c-.32.41-.71.76-1.17 1Zm-2.67-.55c-.16.35-.38.68-.64.96-.23.25-.45.37-.63.37a.47.47 0 0 1-.37-.16.6.6 0 0 1-.14-.41c.03-.41.1-.82.22-1.21l.06-.3c0-.05-.02-.1-.04-.13h.29c.12 0 .18.04.18.14-.02.17-.06.34-.12.5l-.05.18-.03.13c-.05.19-.08.38-.1.58 0 .2.08.3.22.3.23 0 .52-.28.88-.85.29-.47.43-.8.43-1 0-.03 0-.06-.02-.08.1-.03.19-.05.29-.05.12 0 .18.04.18.11a7.65 7.65 0 0 0-.14.56l-.02.1a3.3 3.3 0 0 0-.06.64c0 .3.07.46.22.46.32 0 .73-.46 1.23-1.37l.18.1c-.57 1.1-1.09 1.65-1.56 1.65-.32 0-.47-.28-.47-.83l.01-.4Zm-1.3-.41c-.24.46-.53.9-.87 1.28-.3.3-.55.46-.77.46a.48.48 0 0 1-.4-.19.77.77 0 0 1-.14-.49c0-.16.02-.32.06-.48l.4-2.08-.13.02c-.32 0-.48-.14-.48-.41v-.05a1.1 1.1 0 0 0 1.11-.01l-.48 2.5c-.03.15-.05.3-.06.47 0 .23.08.35.26.35a.7.7 0 0 0 .5-.28c.3-.38.58-.78.82-1.2l.17.11Zm-4.39.6-.18.91-.04.26c0 .04 0 .08.03.12a.88.88 0 0 1-.39.1c-.07 0-.1-.02-.1-.08 0-.09.02-.17.04-.26l.21-1.1c-.35-.07-.52-.19-.52-.34 0-.04 0-.08.02-.12.16.13.34.22.54.27l.15-.73c.01-.08.03-.16.03-.25a.2.2 0 0 0-.05-.13c.12-.05.25-.09.39-.1.08 0 .13.04.13.15l-.07.36-.15.73c.35.02.7-.08.98-.3a.92.92 0 0 0 .38-.75.5.5 0 0 0-.2-.41.83.83 0 0 0-.52-.16 1.83 1.83 0 0 0-1.56.82.6.6 0 0 1-.05-.2c0-.21.18-.4.56-.59.38-.18.8-.27 1.21-.27.67 0 1 .25 1 .73a1.16 1.16 0 0 1-.52.94c-.34.27-.77.4-1.2.4h-.12Z" fill="#373435"/><path d="M49.25 23.37a1.39 1.39 0 0 1 .98 2.38 1.39 1.39 0 1 1-1.96-1.97c.26-.26.61-.4.98-.4Z" fill="#1FC4F4"/><path d="M48.96 23.72h.58v.76h.75v.58h-.75v.75h-.58v-.75h-.75v-.58h.75v-.76Z" fill="#FEFEFE"/><path d="M15.66 33.94c3.8.65 9.4 1.06 15.65 1.06C42.73 35 52 33.62 52 31.92c0-.88-2.48-1.67-6.45-2.23 2.9.53 4.62 1.21 4.62 1.95 0 1.7-9.26 3.09-20.7 3.09-5.3 0-10.15-.3-13.81-.8Z" fill="#1FC4F4"/></svg>