<!-- by TradingView --><svg width="56" height="56" viewBox="0 0 56 56" fill="none" xmlns="http://www.w3.org/2000/svg">
<rect width="56" height="56" fill="#F0F3FA"/>
<path fill-rule="evenodd" clip-rule="evenodd" d="M36.0254 26.1292L32.6024 34.5663L28 23.378L31 16L36.0254 26.1292Z" fill="#9E9FA3"/>
<path fill-rule="evenodd" clip-rule="evenodd" d="M19.9746 26.1292L23.3976 34.5743L28 23.378L25 16L19.9746 26.1292Z" fill="#FA9D1C"/>
<path d="M25 16H15.7874L7 38H16.1654L25 16Z" fill="#FFCA08"/>
<path d="M31 16H40.2126L49 38H39.8346L31 16Z" fill="#646569"/>
<path fill-rule="evenodd" clip-rule="evenodd" d="M23.3959 34.5747C24.9315 30.8431 28.0008 23.3781 28.0008 23.3781C28.0008 23.3781 31.0681 30.8463 32.6041 34.5789C31.8221 36.5206 30.0552 38 28.0008 38C25.945 38 24.177 36.5186 23.3959 34.5747Z" fill="#F37022"/>
</svg>
