<!-- by TradingView --><svg width="56" height="56" viewBox="0 0 56 56" xmlns="http://www.w3.org/2000/svg"><path fill="#273344" d="M0 0h56v56H0z"/><path d="M5.52 22c.28.11.45.33.53.65.33 1.4-1.49 1.93-2.05.57v-.4c.06-.35.23-.63.52-.82h1ZM20 32h-1.9c-.03 0-.05-.02-.07-.04a.11.11 0 0 1-.03-.08v-5.07a.17.17 0 0 0-.04-.11.14.14 0 0 0-.1-.05h-.64c-.15 0-.22-.08-.22-.24v-1.17c0-.15.07-.24.2-.24h.6c.13 0 .2-.06.2-.21v-1.68c0-.07.03-.11.1-.11h1.83c.05 0 .07.03.07.08v1.72c0 .14.07.2.2.2h.59c.14 0 .21.08.21.24v1.18c0 .15-.07.22-.2.22h-.59a.2.2 0 0 0-.08.02.21.21 0 0 0-.07.05.23.23 0 0 0-.06.17V32ZM15 32h-2v-3.8c0-.9-.12-1.86-1.33-1.52-.5.15-.65.8-.67 1.2V32H9v-6.53a.16.16 0 0 1 .11-.16l.07-.01c.5.04 1.07.05 1.57-.08 2.25-.58 4.23-.11 4.25 2.54V32ZM52 25.28V32h-4.41c-1.83-.89-2.26-3.37-1.48-5.14.63-1.43 1.82-1.96 3.25-1.84.09 0 .42.06 1 .18.53.1 1.08.13 1.64.08Zm-2.93 5.26c.2 0 .39-.05.57-.15.18-.1.35-.24.49-.41a2.34 2.34 0 0 0 .32-2.07 1.99 1.99 0 0 0-.33-.61c-.14-.18-.3-.32-.48-.41a1.24 1.24 0 0 0-1.16 0c-.18.1-.34.23-.48.4-.14.19-.25.4-.33.63a2.34 2.34 0 0 0 0 1.45c.08.23.2.44.33.61.14.18.3.32.49.41.18.1.38.15.58.15ZM27.95 32h-2.43c-1.95-.77-2.3-3.28-1.63-5.1.49-1.3 1.46-1.9 2.78-1.9 2.16-.01 2.97 1.83 2.98 3.89a.12.12 0 0 1-.03.08.1.1 0 0 1-.04.02.1.1 0 0 1-.04 0h-3.92c-.07 0-.1.04-.1.12-.1 1.02.6 1.93 1.65 1.54.33-.13.54-.31.63-.55.07-.2.2-.28.4-.24l1.18.21c.17.04.23.14.15.31A3.2 3.2 0 0 1 27.95 32Zm-2.33-4.27h2.24l.03-.02.01-.03v-.07c0-.34-.12-.66-.34-.9a1.09 1.09 0 0 0-1.27-.27 1.27 1.27 0 0 0-.72 1.16v.1a.05.05 0 0 0 .03.02h.02ZM6 32H4L4 25.1c0-.07.03-.1.1-.1h1.82c.02 0 .04 0 .06.02l.02.05V32ZM34 32h-2v-6.87c0-.09.04-.13.13-.13h1.72c.1 0 .15.05.15.15V32ZM41 32h-1.98L39 25.1a.1.1 0 0 1 .03-.07.1.1 0 0 1 .07-.03h1.79a.1.1 0 0 1 .11.1V32ZM36 28a1 1 0 1 0 0-2 1 1 0 0 0 0 2ZM43 28a1 1 0 1 0 0-2 1 1 0 0 0 0 2Z" fill="#fff"/></svg>