<!-- by TradingView --><svg width="56" height="56" viewBox="0 0 56 56" xmlns="http://www.w3.org/2000/svg"><path fill="#F0F3FA" d="M0 0h56v56H0z"/><path d="M14 27.68c0-.07-.01-.08-.05-.02l-.65.93c-.44.63-.76 1.14-1.16 1.68-.1.13-.44.61-1 1.43-.08.12-.15.21-.23.27a.13.13 0 0 1-.08.03H9.62c-.04 0-.06-.01-.09-.03-.1-.07-.18-.16-.26-.29a649.15 649.15 0 0 0-2.8-4.05c-.03-.03-.05-.02-.05.02v4.34L6.4 32H4.05l-.03-.02a.05.05 0 0 1-.02-.04v-8.89l.01-.03.03-.02H6.9c.63 0 1 .1 1.34.6.28.42.81 1.2 1.59 2.32.1.17.28.48.48.7a.05.05 0 0 0 .06 0h.01a196.59 196.59 0 0 1 2.21-3.23c.2-.24.5-.38.92-.39h3.87l.03.03.02.03v8.9s0 .02-.02.02c0 .01-.01.02-.03.02h-3.3l-.04-.02c-.01-.01-.03-.03-.03-.05v-4.25ZM39 27.38v-4.3l.03-.06a.08.08 0 0 1 .05-.02h3.01c.22 0 .44.09.63.2l6 4.01c.08.05.16.08.24.1a.04.04 0 0 0 .03-.02.04.04 0 0 0 .01-.02V23c-.01.01 0-.01 0 0-.02 0 .01 0 0 0h2.88c.08 0 .12.04.12.11v8.83c0 .02 0 .03-.02.04a161.59 161.59 0 0 1-2.04.02 2.2 2.2 0 0 1-.85-.19l-6.43-4.23h-.02a.04.04 0 0 0-.03.01V31.96l-.02.02-.03.02H40.4c-.84 0-1.3.04-1.86-.37l-.42-.3-5.5-3.77h-.01a.03.03 0 0 0-.03.01v4.35c0 .05-.03.08-.09.08H29.1c-.07 0-.1-.03-.1-.1v-8.84c0-.01 0-.03.02-.04a.06.06 0 0 1 .04-.02h3.1c.08 0 .23.05.45.14l6.27 4.3c.08.06.13.04.13-.06ZM18.43 23.01l5.72 4.36a.2.2 0 0 1 .06.07.19.19 0 0 1 0 .18.2.2 0 0 1-.07.06c-1.93 1.35-3.72 2.88-5.75 4.08-.03.02-.04.04-.04.07.01.06.03.11.06.16a.91.91 0 0 1-.36-.02c-.03 0-.05-.03-.05-.06v-8.84c0-.03.02-.04.05-.05.12-.02.25-.03.38 0Z" fill="#0000C1"/><path d="M21.58 23c.08.07.1.1.06.11v2.37a1.34 1.34 0 0 1-.53-.25l-2.56-1.83c-.08-.05-.15-.19-.2-.4h3.23Z" fill="#000069"/><path d="M21.67 32c.04-.05.05-.1.03-.14a.98.98 0 0 0 .45-.22 6.6 6.6 0 0 1 1.35-.96c.13-.1.27-.23.43-.33l.35-.22c.62-.45 1.25-.9 1.9-1.33.25-.17.52-.41.82-.59a27.67 27.67 0 0 0 .83-.6.17.17 0 0 0-.04-.2c-.2-.2-.42-.37-.68-.55l-.51-.33-4.38-3.08a4.35 4.35 0 0 0-.58-.34c.04 0 .03-.04-.05-.1l6.36-.01c.03 0 .05.02.05.05v8.88c0 .05-.02.07-.07.07h-6.26Z" fill="#0000C1"/><path d="M21.63 29.52v2.28c0 .04.02.06.07.06.02.04.01.08-.03.14h-3.31a.44.44 0 0 1-.05-.16c0-.03 0-.06.03-.07l3.29-2.25Z" fill="#000069"/></svg>