<!-- by TradingView --><svg width="56" height="56" viewBox="0 0 56 56" xmlns="http://www.w3.org/2000/svg"><path fill="#F0F3FA" d="M0 0h56v56H0z"/><path d="m38.95 18.21-.98.72a.38.38 0 0 1-.3.06.39.39 0 0 1-.24-.15l-1.48-2.12a.32.32 0 0 0-.35-.12.32.32 0 0 0-.23.3c0 1.17-.47 1.83-1.4 1.99-.6.1-1.11-.07-1.54-.52a1.77 1.77 0 0 1-.14-2.13c.5-.7 1.23-.9 2.17-.59a.29.29 0 0 0 .32-.1.3.3 0 0 0 0-.35l-.7-.99a.14.14 0 0 1 .12-.21h1.16a.42.42 0 0 1 .34.17c.86 1.14 1.5 2 1.89 2.56.5.7.94 1.12 1.33 1.27a.13.13 0 0 1 .07.16c0 .02-.02.04-.04.05ZM37.67 14.68a3.43 3.43 0 0 0-.25.57.1.1 0 0 1-.1.02 6.7 6.7 0 0 1-.78-1.1l.02-.08.04-.06a6.55 6.55 0 0 1 1.35.02.1.1 0 0 1 .02.14c-.11.16-.22.32-.3.49Z" fill="#00AFE7"/><path d="m32.99 14.1.46.66v.04a.04.04 0 0 1-.03.02c-1.8.12-2.67 1.8-2.07 3.48a.08.08 0 0 1-.03.1l-1.09.78-.03.01a.07.07 0 0 1-.06-.01l-.02-.03a3.92 3.92 0 0 1 .19-4.13c.05-.09.13-.17.22-.23a4.22 4.22 0 0 1 2.4-.73c.02 0 .04.03.06.05ZM38.7 20.29a.2.2 0 0 1-.21 0 .2.2 0 0 1-.06-.05l-.24-.35a.23.23 0 0 1-.04-.17.24.24 0 0 1 .09-.15c.92-.68 2.15-1.49 2.2-1.76a.33.33 0 0 0-.08-.27.31.31 0 0 0-.26-.1c-.71.08-1.26-.13-1.64-.65-1.33-1.8 1.2-3.88 2.65-2.13.45.55.51 1.2.18 1.93a.33.33 0 0 0 .28.47c.07 0 .14-.02.2-.06l1.02-.72a.14.14 0 0 1 .21.11v.57a.5.5 0 0 1-.2.4l-4.1 2.93Z" fill="#0081CF"/><path d="M41.9 14h.95c.04 0 .08.02.1.04.03.03.05.07.05.1l-.01.9a.4.4 0 0 1-.08.24c-.08.1-.23.2-.45.31a.13.13 0 0 1-.13 0 .13.13 0 0 1-.06-.1 2.55 2.55 0 0 0-.48-1.26.15.15 0 0 1 .12-.23Z" fill="#32E6FB"/><path d="M28.98 16.7c-.11 1.08.08 2 .56 2.78.03.04.04.09.03.13-.01.05-.04.1-.08.12l-.95.68a.09.09 0 0 1-.12-.02.09.09 0 0 1-.02-.04c-.07-1.33-.13-2.62.48-3.68l.03-.03a.05.05 0 0 1 .07.06ZM35.96 18.1l.8 1.13a.45.45 0 0 1-.1.62l-.2.15a.35.35 0 0 1-.5-.08l-.64-.91a.13.13 0 0 1-.03-.07c0-.03.01-.06.03-.08l.57-.76a.04.04 0 0 1 .07 0Z" fill="#0081CF"/><path d="m39.78 22.11-.71-1a.14.14 0 0 1 .03-.2l3.68-2.64a.14.14 0 0 1 .22.1v1.53a.14.14 0 0 1-.06.11l-2.97 2.13a.14.14 0 0 1-.19-.03Z" fill="#00AFE7"/><path d="M32.86 19.53a.16.16 0 0 1 .12.12.16.16 0 0 1-.05.16l-1.09.77a.3.3 0 0 1-.35 0l-.84-.64a.12.12 0 0 1 0-.2l1.07-.76a.12.12 0 0 1 .07-.02c.03 0 .06.02.07.04.3.28.62.46 1 .53Z" fill="#0081CF"/><path d="M32.71 21.08a.12.12 0 0 1-.09-.1.12.12 0 0 1 .05-.12l1.92-1.38a.17.17 0 0 1 .23.04l.69.96a.14.14 0 0 1 0 .17 3.96 3.96 0 0 1-2.8.43ZM30.1 20.34l.62.88a.15.15 0 0 1-.04.21l-2.14 1.54a.12.12 0 0 1-.12 0 .12.12 0 0 1-.06-.1v-1.26a.42.42 0 0 1 .18-.34l1.35-.97a.15.15 0 0 1 .21.04ZM37.38 20.23a.14.14 0 0 1 .2.05l.05.08c.04.06.07.14.1.21v.23a.43.43 0 0 1-.2.34l-.05.04a.43.43 0 0 1-.2.07.5.5 0 0 1-.2-.03.63.63 0 0 1-.2-.1.73.73 0 0 1-.16-.19l-.05-.08a.15.15 0 0 1 .05-.2l.66-.42Z" fill="#00AFE7"/><path d="M43 26.18a.1.1 0 0 1-.07.1.1.1 0 0 1-.1-.04l-.94-1.3a.34.34 0 0 0-.39-.12.33.33 0 0 0-.2.34c.13 1.48-1.39 2.6-2.66 1.67-1.67-1.22-.35-3.63 1.66-2.98a.33.33 0 0 0 .43-.31.34.34 0 0 0-.06-.2l-.3-.41a.14.14 0 0 1-.01-.1c0-.04.02-.07.05-.1l2.4-1.7a.12.12 0 0 1 .13-.02.12.12 0 0 1 .06.1v5.07Z" fill="#0081CF"/><path d="M34.78 25.43c-.54-.7-.8-1.26-1.78-1.89a.1.1 0 0 1-.04-.07.1.1 0 0 1 .04-.09l2.91-2.08a.17.17 0 0 1 .23.03l.3.42a.2.2 0 0 1 .03.13.2.2 0 0 1-.06.13 4.53 4.53 0 0 0-1.49 3.42.1.1 0 0 1-.14 0Z" fill="#32E6FB"/><path d="M32.84 21.8a49.36 49.36 0 0 0 .78.12l.02.03V22l-.02.03c-.25.2-.52.4-.82.6l-.09-.01-.08-.03a8.41 8.41 0 0 1-.6-.85l.01-.04.03-.02h.04l.73.14Z" fill="#00AFE7"/><path d="M38.57 23.19a.1.1 0 0 1-.07 0 .12.12 0 0 1-.05-.04l-.63-.81a.33.33 0 0 1 .06-.46l.18-.15a.4.4 0 0 1 .57.08l.79 1.01v.02a.04.04 0 0 1 0 .03l-.02.01-.83.3Z" fill="#32E6FB"/><path d="M28.5 25.71a.09.09 0 0 1-.1 0 .1.1 0 0 1-.04-.07v-1.46a.42.42 0 0 1 .18-.35L31.1 22a.18.18 0 0 1 .26.05l.64.9a.2.2 0 0 1 0 .22.2.2 0 0 1-.04.05l-.43.3a.3.3 0 0 0 .17.55c1.1.02 1.76.48 1.96 1.37.33 1.43-1.22 2.68-2.51 1.85-.8-.5-1.02-1.28-.66-2.33a.3.3 0 0 0-.1-.33.3.3 0 0 0-.36 0l-1.53 1.1Z" fill="#0081CF"/><path d="m37.25 26.66-.83.59a.23.23 0 0 1-.29-.01.24.24 0 0 1-.06-.09c-.63-1.48-.52-2.8.33-3.98a.67.67 0 0 1 .96-.13l.03.03a.78.78 0 0 1 .18 1.01c-.42.71-.49 1.44-.2 2.2a.33.33 0 0 1-.12.38Z" fill="#00AFE7"/><path d="M28.36 28.57v-1.78a.18.18 0 0 1 .07-.15l1.05-.75a.05.05 0 0 1 .07.01l.01.02a2.4 2.4 0 0 0 1.76 2.24.12.12 0 0 1 .08.15c0 .02-.01.04-.03.05-.55.6-1.8.38-2.83.39a.18.18 0 0 1-.17-.11.18.18 0 0 1-.01-.07Z" fill="#32E6FB"/><path d="M41.94 26.39c.64.69 1.17 1.22 1.04 2.26a.14.14 0 0 1-.14.12H37.3a.39.39 0 0 1-.32-.17l-.36-.5a.18.18 0 0 1 .05-.25l.87-.63c.04-.03.1-.05.15-.05.06 0 .11.01.16.05 1.6 1.05 2.9.78 3.89-.81a.13.13 0 0 1 .1-.06.13.13 0 0 1 .1.04ZM32.36 28.76a.09.09 0 0 1-.08-.06v-.05c0-.02.01-.04.03-.05l1.58-1.22a.6.6 0 0 0 .2-.28l.25-.67a.16.16 0 0 1 .12-.1.15.15 0 0 1 .14.07l.92 1.3a.17.17 0 0 1-.04.22l-1.08.78a.32.32 0 0 1-.2.06h-1.84Z" fill="#00AFE7"/><path d="m29.48 29.66-.98.57a.1.1 0 0 1-.14-.04.1.1 0 0 1-.01-.05v-.37a.28.28 0 0 1 .27-.28h.81a.1.1 0 0 1 .09.07.1.1 0 0 1-.04.1Z" fill="#FFE334"/><path d="M33.08 29.48a.1.1 0 0 1 .1.07.1.1 0 0 1-.05.11c-.93.54-1.15 1.2-1.13 2.4v2.46s-.07.1-.13.1h-1.24a.1.1 0 0 1-.1-.07.1.1 0 0 1 0-.04v-4.24a.8.8 0 0 1 .78-.79h1.77ZM36.72 32.99a.22.22 0 0 1-.13.08c-.05.01-.1 0-.15-.02a4.47 4.47 0 0 1-2.33-3.07.4.4 0 0 1 .4-.5h2.23a.33.33 0 0 1 .27.14l.97 1.38a.27.27 0 0 1 0 .3L36.72 33ZM37.87 29.48h1.69a.1.1 0 0 1 .1.08.11.11 0 0 1-.04.12 3.88 3.88 0 0 0-1.04.86.17.17 0 0 1-.22-.05l-.58-.83a.12.12 0 0 1 .03-.16.11.11 0 0 1 .06-.02Z" fill="#FFBF2E"/><path d="M39.01 31.3a.27.27 0 0 1 .05-.38l.04-.04c.39-.3.8-.58 1.2-.82.4-.23.78-.41 1.13-.53.35-.12.66-.18.9-.17.25.01.43.09.54.22l.02.03c.08.1.11.23.11.39 0 .28-.14.63-.4 1.03A8.38 8.38 0 0 1 40.76 33l-.05.04a.42.42 0 0 1-.25.06c-.07 0-.08-.05-.12-.1L39 31.29ZM32.5 34.42c-.04-.76-.03-1.66.02-2.71.03-.59.3-1.05.8-1.38a.18.18 0 0 1 .16-.01.18.18 0 0 1 .1.11 5.2 5.2 0 0 0 2.57 3.17.14.14 0 0 1 0 .17l-.56.74a.3.3 0 0 1-.23.12H32.7a.21.21 0 0 1-.21-.21Z" fill="#FFE334"/><path d="M29.62 34.62h-1.16a.1.1 0 0 1-.1-.1v-3.34a.1.1 0 0 1 .04-.09l1.17-.68a.1.1 0 0 1 .15.1v4a.1.1 0 0 1-.1.1Z" fill="#FFA029"/><path d="M43 31.69v2.7a.22.22 0 0 1-.22.22h-1.1a.32.32 0 0 1-.16-.02.33.33 0 0 1-.12-.1l-.48-.69a.2.2 0 0 1 0-.23 4.84 4.84 0 0 0 2-1.93h.04a.05.05 0 0 1 .04.05Z" fill="#FFBF2E"/><path d="M38.48 33.54a5.27 5.27 0 0 1-1.15-.16.1.1 0 0 1-.03-.04.1.1 0 0 1 .01-.1c.3-.44.66-.93 1.08-1.48l.09-.03.1.03a43.42 43.42 0 0 1 1.1 1.52.1.1 0 0 1-.04.09 5.19 5.19 0 0 1-1.16.17Z" fill="#FFA029"/><path d="M36.68 34.06a.26.26 0 0 1 .25-.11l1.08.2a.23.23 0 0 1 .2.25.24.24 0 0 1-.24.21l-1.48.01a.1.1 0 0 1-.1-.05.1.1 0 0 1 0-.11l.29-.4ZM40.47 34.61h-1.5a.23.23 0 0 1-.23-.2.24.24 0 0 1 .2-.26l1.08-.21.14.01c.05.02.09.05.12.1l.28.4a.1.1 0 0 1 0 .1.1.1 0 0 1-.09.06Z" fill="#FFBF2E"/><path d="M29.72 38.16a.21.21 0 0 1-.12.19.2.2 0 0 1-.21-.02l-.84-.63a.5.5 0 0 1-.2-.4v-1.94a.13.13 0 0 1 .13-.13h1.11c.03 0 .07.01.1.04.02.02.03.05.03.09v2.8Z" fill="#FFA029"/><path d="M31.86 35.25h-1.11c-.1 0-.18.07-.18.17v.05c0 .1.08.17.17.17l1.12.01c.1 0 .17-.08.17-.17v-.05c0-.1-.07-.18-.17-.18ZM35.17 39.9a3.59 3.59 0 0 0-2.5-1.45.22.22 0 0 1-.19-.22v-2.84a.17.17 0 0 1 .17-.16c1.67.01 2.72 1.03 2.72 2.76a30.15 30.15 0 0 1-.05 1.9.1.1 0 0 1-.15 0ZM34.92 35.22c.15-.04.27-.02.37.06a.27.27 0 0 1 .09.28.2.2 0 0 1-.09.11.18.18 0 0 1-.13.02c-.05 0-.15-.1-.3-.28a.11.11 0 0 1-.03-.1.12.12 0 0 1 .09-.09ZM36 37.8v-2.39a.18.18 0 0 1 .18-.18h1.92a.13.13 0 0 1 .12.13v1.3c0 .03 0 .07-.03.1a.15.15 0 0 1-.1.04c-.74.1-1.39.45-1.94 1.06a.08.08 0 0 1-.1.03.1.1 0 0 1-.06-.08ZM40.88 35.23h-1.76a.12.12 0 0 0-.12.13v1.27c0 .07.06.12.13.12h1.75c.07 0 .12-.06.12-.13v-1.27a.12.12 0 0 0-.12-.12ZM41.44 36.41V35.4c0-.05.02-.09.05-.12a.16.16 0 0 1 .1-.04h.98a.15.15 0 0 1 .12.06.15.15 0 0 1 .03.13c-.12.46-.32.87-.59 1.23a.39.39 0 0 1-.7-.24Z" fill="#FFBF2E"/><path d="m31.9 36.26-1.19.01a.14.14 0 0 0-.14.15v.44c0 .08.07.14.15.14l1.19-.01c.07 0 .13-.07.13-.14v-.45a.14.14 0 0 0-.14-.14Z" fill="#FFA029"/><path d="M41.74 37.36a.11.11 0 0 1 .1.07.11.11 0 0 1-.02.12 11.4 11.4 0 0 1-2.68 2.12.14.14 0 0 1-.14-.14v-1.97a.2.2 0 0 1 .2-.2h2.54Z" fill="#FFE334"/><path d="M38.15 40.26 36 41.72c0-1.72 0-1.96.2-2.73a2.53 2.53 0 0 1 1.92-1.58.13.13 0 0 1 .1.12v2.59a.18.18 0 0 1-.07.14Z" fill="#FFA029"/><path d="M31.89 37.64h-1.16a.16.16 0 0 0-.16.16v.44c0 .09.08.16.16.16h1.16c.09 0 .16-.08.16-.17v-.43a.16.16 0 0 0-.16-.16ZM28.34 38.45l.01-.03.03-.02h.07c.31.28.67.46 1.06.55.06.02.12.05.16.1.04.05.06.11.06.18v.37c0 .04-.02.09-.05.12a.18.18 0 0 1-.13.06h-1.03a.18.18 0 0 1-.12-.06.18.18 0 0 1-.06-.12v-1.15Z" fill="#FFBF2E"/><path d="m31.88 39.04-1.14-.01c-.1 0-.17.07-.17.16v.42c0 .09.07.16.16.17h1.14c.1 0 .17-.07.17-.16v-.41c0-.1-.07-.17-.16-.17Z" fill="#FFA029"/><path d="m32.64 39 .76.29a.43.43 0 0 1 .28.4v.53a.15.15 0 0 1-.08.13.15.15 0 0 1-.15-.02c-.2-.15-.48-.25-.85-.32a.14.14 0 0 1-.08-.05.14.14 0 0 1-.03-.09v-.76a.12.12 0 0 1 .1-.1h.05ZM34.2 41.71v-1.75a.11.11 0 0 1 .14-.11l.06.03a3.91 3.91 0 0 1 .82 1.47.1.1 0 0 1-.04.05l-.76.44a.14.14 0 0 1-.14 0 .15.15 0 0 1-.08-.13Z" fill="#FFE334"/><path d="M28.45 40.43h1.17a.1.1 0 0 1 .1.1v5.53a.1.1 0 0 1-.04.08l-1.17.84a.1.1 0 0 1-.1 0 .1.1 0 0 1-.06-.08v-6.37a.1.1 0 0 1 .1-.1Z" fill="#FFA029"/><path d="M31.87 40.42h-1.12c-.1 0-.18.09-.18.18v.41c0 .1.08.17.18.17h1.12c.1 0 .18-.08.18-.18v-.4c0-.1-.08-.18-.18-.18Z" fill="#FFBF2E"/><path d="m33.45 42.58-.8-.3a.26.26 0 0 1-.17-.24v-1.38a.16.16 0 0 1 .07-.13.16.16 0 0 1 .14-.03c.98.25 1.04.97.98 1.94a.17.17 0 0 1-.08.12.17.17 0 0 1-.14.02Z" fill="#FFE334"/><path d="M31.87 41.82h-1.13c-.09 0-.17.08-.17.17v.4c0 .1.08.18.17.18h1.13c.1 0 .17-.07.17-.17V42c0-.1-.07-.18-.17-.18Z" fill="#FFA029"/><path d="M34.88 42.56c.3-.22.49-.46.43-.54-.06-.09-.35.02-.65.23-.3.21-.49.46-.43.54.06.09.35-.02.65-.23ZM32.5 43.92V42.9a.15.15 0 0 1 .05-.11.14.14 0 0 1 .12-.03c.3.09.56.25.8.5a.19.19 0 0 1 .01.22.18.18 0 0 1-.05.05l-.72.52a.15.15 0 0 1-.14 0 .14.14 0 0 1-.08-.12Z" fill="#FFE334"/><path d="M30.71 44.18a.11.11 0 0 1-.1-.02.12.12 0 0 1-.04-.09v-.65c0-.05.02-.09.05-.12a.17.17 0 0 1 .12-.05h1.11a.19.19 0 0 1 .18.13.2.2 0 0 1-.06.21c-.35.29-.77.49-1.26.6ZM31.83 44.4l.07.12v.05c0 .01 0 .02-.02.03l-1.27.92a.15.15 0 0 1-.16 0 .16.16 0 0 1-.08-.13v-.08a.34.34 0 0 1 .16-.29l1.15-.66a.11.11 0 0 1 .08-.01.1.1 0 0 1 .07.05Z" fill="#FFBF2E"/><path d="M13.54 30a4.9 4.9 0 0 1-.36.33.11.11 0 0 1-.12-.1c-.08-.36-.08-.6 0-.68.09-.09.32-.1.69-.03a.11.11 0 0 1 .1.12l-.02.05c-.01.02-.1.13-.3.32Z" fill="#B7CC2B"/><path d="M23 29.43v1.48a.1.1 0 0 1-.1.09h-9.07a.1.1 0 0 1-.09-.06.1.1 0 0 1 .02-.1l1.47-1.48.03-.02a.1.1 0 0 1 .04 0h7.6a.1.1 0 0 1 .1.1Z" fill="#6DAF24"/><path d="M25.39 29.33c.1 0 .16.08.1.16l-.95 1.4a.35.35 0 0 1-.4.14l-.44-.14c-.09-.03-.18-.11-.18-.2v-1.16c0-.08.04-.2.12-.2h1.75Z" fill="#B7CC2B"/><path d="M25.57 31.1a.1.1 0 0 1-.13-.1l.01-.05a2.58 2.58 0 0 1 2.07-1.46.17.17 0 0 1 .12.16v.83c0 .07-.02.13-.06.17a.26.26 0 0 1-.16.1l-1.85.35Z" fill="#6DAF24"/><path d="M27.63 31.57v2.9a.13.13 0 0 1-.04.09.12.12 0 0 1-.1.02c-1.39-.25-2.16-1.1-2.31-2.57 0-.02 0-.05.02-.06a.1.1 0 0 1 .05-.04l2.27-.43a.09.09 0 0 1 .1.05.1.1 0 0 1 0 .04Z" fill="#3C911D"/><path d="M27.46 36.77a6.07 6.07 0 0 0-4.17-1.34.11.11 0 0 1-.07-.09l.01-.05c.41-1.03.29-2.03.31-3.1a.3.3 0 0 1 .31-.3h.42c.05 0 .1.02.13.05a.2.2 0 0 1 .07.14c.19 1.83 1.18 2.9 3 3.23a.22.22 0 0 1 .17.22v1.16a.12.12 0 0 1-.06.1.1.1 0 0 1-.12-.02Z" fill="#B7CC2B"/><path d="M22.74 32h-9.48a.26.26 0 0 0-.26.26v1.12c0 .14.12.26.26.26h9.48c.14 0 .26-.12.26-.26v-1.12a.26.26 0 0 0-.26-.26Z" fill="#3C911D"/><path d="M13.1 34.41a.15.15 0 0 1 .03-.11.14.14 0 0 1 .11-.06h8.96a.43.43 0 0 1 .4.25c.03.07.04.15.03.23a.9.9 0 0 1-.08.33l-.27.36a1.46 1.46 0 0 1-1.16.59h-7.49a.3.3 0 0 1-.19-.07.3.3 0 0 1-.1-.18l-.24-1.34ZM25.36 36.28a.06.06 0 0 1 .05.06.06.06 0 0 1-.06.06c-.54.11-1.01.33-1.41.68-.52.44-1.26 1.15-2.22 2.14a1.57 1.57 0 0 1-1.13.47h-2.4a.2.2 0 0 1-.18-.13.2.2 0 0 1 .07-.22c.94-.7 1.99-2.18 3.22-2.79a5.28 5.28 0 0 1 4.06-.27Z" fill="#6DAF24"/><path d="m17.34 39.13-.02-.02c-.17-.17-.2-.47-.08-.83.12-.35.37-.73.7-1.06l.04-.02c.33-.33.72-.57 1.08-.67.35-.1.65-.07.82.1l.01.02v.01l-2.55 2.47Z" fill="#B7CC2B"/><path d="M16.3 39.15a6.68 6.68 0 0 1-2.45-2.53.08.08 0 0 1 .04-.07h3.48a.08.08 0 0 1 .08.09l-.02.04c-.65.6-.96 1.38-.93 2.35a.12.12 0 0 1-.06.12.13.13 0 0 1-.14 0ZM22.43 39.43c1.61-1.63 2.92-3.34 5.07-1.87a.3.3 0 0 1 .13.25v1.67c0 .04-.01.08-.04.1a.16.16 0 0 1-.11.05h-4.96a.12.12 0 0 1-.12-.14l.03-.06Z" fill="#3C911D"/><path d="M18.48 40.5h1.76a.08.08 0 0 1 .08.04.08.08 0 0 1-.02.1l-.66.67a.2.2 0 0 1-.13.05.2.2 0 0 1-.14-.03l-.93-.71a.07.07 0 0 1-.03-.08.07.07 0 0 1 .07-.05Z" fill="#B7CC2B"/><path d="M25.33 43.83a.09.09 0 0 1-.06.1 11.02 11.02 0 0 1-4.95-1.96.18.18 0 0 1-.07-.11c-.01-.04 0-.09.02-.13.74-1.26 1.78-1.5 3.12-.73a3.8 3.8 0 0 1 1.94 2.83ZM24.29 40.72a.13.13 0 0 1-.04-.15c0-.02.02-.04.04-.06a.12.12 0 0 1 .08-.02h3.14a.12.12 0 0 1 .13.13v3.22a.16.16 0 0 1-.16.16h-1.2a.22.22 0 0 1-.15-.06.23.23 0 0 1-.08-.14 4.46 4.46 0 0 0-1.76-3.08ZM24.13 44.53c.23-.03.58.13.98.16.16.02.24.15.22.4a.22.22 0 0 1-.12.18.21.21 0 0 1-.22-.02l-.88-.66a.03.03 0 0 1 0-.06h.02ZM27.65 46.87c0 .08-.05.14-.13.13a.13.13 0 0 1-.07-.03l-1.4-.96a.36.36 0 0 1-.13-.4l.17-.46a.22.22 0 0 1 .2-.15h1.19c.08 0 .17.08.17.16v1.71Z" fill="#6DAF24"/><path d="M20.38 14.13a5.21 5.21 0 0 0-2.29 3.42.73.73 0 0 1-.87.57l-.05-.02a.71.71 0 0 1-.54-.58.73.73 0 0 1 0-.28c.29-1.21.8-2.25 1.56-3.12a.35.35 0 0 1 .26-.12h1.89a.07.07 0 0 1 .06.05.07.07 0 0 1-.02.08Z" fill="#FE021B"/><path d="M14.62 14.15a11.57 11.57 0 0 0-1 3.43.62.62 0 0 1-.31.45l-.08.05a.15.15 0 0 1-.23-.13v-3.8c0-.04.01-.07.04-.1a.13.13 0 0 1 .1-.04h1.4a.1.1 0 0 1 .08.05.1.1 0 0 1 0 .1Z" fill="#FE5A1E"/><path d="M17.14 14a.1.1 0 0 1 .1.1.1.1 0 0 1-.02.06c-1.7 2.53-1.85 5.21-.46 8.05a.1.1 0 0 1 .01.06c0 .02-.01.05-.03.06l-.95.95a.06.06 0 0 1-.04.01.06.06 0 0 1-.04-.02c-1.6-2.77-1.92-6.33-.2-9.13a.3.3 0 0 1 .26-.14h1.37ZM26.33 15.36a4.48 4.48 0 0 1 .23 6.1 4.4 4.4 0 0 1-5.27 1.13 7.5 7.5 0 0 0-.6-.27.76.76 0 0 0-.82.18l-.92.93a.2.2 0 0 1-.25.02 1.65 1.65 0 0 1-.41-.4.2.2 0 0 1 .02-.26l.93-.93a.78.78 0 0 0 .17-.83 7.6 7.6 0 0 0-.26-.6 4.46 4.46 0 0 1 1.12-5.3 4.4 4.4 0 0 1 6.06.23Zm.26 3.17a3.44 3.44 0 0 0-3.41-3.43 3.4 3.4 0 0 0-3.41 3.43 3.44 3.44 0 0 0 3.4 3.43 3.4 3.4 0 0 0 3.42-3.43ZM13 19.11a.17.17 0 0 1 .1-.15.17.17 0 0 1 .2.04l.16.16c.1.1.17.25.19.4a9.6 9.6 0 0 0 1.5 4.17.18.18 0 0 1-.02.22l-.85.85a.1.1 0 0 1-.08.03.1.1 0 0 1-.08-.05 7.09 7.09 0 0 1-1.12-2V19.1Z" fill="#FE021B"/><path d="M17.64 22.19a7.1 7.1 0 0 1-.99-2.37.74.74 0 0 1 .51-.87h.04a.73.73 0 0 1 .84.47l.6 1.81a.28.28 0 0 1-.07.3l-.68.68a.16.16 0 0 1-.13.05.16.16 0 0 1-.12-.07Z" fill="#FE5A1E"/><path d="M27.64 21.82v1.59l-.01.06c0 .02-.02.03-.04.05a6.28 6.28 0 0 1-3.18 1.57.72.72 0 0 1-.83-.54v-.02a.68.68 0 0 1 .54-.84c.91-.15 2.06-.78 3.45-1.9a.05.05 0 0 1 .05 0h.02v.03ZM16.87 23.23l-.42.4a.45.45 0 0 0-.01.64l1 1.04c.17.18.45.18.63.01l.42-.4a.45.45 0 0 0 .01-.64l-1-1.04a.45.45 0 0 0-.63-.01Z" fill="#FE021B"/><path d="m19.52 23.85.68-.69a.29.29 0 0 1 .29-.07l1.8.6a.73.73 0 0 1 .48.84v.03a.73.73 0 0 1-.87.52 7.03 7.03 0 0 1-2.4-1.03.17.17 0 0 1-.02-.13c0-.03.02-.05.04-.07Z" fill="#FE5A1E"/><path d="M27.64 24.62V26a.3.3 0 0 1-.14.25c-2.77 1.73-6.3 1.4-9.03-.21l-.02-.02a.06.06 0 0 1 0-.05v-.02l.95-.95a.1.1 0 0 1 .06-.03.1.1 0 0 1 .06.01c2.8 1.4 5.46 1.25 7.98-.44a.1.1 0 0 1 .1 0 .1.1 0 0 1 .04.08Z" fill="#FE021B"/><path d="m13.17 24.64.39.68a.27.27 0 0 1-.1.36l-.31.17a.1.1 0 0 1-.1 0 .1.1 0 0 1-.05-.08v-1.08a.09.09 0 0 1 .12-.09l.05.04Z" fill="#FE5A1E"/><path d="m17 25.85-1.1-1.1a.38.38 0 0 0-.55 0l-.49.5a.39.39 0 0 0 0 .55l1.1 1.1c.15.15.4.15.54 0l.5-.5a.39.39 0 0 0 0-.55ZM13.79 26.35l-.38.37a.47.47 0 0 0 0 .67l.96.98c.18.18.48.19.66 0l.38-.37a.47.47 0 0 0 0-.66l-.96-.99a.47.47 0 0 0-.66 0ZM22.6 28.71a23 23 0 0 1-3.7-.07 5.86 5.86 0 0 1-1.96-1.05.1.1 0 0 1 0-.09.1.1 0 0 1 .02-.04l.84-.84a.18.18 0 0 1 .1-.05c.04 0 .08 0 .12.02a9.46 9.46 0 0 0 4.14 1.48c.15.01.29.08.39.19l.16.16a.17.17 0 0 1-.11.3Z" fill="#FE021B"/><path d="M27.64 28.6a.13.13 0 0 1-.04.1.14.14 0 0 1-.1.03h-3.79a.15.15 0 0 1-.15-.17l.02-.08.05-.07a.62.62 0 0 1 .45-.31 11.41 11.41 0 0 0 3.47-1.02.1.1 0 0 1 .08.06l.01.05v1.4Z" fill="#FE5A1E"/><path d="M13.54 28.4v.1a.15.15 0 0 1-.06.08.23.23 0 0 1-.11.03c-.05 0-.09 0-.12-.02-.2-.09-.29-.25-.23-.5a.1.1 0 0 1 .12-.09.1.1 0 0 1 .05.02c.19.15.3.28.35.39Z" fill="#FE021B"/><path d="M17.08 28.58a.09.09 0 0 1-.05.16l-1.05-.01a.1.1 0 0 1-.08-.15l.18-.3a.26.26 0 0 1 .35-.09l.65.39Z" fill="#FE5A1E"/><path d="M23.18 21.24a2.7 2.7 0 0 0 2.7-2.7 2.7 2.7 0 0 0-2.7-2.72 2.7 2.7 0 0 0-2.7 2.71 2.7 2.7 0 0 0 2.7 2.71Z" fill="#FE021B"/></svg>