<!-- by TradingView --><svg width="56" height="56" viewBox="0 0 56 56" xmlns="http://www.w3.org/2000/svg"><path fill="url(#a)" d="M0 0h56v56H0z"/><path d="M35.92 34H34.9l1.33-4h1.27l1.33 4H37.8l-.92-3h-.03l-.93 3Zm-.13-1.57h2.14v.73h-2.14v-.73ZM33.75 31.22a.44.44 0 0 0-.18-.32.68.68 0 0 0-.42-.12.86.86 0 0 0-.31.05.4.4 0 0 0-.19.13.31.31 0 0 0-.06.19c0 .05 0 .1.03.15l.12.12.18.09.25.06.34.08c.19.04.36.1.51.17.15.07.28.15.38.24.1.1.18.21.23.34.05.12.08.26.08.42 0 .25-.06.46-.19.63-.12.18-.3.32-.53.4-.24.1-.52.15-.84.15-.33 0-.62-.05-.87-.15-.24-.1-.43-.24-.57-.44-.13-.2-.2-.45-.2-.76h.9c.01.13.05.23.1.32.07.08.15.14.25.19.11.04.23.06.37.06.13 0 .24-.02.33-.05.1-.03.16-.08.21-.14a.33.33 0 0 0 .08-.21.29.29 0 0 0-.07-.19.52.52 0 0 0-.21-.14c-.1-.04-.21-.07-.36-.1l-.4-.1a1.8 1.8 0 0 1-.81-.38.89.89 0 0 1-.3-.7c0-.24.07-.45.2-.63s.32-.33.55-.43c.23-.1.5-.15.8-.15.3 0 .57.05.8.15.22.1.4.25.52.43.12.19.19.4.19.64h-.91ZM28 34v-4h3v.79h-2v.82h1.85v.78H29v.82h2V34h-3ZM26.64 31.22a.44.44 0 0 0-.17-.32.68.68 0 0 0-.43-.12.86.86 0 0 0-.3.05.4.4 0 0 0-.2.13.31.31 0 0 0-.06.19c0 .05.01.1.04.15.02.04.06.08.11.12l.19.09.24.06.34.08c.2.04.37.1.51.17.15.07.28.15.38.24.1.1.18.21.23.34a1.08 1.08 0 0 1-.1 1.06c-.13.17-.3.3-.54.4-.23.1-.51.14-.84.14-.33 0-.62-.05-.86-.15-.25-.1-.44-.24-.57-.44-.14-.2-.21-.45-.21-.76h.9c.02.13.05.23.11.32.06.08.14.14.25.19.1.04.23.06.37.06.13 0 .23-.02.32-.05.1-.03.17-.08.21-.14a.34.34 0 0 0 .08-.21.29.29 0 0 0-.07-.19.52.52 0 0 0-.2-.14c-.1-.04-.22-.07-.36-.1l-.41-.1a1.8 1.8 0 0 1-.81-.38.89.89 0 0 1-.3-.7c0-.24.07-.45.2-.63.14-.18.32-.33.55-.43.24-.1.5-.15.8-.15.3 0 .57.05.8.15a1.14 1.14 0 0 1 .72 1.07h-.92ZM24 30v4h-1v-4h1ZM18.32 34l-1.15-4h1.06l.6 2.62h.02l.68-2.62h.86l.68 2.63h.03l.6-2.63h1.05l-1.14 4h-.92l-.71-2.43h-.03L19.24 34h-.92ZM48.47 27v-4h.97v1.6H51V23h1v4h-1v-1.6h-1.56V27h-.97ZM45.22 27h-1.03l1.33-4h1.27l1.33 4H47.1l-.93-3h-.03l-.92 3Zm-.14-1.57h2.14v.73h-2.14v-.73ZM40.67 27v-4h1.63c.3 0 .55.05.77.16.21.1.38.26.5.46.11.2.17.44.17.71 0 .28-.06.52-.18.7-.12.2-.29.35-.5.45-.23.1-.49.15-.79.15h-1.03v-.76h.86c.14 0 .26-.02.36-.06.1-.04.17-.1.22-.17a.56.56 0 0 0 .07-.3.57.57 0 0 0-.07-.31.45.45 0 0 0-.22-.19.92.92 0 0 0-.36-.06h-.47V27h-.96Zm2.22-1.83.98 1.83h-1.04l-.96-1.83h1.02ZM39.2 24.33a.68.68 0 0 0-.09-.22.61.61 0 0 0-.37-.25.95.95 0 0 0-.26-.03c-.19 0-.35.04-.5.13a.88.88 0 0 0-.31.4c-.08.17-.12.39-.12.63 0 .25.04.47.11.64.07.18.18.31.32.4.14.1.3.14.5.14.18 0 .33-.02.45-.08a.62.62 0 0 0 .37-.6l.17.01h-.95v-.68h1.7v.51c0 .35-.08.65-.23.9-.15.25-.35.44-.62.57-.26.13-.56.2-.9.2-.37 0-.7-.08-.99-.24-.28-.16-.5-.4-.66-.69-.16-.3-.24-.65-.24-1.06 0-.32.05-.6.14-.85.1-.25.23-.46.4-.64.18-.17.38-.3.6-.39.24-.09.48-.13.74-.13.23 0 .44.03.64.1.2.06.37.15.52.27a1.36 1.36 0 0 1 .55.95h-.96ZM35 23h1v2.55c0 .3-.07.55-.22.77-.14.21-.34.38-.6.5-.26.12-.56.18-.9.18-.35 0-.66-.06-.91-.18a1.41 1.41 0 0 1-.6-.5 1.37 1.37 0 0 1-.22-.77V23h.98v2.46c0 .14.03.26.1.37.06.1.14.19.26.25.1.06.24.1.38.1a.8.8 0 0 0 .39-.1c.11-.06.2-.14.26-.25a.7.7 0 0 0 .08-.37V23ZM32 23v4h-.84l-1.62-2.3h-.03V27h-.98v-4h.85l1.6 2.3H31V23h1ZM25.41 27h-1.02l1.33-4h1.26l1.33 4H27.3l-.93-3h-.03l-.92 3Zm-.14-1.57h2.14v.73h-2.14v-.73ZM20.07 27h-1.03l1.33-4h1.27l1.33 4h-1.02l-.93-3h-.03l-.92 3Zm-.14-1.57h2.14v.73h-2.14v-.73ZM18.7 24.46h-.99a.8.8 0 0 0-.08-.26.65.65 0 0 0-.4-.33.94.94 0 0 0-.3-.04.9.9 0 0 0-.5.13.89.89 0 0 0-.33.4c-.07.18-.1.4-.1.64 0 .26.03.48.1.65.08.17.2.3.33.4.14.08.3.12.5.12a1 1 0 0 0 .29-.04.73.73 0 0 0 .23-.11.65.65 0 0 0 .17-.19.75.75 0 0 0 .1-.25h.98a1.4 1.4 0 0 1-.16.51 1.63 1.63 0 0 1-.9.79c-.21.08-.46.12-.73.12-.37 0-.7-.08-.98-.23a1.7 1.7 0 0 1-.68-.68A2.2 2.2 0 0 1 15 25c0-.43.08-.8.25-1.09.17-.3.4-.52.69-.68a2.22 2.22 0 0 1 1.64-.13c.21.06.4.16.55.28.16.13.28.28.38.46.1.18.16.4.19.62ZM14.5 23v4h-.85l-1.63-2.3H12V27h-1v-4h.85l1.62 2.3h.04V23h.99ZM7.78 27H6.75l1.33-4h1.27l1.33 4H9.66l-.93-3H8.7l-.92 3Zm-.14-1.57h2.14v.73H7.64v-.73ZM4 27v-4h1.63c.3 0 .55.06.76.18.22.11.38.27.5.48.12.2.18.45.18.72 0 .28-.06.52-.18.73-.12.2-.29.36-.51.48-.22.11-.48.17-.78.17h-1V25h.82c.15 0 .27-.03.36-.08.1-.05.17-.12.22-.21.05-.1.08-.2.08-.33a.65.65 0 0 0-.08-.32.5.5 0 0 0-.22-.2.79.79 0 0 0-.36-.08H5V27H4Z" fill="#fff"/><defs><linearGradient id="a" x1="10.42" y1="9.71" x2="68.15" y2="76.02" gradientUnits="userSpaceOnUse"><stop stop-color="#1A1E21"/><stop offset="1" stop-color="#06060A"/></linearGradient></defs></svg>