<!-- by TradingView --><svg width="56" height="56" viewBox="0 0 56 56" xmlns="http://www.w3.org/2000/svg"><path fill="#F0F3FA" d="M0 0h56v56H0z"/><path fill-rule="evenodd" d="M43 42.8a.2.2 0 0 1-.19.2H13.2a.19.19 0 0 1-.13-.06.2.2 0 0 1-.06-.13V13.19c0-.05.02-.1.06-.13a.19.19 0 0 1 .13-.06H42.8c.05 0 .1.02.13.06a.2.2 0 0 1 .06.13v29.62ZM31.2 25.46c-.37 0-.4.1-.07.28 1.74 1 2.56 2.67 3.4 4.4l.04.07a.57.57 0 0 0 .5.32h6.8c.14 0 .14.06.13.18V31.87c.01.08.02.13-.09.13h-5.8l-.06.01a.12.12 0 0 0-.05.11 38.98 38.98 0 0 1 2.54 3.82c.47.78.92 1.52 1.36 2.15l.2.31c.43.64.73 1.09 1.66 1.2a.32.32 0 0 1 .27.22.33.33 0 0 1-.07.33 8.66 8.66 0 0 1-3.9 2.42.27.27 0 0 1-.1-.03l-.37-.22a.23.23 0 0 0-.21 0c-.36.16-.57.24-.65.23a.59.59 0 0 1-.5-.42l-.91-3.23a31.62 31.62 0 0 0-2.87-6.77.28.28 0 0 0-.1-.1.27.27 0 0 0-.14-.03h-3.17c-.08 0-.14.02-.18.1l-.67 1.29c-.05.1-.06.2-.02.3.17.49.56.8 1.14.92.22.05.27.17.14.36a5.5 5.5 0 0 1-2.54 1.77.25.25 0 0 1-.11-.04c-.37-.24-.67-.17-.91.2-.52.78-1.01 1.39-1.48 1.83-.41.38-1 .73-1.61 1.1-.64.37-1.3.77-1.8 1.22-.47.43-.85.66-1.15.69-.8.08-1.44.06-1.94-.05a.2.2 0 0 1-.12-.07.21.21 0 0 1-.04-.14.35.35 0 0 1 .22-.31c.07-.04.15-.06.24-.09.16-.05.34-.1.5-.25a45.27 45.27 0 0 0 4.45-5.14 13.7 13.7 0 0 0 1.48-2.85.62.62 0 0 0-.27-.78.6.6 0 0 0-.29-.06h-4.37c-.23 0-.4.1-.5.31a5.16 5.16 0 0 1-2.1 2.43c-.31.16-.59.42-.86.68-.63.6-1.26 1.2-2.29.65a.31.31 0 0 1-.16-.28.31.31 0 0 1 .17-.27c1.3-.65 2.24-2.05 3-3.33a.14.14 0 0 0-.04-.19h-2.77c-.17 0-.16-.08-.16-.22v-1.05c0-.14 0-.2.16-.2h3.62c.09 0 .16-.05.2-.13.25-.37.4-.74.46-1.09a18.4 18.4 0 0 1 1-3.7.18.18 0 0 0-.08-.14.17.17 0 0 0-.09-.02h-4.95a.31.31 0 0 1-.22-.1.32.32 0 0 1-.07-.1.33.33 0 0 1-.03-.12v-.8c0-.23.12-.33.34-.33h5.2c.06 0 .12-.03.17-.07.05-.04.08-.1.1-.16l.29-1.25c.46-1.92.82-3.44.38-5.25a.74.74 0 0 1 .57-.9c1.35-.26 2.52.6 3.09 1.75a.4.4 0 0 1 .03.27 24.15 24.15 0 0 1-1.73 5.4c-.06.12-.02.21.12.21h4.48c.1 0 .16-.07.18-.17l.15-.59c.17-.67.46-1.83.87-3.62.11-.48.24-1.62.39-3.4.03-.36-.02-.73-.08-1.1-.04-.3-.08-.6-.08-.9 0-.29.13-.46.4-.53a6.23 6.23 0 0 1 2.95.02c.1.02.18.07.25.15.44.53.96 1.06 1.57 1.6.36.32.44.81.21 1.46a68.17 68.17 0 0 0-.9 2.85c-.45 1.55-.92 2.53-1.54 3.84l-.07.14a.17.17 0 0 0 .01.16l.06.06.09.03h10.26c.24 0 .24.11.24.35V25.2c0 .17 0 .26-.19.26H31.2Zm-7.95.35 2.38 3.73.03.03a.07.07 0 0 0 .1-.05l1.11-3.62a.18.18 0 0 0-.1-.22.19.19 0 0 0-.08-.02h-3.35a.1.1 0 0 0-.1.1l.01.05Zm-2.78 4.67c.55-.99.72-1.98.9-3.11l.02-.05a.06.06 0 0 1 .1-.03 13.15 13.15 0 0 1 2.19 3.26.11.11 0 0 1-.06.09.11.11 0 0 1-.05.01h-3a.11.11 0 0 1-.1-.06.12.12 0 0 1 0-.11Zm8.88.19 1.75-.03a.09.09 0 0 0 .09-.1l-.02-.05-1.37-1.7a.09.09 0 0 0-.09-.03.09.09 0 0 0-.06.07l-.39 1.73a.09.09 0 0 0 .02.08.09.09 0 0 0 .07.03Z" fill="#ED1D24"/></svg>