<!-- by TradingView --><svg width="56" height="56" viewBox="0 0 56 56" xmlns="http://www.w3.org/2000/svg"><path fill="#F0F3FA" d="M0 0h56v56H0z"/><path d="M47.4 24.21c0-.14-.12-.21-.26-.21H45.3c-.2 0-.29-.15-.29-.36v-1.32c0-.2.09-.32.29-.32h4.59l.04.02a.12.12 0 0 1 .07.07l.01.04v3.95a.39.39 0 0 1-.15.3 7.3 7.3 0 0 1-6.81 1.29c-2.81-.8-3.46-4.49-2.8-7.12.8-3.22 3.47-3.73 6.28-3.5 1.7.14 2.8 1.04 3.27 2.71a.18.18 0 0 1-.02.15.17.17 0 0 1-.11.08l-2.44.47a.32.32 0 0 1-.21-.03.33.33 0 0 1-.15-.15c-.28-.6-.78-.93-1.48-1-2.29-.18-2.56 2.37-2.34 4.2.29 2.29 2.25 2.76 4 1.7.42-.26.35-.6.35-.97Z" fill="#EB1E28"/><path d="M19.78 24.48 12.5 36.72a.57.57 0 0 1-.2.2.54.54 0 0 1-.27.08H6.12c-.02 0-.04 0-.06-.02a.12.12 0 0 1-.04-.04.13.13 0 0 1 0-.13L16.7 18.83a3.5 3.5 0 0 1 3.72-1.8c1.08.15 1.9.65 2.46 1.53l2.33 3.87a.42.42 0 0 1 0 .42l-2.98 5.03a.15.15 0 0 1-.06.05.14.14 0 0 1-.13 0 .15.15 0 0 1-.06-.05l-2-3.4a.12.12 0 0 0-.05-.04.11.11 0 0 0-.16.04ZM31.73 17c1.87 0 2.59.81 3.59 2.5A20837.53 20837.53 0 0 0 45.6 36.87a.13.13 0 0 1-.06.11.11.11 0 0 1-.06.02h-6.03a.37.37 0 0 1-.18-.05.4.4 0 0 1-.14-.14 5600.2 5600.2 0 0 1-7.34-12.35.17.17 0 0 0-.07-.02c-.02 0-.05 0-.07.02a5236.2 5236.2 0 0 1-7.34 12.35.4.4 0 0 1-.15.14.36.36 0 0 1-.18.05h-6.03c-.02 0-.05 0-.06-.02a.12.12 0 0 1-.05-.05.13.13 0 0 1 0-.12L28.15 19.5c1-1.69 1.71-2.5 3.59-2.5Z" fill="#026939"/><path d="m26.3 35.05 3.1-5.14a.1.1 0 0 1 .04-.03.1.1 0 0 1 .1 0 .1.1 0 0 1 .04.03l4.18 6.93a.1.1 0 0 1-.04.14.1.1 0 0 1-.05.02h-6.2a.1.1 0 0 1-.09-.05l-1.08-1.8a.1.1 0 0 1 0-.1Z" fill="#026939"/></svg>