<!-- by TradingView --><svg width="56" height="56" viewBox="0 0 56 56" xmlns="http://www.w3.org/2000/svg"><path fill="#F0F3FA" d="M0 0h56v56H0z"/><path d="m28.28 13.4 1.14-4.66a.16.16 0 0 1 .11-.12L31.9 8c.04 0 .06 0 .07.04l.68 2.56a.03.03 0 0 1 0 .03.04.04 0 0 1-.03.01c-.96.12-1.78.43-2.32 1.27-.44.66-1.14 1.5-1.95 1.56a.07.07 0 0 1-.06-.02.07.07 0 0 1-.01-.06Z" fill="#A7CE38"/><path d="M14.25 31.48c.7-2.16 1.16-3.59 1.37-4.28.04-.15.08-.22.25-.24 1.14-.14 1.87-.78 2.42-1.72.22-.39.36-.61.41-.67a3.3 3.3 0 0 1 2.34-1.1.1.1 0 0 1 .06.02l.04.05L23.16 31c.03.1.06.1.1 0l4.76-15.82c.04-.13.16-.2.3-.23 1.04-.19 1.56-.8 2.04-1.68a2.7 2.7 0 0 1 2.28-1.3c.04-.01.06 0 .07.04.3 1.36.58 2.46.81 3.3l2.7 9.53c.13.48.23.76.29.85.34.51 1.23.59 1.68.16.11-.1.2-.31.29-.61l.2-.66a4.87 4.87 0 0 1 2.7-3.05 4.1 4.1 0 0 1 2.14-.37c.05 0 .1.02.13.05.04.03.07.07.08.11.54 1.44.9 2.9 1.1 4.39a16.7 16.7 0 0 1-6.05 15.47 16.76 16.76 0 0 1-20.51.56 21.73 21.73 0 0 1-5.19-5.35l.01-.01h.01a4.47 4.47 0 0 0 2.69-.78c.03-.02.05-.01.07.01 1.28 1.8 2.76 3.41 4.7 4.58a13.5 13.5 0 0 0 9.38 1.8c2.2-.36 4.28-1.16 6.21-2.4a14.48 14.48 0 0 0 6.01-8c.7-2.59.6-5.16-.3-7.73-.03-.07-.05-.07-.08 0-.2.6-.4 1.15-.59 1.66-.28.77-.56 1.58-1.06 2.07-.57.57-1.22.93-2.08 1.01-.73.07-1.42 0-2.07-.2-1.2-.37-1.69-1.27-2-2.39a6483.2 6483.2 0 0 1-3.27-11.54h-.01l-.01.02-6.43 23.1c0 .01 0 .02-.02.03h-.03l-2.08-.49a.35.35 0 0 1-.25-.24l-3-10.5c-.02-.08-.04-.08-.06 0l-1.52 5.55a4.45 4.45 0 0 1-1.05 1.72 4.47 4.47 0 0 1-3.59 1.65c-.04 0-.1-.02-.17-.07a.34.34 0 0 1-.1-.14 16.56 16.56 0 0 1-1.27-8.67c.5-4.25 2.5-8.13 5.84-10.86a18.96 18.96 0 0 1 11.05-4.07c.07 0 .1.02.07.09l-.76 2.73c0 .02 0 .03-.02.04a.07.07 0 0 1-.04.02c-4.18.33-8.14 2.23-10.62 5.54a14.43 14.43 0 0 0-2.42 11.55c0 .04.02.04.03 0Z" fill="#307BBF"/><path d="M42.38 19.84a4.1 4.1 0 0 0-2.06.66c-.03.02-.06.02-.08-.02a14.87 14.87 0 0 0-5.74-4.93.1.1 0 0 1-.05-.07l-.75-3.01c-.01-.05 0-.06.04-.04 2.03.8 3.79 1.77 5.28 2.92a13.64 13.64 0 0 1 3.74 4.41c.04.06.02.1-.05.1-.1 0-.2-.03-.33-.02Z" fill="#307BBF"/><path d="M18.39 23.95c-.4.63-.85 1.15-1.5 1.56a2.63 2.63 0 0 1-.95.34.1.1 0 0 1-.06-.07.1.1 0 0 1 0-.05l1.48-5.32a.24.24 0 0 1 .18-.17l2.66-.63c.05-.01.08 0 .09.06l.77 2.86a.03.03 0 0 1 0 .02.04.04 0 0 1-.02.02c-1.04.18-2.06.45-2.65 1.38Z" fill="#A7CE38"/></svg>