<!-- by TradingView --><svg width="56" height="56" viewBox="0 0 56 56" xmlns="http://www.w3.org/2000/svg"><path fill="#F0F3FA" d="M0 0h56v56H0z"/><path d="M25.33 18.15 37.3 30.14c1.08 1.08 1.08 2.3.01 3.64-.15.18-.58.62-1.3 1.31-1.3 1.27-2.75 1.15-3.95-.05L18.82 21.75c-.57-.56-1.37-.83-2.4-.8-.16.01-.18-.04-.07-.15 2.18-2.23 5.52-5.57 8.98-2.65Z" fill="#006CB7"/><path d="M34.55 17c1.08.25 1.87.61 2.37 1.09 2.86 2.72 7.13 7.06 12.82 13.02.94 1.4-.83 3-2.29 4.2-1.4 1.14-2.68.78-3.88-.42L29.02 20.31c-.16-.17-.16-.34 0-.52 1.3-1.41 2.23-2.38 4.04-2.79h1.5Z" fill="#C4161C"/><path d="M6.23 31.19c3.18-3.52 5.95-6.38 8.32-8.6 1.57-1.47 3.06-.6 4.37.78.24.26 1.03 1.06 2.38 2.4a.13.13 0 0 1 0 .19l-9.11 9.16c-1.3 1.31-2.7 1.04-4.01-.12-1.29-1.13-2.76-2.68-1.95-3.81Z" fill="#009E4D"/></svg>