<!-- by TradingView --><svg width="56" height="56" viewBox="0 0 56 56" fill="none" xmlns="http://www.w3.org/2000/svg">
<rect width="56" height="56" fill="#F0F3FA"/>
<path fill-rule="evenodd" clip-rule="evenodd" d="M14.8573 12C13.2793 12 12.0001 13.2958 12.0001 14.8942V41.1058C12.0001 42.7042 13.2793 44 14.8573 44H41.143C42.7209 44 44.0001 42.7042 44.0001 41.1058V14.8942C44.0001 13.2958 42.7209 12 41.143 12H14.8573ZM23.1766 18.9456C20.0509 27.5642 17.0927 36.0021 17.0927 36.0021C17.0927 36.0021 17.0001 36.4249 17.0034 36.9999C17.0001 37.9509 17.4578 39.3178 19.3812 39.875C19.84 40 20.2524 40.0133 20.6221 40C22.7394 40 23.4557 37.8567 23.4557 37.8567L24.1097 35.6769C24.9457 34.9743 26.2789 33.8686 27.9038 33.27C28.589 33.0175 29.5174 32.9079 30.551 32.7857H30.5511L30.5515 32.7857C30.7321 32.7644 30.9158 32.7427 31.102 32.7197L32.6654 37.7648C32.6654 37.7648 33.2599 40 35.4071 39.9999C35.7834 40.0031 36.2074 39.9387 36.6842 39.7831C38.5102 39.1871 39.0001 37.8665 39.0001 36.8433C39.0001 36.0747 38.7494 35.4738 38.7494 35.4738C38.7494 35.4738 38.0173 33.4945 36.9583 30.623C37.4251 30.2054 37.8454 29.6998 38.1996 29.0845C38.8138 28.0176 39.0001 26.5214 38.9989 25.2797C39.0001 24.006 38.866 23 38.866 23C38.866 23 37.8517 25.1569 35.4929 26.6463C34.5821 24.1719 33.5888 21.4686 32.6654 18.9456C32.0846 17.3586 31.1816 16 28.0001 16C24.8185 16 23.7733 17.3005 23.1766 18.9456ZM29.6719 28.1046C28.0724 28.3617 26.7513 29.2612 25.7325 30.2676L28.0001 22.7095L29.6719 28.1046Z" fill="#EC2028"/>
</svg>
