<!-- by TradingView --><svg width="56" height="56" viewBox="0 0 56 56" xmlns="http://www.w3.org/2000/svg"><path fill="#F0F3FA" d="M0 0h56v56H0z"/><path d="M42.13 23.75c-.55-.7-2.27-.5-3.13-.33l-.02-.07c0-.01 0-.02.02-.02 1.83-.7 5-.42 4.6 2.32-.01.09-.05.1-.1.03-.9-1-1.9-1.68-3.02-2.01-.16-.05-.16-.1 0-.15.4-.14.93-.03 1.58.32.16.08.19.05.07-.09Z" fill="#59C1CC"/><path d="M29.56 26c-.41 0-.56.14-.56.58v3.23c0 .12-.11.19-.23.19h-.6c-.12 0-.17-.06-.17-.18v-6.55c0-.18.08-.27.25-.27h.47c.15 0 .28.07.28.25v1.85l.01.05.03.05.05.02a.1.1 0 0 0 .05 0c1.08-.33 2.58-.57 2.86 1.07v3.51c0 .13-.12.2-.24.2h-.53c-.13 0-.23-.07-.23-.2v-3.12c0-.5-.2-.68-.67-.68h-.77ZM44.88 26h-.37c-.1 0-.15-.05-.15-.15v-.7c0-.1.04-.15.13-.15h.36c.1 0 .15-.04.15-.14v-.66c0-.13.07-.2.2-.2h.56c.15 0 .24.07.24.2v.63c0 .05 0 .1.03.12.03.04.08.05.12.05h1.06c.14 0 .2.07.2.2v.62a.18.18 0 0 1-.17.18h-1.09a.17.17 0 0 0-.12.05c-.03.03-.03.07-.03.12v2.37c0 .12.03.24.12.33.1.09.21.13.34.13h.85c.09 0 .13.05.13.14v.6c0 .1-.05.15-.14.17-.18.04-.47.07-.86.09-1.23.06-1.43-.61-1.44-1.67v-2.12c0-.14-.04-.2-.12-.2ZM42.83 31.32c2-2.45-2-3.44-3.43-4.05-1.22-.52-2-1.68-1.34-2.92.15-.31.23-.3.22.05-.03 1.08.47 1.82 1.51 2.25 1.62.65 4.03 1.29 4.08 2.8a2.2 2.2 0 0 1-.98 1.94c-.02.02-.05.01-.07-.02v-.05Z" fill="#C4AF3E"/><path d="m38.63 25.17 1.4 1.34.04.04a.13.13 0 0 1-.04.06h-.04a2.29 2.29 0 0 1-1.39-1.42c-.02-.05 0-.06.03-.02Z" fill="#C4AF3E"/><path d="M6.08 27.06c.66.12 1.6.2 1.84.98.33 1.12-.4 1.9-1.54 1.95a8.61 8.61 0 0 1-2.02-.13c-.14-.03-.21-.12-.21-.26v-.37c0-.16.08-.23.23-.2.56.1 1.2.14 1.91.12.33 0 .55-.13.66-.37a.5.5 0 0 0-.1-.57.48.48 0 0 0-.18-.1 7.7 7.7 0 0 0-.75-.17c-.66-.12-1.6-.2-1.84-.98-.33-1.12.4-1.9 1.54-1.95.72-.03 1.39.01 2.02.13.14.03.21.12.21.26v.37c0 .16-.08.23-.23.2a9.4 9.4 0 0 0-1.91-.12c-.33 0-.55.13-.66.37a.5.5 0 0 0 .1.57c.06.05.12.08.18.1.13.04.38.1.75.17ZM11.12 26.98c.31-.03.42-.2.32-.52l-.04-.15c-.09-.28-.27-.31-.55-.31h-1.7c-.23 0-.23-.42-.23-.55 0-.06.02-.12.06-.17a.24.24 0 0 1 .14-.08c1.16-.2 3.28-.66 3.32 1.26v2.43c0 .1.03.16.11.2.23.13.35.33.36.6 0 .05-.01.1-.03.14a.3.3 0 0 1-.08.1.26.26 0 0 1-.25.05l-.94-.28h-.1c-1 .31-2.58.7-2.83-.82-.32-1.96 1.24-1.8 2.44-1.9Zm.32 2v-1.3a.06.06 0 0 0-.02-.04.05.05 0 0 0-.04-.01l-1.27.14a.64.64 0 0 0-.4.21.57.57 0 0 0-.12.2.53.53 0 0 0-.02.21l.03.33a.52.52 0 0 0 .21.37.64.64 0 0 0 .44.12l1.14-.16h.02l.02-.02.01-.02V29Z" fill="#136FAE"/><path d="M35.68 26.98c.3-.03.41-.2.31-.52l-.04-.15c-.09-.28-.27-.31-.54-.31H33.7c-.23 0-.23-.42-.23-.55 0-.06.02-.12.06-.17a.24.24 0 0 1 .14-.08c1.16-.2 3.3-.66 3.33 1.26v2.43c0 .1.03.16.1.2.23.13.35.33.36.6 0 .05-.01.1-.03.14a.3.3 0 0 1-.08.1.26.26 0 0 1-.25.05l-.94-.28h-.1c-1 .31-2.58.7-2.83-.82-.31-1.96 1.24-1.8 2.45-1.9Zm.32 2v-1.3l-.01-.02a.06.06 0 0 0-.03-.03h-.03l-1.27.14a.64.64 0 0 0-.4.21.57.57 0 0 0-.12.2.53.53 0 0 0-.02.21l.03.33a.52.52 0 0 0 .21.37.64.64 0 0 0 .44.12l1.14-.16h.03l.01-.02.01-.02L36 29ZM50.22 26.98c.3-.03.41-.2.32-.52l-.05-.15c-.09-.29-.27-.31-.54-.31h-1.71c-.23 0-.22-.43-.22-.55 0-.06.02-.12.05-.17a.24.24 0 0 1 .14-.08c1.16-.2 3.3-.66 3.33 1.26v2.43c0 .09.03.16.1.2.24.13.35.33.36.6 0 .05-.01.1-.03.14a.3.3 0 0 1-.08.1.26.26 0 0 1-.25.05l-.94-.28h-.1c-1 .31-2.57.7-2.82-.83-.32-1.95 1.23-1.79 2.44-1.9Zm.32 2v-1.3l-.01-.02a.06.06 0 0 0-.03-.03h-.02l-1.28.14a.64.64 0 0 0-.4.2.57.57 0 0 0-.11.2.53.53 0 0 0-.03.22l.03.33a.52.52 0 0 0 .22.37.64.64 0 0 0 .44.12l1.14-.16a.05.05 0 0 0 .03-.02l.01-.02.01-.02Z" fill="#C4AF3E"/><path d="M15 26.6v3.19c0 .14-.12.21-.25.21h-.54c-.14 0-.21-.07-.21-.22v-4.51c0-.1.04-.15.13-.17.3-.06.59-.02.84.1a.3.3 0 0 0 .24.03c1.35-.42 2.73-.44 2.79 1.51v3.1c0 .1-.07.16-.17.16h-.62c-.12 0-.21-.06-.21-.19v-3.16c0-.5-.2-.76-.67-.76h-.72c-.44 0-.61.24-.61.72ZM22 28.4V25.2c0-.14.12-.21.25-.21h.54c.14 0 .21.07.21.22v4.51c0 .1-.04.15-.13.17-.3.06-.59.02-.84-.1a.3.3 0 0 0-.24-.03c-1.35.42-2.73.44-2.79-1.51v-3.1c0-.1.07-.16.17-.16h.62c.12 0 .21.06.21.19v3.16c0 .5.2.76.67.76h.72c.44 0 .61-.24.61-.72ZM25.16 25.36c.02.03.04.06.08.07h.1l1.36-.4c.2-.07.3 0 .3.19v.52c0 .05-.02.1-.05.14a.28.28 0 0 1-.14.1l-1.54.42a.41.41 0 0 0-.2.13.34.34 0 0 0-.07.22v3.06c0 .05-.03.1-.07.13a.22.22 0 0 1-.15.06h-.56a.23.23 0 0 1-.16-.06.2.2 0 0 1-.06-.14v-4.56c0-.08.05-.14.13-.16.54-.13.89-.04 1.03.28Z" fill="#136FAE"/><path d="M41.5 31.72a6.92 6.92 0 0 1-1.28-.14c-.3-.09-.43-.27-.37-.55.86.46 1.63.38 2.31-.23.48-.42.58-1 .32-1.75-.03-.1 0-.12.08-.07.21.13.34.33.4.6.27 1.23-.22 1.9-1.46 1.96-.08 0-.1.04-.06.1a.3.3 0 0 0 .06.08Z" fill="#59C1CC"/><path d="M39.85 31.03c-.06.28.06.46.37.55.23.06.65.11 1.28.14.16 0 .28.03.38.09.1.05.1.08-.01.1-2 .32-4.07-.12-4.02-2.55 0-.11.04-.13.12-.06l1.88 1.73Z" fill="#136FAE"/></svg>