<!-- by TradingView --><svg width="56" height="56" viewBox="0 0 56 56" xmlns="http://www.w3.org/2000/svg"><path fill="#F0F3FA" d="M0 0h56v56H0z"/><path d="M21.36 13a6.8 6.8 0 0 1 2.44 2h13.06v4H31v18h-6v-4.98C22.92 35.26 18.28 36 15.97 36c-1.44 0-2.4-.18-2.97-.37v1.87h25V13H21.36ZM13 24.6v6.23c.66.3 1.68.61 2.97.61 2.39 0 3.98-1.07 3.98-2.61 0-1.55-1.35-2.9-4.15-3.21a6.18 6.18 0 0 1-2.8-1.03ZM40 13v24.5h3V13.79a.79.79 0 0 0-.79-.79H40Zm3 25h-3v.3h3V38Zm0 2h-3v3h2.21c.44 0 .79-.35.79-.79V40Zm-5 3v-3H13v2.21c0 .44.35.79.79.79H38Zm-25-4.7h25V38H13v.3Zm12-13.25V19H19.78c0-.47-.47-3.25-3.32-3.25-2.85 0-3.27 1.9-3.27 2.5 0 .6 0 2.81 6.35 3.63 2.84.37 4.52 1.72 5.46 3.17Z" fill="url(#a)"/><defs><linearGradient id="a" x1="13" y1="28.3" x2="43" y2="28.3" gradientUnits="userSpaceOnUse"><stop offset=".08" stop-color="#613335"/><stop offset=".37" stop-color="#8D2D2F"/><stop offset="1" stop-color="#DC2329"/></linearGradient></defs></svg>