<!-- by TradingView --><svg width="56" height="56" viewBox="0 0 56 56" xmlns="http://www.w3.org/2000/svg"><path fill="#F0F3FA" d="M0 0h56v56H0z"/><path d="m30.3 20.66 1 .06-.45-.22c-.24-.12-.44-.18-.64-.24a8.1 8.1 0 0 0-4.21.01c-3.55.9-6.33 4.92-5.74 8.63.2 1.33.67 2.61 1.48 3.67l.56.73c.16.2.51.52 1.07.95 2.93 2.27 6.55 1.87 9.5 0 1.4-.88 1.98-2.44 2.77-3.78-1.43 1.22-2.8 1.99-4.67 1.95a6.51 6.51 0 0 1-6.03-4.33c-.78-2.19-.52-5.15 1.12-6.89.93-.99 3.25-1.07 4.24-.54Z" fill="#054FA2"/><path d="M27.91 20c1-.14 3.15.35 3.29.77-1.8.8-3.98 1.9-4.27 3.96-.24 1.66.16 3.3 1.54 4.34.61.47 1.22.76 1.83.88 1.82.34 3.72-.24 4.76-1.87.37-.57.64-1.22.81-1.93a9.64 9.64 0 0 1-.23 4.32c-1.43 1.22-2.8 1.99-4.67 1.95a6.51 6.51 0 0 1-6.03-4.33c-.78-2.19-.52-5.15 1.12-6.89.25-.26.56-.55.95-.85.12-.1.25-.16.37-.19.16-.03.4-.2.53-.16Z" fill="#0086CC"/><path d="M31.3 20.72c1.01.5 1.64.86 1.89 1.06.86.73 1.53 1.6 2.01 2.61.29.6.5 1.2.67 1.76a6.36 6.36 0 0 1-.8 1.93c-1.05 1.63-2.95 2.21-4.77 1.87-.6-.12-1.22-.41-1.83-.88-1.38-1.05-1.78-2.68-1.54-4.34.33-2.3 2.72-4.11 4.37-4.01Z" fill="#00B3F0"/><path d="M30.4 23.4c1.08-.38 2-.15 2.76.7.8.9.53 2.22-.16 3.1-.09.12-.2.2-.36.26-3.28 1.76-5.16-3-2.24-4.05Z" fill="#96D9F9"/><path d="m23.03 16.96.24-.1a9.3 9.3 0 0 1 1.8-.66c2.17-.5 4.34-.06 6.51-.46.77-.14 1.56-.37 2.36-.68.34-.13.68-.32 1.01-.56.42-.3.83-.56 1.26-.77.26-.13.31-.26.41-.5l.03-.05a.13.13 0 0 0-.06-.16c-.8-.45-1.48-.72-2.54-1.14l-.25-.1a8.5 8.5 0 0 0-1.57-.45C18.06 8.66 5.18 22.68 13.77 37.23c.44.75 1.35 2.12 2.1 2.57.04.02.12.01.13-.03v-12.2c.01-.57.05-.98.1-1.23.72-4.1 3.15-7.64 6.93-9.38Z" fill="url(#a)"/><path d="M26.22 44.93c-.77-.07-4.92-1.02-5.22-1.7v-5.31c.01-.06 0-.12.04-.1.32.16.66.35 1.02.56.35.2.71.41 1.1.61 9.07 3.77 17.87-3.94 16.96-12.62-.26-2.47-1.63-4.42-2.65-6.6-.58-1.22-.64-2.7-.66-4.01-.01-.64.04-1.13.15-1.49.08-.23.21-.37.4-.56l.14-.13c.03-.03.06-.03.1 0l.05.06c.13.14.26.28.46.4a9.5 9.5 0 0 1 1.5 1.2c11.89 11.53 2.64 31.07-13.4 29.7Z" fill="url(#b)"/><defs><linearGradient id="a" x1="30.5" y1="13.54" x2="12.6" y2="33.13" gradientUnits="userSpaceOnUse"><stop stop-color="#039DF2"/><stop offset="1" stop-color="#004CA1"/></linearGradient><linearGradient id="b" x1="30.5" y1="13.54" x2="12.6" y2="33.13" gradientUnits="userSpaceOnUse"><stop stop-color="#039DF2"/><stop offset="1" stop-color="#004CA1"/></linearGradient></defs></svg>