<!-- by TradingView --><svg width="56" height="56" viewBox="0 0 56 56" xmlns="http://www.w3.org/2000/svg"><path fill="#F0F3FA" d="M0 0h56v56H0z"/><path d="M28 12c.8 0 1.48 1.77 1.6 2.34.17.72-.38 1.24-.9 1.67a.24.24 0 0 0-.08.23c.34 2.3 1.01 5.06 2.5 6.87 1.58 1.92 3.51 1.32 4.87-.42a8 8 0 0 0 1.69-4.64.45.45 0 0 0-.07-.25c-.72-1.2-.56-2.22.47-3.08a.52.52 0 0 1 .59-.05.5.5 0 0 1 .15.14c.89 1.2.47 2-.35 3.08a.37.37 0 0 0-.08.24c.06 1.69.4 3.98 1.49 5.12.66.71 2.28.6 2.98.31a3.4 3.4 0 0 0 2.05-2.35.37.37 0 0 0-.01-.25c-.52-1.23-.66-2.45.64-3.2.83-.47 1.37.17 1.45.9.14 1.35-.77 1.8-1.7 2.54a.3.3 0 0 0-.09.14l-4.58 14.55c-.01.03-.03.05-.06.07a.16.16 0 0 1-.09.04H15.53a.16.16 0 0 1-.09-.04.15.15 0 0 1-.05-.07l-4.6-14.55a.3.3 0 0 0-.09-.14c-.92-.74-1.83-1.19-1.69-2.53.08-.74.62-1.37 1.45-.9 1.3.74 1.16 1.96.64 3.2a.37.37 0 0 0-.01.24 3.4 3.4 0 0 0 2.05 2.35c.7.29 2.32.4 2.98-.3 1.08-1.15 1.43-3.44 1.5-5.13 0-.09-.03-.17-.09-.24-.82-1.08-1.24-1.88-.35-3.08a.5.5 0 0 1 .35-.2.52.52 0 0 1 .4.1c1.02.87 1.18 1.9.46 3.09a.45.45 0 0 0-.07.25 8 8 0 0 0 1.7 4.64c1.35 1.74 3.28 2.34 4.86.42 1.49-1.81 2.16-4.58 2.5-6.87a.24.24 0 0 0-.09-.23c-.5-.43-1.06-.95-.9-1.67.13-.57.82-2.34 1.6-2.34Z" fill="#D1221F"/><path d="M32.52 30.07c-.13-.15-.2-.13-.2.05v3.51c0 .23-.13.34-.4.34h-.47a.51.51 0 0 1-.32-.11.33.33 0 0 1-.13-.26v-7.3c0-.2.13-.3.38-.3h.57c.25 0 .37.1.37.3v3.12c0 .16.06.17.18.05l3.26-3.18c.1-.1.23-.18.38-.23.15-.05.32-.06.48-.05l.23.03c.38.04.44.18.2.42l-3.22 3.16c-.07.06-.07.12-.01.18l3.47 3.8c.18.2.12.3-.18.34l-.5.05a.8.8 0 0 1-.72-.24l-3.37-3.68ZM24 32.35a.1.1 0 0 0 .04 0l.03-.04c1.22-2.58 2.15-4.59 2.8-6 .08-.16.29-.26.64-.28.46-.04.83-.03 1.1.02.12.03.21.08.28.16.07.07.11.17.11.26v7.23c0 .19-.11.29-.34.29h-.63c-.23 0-.35-.1-.35-.3v-6.3c0-.3-.06-.32-.19-.04l-2.84 6.52c-.02.05-.1.09-.22.11-.07.01-.21.02-.43.02s-.36 0-.42-.02c-.13-.02-.2-.06-.23-.11l-2.82-6.52c-.12-.28-.19-.27-.19.03v6.3c0 .2-.12.3-.36.3h-.64c-.23 0-.34-.1-.34-.29v-7.22c0-.1.05-.2.12-.27a.5.5 0 0 1 .28-.15c.27-.06.64-.07 1.1-.03.35.03.56.13.64.29a806.2 806.2 0 0 0 2.82 6.03l.04.01Z" fill="#F0F3FA"/><path d="m19.87 39.88-1.42 3.02a.18.18 0 0 1-.08.08.17.17 0 0 1-.1.02l-.38-.06a.09.09 0 0 1-.06-.05l-1.37-3.05c-.06-.14-.1-.13-.12.01L16 42.4c-.02.13.02.23.12.31l.16.15.02.05a.09.09 0 0 1-.09.1h-.69c-.1 0-.14-.05-.13-.16l.67-4.68c.01-.1.07-.16.17-.16h.28c.04 0 .08.01.11.03.04.03.07.06.09.1l1.67 3.49.03.03.05.02c.01 0 .03 0 .04-.02a.1.1 0 0 0 .04-.03l1.64-3.5a.2.2 0 0 1 .18-.12h.3c.1 0 .17.05.18.15l.6 4.85h-1.08l-.38-3.1c-.01-.13-.05-.13-.1-.02ZM23.45 40.5c0 1.06.02 1.74.06 2.07 0 .1.07.19.17.22.03.01.05.03.07.07.06.1.04.14-.07.14H22.6c-.1 0-.14-.05-.14-.15l.01-2.36c0-1.05-.02-1.73-.05-2.06a.26.26 0 0 0-.18-.22.13.13 0 0 1-.07-.07c-.06-.1-.04-.14.07-.14h1.08c.1 0 .14.05.14.15l-.01 2.36Z"/><path d="m24.49 40.17 2.3 2.8a.02.02 0 0 1-.01.03h-1.35c-.02 0-.04 0-.06-.02a.13.13 0 0 1-.04-.04l-1.67-2.38a.27.27 0 0 1 0-.31l1.67-2.13a.3.3 0 0 1 .12-.1.29.29 0 0 1 .13-.02h.55c.25.01.27.12.06.26-.53.34-1.1.9-1.7 1.67-.07.08-.07.16 0 .24ZM29.6 41.2h-1.15c-.1 0-.16.05-.21.14-.28.5-.4 1-.4 1.5 0 .13-.05.17-.16.16h-.64l1.85-4.86a.22.22 0 0 1 .07-.1.2.2 0 0 1 .12-.04h.4c.09 0 .14.04.17.11l1.66 4.33c.04.1.1.18.18.24l.15.1c.16.12.14.22-.05.22h-1.04c-.04 0-.08-.06-.12-.08a.2.2 0 0 1-.07-.1l-.57-1.47c-.03-.1-.1-.14-.2-.14Zm-.59-.38c.23 0 .39-.01.47-.03.1-.03.13-.09.1-.18a148.89 148.89 0 0 0-.52-1.42H29l-.03.02-.52 1.39c-.03.09 0 .15.09.18.08.02.24.03.47.04ZM33.46 40.97a3.3 3.3 0 0 0 .24 1.95c.03.05.02.08-.04.08h-1.1c-.06 0-.09-.03-.09-.1v-4.33a.28.28 0 0 0-.1-.21l-.16-.14c-.11-.1-.1-.15.05-.15 1.07-.06 4.4-.47 3.73 1.75-.27.9-1.5 1.05-2.27.95-.16-.03-.24.04-.26.2Zm.01-2.43v1.67l.02.12a.15.15 0 0 0 .08.08l.05.02h.43a.88.88 0 0 0 .62-.22.83.83 0 0 0 .27-.58l.01-.36a.82.82 0 0 0-.23-.6.88.88 0 0 0-.6-.26l-.5-.02a.14.14 0 0 0-.1.05.15.15 0 0 0-.05.1ZM39.4 40.68l1.42 2.2c.05.08.03.12-.06.12h-.97a.38.38 0 0 1-.21-.06.42.42 0 0 1-.15-.18l-1.07-2.27c-.03-.07-.01-.1.05-.12.85-.13 1.13-.67.86-1.61a.33.33 0 0 0-.16-.21c-.3-.16-.62-.2-.97-.16-.1.02-.14.08-.14.19v3.9c0 .1.03.18.11.24l.18.14c.12.1.1.14-.04.14h-1.1c-.1 0-.15-.05-.15-.16v-3.68c0-.4.06-.7-.26-.98a.1.1 0 0 1-.03-.1l.03-.04a27.03 27.03 0 0 1 2.44-.02c1.53.13 1.73 2.01.3 2.43a.15.15 0 0 0-.1.16c0 .03 0 .05.02.07Z"/></svg>