<!-- by TradingView --><svg width="56" height="56" viewBox="0 0 56 56" fill="none" xmlns="http://www.w3.org/2000/svg">
<rect width="56" height="56" fill="#F0F3FA"/>
<path fill-rule="evenodd" clip-rule="evenodd" d="M31.9979 32.375H28.9979V46H31.9979V32.375ZM27.002 32.6875H24.002V46H27.002V32.6875Z" fill="url(#paint0_linear_5085_141877)"/>
<path fill-rule="evenodd" clip-rule="evenodd" d="M28 26C28 26 21.9729 21.3308 21.9729 16.3574C21.9729 12.5515 24.6874 9.99998 28 9.99997C32.3124 9.99996 33.9999 13.5202 33.9999 16.3574C33.9999 21.2702 28 26 28 26ZM25 16.3574C25 14.5713 26.125 12.9062 28 12.9062C29.4707 12.9062 31 13.8447 31 16.3574C31 19.0426 29.3733 20.7711 28.1363 22.0854L27.9999 22.2305C26.3749 20.7168 25 18.3857 25 16.3574ZM29.0122 32.9999H30.625H30.6255C32.8121 32.9999 36.7477 32.9999 39.4375 31.3172C42.1701 29.5591 43.9974 26.6393 43.9974 23.8461C44 22.7828 43.6588 21.602 42.9941 20.7317C42.0497 19.495 40.6967 19.0045 39.2501 19C32.7525 19 29.0066 25.1249 29.0066 31.9925C28.9889 32.6242 29.0122 32.9999 29.0122 32.9999ZM32 30C32 30 32.584 29.9986 33.4376 30C36.2699 30.0046 41 27.97 41 24.1829C41.0027 23.6885 40.919 23.1341 40.5625 22.7187C40.2636 22.3705 39.6807 22 39.0309 22C35.4774 22 32.2011 26.3211 32 30ZM25.3725 32.9999H26.9852C26.9852 32.9999 27.0085 32.6242 26.9909 31.9925C26.9909 25.1249 23.245 19 16.7474 19C15.3007 19.0045 13.9478 19.495 13.0033 20.7317C12.3387 21.602 11.9975 22.7828 12 23.8461C12 26.6393 13.8273 29.5591 16.56 31.3172C19.2497 32.9999 23.1853 32.9999 25.372 32.9999H25.3725ZM22.5598 30C23.4134 29.9986 23.9975 30 23.9975 30C23.7963 26.3211 20.52 22 16.9665 22C16.3168 22 15.7339 22.3705 15.435 22.7187C15.0785 23.1341 14.9947 23.6885 14.9975 24.1829C14.9975 27.97 19.7276 30.0046 22.5598 30Z" fill="url(#paint1_linear_5085_141877)"/>
<defs>
<linearGradient id="paint0_linear_5085_141877" x1="27.9999" y1="29.6802" x2="28.2036" y2="44.9956" gradientUnits="userSpaceOnUse">
<stop offset="0.155226" stop-color="#124700"/>
<stop offset="0.862078" stop-color="#46B700"/>
</linearGradient>
<linearGradient id="paint1_linear_5085_141877" x1="28.75" y1="6.24609" x2="28.2363" y2="31.8095" gradientUnits="userSpaceOnUse">
<stop stop-color="#0F3C07"/>
<stop offset="0.287956" stop-color="#114107"/>
<stop offset="0.871884" stop-color="#288700"/>
</linearGradient>
</defs>
</svg>
