<!-- by TradingView --><svg width="56" height="56" viewBox="0 0 56 56" xmlns="http://www.w3.org/2000/svg"><path fill="#F0F3FA" d="M0 0h56v56H0z"/><path d="M25.57 19.8c.6 1.08 1.19 2.2 1.78 3.38.13.27.24.53.31.78.06.22.15.57.1.79a.07.07 0 0 1-.05.04.07.07 0 0 1-.07 0 1.39 1.39 0 0 1-.18-.18c-.4-.49-.82-.95-1.28-1.4-.84-.82-1.7-1.6-2.6-2.34a19.2 19.2 0 0 0-5.1-3.3 8.5 8.5 0 0 0-3.36-.68.04.04 0 0 1 0-.04c.05-.1.12-.22.22-.35 1.35-1.83 3.8-2.94 5.93-1.67 1.6.94 2.7 2.42 3.66 3.95l.64 1.03ZM32.27 21.07a51.8 51.8 0 0 0-1.8 1.6 22.67 22.67 0 0 0-1.95 2.03.67.67 0 0 1-.17.15h-.03a.05.05 0 0 1-.04-.02l-.01-.02c-.02-.18-.01-.36.03-.54.08-.34.18-.65.33-.94a88.01 88.01 0 0 1 1.79-3.4c1.13-1.88 2.37-3.92 4.34-5.05a3.67 3.67 0 0 1 1.78-.54c.8-.01 1.52.16 2.19.51a5.74 5.74 0 0 1 2.18 2.08.04.04 0 0 1-.03.02l-.97.06a9.4 9.4 0 0 0-2.85.83c-.94.47-1.95 1.02-2.72 1.57-.6.42-1.28.97-2.07 1.66Z" fill="#029916"/><path d="M23.3 21.17c.92.8 1.82 1.6 2.7 2.44.46.43.88.82 1.2 1.36.08.15.13.3.16.42a.07.07 0 0 1-.09.08c-.1-.02-.18-.06-.27-.1-.93-.56-1.9-1.03-2.9-1.43l-2.27-.9a20.68 20.68 0 0 0-6.39-1.5c-.62-.03-1.24 0-1.87.07-.56.07-1.09.24-1.71.44a.43.43 0 0 1-.1.02.04.04 0 0 1-.03-.01.04.04 0 0 1 0-.03c.03-.23.1-.42.18-.68.28-.84.72-1.58 1.32-2.22.75-.8 1.83-1.4 2.93-1.46.38-.01.77.02 1.2.1 1.3.28 2.52.89 3.61 1.64.8.55 1.58 1.14 2.32 1.76ZM33.9 23.07c-1.2.44-2.3.9-3.35 1.4a13.83 13.83 0 0 0-1.46.78.41.41 0 0 1-.17.05.05.05 0 0 1-.04-.02v-.04c.03-.31.28-.66.48-.9.17-.2.42-.45.75-.76a112.75 112.75 0 0 1 2.45-2.24h.02a33.2 33.2 0 0 1 1.86-1.45 9.92 9.92 0 0 1 4.1-1.92c.62-.11 1.24-.1 1.86.1 1.66.56 2.76 2 3.22 3.67.03.09.06.19.07.3 0 .01 0 .02-.03.02l-.1-.01-.57-.18a8.55 8.55 0 0 0-3.51-.24c-.95.12-1.66.23-2.12.33-1.19.26-2.33.67-3.47 1.11Z" fill="#029916"/><path d="M30.42 19.93a88.02 88.02 0 0 0-1.8 3.4c-.13.29-.24.6-.32.94-.2-.13-.4-.23-.63-.3a4.89 4.89 0 0 0-.32-.79 92.8 92.8 0 0 0-1.78-3.37 6.87 6.87 0 0 1 4.85.12Z" fill="#A3D5E8"/><path d="M27.66 23.96c.23.08.44.18.64.3a1.54 1.54 0 0 0-.02.57.05.05 0 0 0 .06.02.67.67 0 0 0 .18-.15c.19-.2.37-.42.55-.63.11.08.2.17.29.27a2.04 2.04 0 0 0-.49.93.05.05 0 0 0 .03.03h.02c.06 0 .11-.02.17-.05l.5-.27c.1.1.16.21.19.36l-.48.2a.06.06 0 0 0-.03.05.06.06 0 0 0 .02.06c.04.03.1.05.16.06.35.06.7.1 1.04.12l.03.34c-.44-.02-.89-.07-1.33-.03a.19.19 0 0 0-.08.02.07.07 0 0 0-.03.06.07.07 0 0 0 .03.06c.12.1.26.19.42.27.82.45 1.65.87 2.49 1.27l-.29.53-1.84-.9a1.8 1.8 0 0 0-.55-.2c-.07 0-.1.05-.06.11.16.3.39.54.6.8l-.62.35c-1.13.52-2.29.35-3.39-.11.2-.23.4-.47.59-.72.07-.1.13-.2.17-.29a.05.05 0 0 0-.01-.05.06.06 0 0 0-.05-.02.64.64 0 0 0-.21.05c-.28.12-.56.24-.83.38l-.27-.66c.29-.14.58-.3.86-.45.2-.1.37-.21.51-.33a.1.1 0 0 0 .04-.07.05.05 0 0 0-.04-.05 1.56 1.56 0 0 0-.43-.03l-3.42.16c-.37.02-.95.08-1.75.18a1 1 0 0 1 0-.33c1.75-.14 3.82-.25 5.2-.34.22-.02.53-.03.74-.13a.06.06 0 0 0 .02-.1.79.79 0 0 0-.23-.13L25.4 25l-1.36-.46.05-.61c1 .4 1.97.87 2.9 1.42.09.05.18.1.27.11a.07.07 0 0 0 .07-.01.07.07 0 0 0 .02-.07 1.43 1.43 0 0 0-.17-.42c-.31-.54-.74-.93-1.19-1.36a77.52 77.52 0 0 0-2.7-2.44l.28-.3c.9.74 1.76 1.52 2.6 2.34.46.45.87.91 1.28 1.4l.18.17a.07.07 0 0 0 .1 0l.02-.03c.05-.22-.04-.57-.1-.79Z" fill="#C3DCE4"/><path d="M32.27 21.07c.12.06.22.15.3.27l-.01.01c-.57.5-1.38 1.24-2.45 2.23-.33.31-.58.57-.75.76-.08-.1-.18-.2-.3-.27.43-.46.9-.93 1.4-1.4a51.9 51.9 0 0 1 1.8-1.6Z" fill="#A3D5E8"/><path d="m34.66 26.1-4.17-.27c-.35-.03-.7-.06-1.04-.12a.33.33 0 0 1-.16-.06.06.06 0 0 1 .01-.1l.48-.21a261 261 0 0 1 3.31-1.13l1.15-.34c.51-.14 1.25-.36 2.2-.65 1.18-.35 2.36-.57 3.7-.82a6.2 6.2 0 0 1 2.3-.01c.56.1 1.15.31 1.56.66.44.38.72.87.83 1.45.18.98.13 1.94-.17 2.9-.24.78-.59 1.57-1.04 2.38-.07.12-.21.3-.36.2a1.2 1.2 0 0 1-.28-.26c-.65-.84-1.39-1.57-2.21-2.17-.4-.29-.84-.5-1.33-.64a20.88 20.88 0 0 0-4.78-.82ZM21.48 23.78c.87.23 1.73.5 2.57.77a211.9 211.9 0 0 0 2.7.92c.1.04.18.08.24.13l.01.02a.06.06 0 0 1-.03.08c-.2.1-.52.11-.73.13-1.4.1-3.46.2-5.2.34-1.55.1-3.06.38-4.54.82a5.18 5.18 0 0 0-2.13 1.36c-.48.43-.92.9-1.3 1.4-.1.12-.2.2-.3.27-.16.11-.3-.1-.38-.23l-.4-.75a9.3 9.3 0 0 1-.83-2.36 6.2 6.2 0 0 1-.06-1.62c.1-1.14.61-2 1.71-2.41a5.99 5.99 0 0 1 3.07-.23c1.33.25 2.38.44 3.55.77l2.05.6Z" fill="#026B0F"/><path d="m24.1 23.94-.05.61a43.6 43.6 0 0 0-2.57-.77c.08-.26.2-.5.35-.74l2.27.9ZM33.9 23.07c.14.25.25.52.34.8l-1.15.34a261 261 0 0 0-3.31 1.13.65.65 0 0 0-.2-.36c.38-.22.7-.39.97-.52 1.05-.49 2.16-.95 3.34-1.39ZM34.66 26.1v.36c-1.38-.18-2.76-.22-4.14-.29l-.03-.34 4.17.26Z" fill="#A3D5E8"/><path d="M30.52 26.17c1.38.07 2.76.11 4.13.3 2.2.26 4.38.76 6.08 2.17.35.29.64.63.89 1a6.24 6.24 0 0 1 .36 5.83.04.04 0 0 1-.05-.02c-.3-.5-.62-1.1-1-1.58a13.12 13.12 0 0 0-2.43-2.35l-.78-.58c-.67-.5-1.38-.94-2.13-1.34-.48-.26-.97-.51-1.47-.75l-2.1-1.03c-.84-.4-1.67-.82-2.5-1.27a2.95 2.95 0 0 1-.44-.3.07.07 0 0 1 .03-.09.19.19 0 0 1 .08-.02c.44-.04.89 0 1.33.03ZM25.26 27.1l-3.68 1.79c-.5.25-1.01.5-1.5.77-.77.41-1.52.9-2.23 1.43-.65.5-1.22.9-1.72 1.4a10.83 10.83 0 0 0-2.27 2.93.04.04 0 0 1-.05-.02 6.43 6.43 0 0 1-.46-3.51c.14-.97.58-2 1.21-2.73.31-.36.7-.69 1.16-1 1.61-1.04 3.45-1.4 5.32-1.66.79-.1 1.37-.16 1.74-.18l3.42-.16c.15-.01.3 0 .43.03a.05.05 0 0 1 .04.05.1.1 0 0 1-.04.07c-.14.12-.31.23-.5.33l-.87.45Z" fill="#004D09"/><path d="m25.26 27.1.27.65-2.47 1.2c-.3.15-.7.35-1.15.6-.13-.2-.24-.43-.33-.66l3.68-1.8Z" fill="#A3D5E8"/><path d="m31.73 28.35 2.12 1.05c1.22.66 2.45 1.4 3.53 2.24.59.47 1.1.97 1.56 1.5.67.8 1.22 1.72 1.36 2.77a5.85 5.85 0 0 1-2.14 5.26l-.03-.01-.04-.08a10.72 10.72 0 0 0-1.5-4.6c-.53-.9-.9-1.5-1.1-1.8a32.73 32.73 0 0 0-2.95-3.55l-2.66-2.97c-.21-.26-.44-.5-.6-.8-.03-.06-.01-.1.06-.1.11-.02.42.12.55.19l1.84.9ZM25.87 28.4l-2.57 2.85c-1.07 1.18-2.15 2.37-3.02 3.7-.29.45-.64 1.03-1.06 1.76-.42.72-.76 1.53-1.01 2.32-.15.46-.26.95-.32 1.45a73.02 73.02 0 0 1-.11.74.05.05 0 0 1-.04.01c-.02 0-.04 0-.06-.03a5.86 5.86 0 0 1-2.08-5.25c.14-1.03.7-1.96 1.38-2.76.55-.66 1.22-1.26 1.98-1.82a25.6 25.6 0 0 1 2.95-1.82c.46-.25.84-.45 1.15-.6a2820.6 2820.6 0 0 0 3.3-1.58.65.65 0 0 1 .21-.05.06.06 0 0 1 .05.02.05.05 0 0 1 0 .05c-.03.1-.09.2-.16.29l-.59.72Z" fill="#00401E"/><path d="M34.12 28.85c-.06.2-.15.38-.27.55l-2.12-1.05.29-.53 2.1 1.03ZM32.54 31.13a6.87 6.87 0 0 1-9.24.12l2.57-2.85c1.1.46 2.26.63 3.39.1.14-.06.34-.18.62-.34l2.66 2.97Z" fill="#A3D5E8"/><path d="M30.83 37.01c-.3 0-.57 0-.83.05a.46.46 0 0 0-.27.19 10.15 10.15 0 0 0-.43.54c-.05.01-.1 0-.14-.04a.04.04 0 0 1-.02-.05l.28-1.15a.09.09 0 0 1 .06-.07.09.09 0 0 1 .09.03c.14.17.3.2.57.2.78.05 1.57.05 2.35 0 .27-.01.45-.06.65-.22a.06.06 0 0 1 .06-.01.06.06 0 0 1 .04.04l.17 1.1c.01.11 0 .2-.13.2l-.04-.01a7.05 7.05 0 0 0-.46-.63c-.15-.18-.8-.18-1.03-.17a.02.02 0 0 0-.02.03v3.25c0 .11 0 .32.15.33l.3.02c.05 0 .06.02.06.06v.12c0 .04-.01.06-.05.06-.58-.03-1.19-.03-1.82 0-.04 0-.06-.02-.06-.07v-.12c0-.04.02-.06.06-.06h.3a.18.18 0 0 0 .18-.18v-3.4a.03.03 0 0 0-.02-.04ZM36.11 38.87c-.02.01-.02.02 0 .03.17.08.32.22.44.4.27.44.52.81.76 1.12.14.18.27.2.48.22.05 0 .07.03.07.07v.1c0 .04-.02.06-.06.06h-1.16a.11.11 0 0 1-.08-.04c-.3-.38-.51-.82-.77-1.3a1.6 1.6 0 0 0-.22-.31.5.5 0 0 0-.46-.18c-.03 0-.05.02-.05.06l.01.99c0 .15.02.3.04.44a.12.12 0 0 0 .13.1h.2c.06 0 .08.03.08.07v.1c0 .05-.02.07-.06.07h-1.59c-.04 0-.07-.03-.07-.08v-.08c0-.05.03-.08.08-.08.13 0 .34.03.36-.16l.01-.35a412.7 412.7 0 0 0-.01-2.98c-.03-.21-.22-.17-.37-.18a.06.06 0 0 1-.06-.06v-.12c0-.04.02-.05.06-.05h1.58c.34 0 .57 0 .7.04.45.1.76.33.94.75.06.14.07.29.04.44-.08.46-.39.75-.84.86l-.18.05Zm-1.04-.05c0 .02.01.03.03.03.38.01.74-.06.96-.41.2-.33.24-.67.1-1.03a.57.57 0 0 0-.15-.24 1.06 1.06 0 0 0-.65-.23c-.17-.01-.25.07-.26.23a66.6 66.6 0 0 0-.03 1.65ZM22.04 39.6c.02.04.03.04.04 0l1.15-2.77a.14.14 0 0 1 .13-.1h1.3c.02 0 .04.02.04.05v.13c0 .04-.02.05-.06.05-.06 0-.24-.01-.33.03a.06.06 0 0 0-.03.03.62.62 0 0 0-.03.23 153.67 153.67 0 0 0 .05 3.26c.01.17.2.12.35.12.05 0 .08.02.08.08v.1c0 .03-.03.06-.07.06h-1.73c-.04 0-.06-.02-.06-.07v-.1c0-.04.02-.07.07-.07h.36c.04 0 .07-.02.08-.06a.76.76 0 0 0 .03-.19c.02-.92.03-1.98.02-3.17 0-.1-.03-.1-.07 0-.55 1.29-1.02 2.4-1.4 3.34a.88.88 0 0 1-.13.23.06.06 0 0 1-.04.02.06.06 0 0 1-.05-.02.43.43 0 0 1-.1-.14c-.51-1.21-1-2.36-1.43-3.43-.04-.1-.06-.1-.07.01-.03.92-.03 1.82 0 2.69.02.2.06.68.3.71l.2.01c.06 0 .1.03.1.1v.05c0 .06-.03.09-.09.09h-1.36c-.04 0-.06-.02-.06-.06v-.12c0-.04.02-.06.06-.06.18 0 .34.04.42-.17.05-.13.08-.25.08-.36.08-.95.1-1.84.09-2.68-.01-.4-.1-.45-.49-.46-.04 0-.07-.03-.07-.07v-.08c0-.05.03-.07.08-.07h1.43a.1.1 0 0 1 .09.06l1.12 2.8ZM26.56 38.85h-.03a.06.06 0 0 0-.04.06 40.9 40.9 0 0 0 .03 1.65.1.1 0 0 0 .1.07h.19c.01 0 .03 0 .04.02l.02.04v.14l-.01.02-.03.01H25.3c-.05 0-.07-.02-.07-.06v-.08c0-.05.03-.08.08-.08.12-.01.3.03.3-.16a100.77 100.77 0 0 0-.03-3.47.1.1 0 0 0-.06-.03l-.22-.02c-.04 0-.06-.03-.06-.06v-.1a.06.06 0 0 1 .06-.07h1.53c.03 0 .05.02.05.05 0 .08 0 .13-.02.16l-.03.02c-.12.01-.32-.02-.32.18a138.97 138.97 0 0 0-.01 1.47l.02.01c.12.01.21-.03.29-.12a45.73 45.73 0 0 0 1.09-1.39c.05-.1-.03-.15-.22-.17l-.04-.01a.05.05 0 0 1-.01-.04v-.1a.05.05 0 0 1 .05-.06h1.31c.04 0 .05.02.05.06v.1a.08.08 0 0 1-.07.07l-.13.02c-.23.02-.41.15-.6.35a14.15 14.15 0 0 0-.93 1.05v.05l1.32 1.75.25.33c.07.09.19.13.34.13.04 0 .07.02.07.07v.1c0 .04-.02.06-.06.06h-1.6c-.03 0-.04-.02-.05-.05v-.12c.01-.03.03-.05.06-.05l.1-.02c.01 0 .02 0 .03-.02a.15.15 0 0 0 0-.16l-.79-1.17c-.12-.18-.24-.4-.42-.43Z" fill="#D9A623"/><path fill-rule="evenodd" d="M28 45.56a17.56 17.56 0 1 0 0-35.12 17.56 17.56 0 0 0 0 35.12Zm0 .44a18 18 0 1 0 0-36 18 18 0 0 0 0 36Z" fill="#D9A623"/></svg>