<!-- by TradingView --><svg width="56" height="56" viewBox="0 0 56 56" xmlns="http://www.w3.org/2000/svg"><path fill="#F0F3FA" d="M0 0h56v56H0z"/><path d="m34.37 18.09-3.74 8.48c0 .01 0 .02-.02.02a.05.05 0 0 1-.05 0l-.02-.02-2.13-4.83a.05.05 0 0 1 0-.04l3.82-8.67.02-.02.03-.01h4.27l.02.03L48 38.93a.05.05 0 0 1 0 .05.05.05 0 0 1-.05.02H30.85l-.02-.03-9.2-20.85-.02-.03a.05.05 0 0 0-.05 0l-.02.03-7.35 16.81a.05.05 0 0 0 .03.07H22.63l.02-.03 2.73-6.34.01-.03a.05.05 0 0 1 .06 0l.02.03 2.12 4.81a.05.05 0 0 1 0 .04l-2.42 5.49-.02.02H8.03a.05.05 0 0 1-.03-.04v-.03l11.43-25.89.01-.02.03-.01h4.27l.02.03 9.6 21.92.02.02.03.03h8.36l.03-.02.01-.02a.05.05 0 0 0 0-.05l-7.34-16.82-.02-.02a.05.05 0 0 0-.06 0l-.02.02Z" fill="#40BF9F"/></svg>