<!-- by TradingView --><svg xmlns="http://www.w3.org/2000/svg" width="56" height="56"><path fill="#F0F3FA" d="M0 0h56v56H0z"/><path fill-rule="evenodd" d="M16.33 36.8c2.08 0 3.71-.97 4.27-1.45 5.7 3.25 10.96.96 12.87-.6.45.6 1.8 2.04 5.4 2.04 5.16 0 9.13-3.86 9.13-10.17 0-5.6-5.03-8.27-7.89-8.27-2.21 0-4.13.68-4.84 1.25-6.03-3.15-10.87-.92-12.54.59-.53-.64-2.33-1.84-5.26-1.84-3.82 0-9.47 2.62-9.47 9.58a8.58 8.58 0 008.33 8.86zm.8-17.28a7.52 7.52 0 014.84 1.72c-.82.8-2.77 3.63-4.2 6.24-1.63 2.93-3.01 4.8-3.7 5.38-.72.95-5.11.47-4.63-5.38.47-5.65 4.89-7.86 7.7-7.96zm16.91 14.25c.68.6 2.6 1.8 4.84 1.72 2.8-.1 7.23-2.31 7.7-7.95.48-5.86-3.92-6.34-4.64-5.39-.68.57-2.07 2.45-3.69 5.39-1.44 2.6-3.38 5.42-4.2 6.23zm-6.8-8.82l2.5 3.56 4.66-7.54c-2.74-1.56-5.92 2-7.17 3.98zm-1 1.43l2.52 3.57c-1.25 1.98-4.44 5.53-7.17 3.98l4.65-7.55z" fill="#E63631"/></svg>