<!-- by TradingView --><svg width="56" height="56" viewBox="0 0 56 56" xmlns="http://www.w3.org/2000/svg"><path fill="#F0F3FA" d="M0 0h56v56H0z"/><path d="m36 28.02-7.8 4.55-.1.05a.18.18 0 0 1-.19 0L20 28.04v-9.38l7.91 4.6c.08.05.13.03.22 0l7.87-4.6v9.36Z" fill="#E61688"/><path d="m19.98 27.98.02.04v9.08c0 .3.02.24-.28.4l-4.15 2.17-3.47 1.8-.84.44a.91.91 0 0 1-.19.08c-.03.02-.05 0-.07-.03V23.32l.13.06c.84.45 1.7.88 2.55 1.33.93.48 1.85.96 2.78 1.46.9.47 1.8.95 2.72 1.41l.8.4Z" fill="#32A6DD"/><path d="m36 28.02 9-4.66V42l-8.77-4.52c-.25-.12-.23-.07-.23-.35v-9.11Z" fill="#8EC243"/><path d="m45 23.36-9 4.66v-9.33L45 14v9.36Z" fill="#F7E918"/><path d="m20 28.04-9-4.7V14l8.75 4.52c.07.05.17.08.25.14v9.38Z" fill="#5F328C"/></svg>