<!-- by TradingView --><svg width="56" height="56" viewBox="0 0 56 56" xmlns="http://www.w3.org/2000/svg"><path fill="#F0F3FA" d="M0 0h56v56H0z"/><path d="m10 15.3 18 10.35v6.89l-12-6.9v13.62l-6-3.44V15.3Z" fill="#0B3780"/><path d="M22 35.83v-6.8l-6-3.38v13.61l6-3.43Z" fill="#181148"/><path d="M28 25.64 46 15.3 39.91 12 28 18.9 16.08 12 10 15.3l18 10.34Z" fill="#699BCC"/><path d="M46 15.3 28 25.64v6.89l12-6.9v13.62l6-3.44V15.3Z" fill="#181148"/><path d="M34 35.83v-6.8l6-3.38v13.61l-6-3.43Z" fill="#0B3780"/><path d="m28 46 12-6.74-5.92-3.43L28 39.27l-6.07-3.44L16 39.26 28 46Z" fill="#B0B6BB"/><path d="m14.9 12.64 13.12 7.67 13.1-7.66-1.2-.65L28 18.9 16.08 12l-1.17.64Z" fill="#EC2027"/></svg>