<!-- by TradingView --><svg width="56" height="56" viewBox="0 0 56 56" xmlns="http://www.w3.org/2000/svg"><path fill="#F0F3FA" d="M0 0h56v56H0z"/><path d="M24.97 22h-1.62a.03.03 0 0 0-.02.03v9.94c0 .02 0 .03.02.03h1.62c.02 0 .03-.01.03-.03v-9.94a.03.03 0 0 0-.03-.03ZM40.38 32h-.5l-.45-.07c-2.05-.35-2.94-2.05-2.79-4.04a3.24 3.24 0 0 1 3.65-3.14c.7.05 1.55.4 1.98 1.02.03.04.04.04.04-.01v-3.7c0-.04.02-.06.06-.06h1.58c.03 0 .05.02.05.05v9.9c0 .03-.02.05-.05.05h-1.48c-.03 0-.05-.01-.05-.04l-.1-1c0-.03-.02-.04-.04 0-.47.62-1.1.97-1.9 1.04Zm.1-1.6c.51-.06.99-.34 1.31-.76a2.1 2.1 0 0 0-.33-2.88 1.92 1.92 0 0 0-2.77.33 2.1 2.1 0 0 0 .34 2.88c.4.34.93.5 1.45.43Z" fill="#373435"/><path d="M26.95 20.01c-.03-.02-.04-.01-.03.02.17.5-.05.74-.3 1-.1.12-.22.24-.3.4-.37.6-.27 1.46.5 1.65.65.16 1.24-.33 1.25-1 .03-.84-.5-1.58-1.12-2.07Zm.95 8.24a3.93 3.93 0 0 1-.36-1.77c.07-2.27 2.43-3.2 4.23-3.91a82.86 82.86 0 0 0 .32-.14l.02-.05a.06.06 0 0 0-.07-.08c-1.7.43-3.46.8-5.26 1.11-.52.1-1.17.4-1.18 1.02-.03 2.02.72 4.33 2.77 5.14h.02l.01-.02c-.15-.47-.31-.9-.5-1.3Z" fill="#0098DA"/><path d="M5.72 25.89c.56-.9 1.76-1.07 2.67-.72.48.18.84.53 1.08 1.06.02.03.04.03.06 0 .48-.68 1.03-1.1 1.89-1.18 2-.2 3.19 1 3.23 3a171.85 171.85 0 0 1 0 3.94l-.02.01H13v-3.73c0-.88-.42-1.72-1.43-1.64-.87.07-1.35.85-1.35 1.7a629.23 629.23 0 0 0-.02 3.66l-.02.01h-1.6c-.03 0-.05-.02-.05-.05v-3.42c.02-.95-.36-1.98-1.46-1.94-.71.03-1.15.54-1.32 1.22-.04.16-.06.42-.06.8v3.34c0 .03-.02.05-.05.05h-1.6c-.02 0-.04-.02-.04-.05v-6.9c0-.03.02-.05.05-.05h1.46c.02 0 .04 0 .05.02l.02.04.08.81c0 .06.03.07.06.02ZM19.47 32h-.5c-2.16-.15-3.47-1.81-3.27-3.89.08-.88.42-1.6 1.01-2.17a3.82 3.82 0 0 1 4.47-.4 3.58 3.58 0 0 1 1.33 4.28c-.5 1.3-1.5 2.04-3.04 2.18Zm-.2-1.5a1.75 1.75 0 0 0 1.3-.63 2.01 2.01 0 0 0 .49-1.43 2.08 2.08 0 0 0-.59-1.4 1.75 1.75 0 0 0-2.63.08 2.01 2.01 0 0 0-.5 1.43c.02.53.23 1.04.59 1.4.36.36.84.56 1.33.55ZM48.74 32h-.5c-2.11-.19-3.4-1.75-3.23-3.84a3.3 3.3 0 0 1 2.37-3c1.3-.4 2.88-.07 3.78.98.76.9 1 2.12.74 3.26a3.31 3.31 0 0 1-3.16 2.6Zm-.19-1.5a1.84 1.84 0 0 0 1.28-.62 2.15 2.15 0 0 0-.08-2.83 1.84 1.84 0 0 0-.61-.42 1.71 1.71 0 0 0-2 .5 2.02 2.02 0 0 0-.49 1.42 2.15 2.15 0 0 0 .58 1.4c.18.18.38.32.61.41.23.1.47.14.71.14ZM30.6 25.99a.02.02 0 0 0 .01.02.02.02 0 0 0 .03 0 3.01 3.01 0 0 1 2.24-1c1.76.06 2.78 1.47 2.8 3.17a175.09 175.09 0 0 1-.01 3.81l-.02.01h-1.59c-.03 0-.06-.02-.06-.05v-3.56c0-2.57-3.34-2.36-3.34.1v3.46c0 .03-.02.05-.05.05h-1.56c-.03 0-.05-.02-.05-.05v-6.9c0-.03.02-.05.05-.05h1.4c.03 0 .04.02.05.05l.1.94ZM26.08 27.8a4.81 4.81 0 0 0 1.66 2.03v1.99c0 .05-.01.1-.04.13a.17.17 0 0 1-.13.05h-1.32a.24.24 0 0 1-.18-.08.28.28 0 0 1-.07-.19v-3.91c0-.13.03-.14.08-.02Z" fill="#373435"/></svg>