<!-- by TradingView --><svg width="56" height="56" viewBox="0 0 56 56" xmlns="http://www.w3.org/2000/svg"><path fill="#F0F3FA" d="M0 0h56v56H0z"/><path d="m42.9 29.22.02 1.12a22.59 22.59 0 0 0 1.86-3.57c.26-.64.48-1.28.66-1.92.3-1.05.48-2.08.54-3.08.03-.56.03-1.1-.02-1.63a9.28 9.28 0 0 0-.63-2.72 7.96 7.96 0 0 0-3.77-4.12c-.9-.48-1.92-.83-3.03-1.05-.76-.15-1.57-.23-2.41-.25-.92-.02-1.88.04-2.87.18a27.02 27.02 0 0 0-7.11 2.19 31.87 31.87 0 0 0-9.7 7.01c-.63.67-1.23 1.36-1.78 2.07a25.9 25.9 0 0 0-2.5 3.8 21.27 21.27 0 0 0-1.63 4.01c-.24.87-.4 1.71-.48 2.54-.08.88-.07 1.73.04 2.54.14 1.06.45 2.05.91 2.94a7.88 7.88 0 0 0 1.93 2.4l.11-1.77c.2-2.78.45-5.54.78-8.26.15-1.28.32-2.5.5-3.64.17-1 .35-1.99.63-2.96.12-.45.3-.9.54-1.38a4.42 4.42 0 0 1 1.89-2.05c.98-.45 1.93-.06 2.68.63.4.38.76.79 1.08 1.24.4.56.78 1.17 1.14 1.82a43 43 0 0 1 1.81 3.9 62.98 62.98 0 0 0 1.6 3.53c.34.7.75 1.4 1.24 2 .49.61 1.19 1.15 2.02.96.54-.13 1-.51 1.35-.96.54-.69.98-1.54 1.37-2.32l2.37-4.78c.6-1.23 1.25-2.46 1.93-3.58.4-.65.88-1.35 1.41-1.9.44-.44 1.02-.86 1.66-.87.66 0 1.25.2 1.75.62a5.41 5.41 0 0 1 1.51 2.74c.15.54.26 1.1.34 1.66.14.95.22 1.92.25 2.91Zm-3.47 5.52.52-.55a26.9 26.9 0 0 0-.16-2.59 7.19 7.19 0 0 0-.25-1.26 2.1 2.1 0 0 0-.2-.45c-.44-.77-1.2-.27-1.64.18-.24.25-.49.55-.73.89a26.6 26.6 0 0 0-1.42 2.21c-.58.96-1.04 1.72-1.66 2.67-.51.78-1.03 1.5-1.57 2.13-.36.43-.75.82-1.14 1.16-.59.5-1.3.89-2.03 1-1.88.32-3.36-1.08-4.36-2.5l-.36-.49c-.32-.42-.64-.86-.95-1.34a97.93 97.93 0 0 1-2.2-3.53c-.36-.6-.76-1.2-1.21-1.77-.3-.37-.67-.76-1.1-.88-.52-.15-.94.67-1.09 1.06a5 5 0 0 0-.16.5c-.18.71-.33 1.52-.46 2.41a94.85 94.85 0 0 0-.62 4.8c-.22 1.8-.35 2.92-.6 4.58l-.05.4a14.12 14.12 0 0 0 3.87.63c.82.01 1.68-.03 2.57-.14.73-.1 1.48-.23 2.24-.4 1.54-.37 3.11-.9 4.68-1.6a32.71 32.71 0 0 0 10.08-7.12Z" fill="#07114A"/></svg>