<!-- by TradingView --><svg width="56" height="56" viewBox="0 0 56 56" xmlns="http://www.w3.org/2000/svg"><path fill="#F0F3FA" d="M0 0h56v56H0z"/><path d="M22.2 31.44a.15.15 0 0 0 0 .2l6.38 6.44a.3.3 0 0 0 .41 0l10.64-10.74a.23.23 0 0 0 0-.33L27.67 14.93a.3.3 0 0 1 0-.42l2.44-2.24a4.85 4.85 0 0 1 1.8-1.2c1.19-.3 1.96.33 2.84 1.21 2.95 2.99 6.48 6.55 10.61 10.7a5.44 5.44 0 0 1 1.16 6.1c-.28.61-.94 1.44-1.97 2.48L33.73 42.48a12 12 0 0 1-2.24 1.93c-1.84.99-4.39.73-5.92-.74-.95-.9-2.53-2.5-4.76-4.8-.43-.45-.68-.78-1.36-.78-4.77.02-8.49.03-11.15.02a18.26 18.26 0 0 1-1.26-.06.11.11 0 0 1-.03-.05.12.12 0 0 1 .02-.12l14.79-14.93a.24.24 0 0 1 .34 0l4.03 4.07a.3.3 0 0 1 .08.2c0 .07-.03.15-.08.2l-3.99 4.02Z" fill="#23B34A"/><path d="m37.48 27.2-4.37 4.45a.27.27 0 0 1-.19.08.26.26 0 0 1-.18-.08L22.18 20.99a.22.22 0 0 0-.25-.04.23.23 0 0 0-.07.05l-.57.58-8.73 8.81a.2.2 0 0 1-.12.06.19.19 0 0 1-.13-.04c-.2-.15-.42-.4-.64-.73a7 7 0 0 1-1.22-4.39c.17-2.76 1.74-4.36 3.7-6.18l3.87-3.85 2.21-2.18c.7-.67 1.56-.82 2.61-.48.33.1.74.4 1.23.88.75.75 5.22 5.24 13.4 13.5.08.08.08.15 0 .23Z" fill="url(#a)"/><defs><linearGradient id="a" x1="23.98" y1="12.42" x2="11.51" y2="26.16" gradientUnits="userSpaceOnUse"><stop offset=".03" stop-color="#2B78C0"/><stop offset=".47" stop-color="#1A4795"/><stop offset="1" stop-color="#0B1A3D"/></linearGradient></defs></svg>