<!-- by TradingView --><svg width="56" height="56" viewBox="0 0 56 56" xmlns="http://www.w3.org/2000/svg"><path fill="#F0F3FA" d="M0 0h56v56H0z"/><path d="m13.86 25.49-1.5-.04c-.03 0-.06 0-.08.02a.16.16 0 0 0-.06.06l-.1.16a.08.08 0 0 1-.1.03c-.03-.02-.06-.06-.06-.11-.02-.1-.07-.15-.17-.15h-1.14c-.02 0-.05 0-.07.02a.15.15 0 0 0-.05.05l-1.57 2.7c-.04.08-.07.08-.08 0l-.38-2.55a.28.28 0 0 0-.08-.16.25.25 0 0 0-.17-.07H7.14c-.17 0-.27.09-.3.26l-.93 4.75c-.05.25.04.37.28.37h.77c.22 0 .35-.1.4-.34l.22-1.14c0-.02.01-.03.03-.04l.05-.03c.02-.02.04-.01.04.01l.14 1.36c.01.09.06.14.14.16.54.13.94.04 1.2-.24a6.6 6.6 0 0 0 1.87 1.49c.93.5 1.77.86 2.53 1.1l2.32.7c.03.01.04.03.03.06l-.03.05c0 .02-.02.03-.05.03a45.68 45.68 0 0 1-6.75-1.61c-1.62-.54-5.85-2.1-4.99-4.67.39-1.14 2.17-2.13 3.22-2.58a28.9 28.9 0 0 1 5.97-1.8l2.34-.44a83.93 83.93 0 0 1 26.57.35c.34.07.52.22.8.27h.02v.01l-.01.01a83.75 83.75 0 0 0-21.2.04c-2.53.33-5.18.9-7.98 1.71a.08.08 0 0 0-.05.04.2.2 0 0 1-.01.03c-.02.02 0 .05.04.08l.04.05Z" fill="#DA251D"/><path d="m48.98 30.8-.93-2.14c-.02-.06-.01-.11.04-.16l.36-.31c.6-.52.92-1.62.27-2.26-.27-.27-.5-.4-.7-.41-1.04-.05-2.04-.08-3.02-.1a23.59 23.59 0 0 0-5.83-1.68c-.03 0-.04-.02-.04-.05l.01-.06c.01-.03.03-.04.06-.04 3.04.36 5.76.88 8.15 1.56 1.3.37 6.48 2.13 3.97 4.33a6.5 6.5 0 0 1-2.34 1.33Z" fill="#DA251D"/><path d="M33.6 26.3c.38.45.54 1.07.44 1.73-.1.66-.44 1.3-.96 1.8-.51.48-1.15.77-1.78.8a1.9 1.9 0 0 1-1.57-.66 2.17 2.17 0 0 1-.43-1.73c.1-.66.44-1.3.95-1.8a2.83 2.83 0 0 1 1.79-.8c.63-.02 1.2.21 1.57.66Zm-2.92 3.29c.14.1.3.17.48.2s.37.01.56-.04a2.14 2.14 0 0 0 1-.78c.27-.38.41-.84.4-1.26a1.3 1.3 0 0 0-.48-1.01c-.14-.1-.3-.18-.48-.2a1.27 1.27 0 0 0-.56.04c-.2.06-.38.15-.56.29-.17.13-.32.3-.45.49-.26.38-.4.83-.38 1.26.01.42.18.79.47 1ZM19.35 28.78h-1c-.14 0-.2-.07-.16-.22l.07-.4c.03-.15.12-.22.27-.22h1.88a.1.1 0 0 1 .04 0 .1.1 0 0 1 .04.03.11.11 0 0 1 .02.1l-.32 1.6a.4.4 0 0 1-.06.14.37.37 0 0 1-.1.11c-1.04.73-2.68 1.05-3.68.02-.2-.2-.3-.45-.34-.74-.27-2.17 1.25-3.69 3.24-3.49.86.09 1.32.56 1.36 1.4 0 .15-.06.23-.19.25l-.46.08a.18.18 0 0 1-.14-.04.2.2 0 0 1-.08-.13c-.06-.42-.27-.66-.63-.72-.78-.13-1.36.07-1.75.6-.45.6-.8 1.78-.12 2.34.54.45 1.47.27 2.04-.06.11-.07.17-.24.18-.52 0-.09-.03-.13-.11-.13ZM38.33 28.76c.01.16.05.17.11.02l1.23-2.85c.06-.14.16-.2.3-.2h.5l.07.01.05.05a.15.15 0 0 1 0 .14l-2.09 4.49a.17.17 0 0 1-.05.06.16.16 0 0 1-.08.03l-.59.06c-.1 0-.15-.04-.16-.15l-.26-3.04c-.02-.24-.08-.26-.19-.04l-1.42 3.06a.22.22 0 0 1-.15.13c-.2.05-.42.05-.66 0-.07 0-.11-.06-.12-.14l-.38-4.43c-.01-.16.06-.24.2-.24h.54c.14 0 .21.08.22.23l.13 2.71c.01.25.07.26.17.04l1.33-2.85c.04-.08.1-.12.18-.12h.72c.1 0 .14.05.15.15l.25 2.88ZM7.7 27.68l-.01-.03a.04.04 0 0 0-.04 0l-.02.01c-.2.36-.17.94-.27 1.32-.12.46-.2.93-.27 1.4 0 .04-.02.07-.05.1a.16.16 0 0 1-.11.05h-.59c-.02 0-.04 0-.06-.02a.13.13 0 0 1-.04-.04.15.15 0 0 1-.03-.12l.87-4.41c.02-.1.08-.16.18-.16h.86l.09.03.05.1.47 3.16c.02.15.07.16.14.02l1.72-3.2c.04-.07.1-.11.18-.11h.66c.2 0 .29.1.24.31l-.85 4.34c-.01.07-.05.1-.12.1h-.62c-.1 0-.14-.05-.12-.15l.5-2.62v-.03l-.02-.02c-.02 0-.04 0-.05.02-.26.44-.74 1.34-1.44 2.69a.2.2 0 0 1-.07.07.18.18 0 0 1-.1.03h-.52c-.09 0-.14-.05-.16-.14l-.4-2.7ZM12.59 29.59c-.02.1.02.14.11.14l2.45-.02c.13 0 .19.06.16.2l-.07.42c-.02.13-.1.2-.21.2l-3.33.01c-.14 0-.19-.07-.16-.2l.83-4.37c.02-.13.1-.2.22-.2l3.2-.02c.15 0 .2.08.17.23l-.1.45c-.03.13-.1.19-.23.19l-2.34-.02c-.1 0-.16.05-.19.16l-.13.74c-.02.1.02.15.12.15l2.22-.01a.1.1 0 0 1 .08.04.12.12 0 0 1 .03.1l-.09.58c-.01.1-.07.15-.17.15h-2.23c-.1 0-.18.05-.2.17l-.14.9ZM23.52 29.33a.18.18 0 0 0-.06-.1.16.16 0 0 0-.1-.04h-1.4c-.05 0-.1 0-.15.03a.3.3 0 0 0-.1.11l-.57.98a.42.42 0 0 1-.38.23h-.46c-.16 0-.2-.07-.12-.22l2.56-4.43c.04-.06.09-.1.15-.11.23-.07.46-.07.69-.01.07.01.12.06.14.14l.98 4.41c.03.15-.02.23-.16.23h-.62c-.15 0-.23-.08-.25-.24l-.15-.98Zm-.56-2.25-.69 1.19c-.05.1-.03.14.07.14h.85c.07 0 .1-.04.09-.1l-.18-1.2c-.02-.15-.07-.16-.14-.03ZM26.32 28.7a.24.24 0 0 0-.16.06.27.27 0 0 0-.1.16l-.28 1.45c-.02.14-.1.2-.23.2l-.51-.04c-.13 0-.19-.08-.16-.22l.87-4.4c0-.05.03-.1.07-.13a.2.2 0 0 1 .14-.05c.6.03 1.22.04 1.85.03.37 0 1.04.05 1.25.44.2.37.24.75.13 1.15-.42 1.47-1.69 1.36-2.87 1.35Zm.14-1.93-.18.93c-.03.12.02.18.13.18l1.26-.06c.32-.01.54-.2.66-.59v-.02c.04-.4-.11-.6-.48-.6l-1.19-.01a.2.2 0 0 0-.13.04.22.22 0 0 0-.07.13ZM43.8 29.88l-.1.54c0 .03-.02.06-.04.08a.13.13 0 0 1-.09.03h-3.43c-.02 0-.04 0-.06-.02a.13.13 0 0 1-.05-.03.14.14 0 0 1-.02-.12l.88-4.49c0-.03.02-.06.04-.08a.13.13 0 0 1 .09-.03h3.3l.06.01.04.04a.14.14 0 0 1 .03.12l-.1.56c-.02.03-.03.06-.06.08a.13.13 0 0 1-.08.03h-2.47a.13.13 0 0 0-.09.03.14.14 0 0 0-.04.08l-.15.76a.15.15 0 0 0 .03.12l.04.04.06.01h2.2a.13.13 0 0 1 .1.05l.03.06v.06l-.12.58c0 .03-.02.06-.04.08a.13.13 0 0 1-.09.03h-2.3a.13.13 0 0 0-.08.04.14.14 0 0 0-.04.08l-.18.92a.15.15 0 0 0 .03.12c0 .02.02.03.04.04l.06.01h2.48c.02 0 .04 0 .05.02.02 0 .04.02.05.04a.14.14 0 0 1 .03.11ZM47.6 28.48c.36.56.69 1.22.98 2 0 .02 0 .04-.03.04h-.95a.1.1 0 0 1-.11-.07l-.54-1.18c-.34-.72-.6-.8-1.37-.68-.07 0-.12.05-.13.13l-.33 1.67c-.02.09-.07.14-.16.14h-.63c-.1 0-.13-.05-.1-.15l.87-4.47c0-.03.02-.06.05-.09a.14.14 0 0 1 .1-.03l2.2.01c.64.02 1.17.09 1.3.8.17.82-.38 1.52-1.11 1.76a.07.07 0 0 0-.03.02l-.02.03a.08.08 0 0 0 .01.07Zm-1.9-.73c.6.01 1.98.2 2.18-.67a.44.44 0 0 0-.07-.35.39.39 0 0 0-.13-.12.36.36 0 0 0-.17-.04h-1.6c-.03 0-.06.02-.06.06l-.2 1.05c-.02.05 0 .07.05.07Z" fill="#1A1512"/><path d="M47.16 27.4c.02-.14-.05-.32-.2-.54a.8.8 0 0 1 .52.03l.06.06a.2.2 0 0 1 .03.16.2.2 0 0 1-.03.08c-.11.14-.24.2-.38.21ZM48.91 30.83c-.26.13-.52.23-.79.32A50.48 50.48 0 0 1 37.6 33.1c-6.37.6-12.76.6-19.17 0a79.1 79.1 0 0 1-4.29-.55v-.02c.01-.02.02-.02.03-.02 1 .03 2.18.17 2.98.2 6.76.36 13.42.18 20.13-.8 1.65-.24 3.29-.6 4.91-1.08h2.93a.2.2 0 0 0 .13-.06.22.22 0 0 0 .07-.12l.26-1.13c.34-.15.62-.35.83-.62l.81 1.65c.08.16.2.24.37.24l1.32.03Z" fill="#DA251D"/></svg>