<!-- by TradingView --><svg width="56" height="56" viewBox="0 0 56 56" xmlns="http://www.w3.org/2000/svg"><path fill="#F0F3FA" d="M0 0h56v56H0z"/><path d="M31 23.5V23h3v1.2a3.29 3.29 0 0 1 2.5-1.2c1.93 0 3.5 1.8 3.5 4 0 2.22-1.57 4-3.5 4-.98 0-1.86-.45-2.5-1.2v5.51h1V36h-4v-.69h1V23.5h-1Zm3 3.5c0 1.92.9 3.48 2 3.48s2-1.56 2-3.48c0-1.91-.9-3.47-2-3.47S34 25.1 34 27Zm-13-4v.5h1v11.81h-1V36h4v-.69h-1v-5.5a3.3 3.3 0 0 0 2.5 1.2c1.93 0 3.5-1.8 3.5-4 0-2.22-1.57-4.01-3.5-4.01a3.3 3.3 0 0 0-2.5 1.2V23h-3Zm5 7.48c-1.1 0-2-1.56-2-3.48 0-1.91.9-3.47 2-3.47s2 1.56 2 3.47c0 1.92-.9 3.48-2 3.48Zm-12 .02v-5.13c.45-.84 1.23-1.9 2.2-1.9.68 0 .8.5.8 1.13v5.9h-1v.5h4.05v-.5H19v-5.67c0-1-.87-1.83-1.96-1.83h-.83c-.45-.01-1.4.3-2.24 1.54A1.94 1.94 0 0 0 12.02 23h-.83c-.43-.01-1.36.3-2.19 1.48V23H6v.5h1v7H6v.5h4v-.5H9v-5.16c.45-.84 1.23-1.87 2.2-1.87.66 0 .8.5.8 1.13v5.9h-1v.5h4.03v-.5H14Zm31.68-7.1c1.27 0 1.3.76 1.32 1.13v1.9c-2.05.05-5 .65-5 2.8.05.6.64 1.77 2.6 1.77a4 4 0 0 0 2.45-.7c.24.51 1.23.66 1.63.67 1.35 0 1.8-1.03 1.82-1.54-.16.32-.66.97-1.1.97-.41 0-.4-.31-.4-.5V24.78c0-.46-1-1.79-3.14-1.79s-3.05 1.38-3.05 1.99c0 .61.6.75.85.75s.78-.19.78-.75c0-.45-.39-.6-.58-.61.08-.33.55-.97 1.82-.97ZM44 28.9c0-.77.42-1.95 3-2.1v2.91c-.37.3-.9.55-1.68.55-.94 0-1.32-1.01-1.32-1.36Z" fill="#E40F4A"/></svg>