<!-- by TradingView --><svg width="56" height="56" viewBox="0 0 56 56" fill="none" xmlns="http://www.w3.org/2000/svg">
<rect width="56" height="56" fill="#F0F3FA"/>
<path fill-rule="evenodd" clip-rule="evenodd" d="M42 37.6465C43.892 34.9058 45 31.5823 45 28C45 18.6112 37.3888 11 28 11C18.6112 11 11 18.6112 11 28C11 31.5822 12.108 34.9057 14 37.6464V26.9462L20 23L23 25V31.1388L25 30.0265V30.0015L25.0224 30.0141L25.045 30.0015L25.0657 30.0384L28 31.6879V32.8319L32.9602 30.0029L33 30.0729V30L35 31.1243V25.8437L39 23L42 25.0625V37.6465ZM39 40.962V24.25L36 26.2812V31.6864V32.0178V43.0038C37.074 42.43 38.0792 41.7441 39 40.962ZM33 44.2528V31.1308L28 33.9825V45C28 45 28 45 28 45C29.7401 45 31.4191 44.7386 33 44.2528ZM25 44.7361V31.17L20 33.949V43.0038C21.5404 43.8268 23.2224 44.4196 25 44.7361ZM19 42.4249V33.3635L20 32.8073V24.25L14.9977 27.5312V38.9523C16.1403 40.3073 17.4907 41.4812 19 42.4249Z" fill="#1B244D"/>
</svg>
