<!-- by TradingView --><svg width="56" height="56" viewBox="0 0 56 56" xmlns="http://www.w3.org/2000/svg"><path fill="#F0F3FA" d="M0 0h56v56H0z"/><path d="M32.48 16.2a26.7 26.7 0 0 0-15.18 7.7l-.88 1.01-2.31 3.19c-1.18 2.02-1.98 4.69-1.43 7 1.17 4.96 7.8 5.32 11.52 4.85 4.39-.55 8.52-2.13 12.4-4.75.23-.16.21-.24-.06-.24l-1.12-.03c-.21 0-.36-.1-.43-.3l-.13-.33c-.07-.2 0-.3.2-.32l5.04-.3a.1.1 0 0 1 .06.02c.02 0 .03.02.04.04a.11.11 0 0 1-.01.12l-3.65 4.74c-.12.15-.22.14-.31-.02l-.13-.23a.81.81 0 0 1 0-.83l.58-1.05c.07-.12.04-.15-.08-.1-.28.12-.7.43-1.1.73-.3.22-.58.43-.8.56A29.67 29.67 0 0 1 18.86 42c-5.36-.05-11.66-2.17-10.78-9.25.11-.87.43-1.95.96-3.24.05-.25.13-.45.24-.62.84-1.8 1.88-3.36 3.1-4.67l.67-.65c4.24-4.34 9.2-6.56 14.86-8.2 6.34-1.82 18.24-3.39 20.09 6.1a.09.09 0 0 1 0 .04.09.09 0 0 1-.07.07h-.01l-3.44.21a.2.2 0 0 1-.15-.05.23.23 0 0 1-.07-.14c-.33-2.8-2.39-4.46-4.85-5.09a17.21 17.21 0 0 0-6.93-.31Z" fill="url(#a)"/><path d="M28 22.83c.55.16.82.62.83 1.39a18.63 18.63 0 0 1-1.22 3.62l-.68 2.1a.36.36 0 0 1-.11.18.34.34 0 0 1-.2.07l-1.25.08a.16.16 0 0 1-.12-.04.15.15 0 0 1-.01-.01h-.01v-.01l-.01-.01a.17.17 0 0 1-.03-.08v-.1l.8-2.16.93-3.5c-.42-.34-.96-.3-1.6.12-.28.3-.48.6-.62.88-.38.8-.77 1.82-1.2 3.05l-.52 1.52c-.06.16-.18.25-.34.26l-1.18.07c-.23.01-.3-.09-.22-.3l.78-2.17.97-3.4c-.55-.36-1.17-.3-1.89.2a22 22 0 0 0-1.59 3.83l-.53 1.51c-.06.16-.17.25-.34.26l-1.24.07a.18.18 0 0 1-.16-.08.2.2 0 0 1-.03-.13l.01-.05.79-2.12c.27-1.25.66-2.43 1.17-3.52l.47-1.3c.03-.09.09-.13.17-.13l1.23-.08c.15 0 .2.07.15.22l-.2.55c0 .05 0 .08.03.12l.03.02a.11.11 0 0 0 .06.02.05.05 0 0 0 .02 0v-.01h.01c.8-.85 2.2-1.4 3.3-.74a.5.5 0 0 1 .18.22l.2.46c.04.08.11.08.22 0l.1-.06c.93-.64 1.7-1.16 2.85-.82Z" fill="url(#b)"/><path fill-rule="evenodd" d="M36.6 24.13c-.66-2.04-2.73-1.55-3.94-.46a.17.17 0 0 1-.07.05h-.07c-.08-.01-.11-.06-.08-.14l.18-.52V23a.15.15 0 0 0-.01-.08l-.01-.01a.15.15 0 0 0-.06-.05.14.14 0 0 0-.06-.01l-1.26.07c-.08.01-.14.05-.17.14l-.37 1.06-1.2 3.56-1.78 5.13a.18.18 0 0 0 .01.15v.01h.01a.17.17 0 0 0 .13.08h.01l1.22-.07c.16-.01.26-.1.31-.24l1.1-3.15a.18.18 0 0 1 .1-.1.17.17 0 0 1 .2.07c.4.68.98.95 1.77.78 1.64-.33 2.6-1.52 3.35-3 .6-1.07.83-2.14.7-3.22Zm-3.03 4.1a5.64 5.64 0 0 0 1.11-2.92c.03-.37-.04-.65-.2-.81-.21-.2-.52-.28-.92-.23-.3 0-.6.14-.9.4a5.7 5.7 0 0 0-1.33 3.5c.04.3.18.5.42.6.72.26 1.33.09 1.82-.53Z" fill="url(#c)"/><path d="m38.9 24.85-.56-1.6c-.07-.2 0-.3.2-.32l1.43-.09c.24-.01.38.1.43.34l.28 1.22a.8.8 0 0 0 .52.05l1.27-1.3c.18-.18.4-.27.65-.28h1.2c.28 0 .31.1.12.3l-2.18 2.13c-.1.16-.23.3-.34.42-.34.36-.62.66-.35 1.43 0 .15.02.36.08.61.06.07.08.14.07.23l.65 1.99c.04.12 0 .18-.13.2l-1.57.09c-.2 0-.33-.09-.38-.3l-.43-1.73a.21.21 0 0 0-.1-.13.19.19 0 0 0-.14-.02.2.2 0 0 0-.09.06l-1.85 1.93a.3.3 0 0 1-.2.09l-1.62.1a.11.11 0 0 1-.07-.02.12.12 0 0 1-.04-.06.13.13 0 0 1 .03-.14l2.3-2.26c.27-.48.53-.81.77-1 .1-.08.18-.19.23-.31a.75.75 0 0 0 .03-.39l-.2-1.24Z" fill="url(#d)"/><defs><linearGradient id="a" x1="28" y1="14" x2="28" y2="42" gradientUnits="userSpaceOnUse"><stop offset=".35" stop-color="#010101"/><stop offset=".45" stop-color="#00F1ED"/><stop offset=".55" stop-color="#010101"/></linearGradient><linearGradient id="b" x1="28" y1="14" x2="28" y2="42" gradientUnits="userSpaceOnUse"><stop offset=".35" stop-color="#010101"/><stop offset=".45" stop-color="#00F1ED"/><stop offset=".55" stop-color="#010101"/></linearGradient><linearGradient id="c" x1="28" y1="14" x2="28" y2="42" gradientUnits="userSpaceOnUse"><stop offset=".35" stop-color="#010101"/><stop offset=".45" stop-color="#00F1ED"/><stop offset=".55" stop-color="#010101"/></linearGradient><linearGradient id="d" x1="28" y1="14" x2="28" y2="42" gradientUnits="userSpaceOnUse"><stop offset=".35" stop-color="#010101"/><stop offset=".45" stop-color="#00F1ED"/><stop offset=".55" stop-color="#010101"/></linearGradient></defs></svg>