<!-- by TradingView --><svg width="56" height="56" viewBox="0 0 56 56" xmlns="http://www.w3.org/2000/svg"><path fill="#F0F3FA" d="M0 0h56v56H0z"/><path d="M27.98 25.53c-.34.07-.65.18-.93.33v.03h.01c.27-.1.55-.16.84-.17.43-.02.66.16 1 .41l.06.05.01.01c.1.07.23.13.42.17.19.05.4-.05.55-.13v-.01a.02.02 0 0 0 0-.02v-.02a7.54 7.54 0 0 1-1.2-.53 1.05 1.05 0 0 0-.76-.12ZM22.2 25.68c-.31-.13-.6-.01-.83.22a.82.82 0 0 0-.08.09l.19-.09c.35-.15.75 0 .84.39v.27c-.05.33-.08.87.27 1.05.03.02.04.01.02-.01a.75.75 0 0 1-.12-.64l.1-.4c.03-.12.04-.22.04-.3a.68.68 0 0 0-.43-.58ZM28.87 27.56a.65.65 0 0 1-.37.44.04.04 0 0 0-.02.03v.48c0 .04 0 .04-.02 0-.14-.26-.3-.5-.47-.74a3.97 3.97 0 0 0-.7-.78 3.38 3.38 0 0 0 1.83-.21c.03-.02.03 0 .02.02a1.77 1.77 0 0 1-.25.43v.05c.11.15.23.26.35.33.05.03.05.05-.01.04-.09 0-.2-.04-.34-.1h-.02Zm-.7.13c0-.11.02-.21.09-.29.05-.04.04-.06-.03-.05a1.15 1.15 0 0 1-.27.01v.02c.07.08.12.17.17.28 0 .02.02.03.03.04l.02-.01ZM22.83 28.38a.3.3 0 1 1-.6 0 .3.3 0 0 1 .6 0ZM32.55 25.6c.02-.03.02-.05-.02-.04-.25.05-.48.13-.7.24a.4.4 0 0 0-.13.11c-.02.03-.02.06.01.08l.41.23c.09.05.08.07-.01.05-.21-.05-.43-.13-.65-.26a.65.65 0 0 1-.11-.11c-.1-.11.04-.2.13-.26.41-.27.84-.4 1.3-.43.5-.03.88.18 1.17.58v.01l.01.01.01.02a.96.96 0 0 1 .19.37.02.02 0 0 1-.02 0 8 8 0 0 1-.47-.4 1 1 0 0 0-.27-.18c-.01 0-.02 0-.01.02.08.19.06.35-.06.5-.25.28-.77.18-.85-.2a.42.42 0 0 1 .07-.34ZM34.4 29.08c.02 0 .03-.01.02-.05l-.1-.18c0-.03 0-.05.03-.07h.04l.04.03c.27.16.61.38.9.14.1-.09.16-.2.16-.33-.01-.17-.03-.35-.07-.52a6.2 6.2 0 0 1-.2-1.65c.01-.34.14-.63.38-.86a.17.17 0 0 1 .12-.04l.02.01a.04.04 0 0 1 0 .02v.02c-.15.23-.25.4-.28.69-.02.29 0 .65.07 1.07l.2 1.03c.07.3.16.68-.15.88-.35.23-.65.16-1.02 0a.16.16 0 0 0-.11 0 .53.53 0 0 1-.48-.06l-.05-.1c-.01-.05.02-.09.07-.1.13-.06.22-.01.35.05l.04.02a.03.03 0 0 0 .01 0ZM33.68 28.84c-.1.17.03.37.12.5l.01.02c.04.06.02.08-.04.06-.13-.03-.3-.12-.36-.24-.16-.3.22-.55.47-.6.06-.01.07 0 .02.04a.74.74 0 0 0-.22.22ZM35.74 30.91l-.01.03c-.14.15-.32.28-.55.22a2.35 2.35 0 0 0-.32-.07.97.97 0 0 0-.35.05l-.23.05c-.34.02-.6-.13-.88-.3-.04-.02-.05-.01-.04.03.03.1.1.2.18.27.16.13.33.22.52.27.2.06.39.02.6-.04a.62.62 0 0 1 .22 0c.3.06.53.1.8-.06a.53.53 0 0 0 .28-.43c0-.06.02-.1.04-.14a.49.49 0 0 1 .13-.12c.06-.04.11-.08.15-.15.05-.08.03-.11-.07-.09-.22.07-.43-.01-.65-.1a8.3 8.3 0 0 0-.1-.03.5.5 0 0 0-.21-.03l-.14.02a.79.79 0 0 1-.34.03c-.24-.06-.38-.09-.55-.05l-.12.03c-.26.06-.48.11-.72.1-.06 0-.12-.02-.18-.05-.1-.03-.2-.06-.29-.03-.02.01-.03.03-.02.06.04.1.08.12.18.18.3.2.6.15.94.09a1.05 1.05 0 0 1 .65.09c.18.06.3.02.48-.03a.7.7 0 0 1 .58.12.07.07 0 0 1 .02.08Z" fill="#8C7545"/><path d="M41.14 17.18a17.47 17.47 0 0 1 3.4 6.79 17.51 17.51 0 0 1-.83 10.54 17.48 17.48 0 0 1-6.66 7.86 17.48 17.48 0 0 1-9.6 2.63 3.2 3.2 0 0 0-.65-.04.27.27 0 0 0-.12-.04h-.12a17 17 0 0 1-12.66-26.4l.09-.14a17.16 17.16 0 0 1 7.42-6.05 17.12 17.12 0 0 1 19.73 4.85Zm-5.33-3.3v-.04c0-.04.01-.08-.04-.1-.72-.4-1.45-.72-2.19-1a.77.77 0 0 0-.26-.06c-.13 0-.2.02-.25.06a.25.25 0 0 0-.1.19 420.1 420.1 0 0 0-.2 4.02c-.02.21-.03.52.2.5a44 44 0 0 1 2.54-.07c.15 0 .24-.08.26-.24.03-.2.04-.4.04-.62v-2.64Zm-3.21.3c.02-.35.05-.71.06-1.07 0-.08 0-.16-.02-.23a.08.08 0 0 0-.07-.07h-.15c-.7.08-1.49.24-2.16.49-.14.05-.22.15-.23.3-.17 2-.28 3.31-.31 3.95-.02.25.02.32.26.28.85-.14 1.56-.23 2.11-.29.08 0 .14-.02.17-.06a.42.42 0 0 0 .13-.3l.07-1.1.14-1.9Zm-2.86-.62a.06.06 0 0 0-.07-.04c-.16.04-.33.12-.5.23-.23.14-.31.3-.35.55a244.4 244.4 0 0 0-.51 3.81l.02.02c.06.02.1.02.14.01l.76-.18c.15-.03.2-.24.22-.39l.3-3.83a.5.5 0 0 0 0-.18Zm6.4.38-.04-.03h-.01v.01h-.01v.02l.07 3.18v.02c0 .13 0 .3.16.31a7.78 7.78 0 0 1 1.48.33.05.05 0 0 0 .05-.04.64.64 0 0 0 .02-.24 409.25 409.25 0 0 1-.33-2.65 14.92 14.92 0 0 0-.63-.45l-.37-.22a9.09 9.09 0 0 1-.36-.22h-.01v-.01l-.01-.01Zm2.14 3.03.08.57c.19 1.14.32 2.3.4 3.48.1 1.26.1 2.47-.09 3.67-.04.25-.1.47-.21.7a.9.9 0 0 0-.09.25c-.02.15-.02.27 0 .35v.07c.08.59.13.98.05 1.51-.04.31-.16.63-.27.94A108.1 108.1 0 0 1 36.77 32c-.09.19-.15.32-.17.41-.05.2-.1.4-.17.6a.71.71 0 0 1-.58.51c-.15.03-.27.03-.39.04h-.18c-.05.01-.05.02 0 .03.57.11 1.39.2 1.6-.54l.24-.8.28-.68.73-1.7c.16-.36.3-.73.43-1.11l.07-.19.07-.17c.28-.76.3-1.63.16-2.45-.05-.3 0-.47.13-.78.04-.11.07-.27.1-.47.1-.88.13-1.68.1-2.4a21 21 0 0 0-.94-5.43v.04l.01.02.02.05ZM16.5 18.3c-.1.02-.2.06-.29.11-.13.1-.14.24.02.3a1 1 0 0 0 .32.07v.04c-.08.07-.33.4-.12.48.11.04.3-.12.38-.2.03-.04.05-.03.05.01 0 .1.05.38.18.4.22.04.25-.3.25-.44a.02.02 0 0 1 .02-.02h.01c.1.07.2.12.3.15.17.05.26-.09.19-.23a.9.9 0 0 0-.18-.24c-.04-.03-.04-.05.02-.04.1.01.32 0 .38-.1.1-.18-.22-.3-.35-.34a.03.03 0 0 1-.01 0 .03.03 0 0 1-.01-.04v-.02c.11-.09.34-.36.13-.47-.12-.07-.33.07-.41.16h-.02a.03.03 0 0 1-.03 0v-.02a.93.93 0 0 0-.15-.35c-.06-.07-.18-.1-.24-.01a.82.82 0 0 0-.15.4.03.03 0 0 1-.02.02.03.03 0 0 1-.02 0c-.07-.04-.52-.2-.47.04.02.12.12.2.22.3v.01h.01v.02Zm2.14-.08a.83.83 0 0 0-.3-.05c-.16 0-.25.12-.14.26a1 1 0 0 0 .23.22.02.02 0 0 1 0 .03h-.01c-.11.03-.5.17-.36.35.07.1.33.06.43.03.05-.01.06 0 .04.04-.05.1-.16.34-.06.44.16.14.37-.13.44-.25l.01-.01h.02l.01.01c.05.1.1.2.18.29.12.13.26.05.28-.1 0-.1 0-.2-.03-.3-.02-.06 0-.06.04-.03.08.06.27.17.38.11.17-.1-.03-.37-.12-.47a.03.03 0 0 1 0-.04l.01-.01c.14-.03.48-.13.36-.35-.07-.12-.32-.1-.44-.07a.03.03 0 0 1-.02 0v-.01a.03.03 0 0 1-.01-.03.94.94 0 0 0 .05-.38c0-.1-.1-.18-.2-.14a.83.83 0 0 0-.33.27.03.03 0 0 1-.03 0h-.01c-.05-.08-.34-.45-.43-.22-.04.12 0 .25.03.37v.04h-.02Zm9.64.63a5 5 0 0 1 2 2.08 10.47 10.47 0 0 1 .68 1.7H31a139.91 139.91 0 0 1 4.1-.17c.77 0 1.59.07 2.47.19l.52.1.05.01c.09.02.15.03.18.02.18-.04.14-.4.12-.59v-.05l-.35-3.55c-.02-.16-.1-.28-.24-.34-.2-.09-.45-.17-.68-.22a9.04 9.04 0 0 0-1.56-.2c-1.39-.08-2.84.05-4.24.22-.91.11-1.83.27-2.75.47a.51.51 0 0 0-.35.24.06.06 0 0 0-.01.05.07.07 0 0 0 .03.04Zm-9.43 1.48.04-.23.04-.48-.01-.02h-.01a5.39 5.39 0 0 1-.7 1.7c-.02.03-.03.03-.04 0a6.3 6.3 0 0 0-.74-2v.01h-.01a7.47 7.47 0 0 1 .45 2.12 5.08 5.08 0 0 0-1.33-.93 5.33 5.33 0 0 1 1.42 1.4 4.76 4.76 0 0 1 .35 4.5l.11-.2c.68-1.34.73-2.93.06-4.28a.19.19 0 0 1 0-.17 6.16 6.16 0 0 1 4.93-3.43 8.57 8.57 0 0 1 3.02.25 5.8 5.8 0 0 1 3.61 2.49c-.01-.05-.04-.1-.07-.16a5.07 5.07 0 0 0-1.4-1.65 6.67 6.67 0 0 0-2.5-1.18 7.01 7.01 0 0 0-7.19 2.28c-.04.04-.05.04-.03-.02Zm-3.32.18c.03-.01.03 0 .03.03a.6.6 0 0 0 .03.45s.01.02.03.02c.07.03.13.02.16-.04a.82.82 0 0 0 .15-.34c0-.04.02-.04.04 0 .05.09.12.16.21.22.18.1.3-.04.25-.21a1.05 1.05 0 0 0-.12-.28v-.01a.03.03 0 0 1 .02-.01c.14.02.27 0 .37-.05.11-.05.14-.16.04-.24a.6.6 0 0 0-.35-.13.02.02 0 0 1-.01-.01v-.01c0-.02.01-.02.02-.03.1-.05.17-.1.23-.18.06-.06.08-.16 0-.21a.28.28 0 0 0-.09-.05 1 1 0 0 0-.36.04.03.03 0 0 1-.02-.02.03.03 0 0 1 0-.02c.05-.14.09-.45-.13-.47-.15-.02-.26.27-.3.37v.01h-.02c-.09-.09-.29-.24-.41-.24l-.04.01c-.16.12-.06.4.02.55l-.01.02c-.16.01-.34.06-.43.19l-.01.03c.03.14.27.2.39.2l.01.02v.03c-.08.1-.22.27-.2.36.04.24.38.08.5 0Zm2.88 12.76c-.3.23-.58.42-.84.58a5.81 5.81 0 0 1-4.39.74v.02l.4.83a.04.04 0 0 0 .05.02c1.71-.06 3.46-.57 4.65-1.86.17-.18.3-.36.43-.54.02-.05.02-.05-.02-.02-.09.05-.18.1-.27.13-.36.13-.75.2-1.15.21-.81.02-1.56-.14-2.2-.56-.55-.36-.8-.98-.84-1.6-.04-.8.2-1.51.73-2.1.14-.17.28-.29.41-.36.53-.3 1.18-.3 1.77-.29a22.57 22.57 0 0 1 1.33.06c-1.06-.35-2.28-.56-3.34-.07-.06.03-.09.02-.14-.01a3.04 3.04 0 0 1-1.29-1.59c-.5-1.39-.42-2.9.3-4.2.23-.4.54-.79.91-1.05a2.17 2.17 0 0 1 1.61-.39 3.54 3.54 0 0 0 .16 0l-.26-.08a2.46 2.46 0 0 0-2.6 1.04 5.5 5.5 0 0 0-.65 4.65 2.75 2.75 0 0 0 1.54 1.86.02.02 0 0 1 0 .02c-.52.37-.85.95-.95 1.57-.19 1.07.14 2.42 1.15 2.96 1.04.56 2.18.72 3.25.16l.07-.04.08-.04.1-.06v.01Zm5.35-3.11c.24-.16.41-.35.52-.58.18-.4.03-.73-.25-1.04-.4-.44-.77-.9-.93-1.48a3.06 3.06 0 0 1-.11-.67v-.07c0-.1-.01-.2-.04-.3-.2-.57-.81-.95-1.41-.8-.7.19-.98.82-.9 1.5.08.73.4 1.3.97 1.73a8.27 8.27 0 0 1 .55.33c.27.16.37.43.13.7a3.3 3.3 0 0 1-.17.16c-.21.2-.37.44-.49.7-.1.23-.17.4-.09.63l.13.25c.1.2.14.41.03.63a.75.75 0 0 1-.15.17.96.96 0 0 0-.16.19.29.29 0 0 0-.05.18c.02.18.06.34.15.48l.1.18c.11.24.12.48-.08.68a.46.46 0 0 1-.07.05c-.04.03-.09.06-.11.11a3.09 3.09 0 0 1-.12.22c.04.18.08.32.12.42.04.1.1.19.17.27.06.08.12.15.16.24.13.28.1.56-.17.75l-.05.05a1.76 1.76 0 0 1-.1.27v.03l.12.3c.06.12.16.21.26.31l.04.04c.21.21.36.58.12.85l-.02.02c-.06.07-.1.11-.11.19a.96.96 0 0 1-.06.2v.03l.03.07c.09.18.16.33.32.46l.2.17c.23.2.33.48.18.76l-.05.08c-.04.05-.08.09-.08.16 0 .04 0 .1-.02.17v.03c.14.23.28.41.51.55.28.16.51.34.52.7a.02.02 0 0 0 .02 0l1.53-.05c.01 0 .02 0 .01-.02-.2-.83-.46-1.64-.74-2.43-.36-.97-.77-1.88-1.3-2.71-.02-.03-.04-.03-.05 0l-.08.16c-.08.15-.16.31-.2.48 0 .02-.01.02-.03.02v-.02c-.08-.2-.1-.41-.09-.65.06-.65.35-1.21.77-1.72l.47-.57a1.58 1.58 0 0 0 .32-.54l.13-.27c.14-.3.06-.44-.13-.7-.32-.47-.6-.96-.73-1.5a.32.32 0 0 1 0-.14.04.04 0 0 1 0-.03.04.04 0 0 1 .04 0h.02c.06.04.1.09.14.14l.31.44a5.8 5.8 0 0 0 2 1.8c.42.24.92.42 1.38.32.35-.08.55-.38.56-.72v-.3c-.02-.19.13-.2.27-.22.08-.01.17-.02.21-.07.06-.1.1-.19.09-.29l-.01-.02-.02-.02a2.8 2.8 0 0 1-.95-.68.02.02 0 0 1 .02-.01c.04-.01.15.02.27.06h.02l.03.01.03.01.04.01c.07.02.16.03.22.02a6.25 6.25 0 0 1 .83-.04v-.01a1.95 1.95 0 0 1-.05-.65c.01-.16.09-.27.26-.28.1 0 .33.01.28.17 0 .02 0 .04.02.04.2.02.62.06.58-.25a.4.4 0 0 0-.06-.18 2.38 2.38 0 0 1-.37-1.29c0-.3.07-.58.2-.82l.2-.31.19-.27a4.4 4.4 0 0 0 .56-3.12.07.07 0 0 0-.04-.04 1.4 1.4 0 0 1-.65-.53l-.72-1c-.22-.3-.46-.56-.73-.79a.55.55 0 0 0-.13-.07s-.02 0-.02.02l.01.07c.3.54.57 1.07.73 1.67l.05.32c0 .07 0 .14-.03.2a.07.07 0 0 1-.1.03.56.56 0 0 1-.17-.14c-.37-.42-.77-.8-1.21-1.14-.21-.17-.45-.34-.69-.43-.06-.02-.07 0-.04.05l.02.04c.23.25.43.5.61.73.24.31.36.67.35 1.06l-.02.22c-.05.31-.3.47-.58.54l-.57.14c-.65.19-1.59.57-1.83 1.23-.12.31-.18.67-.15 1.02 0 .07.04.21.1.41.09.27.14.59.17.95.05.57-.15 1.01-.6 1.32a2.56 2.56 0 0 1-.5.27h-.01Zm12.16-3.99c-.04.03-.05.02-.04-.02.14-.47.43-.78.89-.94.35-.12.83-.13 1.16.08a.02.02 0 0 0 .02 0h.01c.1-.2.17-.4.2-.62 0-.02 0-.02-.02-.02a3.35 3.35 0 0 0-2.02.55c-.08.05-.1.03-.08-.05.17-.59.75-.95 1.32-1.08.3-.06.55-.02.85.05.03 0 .04 0 .04-.03.02-.18.02-.32.02-.41 0-.42-1.3-.54-1.6-.56l-.74-.03c-1.11-.02-2.19 0-3.24.06a15.01 15.01 0 0 0-1.55.17.03.03 0 0 0-.01.03 5.12 5.12 0 0 1 .12.96l.03-.02c.15-.08.35-.15.6-.2.15-.02.35-.03.6-.02a7.49 7.49 0 0 1 2.38.55v.04c0 .07-.1.18-.18.26l-.02.02-.02.01c-.21.23-.5.18-.76.09s-.58-.2-.96-.35a3.42 3.42 0 0 0-1.66-.15c-.02 0-.02.01-.02.02 0 .1 0 .26-.02.47a4.55 4.55 0 0 1-.82 2.23c-.17.24-.3.42-.38.56-.18.3-.17.58-.14.94a1.78 1.78 0 0 0 .26.85c.15.29.3.55.07.83a.95.95 0 0 1-.87.32c-.03 0-.05 0-.05.03 0 .12.02.27.05.45.01.11 0 .2-.02.26a.75.75 0 0 1-.5.41v.02l.01.03a5 5 0 0 0 1.53 1.36c.9.5 1.82.85 2.82 1.14.3.09.51.28.6.57.02.04.02.04.02 0 .01-.28.15-.49.42-.62a68.66 68.66 0 0 0 .67-.34.13.13 0 0 0 .02-.07l.04-.47-.01-.01c-.51.04-1 .03-1.47-.03-.92-.11-1.6-.88-2.07-1.6-.2-.3-.33-.61-.4-.92V30.9a.04.04 0 0 1 .02-.01h.02a.04.04 0 0 1 .02 0c.4.56.84 1.07 1.37 1.52.22.18.42.32.6.4.43.22.9.28 1.42.29h.9c.27-.01.53-.13.6-.4l.01-.06c.1-.37.17-.63.33-.95l.22-.47a101.86 101.86 0 0 0 1.27-3.16 3.04 3.04 0 0 0 .1-1.72 5.92 5.92 0 0 1-.06-.68 1.5 1.5 0 0 0-.5-.14h-.01v.02c.09.14.11.28.07.42-.12.39-.67.41-.84.06a.48.48 0 0 1-.02-.32c0-.03 0-.03-.03-.02-.13.1-.21.17-.35.31a1.4 1.4 0 0 1-.22.18Zm-15.28 5.46v.01l-.01.04c-.03.14-.06.26.03.37.16.18.57.05.45-.22-.03-.05-.08-.17-.06-.22h.01v-.01h.03v.01l.08.13a.08.08 0 0 0 .1.03c.09-.03.14-.09.15-.18 0-.04-.02-.1-.07-.2l-.12-.24c-.08-.24-.1-.45-.1-.7v-.03h-.01c-.35.27-.64.56-.82.95-.06.14-.04.42.18.37.01 0 .02 0 .03-.02l.07-.1c.02-.03.04-.03.05 0v.01Zm.01 9.87a.01.01 0 0 0 .02 0l.36-.05.01-.01a3.87 3.87 0 0 1 .15-1.07c0-.02 0-.03-.02-.03l-.16-.17a.07.07 0 0 0-.04-.01.8.8 0 0 1-.38-.14c-.48-.36-.2-1.2 0-1.66a.08.08 0 0 0-.01-.09l-.13-.16a.1.1 0 0 0-.06-.03c-.26-.07-.44-.18-.53-.46-.13-.42.14-1 .35-1.37v-.03l-.14-.24a.04.04 0 0 0-.03-.02c-.26-.08-.42-.24-.47-.48-.1-.48.32-1.1.6-1.46V34l-.01-.03c-.03-.07-.04-.1-.13-.16-.41-.23-.4-.65-.18-1.03a3.3 3.3 0 0 1 .45-.62c.01-.03 0-.06-.04-.08a.56.56 0 0 1-.33-.36h-.01a.03.03 0 0 0-.01 0h-.01l-.14.22c-.26.46-.45.87-.7 1.4a95 95 0 0 1-.17.38l-.16.31-.14.27c-.33.68-.02 1.54.3 2.17a34.13 34.13 0 0 1 .84 1.77c.4 1.08.72 2.17.92 3.26Zm.33-8.15.07.14a.08.08 0 0 0 .07.04c.07 0 .12-.02.15-.07.1-.11 0-.25-.07-.39l-.01-.01-.01-.01-.01-.03h-.01a1.2 1.2 0 0 1-.16-.6H21a.03.03 0 0 0-.02 0 .68.68 0 0 1-.34-.05h-.03c-.22.22-.38.46-.5.7-.07.14-.06.25.02.36.05.06.12.08.2.07.02 0 .03-.01.03-.02l.07-.1c.02-.02.04-.03.06-.02l.01.02v.02c-.05.17-.12.44.11.5.16.04.39 0 .42-.2 0-.05-.02-.1-.04-.15-.03-.06-.06-.12-.03-.2a.02.02 0 0 1 .01-.01.02.02 0 0 1 .02 0Zm9.7 1.14v.01c-.37.32-.85.25-1.05-.21v-.03c-.04-.07-.05-.11-.12-.15a14 14 0 0 1-.33-.22c-.03-.02-.04-.01-.03.02.1.39.23.71.58.95.44.3.85.18 1.31.02.2-.07.4-.09.6-.05.1.01.27.08.55.2a9.12 9.12 0 0 0 1.33.41v-.02l-.02-.04-.02-.03c-.05-.11-.1-.22-.19-.32a1.3 1.3 0 0 0-.67-.37c-.7-.19-1.38-.45-2.03-.76a7.93 7.93 0 0 1-1.99-1.42h-.01a.02.02 0 0 0-.01 0c-.04.1-.11.2-.21.26-.05.03-.07.12-.1.2V33a.43.43 0 0 1-.01.04v.01a.02.02 0 0 0 .01 0c.13.03.24.08.35.15l.97.65c.31.22.67.43 1.09.65Zm-1.5 2.9h-.02l-.03-.02-.04-.02a8.84 8.84 0 0 0-1.71-.86l-1.07-.4a4.26 4.26 0 0 1-1.08-.56 1.58 1.58 0 0 1-.64-1.37c.03-.3.17-.5.36-.72.06-.07.13-.07.2-.02l.1.07c.12.1.22.18.34.24.3.17.63.27 1 .32.27.04.5.02.67-.05.57-.23.69-.89.68-1.43 0-.1 0-.1-.03 0l-.05.27c-.02.08-.06.2-.14.36-.17.37-.53.52-.93.5a2.5 2.5 0 0 1-1.43-.59c-.02 0-.03-.02-.05-.03-.17-.14-.34-.29-.52-.15-.42.32-.61.87-.59 1.38.02.54.23.98.63 1.32.24.21.5.39.8.53.34.16.52.23.92.36.61.21 1.18.5 1.78.83a4.92 4.92 0 0 1 1.48 1.23c.37.5.6 1.08.74 1.68.14.59.23 1.17.27 1.74a18.71 18.71 0 0 1 .06 1.48 2 2 0 0 1 .45-.81l.04-.05c.05-.07.24-.36.1-.43-.11-.06-.19-.1-.22-.13a.85.85 0 0 1-.37-.76c.02-.3.22-.64.43-.98v-.01l.06-.09c.06-.1.1-.19.11-.25.03-.17-.12-.2-.24-.24h-.02l-.05-.02a.75.75 0 0 1-.45-.34.76.76 0 0 1-.12-.55c.05-.35.15-.62.29-1l.02-.04c.13-.35.05-.8-.32-.96-.44-.2-.81-.39-1.13-.56a4.56 4.56 0 0 1-2.02-2.04h-.04l-1.88.71v.01l-.01.01a.02.02 0 0 0 0 .02c.28.22.58.41.93.58.64.32 1.11.55 1.4.71a4.13 4.13 0 0 1 1.33 1.12Zm-.59-3.03-.6-.35c-.06-.03-.08-.02-.06.05.14.4.4.7.76 1a8.22 8.22 0 0 0 4.82 1.68.08.08 0 0 0 .03-.05l.03-.13c.01-.04 0-.07-.05-.08-.4-.07-.7-.23-.92-.5a2.2 2.2 0 0 1-.15-.22c-.06-.1-.12-.2-.19-.28-.29-.34-.73-.5-1.17-.34-.2.08-.38.13-.56.16-.02 0-.02 0 0 .02a5.23 5.23 0 0 0 .54.2c.2-.06.4-.1.59 0 .28.13.36.3.45.6v.01a.01.01 0 0 1-.02 0c-.8-.23-1.61-.52-2.34-.95a1.5 1.5 0 0 1-.75-.87l-.15-.44a.92.92 0 0 0-.64-.57.05.05 0 0 0-.05.03l-.11.2c-.02.02-.01.03.02.04.4.04.57.42.54.78l-.01.01Zm6.93-.3c-.18.16-.34.29-.5.37l-.47.24a.95.95 0 0 0-.3.2.83.83 0 0 0-.17.37.03.03 0 0 0 0 .02.03.03 0 0 0 .03 0c.3-.13.57-.26.83-.4.06-.02.17-.1.33-.2a1.15 1.15 0 0 1 .36-.11.02.02 0 0 0 .02-.02v-.49l-.02-.01-.02-.01h-.02l-.07.04Zm-15.03 1.3c0 .02 0 .06-.03.12l-.03.1c-.22.7.77.48.64.12l-.05-.1c-.03-.07-.07-.13-.07-.2 0-.08.03-.09.07-.04l.03.06c.04.1.12.15.23.08.18-.11.07-.33-.03-.45a1.42 1.42 0 0 1-.36-.77.04.04 0 0 0-.02-.01h-.02a.82.82 0 0 1-.36 0h-.06l-.02.02-.02.03c-.2.27-.77 1.1-.3 1.28.18.07.26-.08.34-.22l.01-.02c.02-.04.04-.04.05 0Zm21.19 1.36.2-.33a.04.04 0 0 0 0-.02.04.04 0 0 0 0-.02h-.01v-.01h-.01c-1.2-.5-2.4-.91-3.57-1.25a22.32 22.32 0 0 0-2.07-.48c1.26.4 2.38.8 3.36 1.2a16.88 16.88 0 0 1 2.1.92Zm-6.54-.94c.05-.26.18-.53.43-.65a.07.07 0 0 0 .04-.07v-.2a.04.04 0 0 0-.03-.03.03.03 0 0 0-.02 0 .97.97 0 0 0-.65.6c-.2.42-.37.75-.85.9-.04.02-.06.05-.05.09v.21a.05.05 0 0 0 .05.05.05.05 0 0 0 .02 0c.22-.08.48-.21.8-.4.29-.15.53-.3.67-.58 0-.02 0-.03-.02-.02l-.36.12c-.02.01-.03 0-.03-.02Zm6.14 1.54v-.02a706.02 706.02 0 0 1-5.14-2.26c-.02 0-.02 0-.02.02.05.26.03.5-.04.8-.07.3.09.57.28.8l.5.55c.19.2.34.46.31.74-.02.2-.1.36-.23.5a.92.92 0 0 1-.17.1l-.13.09a.1.1 0 0 0-.03.1c.07.24.27.5.42.7l.1.13c.2.25.3.52.23.84-.07.3-.22.42-.46.58-.03.02-.06.06-.08.13-.03.11.1.26.17.33a.03.03 0 0 0 .02 0h.02l.33-.22a16.4 16.4 0 0 0 3.92-3.91Zm-23.41 2.49a.03.03 0 0 1 0-.03c.3-.21.43-.5.38-.85a.71.71 0 0 0-.28-.48c-.29-.22-.5-.4-.65-.5-.07-.06-.23-.2-.1-.3l.04-.03c.08-.06.15-.12.2-.2.21-.27.2-.68.02-.96l-.1-.14-.1-.14a1.83 1.83 0 0 1-.2-1h-.01a5.59 5.59 0 0 1-3.04 1.04 16.2 16.2 0 0 0 4.84 5.17h.01a.01.01 0 0 0 .01 0 .76.76 0 0 0 .04-.34c-.04-.32-.29-.62-.54-.82a7.7 7.7 0 0 0-.38-.27.46.46 0 0 1-.14-.15Zm16.46-4.34a.75.75 0 0 1-.3.33.03.03 0 0 0-.02.03v.23a.02.02 0 0 0 .03.01c.2-.09.35-.23.47-.43a2 2 0 0 0 .19-.34c0-.02 0-.03-.02-.02l-.32.16a.06.06 0 0 0-.03.03Zm-6.26 5.22v-.01h.04l.01.03c.08.15.19.41.33.78a10.62 10.62 0 0 0 1.67 2.5c.07.06.14.05.22.04h.03a.6.6 0 0 1 .04 0c.02-.01.03-.02.02-.04l-.16-1.05a65.81 65.81 0 0 1-.3-2.44 3.83 3.83 0 0 0-1.94-2.66 23.49 23.49 0 0 0-2.7-1.38c-.47-.22-1.13-.57-1.3-1.07-.03-.06-.04-.06-.04 0 0 .18.02.35.06.5.08.3.22.5.47.7.25.2.5.4.58.74.07.27 0 .5-.2.68l-.1.07a1.06 1.06 0 0 0-.1.07.08.08 0 0 0 0 .08c.09.27.27.4.51.54.17.1.3.2.4.34a.77.77 0 0 1-.27 1.16l-.12.07-.02.02v.08c.07.08.16.14.26.2l.52.29c.27.14.48.3.54.62.06.3 0 .57-.17.8-.07.08-.06.12.01.2.1.13.23.26.36.39.14.13.24.25.28.33a1 1 0 0 1 .03.86c0 .02 0 .03.03.04a15.57 15.57 0 0 0 2.33-.06c-.21-.28-.4-.58-.55-.9a9.47 9.47 0 0 1-.77-2.52Zm5.5-4.72v-.01a.67.67 0 0 1-.5-.26c-.03-.05-.09-.11-.15-.13l-.3-.1c-.02-.01-.03 0-.02.02.2.4.53.65.97.73v-.25Zm-12.82 1.57-.01.1c-.13.74.83.39.65.04l-.06-.1a.42.42 0 0 1-.1-.19c0-.07.01-.08.06-.03l.04.05c.06.1.14.13.24.05.16-.14.03-.34-.09-.44a1.42 1.42 0 0 1-.46-.72l-.01-.01a.04.04 0 0 0-.02 0h-.01a.82.82 0 0 1-.36.05h-.05l-.04.06c-.16.3-.62 1.19-.13 1.31.2.05.25-.11.3-.26l.02-.02c.01-.05.03-.05.05 0 0 .01 0 .06-.02.11Zm14.05 5.14a.02.02 0 0 0 0 .01h.02a14.45 14.45 0 0 0 1.55-.83l.01-.07a28.86 28.86 0 0 0-.36-3.35c-.09-.55-.2-1.05-.32-1.62l-.04-.23-.03-.14a.02.02 0 0 0-.02-.01h-.01l-.27.26c-.11.1-.24.17-.36.23-.26.14-.5.27-.57.6-.04.17-.04.34-.02.5.14.88.25 1.74.35 2.6a15.12 15.12 0 0 1 .07 2.05Zm-2.33.88h.04a17.15 17.15 0 0 0 1.81-.66c.05-1.47-.09-2.91-.4-4.33-.1-.47-.3-1.05-.75-1.3a1.3 1.3 0 0 0-.36-.11 13.63 13.63 0 0 0-1.16-.15l.05.16a18.25 18.25 0 0 1 .77 6.38Zm-11.2-4.1v.13a4.2 4.2 0 0 0 0 .08v.01c-.05.76.86.3.65-.02l-.07-.09c-.05-.05-.1-.1-.12-.18-.02-.07 0-.09.06-.04l.04.04c.07.1.16.12.25.03.14-.16-.01-.35-.14-.43a1.42 1.42 0 0 1-.53-.67.04.04 0 0 0-.03-.01h-.02a.81.81 0 0 1-.35.1h-.05l-.03.07c-.13.3-.5 1.24 0 1.31.2.03.25-.14.29-.29v-.02c.02-.05.03-.05.06-.01Zm.78 2.03v.13l.01.1c.06.8.97.2.7-.12a.78.78 0 0 0-.1-.08.45.45 0 0 1-.14-.18c-.03-.07-.01-.09.06-.05l.05.04c.08.1.18.1.26 0 .14-.19-.06-.37-.2-.44a1.53 1.53 0 0 1-.66-.64.04.04 0 0 0-.05 0 .87.87 0 0 1-.36.14c-.03 0-.05.01-.06.03l-.02.06c-.1.35-.35 1.4.19 1.4.21 0 .24-.18.26-.35v-.02c0-.06.03-.06.06-.02Zm-.08.85-.04-.04c-.03-.03-.06-.07-.1-.07a.66.66 0 0 1-.6-.24.08.08 0 0 0-.08-.02l-.37.05a10.7 10.7 0 0 0 .05.43c.01.08.04.1.11.13 1.4.67 2.86 1.14 4.4 1.4.04 0 .05 0 .04-.04a19.82 19.82 0 0 0-.4-2.29h-.03l-1.76.1c-.02 0-.03 0-.03.03a.75.75 0 0 1-.45.61c-.27.13-.52.11-.74-.05Zm8.92 1.43h-.01v.15l.01.02h.03v-.01l-.03-.16Z" fill="#8C7545"/></svg>