<!-- by TradingView --><svg width="56" height="56" viewBox="0 0 56 56" xmlns="http://www.w3.org/2000/svg"><path fill="#F0F3FA" d="M0 0h56v56H0z"/><path d="M34.85 28.45c-.01.16-.02.25.02.38l3 10.09v.07a.02.02 0 0 0 .02.01H47l.01-.01v-.01l-.25-.68-8.85-24.18a.73.73 0 0 0-.03-.1l-.02-.01a.22.22 0 0 0-.08-.01h-1.42a726.12 726.12 0 0 1-1.49 14.35v.1ZM9 38.97l.43-1.17 8.54-23.5.1-.27c.01-.02.03-.03.05-.03h1.48l.01.02.65 6.36.84 8.22a9.43 9.43 0 0 1-.16.66l-2.82 9.7-.01.03-.03.01H9.02a.02.02 0 0 1-.02-.02Zm14.24 0 3.95-24.86c0-.03 0-.06.02-.09l.01-.01h1.52l3.95 24.96V39h-.01l-.01.01h-9.4c-.03 0-.04-.01-.03-.03Z" fill="#6CB741"/></svg>