<!-- by TradingView --><svg width="56" height="56" viewBox="0 0 56 56" xmlns="http://www.w3.org/2000/svg"><path fill="#F0F3FA" d="M0 0h56v56H0z"/><path d="M50 28c0 2.39-2.32 4.68-6.44 6.36C39.43 36.06 33.83 37 28 37s-11.43-.95-15.56-2.64C8.32 32.68 6 30.4 6 28s2.32-4.68 6.44-6.36C16.57 19.94 22.17 19 28 19s11.43.95 15.56 2.64C47.68 23.32 50 25.6 50 28Zm-31.71-4.56 1.63-2.56c.1-.14.07-.16-.06-.07-.24.17-1 .78-2.26 1.82a.11.11 0 0 1-.15 0l-.78-.8a.3.3 0 0 0-.15-.09.28.28 0 0 0-.16.01c-1.3.5-2.5 1.16-3.61 1.97a8.32 8.32 0 0 0-1.72 1.72c-.7.96-.97 2.04-.82 3.26.01.14.11.18.1.37 0 .07.03.17.08.29 1.02 2.53 3.7 4.02 6.13 4.95a33.4 33.4 0 0 0 24.27-.54 16 16 0 0 0 2.48-1.51 6.11 6.11 0 0 0 2.4-3.1c.08-.27.12-.58.12-.95 0-1.79-.8-3.04-2.21-4.23a13.73 13.73 0 0 0-3.76-2.16c-.05-.05-.1-.08-.13-.08-.04 0-.08.03-.13.07-1.67 1.8-3.17 3.4-4.73 5.2-1.17 1.36-2.44 2.65-3.85 4.28-.53.6-1.42 1.6-2.69 2.98-.03.03-.05.03-.08 0l-.97-1.13a.17.17 0 0 1-.04-.11c0-.04.01-.08.04-.1l8.25-9.46a.17.17 0 0 0 .04-.12v-.06h-.01l-.02-.01h-.01l-9.28 8.76c-.02.02-.05.02-.07 0l-.81-.95a.16.16 0 0 1 0-.2c.34-.46.7-.91 1.1-1.35.3-.35.58-.76.9-1.12.86-.98 1.66-2.01 2.52-3 .2-.24.4-.55.58-.75.71-.84 1.44-1.73 2.2-2.7.21-.27.18-.31-.1-.11-.39.28-.7.72-1.08 1.03-.28.23-.6.54-.95.92-.18.2-.41.34-.58.5-.9.91-1.82 1.8-2.75 2.66-.27.24-.58.65-.9.9-.38.32-.71.64-1 .96-.26.32-.68.61-1.01.97a.12.12 0 0 1-.18 0l-.7-.8c-.06-.07-.06-.13 0-.2l5.69-7.26v-.03a.12.12 0 0 0-.03-.03c-.02-.02-.04-.01-.06 0l-6.51 6.53c-.03.03-.05.03-.07 0l-.82-.94V27l4.6-5.85c.03-.05.02-.08-.03-.11-.04-.03-.09-.02-.13.03-.42.42-1.09 1-1.42 1.3l-1.22 1.1c-.22.18-.47.5-.67.63-.2.13-.38.28-.53.45-.14.15-.63.6-1.47 1.35a.16.16 0 0 1-.11.04.16.16 0 0 1-.11-.04l-.62-.63c-.03-.03-.04-.08 0-.12 1.54-2.23 2.48-3.56 2.8-4a.36.36 0 0 0 .07-.21c0-.05-.02-.06-.05-.03l-3.5 3.4c-.05.06-.1.06-.16 0l-.73-.74c-.04-.04-.05-.09-.02-.14Z" fill="#DA251C"/></svg>