<!-- by TradingView --><svg xmlns="http://www.w3.org/2000/svg" width="56" height="56" viewBox="0 0 56 56"><path fill="#F0F3FA" d="M0 0h56v56H0z"/><path d="M28 29.27c-4.92-7.13-13.25-12.37-17-14.2v4.42a46.7 46.7 0 0 1 14.77 13.05l-1.72 3.14A40.37 40.37 0 0 0 11 23.08v4.62A30.56 30.56 0 0 1 21.87 40h4.45c.38-1.1 1.1-3 1.68-3.77A15 15 0 0 1 29.63 40h4.53A30.58 30.58 0 0 1 45 27.71V23.1a40.38 40.38 0 0 0-13.02 12.6l-1.73-3.15A46.72 46.72 0 0 1 45 19.5V15c-8.82 4.19-15 11.25-17 14.27zM45 40h-7.16c.64-1.53 2.98-5.4 7.16-8.32V40zm-26.81 0c-.64-1.54-3-5.4-7.19-8.34V40h7.19z" fill="#EE3228"/></svg>