<!-- by TradingView --><svg width="56" height="56" viewBox="0 0 56 56" xmlns="http://www.w3.org/2000/svg"><path fill="#F0F3FA" d="M0 0h56v56H0z"/><path d="M18.53 25.03c.12-.04.14-.1.07-.2-.9-1.31-2.05-1.04-3.41-1.14a2 2 0 0 1-1.28-.5c-.16-.15-.13-.21.08-.18 1.06.17 2.2.03 3.15 0 .6-.03 1.07.04 1.43.2 1.05.48 1.6 1.3 1.64 2.48.07 2.01-1.28 2.72-2.73 3.55-.65.37-.42.78-.79 1.22-.33.4-.77.57-1.34.53-.36-.02-.4-.15-.12-.38.3-.26.4-.5.39-.93a59.6 59.6 0 0 0-.03-1.7c-.05-.82-.7-.8-1.26-1.02a.3.3 0 0 1-.13-.1.31.31 0 0 1 .08-.45c.3-.18.62-.32.98-.4.07-.01.1-.05.11-.12l.07-.4a.26.26 0 0 1 .09-.15.72.72 0 0 1 .55-.14c.07 0 .14.04.19.1l.23.27a.1.1 0 0 0 .12.04l1.91-.58Zm-1.23 3.5.56-.42a2.69 2.69 0 0 0 .98-2.82.11.11 0 0 0-.08-.05l-.05.01c-.46.2-1.57.9-1.68 1.47-.09.45-.12 1.1-.1 1.95 0 .08.04.1.1.06l.27-.2ZM22.5 23.87c.02.06-.01.13-.1.18a24.56 24.56 0 0 1-1.48.97.07.07 0 0 1-.06-.03 9.08 9.08 0 0 0-.31-1.18.07.07 0 0 1 .06-.04c.56-.02 1.13-.03 1.71 0 .1 0 .16.03.18.1Z" fill="#DA3724"/><path d="M36 29.73c.01.49.17.6.64.62.59.02 1-.15 1.25-.52.13-.2.3-.67.56-.87a.2.2 0 0 1 .3.05c.02.03.03.07.03.1.04.54-.04 1.02-.23 1.45-.15.34-.28.43-.65.43-1.05-.02-2.14-.01-3.27 0-.22.01-.42 0-.6-.04a.17.17 0 0 1-.08-.05.19.19 0 0 1-.05-.1l.01-.1a.19.19 0 0 1 .08-.09l.47-.29c.06-.03.1-.08.14-.14a.4.4 0 0 0 .05-.2c.02-.84.01-1.9 0-3.17-.01-.51-.14-1.04-.38-1.59a.17.17 0 0 1 .01-.15.15.15 0 0 1 .13-.07c.69 0 1.16.26 1.4.78.15.28.2.78.19 1.48v2.47ZM40.7 30.46c.12.09.2.17.23.24.07.19.01.29-.18.3-.69.03-1.18-.19-1.48-.65-.15-.22-.27-.71-.27-1.47.01-1.64.21-2.53-.34-3.57a.22.22 0 0 1 0-.21.2.2 0 0 1 .09-.08.2.2 0 0 1 .1-.02c1.16.07 1.53 1 1.53 2.13l.04 2.7c0 .3.1.5.28.63ZM45.9 28.1c.06.07.1.06.1-.05v-2.07a.5.5 0 0 0-.2-.4l-.3-.2c-.35-.24-.32-.37.1-.38h1.55c.1 0 .16 0 .19.02.2.16.18.26-.06.3-.42.09-.63.4-.64.92-.02 1.47-.01 3.14.03 4.58 0 .05-.01.1-.04.12a.16.16 0 0 1-.1.06.62.62 0 0 1-.46-.18c-1.24-1.47-2.2-2.65-2.97-3.56-.1-.11-.1-.06-.1.1v2.38c0 .49.2.8.58.94.07.02.1.07.1.15 0 .11-.04.17-.11.17h-1.9c-.1 0-.14-.06-.14-.16v-.01c0-.1.06-.17.16-.19.4-.08.59-.3.59-.7l.01-3.54c.02-.57-.28-.66-.72-1.04a.18.18 0 0 1-.06-.08.19.19 0 0 1 0-.1c0-.04.02-.07.05-.1a.17.17 0 0 1 .08-.04c.98-.16 1.8.15 2.45.94.2.24.77.95 1.8 2.11Z" fill="#918F90"/><path d="M51.61 25.39c.04-.06.09-.15.15-.29.03-.05.06-.09.1-.1a.1.1 0 0 1 .06 0c.05.03.07.07.08.12v1.76c0 .06-.02.1-.04.12a.13.13 0 0 1-.1.02.12.12 0 0 1-.09-.06c-.38-.74-.6-1.31-1.58-1.32-1.75-.01-2 3.38-1 4.37.57.57 1.44.57 2.05.02a202.4 202.4 0 0 1 .6-.56h.08c.02.02.04.03.05.06.02.02.03.04.03.07v.06c-.01.13-.04.24-.1.32-.37.57-.83.9-1.37.97-1.66.23-2.7-.38-3.15-1.84-.3-1-.08-2.33.6-3.06.96-1.02 2.1-1.22 3.4-.6.1.05.17.02.23-.06ZM26 25.7v4.07c.02.57.26.89.64.94.07.01.1.06.1.14v.07c0 .05-.02.08-.07.08h-2.65c-.06 0-.1-.03-.1-.08-.02-.06 0-.12.05-.18a.15.15 0 0 1 .07-.04c.38-.12.57-.41.57-.88l.01-4.13a.11.11 0 0 0-.03-.08.1.1 0 0 0-.07-.03c-.66-.01-1.02.4-1.39.94-.15.22-.23.2-.26-.07-.05-.57.04-1.4.72-1.42 1.6-.04 2.79-.04 3.56 0 .71.04.73.92.72 1.42 0 .24-.08.27-.22.09-.43-.54-.8-.97-1.52-.95-.07 0-.13.04-.13.11ZM30.25 26.18c-.03-.1-.06-.1-.1 0l-.86 2.44c-.02.06 0 .08.05.07l1.34-.18c.08-.01.12.02.12.1v.11l-.03.09a.12.12 0 0 1-.08.04c-.76.11-1.33.4-1.72.9-.31.38-.31.74 0 1.06l.02.04v.05l-.04.04-.04.06h-1.6c-.04 0-.06-.06-.06-.1l-.01-.05c0-.01 0-.02.02-.02.42-.17.75-.59.99-1.24l1.42-3.9c.06-.16 0-.27-.15-.32a.5.5 0 0 1-.25-.17c-.05-.07-.04-.11.05-.13 1.67-.33 2.05.55 2.46 2.07l.8 2.85c.05.22.27.44.65.66a.18.18 0 0 1 .05.26c-.02.03-.06.05-.11.06-.42.07-1.46.04-1.7-.48-.08-.18-.16-.4-.22-.63-.4-1.59-.74-2.81-1-3.68ZM8.35 25.38l.16-.28c.02-.05.05-.09.09-.1a.1.1 0 0 1 .06 0c.05.03.08.07.08.12v1.75c0 .06-.01.1-.03.12a.12.12 0 0 1-.1.03.12.12 0 0 1-.06-.02.13.13 0 0 1-.03-.04c-.39-.74-.6-1.3-1.58-1.31-1.75 0-2 3.38-1 4.36.58.57 1.45.56 2.06.02a220.05 220.05 0 0 1 .6-.56h.07c.03.01.05.03.06.05.02.02.02.05.03.07v.06c-.01.13-.04.24-.1.32-.37.58-.83.9-1.37.98-1.65.24-2.7-.37-3.15-1.83-.31-.99-.09-2.33.59-3.05.96-1.03 2.1-1.23 3.4-.62.1.05.17.02.22-.07ZM20.7 29.88c.02-.75.02-1.92 0-3.51 0-.32.22-.84.52-1.04a2.03 2.03 0 0 1 1.41-.3.09.09 0 0 1 .04.07l-.01.04c-.22.42-.6.46-.66 1.07v3.3c0 1.04-.62 1.54-1.56 1.49-.35-.02-.39-.15-.12-.38.25-.2.37-.4.38-.74ZM11.54 26.19c-.03-.1-.07-.11-.1 0l-.87 2.43c-.02.05 0 .07.05.07l1.33-.19c.08 0 .12.03.12.11v.1c0 .04 0 .07-.02.1a.12.12 0 0 1-.08.04c-.76.1-1.33.4-1.72.88-.31.39-.32.75-.01 1.07l.02.04v.05c0 .02-.02.03-.03.04-.02 0-.03.07-.05.07h-1.6c-.03 0-.05-.07-.05-.1V30.8c.43-.17.76-.58 1-1.23.3-.78.77-2.08 1.42-3.9.06-.15.02-.26-.14-.31a.5.5 0 0 1-.25-.17c-.05-.07-.03-.11.05-.13 1.66-.33 2.04.55 2.45 2.07l.78 2.85c.06.22.27.44.65.67a.18.18 0 0 1 .05.25c-.02.04-.06.06-.1.06-.43.07-1.46.04-1.7-.48-.09-.18-.16-.4-.22-.64-.4-1.58-.73-2.8-.98-3.66Z" fill="#918F90"/></svg>