<!-- by TradingView --><svg width="56" height="56" viewBox="0 0 56 56" xmlns="http://www.w3.org/2000/svg"><path fill="#F0F3FA" d="M0 0h56v56H0z"/><path d="M11.09 26.34c0-.04-.02-.04-.03 0A422.7 422.7 0 0 1 9.6 32a40.41 40.41 0 0 0-2.03-.01l-.01-.03-.74-2.77c-.16-.6-.33-1.15-.6-2.11a7.87 7.87 0 0 1-.18-.71c-.01-.04-.02-.04-.02 0l-.01.2a65.96 65.96 0 0 1-.04 1.55v2.95l.01.9c0 .02 0 .03-.02.03A34.49 34.49 0 0 0 4 31.98c.04-.56.07-1 .08-1.53a7471.92 7471.92 0 0 0 .12-4.1c0-.45 0-1.23.02-2.32 0-.02.01-.03.03-.03a181 181 0 0 0 3.07.01l.01.03c.09.48.18.87.27 1.16a48.18 48.18 0 0 1 1.06 3.74c.06-.29.12-.6.2-.9.21-.96.45-1.74.79-2.9a11.4 11.4 0 0 0 .3-1.14h3.1a142.8 142.8 0 0 0 .06 3.19l.08 2.57a50.54 50.54 0 0 0 .09 2.24 42.52 42.52 0 0 0-2.05-.02 130.9 130.9 0 0 0-.14-5.64ZM50 31.14h-.08l-.34.33c-.22.2-.52.34-.8.43a2.49 2.49 0 0 1-3.12-1.64 3.9 3.9 0 0 1 .12-2.72c.31-.77.84-1.27 1.6-1.52a4.64 4.64 0 0 1 2.62 0V24h1.96l.04.02V32h-2v-.86Zm-1.98-1.08c.13.12.27.2.41.23.42.08.75-.03 1-.35.3-.39.36-.96.37-1.45a19.56 19.56 0 0 0-.02-1.09 2.53 2.53 0 0 0-.74-.06c-.52.04-.98.27-1.21.78-.1.2-.16.42-.19.65-.06.46.03.99.38 1.29ZM27.05 28c0-1.26 0-1.9-.02-2.53a117.75 117.75 0 0 1-.02-1.47H29a.02.02 0 0 1 0 .02l-.02 1.16V28c.01 1.27.01 1.9.03 2.54a116.19 116.19 0 0 1 .02 1.47h-1.98l-.01-.01.02-1.17V28ZM24 26c-.01 0 0 .01 0 0h1.42c0-.02.02 0 0 0v1.64H24v1.83c0 .16.03.32.08.46.17.55 1.1.37 1.48.24h.01v.01l-.18 1.6v.01h-.02a4.9 4.9 0 0 1-2.25.13c-.21-.05-.4-.13-.58-.26-.52-.39-.55-1-.54-1.63v-2.35c0-.02 0-.04-.03-.04H21V26h1v-1.1l1.03-.2c.35-.08.67-.2.97-.27V26ZM34 29.33l-.03-.01h-.01c-.33.18-.72.28-1.08.4-.17.07-.4.2-.47.38-.1.29.06.6.33.66a1.4 1.4 0 0 0 .81-.08l.01.01v.01a13.77 13.77 0 0 0-.3 1.22c-.6.1-1.23.13-1.8-.07a1.66 1.66 0 0 1-1.05-1.18c-.23-.8.2-1.55.86-1.9.15-.07.3-.14.47-.2.26-.08.48-.15.67-.19.46-.1.76-.15 1.13-.28a.61.61 0 0 0 .18-.11.41.41 0 0 0-.05-.66c-.17-.1-.39-.12-.58-.1a6.14 6.14 0 0 0-2.12.5 18.28 18.28 0 0 0 .14-1.38c.57-.14 1.13-.24 1.7-.3.4-.05.81-.06 1.2-.04.32.02.63.07.93.17.24.07.49.2.68.4.3.3.38.7.38 1.13V32h-2v-2.67ZM40.04 26.9c0 .02.01.02.02 0 .3-.43.68-.7 1.17-.82.5-.11.98-.1 1.46.02.93.25 1.3 1.07 1.31 1.96v3.92a.02.02 0 0 1 0 .01.01.01 0 0 1-.02 0L42 32v-2.74c0-.57-.1-1.23-.67-1.4-.76-.21-1.27.72-1.33 1.34V32h-1.98l-.01-.01v-.01l-.01-.01V26h2v.9h.04ZM16.7 29.22l.03.3a1 1 0 0 0 .5.76c.4.23.85.3 1.3.26a7.1 7.1 0 0 0 1.8-.36v.01l-.18 1.59-.01.01a10.19 10.19 0 0 1-3 .15c-.3-.03-.58-.08-.82-.16a2.6 2.6 0 0 1-1.44-1.13 3.43 3.43 0 0 1 .23-3.7c.35-.43.85-.7 1.38-.82a4.85 4.85 0 0 1 2.43.03 2.43 2.43 0 0 1 1.84 2.23 4.45 4.45 0 0 1-.03.82h-4l-.02.01Zm0-.87.02.01h1.88a.01.01 0 0 0 0-.01c.01-.55-.2-.97-.76-1.05a.94.94 0 0 0-.95.42c-.12.2-.16.4-.19.63Z" fill="#00928F"/></svg>