<!-- by TradingView --><svg width="56" height="56" viewBox="0 0 56 56" xmlns="http://www.w3.org/2000/svg"><path fill="#F0F3FA" d="M0 0h56v56H0z"/><path d="M36.44 15.15c.54-.23 1.65-.8 3.33-1.73 1.4-.77 2.45-.45 3.48.75.78.92 1.52 1.86 2.22 2.82.05.06.05.12.01.18l-.08.13c-.02.04-.05.05-.08.01a23.68 23.68 0 0 0-1.5-1.49c-1.45-1.3-3.56.14-4.95 1.13-.51.37-1.82.69-2.35.1-.83-.95-1.5-1.98-2.99-1.55-.59.17-1.86.8-3.8 1.9-.5.27-.98.24-1.43-.1l-.87-.66c-.43-.33-.4-.62.06-.89a75.35 75.35 0 0 1 4.31-2.39 2.73 2.73 0 0 1 2.14.04c.63.24 1.18 1.07 1.74 1.61a.7.7 0 0 0 .76.14Z" fill="#BB252C"/><path d="M33.13 33.89c1.16-1.8 2.14-4.54-.03-5.94-2-1.28-3.7.89-4.64 2.56-.29.51-.38.48-.26-.11.54-2.67 2.05-4.98 4.62-5.95.34-.14 1.43-.3 3.26-.52 3.03-.35 7.89-1.83 9.08-5.07.41-1.13.55-1.1.42.1-.25 2.26-1.13 3.47-2.69 5.47-1.36 1.73-3.16 4.92-1.24 6.98 2.35 2.54 4.76 5.53 4.3 9.33-.03.2-.08.2-.16.03a12.6 12.6 0 0 0-1.6-2.72c-2.67-3.24-7.41-2.8-10.4-.53-.57.43-1.68 1.36-3.33 2.8-.56.48-1.29.68-2.2.62-.13-.01-.16-.07-.07-.18a96.46 96.46 0 0 0 4.94-6.87Z" fill="#007AA7"/><path d="M17.57 22.94c1.19 0 2.15-.93 2.15-2.09 0-1.15-.96-2.09-2.15-2.09-1.18 0-2.15.94-2.15 2.1 0 1.15.97 2.08 2.15 2.08Z" fill="#5DB6A8"/><path d="M36.84 22.94c1.19 0 2.15-.94 2.15-2.09s-.96-2.09-2.15-2.09c-1.18 0-2.14.94-2.14 2.09s.96 2.09 2.14 2.09Z" fill="#007AA7"/><path d="M13.35 27.95c-1.34.2-2.48 1.28-3.62 1.56a3.4 3.4 0 0 1-2.35-.18c-.53-.24-.5-.4.08-.46.53-.06 1.1-.3 1.7-.72 3.14-2.2 6.13-3.98 9.99-4.16 4.55-.22 7.88 2.25 8.61 6.7 0 .02 0 .04-.02.05a.22.22 0 0 1-.1.04.07.07 0 0 1-.06-.04c-.79-1.48-2.56-3.77-4.46-3.05-3.9 1.46-1.22 5.52.55 7.88 1.34 1.78 2.7 3.5 4.08 5.17a.16.16 0 0 1-.06.24.17.17 0 0 1-.1.02c-.68-.11-1.32-.4-1.93-.87-2.64-2.06-4.71-3.6-7.64-4.2-3.3-.7-5.88 2.25-7.24 4.78-.17.3-.28.28-.33-.06-.55-3.91 1.16-6.78 3.4-9.88.43-.6.7-1.4.56-2.08a.93.93 0 0 0-.39-.58.96.96 0 0 0-.67-.16Z" fill="#5DB6A8"/><path d="M29 32h-2v2h-2v2h2v2h2v-2h2v-2h-2v-2Z" fill="#BB252C"/></svg>