<!-- by TradingView --><svg width="56" height="56" viewBox="0 0 56 56" xmlns="http://www.w3.org/2000/svg"><path fill="#F0F3FA" d="M0 0h56v56H0z"/><path d="M51.95 23h-.74c-.02 0-.05.03-.05.06v1.28c0 .03.03.05.06.05h.73c.03 0 .05-.02.05-.06v-1.27c0-.03-.02-.06-.05-.06ZM50.8 23h-.74c-.03 0-.06.03-.06.07v1.25c0 .04.03.07.06.07h.74c.03 0 .06-.03.06-.07v-1.26c0-.03-.03-.06-.07-.06ZM22.92 31c-.62-.06-1-.14-1.17-.22a2.95 2.95 0 0 1-1.56-1.7 5.11 5.11 0 0 1-.19-1.57v-4.43c0-.05.04-.08.09-.08h.68c.06 0 .09.03.1.09.03.74.01 2.02.02 4.04 0 .84.05 1.4.17 1.7.3.75.92 1.16 1.86 1.24.05 0 .08.04.08.09v.77a.07.07 0 0 1-.02.05.08.08 0 0 1-.06.02Z" fill="#B6419A"/><path d="M23 25.1v.8a.1.1 0 0 1-.03.07.1.1 0 0 1-.06.03h-1.67a.1.1 0 0 1-.07-.03.1.1 0 0 1-.03-.07v-2.8a.1.1 0 0 1 .03-.07.1.1 0 0 1 .07-.03h.67a.1.1 0 0 1 .07.03c.02.02.02.04.02.07v1.8c0 .03.02.05.03.07a.1.1 0 0 0 .07.03h.8a.1.1 0 0 1 .07.03.1.1 0 0 1 .03.07ZM50.8 25h-.73a.07.07 0 0 0-.07.08l-.01 5.84c0 .05.03.08.07.08h.72c.04 0 .07-.03.07-.07l.01-5.85a.07.07 0 0 0-.07-.08ZM51.92 25h-.68c-.05 0-.08.04-.08.09v5.82c0 .05.03.09.08.09h.68c.04 0 .08-.04.08-.09V25.1c0-.05-.04-.09-.08-.09ZM15.57 28.23c-.08 0-.1.03-.07.1.27.58.72.8 1.34.65.17-.04.26-.15.42-.28a.18.18 0 0 1 .12-.05h.63c.09 0 .11.04.07.12-1.02 2.03-3.81.8-3.28-1.28.2-.76.83-1.25 1.63-1.3.73-.06 1.28.28 1.65 1a.08.08 0 0 1 0 .08l-.04.03a.08.08 0 0 1-.04 0h-.69a.16.16 0 0 1-.13-.05.93.93 0 0 0-1.5.15.07.07 0 0 0 0 .07.07.07 0 0 0 .06.03h2.56c.03 0 .05-.02.05-.05a1.16 1.16 0 0 0-.18-.5c-.48-.79-1.16-1.1-2.04-.94-2.06.38-2.16 3.28-.23 3.92 1.06.34 2.03-.22 2.4-1.21.02-.05.06-.07.1-.07h.87a.05.05 0 0 1 .05.04v.02a2.86 2.86 0 0 1-4.97 1.3c-.6-.67-.83-1.5-.69-2.52.3-2.17 2.97-3.33 4.71-1.78.7.62 1.04 1.44 1.02 2.46 0 .04-.02.06-.06.06h-3.76ZM33.36 28.23c-.07 0-.1.03-.06.1.27.58.72.8 1.35.65.17-.04.26-.15.42-.28a.18.18 0 0 1 .12-.05h.63c.09 0 .11.04.08.12-1.04 2.03-3.85.8-3.31-1.28.2-.76.84-1.25 1.64-1.3.74-.06 1.3.28 1.66 1a.08.08 0 0 1 0 .08.08.08 0 0 1-.08.04h-.7a.16.16 0 0 1-.12-.06.94.94 0 0 0-1.51.15.07.07 0 0 0 0 .07.07.07 0 0 0 .06.03h2.57c.04 0 .05-.02.05-.05a1.15 1.15 0 0 0-.18-.5c-.48-.79-1.16-1.1-2.05-.94-2.07.38-2.18 3.27-.23 3.92 1.07.35 2.04-.21 2.42-1.21.02-.05.05-.07.1-.07h.86a.05.05 0 0 1 .04.02.05.05 0 0 1 .01.04 2.88 2.88 0 0 1-5 1.3c-.6-.67-.83-1.51-.68-2.52.3-2.17 2.99-3.33 4.74-1.78.7.62 1.04 1.44 1.02 2.46 0 .04-.02.06-.06.06h-3.79ZM8.56 25.67c1.27-1.04 2.86-.74 3.83.52.38.5.58 1.06.6 1.7a132.67 132.67 0 0 1-.02 3.08.08.08 0 0 1-.05.02h-.7c-.05 0-.07-.02-.07-.07v-2.9c-.03-1.18-.91-2.22-2.13-2.05-.68.1-1.16.45-1.46 1.08l-.03.03a.06.06 0 0 1-.06 0 5.93 5.93 0 0 1-.23-.35c-.35-.59-1.05-.85-1.7-.8-1.07.1-1.7 1.14-1.68 2.18a490.99 490.99 0 0 1 0 2.82.1.1 0 0 1-.05.06.1.1 0 0 1-.03 0h-.69c-.06 0-.09-.03-.09-.09V28c.01-.83.3-1.55.86-2.16a2.47 2.47 0 0 1 3.28-.37l.32.22h.05l.05-.01Z" fill="#B6419A"/><path d="M7.38 27.5c-.28-.4-.91-.5-1.24-.1-.13.17-.2.4-.2.68v2.85c0 .05-.01.07-.06.07h-.71c-.02 0-.04 0-.05-.02a146.74 146.74 0 0 1-.01-3c0-.67.24-1.18.72-1.53.78-.58 2.14-.26 2.44.77.05.16.08.58.09 1.26v2.42a.1.1 0 0 1-.03.07.1.1 0 0 1-.08.03h-.64a.1.1 0 0 1-.07-.03.1.1 0 0 1-.03-.07c.01-1.24.02-2.15.01-2.74 0-.31-.05-.53-.14-.66ZM10.23 26.2c.75-.01 1.35.45 1.58 1.16.06.18.08.48.09.91a438.02 438.02 0 0 1-.02 2.7.07.07 0 0 1-.05.02h-.71c-.05 0-.07-.02-.07-.07l-.01-2.75c0-.57-.17-.99-.8-.98-.64 0-.8.41-.8.99v2.74c0 .05-.02.08-.07.08h-.7c-.03 0-.04 0-.06-.02a441.5 441.5 0 0 1-.03-2.7c0-.43.03-.73.09-.9.22-.72.82-1.19 1.56-1.19ZM22.08 27.3a.07.07 0 0 0-.06.07c-.01.44-.07.9.21 1.26.13.17.5.2.7.28a.1.1 0 0 1 .07.1v.76c0 .04-.02.06-.07.06-.4.01-.79-.13-1.13-.41-.7-.58-.65-1.13-.65-2.06v-.91c0-.06.03-.09.08-.09h1.66c.07 0 .1.04.1.11v.74c0 .06-.03.1-.1.1h-.8ZM42.46 27.98c.02 1.43-.97 2.22-2.44 2.07-.1 0-.13.03-.13.11v.69c0 .08.03.11.11.12 1.06.03 1.94-.09 2.67-.9.78-.9.96-2.32.43-3.36-.88-1.73-2.96-2.3-4.53-1-.76.62-1 1.55-1 2.46a1731.33 1731.33 0 0 1 .02 5.77l.02.03a.1.1 0 0 0 .08.03h.77c.06 0 .09-.03.09-.09-.02-1.68-.02-3.88 0-5.93 0-.82.35-1.41 1.04-1.78.62-.34 1.5-.26 2.07.2.52.4.79.94.8 1.58ZM38.89 34h.73a.03.03 0 0 0 .03-.02 413.93 413.93 0 0 1 .03-5.97c.02-1.36 2.08-.96 1.53.47-.14.38-.86.42-1.19.38-.1 0-.14.03-.14.13v.72c0 .1.05.14.14.14.51 0 .84-.03 1-.07.78-.25 1.2-.8 1.22-1.64.03-.54-.13-.98-.47-1.34-.7-.75-1.93-.79-2.6 0-.28.33-.37.77-.37 1.18v5.92c0 .03 0 .05.02.07a.1.1 0 0 0 .07.03ZM26.73 30.97c.03 0 .04-.01.04-.04v-.8a.05.05 0 0 0-.05-.05c-.41.02-.77-.02-1.08-.1-1.7-.47-1.85-2.91-.39-3.74.36-.2.73-.28 1.11-.24 1.18.11 1.71 1.1 1.72 2.2v2.73c0 .02 0 .03.02.05l.04.02h.79c.04 0 .07-.03.07-.07 0-1.54 0-2.56-.02-3.04-.04-1.47-.83-2.63-2.3-2.85-.83-.13-1.67.1-2.29.64a3.15 3.15 0 0 0-.4 4.31c.72.92 1.62 1.05 2.74.98Zm.36.03h.68a.1.1 0 0 0 .07-.03.1.1 0 0 0 .02-.07v-2.55c.02-.98-.35-1.95-1.4-2.08-2.09-.26-2.7 2.62-.9 3.44.25.12.53.13.84.15h.19c.12.02.18-.04.18-.16v-.66c0-.13-.06-.18-.18-.17-.88.1-1.47-.37-1.13-1.29.12-.31.37-.46.74-.44.64.03.8.61.8 1.15v2.61c0 .06.02.1.09.1ZM44.88 28.37c-.1-1.19.67-2.37 1.89-2.37h2.75c.05 0 .08-.04.08-.1v-.8c0-.03-.01-.05-.03-.06a.09.09 0 0 0-.06-.03h-1.78c-.81-.02-1.4.03-1.76.15-1.38.44-2 1.78-1.94 3.22 0 .05.03.08.08.08h.69a.08.08 0 0 0 .08-.09Zm1.17-.58c.12-.62.46-.78 1-.79a108.26 108.26 0 0 1 2.52 0 .08.08 0 0 0 .02-.06v-.66c0-.05-.02-.07-.07-.07h-2.46c-1.23-.04-2 .86-1.96 2.09 0 .1.06.16.17.16h.56a.14.14 0 0 0 .1-.05.15.15 0 0 0 .04-.1c0-.07.02-.25.08-.52Zm.74 1.2c.57 0 .77-.35.86-.9.02-.18.03-.32.02-.42-.01-.1.03-.14.12-.14h.61a.12.12 0 0 1 .1.04.13.13 0 0 1 .03.1l-.03.43c-.08 1.17-.69 1.75-1.83 1.75a150.24 150.24 0 0 0-2.65 0 .08.08 0 0 1-.02-.06v-.7c0-.06.03-.09.1-.09h2.7Zm1.98-1.42c.12 1.31-.57 2.44-1.95 2.43h-2.76c-.04 0-.06.03-.06.07v.87c0 .04.02.06.06.06h2.79c.64-.02 1.14-.17 1.52-.47.9-.7 1.3-1.7 1.2-2.97v-.02l-.02-.01h-.76a.04.04 0 0 0-.02.04Z" fill="#B6419A"/></svg>