<!-- by TradingView --><svg width="56" height="56" viewBox="0 0 56 56" xmlns="http://www.w3.org/2000/svg"><path fill="#F0F3FA" d="M0 0h56v56H0z"/><path d="M11.18 14.06 13.9 14h4.46a.77.77 0 0 1 .58.26l7.81 9.42c.1.12.15.26.15.41v1.77c0 .1-.05.14-.15.14h-8.62a.29.29 0 0 1-.2-.09.25.25 0 0 1-.07-.2c.12-.87.24-1.38-.4-2.2a666 666 0 0 0-4.71-5.89L10 14.21c.14-.21.53-.26 1.18-.15Zm7.14 10.16v1.04c0 .1.06.16.17.16h7.64c.09 0 .14-.04.16-.12.17-.65.14-1.12-.1-1.4-2.18-2.6-4.58-5.58-7.2-8.92a1.1 1.1 0 0 0-.85-.4h-7.29c-.17 0-.2.06-.1.19l7.34 8.83c.15.18.23.4.23.62ZM29.11 25.78c.02-.88-.2-1.62.46-2.42 3.36-4.07 5.84-7.1 7.45-9.06.07-.1.17-.17.28-.22a.85.85 0 0 1 .36-.08h8.18c.03 0 .06 0 .08.02l.06.06a.14.14 0 0 1-.01.16c-3 3.74-5.48 6.83-7.45 9.25-.57.7-.43 1.47-.4 2.33 0 .12-.05.18-.18.18h-8.6a.24.24 0 0 1-.16-.06.2.2 0 0 1-.06-.15Zm8.58-1.54c0-.22.08-.44.23-.62l7.35-8.89c.1-.12.07-.19-.1-.19h-7.3c-.17 0-.33.04-.48.11-.15.07-.27.17-.37.3a373.44 373.44 0 0 1-7.23 8.98c-.23.28-.26.74-.1 1.4.02.08.08.12.16.12h7.67c.12 0 .17-.06.17-.16v-1.05Z" fill="#724932"/><path d="M28.01 14.22h.04l.04.03c1.36 1.69 2.67 3.26 3.92 4.72a.19.19 0 0 1 0 .24l-3.54 4.42a.59.59 0 0 0-.14.38v2.48c0 .1-.05.17-.15.2a.56.56 0 0 1-.18.03c-.08 0-.15 0-.2-.02-.1-.04-.14-.1-.14-.2V24a.6.6 0 0 0-.13-.39L24 19.2a.19.19 0 0 1 0-.24 253.02 253.02 0 0 0 3.98-4.73H28Z" fill="#8E5233"/><path d="M28.56 32.9a.14.14 0 0 0-.14.15v4.89c.01.65.46 1.07 1.16 1.06a.7.7 0 0 0 .05 0c.7-.05 1.03-.4 1-1.06-.02-.85.03-1.4.16-1.64.51-1 1.63-.48 1.64.57a36.5 36.5 0 0 1-.08 3.35c-.03.31-.28.66-.77 1.05-1.01.8-2.05.94-3.12.43A2.48 2.48 0 0 1 27 39.54V29.26c0-.48.27-.72.68-.7h.03c.44-.05.7.12.72.55v2.24c0 .05.02.1.05.13.03.03.08.05.13.05h2.43c.46 0 .66.24.63.72v.03c-.07.4-.32.62-.77.62h-2.34ZM23.76 40.12c.76.21.92-.39 1.32-.82a.8.8 0 0 1 .45-.26c.17-.03.34 0 .5.08.76.43.59 1.45-.03 2.08-.96.99-2.94 1.2-3.77-.15a2.49 2.49 0 0 1-.23-1.27v-6.85c-.02-2.12 2.55-2.25 3.73-1.55.89.52.81 1.44.82 2.7 0 1.04 0 1.94-.02 2.72 0 .08-.03.16-.07.22a.38.38 0 0 1-.17.14l-2.74 1.09a.42.42 0 0 0-.2.16.46.46 0 0 0-.07.24c-.01.37 0 1.34.48 1.47Zm1.58-6.85a.68.68 0 0 0-.1-.33.88.88 0 0 0-.25-.27 1.2 1.2 0 0 0-.37-.17 1.46 1.46 0 0 0-1.23.23.89.89 0 0 0-.23.28.68.68 0 0 0 .02.65c.05.1.14.2.25.27.1.08.23.14.37.18a1.46 1.46 0 0 0 1.23-.23c.1-.08.18-.18.24-.28.05-.1.08-.22.07-.33ZM44 39.77A2.21 2.21 0 0 1 41.77 42h-.52A2.24 2.24 0 0 1 39 39.78v-6.55A2.21 2.21 0 0 1 41.23 31h.52A2.24 2.24 0 0 1 44 33.22v6.55Zm-1.28-6.03a1.02 1.02 0 0 0-1.02-1.03h-.28c-.56 0-1.03.45-1.03 1l-.03 3.46a1.02 1.02 0 0 0 1.02 1.02h.29c.55.01 1.02-.45 1.03-1l.02-3.45ZM13.43 36.38v2.58c-.02.72.16 1.81-.23 2.69-.2.45-.9.51-1.08-.09a2.64 2.64 0 0 1-.12-.75v-7.97c0-.19.17-.5.44-.93.79-1.26 2.6-1.1 3.57-.17l.46.44c.13.1.23.09.3-.03a2.2 2.2 0 0 1 2.97-.86c1.36.67 1.25 1.85 1.26 3.43v6.35c0 .5-.28.78-.77.83h-.03c-.5.07-.74-.27-.74-.78v-5.05c0-.47-.24-.7-.71-.7H18c-.5 0-.76.25-.76.76v5.07c0 .34-.16.57-.48.68a.76.76 0 0 1-.25.07c-.5-.11-.76-.4-.76-.83V36a.5.5 0 0 0-.3-.46c-.69-.29-2.28-.55-2.02.84ZM35.4 35.38h-.26a.7.7 0 0 0-.46.25.79.79 0 0 0-.2.51v5.09c0 .47-.23.73-.67.76l-.07.01c-.47 0-.73-.26-.74-.77v-6.6c0-.82.05-1.42.17-1.78.5-1.58 2.3-2.4 3.61-1.44.8.58 1.14 1.33 1.16 2.44l.06 3.1c0 .6-.17 1.18-.74 1.34-.58.16-1.04-.36-1.1-.95l-.05-1.32c0-.37-.24-.58-.7-.64Z" fill="#E76232"/></svg>