<!-- by TradingView --><svg width="56" height="56" viewBox="0 0 56 56" xmlns="http://www.w3.org/2000/svg"><path fill="#F0F3FA" d="M0 0h56v56H0z"/><path fill-rule="evenodd" d="M27.15 47h1.74c1.9-.4 3.62-1.1 5.17-2.08 4.74-3 7.63-7.31 8.67-12.96.14-.75.27-1.8.27-2.45V13.06a.06.06 0 0 0-.02-.04.06.06 0 0 0-.04-.02H13.06c-.01 0-.03 0-.04.02l-.02.04v13.27c0 2.02 0 3.22.03 3.58A18.8 18.8 0 0 0 23.5 45.78c1.14.56 2.36.97 3.66 1.22Zm13.8-32H15.05l-.01.01a.06.06 0 0 0-.03.04v12.82c0 1.58.05 2.75.17 3.5.7 4.69 3.2 8.76 7.19 11.3 1.44.92 3.1 1.65 4.97 2.2.3.09.52.13.67.13.14 0 .37-.05.67-.13a19.28 19.28 0 0 0 4.97-2.2c3.99-2.54 6.48-6.62 7.18-11.3.11-.76.17-1.93.17-3.51V15.05l-.01-.01a.06.06 0 0 0-.04-.04Z" fill="#0E77BC"/><path fill-rule="evenodd" d="M28.02 44c-.14 0-.34-.04-.62-.12a17.67 17.67 0 0 1-4.59-2.05 14.9 14.9 0 0 1-6.64-10.54c-.1-.7-.16-1.8-.16-3.27a9780.39 9780.39 0 0 1 0-11.98l.03-.01V16l.02-.01h11.93a8799.34 8799.34 0 0 0 11.98.02l.01.02H40l.01.02V28c0 1.48-.05 2.57-.16 3.27a14.9 14.9 0 0 1-6.62 10.55 17.7 17.7 0 0 1-4.59 2.06c-.27.08-.48.12-.61.12ZM23.5 24.75l.05-.01a940.84 940.84 0 0 0 2.4-3.71l.06-.03h2.92c.02 0 .03.01.04.03l.02.04v9.83a.1.1 0 0 1-.03.07.1.1 0 0 1-.07.03h-2.8a.1.1 0 0 1-.1-.1v-5.35c0-.1-.02-.11-.08-.03l-.43.67c-.4.63-1.01 1.62-1.92 2.96-.02.02-.04.03-.07.03a.07.07 0 0 1-.06-.03c-.92-1.36-1.53-2.35-1.92-2.98l-.41-.65c-.06-.09-.11-.08-.11.02V30.9c0 .03 0 .05-.02.06-.01.02-.04.04-.07.04h-2.8l-.03-.01h-.02a.1.1 0 0 1-.06-.1l.02-9.83c0-.02 0-.03.02-.04a.06.06 0 0 1 .04-.02H21l.07.02.05.05 2.33 3.67.06.01Zm15.44-3.74-.03-.01h-8.84a.08.08 0 0 0-.08.08v2.31l.02.06.06.02h2.85a.07.07 0 0 1 .07.07v7.36a.09.09 0 0 0 .03.06c.01.02.03.04.05.04h2.84c.02 0 .04-.02.05-.04a.09.09 0 0 0 .03-.06v-7.36a.07.07 0 0 1 .08-.07h2.84c.02 0 .04 0 .06-.02a.08.08 0 0 0 .02-.06v-2.31a.08.08 0 0 0-.02-.06l-.03-.01Z" fill="#0E77BC"/></svg>