<!-- by TradingView --><svg width="56" height="56" viewBox="0 0 56 56" xmlns="http://www.w3.org/2000/svg"><path fill="#F0F3FA" d="M0 0h56v56H0z"/><path d="M48 13c-4.47 4.77-8.65 9.4-12.39 13.48-.07.08-.16.15-.26.2l-3.48 1.99a.02.02 0 0 1-.03 0 .02.02 0 0 1 0-.04l16.14-15.62.01-.01c.01 0 .01 0 0 0ZM47.08 14.49c-2.26 2.86-4.52 5.58-7.52 9.34-.47.59-.88 1-1.25 1.22-.44.28-.92.6-1.46 1-.3.21-.32.19-.08-.09L47.03 14.5l.04-.03h.01v.02ZM9.69 35.65c1.33 4.19 13.06-3.3 15.05-4.58a185.44 185.44 0 0 0 12.61-8.86l.02-.01c-2.8 2.68-5.94 5.5-9.4 8.44-2.11 1.8-16.72 14.25-18.7 9.14a3.04 3.04 0 0 1-.24-1.62 54.02 54.02 0 0 1 .56-2.53l.02-.02h.03l.03.01.02.03Z" fill="#0C4DA1"/><path d="M13 27.34c-.42 1.58-.32 3.79 1.24 4.7 3.23 1.88 10.37-1.99 13.24-3.71l.04.05c.01.03 0 .05-.02.07l-3.69 2.23c-1.6.98-14.47 8.72-13.06 1.68.05-.24.15-.52.3-.83a683.6 683.6 0 0 0 1.94-4.22c.02 0 .03.01.02.03Z" fill="#0C4DA1"/><path d="M19.39 27.97a.07.07 0 0 1-.02.1l-1.06.68a2.24 2.24 0 0 1-.28.14.44.44 0 0 1-.1.03h-.04l-.39-.63.01-.04a1.35 1.35 0 0 1 .32-.27l1.06-.67a.07.07 0 0 1 .1.02l.4.64ZM20.22 28.58l-.41-.27a.16.16 0 0 0-.18 0l-1.1.83c-.15.1-.14.21.01.31l.13.09c.13.09.26.09.4 0l1.15-.8c.08-.06.08-.1 0-.16Z" fill="#E31D26"/><path fill-rule="evenodd" d="M21.3 29.81a4.31 4.31 0 0 0 0-6.05 4.18 4.18 0 0 0-5.95 0 4.31 4.31 0 0 0 0 6.05 4.18 4.18 0 0 0 5.95 0Zm-2.95-.05c.1-.02.11-.06.04-.14l-.13-.13a.25.25 0 0 0-.12-.07.33.33 0 0 0-.14 0l-.9.13a.45.45 0 0 1-.33-.1l-.23-.17c-.1-.07-.08-.12.03-.13l.9-.14c.07-.01.1-.05.07-.12l-.13-.38c-.03-.12-.12-.17-.24-.15l-.93.14a.55.55 0 0 1-.5-.18l-.2-.2c-.15-.16-.12-.23.1-.22a4.67 4.67 0 0 0 2.99-.91c.06-.05.08-.1.05-.18l-.35-1.08.02-.05c.01-.01.02 0 .04.04l.43.98a.1.1 0 0 0 .08.06.1.1 0 0 0 .09-.03c.54-.56 1-1.2 1.37-1.9.01-.03.03-.04.05-.03h.07c.03.01.04.03.02.06l-1.38 2.17c-.05.08-.05.16.02.22l.43.46c.07.08.14.08.21 0a6.2 6.2 0 0 0 1.46-2.34h.01l.02.02v.04c-.3.92-.74 1.76-1.33 2.5-.08.1-.06.17.04.23l.33.2c.1.05.17.04.24-.04A4.16 4.16 0 0 0 21.4 27l.08.01c.04 0 .05.03.03.07l-.7 1.42a.17.17 0 0 0 0 .18c.05.07.1.13.19.2.04.03.04.05 0 .04h-.03c-.01 0-.03 0-.04-.02-.12-.19-.25-.2-.4-.06-.4.44-.77.76-1.07.95-.06.04-.09.08-.09.13a.52.52 0 0 0 .02.07.02.02 0 0 1 0 .02h-.02l-1.35.2a.48.48 0 0 1-.33-.06l-.17-.1c-.09-.05-.08-.08.02-.1l.82-.18Zm-1.55-2.52c.09.2.18.35.21.34.04-.01 0-.19-.08-.4-.08-.2-.17-.35-.2-.33-.04.01 0 .19.07.39Z" fill="#E31D26"/></svg>