<!-- by TradingView --><svg width="56" height="56" viewBox="0 0 56 56" xmlns="http://www.w3.org/2000/svg"><path fill="#F0F3FA" d="M0 0h56v56H0z"/><path d="M6.98 25.72c-.15.41.24.78.56 1.02l1.26.94c.7.55 1.26 1.23 1.2 2.14-.08.94-.62 1.7-1.53 2.01-.93.32-2.1.15-3-.26a37.65 37.65 0 0 1-.47-.22v-.03L5.52 30a.03.03 0 0 1 .02-.02h.03c.43.23.86.38 1.3.47.2.04.42.03.64 0 .54-.11.8-.69.44-1.1a2.51 2.51 0 0 0-.41-.4l-1.04-.78c-.63-.46-1.14-.99-1.23-1.79-.13-1.26.72-2.16 1.95-2.33a4.16 4.16 0 0 1 2.26.34v.02l-.37 1.14a.04.04 0 0 1-.03.03.04.04 0 0 1-.03 0c-.4-.21-.84-.31-1.3-.29-.34.02-.64.12-.77.44ZM46.73 31.93a3.18 3.18 0 0 1-2.53-2.4 5.8 5.8 0 0 1-.15-2.3c.26-2.04 1.81-3.5 4.08-3.19 2.65.35 3.16 3.06 2.74 5.1-.4 1.95-1.96 3.17-4.14 2.8ZM46 27.98c0 .93.14 2.94 1.48 2.94 1.33.01 1.51-2 1.52-2.92 0-.92-.14-2.93-1.47-2.94-1.34-.01-1.52 2-1.53 2.92ZM11.72 32h-1.3a.03.03 0 0 1-.02-.03v-.01l2.78-7.94a.03.03 0 0 1 .03-.02h1.12l.02.02 2.83 7.94v.01a.03.03 0 0 1-.02.03H15.2v-.02L14.55 30h-2.21l-.6 1.98a.03.03 0 0 1-.03.02Zm.98-3.02V29h1.52v.01a.02.02 0 0 0 .02-.02l-.75-2.4a.02.02 0 0 0-.03 0L12.7 29ZM19.33 25.71l-.01.04a1552.27 1552.27 0 0 1-.01 6.24h-1.27c-.03 0-.04 0-.04-.03v-7.94c0-.01 0-.02.02-.02h2.41l.02.03 1.51 5.26c.02.05.03.05.04 0l1.54-5.25.02-.03.03-.01H26l.01.03v7.96h-2s0 .01 0 0c0 0 0 .01 0 0 0 0 0 .01 0 0 0 0 0 .01 0 0v-6.23c0-.09.02-.08 0 0l-1.77 6.2c0 .03-.02.04-.05.04h-1l-.04-.01-.02-.02-1.77-6.25h-.01ZM33.7 27.5l.95 1.34c.02.03.03.02.03-.01v-4.8l.01-.02.02-.01H36l.01.03v7.96l-.03.01h-1.14a.1.1 0 0 1-.07-.04l-.32-.43a363.3 363.3 0 0 1-3.1-4.37c-.01-.03-.02-.02-.02.01v4.8l-.01.02-.02.01H30l-.01-.03v-7.96l.03-.01h1.14a.1.1 0 0 1 .07.04l.32.43 2.14 3.04ZM42.74 30.68A3.32 3.32 0 0 1 39.88 32a980.9 980.9 0 0 0-2.88-.02V24h3.36c.37 0 .77.08 1.2.23 1.06.37 1.65 1.26 1.86 2.38.06.35.1.78.08 1.26a4.9 4.9 0 0 1-.76 2.8Zm-1.33-4.33c-.04-.2-.1-.4-.2-.63-.2-.43-.48-.68-.96-.71A13.64 13.64 0 0 0 39 25v5.95l.01.03h.02c.27.02.84.01 1.03 0 1.06-.07 1.34-1 1.42-1.94.07-.93.05-1.97-.07-2.7ZM28.96 24h-1.92a.04.04 0 0 0-.04.04v7.92c0 .02.02.04.04.04h1.92c.02 0 .04-.02.04-.04v-7.92a.04.04 0 0 0-.04-.04Z" fill="#12355F"/></svg>