<!-- by TradingView --><svg width="56" height="56" viewBox="0 0 56 56" xmlns="http://www.w3.org/2000/svg"><path fill="#F0F3FA" d="M0 0h56v56H0z"/><path d="M46.74 17a.2.2 0 0 1 .18.13c.01.02.08.05.08.08v6.96l-.07.03-.03.01h-.03l-.02-.03-1.35-2.87a14.55 14.55 0 0 0-3.02-3.29.36.36 0 0 1-.13-.27v-.58a.17.17 0 0 1 .17-.17h4.22Z" fill="url(#a)"/><path d="M46.94 31.11a.05.05 0 0 1 .02.04l.04.02v7.42c-.03.14-.32.42-.49.41H43.1c-.54.02-.76-.3-.64-.88.05-.3.3-.6.73-.88a13.3 13.3 0 0 0 3.7-6.12l.01-.01a.05.05 0 0 1 .04 0Z" fill="url(#b)"/><path d="M35.35 17c3.26.04 4.84.5 7.09 2.4l.19.16.13.13a11.34 11.34 0 0 1 3.38 9.67A11.08 11.08 0 0 1 39.5 38c-.52.23-1.25.43-2.2.6-1.3.21-2.73.24-4.3.07a6.77 6.77 0 0 1-2.4-.67 2.65 2.65 0 0 1-.89-.4.32.32 0 0 1-.14-.26v-5.61a.1.1 0 0 1 .13-.1 6.44 6.44 0 0 0 7.1 2.41c3.5-.87 5.45-4.55 4.53-8.06a6.76 6.76 0 0 0-4.6-4.51 6.48 6.48 0 0 0-6.01 1.44l-.17.15-.12.12a6.47 6.47 0 0 0-1.97 4.6v10.54a1 1 0 0 1-.02.5.25.25 0 0 1-.25.17h-3.73c-.23 0-.37-.1-.42-.23-.05-.12-.07-.3-.04-.51V28.15a7.85 7.85 0 0 0-1.03-3.77 7.3 7.3 0 0 0-3.4-2.7 6.6 6.6 0 0 0-8.9 6.43c.26 3.8 3.59 6.61 7.42 6.15a6.5 6.5 0 0 0 4.4-2.55.1.1 0 0 1 .1.03.1.1 0 0 1 .02.06v5.7a.21.21 0 0 1-.14.19c-1.43.58-2.36.94-3.7.97-1.21.03-2.15.14-3.3.02-5.06-.52-8.76-4.68-9.4-9.63l-.06-.84c-.06-1.44.15-2.83.63-4.17C8.58 18.99 13.12 17 17.27 17c4.14 0 6.12.7 8.74 3.8a.14.14 0 0 0 .18.04l.04-.04c2.59-3.1 5.86-3.84 9.12-3.8Z" fill="url(#c)"/><defs><linearGradient id="a" x1="44.66" y1="17" x2="44.66" y2="24.21" gradientUnits="userSpaceOnUse"><stop stop-color="#7DB755"/><stop offset="1" stop-color="#157A6E"/></linearGradient><linearGradient id="b" x1="44.7" y1="31.1" x2="44.7" y2="39" gradientUnits="userSpaceOnUse"><stop stop-color="#7EB764"/><stop offset="1" stop-color="#07826E"/></linearGradient><linearGradient id="c" x1="26.12" y1="16.95" x2="26.12" y2="39" gradientUnits="userSpaceOnUse"><stop stop-color="#6DB453"/><stop offset=".72" stop-color="#107368"/></linearGradient></defs></svg>