<!-- by TradingView --><svg width="56" height="56" viewBox="0 0 56 56" xmlns="http://www.w3.org/2000/svg"><path fill="#F0F3FA" d="M0 0h56v56H0z"/><path d="M29.06 44H15.53a.5.5 0 0 1-.36-.87l13.81-13.57A2 2 0 0 0 29 26.7L15.15 12.86a.5.5 0 0 1 .36-.86h9.04c3.05 0 5.98 1.2 8.14 3.32l10.1 9.96A4.02 4.02 0 0 1 42.8 31L30.15 43.55c-.3.29-.68.45-1.1.45Z" fill="url(#a)"/><path d="M24.34 44h-8.81a.5.5 0 0 1-.36-.87l13.81-13.57c.18-.17.31-.36.41-.57 1.04 2.78.99 8.27-5.05 15.01Z" fill="url(#b)"/><path d="M24.34 44h4.72c.26 0 .52-.07.74-.2 1.1-1.98 3.94-7.63 3.08-11.28-.66-2.85-3.3-5.1-3.48-5.24a2 2 0 0 1 0 1.71c1.03 2.78.98 8.27-5.06 15.01Z" fill="url(#c)"/><defs><linearGradient id="a" x1="17.88" y1="13.01" x2="38.64" y2="33.85" gradientUnits="userSpaceOnUse"><stop stop-color="#448EF0"/><stop offset=".44" stop-color="#244EC3"/><stop offset="1" stop-color="#0A1CA2"/></linearGradient><linearGradient id="b" x1="29.28" y1="30.87" x2="18.4" y2="41.45" gradientUnits="userSpaceOnUse"><stop stop-color="#7CBE41"/><stop offset="1" stop-color="#44952A"/></linearGradient><linearGradient id="c" x1="33.04" y1="32.89" x2="28.02" y2="34.62" gradientUnits="userSpaceOnUse"><stop stop-color="#E49B3D"/><stop offset="1" stop-color="#DC4128"/></linearGradient></defs></svg>