<!-- by TradingView --><svg width="56" height="56" viewBox="0 0 56 56" xmlns="http://www.w3.org/2000/svg"><path fill="#F0F3FA" d="M0 0h56v56H0z"/><path d="M25.95 24.5c-.13 1.58-1.3 1.23-2.19.55a16.1 16.1 0 0 1-4.34-5.04 3.9 3.9 0 0 0-7.36.82c-.4 2 1 4.06 3 4.46.29.05 1 .05 2.14-.02 2.85-.17 5.38.38 7.58 2.2.62.5 1.11.71 1.8.24.75-.52.84-1.71.8-2.55-.03-.89.04-1.56.26-2.31a16.41 16.41 0 0 1 2.68-5.27c.5-.67.83-1.2.97-1.55a4.38 4.38 0 0 0-2.15-5.53 4.47 4.47 0 0 0-6.27 5.43c.11.32.35.74.7 1.24 1.55 2.2 2.58 4.68 2.38 7.34ZM39 31.8c-2.49.33-5.01.12-7.16-1.17-1.28-.77-.48-1.57.46-2.01a15.35 15.35 0 0 1 6.07-1.4 4.7 4.7 0 0 0 1.5-.25c2.6-1.02 3.1-4.4.9-6.1a3.7 3.7 0 0 0-5 .57c-.17.2-.46.79-.89 1.75-1.05 2.39-2.58 4.21-5.04 5.25-.7.28-1.07.6-.96 1.35.12.84 1.08 1.41 1.8 1.73.76.35 1.3.7 1.84 1.19a15.37 15.37 0 0 1 3.3 4.4c.35.7.65 1.18.9 1.44a4.21 4.21 0 0 0 5.55.59c3.08-2.22 1.8-6.87-1.92-7.4a5.3 5.3 0 0 0-1.35.05Zm-7.91-7.05c1 0 1.82-.8 1.82-1.79a1.8 1.8 0 0 0-1.82-1.79c-1 0-1.82.8-1.82 1.8 0 .98.81 1.78 1.82 1.78Zm-6.1 6.58c.06.02.11.06.16.1.63.7.48 1.36.26 2.3l-.03.13a17.2 17.2 0 0 1-2.55 5.78 3.9 3.9 0 0 0 1.64 6.07c1.28.53 2.93.32 4-.54a3.93 3.93 0 0 0 .81-5.36c-1.8-2.7-2.67-5.38-2.04-8.54.12-.57.12-.97.03-1.22-.44-1.1-2.03-.8-2.91-.38-.8.37-1.36.68-1.23 1.61 0 .05.03.1.06.14a.4.4 0 0 0 .15.1l.2.04c.07 0 .15 0 .23-.02l1.01-.22a.38.38 0 0 1 .2.01Zm-6.3 3.65c1.2 0 2.15-.94 2.15-2.1 0-1.17-.96-2.1-2.14-2.1-1.18 0-2.14.93-2.14 2.1 0 1.16.96 2.1 2.14 2.1Zm14.38.99a1.8 1.8 0 0 1-1.82 1.79c-1 0-1.82-.8-1.82-1.8 0-.98.81-1.78 1.82-1.78 1 0 1.82.8 1.82 1.79Z" fill="#B92F3F"/></svg>