<!-- by TradingView --><svg width="56" height="56" viewBox="0 0 56 56" xmlns="http://www.w3.org/2000/svg"><path fill="#F0F3FA" d="M0 0h56v56H0z"/><path d="M29.99 15.35a.87.87 0 0 1 .17-.27c.15-.13.28-.1.39.06.03.06.05.16.06.29.01.17 0 .36-.04.55-.06.38-.18.78-.3 1.17a5.77 5.77 0 0 1-1.08 2.06c-.43.51-.93.93-1.53 1.34-.44.3-.9.59-1.37.79-.22.09-.47.17-.72.14-.21-.02-.19-.22-.19-.36 0-.19.02-.42.06-.7a8 8 0 0 1 .59-1.9 5.26 5.26 0 0 1 2.7-2.72 7.36 7.36 0 0 1 1.26-.45Z" fill="#EF4036"/><path d="M33.02 24.2c.71-.57 1.4-.96 2.35-1.1.56-.07 1.14-.1 1.74-.05 1.18.08 2.44.56 3 1.63h.01a4.83 4.83 0 0 1 4.4-1.65c1.09.12 2.03.58 2.63 1.48.74 1.13.81 2.53.83 3.82v.07a121.11 121.11 0 0 1-.03 5.6H45V27.7c0-1.13-.86-2.18-2.05-2.24-.42-.03-.8 0-1.11.1-.77.24-1.26.8-1.37 1.56l-.02.53v6.33l-.02.01H37.5v-.01l-.01-6.24c0-.3-.01-.5-.04-.64-.15-.8-.74-1.5-1.61-1.64a3.7 3.7 0 0 0-1.53.14C33.23 25.99 33 27 33 28v5.98h-.02V34H30l-.01-.02V23.03s0-.03.02-.03h2.96l.02.03v1.16h.02ZM12.13 29.05c.01.02.02.02.03 0l2.47-6a.02.02 0 0 1 .02-.01h1.79l2.4 6.01c0 .01 0 .01 0 0l2.48-6a.03.03 0 0 1 .03-.02H24s.01 0 0 0l-4.06 10.95c0 .01 0 .02-.02.02H17.9c-.02 0-.03-.01-.03-.02l-2.48-6c0-.02-.02-.02-.02 0l-2.39 6V34h-1.92v-.01L7 23.02C7 23 7 23 7.02 23l2.7.03a.03.03 0 0 1 .03.02l2.38 6ZM27.98 23h-2.96l-.02.01V34l.02.01h2.96l.02-.01V23l-.02-.01Z" fill="#050707"/></svg>