<!-- by TradingView --><svg width="56" height="56" viewBox="0 0 56 56" fill="none" xmlns="http://www.w3.org/2000/svg">
<rect width="56" height="56" fill="#F0F3FA"/>
<path d="M11 23.1495V37C12.1142 36.2639 12.2468 34.4974 12.9746 33.4889C13.5322 32.7163 14.373 32.0017 15.0109 31.2748C15.5201 30.6945 15.7545 30 16.4918 30C17.328 30 17.2521 31.1842 17.9111 31.7445C18.5827 32.3155 18.7878 32.75 19.3303 33.4889C22.2613 37.481 23.4513 39.9145 26.2736 43.597C26.4948 43.8856 26.6726 43.9996 26.7969 44C26.9201 44.0004 27 43.8891 26.9985 43.7257C27.0049 43.5943 26.9706 43.4293 26.8906 43.2615C25.1629 39.6384 24.3593 38.1288 22.4465 33.667C22.0482 32.7381 23.1485 31.788 23.5263 30.8491C23.9058 29.9058 23.651 29.1789 24.1434 28.2995C24.5509 27.5715 25.0084 27.3589 25.5626 26.7563C26.21 26.0523 26.4992 25 27.8746 25C29.25 25 29.5806 26.0831 30.314 26.7563C31.01 27.3953 31.5874 27.5529 32.1652 28.2995C35.125 32.1238 38.7895 38 39.4531 38C39.7645 38 38.9183 36.123 38.7895 35.8125C37.6479 33.0616 38.1562 34.1875 36.3125 29.9097C36.2118 29.676 35.986 28.923 36 28.6571C36 27.8819 36.5447 27 37.3125 27C38.3438 27 38.3992 27.6843 39.102 28.0689C40.2958 28.7222 41.3756 28.7862 42.2232 29.9097C42.6675 30.4986 43.0254 31.6542 43.0254 31.6542C43.0254 31.6542 43.5858 33 44.2812 33C44.9767 33 45 31.9897 45 31.9897V23.4869C45 22.062 44.3072 20.7432 43.1784 20.0193L29.8125 11.5581C29.2114 11.1726 28.6747 10.9865 28 11.0008C27.4032 11.0134 26.668 11.1827 26.1288 11.5096L12.8994 19.6334C11.7268 20.3443 11 21.6897 11 23.1495Z" fill="#63554A"/>
</svg>
