<!-- by TradingView --><svg width="56" height="56" viewBox="0 0 56 56" xmlns="http://www.w3.org/2000/svg"><path fill="#F0F3FA" d="M0 0h56v56H0z"/><path d="M31.02 18.83c.38-.4.7-.7.92-.9 1.48-1.4 3.35-2.37 5.43-2.23 2.21.16 3.32 2.28 3.63 4.3v4c1.96.96 4.14 2.34 5.57 3.92.65.72 1.08 1.5 1.31 2.36.45 1.7-.43 3.3-1.83 4.3-1.94 1.35-4.34 1.92-6.69 2.1-.63.05-1.56.11-2.7.12l-.37.77a13.39 13.39 0 0 1-5.2 6.03 8.64 8.64 0 0 1-4.02 1.4c-.17.01-.52-.04-1.05-.14-3.18-.64-3-4.36-3.02-6.86a29.14 29.14 0 0 1-5-.44 16.77 16.77 0 0 1-4.97-1.84 9.73 9.73 0 0 1-4.8-6.01c-.14-.54-.2-1-.22-1.4-.2-4.86 3.65-7.86 8.15-8.05a19.1 19.1 0 0 1 4.36.23c-1.2-2.14.13-6.84 2.1-8.07.24-.16.58-.28 1-.36 1.5-.31 3.05.7 4.08 1.71a17.94 17.94 0 0 1 3.32 5.06Z" fill="#6FBA4A"/><circle cx="36.5" cy="23.5" r="2.5" fill="#FFF035"/><circle cx="31.5" cy="21.5" r="1.5" fill="#FFF035"/><circle cx="32" cy="25" r="1" fill="#FFF035"/><path d="M17 23a4 4 0 0 0-4 4v6h1v-6a3 3 0 1 1 6 0v6h1v-6a4 4 0 0 0-4-4ZM32 33a3 3 0 0 1-3-3v-3h1v3a2 2 0 1 0 4 0v-3h1v3a3 3 0 0 1-3 3ZM36 27h6v.64L38 32h4v1h-6v-.64L40 28h-4v-1ZM22 29.54c0-1.4 1.32-2.54 2.96-2.54h.08c1.62 0 2.93 1.12 2.96 2.5V33h-1v-1.18c-.4.62-1.06 1.18-1.96 1.18h-.08C23.32 33 22 31.86 22 30.46v-.92Zm5 .46a2 2 0 1 0-4 0 2 2 0 0 0 4 0Z" fill="#fff"/><path d="m30.1 36.62 3.66-5.57L35 30c0 .72-.12 1.19-.91 2.42a97.43 97.43 0 0 0-3.05 4.97l-.94-.77Z" fill="#fff"/><path d="M31.24 39.18c-.99 1.52-2.57 2.23-3.53 1.58-.97-.65-.94-2.42.05-3.94s2.57-2.23 3.53-1.58c.97.65.94 2.42-.05 3.94Z" fill="#fff"/></svg>