<!-- by TradingView --><svg width="56" height="56" viewBox="0 0 56 56" xmlns="http://www.w3.org/2000/svg"><path fill="#F0F3FA" d="M0 0h56v56H0z"/><path d="M28.07 12c.36 0 .65.06.86.18a388.56 388.56 0 0 1 7.33 4.15.13.13 0 0 1 0 .15 10.98 10.98 0 0 1-8.21 3.54 10.98 10.98 0 0 1-8.2-3.63.13.13 0 0 1 .05-.15c2.42-1.38 4.86-2.74 7.31-4.07.21-.11.5-.17.86-.17Z" fill="#3AA303"/><path d="M27.95 35.88c.1.3.19.3.27 0 1.76-6.94 8.56-12.12 14.63-14.87a.1.1 0 0 1 .1 0l.04.05.01.05v11.86c-.02 1.74-.36 3-1.79 3.81l-12.24 6.98c-.59.33-1.23.32-1.92-.04-.97-.51-5-2.8-12.12-6.89-1.74-1-1.96-2.61-1.93-4.52a724.7 724.7 0 0 0 .03-11.22.1.1 0 0 1 .03-.04.1.1 0 0 1 .1-.01c6.36 2.62 12.6 7.92 14.8 14.84Z" fill="url(#a)"/><defs><linearGradient id="a" x1="13" y1="30.08" x2="43" y2="30.08" gradientUnits="userSpaceOnUse"><stop stop-color="#05742F"/><stop offset="1" stop-color="#3DA600"/></linearGradient></defs></svg>