<!-- by TradingView --><svg width="56" height="56" viewBox="0 0 56 56" xmlns="http://www.w3.org/2000/svg"><path fill="#F0F3FA" d="M0 0h56v56H0z"/><path fill-rule="evenodd" d="M12.43 16.62c.03-.12.05-.24.05-.37 0-.7-.55-1.25-1.24-1.25-.68 0-1.24.56-1.24 1.25 0 .62.45 1.13 1.04 1.23L14.8 44l.68-.1-2.05-15.25 1.67 7.94-.01.04-.11.46.22-.02 1.22 5.83.67-.14L15.89 37l14.18-1.3c.83.44 2.16 1.06 3.59 1.58 1.47.53 3.08.98 4.36.98 1.26 0 2.94-.3 4.51-.67 1.58-.36 3.08-.8 3.97-1.1l.2-.07.04-.21c1.25-9.77-2.28-17.15-4.23-19.65l-.15-.2-.23.08c-1.27.43-4.72 1.3-8.3 1.3-2.03 0-3.56-.57-5.27-1.2l-.41-.16c-1.89-.69-4-1.39-7.13-1.39-4.03 0-7.01.9-8.6 1.62Zm3 18.24c.34-2.1.52-4.82.24-7.59-.35-3.45-1.42-6.9-3.78-9.28l3.55 16.87Zm.92-7.66c-.36-3.55-1.48-7.22-4.04-9.76 1.3-.68 4.36-1.75 8.7-1.75a18.41 18.41 0 0 1 7.33 1.5c1.7.64 3.33 1.25 5.5 1.25 3.46 0 6.8-.8 8.28-1.26 1.86 2.53 5.09 9.51 3.97 18.73-.9.3-2.27.69-3.71 1.02-1.57.37-3.18.65-4.36.65-1.15 0-2.67-.4-4.13-.94a30.59 30.59 0 0 1-3.6-1.58l-.08-.05-14.34 1.31c.47-2.25.83-5.65.48-9.12Z"/><path d="M30.5 19c.28 0 .5.23.5.52v6.5l.23.02.01-.07.48-1.78a.25.25 0 0 1 .3-.18c.14.03.22.17.18.3l-.47 1.78 2.7-6.28c.12-.26.4-.38.65-.26.25.11.36.42.25.67l-2.66 6.19c.29.1.56.24.83.4l.92-1.18c.08-.1.24-.12.35-.04.11.08.13.24.05.35l-.9 1.14.2.16 4.17-4.5c.19-.2.5-.2.7-.01.2.2.2.52.01.72l-4.16 4.48a5 5 0 0 1 .35.46l1.47-1.03a.26.26 0 0 1 .35.06c.08.1.06.26-.06.34l-1.48 1.05 5.55-2.45c.24-.1.53.01.64.27.1.26-.01.56-.26.67l-5.57 2.46c.06.22.1.44.13.66l1.71-.5c.14-.04.28.03.32.16a.25.25 0 0 1-.17.31l-1.82.54V31h6.51a.5.5 0 0 1 .49.5.5.5 0 0 1-.49.5H18.49a.5.5 0 0 1-.49-.5c0-.28.22-.5.49-.5H25v-.07l-1.82-.54a.25.25 0 0 1-.17-.3c.04-.14.18-.21.32-.17l1.7.5.11-.55-5.83-2.57a.52.52 0 0 1-.26-.67c.1-.26.4-.38.64-.27l5.8 2.56.06-.1-1.5-1.06a.25.25 0 0 1-.06-.34.26.26 0 0 1 .35-.06l1.47 1.03.21-.3-4.31-4.64a.52.52 0 0 1 .01-.72c.2-.2.51-.19.7.01l4.3 4.63.36-.29-.9-1.14a.24.24 0 0 1 .05-.35.26.26 0 0 1 .35.04l.92 1.18c.19-.11.38-.21.58-.3l-2.7-6.29a.52.52 0 0 1 .25-.67c.24-.12.53 0 .64.26l2.75 6.38.26-.07-.01-.03-.47-1.78a.25.25 0 0 1 .18-.3c.13-.04.27.04.3.18l.48 1.78v.07l.24-.02v-6.5c0-.29.22-.52.5-.52Z" fill="#D40000"/><path d="m30.94 31-1.25-2.13-.74 2.13H28l1.04-3h1.07l1.21 2.1.73-2.1H33l-1.04 3h-1.02Z" fill="#016CB0"/></svg>