<!-- by TradingView --><svg width="56" height="56" viewBox="0 0 56 56" xmlns="http://www.w3.org/2000/svg"><path fill="#F0F3FA" d="M0 0h56v56H0z"/><path d="M22.24 13.93 16 25.06C18.08 23.4 23.37 20 27.87 20c4.5 0 7.29 4.03 8.12 6 .26-11.81-4.43-16-8.12-16-2.95 0-4.98 2.62-5.63 3.93Z" fill="#9EC8EA"/><path d="M43.7 31.05 37.08 20c.4 2.65.61 8.93-1.7 12.87-2.3 3.93-7.2 4.39-9.37 4.12 10.3 6.17 16.41 4.18 18.3.95 1.5-2.57.23-5.66-.6-6.89Z" fill="#EAE6B6"/><path d="M18.04 41H31c-2.51-.98-8.12-4.02-10.4-7.95-2.3-3.93-.26-8.34 1.05-10.05-10.52 5.7-11.8 11.9-9.93 15.12 1.5 2.57 4.78 2.88 6.32 2.88Z" fill="#A7D38B"/></svg>