<!-- by TradingView --><svg width="56" height="56" viewBox="0 0 56 56" fill="none" xmlns="http://www.w3.org/2000/svg">
<rect width="56" height="56" fill="#2B314C"/>
<path d="M34 23L21 23V34H34V31H24V30H34V27H24V26H34V23Z" fill="url(#paint0_linear_5085_142951)"/>
<path fill-rule="evenodd" clip-rule="evenodd" d="M21 23V28.1386C22.033 27.9232 23.7934 27.4925 24 27.4925V26H27.5754C27.7132 25.7553 28.282 25.3449 28.6539 25.0395C28.8542 24.875 29.8021 24.5625 30.1938 24.3655C30.7112 24.1052 30.4717 23.7143 30.5452 23.5305C30.6485 23.272 30.9656 23.0587 31 23H21Z" fill="url(#paint1_linear_5085_142951)"/>
<path fill-rule="evenodd" clip-rule="evenodd" d="M21 34H25.5947C25.7877 33.7259 26.2896 32.9971 26.7528 32.7152C27.216 32.4333 27.7179 31.3915 27.9109 31H24V30H26.7528C26.7528 29.7455 26.8686 29.1091 27.3318 29.0152C27.9109 28.8977 29.1742 28.1342 29.2269 27.7231C29.269 27.3942 29.2444 27.0783 29.2269 27H24.2236C24.013 27 22.0528 27.5077 21 27.7231V34Z" fill="url(#paint2_linear_5085_142951)"/>
<path d="M34 31H30.806C30.806 31 30.7421 31.44 30.806 31.658C30.9353 32.0994 31.5256 31.8828 31.7009 32.304C31.8393 32.6369 31.4456 33.0123 31.7009 33.2437C31.9083 33.4317 32.1395 33.361 32.3852 33.2437C32.7418 33.0735 32.651 32.6245 32.9116 32.304C33.1575 32.0016 33.4172 31.9744 33.6485 31.658C33.8001 31.4507 34 31 34 31Z" fill="url(#paint3_linear_5085_142951)"/>
<path d="M32.3357 27H34V30H29.2531C29.2531 30 29.662 29.1741 30.0673 28.8667C30.3173 28.6771 30.5169 28.7261 30.7653 28.5333C31.1422 28.2408 31.1585 27.7862 31.5214 27.4667C31.8081 27.2144 32.3357 27 32.3357 27Z" fill="url(#paint4_linear_5085_142951)"/>
<path d="M40 34.0001V31H43V34.0001H40Z" fill="url(#paint5_linear_5085_142951)"/>
<path d="M46.9053 23H35V26H40V32H40.7018L41.2491 31.5355L41.7965 31.2452H43V26H48V24.3935C48 23.6239 47.5099 23 46.9053 23Z" fill="url(#paint6_linear_5085_142951)"/>
<path d="M43 23H35V26H39.1906C39.1906 26 39.4651 25.6202 39.6955 25.4894C40.0732 25.2749 40.396 25.7486 40.7558 25.4894C41.0367 25.2869 41.0098 24.9176 41.2606 24.6596C41.6186 24.2912 42.0121 24.5153 42.3714 24.1489C42.7034 23.8104 43 23 43 23Z" fill="url(#paint7_linear_5085_142951)"/>
<path d="M13.4044 28.9612L12.4998 30.3286L16.1464 34H19.167L17.6593 31.1549L16.1464 30.3286L13.4044 28.9612Z" fill="url(#paint8_linear_5085_142951)"/>
<path d="M19.9999 23H17V29.7719L10.0289 23L11.3257 29.1617L12.5813 30.3768L13.5704 29.2059L17.5765 31.3721L18.9613 34H19.9999V23Z" fill="url(#paint9_linear_5085_142951)"/>
<path d="M10.0133 23H6V32.2503C6 33.1557 6.64643 34 7.44384 34H9V27.0397L11.3302 29.1703L12.1363 27.0397L11.6437 24.6156L10.0133 23Z" fill="url(#paint10_linear_5085_142951)"/>
<circle cx="48" cy="32" r="2" fill="url(#paint11_linear_5085_142951)"/>
<defs>
<linearGradient id="paint0_linear_5085_142951" x1="23.6" y1="27.5148" x2="31.4957" y2="33.1173" gradientUnits="userSpaceOnUse">
<stop offset="0.254862" stop-color="#2BFFFA"/>
<stop offset="0.879803" stop-color="#02F2E3"/>
</linearGradient>
<linearGradient id="paint1_linear_5085_142951" x1="26.8906" y1="20" x2="18.7754" y2="34.9158" gradientUnits="userSpaceOnUse">
<stop offset="0.217994" stop-color="#00CEF0"/>
<stop offset="0.487811" stop-color="#03ABD9"/>
<stop offset="0.632643" stop-color="#0391C3" stop-opacity="0.87"/>
<stop offset="0.80007" stop-color="#0274AA"/>
</linearGradient>
<linearGradient id="paint2_linear_5085_142951" x1="23.9103" y1="21.0865" x2="22.2763" y2="35.2038" gradientUnits="userSpaceOnUse">
<stop offset="0.578834" stop-color="#0899C6"/>
<stop offset="0.713028" stop-color="#0391C3"/>
<stop offset="0.921323" stop-color="#046B9C"/>
</linearGradient>
<linearGradient id="paint3_linear_5085_142951" x1="32.7537" y1="30.5421" x2="31.4695" y2="34.3401" gradientUnits="userSpaceOnUse">
<stop offset="0.287216" stop-color="#F5FD8E"/>
<stop offset="1" stop-color="#D9D9D9" stop-opacity="0.13"/>
</linearGradient>
<linearGradient id="paint4_linear_5085_142951" x1="27.8055" y1="30" x2="34.3181" y2="29.6101" gradientUnits="userSpaceOnUse">
<stop offset="0.159196" stop-color="#82FFBB" stop-opacity="0.64"/>
<stop offset="0.631232" stop-color="#FAF118"/>
</linearGradient>
<linearGradient id="paint5_linear_5085_142951" x1="41.5526" y1="30.9877" x2="41.5526" y2="34.3632" gradientUnits="userSpaceOnUse">
<stop offset="0.0982143" stop-color="#49F3FE"/>
<stop offset="0.3125" stop-color="#FCFB4E"/>
<stop offset="0.660714" stop-color="#96FC8E"/>
<stop offset="0.892857" stop-color="#28FED3"/>
</linearGradient>
<linearGradient id="paint6_linear_5085_142951" x1="41.5" y1="23" x2="48.6981" y2="26.2936" gradientUnits="userSpaceOnUse">
<stop offset="0.134683" stop-color="#05E1F2"/>
<stop offset="0.369819" stop-color="#05ECFE"/>
<stop offset="0.614155" stop-color="#1EDBED"/>
</linearGradient>
<linearGradient id="paint7_linear_5085_142951" x1="38.9886" y1="23" x2="36.5591" y2="25.4412" gradientUnits="userSpaceOnUse">
<stop offset="0.205065" stop-color="#98FFF2"/>
<stop offset="1" stop-color="#44FFF7"/>
</linearGradient>
<linearGradient id="paint8_linear_5085_142951" x1="17.0327" y1="29.9783" x2="12.9739" y2="31.1336" gradientUnits="userSpaceOnUse">
<stop offset="0.270585" stop-color="#066BA7"/>
<stop offset="0.798289" stop-color="#184792"/>
</linearGradient>
<linearGradient id="paint9_linear_5085_142951" x1="18.5657" y1="23.2927" x2="10.0565" y2="29.7622" gradientUnits="userSpaceOnUse">
<stop stop-color="#00C8E6"/>
<stop offset="0.278453" stop-color="#06A0D0"/>
</linearGradient>
<linearGradient id="paint10_linear_5085_142951" x1="7.28914" y1="33.8896" x2="14.7315" y2="31.3144" gradientUnits="userSpaceOnUse">
<stop stop-color="#004E98"/>
<stop offset="0.551649" stop-color="#026BAD"/>
</linearGradient>
<linearGradient id="paint11_linear_5085_142951" x1="48" y1="30" x2="49.4359" y2="33.7436" gradientUnits="userSpaceOnUse">
<stop offset="0.188942" stop-color="#17F2FF"/>
<stop offset="0.394733" stop-color="#05E5FF"/>
</linearGradient>
</defs>
</svg>
