<!-- by TradingView --><svg width="56" height="56" viewBox="0 0 56 56" xmlns="http://www.w3.org/2000/svg"><path fill="#F0F3FA" d="M0 0h56v56H0z"/><path d="M27 17.46c0-1.91 1.45-3.46 3.24-3.46h14.5L47 17H30v21.46c0 1.95-1.32 3.54-3.16 3.54H11.22L9 39h18V17.46Z" fill="#0A3163"/><path d="M20.08 20H9v16h3V23h9v2.9a2.22 2.22 0 0 1 3 .42v-2.24A4.08 4.08 0 0 0 20.08 20ZM24 29.68a2.22 2.22 0 0 1-3 .42V36h3v-6.32ZM33 32.08c0 2.17 1.53 3.92 3.43 3.92H47v-3H36v-3.18c-.41.47-.84.76-1.47.76A2.1 2.1 0 0 1 33 29.9v2.18ZM33 26.1c.4-.42.94-.68 1.53-.68.63 0 1.06.29 1.47.76V23h11v-3H36.43c-1.9 0-3.43 1.75-3.43 3.92v2.18Z" fill="#0A3163"/><path d="M27 20h3v16h-3V20Z" fill="#1093D7"/><path d="M32 26v4h-7v-4h7Z" fill="#1093D7"/><path fill-rule="evenodd" d="M22 32a4 4 0 1 0 0-8 4 4 0 0 0 0 8Zm0-2a2 2 0 1 0 0-4 2 2 0 0 0 0 4ZM34.88 32c2.15 0 3.88-1.8 3.88-4s-1.73-4-3.88-4A3.94 3.94 0 0 0 31 28c0 2.2 1.74 4 3.88 4Zm-.12-2a2 2 0 1 0 0-4 2 2 0 0 0 0 4Z" fill="#1093D7"/></svg>