<!-- by TradingView --><svg width="56" height="56" viewBox="0 0 56 56" xmlns="http://www.w3.org/2000/svg"><path fill="#F0F3FA" d="M0 0h56v56H0z"/><path d="M25.44 22h-3.32a.12.12 0 0 0-.12.12v11.76c0 .06.05.12.12.12h3.32c.07 0 .12-.06.12-.12V22.12a.12.12 0 0 0-.12-.12ZM29.72 27.71a.1.1 0 0 0-.02.1l.02.04c4.47 3.77 6.78 5.73 6.94 5.88.06.05.1.1.13.15a.08.08 0 0 1 0 .08l-.02.03a.07.07 0 0 1-.04.01h-4.66a.58.58 0 0 1-.4-.16l-5.38-5.15a1.22 1.22 0 0 1-.38-.9 1.27 1.27 0 0 1 .38-.9l4.99-4.74c.1-.1.24-.15.38-.15h4.08c.3 0 .33.1.1.3l-6.12 5.41Z" fill="#1F366A"/><path d="M13.74 22.17a8.24 8.24 0 0 1-1.13 2.47.3.3 0 0 1-.24.14l-1.3-2.52a4.3 4.3 0 0 1 2.67-.1Z" fill="#029BA5"/><path d="m15.89 31.93-1.2-2.52-2.15-4.15a.1.1 0 0 0-.1-.06c-.03 0-.05.01-.05.04l-.02-.46a.3.3 0 0 0 .24-.14c.5-.73.88-1.55 1.13-2.47.94.33 1.68 1 2.21 2.03A24989.9 24989.9 0 0 0 21 33.9a.1.1 0 0 1-.01.05.1.1 0 0 1-.09.05h-3.63a.33.33 0 0 1-.3-.19c-.28-.53-.56-1.1-.83-1.68a.33.33 0 0 0-.1-.13c-.07-.05-.12-.08-.15-.07Z" fill="#38BCAF"/><path d="m11.07 22.26 1.3 2.52.02.46-2.06 3.99a.12.12 0 0 0 0 .11c0 .02.02.03.04.04a.1.1 0 0 0 .05.02l4.26.01 1.21 2.52H9.11a.2.2 0 0 0-.1.03.2.2 0 0 0-.07.08l-.99 1.77a.37.37 0 0 1-.13.13.35.35 0 0 1-.18.05h-3.5c-.02 0-.05 0-.07-.02a.14.14 0 0 1-.05-.05.15.15 0 0 1 0-.14l5.07-9.63a3.88 3.88 0 0 1 1.98-1.89Z" fill="#28A9E1"/><path fill-rule="evenodd" d="M41.46 30.02a408.77 408.77 0 0 1 6.22-.02c3 .07 3.52-2.59 3.26-5.15-.23-2.22-1.74-2.81-3.56-2.83-1.8-.03-4.88-.03-9.25 0-.09 0-.13.05-.13.14v11.68c0 .1.05.16.15.16h3.25l.02-.02a.07.07 0 0 0 .02-.05v-3.86l.02-.05Zm.08-4.97a.13.13 0 0 0-.03.09l-.01 2.24c0 .03.01.07.03.09.03.02.06.04.09.04h5.02a1.48 1.48 0 0 0 .96-.35c.13-.12.23-.25.3-.4.06-.15.1-.3.1-.47v-.04c0-.33-.14-.64-.4-.87-.25-.23-.6-.36-.95-.36h-5.03a.12.12 0 0 0-.08.03Z" fill="#1F366A"/></svg>