<!-- by TradingView --><svg width="56" height="56" viewBox="0 0 56 56" xmlns="http://www.w3.org/2000/svg"><path fill="#F0F3FA" d="M0 0h56v56H0z"/><path fill-rule="evenodd" d="M13 14h30v16h-2V16H15v24h1.9v2H13V14Zm9.16 20.96A2.24 2.24 0 0 1 20.3 36c-1.27 0-2.3-1.12-2.3-2.5s1.03-2.5 2.3-2.5c.77 0 1.45.41 1.87 1.05l-.6.65c-.26-.47-.73-.79-1.27-.79-.8 0-1.46.71-1.46 1.59 0 .88.65 1.59 1.46 1.59.53 0 1-.32 1.26-.78l.6.65Zm20.83 0A2.14 2.14 0 0 1 41.21 36C39.99 36 39 34.88 39 33.5s.99-2.5 2.2-2.5c.75 0 1.4.41 1.8 1.05l-.58.65c-.23-.47-.65-.79-1.14-.79-.74 0-1.33.71-1.33 1.59 0 .88.6 1.59 1.33 1.59.48 0 .9-.31 1.14-.78l.57.65ZM23.82 31H23v5h.82v-2h1.33v2H26v-5h-.85v2h-1.33v-2Zm3.27 5h-.92l1.67-5H28.74l1.67 5h-.92l-.28-.9h-1.83l-.29.9Zm.63-1.98h1.14l-.57-1.8-.57 1.8ZM31.9 31h-1.4v5h.91v-2.06h.02L32.49 36h1.82v-3.27L36.2 36h.8v-5h-.86v3.13L34.31 31h-.81v5l-1.18-2.13c.56-.19.97-.74.97-1.4 0-.81-.62-1.47-1.39-1.47Zm.05.91h-.68v1.1h.68c.28 0 .51-.25.51-.55 0-.3-.23-.55-.51-.55Zm6.44-.91h-.89v5h.89v-5ZM22.1 40.44c-.31.91-1.08 1.56-1.97 1.56-1.18 0-2.13-1.12-2.13-2.5s.95-2.5 2.13-2.5c.8 0 1.51.53 1.87 1.31l-.86.34a1.1 1.1 0 0 0-1-.65c-.65 0-1.18.55-1.18 1.5s.53 1.5 1.18 1.5c.51 0 .95-.34 1.11-.94l.85.38ZM22.06 42h.97l.33-1h1.87l.34 1h.97l-1.77-5h-.95l-1.76 5Zm2.24-3.77.6 1.77h-1.2l.6-1.77Zm11 3.77h.97l.3-.9h1.94l.3.9h.97l-1.76-5h-.95l-1.77 5Zm2.24-3.77.6 1.79h-1.2l.6-1.8ZM27 42v-5h2.23c.79 0 1.43.7 1.43 1.55 0 .86-.64 1.55-1.43 1.55h-1.2V42H27Zm1-4.1h1.06c.34 0 .62.3.62.67 0 .37-.28.67-.62.67H28V37.9Zm3-.9h.96v5H31v-5Zm1.2 0h3.75v.9H34.5V42h-1v-4.1h-1.3V37Zm7.86 5H40v-5h1v4.1h2v.9h-2.94Z" fill="#206FB2"/></svg>