<!-- by TradingView --><svg width="56" height="56" viewBox="0 0 56 56" xmlns="http://www.w3.org/2000/svg"><path fill="#F0F3FA" d="M0 0h56v56H0z"/><path fill-rule="evenodd" d="M31.96 23.57c2.15-.02 5.36-.02 9.64-.02.23 0 .45.06.65.16.21.12.47.25.76.39.19.09.45.13.8.13h6.08c.06 0 .1-.03.1-.09v-.1L49.9 24 28.76 17a.24.24 0 0 0-.15 0l-22.55 7a.09.09 0 0 0-.05.04.09.09 0 0 0 0 .07c.01.07.07.1.15.1h6.3c.3 0 .55-.04.75-.13l.81-.38c.2-.1.43-.14.7-.14a26529.71 26529.71 0 0 1 11.2 0l.28.03c1.62.01 3.4 0 5.28-.03h.48ZM28.4 17.7l-.24.6a.15.15 0 0 1-.14.1h-.3c-.07 0-.08-.03-.04-.08.2-.24.42-.46.65-.66.08-.07.1-.06.07.04Zm.62.04c-.03-.1-.01-.1.06-.04.22.19.42.4.6.62.05.05.04.07-.02.07h-.29a.14.14 0 0 1-.13-.09l-.22-.56Zm3.01.56-1.74-.58c-.03 0-.05 0-.06.03l-.01.03.02.02 1.26.58c.11.05.29.05.53-.02.07-.02.07-.04 0-.06Zm-5-.61c.01.05-.07.13-.24.22-.17.1-.4.2-.66.27l-.07.03c-.25.08-.5.14-.7.17-.18.02-.3.01-.32-.03v-.01l1.98-.65Zm1.6.58a.7.7 0 0 1 .03-.33c.06-.16.03-.19-.08-.09a.5.5 0 0 0-.16.28l-.07.15c-.03.06 0 .1.06.1h.15c.05-.02.07-.06.07-.11Zm-.84-.47h.01c.02.03.02.05.02.08a.3.3 0 0 1-.05.1 1.15 1.15 0 0 1-.23.22l-.06.04c-.1.07-.2.12-.3.15-.08.02-.15.01-.17-.02v-.01l.78-.56Zm2.5.6c-.08-.13-.27-.3-.6-.48-.08-.05-.1-.03-.04.05a1.54 1.54 0 0 0 .61.5.04.04 0 0 0 .03-.04v-.02Zm-1.4-.46.16.37c.02.05 0 .07-.05.07h-.1c-.06 0-.08-.02-.08-.07v-.36c0-.1.02-.1.07 0Zm-1.8.1c.01.03-.15.14-.36.24-.22.1-.4.17-.42.13-.02-.03.14-.14.36-.25.21-.1.4-.16.42-.13Zm3.56.28c.1.06.2.09.2.06.02-.02-.05-.08-.15-.14-.1-.06-.2-.08-.21-.06-.01.02.06.09.16.14Zm-5.07.33-2.86 1.25c-.15.07-.14.1.03.1h1.15c.06 0 .11-.01.16-.04l2.06-1.3c.13-.08.11-.11-.03-.1h-.04l-.05.01c-.14.01-.28.02-.42.08Zm-.67.05-2.54 1.15c-.27.11-.5.17-.72.16h-1.6c-.25 0-.26-.04-.01-.12 2.2-.71 3.6-1.15 4.16-1.3.22-.06.45-.05.7.02.09.03.09.06.01.09Zm1.37.1-.16.1a119.27 119.27 0 0 0-1.68 1.06v.02a.03.03 0 0 0 .03.03h1.16c.06 0 .1-.02.15-.07l1.32-1.3a.04.04 0 0 0 0-.03v-.02h-.02c-.4-.06-.56.05-.8.2Zm1.1 1.2h-1.23a.06.06 0 0 1-.06-.04.06.06 0 0 1 .01-.06l1.29-1.27a.17.17 0 0 1 .11-.04h.43c.05 0 .07.02.05.08l-.5 1.26a.1.1 0 0 1-.03.05.11.11 0 0 1-.07.02Zm1.18-1.42h-.3a.06.06 0 0 0-.05.04l-.5 1.3-.01.03a.06.06 0 0 0 .03.05H28.56a.06.06 0 0 0 .04-.01l.02-.02a.05.05 0 0 0 0-.02v-1.31a.05.05 0 0 0-.03-.05h-.03Zm.64.1a178.07 178.07 0 0 1 .56 1.27.06.06 0 0 1-.06.05h-.8c-.06 0-.08-.02-.08-.07v-1.24a.1.1 0 0 1 .06-.1c.16-.07.27-.04.32.09Zm.7-.1h-.45l-.03.01a.05.05 0 0 0-.02.06l.6 1.32c0 .01 0 .02.02.02l.02.01h1.22a.05.05 0 0 0 .02-.05v-.03l-1.35-1.32a.05.05 0 0 0-.02-.01h-.01Zm1.31.34A113.18 113.18 0 0 1 32.8 20a.03.03 0 0 1-.04.02l-1.1-.03a.2.2 0 0 1-.14-.06l-1.23-1.26a.04.04 0 0 1 .03-.07c.37-.04.52.07.75.23l.15.1Zm-.05-.27a100.9 100.9 0 0 0 1.84 1.2c.15.1.23.16.41.15h.73c.17.01.18-.02.02-.1-1.03-.5-1.96-.94-2.76-1.31a.31.31 0 0 0-.22-.02c-.06.02-.07.05-.02.08Zm1-.04c.24-.07.46-.07.67-.02.55.16 1.9.6 4.02 1.31.24.08.23.12-.02.11a37.1 37.1 0 0 0-1.54 0c-.2 0-.44-.06-.7-.17l-2.45-1.15c-.07-.03-.07-.06.01-.08Zm-15.07 2.17-2.22.7c-.2.07-.19.1.01.1h3.45c.09 0 .17-.02.24-.06l2.77-1.25c.11-.05.1-.08-.02-.07-.84 0-1.4 0-1.7-.02-.4 0-.76.04-1.08.14l-1.45.46Zm1.98.73 2.56-1.13c.33-.14.6-.2.83-.2.28.02.65.02 1.11 0 .1 0 .1.03.02.07l-2.02 1.28a.24.24 0 0 1-.13.04h-2.36c-.1 0-.1-.02-.01-.06Zm5.18.02 1.32-1.3c.04-.04.03-.05-.02-.05h-1.38c-.06 0-.1.01-.15.04l-1.97 1.24c-.1.06-.1.1.02.1l2.06.03c.04 0 .09-.02.12-.06Zm1.65-1.34h1.38a.05.05 0 0 1 .03.01l.01.01a.05.05 0 0 1 0 .05l-.5 1.27a.05.05 0 0 1-.03.03h-2.21a.05.05 0 0 1-.02-.05c0-.01 0-.02.02-.03l1.29-1.27a.05.05 0 0 1 .03-.02Zm2.72 1.3v-1.27c0-.01 0-.02-.02-.02h-.83a.3.3 0 0 0-.3.2l-.39 1.01c-.04.1 0 .16.11.16h1.36c.05 0 .07-.03.07-.08Zm.2-1.27c0-.02 0-.03.02-.03h.84a.3.3 0 0 1 .3.2l.41 1.02c.04.1 0 .15-.1.15l-1.38.02c-.06 0-.08-.02-.08-.07l-.02-1.3Zm2.63-.02h-1.3a.05.05 0 0 0-.04.02.05.05 0 0 0 0 .04l.57 1.28a.05.05 0 0 0 .05.02h2.04l.02-.03v-.02l-.01-.03-1.3-1.27-.03-.01Zm.4 0 1.3.03c.05 0 .1.01.14.04l1.82 1.21c.09.06.08.09-.03.09l-1.92-.02a.16.16 0 0 1-.12-.06l-1.2-1.24c-.04-.04-.03-.06.02-.05Zm1.8 0c-.1-.02-.11.01-.02.07l1.94 1.27a.2.2 0 0 0 .1.03h1.87c.06 0 .07-.02.01-.05-.68-.34-1.48-.73-2.41-1.17a1.37 1.37 0 0 0-.72-.16c-.2.02-.45.02-.76 0Zm5.9.6 2.12.68c.18.06.17.09-.02.09l-3.33-.02a.55.55 0 0 1-.23-.06l-2.67-1.22c-.1-.06-.1-.08.02-.08h1.64c.39 0 .73.04 1.05.14l1.42.46Zm-25.71 1-6.85 2.13c-.2.06-.2.1.02.1h5.5c.23 0 .47-.06.7-.17 1.56-.7 3.04-1.35 4.44-1.95.21-.1.2-.14-.03-.14h-3.56a.78.78 0 0 0-.22.03Zm4.45.04a.86.86 0 0 1 .35-.07h2.3c.17 0 .18.04.05.13l-2.28 1.43a.16.16 0 0 1-.09.03H15c-.1 0-.11-.02-.01-.07l3.31-1.45Zm5.68-.07h-2.42l-2.33 1.48-.02.02v.03l.01.03h3.3L24 21.84a.05.05 0 0 0 0-.07l-.03-.01Zm2.7.07-.57 1.46a.05.05 0 0 1-.05.03H22.9a.05.05 0 0 1-.04-.03.05.05 0 0 1 0-.05l1.5-1.47h.01l.02-.01h2.24a.05.05 0 0 1 .04.02.05.05 0 0 1 0 .05Zm1.95 1.45v-1.47a.05.05 0 0 0-.05-.05h-1.62a.05.05 0 0 0-.05.03l-.57 1.47v.04a.05.05 0 0 0 .05.02h2.2l.03-.01.01-.03Zm.2 0v-1.47a.05.05 0 0 1 .01-.04.05.05 0 0 1 .04-.01h1.68l.02.03.66 1.47a.05.05 0 0 1 0 .04.05.05 0 0 1-.04.02h-2.32l-.04-.01-.01-.03Zm13.7-1.52H38.8a.05.05 0 0 0-.05.03.04.04 0 0 0 .03.05l4.56 2.18H49.12a.05.05 0 0 0 .04-.03v-.04l-.02-.02-6.6-2.17h-.02ZM31.47 23.3l-.66-1.46a.05.05 0 0 1 .02-.06l.03-.01h2.1l.04.01 1.48 1.47a.05.05 0 0 1 .01.05.05.05 0 0 1-.05.03h-2.93a.05.05 0 0 1-.04-.03Zm4.07-1.53h-2.17a.05.05 0 0 0-.04.03.05.05 0 0 0 .01.05l1.5 1.47a.05.05 0 0 0 .03.01h2.96l.02-.03a.05.05 0 0 0-.02-.05l-2.26-1.47h-.03Zm.54 0h2.06l3.12 1.49.02.02a.05.05 0 0 1 0 .06H38.32l-2.28-1.49a.05.05 0 0 1-.02-.05.05.05 0 0 1 .05-.03Z" fill="#011E73"/><path fill-rule="evenodd" d="M17.67 29.06a.07.07 0 0 1 .05-.02h.5c1.97.05 5.37.12 5.73-2.2.36-2.38-2.18-2.83-3.84-2.83h-6.05c-.04 0-.06.01-.06.05V32H17.57a.1.1 0 0 0 .07-.02.1.1 0 0 0 .02-.07v-2.8l.02-.04Zm0-3.4a.08.08 0 0 0-.02.05v1.62l.03.06.05.02H19c.38 0 .76-.09 1.03-.25.28-.16.43-.38.43-.61v-.05c0-.23-.15-.45-.43-.62a2.08 2.08 0 0 0-1.03-.25h-1.27c-.02 0-.04 0-.05.02Zm21.36.45c0-.15-.02-.16-.08-.01l-2.18 5.81a.14.14 0 0 1-.05.07.14.14 0 0 1-.08.02h-2.5a.14.14 0 0 1-.14-.1l-2.18-5.8c-.06-.17-.09-.16-.09.01v4.84c0 .12-.03.12-.08.02l-2.76-4.99a.92.92 0 0 1-.1-.44v-1.48c0-.04.01-.06.05-.06h4.6a.16.16 0 0 1 .16.1l1.72 4.6c.05.13.1.13.15 0l1.72-4.58c.03-.08.09-.12.17-.12h4.58c.02 0 .03 0 .04.02l.02.04v7.86c0 .05-.03.08-.08.08h-2.85l-.02-.01-.02-.03v-5.85ZM27.4 30.77a.13.13 0 0 0-.12-.08h-3.93c-.12 0-.2.05-.23.16l-.4 1.06a.13.13 0 0 1-.13.08h-3.55a.06.06 0 0 1-.05-.03.06.06 0 0 1 0-.06l1.33-2.34a.22.22 0 0 1 .18-.11c1.37-.07 3-.5 3.63-1.79.57-1.14.28-2.62-.81-3.33a.12.12 0 0 1-.05-.13c.02-.13.07-.2.17-.2a282.6 282.6 0 0 1 3.87.03l.06.06 4.31 7.82c.03.06.02.09-.05.09H28a.1.1 0 0 1-.06-.02.12.12 0 0 1-.04-.05l-.5-1.16Zm-3.36-1.88 1.22-2.71a.05.05 0 0 1 .07-.02l.02.02 1.22 2.71v.02a.05.05 0 0 1-.02.04l-.02.01h-2.45a.05.05 0 0 1-.04-.02.05.05 0 0 1 0-.05Z" fill="#B8841E"/><path d="M42.64 31.63v-.55c0-.02 0-.04.02-.05a.07.07 0 0 1 .06-.03h5.2l.06.03.02.05v2.84c0 .02 0 .04-.02.06a.07.07 0 0 1-.06.02H8.08c-.02 0-.04 0-.06-.02a.09.09 0 0 1-.02-.06v-2.84c0-.02 0-.04.02-.06a.07.07 0 0 1 .06-.02h5.54c.02 0 .04 0 .06.02l.02.06v.55c0 .02 0 .04-.02.06a.07.07 0 0 1-.06.02H8.68c-.02 0-.04.01-.05.03a.09.09 0 0 0-.02.06v1.06c0 .03 0 .05.02.06.01.02.03.03.05.03h38.58c.02 0 .04-.01.05-.03a.09.09 0 0 0 .02-.06V31.8c0-.03 0-.05-.02-.06a.07.07 0 0 0-.05-.03h-4.54c-.02 0-.04 0-.06-.02a.09.09 0 0 1-.02-.06Z" fill="#153C81"/></svg>