<!-- by TradingView --><svg width="56" height="56" viewBox="0 0 56 56" xmlns="http://www.w3.org/2000/svg"><path fill="#F0F3FA" d="M0 0h56v56H0z"/><path d="m42 15.07-4.15 26.54a.3.3 0 0 1-.14.2c-1.04.6-2.1 1.15-3.16 1.66-3.42 1.63-7 1.96-10.73.99a18.71 18.71 0 0 1-5.55-2.49c-.2-.14-.36-.2-.4-.48A72880.14 72880.14 0 0 1 14 15.09a.11.11 0 0 1 .11-.09h27.83a.06.06 0 0 1 .05.02.06.06 0 0 1 0 .05Z" fill="#EE1C25"/><path fill-rule="evenodd" d="M36.46 33.54a9.18 9.18 0 0 0-8.45-12.68 9.14 9.14 0 0 0-9.14 9.17A9.18 9.18 0 0 0 28 39.19a9.13 9.13 0 0 0 8.45-5.65Zm-15.35-8.2a.09.09 0 0 1-.08-.06v-.03a.49.49 0 0 1 .1-.2 8.5 8.5 0 0 1 12.36-1.5.36.36 0 0 1 .13.27v1.4c0 .08-.04.12-.12.12H21.11Zm6.94 5.2a3.14 3.14 0 0 0 6.03.6c.15-.35.22-.94.22-1.76v-4.81c0-.16.05-.18.16-.06 2.33 2.63 2.59 6.27 1.12 9.4a.2.2 0 0 1-.07.1.2.2 0 0 1-.1.02H22.44a.06.06 0 0 1-.05-.05V32.1c0-.1.03-.1.1-.04 1.85 1.96 4.96 1.14 5.48-1.53.02-.11.04-.11.07 0Zm-6.1-1.62a3.14 3.14 0 0 1 6.03.6c.02.11.05.11.07 0 .52-2.67 3.63-3.5 5.49-1.54.06.07.1.06.1-.04v-1.87a.06.06 0 0 0-.06-.05H20.62a.2.2 0 0 0-.18.11c-1.47 3.15-1.2 6.8 1.13 9.43.1.12.16.1.16-.06V30.7c0-.83.07-1.42.21-1.77Zm2.92 3.01a1.9 1.9 0 1 0 0-3.8 1.9 1.9 0 0 0 0 3.8Zm8.18-1.9a1.9 1.9 0 1 1-3.8 0 1.9 1.9 0 0 1 3.8 0Zm1.89 4.67a.09.09 0 0 1 .08.07v.03a.5.5 0 0 1-.1.2 8.54 8.54 0 0 1-12.4 1.51.36.36 0 0 1-.14-.28v-1.4c0-.09.04-.13.12-.13h12.44Z" fill="#231F20"/></svg>