<!-- by TradingView --><svg width="56" height="56" viewBox="0 0 56 56" xmlns="http://www.w3.org/2000/svg"><path fill="#F0F3FA" d="M0 0h56v56H0z"/><path d="M19.41 19.77c0-.02 0-.04-.02-.05a.08.08 0 0 0-.06-.03h-3.12a.21.21 0 0 1-.21-.2v-2.9c0-.03.02-.07.04-.1a.15.15 0 0 1 .11-.04h3.24a.1.1 0 0 0 .09-.1V12.1c0-.07.03-.1.1-.1h3.77c.05 0 .1.02.13.05.03.03.05.08.05.12v3.77c0 .08.07.06.14.06h13.2c.04 0 .13.1.13.15.06 10.02 0 16.52 0 19.5 0 1.35-.22 3.5-1.01 4.7-.77 1.16-1.63 1.97-3.13 2.23-.93.15-2.14.24-3.65.24-2.95.02-5.77 0-8.05-.04a.15.15 0 0 1-.1-.05c-.03-.03-.06-.07-.06-.1v-3.5a.14.14 0 0 1 .14-.13h9.63c1.91 0 2.22-1.44 2.23-3.02V20.14c0-.02-.02-.04-.03-.05a.14.14 0 0 0-.12-.09H23.6c-.02 0-.03 0-.04.02a3144.19 3144.19 0 0 0 .04 9.55c.03 1.68.35 2.42 2.17 2.43h3.88c.06 0 .11.03.11.08v3.63a.07.07 0 0 1-.07.07c-1.58.02-2.97.02-4.16 0-1.33-.03-2.5-.13-3.53-.7-1.98-1.07-2.47-3.96-2.5-5.94-.05-2.89-.08-6.01-.1-9.37Z" fill="#9B141A"/><path d="M24.61 13h-.48a.13.13 0 0 0-.13.13v2.12c0 .07.06.13.13.13h.48c.07 0 .13-.06.13-.13v-2.12a.13.13 0 0 0-.13-.13ZM35.36 41.86c1.6-1.5 1.91-3.22 1.93-5.53.03-5.14.07-11.44-.02-18.92 0-.09.05-.13.14-.13h.47c.09 0 .12.04.12.12V38c0 1.07-.16 2.56-.74 3.47-.84 1.31-1.72 2.1-3.35 2.35-.8.12-1.7.18-2.68.18l-8.62-.01a.18.18 0 0 1-.18-.18v-.3a.22.22 0 0 1 .2-.22c.95-.07 1.58-.1 1.9-.1 3.46.08 6.07.06 7.85-.07a4.71 4.71 0 0 0 2.98-1.26ZM18.87 20.31h-1.74c-.07-.01-.13.04-.13.1v.48c0 .06.06.11.13.11l1.73.01c.07 0 .14-.04.14-.1v-.49c0-.06-.06-.1-.13-.1ZM24.76 21.1v9.97c0 .33-.1.37-.31.11a2.04 2.04 0 0 1-.4-1.19L24 20.51c0-.07.03-.1.1-.1h8a.12.12 0 0 1 .13.12v.34c0 .08-.04.13-.12.13h-7.25c-.07 0-.1.03-.1.1Z" fill="#5F5F5F"/><path d="M29.75 36.25a.54.54 0 0 0 .54-.54v-2.39c0-.1.05-.15.15-.15h.4c.11 0 .16.05.16.15v3.52c0 .07-.03.1-.1.1-3.13.04-5 .03-5.59-.04a5.83 5.83 0 0 1-2.17-.67c-.44-.24-.4-.32.08-.23 1.96.37 4 .3 6.53.25Z" fill="#5F5F5F"/></svg>