<!-- by TradingView --><svg width="56" height="56" viewBox="0 0 56 56" xmlns="http://www.w3.org/2000/svg"><path fill="#F0F3FA" d="M0 0h56v56H0z"/><path d="M29.3 15.02 23.95 27H13.08a.09.09 0 0 1-.07-.04.08.08 0 0 1 0-.08l4.03-9.35c.93-2.15 2.1-2.5 4.51-2.52 2.52-.02 5.1-.01 7.76 0Z" fill="#FF6D2C"/><path d="M23.58 27.55 29.3 15H41.96l.03.03a.08.08 0 0 1 0 .08c-2.98 7.53-5.98 15.07-8.99 22.6A6.68 6.68 0 0 1 31.7 40c-.68.64-1.54.96-2.58.96a9003.12 9003.12 0 0 0-12.15.02.08.08 0 0 1 .02-.14c.1-.04.29-.2.56-.47.22-.22.38-.42.49-.58 1.68-2.7 2.66-6.1 3.69-8.24.64-1.32 1.25-2.65 1.85-4Z" fill="#ED1A47"/></svg>