<!-- by TradingView --><svg width="56" height="56" viewBox="0 0 56 56" xmlns="http://www.w3.org/2000/svg"><path fill="#E41F26" d="M0 0h56v56H0z"/><path d="M19.26 14.69a15.57 15.57 0 0 1 14.12-1.73 15.1 15.1 0 0 1 4.95 2.98 14.4 14.4 0 0 1 3.38 4.58c.8 1.73 1.24 3.59 1.29 5.47v.11c.12 6.5-4.05 12-10.21 13.87l-.05.03h-.02l-.06-.03c-.3-.19-.52-.46-.67-.77l-.03-.1.1-.03a13.5 13.5 0 0 0 9.57-10.44c.47-2.59.12-5.25-1-7.65a13.45 13.45 0 0 0-5.25-5.82 14.28 14.28 0 0 0-15.36.39 13.36 13.36 0 0 0-4.94 6.07 12.75 12.75 0 0 0-.58 7.68c.6 2.56 1.99 4.9 3.97 6.7l.51.44.2.16-.26.02c-.3.04-.58.2-.76.44l-.07.08-.1-.07a14.27 14.27 0 0 1-4.55-7.23 13.8 13.8 0 0 1 .48-8.44c1.04-2.7 2.9-5.04 5.34-6.71Zm6.78 10.76s-.03-.01-.01.02c.05.04.13.07.2.07.21 0 .4-.1.56-.23a.8.8 0 0 0 .25-.53c.08-.67-.83-1.48-1.34-1.87l-.25-.19c-.53-.4-1.28-.95-1.47-1.47 0 0-.01-.05-.03.03-.02.07-.14.3-.34.68-.2.37-.14.87-.04 1.13.1.25.34.74.4.84l.02.05c.04.1.09.2.27.25a1 1 0 0 0 .72-.17.6.6 0 0 0 .23-.47c.02-.57-.54-.52-.5-.34.01.13.05.1.06.1l-.03.03a.2.2 0 0 1-.1.09.2.2 0 0 1-.15-.01c-.1-.02-.34-.34.15-.53s1.05.25.94.84c-.11.6-.93.81-1.35.74h-.05a.52.52 0 0 1-.07.33 2.6 2.6 0 0 0 .2 2.46.7.7 0 0 0 .56.2c.37 0 .77-.5.5-.85-.03-.02-.06-.05-.06.01 0 .07 0 .21-.21.12-.23-.1-.24-.52.13-.63.37-.1.76.04.61.75-.14.7-.86.94-1.05.93l-.12-.01s.02.01.02.03c0 .01 0 .04.02.07.05.16.18.6.07.86 0 0-.03.08.11 0a9.82 9.82 0 0 1 1.16-.5 3.96 3.96 0 0 0 2-1.28 3.24 3.24 0 0 0 .06-4.05l-.06-.1c-.16-.26-.4-.63-1.24-.93 0 0-.22-.07-.09-.14a.34.34 0 0 1 .3-.03s1.04.18 1.63 1.51l.06.13c.55 1.24.8 1.81 1.59 2.21.23.12.54.25.85.38.76.32 1.6.67 1.8 1.05 0 0 .1.17.14-.04.04-.2.08-.43-.13-.84-.2-.41-.17-.47 0-.49h.05c.12-.02.13-.02.15-.1.02-.1-.18-1.32-2.4-1.3 0 0-.24.02-.18-.08s.23-.12.46-.12c.24 0 1.38.12 1.74.4 0 0 .14.11.04-.11-.1-.23-.68-1.18-2.54-1.6-1.87-.4-1.87-1.62-1.87-1.62s.06-.23.2.08c.54 1.2 2.56 1.45 2.79 1.47h.02l.08.03c.12.05.32.12.4.05.27-.23.3-.7.17-.9 0 0-.02-.1-.07-.05a.75.75 0 0 1-.24.13c-.02 0-.03 0-.03-.03a.98.98 0 0 1-.12-.33s0-.04-.02 0a2.38 2.38 0 0 1-.27.45h-.03s-.88-.05-1-.7c-.13-.66.2-1.13.99-1.02.07.02.14.04.21.08a2.18 2.18 0 0 1 .14.35l.2-.2s.02-.02.04 0l.4.14h.06c.12-.11.2-.25.23-.4.06-.29.13-.62.07-.64l-.4-.25c-.08-.06-.03-.05 0-.04a2.33 2.33 0 0 1 .47.09s.08.02.06 0l-.02-.04a1.22 1.22 0 0 0-.59-.41c-.53-.2-.64-.22-.93-.2 0 0-.07.02-.08.04v.01c-.03.09-.2.59-.76.61a.67.67 0 0 1-.37-.13c-.2-.13-.24-.14-.5-.18l-.1-.02c-.35-.06-1.12-.19-1.5-.76-.37-.58-.54-.84-1.37-.44-.83.4-1.18.37-1.8-.17 0 0-.03-.02-.03 0v.01c.01.04.04.14-.04.45a.8.8 0 0 0 .12.68c.02.02.03.06.04.1.05.13.13.34.48.46.22.08.37.06.5.05a.76.76 0 0 1 .53.1l.08.03s.06.03 0 .03a.14.14 0 0 1-.1 0 .68.68 0 0 0-.31-.08c-.07 0-.16.03-.25.05-.08.02-.16.04-.22.04-.12.01-.51 0-.68-.23 0 0 0-.02 0 0 0 .03-.05.3-.44.88-.4.57-.05 1.16.85 1.86l.09.06c.88.68 1.87 1.45 2 2.16.15.73-.36 1.4-.96 1.46-.6.05-.93-.56-.5-.77.44-.2.53.57.14.37v-.01Zm5.2-7-.04-.1a.74.74 0 0 0-.26-.26c-.2-.1-.62-.1-.93-.06-.26.02-.46-.04-.64-.1l-.1-.02h-.01c-.23-.07-.8-.22-1.17.15 0 0-.04.04-.02.08.08.14.2.26.32.36.21.14.66.43 1.14.32l.25-.14c.14-.1.31-.15.49-.17.13 0 .27 0 .4.03l.2.04s.3.05.37-.13ZM23.82 42.7h.01c1.25-.36 1.58.62 1.58.62.47.48.12.83.12.83-.06-.33-.27-.39-.33-.4h-.02c0-.02 0 0 0 0a.49.49 0 0 1-.32-.02.46.46 0 0 1-.23-.2.2.2 0 0 0-.08-.02c-.44-.16-.64-.08-.7-.06-.04.02.01.02.01.02.84.17 1 .57 1.03.8.05.22-.12.54-.14.56-.02.02 0 .03 0 .03.12.58-.35.74-.37.74-.02 0 0-.04 0-.04.04-.39-.07-.49-.08-.5a.05.05 0 0 0-.05 0 1.04 1.04 0 0 1-.85-.3l-.49-.41a.5.5 0 0 0-.28-.1c-.04-.02 0 0 0 0 .46.29.54.6.5.83a1.1 1.1 0 0 1-.3.5c-.02.01 0 .02 0 .02a.72.72 0 0 1-.48.4c-.05.01-.03-.03-.03-.03.05-.1.07-.2.07-.32 0-.07-.06-.05-.06-.05-.66-.2-.66-.7-.66-.8v-.01c0-.09-.3-.54-.68-.7-.36-.15-.5-.62-.45-.86.05-.23-.07-.8-.07-.8l-.35-.86a.04.04 0 0 0-.03-.02 1.3 1.3 0 0 1-1.04-.34c-.32-.34-.58-.23-.6-.22h-.02a.8.8 0 0 1 .67-.14l.2.08c.19.05.39.08.58.08l-.08-.2h-.01c-.34 0-.67-.12-.92-.35-.33-.32-.57-.23-.6-.21-.03.02-.03 0-.03 0a.83.83 0 0 1 .67-.14l.2.08c.15.03.3.06.47.07a4.25 4.25 0 0 1-.16-.35h-.03c-.33.03-.67-.06-.94-.25-.35-.28-.6-.16-.63-.14h-.02c.25-.21.54-.24.64-.21a.9.9 0 0 0 .22.05c.18.02.36.02.55 0-.16-.4-.28-.74-.33-.93-.24-.83.43-1.17 1.14-1.26.72-.08 1.12-.6.81-1.29-.3-.7-.47-1.84-.46-1.93.01-.08-.09.01-.09.01s-1.66.86-2.72-.61c-.53-.75-.5-1.56-.15-2.34v-.02c-.25-.19-.47-.61-.39-1.06.08-.45-.15-.59-.17-.6l-.02-.02c.33.11.49.35.5.44l.06.2c.08.18.18.36.3.52l.26-.36v-.03a1.2 1.2 0 0 1-.36-.9c.03-.45-.2-.57-.24-.58l-.01-.01c.33.07.5.26.54.37l.08.2c.1.18.22.35.37.5h.01l.33-.33h-.01c.07-.07.03-.08.03-.08-.29-.11-.6-.52-.6-.98 0-.46-.26-.57-.28-.57-.02 0-.01-.01-.01-.01.34.05.53.24.57.34l.1.2c.32.48.57.62.7.67.34-.26.7-.5 1.09-.7 1.88-1.01 1.58-2.07 1.2-2.16a.6.6 0 0 1-.34-.22.55.55 0 0 1-.1-.4h.02c.06.19.3.23.4.25h.02c.02.01 0-.02 0-.02l-.24-.27c-.5-.5-.32-1.03-.16-1.13.37-.24.38-.47.38-.47h.01a.01.01 0 0 1 .01 0c.07.06.06.4 0 .5a.5.5 0 0 0-.06.2c0 .03.03.02.03.02.16-.07.35-.8.09-1.08a.8.8 0 0 1-.22-.76c.04-.14.06-.28.05-.41v-.01c.22.05.27.45.27.5 0 .07.02.13.04.19 0 .03.05.14 0 0a.63.63 0 0 1 .03-.24c.03-.19.08-.45-.07-.63-.23-.28-.77-1-.26-1.52a1.52 1.52 0 0 0 .45-1.09c0-.06.03-.02.03-.02.23.22.13.62.04.96l-.06.27c-.06.36.2.75.2.76l.02.02c.02.02.04.05 0-.03-.07-.1-.03-.31-.02-.37l.02-.08c.03-.08.07-.2.07-.3-.01-.14 0-.15.02-.16h.03s0 .2.37.63c.35.43.23.86.16.93-.43.41-.32 1.19-.3 1.34a.3.3 0 0 1 0 .02c0 .03.02.02.02.02.07-.1.17-.17.29-.2h.02c-.04.03-.12.16-.1.4.04.23.02.63-.25.8-.25.18-.25.34-.25.38v.03c.02-.03.06-.08.33-.12a.4.4 0 0 0 .21-.07c.06-.05.1-.1.13-.17.03-.08.08.24 0 .34-.08.1-.36.5-.28.87 0 .07.03.13.04.2.08.28.16.58-.1 1.27-.33.84-1.21 1.39-1.21 1.39-2.96 2.03-3.62 3.43-2.96 4.19.66.76 1.88.6 2.21-.41.34-1.01 1.7-1.7 2.54-2.1a9.86 9.86 0 0 0 1.57-1l.21-.13c.5-.29 1.03-.52 1.59-.7l.24-.1.02.01c.12.61-.25 1.15-.34 1.2l-.05.04c-.06.03-.1.05.04.12.18.07.96-.27 2.04-.84 1.07-.56 1.43 1.15 1.43 1.3 0 .14.18.06.18.06 1.65-.94 1.8-2.06 1.8-2.08l-.06-.05h.01l.06.04c.14.09.43.32.47.36.04.04.03.06.03.06.05.3.13.58.22.86l.18.28s2.25 2.1 2.71 2.4a1 1 0 0 0 .89.11c1.88-.29 1.86.76 1.86.8h-.01c-.19-.21-.35-.21-.35-.21-.01.16-.2.22-.55.12-.35-.1-.49.02-.5.03-.01.02.03.02.03.02 1.33.15 1.07 1 1.05 1.02a.05.05 0 0 0-.01.05c.28.46-.07.64-.1.65l-.01-.02c-.04-.3-.12-.28-.22-.27-.1.01-.22.03-.36-.21a.91.91 0 0 0-.34-.33.96.96 0 0 0-.47-.12h.01c1.04.6.83 1.44.72 1.6-.1.17-.4.25-.4.25a.01.01 0 0 0-.01 0v.02c0 .3-.43.33-.56.34H36c-.04.01 0-.02 0-.02.22-.24.18-.39.18-.39l-.02-.06a.12.12 0 0 0-.05-.04s-.24-.03-.4-.49a1.36 1.36 0 0 0-.5-.65c-.03-.02 0 .07 0 .07.3 1.04-.92 1.02-1.05 1.02-.07 0 0-.03 0-.03.24-.17.15-.3.15-.3-.33-.2-.3-.64-.27-.96.01-.1.02-.2.01-.26-.03-.26-.45-.39-.71-.4-.27-.02-.51-.29-.51-.29L31.1 31.6a.2.2 0 0 0-.22-.05c-.3.05-.7.4-1.07.71-.2.17-.38.33-.52.42-.4.24-1.8.66-2.21.79l-.06.01c-.33.1-.65.5-.65.5-.37.37-.7 1.05-1.02 1.73-.33.7-.66 1.37-1.03 1.73a13.47 13.47 0 0 1-2.68 1.66.26.26 0 0 0-.07.1 5.24 5.24 0 0 0 1.27 3.03c.13.08.32.13.56-.02.2-.11.42-.19.65-.23.19-.03.39 0 .56.09h.02a.4.4 0 0 1 .16.02c.13.06.23.16.31.27.08.11.14.24.15.37 0 .02 0 0 0 0-.78-.67-1.44-.02-1.44-.02Zm5.99-23.8c-.01 0-.03.02-.02.03l.17.1c.34.2.72.42.89-.06v-.01c-.23-.28-.7-.15-.99-.07l-.05.02Zm-.86 9.57s.9-.04 1.13 1.34c0 0 .01.07.03.05l.02-.01c.16-.12 1.3-1.01 1.34-1.89 0 0 0-.06-.03-.08-.4-.24-.85-.42-1.32-.5 0 0-.02-.02-.04 0v.02c-.06.09-.38.61-1.15 1.04 0 0-.06.03.02.03Zm.97-1.36c-.26.53-1.01 1.31-2.98 2.13 0 0-.1.05-.1.01l.02-.05c.05-.11.2-.4.1-1.01l.02-.05s2.24-.84 2.13-3.09c0 0 0-.04.01-.01.15.16.32.32.5.47.13.1.26.22.36.36.08.15.1.32.1.57 0 .1 0 .21-.02.32-.03.12-.08.24-.14.35Zm3.17-2.6s-.15-.04-.08.07l.08.12c.17.25.52.77.5.94v.09c0 .06-.01.09-.02.1h-.08c-.1-.01-.35-.04-.2.3l.05.08c.15.3.3.6.15 1.02 0 0 0 .04-.04.03l-.02-.01c-.03-.03-.1-.07-.2.06-.14.14-.19.6-.14 1.07l-.01.1a.15.15 0 0 1-.07.06c-.11.05-.03.2.12.15l.9-.29s.41-.07.78-1c.37-.95 2.04-2.97 2.16-3.04l.15-.07c.15-.08.33-.16.4-.23.04-.05.1-.2.16-.38.06-.17.13-.35.2-.46h.02s.51.25.87-.16h.01c.11.05.2.13.25.24a.57.57 0 0 0-.1-.56v-.02c0-.01-.02-.75-1.14-.45h-.01a2.91 2.91 0 0 1 .53-.22c.16-.04.22-.06.38-.28 0 0 .13-.14.38.26a.56.56 0 0 0 .01-.37.59.59 0 0 0-.22-.3v-.02c0-.02-.05-.63-.83-.52a1.28 1.28 0 0 0-.9.55s-.02.04-.02 0c.08-.23.25-.43.48-.55 0 0 .22-.08.24-.28a.3.3 0 0 0-.06-.21c-.03-.04-.04-.07-.01-.11a.43.43 0 0 1 .36-.14v-.01c-.04-.04-.22-.29-.69-.1h-.02c-.02 0-.99-.32-.96 1.11v.03-.02c-.04-.05-.13-.2-.09-.63 0 0 .07-.24-.14-.25h-.03s.02-.26.22-.3h.01s-.52-.3-.74.94c0 0 0 .47.08.65.08.19.09.95-.39 1.57 0 0-1.4 1.4-2.28 1.45Zm2 17.4s-.02.01 0 .02c0 0 .32.27-.03.72 0 0-.03-.34-.16-.35-.1.03-.2.03-.3.01-.13-.02-.21-.18-.25-.24v-.01c-.03-.06-.25-.18-.75-.24v.01s1.31.58.66 1.4v.03s0 .45-.67.82c0 0-.02 0 0-.01a1 1 0 0 0 .19-.7h-.02s-.51.19-1.02-.63l-.02-.02a.82.82 0 0 1-.3.85s-.02 0-.02.02a.54.54 0 0 1-.26.28.57.57 0 0 1-.38.05h-.02s.17-.05.16-.33c0 0-.5-.14-.52-.77-.02-.3-.52-.76-1.16-1.25h-.03c-.26.14-.58.18-.87.13-.47-.11-.63.11-.64.13h-.02c.14-.3.38-.45.48-.46l.22-.04.35-.14-.24-.17h-.01c-.23.11-.5.15-.75.1-.47-.07-.6.16-.62.18-.01.02-.02 0-.02 0 .12-.3.36-.45.46-.47l.2-.05.23-.11-.28-.19h-.03c-.23.15-.5.23-.77.23-.48-.02-.6.21-.6.24h-.02c.07-.32.29-.5.4-.53l.19-.07.31-.2v-.02l-.2-.14c-1.03-.68-.43-.99-.17-1.02 0 0 .42-.03.41-.33 0 0 .08-1.4-2.7-1.8l-.05-.06s.12-.16.27-.67c.16-.51.89-2.3 1.83-2.19 0 0 3.48.43 3.75 2.41.12.89-.18 1.34-.43 1.73-.3.49-.56.87.11 1.87a1.98 1.98 0 0 0 2.53.53c.3-.18.94-.13 1.14.19a.07.07 0 0 0 .05.03s.43.09.46.7l-.02.01s-.32-.48-1.33-.32v.03s1.4-.14 1.28.8Zm-.74-20.57a2.7 2.7 0 0 1-1.38-.2 1.09 1.09 0 0 0-.4-.16c-.8-.12-1.12.23-1.2.32l-.02.02c-.03.01 0 .03 0 .03s.53-.22 1.46.2c.93.42 1.5-.15 1.5-.15l.04-.06Zm-3.38 4.9c.37.13 1.51.5 1.77 1.15v.6a.8.8 0 0 1-.07.4h-.04s-.92-.9-2.24-1.2a.36.36 0 0 0-.18 0h-.02s.35-.55.2-1.18a5.4 5.4 0 0 0 .58.23Z" fill="#fff"/></svg>