<!-- by TradingView --><svg width="56" height="56" viewBox="0 0 56 56" xmlns="http://www.w3.org/2000/svg"><path fill="#F0F3FA" d="M0 0h56v56H0z"/><path fill-rule="evenodd" d="M28.63 11.61a.2.2 0 0 1-.22-.13l-.14-.3a.3.3 0 0 0-.44-.12.3.3 0 0 0-.1.13l-.11.3a.12.12 0 0 1-.12.1h-.43a.17.17 0 0 0-.14.1.17.17 0 0 0 0 .16c.42.82 1.59 1.08 2.04.1.06-.12.06-.22 0-.28-.05-.05-.16-.07-.34-.06Zm-.26.22a.15.15 0 0 1-.13-.1l-.12-.35c-.06-.16-.13-.16-.2 0l-.16.35a.13.13 0 0 1-.1.08c-.1.02-.2.02-.34 0l-.03.01a.06.06 0 0 0-.04.06c0 .01 0 .02.02.03.35.47.77.56 1.24.26a.51.51 0 0 0 .19-.2c.03-.06.01-.09-.05-.1l-.28-.04Z" fill="#010186"/><path d="m27.62 13.04-.75-.58a.12.12 0 0 0-.17.02.12.12 0 0 0 .02.17l.75.58c.05.04.12.03.16-.02h.01a.12.12 0 0 0-.02-.17ZM28.9 12.46l-.76.58a.11.11 0 0 0-.02.16v.01c.04.05.11.06.16.02l.76-.58a.11.11 0 0 0 .02-.16.11.11 0 0 0-.16-.03ZM27.54 14.23l-.03.02-.02-.01-1.33-1.05a.55.55 0 0 1-.14-.15c-.03-.05-.03-.09-.01-.11.01-.02.03-.03.05-.03a.2.2 0 0 1 .07 0l.09.04.09.06 1.33 1.05.01.02v.03l-.11.13ZM29.03 13.68c-.3.23-.57.4-.81.5a.1.1 0 0 1-.06 0 .1.1 0 0 1-.05-.03c-.05-.07-.05-.12.01-.15.34-.2.6-.36.77-.5.19-.14.41-.34.69-.62.04-.04.1-.04.14.03a.1.1 0 0 1 .02.06.1.1 0 0 1-.02.05c-.15.2-.38.42-.69.66ZM26.58 14.46a4.26 4.26 0 0 1-.79-.75.1.1 0 0 1 0-.13c.06-.08.11-.09.17-.03.3.31.57.55.77.71.21.16.5.35.89.58.07.04.07.1.01.17a.1.1 0 0 1-.12.03c-.28-.12-.59-.3-.93-.58ZM29.18 14.47c-.35.27-.66.46-.93.57a.1.1 0 0 1-.13-.03c-.06-.07-.05-.13.01-.17.39-.22.69-.41.9-.58.2-.16.47-.4.78-.7.06-.06.11-.05.17.02a.1.1 0 0 1 .02.07.1.1 0 0 1-.02.06c-.18.24-.45.49-.8.76ZM29.3 15.33c-.5.38-.86.6-1.1.65-.08.02-.12 0-.12-.07a.1.1 0 0 1 .05-.1 7.3 7.3 0 0 0 1.97-1.5.1.1 0 0 1 .06 0c.07.02.08.06.04.14-.11.2-.42.5-.9.88ZM26.48 15.33a3.52 3.52 0 0 1-.9-.88c-.04-.07-.03-.12.03-.14a.1.1 0 0 1 .11.03 7.1 7.1 0 0 0 1.95 1.51.1.1 0 0 1 .01.06c0 .07-.04.1-.12.07-.24-.06-.6-.27-1.08-.65ZM29.5 16.11c-.56.44-.99.7-1.26.76-.1.03-.15 0-.15-.08a.13.13 0 0 1 .07-.12 8.47 8.47 0 0 0 2.3-1.76h.06c.08.02.1.08.05.16-.13.25-.49.6-1.06 1.04ZM26.25 16.1c-.58-.44-.94-.79-1.07-1.03-.05-.1-.03-.15.05-.17a.13.13 0 0 1 .12.04 8.51 8.51 0 0 0 2.3 1.78c.02.02.03.04.03.07 0 .08-.06.1-.15.08-.28-.07-.7-.32-1.28-.76ZM26.23 16.93c-.6-.45-.96-.8-1.1-1.06-.04-.09-.03-.14.06-.17a.13.13 0 0 1 .13.04 8.39 8.39 0 0 0 2.34 1.81c.02.02.02.04.02.07 0 .08-.05.11-.15.09a4.3 4.3 0 0 1-1.3-.78ZM29.54 16.93c-.6.46-1.03.72-1.31.79-.1.02-.15 0-.15-.1a.13.13 0 0 1 .07-.1 8.7 8.7 0 0 0 2.36-1.83h.07c.09.02.1.08.05.17-.13.25-.5.61-1.09 1.07Z" fill="#010186"/><path fill-rule="evenodd" d="M39.95 16.65c-.09-.06-.11-.14-.08-.25l.1-.33a.3.3 0 0 0-.1-.3.3.3 0 0 0-.33-.03l-.29.16a.12.12 0 0 1-.14-.01l-.34-.27a.17.17 0 0 0-.16-.02.17.17 0 0 0-.12.12c-.21.9.51 1.86 1.5 1.41.13-.06.2-.13.18-.22 0-.07-.07-.16-.22-.26Zm-.35 0a.15.15 0 0 1-.03-.17l.13-.34c.06-.16 0-.2-.15-.13l-.36.16a.13.13 0 0 1-.12 0 .97.97 0 0 1-.27-.21c0-.01-.01-.02-.03-.02a.06.06 0 0 0-.07.05c-.03.6.23.93.79 1 .09.02.18.01.27-.03.06-.02.06-.05.02-.1l-.18-.21Z" fill="#010186"/><path d="M37.15 16.98c-.08-.37-.1-.68-.09-.93 0-.02 0-.04.02-.05a.1.1 0 0 1 .05-.03c.08-.02.13 0 .13.07a7 7 0 0 0 .1.9c.04.22.13.5.25.87.02.06 0 .1-.09.11a.09.09 0 0 1-.1-.05c-.11-.22-.2-.52-.27-.89ZM37.93 16.08l-.05.01a.1.1 0 0 0-.08.12l.2.92a.1.1 0 0 0 .11.08l.05-.01a.1.1 0 0 0 .08-.12l-.2-.92a.1.1 0 0 0-.11-.08Z" fill="#010186"/><path fill-rule="evenodd" d="M16.84 16.08a.2.2 0 0 1-.26.07l-.32-.11a.3.3 0 0 0-.36.4l.15.3c.02.05.02.1-.02.14l-.28.32a.17.17 0 0 0-.04.16.17.17 0 0 0 .12.12c.9.26 1.89-.41 1.49-1.42-.05-.13-.12-.2-.21-.2-.07 0-.16.08-.27.22Zm.2.16-.23.18a.15.15 0 0 1-.16.02l-.34-.14c-.17-.07-.21-.03-.14.14l.15.36c.02.04.01.09 0 .13a.98.98 0 0 1-.24.25.06.06 0 0 0 0 .1h.04c.59.06.93-.18 1.04-.74a.51.51 0 0 0-.02-.27c-.02-.06-.06-.07-.1-.03Z" fill="#010186"/><path d="M18.64 17.19c-.03.37-.09.68-.17.91l-.04.05a.1.1 0 0 1-.06.02c-.08-.01-.11-.05-.1-.11.08-.37.14-.67.15-.9a7.1 7.1 0 0 0 0-.9c0-.06.04-.1.12-.08a.1.1 0 0 1 .06.02l.03.05c.04.25.05.56.01.94ZM26.1 17.61a11.82 11.82 0 0 0 1.52 1.04.1.1 0 0 1 .02.08.1.1 0 0 1-.02.04c-.05.07-.12.07-.21.02-.58-.34-1.06-.67-1.45-1-.4-.31-.82-.72-1.27-1.22-.07-.07-.07-.14-.02-.2a.1.1 0 0 1 .12-.03 11.74 11.74 0 0 0 1.32 1.27ZM29.65 17.62a11.93 11.93 0 0 0 1.32-1.27.1.1 0 0 1 .09 0 .1.1 0 0 1 .03.02c.06.06.05.13-.02.21-.45.5-.88.9-1.27 1.22-.39.32-.88.65-1.46 1-.09.05-.16.04-.2-.03a.1.1 0 0 1-.03-.08.1.1 0 0 1 .05-.07c.59-.34 1.09-.67 1.5-1ZM36.5 17.5a4.25 4.25 0 0 1-.1-1.08.1.1 0 0 1 .02-.06.1.1 0 0 1 .06-.04c.1-.02.14.01.15.1.03.43.07.77.12 1.02.05.26.15.6.3 1 .02.08-.01.12-.1.14a.1.1 0 0 1-.07 0 .1.1 0 0 1-.05-.06c-.13-.26-.24-.6-.33-1.02ZM17.8 16.36h-.07c-.04 0-.09.03-.09.08l-.08.97c0 .05.04.1.09.1h.06c.05 0 .1-.03.1-.08l.07-.97c0-.05-.03-.1-.08-.1ZM19.33 17.62c-.03.43-.1.79-.2 1.06a.1.1 0 0 1-.04.05.1.1 0 0 1-.07.02c-.1 0-.13-.05-.11-.12.1-.43.15-.77.17-1.03.02-.26.02-.61 0-1.05 0-.07.04-.1.14-.1a.1.1 0 0 1 .06.03.1.1 0 0 1 .03.06c.05.28.06.65.02 1.08ZM35.85 18.08c-.12-.6-.16-1-.1-1.24.01-.08.05-.1.12-.07a.1.1 0 0 1 .06.09 6.98 6.98 0 0 0 .47 2.37.1.1 0 0 1-.02.05c-.05.06-.1.05-.14-.02-.14-.2-.27-.59-.4-1.18ZM20.06 18.12c-.06.6-.14 1.01-.26 1.22-.04.07-.08.08-.13.04a.1.1 0 0 1-.03-.1 6.92 6.92 0 0 0 .22-2.42.1.1 0 0 1 .03-.04c.06-.04.1-.02.13.06.08.22.1.64.04 1.24ZM20.79 18.5a4.12 4.12 0 0 1-.3 1.43c-.05.09-.1.1-.16.05a.12.12 0 0 1-.04-.13 8.32 8.32 0 0 0 .26-2.84.13.13 0 0 1 .04-.05c.07-.04.12-.02.15.07.1.27.1.76.05 1.47ZM35.17 18.54a4.12 4.12 0 0 1-.12-1.46c.02-.1.06-.12.14-.09a.13.13 0 0 1 .07.11 8.25 8.25 0 0 0 .57 2.8l-.03.06c-.06.06-.11.05-.17-.03a4.1 4.1 0 0 1-.46-1.39ZM26.09 18.48a11.92 11.92 0 0 0 1.53 1.05.1.1 0 0 1 0 .12c-.05.07-.12.07-.21.02a12.2 12.2 0 0 1-1.48-1c-.4-.33-.82-.74-1.28-1.25-.07-.07-.08-.15-.02-.21a.1.1 0 0 1 .08-.03.1.1 0 0 1 .07.03c.46.51.9.93 1.3 1.27ZM29.68 18.48a11.86 11.86 0 0 0 1.34-1.3.1.1 0 0 1 .12.03c.06.06.05.14-.02.21-.46.5-.9.92-1.29 1.24-.4.33-.89.66-1.48 1.01-.09.05-.16.05-.21-.02a.1.1 0 0 1 .03-.15c.6-.35 1.1-.69 1.51-1.02ZM39.68 17.47a.04.04 0 0 1 .02.01.04.04 0 0 1 .01.03v.03c0 .05-.04.1-.1.13a.45.45 0 0 1-.22.04l-.58-.03c-.04 0-.08 0-.12-.02a.38.38 0 0 1-.1-.05.22.22 0 0 1-.07-.06.12.12 0 0 1-.01-.07v-.03l.01-.03h.03l1.13.05ZM21.41 19.03a4.21 4.21 0 0 1-.3 1.47c-.04.09-.1.1-.16.05a.13.13 0 0 1-.04-.13 8.48 8.48 0 0 0 .24-2.92.13.13 0 0 1 .05-.05c.07-.04.12-.02.16.08.1.27.1.77.05 1.5ZM22 19.42a11.76 11.76 0 0 0-.05-1.83.1.1 0 0 1 .05-.06.1.1 0 0 1 .05-.01c.08 0 .13.05.14.15.06.67.08 1.26.05 1.76s-.1 1.08-.24 1.74c-.03.1-.08.15-.16.14a.1.1 0 0 1-.07-.04.1.1 0 0 1-.02-.08c.14-.66.23-1.25.26-1.77ZM34.6 19.14a4.23 4.23 0 0 1-.12-1.5c.02-.1.07-.14.15-.1a.13.13 0 0 1 .07.11 8.47 8.47 0 0 0 .58 2.89l-.03.06c-.06.06-.11.05-.17-.03a4.22 4.22 0 0 1-.47-1.43ZM17.23 17.77l-.97.14a.08.08 0 0 0-.07.1l.01.08c0 .04.05.07.1.07l.96-.14c.05-.01.08-.05.07-.1v-.08a.08.08 0 0 0-.1-.07ZM34.06 19.6a11.49 11.49 0 0 0 .47 1.76.1.1 0 0 1-.08.08c-.08.02-.14-.02-.17-.12-.21-.63-.36-1.2-.45-1.68-.09-.5-.14-1.08-.16-1.74 0-.1.04-.16.13-.17a.1.1 0 0 1 .08.02.1.1 0 0 1 .03.07c.01.68.06 1.27.15 1.78ZM26 19.21a12.64 12.64 0 0 0 1.63 1.11.1.1 0 0 1 .02.09l-.02.04c-.06.07-.13.08-.23.03-.62-.37-1.15-.73-1.57-1.07-.42-.34-.87-.78-1.36-1.32-.07-.08-.08-.15-.02-.22a.11.11 0 0 1 .13-.03A12.77 12.77 0 0 0 26 19.2ZM29.93 19.4c-.42.35-.95.71-1.58 1.08-.1.06-.17.05-.23-.02a.1.1 0 0 1 .04-.16c.63-.37 1.17-.73 1.6-1.09a12.68 12.68 0 0 0 1.44-1.38.11.11 0 0 1 .09 0 .1.1 0 0 1 .04.03c.06.06.05.14-.02.23-.5.53-.96.98-1.38 1.32ZM22.67 19.99a11.84 11.84 0 0 0-.05-1.85.1.1 0 0 1 .06-.06.1.1 0 0 1 .04 0c.08 0 .13.05.14.15.06.68.08 1.27.05 1.77s-.12 1.1-.26 1.76c-.02.1-.07.14-.16.14a.1.1 0 0 1-.09-.08 11.76 11.76 0 0 0 .27-1.83ZM37.95 18.41a.04.04 0 0 1-.04-.04v-.11a.2.2 0 0 1 0-.04l.02-.03.01-.02h.02l1.9.05c.02 0 .03.01.03.03l.02.07v.1a.04.04 0 0 1-.02.04h-.03l-1.91-.05ZM33.47 20.24a11.74 11.74 0 0 0 .48 1.78.1.1 0 0 1-.04.07.1.1 0 0 1-.04.01c-.08.02-.14-.02-.18-.12a12 12 0 0 1-.45-1.7 12.1 12.1 0 0 1-.16-1.76c0-.1.04-.16.12-.17a.1.1 0 0 1 .08.03.1.1 0 0 1 .04.07c0 .68.06 1.28.15 1.79ZM16.12 18.99h-.03l-.01-.03-.02-.1v-.04a.1.1 0 0 1 .02-.04l.03-.03.05-.01 1.75-.3h.04l.05.02a.1.1 0 0 1 .03.03l.01.03.02.1a.04.04 0 0 1-.03.05l-1.91.32ZM23.28 20.4a12.46 12.46 0 0 0-.06-1.94.1.1 0 0 1 .06-.06.1.1 0 0 1 .05-.01c.09 0 .14.05.15.16.06.72.08 1.34.05 1.87-.03.54-.12 1.15-.26 1.85-.03.11-.08.16-.17.15a.1.1 0 0 1-.1-.13c.16-.7.25-1.33.28-1.88ZM32.92 20.73a12.33 12.33 0 0 0 .5 1.9.1.1 0 0 1-.04.07.11.11 0 0 1-.04.02c-.09.02-.15-.02-.19-.13-.22-.68-.38-1.29-.47-1.81-.1-.53-.15-1.16-.17-1.88 0-.1.04-.17.13-.18a.11.11 0 0 1 .11.06l.01.04c.01.73.07 1.36.16 1.91ZM37.34 19.07a.04.04 0 0 1-.03-.04v-.09c0-.03.02-.06.04-.08a.13.13 0 0 1 .09-.03l2.14.09a.13.13 0 0 1 .09.04.12.12 0 0 1 .03.08v.09a.04.04 0 0 1-.02.03h-.03l-2.3-.09ZM16.45 19.64h-.02a.04.04 0 0 1-.03-.04l-.01-.08a.28.28 0 0 1 0-.09v-.02l.03-.01 2.21-.36h.02l.02.03.02.03.01.05.02.08v.02a.04.04 0 0 1-.04.03l-2.23.36ZM38.01 19.9a3.58 3.58 0 0 1-1.26-.2c-.08-.04-.1-.09-.05-.14a.1.1 0 0 1 .1-.04 7.25 7.25 0 0 0 2.5.1l.04.04c.04.06.02.1-.06.13a3.6 3.6 0 0 1-1.27.1ZM18.14 20.16c-.62.1-1.04.12-1.27.05-.08-.02-.1-.06-.08-.12a.1.1 0 0 1 .1-.06 7.14 7.14 0 0 0 2.45-.38.1.1 0 0 1 .05.03c.05.05.04.1-.03.14-.2.13-.61.25-1.22.34Z" fill="#010186"/><path fill-rule="evenodd" d="M34.47 28.02v-.08l2.46-3.25a.39.39 0 0 0-.25-.61l-4.05-.56c-.06 0-.1-.04-.1-.1l-.6-3.98a.4.4 0 0 0-.6-.25 267.81 267.81 0 0 1-3.34 2.45h-.03c-1.16-.83-2.27-1.64-3.33-2.43a.4.4 0 0 0-.61.25l-.57 3.99c0 .06-.04.09-.1.1l-4.05.58a.39.39 0 0 0-.25.6 757 757 0 0 1 2.48 3.28v.04a836.6 836.6 0 0 1-2.46 3.25.39.39 0 0 0 .25.61l4.06.56c.05 0 .09.04.1.1l.59 3.98a.4.4 0 0 0 .61.25 281.86 281.86 0 0 1 3.34-2.45h.02l3.33 2.43a.4.4 0 0 0 .61-.25l.57-3.99c.01-.05.05-.09.1-.1l4.05-.57a.39.39 0 0 0 .25-.62l-2.48-3.23Zm-6.29-5.85c-.03.03-.1.04-.2.04s-.16-.01-.19-.03a2921.06 2921.06 0 0 1-3.23-2.36.06.06 0 0 0-.07.05l-.52 3.76a.47.47 0 0 1-.4.4l-3.84.57a.06.06 0 0 0-.06.07l.02.03 2.37 3.1c.03.03.04.1.04.21 0 .1-.01.18-.04.22a575.5 575.5 0 0 1-2.37 3.13.06.06 0 0 0 .02.06l.03.01 3.85.55a.48.48 0 0 1 .4.4l.54 3.76a.06.06 0 0 0 .07.05l.03-.01 3.2-2.36c.02-.03.09-.04.19-.04s.16.01.2.04a1818.82 1818.82 0 0 1 3.22 2.35.06.06 0 0 0 .06-.02l.01-.03.52-3.76a.47.47 0 0 1 .4-.4l3.85-.57a.06.06 0 0 0 .04-.04.06.06 0 0 0 0-.06c-.76-.98-1.55-2.01-2.37-3.1-.03-.03-.05-.1-.05-.2 0-.11.02-.19.05-.23a636.16 636.16 0 0 1 2.36-3.13v-.03a.06.06 0 0 0-.05-.04L32.42 24a.48.48 0 0 1-.4-.4l-.55-3.76a.06.06 0 0 0-.07-.05l-.03.01c-1.06.8-2.13 1.58-3.19 2.36Z" fill="#010186"/><path d="M37.65 20.63a4.2 4.2 0 0 1-1.47-.24c-.09-.04-.1-.1-.06-.16a.13.13 0 0 1 .13-.04 8.38 8.38 0 0 0 2.9.12c.03.01.05.03.06.05.05.07.03.12-.07.15-.26.1-.76.15-1.49.12ZM18.57 20.85c-.72.12-1.22.14-1.5.06-.1-.02-.12-.07-.09-.14a.13.13 0 0 1 .12-.07 8.37 8.37 0 0 0 2.89-.46c.02 0 .04.02.06.04.06.05.05.11-.03.16-.24.16-.73.3-1.45.41ZM19.16 21.43c-.74.12-1.25.14-1.54.07-.1-.03-.13-.08-.09-.15a.13.13 0 0 1 .12-.08 8.54 8.54 0 0 0 2.96-.46c.03 0 .05.01.07.03.06.06.04.12-.04.17-.25.16-.74.3-1.48.42ZM37.13 21.26a4.27 4.27 0 0 1-1.51-.24c-.09-.05-.1-.1-.06-.17a.13.13 0 0 1 .13-.04 8.66 8.66 0 0 0 2.97.13c.02 0 .04.02.06.04.04.07.02.13-.08.16-.27.1-.77.15-1.51.12ZM19.6 21.97a11.77 11.77 0 0 0 1.81-.39.1.1 0 0 1 .09.09c.01.08-.03.14-.13.17-.65.18-1.23.3-1.73.37-.5.06-1.1.08-1.77.07-.1 0-.16-.05-.17-.13a.1.1 0 0 1 .1-.11c.69.02 1.29 0 1.8-.07ZM36.76 21.86a11.7 11.7 0 0 0 1.83-.13.1.1 0 0 1 .08.1c0 .08-.05.13-.15.15-.68.08-1.26.12-1.77.12-.5-.01-1.09-.07-1.76-.18-.1-.02-.15-.07-.15-.16a.1.1 0 0 1 .04-.07.1.1 0 0 1 .08-.02c.68.12 1.27.18 1.8.19ZM20.25 22.58a11.9 11.9 0 0 0 1.83-.41.1.1 0 0 1 .07.04l.02.04c.02.08-.03.14-.13.17-.66.2-1.25.33-1.76.4s-1.11.1-1.8.1c-.11-.01-.17-.05-.18-.14a.1.1 0 0 1 .07-.1 12.04 12.04 0 0 0 1.88-.1ZM36.22 22.53a12.15 12.15 0 0 0 1.87-.13.1.1 0 0 1 .07.05l.01.04c0 .1-.05.14-.15.16-.69.09-1.29.13-1.8.12-.52 0-1.12-.07-1.8-.18-.1-.02-.16-.07-.15-.15a.1.1 0 0 1 .04-.08.1.1 0 0 1 .08-.02c.68.12 1.3.18 1.83.19ZM20.72 23.14a12.51 12.51 0 0 0 1.93-.43.1.1 0 0 1 .07.05l.02.04c.02.1-.03.15-.14.18-.7.2-1.31.34-1.85.41-.54.07-1.17.1-1.9.1-.1 0-.17-.06-.18-.15a.11.11 0 0 1 .04-.08.1.1 0 0 1 .08-.03c.73.01 1.37-.02 1.93-.09ZM35.79 23.15a12.5 12.5 0 0 0 1.97-.14.1.1 0 0 1 .07.06l.01.04c0 .1-.05.14-.16.16-.72.1-1.35.14-1.9.13-.54 0-1.16-.07-1.88-.2-.1 0-.16-.06-.16-.16a.1.1 0 0 1 .13-.1c.72.13 1.36.2 1.92.2ZM36.65 25.88a12.56 12.56 0 0 0-1.13 1.6.1.1 0 0 1-.09.02.11.11 0 0 1-.04-.02c-.07-.05-.08-.13-.02-.22.38-.62.74-1.13 1.09-1.55.34-.41.79-.86 1.33-1.34.08-.07.16-.08.23-.01a.11.11 0 0 1 .02.12 12.51 12.51 0 0 0-1.39 1.4ZM37.4 25.96a11.85 11.85 0 0 0-1.07 1.51.1.1 0 0 1-.08.02.1.1 0 0 1-.04-.02c-.07-.05-.08-.12-.02-.21.36-.58.7-1.07 1.03-1.46.32-.39.74-.8 1.26-1.26.07-.07.15-.07.2-.01a.1.1 0 0 1 .04.07.1.1 0 0 1-.03.08c-.52.45-.95.88-1.29 1.28ZM38.27 25.99a11.7 11.7 0 0 0-1.05 1.5.1.1 0 0 1-.12 0c-.07-.06-.08-.13-.02-.22.35-.57.69-1.05 1.01-1.43.32-.39.73-.8 1.24-1.25.08-.07.15-.07.2-.01a.1.1 0 0 1 .04.07.1.1 0 0 1-.03.07c-.51.45-.94.87-1.27 1.27ZM19.28 26.18a12.56 12.56 0 0 0-1.43-1.34.11.11 0 0 1 0-.08c0-.02 0-.03.02-.04.06-.07.14-.06.22 0 .56.47 1.02.9 1.38 1.3.36.4.74.9 1.15 1.5.06.09.05.16-.02.22a.11.11 0 0 1-.08.03.1.1 0 0 1-.08-.05c-.4-.61-.78-1.12-1.16-1.54ZM18.55 26.3a11.82 11.82 0 0 0-1.36-1.26.1.1 0 0 1 .02-.12c.06-.06.13-.06.21 0 .53.44.96.85 1.3 1.22.34.38.7.85 1.08 1.42.06.08.05.15-.01.2a.1.1 0 0 1-.15-.01c-.38-.58-.74-1.06-1.1-1.45ZM17.67 26.35a11.82 11.82 0 0 0-1.34-1.25.1.1 0 0 1 .02-.11c.06-.06.13-.06.2 0 .53.43.96.83 1.3 1.2.33.38.68.84 1.06 1.4.05.1.05.16-.02.22a.1.1 0 0 1-.08.02.1.1 0 0 1-.06-.05c-.37-.56-.73-1.04-1.08-1.43ZM38.99 26.09c.46-.59.83-.95 1.09-1.08.09-.05.14-.03.16.05a.13.13 0 0 1-.04.13 8.67 8.67 0 0 0-1.87 2.33.13.13 0 0 1-.07.02c-.08 0-.1-.05-.08-.15.07-.29.34-.72.8-1.3ZM39.8 26.13c.46-.57.81-.92 1.06-1.06.1-.04.15-.02.17.05a.13.13 0 0 1-.04.13 8.3 8.3 0 0 0-1.82 2.28.13.13 0 0 1-.06.01c-.09 0-.12-.05-.1-.15.08-.27.34-.7.8-1.26ZM16.97 26.5c.48.56.77.98.85 1.26.03.1 0 .15-.08.15a.13.13 0 0 1-.12-.06 8.5 8.5 0 0 0-1.93-2.26c0-.02-.01-.04 0-.07.01-.08.07-.1.16-.06.26.13.64.47 1.12 1.04ZM40.6 26.34c.39-.49.69-.78.9-.9.08-.03.12-.02.14.05a.1.1 0 0 1-.03.1 7.16 7.16 0 0 0-1.55 1.93.1.1 0 0 1-.05.02c-.07 0-.1-.05-.08-.13.06-.23.29-.59.67-1.07ZM16.13 26.55c.48.55.76.96.84 1.23.03.1 0 .15-.08.15a.13.13 0 0 1-.12-.06 8.35 8.35 0 0 0-1.9-2.21v-.07c.02-.08.07-.1.16-.05.26.12.63.45 1.1 1ZM41.68 26.6c-.16.21-.36.5-.59.89-.04.06-.1.07-.17.01a.1.1 0 0 1-.04-.06.1.1 0 0 1 0-.07c.13-.27.32-.58.6-.93.28-.35.53-.6.77-.79a.1.1 0 0 1 .07-.02.1.1 0 0 1 .07.03c.07.05.08.11.02.17-.32.3-.56.56-.73.77ZM15.35 26.79c.4.47.64.82.7 1.05.03.08.01.12-.06.13a.1.1 0 0 1-.1-.06 7.16 7.16 0 0 0-1.6-1.87.1.1 0 0 1 0-.06c.01-.07.06-.09.13-.05.22.1.53.4.93.86ZM42.28 26.6c.24-.3.46-.52.67-.68a.1.1 0 0 1 .11 0c.06.06.07.1.02.15a7.2 7.2 0 0 0-.62.66 7.2 7.2 0 0 0-.5.76c-.04.06-.1.06-.16.01a.1.1 0 0 1-.02-.1c.1-.24.27-.5.5-.8ZM14.47 26.92c.29.34.5.64.63.9a.1.1 0 0 1-.03.13c-.07.06-.13.06-.17 0a8.63 8.63 0 0 0-.62-.86c-.18-.2-.43-.45-.76-.74-.06-.05-.05-.11.02-.17a.1.1 0 0 1 .13 0c.25.16.51.4.8.74ZM13.68 27.1c.25.3.43.55.54.78a.1.1 0 0 1-.02.12c-.06.05-.11.05-.15-.01a6.9 6.9 0 0 0-.54-.74 7.44 7.44 0 0 0-.65-.64c-.05-.05-.05-.1.02-.15a.1.1 0 0 1 .11 0c.21.14.44.36.69.64ZM43.52 26.57l-.03-.03a.1.1 0 0 0-.14.02l-.61.76a.1.1 0 0 0 .02.13l.03.03c.04.03.1.03.14-.02l.6-.75a.1.1 0 0 0-.01-.14ZM12.48 27.12a.12.12 0 0 0-.02.18l.6.7c.04.04.12.05.17 0a.12.12 0 0 0 .02-.17l-.6-.7a.12.12 0 0 0-.17 0Z" fill="#010186"/><path fill-rule="evenodd" d="M44.38 28.47c0-.1.04-.18.14-.23l.3-.14a.3.3 0 0 0-.01-.54l-.31-.1a.12.12 0 0 1-.09-.12l-.01-.43a.17.17 0 0 0-.17-.17l-.09.02c-.83.43-1.08 1.6-.1 2.05.13.06.23.06.3 0 .04-.05.06-.16.04-.34Zm-.22-.27c.01-.06.04-.1.1-.13l.35-.12c.17-.06.17-.12 0-.2l-.35-.16a.13.13 0 0 1-.08-.1.96.96 0 0 1 0-.33.06.06 0 0 0-.07-.07h-.03c-.47.37-.56.78-.26 1.26.05.08.12.14.2.18.06.03.1.01.1-.05l.04-.28ZM11.6 27.56a.2.2 0 0 1-.13.23l-.3.15a.3.3 0 0 0 .04.55l.3.1c.06.01.1.05.1.11l.03.43a.17.17 0 0 0 .1.14.17.17 0 0 0 .16 0c.82-.46 1.03-1.65.02-2.07-.13-.05-.22-.05-.28.02-.05.05-.07.16-.04.34Zm-.21.74.34.13c.06.03.1.07.1.13l.04.29c0 .06.04.08.09.05.09-.04.16-.1.21-.18.31-.47.24-.9-.23-1.27a.06.06 0 0 0-.07 0 .06.06 0 0 0-.03.06c.02.13.01.24-.01.34a.14.14 0 0 1-.08.1l-.37.15c-.16.07-.16.14 0 .2Z" fill="#010186"/><path d="M38.27 29.46a11.85 11.85 0 0 0 1.3 1.3.1.1 0 0 1-.03.11c-.06.06-.13.05-.21-.01-.5-.45-.92-.86-1.24-1.25-.32-.38-.66-.86-1.01-1.43-.06-.1-.05-.16.01-.21a.1.1 0 0 1 .15.03c.35.57.7 1.06 1.03 1.46ZM38.98 29.36a4.3 4.3 0 0 1-.8-1.3c-.03-.09 0-.14.09-.14a.13.13 0 0 1 .11.06 8.49 8.49 0 0 0 1.85 2.33v.07c-.02.08-.08.1-.17.05a4.3 4.3 0 0 1-1.08-1.07ZM39.81 29.33a4.17 4.17 0 0 1-.78-1.26c-.03-.1 0-.15.08-.15a.13.13 0 0 1 .12.06 8.36 8.36 0 0 0 1.8 2.28c.01.02.01.05 0 .07-.02.08-.07.1-.16.05-.25-.13-.6-.48-1.06-1.05ZM40.6 29.12c-.38-.49-.6-.85-.66-1.08-.02-.08 0-.12.07-.13a.1.1 0 0 1 .1.06 7.14 7.14 0 0 0 1.54 1.94.1.1 0 0 1 0 .06c-.02.06-.07.08-.14.04-.21-.11-.52-.41-.9-.9ZM41.49 29.01a4.33 4.33 0 0 1-.6-.92.1.1 0 0 1 0-.07.1.1 0 0 1 .04-.06c.07-.06.13-.06.17.01.23.38.42.67.59.88.16.2.4.46.73.77.05.06.04.11-.03.17a.1.1 0 0 1-.07.02.1.1 0 0 1-.06-.02c-.24-.17-.5-.43-.77-.78ZM42.29 28.86c-.24-.3-.4-.57-.5-.8a.1.1 0 0 1 .02-.11c.06-.05.11-.05.15.01.2.33.36.58.5.76.15.18.36.4.63.67.05.04.04.1-.02.14a.1.1 0 0 1-.11 0c-.21-.15-.43-.37-.67-.67ZM43.42 28.93h-.01a.04.04 0 0 1-.03 0h-.02l-.56-.73a.44.44 0 0 1-.04-.07.3.3 0 0 1-.03-.07v-.05c0-.02 0-.03.02-.04l.03-.03h.1l.11.11.57.72a.04.04 0 0 1 0 .03v.03l-.14.1ZM36.65 29.58a12.49 12.49 0 0 0 1.39 1.39.1.1 0 0 1 0 .09.1.1 0 0 1-.03.03c-.07.06-.14.06-.23-.01-.54-.48-.98-.93-1.33-1.34-.34-.41-.7-.93-1.08-1.54-.06-.1-.05-.17.02-.23a.11.11 0 0 1 .13 0 12.5 12.5 0 0 0 1.13 1.6ZM37.4 29.49a11.85 11.85 0 0 0 1.3 1.32.1.1 0 0 1 0 .08.1.1 0 0 1-.02.04c-.06.05-.13.05-.21-.02-.51-.45-.93-.88-1.26-1.27-.33-.39-.67-.87-1.03-1.45-.05-.1-.04-.17.03-.22a.1.1 0 0 1 .15.03c.35.59.7 1.09 1.04 1.49ZM19.42 29.89a12.44 12.44 0 0 0 1.07-1.64.1.1 0 0 1 .09-.02l.04.01c.07.06.08.13.03.23-.35.62-.7 1.15-1.03 1.57-.33.43-.76.89-1.28 1.38-.08.08-.15.09-.22.03a.11.11 0 0 1-.04-.08.1.1 0 0 1 .03-.08c.53-.5.97-.96 1.31-1.4ZM17.1 29.74c-.45.6-.8.97-1.05 1.12-.08.05-.14.03-.17-.05a.13.13 0 0 1 .04-.13 8.53 8.53 0 0 0 1.76-2.38.13.13 0 0 1 .07-.02c.08 0 .11.05.1.14-.07.29-.32.73-.76 1.32ZM17.8 29.83a11.49 11.49 0 0 0 1-1.53.1.1 0 0 1 .12 0c.06.05.07.12.02.2a12 12 0 0 1-.96 1.48c-.3.4-.7.82-1.19 1.29-.07.07-.14.07-.2.02a.1.1 0 0 1-.05-.08.1.1 0 0 1 .04-.07c.5-.46.9-.9 1.22-1.3ZM18.68 29.82a11.7 11.7 0 0 0 1.02-1.55.1.1 0 0 1 .12 0c.07.04.08.11.03.2-.34.6-.67 1.1-.98 1.5-.32.4-.72.83-1.22 1.3-.07.08-.15.08-.21.03a.1.1 0 0 1-.03-.12 11.8 11.8 0 0 0 1.27-1.36ZM16.25 29.76c-.44.59-.78.95-1.03 1.1-.08.04-.14.03-.16-.05a.13.13 0 0 1 .03-.13 8.36 8.36 0 0 0 1.74-2.34.13.13 0 0 1 .07-.02c.08 0 .11.05.1.15-.07.28-.32.7-.75 1.3ZM15.45 29.57c-.36.5-.65.8-.86.92-.07.04-.12.03-.14-.04a.1.1 0 0 1 .03-.1 7.13 7.13 0 0 0 1.47-1.98.1.1 0 0 1 .05-.01c.07 0 .1.04.08.12-.05.23-.26.6-.63 1.1ZM14.56 29.5c-.26.36-.5.63-.74.82a.1.1 0 0 1-.13 0c-.08-.06-.09-.11-.03-.17.3-.32.54-.59.7-.8.15-.21.34-.51.55-.9.04-.07.1-.08.17-.02a.1.1 0 0 1 .04.06.1.1 0 0 1 0 .07c-.1.27-.3.59-.56.94ZM13.15 28.44a.03.03 0 0 1 .04 0h.01c.05.03.07.1.06.17a.5.5 0 0 1-.1.23l-.3.41a.57.57 0 0 1-.09.1.42.42 0 0 1-.1.06.24.24 0 0 1-.1.03c-.03 0-.06-.01-.08-.03l-.02-.01v-.04l.68-.92ZM13.76 29.37c-.22.3-.43.54-.63.7a.09.09 0 0 1-.06.01.1.1 0 0 1-.05-.02c-.07-.04-.08-.09-.03-.14.26-.27.46-.5.6-.68.13-.18.29-.43.47-.76.04-.06.09-.07.15-.02a.1.1 0 0 1 .03.05v.06c-.1.23-.25.5-.48.8ZM35.63 32.76a12.61 12.61 0 0 0-1.95.35.11.11 0 0 1-.09-.1c0-.08.04-.14.15-.17.7-.17 1.33-.29 1.87-.34.54-.05 1.17-.06 1.9-.02.11.01.17.06.18.15a.1.1 0 0 1-.12.11c-.73-.04-1.38-.04-1.94.02ZM20.39 32.88a12.81 12.81 0 0 0-1.98.15.1.1 0 0 1-.08-.1c0-.1.05-.15.16-.16.72-.1 1.36-.15 1.9-.14a13 13 0 0 1 1.9.17c.11.02.16.08.16.17a.1.1 0 0 1-.13.1c-.72-.12-1.37-.18-1.93-.19ZM36.09 33.34a11.8 11.8 0 0 0-1.84.33.1.1 0 0 1-.07-.04.1.1 0 0 1-.02-.04c0-.09.04-.15.14-.17a12.5 12.5 0 0 1 1.77-.32c.5-.05 1.1-.06 1.8-.03.1 0 .15.06.16.14a.1.1 0 0 1-.03.08.1.1 0 0 1-.08.03c-.7-.04-1.3-.04-1.83.02ZM19.97 33.5a12.02 12.02 0 0 0-1.87.14.1.1 0 0 1-.08-.1c0-.08.05-.13.16-.15.68-.1 1.28-.14 1.8-.13.51 0 1.11.06 1.8.16.1.02.15.07.15.16a.1.1 0 0 1-.08.1 12.04 12.04 0 0 0-1.88-.18ZM23.27 35.27a12.24 12.24 0 0 0-.5-1.87.1.1 0 0 1 .03-.08.1.1 0 0 1 .05-.02c.08-.02.15.02.18.13.23.67.4 1.27.5 1.8.09.52.15 1.14.17 1.85 0 .11-.04.17-.13.19a.11.11 0 0 1-.08-.03.1.1 0 0 1-.04-.08 12.2 12.2 0 0 0-.18-1.89ZM32.98 35.39a12.63 12.63 0 0 0-.01 1.96.1.1 0 0 1-.1.07c-.1 0-.15-.06-.15-.17a13 13 0 0 1 0-1.88c.06-.54.17-1.16.34-1.86.02-.1.08-.15.17-.14a.11.11 0 0 1 .1.09 12.54 12.54 0 0 0-.34 1.93ZM36.7 33.96a11.53 11.53 0 0 0-1.8.33.1.1 0 0 1-.09-.09c0-.08.04-.14.14-.16a12.1 12.1 0 0 1 1.73-.32c.5-.04 1.09-.05 1.76-.01.1 0 .16.05.16.13a.1.1 0 0 1-.03.08.1.1 0 0 1-.08.03c-.67-.04-1.27-.04-1.79.01ZM22.72 35.77a11.63 11.63 0 0 0-.48-1.77c0-.02 0-.03.02-.04a.1.1 0 0 1 .06-.06c.09-.01.15.03.18.13.22.64.37 1.2.46 1.7.09.5.14 1.08.16 1.76 0 .1-.03.16-.12.17a.1.1 0 0 1-.1-.05 11.67 11.67 0 0 0-.17-1.83ZM19.43 34.17a11.96 11.96 0 0 0-1.84.14.1.1 0 0 1-.06-.05.1.1 0 0 1-.02-.04c0-.09.05-.14.16-.15.67-.1 1.26-.14 1.77-.14.5 0 1.1.06 1.76.17.1.02.15.07.15.15a.1.1 0 0 1-.04.08.1.1 0 0 1-.08.02c-.67-.11-1.27-.17-1.8-.18ZM33.57 35.83a11.64 11.64 0 0 0-.03 1.83.1.1 0 0 1-.06.06.1.1 0 0 1-.04 0c-.08 0-.13-.05-.13-.15a11.9 11.9 0 0 1 .02-1.77c.05-.5.15-1.08.32-1.73.02-.1.08-.14.16-.13a.1.1 0 0 1 .09.12c-.17.66-.28 1.25-.33 1.77ZM37.12 34.52a4.3 4.3 0 0 1 1.52-.01c.1.03.13.08.09.15a.13.13 0 0 1-.12.07 8.53 8.53 0 0 0-2.96.36.13.13 0 0 1-.06-.04c-.06-.06-.04-.11.05-.16a4.3 4.3 0 0 1 1.48-.37ZM22.14 36.42a11.4 11.4 0 0 0-.48-1.76.1.1 0 0 1 .07-.1c.09-.01.14.03.18.12.22.64.37 1.2.46 1.7.1.5.15 1.07.18 1.74 0 .1-.04.16-.12.18a.1.1 0 0 1-.11-.06 11.56 11.56 0 0 0-.18-1.82ZM34.2 36.42a11.38 11.38 0 0 0-.01 1.82.1.1 0 0 1-.1.07c-.08 0-.13-.06-.14-.16-.03-.67-.03-1.25.02-1.75s.15-1.07.31-1.72c.03-.1.08-.15.17-.13a.1.1 0 0 1 .08.08 11.55 11.55 0 0 0-.33 1.8ZM19.06 34.77c.74.03 1.24.1 1.5.23.1.05.11.1.06.17a.13.13 0 0 1-.13.04 8.5 8.5 0 0 0-2.96-.11.13.13 0 0 1-.05-.05c-.05-.07-.03-.12.06-.16.27-.1.78-.15 1.52-.12ZM37.7 35.12c.72-.1 1.21-.1 1.48-.01.1.03.12.08.08.15a.13.13 0 0 1-.11.06 8.41 8.41 0 0 0-2.88.35.13.13 0 0 1-.06-.03c-.05-.06-.04-.12.05-.17.24-.14.72-.26 1.44-.35ZM34.8 36.84c.08-.73.2-1.22.34-1.46.05-.09.1-.1.17-.05a.13.13 0 0 1 .03.13 8.39 8.39 0 0 0-.35 2.9.13.13 0 0 1-.05.06c-.07.04-.12 0-.15-.09a4.22 4.22 0 0 1 0-1.5ZM21.6 36.87c.14.72.19 1.22.13 1.5-.03.1-.07.13-.15.1a.13.13 0 0 1-.07-.12 8.58 8.58 0 0 0-.6-2.88l.04-.06c.05-.06.11-.05.17.03.17.23.32.71.47 1.43ZM18.55 35.42c.72.02 1.22.1 1.47.22.1.04.11.1.06.16a.13.13 0 0 1-.12.04 8.54 8.54 0 0 0-2.92-.1.13.13 0 0 1-.05-.04c-.05-.07-.03-.12.06-.16.27-.1.76-.15 1.5-.12ZM26.31 36.84a12.51 12.51 0 0 0-1.37 1.42.11.11 0 0 1-.13-.02c-.06-.06-.06-.14.01-.22.48-.56.92-1.01 1.32-1.37.41-.36.92-.73 1.53-1.12.1-.06.18-.06.23.01a.1.1 0 0 1-.02.16c-.62.4-1.14.77-1.57 1.14ZM30.08 36.72a12.5 12.5 0 0 0-1.67-1.06.1.1 0 0 1-.02-.08l.02-.05c.05-.07.13-.08.22-.03.64.35 1.17.69 1.6 1.01.43.33.9.75 1.4 1.27.09.08.1.15.04.22a.11.11 0 0 1-.13.04 12.67 12.67 0 0 0-1.46-1.32ZM38.1 35.82a3.6 3.6 0 0 1 1.27 0c.09.02.1.06.07.12a.1.1 0 0 1-.1.05 7.23 7.23 0 0 0-2.46.3.1.1 0 0 1-.05-.03c-.05-.05-.03-.1.04-.14.2-.12.62-.22 1.23-.3ZM35.4 37.4c.08-.73.2-1.2.35-1.45.05-.08.1-.1.16-.04a.13.13 0 0 1 .04.13 8.43 8.43 0 0 0-.36 2.86.13.13 0 0 1-.05.05c-.07.04-.12.02-.15-.08a4.12 4.12 0 0 1 0-1.48ZM21.04 37.48c.15.7.19 1.2.13 1.46-.02.1-.07.13-.14.1a.13.13 0 0 1-.07-.11 8.27 8.27 0 0 0-.58-2.8c0-.03.01-.05.03-.07.05-.06.1-.05.16.03.17.23.32.7.47 1.4ZM18.2 36.15c.63.02 1.04.09 1.26.19.08.04.1.08.05.14a.1.1 0 0 1-.1.04 7.25 7.25 0 0 0-2.48-.09.1.1 0 0 1-.05-.03c-.04-.06-.02-.1.06-.14.22-.09.65-.12 1.27-.1ZM26.43 37.57a12 12 0 0 0-1.3 1.33.1.1 0 0 1-.08 0 .1.1 0 0 1-.03-.02c-.06-.06-.06-.13.01-.21.44-.52.86-.95 1.24-1.28.4-.34.87-.7 1.45-1.06.09-.06.16-.05.22.02a.1.1 0 0 1 .02.08.1.1 0 0 1-.05.07c-.59.36-1.08.72-1.48 1.07ZM30.01 37.45a11.96 11.96 0 0 0-1.58-1 .1.1 0 0 1-.02-.08c0-.01 0-.03.02-.04.04-.07.12-.08.2-.03.61.33 1.12.65 1.53.96.4.3.85.7 1.33 1.2.08.07.09.15.03.21a.1.1 0 0 1-.12.03 12.06 12.06 0 0 0-1.4-1.25ZM38.65 36.5c.44-.05.82-.05 1.11 0a.11.11 0 0 1 .1.1c0 .08-.03.13-.1.13-.45 0-.81 0-1.08.03-.26.04-.61.1-1.05.22-.08.02-.12-.02-.13-.11a.1.1 0 0 1 .07-.12c.28-.1.64-.19 1.08-.24ZM36.11 37.8c.08-.62.18-1.02.3-1.23.04-.07.09-.08.14-.03a.1.1 0 0 1 .03.1 7.11 7.11 0 0 0-.31 2.43.1.1 0 0 1-.04.04c-.06.04-.1.01-.13-.07a3.5 3.5 0 0 1 .01-1.25ZM20.36 37.93c.13.6.16 1.01.11 1.24-.01.08-.05.11-.12.08a.1.1 0 0 1-.06-.1 7.05 7.05 0 0 0-.5-2.38.1.1 0 0 1 .03-.05c.05-.05.1-.04.14.02.14.2.28.6.4 1.19ZM17.72 36.88c.45.01.8.06 1.1.15a.1.1 0 0 1 .07.1c0 .1-.04.14-.12.13a8.71 8.71 0 0 0-1.05-.13c-.27 0-.62 0-1.06.05-.08 0-.12-.04-.12-.13a.1.1 0 0 1 .08-.1c.3-.07.66-.1 1.1-.07ZM40.05 37.05a.05.05 0 0 1 .04 0 .04.04 0 0 1 .01.03l.02.11a.2.2 0 0 1 0 .08l-.01.02h-.02l-1.9.28-.03-.03v-.03l-.02-.04-.01-.1a.04.04 0 0 1 .03-.05l1.9-.27ZM30.02 38.32a11.68 11.68 0 0 0-1.56-1 .1.1 0 0 1-.02-.07c0-.02 0-.03.02-.04.05-.07.12-.08.2-.03.6.32 1.1.64 1.5.95.41.3.85.7 1.32 1.18.08.08.09.15.03.21a.1.1 0 0 1-.08.04.1.1 0 0 1-.07-.03c-.47-.5-.92-.9-1.34-1.21ZM26.48 38.43a11.74 11.74 0 0 0-1.27 1.32.1.1 0 0 1-.12-.02c-.06-.06-.05-.14.02-.21.43-.52.84-.94 1.22-1.27.38-.33.85-.67 1.42-1.04.08-.05.15-.05.2.02a.1.1 0 0 1 .03.08.1.1 0 0 1-.05.07c-.57.36-1.06.7-1.45 1.05ZM36.81 38.34c.06-.44.14-.79.25-1.06a.1.1 0 0 1 .11-.07c.1.01.13.06.11.13-.11.43-.18.77-.22 1.03-.03.26-.05.6-.04 1.04 0 .08-.05.11-.14.1a.1.1 0 0 1-.07-.03.1.1 0 0 1-.03-.06c-.03-.3-.03-.65.03-1.08ZM19.71 38.54c.1.43.13.8.11 1.08a.1.1 0 0 1-.02.07.1.1 0 0 1-.06.03c-.1.02-.14 0-.15-.09a8.54 8.54 0 0 0-.12-1.04c-.06-.25-.16-.59-.3-1-.03-.08 0-.12.1-.14a.1.1 0 0 1 .07 0 .1.1 0 0 1 .05.06c.13.26.24.6.32 1.03ZM18.29 37.64a.04.04 0 0 1 .03.04v.09a.1.1 0 0 1-.04.08.13.13 0 0 1-.08.02l-1.8-.06a.13.13 0 0 1-.09-.04.1.1 0 0 1-.03-.08V37.6l.01-.01a.04.04 0 0 1 .03-.01l1.97.07ZM37.83 37.84a.04.04 0 0 1 .03.02v.02l-.22 1.85-.04.03h-.09a.23.23 0 0 1-.08-.02l-.03-.04.22-1.85a.04.04 0 0 1 .04-.03l.17.02ZM39.88 37.88l-.97.12a.1.1 0 0 0-.09.1v.05c.01.06.06.1.12.09l.97-.12a.1.1 0 0 0 .08-.1v-.05a.1.1 0 0 0-.11-.09ZM19.26 39.97a.04.04 0 0 1-.03.05l-.09.02h-.08c-.03 0-.04 0-.04-.02l-.4-1.84s0-.02.03-.03a.24.24 0 0 1 .07-.03l.1-.02a.04.04 0 0 1 .03 0 .04.04 0 0 1 .01.03l.4 1.84ZM26.79 39.32a8.65 8.65 0 0 0-1.1 1.06c-.02 0-.04.01-.07 0-.08-.02-.1-.07-.05-.16.13-.26.48-.63 1.05-1.1.58-.48 1-.75 1.28-.83.1-.03.15 0 .16.08a.13.13 0 0 1-.07.12c-.44.25-.84.53-1.2.83ZM29.93 39c.6.44.98.78 1.13 1.03.05.09.03.14-.05.17a.13.13 0 0 1-.13-.03 8.55 8.55 0 0 0-2.41-1.74.13.13 0 0 1-.02-.07c0-.08.04-.11.14-.09.29.06.73.3 1.34.74ZM16.54 38.58a.03.03 0 0 1-.03-.02v-.04c0-.05.05-.1.12-.13a.64.64 0 0 1 .28-.05l.4.02c.06 0 .11 0 .16.02l.13.05.08.07c.02.02.03.05.02.07v.03a.03.03 0 0 1 0 .02h-.03l-1.13-.04ZM38.49 38.48h-.06a.1.1 0 0 0-.1.08l-.1.96c0 .05.04.1.09.1h.06a.1.1 0 0 0 .1-.08l.1-.95a.1.1 0 0 0-.1-.1Z" fill="#010186"/><path fill-rule="evenodd" d="M39.25 39.95c.07-.08.16-.1.26-.06l.32.13a.3.3 0 0 0 .4-.23.3.3 0 0 0-.03-.17l-.14-.3a.12.12 0 0 1 .03-.14l.3-.31a.17.17 0 0 0 0-.24.18.18 0 0 0-.08-.04c-.89-.3-1.9.34-1.54 1.36.04.14.11.2.2.2.07 0 .16-.06.28-.2Zm.7-.33-.14-.34a.15.15 0 0 1 .02-.17l.19-.22c.03-.04.03-.08-.03-.1a.51.51 0 0 0-.28-.03c-.55.1-.8.44-.76 1.03a.06.06 0 0 0 .1.04c.1-.1.18-.18.27-.23a.13.13 0 0 1 .12 0l.36.16c.17.07.21.02.15-.14Z" fill="#010186"/><path d="M17.97 38.87a.03.03 0 0 1 .02-.03h.02c.06-.02.11 0 .17.07.05.06.09.15.11.24l.1.43v.15l-.01.12a.25.25 0 0 1-.05.1.13.13 0 0 1-.08.04h-.04l-.01-.02-.23-1.1Z" fill="#010186"/><path fill-rule="evenodd" d="M16.27 39.4c.09.06.12.15.09.25l-.1.33a.3.3 0 0 0 .43.33l.29-.16c.05-.03.1-.03.14 0l.34.27a.17.17 0 0 0 .23-.02.17.17 0 0 0 .04-.07c.22-.91-.52-1.86-1.5-1.4-.13.05-.19.13-.18.21 0 .07.08.16.22.26Zm.35 0c.04.05.05.1.03.16l-.13.35c-.06.16-.01.21.15.13l.36-.17a.14.14 0 0 1 .12 0 1 1 0 0 1 .27.22.06.06 0 0 0 .06.02l.03-.02.01-.04c.03-.59-.23-.92-.8-1a.53.53 0 0 0-.27.03c-.05.03-.06.06-.02.1l.19.22Z" fill="#010186"/><path d="M26.68 39.93c.56-.46.98-.73 1.26-.8.1-.03.14 0 .15.08a.13.13 0 0 1-.07.11 8.35 8.35 0 0 0-2.25 1.85h-.07c-.08-.02-.1-.08-.05-.17a4.2 4.2 0 0 1 1.03-1.07ZM29.93 39.83c.6.42.96.75 1.1 1 .05.08.04.13-.04.16a.13.13 0 0 1-.13-.03 8.37 8.37 0 0 0-2.35-1.7.13.13 0 0 1-.02-.06c0-.08.05-.11.14-.1.28.06.71.3 1.3.73ZM26.91 40.72c.48-.4.84-.64 1.07-.7.08-.02.13 0 .13.07a.11.11 0 0 1-.05.1 7.07 7.07 0 0 0-1.92 1.59.1.1 0 0 1-.06 0c-.07-.02-.09-.07-.05-.14.1-.22.4-.53.88-.92ZM29.75 40.61c.5.36.8.65.93.86.04.07.03.11-.04.14a.1.1 0 0 1-.1-.03 7.2 7.2 0 0 0-2-1.45.1.1 0 0 1-.02-.05c0-.07.04-.1.12-.08.24.05.6.25 1.1.61ZM27.06 41.57c.34-.28.64-.48.91-.6a.1.1 0 0 1 .07-.02.1.1 0 0 1 .06.04c.06.07.06.13 0 .17a8.3 8.3 0 0 0-.88.6c-.2.17-.46.42-.76.74-.05.06-.1.05-.17-.02a.1.1 0 0 1 0-.13c.17-.24.43-.5.77-.78ZM29.67 41.48c.36.27.64.51.83.74a.1.1 0 0 1 0 .13c-.05.08-.11.1-.17.04a8.6 8.6 0 0 0-.8-.7 8.53 8.53 0 0 0-.92-.55c-.07-.04-.08-.1-.02-.17a.1.1 0 0 1 .13-.04c.28.11.6.3.95.55ZM29.54 42.27c.31.23.55.44.71.64a.1.1 0 0 1 0 .1c-.04.07-.09.08-.14.04a7.65 7.65 0 0 0-.7-.6c-.18-.13-.45-.29-.78-.47-.06-.03-.07-.08-.02-.14a.1.1 0 0 1 .1-.04c.25.1.52.25.83.47ZM27.23 42.36c.3-.24.56-.42.8-.53a.1.1 0 0 1 .1.03c.06.06.06.11 0 .15-.33.2-.58.38-.76.52-.18.15-.4.36-.66.64-.05.06-.1.05-.15-.01a.1.1 0 0 1-.02-.06c0-.02 0-.04.02-.06.15-.2.37-.43.67-.68ZM28 42.77l-.74.6a.11.11 0 0 0-.01.17c.04.06.12.06.16.02l.75-.6a.11.11 0 0 0 .01-.17.11.11 0 0 0-.17-.02ZM29.6 43.3l-.79-.56a.12.12 0 1 0-.14.2l.79.56c.05.04.13.02.17-.03a.12.12 0 0 0-.03-.17Z" fill="#010186"/><path fill-rule="evenodd" d="M27.71 44.4c.11-.01.19.03.23.13l.15.3a.3.3 0 0 0 .45.1.3.3 0 0 0 .1-.13l.1-.31a.12.12 0 0 1 .11-.1l.43-.02a.17.17 0 0 0 .14-.26c-.45-.81-1.63-1.03-2.06-.04-.06.13-.05.23.01.29.05.05.17.06.34.04Zm.26-.23c.07.01.11.04.13.1l.14.34c.07.17.13.17.2 0l.15-.36a.13.13 0 0 1 .1-.08c.09-.03.2-.03.33-.02a.06.06 0 0 0 .05-.1c-.37-.45-.79-.53-1.26-.21a.52.52 0 0 0-.17.21c-.03.06-.01.09.05.1l.28.02Z" fill="#010186"/><path opacity=".3" d="m24.37 23.98 2.93 2.24.4-3.5-2.97-2.35-.36 3.61Zm-4.13.85 2.5 2.99 3.5-.84-2.3-2.68-3.7.53Zm8.54 1.36-.45-3.55 2.9-2.23.5 3.48-2.95 2.3ZM32 24.45l3.8.38-2.32 3-3.48-.46 2-2.92Zm.15 7.2-2.28-2.95 3.54-.39 2.37 2.84-3.63.5ZM28.82 30l-.52 3.48 3.03 2.12.26-3.61L28.82 30Zm-4.52 2.1 2.78-2.14.55 3.4-2.76 2.24-.57-3.5Zm-1.8-3.88 3.44.42L24 31.6l-3.65-.48 2.17-2.9Z" fill="#010186"/><path d="m28 23.5.38 3.59 2.8-2.27-2.27 2.8 3.59.38-3.59.38 2.27 2.8-2.8-2.27L28 32.5l-.38-3.59-2.8 2.27 2.27-2.8L23.5 28l3.59-.38-2.27-2.8 2.8 2.27.38-3.59Z" fill="#010186"/></svg>