<!-- by TradingView --><svg width="56" height="56" viewBox="0 0 56 56" xmlns="http://www.w3.org/2000/svg"><path fill="#F0F3FA" d="M0 0h56v56H0z"/><path fill-rule="evenodd" d="M31.72 28.28c0 .02.02.04.03.05a6.53 6.53 0 0 1 1.51 1.4c.28.43.38 1.18.48 1.95.16 1.25.34 2.57 1.29 2.8 1.08.27 2.31.38 3.68.32a4.09 4.09 0 0 0 1.85-.6 724.6 724.6 0 0 1 11.42-6.4.14.14 0 0 0-.06-.2L28.44 15.08a.58.58 0 0 0-.53 0l-10.6 5.57c-.3.16-.27.36.07.36h1.27c2.38-.01 6.11-.02 11.2 0 1.3 0 2.32.25 3.06.9 1.81 1.58 1.19 5.4-1.13 6.24a.1.1 0 0 0-.07.08v.06Zm-11.33 6.45-.03-.2c0-.03.02-.08.05-.12.04-.04.1-.08.16-.1.12-.05.34-.07.67-.05.12 0 .24-.02.35-.08.5-.26.69-.72.59-1.37-.03-.15.04-.23.18-.23h1.03c.28 0 .43-.14.43-.42.04-2.87.06-5.24.06-7.64 0-.43.22-.68.68-.75a.32.32 0 0 0 .26-.32v-.18c0-.16-.07-.27-.22-.27h-2.03c-.17 0-.28-.04-.32-.2-.25-.9-.6-1.13-1.57-1.14-1.7-.01-3.36-.02-4.97 0-.23 0-.46.05-.66.16L4.12 27.48c-.16.08-.16.17 0 .26l23.62 13.18a.64.64 0 0 0 .62 0l9.46-5.2c.39-.22.36-.32-.08-.3-.98.02-2.12 0-3.41-.05-3.29-.13-3.5-1.22-3.94-3.59a45.4 45.4 0 0 0-.23-1.13c-.42-1.98-2.12-1.86-3.65-1.75l-.6.03c-.13.01-.2.08-.2.22-.02 2.48-.02 3.7 0 4.2.04.84.48 1.25 1.34 1.24a.15.15 0 0 1 .11.05.16.16 0 0 1 .05.11v.17c0 .05-.02.08-.07.08h-6.47c-.17 0-.27-.1-.28-.27Zm19.5-11.61c-.42.36-1.06.58-1.73.42-1.15-.27-2.63-.46-3.6.34a.5.5 0 0 0-.18.32l-.05.34c-.23 1.47-.4 2.65-1.7 3.67-.1.08-.1.16 0 .25.78.78 1.2 1.32 1.23 1.63.16 1.05.28 1.78.39 2.19.03.12.1.2.2.27 3.2 1.93 5.85 1.46 7.96-1.4.43-.58.62-1.1.55-1.55-.08-.59-.3-.64-.64-.16-.31.45-.61.83-.9 1.13-2.94 3.09-7.14.51-5.86-3.56.3-.97.85-1.67 1.63-2.1 1.27-.7 2.53-.4 3.8.87.2.2.4.27.6.18.12-.05.15-.14.1-.25l-1-2.4a.53.53 0 0 0-.35-.3.51.51 0 0 0-.45.1Zm-22.6 3c.03 1.24.03 2.92 0 5.03 0 .24.07.49.13.71.05.17.1.32.1.46a.17.17 0 0 1-.03.12.15.15 0 0 1-.12.05H16a.14.14 0 0 1-.14-.15c0-.03.02-.05.03-.08.27-.36.4-.61.4-1.04a422 422 0 0 0 .06-6.63c0-.23-.05-.54-.16-.77-.06-.16-.01-.24.16-.24h1.96c.14 0 .25.06.33.2l4.01 7.06a.11.11 0 0 0 .13.05c.02 0 .04-.02.06-.04a121.52 121.52 0 0 1 .07-6.05c.01-.48-.09-.88-.3-1.21-.08-.12-.04-.17.09-.17h1.19c.17 0 .2.06.08.19-.3.33-.46.63-.46.9a1318.82 1318.82 0 0 1-.07 7.8.2.2 0 0 1-.19.13h-1.7a.42.42 0 0 1-.36-.22l-3.53-6.2c-.25-.46-.38-.42-.36.1Zm4.87.64c-.02 1.53.04 2.78.15 2.78.1 0 .2-1.24.22-2.78.02-1.53-.05-2.78-.15-2.78-.1 0-.2 1.24-.22 2.78Zm3.54-4.2a.2.2 0 0 0-.06.14v4.6c0 .06.03.1.07.14.04.04.1.06.15.06h2.41a2.41 2.41 0 0 0 1.68-.69 2.32 2.32 0 0 0 .69-1.64v-.35c0-.62-.25-1.2-.7-1.64a2.4 2.4 0 0 0-1.67-.68h-2.42c-.06 0-.11.02-.15.06Z" fill="#030CAD"/></svg>