<!-- by TradingView --><svg width="56" height="56" viewBox="0 0 56 56" xmlns="http://www.w3.org/2000/svg"><path fill="#F0F3FA" d="M0 0h56v56H0z"/><path d="M33.45 12.88a17.24 17.24 0 0 0-10.9 0 16.95 16.95 0 0 0-9.95 8.72A16.43 16.43 0 0 0 16.55 41a17.1 17.1 0 0 1 9.03-4.2 10.93 10.93 0 0 1 .17-1 1.47 1.47 0 0 0-.37-.76v-.01c.12-.16.4-.26.58-.29h.01v-.02l-.05-1.02c0-.21-.02-.36-.06-.46a.92.92 0 0 0-.25-.4v-.01a.69.69 0 0 1 .48-.3l.01-.01a4.7 4.7 0 0 1 0-.83c.06-.58.14-1.16.24-1.74.02-.09.06-.2.13-.32a10.5 10.5 0 0 1 .7-1.15 3.83 3.83 0 0 0-.84-2l-.2.2a3.28 3.28 0 0 0-.75 1.27c-.05-.3-.09-.58-.1-.87a2.16 2.16 0 0 1 0-.42 4.7 4.7 0 0 0-2 2.04h-.01a9.3 9.3 0 0 1 0-1.44h-.01c-.43.24-.81.58-1.11.97a4.46 4.46 0 0 0-.9 2.76 3.4 3.4 0 0 1-.75-1.73h-.01a7.03 7.03 0 0 0-.9 4.01c-.1-.16-.18-.32-.24-.48a5.76 5.76 0 0 1-.33-2.03l-.08.1a7.1 7.1 0 0 0-1.18 3.13A6.97 6.97 0 0 1 19 28.64c1.58-2.15 4.25-3.28 6.8-3.86h.01a6.86 6.86 0 0 0-3.38.35 3.75 3.75 0 0 1 .94-1.14h-.02a4.26 4.26 0 0 0-3.9 1.63v-.25a3.1 3.1 0 0 1 .53-1.58 9.5 9.5 0 0 0-1.92 1.1 4.44 4.44 0 0 0-1.37 1.5c0-.2.05-.4.11-.6a5.33 5.33 0 0 1 1.05-1.7c-.3.07-.62.18-.93.32a8.24 8.24 0 0 0-2.15 1.44 7.75 7.75 0 0 1 3.12-3.08 7.8 7.8 0 0 1 4.65-.78 12.34 12.34 0 0 1 2.98.78 6.18 6.18 0 0 0-2.07-1.09 5.14 5.14 0 0 1 1.38-.24 3.1 3.1 0 0 0-.78-.6 5.24 5.24 0 0 0-3.21-.47v-.01a3.29 3.29 0 0 1 1.57-.95 8.14 8.14 0 0 0-4.14-.01c.24-.3.61-.5.98-.64a5.23 5.23 0 0 1 1.35-.3 6.52 6.52 0 0 0-3.33-.55 7.26 7.26 0 0 1 6.03.27 9.75 9.75 0 0 1 3.79 3.8 16.39 16.39 0 0 1 .92 1.74c.26-.58.56-1.17.9-1.75a9.75 9.75 0 0 1 3.8-3.8 7.26 7.26 0 0 1 6.08-.24 6.53 6.53 0 0 0-3.38.54c.47.04.91.14 1.34.3a2.2 2.2 0 0 1 .97.64 8.13 8.13 0 0 0-4.13.01 3.28 3.28 0 0 1 1.57.95 5.24 5.24 0 0 0-3.21.47 3.1 3.1 0 0 0-.78.61 5.15 5.15 0 0 1 1.38.24 6.19 6.19 0 0 0-2.06 1.09c.96-.38 1.95-.66 2.97-.79a7.8 7.8 0 0 1 4.65.77 7.75 7.75 0 0 1 3.12 3.08v.01a8.24 8.24 0 0 0-2.15-1.44 5.25 5.25 0 0 0-.94-.32c.44.5.84 1.08 1.06 1.7a1.92 1.92 0 0 1 .1.6c-.3-.6-.8-1.1-1.36-1.5a9.5 9.5 0 0 0-1.93-1.1 3.1 3.1 0 0 1 .54 1.83A4.26 4.26 0 0 0 32.63 24V24a3.75 3.75 0 0 1 .93 1.14 6.86 6.86 0 0 0-3.37-.36c2.56.58 5.23 1.7 6.8 3.86a6.97 6.97 0 0 1 1.23 5.34 7.1 7.1 0 0 0-1.25-3.22c0 .69-.08 1.39-.32 2.03a2.8 2.8 0 0 1-.25.48 7.03 7.03 0 0 0-.9-4.02 3.4 3.4 0 0 1-.76 1.73c0-1-.28-1.95-.89-2.75a3.7 3.7 0 0 0-1.12-.96 9.3 9.3 0 0 1-.01 1.43 4.7 4.7 0 0 0-2-2.04v.42a7.77 7.77 0 0 1-.1.87h-.01a3.28 3.28 0 0 0-.94-1.47h-.01a3.83 3.83 0 0 0-.82 2.04c.26.37.5.74.7 1.1.06.13.1.24.12.33.1.58.18 1.16.24 1.74a4.69 4.69 0 0 1 .01.84c.2.04.37.13.48.3v.02c-.11.1-.2.23-.25.4-.04.09-.05.24-.06.45a28.05 28.05 0 0 1-.04 1.04c.18.03.46.13.57.29v.03c-.17.2-.33.48-.36.74 0 .05 0 .12.03.21a11.03 11.03 0 0 1 .15.8A17.1 17.1 0 0 1 39.47 41a16.43 16.43 0 0 0 3.93-19.4 16.95 16.95 0 0 0-9.95-8.72ZM28 23.99H28c-.1.1-.17.19-.25.29-.21.28-.4.58-.54.9-.09.2-.13.44-.08.66.1.39.45.66.87.66s.76-.27.87-.66c.05-.22 0-.46-.08-.66a4.04 4.04 0 0 0-.78-1.19Z" fill="#DD9641"/></svg>