<!-- by TradingView --><svg width="56" height="56" viewBox="0 0 56 56" xmlns="http://www.w3.org/2000/svg"><path fill="#F0F3FA" d="M0 0h56v56H0z"/><path fill-rule="evenodd" d="M44.97 32.24C49.47 31.12 52 29.6 52 28c0-1.6-2.53-3.12-7.03-4.24C40.47 22.63 34.37 22 28 22c-6.37 0-12.47.63-16.97 1.76C6.53 24.88 4 26.4 4 28c0 1.6 2.53 3.12 7.03 4.24C15.53 33.37 21.63 34 28 34c6.37 0 12.47-.63 16.97-1.76Zm-6.93-5.75a.05.05 0 0 1-.04.02c-.02 0-.03 0-.05-.02-.54-.69-1.82-.64-2.3.1-.1.18-.15.51-.15 1.01a253.1 253.1 0 0 1 .02 2.39l.04.01h1.3c.02 0 .03 0 .05-.02a.06.06 0 0 0 .02-.04l-.01-2.6c0-.1.06-.15.18-.16h.06c.09 0 .13.04.13.12v2.63c0 .04.03.06.07.06a22.81 22.81 0 0 0 1.28 0c.05 0 .07-.02.07-.06V27.3c0-.08.04-.12.12-.12h.07c.12 0 .18.06.18.17v2.61l.02.02a.07.07 0 0 0 .05.02h1.3c.01 0 .02 0 .03-.02l.02-.03V27.6c0-.5-.05-.84-.16-1.01-.48-.75-1.75-.79-2.3-.1Zm-5.47 2.59c-.05 0-.07.02-.07.06v.8c0 .04-.03.06-.08.06H31.1c-.02 0-.04 0-.06-.02a56.02 56.02 0 0 1 0-2.6c.02-.86.72-1.34 1.66-1.37.73-.04 1.46.05 1.78.7.1.2.15.54.15 1.04a113.98 113.98 0 0 1-.02 2.23.07.07 0 0 1-.04.02H33.2c-.02 0-.04 0-.05-.02a.06.06 0 0 1-.03-.05v-2.52c0-.16-.1-.24-.29-.24-.21-.01-.31.07-.32.23l-.03.55c0 .05.02.07.08.07h.27c.06 0 .08.03.08.07v.93c0 .04-.02.06-.06.06h-.29Zm-8.07.75v-.77c0-.04.03-.06.08-.06h.28c.04 0 .07-.02.07-.06v-.9c0-.05-.03-.07-.08-.07h-.28c-.05 0-.08-.02-.08-.07l.03-.54c0-.15.11-.23.31-.22h.02c.19 0 .28.08.28.24v2.45c0 .02.01.04.03.05l.05.02h1.35c.02 0 .03 0 .05-.02a117.14 117.14 0 0 0 .02-2.18c0-.48-.06-.82-.16-1.01-.32-.63-1.04-.72-1.78-.68-.94.03-1.64.5-1.67 1.33a51.84 51.84 0 0 0 .01 2.54l.06.02h1.33c.06 0 .08-.02.08-.07ZM12.8 26c.95 0 1.65.39 1.76 1.24.02.24.03 1.13.02 2.7 0 .04-.03.06-.08.06H13.2c-.05 0-.08-.02-.08-.06v-2.3c0-.32-.1-.48-.32-.48-.2 0-.31.16-.3.47l-.02 2.3c0 .05-.02.07-.07.07h-1.32c-.05 0-.07-.02-.07-.07-.02-1.56 0-2.46.02-2.69.1-.86.8-1.24 1.76-1.24Zm7.52 2.73a.2.2 0 0 0 .07-.12c0-.05 0-.1-.04-.14-.49-.66-.8-1.44-.02-2.07.43-.36 1.02-.47 1.75-.35a.1.1 0 0 1 .06.02l.02.05v.97c0 .04-.02.06-.07.06h-.14c-.19 0-.37 0-.43.21-.03.1-.01.19.06.3.47.69.77 1.32-.06 1.97-.43.33-1.02.44-1.76.32-.12-.02-.18-.08-.18-.19v-.86c0-.1.05-.12.15-.08.23.09.43.06.59-.09Zm22.7.35c-.05 0-.07.02-.07.06v.8c0 .04-.03.06-.07.06h-1.3c-.01 0-.03 0-.05-.02a57.9 57.9 0 0 1-.01-2.6c.02-.86.7-1.33 1.6-1.37.71-.04 1.41.05 1.72.7.1.19.15.54.15 1.04a116.78 116.78 0 0 1-.01 2.23l-.02.01h-1.33l-.05-.01a.06.06 0 0 1-.02-.05l-.01-2.52c0-.16-.1-.24-.27-.25h-.01c-.2 0-.3.08-.3.24l-.03.55c0 .05.02.07.07.07h.27c.05 0 .07.03.07.07v.93c0 .04-.02.06-.06.06h-.27Zm-25.48-.71c0 .32-.1.47-.3.47-.2 0-.3-.16-.3-.47v-2.3c0-.04-.02-.06-.07-.06L15.6 26c-.05 0-.08.02-.08.06a40.15 40.15 0 0 0 .01 2.7c.1.85.78 1.24 1.71 1.24.94 0 1.62-.38 1.73-1.23.03-.23.04-1.13.04-2.69 0-.04-.03-.06-.07-.07h-1.29c-.05 0-.07.02-.07.06l-.03 2.3ZM28.76 26h1.83c.02 0 .04.01.04.03v1.07c0 .03-.02.04-.05.04h-1c-.05 0-.08.03-.08.07v2.72c0 .01 0 .03-.02.04a15.11 15.11 0 0 1-1.45 0v-.01l-.03-.03V27.2c0-.04 0-.07-.06-.07h-1c-.03 0-.05-.01-.05-.04v-1.07c0-.02.01-.03.04-.03h1.83Z" fill="#1360EF"/></svg>