<!-- by TradingView --><svg width="56" height="56" viewBox="0 0 56 56" xmlns="http://www.w3.org/2000/svg"><path fill="#F0F3FA" d="M0 0h56v56H0z"/><path d="m19.45 11.38 1.26 1.9.6.92c-.19.35-.45.62-.78.8l-2.42-3.3c-.04-.06-.04-.11.02-.16l.7-.51a.13.13 0 0 1 .15 0l.47.35Z" fill="#186DBA"/><path d="m20.85 12.22-.14 1.06-1.26-1.9 1.4.84Z" fill="#79B9E7"/><path d="m23.53 14.09-1.42 1.46-.8-1.35-.6-.92.14-1.06 2.68 1.87Z" fill="#9FD5F4"/><path d="M34.5 14.45c-.08.28-.15.56-.2.84-.38 1.94-.72 3.88-1.03 5.83a9.16 9.16 0 0 0-.12 1.54.25.25 0 0 0 .13.21.24.24 0 0 0 .25 0 1 1 0 0 1 .52-.16.38.38 0 0 1 .2 0c-.4.14-.75.33-1.06.58-.11.1-.2.08-.26-.06-.3-.71-.17-1.54-.03-2.39.37-2.2.7-4.05.98-5.56.08-.45.1-.9.12-1.35l.23-.38a.05.05 0 0 1 .05-.02.05.05 0 0 1 .04.04l.19.88Z" fill="#6D6868"/><path d="M34 13.93c-.02.46-.04.9-.12 1.35-.28 1.5-.6 3.36-.98 5.56-.14.85-.26 1.68.03 2.39.06.14.15.16.26.06.3-.25.66-.44 1.06-.59a.2.2 0 0 1 .08-.08l.05.02-.15.22c-.14.2-.34.25-.51.4-.37.32-1.03.23-1.43.02-.23-2.77.68-5.31.93-8.03l.78-1.32Z" fill="#898584"/><path d="m23.53 14.09 1.16.9-1.63 1.94-.95-1.38 1.42-1.46Z" fill="#79B9E7"/><path d="m22.1 15.55.96 1.38c.25.22.51.23.8.02.12-.08.27-.27.45-.55a8 8 0 0 1 .8-1.07l1.11.94a11.4 11.4 0 0 1-1.48 3.4l-.41-.62c-.04-.06-.08-.06-.11 0l-.58 1.04-3.1-5.09c.32-.18.58-.45.77-.8l.8 1.35Z" fill="#3D99D3"/><path d="m34.5 14.45.12.67c-.47 3-.8 5.01-.98 6.02a1.7 1.7 0 0 0 .41 1.57 1 1 0 0 0-.52.15.24.24 0 0 1-.35-.07.25.25 0 0 1-.03-.13c0-.47.03-.98.12-1.54.31-1.95.65-3.9 1.02-5.83.06-.28.13-.56.22-.84Z" fill="#5B5656"/><path d="m24.7 14.98.4.35a8 8 0 0 0-.8 1.07c-.17.28-.32.47-.44.55-.29.21-.55.2-.8-.02l1.63-1.95Z" fill="#62ACDE"/><path d="M34.61 15.12c.28 1.66.37 3.34.27 5.02l-.01-1.76-.02-.05a.07.07 0 0 0-.04-.02l-.08-.01c-.06-.01-.09.02-.09.08-.04 1-.16 2.08-.35 3.24-.06.31-.04.65.04 1a.2.2 0 0 0-.08.08.38.38 0 0 0-.2 0 1.7 1.7 0 0 1-.42-1.56c.2-1 .52-3.01.98-6.02Z" fill="#413D3C"/><path d="M33.22 15.25c-.25 2.72-1.16 5.26-.93 8.03a.94.94 0 0 1-.42-.18c0-.52 0-1.04.02-1.55.02-.48.07-1 .16-1.53l.7-3.98.47-.79Z" fill="#A7A4A3"/><path d="m32.75 16.04-.7 3.98c-.09.54-.14 1.05-.16 1.53-.02.51-.03 1.03-.03 1.55a1.02 1.02 0 0 1-.35-.27.18.18 0 0 1-.04-.15l.11-.74c.03-.17-.02-.2-.15-.09-.09.08-.18.18-.27.3a.19.19 0 0 1-.11.08c-.05 0-.1 0-.13-.03-.06-.03-.08-.07-.05-.11.24-.34.3-.7.2-1.09.26-.91.47-1.84.63-2.78.06-.34.16-.65.32-.93l.73-1.25Z" fill="#CAC8C7"/><path d="M27.54 17.51c-.66 1.18-1.39 2.33-1.93 3.57l-.87-1.41a11.4 11.4 0 0 0 1.48-3.4l1.32 1.24Z" fill="#62ACDE"/><path d="m28.31 18.3-1.95 3.64c-.32-.22-.57-.5-.75-.86.54-1.24 1.27-2.39 1.93-3.57l.77.8Z" fill="#84C5EF"/><path d="M29.3 21.7c-.52.28-.97.47-1.36.58a1.7 1.7 0 0 1-1.58-.34l1.95-3.63c.54.48 1 1.03 1.36 1.65.15.25.2.5.16.73a1.8 1.8 0 0 1-.54 1Z" fill="#9FD5F4"/><path d="M34.88 20.14a17.2 17.2 0 0 1-.23 1.98.93.93 0 0 1-.27.52l-.05-.02a2.6 2.6 0 0 1-.04-1c.19-1.16.3-2.25.35-3.24 0-.06.03-.09.1-.08l.07.01.04.02.02.05v1.76Z" fill="#232321"/><path d="m24.74 19.67.87 1.41c.18.35.43.64.75.86.48.38 1 .5 1.58.34.4-.11.84-.3 1.35-.58-.6.93-1.32 1.61-2.5 1.58a.72.72 0 0 0-.25-.07l-1.12-.51a3.6 3.6 0 0 1-1-1.25c-.19-.37-.45-.82-.78-1.36l.58-1.04c.03-.06.07-.06.1 0l.42.62Z" fill="#0B59A2"/><path d="M31.06 21c.12.39.05.75-.2 1.09-.81-.62-.69-1.32-.3-2.15.1-.2.15-.19.15.03.01.33.13.67.35 1.03Z" fill="#232321"/><path d="M26.54 23.21a6.54 6.54 0 0 1-.56 1.74c-.46.9-.8 1.72-1.06 2.45l-1.46-.14-.1-.03 1.67-4.33.3-.05c.08-.01.1-.06.1-.15l1.1.51Z" fill="#84C5EF"/><path d="m25.03 22.9-1.67 4.33-1.09-.08c.51-1.35 1.12-2.67 1.47-4.07l1.29-.18Z" fill="#79B9E7"/><path d="M23.74 23.08c-.35 1.4-.96 2.72-1.47 4.07l-.38-.03a1.36 1.36 0 0 1-.04-1.1L23 23.22l.75-.13Z" fill="#62ACDE"/><path d="m22.99 23.2-1.14 2.83c-.14.35-.13.72.04 1.1-.77.12-1.52.31-2.26.57-.08.02-.13.06-.15.11a.21.21 0 0 0 0 .2.13.13 0 0 0 .13.07c.13-.02.22.02.29.1l-2.12-.36c.73-.31 1.21-.73 1.44-1.24l.93-2.05c.16-.36.5-.69.98-.99l1.86-.33Z" fill="#3D99D3"/><path d="m26.8 23.28-.02.09a.2.2 0 0 0 .04.16c.85 1.08.74 2.79.31 4.06l-2.21-.19c.25-.73.6-1.55 1.06-2.45.25-.49.43-1.07.56-1.74.1 0 .18.03.26.07Z" fill="#9FD5F4"/><path d="M35.89 23.42c-.31.75-.81 1.5-.98 2.23-.16.69-.17 1.38-.55 2.08a2.2 2.2 0 0 1-.2-.75c.34-.82.4-1.7.18-2.6.33-.78.84-1.1 1.55-.96Z" fill="#3D99D3"/><path d="M35.89 23.42a.6.6 0 0 0 .18.05c.07.36.04.65-.08.88-.53 1-.85 1.96-.98 2.89-.04.31-.24.52-.6.62l-.05-.13c.38-.7.39-1.4.55-2.08.17-.73.67-1.48.98-2.23Z" fill="#62ACDE"/><path d="M38.92 24.56c-.52.09-.89.3-1.08.65a50.92 50.92 0 0 1-2.1 3.46c-.03.05-.02.09.03.1.33.12.7.15 1.09.1-.66.2-1.25.14-1.78-.18-.13-.08-.26-.2-.37-.38l-.31-.45c.37-.1.57-.3.61-.62.12-.93.45-1.9.98-2.89.12-.23.15-.52.08-.88l2.85 1.1Z" fill="#84C5EF"/><path d="M21.13 23.54c-.49.3-.82.63-.98.99l-.93 2.05c-.23.51-.7.93-1.44 1.24l-2.69-.53c-.36-.06-.8-.11-1.34-.14-.45-.03-.9-.07-1.35-.14l1.97-.17a.07.07 0 0 0 .06-.04.07.07 0 0 0 0-.07.36.36 0 0 0-.16-.12c-.88-.42-1.81-.72-2.8-.88.46-.05.8-.05 1.03.02.8.24 1.53.45 2.21.63.73.19 1.21.6 1.92.6.86-.03 1.52-.46 1.95-1.3.3-.56.58-1.34 1.33-1.9l1.22-.24Z" fill="#62ACDE"/><path d="M19.9 23.79c-.74.55-1.03 1.33-1.32 1.89-.43.84-1.08 1.27-1.95 1.3-.7 0-1.19-.41-1.92-.6-.68-.18-1.42-.39-2.2-.63a2.64 2.64 0 0 0-1.03-.02 1.69 1.69 0 0 0-.7-.04c.09-.05.16-.05.23-.03l2.65-.46.81.04a.19.19 0 0 1 .16.1.2.2 0 0 1-.01.2.5.5 0 0 0-.07.27c0 .06.01.12.05.16.3.35 1.25.46 1.64.47.75.01 1.13-.3 1.56-.96.36-.54.77-1.05 1.23-1.51l.88-.18Z" fill="#79B9E7"/><path d="M19.03 23.97c-.46.46-.87.97-1.23 1.51-.43.66-.81.97-1.56.96-.4-.01-1.34-.12-1.64-.47a.23.23 0 0 1-.06-.16c0-.11.03-.2.08-.27a.2.2 0 0 0 .01-.2.19.19 0 0 0-.16-.1l-.81-.04 1.43-.18a.16.16 0 0 1 .17.08l.02.07c.03.45.25.7.63.76.73.1 1.35-1.05 1.65-1.61l1.47-.35Z" fill="#84C5EF"/><path d="M17.56 24.32c-.3.56-.92 1.71-1.65 1.6-.38-.05-.6-.3-.63-.75a.17.17 0 0 0-.06-.12.16.16 0 0 0-.13-.03l-1.43.18-2.65.46c.61-.15 1.23-.28 1.85-.42.33-.06.95-.16 1.87-.29.96-.13 1.9-.34 2.83-.63Z" fill="#9FD5F4"/><path d="M34.34 24.37c.23.91.16 1.79-.19 2.61-.3-.96-.24-1.83.2-2.6Z" fill="#186DBA"/><path d="m38.92 24.56.45.21c-.52.16-.9.45-1.1.87a15.8 15.8 0 0 1-1.58 2.6c-.11.13-.16.24-.14.32.02.12.14.2.36.25-.04.03-.05.05-.05.06-.4.05-.76.02-1.09-.1-.05-.01-.06-.05-.03-.1.54-.79 1.24-1.94 2.1-3.46.2-.35.56-.56 1.08-.65Z" fill="#62ACDE"/><path d="m39.37 24.77.82.46c.15.3.18.57.1.82-.16.48-.23.92-.22 1.3l-.87.28-2.02.77a.21.21 0 0 0-.07.05.23.23 0 0 0-.05.08.25.25 0 0 0 0 .2l.1.06-.25.02c-.22-.04-.34-.13-.36-.25-.02-.08.03-.19.14-.33.54-.7 1.06-1.56 1.58-2.6.2-.4.58-.7 1.1-.86Z" fill="#3D99D3"/><path d="m40.19 25.23 1.78 1.27-1.9.85c-.01-.38.06-.82.22-1.3.08-.25.05-.53-.1-.82Z" fill="#79B9E7"/><path d="M10.69 25.7c.54.1 1.06.27 1.56.52.17.08.24.2.21.34a.32.32 0 0 1-.3.25l-.9.04-1.15-.12a.13.13 0 0 1-.1-.06.13.13 0 0 1 0-.12c.15-.3.31-.78.68-.85Z" fill="#186DBA"/><path d="M10.78 25.69c.28-.03.5-.02.7.04.98.16 1.91.46 2.79.88.08.04.13.08.15.12a.07.07 0 0 1-.05.1l-1.97.18-1.13-.16.9-.04a.31.31 0 0 0 .3-.25c.02-.14-.05-.26-.22-.34a5.81 5.81 0 0 0-1.56-.52l.09-.01Z" fill="#3D99D3"/><path d="M41.97 26.5c.04.23.04.45 0 .65a.16.16 0 0 1-.1.13c-1.2.51-2.42.94-3.66 1.28-.24.06-.47.1-.7.14.27-.52 1.18-.82 1.69-1.07l.87-.28 1.9-.85Z" fill="#0B59A2"/><path d="m21.89 27.12.38.03 1.1.08.09.02-.57.04c-.67.04-1.48.37-2.1.61a.14.14 0 0 0-.08.19c0 .02.02.04.04.05.15.1.32.2.53.26l-1.38-.22c-.07-.08-.16-.12-.29-.1a.13.13 0 0 1-.13-.07.21.21 0 0 1 0-.2c.02-.05.07-.09.15-.11.74-.26 1.49-.45 2.26-.58Z" fill="#186DBA"/><path d="m23.46 27.25 1.46.15 2.21.2c-.26.72-.7 1.18-1.3 1.35-.3.09-.86.06-1.69-.07l-2.86-.48c-.21-.06-.38-.15-.53-.26a.14.14 0 0 1-.05-.13.14.14 0 0 1 .09-.1c.62-.25 1.43-.58 2.1-.62.18 0 .37-.02.57-.04Z" fill="#0B59A2"/><path d="M39.2 27.63c-.5.25-1.42.55-1.7 1.07-.1.05-.21.08-.34.1l-.1-.08a.26.26 0 0 1 0-.2.22.22 0 0 1 .04-.07.21.21 0 0 1 .08-.05l2.02-.77Z" fill="#186DBA"/><path d="m30.16 29.21-.38-.1c-.43.15-.76.4-.99.77a119.1 119.1 0 0 0-2.59 4.54c-.17.3-.37.6-.6.86l.12-.33c.14-.62.3-1.24.46-1.85.15-.55.39-1.14.7-1.77.4-.81.78-1.64 1.15-2.49.64-.22 1.35-.1 2.13.37Z" fill="#9FD5F4"/><path d="M28.03 28.84c-.37.85-.76 1.68-1.15 2.49-.31.63-.55 1.22-.7 1.77-.17.6-.32 1.23-.46 1.85 0-.12-.03-.2-.06-.25-.04-.06-.08-.06-.12 0l-.76 1.21.86-2.88.02.06a.08.08 0 0 0 .07.06c.02 0 .04 0 .05-.02l.03-.03 1.4-3.2a.1.1 0 0 0-.01-.08c-.03-.07-.08-.08-.15-.03a2 2 0 0 1 .98-.95Z" fill="#62ACDE"/><path d="M29.78 29.12c-.55.72-1.03 1.5-1.46 2.33-.72 1.42-1.5 2.8-2.32 4.16-.3.48-.48.59-.55.3l.15-.63c.23-.27.43-.55.6-.86a119.1 119.1 0 0 1 2.6-4.54c.22-.37.55-.62.98-.76Z" fill="#79B9E7"/><path d="m29.78 29.12.38.1.34.24a2.2 2.2 0 0 0-.98.89c-1.3 2.41-2.66 4.8-4.06 7.16-.42.7-.91 1.7-1.48 3.02-.14.33-.4.66-.78 1 .12-.75.3-1.42.54-2 .53-.72.9-1.34 1.13-1.88.12-.28.31-.86.58-1.74.07.29.26.18.55-.3.83-1.36 1.6-2.74 2.32-4.16.43-.83.92-1.61 1.46-2.33Z" fill="#62ACDE"/><path d="m30.5 29.46.32.3c-.1.87-.4 1.7-.9 2.5l-.5.77a190.3 190.3 0 0 0-4.61 8.23c0 .24-.21.54-.62.9l-.44-.61a.13.13 0 0 0-.12-.06.13.13 0 0 0-.11.1 6.86 6.86 0 0 1-.96 1.78l.64-1.84c.38-.34.64-.67.78-1a28.65 28.65 0 0 1 1.48-3.02c1.4-2.36 2.75-4.75 4.06-7.16.2-.37.52-.66.98-.9ZM35.5 29.55l.9.28c.06.02.08.06.06.12-.3.99-.63 1.9-1.02 2.71-.15.32-.24.58-.27.8-.05.37-.05.66.01.9.06.2.22.46.5.77.03.04.07.05.12.02.02-.02.03-.06.04-.13 0-.01.01-.02.03-.02.02 0 .03 0 .03.02v.01h.03l.02-.01.02-.03c.62-1.1.68-1.6.66-2.66 0-.62.17-.96.7-1.23.56 1.44.95 2.58 1.18 3.43.16.6.32 1.48.47 2.64l-.46 2.38-.8-1.23c-.24-.4-.44-.64-.6-.75-.34-.24-.7-.19-1.08.16l-2.54-3.4c.33-.34.45-.73.4-1.16a9.81 9.81 0 0 1-.08-2.42c.41-.7.97-1.1 1.68-1.2Z" fill="#3D99D3"/><path d="M37.33 31.1c-.53.27-.7.6-.7 1.23a4.27 4.27 0 0 1-.7 2.7h-.02l-.01-.01c0-.02-.01-.03-.04-.02 0 0-.02 0-.02.02 0 .07-.02.11-.04.13-.05.03-.09.02-.12-.02-.28-.3-.44-.56-.5-.77a2.32 2.32 0 0 1-.01-.9c.03-.22.12-.48.27-.8.39-.82.73-1.72 1.02-2.71.02-.06 0-.1-.06-.12l-.9-.28c.4-.02 1 .05 1.18.45l.15.34.5.76ZM31.09 30.09c.01.59-.11 1.1-.37 1.56a251.47 251.47 0 0 0-3.63 6.4c-.24.44-.46.87-.65 1.3a8.2 8.2 0 0 1-1.63 1.91c1.48-2.8 3.02-5.55 4.6-8.23l.5-.77c.51-.8.82-1.63.91-2.5.07.02.16.13.27.33Z" fill="#62ACDE"/><path d="M27.05 29.8c.07-.06.12-.05.15.02a.1.1 0 0 1 0 .08l-1.39 3.2-.03.03a.08.08 0 0 1-.1 0 .08.08 0 0 1-.02-.04l-.02-.06c.38-1.35.62-2.24 1.41-3.24Z" fill="#186DBA"/><path d="M31.28 30.25c.05.63-.03 1.13-.24 1.5-.8 1.38-1.59 2.78-2.34 4.2-.55 1.02-1.36 1.96-1.93 3.04-.1.17-.22.29-.33.36.2-.43.4-.86.65-1.3 1.18-2.15 2.39-4.29 3.63-6.4.26-.45.38-.97.37-1.56l.19.16Z" fill="#84C5EF"/><path d="M26.77 39c.57-1.1 1.38-2.03 1.93-3.05.75-1.42 1.53-2.82 2.34-4.2.21-.37.3-.87.24-1.5.25.32.37.69.34 1.08-.02.26-.14.6-.38 1-.47.83-1.05 1.77-1.73 2.84-.12.2-.29.35-.4.52a74.93 74.93 0 0 1-2.34 3.3Z" fill="#9FD5F4"/><path d="M33.82 30.75c-.08.74-.05 1.55.07 2.42.06.43-.07.82-.39 1.15a3.32 3.32 0 0 1-.6-.98c-.24-.77.37-2 .92-2.59ZM25.72 34.95l-.12.33-.15.63c-.27.88-.46 1.46-.58 1.74-.22.54-.6 1.16-1.13 1.88a28.5 28.5 0 0 1 1.04-3.62l.76-1.21c.04-.06.08-.06.12 0 .03.05.05.13.06.25Z" fill="#186DBA"/><path d="m38.52 39.55 1.02 1.4c-.09.28-.25.6-.5.92-.03.04-.06.04-.1 0l-2.9-4.14c.38-.35.74-.4 1.08-.16.16.1.36.35.6.75l.8 1.23Z" fill="#0B59A2"/><path d="m39.54 40.94-1.02-1.39.46-2.38.56 3.77Z" fill="#84C5EF"/><path d="m24.19 42.16-.7.88c-.3.37-.62.64-.97.9-.13.1-.17.07-.12-.08l.16-.5a6.86 6.86 0 0 0 1-1.84.13.13 0 0 1 .2.03l.43.61Z" fill="#186DBA"/></svg>