<!-- by TradingView --><svg width="56" height="56" viewBox="0 0 56 56" xmlns="http://www.w3.org/2000/svg"><path fill="#F0F3FA" d="M0 0h56v56H0z"/><path d="M24.6 16.73a2.72 2.72 0 0 1-2.73 2.73 2.74 2.74 0 0 1-2.74-2.73A2.72 2.72 0 0 1 21.87 14a2.74 2.74 0 0 1 2.73 2.73Z" fill="#1C3D6B"/><path d="M28 19.46A2.73 2.73 0 1 0 28 14a2.73 2.73 0 0 0 0 5.46ZM34.13 19.45a2.73 2.73 0 1 0 .01-5.46 2.73 2.73 0 0 0 0 5.46Z" fill="#13100B"/><path d="M21.86 18.02a1.3 1.3 0 1 0 0-2.6 1.3 1.3 0 0 0 0 2.6Z" fill="#fff"/><path d="M21.86 25.55a2.73 2.73 0 1 0 .01-5.46 2.73 2.73 0 0 0 0 5.46ZM28 25.59a2.73 2.73 0 1 0 0-5.46 2.73 2.73 0 0 0 0 5.46ZM34.13 25.55a2.73 2.73 0 1 0 .01-5.46 2.73 2.73 0 0 0 0 5.46ZM15.73 31.73a2.73 2.73 0 1 0 .01-5.46 2.73 2.73 0 0 0 0 5.46ZM21.86 31.72a2.73 2.73 0 1 0 .01-5.46 2.73 2.73 0 0 0 0 5.46ZM28 31.72a2.73 2.73 0 1 0 0-5.46 2.73 2.73 0 0 0 0 5.46Z" fill="#13100B"/><path d="M36.87 29a2.73 2.73 0 0 1-2.74 2.73 2.75 2.75 0 0 1-2.54-3.78 2.74 2.74 0 0 1 4.48-.88 2.73 2.73 0 0 1 .8 1.93Z" fill="#1C3D6B"/><path d="M40.27 31.72a2.73 2.73 0 1 0 0-5.46 2.73 2.73 0 0 0 0 5.46Z" fill="#13100B"/><path d="M34.13 30.27a1.27 1.27 0 1 0 0-2.55 1.27 1.27 0 0 0 0 2.55Z" fill="#fff"/><path d="M21.86 37.86a2.73 2.73 0 1 0 .01-5.46 2.73 2.73 0 0 0 0 5.46ZM28 37.86a2.73 2.73 0 1 0 0-5.46 2.73 2.73 0 0 0 0 5.46ZM34.13 37.86a2.73 2.73 0 1 0 0-5.46 2.73 2.73 0 0 0 0 5.46Z" fill="#13100B"/><path d="M30.73 41.27A2.73 2.73 0 0 1 28 44a2.74 2.74 0 0 1-2.74-2.73A2.73 2.73 0 0 1 28 38.54a2.74 2.74 0 0 1 2.74 2.73Z" fill="#076C38"/><path d="M28 42.56a1.3 1.3 0 1 0 .01-2.6 1.3 1.3 0 0 0 0 2.6Z" fill="#84D3DC"/></svg>