<!-- by TradingView --><svg width="56" height="56" viewBox="0 0 56 56" xmlns="http://www.w3.org/2000/svg"><path fill="url(#a)" d="M0 0h56v56H0z"/><path fill-rule="evenodd" d="M28 13.97c0 1.1-1.3 1.98-2.92 1.98-1.62 0-2.93-.89-2.93-1.98 0-1.09 1.3-1.97 2.93-1.97 1.62 0 2.93.88 2.93 1.97Zm.27 3.86a.03.03 0 0 0 .02.03.03.03 0 0 0 .04 0 4.66 4.66 0 0 1 4.8-1.17c2.4.67 3.9 2.25 4.47 4.73a8 8 0 0 1-.1 4.08 6.6 6.6 0 0 1-4.45 4.7c-.1.04-.1.08 0 .12 3.26 1.34 6.13 4.78 4.46 8.5-1.55 3.47-6.17 4.93-9.62 5.13-4.15.23-8.59-.2-11.49-3.71a5.36 5.36 0 0 1-1.27-4.77c.68-3.06 3.85-5.14 6.71-5.74.4-.09.79-.01.84.45a.16.16 0 0 1-.07.16c-2.21 1.59-3.72 3.48-3.5 6.35.03.44.3 1.06.59 1.44 2.05 2.62 5.32 2.8 8.34 2.5 2.38-.24 6.15-1.66 5.88-4.69-.22-2.5-1.55-3.85-3.51-5.36-.3-.23-.64-.37-.98-.5-.35-.14-.7-.27-1.02-.52a.06.06 0 0 0-.06 0 .06.06 0 0 0-.03.04v3.76c0 .4.2.65.6.72a10.5 10.5 0 0 0 1.56.2l.01.04v1.64c0 .04-.01.04-.05.04h-8.4c-.03 0-.04 0-.04-.03V34.3c0-.04.02-.06.05-.06.81-.03 1.37-.12 1.66-.27.18-.1.29-.33.29-.7v-13.8c0-.09-.05-.17-.1-.23a.36.36 0 0 0-.2-.13l-1.77-.37c-.06-.02-.1-.06-.1-.13v-1.34c0-.09.05-.14.14-.14l6.2-.54c.07 0 .1.03.1.1v1.13Zm.17 1.97a2.8 2.8 0 0 1 2.6-.32c1.37.53 1.84 1.96 1.92 3.24.08 1.32.19 4.25-1.33 4.87a3.43 3.43 0 0 1-3.41-.29.47.47 0 0 1-.15-.16.44.44 0 0 1-.06-.21V20.7c0-.43.14-.73.43-.91Z"/><defs><linearGradient id="a" x1="28" y1="0" x2="28" y2="56" gradientUnits="userSpaceOnUse"><stop stop-color="#D6801A"/><stop offset=".69" stop-color="#F2D73B"/></linearGradient></defs></svg>