<!-- by TradingView --><svg width="56" height="56" viewBox="0 0 56 56" xmlns="http://www.w3.org/2000/svg"><path fill="#F0F3FA" d="M0 0h56v56H0z"/><path d="M26.41 32.13c-3.9 0-8.52 1.45-10.35 2.18L25 26l7.51 7.24a15.92 15.92 0 0 0-6.1-1.11Z" fill="url(#a)"/><path d="M46 39c-9.64-.99-18.1-9.18-21-13 2.81-3.11 5.95-12 8.95-12 2.15 0 3.14 4.54 4.68 12.31C39.86 32.52 44.06 37.36 46 39Z" fill="url(#b)"/><path d="M22.32 21.68A41.76 41.76 0 0 0 25 26c-2.17 3.34-5.48 5.98-7.77 7.57-2.3 1.59-5.23 2.1-5.23-.43 0-2.54 2.08-7.2 3.36-9.76 1.28-2.56 2.3-4.12 3.9-4.12 1.61 0 2.4 1.03 3.06 2.42Z" fill="url(#c)"/><defs><linearGradient id="a" x1="19.63" y1="32.57" x2="30.15" y2="32.57" gradientUnits="userSpaceOnUse"><stop stop-color="#274A87"/><stop offset="1" stop-color="#2F5DA3"/></linearGradient><linearGradient id="b" x1="35.63" y1="14" x2="36.04" y2="32.63" gradientUnits="userSpaceOnUse"><stop stop-color="#D3E176"/><stop offset="1" stop-color="#05AE8B"/></linearGradient><linearGradient id="c" x1="24.47" y1="23.63" x2="15.23" y2="35.47" gradientUnits="userSpaceOnUse"><stop stop-color="#21489A"/><stop offset="1" stop-color="#54BD89"/></linearGradient></defs></svg>