<!-- by TradingView --><svg width="56" height="56" viewBox="0 0 56 56" xmlns="http://www.w3.org/2000/svg"><path fill="#F0F3FA" d="M0 0h56v56H0z"/><path d="M29.04 12.74c0-.04-.02-.06-.07-.06h-2.88c-.06 0-.09-.02-.09-.07v-.54c0-.04.02-.07.08-.07h3.88l.01.01.02.02v.02l.01 5.88c0 .04-.03.07-.08.07h-.77c-.07 0-.1-.03-.1-.09v-5.17ZM17.92 16.88c-.03-.04-.06-.04-.1 0L16 18.7c-.04.04-.08.04-.12 0l-.4-.4c-.03-.03-.03-.07 0-.1l2.45-2.46a.05.05 0 0 1 .04-.01.05.05 0 0 1 .03.02l4.38 4.38c.04.03.04.06 0 .1l-.48.5c-.05.03-.09.03-.13 0l-3.85-3.86ZM39.42 18.21c.04-.03.04-.06 0-.1L37.6 16.3c-.04-.04-.04-.07 0-.11l.4-.4c.04-.04.07-.04.1 0l2.45 2.44a.05.05 0 0 1 .02.04.05.05 0 0 1-.02.03l-4.37 4.38c-.03.04-.07.04-.1 0l-.5-.49c-.04-.04-.04-.08 0-.12l3.85-3.85Z" fill="#0E0D10"/><path fill-rule="evenodd" d="M33.66 33.66a8 8 0 1 0-11.32-11.32 8 8 0 0 0 11.32 11.32Zm-11.6-2.47c-.03-.1-.06-.2-.12-.26a.97.97 0 0 1-.17-.35c-.27-1-.4-1.97-.37-2.9.02-1.1.3-2.2.85-3.3l.8-1.49c.08-.15.47-.58 1.17-1.3a.04.04 0 0 1-.02-.03v-.01l-.01-.01h-.02c-.6.39-1.15.84-1.63 1.37-.1.1-.16.2-.21.29-.06.09-.11.17-.19.25-.1.1-.2.23-.3.41a8.32 8.32 0 0 0-1.04 5.78 7.5 7.5 0 0 0 3.36 4.95c.14.08.19.05.14-.1a.99.99 0 0 0-.06-.14.34.34 0 0 0-.09-.12 4.53 4.53 0 0 1-1.1-1.27c-.04-.08-.12-.16-.19-.24-.08-.08-.16-.17-.2-.25-.18-.44-.35-.8-.5-1.05-.05-.07-.07-.15-.1-.23Z" fill="#FEB041"/><path d="M12.74 27.95c-.04 0-.06.02-.06.07v2.89c0 .06-.02.09-.07.09h-.55c-.04 0-.06-.02-.06-.08v-3.87a.06.06 0 0 1 .01-.03l.02-.02H17.93c.04 0 .07.03.07.08v.78c0 .06-.03.1-.08.1l-5.18-.01ZM43.26 29.05c.04 0 .06-.03.06-.08V26.1c0-.06.02-.09.07-.09h.55c.04 0 .06.03.06.08v3.86l-.01.04-.04.01-5.88.01c-.04 0-.07-.03-.07-.08v-.77c0-.07.03-.1.09-.1h5.17ZM16.59 38.4c-.04.02-.04.05 0 .08l1.82 1.83c.04.04.04.07 0 .11l-.4.4c-.03.04-.07.04-.1 0l-2.44-2.44a.05.05 0 0 1-.01-.04.05.05 0 0 1 .01-.03l4.36-4.36c.04-.04.07-.04.1 0l.5.48c.04.05.04.09 0 .13l-3.84 3.83ZM40.13 37.9l.4.4a.08.08 0 0 1 .03.05.07.07 0 0 1-.02.05l-2.44 2.44a.08.08 0 0 1-.08.01l-.03-.01-4.36-4.37a.07.07 0 0 1-.03-.06.07.07 0 0 1 .03-.05l.5-.5a.07.07 0 0 1 .05-.02.07.07 0 0 1 .05.02l3.86 3.86a.08.08 0 0 0 .05.02.08.08 0 0 0 .05-.02l1.84-1.83.02-.01a.07.07 0 0 1 .06 0l.02.01ZM26.95 43.26c0 .04.03.06.08.06h2.88c.06 0 .09.02.09.07v.55c0 .04-.03.06-.08.06h-3.86l-.04-.01a.04.04 0 0 1-.02-.04v-5.88c0-.04.03-.07.08-.07h.77c.07 0 .1.03.1.09v5.17Z" fill="#0E0D10"/></svg>