<!-- by TradingView --><svg width="56" height="56" viewBox="0 0 56 56" xmlns="http://www.w3.org/2000/svg"><path fill="#F0F3FA" d="M0 0h56v56H0z"/><path fill-rule="evenodd" d="M26.11 12.83c0 .22-.12.43-.32.6-.21.15-.5.23-.78.23-.3 0-.58-.08-.78-.24a.75.75 0 0 1-.33-.59c0-.22.12-.43.33-.59.2-.15.48-.24.78-.24.29 0 .57.09.78.24.2.16.32.37.32.6Zm-1.1.57c.35 0 .64-.25.64-.57 0-.3-.28-.57-.64-.57-.35 0-.64.25-.65.56 0 .31.29.57.64.58Zm9.55-.36c.02 0 .04.02.05.04.08.14.03.23-.16.28-.34.08-.58 0-.72-.2a.13.13 0 0 0-.11-.06h-.26c-.06 0-.08.02-.06.08.12.52.83.5 1.28.43.3-.04.47-.18.51-.43.07-.39-.5-.5-.91-.57a7.26 7.26 0 0 1-.18-.03c-.28-.06-.3-.16-.03-.29.17-.1.4-.03.66.17a.1.1 0 0 0 .06.02h.35a.05.05 0 0 0 .02-.04v-.02a.64.64 0 0 0-.3-.3c-.2-.1-1-.17-1.25.06-.22.2-.15.52.1.61a4.07 4.07 0 0 0 .95.25ZM16 13.5v.1h.4c.04 0 .06-.02.06-.06v-1.43c0-.04-.01-.06-.05-.06a1.02 1.02 0 0 0-.4.02c-.01.03-.01.05 0 .07v1.36Zm2.52-.55-.26-.3c-.06-.07-.08-.06-.08.02v.9c0 .03-.01.04-.03.04h-.33c-.03 0-.04-.02-.04-.04V12.1c0-.04.02-.06.06-.06h.32a.1.1 0 0 1 .04.01l.06.04a19.56 19.56 0 0 1 .8.92c.05.06.08.05.08-.03v-.91c0-.02 0-.03.03-.03h.33c.02 0 .04.01.04.04v1.47c0 .04-.02.06-.06.06h-.32a.1.1 0 0 1-.05-.01 19.78 19.78 0 0 1-.59-.65Zm9.28-.3a49.85 49.85 0 0 0 .85.95.1.1 0 0 0 .05.01h.32c.04 0 .06-.02.06-.06v-1.47c0-.02-.01-.04-.04-.04h-.33c-.02 0-.03.01-.03.03v.9c0 .1-.03.1-.08.04a30.49 30.49 0 0 0-.85-.96.1.1 0 0 0-.05-.01h-.32c-.04 0-.06.02-.06.06v1.47c0 .02.01.04.04.04h.33c.02 0 .03-.01.03-.03v-.9c0-.1.02-.1.08-.04Zm4.33.75v.17a.04.04 0 0 1-.04.04h-1.6a.04.04 0 0 1-.04-.04v-1.49a.04.04 0 0 1 .04-.04h1.57a.04.04 0 0 1 .04.04v.16a.04.04 0 0 1-.04.04h-1.14a.04.04 0 0 0-.04.04v.31a.04.04 0 0 0 .04.04h1.05a.04.04 0 0 1 .04.04v.17a.04.04 0 0 1-.04.04h-1.08l-.01.03v.37a.04.04 0 0 0 .04.04h1.17l.03.01.01.03Zm4.25-1.36h.37c.02 0 .04.01.04.03v1.5c0 .02-.01.04-.03.04h-.38a.03.03 0 0 1-.03-.04v-1.5c0-.02.01-.03.03-.03Zm-15.49 0v1.53a.04.04 0 0 0 .03.03h1.05a.81.81 0 0 0 .55-.21.74.74 0 0 0 .23-.52v-.09c0-.2-.08-.38-.23-.52a.8.8 0 0 0-.55-.22H20.9Zm.45.25-.01.04v.98a.04.04 0 0 0 .04.05h.44c.13 0 .25-.04.34-.12a.4.4 0 0 0 .14-.3v-.24c0-.05 0-.1-.03-.16a.42.42 0 0 0-.1-.13.49.49 0 0 0-.16-.1.54.54 0 0 0-.18-.03h-.45l-.03.01Zm17.52-.25a1 1 0 0 1 .18.01c.04 0 .07.03.09.07l.82 1.42c.03.04.02.06-.03.06h-.36a.1.1 0 0 1-.09-.05l-.12-.25c-.02-.03-.05-.05-.1-.05h-.77c-.05 0-.08.03-.1.06l-.12.24a.1.1 0 0 1-.1.06h-.35c-.05 0-.06-.02-.04-.06l.82-1.43a.13.13 0 0 1 .09-.07h.18Zm0 .4c.02 0 .03.01.03.02l.26.5a.04.04 0 0 1 0 .03.04.04 0 0 1-.03.02 6.75 6.75 0 0 0-.56-.02.04.04 0 0 1 0-.04l.25-.5.03-.01h.01Z" fill="#100F0D"/><path d="M17.62 33.05c-.02.07-.07.08-.15.03a.1.1 0 0 1-.04-.1c.06-.24 0-.37-.17-.4-.05-.01-.07-.04-.07-.08 0-.1-.04-.16-.15-.17h-.37a.13.13 0 0 0-.1.05.13.13 0 0 0-.03.1c0 .05-.02.08-.07.1l-.12.03c-.04.01-.06.04-.06.08v.3c0 .05-.02.08-.05.1l-.16.06h-.06c.05 0 .04-.02-.02-.03V14h4.52c.05 0 .07.03.07.07v2.8a.2.2 0 0 1-.15.2c-.53.12-.99.38-1.37.78a1.3 1.3 0 0 0-.43.97 568.7 568.7 0 0 0-.03 4.07c0 .05-.02.07-.07.07h-.28c-.05 0-.07.03-.07.08v4.35c0 .05-.02.07-.07.07h-.45a.09.09 0 0 0-.06.03.08.08 0 0 0-.03.06l.04 5.5ZM40 21.86v2.5l-.03 9.33c-.32.1-.66.12-1.05.07-.04 0-.06-.03-.06-.07v-.85a.16.16 0 0 0-.17-.16h-.26c-.04 0-.07-.03-.07-.07v-3.37a.14.14 0 0 0-.13-.13h-.08c-.08 0-.12.04-.12.12v.83c0 .05-.02.1-.05.13l-.88 1.16a.45.45 0 0 0-.1.28v3a.09.09 0 0 1-.09.08h-.73c-.06 0-.09-.03-.07-.1a.25.25 0 0 0-.02-.18.09.09 0 0 0-.09-.05h-.62a.13.13 0 0 0-.1.05l-.08.1a.14.14 0 0 1-.1.05h-.6a.12.12 0 0 0-.09.03.11.11 0 0 0-.03.08v.6c0 .03-.03.06-.07.06h-.63a.16.16 0 0 0-.12.05.16.16 0 0 0-.04.13c.03.15-.01.25-.12.28a.1.1 0 0 0-.07.1v.29c0 .06-.03.1-.1.1h-.07c-.06 0-.1-.04-.1-.1v-.4c0-.09-.04-.13-.12-.15a.94.94 0 0 0-.54.04v-5.61a.06.06 0 0 1 .07-.07 6.22 6.22 0 0 0 5.44-3.76c.9-2.1.7-4.45-.55-6.39a6.01 6.01 0 0 0-4-2.73 10.95 10.95 0 0 0-2.2-.07.07.07 0 0 0-.02.05v15.14h-.45c-.05 0-.08-.03-.08-.08v-.53a.1.1 0 0 0-.01-.04.1.1 0 0 0-.1-.06 12.88 12.88 0 0 1-.13 0 .14.14 0 0 0-.06.03.18.18 0 0 0-.04.06.2.2 0 0 0-.02.08l-.02 1.36c0 .04-.02.06-.07.06h-.46a.15.15 0 0 0-.15.15v1.15c0 .04-.02.07-.06.08a.26.26 0 0 0-.06.04c-.03.02-.05.06-.05.12a1.9 1.9 0 0 0 0 .4c0 .1-.04.16-.14.16h-.61c-.1 0-.14-.05-.14-.14v-1.83a.1.1 0 0 0-.07-.1.3.3 0 0 0-.2-.01.07.07 0 0 1-.1-.07v-.14a.1.1 0 0 0-.05-.1c-.07-.04-.17-.05-.3-.02a.1.1 0 0 1-.1-.1v-.4c0-.1-.06-.15-.16-.15h-1.13c-.07 0-.1.03-.1.1v2.37c0 .05-.03.07-.08.07h-.15c-.04 0-.05-.01-.05-.05v-.47a.1.1 0 0 0-.11-.1h-1.04a.11.11 0 0 0-.07.03.1.1 0 0 0-.04.08v1.48c0 .05-.02.07-.06.06h-.45V30.1c0-.04.01-.07.05-.07l.36-.04a6.28 6.28 0 0 0 5.19-4c1.33-3.45-.38-7.52-3.96-8.7a9 9 0 0 0-2.85-.26c-.04 0-.06.02-.06.06v17.98c-.07.04-.12.01-.15-.06v-.03l.02-1.57a.1.1 0 0 0-.03-.08.1.1 0 0 0-.08-.03h-.1c-.05 0-.07-.02-.07-.06a.23.23 0 0 0-.08-.17c-.03-.03-.08-.04-.14-.04-.37.02-.73 0-1.08-.03l-.04-12.97c0-.04-.02-.06-.06-.06h-.12c-.06 0-.09-.03-.09-.08v-5.82c0-.05.02-.07.07-.07h18.9c.01 0 .03 0 .04.02l.02.04.03 7.8Z" fill="#CD1E25"/><path d="M29.02 23.52c0 1.35-.29 2.5-1.25 3.49-1.01 1.02-2 1.7-3.46 1.69-.05 0-.07-.02-.07-.06-.01-.13-.02-1.84-.02-5.13 0-3.28 0-4.99.02-5.11 0-.05.02-.07.07-.07 1.46 0 2.45.67 3.46 1.7.96.97 1.25 2.13 1.25 3.49ZM32.41 23.52c0-3.29.01-5 .02-5.12 0-.04.03-.07.07-.07 1.46 0 2.45.68 3.46 1.7.96.97 1.25 2.13 1.25 3.49 0 1.36-.3 2.5-1.26 3.48-1 1.03-2 1.7-3.46 1.7-.04 0-.06-.03-.07-.07v-5.11Z" fill="#CD1E25"/><path d="M39.97 33.7v.19l-.17.08-1.04-.02a.1.1 0 0 1-.1-.1v-.91a.1.1 0 0 0-.06-.1h-.04a.86.86 0 0 1-.33 0c-.05-.02-.07-.05-.07-.1V30.4c0-.1-.03-.1-.08-.03l-.8 1.03a.38.38 0 0 0-.08.23v3.17a.08.08 0 0 1-.08.09h-1.1a.1.1 0 0 1-.1-.08.1.1 0 0 1 0-.04c.03-.12 0-.2-.08-.21a1.37 1.37 0 0 0-.36 0 .08.08 0 0 0-.07.08v.05c0 .05-.02.07-.07.07h-.71c-.05 0-.08.02-.08.07v.6a.1.1 0 0 1-.1.11h-.64c-.04 0-.07.02-.07.07v.19a.12.12 0 0 1-.04.1c-.12.09-.17.22-.14.4.02.11-.03.16-.14.16h-.44c-.09 0-.14-.04-.14-.14v-.42c0-.01 0-.03-.02-.05a.07.07 0 0 0-.05-.02h-.21c-.05 0-.06.03-.05.07a.6.6 0 0 1-.1.57l-.43.02a.17.17 0 0 1-.17-.14 1.88 1.88 0 0 1 0-.75.07.07 0 0 0-.06-.05h-.61c-.15.01-.22-.03-.22-.11a380.15 380.15 0 0 0-.02-2.96.07.07 0 0 0-.05-.02h-.36c-.03 0-.05.02-.05.05v.71a.1.1 0 0 1-.1.1h-.52a.06.06 0 0 0-.06.06v1.19a.1.1 0 0 1-.01.05.16.16 0 0 1-.05.05.22.22 0 0 1-.07.03c-.05.01-.07.04-.07.08v.53a.1.1 0 0 1-.1.1h-1.03a.14.14 0 0 1-.1-.03.14.14 0 0 1-.04-.1v-1.87c0-.06-.03-.09-.1-.09h-.15c-.06 0-.09-.03-.09-.09v-.13c0-.1-.04-.14-.14-.12-.12.02-.2.01-.25-.02-.06-.03-.08-.1-.08-.2l.01-.3c.02-.09-.01-.13-.1-.13h-.82c-.08 0-.12.04-.12.12v2.31a.12.12 0 0 1-.12.12h-.37c-.09 0-.13-.04-.13-.13v-.37c0-.07-.03-.1-.1-.1h-.7c-.06 0-.1.03-.1.1v1.45c0 .05-.02.07-.06.07h-.64l-.48.02c-.05 0-.08-.03-.08-.08v-.5c0-.06-.02-.08-.07-.08h-.65c-.2.06-.29 0-.3-.14l.02-1.58c0-.04-.02-.07-.07-.07h-.18c-.06 0-.1-.03-.1-.09v-.1c0-.05-.02-.08-.06-.08l-1 .01-.07.03c-.04.02-.06.05-.06.1l-.01.07a.1.1 0 0 1-.1.06h-.13c-.05 0-.07.03-.07.08v.93c0 .12-.06.18-.18.18h-.28c-.12 0-.18-.06-.18-.18v-.87a.06.06 0 0 0-.02-.05.06.06 0 0 0-.04 0l-.28-.01c-.04-.01-.06-.04-.06-.08v-2.8a.07.07 0 0 0-.08-.08.4.4 0 0 1-.2-.01c-.05-.01-.07-.04-.06-.09.01-.2-.02-.33-.1-.4a.19.19 0 0 0-.28.04.18.18 0 0 0-.03.1v.23c0 .05-.02.07-.06.09-.09.02-.13.14-.13.36v1.48c0 .04-.02.06-.06.06h-.37c-.04 0-.06.02-.06.06v3.08a.08.08 0 0 1-.08.08h-.72l-.05-2.33c0-.04-.03-.06-.07-.06h-.1a.09.09 0 0 1-.08-.1v-.34c0-.05-.02-.07-.06-.08l-.1-.01a.09.09 0 0 1-.08-.07l-.03-.1c0-.04-.02-.07-.05-.08a.12.12 0 0 0-.12-.01.1.1 0 0 0-.06.1v.06a.09.09 0 0 1-.03.07.09.09 0 0 1-.06.02c-.04 0-.08 0-.12.03a.1.1 0 0 0-.05.09v.32c0 .05-.02.07-.06.08l-.21.03c-.07 0-.12-.04-.14-.14l.15-.07a.09.09 0 0 0 .06-.08v-.31c0-.04.02-.07.06-.08l.12-.03c.05-.02.07-.05.07-.1 0-.04.01-.08.04-.1a.13.13 0 0 1 .1-.05h.36c.1.01.16.07.15.17 0 .04.02.07.07.08.17.03.23.16.17.4a.1.1 0 0 0 .04.1c.08.05.13.04.15-.03.1.78.14 1.57.1 2.37 0 .05.03.08.08.08h.31c.04 0 .07-.03.07-.07 0-1.38 0-2.36-.03-2.95 0-.17.13-.25.42-.23.07.01.1-.02.1-.1V30.6c0-.05.02-.08.05-.12a.59.59 0 0 0 .16-.3.2.2 0 0 1 .06-.12c.15-.13.2-.3.15-.53a.1.1 0 0 1 .02-.09.11.11 0 0 1 .1-.04h.04c.07 0 .1.04.1.1v.36c0 .04.03.08.07.1.14.09.2.2.18.34a.11.11 0 0 0 .04.1.11.11 0 0 0 .1.03c.14-.03.21 0 .21.11a160.53 160.53 0 0 1 .02 2.79.1.1 0 0 0 .06.05.1.1 0 0 0 .05 0 .4.4 0 0 1 .23 0c.04.02.06.08.06.18v.83c0 .06.03.08.08.08h.09c.06 0 .09-.03.09-.09v-.96c0-.08.07-.11.24-.1a.08.08 0 0 0 .08-.1c0-.03 0-.07.02-.11.01-.05.04-.07.09-.06.12.01.18 0 .2-.05.34.04.7.05 1.07.03.06 0 .1.01.14.04.05.04.07.1.08.17 0 .04.02.06.07.06h.1a.1.1 0 0 1 .1.1l-.02 1.58v.03c.04.07.1.1.16.06h.77a.13.13 0 0 1 .1.03.12.12 0 0 1 .03.1v.48c0 .04.02.06.06.07.1.03.2.02.3-.01h.46c.04 0 .06-.01.06-.06V34.2a.1.1 0 0 1 .04-.08.11.11 0 0 1 .07-.03h1.04a.1.1 0 0 1 .1.1v.47c0 .04.02.05.06.05h.15c.05 0 .07-.02.07-.07v-2.37c0-.07.04-.1.11-.1h1.13c.1 0 .15.05.15.15v.4a.09.09 0 0 0 .04.08.1.1 0 0 0 .08.02c.12-.03.21-.02.3.02a.1.1 0 0 1 .05.1v.14a.08.08 0 0 0 .09.07.3.3 0 0 1 .2 0 .1.1 0 0 1 .07.1v1.84c0 .1.04.14.14.14h.61c.1 0 .15-.05.13-.15a1.9 1.9 0 0 1 0-.41c.01-.06.03-.1.06-.12a.26.26 0 0 1 .06-.04.09.09 0 0 0 .06-.08v-1.15a.15.15 0 0 1 .15-.15h.46c.05 0 .07-.02.07-.06l.02-1.36.02-.08a.18.18 0 0 1 .04-.06.14.14 0 0 1 .06-.03h.07a13.21 13.21 0 0 0 .1 0 .1.1 0 0 1 .06.06.1.1 0 0 1 0 .04v.53c0 .05.04.08.09.08h.45l.01 3.05c0 .04.03.06.07.06h.62c.1 0 .14.04.14.13v.74c0 .05.02.07.06.07h.21c.07 0 .09-.03.08-.1-.06-.25-.04-.43.07-.51.13-.06.31-.07.54-.04.08.02.13.06.13.15v.4c0 .06.03.1.1.1h.07c.06 0 .1-.04.1-.1v-.3a.1.1 0 0 1 .06-.09c.1-.03.15-.13.12-.28a.16.16 0 0 1 .16-.18h.63c.04 0 .07-.03.07-.07v-.59c0-.03 0-.06.03-.08a.12.12 0 0 1 .08-.03h.6a.14.14 0 0 0 .11-.06l.07-.1a.13.13 0 0 1 .1-.04H36c.04 0 .07.02.09.05.03.06.03.12.02.18-.02.07 0 .1.07.1h.73a.09.09 0 0 0 .09-.09v-2.99c0-.1.03-.2.1-.28l.88-1.16a.21.21 0 0 0 .05-.13v-.83c0-.08.04-.12.12-.12h.08a.14.14 0 0 1 .13.13v3.37c0 .04.03.07.07.07h.26a.17.17 0 0 1 .17.16v.85c0 .04.02.06.06.07.39.05.73.03 1.05-.07Z" fill="#939494"/><path d="M39.8 33.97v3.73a.11.11 0 0 1-.11.1l-7.27.02v-1.35a.6.6 0 0 0 .09-.57c-.01-.04 0-.07.05-.07h.21l.05.02c.02.02.02.04.02.05v.42c0 .1.05.14.15.14h.43c.11 0 .16-.05.14-.16-.03-.18.02-.31.14-.4a.12.12 0 0 0 .04-.1v-.19c0-.05.03-.07.07-.07h.64a.1.1 0 0 0 .1-.1v-.6c0-.06.03-.08.08-.08h.71c.05 0 .07-.02.07-.07v-.05a.08.08 0 0 1 .07-.07c.17-.02.3-.02.36-.01.08.02.11.09.08.21a.1.1 0 0 0 .02.08l.03.03a.1.1 0 0 0 .04 0h1.11a.08.08 0 0 0 .08-.08v-3.17c0-.08.03-.16.08-.23l.8-1.03c.05-.07.08-.06.08.03v2.34c0 .05.02.08.07.1.09.02.2.02.33 0a.09.09 0 0 1 .07.03.1.1 0 0 1 .03.07v.9a.1.1 0 0 0 .1.1l1.04.03ZM31.14 35.55v2.27h-6.9V35.9h.63c.04 0 .07-.02.07-.07v-1.46c0-.06.03-.1.1-.1h.7c.06 0 .1.04.1.1v.38c0 .1.04.13.12.13h.37a.12.12 0 0 0 .11-.07l.01-.05v-2.31c0-.08.04-.12.12-.12h.82c.09 0 .12.04.1.13l-.01.3c0 .1.02.17.08.2.05.03.13.04.25.02.1-.02.15.02.15.12v.13c0 .06.02.09.08.09h.16c.06 0 .09.03.09.09v1.87c0 .04.01.07.04.1.03.02.06.04.1.04h1.03a.1.1 0 0 0 .1-.1v-.54c0-.04.02-.07.07-.08.03 0 .05-.02.07-.03a.16.16 0 0 0 .05-.05.1.1 0 0 0 .01-.05v-1.2a.06.06 0 0 1 .06-.05h.53a.1.1 0 0 0 .1-.1v-.7c0-.04.01-.06.04-.06h.36a.07.07 0 0 1 .07.07v2.9c0 .1.07.13.22.12ZM17.55 35.67l.02 2.18-1.24-.02a.12.12 0 0 1-.12-.12v-4.42l.22-.03c.04 0 .06-.03.06-.08v-.32a.1.1 0 0 1 .05-.1.22.22 0 0 1 .12-.02.08.08 0 0 0 .06-.02.09.09 0 0 0 .03-.07v-.06a.1.1 0 0 1 .06-.1.12.12 0 0 1 .12 0c.03.02.04.05.05.09l.03.1c.02.04.04.06.08.07l.1.01c.04.01.06.03.06.08v.35a.09.09 0 0 0 .08.09h.1c.04 0 .07.02.07.06l.05 2.33Z" fill="#CD1E25"/><path d="M16.08 33.15c.02.1.07.14.14.14v4.42a.12.12 0 0 0 .11.12l1.24.02h3.61c.02 0 .04 0 .05-.02.02-.05.03-.06.02-.02h1.7l.04.03.06.02c.4.02.8 0 1.19-.03h6.9c.43.06.85.05 1.28-.01l7.27-.01a.11.11 0 0 0 .1-.11v-3.73l.17-.08H40v1.47c-.04.07-.04.14 0 .2v.01l-.02 2.36c0 .01 0 .03-.02.04a.06.06 0 0 1-.04.02L16 38v-.12c.03-.06.03-.1 0-.12v-.06l.02-4.55h.06Z" fill="#7F7D79"/><path d="M22.95 35.27v2.53h-1.7v-4.59h1c.05 0 .08.02.08.06v.11c0 .06.03.1.1.1h.17c.05 0 .07.02.07.06-.01.87-.02 1.4-.01 1.58 0 .15.1.2.29.15Z" fill="#CD1E25"/><path d="M40 35.36v.2c-.03-.06-.03-.13 0-.2Z" fill="#fff"/><path fill-rule="evenodd" d="M40 42.06a.2.2 0 0 1 0-.06H16v2h23.98l.02-1.94Zm0 0Zm-9.79 1.57v-.15l-.01-.03-.03-.01h-.71l-.03-.01-.02-.03v-.24a.04.04 0 0 1 .05-.04h.66a.04.04 0 0 0 .04-.04V42.93a.04.04 0 0 0-.04-.03H29.42v-.22a.04.04 0 0 1 .03-.05h.72a.04.04 0 0 0 .04-.04v-.13a.04.04 0 0 0-.01-.02.04.04 0 0 0-.03-.02h-1.03a.04.04 0 0 0-.03.02v1.22l.03.01h1.03a.04.04 0 0 0 .04-.04Zm5.71-1.21h.55c.04 0 .06.03.06.07v.05c0 .06-.03.1-.1.1h-.27c-.05 0-.08.02-.08.07v.87c0 .05-.02.08-.06.09a.36.36 0 0 1-.19 0c-.04-.01-.06-.04-.06-.09v-.87c0-.05-.03-.08-.08-.08h-.28c-.06 0-.1-.03-.1-.1v-.04c0-.04.02-.06.06-.06l.55-.01Zm3.04.46h-.03l-.25-.36a.25.25 0 0 0-.2-.1h-.1c-.1 0-.11.03-.05.1l.42.56c.02.04.04.08.04.13v.39c0 .02.01.03.03.05l.05.03h.08a.6.6 0 0 0 .09 0c.02 0 .04-.02.05-.03a.08.08 0 0 0 .02-.05v-.39c0-.05.02-.1.05-.13l.42-.55c.06-.08.04-.11-.05-.11h-.1a.25.25 0 0 0-.2.1l-.25.36h-.02Zm-22.26.41c0-.04.02-.06.06-.06.28 0 .47-.02.56-.07.34-.2.24-.65-.13-.73-.1-.02-.35-.02-.74 0-.05 0-.08.03-.08.08v1.07c0 .07.04.1.1.1h.13c.06 0 .1-.03.1-.1v-.29Zm.01-.64a.06.06 0 0 0-.01.04v.27a.06.06 0 0 0 .04.05h.15c.09 0 .16-.02.22-.05.06-.04.09-.08.09-.13v-.04c0-.05-.04-.09-.1-.12a.46.46 0 0 0-.22-.04h-.13c-.02 0-.03 0-.04.02Zm3.68.52.35.4c.06.08.05.11-.05.11h-.16a.19.19 0 0 1-.14-.06l-.3-.35c-.22-.24-.32-.2-.32.12v.21c0 .06-.03.08-.08.08h-.16c-.05 0-.08-.03-.08-.09v-1.08c0-.05.02-.07.07-.08.45-.02.75-.02.9.02.34.09.33.5 0 .64-.05.02-.05.05-.03.08Zm-.63-.48a.05.05 0 0 1 .02-.04.05.05 0 0 1 .03-.02h.34c.05 0 .1.02.14.04.03.02.05.05.05.08v.05l-.01.05a.14.14 0 0 1-.05.03.22.22 0 0 1-.06.03.3.3 0 0 1-.07 0h-.34l-.04-.01a.05.05 0 0 1-.01-.04v-.17Zm4.1.82c.13-.12.21-.29.21-.46a.62.62 0 0 0-.22-.47.8.8 0 0 0-.52-.2.8.8 0 0 0-.53.2.62.62 0 0 0-.21.47c0 .17.07.34.21.46.14.13.33.2.53.2a.8.8 0 0 0 .52-.2Zm-.53-.03a.42.42 0 0 1-.41-.44c0-.23.18-.43.4-.43.24 0 .42.2.42.43 0 .24-.18.44-.41.44Zm3.02-.19v.3c0 .06-.03.1-.1.1h-.12c-.07 0-.1-.04-.1-.1V42.5c0-.04.02-.07.07-.07.39-.02.64-.01.74 0 .38.08.47.54.13.73-.09.05-.27.07-.56.07-.04 0-.06.02-.06.06Zm0-.6a.05.05 0 0 1 .05-.06h.14c.08 0 .16.02.22.05.06.03.09.07.09.12v.04a.1.1 0 0 1-.02.06.2.2 0 0 1-.07.06.39.39 0 0 1-.1.04.54.54 0 0 1-.12.01h-.13a.05.05 0 0 1-.06-.05v-.27Zm6.8.47c-.03-.03-.02-.06.02-.07.34-.15.35-.55 0-.64a3.74 3.74 0 0 0-.9-.02c-.04 0-.06.03-.06.07v1.09c0 .05.03.08.09.08h.15c.05 0 .08-.02.08-.08v-.2c0-.33.1-.37.31-.13l.31.35a.19.19 0 0 0 .14.07h.15c.1 0 .12-.04.05-.12l-.34-.4Zm-.53-.52h.37c.05 0 .1.04.1.1v.08a.1.1 0 0 1-.1.1h-.37a.1.1 0 0 1-.1-.1v-.08c0-.06.04-.1.1-.1Z" fill="#100F0D"/><path fill-rule="evenodd" d="M24.2 40.12c.07.05.16.09.24.12.08.03.15.06.21.1.37.24.82.6 1.35 1.08.05.05.04.08-.04.08h-.67a.3.3 0 0 1-.2-.07l-.98-.83c-.6-.49-1.21-.47-1.83-.44h-.26c-.05 0-.08.03-.08.08v1.2c0 .04-.02.06-.06.06h-.64c-.03 0-.04-.02-.04-.05v-2.87c0-.04.02-.07.07-.07.44-.02 1.43-.01 2.96 0 .49.01 1.08.14 1.34.52.12.18.12.36 0 .55-.26.38-.9.5-1.36.5-.04 0-.05.02-.01.04Zm-2.27-1.18v-.02a.05.05 0 0 1 .04-.03h.02l1.85-.03c.28 0 .55.05.74.13.2.09.31.2.31.33 0 .06-.02.12-.07.18a.7.7 0 0 1-.23.15 2.23 2.23 0 0 1-.74.14l-1.85.02-.04-.01a.05.05 0 0 1-.02-.04v-.82Zm5.77-.44h-.66c-.02 0-.04.02-.04.04v2.92c0 .02.02.04.04.04h.66c.02 0 .04-.02.04-.04v-2.92c0-.02-.02-.04-.04-.04Zm2.02.53L29.7 39h-.02l-.03.01V41.45l-.02.03-.04.02H29c-.03 0-.04-.01-.04-.04v-2.9c0-.04.02-.06.06-.06H30a.1.1 0 0 1 .1.06l1.51 2.46a.05.05 0 0 0 .05.02h.02l.02-.02 1.5-2.46a.12.12 0 0 1 .11-.06h.89c.04 0 .06.02.06.06v2.9c0 .03-.01.04-.03.04h-.63c-.03 0-.04-.02-.04-.04V39.1c0-.09-.02-.1-.07-.02l-1.51 2.35a.11.11 0 0 1-.1.06h-.54a.15.15 0 0 1-.14-.08l-1.47-2.4ZM40 41.49v-.06l-2.2-2.88a.13.13 0 0 0-.11-.05h-.66a.11.11 0 0 0-.1.05l-2.05 2.87c-.04.05-.03.08.04.08h.6c.07 0 .13-.03.17-.09l.47-.77a.16.16 0 0 1 .06-.05.17.17 0 0 1 .08-.03h2.14c.07 0 .11.03.15.08l.55.8c.03.03.06.05.1.05H40Zm-2.67-2.6h-.01l-.82 1.34.01.02h1.75l.01-.01a.04.04 0 0 0 0-.04l-.9-1.3-.02-.01h-.02ZM16 41.49h.68c.05 0 .08-.03.08-.07v-1.09l.02-.03a.09.09 0 0 1 .06-.02c.92.02 1.64.01 2.13-.03.6-.05 1.39-.32 1.28-1-.08-.55-1-.72-1.46-.73-.93-.02-1.86-.02-2.79 0V41.48Zm.75-2.58a.03.03 0 0 1 .01-.02h.02l.01-.01 1.8-.01c.12 0 .24 0 .35.03l.3.1c.08.05.15.1.2.17.04.06.07.12.07.19v.05c0 .14-.1.26-.27.36-.17.1-.4.15-.64.15l-1.8.01h-.03v-.03l-.02-.99Z" fill="#7F7D79"/></svg>