<!-- by TradingView --><svg width="56" height="56" viewBox="0 0 56 56" xmlns="http://www.w3.org/2000/svg"><path fill="#F0F3FA" d="M0 0h56v56H0z"/><path d="M38.6 21.02c-.29.43-.4.8-.32 1.13-1.14 4.1-2.51 8.11-4.12 12.06L32 33.56c.08-.73.08-1.44.02-2.12a493.5 493.5 0 0 1-.17-1.88c-.07-1.55-.2-3.09-.36-4.62-.1-.98-.3-1.95-.6-2.9a5.57 5.57 0 0 0-.59-2.26c-1.33-3.54-3.92-5.13-7.78-4.77-3.36.3-5.05 4.43-5.05 7.35-.34.22-.63.31-.87.3a9.76 9.76 0 0 1 2.53-8.13c.3-.33.97-.74 1.99-1.23.67-.32 1.4-.57 2.19-.76 3.35-.77 6.62-.72 9.82.16 5.4 1.47 5.94 3.9 5.48 8.32Z" fill="#00AFEF"/><path d="M30.3 19.78c-4.34.6-8.62 1.46-12.84 2.58 0-2.92 1.7-7.05 5.05-7.35 3.86-.36 6.45 1.23 7.78 4.77Z" fill="#2A3959"/><path d="M30.3 19.78c.34.7.54 1.45.58 2.25a77.2 77.2 0 0 0-9.48 6.93l-1.73 1.8c-2.62 3.2-2.15 7.33 1.16 9.75.52.38 1.15.6 1.89.67.76.08 1.43.1 2.03.1a7.78 7.78 0 0 0 3.45-.86l.82.58c-3.16 2.13-6.1 2.55-8.85 1.28-1.68-.79-3.31-2.3-4.9-4.55a19.46 19.46 0 0 1-2.85-6.24c-1.14-4.24-.03-7.59 4.17-8.84.24.02.53-.07.87-.29 4.22-1.12 8.5-1.98 12.83-2.58Z" fill="#A8CF45"/><path d="M38.6 21.02c3.67 1.82 6.2 5.57 5.17 9.72a20.7 20.7 0 0 1-3.61 7.49c-1.7 2.26-3.6 3.76-5.7 4.48a4.49 4.49 0 0 1-4.24-.59c-.4-.28-.8-.65-1.2-1.12l-.82-.58c-3-3.03-5.84-6.25-8.53-9.66l1.73-1.8c3.08 1.68 6.97 3.95 10.6 4.6l2.16.65c2 .3 3.7-.03 5.13-.98 3.1-2.09 3.67-6.08 1.41-9.12a6.55 6.55 0 0 0-2.42-1.96c-.08-.32.03-.7.31-1.13Z" fill="#FFCC29"/><path d="M34.16 34.2a111.9 111.9 0 0 0 4.12-12.05c1 .5 1.81 1.15 2.42 1.96 2.26 3.04 1.7 7.03-1.4 9.12a7.02 7.02 0 0 1-5.14.98Z" fill="#CC7145"/><path d="M19.67 30.76c2.7 3.41 5.54 6.63 8.53 9.66a7.79 7.79 0 0 1-3.45.86c-.6 0-1.27-.02-2.03-.1a3.73 3.73 0 0 1-1.89-.67c-3.31-2.42-3.78-6.55-1.16-9.75Z" fill="#00A859"/></svg>