<!-- by TradingView --><svg width="56" height="56" viewBox="0 0 56 56" xmlns="http://www.w3.org/2000/svg"><path fill="#F0F3FA" d="M0 0h56v56H0z"/><path d="M38.39 13.18c-1.5.62-2.98 1.27-4.48 1.87-2.54 1.03-4.3 1.73-5.3 2.12-.46.18-1.1.39-1.92.63a10.4 10.4 0 0 1 9.77-5.8c.91 0 1.55.39 1.93 1.18Z" fill="url(#a)"/><path d="M38.39 13.18c.05.13.08.25.1.38a1.91 1.91 0 0 1-1.47 2.21c-.22.05-.49.08-.81.08a6.84 6.84 0 0 0-4 1.3c-2.06.7-4.1 1.48-6.21 2.07l.69-1.42a26.5 26.5 0 0 0 1.92-.63l5.3-2.12c1.5-.6 2.97-1.25 4.48-1.87Z" fill="#3F90D2"/><path d="M32.21 17.14c-.6.48-1.11 1.01-1.52 1.61-.55.8-1 1.68-1.32 2.62-.87.2-1.72.32-2.6.32-.56 0-1.1 0-1.66.03.25-.85.55-1.69.89-2.5 2.1-.59 4.15-1.37 6.21-2.08Z" fill="url(#b)"/><path d="M39 23a2 2 0 1 0 0-4 2 2 0 0 0 0 4ZM28.06 26.88l-.01-.02H28c-1.04.61-2.05 1.25-3.05 1.92-.42.28-.79.55-1.12.82a.8.8 0 0 0-.19.21c-.63.51-1.2 1.06-1.71 1.63-.83.15-1.45.45-2.23.82-.89.43-1.74.78-2.63 1.15-.35.15-.81.4-1.4.75l.18-.46a16.4 16.4 0 0 1 2.87-4.56c.8-.9 1.67-1.73 2.6-2.5a28.52 28.52 0 0 1 3.18-2.23c.75-.45 1.5-.87 2.3-1.24l2.33-1.14c1.24-.54 2.42-.97 3.52-1.3 1.18-.34 2.38.4 2.55 1.58.14.91-.42 1.81-1.33 2.1a32.79 32.79 0 0 0-5.82 2.47Z" fill="#E90F78"/><path d="m29.37 21.37-.23.66-2.34 1.14c-.78.37-1.54.79-2.29 1.24h-.06c.18-.9.4-1.8.66-2.69.56-.03 1.1-.03 1.65-.03.9 0 1.74-.12 2.6-.32Z" fill="#001F6A"/><path d="m28.06 26.88-.2 1.4c-.59.3-1.08.6-1.48.9-.97.75-1.96 1.46-2.87 2.25l.14-1.62a.8.8 0 0 1 .2-.2c.32-.28.7-.55 1.11-.83a58.13 58.13 0 0 1 3.09-1.92v.02Z" fill="#861E45"/><path d="m27.85 28.28-.25 2.14c-.62.2-1.22.51-1.81.94a51.1 51.1 0 0 0-2.43 1.87l.15-1.8c.9-.8 1.9-1.5 2.87-2.24.4-.3.89-.6 1.47-.9Z" fill="url(#c)"/><path d="m27.6 30.42-.2 2.19c-.95.34-1.85.76-2.71 1.25l-1.45.83.12-1.46c.59-.5 1.4-1.11 2.43-1.87.59-.43 1.2-.74 1.8-.94Z" fill="#F46745"/><path d="M21.94 31.44c-.76.83-1.38 1.7-1.87 2.58-.21.39-.44.87-.67 1.47a6.7 6.7 0 0 0-.44 2.06 31.29 31.29 0 0 1-3.78 1.84 9.24 9.24 0 0 1 .5-5.23c.59-.35 1.05-.6 1.4-.75.89-.37 1.74-.72 2.63-1.15.78-.37 1.4-.67 2.23-.82Z" fill="url(#d)"/><path d="m27.4 32.6-.34 3.98c-1.5.63-3 1.22-4.51 1.78.3-.77.5-1.56.58-2.37.03-.22.06-.66.1-1.3l1.46-.83c.86-.49 1.76-.9 2.7-1.25Z" fill="url(#e)"/><path d="M27.06 36.58c-.11.88-.3 1.73-.57 2.55-.1.33-.23.64-.38.95-.6.16-1.09.3-1.44.42a55.34 55.34 0 0 0-4.73 1.93c-.53.24-1.05.6-1.57 1.08a5.89 5.89 0 0 1-3.19-4.12c1.4-.6 2.56-1.1 3.78-1.84 0 .33.02.61.06.85.12.72.54 1.53 1.32 1.71.66.16 1.34-.36 1.7-.89.22-.3.38-.59.5-.86 1.51-.56 3.02-1.15 4.52-1.78Z" fill="#F8B31E"/><path d="M26.1 40.08A7.2 7.2 0 0 1 23.73 43c-.58.41-1.26.7-2.05.88-1.1.24-2.2.12-3.3-.37a6.24 6.24 0 0 1 1.57-1.08c1.64-.75 3.22-1.4 4.73-1.93.35-.12.83-.26 1.44-.42Z" fill="url(#f)"/><defs><linearGradient id="a" x1="30.95" y1="12.98" x2="31.94" y2="15.72" gradientUnits="userSpaceOnUse"><stop stop-color="#1FAAE3"/><stop offset="1" stop-color="#3F90D2"/></linearGradient><linearGradient id="b" x1="27.89" y1="18.2" x2="27.99" y2="20.99" gradientUnits="userSpaceOnUse"><stop offset=".04" stop-color="#3F90D2"/><stop offset=".56" stop-color="#5272BE"/><stop offset="1" stop-color="#001F6A"/></linearGradient><linearGradient id="c" x1="24.67" y1="30.38" x2="25.56" y2="31.69" gradientUnits="userSpaceOnUse"><stop offset=".05" stop-color="#861E45"/><stop offset=".41" stop-color="#B63D45"/><stop offset="1" stop-color="#F46745"/></linearGradient><linearGradient id="d" x1="17.14" y1="33.07" x2="17.58" y2="38" gradientUnits="userSpaceOnUse"><stop offset=".04" stop-color="#E90F78"/><stop offset=".46" stop-color="#F46745"/><stop offset="1" stop-color="#F8B31E"/></linearGradient><linearGradient id="e" x1="24.97" y1="33.2" x2="25.61" y2="37.35" gradientUnits="userSpaceOnUse"><stop offset=".21" stop-color="#F46745"/><stop offset=".6" stop-color="#F49130"/><stop offset="1" stop-color="#F8B31E"/></linearGradient><linearGradient id="f" x1="24.03" y1="43.31" x2="23.13" y2="41.32" gradientUnits="userSpaceOnUse"><stop stop-color="#FBD10F"/><stop offset="1" stop-color="#F8B31E"/></linearGradient></defs></svg>