<!-- by TradingView --><svg width="56" height="56" viewBox="0 0 56 56" xmlns="http://www.w3.org/2000/svg"><path fill="#F0F3FA" d="M0 0h56v56H0z"/><path d="M25.69 20.3a9.13 9.13 0 0 0-.14 2.64c.12 1.06.38 2.38.8 3.96-2.68.19-5.3-.1-7.87-.85.83-1.8 1.21-3.6 1.13-5.4-.12-2.8-.74-5.66-1.86-8.57-.01-.02 0-.04.03-.07.02-.02.04-.01.07.03a19.92 19.92 0 0 0 7.84 8.26Z" fill="#107ABE"/><path d="M29.87 20.86c2.61 0 4.73-1.91 4.74-4.28 0-2.37-2.11-4.29-4.73-4.3-2.61 0-4.73 1.92-4.74 4.28 0 2.37 2.11 4.3 4.73 4.3Z" fill="#D7BE75"/><path d="M30.93 28.64c-1.3.01-2.53.16-3.68.45l-.9-2.2c-.42-1.57-.68-2.89-.8-3.95a9.12 9.12 0 0 1 .14-2.64c3.72 1.97 8.08 2.74 12.23 3 .1 0 .1.02 0 .05-.54.15-1.06.04-1.61.16-.56.12-1.05.25-1.47.37a5.2 5.2 0 0 0-3.41 2.93c-.16.36-.33.96-.5 1.83Z" fill="#ED3237"/><path d="m26.35 26.9.9 2.2c-2.46.5-4.7 1.42-6.71 2.74a16.9 16.9 0 0 0-7.53-2 8.1 8.1 0 0 0 5.47-3.79c2.57.76 5.2 1.04 7.87.85Z" fill="#FFF311"/><path d="M30.93 28.64c.07 2.83.37 5.48.9 7.94.65 3.06 1.6 6.2 2.87 9.42h-.67c-3.62-5.47-7.62-10.84-13.5-14.16a19.18 19.18 0 0 1 6.72-2.75c1.15-.29 2.38-.44 3.68-.45Z" fill="#65BC50"/></svg>