<!-- by TradingView --><svg width="56" height="56" viewBox="0 0 56 56" xmlns="http://www.w3.org/2000/svg"><path fill="#F0F3FA" d="M0 0h56v56H0z"/><path d="M36.52 17.46c.92-1.04 1.56-2.2 2.27-3.43a.06.06 0 0 1 .1 0 36.67 36.67 0 0 1 3.53 6.02c1.22 2.75.38 6.17-1.25 8.56-.9 1.31-2.5 3.44-3.53 5.4a8.14 8.14 0 0 0-.94 4.33c0 .12-.04.15-.14.07a15.46 15.46 0 0 1-3.65-3.74 13.2 13.2 0 0 1-2.15-5.32 9.26 9.26 0 0 1 1.66-7.3c.36-.48.8-1 1.32-1.55 1.05-1.13 1.98-2.14 2.78-3.04Z" fill="#2E3287"/><path d="M11.04 21.2c3-.32 6.04-.4 8.92.21 4.01.86 6.87 3.4 8.66 7.04l2.3 4.7c.43.92.88 1.76 1.34 2.53a11.83 11.83 0 0 0 4.8 4.56c.28.14.27.25-.03.32l-3.16.78c-3.12.75-6.1.94-9.2.15a12.63 12.63 0 0 1-7.68-5.35c-1.8-2.72-2.41-5.87-3.16-9.14-.12-.51-.33-1.18-.63-2.03-.51-1.39-1.24-2.63-2.18-3.7-.03-.04-.02-.06.02-.06Z" fill="#019A50"/></svg>