<!-- by TradingView --><svg width="56" height="56" viewBox="0 0 56 56" fill="none" xmlns="http://www.w3.org/2000/svg">
<rect width="56" height="56" fill="#F0F3FA"/>
<path d="M29.1251 24.4375C30.6293 23.426 31.8057 22.3931 32.8155 20.9169C33.6941 19.6325 34.0001 18.0409 34.0001 16.4383C33.9951 15.2908 33.6876 14.3125 33.1876 13C37.9376 14.5625 41.9376 19 43.2189 23.0219L39.2374 25.75C36.8144 24.5884 34.7021 24.0003 32.5515 24C31.3493 23.9998 30.3852 24.1366 29.1251 24.4375Z" fill="#7AAC54"/>
<path fill-rule="evenodd" clip-rule="evenodd" d="M18.1841 40.5674C20.9407 42.8417 24.1489 44 28 44C36.074 44 43.625 37.6562 44 29C43.7826 29.1582 43.5954 29.2781 43.4423 29.4208C41.4849 31.2449 36.5018 37.8113 31 39L31.9375 37.4311C29.1875 40.0625 25.3716 41.377 22.1841 42L23.6875 39.7188C21.625 40.9688 19.4028 40.8125 18.1841 40.5674Z" fill="url(#paint0_linear_5085_143004)"/>
<path d="M31.7934 12.5871C30.391 12.1739 29.5357 12 28 12C19.5 12 12 19.25 12 28.367C12 30.0039 12.5 32.1646 13.1875 33.998C17.75 33.998 20.6161 29.2787 24.75 26.377C27.5574 24.4062 33 21.375 33 16.7764C33 15.2657 32.375 13.7002 31.7934 12.5871Z" fill="url(#paint1_linear_5085_143004)"/>
<path fill-rule="evenodd" clip-rule="evenodd" d="M42.6875 28.3245C46.9084 23.265 51 22 51 22C51 22 50.5241 22 49.4964 22C48.4263 22 46.7633 22 44.6875 23.1715C42.2031 24.4951 39.1313 27.3417 39.1313 27.3417C39.1313 27.3417 33.0915 32.1356 27.8437 33.7188C23.6846 34.9735 17 35 17 35C17 35 23.561 34.4817 27 33.3125C33.0215 31.2653 38.3437 26.625 38.3437 26.625C37.3483 25.934 35.4364 25 32.5318 25C27.8437 25 24.95 27.2338 21.8552 30.1479C19.2676 32.5845 16.6562 35 12.625 35C9.84721 35 6.99994 34 6.99994 34C7.93744 35.6643 10.4376 38 16 38C18.8125 38 21 37 21 37C21 37 20.085 37.8934 19 38.4375C17.915 38.9816 16 39.25 16 39.25C16.5625 39.5938 18.3125 40 19.4843 40C22.625 40 24.3243 38.7519 27.5543 35.6643L24 40.625C30.0625 37.8324 31.671 36.9624 34.6571 33.1481C34.6897 33.1064 34.7224 33.0646 34.7553 33.0227L32.7499 37.1875C32.7499 37.1875 34.7553 37.8324 42.6875 28.3245Z" fill="#7AAC54"/>
<path fill-rule="evenodd" clip-rule="evenodd" d="M44 26.8906V23.5781C39.0625 26.8098 35.6331 31.0728 27.6562 33.7185C26.7569 34.0168 25.8305 34.1701 24.8281 34.375C24.8281 34.375 23.9692 36.3259 22.9607 37.4523C21.9522 38.5787 20 40 20 40C22.9788 39.8611 24.5469 38.4443 27.5544 35.7238L23.5938 41C28.7812 39.4171 31.9646 36.5995 34.6572 33.188L34.7554 33.0636L32.1094 38C32.1094 38 33.6663 37.8112 37.8125 33.9101C39.7718 32.0666 41.9062 29.199 44 26.8906ZM25 33.8594C25.8672 33.6641 26.7741 33.3896 27.2344 33.2344C33.2559 31.2037 38.3125 26.5938 38.3125 26.5938C37.3313 25.9182 36.0601 25 33.3125 25C28.875 25 25.1927 28.659 25 33.8594Z" fill="#1B6B35"/>
<defs>
<linearGradient id="paint0_linear_5085_143004" x1="18.1841" y1="44" x2="42.3539" y2="34.0384" gradientUnits="userSpaceOnUse">
<stop offset="0.495991" stop-color="#F1962A"/>
<stop offset="0.866328" stop-color="#F1682A"/>
</linearGradient>
<linearGradient id="paint1_linear_5085_143004" x1="12" y1="30.7483" x2="41.8032" y2="33.6654" gradientUnits="userSpaceOnUse">
<stop offset="0.115807" stop-color="#F2C125"/>
<stop offset="0.639498" stop-color="#F1872A"/>
</linearGradient>
</defs>
</svg>
