<!-- by TradingView --><svg width="56" height="56" viewBox="0 0 56 56" xmlns="http://www.w3.org/2000/svg"><path fill="#F0F3FA" d="M0 0h56v56H0z"/><ellipse cx="28" cy="28" rx="19" ry="15" fill="#D9241C"/><path d="M24.36 13.28c-.7 1.33-1.4 3.53-1.4 6.6.05 1.6.74 5.3 3.04 7.2 2.88 2.36 6.7 6.8 6.7 10.53 0 1.7-.96 3.63-2.05 5.25C39.89 41.84 47 35.57 47 28c0-8.28-8.5-15-19-15-1.25 0-2.46.1-3.64.28Z" fill="#163A86"/><path fill-rule="evenodd" d="M45 21H11v14h34V21Zm-1 1.03H12v12h32v-12Z" fill="#F0F3FA"/><path fill-rule="evenodd" d="M14 23h5.04a2.52 2.52 0 0 1 1.27 4.7 2.76 2.76 0 0 1-1.05 5.3H14V23Zm2 1.5h2.47c.6 0 1.09.56 1.09 1.25s-.5 1.25-1.1 1.25H16v-2.5Zm0 4.5h2.67c.74 0 1.33.56 1.33 1.25s-.6 1.25-1.33 1.25H16V29Zm11.95-6c3 0 3.57 1.96 3.5 2.94l-1.81.15c-.03-.48-.4-1.45-1.58-1.45-.57 0-1.7.22-1.7.97 0 .88 1.56 1.3 2.34 1.38 2.54.5 3.13 2.22 3.1 3.02-.07 1.02-.95 3.07-3.85 3.07-2.9 0-3.75-2.18-3.81-3.26l1.87-.22c.59 1.7 1.47 1.8 2.05 1.8.57 0 1.83-.08 1.83-1.3 0-.98-1.47-1.36-2.2-1.42-2.36-.65-3.07-2.1-3.13-2.74-.11-.98.4-2.94 3.4-2.94Zm11.5 0H35v10h2v-3.94h2.46c1.28 0 2.54-1.36 2.54-3.03 0-1.67-1.26-3.03-2.54-3.03Zm-.54 1.5H37v3h1.91c.51 0 1.09-.67 1.09-1.5s-.58-1.5-1.09-1.5Z" fill="#F0F3FA"/></svg>