<!-- by TradingView --><svg width="56" height="56" viewBox="0 0 56 56" xmlns="http://www.w3.org/2000/svg"><path fill="#F0F3FA" d="M0 0h56v56H0z"/><path d="M30.4 21.05c2.67 1 5.22 2.68 7.28 4.88a12.18 12.18 0 0 1 2.12 3.11.32.32 0 0 1-.06.22.26.26 0 0 1-.08.07.19.19 0 0 1-.05.02c-.2.04-.36-.05-.45-.25a10.76 10.76 0 0 0-6.14-5.86c-1.05-.4-1.77-.64-2.18-.72-.35-.08-.58-.3-.69-.69l-.11-.38c-.11-.4 0-.53.36-.4Zm10.18 4.06c.6 1.03 1.97 3.11 3.2 1.58a.12.12 0 0 1 .08-.04.1.1 0 0 1 .08.01l.04.03c.05.03.05.07.01.12-1.48 1.8-3.16-.1-4.03-1.43-.13-.2-.1-.33.1-.42l.05-.02c.2-.08.35-.03.47.17Zm10.68 4.52.6-.46c.2-.16.19-.3-.04-.42-3.6-1.97-7.32-1.3-10.77.8-.1.05-.13.14-.09.26l.02.05c.05.14.14.17.26.1 2.79-1.51 5.54-2.34 8.53-.78.35.18.63.34.84.48.22.15.44.14.65-.03Z" fill="red"/><path fill-rule="evenodd" d="m5.73 28.12-.3 1.81c0 .05-.03.07-.08.07H4.07c-.05 0-.08-.03-.07-.08l.81-4.87.02-.04.04-.01h2.06c.69 0 1.44.16 1.5.98.15 1.75-1.16 2.16-2.6 2.07-.06 0-.09.02-.1.07Zm.42-2.43a.04.04 0 0 1 .04-.03h.24c.15.03.28.16.37.28.1.13.13.28.1.43l-.08.46a.55.55 0 0 1-.09.2c-.12.2-.28.26-.6.26H5.9a.04.04 0 0 1-.02-.03v-.02l.28-1.55Zm8.58.34c-.25.04-.52.18-.82.42-.05.03-.07.02-.06-.04l.04-.22c.01-.07-.02-.1-.1-.1h-1.02c-.06 0-.09.03-.1.08L12 29.95v.02a.04.04 0 0 0 .04.02h1.16l.04-.01.02-.04.49-2.85a.32.32 0 0 1 .1-.19.37.37 0 0 1 .22-.08c.03 0 .06 0 .1.02.12.04.17.12.15.23l-.51 2.9c0 .02 0 .03.02.03h1.16c.04 0 .06-.02.06-.05a629.97 629.97 0 0 0 .5-2.85c.05-.25.1-.49.01-.72-.12-.32-.4-.44-.83-.35Zm13 .42.32-.2c.28-.2.58-.27.9-.22.25.04.4.2.46.48l.01.01.02.01h.03a2 2 0 0 1 .6-.4c.45-.2 1.07-.21 1.2.33.02.13.01.32-.03.59l-.5 2.9c0 .03-.02.05-.05.05h-1.14a.04.04 0 0 1-.03-.01.04.04 0 0 1 0-.03l.47-2.88c.03-.18-.06-.26-.26-.24h-.02c-.2.02-.31.13-.34.3l-.5 2.8c0 .04-.03.06-.07.06h-1.15c-.02 0-.03 0-.02-.03l.52-2.93a.17.17 0 0 0-.05-.14.2.2 0 0 0-.06-.05.21.21 0 0 0-.08-.02h-.06c-.18 0-.29.09-.32.26l-.5 2.84c-.01.04-.04.06-.08.06h-1.13c-.04 0-.05-.02-.05-.05l.67-3.76c.01-.06.05-.08.1-.08h1.03c.07 0 .1.03.1.1l-.04.21c-.01.06 0 .07.05.04ZM22.31 26c-.27.03-.54.15-.82.36-.05.04-.07.03-.06-.03l.05-.24c0-.06-.02-.08-.07-.08h-1.06c-.06 0-.09.03-.1.08l-.67 3.87a.03.03 0 0 0 0 .03.04.04 0 0 0 .04.01h1.17c.03 0 .05-.01.06-.04.1-.7.22-1.4.33-2.07.1-.63.29-1.05 1.02-1.04.02 0 .03 0 .05-.02a.08.08 0 0 0 .03-.04l.12-.7c.01-.07-.02-.1-.09-.09Zm-3.17 2.45a12.64 12.64 0 0 1 .1-.59c.1-.47.19-.94.04-1.26-.17-.35-.5-.54-1-.59-.81-.06-1.5.1-1.9.75-.15.23-.19.48-.23.8a13.85 13.85 0 0 1-.1.58c-.1.47-.19.94-.04 1.26.17.35.5.54 1 .59.81.06 1.5-.1 1.9-.75.15-.23.18-.48.23-.8Zm-1.26-1.78c.18.02.3.16.27.31l-.35 2.16c-.03.15-.18.26-.35.23h-.01c-.17-.02-.29-.16-.26-.31l.35-2.16c.02-.15.18-.26.35-.23Zm-7.83 2.9c-.34.32-.7.46-1.11.42-.77-.06-.67-.63-.58-1.18l.02-.18c.15-1 1.1-1.15 2.03-1.17.04 0 .07-.02.07-.05l.1-.51c0-.04 0-.08-.02-.12a.2.2 0 0 0-.1-.08c-.34-.16-.5.14-.54.4a.1.1 0 0 1-.04.07.13.13 0 0 1-.07.03h-.92c-.06 0-.1-.03-.08-.09.03-.28.15-.53.35-.73.47-.48 1.7-.44 2.23-.24.36.14.5.42.42.84-.3 1.58-.47 2.54-.52 2.89-.01.04-.04.06-.09.06h-1.05c-.05 0-.07-.02-.07-.06l.03-.26c0-.07-.01-.08-.06-.03Zm.3-1.27-.19.78a.3.3 0 0 1-.08.15.35.35 0 0 1-.17.09.53.53 0 0 1-.06.01c-.2.01-.3-.06-.27-.22l.1-.56c.03-.18.14-.3.32-.37l.13-.05c.19-.07.26-.01.22.17Zm13.53 1.28c.05-.05.07-.04.06.03l-.03.26c0 .04.02.06.07.06h1.05c.05 0 .08-.02.08-.06l.53-2.88c.08-.43-.06-.7-.41-.85-.53-.2-1.76-.24-2.23.24-.2.2-.32.45-.36.73 0 .06.02.08.08.08h.92c.03 0 .05 0 .08-.02a.1.1 0 0 0 .04-.07c.04-.26.2-.56.54-.4a.2.2 0 0 1 .1.08c.01.04.02.08.01.12l-.1.5c0 .05-.02.06-.07.06-.93.01-1.87.17-2.02 1.17l-.03.18c-.1.55-.19 1.11.58 1.18.4.04.77-.1 1.1-.41Zm.28-1.28c.04-.18-.03-.23-.21-.16l-.13.05c-.19.06-.3.19-.32.37l-.08.55c-.03.16.06.23.27.22l.06-.01a.34.34 0 0 0 .16-.1.3.3 0 0 0 .08-.14l.17-.78Zm9.12 1.3c0-.06-.01-.07-.06-.02-.34.31-.71.45-1.12.41-.76-.06-.67-.63-.58-1.17l.03-.19c.15-1 1.1-1.15 2.03-1.17.04 0 .07-.02.07-.05l.1-.51c0-.04 0-.08-.03-.12a.2.2 0 0 0-.09-.08c-.34-.16-.5.15-.54.4a.1.1 0 0 1-.04.07.13.13 0 0 1-.08.03h-.92c-.06 0-.09-.03-.08-.09.04-.28.16-.53.36-.73.47-.48 1.7-.44 2.23-.24.36.14.5.42.42.84l-.53 2.88c0 .05-.03.07-.08.07h-1.05c-.05 0-.07-.02-.07-.07l.03-.26Zm0-1.46c.18-.07.26-.02.22.16l-.18.78a.3.3 0 0 1-.08.15.34.34 0 0 1-.16.08.54.54 0 0 1-.06.02c-.2 0-.3-.06-.27-.22l.08-.56c.03-.18.14-.3.32-.37l.13-.04Z" fill="#FF7300"/></svg>