<!-- by TradingView --><svg width="56" height="56" viewBox="0 0 56 56" xmlns="http://www.w3.org/2000/svg"><path fill="#F0F3FA" d="M0 0h56v56H0z"/><path d="M18.03 20.43c.02 0 .04 0 .06-.02.65-.86 1.4-1.63 2.28-2.33a.11.11 0 0 0 .04-.07c0-.03 0-.06-.02-.08l-2.28-3.11a.08.08 0 0 1 .02-.11l2.71-1.92a.1.1 0 0 1 .07-.02.1.1 0 0 1 .06.04l2.43 3.32a.25.25 0 0 0 .3.1 12.81 12.81 0 0 1 2.54-.66.08.08 0 0 0 .02-.05v-3.43c0-.06.03-.09.09-.09h3.3c.07 0 .1.03.1.09v3.38a.1.1 0 0 0 .07.1l2.16.52a.22.22 0 0 0 .23-.09l2.31-3.19a.1.1 0 0 1 .06-.03.1.1 0 0 1 .07.01l2.7 1.89a.11.11 0 0 1 .04.07.11.11 0 0 1-.02.08l-2.1 2.9-.01.04a14.1 14.1 0 0 1 2.46 2.38c.02.03.05.05.08.05l.1-.01 2.66-1.51a.09.09 0 0 1 .06-.01.09.09 0 0 1 .05.04l1.67 2.83a.09.09 0 0 1 0 .07.1.1 0 0 1-.04.05l-2.7 1.54a.16.16 0 0 0-.08.2c.41 1.11.65 2.28.73 3.51 0 .03.01.06.04.08.02.03.05.04.08.04h3.58l.04.01.01.04v.86c0 .01 0 .03-.02.04a.07.07 0 0 1-.04.02H39.3a.03.03 0 0 1-.03-.02c.03-3.11-.96-5.75-2.98-7.93a11.35 11.35 0 0 0-16.74.17 10.9 10.9 0 0 0-2.8 7l-.04.7c-.01.06-.04.08-.09.08h-4.58c-.03 0-.05-.02-.05-.05v-.88c0-.03.01-.04.04-.04h3.6c.06 0 .1-.03.1-.08a11.46 11.46 0 0 1 .68-3.37c.02-.05 0-.09-.05-.11l-3.18-1.8a.09.09 0 0 1-.03-.12l1.65-2.82a.11.11 0 0 1 .07-.05.12.12 0 0 1 .09.01l3.06 1.74Z" fill="#091AB3"/><path d="M32.5 27.32c0 .03.02.06.05.09.02.02.06.04.1.04h2.93c.28 0 .42.12.42.38v.6c0 .26-.14.39-.42.39h-4.25c-.22 0-.33-.1-.33-.3v-9.34c0-.29.14-.37.43-.25l.64.27c.29.13.44.34.44.64v7.48ZM23.47 21.45v-.04a.07.07 0 0 0-.04-.02.08.08 0 0 0-.07 0c-.54.34-1.83 1.24-1.84 1.86l-.01 4.1c0 .06.03.09.1.09h1.59c.04 0 .07-.01.1-.04.14-.1.2-.28.17-.52l.01-.06a.1.1 0 0 1 .07-.04c.22-.05.5-.06.88-.03.72.06.56.86.55 1.42-.01.69-.5.64-1.13.64h-3.2c-.43 0-.65-.2-.65-.6v-5.23c0-.16.15-.41.43-.77 1.04-1.29 2.35-2.3 3.93-3.02.28-.13.59-.06.6.26.03.67.03 1.5 0 2.5a.3.3 0 0 1-.1.2.36.36 0 0 1-.24.1h-.8a.36.36 0 0 1-.25-.1.3.3 0 0 1-.1-.22v-.48ZM27.25 24.85c0-.16.07-.3.18-.42a.27.27 0 0 1 .2-.09h1.83a.5.5 0 0 0 .37-.17c.1-.11.16-.27.16-.43v-4.39c0-.3-.02-.55-.07-.77a.38.38 0 0 0-.09-.17.3.3 0 0 0-.16-.09 7.1 7.1 0 0 0-3.17.02c-.4.09-.5.4-.5.82v9.36c0 .2.09.3.26.3h.7c.18 0 .27-.1.27-.3 0-2.13 0-3.36.02-3.67Zm.23-5.39h1.08c.13 0 .25.13.25.3v2.94c0 .16-.12.28-.26.28h-1.07c-.14 0-.25-.13-.25-.29v-2.94c0-.16.11-.29.25-.29Z" fill="#DA1818"/><path d="M28.05 43.99c-1.33 0-2.56.08-3.75-.21A16.32 16.32 0 0 1 12 30.88a.27.27 0 0 1 .04-.2c.04-.06.1-.1.17-.12l1.41-.3a.26.26 0 0 1 .32.2 14.32 14.32 0 0 0 14.1 11.74A14.32 14.32 0 0 0 42.1 30.27a.27.27 0 0 1 .28-.12l1.4.3c.08 0 .14.05.17.1.04.07.06.14.05.2a16.33 16.33 0 0 1-12.2 13c-1.2.3-2.43.23-3.75.24Z" fill="#091AB3"/><path fill-rule="evenodd" d="M24.47 32.3c.16-.07.25-.19.29-.37.02-.1.07-.13.15-.11l.42.11c.1.03.13.1.1.2-.14.75-.73.92-1.32.86-.69-.07-1.1-.62-1.1-1.41-.03-1.12.46-1.64 1.47-1.57.48.03.8.29.95.78.02.06 0 .1-.06.12l-.51.12h-.05a.1.1 0 0 1-.04-.04 2.4 2.4 0 0 0-.17-.2c-.08-.1-.15-.14-.2-.15-.6-.04-.67.65-.58 1.18.06.44.28.6.65.47Zm1.97-2.27h-.63c-.05 0-.08.04-.08.1v2.73c0 .05.03.1.08.1h.63c.04 0 .08-.05.08-.1v-2.74c0-.05-.04-.09-.08-.09Zm5.03 0a67.94 67.94 0 0 0-2.22 0c-.06 0-.1.04-.1.11v.49l.03.09a.1.1 0 0 0 .08.03h.63c.05 0 .08.04.08.1v2c0 .05.02.08.06.09l.33.01.32-.01c.04-.01.07-.04.07-.1v-1.98c0-.07.02-.1.08-.1h.63a.1.1 0 0 0 .07-.04.13.13 0 0 0 .04-.08v-.5c0-.06-.04-.1-.1-.1Zm-3.77 2.8v-.78c0-.19.08-.26.24-.24.67.12 1.05-.12 1.13-.71.12-.86-.37-1.08-1.02-1.07a180.68 180.68 0 0 1-1.12.03.07.07 0 0 0-.02.04v2.71c0 .1.05.15.13.15h.56c.07 0 .1-.04.1-.12Zm.03-2.2a.1.1 0 0 0-.02.06v.5c0 .02 0 .04.02.06l.06.03h.14l.15-.03c.05-.01.1-.04.13-.07a.32.32 0 0 0 .09-.1.26.26 0 0 0 .03-.12v-.05a.29.29 0 0 0-.12-.22.45.45 0 0 0-.28-.1h-.14a.08.08 0 0 0-.06.04Zm4.9-.6H33c.06.01.1.04.12.1l.88 2.7c.03.08 0 .12-.08.12h-.57c-.08 0-.13-.04-.15-.12l-.08-.28c0-.02-.02-.03-.04-.05a.28.28 0 0 0-.09-.04 3.83 3.83 0 0 0-.78.04.1.1 0 0 0-.04.05l-.08.29c-.02.07-.07.11-.14.11h-.58c-.08 0-.1-.04-.08-.12l.88-2.69c.02-.06.06-.1.12-.1l.35-.01Zm-.27 1.75.22-.85.02-.03h.06l.02.03.22.86v.05l-.03.01-.02.01h-.46l-.02-.03a.06.06 0 0 1-.01-.05ZM15.7 32.39l.45-.15c.06-.02.1 0 .11.06v.01c.15.43.28.8.73.69.7-.17.44-.83.23-1.37l-.07-.2c-.02-.04-.05-.06-.1-.04l-1.54.49a.08.08 0 0 0-.04.04v.05l.1.36c.02.06.06.08.12.06Zm1.22-.39h-.03l-.25.1a.08.08 0 0 0-.05.1l.02.06a.4.4 0 0 0 .12.18c.05.04.1.05.16.04l.04-.02c.05-.01.08-.06.1-.12a.4.4 0 0 0-.02-.22l-.02-.06a.08.08 0 0 0-.07-.06Zm22.73.3c-.06.02-.09 0-.1-.06-.1-.45-.69-.66-.91-.2a9.76 9.76 0 0 0-.39 1.13.1.1 0 0 0 .05.04l1.5.54c.06.03.1 0 .12-.05l.12-.34c.02-.06 0-.1-.06-.12l-.38-.14c-.28-.1-.28-.2.01-.27.17-.05.35-.08.55-.1.07 0 .12-.04.14-.1l.14-.4c.02-.06 0-.08-.06-.08-.26.01-.5.06-.73.14Zm-.89.49h.02l.26.09a.06.06 0 0 0 .05 0l.01-.02.01-.02.05-.14a.51.51 0 0 0 .02-.1l-.01-.11a.2.2 0 0 0-.03-.08.1.1 0 0 0-.06-.04l-.05-.02a.1.1 0 0 0-.07 0 .2.2 0 0 0-.07.05.37.37 0 0 0-.06.08.51.51 0 0 0-.05.11l-.04.14a.06.06 0 0 0 .02.06Zm-21.08 2.27.2-.12a.06.06 0 0 0 .03-.06v-.02l-.4-.7a.06.06 0 0 1 0-.07.06.06 0 0 1 .05-.03h.2a.06.06 0 0 1 .05.03l.4.7a.06.06 0 0 0 .04.04.06.06 0 0 0 .05-.02l.2-.17a.06.06 0 0 0 .01-.08l-.67-1.17-.02-.02a.06.06 0 0 0-.07 0l-1.43.83a.06.06 0 0 0-.03.06v.02l.7 1.2a.06.06 0 0 0 .08.03l.23-.13a.06.06 0 0 0 .03-.09l-.42-.73a.06.06 0 0 1 0-.07l.02-.02.2-.12a.06.06 0 0 1 .05 0 .06.06 0 0 1 .04.02l.38.67a.06.06 0 0 0 .08.02Zm20.99.36.1-.19.13-.18a.13.13 0 0 1 .13-.04c.23.03.38-.1.46-.39.02-.06 0-.1-.07-.1l-1.65-.3c-.05 0-.09.01-.12.04-.05.04-.1.1-.14.17a.72.72 0 0 0-.1.2c0 .05 0 .1.03.13l.98 1.38c.04.05.08.05.12.01.23-.2.28-.4.14-.59a.14.14 0 0 1-.01-.14Zm-.27-.3a.41.41 0 0 0 .05-.08.41.41 0 0 0 .04-.08c.02-.05 0-.09-.04-.1-.31-.14-.48-.18-.5-.15-.02.04.09.17.33.4.04.04.08.04.12 0Zm-1.11 1.91c-.19.34-.46.26-.7.05-.24-.21-.36-.48-.06-.7a.18.18 0 0 1 .14-.05c.22.04.35-.06.4-.3 0-.03 0-.06-.02-.08a.19.19 0 0 0-.07-.07.3.3 0 0 0-.12-.04h-.13c-.79.2-1.17 1.04-.49 1.64.68.6 1.46.1 1.53-.72a.4.4 0 0 0 0-.13.31.31 0 0 0-.06-.1.19.19 0 0 0-.08-.07.13.13 0 0 0-.09 0c-.22.07-.3.21-.24.43.02.05.01.1-.01.14Zm-18.59.56c.12-.23.2-.47.24-.72.01-.06.05-.08.1-.06.43.15.91-.28.62-.7-.13-.2-.37-.49-.71-.87a.1.1 0 0 0-.06-.03.1.1 0 0 0-.07.02l-1.21 1.05c-.05.04-.05.08-.01.13l.23.28c.04.05.09.05.14 0l.3-.26c.23-.2.3-.15.23.15-.04.17-.1.35-.19.52a.15.15 0 0 0 .02.18l.28.32c.03.05.07.04.1 0Zm.1-1.63.03-.03a.16.16 0 0 1 .23 0l.13.15c.07.06.06.16 0 .23l-.03.03a.16.16 0 0 1-.23 0l-.13-.15a.16.16 0 0 1 0-.23Zm15.96 1.67.43.6v.05l-.02.02h-.03c-.27-.1-.5-.2-.68-.29-.27-.13-.5-.08-.7.16-.03.04-.03.08 0 .12l.91 1.3c.05.05.1.06.16.02l.22-.16c.07-.05.08-.1.03-.17l-.4-.56c-.1-.13-.06-.16.08-.1l.85.34c.06.03.11.02.16-.01l.28-.21c.05-.04.06-.08.03-.13l-.92-1.3c-.05-.06-.1-.07-.17-.02l-.2.14c-.07.05-.09.12-.03.2Zm-14.37-.75a.14.14 0 0 0-.1.06l-.92 1.2a.15.15 0 0 0 .02.2l.56.44a.8.8 0 0 0 .58.17.78.78 0 0 0 .53-.3l.14-.18a.8.8 0 0 0 .15-.59.81.81 0 0 0-.3-.53l-.56-.44a.14.14 0 0 0-.1-.03Zm.14.66a.1.1 0 0 0-.03.03l-.48.62a.1.1 0 0 0-.02.08.1.1 0 0 0 .04.07l.06.05c.08.06.18.08.28.07.1-.02.19-.07.25-.15l.13-.17a.4.4 0 0 0 .08-.29.38.38 0 0 0-.13-.25l-.07-.05a.1.1 0 0 0-.07-.02.1.1 0 0 0-.04.01Zm2.26.92c.07.04.13.08.18.13.03.03.05.07.04.12l-.13 1.69c0 .06-.04.09-.1.08-.3-.05-.44-.2-.42-.44 0-.05-.02-.1-.06-.12a1.94 1.94 0 0 0-.38-.2.13.13 0 0 0-.14.03c-.18.15-.38.12-.6-.09-.04-.04-.04-.08 0-.13l1.28-1.1a.14.14 0 0 1 .12-.04.7.7 0 0 1 .2.07Zm-.26.52c.03.02.02.17-.05.46-.01.06-.04.08-.1.07a.31.31 0 0 1-.19-.09c-.03-.04-.04-.08 0-.12.19-.23.3-.34.34-.32Zm2.4 1.28.03.02a.04.04 0 0 0 .06-.03l.19-.72c.02-.09.07-.12.16-.1l.24.06c.08.02.1.08.09.16l-.4 1.53c-.01.06-.05.08-.11.07l-.34-.09a.16.16 0 0 1-.11-.11l-.28-.88c-.05-.15-.1-.15-.13 0l-.17.67c-.02.08-.07.1-.15.08l-.26-.06c-.07-.02-.1-.07-.08-.14l.4-1.53c0-.06.04-.08.1-.08.3 0 .48.15.55.44.05.2.12.44.22.7Zm7.48-1.45a.68.68 0 0 1 .21-.06c.05 0 .09.01.12.04L33.9 40c.05.04.05.08 0 .12-.23.2-.43.2-.6.04a.13.13 0 0 0-.13-.03 1.64 1.64 0 0 0-.39.16.14.14 0 0 0-.07.13c0 .23-.15.36-.45.4-.06 0-.09-.03-.09-.1v-1.68c0-.04.01-.08.04-.1a.71.71 0 0 1 .2-.12Zm.2.97-.05-.44c-.01-.1.01-.1.07-.03l.32.37a.09.09 0 0 1 .02.07.09.09 0 0 1-.04.06.79.79 0 0 1-.28.1c-.04 0-.06-.04-.04-.13Zm-1.15.91.06.28a.07.07 0 0 1-.01.06.07.07 0 0 1-.05.03l-1.24.26a.07.07 0 0 1-.07-.02l-.01-.03-.34-1.61a.07.07 0 0 1 .05-.09l.39-.08a.07.07 0 0 1 .05.01.07.07 0 0 1 .03.05l.26 1.19a.07.07 0 0 0 .08.05l.72-.15a.07.07 0 0 1 .07.03l.01.02Zm-4.3-1c.08 0 .15.01.21.04.04.02.07.05.08.09l.53 1.6c.02.06 0 .1-.06.12-.3.06-.48-.01-.56-.24a.14.14 0 0 0-.1-.1l-.21-.02h-.22c-.05 0-.09.03-.11.07-.1.21-.3.26-.58.15-.06-.02-.07-.06-.04-.11l.74-1.52a.14.14 0 0 1 .1-.07.72.72 0 0 1 .22-.02Zm-.27 1 .16-.4c.05-.11.09-.11.12.01s.05.27.06.43c0 .06-.02.09-.08.09h-.18c-.09 0-.11-.04-.08-.12Z" fill="#DA1818"/></svg>