<!-- by TradingView --><svg width="56" height="56" viewBox="0 0 56 56" xmlns="http://www.w3.org/2000/svg"><path fill="#F0F3FA" d="M0 0h56v56H0z"/><path d="m39.56 16.44-.75-.3A28.33 28.33 0 0 0 27.98 14c-3.68 0-7.33.7-10.8 2.13l-.74.31-.3.75A28.23 28.23 0 0 0 14 28c0 3.68.7 7.35 2.13 10.81l.31.75.75.3a28.25 28.25 0 0 0 21.62.01l.75-.31.3-.75A28.23 28.23 0 0 0 42.01 28c0-3.68-.7-7.35-2.13-10.81l-.31-.75Zm2.28 25.4-1.89.78a31.23 31.23 0 0 1-23.9 0l-1.9-.78-.77-1.89a31.23 31.23 0 0 1 0-23.9l.78-1.9 1.89-.77a31.23 31.23 0 0 1 23.9 0l1.9.78.77 1.89a31.23 31.23 0 0 1 0 23.9l-.78 1.9Z" fill="#EF202C"/><path d="M24.45 21a18.65 18.65 0 0 0-.78 6 28.6 28.6 0 0 0 2.35 10.5c.96.5 1.7-.07 2.73.16l-1.41 2.18a18.82 18.82 0 0 1-3.7-1.5A30.96 30.96 0 0 1 21 27c-.03-1.89.15-3.47.58-5.25l2.87-.75Z" fill="#EF202C"/><path d="m35.84 20.18-.36-.14a19.54 19.54 0 0 0-14.94 0l-.35.14-.15.36c-2.18 5.27-1.48 13.43 2.01 18.64-.84-.23-1.67-.52-2.48-.86l-1.34-.55-.55-1.33a22.03 22.03 0 0 1 0-16.88l.55-1.33 1.34-.55a22.1 22.1 0 0 1 16.89 0l1.33.55.56 1.33A22.43 22.43 0 0 1 40 27h-2.56c-.12-2.18-.6-4.4-1.46-6.46l-.14-.36Z" fill="#EF202C"/><path d="M24.69 39.75c3.95.6 8.02.12 11.77-1.43l1.33-.55.56-1.33c.95-2.3 1.5-5 1.64-7.44h-2.56c-.14 2.1-.62 4.47-1.45 6.46l-.14.36-.36.14a19.54 19.54 0 0 1-12.45.84c.51 1.64 1.17 2.53 1.66 2.95Z" fill="#EF202C"/><path fill="#EF202C" d="M23 29h16v3H23zM26 24h13v3H26z"/></svg>