<!-- by TradingView --><svg width="56" height="56" viewBox="0 0 56 56" xmlns="http://www.w3.org/2000/svg"><path fill="#F0F3FA" d="M0 0h56v56H0z"/><path d="m9.07 36.81 3.34-.53c3.14-.5 6.21-1.17 9.21-2.03 5.5-1.57 9.99-3.8 13.45-6.69 1.6-1.34 2.58-2.68 2.91-4 .3-1.13-.08-2.07-1.12-2.81-.8-.58-1.8-.94-3.02-1.1-2.26-.31-5.17-.34-8.72-.07-.03 0-.06-.02-.06-.05-.01-.05 0-.07.05-.08 3.9-.92 7.4-1.4 10.45-1.45 4.84-.07 7.89 1 9.13 3.24.3.55.39 1.21.23 1.98-.13.67-.4 1.3-.82 1.9-.98 1.39-2.7 2.78-5.19 4.16a49.96 49.96 0 0 1-8.5 3.78 73.58 73.58 0 0 1-13.65 3.2c-1.8.25-4.37.5-7.68.74-.04 0-.07-.02-.07-.06v-.03c-.01-.06 0-.09.06-.1Z" fill="#C08332"/><path d="M8.15 34.94a171.55 171.55 0 0 0 8.16-1.82c2.5-.64 4.72-1.38 6.65-2.2 1.6-.67 3.06-1.5 4.36-2.5 1.73-1.3 2.73-2.59 3.02-3.85.22-.94-.05-1.67-.8-2.17a8.74 8.74 0 0 0-3.85-1.25c-.94-.12-2.34-.16-4.2-.14h-.04c-.05 0-.08-.03-.08-.07 0-.05.01-.08.06-.08 3.1-.59 6.2-.72 9.28-.4a8.2 8.2 0 0 1 3.43 1.09c1.3.78 1.77 1.78 1.41 2.98-.4 1.34-1.46 2.56-3.22 3.65a38.23 38.23 0 0 1-12.74 5.06c-3.21.65-7.03 1.27-11.44 1.86-.04 0-.06-.01-.07-.05-.01-.06.01-.1.07-.11Z" fill="#A7A8AC"/><path d="M8.08 33.04c-.05.01-.07-.01-.08-.06 0-.03 0-.04.03-.04 2.36-.5 4.6-1.03 6.72-1.6 2.56-.69 4.8-1.66 6.73-2.92 1-.65 1.8-1.42 2.36-2.32 1.01-1.58.46-2.65-1.65-3.22a14.49 14.49 0 0 0-4.61-.37c-.06 0-.1-.02-.1-.08v-.03c0-.06.02-.1.08-.1 2.34-.37 4.16-.53 5.47-.48 2.27.08 3.87.67 4.8 1.78.08.1.14.2.17.33.4 1.42-.48 2.78-2.66 4.08a28.57 28.57 0 0 1-8.03 3.32c-3.22.76-6.3 1.33-9.23 1.71Z" fill="#00A550"/></svg>