<!-- by TradingView --><svg width="56" height="56" viewBox="0 0 56 56" xmlns="http://www.w3.org/2000/svg"><path fill="#F0F3FA" d="M0 0h56v56H0z"/><path d="M29.65 21.15c.6-.78.52-1.92-.2-2.61a1.93 1.93 0 0 0-2.73.05l-4 4.12A8.99 8.99 0 0 0 28 39a9 9 0 0 0 9-9c0-1.74-.65-3.4-1.5-4.78l3.5-3.27-3.05-2.74-5.18 4.94c-.5.5-.34 1.34.19 1.8A5.89 5.89 0 0 1 33 30a5 5 0 0 1-10 0c0-1.32.54-2.5 1.38-3.4l5.27-5.45Z" fill="url(#a)"/><path d="M18.22 37.2A12.1 12.1 0 0 1 16 29.9a12.1 12.1 0 0 1 4.95-9.97c2.04-2.07 4.22-4.4 6.06-6.38.63-.7.99-1.6.99-2.54V7L17.52 17.75A16.09 16.09 0 0 0 12 29.91c0 4.46 1.8 8.49 4.71 11.4l1.51-4.12Z" fill="url(#b)"/><path d="M32.65 41.09A11.92 11.92 0 0 0 40 29.9c0-4.08-1.82-7.69-4.87-9.91l1.48-1.5c.72-.71 1.87-.79 2.6-.08A16.08 16.08 0 0 1 44 29.92c0 3.34-1.02 6.45-2.76 9.03-.34.32-.65.58-.93.75-1.58.97-5.32 1.26-7.66 1.39Z" fill="url(#c)"/><path d="M43.9 31.65A16.04 16.04 0 0 1 28 46a15.95 15.95 0 0 1-12.99-6.7 22.25 22.25 0 0 1 1.85-13.9C16.3 26.78 16 28.3 16 29.9 16 36.67 21.28 42 28 42c2.22 0 4.3-.6 6.1-1.64a21.1 21.1 0 0 0 9.8-8.7Z" fill="url(#d)"/><defs><linearGradient id="a" x1="39" y1="28.5" x2="19.08" y2="28.5" gradientUnits="userSpaceOnUse"><stop stop-color="#DF1B2A"/><stop offset="1" stop-color="#F01B29"/></linearGradient><linearGradient id="b" x1="28.22" y1="7.74" x2="7.96" y2="32.54" gradientUnits="userSpaceOnUse"><stop stop-color="#314F9C"/><stop offset="1" stop-color="#009AD4"/></linearGradient><linearGradient id="c" x1="35.08" y1="19.68" x2="42.44" y2="33.96" gradientUnits="userSpaceOnUse"><stop stop-color="#0083C3"/><stop offset="1" stop-color="#1E4490"/></linearGradient><linearGradient id="d" x1="43.91" y1="35.7" x2="14.57" y2="35.7" gradientUnits="userSpaceOnUse"><stop stop-color="#009FD8"/><stop offset="1" stop-color="#213D8A"/></linearGradient></defs></svg>