<!-- by TradingView --><svg width="56" height="56" viewBox="0 0 56 56" xmlns="http://www.w3.org/2000/svg"><path fill="#F0F3FA" d="M0 0h56v56H0z"/><path fill-rule="evenodd" d="m43.35 22.54-1.92-1.26c-.1-.06-.1-.12-.02-.2l.98-.92c2.33-2.19 3.23-3.03 4.97-6.37.23-.42.55-1.24.59-1.64-.01-.09-.1-.15-.19-.15-.1 0-.2.1-.28.26-1.93 3.94-3.96 5.9-8.23 9.27-3.32 2.63-6.64 4.83-10.56 6.38l-1.45.58c-1.57.64-3 1.22-4.56 1.65a71.14 71.14 0 0 1-9.42 1.8c-.66.1-1.37.14-2.11.12-.27 0-.46-.09-.56-.25-.57-.86.3-1.4 1.09-1.5 4.84-.58 8.86-1.3 12.06-2.15a44.54 44.54 0 0 0 15.25-7.64.17.17 0 0 0 .06-.18.74.74 0 0 1 .2-.74c2.04-2.46 2.71-3.53 4.22-5.94l.26-.42a.11.11 0 0 0 .02-.08c-.01-.09-.14-.16-.25-.16a.15.15 0 0 0-.12.06c-3.7 5-7.61 8.8-13.36 11.6a46.22 46.22 0 0 1-9.26 3.18c-.47.11-.74-.07-.8-.55l-.01-.03c-.03-.48.2-.8.67-.93 2.17-.62 4.05-1.19 5.64-1.7a32.2 32.2 0 0 0 10-5.27c0-.02.01-.05 0-.07a.13.13 0 0 0-.03-.07.15.15 0 0 0-.07-.03l-.58-.16c-.12-.03-.14-.09-.06-.18l2.41-2.82c.09-.1.07-.18-.04-.25-.05-.03-.09-.04-.12-.03a1.2 1.2 0 0 0-.41.2 33.56 33.56 0 0 1-12.95 8.29c-3.1 1.1-6.19 1.36-9.62 1.65l-.23.02c-.6.05-1.67-.13-1.64-.82.03-.73.46-1.13 1.27-1.2l3.56-.32a31.8 31.8 0 0 0 10.38-2.69l4.63-2.18c.22-.1.2-.17-.03-.2a36.3 36.3 0 0 0-10.19-.1c-3.56.48-6.73 1.52-9.5 3.1-3.2 1.85-5.8 4.94-4.84 8.62.52 1.99 2.3 3.84 4.1 5 4.64 3 10.1 3.88 15.62 3.88 3.58 0 7.1-.62 10.57-1.85 4.67-1.67 10.41-6 7.6-11.4-.15-.3-.38-.61-.6-.93-.17-.23-.33-.46-.46-.68a.3.3 0 0 1 .02-.33l.62-.97c1.36-2.06 2.11-3.22 3.32-5.62v-.04c0-.09-.15-.18-.26-.18-.03 0-.07.01-.09.04a79.49 79.49 0 0 1-3 4.32c-4.03 5.55-8.14 9-14.3 12.37h-.01c-.81.45-2.6 1.42-3 .01a.6.6 0 0 1 0-.33c.03-.11.1-.21.18-.29.25-.22.53-.4.85-.54 5.4-2.35 9.9-5.67 14.04-9.57a.3.3 0 0 0 .09-.24.3.3 0 0 0-.04-.13.32.32 0 0 0-.1-.1Zm-6.34 2.5c-.38.1-.8.3-1.24.59-5.13 3.35-10.78 5.31-17.15 6.47-.77.14-1.54.83-.98 1.53.73.9 3.5-.04 5-.54l.42-.14a48.01 48.01 0 0 0 13.46-6.85c.36-.26.61-.5.76-.73.22-.33.13-.44-.27-.33Z" fill="#4F3976"/></svg>