<!-- by TradingView --><svg width="56" height="56" viewBox="0 0 56 56" xmlns="http://www.w3.org/2000/svg"><path fill="#F0F3FA" d="M0 0h56v56H0z"/><circle cx="42.5" cy="28.5" r="3.5" fill="#DE6540"/><circle cx="44" cy="27" r="1" fill="#E7AE61"/><circle cx="45" cy="23" r="2" fill="#DE6540"/><circle cx="45.5" cy="22.5" r=".5" fill="#E7AE61"/><circle cx="41.5" cy="19.5" r="1.5" fill="#DE6540"/><ellipse cx="41.9" cy="18.92" rx=".45" ry=".47" fill="#E7AE61"/><path d="M48.53 32c-1.5-.05-2.41-.81-2.53-2.28l1.54-.25c.01.98.7 1.36 1.6 1.3.46-.03 1.54-.33 1.16-1.03-.05-.11-.15-.19-.3-.23-.94-.3-1.67-.57-2.36-.87A1.58 1.58 0 0 1 46.7 27c.14-1.24 1.35-1.93 2.5-2 1.52-.09 2.86.5 2.8 2.16l-1.54.18c.06-.77-.54-1.18-1.23-1.11-.42.03-.93.18-1.03.64-.05.24.04.42.27.54.3.15.6.28.95.4 1.03.33 2.56.61 2.47 2.02-.1 1.68-1.96 2.2-3.36 2.16ZM39.22 26.87c-.25-.3-.7-.53-1.08-.41-.71.22-.98 1.1-1.07 1.76l-.5 3.78H35l.93-7h1.56l-.08.7c.38-.43.78-.65 1.17-.68.53-.08 1.04.14 1.42.5l-.78 1.35ZM31.02 31.66a2.5 2.5 0 0 1-2.07-.72L28.52 34H27l1.25-9h1.52l-.07.72c.6-.5 1.31-.73 1.98-.72 1.72.04 2.45 1.58 2.3 3.12-.16 1.64-1.17 3.34-2.96 3.54Zm.26-5.35c-1.08-.07-1.7.92-1.93 1.83-.2.97.05 2.25 1.34 2.18 1.28-.07 1.86-1.44 1.83-2.57-.01-.74-.45-1.39-1.24-1.44ZM24.2 31.99c-.04-.2-.08-.57-.1-.76a3.2 3.2 0 0 1-2.4.76c-.9-.07-1.7-.61-1.7-1.6 0-1.11.86-2.07 1.94-2.26.84-.15 1.66-.3 2.48-.57l.05-.37c.1-.7-.6-1-1.19-.91-.63.08-1.1.56-1.23 1.18l-1.51-.13a3.24 3.24 0 0 1 3.2-2.33c1.24 0 2.42.75 2.24 2.12l-.35 2.58a6.3 6.3 0 0 0 .13 2.29H24.2Zm.06-3.2c-.58.17-1.21.3-1.8.4-.5.07-1.02.4-1.02.95-.01.31.2.6.6.66.23.03.47.02.72-.03.67-.15 1.32-.63 1.41-1.35l.09-.64ZM16.6 32l.7-4.56c.11-.78-.56-1.12-1.25-1.01-.83.13-1.68.82-1.81 1.7l-.6 3.87H12l1.34-9h1.64l-.42 3c.68-.67 1.57-1 2.39-1 1.19 0 2.23.79 2.04 2.11L18.24 32H16.6ZM8.94 28.39h-2.9L5.57 32H4l1.22-9H9.7c1.5 0 2.45 1.2 2.3 2.65a3 3 0 0 1-3.05 2.74Zm1.41-2.75a1.1 1.1 0 0 0-1.13-1.25H6.6L6.23 27h2.6c.84 0 1.47-.56 1.52-1.36Z" fill="#103B79"/></svg>