<!-- by TradingView --><svg width="56" height="56" viewBox="0 0 56 56" xmlns="http://www.w3.org/2000/svg"><path fill="#F0F3FA" d="M0 0h56v56H0z"/><path d="M44.05 15c.63 0 1.1.6.91 1.2l-2.62 7.82A1.4 1.4 0 0 1 41 25h-8.41l-2.17 8.02a1.4 1.4 0 0 1-1.33.98H20l3.16-10h9.45l2.29-8.02a1.4 1.4 0 0 1 1.34-.98h7.8Z" fill="#40BDDD"/><path d="M13.05 26.21c-.2-.6.27-1.21.93-1.21h9.05l5.92 17.79c.2.6-.27 1.21-.93 1.21h-7.34a2.33 2.33 0 0 1-2.23-1.55l-5.4-16.24ZM19.04 16.15c-.18-.58.29-1.15.94-1.15h7.41c1 0 1.9.6 2.18 1.48l2.39 7.37c.19.58-.29 1.15-.94 1.15h-9.1l-2.88-8.85Z" fill="#2879D5"/></svg>