<!-- by TradingView --><svg width="56" height="56" viewBox="0 0 56 56" xmlns="http://www.w3.org/2000/svg"><path fill="#F0F3FA" d="M0 0h56v56H0z"/><path d="M33 38c8.87-1.2 15-5.58 15-10.82C48 21 38.89 16 27.65 16 18.09 16 10.19 19.12 8 24c2.69-3.94 9.74-6 18.14-6C36.85 18 45 22.15 45 28.01c0 4.63-4.6 8.53-12 9.99Z" fill="#B23E31"/><path d="M13 23h11.34c.7 0 1.91.3 3.02.75-.6.35-1.52 1.1-2.16 2.25H17v4h12c0 1.66-4.1 3-5.7 3H17v3h-4V23Z" fill="#B23E31"/><path d="M25.02 29a6.5 6.5 0 0 1 6.48-6H41v13h-9.5a6.5 6.5 0 0 1-5.52-3.07 6 6 0 0 0 3.26-2.15A3.5 3.5 0 0 0 32.5 33H37v-2h-4v-3h8v-2h-8.5a3.5 3.5 0 0 0-3.46 3h-4.02Z" fill="#B23E31"/></svg>