<!-- by TradingView --><svg width="56" height="56" viewBox="0 0 56 56" xmlns="http://www.w3.org/2000/svg"><path fill="#F0F3FA" d="M0 0h56v56H0z"/><path fill-rule="evenodd" d="M20.5 29V17.21c.65-.37 2.39-1.22 5.5-1.61v5.18c-.89.13-2.44.4-4 1.47V27c-.24.28-1.1 1.43-1.5 2Zm1.5-8.25v-2.81l.1-.07c.32-.23.71-.5 2.4-.7v2.56c-.7.15-1.46.4-2.5 1.02Z" fill="#DE4B5A"/><path d="M35.5 17.06c-1.57-.9-4.23-1.38-5.5-1.5v9.24c1.33.31 4.19 1.68 5.5 4.2v-4.91l-1.5-1.1v2.41c-.48-.37-1.34-1.24-2.59-1.69v-6.46c1.28.15 2.12.71 2.59.98v1.76c.18.1 1.17.5 1.5.68v-3.6Z" fill="#DE4B5A"/><path fill-rule="evenodd" d="M28 39a6 6 0 1 0 0-12 6 6 0 0 0 0 12Zm0-1.38a4.62 4.62 0 1 0 0-9.24 4.62 4.62 0 0 0 0 9.24Z" fill="#F0414E"/><path d="M22.7 39a8 8 0 1 1 10.58 0h-2.86a6.47 6.47 0 1 0-4.84 0h-2.87Z" fill="#EF8B3F"/><path d="M18 33c0-2.25.74-4.33 2-6v3.05A8.5 8.5 0 0 0 21.95 39H20a9.96 9.96 0 0 1-2-6Zm18 6a9.96 9.96 0 0 0 0-12v3.05A8.5 8.5 0 0 1 34.05 39H36Z" fill="#F0E735"/><path d="M16 33c0-3.55 1.55-6.75 4-8.94v2A10.55 10.55 0 0 0 19.27 39h-1.66A11.94 11.94 0 0 1 16 33Zm22.4 6A11.97 11.97 0 0 0 36 24.06v2A10.55 10.55 0 0 1 36.73 39h1.66Z" fill="#6A9F4F"/><path d="M14 33c0-4.76 2.37-8.96 6-11.5v1.87A12.7 12.7 0 0 0 16.63 39h-1.28A13.95 13.95 0 0 1 14 33Zm26.65 6A13.98 13.98 0 0 0 36 21.5v1.87A12.7 12.7 0 0 1 39.37 39h1.28Z" fill="#2683CA"/><path d="M12 33a16 16 0 0 1 8-13.86v1.71A14.53 14.53 0 0 0 14.75 39h-1.59A15.96 15.96 0 0 1 12 33Zm30.84 6A16 16 0 0 0 36 19.14v1.71A14.53 14.53 0 0 1 41.25 39h1.59Z" fill="#7E607E"/><path d="M10 33a18 18 0 0 1 10-16.13v1.62A16.56 16.56 0 0 0 12.55 39h-1.53A17.97 17.97 0 0 1 10 33Zm34.98 6A18 18 0 0 0 36 16.87v1.62A16.56 16.56 0 0 1 43.45 39h1.53Z" fill="#EE9BBB"/><path d="M28 13.6c2.85 0 5.56.6 8 1.67v1.33a18.62 18.62 0 0 0-8-1.8c-2.87 0-5.58.65-8 1.8v-1.32a19.86 19.86 0 0 1 8-1.67Z" fill="#2683CA"/><path d="M28 11.8c2.83 0 5.53.54 8 1.52v1.22a20.56 20.56 0 0 0-16 0v-1.22a21.73 21.73 0 0 1 8-1.52Z" fill="#7E607E"/><path d="M28 10c2.81 0 5.5.49 8 1.39v1.3a22.34 22.34 0 0 0-16 0v-1.3c2.5-.9 5.19-1.39 8-1.39Z" fill="#EE9BBB"/><path fill="#DE4B5A" d="M27 15.48h1.37v9.24H27z"/></svg>