<!-- by TradingView --><svg width="56" height="56" viewBox="0 0 56 56" xmlns="http://www.w3.org/2000/svg"><path fill="#F0F3FA" d="M0 0h56v56H0z"/><path d="M18.12 29.11 7 32.6l11.12-2.16v-1.33Z" fill="#00B8EC"/><path d="M25 23h3l2.5 4.78L33 23h3v9h-3v-4.5l-2.5 4.44-2.5-4.47V32h-3v-9Z" fill="url(#a)"/><path d="M35.72 33.03h4.46C37.12 35.13 29.2 38 20.03 38c-7.34 0-10.84-2.64-11.67-3.95 1.27.92 5.13 2.75 10.39 2.75 7.18 0 14.3-2.51 16.97-3.77Z" fill="url(#b)"/><path d="M37.77 33.03c-2.64 1.61-9.3 4.4-18.12 4.4-5.2 0-8.84-1.52-11.22-3.28a2.55 2.55 0 0 1-.07-.1c1.27.92 5.13 2.75 10.39 2.75 7.18 0 14.3-2.51 16.97-3.77h2.05Z" fill="url(#c)"/><path d="M31.25 18.22c7.4 0 10.46 2.3 11.06 3.44-2.32-1.8-4.9-2.47-8.7-2.47-8.22 0-14.25 2.63-16.66 4.2L16 21.66a38.12 38.12 0 0 1 15.25-3.44Z" fill="url(#d)"/><path d="M41.86 21.06c.21.22.36.42.45.6-2.32-1.8-4.9-2.47-8.7-2.47-8.22 0-14.2 2.74-16.61 4.31l-.42-.77c2.57-1.67 7.89-4.1 15.73-4.1 4.93 0 8.03 1.19 9.55 2.43Z" fill="url(#e)"/><path d="M11.6 24.24v3.69c-.27.29-.8 1.29-.82 3L7.3 31.94C7.1 31.5 7 30.97 7 30.4c0-2.93 3.15-5.33 4.6-6.16ZM8 33c2.71 3.04 10.36 3.05 14.49 2.54-6.16.7-10.34-1.42-11.43-3.45L8 33Z" fill="url(#f)"/><path d="M16.25 35.73c-3.09-.44-5.53-1.65-6.54-3.24l1.34-.4c1.09 2.03 5.24 4.13 11.35 3.46-1.69.2-3.92.32-6.15.18Z" fill="url(#g)"/><path d="M11.6 26.19v1.74c-.27.29-.8 1.29-.82 3l-1.53.45a2.88 2.88 0 0 1-.05-.55 5.75 5.75 0 0 1 2.4-4.64Z" fill="url(#h)"/><path d="M25 18.17c.89-.39 3.96-1.17 9.18-1.17 3.59 0 7.25.7 9.82 2.11v2.45l-.61.18c-1.37-1.95-4.9-4.17-12.01-4.17-1.93 0-5.06.4-6.38.6ZM43.92 25a8.03 8.03 0 0 1-2.7 4h3.82c.66-.78 1.86-2.28 2.28-3.85l-3.35 3.77L44 25h-.08Z" fill="url(#i)"/><path d="M26.53 17.99c2.66-.54 6.78-1.07 9.96-.5A19.3 19.3 0 0 1 44 20.52v-1.15C41.44 17.78 38.06 17 34.3 17c-5.17 0-8.22.78-9.1 1.17l1.33-.18Z" fill="url(#j)"/><path d="m45 21.99-6.7 1.92-.19 2.28 6.44-1.42v3.14l2.43-2.98 3.98.5-2.24-2.32L52 20.2l-5.02 1.29L45 19.3V22Z" fill="url(#k)"/><path d="m44.55 24.83.05-.01 1.45-1.49-7.86 1.88-.08.98 6.44-1.42v.06Z" fill="url(#l)"/><path d="M45 19.42 46.22 23l-1.3-1L45 22v-2.57Z" fill="url(#m)"/><path d="m46.97 21.47-.47 1.57 5.45-2.83-4.97 1.28-.01-.02Z" fill="url(#n)"/><path d="M48.85 23.25h-2.23l4.31 2.18h.03l-2.1-2.18Z" fill="#00579F"/><path d="m47 24.93-.64-1.54-1.78 4.5 2.4-2.96H47Z" fill="url(#o)"/><path d="M40 23h-3v9h4.65L45 30h-5v-7Z" fill="url(#p)"/><path d="M13 23h3l2.5 4.78L21 23h3v9h-3v-4.5l-2.5 4.44-2.5-4.47V32h-3v-9Z" fill="url(#q)"/><defs><linearGradient id="a" x1="30.5" y1="23" x2="30.5" y2="32" gradientUnits="userSpaceOnUse"><stop stop-color="#B81119"/><stop offset=".51" stop-color="#F81F2A"/><stop offset=".54" stop-color="#D21822"/><stop offset=".78" stop-color="#F11D2A"/><stop offset="1" stop-color="#C1161B"/></linearGradient><linearGradient id="b" x1="8.36" y1="35.51" x2="40.18" y2="35.51" gradientUnits="userSpaceOnUse"><stop stop-color="#00A7DC"/><stop offset="1" stop-color="#0059A0"/></linearGradient><linearGradient id="c" x1="8.36" y1="35.23" x2="37.77" y2="35.23" gradientUnits="userSpaceOnUse"><stop stop-color="#40436A"/><stop offset="1" stop-color="#00A3CC"/></linearGradient><linearGradient id="d" x1="15.17" y1="21.06" x2="42.31" y2="21.06" gradientUnits="userSpaceOnUse"><stop stop-color="#80DAF5"/><stop offset="1" stop-color="#013B77"/></linearGradient><linearGradient id="e" x1="15.7" y1="21.26" x2="42.31" y2="21.26" gradientUnits="userSpaceOnUse"><stop stop-color="#003E82"/><stop offset="1" stop-color="#00B6ED"/></linearGradient><linearGradient id="f" x1="14.74" y1="24.24" x2="14.74" y2="35.79" gradientUnits="userSpaceOnUse"><stop stop-color="#9ADBE8"/><stop offset="1" stop-color="#0089CC"/></linearGradient><linearGradient id="g" x1="15.8" y1="26.19" x2="15.8" y2="35.79" gradientUnits="userSpaceOnUse"><stop stop-color="#0075B5"/><stop offset="1" stop-color="#003A93"/></linearGradient><linearGradient id="h" x1="15.8" y1="26.19" x2="15.8" y2="35.79" gradientUnits="userSpaceOnUse"><stop stop-color="#0075B5"/><stop offset="1" stop-color="#003A93"/></linearGradient><linearGradient id="i" x1="47.32" y1="23" x2="25" y2="23" gradientUnits="userSpaceOnUse"><stop stop-color="#4FC8F1"/><stop offset="1" stop-color="#0069B5"/></linearGradient><linearGradient id="j" x1="25.2" y1="18.76" x2="44.47" y2="18.76" gradientUnits="userSpaceOnUse"><stop stop-color="#094370"/><stop offset="1" stop-color="#00A6E5"/></linearGradient><linearGradient id="k" x1="42.8" y1="22.08" x2="47.73" y2="26.56" gradientUnits="userSpaceOnUse"><stop offset=".15" stop-color="#00A8E9"/><stop offset=".59" stop-color="#fff"/></linearGradient><linearGradient id="l" x1="45.63" y1="23.33" x2="38.06" y2="25.42" gradientUnits="userSpaceOnUse"><stop stop-color="#005DA4"/><stop offset="1" stop-color="#0098DA"/></linearGradient><linearGradient id="m" x1="44.83" y1="19.42" x2="45.59" y2="22.98" gradientUnits="userSpaceOnUse"><stop stop-color="#0A387A"/><stop offset="1" stop-color="#0080C6"/></linearGradient><linearGradient id="n" x1="51.95" y1="20.21" x2="46.69" y2="22.83" gradientUnits="userSpaceOnUse"><stop stop-color="#1C497D"/><stop offset="1" stop-color="#179ED5"/></linearGradient><linearGradient id="o" x1="46.58" y1="23.39" x2="44.42" y2="27.8" gradientUnits="userSpaceOnUse"><stop stop-color="#0088D7"/><stop offset="1" stop-color="#174A7B"/></linearGradient><linearGradient id="p" x1="40.96" y1="22.63" x2="40.96" y2="31.55" gradientUnits="userSpaceOnUse"><stop stop-color="#B81119"/><stop offset=".51" stop-color="#F81F2A"/><stop offset=".54" stop-color="#D21822"/><stop offset=".78" stop-color="#F11D2A"/><stop offset="1" stop-color="#C1161B"/></linearGradient><linearGradient id="q" x1="18.5" y1="23" x2="18.5" y2="32" gradientUnits="userSpaceOnUse"><stop stop-color="#B81119"/><stop offset=".51" stop-color="#F81F2A"/><stop offset=".54" stop-color="#D21822"/><stop offset=".78" stop-color="#F11D2A"/><stop offset="1" stop-color="#C1161B"/></linearGradient></defs></svg>