<!-- by TradingView --><svg width="56" height="56" viewBox="0 0 56 56" xmlns="http://www.w3.org/2000/svg"><path fill="#F0F3FA" d="M0 0h56v56H0z"/><path fill-rule="evenodd" d="M33.8 15.37C31.99 11.45 30.82 11 28 11s-3.99.45-5.8 4.37C19.92 20.3 14 37.35 14 43h6.27c1.01 0 1.94-.53 2.52-1.37.54-.79 1.2-1.66 1.84-2.38 1.16-1.28 1.86-1.93 3.37-1.93 1.5 0 2.21.65 3.37 1.93.65.72 1.3 1.6 1.84 2.38A3.09 3.09 0 0 0 35.73 43H42c0-5.65-5.92-22.7-8.2-27.63Zm-5.03 5.19c-.24-.75-1.3-.75-1.54 0L26.2 23.7c-.2.62-.84 1-1.5.89l-2.5-.57A1.1 1.1 0 0 0 22 24c-.87 0-1.36 1.23-.68 1.87l2.57 2.41c.37.36.5.9.34 1.38l-1.17 3c-.04.11-.06.23-.06.34 0 .71.79 1.25 1.5.88l2.89-1.43c.38-.2.84-.2 1.22 0l2.9 1.43c.7.37 1.49-.17 1.49-.88 0-.11-.02-.23-.06-.34l-1.17-3a1.3 1.3 0 0 1 .34-1.38l2.57-2.41c.68-.64.2-1.86-.68-1.87-.06 0-.13 0-.2.02l-2.5.57a1.32 1.32 0 0 1-1.5-.9l-1.03-3.13Z" fill="#0033A2"/></svg>