<!-- by TradingView --><svg width="56" height="56" viewBox="0 0 56 56" xmlns="http://www.w3.org/2000/svg"><path fill="#F0F3FA" d="M0 0h56v56H0z"/><path d="M19.59 37.77a8.17 8.17 0 0 1-.49-1.72 15.74 15.74 0 0 0-.37-1.4l-.02-.03a16.85 16.85 0 0 1-.39-1.45 17.6 17.6 0 0 0-.48-1.88c-.32-.97-.65-2.19-1-3.64a11.8 11.8 0 0 0-.4-1.36l-.07-.1a8.92 8.92 0 0 0-.29-1.16c-.09-.3-.19-.68-.3-1.16a65.5 65.5 0 0 0-1.16-4.18l-.28-1.72a.2.2 0 0 1 .1-.2l.2-.12.38-.22c.2-.17.36-.4.47-.68l.03.07c.01.02.03.02.07.01a15.43 15.43 0 0 1 2.2-.55l.44-.05a22.26 22.26 0 0 1 8 .05l.66.11 1.58.42c.73.21 1.67.4 2.82.56a8.38 8.38 0 0 0 1.49-.05c1.1-.14 2.08-.36 2.92-.64l1.04-.35a7.77 7.77 0 0 0 1.44-.56c.57-.28.97-.48 1.2-.58a15.02 15.02 0 0 0 2.12-1.18.04.04 0 0 1 .01.03c-.23 1.4-.39 2.7-.48 3.92-.08 1.2-.05 2.28.1 3.22a7.49 7.49 0 0 0 1.18 2.62l.14.15c.45.57.7.91.77 1.03l.66 1.07a5.74 5.74 0 0 1 .85 2.1 7.6 7.6 0 0 1 .18 3.1h-.02c-.84-.24-1.44-.4-1.81-.46-1.28-.2-3.2-.34-5.76-.4l-1.35-.04a12.46 12.46 0 0 1-2.95-.41 9.3 9.3 0 0 1-1.3-.34c-.37-.12-.88-.2-1.54-.25-1.57-.1-3.13.05-4.68.46a4.6 4.6 0 0 1-.4.08c-.19.04-.32.06-.4.09-.97.31-1.79.62-2.44.93-.3.14-.52.23-.64.26-.1.03-.38.16-.83.41a79.03 79.03 0 0 0-2.1 1.2v-.02c.7-2.2.74-4.54.12-7.02-.1-.39-.19-.7-.28-.97-.12-.38-.22-.7-.28-.97a39.72 39.72 0 0 0-1.4-3.05c-.16-.3-.3-.53-.4-.69a13.08 13.08 0 0 1-.55-.8l-.04-.03h-.01v.01a911.95 911.95 0 0 1 1.19 5.74l.05.39 1.12 5.25c.02.11.05.28.07.5l.08.48L19.5 37c.03.12.06.37.09.77Zm1.99-14.3a.04.04 0 0 0-.03.04.05.05 0 0 0 .03.04l8.49 4.64a.05.05 0 0 0 .04 0l8.49-4.64.02-.02a.04.04 0 0 0-.02-.06l-8.49-4.65a.04.04 0 0 0-.04 0l-8.5 4.65Z" fill="#2D3192"/><path d="M14.34 16.06h.14c.32.04.59.16.8.36.12.1.19.2.21.33-.1.28-.27.5-.47.68l-.37.22-.22.12a.2.2 0 0 0-.1.2l.29 1.72v.04c.47 1.49.85 2.87 1.16 4.14.11.48.21.87.3 1.16.14.44.24.83.3 1.16 0 .03.02.06.06.1.03.03.09.18.16.45a21.25 21.25 0 0 0 .25.9 43.63 43.63 0 0 0 1.04 3.8c.17.57.32 1.14.43 1.74a16.85 16.85 0 0 0 .4 1.44l.01.02a15.74 15.74 0 0 1 .42 1.67c.1.49.24.97.44 1.46l1.19 5.55c-.04.05-.09.07-.16.06a.1.1 0 0 1-.06-.03c-.14-.15-.24-.3-.3-.48l-.54-1.78a7.65 7.65 0 0 1-.17-.72 11.81 11.81 0 0 0-.34-1.3 11.28 11.28 0 0 1 .13.33 2.55 2.55 0 0 0-.13-.4 3.08 3.08 0 0 1-.15-.38 45.33 45.33 0 0 1-.74-2.7c-.07-.29-.17-.62-.3-.97a12.24 12.24 0 0 1-.37-1.37v-.06c-.02-.14-.13-.5-.32-1.1-.08-.27-.2-.69-.34-1.26-.13-.52-.23-.9-.3-1.1a57.36 57.36 0 0 1-.52-1.85l.02.01v.02l.42 1.45h.01v-.02l-.65-2.36v-.01h-.04l.24.87v.01h-.01c-.17-.51-.29-.92-.35-1.23-.1-.51-.19-.88-.26-1.1a21.36 21.36 0 0 1-.54-2.37H15l.07.59c-.02-.04-.03-.06-.05-.06l-.21-.99.12.41h.01a8.12 8.12 0 0 0-.25-1.22h.02a.02.02 0 0 1 .01 0 .02.02 0 0 1 .01 0c.1.31.16.52.18.63.12.7.29 1.31.5 1.82.09.24.15.4.16.5.07.35.18.79.33 1.32a76.55 76.55 0 0 1 .56 2.07l.26.86c.1.36.18.66.26.88.14.43.27.89.39 1.39a37.14 37.14 0 0 0 .66 2.36c.08.27.2.73.34 1.4a36.09 36.09 0 0 0 .27 1.03.02.02 0 0 1 .02.01c.38 1.23.72 2.42 1.04 3.57a2.61 2.61 0 0 0 .24.55h.03v-.03a3.62 3.62 0 0 0-.09-.64 16.68 16.68 0 0 1-.4-1.9 11.56 11.56 0 0 1-.46-1.51l.08.3v.01h.03l-.53-1.99.44 1.27h.02l-.6-1.76-.01-.02a.02.02 0 0 0-.04.03l.1.38v.01h-.03c-.1-.42-.23-.95-.41-1.57a328.38 328.38 0 0 1-1.02-3.7 10.32 10.32 0 0 0-.21-.9l-.1-.4-.14-.57a9.5 9.5 0 0 0-.27-.97c-.22-.63-.39-1.21-.5-1.74a21.75 21.75 0 0 0-.48-1.77v.01l.1.49v.01h-.02a38.6 38.6 0 0 0-.69-2.67c-.1-.3-.16-.6-.21-.89a8.37 8.37 0 0 0-.2-.89 106.07 106.07 0 0 0-.43-1.24.04.04 0 0 0-.04.02l-.06.08-.06-.36a.13.13 0 0 0 .01-.06.06.06 0 0 0-.04-.06.56.56 0 0 1-.42-.43.87.87 0 0 1 .08-.63c.12-.21.38-.36.8-.43.02.02.04.01.06 0l.11-.02Z" fill="#7F81BD"/><path d="M14.6 16.61c.04.31-.12.5-.47.55a.06.06 0 0 1-.05-.02c-.22-.18-.24-.39-.06-.62a.1.1 0 0 1 .05-.04.8.8 0 0 1 .48.04c.03.01.05.04.06.09Z" fill="#C0C2E1"/><path d="m13.74 17.69.06.36.13.57a4.45 4.45 0 0 0-.57 1.18c-.3.97-.5 1.68-.6 2.13a13.9 13.9 0 0 0 .5 7.12c.03.23.1.49.22.79.34.87.62 1.5.83 1.91l.3.66c.11.24.23.46.36.68a38.58 38.58 0 0 0 .8 1.33l.2.35a40.39 40.39 0 0 0 1.7 2.22v-.03a344.2 344.2 0 0 1-.63-3.08 1161.62 1161.62 0 0 0-1.19-5.69 4.3 4.3 0 0 1-.06-.4 4.68 4.68 0 0 0-.06-.4L15.02 24c.02 0 .03.02.05.06l-.07-.58v-.01h.01c.04.28.1.56.15.83.18.77.3 1.28.4 1.54.06.22.15.59.25 1.1a11.47 11.47 0 0 0 .36 1.22l-.24-.86.02-.01a.01.01 0 0 1 .02 0l.65 2.37v.02h-.01l-.41-1.45-.01-.02h-.02a.02.02 0 0 0-.01 0v.01c.2.7.37 1.31.53 1.82l.3 1.1c.14.58.26 1 .34 1.26a15.78 15.78 0 0 1 .32 1.17v.07c.13.53.25.97.37 1.3.13.35.23.68.3.98.13.57.37 1.47.74 2.7.04.1.08.23.15.37a2.55 2.55 0 0 1 .13.4h-.02a11.83 11.83 0 0 0-.11-.33l.12.43c.1.38.18.67.22.87.05.3.11.54.17.72l.54 1.78c.06.17.16.33.3.48a.1.1 0 0 0 .06.03c.07.01.12-.01.16-.06-.03.1-.13.22-.32.37-.4.3-.83.39-1.3.24a.1.1 0 0 1-.07-.07 1653.48 1653.48 0 0 1-.8-3.82 65.99 65.99 0 0 0-.41-2.05.26.26 0 0 0-.05-.1l-.14-.18a4.3 4.3 0 0 0-.38-.42c-.08-.07-.18-.19-.3-.36a23.19 23.19 0 0 0-.55-.72 5.56 5.56 0 0 1-.71-.98c-.06-.1-.15-.24-.28-.41a5.6 5.6 0 0 1-.24-.34l-.14-.21c-.31-.49-.53-.85-.65-1.1a9.65 9.65 0 0 0-.37-.7 9.45 9.45 0 0 1-.55-1.1c-.12-.21-.21-.46-.3-.74-.01-.07-.1-.32-.27-.74a16.3 16.3 0 0 1-.69-2.37 17.02 17.02 0 0 1-.06-5.76c.2-1 .52-1.97.95-2.9a2.6 2.6 0 0 0 .19-.46l.4-.71Z" fill="#2D3192"/><path d="m18.6 34.84-.14-.44a.01.01 0 0 0-.01-.01 3.95 3.95 0 0 0 .15.45l.53 1.98v.01h-.02l-.08-.31v-.01H19v.01a11.59 11.59 0 0 0 .48 1.5l.03.07c.08.62.2 1.23.36 1.84a3.63 3.63 0 0 1 .1.66.03.03 0 0 1-.04.01l-.02-.01c-.1-.18-.17-.36-.22-.54a150.4 150.4 0 0 0-1.06-3.58.02.02 0 0 0 0 .01v.01c.04.1.07.22.07.34-.12-.48-.24-.94-.34-1.4a23.92 23.92 0 0 0-.48-1.87c-.23-.78-.4-1.4-.52-1.88-.12-.5-.25-.96-.4-1.4l-.25-.87c-.1-.37-.18-.66-.26-.86l-.2-.7c-.19-.73-.3-1.19-.36-1.37-.15-.53-.26-.97-.33-1.33-.01-.09-.07-.25-.17-.49a8.97 8.97 0 0 1-.49-1.82 5.1 5.1 0 0 0-.2-.64h-.02v.01a8.11 8.11 0 0 1 .24 1.22l-.12-.4-.01-.1c0-.03 0-.06-.02-.07l-.2-.92-.01-.06a6.76 6.76 0 0 0-.08-.6l-.56-2.66-.13-.57.06-.08.01-.01h.05l.01.02.4 1.21c.05.16.12.45.2.9.05.28.12.58.21.88a38.54 38.54 0 0 1 .7 2.68h.01v-.02l-.1-.49h.02c.2.65.35 1.23.46 1.76.11.53.28 1.11.5 1.74.09.25.18.57.27.97l.14.56.1.4c.03.16.05.28.08.36l.13.55c.07.3.12.54.17.68.28 1.04.57 2.04.85 3.02a24.36 24.36 0 0 1 .42 1.58h.02v-.02l-.1-.38v-.02h.02a.02.02 0 0 1 .03 0l.6 1.77h-.01a.02.02 0 0 1-.01 0l-.44-1.27Z" fill="#C0C2E1"/><path d="M30.13 19.7 37 23.48a.04.04 0 0 1 0 .07l-6.84 3.8a.04.04 0 0 1-.04 0l-6.87-3.76-.02-.02v-.03l.02-.02 6.84-3.8a.04.04 0 0 1 .04 0Zm5.33 3.85-1.62-.94a5.2 5.2 0 0 0-.26-.12 50.7 50.7 0 0 1-1.77-1.02l-.44-.22c-.2-.09-.36-.16-.46-.23a9.8 9.8 0 0 0-.81-.46 9.57 9.57 0 0 0-.5.26c-.34.21-.6.35-.78.42a3.1 3.1 0 0 0-.55.27 12 12 0 0 1-.85.48c-.08.04-.19.1-.33.2-.24.14-.43.24-.56.28-.16.06-.35.15-.56.28a22.45 22.45 0 0 1-1.33.76v.01l.01.02.45.2c.27.13.47.23.61.32a13.56 13.56 0 0 0 1.16.64c.04.02.09.05.14.1l.42.2c.2.07.53.26 1.03.55a26.59 26.59 0 0 0 1.67.87l.03-.01c.7-.32 1.37-.67 1.97-1.05.26-.15.48-.27.65-.34.24-.1.42-.19.53-.26.16-.1.4-.24.73-.41l.62-.35c.15-.1.37-.2.65-.31l.14-.06.02-.02a.04.04 0 0 0-.01-.06Z" fill="#E11D2B"/><path d="M27.7 24.43c.05-.03.08-.13.09-.3v-1.61a.12.12 0 0 0-.1-.12l-.16-.03-.02-.01a.04.04 0 0 1-.01-.05.07.07 0 0 1 .06-.05 13.06 13.06 0 0 0 .83.02l.02.01v.03a.04.04 0 0 1-.02.04c-.1.03-.16.08-.19.14l-.01.07-.01 1.55c0 .17-.11.31-.33.4-.23.1-.4.08-.52-.07a.13.13 0 0 1-.03-.06.22.22 0 0 1 .13-.24.17.17 0 0 1 .19.02l.04.06c.02.06.03.12.02.18a.02.02 0 0 0 0 .02h.03ZM30.75 23.4a53.62 53.62 0 0 0 0 .71c0 .2.06.3.18.33a.04.04 0 0 1 .03.04.04.04 0 0 1-.02.04c-.02.02-.2.02-.52.02a15 15 0 0 0-.35-.02.05.05 0 0 1-.01-.04v-.04h.02c.18-.03.27-.09.27-.18l.01-.75v-.03l-.04-.02h-.98a.03.03 0 0 0-.03.03v.8c.04.07.1.12.2.14a.05.05 0 0 1 .04.06.05.05 0 0 1-.05.04h-.85a.04.04 0 0 1-.02-.06.08.08 0 0 1 .07-.05c.14 0 .21-.1.21-.3a35.15 35.15 0 0 0 0-1.46c0-.2-.07-.29-.2-.29l-.05-.01a.08.08 0 0 1-.02-.04v-.02a.04.04 0 0 1 .02-.04h.85s.02 0 .03.02a.05.05 0 0 1-.02.08c-.1.02-.16.07-.2.14v.04l-.01.76a.03.03 0 0 0 .03.03h1.01l.01-.04v-.75c0-.1-.1-.16-.28-.18h-.01v-.05a.05.05 0 0 1 .05-.05h.3c.33 0 .5 0 .53.02l.02.02v.02a.04.04 0 0 1-.03.04c-.13.03-.19.14-.18.33v.08l-.01.63ZM31.3 24.53a.04.04 0 0 1-.04-.03v-.02l.02-.04.03-.01c.16-.02.25-.12.25-.31v-1.5c0-.16-.07-.23-.2-.24a.06.06 0 0 1-.07-.06v-.02a.03.03 0 0 1 .03-.04l1.05.01c.43.03.66.2.69.5a.51.51 0 0 1-.29.52l-.01.02a.04.04 0 0 0 0 .04l.02.01c.34.16.46.4.38.7-.08.3-.3.46-.65.47h-1.2Zm.66-2.1v.81a.06.06 0 0 0 .01.04l.02.02H32.16c.13 0 .26-.04.35-.12.1-.09.15-.2.15-.32v-.04a.43.43 0 0 0-.14-.31.52.52 0 0 0-.35-.14h-.15a.06.06 0 0 0-.06.06Zm0 1.12v.76a.12.12 0 0 0 .13.11h.13a.6.6 0 0 0 .4-.15c.1-.1.15-.22.15-.35v-.01a.44.44 0 0 0-.05-.2.5.5 0 0 0-.12-.15.64.64 0 0 0-.4-.14h-.13a.12.12 0 0 0-.12.13Z" fill="#E11D2B"/><path d="M18.6 34.84a3.98 3.98 0 0 1-.16-.42v-.03h.01a.01.01 0 0 1 .02 0l.13.45Z" fill="#7F81BD"/></svg>