<!-- by TradingView --><svg xmlns="http://www.w3.org/2000/svg" width="56" height="56" viewBox="0 0 56 56"><path fill="#F0F3FA" d="M0 0h56v56H0z"/><path d="M44 33.77A16.55 16.55 0 0 1 28.55 44C19.41 44 12 36.84 12 28s7.41-16 16.55-16c4.36 0 8.32 1.63 11.28 4.28a12.3 12.3 0 0 1-8.65 6.12 10.5 10.5 0 1 0 2.94 12.3c4.46.71 7.82-.01 9.88-.93Z" fill="#ED1C24"/><path fill-rule="evenodd" d="m16.1 33.7.83-4.34-.51-.21V29h2.4c.98 0 1.7.9 1.45 1.8-.18.67-.8 1.2-1.52 1.2H17.6l-.34 1.7.57.13V34H15.5v-.17l.6-.13Zm1.56-2.12.44-2.23c.37-.01 1.11.18 1.1 1.04 0 1.07-.75 1.26-1.54 1.19Zm8.62 2.12.83-4.34-.51-.21V29H29c.98 0 1.7.9 1.45 1.8-.18.67-.8 1.2-1.52 1.2h-1.15l-.34 1.7.57.13V34h-2.33v-.17l.6-.13Zm1.56-2.12.44-2.23c.37-.01 1.11.18 1.1 1.04 0 1.07-.76 1.26-1.54 1.19Zm-3.26-2.22-2.33 2.16 1.4 2.48h1.62v-.14l-.59-.24-1.4-2.45 2.08-1.87.58-.14V29h-1.76v.16l.4.2Zm-3.07-.04-.87 4.35-.63.17V34h2.25v-.16l-.46-.17.86-4.35.55-.18v-.13H20.9v.13l.61.18Z" fill="#ED1C24"/><path d="m40.98 19.04-.65-1.24-.65 1.24-1.42.22 1.02.98-.23 1.37 1.28-.63 1.28.63-.22-1.37 1.01-.98-1.42-.22Zm-4.95 3.8-.66-1.23-.65 1.23-1.42.22 1.02.98-.22 1.37 1.27-.63 1.28.63-.22-1.37 1.01-.98-1.41-.22Zm4.52 1.12.5.94 1.08.17-.78.75.18 1.04-.98-.48-.98.48.17-1.04-.77-.75 1.08-.17.5-.94Zm-3.49 2.91-.5-.94-.5.94-1.08.17.78.75-.17 1.04.97-.48.98.48-.17-1.04.77-.75-1.08-.17Zm2.48 1.73.38.71.81.13-.58.56.13.79-.74-.36-.73.36.13-.79-.58-.56.81-.13.37-.7Zm-2.53 1.71-.37-.7-.38.7-.81.13.58.56-.13.78.74-.36.73.36-.13-.78.58-.56-.81-.13Zm.9 1.55.26.48.55.09-.4.38.1.54-.5-.25-.51.25.09-.54-.4-.38.55-.09.26-.48Zm-1.65 1.85-.26-.48-.26.48-.55.09.4.38-.1.54.51-.24.5.24-.09-.54.4-.38-.55-.09Z" fill="#FEC22D"/></svg>