<!-- by TradingView --><svg width="56" height="56" viewBox="0 0 56 56" xmlns="http://www.w3.org/2000/svg"><path fill="#F0F3FA" d="M0 0h56v56H0z"/><path fill-rule="evenodd" d="M36 24h-1v13h2v-4h2.5a4.5 4.5 0 1 0 0-9H36Zm1 2v5h2.5a2.5 2.5 0 1 0 0-5H37ZM26 24h-1v13h2v-4h2.5a4.5 4.5 0 1 0 0-9H26Zm1 2v5h2.5a2.5 2.5 0 1 0 0-5H27Z" fill="#5A2A11"/><path d="m40 35.95 1.07-1.65A3 3 0 0 0 46 32v-8h2v8a5 5 0 0 1-5 5 4.8 4.8 0 0 1-3-1.05Z" fill="#5A2A11"/><path d="M28 20.09A8.54 8.54 0 0 0 26 18c.06.27.2 1.08.2 1.56 0 .6-4.96 2.54-7.7 4.02-2.74 1.48-7.5 4.81-7.5 9.2 0 4.79 4.88 6.15 7.5 6.22-4.25-.72-6.06-2.54-6.06-4.74 0-2.21 2.15-6.83 8.47-9.53 5.06-2.16 6.83-4 7.09-4.64Z" fill="url(#a)"/><path d="M18.6 21.04c4.31-2.08 6.08-3.22 6.42-3.52-.37-.24-1.65-.83-2.24-1.1v.67c-.35.2-2.3 1.19-7.26 3.46-6.18 2.83-7.49 6.95-7.49 9.36 0 1.92 1.32 3.68 1.98 4.31a6.6 6.6 0 0 1-.97-3.33c0-3.82 4.18-7.25 9.56-9.85Z" fill="url(#b)"/><path d="M18.8 16H21c-9.05 2.04-12.44 7.52-13 10 .78-6.76 7.53-9.48 10.8-10Z" fill="#D76A2B"/><defs><linearGradient id="a" x1="19.44" y1="18.14" x2="19.44" y2="39" gradientUnits="userSpaceOnUse"><stop stop-color="#D7641D"/><stop offset=".67" stop-color="#5A2A11"/></linearGradient><linearGradient id="b" x1="16.53" y1="16.43" x2="16.53" y2="34.22" gradientUnits="userSpaceOnUse"><stop offset=".09" stop-color="#D6641E"/><stop offset="1" stop-color="#5A2911"/></linearGradient></defs></svg>