<!-- by TradingView --><svg width="56" height="56" viewBox="0 0 56 56" fill="none" xmlns="http://www.w3.org/2000/svg">
<rect width="56" height="56" fill="#F0F3FA"/>
<path fill-rule="evenodd" clip-rule="evenodd" d="M6.0019 32.7021V29.2149C6.0019 28.9047 6.0019 28.3647 5.82973 28.1607C5.77868 28.1059 5.63244 28.0635 5.53945 28.0365L5.53944 28.0365C5.52478 28.0322 5.51144 28.0284 5.5 28.0249V28H7.5V28.0249L7.47372 28.0353C7.36192 28.0793 7.18039 28.1507 7.12631 28.2405C7.0029 28.4453 7.0029 28.878 7.0029 29.2025V32.6897L7.0029 32.7123C7.00287 32.9506 7.00284 33.1592 7.03269 33.3822C7.04108 33.5064 7.07895 33.6271 7.14334 33.7346C7.19815 33.8082 7.33752 33.8698 7.44139 33.9156C7.46278 33.9251 7.48267 33.9339 7.5 33.9419V34H5.5V33.971C5.51775 33.9648 5.54074 33.9577 5.56654 33.9497C5.66366 33.9197 5.80056 33.8774 5.84708 33.8252C5.90596 33.7591 5.9464 33.6794 5.9645 33.5936C6.0019 33.4324 6.0019 33 6.0019 32.7021ZM8.5 32.9219V29.008C8.52657 28.51 8.40519 28.2753 8 28.0279V28.004H9.63833C9.69267 28.1548 9.77879 28.291 9.89032 28.4024L12.5 31.625V29.0199C12.5 28.5735 12.4122 28.2137 12 28.0239V28L14 28V28.0239C13.6299 28.261 13.5 28.6211 13.5 29.0598V34C13.2731 33.9401 13.0929 33.833 12.9065 33.6853C12.7364 33.5336 12.5805 33.3656 12.4407 33.1833L9.5 29.4737V32.9219C9.49781 33.0935 9.50919 33.2648 9.54688 33.4318C9.56692 33.5379 9.61296 33.6367 9.6805 33.7187C9.73216 33.7775 9.82006 33.8319 9.89992 33.8813C9.93635 33.9039 9.97112 33.9254 10 33.9458V34H8V33.9617C8.15745 33.8871 8.31135 33.7555 8.38281 33.5912C8.4545 33.3818 8.5 33.16 8.5 32.9378V32.9219ZM27.5 32.9219V29.008C27.5266 28.51 27.4052 28.2753 27 28.0279V28.004H28.6383C28.6927 28.1548 28.7788 28.291 28.8903 28.4024L31.5 31.625V29.0199C31.5 28.5735 31.4122 28.2137 31 28.0239V28L33 28V28.0239C32.6299 28.261 32.5 28.6211 32.5 29.0598V34C32.2731 33.9401 32.0929 33.833 31.9065 33.6853C31.7364 33.5336 31.5805 33.3656 31.4407 33.1833L28.5 29.4737V32.9219C28.4978 33.0935 28.5092 33.2648 28.5469 33.4318C28.5669 33.5379 28.613 33.6367 28.6805 33.7187C28.7322 33.7775 28.8201 33.8319 28.8999 33.8813L28.8999 33.8813C28.9364 33.9039 28.9711 33.9254 29 33.9458V34H27V33.9617C27.1574 33.8871 27.3114 33.7555 27.3828 33.5912C27.4545 33.3818 27.5 33.16 27.5 32.9378V32.9219ZM15 28.8582V33.0497C15 33.5 14.9168 33.7661 14.5938 33.9978H16.639C18.3641 34 20 33.0497 20 30.9854C20 29 18.4855 28 16.7542 28.0016H14.5977V28.0265C14.8638 28.1097 15 28.3966 15 28.8582ZM16.5529 33.0002H16.553L16.6242 33C17.8914 33 19 32.4668 19 31.1555C19 29.9593 18.3438 29 17.0469 29C16.7947 29.0044 16.2471 29.0171 16 29.0689V32.9666C16.1678 33.0017 16.3736 33.0009 16.5529 33.0002ZM23.472 28.0001C21.7878 28.0097 20.5 29.2813 20.5 31.0551C20.5 32.7188 21.9447 34 23.5915 33.9994C25.2603 34 26.4879 32.4987 26.5 30.8771C26.4505 29.2494 25.1139 27.9894 23.472 28.0001ZM23.466 32.9958C22.2969 32.9958 21.5385 32.0699 21.5005 31.0136V31.0203C21.4754 29.8927 22.4062 29.0006 23.466 29.0006C24.6088 29 25.5 29.7656 25.5 31.0136C25.5 32.1563 24.6351 32.9958 23.466 32.9958ZM34 29.1472V33.0872C34 33.5478 33.8586 33.866 33.5912 33.9665V34H37.5355L38 32.4937C37.3359 33.0045 36.6172 33.0045 35.7741 33.0045H35V31.4H36.1893C36.6052 31.4 36.8642 31.472 36.966 31.6563H37V30.4H35V29C35.5333 29 36.019 29 36.5416 29.0938C36.7169 29.1478 36.8749 29.2459 37 29.3785V28H33.5537L33.6081 28.0796C34.0069 28.2086 34.0032 28.697 34.0004 29.0618V29.0619V29.0621V29.0622V29.0624C34.0002 29.0915 34 29.1199 34 29.1472ZM38.6384 29.5032C38.638 29.1936 38.739 28.8943 38.9328 28.6604C39.1395 28.4273 39.4016 28.2558 39.6923 28.1635C40.0322 28.0495 40.3875 28 40.7443 28.0005C41.1522 28 41.6091 28.1429 41.9999 28.2656V29.5032C41.6523 29.1495 41.1643 29.0014 40.6797 29C40.1958 28.9967 39.6923 29.1062 39.6923 29.5938C39.6923 29.9686 40.1177 30.1207 40.5106 30.2613C40.6287 30.3035 40.7439 30.3447 40.8438 30.3906C40.9421 30.4401 41.0449 30.4873 41.1491 30.5351C41.7977 30.8326 42.4999 31.1547 42.4999 32.2145C42.4999 33.753 41.1547 34 40.0987 33.9995C39.6327 34 39.1709 33.9042 38.7277 33.753L38.5 32.483C38.9941 32.9121 39.6208 33 40.2621 33C40.7801 33 41.4509 32.7612 41.4509 32.2145C41.4509 31.6961 40.8693 31.5121 40.3163 31.3372C40.1071 31.2711 39.9021 31.2062 39.7341 31.125C39.0108 30.7753 38.6384 30.3438 38.6384 29.5032ZM43.5019 29.2149V32.7021C43.5019 33 43.5019 33.4324 43.4645 33.5936C43.4464 33.6794 43.406 33.7591 43.3471 33.8252C43.3006 33.8774 43.1637 33.9197 43.0665 33.9497C43.0407 33.9577 43.0177 33.9648 43 33.971V34H45V33.9419C44.9827 33.9339 44.9628 33.9251 44.9414 33.9156C44.8375 33.8698 44.6981 33.8082 44.6433 33.7346C44.579 33.6271 44.5411 33.5064 44.5327 33.3822C44.5028 33.1591 44.5029 32.9506 44.5029 32.7123V32.6897V29.2025C44.5029 28.878 44.5029 28.4453 44.6263 28.2405C44.6804 28.1507 44.8619 28.0793 44.9737 28.0353L45 28.0249V28H43V28.0249C43.0114 28.0284 43.0248 28.0322 43.0395 28.0365C43.1324 28.0635 43.2787 28.1059 43.3297 28.1607C43.5019 28.3647 43.5019 28.9047 43.5019 29.2149ZM45.9916 32.6787L47.3886 28.7645C47.4293 28.6386 47.4556 28.5073 47.4666 28.374C47.4741 28.2922 47.4532 28.2104 47.4083 28.1454C47.3633 28.0804 47.2977 28.0373 47.2251 28.0249V28H48.5144L50.3052 32.9529C50.3872 33.168 50.4828 33.3763 50.5913 33.5762C50.7044 33.7294 50.8433 33.8565 51 33.9501V34H49.1417V33.9668C49.3349 33.8795 49.4278 33.7756 49.4278 33.6634C49.4195 33.5318 49.3879 33.4033 49.3349 33.2853L48.8876 32H47.077L46.735 33.2188C46.697 33.3331 46.6696 33.4515 46.6532 33.572C46.6559 33.6692 46.6872 33.7626 46.7423 33.8378C46.7974 33.9129 46.8494 33.9656 46.9341 33.9875V34H45.2188V33.9668C45.3196 33.904 45.4111 33.8241 45.49 33.7299C45.571 33.6405 45.6433 33.5416 45.7055 33.4349C45.7575 33.3186 45.8058 33.1939 45.8541 33.0568C45.9045 32.9391 45.9492 32.8184 45.9879 32.6953L45.9916 32.6787ZM47.3751 31H48.5859L47.9753 29.25L47.3751 31Z" fill="#BA8C49"/>
<path fill-rule="evenodd" clip-rule="evenodd" d="M26.3353 17.1814C26.4103 17.0749 26.516 17.0003 26.6129 17C26.8023 16.9994 26.9577 17.2106 26.7827 17.5156C26.4912 18.0538 26.1105 18.5879 25.74 19.1079L25.7399 19.108C25.6159 19.282 25.493 19.4545 25.3749 19.625C25.1602 19.9288 24.9441 20.2319 24.7282 20.5347C23.325 22.5028 21.9355 24.4517 21.0518 26.4148C20.9351 26.6739 20.9608 26.7951 21.0519 26.7951C21.1188 26.7951 21.221 26.7672 21.328 26.6875C21.6181 26.4607 21.9759 26.2114 22.3398 25.9577C22.8205 25.6226 23.3121 25.28 23.673 24.9718C23.8805 24.1974 24.12 23.4515 24.5144 22.7515C25.1157 21.7327 26.4733 20 27.8081 20C28.1729 20 28.5385 20.0987 28.872 20.247C29.0009 20.0867 29.1366 20 29.2484 20C29.3983 20 29.5226 20.0895 29.5226 20.3267C29.5226 20.3267 29.456 20.5312 29.3816 20.6503C28.6444 21.7665 27.9941 22.9363 27.4363 24.1497C27.234 24.5838 27.6536 24.9986 28.3344 24.5185C28.9575 24.0858 29.4221 23.6315 29.9179 23.1467L29.918 23.1466C30.1305 22.9388 30.3488 22.7254 30.5877 22.5057C31.0439 22.0811 31.5259 21.5492 31.9951 21.0314L31.9951 21.0314C32.2943 20.7012 32.5883 20.3767 32.8671 20.0895C32.9608 19.9936 32.9964 19.9132 32.9999 19.851C32.9999 19.7014 32.8045 19.6565 32.5792 19.7515C32.1551 19.9411 31.6919 20.2188 31.2397 20.4898L31.2397 20.4898C30.9867 20.6414 30.7372 20.791 30.4999 20.9219C30.3886 20.9825 30.2928 21 30.2159 21C30.0565 21 29.9999 20.895 29.9999 20.7664C29.9999 20.6448 30.0687 20.5021 30.2159 20.4071C31.2572 19.7308 32.4321 19 33.8192 19.0029C34.1635 19 34.3982 19.125 34.3974 19.328C34.3969 19.4418 34.3187 19.5837 34.1536 19.7515C33.2477 20.6812 32.3235 21.6989 31.4214 22.6923L31.4214 22.6923L31.4212 22.6925C30.851 23.3203 30.2897 23.9384 29.7474 24.5185C29.3931 24.8978 29.0377 25.2482 28.6901 25.5907C28.1332 26.1398 27.5964 26.6689 27.1173 27.265C26.7282 27.7259 26.841 27.8719 27.4285 27.5339C29.12 26.614 30.9054 25.8736 32.7548 25.3252C34.4665 24.7761 35.7845 24.6042 37.5822 24.5185C37.8457 24.5185 38.0061 24.6435 38.0043 24.7683C38.0103 24.8812 37.8974 24.9939 37.6405 25.014C35.2227 25.1787 33.303 25.5467 31.0391 26.4007C29.5928 26.9788 28.2118 27.7049 26.9189 28.5672C26.0434 29.1452 25.2348 29.8949 24.5261 30.6641C24.3268 30.8786 24.1828 31 24.0234 31C23.7949 31 23.6737 30.8176 23.676 30.6641C23.6776 30.5602 23.7337 30.4257 23.8647 30.2705C25.1953 28.638 26.5337 27.0537 27.9265 25.4519C27.8016 25.5043 27.6668 25.5297 27.5311 25.5263C27.3954 25.5228 27.2621 25.4908 27.14 25.4321C27.018 25.3735 26.9101 25.2898 26.8236 25.1865C26.7371 25.0832 26.6741 24.9628 26.6387 24.8335C26.2261 25.445 25.657 25.938 24.9891 26.2624C24.4133 26.4967 24.0271 26.3392 23.673 25.7784C22.9894 26.3455 22.1872 26.9267 21.4407 27.4676C21.2567 27.6009 21.076 27.7318 20.9014 27.8594C20.7539 27.9645 20.6106 27.9991 20.4842 28C20.2159 28.002 19.9999 27.7975 19.9999 27.4688C20.0029 27.3358 20.1111 27.0606 20.1874 26.8924C20.8624 25.4219 21.7203 24.0867 22.5879 22.7365C22.8705 22.2967 23.1542 21.8553 23.4328 21.4071C24.3705 19.8706 25.2614 18.6296 26.3392 17.1814H26.3353ZM28.238 21.1842C28.5142 20.6273 27.8878 20.489 27.3314 20.8385C26.7665 21.1775 26.2596 21.6027 25.8296 22.0985C25.1371 22.9397 24.4446 23.9807 24.2734 25.0332C24.1489 25.8014 24.608 25.8975 25.0826 25.4941C25.8467 24.8655 26.5035 24.1197 27.028 23.2854C27.4737 22.6104 27.8765 21.9086 28.2341 21.1842H28.238ZM12.8289 23.9188C13.6707 23.2604 14.3711 22.7126 15.3207 22.1469C16.9384 21.1855 18.7075 20.3748 20.3522 19.8906C20.0741 20.3543 19.7998 20.7631 19.5278 21.1687L19.5278 21.1687L19.5278 21.1687C19.2133 21.6375 18.9018 22.1018 18.5908 22.6415C18.247 23.2447 17.9242 23.8503 17.6002 24.458L17.6002 24.458L17.6002 24.458L17.6002 24.4581L17.6002 24.4581C17.2434 25.1274 16.8853 25.7991 16.4965 26.4728C16.3424 26.745 16.5753 27 16.8187 26.9999C16.9335 27.0024 17.0505 26.9505 17.1306 26.8211C17.5822 26.0312 17.9338 25.3129 18.3161 24.5319L18.3161 24.5319L18.3161 24.5319L18.3162 24.5317C18.3957 24.3691 18.4766 24.2039 18.56 24.0347C18.6637 23.987 18.7673 23.9396 18.8708 23.8923L18.8714 23.892L18.8714 23.892C20.1142 23.3237 21.3386 22.7638 22.4027 21.8508C22.9931 21.3187 23.6731 20.6965 23.6731 19.9779C23.6731 19.086 22.3765 19 21.7232 19C21.7741 18.8807 21.9978 18.4247 22.0645 18.312C22.16 18.1035 21.9779 18 21.7994 18.0003C21.6977 18.0039 21.597 18.0452 21.5496 18.1274C21.4189 18.3538 21.0849 18.8985 20.9158 19.1563C18.8754 19.6717 16.6387 20.6526 14.6713 21.8438C13.43 22.5819 12.2579 23.5253 11.1668 24.4377C11.0585 24.5281 10.9989 24.6287 11 24.7202C10.9993 24.8772 11.1073 25 11.2657 25C11.3697 25.0035 11.4641 24.9439 11.554 24.8871C11.5826 24.8691 11.6108 24.8513 11.6386 24.8359C12.0817 24.5032 12.4682 24.2009 12.8288 23.9189L12.8289 23.9188L12.8289 23.9188ZM19.144 23.1221C19.7657 21.9003 20.4119 20.7067 21.3271 19.625L21.4062 19.6183C21.9267 19.5737 22.6052 19.5156 22.9062 19.9141C22.963 19.9911 22.9989 20.0753 22.9999 20.1643C22.9999 20.6354 22.3068 21.2386 21.8433 21.6069C21.061 22.2478 20.146 22.7614 19.144 23.1221ZM40.0568 22.0169C40.4825 21.7952 40.8899 21.5831 41.2549 21.4389C42.1819 21.0804 43.1382 20.7834 44.1158 20.5506C45.3391 20.2472 46.7365 20 47.8482 20C48.3805 20 48.6507 20.0539 49.0725 20.1379C49.2665 20.1766 49.4925 20.2216 49.7908 20.2708C49.9101 20.2939 49.9984 20.3944 50 20.5C49.9965 20.631 49.8537 20.7475 49.7031 20.7324C47.7419 20.3684 46.1798 20.6035 44.3469 21.0472C43.1042 21.3818 41.8876 21.7872 40.7051 22.2608C40.3288 22.4053 39.9229 22.6446 39.5031 22.892C38.7289 23.3483 37.9078 23.8323 37.14 23.8C36.7051 23.8 36.3417 23.4503 36.1627 23.0268C35.8243 23.3753 35.42 23.6699 34.9674 23.8976C34.7858 23.974 34.5958 24 34.414 23.9994C33.7951 24.0002 33.4225 23.579 33.4234 22.9743C33.4225 22.1506 33.9752 21.3474 34.6048 20.6695C35.2408 19.9002 36.3462 19 37.386 19.0002C37.6689 18.9961 37.9872 19.0367 38.2254 19.1731C38.3997 19.0584 38.5443 19.0011 38.6552 19C38.9196 18.9973 38.9919 19.2651 38.8151 19.4844C38.3365 20.0445 37.8782 20.6241 37.4191 21.2047L37.419 21.2048L37.386 21.2466C37.0037 21.6893 36.2276 22.9885 37.307 23C38.1514 23.009 39.1462 22.491 40.0568 22.0169ZM36.0269 22.0272L36.0269 22.0272C35.7906 22.3452 35.6107 22.5873 35.1251 23.0625C34.7039 23.4297 34.02 23.3793 34.0001 22.8675C33.9814 22.3879 34.3395 21.8934 34.6436 21.4733L34.7039 21.3899C35.008 20.9929 35.3755 20.6336 35.7956 20.3224C36.1595 19.9962 36.601 19.7398 37.0906 19.5701C37.493 19.4514 37.9831 19.6175 37.6803 19.9971C37.3947 20.3453 37.1155 20.6813 36.8336 21.0206L36.8325 21.0218L36.8323 21.0221C36.6702 21.2172 36.5072 21.4134 36.3415 21.6136C36.2152 21.7738 36.117 21.9059 36.027 22.027L36.0269 22.0271L36.0269 22.0272Z" fill="#00ACED"/>
</svg>
