<!-- by TradingView --><svg width="56" height="56" viewBox="0 0 56 56" xmlns="http://www.w3.org/2000/svg"><path fill="#F0F3FA" d="M0 0h56v56H0z"/><path d="M22.9 43.5c-.48.83-2.39.6-4.26-.5-1.87-1.1-3-2.67-2.53-3.5.47-.83 2.38-.6 4.25.5s3 2.67 2.53 3.5Z" fill="#005597"/><path d="M21.44 42.7c-.27.5-1.36.36-2.43-.3-1.07-.66-1.72-1.6-1.45-2.1s1.36-.36 2.43.3c1.07.66 1.72 1.6 1.45 2.1Z" fill="#0D3F4D"/><path d="M12.23 32.93c0 .84.38 1.6.58 1.88.4.9 1.16 2.43.99 1.32-.21-1.4.5-2.55 2.01-2.55 1.52 0 4.03.24 7.57 2.55 3.53 2.3 5 4.88 5 6.5 0 1.28-1.07 1.89-1.6 2.03.19.11.83.33 1.85.33 1.29 0 2.65-.51 2.65-2.05 0-2.22-3.5-5.87-6.54-7.94-3.04-2.07-7.23-3.87-9.32-3.87-2.1 0-3.19.75-3.19 1.8ZM40.95 34.08c.95.03 2.9-.26 3.04-1.6 0-.15.02-.3.01-.48-.06-1.85-1.54-5.39-10.9-11.65-6.4-4.28-11.38-5.36-14.18-5.35-.78 0-1.4.1-1.81.22-.8 1.32-1.96 3.91-.22 3.68 2.19-.29 4.06-1.18 13.74 4.26 7.75 4.34 10.1 9.09 10.32 10.92Z" fill="#005597"/><path d="M29.08 27.12c-10.7-6.36-15.72-5.48-16.89-4.24-.98 1.28-.53 5.31.35 4.24 2.34-2.93 9.9-.74 15.08 2.51 8.13 5.4 9.09 10.26 8.55 12 1-.13 3.16-.58 3.72-1.24.98-3.53-5.1-9.56-10.81-13.27Z" fill="url(#a)"/><path d="M36.59 15.3a21.53 21.53 0 0 0-11.6-4.04c-1.9.38-2.5 3.28-1.06 3.17 1.43-.1 4.84-.05 10.3 3.63 4.38 2.94 6.75 6.3 7.38 7.62l1.39.57 1.32-2.87c-.69-1.43-3.23-4.82-7.73-8.09Z" fill="#005597"/><path d="M41.8 20.13c-.9 1.56-4.69.97-8.44-1.3-3.76-2.29-6.07-5.4-5.16-6.96.9-1.56 4.69-.97 8.44 1.3 3.76 2.29 6.07 5.4 5.16 6.96Z" fill="url(#b)"/><path d="M31.33 22.52c5.43 3.31 11.27 3.79 12.58 1.52.15-.26.25-.55.29-.88.88 1.88 1.06 3.57.41 4.7-1.62 2.78-8.8 2.2-15.48-1.88-5.66-3.45-9.18-8.3-9.13-11.4.04-2.56 2.85-3.28 5-3.3-.7.44-1.02 1.3-1 2.1.05 2.52 2.8 6.38 7.33 9.14Z" fill="url(#c)"/><path d="M38.9 16.5c-.48.83-2.39.6-4.26-.5-1.87-1.1-3-2.67-2.53-3.5.47-.83 2.38-.6 4.25.5s3 2.67 2.53 3.5Z" fill="#005597"/><path d="M44 32.45c-2.7 3.11-10.37 2.06-17.46-2.52-7.05-4.56-11.1-10.96-9.43-14.7a5.23 5.23 0 0 0-2.31 1.91c-.55.85-.8 1.83-.8 2.91.02 4.15 3.92 9.65 10.12 13.66C28.55 36.57 33.24 38 36.95 38c2.84 0 5.11-.8 6.26-2.58.56-.86.8-1.87.79-2.97Z" fill="url(#d)"/><path d="M11 25.98c0-1.82.8-2.82 1.2-3.1-.08.2-.24.85-.24 1.79 0 4.48 6.58 10.35 10.4 12.73 3.83 2.37 8.31 4.24 12.3 4.24 3.18 0 4.81-.84 5.23-1.25-1.76 3.2-5.63 3.6-8.2 3.6-2.58 0-6.67-1.42-10.95-4.06C11.64 34.25 11 28.24 11 25.98Z" fill="url(#e)"/><path d="M18.54 42.09c3.43 2.57 8.14 3 10.07 2.9-5.76-1.24-5.89-1.86-9.29-3.87-2.77-1.64-5.67-4.94-6.7-6.52a18.97 18.97 0 0 0 5.92 7.49Z" fill="url(#f)"/><defs><linearGradient id="a" x1="12.35" y1="23.07" x2="40.07" y2="40.79" gradientUnits="userSpaceOnUse"><stop offset=".15" stop-color="#005597"/><stop offset=".48" stop-color="#00A7E9"/><stop offset=".85" stop-color="#005597"/></linearGradient><linearGradient id="b" x1="28.57" y1="11.85" x2="42.15" y2="20.16" gradientUnits="userSpaceOnUse"><stop stop-color="#00ADEF"/><stop offset="1" stop-color="#0084CD"/></linearGradient><linearGradient id="c" x1="20" y1="13.04" x2="44.61" y2="27.61" gradientUnits="userSpaceOnUse"><stop stop-color="#00ADEF"/><stop offset="1" stop-color="#0074BD"/></linearGradient><linearGradient id="d" x1="14.74" y1="16.8" x2="43.35" y2="35.79" gradientUnits="userSpaceOnUse"><stop stop-color="#00ADEF"/><stop offset="1" stop-color="#006CB7"/></linearGradient><linearGradient id="e" x1="11" y1="24.05" x2="38.51" y2="42.31" gradientUnits="userSpaceOnUse"><stop stop-color="#00ADEF"/><stop offset="1" stop-color="#006EB8"/></linearGradient><linearGradient id="f" x1="12.62" y1="34.94" x2="27.87" y2="44.63" gradientUnits="userSpaceOnUse"><stop stop-color="#01ACEE"/><stop offset="1" stop-color="#0285CB"/></linearGradient></defs></svg>