<!-- by TradingView --><svg xmlns="http://www.w3.org/2000/svg" width="56" height="56" viewBox="0 0 56 56"><path fill="#F0F3FA" d="M0 0h56v56H0z"/><path d="M44 28.16V28a16 16 0 1 0-31.89 1.92c2.48 2.85 11.22 5.01 18.33 2.18A73.85 73.85 0 0 1 44 28.16z" fill="#FED106"/><path d="M15.27 37.7a15.96 15.96 0 0 1-2.44-4.6c3.87 2.06 11.82 3.02 19.19-.3 6.21-2.8 10.49-3.93 11.97-4.17-.03.6-.08 1.2-.17 1.79-1.32-.4-4.32.9-6.43 1.81l-.76.33-8.5 3.72c-6 2.41-10.5 2.12-12.86 1.42z" fill="#F58D2C"/><path d="M22.02 42.84a16 16 0 0 1-4.34-2.61c3.1-.15 8.6-1.23 15-4.79 7.69-4.28 10.54-4.87 11.07-4.63a15.9 15.9 0 0 1-.44 1.85c-1.19.13-3.91 1.1-10.33 4.98-5.2 3.13-9.1 4.66-10.96 5.2z" fill="#34B4E3"/><path d="M43.08 33.36a16 16 0 0 1-18.84 10.2c1.83-.74 4.93-2.33 9.48-5.37 5.9-3.93 8.52-4.85 9.36-4.83z" fill="#09436B"/></svg>