<!-- by TradingView --><svg width="56" height="56" viewBox="0 0 56 56" xmlns="http://www.w3.org/2000/svg"><path fill="#F0F3FA" d="M0 0h56v56H0z"/><path d="M16 33H9v4H6V25h10v8Zm6-5h-2v5h-3v-8h5v3Zm4 5h-3v-8h3v8Zm14 0h-3v-5h-2v5h-3v-5h-2v5h-3v-8h13v8Zm10 0h-9v-8h7v-1H27v-1.5l1.15-1.5H50v12Zm-7-3h5v-2h-5v2ZM9 30h5v-2H9v2Zm14-7.5V24H6v-3h15.87L23 22.5Z" fill="url(#a)"/><path d="m25 18 2 2.5-2 2.5-2-2.5 2-2.5Z" fill="#023656"/><defs><linearGradient id="a" x1="20.4" y1="20.98" x2="20.4" y2="37.5" gradientUnits="userSpaceOnUse"><stop offset=".43" stop-color="#DE473F"/><stop offset=".45" stop-color="#DA221E"/></linearGradient></defs></svg>