<!-- by TradingView --><svg width="56" height="56" viewBox="0 0 56 56" xmlns="http://www.w3.org/2000/svg"><path fill="#F0F3FA" d="M0 0h56v56H0z"/><path fill-rule="evenodd" d="M39.45 13h-22.9A2.61 2.61 0 0 0 14 15.66v24.68c0 1.5 1.17 2.66 2.55 2.66h22.9A2.61 2.61 0 0 0 42 40.34V15.66c0-1.5-1.17-2.66-2.55-2.66Zm-22.9-1A3.6 3.6 0 0 0 13 15.66v24.68A3.6 3.6 0 0 0 16.55 44h22.9A3.6 3.6 0 0 0 43 40.34V15.66A3.6 3.6 0 0 0 39.45 12h-22.9Z" fill="#017FC6"/><path d="M29.47 16.14c0 .82-.61 1.49-1.37 1.49-.75 0-1.36-.67-1.36-1.49 0-.46.19-.87.5-1.14-2.41.45-4.24 2.72-4.24 5.46a5.46 5.46 0 0 0 4.01 5.41 1.5 1.5 0 0 0-.47 1.46 5.08 5.08 0 0 0-7.26-1.04 5.62 5.62 0 0 0-1.8 6.76c.03-.42.24-.82.6-1.09a1.36 1.36 0 0 1 1.96.3 1.5 1.5 0 0 1-.37 2.02c-.36.27-.79.34-1.18.24a5.1 5.1 0 0 0 6.73.4 5.61 5.61 0 0 0 1.77-6.81 1.5 1.5 0 0 0 2.02 0 5.61 5.61 0 0 0 1.77 6.82 5.1 5.1 0 0 0 6.73-.4c-.39.1-.82.02-1.18-.25a1.5 1.5 0 0 1-.37-2.02 1.36 1.36 0 0 1 1.96-.3c.36.27.57.67.6 1.09a5.62 5.62 0 0 0-1.8-6.76 5.08 5.08 0 0 0-7.26 1.04 1.5 1.5 0 0 0-.43-1.42c2.37-.47 4.17-2.73 4.17-5.45 0-2.74-1.82-5.01-4.23-5.46.3.27.5.68.5 1.14ZM16.98 39.88h-.67v-.4h.67c.11 0 .2-.03.28-.07.07-.05.12-.1.16-.19a.67.67 0 0 0 .05-.26c0-.1-.02-.19-.05-.27a.44.44 0 0 0-.16-.2.48.48 0 0 0-.28-.08h-.54V41H16v-3h.98c.2 0 .36.04.5.12.14.08.25.2.32.34s.11.3.11.5c0 .19-.04.35-.1.49a.75.75 0 0 1-.33.32c-.14.07-.3.11-.5.11ZM19.37 38.4 18.6 41h-.47l.97-3h.3l-.03.4ZM20 41l-.77-2.6-.03-.4h.3l.96 3h-.46Zm-.04-1.11v.4h-1.4v-.4h1.4ZM23 38v3h-.4l-1.14-2.15V41H21v-3h.46l1.15 2.15V38H23ZM24.45 38v3H24v-3h.45ZM27.44 38v3h-.45l-1.15-2.15V41h-.44v-3h.44L27 40.15V38h.44ZM30.94 39.64h-.64v-.37h.55c.1 0 .18-.02.24-.05a.35.35 0 0 0 .16-.15.49.49 0 0 0 .05-.23c0-.1-.02-.18-.05-.25a.29.29 0 0 0-.15-.13.63.63 0 0 0-.25-.05h-.42V41H30v-3h.85c.14 0 .26.02.37.05.1.03.2.08.27.15.08.06.14.15.18.25a.99.99 0 0 1-.02.7.62.62 0 0 1-.21.25c-.1.06-.22.1-.36.11l-.14.13ZM30.92 41h-.75l.19-.41h.56c.1 0 .18-.02.24-.06.07-.04.12-.1.15-.16a.57.57 0 0 0 .05-.25c0-.1-.01-.18-.04-.25a.33.33 0 0 0-.14-.17.44.44 0 0 0-.24-.06h-.49v-.37h.64l.1.14c.13 0 .25.04.34.1a.6.6 0 0 1 .2.27c.04.1.06.22.06.35a1 1 0 0 1-.1.48.69.69 0 0 1-.3.3c-.13.06-.29.09-.47.09ZM33.52 38.4l-.75 2.6h-.45l.94-3h.29l-.03.4Zm.62 2.6-.75-2.6-.03-.4h.3l.94 3h-.46Zm-.03-1.11v.4h-1.36v-.4h1.36ZM37 38v3h-.44l-1.12-2.15V41H35v-3h.44l1.12 2.15V38H37ZM38.45 38v3H38v-3h.44Zm1.5 0-1.01 1.44-.58.74-.08-.52.42-.6.73-1.06h.52Zm-.46 3-.83-1.42.3-.35L40 41h-.51Z" fill="#017FC6"/></svg>