<!-- by TradingView --><svg width="56" height="56" viewBox="0 0 56 56" xmlns="http://www.w3.org/2000/svg"><path fill="#F0F3FA" d="M0 0h56v56H0z"/><path fill-rule="evenodd" d="M39.63 42.48A35.3 35.3 0 0 0 46 22.58C41.58 16.57 35.04 12.26 28 10c-7.04 2.26-13.58 6.57-18 12.58 0 7.42 2.59 14.77 6.96 20.71 0 0 1.9.72 11.04.71a82.56 82.56 0 0 0 10.08-.49 5.14 5.14 0 0 0 .96-.22l.59-.81Zm-1.2-.04A34.41 34.41 0 0 0 45 22.9c-4.2-5.6-10.35-9.66-17-11.86-6.65 2.2-12.8 6.26-17 11.86a34.4 34.4 0 0 0 6.56 19.5l.04.02c.29.06.78.14 1.56.23 1.57.17 4.3.35 8.84.34 4.54 0 7.32-.18 8.93-.35.74-.08 1.22-.16 1.5-.21Z" fill="#ED1C24"/><path fill-rule="evenodd" d="M28 41a13 13 0 1 0 0-26 13 13 0 0 0 0 26Zm0 1a14 14 0 1 0 0-28 14 14 0 0 0 0 28Z" fill="#ED1C24"/><path fill-rule="evenodd" d="M29.55 18A4.6 4.6 0 0 0 25 22.64V31h-1v-6h-4v7h5v5h4v-5h7v-9.36A4.6 4.6 0 0 0 31.45 18h-1.9ZM32 31v-7.92c0-.6-.47-1.08-1.06-1.08h-.88c-.59 0-1.06.48-1.06 1.08V31h3Z" fill="#ED1C24"/><circle cx="22" cy="22" r="2" fill="#ED1C24"/></svg>