<!-- by TradingView --><svg width="56" height="56" viewBox="0 0 56 56" xmlns="http://www.w3.org/2000/svg"><path fill="#F0F3FA" d="M0 0h56v56H0z"/><path fill-rule="evenodd" d="M28 45a17 17 0 1 0 0-34 17 17 0 0 0 0 34Zm0-2a15 15 0 1 0 0-30 15 15 0 0 0 0 30Z" fill="#B87A42"/><path fill-rule="evenodd" d="M36.47 22.96c.4-.64.46-1.5.12-2.4.88.78.48 2.3-.14 3.13-.35.48-.68.83-1 1.08-1.93 1.46-4 2.5-6.45 3.4A62.18 62.18 0 0 1 18.12 31a.15.15 0 0 0-.05.15l.04.07c.58.59 1.06.64 1.92.43a67.52 67.52 0 0 0 9.18-2.88c2.6-1.06 10.04-4.29 7.93-8.22.56.54.8 1.12.64 1.98-.52 2.72-3.84 4.58-6.26 5.7a57.57 57.57 0 0 1-10.57 3.62c-.31.08-.31.14.01.18.43.06.92.1 1.46.12.34.01.8-.08 1.4-.28a62.66 62.66 0 0 0 9.36-3.98 13.19 13.19 0 0 0 3.97-3.06c.64-.75 1-1.63 1.09-2.63a4.4 4.4 0 0 0-.24-1.65c1.13 1.58.4 3.72-.79 5a13.25 13.25 0 0 1-3.8 2.78c-2.72 1.4-5.81 2.7-9.27 3.93-.32.11-.34.26-.06.45l.14.1a.62.62 0 0 0 .58.05c3.72-1.43 7-2.98 9.82-4.63 2.02-1.19 3.9-2.92 4.42-5.2.2-.89 0-1.74-.47-2.48.6.69.97 1.28.93 1.93-.15 2.56-2 4.5-4.2 5.86a70.32 70.32 0 0 1-10.39 5.02.16.16 0 0 0-.08.08.16.16 0 0 0 0 .12 2.96 2.96 0 0 1-.1 2.24A3.6 3.6 0 0 1 21.57 38c-.78 0-1.66-.28-2.26-.8-1.14-.97-1.1-2.03-.8-3.35.11-.47.02-.78-.27-.95a3.7 3.7 0 0 0-1.74-.3.52.52 0 0 0-.3.13.5.5 0 0 0-.17.28c-.22 1.22.7 3.05 1.4 4.08 1.2 1.78 3.08 2.61 5.22 2.85 3.09.35 5.64-.84 6.55-3.92l1.23-4.24a.65.65 0 0 1 .34-.4c2.33-1.12 4.81-2.46 6.78-4.17 2.28-1.98 4-6 .27-7.73a14.3 14.3 0 0 0-4.39-1.25c-3.79-.43-7.73-.38-11.18 1.2a5.7 5.7 0 0 0-2.1 1.48.64.64 0 0 0-.15.41c0 .68 1.25.68 1.77.68.9 0 1.82-.04 2.48-.73a6.48 6.48 0 0 1 2.3-1.63c.85-.33 2.16-.38 2.26.8.02.33-.1.99-.38 1.99-.4 1.42-.81 2.83-1.24 4.23a.21.21 0 0 1-.15.15c-1.36.4-2.59.69-3.7.85-.77.11-2.35.06-1.8-1.12.58-1.25 2.4-2.3 3.57-2.86.62-.3.6-.36-.08-.2-2.65.62-6.84 2.42-7.46 5.44a.15.15 0 0 0 .04.14.16.16 0 0 0 .14.04c4.51-.52 8.9-1.47 12.8-3.03a18.42 18.42 0 0 0 3.74-2.02c1.04-.72 2.7-2.37 1.29-3.5 1.67.96.42 2.8-.66 3.61-1.44 1.09-3.2 2-5.26 2.73a43.6 43.6 0 0 1-5.23 1.53c-2.44.53-4.65.9-6.63 1.12-.25.03-.34.16-.3.39l.07.35c.04.22.18.31.4.27l1.22-.21c.68-.11 1.41-.23 2.03-.37 4.3-.99 8.57-2.23 12.42-4.41a7.8 7.8 0 0 0 2.83-2.6Zm-3.54-1.66L32 24.97a.03.03 0 0 0 0 .02.02.02 0 0 0 .03.01c.5-.04 1.5-.9 1.9-1.26.48-.4 1.33-1.47 1-2.2-.3-.63-1.13-.56-1.68-.5h-.02c-.16 0-.26.1-.3.26Z" fill="#B87A42"/></svg>