<!-- by TradingView --><svg width="56" height="56" viewBox="0 0 56 56" xmlns="http://www.w3.org/2000/svg"><path fill="#F0F3FA" d="M0 0h56v56H0z"/><path d="M8 18h2v19h36V18h2v21H8V18Z" fill="#97C73F"/><path d="M32 19v5.94c0 .67.87 1.06 1.49 1.06.48 0 1.2-.2 1.51-.3l-.26-1.13c-.08.04-.3.12-.58.12-.42 0-.67-.37-.67-.56V19H32ZM28.5 26c-1.49 0-2.5-.97-2.5-2.5 0-1.54 1.05-2.5 2.54-2.5 1.48 0 2.46 1 2.46 2.5 0 1.51-1.03 2.5-2.5 2.5Zm.02-1.15c.69 0 1.03-.32 1.03-1.35s-.34-1.37-1.03-1.37c-.86 0-1.07.64-1.07 1.37 0 .73.22 1.35 1.07 1.35ZM22.5 26c-1.49 0-2.5-.97-2.5-2.5 0-1.54 1.05-2.5 2.54-2.5 1.48 0 2.46 1 2.46 2.5 0 1.51-1.03 2.5-2.5 2.5Zm.02-1.15c.69 0 1.03-.32 1.03-1.35s-.34-1.37-1.03-1.37c-.86 0-1.07.64-1.07 1.37 0 .73.22 1.35 1.07 1.35ZM14 28v-7h1.5v.95c.16-.66.84-.95 1.45-.95C18.4 21 19 22.1 19 23.45S18.33 26 16.84 26c-.7 0-1.13-.38-1.34-1.04V28H14Zm2.52-3.17c.83 0 1.2-.66 1.2-1.33s-.37-1.26-1.18-1.26c-.82 0-1.04.67-1.04 1.33 0 .65.22 1.26 1.02 1.26ZM37.56 34c-.84 0-1.56-.38-1.56-1.28v-3.4h-1V29h1v-1h.41v1H38v.32h-1.59v3.37c0 .74.46 1 1.14 1h.21l.24-.02v.31l-.23.01-.21.01ZM32.58 33.67c.35 0 .61-.1.8-.27.2-.18.3-.42.3-.72s-.09-.54-.28-.72a2.34 2.34 0 0 0-.9-.46 2.73 2.73 0 0 1-1-.5c-.2-.21-.31-.48-.31-.83 0-.36.1-.64.33-.85.23-.21.55-.32.95-.32a1.8 1.8 0 0 1 1.32.6l-.2.25c-.17-.18-.35-.3-.55-.39-.19-.08-.39-.13-.58-.13-.3 0-.52.07-.7.21-.17.15-.26.35-.26.62 0 .26.09.46.27.61a3 3 0 0 0 .88.4c.45.15.79.34 1.01.58.23.23.34.54.34.92 0 .42-.13.75-.39.98-.26.23-.6.35-1.04.35a2 2 0 0 1-1.57-.77l.22-.25a1.74 1.74 0 0 0 1.37.7ZM29 27.7c0-.1.03-.17.1-.23.06-.07.14-.1.23-.1.1 0 .17.03.23.1.07.06.1.14.1.23 0 .1-.03.17-.1.24a.31.31 0 0 1-.23.1.34.34 0 0 1-.24-.1.34.34 0 0 1-.09-.24ZM29.37 29H29v5h.37v-5ZM27.62 29H28l-1.87 5h-.4L24 29h.38l1.55 4.55 1.7-4.55ZM22.64 33.24c-.42.44-1.02.76-1.68.76-1.43 0-1.96-1.3-1.96-2.56 0-1.25.53-2.55 1.96-2.55.63 0 1.25.3 1.68.76V27H23v7h-.36v-.76Zm-1.63.42c.63 0 1.25-.37 1.63-.85v-2.73c-.38-.49-1-.85-1.63-.85-1.05 0-1.65.72-1.65 2.21s.6 2.22 1.65 2.22ZM14 32.48c0-1 .95-1.48 1.83-1.48.76 0 1.34.2 1.79.56v-.82c0-.99-.5-1.4-1.55-1.4-.55 0-1.05.18-1.51.55l-.26-.25a2.9 2.9 0 0 1 1.84-.64c1.06 0 1.86.54 1.86 1.66V34h-.38v-.66c-.41.39-1.02.66-1.79.66-.89 0-1.83-.53-1.83-1.52Zm1.89-1.15c-.72 0-1.49.33-1.49 1.15 0 .82.76 1.19 1.49 1.19.66 0 1.24-.25 1.73-.68v-1.06c-.5-.42-1.08-.6-1.73-.6ZM40 32.48c0-1 .95-1.48 1.83-1.48.76 0 1.34.2 1.79.56v-.82c0-.99-.5-1.4-1.55-1.4-.55 0-1.05.18-1.51.55l-.26-.25a2.9 2.9 0 0 1 1.84-.64c1.06 0 1.86.54 1.86 1.66V34h-.38v-.66c-.41.39-1.02.66-1.79.66-.89 0-1.83-.53-1.83-1.52Zm1.89-1.15c-.72 0-1.49.33-1.49 1.15 0 .82.76 1.19 1.49 1.19.66 0 1.24-.25 1.73-.68v-1.06c-.5-.42-1.08-.6-1.73-.6Z" fill="#22317D"/></svg>