<!-- by TradingView --><svg width="56" height="56" viewBox="0 0 56 56" xmlns="http://www.w3.org/2000/svg"><path fill="#F0F3FA" d="M0 0h56v56H0z"/><path fill-rule="evenodd" d="m15.5 24-.81-2.37-2.13 1.28.88-2.34-2.44-.4 2.16-1.23-1.62-1.9 2.46.47V15l1.5 1.95L17 15v2.51l2.46-.47-1.62 1.9L20 20.17l-2.44.4.88 2.34-2.13-1.28L15.5 24Zm1.37-2.98-.99-.6-.38 1.1-.38-1.1-1 .6.42-1.1-1.14-.18 1-.58-.75-.88 1.14.22-.02-1.18.73.91.73-.9-.02 1.17 1.14-.22-.76.88 1.01.58-1.14.18.41 1.1Z" fill="#383838"/><path d="M48.39 30.34 46.29 27h1.31l1.45 2.37L50.58 27h1.31l-2.19 3.34L52 34h-1.28l-1.69-2.68L47.3 34H46l2.39-3.66ZM39 27v4.14c0 .96.4 1.86 1.5 1.86s1.5-.9 1.5-1.86V27h1v4.43A2.5 2.5 0 0 1 40.5 34a2.5 2.5 0 0 1-2.5-2.57V27h1ZM24 27v6h2v1h-3v-7h1ZM32 27v6h2v1h-3v-7h1ZM12 30.47c0-1.9 1.62-3.47 3.52-3.47S19 28.61 19 30.51a3.5 3.5 0 1 1-7-.04Zm1 .01a2.5 2.5 0 1 0 5 .04 2.5 2.5 0 0 0-5-.04ZM6 31v3H5v-7h1.22C7.58 27 9 27.41 9 29.07 9 30.44 7.84 31 6.58 31H6Zm0-1h.48c.99 0 1.52-.2 1.52-.94C8 28.34 7.45 28 6.43 28H6v2Z" fill="#383838"/></svg>