<!-- by TradingView --><svg width="56" height="56" viewBox="0 0 56 56" xmlns="http://www.w3.org/2000/svg"><path fill="#F0F3FA" d="M0 0h56v56H0z"/><path d="M25.6 11c-1.98 0-4.53 1.3-4.6 1.3l2.26.54c.59-.23 1.53-.68 2.13-.68.6 0 .61.45.61.68v2c0 .77.76 1.25 1.42 1.63l1.58.9V20c0 1-.8 1-.99 1-.57 0-1.01-.34-1.01-1v-2.63l-.6-1.02c-.16.05-.33.43-.4.61v3.36c0 .93 1.13 1.68 2.05 1.68 1.2 0 1.95-.75 1.95-1.68V17.6c0-.8-.8-1.3-1.49-1.7L27 14.97V12.7c0-1.44-.8-1.71-1.4-1.71ZM30.54 11c1.97 0 2.78.9 2.78.9l.68 1.56c-.59-.23-2.66-1.24-3.25-1.24-.6 0-.75.68-.75.9v1.73c0 .39-.15.76-.42 1.04l-.58-.91V12.7c0-1.44.93-1.71 1.54-1.71Z" fill="#E45B0E"/><path d="M41.77 38.84c1.33-1.45 2.18-4.16 2.23-4.21l-1.9 1.26c-.24.6-.57 1.5-.98 1.95-.4.44-.73.11-.88-.06l-1.36-1.35c-.52-.56-1.35-.36-2.06-.15l-1.69.5-1.78-1.94c-.68-.74-.14-1.33-.01-1.46.39-.42.92-.5 1.37-.01l1.78 1.93 1.1.33c.07-.17-.07-.57-.14-.76l-2.28-2.47a1.29 1.29 0 0 0-.92-.4 2.17 2.17 0 0 0-1.61.66c-.41.45-.62.95-.64 1.43-.02.47.14.91.45 1.25l1.85 2c.54.6 1.42.37 2.17.17l1.64-.44 1.54 1.54c.47.52.89.7 1.24.68.37 0 .66-.22.88-.45Z" fill="#53A8DB"/><path d="M38.22 42.05c-1.34 1.45-2.5 1.38-2.5 1.38l-1.52-.65c.56-.26 2.64-1.04 3.05-1.48.4-.44.05-1.05-.1-1.22l-1.17-1.27a1.65 1.65 0 0 1-.43-1.08l1.02.25 1.53 1.67c.98 1.06.53 1.95.12 2.4Z" fill="#53A8DB"/><path d="M14.3 17.08c-1.34 1.42-2.22 4.1-2.27 4.15l1.9-1.23c.25-.6.6-1.49 1-1.92.4-.43.72-.1.87.07l1.34 1.36c.5.57 1.34.37 2.04.18l1.68-.47 1.75 1.94c.66.74.12 1.32-.01 1.46-.39.4-.92.47-1.36-.01l-1.74-1.95-1.09-.33c-.08.15.06.56.13.75l2.23 2.48c.24.26.56.39.9.4.58.04 1.23-.22 1.62-.63.41-.44.62-.93.65-1.4a1.7 1.7 0 0 0-.44-1.25l-1.8-2.01c-.54-.6-1.41-.38-2.16-.2l-1.64.41-1.5-1.55c-.47-.52-.88-.7-1.22-.69-.37 0-.67.21-.88.44ZM18.14 13.72c1.34-1.41 2.49-1.34 2.49-1.34l1.5.67c-.55.26-2.63 1-3.04 1.43-.4.43-.06 1.04.1 1.21l1.13 1.28c.26.29.41.67.41 1.07l-1-.26-1.5-1.67c-.96-1.07-.5-1.94-.09-2.38Z" fill="#D82D18"/><path d="M17 41.67c1.4 1.37 4.08 2.28 4.13 2.33l-1.21-1.93c-.6-.26-1.49-.6-1.91-1.02-.43-.42-.1-.73.07-.88l1.39-1.33c.57-.51.39-1.35.2-2.06l-.45-1.7 1.97-1.74c.75-.67 1.32-.11 1.46.02.4.4.47.93-.03 1.37l-1.97 1.74-.35 1.09c.16.08.57-.05.76-.13l2.52-2.22c.26-.23.4-.56.42-.9.04-.59-.21-1.24-.62-1.64a2.24 2.24 0 0 0-1.4-.67c-.47-.03-.92.12-1.26.43l-2.05 1.8c-.6.53-.4 1.41-.22 2.17l.4 1.66-1.58 1.5c-.52.46-.7.87-.7 1.22 0 .37.2.67.42.9ZM13.63 37.77c-1.4-1.37-1.32-2.53-1.32-2.53l.7-1.5c.24.56.97 2.66 1.4 3.08.42.41 1.04.07 1.2-.08l1.3-1.14c.3-.26.69-.4 1.09-.4l-.27 1-1.7 1.5c-1.09.96-1.96.5-2.4.07Z" fill="#5D17A0"/><path d="M38.71 14.16c-1.48-1.3-4.22-2.11-4.27-2.16l1.31 1.88c.6.23 1.52.55 1.97.95.45.4.13.72-.04.88l-1.33 1.38c-.55.52-.33 1.36-.1 2.06l.52 1.68-1.9 1.81c-.73.7-1.33.16-1.47.03-.43-.38-.52-.9-.04-1.36l1.9-1.81.3-1.1c-.15-.08-.56.07-.75.15l-2.43 2.31c-.26.24-.37.57-.38.92-.01.59.27 1.22.7 1.6.45.41.96.6 1.43.62.47.01.92-.15 1.25-.47l1.97-1.88c.59-.55.34-1.42.13-2.17L37 17.84l1.51-1.56c.51-.48.68-.9.66-1.24a1.26 1.26 0 0 0-.47-.88Z" fill="#F7C600"/><path d="M42.07 17.8c1.48 1.32 1.44 2.47 1.44 2.47l-.63 1.54c-.27-.55-1.1-2.63-1.54-3.02-.45-.4-1.05-.04-1.22.12l-1.25 1.19c-.28.27-.67.43-1.07.44l.23-1.02 1.64-1.56c1.04-.99 1.94-.56 2.4-.15Z" fill="#F7C600"/><path d="M45 25.6c0-1.97-1.21-4.53-1.21-4.6l-.54 2.26c.22.6.6 1.53.6 2.13 0 .6-.46.61-.7.61h-1.91c-.77 0-1.24.76-1.62 1.42L38.7 29H36c-1 0-1-.8-1-.99 0-.57.34-1.01 1-1.01h2.71l1.03-.6c-.06-.15-.44-.33-.62-.4h-3.44c-.35 0-.67.16-.94.4a2.37 2.37 0 0 0-.74 1.65c0 .6.19 1.1.5 1.43.3.33.72.52 1.18.52h2.8c.8 0 1.3-.8 1.71-1.49l.92-1.51h2.18c.7 0 1.12-.19 1.37-.45.27-.28.34-.64.34-.95ZM45 30.54c0 1.97-.9 2.78-.9 2.78l-1.56.68c.23-.59 1.24-2.66 1.24-3.25 0-.6-.68-.75-.9-.75h-1.73c-.39 0-.76-.15-1.04-.42l.92-.58h2.26c1.44 0 1.71.93 1.71 1.54Z" fill="#096D2D"/><path d="M11 29.4c0 1.98 1.21 4.53 1.21 4.6l.54-2.26c-.22-.59-.6-1.53-.6-2.13 0-.6.46-.6.7-.6h1.91c.77 0 1.24-.76 1.62-1.43L17.3 26H20c1 0 1 .8 1 1 0 .56-.34 1-1 1h-2.71l-1.03.6c.06.16.44.34.62.4h3.44c.35 0 .67-.16.94-.4.45-.42.74-1.07.74-1.64 0-.6-.19-1.1-.5-1.44-.3-.33-.72-.52-1.18-.52h-2.8c-.8 0-1.3.8-1.71 1.49L14.89 28h-2.18c-.7 0-1.12.19-1.37.45-.27.28-.34.64-.34.96ZM11 24.46c0-1.97.9-2.78.9-2.78l1.56-.68c-.23.6-1.24 2.66-1.24 3.26 0 .6.68.74.9.74h1.73c.39 0 .76.16 1.04.42l-.92.58h-2.26c-1.44 0-1.71-.93-1.71-1.54Z" fill="#DB0783"/><path d="M30.8 45c2.1 0 4.81-1.28 4.89-1.28l-2.53-.8c-.62.22-2 .67-2.64.67-.64 0-.52-.45-.52-.68V38.5c0-.94-.57-1.63-.86-1.9L27 34.22v-6.44c0-.19.33-.78.98-.78.65 0 1.02.6 1.02.78v6.44l-.4.84.82 1.03c.17-.06.5-1.26.58-1.44v-7c0-.91-.76-1.65-2.05-1.65-1.3 0-1.95.74-1.95 1.65v6.79c0 .4.17.78.48 1.06L29 38.2v5.12c0 1.41 1.15 1.68 1.8 1.68Z" fill="#3135A0"/><path d="M25.2 45c-2.08 0-2.92-.87-2.92-.87l-.72-1.75c.63.22 3.02 1.2 3.65 1.2.63 0 .79-.44.79-.66v-4.43c0-.48.38-1.58.86-1.85l.75.96-.61 1.1v4.62c0 1.41-1.15 1.68-1.8 1.68Z" fill="#3135A0"/></svg>