<!-- by TradingView --><svg width="56" height="56" viewBox="0 0 56 56" xmlns="http://www.w3.org/2000/svg"><path fill="#F0F3FA" d="M0 0h56v56H0z"/><path d="M11 27a16.96 16.96 0 0 1 4.41-10.45L16.87 18a14.9 14.9 0 0 0-3.8 8.99H11ZM18 16.87l-1.45-1.46A16.96 16.96 0 0 1 27 11v2.08a14.9 14.9 0 0 0-9 3.79ZM29 42.92a14.9 14.9 0 0 0 9-3.8l1.45 1.47A16.96 16.96 0 0 1 29 45v-2.08ZM39.13 38l1.46 1.45A16.96 16.96 0 0 0 45 29h-2.08a14.9 14.9 0 0 1-3.8 9ZM16.55 40.59A16.96 16.96 0 0 0 27 45v-2.08a14.9 14.9 0 0 1-9-3.8l-1.45 1.47ZM15.41 39.45l1.46-1.46a14.9 14.9 0 0 1-3.8-8.99H11a16.96 16.96 0 0 0 4.41 10.45ZM39.45 15.41A16.96 16.96 0 0 0 29 11v2.08a14.9 14.9 0 0 1 9 3.79l1.45-1.46ZM39.13 18l1.46-1.45A16.96 16.96 0 0 1 45 27h-2.08a14.9 14.9 0 0 0-3.79-9Z" fill="#234390"/><path fill-rule="evenodd" d="M18 21.38V21h5.3c2.6 0 4.7 2.24 4.7 5 0 2.35-1.8 5-4 5a3.9 3.9 0 0 1-3-1.44v5.25c0 .45.48.81.93.81h.35V36H18v-.38h.3c.45 0 .7-.36.7-.8V22.18c0-.45-.25-.81-.7-.81H18Zm3 3.17c0-1.41 1.12-2.55 2.5-2.55s2.5.7 2.5 2.1v3.75c0 1.4-1.12 2.15-2.5 2.15a2.52 2.52 0 0 1-2.5-2.55v-2.9ZM29 21.38V21h5.3c2.6 0 4.7 2.24 4.7 5 0 2.35-1.8 5-4 5a3.9 3.9 0 0 1-3-1.44v5.25c0 .45.48.81.93.81h.35V36H29v-.38h.3c.45 0 .7-.36.7-.8V22.18c0-.45-.25-.81-.7-.81H29Zm3 3.17c0-1.41 1.12-2.55 2.5-2.55s2.5.7 2.5 2.1v3.75c0 1.4-1.12 2.15-2.5 2.15a2.52 2.52 0 0 1-2.5-2.55v-2.9Z" fill="#234390"/></svg>