<!-- by TradingView --><svg width="56" height="56" viewBox="0 0 56 56" xmlns="http://www.w3.org/2000/svg"><path fill="#F0F3FA" d="M0 0h56v56H0z"/><path d="M29 14.44c-2.82 4.3-4.25 7.45-4.1 15.1-.3 1.63-.67 3.24-1.1 4.83-.99 3.57-1.92 8.32-3.53 14.27A59.6 59.6 0 0 1 19.5 51c-.19-.15.28-2.02.32-2.3l.01-.06c.16-.35.22-.63.2-.85-.05-.5-.13-.5-.23-.02l-.06.33c-.01.07-.03.12-.07.15l-.07.04a.1.1 0 0 1-.08-.03.13.13 0 0 1-.04-.07c-.08-.42-.04-.77.13-1.06a.38.38 0 0 0 .06-.2v-.36c-.01-.24-.06-.25-.15-.04-.23.57-.39 1.14-.47 1.7a.33.33 0 0 1-.1.2c-.2.2-.32.46-.37.8-.01.1-.05.1-.12.04-.08-.08-.1-.21-.08-.4 1.27-8.42 2.53-19.16 4.53-32.21.18-1.2.6-2.42 1.23-3.62.39-.72 1.24-1.85 2.04-2 .21-.04.61-.05 1.2-.03 1.22.03 1.64 2.44 1.62 3.43Z" fill="#78BB45"/><path d="M38.49 29.6a8.4 8.4 0 0 0 2.48-5.35C41.38 19 37.6 14 32.17 14c-.7 0-1.41.07-2.14.19a9.57 9.57 0 0 0-7 8.57c-.17 2.56.6 4.9 2.32 7.01 1 1.07 2.04 1.8 3.13 2.22.96.37 1.94.7 2.92.98a.7.7 0 0 0 .8-.3c.05-.08.09-.17.1-.27l.23-1.16c.33-1.35-.3-1.97-1.52-2.17-3.03-.52-4.8-3.27-4.88-6.07a6.57 6.57 0 0 1 6.57-6.65c3.6 0 6.43 2.9 6.73 6.43.02.24.03.48.02.72a7.51 7.51 0 0 1-2.84 5.46c-.77.52-1.66.86-2.66 1.03a.18.18 0 0 0-.16.13c-.17.57-.08.98.28 1.24.07.05.1.12.07.2a.8.8 0 0 1-.03.11.2.2 0 0 1-.05.07c-.24.22-.2.3.11.23a8.23 8.23 0 0 0 4.32-2.38Z" fill="#F03B28"/><path d="M21.99 17.9c-.02.1-.05.2-.1.3-.07.12-.14.2-.25.27l-.36-.16c.11-.04.2-.1.28-.2a.58.58 0 0 0 .14-.29c.01-.1 0-.18-.04-.24a.26.26 0 0 0-.18-.11c-.08-.01-.14 0-.2.05a.6.6 0 0 0-.1.14l-.14.24-.11.16a.56.56 0 0 1-.2.15.48.48 0 0 1-.28.03.57.57 0 0 1-.28-.12.54.54 0 0 1-.16-.25.65.65 0 0 1-.03-.33 1 1 0 0 1 .1-.3c.05-.1.13-.18.22-.24l.36.16c-.1.04-.19.1-.26.17a.52.52 0 0 0-.12.27.3.3 0 0 0 .04.22c.04.06.09.1.15.1.06.01.1 0 .15-.03a.37.37 0 0 0 .13-.14l.14-.24c.02-.05.06-.1.11-.16a.5.5 0 0 1 .5-.2c.18.03.31.12.4.26.09.14.12.3.09.49ZM21.7 19.7l-1.2.7-.75-.87.06-.4.73.85 1.24-.73-.07.45Zm-.2 1.27-3.1-.51.06-.35 3.1.5-.06.36ZM21.04 22.87a1.03 1.03 0 0 1-.65.81.96.96 0 0 1-.53.06.97.97 0 0 1-.48-.22 1.06 1.06 0 0 1-.21-1.37c.06-.11.15-.2.24-.29l.43.18a.71.71 0 0 0-.48.56c-.03.12-.01.24.03.36a.7.7 0 0 0 .53.43.71.71 0 0 0 .64-.24c.08-.1.13-.2.15-.33a.67.67 0 0 0-.05-.39.68.68 0 0 0-.23-.29l.46-.04a1.14 1.14 0 0 1 .15.77ZM20.59 26.37a1.03 1.03 0 0 1-.65.8.98.98 0 0 1-.53.06.98.98 0 0 1-.48-.22 1.06 1.06 0 0 1-.14-1.47 1.03 1.03 0 0 1 .96-.37c.18.03.34.1.48.23a1.03 1.03 0 0 1 .36.97Zm-.33-.06a.67.67 0 0 0-.24-.64.67.67 0 0 0-.33-.14.69.69 0 1 0 .14 1.32c.1-.05.2-.12.28-.21.08-.1.13-.2.15-.33ZM20.14 29.05l-1.94-.32.05-.32.36.05a.79.79 0 0 1-.27-.74l.37-.03a.48.48 0 0 0-.05.14c-.02.18.01.33.1.46.1.13.26.22.47.25l.96.16-.05.35ZM19.98 35.9l-2.9-.47.05-.33.25.05a.99.99 0 0 1 .05-1.2.99.99 0 0 1 .41-.3.98.98 0 0 1 .53-.04 1.02 1.02 0 0 1 .78.63.97.97 0 0 1-.3 1.13l1.19.19-.06.35Zm-1.1-1.17a.64.64 0 0 0-.04-.35.7.7 0 0 0-.53-.42.65.65 0 0 0-.35.03c-.12.04-.21.1-.29.2a.63.63 0 0 0-.15.32c-.02.12 0 .24.04.35.05.11.11.2.2.29.1.07.2.12.33.14a.69.69 0 0 0 .64-.23c.08-.1.13-.2.15-.33ZM19.88 31.55c-.04.21-.12.4-.25.56a1.1 1.1 0 0 1-.45.35 1.07 1.07 0 0 1-1.44-1.2 1.08 1.08 0 0 1 .66-.83.96.96 0 0 1 .54-.06l.15.03-.24 1.37a2.59 2.59 0 0 1-.09.37c.19 0 .35-.05.5-.17a.78.78 0 0 0 .27-.49.82.82 0 0 0-.21-.7l.43-.04a1.2 1.2 0 0 1 .13.8Zm-1.37.56c0-.13.01-.26.04-.39l.11-.7.04-.15.03-.15c-.16 0-.3.06-.43.18a.7.7 0 0 0-.14.9c.09.14.2.25.35.3ZM18.86 37.97a.94.94 0 0 1-.22.47c-.11.13-.25.23-.41.3a1 1 0 0 1-.53.04 1 1 0 0 1-.7-1.5c.07-.11.16-.2.26-.28l-.25-.04.05-.32 1.93.32-.05.32-.25-.04a1.01 1.01 0 0 1 .17.73Zm-.31-.1a.64.64 0 0 0-.04-.35.7.7 0 0 0-.53-.43.65.65 0 0 0-.36.04c-.1.04-.2.1-.28.2a.63.63 0 0 0-.15.32c-.02.12 0 .24.04.35.05.11.11.2.2.28.1.08.2.13.33.15a.69.69 0 0 0 .64-.23c.08-.1.13-.2.15-.33ZM18.9 42l-2.9-.48.05-.32.26.04a.99.99 0 0 1-.17-.73c.03-.18.1-.34.21-.47a.99.99 0 0 1 .42-.3.98.98 0 0 1 .52-.04 1.02 1.02 0 0 1 .78.63c.07.15.08.32.05.5a.97.97 0 0 1-.36.62l1.2.2-.06.35Zm-1.1-1.17a.64.64 0 0 0-.03-.35.7.7 0 0 0-.54-.43.65.65 0 0 0-.35.03c-.11.05-.2.11-.29.2a.62.62 0 0 0-.14.32.7.7 0 0 0 .24.63c.1.08.2.13.33.15.12.02.24.01.35-.03.11-.04.2-.11.29-.2.07-.1.12-.2.14-.32Z"/></svg>