<!-- by TradingView --><svg width="56" height="56" viewBox="0 0 56 56" xmlns="http://www.w3.org/2000/svg"><path fill="#F0F3FA" d="M0 0h56v56H0z"/><path fill-rule="evenodd" d="M32.63 30h3.74l.66 1.65c.1.26.29.36.47.35.25-.01.5-.24.5-.54a.62.62 0 0 0-.05-.24c-.87-2.16-1.7-4.33-2.58-6.48-.2-.5-.47-.74-.87-.74s-.61.23-.82.74l-2.63 6.48a.62.62 0 0 0-.05.24c0 .3.25.53.5.54.18 0 .37-.1.47-.35l.66-1.65Zm1.87-5-1.39 4h2.78l-1.39-4ZM45.63 30h3.74l.66 1.65c.1.26.29.36.47.35.25-.01.5-.24.5-.54a.62.62 0 0 0-.05-.24c-.87-2.16-1.7-4.33-2.58-6.48-.2-.5-.47-.74-.87-.74s-.61.23-.82.74l-2.63 6.48a.62.62 0 0 0-.05.24c0 .3.25.53.5.54.18 0 .37-.1.47-.35l.66-1.65Zm1.87-5-1.39 4h2.78l-1.39-4Z" fill="#005B7E"/><path d="M41.38 31.98c-.25-.07-.38-.33-.38-.62v-2.49l-2.93-4.14a.48.48 0 0 1-.07-.23c0-.27.23-.5.5-.5.17 0 .34.08.48.28l2.52 3.34 2.52-3.34c.14-.2.31-.28.47-.28a.5.5 0 0 1 .51.5c0 .08-.02.16-.07.23L42 28.87v2.49c0 .29-.13.55-.38.62a.22.22 0 0 1-.12.02h-.03c-.03 0-.06 0-.09-.02ZM29.3 24c.39 0 .7.34.7.74v6.61c0 .35-.18.65-.5.65s-.5-.3-.5-.65v-5.62l-2.38 3.92A.74.74 0 0 1 26 30a.74.74 0 0 1-.62-.35L23 25.73v5.62c0 .35-.18.65-.5.65s-.5-.3-.5-.65v-6.6c0-.41.31-.75.7-.75.24 0 .42.13.54.3L26 28.78l2.76-4.48c.12-.17.3-.3.55-.3ZM15.13 28.89l1.75 2.25c.08.12.12.24.12.35a.5.5 0 0 1-.5.51c-.15 0-.31-.09-.45-.28L14 29h-2v2.35c0 .35-.09.65-.41.65-.32 0-.59-.3-.59-.65v-6.67c0-.44.22-.68.62-.68h2.6c1.8 0 2.78 1.17 2.78 2.51a2.4 2.4 0 0 1-1.87 2.38ZM12 25v3h2.51c.98 0 1.49-.65 1.49-1.49S15.49 25 14.51 25H12ZM7.22 24c1.8 0 2.78 1.04 2.78 2.5S9.01 29 7.22 29H5v2.35c0 .35-.18.65-.5.65s-.5-.3-.5-.65v-6.67c0-.43.22-.68.62-.68h2.6Zm0 4C8.5 28 9 27.34 9 26.5S8.5 25 7.22 25H5v3h2.22ZM19 24.5c0-.38.22-.5.5-.5s.5.12.5.5v7c0 .38-.22.5-.5.5s-.5-.12-.5-.5v-7Z" fill="#005B7E"/></svg>