<!-- by TradingView --><svg width="56" height="56" viewBox="0 0 56 56" xmlns="http://www.w3.org/2000/svg"><path fill="#F0F3FA" d="M0 0h56v56H0z"/><path d="M44 37.25V18.58L28.03 9l-3.62 2.17 16 28.33L44 37.25Z" fill="url(#a)"/><path d="M12 37.3V18.65L28.03 9l3.61 2.17-16 28.33L12 37.3Z" fill="url(#b)"/><path d="m31.64 11.17-3.61 6.4-3.62-6.4 3.6-2.16.02-.01.2.12 3.41 2.05Z" fill="#033E36"/><path d="m28.19 46.87-.16.13-.03-.02-.03.02-.16-.13L12 37.31V34h32v3.3l-15.81 9.57Z" fill="url(#c)"/><path d="m18.75 34-3.1 5.5-3.51-2.1-.14-.1V34h6.75Z" fill="#885943"/><path d="M44 37.25V34h-6.7l3.1 5.49.79-.48L44 37.25Z" fill="#414123"/><defs><linearGradient id="a" x1="24.41" y1="24.25" x2="44" y2="24.25" gradientUnits="userSpaceOnUse"><stop stop-color="#018369"/><stop offset="1" stop-color="#05AAA2"/></linearGradient><linearGradient id="b" x1="31.64" y1="24.25" x2="12.05" y2="24.25" gradientUnits="userSpaceOnUse"><stop stop-color="#786147"/><stop offset="1" stop-color="#BD885C"/></linearGradient><linearGradient id="c" x1="35" y1="40.59" x2="12" y2="40.59" gradientUnits="userSpaceOnUse"><stop stop-color="#8D876D"/><stop offset=".5" stop-color="#B7A38C"/></linearGradient></defs></svg>