<!-- by TradingView --><svg width="56" height="56" viewBox="0 0 56 56" xmlns="http://www.w3.org/2000/svg"><path fill="#5E94A4" d="M0 0h56v56H0z"/><path d="M24.8 20.65c.66 0 .8.86 1.13 1.27L26 22h4v6.45c0 1.4 1.22 2.55 2.73 2.55h8.46a24.73 24.73 0 0 1-5.64 5.96c-5.82 4.44-12.7 6-17.55 4.46v-6.07c.64 1.02 1.52 1.65 2.5 1.65 1.93 0 3.5-2.46 3.5-5.5a8.5 8.5 0 0 0-.13-1.5h2.63c.83-.1 2.5-.93 2.5-3.38 0-3.06-2.1-3.06-3.23-3.38-1.13-.31-2.77-.34-2.77-1.44 0-1.1 1.47-1.15 1.8-1.15Zm5.2-4.57V19h-6.82A3.45 3.45 0 0 0 21 22.22c0 2.44 2.75 3.07 3.8 3.3 1.05.24 2.2.4 2.2 1.26s-.9 1.5-1.88 1.5a5.6 5.6 0 0 1-2.07-.55C22.41 26.67 21.51 26 20.5 26c-.98 0-1.86.63-2.5 1.65V26h-2v14.53a8.19 8.19 0 0 1-2.1-1.77c-4.17-4.95-1.24-13.77 6.55-19.72a24.28 24.28 0 0 1 11.42-4.9L30 16.08ZM20 28c1.1 0 2 1.57 2 3.5s-.9 3.5-2 3.5-2-1.57-2-3.5.9-3.5 2-3.5Zm12-13.88c4.18-.5 7.91.51 10.1 3.12 2.34 2.77 2.45 6.75.72 10.76H32v-6h2v-3h-2v-4.88Z" fill="#FAFAF9"/></svg>