<!-- by TradingView --><svg width="56" height="56" viewBox="0 0 56 56" xmlns="http://www.w3.org/2000/svg"><path fill="#F0F3FA" d="M0 0h56v56H0z"/><path d="M35.13 13c4.17 0 6.32 2.4 6.87 3.6-4.3-2.94-10.34-.35-16.57 5.98-6.22 6.34-7.13 11.65-7.13 13.96 0 1.85.86 3.74 1.28 4.46A9.88 9.88 0 0 1 16 33.5c0-5.29 3.47-9.9 6.42-13.1 2.94-3.22 7.5-7.4 12.71-7.4Z" fill="#235E64"/><path d="M9 24.88c0 4.2 4.57 9.96 7 12.12-1.66-1.92-4.69-6.58-4.69-10.08 0-4.85 4.44-5.9 6.63-5.66.33-.62.14-1.56-3.04-1.65-3.97-.11-5.9 2.22-5.9 5.27ZM47 24.88c0 4.2-4.51 9.96-6.94 12.12 1.65-1.92 4.68-6.58 4.68-10.08 0-4.85-4.44-5.9-6.62-5.66-.34-.62-.15-1.56 3.03-1.65 3.98-.11 5.85 2.22 5.85 5.27Z" fill="#37BFBF"/><path d="M20.87 13c-4.17 0-6.32 2.4-6.87 3.6 4.3-2.94 10.34-.35 16.57 5.98 6.22 6.34 7.13 11.65 7.13 13.96 0 1.85-.86 3.74-1.28 4.46A9.88 9.88 0 0 0 40 33.5c0-5.29-3.47-9.9-6.42-13.1-2.94-3.22-7.5-7.4-12.71-7.4Z" fill="#96C93E"/><path d="M28 47a5.2 5.2 0 0 1-5.31-7c.88 2.44 3.9 3.18 5.31 3.25 1.42-.07 4.43-.81 5.31-3.25.94 1.95.13 7-5.31 7Z" fill="#37BFBF"/><path d="M39.4 18c4 0 6.07 2.4 6.6 3.6-4.14-2.94-9.94-.35-15.93 5.98-5.99 6.34-6.86 11.65-6.86 13.96 0 1.85.83 3.74 1.24 4.46A10.02 10.02 0 0 1 21 38.5c0-5.29 3.34-9.9 6.17-13.1C30 22.17 34.39 18 39.4 18Z" fill="#235E64"/><path d="M16.6 18c-4 0-6.07 2.4-6.6 3.6 4.14-2.94 9.94-.35 15.93 5.98 5.99 6.34 6.86 11.65 6.86 13.96 0 1.85-.83 3.74-1.24 4.46A10.02 10.02 0 0 0 35 38.5c0-5.29-3.34-9.9-6.17-13.1C26 22.17 21.61 18 16.6 18Z" fill="#96C93E"/></svg>