<!-- by TradingView --><svg width="56" height="56" viewBox="0 0 56 56" xmlns="http://www.w3.org/2000/svg"><path fill="#F0F3FA" d="M0 0h56v56H0z"/><path d="M41.14 17.24c-3.07-3.74-7.17-5.82-12.3-6.24h-1.66c-9.13.83-15.66 7.36-16.18 16.58v.74a17.02 17.02 0 0 0 30.1 10.54 17.01 17.01 0 0 0 .04-21.62Zm-2.39 9.52c.39-.6.11-1.08-.44-1.41a50.44 50.44 0 0 0-3.02-1.71 1.23 1.23 0 0 0-1.15.01l-12.66 6.89c-.18.1-.36.1-.54 0l-.78-.46c-.16-.1-.15-.18 0-.27l11.88-6.46a.86.86 0 0 0 .45-.85.87.87 0 0 0-.1-.32c-.11-.21-.3-.39-.56-.53l-3.02-1.7a1.13 1.13 0 0 0-1.12.02l-13.13 7.86a.36.36 0 0 1-.38 0 .38.38 0 0 1-.18-.34c.12-2.8 1-5.35 2.66-7.6 7.46-10.18 23.3-6.3 25.23 6.33.03.21-.02.28-.16.21l-.7.09c-.24.03-.46.1-.66.23l-12.4 7.41a.58.58 0 0 1-.62 0l-.64-.37c-.21-.12-.21-.24 0-.36l11.74-6.39a.82.82 0 0 0 .3-.28Zm-21.53 2.6c-.38.62-.1 1.09.44 1.43 1.02.62 2.03 1.2 3.02 1.71a1.23 1.23 0 0 0 1.16-.01l12.68-6.89c.18-.1.36-.1.54 0l.77.46c.16.1.16.18 0 .27l-11.9 6.46a.86.86 0 0 0-.44.85c.01.11.05.22.1.32.11.21.3.4.56.54l3.02 1.7a1.13 1.13 0 0 0 1.12-.03l13.15-7.85a.37.37 0 0 1 .56.34c-.12 2.8-1 5.35-2.67 7.61-7.48 10.18-23.33 6.3-25.25-6.36-.03-.2.02-.28.16-.2l.7-.1c.24-.03.46-.1.66-.23l12.41-7.4c.21-.13.42-.13.63-.01l.64.37c.22.13.22.25 0 .36L17.52 29.1a.82.82 0 0 0-.3.28Z" fill="#ED1E30"/></svg>