<!-- by TradingView --><svg width="56" height="56" viewBox="0 0 56 56" xmlns="http://www.w3.org/2000/svg"><path fill="#F0F3FA" d="M0 0h56v56H0z"/><path d="M34.82 24.37c-5.44-4.04-11.28-4.3-13.52-3.93 1.43-6.22 4-9.04 7.38-9.04 3.37 0 6.9 3.88 10.21 8.81C43.57 27.16 44 31.98 44 33.47c0 1.19-.7 2.54-1.06 3.06.47-3.32-1.31-7.11-8.12-12.16Z" fill="url(#a)"/><path d="M27.63 11c.68 0 1.41.25 1.7.38-3.95-.59-8.36 4.66-8.36 14.02 0 7.48 2.16 11.53 3.2 12.58-.72.36-2.82 1-5.15 1-5.09 0-6.72-2.82-6.9-4.24-.4-1.4-.04-6.16 4.68-14.05C22.7 10.83 26.78 11 27.63 11Z" fill="url(#b)"/><path d="M27.16 42c-12.6 0-15.32-5.1-15.1-7.66.77 4.72 7.34 6.2 15.42 2.28 6.46-3.14 9.68-7.75 10.47-9.67 4.81 4.15 5.36 7.8 5.04 9.1-.03 1.99-3.23 5.95-15.83 5.95Z" fill="url(#c)"/><defs><linearGradient id="a" x1="23.45" y1="17.85" x2="43.95" y2="33.44" gradientUnits="userSpaceOnUse"><stop stop-color="#549754"/><stop offset=".09" stop-color="#599F49"/><stop offset=".35" stop-color="#73B84E"/><stop offset=".51" stop-color="#9FCD6B"/><stop offset="1" stop-color="#B8D0A0"/></linearGradient><linearGradient id="b" x1="20.66" y1="11" x2="20.66" y2="38.99" gradientUnits="userSpaceOnUse"><stop stop-color="#D6EEEE"/><stop offset=".3" stop-color="#CBECFB"/><stop offset=".69" stop-color="#77C8DB"/><stop offset="1" stop-color="#10719E"/></linearGradient><linearGradient id="c" x1="41.53" y1="33.71" x2="16.78" y2="42.5" gradientUnits="userSpaceOnUse"><stop stop-color="#283A86"/><stop offset=".58" stop-color="#50ACDF"/><stop offset="1" stop-color="#47B4D3"/></linearGradient></defs></svg>