<!-- by TradingView --><svg width="56" height="56" viewBox="0 0 56 56" xmlns="http://www.w3.org/2000/svg"><path fill="#F0F3FA" d="M0 0h56v56H0z"/><path d="M32.22 36.79c.04.14-.02.21-.17.21h-6.88a.15.15 0 0 1-.1-.04.14.14 0 0 1-.05-.1c-.31-4.4 3.07-7.5 6.93-9.05l.76-.28c.68-.24 1.44-.51 1.99-.86 2.57-1.65 3.8-4.6 4.01-7.5 0-.05.03-.1.06-.12a.18.18 0 0 1 .12-.05h5.96a.16.16 0 0 1 .1.05.15.15 0 0 1 .05.1 8.64 8.64 0 0 1-2.58 5.89 11.42 11.42 0 0 1-3.63 2.54 165 165 0 0 0-2.3 1c-3.43 1.54-5.35 4.47-4.27 8.21Zm-16.01 0c.04.14-.02.2-.17.2H9.17a.15.15 0 0 1-.1-.03.14.14 0 0 1-.05-.1c-.3-4.4 3.07-7.5 6.92-9.05l.76-.28c.68-.24 1.44-.52 1.99-.87 2.57-1.64 3.8-4.58 4-7.5 0-.04.03-.08.06-.11a.18.18 0 0 1 .13-.05h5.94a.16.16 0 0 1 .11.05.15.15 0 0 1 .04.1 8.64 8.64 0 0 1-2.57 5.89 11.38 11.38 0 0 1-3.63 2.54c-1.2.5-1.96.84-2.3 1-3.42 1.54-5.34 4.46-4.26 8.2Zm7.83.2c.15 0 .2-.06.16-.2-1.08-3.74.84-6.67 4.27-8.22l2.3-1c1.3-.54 2.5-1.39 3.63-2.53a8.64 8.64 0 0 0 2.57-5.94.15.15 0 0 0-.08-.09.16.16 0 0 0-.06-.01h-5.95a.18.18 0 0 0-.12.05.17.17 0 0 0-.06.11c-.21 2.92-1.44 5.86-4.01 7.5-.55.35-1.31.63-1.99.87l-.76.28c-3.86 1.56-7.24 4.64-6.93 9.06 0 .03.02.07.05.1.02.02.06.03.1.03h6.88Z" fill="#F4CC52"/></svg>