<!-- by TradingView --><svg xmlns="http://www.w3.org/2000/svg" width="56" height="56" viewBox="0 0 56 56"><path fill="#F0F3FA" d="M0 0h56v56H0z"/><path fill-rule="evenodd" d="M13.03 29c.23 3.43 1.6 6.54 3.75 8.96l-1.41 1.42c-2.5-2.79-4.11-6.4-4.34-10.38h2zm3.92-11.14A14.94 14.94 0 0 0 13.03 27h-2c.23-4.07 1.9-7.75 4.5-10.55l1.42 1.41zM27 13.03a14.93 14.93 0 0 0-8.6 3.45l-1.43-1.42A16.93 16.93 0 0 1 27 11.03v2zm10.96 3.75A14.94 14.94 0 0 0 29 13.03v-2c3.98.23 7.6 1.83 10.37 4.34l-1.41 1.41zm5 10.22a14.94 14.94 0 0 0-3.6-8.8l1.42-1.41A16.93 16.93 0 0 1 44.98 27h-2.01zm-3.44 10.6a14.93 14.93 0 0 0 3.45-8.6h2c-.22 3.82-1.7 7.3-4.03 10.03l-1.42-1.42zM29 42.98c3.51-.23 6.7-1.68 9.14-3.91l1.41 1.41A16.94 16.94 0 0 1 29 44.97v-2zm-2 0a14.94 14.94 0 0 1-8.8-3.6l-1.4 1.41a16.93 16.93 0 0 0 10.2 4.2v-2.01zM20.65 21H18v.38h.36c.42 0 .64.33.64.75v12.74c0 .42-.22.75-.64.75H18V36h4v-.38h-.2c-.42 0-.8-.33-.8-.75v-5.43a2.34 2.34 0 0 0 1.98 1.06h.37A4.58 4.58 0 0 0 28 26v-.5a4.57 4.57 0 0 0-4.42-4.5h-2.93zm.35 3.3a2.3 2.3 0 0 1 2.31-2.3h.38A2.3 2.3 0 0 1 26 24.3v2.9a2.3 2.3 0 0 1-2.31 2.3h-.38A2.3 2.3 0 0 1 21 27.2v-2.9zM27.97 45h.06-.06zM29 21h5.58A4.58 4.58 0 0 1 39 25.5v.5a4.6 4.6 0 0 1-4.68 4.5h-.38c-.8 0-1.52-.4-1.94-1v5.37c0 .42.38.75.8.75h.2V36h-4v-.38h.36c.42 0 .64-.33.64-.75V22.13c0-.42-.22-.75-.64-.75H29V21zm3 3.3v-.01A2.3 2.3 0 0 1 34.31 22h.38A2.3 2.3 0 0 1 37 24.3v2.9a2.3 2.3 0 0 1-2.31 2.3h-.38A2.3 2.3 0 0 1 32 27.21v-2.92z" fill="#1574B4"/></svg>