<!-- by TradingView --><svg width="56" height="56" viewBox="0 0 56 56" xmlns="http://www.w3.org/2000/svg"><path fill="#F0F3FA" d="M0 0h56v56H0z"/><path d="M24.91 22.54h.03l.01-.03a.04.04 0 0 0-.02-.05c-.46-.2-.92-.23-1.37-.1-.17.05-.38.25-.58.3a.22.22 0 0 1-.17-.04 1.9 1.9 0 0 0-1.74-.22c-.23.08-.22.13.02.17.5.08.88.23 1.15.46.21.18.18.25-.1.2-1.84-.34-3.14.29-3.9 1.88-.1.22-.05.25.14.1.79-.62 2.15-1.24 3.18-1.07.34.06.34.12 0 .18-2.21.43-3.02 1.58-3 3.73 0 .13.03.14.1.03a5.52 5.52 0 0 1 2.19-2.03c.44-.23.77-.3 1.01-.22.05.02.09.06.11.1l.4.86.03.15-.04.9v.03a.08.08 0 0 0 .07.05h.04l.06-.01c.08 0 .07.01-.01.03a.59.59 0 0 0-.09.03.16.16 0 0 0-.1.14l-.1 1.17c0 .08.03.12.11.13l.21.01c.05 0 .05.02.01.04a.46.46 0 0 1-.24.04.1.1 0 0 0-.07.03.1.1 0 0 0-.03.07l-.18 2.3c0 .07-.04.1-.1.1h-.84c-.06 0-.1.03-.1.09v5.83c0 .05-.02.08-.07.08h-6.86c-.02 0-.04 0-.05-.02a.06.06 0 0 1-.02-.05V18.06c0-.01 0-.03.02-.04a.06.06 0 0 1 .04-.01l7.82-.01c4.33.08 9.26 1.09 9.6 6.37.24 3.74-1.57 6.7-5.5 7.41-.84.15-1.53.22-2.07.22-.07 0-.11-.04-.12-.1l-.1-1.27c0-.05-.03-.09-.09-.1a.54.54 0 0 0-.19-.04h-.02l-.02-.03.01-.02.02-.02.18-.04c.07-.01.1-.05.09-.11l-.13-1.42a.1.1 0 0 0-.08-.1l-.08-.02c-.08-.03-.08-.06 0-.1 0-.01.02-.02.07-.03.07-.02.1-.07.1-.14l-.1-1.01c0-.07-.03-.1-.1-.11l-.07-.01c-.1-.02-.11-.04 0-.09l.12-.05c.06-.03.08-.07.07-.14-.05-.18-.01-.33.13-.43a.32.32 0 0 0 .1-.13l.25-.6c.03-.06.07-.1.14-.1.29-.01.58.06.87.22 1 .54 1.76 1.23 2.27 2.06.08.14.12.13.12-.03-.08-2.09-.75-3.28-3-3.7-.45-.09-.45-.16.02-.2a4.76 4.76 0 0 1 3.15 1.09c.17.13.21.1.12-.1-.76-1.64-2.1-2.26-4.03-1.88h-.04a.07.07 0 0 1-.04-.1c.22-.36 1-.56 1.38-.6Z" fill="#1E7557"/><path d="M37.47 23.88a1.78 1.78 0 0 0-1.36-1.43c-.83-.2-2.42-.29-2.95.46-.99 1.39 1.58 2.1 2.46 2.3 1.33.29 2.54.6 3.6.92 1.36.4 2.38.9 3.07 1.49a4.98 4.98 0 0 1 1.7 4.3c-.27 4.84-4.82 6.18-9.03 6.07-1.2-.02-2.23-.15-3.1-.36-2.72-.7-4.79-2.5-5.26-5.25-.02-.14.04-.38.19-.38h5.93c.07 0 .13.2.16.27.64 1.31 2.54 1.4 3.8 1.07.38-.1.66-.24.84-.43.79-.84.16-1.53-.68-1.92a9.74 9.74 0 0 0-1.8-.59 67.85 67.85 0 0 1-3.7-1 .1.1 0 0 1-.03-.08l.01-.04a9.55 9.55 0 0 0 .91-5.58 7.49 7.49 0 0 0-2.1-4.53c-.1-.11-.09-.2.06-.26.92-.4 1.88-.67 2.88-.78 2.4-.28 4.86-.15 7 .87a5.81 5.81 0 0 1 3.36 4.95l-.02.01-.03.04h-5.8c-.03 0-.06-.04-.07-.06a.1.1 0 0 1-.04-.06Z" fill="#81B943"/></svg>