<!-- by TradingView --><svg width="56" height="56" viewBox="0 0 56 56" xmlns="http://www.w3.org/2000/svg"><path fill="#F0F3FA" d="M0 0h56v56H0z"/><path d="M15.3 32.87h17.43a.14.14 0 0 0 .14-.14V15.04c1.7-.03 3.4-.05 5.12-.04.9.01 1.53.1 1.89.3.97.5 1.12 1.33 1.12 2.43v20.42a4 4 0 0 1-.31 1.86c-.38.66-1.03.99-1.95.99-7.48-.02-14.6-.02-21.37 0-1 0-1.7-.35-2.07-1.06-.2-.37-.3-1.04-.3-2.02l.01-4.87c0-.14.1-.2.28-.18Z"/><path d="M33 33.13c.03 0 .06-.01.09-.04a.13.13 0 0 0 .04-.1V15.47c0-.05.02-.09.05-.12a.17.17 0 0 1 .12-.05h4.88c1.82 0 2.56.53 2.56 2.33v20.33c0 .9-.07 1.5-.22 1.8-.3.65-.92.98-1.83.98H17.33c-.83 0-1.42-.28-1.75-.86-.2-.35-.3-.91-.3-1.7V33.3c0-.05.02-.09.05-.11a.16.16 0 0 1 .11-.05H33Z" fill="#FFDA00"/><path d="M32 22.9v-7.31l-.01-.47c0-.08-.05-.12-.12-.12H17.45c-1.12 0-1.85.4-2.21 1.23-.16.36-.24 1.1-.24 2.2v13.45c0 .08.04.12.11.12H22.92c.03 0 .04-.01.06-.03a.07.07 0 0 0 .02-.05v-8.8a.1.1 0 0 1 .03-.08c.02-.02.04-.04.07-.04h8.78c.08 0 .12-.03.12-.1ZM24.12 24h7.76c.07 0 .12.05.12.12v7.76c0 .07-.05.12-.12.12h-7.76a.12.12 0 0 1-.12-.12v-7.76c0-.07.05-.12.12-.12Z"/></svg>