<!-- by TradingView --><svg width="56" height="56" viewBox="0 0 56 56" xmlns="http://www.w3.org/2000/svg"><path fill="#F0F3FA" d="M0 0h56v56H0z"/><path fill-rule="evenodd" d="M49 24.04v7.92l-.01.03H9.65l-.01-.01a.04.04 0 0 1 0-.04l5.47-7.92.01-.02h33.84l.03.01.01.03Zm-33 4.52h.02l1.15.01c.71 0 1.36-.26 1.5-1.07.05-.34 0-.64-.16-.91-.26-.45-.9-.6-1.38-.59h-2.1c-.02 0-.03.02-.03.04v3.9c0 .02 0 .03.02.04l.04.02h.88c.01 0 .02 0 .03-.02.02-.01.03-.02.03-.04v-1.37a.03.03 0 0 1 0-.01Zm0-1.75v.91c0 .02.02.04.04.05h.02l.84-.01c.08 0 .15-.02.21-.04a.59.59 0 0 0 .18-.1c.06-.04.1-.1.12-.15a.36.36 0 0 0 .04-.17v-.1a.4.4 0 0 0-.17-.3.67.67 0 0 0-.4-.12h-.85l-.02.02v.01Zm6.05 1.53v-.76l-.03-.01h-1.98a.03.03 0 0 1-.02-.01l-.01-.01v-.01H20v-.71l.01-.02.03-.02H22.18V26l-.03-.01h-3.12l-.02.01v.01l-.01.02v3.92a.04.04 0 0 0 .01.03.03.03 0 0 0 .02.01h3.24l.03-.01v-.77h-2.26l-.02-.02-.02-.02v-.76l.01-.02.03-.02h1.98l.02-.01.01-.03ZM24.03 30h.93l.03-.01v-3.15l.02-.03.02-.01h1.4l.03-.01V26l-.03-.01h-3.87l-.03.01v.78h1.43l.03.02v3.15l.02.03.02.01Zm10.43-3.64a2.71 2.71 0 0 0-1.43-.36c-.52 0-.99.06-1.44.32-.55.31-.8 1.02-.8 1.65-.01.62.21 1.34.75 1.67.45.27.92.35 1.43.36.52 0 1-.06 1.45-.32.55-.31.79-1.02.8-1.65 0-.62-.21-1.34-.76-1.67Zm-1.62.39h.32c.46.01.83.45.83.98v.5c-.01.54-.4.97-.86.96h-.32c-.46 0-.83-.44-.83-.98v-.5c.02-.54.4-.97.86-.96Zm-3.17 1.3.09.04c.35.02.81.14.87.59l.02.14a4.77 4.77 0 0 0 .23 1.16l-.02.01H29.71l-.02-.03c-.04-.1-.07-.22-.09-.36l-.08-.73c-.04-.37-.34-.4-.6-.4a14.6 14.6 0 0 0-.85.02v1.47l-.01.03-.03.01h-1l-.02-.01-.01-.03V26.01l.02-.01h2.3c.62 0 1.44.24 1.4 1.1-.03.65-.52.82-1.03.9-.03 0-.04.02-.02.04Zm-1.6-1.25v-.02h.02l1.02-.01c.13 0 .25.04.34.12.1.07.14.18.14.29v.1c0 .05 0 .1-.03.15a.42.42 0 0 1-.1.14.5.5 0 0 1-.16.09.55.55 0 0 1-.19.03l-1.01.01h-.02v-.03l-.01-.87Zm14.5.8v.75l-.01.02h-1.92l-.03.02V29.2h2.35v-.01l1.5-3.17.02-.01h1.37l.01.01 1.82 3.92V30H46.52l-.01-.02-.35-.74v-.02h-2.11l-.01.02-.31.74-.01.01-.02.01H39.51l-.01-.03V26l.03-.01h3.18l.01.03v.75l-.03.01h-2.05l-.02.01-.01.03v.73h1.93l.02.02v.02Zm2.56-.66c.05 0 .09.05.13.15l.37.86.22.48a.04.04 0 0 1 0 .03l-.02.01h-.71a231.36 231.36 0 0 1-.72-.01.04.04 0 0 1 0-.04l.21-.48c.13-.26.26-.55.38-.85.04-.1.09-.15.14-.15ZM5.92 32h-.9L5 31.98a.04.04 0 0 1 0-.03L10.48 24h.02l.01-.01h.9l.01.02a.04.04 0 0 1 0 .03L5.94 32l-.02.01Zm2.76 0H6.87l-.01-.02a.04.04 0 0 1 0-.05l5.46-7.91a.04.04 0 0 1 .03-.02h1.8a.04.04 0 0 1 .03.02v.05l-5.46 7.91-.02.02h-.02Z" fill="#006950"/><path d="M36.47 27.1c-.01.26.37.39.56.42.65.12 1.18.18 1.65.48.22.14.32.48.33.74.04.58-.33.99-.87 1.13-.66.18-1.3.17-1.93 0-.56-.17-.85-.56-.85-1.18 0-.02.01-.03.03-.03h1.03c.02 0 .04 0 .04.03l.01.07c.02.64 1.46.69 1.44.08-.02-.29-.27-.35-.54-.4-.45-.1-.93-.16-1.35-.33-.39-.17-.58-.47-.59-.92 0-.62.45-.98 1-1.1.67-.15 1.27-.11 1.8.1.44.17.67.5.7 1l-.01.01h-.98l-.03-.01-.02-.03c-.12-.59-1.37-.7-1.42-.06Z" fill="#F0F3FA"/></svg>