<!-- by TradingView --><svg width="56" height="56" viewBox="0 0 56 56" xmlns="http://www.w3.org/2000/svg"><path fill="#F0F3FA" d="M0 0h56v56H0z"/><path fill-rule="evenodd" d="M36.47 14H19.53L13 21.17v13.66L19.53 42h16.94L43 34.83V21.17L36.47 14Zm-.56 1H20.09L14 21.64v12.69l6.1 6.65h15.8l6.1-6.65V21.65L35.9 15Zm-.63 1H20.64L15 22.14v11.72L20.64 40h14.64l5.64-6.14V22.14L35.28 16Zm-.5 1H21.22L16 22.63v10.74L21.22 39h13.56L40 33.37V22.63L34.78 17ZM21 29.53V27h1v1.31c.13.36.7 1 2 1.23v-2.48a.65.65 0 0 0-.65-.67h-.4V26h3.23l2.45 2.61c.3-.3.47-.68.47-1.12 0-1.34-1.18-1.9-2.77-2.14-1.6-.23-5.04-.86-5.04-3.56S24.2 18 26.67 18c2.47 0 3.72.58 3.72 1.55 0 .77-.86.96-1.3.96.1-.5-.57-1.37-2.5-1.37-1.94 0-3.3.65-3.3 1.78 0 1.12 1.56 2.08 3.12 2.08 1.55 0 4.59.63 4.59 3.86 0 1.3-.52 2.21-1.33 2.85L33 33.26v-6.2c0-.37-.3-.67-.68-.67h-.58V26h3.7v.4H35c-.38 0-.69.3-.69.66V38h-.66l-6.61-7.2c-.52.1-1.05.16-1.57.19v5.94c0 .37.3.67.69.67h.56v.4h-3.79v-.4h.4c.39 0 .66-.3.66-.67v-5.98c-1.76-.2-2.72-1-3-1.42Zm4.48.08.45-.02-.45-.49v.51Z" fill="#EE3439"/></svg>