<!-- by TradingView --><svg width="56" height="56" viewBox="0 0 56 56" xmlns="http://www.w3.org/2000/svg"><path fill="#D40019" d="M0 0h56v56H0z"/><path d="M42.65 21.4a.3.3 0 0 0 0 .3c1.77 3.97 1.8 8.47.1 12.49a15.92 15.92 0 0 1-8.2 8.47c-2.06.96-4.4 1.4-7.04 1.33-4.14-.1-7.7-1.61-10.68-4.52a16.1 16.1 0 0 1-4.6-14.02 16.07 16.07 0 0 1 19.84-12.94c.44.1.98.3 1.64.6.82.35 1.35.57 1.62.64.4.12 1.2-.06 1.6-.07 2.23-.03 4.9.27 6.38 1.78.68.7.49 3.3.33 4.44-.08.61-.75 1.07-.99 1.5Z"/><path d="M13.48 24.76c.06.08.2.12.43.13.8.03 1.62.03 2.47 0a.24.24 0 0 1 .22.13c.84 1.64 2.06 2.99 3.65 4.04a.5.5 0 0 1 .23.36 4.86 4.86 0 0 1-.4 2.86.17.17 0 0 0 .15.16l.53.04a.12.12 0 0 1 .1.1v.06a6.28 6.28 0 0 0-.46 2.5c0 .26-.01.5-.04.69-.02.08-.06.12-.14.12-1.15 0-3.14-.09-4.66.16a.4.4 0 0 1-.44-.22 15.13 15.13 0 0 1 5.38-20.96c3.95-2.38 9.03-2.49 13.28-.89.07.03.08.07.01.11a31.04 31.04 0 0 0-3.88 3.08 180.5 180.5 0 0 1-2.46 2.47c-1.21 1.17-2.76 1.28-4.42 1.15-.85-.07-1.82-.66-2.46-.86-1.72-.53-3.68-.05-4.15 1.84l-.2.92a.36.36 0 0 1-.33.28l-.92.05c-.04 0-.05.02-.05.06v.1c0 .03.03.06.07.06l1.1.08c.13 0 .2.08.2.2l.05.78a.13.13 0 0 1-.04.09.12.12 0 0 1-.08.04l-2.68.14c-.1 0-.12.05-.06.13Z" fill="#FFFE00"/><path d="M28.48 24.39c-3.44-.09-7.26-.08-11.46 0a.25.25 0 0 1-.26-.23l-.03-.49a.16.16 0 0 1 .16-.17l3.4-.18.01-.01v-.07c0-.03 0-.04-.03-.05l-3.48-.25a.14.14 0 0 1-.13-.1v-.05c.18-1.54.86-2.53 2.53-2.52.84 0 1.7.23 2.6.7.8.42 1.78.33 2.8.31 1.48-.02 2.48-.55 3.59-1.68l1.73-1.78a24 24 0 0 1 4-3.17c.15-.11.57-.26.79-.3.7-.09 1.3-.17 1.8-.25.47-.07.52.03.13.32a10.07 10.07 0 0 0-4.3 8.65 24.3 24.3 0 0 0 .43 4.03.16.16 0 0 1-.16.12l-5.67.06A16.65 16.65 0 0 0 23 28.84c-.66.43-1.25.92-1.79 1.46-.18.19-.28.15-.28-.11-.01-.35.18-1.03-.18-1.27a10.83 10.83 0 0 1-3.63-3.86.12.12 0 0 1 .12-.12 337.91 337.91 0 0 0 11.24-.55Z" fill="#FEFEFE"/><path d="M38.2 27.03a.21.21 0 0 1-.2.17h-4.7c-.06 0-.1-.04-.12-.1-.63-3.3-.77-6.38.86-9.3.1-.18.49-.68 1.15-1.5.6-.75 1.47-1.32 2.21-2.03.35-.34 1.08-.13 1.46-.11 1.17.06 2.32.4 3.46 1.04.47.26.77.55.88 1.13.18 1 .36 3.41-.45 4.26a47.33 47.33 0 0 0-3.47 4c-.56.74-.9 1.54-1.08 2.44Z" fill="#FEFEFE"/><path d="m39.16 27.18-.36-.03a.18.18 0 0 1-.13-.07.18.18 0 0 1-.03-.15c.15-.69.39-1.25.7-1.7a29.7 29.7 0 0 1 2.46-2.95.15.15 0 0 1 .19.09c.33.79.56 1.57.71 2.36.9 4.83-.04 9.04-2.84 12.63a15.08 15.08 0 0 1-12.63 5.78 15.22 15.22 0 0 1-11.69-6.61.1.1 0 0 1 .06-.1.1.1 0 0 1 .06-.01c1.47.22 3.72-.13 4.54-.19a.23.23 0 0 1 .24.19c.28 1.52.82 3.26 2.74 3.02 1.16-.15 1.7-1.1 2.42-1.87.06-.06.13-.1.2-.12a6.58 6.58 0 0 0 2.14-1H28a.11.11 0 0 1 .05.11c-.02.51-.02 1.08 0 1.71.07 1.91 1.68 3.72 3.72 3.03 1.18-.39 2-1.38 2.75-2.21a.3.3 0 0 1 .2-.1c2.94-.32 3.46-4.46 2.66-6.55a.2.2 0 0 1 .03-.22c.95-1.16 2.07-3.35 1.92-4.87 0-.1-.07-.17-.17-.18Z" fill="#FFFE00"/><path d="M23.3 30.52c-1.01.2-1.33.66-2.03 1.42a.3.3 0 0 1-.2.1c-.34.02-.45-.1-.3-.37.14-.28.26-.49.38-.63 1.24-1.57 2.78-2.33 4.8-3.03a5.76 5.76 0 0 1 1.89-.28c2.73 0 6.34-.05 10.85-.13a.25.25 0 0 1 .25.2v.1a9.23 9.23 0 0 1-1.88 4.08.2.2 0 0 1-.18.08h-2.44a.24.24 0 0 1-.2-.1c-.42-.56-.66-1.1-1.38-1.39-1.14-.45-2.48.07-3.21 1.02-.12.16-.25.28-.37.38a.33.33 0 0 1-.2.07h-3.15a.26.26 0 0 1-.24-.15c-.4-.86-1.47-1.55-2.4-1.37Z" fill="#29AFD6"/><path d="M33.99 39.06c-1.12 1.35-3.27 3.07-4.76 1.14a3.7 3.7 0 0 1-.77-1.88c-.21-2.01.09-3.89.9-5.62.58-1.25 1.96-2.2 3.39-1.74.99.32 1.54 2.31 1.6 3.22.1 1.25.1 2.53.01 3.86-.02.41-.15.75-.37 1.02ZM22.22 35.97a3.48 3.48 0 0 0-1.21.02.14.14 0 0 1-.1-.06 4.69 4.69 0 0 1 1.1-4.2c.8-.87 1.73-1.12 2.73-.38.4.29.7.77.76 1.24.13 1.19.12 2.47-.05 3.84-.07.54-.25.99-.55 1.35-.82.98-2.12 2.03-3.2.74a3.33 3.33 0 0 1-.76-2.34.2.2 0 0 1 .22-.12c.32.05.68.04 1.06-.03.12-.02.12-.05 0-.06ZM28.91 32.7a8.2 8.2 0 0 0-.81 2.84.71.71 0 0 1-.38.55l-1.6.84c-.24.12-.34.05-.3-.21a21.73 21.73 0 0 0 .12-4.1.22.22 0 0 1 .12-.13.21.21 0 0 1 .09-.02h2.61a.16.16 0 0 1 .15.23ZM36.86 32.5c.03 0 .07 0 .1.03.03.02.05.05.06.09.52 1.77.43 4.3-1.2 5.49-.27.2-.56.32-.87.37a.14.14 0 0 1-.11-.04.14.14 0 0 1-.05-.11c.08-2.1.2-3.8-.3-5.61a.17.17 0 0 1 .09-.2.18.18 0 0 1 .08-.02h2.2Z" fill="#FA8000"/></svg>