<!-- by TradingView --><svg width="56" height="56" viewBox="0 0 56 56" xmlns="http://www.w3.org/2000/svg"><path fill="#F0F3FA" d="M0 0h56v56H0z"/><path fill-rule="evenodd" d="M44 28a16 16 0 1 1-32 0 16 16 0 0 1 32 0Zm-1 0a15 15 0 1 1-30 0 15 15 0 0 1 30 0Zm-7.97-7.79.17.3c1.43 2.46-4.12 4.84-5.68 5.4-2.78.98-5.72 1.79-8.8 2.4-.6.12-1.16.16-1.7.13-.74-.05-.04-1.23.16-1.5 1.35-1.87 3.59-3.1 5.79-3.66.02 0 .03 0 .02.03l-.01.03-.01.01a7.73 7.73 0 0 0-2.53 1.84c-.36.4-.5.76-.6 1.25-.22.97 1.78.82 2.24.72 1.41-.3 2.41-.55 3.01-.75.31-.11.4-.38.48-.68l.03-.07c.45-1.5.83-2.8 1.14-3.9.13-.47.17-1.02.11-1.64-.05-.6-.25-.9-.83-1.01-1.2-.23-1.85.17-2.63 1.05l-.2.23c-.49.55-.78.9-1.45 1.15-.54.21-1.55.19-2.12.15-.5-.04-.72-.32-.67-.85.05-.55 1.2-1.2 1.64-1.41 1.22-.57 2.55-.95 3.97-1.15 2.17-.3 4.29-.36 6.36-.18 1.72.15 3.66.6 4.97 1.7 1.02.84 1.34 2.1 1.18 3.37a5.79 5.79 0 0 1-1.82 3.26c-1.92 1.86-4.57 3.32-7.04 4.52a.4.4 0 0 0-.23.36c-.08 3.6-1.47 7.48-5.6 7.68a7.4 7.4 0 0 1-4.28-.95 6.28 6.28 0 0 1-2.96-4.62c-.08-.55-.02-1.53.72-1.61.63-.08 1.32.05 1.33.85l.03 1.98c.11 1.4.97 2.2 2.3 2.45a3.35 3.35 0 0 0 3.97-2.68 1.99 1.99 0 0 0-.3-1.65v-.03a.07.07 0 0 1 .04-.04l.4-.17c3.6-1.49 6.93-2.87 9.84-5.07a8.95 8.95 0 0 0 2.98-3.62c.78-2.05-.02-3.67-2.06-4.3-.03 0-.05 0-.05.04a.1.1 0 0 0 0 .04l.01.02c1.08.63 1.94 1.55 1.92 2.83a5.23 5.23 0 0 1-1.51 3.15 19.47 19.47 0 0 1-5.93 4.04A78.02 78.02 0 0 1 25 32.06c-.15.06-.24 0-.25-.17v-.03c-.01-.17.07-.29.24-.35l.91-.36c1.97-.77 4.27-1.67 6.27-2.7 1.35-.7 2.62-1.58 3.8-2.63 1.24-1.13 2.57-3.09 1.64-4.8-.21-.4-.52-.7-.91-.95-.28-.17-.29-.11-.04.17 3.29 3.78-4.45 7.6-6.87 8.6l-4.65 1.94a5.8 5.8 0 0 1-3.09.5c-.19-.02-.19-.06 0-.1a44.82 44.82 0 0 0 11.93-5.1 9.29 9.29 0 0 0 2.35-2.02c.9-1.1 1.08-3-.22-3.86-.19-.13-.22-.1-.09.1.8 1.17.84 2.32-.08 3.45a8.22 8.22 0 0 1-1.84 1.66 33.52 33.52 0 0 1-8.33 3.99 59.6 59.6 0 0 1-4.6 1.35c-.39.08-.86.12-1.41.1-.3 0-.5-.12-.6-.36-.03-.08 0-.13.08-.14.9-.12 1.52-.22 1.86-.29a58.1 58.1 0 0 0 4.65-1.21 32.42 32.42 0 0 0 8.19-3.71c.46-.3.97-.73 1.53-1.3 1-1.02 1.29-2.22.43-3.4-.3-.43-.37-.4-.2.1l.05.1c.21.6.45 1.26.13 1.82-.89 1.55-2.53 2.7-4.1 3.53-1.64.88-3.4 1.56-5.27 2.04-1.73.45-3.52.9-5.34 1.35-.83.2-1.56.32-2.18.33-.64.02-.69-.74-.05-.78a38.89 38.89 0 0 0 9.92-2.22 21.37 21.37 0 0 0 4.22-1.92c1.4-.85 3.88-3 2.03-4.68-.13-.12-.15-.09-.08.1Zm-.47 2.3A9.96 9.96 0 0 1 32 24.37l-.03-.01-.01-.02v-.03l.75-3.71a.49.49 0 0 1 .49-.4h.41c.66-.01 1.3-.03 1.4.9.07.56-.09 1.03-.45 1.41Z" fill="#D2A663"/></svg>