<!-- by TradingView --><svg width="56" height="56" viewBox="0 0 56 56" xmlns="http://www.w3.org/2000/svg"><path fill="#F0F3FA" d="M0 0h56v56H0z"/><path d="M23.98 29.1a.14.14 0 0 0 .17.1c.03 0 .05-.01.07-.03l5.47-5.48c.08-.07.16-.07.24 0l4.1 4.1c.1.1.22.16.37.16h2.45c.1 0 .16.05.16.16v.1c0 .06-.03.09-.08.09-.89.02-1.35.27-1.4.76a.38.38 0 0 0 .1.29c1.62 1.77 6.73 6.9 9.32 5 1.17-.86 1.22-2.4.46-3.56a6.6 6.6 0 0 0-1.61-1.61c-.9-.66-1.7-1.35-2.38-2.07-2.45-2.53-1.6-6.53 2.17-7.02a9.78 9.78 0 0 1 3.77.24.3.3 0 0 1 .23.28v2.8c0 .1-.05.15-.15.15h-.16a.14.14 0 0 1-.14-.14c-.1-1.9-1.72-2.77-3.51-2.4-.49.11-.87.34-1.14.7-1.3 1.7.27 3.17 1.63 4.15 2.3 1.63 4.13 3.21 3.85 6.08-.08.83-.35 1.51-.81 2.05-1.92 2.21-4.94 2.23-7.27.66a29.91 29.91 0 0 1-3.3-2.55c-2.09-1.9-4.29-3.92-6.6-6.07a.18.18 0 0 0-.24 0L17.41 36c.04-.07.03-.09-.02-.06-.04.02-.04.02-.01-.01l4.3-4.25a.33.33 0 0 0 .06-.37 8.48 8.48 0 0 1-.15-6.5c1.25-2.88 3.57-4.47 6.95-4.76 1.82-.15 4.05.03 6.7.56.09.02.13.08.13.17l-.17 3.61a.08.08 0 0 1-.07.07h-.15c-.1 0-.16-.05-.17-.15a2.68 2.68 0 0 0-1.5-2.37c-2.62-1.38-6.43-1.45-8.4 1.14-1.2 1.56-1.3 4.12-.93 6.02ZM12.72 21a.27.27 0 0 0-.16.1.3.3 0 0 0-.07.18c-.03 4.65-.02 8.64.02 11.96 0 .38.06.91.17 1.6.15.89 1.2.74 1.86.74.03 0 .07.02.1.05.02.03.04.06.04.1v.1c0 .05-.02.1-.05.12a.15.15 0 0 1-.1.05H8.46c-.1 0-.17-.06-.17-.18v-.1a.16.16 0 0 1 .05-.11.14.14 0 0 1 .1-.04c.42.04.77 0 1.04-.1.1-.05.16-.12.2-.23.2-.54.3-1.2.3-1.97.04-2.56.03-6.03.01-10.42 0-.82-.02-1.4-.1-1.73a.79.79 0 0 0-.23-.4.72.72 0 0 0-.42-.2l-1.11-.11c-.1 0-.14-.06-.14-.16v-.09a.17.17 0 0 1 .05-.11.16.16 0 0 1 .11-.05c1.68.05 3.89.06 6.62.03.6 0 1.25.13 1.98.41 3 1.17 2.7 5.11.76 7.06-1 1-2.32 1.46-3.98 1.36-.08 0-.13-.05-.13-.14v-.09c0-.12.06-.19.18-.2 4.56-.17 3.82-8.29-.87-7.43Z" fill="#0D375A"/><path d="M29.35 28.97h-.44c-.1 0-.17.07-.17.16v.62c0 .09.07.16.16.17h.45c.09 0 .16-.07.16-.17v-.62c0-.09-.06-.16-.16-.16ZM30.76 28.96h-.64a.16.16 0 0 0-.16.16v.65c0 .08.07.16.16.16h.63c.09 0 .16-.07.16-.16v-.65a.16.16 0 0 0-.15-.16Z" fill="#E2B253"/><path d="M32.92 33.82c.02-1.5.01-2.6-.04-3.33-.03-.32.07-.38.3-.16l1.94 1.85c.23.21.35.48.35.8v1.71a.3.3 0 0 1-.14.27c-.42.29-.9.5-1.43.62-3.75.87-8.13.52-11.02-2.33a.17.17 0 0 1 0-.25l1.79-1.48c.08-.07.16-.06.22.04 1.54 2.54 3.9 3.65 7.07 3.32.67-.07.94-.34.96-1.06Z" fill="#B17718"/><path d="M29.36 30.37h-.45c-.1 0-.17.07-.17.17v.4c0 .1.07.18.17.18h.45c.1 0 .17-.07.17-.17v-.4c0-.1-.07-.18-.17-.18ZM30.73 30.36h-.63a.15.15 0 0 0-.15.15v.48c0 .08.07.15.15.14h.63c.08 0 .15-.07.15-.15v-.48a.15.15 0 0 0-.15-.14Z" fill="#B17718"/></svg>