<!-- by TradingView --><svg width="56" height="56" viewBox="0 0 56 56" xmlns="http://www.w3.org/2000/svg"><path fill="#F0F3FA" d="M0 0h56v56H0z"/><path d="m14 36.94 4.66-2.17L28 18.67l9.34 16.1L42 36.94c0-.74-.2-1.47-.56-2.12L28.66 12.4a.76.76 0 0 0-1.32 0L14.56 34.82a4.28 4.28 0 0 0-.56 2.12Z" fill="url(#a)"/><path d="M15.32 38.01a2.68 2.68 0 0 1-1.32-1.1l4.64-2.16L28 37.87V42a343.37 343.37 0 0 1-12.68-3.99Z" fill="url(#b)"/><path d="M40.68 38.01c.84-.39 1.23-.9 1.32-1.1l-4.64-2.16L28 37.87V42c3.88-1.17 11.85-3.6 12.68-3.99Z" fill="url(#c)"/><defs><linearGradient id="a" x1="28" y1="12" x2="28" y2="36.94" gradientUnits="userSpaceOnUse"><stop stop-color="#3B76FF"/><stop offset="1" stop-color="#5CEFE7"/></linearGradient><linearGradient id="b" x1="14.83" y1="36.79" x2="27.82" y2="36.79" gradientUnits="userSpaceOnUse"><stop stop-color="#062BF6"/><stop offset="1" stop-color="#3474FC"/></linearGradient><linearGradient id="c" x1="41.17" y1="36.79" x2="28.18" y2="36.79" gradientUnits="userSpaceOnUse"><stop stop-color="#4E34F9"/><stop offset="1" stop-color="#9D4DFF"/></linearGradient></defs></svg>