<!-- by TradingView --><svg width="56" height="56" viewBox="0 0 56 56" xmlns="http://www.w3.org/2000/svg"><path fill="#F0F3FA" d="M0 0h56v56H0z"/><path d="M20 24.95c0-1.7-1.44-2.95-2.95-2.95h-6.1A2.98 2.98 0 0 0 8 24.95v6.1C8 32.75 9.44 34 10.95 34h6.1c1.5 0 2.95-1.24 2.95-2.95v-6.1Zm-.92 6.1c0 1.06-1.1 1.95-2.03 1.95h-6.1c-.94 0-2.03-.95-2.03-2v-6.05c0-1.06 1.1-1.95 2.03-1.95h6.1c.93 0 2.03.9 2.03 1.95v6.1Zm29.64-4.14a6.2 6.2 0 0 0-1.4-1.79 13.54 13.54 0 0 0-5.12-2.86 6.48 6.48 0 0 0-1.7-.26c-.53 0-1.02.09-1.45.33-.4.24-.71.59-.97 1a7.14 7.14 0 0 0-.81 2.23c-.18.89-.27 1.79-.27 2.7 0 1.18.15 2.35.46 3.34.14.46.35.9.63 1.31.25.38.6.68 1.01.87.4.16.82.23 1.25.22.82 0 1.74-.21 2.67-.55 1.44-.53 2.78-1.3 3.97-2.26.54-.42 1.01-.92 1.4-1.48.18-.25.33-.52.44-.8.1-.28.17-.57.17-.86v-.02c0-.39-.1-.77-.28-1.12Zm-.86 1.13c0 .22-.07.45-.17.65-.21.43-.63.94-1.18 1.43a12.37 12.37 0 0 1-4.74 2.54c-.46.13-.94.2-1.42.2-.28.02-.55-.03-.8-.12a1.3 1.3 0 0 1-.53-.48c-.27-.38-.5-.97-.66-1.67-.15-.77-.23-1.55-.22-2.34 0-1.12.14-2.27.42-3.18a5 5 0 0 1 .5-1.15c.18-.3.38-.5.55-.6.2-.12.5-.19.88-.19.6 0 1.4.18 2.24.5 1.3.5 2.5 1.22 3.57 2.11.44.37.84.8 1.17 1.26.12.18.22.37.3.57.06.15.09.3.1.46ZM16.93 25.5h.04l.02.03.01.03v4.88c0 .02 0 .03-.02.04a.06.06 0 0 1-.04.02H15.4c-.02 0-.03 0-.05-.02a.06.06 0 0 1-.01-.04v-1.91l-1.3 1.02a.06.06 0 0 1-.08 0l-1.27-1.03v1.94l-.01.02a.06.06 0 0 1-.05.02h-1.57c-.02 0-.03 0-.04-.02l-.02-.02v-4.93c.02 0 .02-.01.03-.02a.06.06 0 0 1 .07 0l2.9 2.1 2.9-2.1.03-.01Zm9.27-3.04a6 6 0 1 1 4.6 11.08 6 6 0 0 1-4.6-11.08Zm4.16 10.04a4.86 4.86 0 0 0-1.86-9.37 4.86 4.86 0 0 0-3.45 8.31 4.86 4.86 0 0 0 5.31 1.06Zm-.75-7h1.86l.02.03a.05.05 0 0 1 0 .05l-2.94 4.89-.03.02a.07.07 0 0 1-.06 0 .06.06 0 0 1-.03-.02l-2.92-4.88a.06.06 0 0 1 0-.06l.02-.02H27.42l.02.02 1.05 1.72 1.06-1.72.03-.02h.03Zm13.12 0c.92 0 1.63.33 2 .92a1.62 1.62 0 0 1 .01 1.75c-.36.57-1.04.88-1.91.88h-1.26v1.4l-.01.03a.06.06 0 0 1-.05.02h-1.45c-.01 0-.03 0-.04-.02a.05.05 0 0 1-.02-.03v-4.9s0-.02.02-.03a.06.06 0 0 1 .04-.02h2.67Zm-1.15 2.21h1.26c.13 0 .25-.04.35-.12.1-.08.16-.19.16-.3.01-.1-.02-.4-.57-.44h-1.2v.86Z" fill="#ED1C24"/></svg>