<!-- by TradingView --><svg width="56" height="56" viewBox="0 0 56 56" xmlns="http://www.w3.org/2000/svg"><path fill="#F0F3FA" d="M0 0h56v56H0z"/><circle cx="28" cy="34" r="6" fill="#F6911F"/><path d="M20.38 24.47c-.12-1.81-.12-3.34.76-4.9.32-.56.88-1.2 1.7-1.9a26.5 26.5 0 0 0 3.5-3.56 6.77 6.77 0 0 0 1.44-4.04c.02-.51.04-.85.06-1.01.01-.08.04-.08.07-.01 1.41 2.91 1.7 6.07-.46 8.74-.6.75-1.1 1.3-1.5 1.66-1.27 1.14-2.3 2.04-3.08 2.7-.78.67-1.6 1.51-2.37 2.28a.23.23 0 0 1-.08.06h-.03v-.02Z" fill="#078C5B"/><path d="M33.78 31.35c-1.96.39-3.73 1.23-5.3 2.52l-.57.45c-.06.04-.08.03-.08-.04.2-1.63.83-2.98 1.88-4.07.18-.18.46-.41.86-.7l.9-.65.93-.61a6.5 6.5 0 0 0 2.29-2.74c.36-.8.35-1.54.34-2.4 0-.3.07-.32.2-.05a74.18 74.18 0 0 1 3 6.8 11.71 11.71 0 0 1-.26 8.96 10.97 10.97 0 0 1-11.74 6.04 10.97 10.97 0 0 1-8.82-7.77 10.8 10.8 0 0 1 3.36-11.15 59.4 59.4 0 0 1 4.4-3.96c.34-.27.99-.86 1.94-1.75 1.94-1.82 3.14-4.04 2.93-6.67-.02-.3.02-.3.13-.04 1.03 2.4 1.7 5.13.27 7.55-.41.69-.84 1.27-1.29 1.75a31.89 31.89 0 0 1-3.18 3.02c-1.88 1.53-3.48 2.92-4.52 5a7.03 7.03 0 0 0-.48 5.56 7.44 7.44 0 0 0 6.65 4.97c1.88.1 3.56-.45 5.03-1.67a6.94 6.94 0 0 0 2.53-6.6c-.09-.53-.21-1.1-.38-1.69-.05-.19-.18-.26-.37-.22l-.65.16Z" fill="#078C5B"/><path d="m30.19 28.22-3.4 2.01c-.53.3-1.2.8-2 1.46a4.7 4.7 0 0 0-1.72 2.92c-.02.14-.06.15-.1.01-.73-1.94-.02-3.83 1.32-5.3.16-.19.33-.38.49-.59 2.36-2.3 4.97-3.9 6.7-6.5.67-.98 1-2.09 1-3.32 0-.29-.01-.62-.05-1 0-.06.03-.06.08 0 .06.06.2.33.42.81.77 1.65 1.25 3.36.92 5.1a6.04 6.04 0 0 1-2.38 3.47c-.47.38-.9.68-1.28.93Z" fill="#078C5B"/></svg>