<!-- by TradingView --><svg xmlns="http://www.w3.org/2000/svg" width="56" height="56" viewBox="0 0 56 56"><path fill="#EC2029" d="M0 0h56v56H0z"/><path d="M12 40.79V15.2c0-.67.55-1.21 1.22-1.21h29.56c.68 0 1.22.54 1.22 1.21V40.8c0 .67-.54 1.21-1.22 1.21h-8.65c-2.34-.15-7.01-1.69-7.01-6.67.06-.98.69-3.42 2.74-5.43a3.32 3.32 0 0 0 1.05-2.64C30.9 25.32 28.54 25 25 25v17H13.22c-.67 0-1.22-.54-1.22-1.21ZM19.03 38c.47 0 .97-.37.97-.83V22.83c0-.45.26-.83.73-.83h9.69c2.97 0 5.34 1.63 5.58 4.5.12.91-.13 3.15-2.46 4.76-.68.47-2.05 1.8-2.05 3.33 0 1.9 1.93 3.41 4.61 3.41h3.05c.47 0 .85-.37.85-.83V18.83a.84.84 0 0 0-.85-.83h-22.3a.84.84 0 0 0-.85.83v18.34c0 .46.38.83.85.83h2.18Z" fill="#FFFBFF"/></svg>