<!-- by TradingView --><svg width="56" height="56" viewBox="0 0 56 56" xmlns="http://www.w3.org/2000/svg"><path fill="#F0F3FA" d="M0 0h56v56H0z"/><path d="M34.81 15.4a.02.02 0 0 1-.01.02c-.9.2-1.91.1-2.66-.47A3.39 3.39 0 0 1 30.95 12h.01c.62.07 1.22.23 1.78.47.3.13.63.32.87.52.7.57 1.08 1.52 1.2 2.4Zm-13.62 0c.12-.89.5-1.84 1.2-2.41.24-.2.57-.4.87-.52a6.25 6.25 0 0 1 1.8-.45c.07 1.09-.31 2.25-1.2 2.93a3.2 3.2 0 0 1-2.67.46v-.02Zm-2.01 2.56c.17-.8.3-1.56.4-2.28.03-.25.03-.5 0-.73a.95.95 0 0 0-.2-.49h-.06a2.8 2.8 0 0 0-2 1.82 5.12 5.12 0 0 0 .4 3.91.04.04 0 0 0 .03.02c.51.04 1.02.03 1.54-.03a3.8 3.8 0 0 0 2.25-.88 4.11 4.11 0 0 0 1.2-2.22h-.01a5.48 5.48 0 0 0-1.32 0c-.36.05-.7.16-1.03.3a10.1 10.1 0 0 0-1.2.58Zm17.64 0c-.17-.8-.3-1.56-.4-2.28-.03-.25-.04-.5 0-.73a.95.95 0 0 1 .2-.49h.06c.94.24 1.68.9 2 1.83a5.12 5.12 0 0 1-.4 3.91.04.04 0 0 1-.03.01 8.9 8.9 0 0 1-1.54-.03 3.8 3.8 0 0 1-2.25-.88 4.11 4.11 0 0 1-1.2-2.22h.01c.42-.05.86-.05 1.32 0 .36.05.69.16 1.02.3a10.1 10.1 0 0 1 1.2.59l.01-.01Zm-19.7 4.5a4.17 4.17 0 0 0-.75.84c-.04-.63-.06-1.2-.05-1.83a5.13 5.13 0 0 0-.45-2.01 2.74 2.74 0 0 0-1.6 2.23 5.38 5.38 0 0 0 1.34 4.18c.02.02.05.02.07.01h.01c.87-.17 1.74-.5 2.46-1.03.44-.32.8-.72 1.08-1.2a3.68 3.68 0 0 0 .5-2.3l-.01-.02c-.29-.1-.66-.02-.94.09-.27.1-.53.24-.78.4-.34.21-.63.43-.87.64Zm22.5.84c0 .01 0 0 0 0 .05-.64.06-1.21.06-1.83a5.12 5.12 0 0 1 .44-2.02 2.74 2.74 0 0 1 1.6 2.23 5.38 5.38 0 0 1-1.34 4.19 6.31 6.31 0 0 1-2.53-1.02c-.44-.32-.8-.72-1.08-1.2a3.68 3.68 0 0 1-.5-2.3l.01-.02c.28-.1.65-.02.93.09.28.1.54.23.78.4.34.21.63.43.88.64.3.26.55.54.75.84Zm-14.27 8.12h.02v3.12c0 .18-.01.32-.04.4a.96.96 0 0 1-1.03.68.73.73 0 0 1-.68-.75 1456.36 1456.36 0 0 1 0-1.87H22c0 .72.03 1.12.17 1.82.13.7.46 1.3 1.05 1.73.4.28.86.43 1.37.45.74.02 1.49-.32 1.9-.91.37-.53.5-1.19.5-1.81a12533.8 12533.8 0 0 0 0-11.16 2.44 2.44 0 0 0-1.43-1.92 2.29 2.29 0 0 0-1.77-.04 2.5 2.5 0 0 0-1.17.94c-.4.6-.57 1.3-.57 2.01v4.77c0 .51.13 1 .38 1.47.45.82 1.28 1.38 2.27 1.25.23-.03.45-.1.65-.18ZM25.3 23c.05.1.07.21.07.33l.01 6.24a.83.83 0 0 1-.25.6.88.88 0 0 1-.62.25h-.04a.9.9 0 0 1-.63-.24.85.85 0 0 1-.25-.6l-.02-6.25a.83.83 0 0 1 .26-.6.88.88 0 0 1 .62-.25h.04a.9.9 0 0 1 .62.24c.09.08.15.18.2.28Zm7.08 8.42c0-.01 0-.02-.02-.01-.2.09-.42.15-.65.18-.99.13-1.82-.43-2.27-1.25a3.05 3.05 0 0 1-.37-1.48v-4.76c0-.71.16-1.42.56-2.01a2.5 2.5 0 0 1 1.17-.94 2.29 2.29 0 0 1 1.77.04A2.44 2.44 0 0 1 34 23.55v10.73c0 .62-.14 1.28-.51 1.81-.41.59-1.16.93-1.9.9a2.43 2.43 0 0 1-1.37-.44 2.66 2.66 0 0 1-1.05-1.73A8.35 8.35 0 0 1 29 33h1.6v1.87c0 .4.29.7.69.75a.96.96 0 0 0 1.03-.67c.03-.09.04-.23.04-.41v-3.11Zm-1.8-4.97v2.9c0 .2 0 .35.03.42a.9.9 0 0 0 1.74 0 2 2 0 0 0 .03-.43v-5.79a2 2 0 0 0-.03-.42.9.9 0 0 0-1.74 0 2 2 0 0 0-.03.43v2.89ZM15.82 28.6a7.19 7.19 0 0 0-.32.87 25.97 25.97 0 0 1-.55-1.13l-.04-.08a13.2 13.2 0 0 1-.4-.98 2.8 2.8 0 0 0-1.04-1.2h-.01c-.19.45-.32.9-.42 1.38a3.95 3.95 0 0 0 .75 3.43 9.31 9.31 0 0 0 1.54 1.67c.61-.4 1.16-.9 1.63-1.48a4.93 4.93 0 0 0 1.14-2.74 4.62 4.62 0 0 0-.31-2.04c-.5.32-.95.7-1.33 1.16a4.77 4.77 0 0 0-.64 1.14Zm24.66.87a26 26 0 0 0 .56-1.13l.05-.08a13.33 13.33 0 0 0 .4-.98 2.8 2.8 0 0 1 1.03-1.2h.02c.18.45.32.9.41 1.38a3.95 3.95 0 0 1-.75 3.43 9.31 9.31 0 0 1-1.53 1.67c-.61-.4-1.16-.9-1.63-1.48a4.93 4.93 0 0 1-1.14-2.74c-.06-.68.03-1.39.28-2.03h.01v-.01h.01c.5.32.96.7 1.33 1.16a4.78 4.78 0 0 1 .65 1.14c.12.29.22.58.3.87Zm-24.11 5.69h-.02c-.5-.6-1.02-1.19-1.55-1.73a7.74 7.74 0 0 0-.55-.51 2.06 2.06 0 0 0-.82-.44 3.91 3.91 0 0 0-1.34-.1H12l-.01.02c.2 1.25.78 2.57 1.81 3.34a6.86 6.86 0 0 0 3.4 1.25l.01-.02c.47-.65.86-1.35 1.15-2.1.36-.9.54-1.87.46-2.83a3.96 3.96 0 0 0-.17-.83h-.02c-.57.37-1.13.83-1.55 1.38-.31.4-.5.87-.6 1.37-.08.38-.12.78-.12 1.2Zm23.27 0c.5-.61 1.03-1.19 1.56-1.73.17-.18.36-.35.55-.51.26-.22.52-.36.82-.44A3.92 3.92 0 0 1 44 32.4a5.15 5.15 0 0 1-1.81 3.34 6.87 6.87 0 0 1-3.4 1.24h-.01a9.46 9.46 0 0 1-1.16-2.12 6.3 6.3 0 0 1-.45-2.82 3.97 3.97 0 0 1 .17-.83h.01c.58.36 1.14.83 1.56 1.38.3.4.49.87.6 1.37a6.23 6.23 0 0 1 .13 1.2Zm-11.2 5.36a29.4 29.4 0 0 1-.88 0l-2.93-.04h-.1c-.51-.1-1-.26-1.48-.5a3.87 3.87 0 0 1-1.92-1.88 13.41 13.41 0 0 1-.97-2.35c-.3.06-.59.18-.84.36-.3.22-.48.52-.52.9-.03.38.05.78.16 1.14a6.43 6.43 0 0 0 .54 1.26 206.08 206.08 0 0 0-4-1.55c-.15-.06-.29-.1-.41-.13a2.09 2.09 0 0 0-1.36.05v.02c.08.2.19.4.32.59.84 1.22 2.23 1.8 3.58 2.2a11.14 11.14 0 0 0 4.03.48c.14 0 .28 0 .43-.02l1.24-.05c.44-.02.92-.03 1.38-.01a1842.7 1842.7 0 0 0 2.48.1l-.17.33a.15.15 0 0 1-.04.06l-2.17 1.61c-.22.17-.43.46-.22.73.14.17.4.21.6.16.14-.04.27-.1.38-.2L28 41.7H28l2.42 2.08c.12.1.24.16.38.2.2.05.46 0 .6-.16.22-.27 0-.56-.2-.73a7212.41 7212.41 0 0 0-2.23-1.67l-.16-.32v-.01h.01c.47-.03 1.3-.06 2.46-.1.47-.02.95 0 1.4 0a215.53 215.53 0 0 1 1.66.08c.4.01.72.02 1.13 0 1-.03 1.96-.19 2.9-.48 1.35-.4 2.73-.98 3.58-2.2a2.84 2.84 0 0 0 .31-.6v-.02c-.42-.17-.92-.16-1.35-.04a53.65 53.65 0 0 0-1.67.6 206.87 206.87 0 0 0-2.76 1.07c.23-.4.41-.81.55-1.25.12-.36.2-.76.16-1.14a1.2 1.2 0 0 0-.52-.9c-.25-.18-.53-.3-.84-.36h-.01c-.25.82-.56 1.62-.95 2.35a3.87 3.87 0 0 1-1.92 1.89 5.97 5.97 0 0 1-1.58.5l-2.93.03Z" fill="#C7B242"/></svg>