<!-- by TradingView --><svg width="56" height="56" viewBox="0 0 56 56" xmlns="http://www.w3.org/2000/svg"><path fill="#F0F3FA" d="M0 0h56v56H0z"/><path d="M28.62 32.2c2.07-2.68 3.17-5.2 3.72-7.3-1.13 2.76-3.1 5.17-4.92 7.4-1.61 1.98-3.13 3.84-3.81 5.63l-.42 1.09c1.2 5.38 4.59 7.98 4.59 7.98.78-7 13.4-12.81 12.13-22.74-1.1-8.67-6.5-11.42-6.5-11.42 5.11 14.51-4.79 19.37-4.79 19.37Z" fill="url(#a)"/><path d="M15.1 31.73c1.2 8.69 6.49 11.44 6.49 11.44-5.12-14.52 4.81-19.39 4.81-19.39-6.06 7.83-3.81 13.97-3.81 13.97 1.97-5.11 9.95-10.31 9.63-17.76C31.89 12.54 27.25 9 27.25 9c-.8 6.97-13.5 12.8-12.15 22.72Z" fill="url(#b)"/><path d="M15.12 31.73c1.16 8.7 6.49 11.41 6.49 11.41s-9.39-12.88.8-21.15c4.42-3.6 5.63-6.56 5.63-6.56s4.26 5.8-.53 11.23c-4.29 4.82-4.94 11.09-4.94 11.09 1.99-5.1 9.98-10.3 9.64-17.77C31.91 12.53 27.25 9 27.25 9c-.8 6.97-13.5 12.8-12.13 22.73Z" fill="url(#c)"/><path d="M31.26 34.18C23.74 39.26 27.76 47 27.76 47c.8-6.97 13.4-12.82 12.15-22.73-1.1-8.7-6.5-11.43-6.5-11.43s9.89 13.2-2.15 21.34Z" fill="url(#d)"/><defs><linearGradient id="a" x1="31.59" y1="47.09" x2="31.59" y2="16.15" gradientUnits="userSpaceOnUse"><stop stop-color="#F4E38B"/><stop offset="1" stop-color="#A77027"/></linearGradient><linearGradient id="b" x1="23.62" y1="42.93" x2="23.62" y2="19.06" gradientUnits="userSpaceOnUse"><stop stop-color="#71BF44"/><stop offset="1" stop-color="#00753C"/></linearGradient><linearGradient id="c" x1="23.62" y1="10.3" x2="23.62" y2="37.42" gradientUnits="userSpaceOnUse"><stop stop-color="#71BF44"/><stop offset="1" stop-color="#00753C"/></linearGradient><linearGradient id="d" x1="33.34" y1="13.83" x2="33.34" y2="42.58" gradientUnits="userSpaceOnUse"><stop stop-color="#F4E38B"/><stop offset="1" stop-color="#A77027"/></linearGradient></defs></svg>