<!-- by TradingView --><svg width="56" height="56" viewBox="0 0 56 56" xmlns="http://www.w3.org/2000/svg"><path fill="#696A69" d="M0 0h56v56H0z"/><path fill-rule="evenodd" d="M26.56 31.48c1.22-.15 2.5-.36 3.84-.63 3.12-.61 7.37-1.97 8.21-5.53.64-2.67-.47-4.7-2.58-6.2a21.58 21.58 0 0 0-6.33-2.9A40.4 40.4 0 0 0 24.26 15c-.02 0-.03 0-.03.03l-.1 1.04c0 .03.01.05.05.05 1.35.25 2.71.58 4.1 1.01a16.9 16.9 0 0 1 5.9 2.99c1.35 1.15 2.19 2.77 1.76 4.56-.53 2.2-2.6 3.55-4.67 4.33-1.15.44-2.28.77-3.39.98-.72.14-1.68.3-2.88.46-.25.04-.41.03-.5-.02a31.85 31.85 0 0 0-6.6-3.03c-1.5-.48-2.98-.76-4.44-.84-.8-.04-1.61.07-2.46.33-.19.05-.35.13-.5.24-.25.17-.38.3-.41.37-.18.47-.09.89.27 1.24a5.8 5.8 0 0 0 2.04 1.3c.23.1.56.22 1.01.38.38.13.86.23 1.32.33l.5.1c1.82.42 4.05.7 6.69.86.05 0 .1.01.14.04l.63.44c2.65 1.83 5.2 3.6 7.98 4.76 2.53 1.07 5.53 1.43 8.15.57A12.55 12.55 0 0 0 45 32.66a.11.11 0 0 0-.05-.12l-.28-.2c-.07-.05-.13-.04-.18.02-1.9 2.04-4.02 3.54-6.83 3.96a6 6 0 0 1-2.22.06c-.95-.2-1.86-.5-2.71-.91a32.45 32.45 0 0 1-6.18-3.98v-.01Zm-11.5-1.83.47.1c1.52.3 3.11.5 4.79.6.08 0 .08-.02.01-.05a48.15 48.15 0 0 0-3.39-1.57c-.74-.3-1.54-.54-2.42-.7-.83-.16-1.5-.27-2.2.07a.26.26 0 0 0-.06.42c.7.74 1.82.95 2.8 1.13Z" fill="#fff"/></svg>