<!-- by TradingView --><svg width="56" height="56" viewBox="0 0 56 56" xmlns="http://www.w3.org/2000/svg"><path fill="#F0F3FA" d="M0 0h56v56H0z"/><path d="M28.55 14c5.2 1.66 6.08 6.77 3.86 11.28-2.5 5.1-8.42 8.45-13.6 10.26a.2.2 0 0 1-.23-.06 34.03 34.03 0 0 1-5.3-7.5c-.12-.25-.04-.37.23-.37 3.55.06 6.84-.45 9.86-1.52 3.32-1.18 6.72-3.69 6.79-7.39.03-1.9-1.43-3.16-3.22-2.42-2.14.9-.3 4.86.4 6.16.03.05.04.1.03.16a.23.23 0 0 1-.08.13 14.67 14.67 0 0 1-3.76 2.1c-.09.04-.15.01-.19-.08-1.14-2.53-1.4-5.39.18-7.85a6.61 6.61 0 0 1 3.96-2.9h1.07Z" fill="#43A17C"/><path d="M23.12 14.96c.32-.12.38-.04.16.23-2.28 2.76-2.36 6.76-.9 9.92a.16.16 0 0 1-.1.21c-2.91.99-6.05 1.4-9.4 1.27a.22.22 0 0 1-.22-.16c-.23-.69-.43-1.46-.6-2.33a3 3 0 0 1 .75-2.7c2.67-2.97 6.56-5.07 10.3-6.44ZM32.9 14.97c3.74 1.36 7.62 3.46 10.29 6.44a3 3 0 0 1 .75 2.69c-.17.86-.37 1.63-.6 2.32-.04.1-.11.16-.22.16a25.88 25.88 0 0 1-9.45-1.3.16.16 0 0 1-.06-.12c0-.02 0-.04.02-.06 1.46-3.16 1.38-7.15-.9-9.9-.21-.28-.16-.35.16-.23Z" fill="#0A0B0C"/><path d="M28.9 31.22a23.58 23.58 0 0 0 4.14-4.91c.06-.1.14-.13.25-.09a24.81 24.81 0 0 0 9.22 1.39c.27 0 .34.1.22.35a34.01 34.01 0 0 1-5.34 7.55.2.2 0 0 1-.21.05 34.03 34.03 0 0 1-8.27-4.26c-.03-.02-.03-.05 0-.08ZM28 31.96c.06 0 .1 0 .12.02a33.94 33.94 0 0 0 8.37 4.4.11.11 0 0 1-.01.15A67.58 67.58 0 0 1 28.03 44h-.09a67.9 67.9 0 0 1-8.44-7.51.11.11 0 0 1 .02-.1 34.02 34.02 0 0 0 8.37-4.4c.02-.03.06-.03.11-.03Z" fill="#43A17C"/></svg>