<!-- by TradingView --><svg width="56" height="56" viewBox="0 0 56 56" xmlns="http://www.w3.org/2000/svg"><path fill="#F0F3FA" d="M0 0h56v56H0z"/><path d="M13.69 19.16c1.55-4.59 5.65-6.46 10.1-6.11 3.45.26 6.25 2.24 7.13 5.72.06.25-.01.31-.23.17-5.72-3.66-11.38-3.58-16.96.25-.05.04-.06.02-.04-.03Z" fill="#DA464A"/><path d="M29.65 13.5a2.51 2.51 0 0 0-.24-.18c-.36-.16-.36-.25.02-.28 3.46-.31 5.51 1.3 6.16 4.86.56 3.02.34 5.7-.65 8.05a15.4 15.4 0 0 1-5 6.26.27.27 0 0 1-.39-.07l-1.42-2.08a.23.23 0 0 1 .04-.3c.4-.32.93-.78 1.6-1.4 3.04-2.81 3.97-6.34 2.78-10.56a8.14 8.14 0 0 0-2.9-4.3Z" fill="#255D94"/><path d="M37.73 16.3c2.04 1.13 2.86 3.27 2.92 5.55.08 2.95-.65 5.74-2.3 8.2a18.74 18.74 0 0 1-4.1 4.4c-.37.3-.79.37-1.23.21l-1.26-.44c-.46-.16-.5-.38-.1-.66 5.51-3.88 7.55-10.52 5.91-17.13-.04-.16.01-.2.16-.13Z" fill="#255D94"/><path d="M12 25.67v-.85c0-.94.3-1.75.91-2.44a11.26 11.26 0 0 1 5.22-3.37 12.87 12.87 0 0 1 12.65 2.45.53.53 0 0 1 .2.4c.02.76-.12 1.52-.45 2.28a.47.47 0 0 1-.27.26.44.44 0 0 1-.37-.04 18.44 18.44 0 0 0-6.48-2.54c-2.67-.5-4.85.33-7.14 1.75-1.4.87-2.5 1.7-3.31 2.52-.64.64-.96.5-.96-.42Z" fill="#DA464A"/><path d="M36.1 35.05c4.46-3.04 6.44-7.86 6.58-13.31 0-.13.04-.14.11-.03 1.67 2.74 1.45 6.34.34 9.24-1.15 3.02-3.97 4.51-6.95 4.38-.31-.01-.34-.1-.08-.28Z" fill="#255D94"/><path d="M26.48 28.5a10.2 10.2 0 0 0-2.3-1.25c-3.42-1.37-6.15-.58-8.2 2.39a11.69 11.69 0 0 0-1.67 3.65.08.08 0 0 1-.09.01.08.08 0 0 1-.03-.03c-1.66-2.54-1.63-4.74.3-7.05 3.86-4.59 10.37-3.9 14.69-.45a.42.42 0 0 1 .12.5 4.56 4.56 0 0 1-2.3 2.31c-.17.08-.35.05-.52-.08Z" fill="#DA464A"/><path d="M34.43 42.2c-.94.31-1.84.46-2.7.46-5.77-.02-9.7-2.74-11.78-8.14a11.3 11.3 0 0 1-.72-4.8c.01-.27.15-.4.42-.4h1.96c.23 0 .35.12.34.36-.17 7.35 6.43 11.1 12.46 12.33.25.05.26.12.02.2Z" fill="#50728D"/><path d="M31.32 36.6c2.46 1.09 6.17 1.41 8.6.14.11-.06.14-.03.1.1-1 3.25-4.43 3.91-7.28 3.07-4.69-1.39-8.83-5.01-9.43-10.23a.23.23 0 0 1 .1-.2.2.2 0 0 1 .22-.02c1.15.72 1.9 1.18 2.25 1.38.1.06.2.2.28.4 1.24 2.85 2.5 4.2 5.16 5.37ZM26.38 42.73l.18.06c.18.1.18.15 0 .17-3.1.3-6.06-1.07-8.2-3.35a6.28 6.28 0 0 1-1.82-5.55 9.65 9.65 0 0 1 1.2-3.53c.15-.26.23-.24.25.06.1 2.56.36 5.54 1.85 7.42 1.91 2.41 4.1 3.98 6.54 4.72Z" fill="#50728D"/></svg>