<!-- by TradingView --><svg width="56" height="56" viewBox="0 0 56 56" xmlns="http://www.w3.org/2000/svg"><path fill="#F0F3FA" d="M0 0h56v56H0z"/><path d="M43.3 31.96c-.01-.36.11-.7.16-1 .75-4.62-.16-8.73-2.71-12.34a16.67 16.67 0 0 0-9.29-6.47l-.02-.03a.07.07 0 0 1 .01-.06l.03-.04a.05.05 0 0 1 .05-.02c.34.05.58.1.71.13a16.32 16.32 0 0 1 9.78 7.68c2.12 3.7 2.5 8.06 1.3 12.16-.01.07-.02.07-.02 0Z" fill="#EBB016"/><path d="M34.06 14.18a14.93 14.93 0 0 1 5.32 4.2v.03c-.02.15-.1.14-.24-.02a15.63 15.63 0 0 0-11.64-5.45c-.21 0-.27-.07-.16-.18l.03-.02a15.35 15.35 0 0 1 6.69 1.43ZM15.95 37a15.06 15.06 0 0 0 6.28 4.36.07.07 0 0 1 0 .07l-.02.03-.08.03a.28.28 0 0 1-.22.02 14.88 14.88 0 0 1-9.37-9.93c-1.78-6.35.96-13 6.73-16.39a14.87 14.87 0 0 1 8-2.02c.03 0 .05.01.04.05v.04c0 .05-.03.07-.07.07-1.82.01-3.52.31-5.1.9-9.62 3.51-12.72 15.1-6.19 22.77ZM32.36 15.6a12.19 12.19 0 0 1 2.92 1.57.1.1 0 0 1 0 .06c-.02.1-.09.11-.2.05-.97-.6-1.92-1.06-2.83-1.4-.91-.34-1.94-.61-3.07-.8-.13-.03-.17-.08-.12-.17a.1.1 0 0 1 .1-.05c1.05.1 2.12.34 3.2.74Z" fill="#924D23"/><path d="M18.18 35.23c-1.87-2.41-2.8-5-2.8-7.75.01-2.98 1.1-5.88 3.22-8.04 2.53-2.6 5.76-3.75 9.67-3.46.04 0 .06.03.06.08v.03c-.01.06-.05.09-.1.09-3.38-.15-6.26.84-8.63 2.98a11.4 11.4 0 0 0-3.71 8.8 12.18 12.18 0 0 0 2.64 7.29.08.08 0 0 1-.02.06l-.02.03h-.06c-.11 0-.2-.05-.25-.11Z" fill="#924D23"/><path d="M18.69 17.35a13.87 13.87 0 0 0-4.78 12.13c.05.4.13.83.25 1.3a999.53 999.53 0 0 0 .31 1.34l-.01.02H14.34l-.04-.02a12.87 12.87 0 0 1 .6-10.45c1.02-1.99 2.47-3.64 4.38-4.97.03-.02.06-.02.09 0l.07.05h.01a.02.02 0 0 1 0 .03c-.4.29-.66.48-.76.57Z" fill="#EBB016"/><path d="M28.54 40.7c-1.26.13-2.3.15-3.55-.05L25 20.2c0-.1-.06-.2-.16-.15l-4.28 1.98h-.01v-.06l.03-.03 4.07-2.35a.23.23 0 0 1 .26.02l3.5 2.75a.3.3 0 0 1 .12.24l.01 18.1ZM36.27 21.01l-.88-1.15c-.05-.06-.04-.11.02-.15a.13.13 0 0 1 .14 0c.24.2.44.39.61.6.62.76 1.07 1.4 1.35 1.9 1.98 3.61 2.2 8.18.02 11.8a5.54 5.54 0 0 1-.83 1.1.06.06 0 0 1-.05-.01l-.02-.03v-.03c-.01-.03 0-.06.01-.09.37-.64.6-1.06.69-1.25 1.94-4.1 1.7-9-1.06-12.69Z" fill="#924D23"/><path d="M29 22.37c0-.1.04-.19.11-.26a.39.39 0 0 1 .27-.11h.86c1.4 0 2.75.54 3.75 1.51a5.1 5.1 0 0 1 1.55 3.66v.08a5.1 5.1 0 0 1-1.55 3.65 5.36 5.36 0 0 1-3.75 1.51h-.86c-.1 0-.2-.04-.27-.1a.37.37 0 0 1-.11-.27v-9.67Z" fill="#FCAD1F"/><path d="M20.25 38.78c0 .11.02.2.05.24.05.06.08.05.1-.02l.05-.11c-.01.15.1.28.35.4 1.33.63 2.66 1.07 3.99 1.3 1.24.2 2.49.24 3.75.12l1.58-.26c1.31-.27 2.56-.73 3.74-1.4a12.95 12.95 0 0 0 6.6-14 .9.9 0 0 1 .04-.13c.02-.05.05-.07.1-.08.05 0 .08.02.09.06 1.87 8.9-5.41 16.83-14.64 16.12a14.18 14.18 0 0 1-7.83-3.16V37.74l.04-.03a.09.09 0 0 1 .1 0l1.73 1.18.02.01c.12.01.16-.03.14-.12Z" fill="#EBB016"/><path d="M30.13 42.09A15.7 15.7 0 0 0 39 36.76a14.42 14.42 0 0 0 3.22-11.6c.06-.11.11-.1.17.02.08.2.13.43.16.7.38 4.58-.9 8.46-3.86 11.66a15.47 15.47 0 0 1-8.44 4.68.1.1 0 0 1-.08-.02l-.06-.04a.04.04 0 0 1 0-.06l.02-.01ZM20.2 38.89l-.04.11c-.03.07-.06.08-.1.02-.04-.05-.06-.13-.06-.24l.07-13.02h-.01l.04 3.01c.06 2.9.09 6.27.1 10.12Z" fill="#924D23"/><path d="M34 39a14.93 14.93 0 0 1-4 1.51v-6.96l-.02-.02h-.05l-.77.42c-.1.05-.13.02-.12-.08l.02-.09a.3.3 0 0 1 .15-.22l.8-.44a.21.21 0 0 1 .25.02l3.6 2.72c.05.03.08.08.1.13.03.05.04.1.04.16V39Z" fill="#924D23"/><path d="M13.84 37a17.03 17.03 0 0 0 26.6.31.09.09 0 0 1 .12-.01l.05.03.02.03v.04a15.29 15.29 0 0 1-3.42 3.39 16.88 16.88 0 0 1-17.78 1.26 16.4 16.4 0 0 1-5.66-4.98c0-.01 0-.02.02-.03l.03-.05h.01Z" fill="#EBB016"/></svg>