<!-- by TradingView --><svg width="56" height="56" viewBox="0 0 56 56" xmlns="http://www.w3.org/2000/svg"><path fill="#F0F3FA" d="M0 0h56v56H0z"/><path d="M25.89 13.89c-.23-.2-.4-.44-.5-.73.4-.6.76-1.25 1.05-1.93a.72.72 0 0 1 .13-.2.07.07 0 0 1 .07-.03.07.07 0 0 1 .05.06c.03.14.02.28-.01.44-.17.82-.44 1.62-.8 2.39Z" fill="#B68C1E"/><path d="m31.29 14.06-.66.92c-.26.22-.47.5-.63.81-.15-.08-.23-.25-.26-.52-.01-.2-.04-.42-.07-.64l.43-.54a.2.2 0 0 0 .02-.21c-.26-.56-.48-1.14-.65-1.75a3.65 3.65 0 0 1-.15-1.03.1.1 0 0 1 .18-.02c.32.77.68 1.46 1.09 2.08.03.05.08.06.13.03a512 512 0 0 0 1-1.3.16.16 0 0 1 .06-.02l1-.02c.08 0 .1.03.05.1l-1.54 2.1Z" fill="#C49C36"/><path d="M25.39 13.16c.1.29.27.53.5.73-.02.09 0 .18.08.27.21.25.42.52.62.82.08.11.16.12.26.04l.56-.49a.1.1 0 0 0 0-.14l-1.07-.9c-.05-.04-.06-.08-.03-.12a.06.06 0 0 1 .05-.03c.49 0 1.17.48 1.54.75a.15.15 0 0 0 .18 0 4.2 4.2 0 0 1 1.59-.78l.02.02c.03.05.03.1-.01.13a42.86 42.86 0 0 1-1.13.97.1.1 0 0 0 .02.11l.7.58-.62.74-.58-.78a.09.09 0 0 0-.07-.03.09.09 0 0 0-.07.03l-.58.77a.14.14 0 0 0 0 .17l.19.25-.24 1.2-.5-.6-.8-1.09-.53-.79a.07.07 0 0 0-.06-.03.07.07 0 0 0-.06.03l-.59.94-.6-1.33.5-.48a.14.14 0 0 0 .01-.18l-1.53-2.02v-.02a.04.04 0 0 1 .01-.04h1.03a.2.2 0 0 1 .18.1l.91 1.24c.03.04.07.03.12-.04Z" fill="#C49C36"/><path d="M27.44 12.97c0 .34.28.61.6.6a.6.6 0 0 0 .59-.62.6.6 0 0 0-.61-.6.6.6 0 0 0-.58.62ZM33.64 14.96a.9.9 0 1 0 0-1.81.9.9 0 0 0 0 1.8ZM36.59 15.68l-.13.69v.1c.03.04.07.05.13.05-.14.03-.21.12-.23.29a50.65 50.65 0 0 1-.15 1.13l.01.01h.02l.9.14a.05.05 0 0 0 .06-.03v-.02a15.4 15.4 0 0 0-.1-1.27c-.01-.1 0-.2.02-.28a.07.07 0 0 1 .05-.05.07.07 0 0 1 .07.02c.32.43.45 1.1.56 1.64a.14.14 0 0 0 .12.11 4.6 4.6 0 0 1 1.62.54.1.1 0 0 1 0 .11c-.03.05-.08.07-.15.06a7.53 7.53 0 0 0-1.47-.1.04.04 0 0 0-.01.04l.1.86c0 .04-.02.06-.05.06l-.85.1c-.02 0-.04-.01-.05-.03v-.04l.1-.9a.07.07 0 0 0-.07-.08l-1 .14a.06.06 0 0 0-.05.05l-.07.32c-.37.18-.72.45-1.03.8l.08-.85c.08-.44.13-.9.14-1.35.05-.01.09-.05.1-.12a24.54 24.54 0 0 1 .1-.84l-.01-.01h-.03c-.55.2-1.12.3-1.71.32l.52-1.54c.16.02.32.06.49.06a25.3 25.3 0 0 0 .93-.02.08.08 0 0 0 .02-.05l.38-2.53.02-.02H36l.77.78c.02.02.02.04.02.06-.09.45-.17.96-.23 1.54-.01.08 0 .12.03.11ZM20.55 15.8c-.03.35.02.68.13 1l-.01.06a.1.1 0 0 0-.02.05c-.02 0-.04.03-.03.05.02.34.08.66.16.98a.3.3 0 0 1-.24-.03c-.3-.18-.6-.44-.85-.78l-.07-.5a.09.09 0 0 0-.05-.08c-.8-.3-1.5-.64-2.1-1.02a2.4 2.4 0 0 1-.51-.45l-.01-.05V15l.03-.03c.04-.01.08 0 .14.02a12.86 12.86 0 0 0 2.34.69.02.02 0 0 0 .01-.03l-.23-1.55a.22.22 0 0 1 .07-.19l.68-.68a.05.05 0 0 1 .05-.01.05.05 0 0 1 .03.04l.35 2.39c.01.12.06.18.13.17ZM22.23 15.11a.9.9 0 1 0 0-1.82.9.9 0 0 0 0 1.82Z" fill="#C49C36"/><path d="m34.13 15.75-.52 1.54a2 2 0 0 1-1.73-.55 6.56 6.56 0 0 1-1.25-1.76l.66-.92c.1.13.19.22.23.26l.85.7a3.9 3.9 0 0 0 1.76.73ZM24.16 14.6l.6 1.33c-.18.33-.53.65-.83.91-.45.4-.9.48-1.48.45a6.88 6.88 0 0 1-1.8-.38l.02-.05a.07.07 0 0 0 0-.06 2.44 2.44 0 0 1-.12-1c.27 0 .53-.01.78-.03a4.53 4.53 0 0 0 1.55-.32c.55-.24.86-.52 1.28-.85ZM29.67 14.63c.03.22.06.44.07.64.03.27.11.44.26.52.42.37.78.82 1.1 1.33.33.55.41 1.03.25 1.67-.12.45-.3.88-.54 1.3l-1.3-.4a.47.47 0 0 0 .08-.19c.06-.5.1-1.1-.02-1.6a4.74 4.74 0 0 0-.35-.98.1.1 0 0 0-.13.02l-1.06 1.4a.03.03 0 0 1-.02.01h-.03l-.69-.87.25-1.21.4.53a.08.08 0 0 0 .06.03.08.08 0 0 0 .06-.03c.2-.24.4-.5.6-.77.04-.05.04-.11 0-.17l.61-.74c.15-.12.28-.28.4-.49Z" fill="#EDD069"/><path d="M36.59 16.52c-.06 0-.1-.01-.12-.05a16.02 16.02 0 0 0 .12-.8 13.52 13.52 0 0 0 2.43-.71.06.06 0 0 1 .02.04c.06.44-2.08 1.37-2.45 1.52Z" fill="#B68C1E"/><path d="m26 15.78.8 1.09a3.92 3.92 0 0 0-.34 2.72l-1.34.28a4.4 4.4 0 0 1-.55-1.7c-.01-.08 0-.18.05-.32.25-.82.79-1.45 1.37-2.07Z" fill="#EDD069"/><path d="m19.8 17.95.07 1-.95-.14a.08.08 0 0 0-.09.06v.03l.14.98c0 .02.02.03.04.05.08.04.18.07.28.08.18.44.48.68.72 1.05a2.2 2.2 0 0 0-.72-.06l-1.34-.15c0-.07-.06-.1-.15-.11a4.47 4.47 0 0 1-.78-.11.08.08 0 0 0-.06.1c.16.46.27.94.32 1.45l-1.5-.48.05-1.13c0-.08-.04-.13-.12-.14l-2.5-.37c-.04 0-.05-.03-.01-.06l.73-.74a.17.17 0 0 1 .15-.05l1.61.24c.23 0 .46.03.69.07.04.01.07 0 .08-.01a.23.23 0 0 0 .05-.09c.02.12.1.19.26.2a192.8 192.8 0 0 1 1.2.16l.15-.93v-.01a.04.04 0 0 0-.04-.03c-.3 0-.66 0-1 .04a4.92 4.92 0 0 1-.62.01.12.12 0 0 1 0-.09.13.13 0 0 1 .05-.07c.47-.29 1.14-.42 1.65-.53l.03-.01.02-.03a5.62 5.62 0 0 1 .54-1.66c.05-.03.09-.03.12-.01.03 0 .04.03.03.06l-.09 1.45c0 .05.03.08.08.08l.9-.1Z" fill="#C49C36"/><path d="M17.27 17.92a.6.6 0 1 0 0-1.2.6.6 0 0 0 0 1.2ZM38.55 18.04a.6.6 0 0 0 .66-.53.6.6 0 0 0-.53-.65.6.6 0 0 0-.67.53.6.6 0 0 0 .54.65Z" fill="#C49C36"/><path d="M16.51 19.42a.23.23 0 0 1-.05.09c-.01.02-.04.02-.08.01a3.55 3.55 0 0 0-.69-.07c-.14-.76-.35-1.5-.64-2.2a.48.48 0 0 1-.03-.28.05.05 0 0 1 .06-.04l.03.02c.3.31.54.64.72.97.26.5.49 1 .68 1.5Z" fill="#B68C1E"/><path d="m40.2 20.46-1.13.24c.04-.06-.01-.07-.16-.05-.3.03-.58.08-.84.13a.41.41 0 0 1-.33 0 .13.13 0 0 1-.07-.16l.03-.06c.23-.23.4-.48.54-.76l1.1-.18a.17.17 0 0 0 .12-.1c.3-.77.64-1.56 1.14-2.24.1-.13.2-.23.28-.3.11-.07.15-.04.13.09a.95.95 0 0 1-.06.2 10.94 10.94 0 0 0-.62 2.17.05.05 0 0 0 .05.01l1.54-.22a.19.19 0 0 1 .16.05l.73.73a.04.04 0 0 1 0 .03.04.04 0 0 1-.02.03l-2.59.39Z" fill="#C49C36"/><path d="M20.78 17.94c.58-.03 1.13.02 1.65.15.43.11.79.31 1.1.62.26.27.44.65.6 1.04l.16.42-1.21.63A4.03 4.03 0 0 0 21 19.3a.06.06 0 0 0-.06.06l.26 1.75a.07.07 0 0 1-.02.06.07.07 0 0 1-.06.02l-1.1-.13c-.25-.37-.55-.61-.73-1.05l.72.1a.1.1 0 0 0 .11-.1l-.14-.95a.08.08 0 0 0-.03-.05l-.08-.06-.07-1-.1-.82c.25.34.53.6.84.78a.3.3 0 0 0 .24.03ZM35.16 17.94a9.1 9.1 0 0 1-.14 1.35 4.22 4.22 0 0 0-2.26 1.82l-1.16-.68c.12-.33.24-.65.38-.96.29-.66.71-1.13 1.43-1.34a5.1 5.1 0 0 1 1.75-.19ZM35.97 19.34l-.08.65c0 .1.03.13.12.11.2-.03.4-.05.62-.06.27-.01.4-.1.42-.23l.01.04c.01.02.02.03.05.03l.85-.1c.03 0 .04-.02.05-.06 0 .06.07.09.23.08-.13.28-.31.53-.54.76a.14.14 0 0 0 .04.22c.1.05.21.04.33 0 .03.64-.05 1.25-.22 1.82a2.09 2.09 0 0 1-1.02 1.29c-.37.2-.8.37-1.27.52l-.67-1.14a3.87 3.87 0 0 0 1.8-2.23.08.08 0 0 0-.06-.07h-.03l-1.82.2v-.01l.16-1.02c.31-.35.66-.62 1.03-.8ZM40.2 20.46v.82c-.01.22.06.59.2 1.1.1.42.27.8.5 1.17.15.23.39.46.57.7-.47.16-.91.35-1.34.57a4.4 4.4 0 0 1-.8-.65 1.94 1.94 0 0 1-.61-1.6c.03-.7.14-1.32.35-1.87l1.13-.24ZM19.29 21c.18.52.39.92.63 1.21.1.12.35.36.75.75a6.49 6.49 0 0 0-.8 1.25l-.64-.3a2.03 2.03 0 0 1-1.1-1.37 5.98 5.98 0 0 1-.18-1.7l1.34.16Z" fill="#EDD069"/><path d="M13.94 22.86a.91.91 0 1 0 0-1.82.91.91 0 0 0 0 1.82ZM41.92 23a.92.92 0 1 0 0-1.84.92.92 0 0 0 0 1.84Z" fill="#C49C36"/><path d="M17.28 22.18c.13.82-.09 1.59-.73 2.13-.48.4-1 .75-1.57 1.04l-.9-.68c.13-.14.3-.26.4-.38a9 9 0 0 0 .51-.61c.43-.58.7-1.24.8-1.98l1.49.48Z" fill="#EDD069"/><path d="m14.09 24.67.9.68c.16.18.36.35.6.5-.33.09-.69.1-1.06.06l-.56-.07c-.86.36-1.47.61-2.31.8-.18.04-.4.05-.54.03-.14-.02-.15-.07-.04-.15.06-.05.13-.09.22-.12.66-.29 1.3-.63 1.88-1.02.04-.02.04-.05.03-.09a19.6 19.6 0 0 0-1.3-1l-.07-1.15a.03.03 0 0 1 .01-.03h.04c1.05.8 1.55 1.2 2.09 1.54l.04.01.07.01ZM42.75 25.3l-.68.57c0-.02-.03-.02-.06-.01a67.96 67.96 0 0 0-1.07.79c-.04.02-.05.06-.02.1l.49.64a.13.13 0 0 0 .1.05.13.13 0 0 0 .1-.04l.94-1.09c.04-.05.08-.05.13 0 .02.03.02.1 0 .17a4.92 4.92 0 0 1-.8 1.48l.01.05c.3.45.54.83.74 1.33.05.12.06.25.04.38v.01a.03.03 0 0 1-.04.01h-.02l-1-1.16a.13.13 0 0 0-.2 0l-.52.67c-.26-.22-.48-.4-.67-.53-.03-.03-.04-.07-.02-.13l.72-.58a.05.05 0 0 0 .02-.05.06.06 0 0 0-.02-.04 6.07 6.07 0 0 1-.7-.52c-.09-.08-.17-.09-.25-.04l-1.35-.15.52-.42 1.06-.83a4.17 4.17 0 0 0 .81-.58.05.05 0 0 0-.02-.04l-.86-.52c.43-.22.87-.4 1.34-.56l.47.4a.1.1 0 0 0 .13 0l2-1.51a.03.03 0 0 1 .03 0 .03.03 0 0 1 .02.02v1.06a.07.07 0 0 1-.03.06l-1.34 1.02Z" fill="#C49C36"/><path d="M19.53 24.9c-.19.49-.33.98-.45 1.48a3.96 3.96 0 0 0-2.18.39.09.09 0 0 0 .02.12l1.23.94.2.1a.05.05 0 0 1 .03.03.05.05 0 0 1-.02.04l-1.24.94-1.25-.25c-.03 0-.04-.02-.04-.05v-.05c.08.05.16.06.23 0a74.96 74.96 0 0 0 .76-.58.1.1 0 0 0-.03-.12 8.04 8.04 0 0 1-.69-.5.25.25 0 0 0-.23-.04 4.13 4.13 0 0 0-.77-.6c0-.07-.06-.14-.18-.23l-.95-.68.56.07c.37.05.73.03 1.06-.05l.14.08a.1.1 0 0 0 .12-.02c.39-.42.83-.78 1.32-1.08.77-.47 1.59-.3 2.36.06ZM40.2 25.96l-1.06.83a4.26 4.26 0 0 0-2.86-.33l-.38-1.28c.43-.23.86-.41 1.31-.54.67-.2 1.2-.06 1.8.32a6 6 0 0 1 1.2 1Z" fill="#EDD069"/><path d="M42.75 25.3c.65.46 1.32.84 2.01 1.14.1.04.17.08.22.13a.06.06 0 0 1-.03.1c-.15.02-.31.01-.49-.01-.4-.06-.78-.16-1.15-.3-.4-.13-.8-.3-1.24-.5l.68-.55Z" fill="#B68C1E"/><path d="M15.1 26.75c.29.17.54.37.77.6l-.76.55a.09.09 0 0 0-.04.07.09.09 0 0 0 .04.07l.72.55v.05c0 .03.01.05.04.05l1.25.25c-.1.07-.2.16-.25.26l-1.05.83c-.02-.04-.07-.03-.14.02a65.7 65.7 0 0 1-.68.51v.03a.06.06 0 0 0 .02.05c.42.2.82.45 1.2.74l-1.43.63-.67-.69c-.06-.06-.12-.06-.19-.01l-2.03 1.53h-.01a.03.03 0 0 1-.03 0v-.02l.01-1.02a.26.26 0 0 1 .11-.21l1.19-.83a.1.1 0 0 0 .04-.08.1.1 0 0 0-.04-.08c-.31-.2-.75-.49-1.1-.66-.24-.1-.54-.25-.9-.43-.24-.11-.22-.19.03-.21.14-.02.31 0 .51.04a11.03 11.03 0 0 1 2.28.78l.06-.03 1-.76a.1.1 0 0 0 .02-.12l-.49-.65a.1.1 0 0 0-.08-.05.11.11 0 0 0-.09.04l-.9 1.06a.2.2 0 0 1-.15.08h-.03a.06.06 0 0 1-.03-.07 4.73 4.73 0 0 1 .83-1.64l-.01-.05a4.18 4.18 0 0 1-.8-1.61c0-.01 0-.02.02-.02.06-.02.12 0 .17.07a63.51 63.51 0 0 0 .94 1.09.08.08 0 0 0 .1-.02l.55-.7Z" fill="#C49C36"/><path d="m38.62 27.2 1.35.16-.75.52a.1.1 0 0 0-.04.14c0 .02.02.03.03.04l.76.57h.06l.16-.04c-.01.06 0 .1.03.13.19.13.41.3.67.53.02.07.06.13.15.18l-1.3.18c-.04 0-.04.01-.02.03l.48.36a3.95 3.95 0 0 1-2.12 1.37c-.2.03-.43.03-.67-.02a6.63 6.63 0 0 1-.85-.24 2.3 2.3 0 0 1-.47-.23l.3-1.31.88.04a4.1 4.1 0 0 0 1.84-.42.07.07 0 0 0-.01-.1l-1.48-1.1v-.03l1-.75Z" fill="#EDD069"/><path d="M43.03 28.57a.6.6 0 0 0 .52-.66.6.6 0 0 0-.68-.5.6.6 0 0 0-.52.66.6.6 0 0 0 .68.5ZM13.03 28.75a.6.6 0 0 0 .5-.68.6.6 0 0 0-.7-.49.6.6 0 0 0-.5.69.6.6 0 0 0 .7.48Z" fill="#C49C36"/><path d="M16.87 29.2c.68.3 1.6.37 2.33.35.06.49.18.98.34 1.48-.3.15-.83.32-1.16.35-.68.06-1.3-.26-1.82-.68a8.07 8.07 0 0 1-.74-.67l1.05-.83Z" fill="#EDD069"/><path d="M41.95 31.24a3.98 3.98 0 0 1-.92-.61 2.32 2.32 0 0 0-.83-.63l-.48-.36c-.02-.02-.02-.03.01-.03l1.3-.18c.3.2.6.41.88.63.07.06.15.07.23.02.74-.34 1.46-.59 2.15-.75.17-.04.4-.05.66-.04.02 0 .04.01.04.04 0 .07-.02.11-.06.13l-.6.28a11.87 11.87 0 0 0-1.54.88.09.09 0 0 0 0 .1l.02.03 1.22.84a.14.14 0 0 1 .05.1l.07 1.11a.04.04 0 0 1-.03.04h-.05l-2.12-1.6Z" fill="#C49C36"/><path d="M41.03 30.63c.28.24.58.45.92.6-.17.17-.42.44-.75.82a3.93 3.93 0 0 0-1 2.49c-.12-.11-.24-.2-.36-.24-.33-.15-.7-.27-1.1-.36-.08-.47-.06-.93.08-1.38.18-.57.76-1.07 1.26-1.38.27-.17.6-.41.95-.55ZM16.96 35.26c-.38.13-.75.18-1.12.17a4.96 4.96 0 0 1-.03-.5c0-.73-.13-1.37-.37-1.91a5.1 5.1 0 0 0-.65-1.01l1.43-.63c.86.63 1.2 1.35 1.06 2.41a7.7 7.7 0 0 1-.32 1.47ZM35.8 31.65c.49.15.9.35 1.28.6.38.27.64.64.77 1.1.17.58.24 1.18.22 1.8l-1.4-.18c0-.1-.01-.19-.05-.29a4.4 4.4 0 0 0-1.46-1.8l.65-1.23ZM20.69 33.12a5.14 5.14 0 0 0-1.38 1.83c-.02.05 0 .08.06.07l1.8-.26h.02a.05.05 0 0 1 .03.03v.02l-.24 1.72-.62.44c-.2.13-.4.16-.61.09l.18-.06c.02-.01.04-.03.04-.06l.15-1.02a.05.05 0 0 0-.03-.06h-.02c-.42.01-.8.09-1.1.22a1.5 1.5 0 0 1-.48.07c-.07 0-.15 0-.25.02h-.25a.72.72 0 0 0-.26.02c.11-.28.27-.53.47-.75a.2.2 0 0 0 .03-.24c-.07-.1-.16-.13-.29-.08 0-.15.01-.45.05-.91.03-.48.16-.92.36-1.33.25-.47 1.08-.94 1.58-1.12.21.47.47.93.76 1.36Z" fill="#EDD069"/><path d="M41.8 34.77a.91.91 0 1 0 0-1.82.91.91 0 0 0 0 1.82ZM14.52 33.45l-.1-.1a.83.83 0 0 0-1.17.03l-.1.1c-.3.33-.3.85.03 1.17l.1.1c.33.31.86.3 1.17-.03l.1-.1a.82.82 0 0 0-.03-1.17ZM40.2 34.54v.93l.01.03.03.02.36.07 2 .3c.04.01.1 0 .14 0 .1 0 .11.03.04.1l-.71.71a.16.16 0 0 1-.15.05l-1.6-.23-.85-.04-.07-.09a.08.08 0 0 0-.05-.03l-1.27-.2c-.03 0-.05.02-.05.05l-.14.88v.03a.06.06 0 0 0 .06.04c.5 0 .97-.04 1.45-.11.07-.01.12.02.16.1 0 .03 0 .04-.02.06-.11.1-.28.18-.5.26a5.7 5.7 0 0 1-1.14.28.13.13 0 0 0-.11.11c-.1.53-.22.98-.38 1.36-.03.1-.1.2-.18.3a.07.07 0 0 1-.12-.04 1.69 1.69 0 0 1 0-.53 7.1 7.1 0 0 0 .06-1.03h-.01l-.9.04c-.08 0-.11-.04-.1-.16.02-.28 0-.52-.05-.7-.02-.05.01-.07.07-.08l.89.12a.07.07 0 0 0 .06-.02.07.07 0 0 0 .02-.06l-.1-.9c-.02-.11-.1-.18-.23-.19l-.71-1.04.55.04 1.4.19.9.18a.07.07 0 0 0 .1-.1 5.28 5.28 0 0 1-.31-1.3c.4.1.76.21 1.09.36.12.05.24.13.36.24Z" fill="#C49C36"/><path d="m36.11 34.93.71 1.04-.86-.12a.05.05 0 0 0-.06.04v.02l.11 1c0 .04.02.05.04.06l.13.05c-.06 0-.09.03-.07.07.05.19.07.43.05.71-.01.12.02.17.1.16-.05.02-.07.06-.06.14-.28-.22-.55-.44-.8-.67a.8.8 0 0 0-.24-.12c-.03-.01-.04 0-.03.02l.09.69c-.5.03-.87-.03-1.4-.1a2.4 2.4 0 0 1-1.1-.41c-.45-.28-.8-1-.92-1.47l1.2-.77.47.48a3.46 3.46 0 0 0 1.56.92.06.06 0 0 0 .03-.06l-.27-1.83c0-.02.01-.03.04-.03l1.28.18Z" fill="#EDD069"/><path d="m17.73 36.19-.98.15a.5.5 0 0 0-.17.06 9.79 9.79 0 0 1-.9 1.86c-.2.34-.32.54-.57.76a.06.06 0 0 1-.09-.01l-.01-.03a.65.65 0 0 1 .05-.33 9.38 9.38 0 0 0 .63-2.13.03.03 0 0 0-.03 0l-1.64.23a.04.04 0 0 1-.03 0l-.81-.79a.05.05 0 0 1-.02-.05l.02-.03h.03c.08 0 .16.02.25 0l2.04-.3c.11-.02.23-.05.34-.1.02 0 .02-.02 0-.05.37.01.74-.04 1.12-.17-.04.05 0 .08.08.07l.81-.12c.08-.01.11-.04.1-.09.12-.05.2-.03.28.08a.2.2 0 0 1-.03.24c-.2.22-.36.47-.47.75Z" fill="#C49C36"/><path d="m24.32 36.06-.46.8a2.1 2.1 0 0 1-1.7 1.07l-.49.08c-.19.03-.47.03-.85 0l.16-1.32c.16-.04.34-.1.55-.21.48-.24 1.07-.8 1.42-1.18.43.31.88.56 1.37.76Z" fill="#EDD069"/><path d="m18.97 36.08-.12.95a.11.11 0 0 0 .07.12h.05l.78-.1c.21.08.41.05.6-.08l.63-.44a.27.27 0 0 0 0 .16l-.16 1.33a3.73 3.73 0 0 0-.19.97l.02.02.02.01h.02c.54-.18 1.1-.3 1.65-.34l-.54 1.54a6.25 6.25 0 0 0-1.24-.06.13.13 0 0 0-.13.12l-.36 2.45-.01.03a.04.04 0 0 1-.05 0H20l-.7-.7a.2.2 0 0 1-.05-.17l.22-1.51a.1.1 0 0 0 0-.05.08.08 0 0 0-.02-.03h-.04l.05-.05a.1.1 0 0 0 .03-.06l.06-.77c.01 0 .03 0 .04-.02a.1.1 0 0 0 .04-.07l.2-1.33a.03.03 0 0 0-.01-.02.03.03 0 0 0-.02-.01l-.9-.06a.06.06 0 0 0-.07.06l.09 1.5a.06.06 0 0 1-.04.06h-.03c-.28-.05-.54-1.25-.59-1.54-.02-.15-.07-.22-.22-.24-.4-.05-.8-.16-1.2-.32-.14-.05-.24-.1-.3-.15-.16-.14-.13-.2.08-.2.49.02.94.1 1.44.06a.06.06 0 0 0 .04-.02l.01-.02v-.02l-.11-.9.25-.01c.1-.02.18-.03.25-.02.16 0 .32-.03.48-.07Z" fill="#C49C36"/><path d="M31.06 36.4c.33.72.53 1.53.13 2.26-.29.54-.65 1.01-1.09 1.42a.85.85 0 0 1-.11-.03.2.2 0 0 1-.09-.06c-.26-.31-.49-.61-.7-.9.35-.72.5-1.47.44-2.25.47-.1.94-.25 1.42-.44Z" fill="#EDD069"/><path d="M40.32 36.52a11.69 11.69 0 0 0 .67 2.31c.07.2.02.23-.15.1a1.3 1.3 0 0 1-.29-.32c-.42-.63-.78-1.34-1.08-2.13l.85.04Z" fill="#B68C1E"/><path d="M26.48 36.75a5.6 5.6 0 0 0 .3 2.3.09.09 0 0 0 .09.02l.04-.03 1.06-1.42h.01a.04.04 0 0 1 .05 0l.75.97c-.07.44-.1.92-.1 1.42l-.61-.86-.02-.02h-.03a.07.07 0 0 0-.05.02c-.2.23-.4.47-.57.73a.24.24 0 0 0-.03.27l-.6.63a.08.08 0 0 0-.02.06l.01.06c-.08-.03-.14 0-.18.08l-.04-1.37c0-.03-.01-.03-.03-.01-.2.17-.38.37-.51.6-.38-.37-.7-.77-1-1.2-.26-.4-.47-.88-.42-1.37.04-.36.26-.9.43-1.23.48.16.97.28 1.47.35Z" fill="#EDD069"/><path d="M36.2 38.1c.08.45.13.81.16 1.1.02.13.04.2.17.25.52.2 1.06.45 1.62.75.3.16.8.44.9.7a.09.09 0 0 1-.06.12h-.05a12.53 12.53 0 0 0-2.35-.73.06.06 0 0 0-.04.04v.03l.23 1.59c0 .02 0 .05-.03.07l-.75.75a.02.02 0 0 1-.05 0l-.37-2.51c-.01-.1-.05-.13-.12-.1 0-.32-.02-.65-.1-.98-.01-.07 0-.12.02-.16a4.6 4.6 0 0 0-.16-1l-.1-.69c0-.03.01-.03.04-.02.11.04.2.08.23.12.26.23.53.45.81.67ZM38.8 39.33a.6.6 0 1 0 0-1.2.6.6 0 0 0 0 1.2ZM17.61 38.36l-.06-.06a.55.55 0 0 0-.78 0l-.07.07a.55.55 0 0 0 0 .77l.07.07c.21.21.56.21.77 0l.07-.07a.55.55 0 0 0 0-.78ZM28.78 38.6c.1.17.24.33.42.5.21.28.44.58.7.89a.2.2 0 0 0 .09.06c.03.02.07.03.11.03-.09.05-.1.11-.05.19a56 56 0 0 0 .5.69.07.07 0 0 0 .07-.01l.02-.02c.26-.49.57-.95.93-1.39l.68 1.48c-.29.23-.56.47-.83.72-.2.2-.07.29.05.45.49.66.94 1.27 1.35 1.8.04.07.03.1-.05.1l-.99-.01a.18.18 0 0 1-.14-.08l-.86-1.18c-.06-.08-.1-.1-.15-.07l-.42-.61a.1.1 0 0 1-.01-.04c-.02-.06-.04-.09-.09-.08 0-.07 0-.11-.02-.14a40.69 40.69 0 0 1-.8-1.02h-.02l-.69.53a.1.1 0 0 0 0 .16l1.13.99a.06.06 0 0 1 .02.07.06.06 0 0 1-.06.04c-.5 0-1.16-.49-1.58-.77a.17.17 0 0 0-.2 0c-.3.22-.64.42-1.02.61-.16.09-.34.14-.51.16a.05.05 0 0 1-.06-.04c-.01-.06.01-.1.06-.15a395.91 395.91 0 0 0 1.07-.94.1.1 0 0 0-.02-.11l-.65-.51a.18.18 0 0 1-.01-.06c0-.03 0-.05.02-.06l.6-.63.57.72a.07.07 0 0 0 .06.02.07.07 0 0 0 .06-.03l.63-.85c-.01-.5.02-.98.1-1.42Z" fill="#C49C36"/><path d="M25.39 41.01c-.25.27-.47.57-.66.9a9.8 9.8 0 0 0-1.12-.96c-.4-.3-.84-.5-1.33-.61l-.48-.12.54-1.54c.9-.13 1.57.24 2.12.91.34.43.65.9.93 1.42ZM35.38 39.02c-.03.04-.03.1-.02.16.08.33.1.66.1.98a5.33 5.33 0 0 0-2.35.35c-.23.1-.52.27-.86.51l-.68-1.48c.12-.14.26-.28.4-.4.62-.55 1.33-.52 2.12-.43.25.03.67.13 1.29.31Z" fill="#EDD069"/><path d="m19.54 39.42-.06.77a.1.1 0 0 1-.03.06l-.05.06c-.76.16-1.5.38-2.23.67a.35.35 0 0 1-.17.01.05.05 0 0 1-.05-.05l.01-.02c.09-.14.22-.27.4-.39.67-.44 1.4-.8 2.18-1.1Z" fill="#B68C1E"/><path d="M26.58 40.98c-.26.37-.46.64-.6.8-.1.12-.12.26-.05.4.35.76.6 1.5.75 2.25a2.2 2.2 0 0 1 .02.55.05.05 0 0 1-.06.02.2.2 0 0 1-.12-.1 16.1 16.1 0 0 0-1.14-2.15.08.08 0 0 0-.08 0 .08.08 0 0 0-.03.02L24.35 44a.11.11 0 0 1-.08.05l-1.05.06a.07.07 0 0 1-.06-.04.07.07 0 0 1 0-.07l1.57-2.1c.2-.32.41-.62.66-.89.23-.25.44-.52.6-.8.14-.24.31-.44.52-.61.02-.02.03-.02.03 0l.04 1.38ZM33.83 43c.52-.02.91-.45.89-.94a.91.91 0 0 0-.97-.86.91.91 0 0 0-.88.94c.02.5.45.88.96.86ZM21.96 43.2a.91.91 0 1 0 0-1.83.91.91 0 0 0 0 1.83Z" fill="#C49C36"/><path d="M30.63 42.75c-.43.65-.78 1.31-1.07 2a.47.47 0 0 1-.15.2h-.03a.06.06 0 0 1-.07-.05c-.02-.6.17-1.23.38-1.82.13-.36.27-.71.42-1.06.05-.01.07.02.09.08l.01.04.42.61Z" fill="#B68C1E"/><path d="M27.35 43.16a.6.6 0 0 0 .55.66.6.6 0 0 0 .65-.55.6.6 0 0 0-.54-.66.6.6 0 0 0-.66.55Z" fill="#C49C36"/><path d="m29.88 19.22 1.34.4.8.35 1.19.7c.7.49 1.3 1.07 1.8 1.73l.38.47.68 1.18.35.79.4 1.3.15 1.05c.05.61.04 1.33-.06 2.14l-.3 1.35c-.12.22-.22.48-.28.79l-.67 1.26c-.31.48-.66.93-1.04 1.36-.13.15-.33.34-.58.55l-.6.53-1.22.8c-.26.08-.51.2-.76.36-.49.2-.97.35-1.45.46l-.96.14c-.32.06-.56.08-.7.07a5.19 5.19 0 0 0-.73 0c-.09 0-.25-.01-.48-.05a9.36 9.36 0 0 1-1.99-.4l-.76-.3a7.23 7.23 0 0 1-1.8-1.1c-.32-.24-.58-.47-.86-.72-.32-.3-.63-.65-.93-1.07a6.2 6.2 0 0 0-.22-.26c-.3-.45-.56-.91-.78-1.4a3.07 3.07 0 0 0-.33-.78 8.04 8.04 0 0 1-.36-1.52 13.1 13.1 0 0 1-.1-1.65c0-.27.07-.83.2-1.69.11-.5.27-1.01.46-1.5l.36-.72a6.64 6.64 0 0 1 1.33-1.87c.34-.4.73-.76 1.14-1.08.23-.17.53-.35.8-.54l1.23-.65.86-.3 1.37-.29c.6-.08 1.03-.11 1.29-.11.5 0 1.1.08 1.83.22Z" fill="#B68C1E"/><path d="M28.52 21.03a6.99 6.99 0 0 1 6.25 5.2 6.93 6.93 0 0 1-8.32 8.6 6.92 6.92 0 0 1-5.41-6.16 6.94 6.94 0 0 1 7.48-7.64Z" fill="#C49C36"/><path d="M27.94 23A4.88 4.88 0 0 1 33 28a4.91 4.91 0 0 1-3.17 4.66 5 5 0 0 1-5-8.53A4.84 4.84 0 0 1 27.94 23Z" fill="#D6B348"/><path d="M25.6 26.15a3.04 3.04 0 0 1 3.33-1 2.93 2.93 0 0 1 2.02 3.42c-.3 1.76-1.92 2.71-3.64 2.36a2.86 2.86 0 0 1-2.3-2.66 3.1 3.1 0 0 1 .6-2.12Z" fill="#EDD069"/></svg>