<!-- by TradingView --><svg width="56" height="56" viewBox="0 0 56 56" xmlns="http://www.w3.org/2000/svg"><path fill="#F0F3FA" d="M0 0h56v56H0z"/><path fill="url(#a)" d="M8 21h7v14H8z"/><path d="M15 21H8v1.09c1.63.94 4.78 4.5 6.86 12.91H15V21Z" fill="url(#b)"/><path d="M28 21h-6.61L15 28l6.39 7H28l-6.39-7L28 21Z" fill="url(#c)"/><path d="m26.66 22.47-11.63 5.56L21.39 35H28l-6.39-7 5.05-5.53Z" fill="url(#d)"/><path d="M37 35h6.61L50 28l-6.39-7H37l6.39 7L37 35Z" fill="url(#e)"/><path d="m38.34 33.53 11.63-5.56L43.61 21H37l6.39 7-5.05 5.53Z" fill="url(#f)"/><path d="m27.45 31-3.03-3.52L30.45 21h6.05l-9.05 10Z" fill="url(#g)"/><path d="m24.46 27.52 8.82-4.66V21h-2.83l-6.03 6.48.04.04Z" fill="url(#h)"/><path d="m37.32 25 3.03 3.52L34.32 35h-6.05l9.05-10Z" fill="url(#i)"/><path d="m40.3 28.48-8.81 4.66V35h2.83l6.03-6.48-.04-.04Z" fill="url(#j)"/><defs><linearGradient id="a" x1="15.6" y1="25.81" x2="11.22" y2="34.87" gradientUnits="userSpaceOnUse"><stop stop-color="#F5EAA2"/><stop offset=".46" stop-color="#AF7A2C"/></linearGradient><linearGradient id="b" x1="11.5" y1="21" x2="11.5" y2="35" gradientUnits="userSpaceOnUse"><stop stop-color="#F5EAA2"/><stop offset=".52" stop-color="#AF7A2C"/></linearGradient><linearGradient id="c" x1="28" y1="21.78" x2="25.18" y2="26.62" gradientUnits="userSpaceOnUse"><stop stop-color="#EAD68A"/><stop offset="1" stop-color="#C59136"/></linearGradient><linearGradient id="d" x1="25" y1="23.55" x2="23.12" y2="35.59" gradientUnits="userSpaceOnUse"><stop stop-color="#E8D891"/><stop offset=".34" stop-color="#C18D35"/></linearGradient><linearGradient id="e" x1="37" y1="34.22" x2="39.82" y2="29.38" gradientUnits="userSpaceOnUse"><stop stop-color="#EAD68A"/><stop offset="1" stop-color="#C59136"/></linearGradient><linearGradient id="f" x1="40" y1="32.45" x2="41.88" y2="20.41" gradientUnits="userSpaceOnUse"><stop stop-color="#E8D891"/><stop offset=".34" stop-color="#C18D35"/></linearGradient><linearGradient id="g" x1="27.62" y1="30.78" x2="27.62" y2="26.52" gradientUnits="userSpaceOnUse"><stop stop-color="#E0C16C"/><stop offset="1" stop-color="#C69237"/></linearGradient><linearGradient id="h" x1="24.42" y1="26.96" x2="30.6" y2="22.73" gradientUnits="userSpaceOnUse"><stop stop-color="#E9D991"/><stop offset="1" stop-color="#C79337"/></linearGradient><linearGradient id="i" x1="37.15" y1="25.22" x2="37.15" y2="29.48" gradientUnits="userSpaceOnUse"><stop stop-color="#E0C16C"/><stop offset="1" stop-color="#C69237"/></linearGradient><linearGradient id="j" x1="40.35" y1="29.04" x2="34.17" y2="33.27" gradientUnits="userSpaceOnUse"><stop stop-color="#E9D991"/><stop offset="1" stop-color="#C79337"/></linearGradient></defs></svg>