<!-- by TradingView --><svg width="56" height="56" viewBox="0 0 56 56" xmlns="http://www.w3.org/2000/svg"><path fill="#F0F3FA" d="M0 0h56v56H0z"/><path fill-rule="evenodd" d="M14.67 17A3.67 3.67 0 0 0 11 20.67v14.66A3.67 3.67 0 0 0 14.67 39h26.66A3.67 3.67 0 0 0 45 35.33V20.67A3.67 3.67 0 0 0 41.33 17H14.67ZM16 21v14h4v-5h1.8c.9 0 1.7.8 1.7 1.63V35h4.19a6.26 6.26 0 0 1-.19-1.53v-3.35c-.08-.43-.69-1.35-1.95-1.6a4.2 4.2 0 0 0 2.14-3.81A4.3 4.3 0 0 0 23.3 21H16Zm6.7 3H20v3h2.7c.71 0 1.3-.53 1.3-1.2v-.6c0-.67-.59-1.2-1.3-1.2ZM41 21H29v4h4v10h4V25h4v-4Z" fill="#F80314"/></svg>