<!-- by TradingView --><svg width="56" height="56" viewBox="0 0 56 56" fill="none" xmlns="http://www.w3.org/2000/svg">
<rect width="56" height="56" fill="#F0F3FA"/>
<path d="M24 32.6562C25.2126 34.2955 26.5511 35.5305 28 37C29.4458 35.5336 30.8235 34.3138 32 32.6562C31.3244 32.0881 29.7812 30.8028 29.7812 30.8028C29.7812 30.8028 28.5625 29.625 28 29C27.2188 29.75 26.125 30.8028 26.125 30.8028C26.125 30.8028 24.6756 32.0881 24 32.6562Z" fill="#118179"/>
<path d="M25 21.9437C25.9095 23.378 26.9133 24.7142 28 26C29.0843 24.7169 30.1176 23.3941 31 21.9437C29.871 21.308 28.8186 19.987 28 19C27.2107 20.0174 26.3336 21.1106 25 21.9437Z" fill="#19A99C"/>
<path d="M35.9999 26.0089C34.4433 25.1727 33.1473 24.3095 32.3451 23.5658C31.5361 24.9569 30.4983 26.1707 29.5971 27.1957C30.3345 28.1667 31.7545 29.5424 33.12 30.5944L33.1715 30.5173C34.0571 29.1921 34.9819 27.8081 35.9999 26.0089Z" fill="#19A99C"/>
<path d="M39 19.7816C37.6364 19.2279 36.8728 18.806 35.6353 18C34.8819 19.6497 34.5819 20.0979 33.6 21.5217C34.2273 22.2072 35.6353 23.2354 36.8728 24C37.6364 22.8136 38.4 21.3107 39 19.7816Z" fill="#9D9FA2"/>
<path d="M34.0001 16.7459C32.7029 15.7764 32.2741 15.4358 31.308 14.5299C30.8677 15.331 30.2942 16.3266 29.4749 17.3747C30.0211 18.0822 30.7721 18.9126 32.0283 20C32.8886 18.834 33.3993 18.0036 34.0001 16.7459Z" fill="#7ACBC7"/>
<path d="M21.9999 16.7459C23.2971 15.7764 23.7808 15.4358 24.7469 14.5299C25.1872 15.331 25.7607 16.3266 26.58 17.3747C26.0338 18.0822 25.2828 18.9126 24.0266 20C23.1664 18.834 22.6007 18.0036 21.9999 16.7459Z" fill="#7ACBC7"/>
<path d="M30 12.9928L27.9927 16L26 12.9928C26 12.9928 26.6805 12.1815 27.0696 11.5971C27.4587 11.0127 27.9927 10 27.9927 10C27.9927 10 28.5091 11.0127 28.9011 11.5971C29.2931 12.1815 30 12.9928 30 12.9928Z" fill="#7ACBC7"/>
<path d="M20 26.0089C21.5657 25.1727 22.8292 24.3095 23.6361 23.5658C24.4498 24.9569 25.4936 26.1707 26.4 27.1957C25.6584 28.1667 24.2301 29.5424 22.8567 30.5944C21.9502 29.2457 21.0438 27.8431 20 26.0089Z" fill="#19A99C"/>
<path d="M17 19.7816C18.3637 19.2279 19.1273 18.806 20.3648 18C21.1182 19.6497 21.4182 20.0979 22.4 21.5217C21.7728 22.2072 20.3648 23.2354 19.1273 24C18.3637 22.8136 17.6 21.3107 17 19.7816Z" fill="#9D9FA2"/>
<path d="M24.0714 36.8191C24.8075 37.7435 26 38.9468 26 38.9468L20.6964 44C19.4642 41.9787 18.2321 40.0106 16.9999 37.2979C18.8214 36.2872 20.6964 35.2766 22.0892 34C22.0892 34 23.0173 35.4956 24.0714 36.8191Z" fill="#118179"/>
<path d="M13.4375 28.75C15.0027 28.3297 16.1304 27.8818 17.9094 27C18.8841 28.8274 19.7536 30.1145 21 31.848C19.381 33.0176 17.6874 34.0558 15.8986 35C14.9375 33.1875 14.3125 31.4688 13.4375 28.75Z" fill="#9D9FA2"/>
<path d="M11.0001 20.9159C12.4263 20.7795 13.9074 20.7448 15.3439 20.1562C15.6353 21.2086 16.2385 22.7985 17.5001 24.9538C16.2385 25.7723 13.9896 26.809 13.0845 27C12.2343 25.1993 11.6309 23.235 11.0001 20.9159Z" fill="#9D9FA2"/>
<path d="M31.9287 36.8191C31.1926 37.7435 30.0001 38.9468 30.0001 38.9468L35.3038 44C36.5359 41.9787 37.7681 40.0106 39.0002 37.2979C37.1788 36.2872 35.3038 35.2766 33.9109 34C33.9109 34 32.9828 35.4956 31.9287 36.8191Z" fill="#118179"/>
<path d="M42.5626 28.75C40.9974 28.3297 39.8697 27.8818 38.0907 27C37.1161 28.8274 36.2465 30.1145 35.0001 31.848C36.6191 33.0176 38.3127 34.0558 40.1016 35C41.0626 33.1875 41.6876 31.4688 42.5626 28.75Z" fill="#9D9FA2"/>
<path d="M45.0001 20.9159C43.574 20.7795 42.0928 20.7448 40.6564 20.1562C40.365 21.2086 39.7617 22.7985 38.5001 24.9538C39.7617 25.7723 42.0107 26.809 42.9157 27C43.7659 25.1993 44.3693 23.235 45.0001 20.9159Z" fill="#9D9FA2"/>
</svg>
