<!-- by TradingView --><svg width="56" height="56" viewBox="0 0 56 56" xmlns="http://www.w3.org/2000/svg"><path fill="#F0F3FA" d="M0 0h56v56H0z"/><path d="M50.89 24.14c.3 0 .55-.25.55-.57a.56.56 0 0 0-.55-.57c-.3 0-.56.26-.56.57 0 .32.25.57.56.57ZM25.55 23h2.1l.04.01.02.04v.04a.1.1 0 0 1-.01.06.07.07 0 0 1-.05.03l-.4.08a.16.16 0 0 0-.1.07c-.1.15-.14.3-.14.46L27 28.52v.17c0 .38.02.67.07.86.02.06.05.11.1.15.03.04.09.06.14.06l1.24.02c.44-.01.75-.2.94-.55a3.87 3.87 0 0 0 .27-1.25.1.1 0 0 1 .02-.03l.03-.02h.04a.1.1 0 0 1 .07.05l.02.08a10.47 10.47 0 0 0 .03 1.93h-.01l-4.39.01c-.02 0-.04 0-.05-.02a.1.1 0 0 1-.03-.06c0-.03.01-.05.03-.07a.1.1 0 0 1 .05-.03l.44-.08.02-.01c.1-.07.16-.36.16-.87v-5.07a.86.86 0 0 0-.13-.46.18.18 0 0 0-.05-.05.16.16 0 0 0-.06-.03l-.4-.06a.07.07 0 0 1-.04-.03.09.09 0 0 1-.02-.05v-.05c0-.01 0-.03.02-.04a.05.05 0 0 1 .04-.02ZM41.35 28.72c0-.01.02-.03.04-.03h.04c.02 0 .03 0 .04.02l.01.05c-.04.55-.26.93-.67 1.13a1 1 0 0 1-.84.03c-.5-.2-.75-.7-.73-1.53a536.57 536.57 0 0 0-.03-3.19.08.08 0 0 0-.06-.03h-.69l-.04-.01a.06.06 0 0 1-.02-.05v-.04l.02-.04.04-.03h.76l.02-.05v-1.28l.02-.02a.06.06 0 0 1 .04-.02 1.5 1.5 0 0 0 .68-.13H40l.01.02-.01.03v1.4l.03.04.04.01h1.15l.04.03c.02.01.02.03.02.05v.04l-.01.04a.05.05 0 0 1-.04.02h-1.14c-.02 0-.04 0-.05.02-.01.01-.04.03-.04.05v3.8c0 .2.1.36.23.49a.3.3 0 0 0 .1.06c.4.13.72-.11.96-.73l.06-.15ZM35 28.21c0-.03.01-.06.03-.08a.12.12 0 0 1 .09-.04h.04c.01 0 .03 0 .04.02l.02.04c.1 1.19.57 1.73 1.4 1.63.05 0 .1-.02.14-.05.47-.29.57-.72.31-1.3a2.93 2.93 0 0 0-.68-.58c-.54-.34-.9-.62-1.08-.84-.3-.36-.37-.78-.23-1.25.13-.4.43-.64.9-.73.52-.1.98.04 1.37.39a.09.09 0 0 0 .08.02l.04-.02a.1.1 0 0 0 .02-.03l.16-.33a.09.09 0 0 1 .07-.05c.03 0 .04.02.06.03a.1.1 0 0 1 .02.06l-.03 1.35c0 .03 0 .06-.03.08a.12.12 0 0 1-.07.04c-.04 0-.07 0-.1-.03a.13.13 0 0 1-.04-.08c-.1-.82-.47-1.24-1.12-1.26-.41-.02-.66.15-.74.5-.07.34.05.63.36.87.1.08.26.2.5.35.5.33.84.6 1.05.8.34.34.47.73.4 1.17-.07.44-.33.76-.77.95a1.71 1.71 0 0 1-1.85-.26.07.07 0 0 0-.06.02l-.02.02-.13.24-.04.03h-.05a.08.08 0 0 1-.04-.02.08.08 0 0 1-.02-.05v-1.6ZM46.41 25.34c-.02 0-.03-.01-.05-.03a.08.08 0 0 1-.01-.05v-.05a.08.08 0 0 1 .02-.06l.03-.01h.03a3.25 3.25 0 0 0 1.33-.1l.03.02a.07.07 0 0 1 .03.06v.92l.03.02h.02l.02-.03c.2-.5.47-.81.79-.95.37-.15.7-.1.96.17.14.13.2.3.2.53 0 .22-.08.39-.23.5-.26.17-.48.14-.65-.12-.17-.26-.12-.51.16-.76l.02-.03a.06.06 0 0 0-.01-.05l-.02-.02c-.2-.1-.42-.03-.66.2-.18.17-.34.4-.46.66a2.8 2.8 0 0 0-.18 1.16v1.8c0 .42.27.65.8.7a.1.1 0 0 1 .07.03c.02.02.03.04.03.07a.1.1 0 0 1-.03.06.07.07 0 0 1-.05.02h-2.25l-.02-.02a.07.07 0 0 1-.02-.06v-.02c0-.03.02-.06.04-.08a.1.1 0 0 1 .08-.02c.37.04.55-.34.56-.8v-3c0-.48-.2-.64-.6-.66ZM49.97 25.29l-.04-.03a.07.07 0 0 1-.02-.04v-.06a.07.07 0 0 1 .02-.05.06.06 0 0 1 .05-.02 3.45 3.45 0 0 0 1.35-.08V28.98c0 .58.2.85.59.82h.03l.03.02a.09.09 0 0 1 .02.07v.05c0 .02 0 .03-.02.04a.05.05 0 0 1-.03.02h-2.02l-.02-.02a.05.05 0 0 1 0-.04v-.04c0-.03.02-.06.04-.07a.1.1 0 0 1 .08-.03c.24.01.4-.07.47-.26a2 2 0 0 0 .05-.65v-2.91c0-.42-.2-.65-.58-.7ZM30.87 26.2c.38-.9 1.04-1.29 1.97-1.18.46.05.81.27 1.05.67.22.35.31.74.3 1.24l-.01.04c-.01.01-.02.03-.04.03h-2.57l-.06.01a.1.1 0 0 0-.03.06c-.08.57-.02 1.13.17 1.6.23.59.61.9 1.15.93.53.03.93-.24 1.2-.81a.12.12 0 0 1 .05-.06.11.11 0 0 1 .08 0 .1.1 0 0 1 .04.01.1.1 0 0 1 .03.08 1.83 1.83 0 0 1-1 1.06c-.44.18-.9.16-1.4-.05-.78-.34-1.17-1.07-1.17-2.21 0-.58.08-1.05.24-1.42Zm1.57-1a.6.6 0 0 0-.35.1c-.1.08-.21.2-.3.34s-.16.31-.2.5c-.05.2-.08.4-.09.6v.07h.01l.01.01h.01l1.82.05.02-.01v-.03l.01-.05c0-.41-.08-.81-.24-1.11-.17-.3-.4-.47-.64-.48h-.06ZM42.34 25.41c.48-.34 1-.47 1.59-.39.72.11 1.07.58 1.07 1.41v3c0 .06.02.12.06.17.03.05.09.08.14.09.17.03.29 0 .37-.12.04-.06.09-.06.14-.02l.02.03a.1.1 0 0 1 0 .04v.03c0 .01 0 .02-.02.03-.15.16-.35.26-.6.3a.86.86 0 0 1-.63-.1c-.12-.08-.2-.27-.26-.57v-.02h-.06c-.46.66-1.08.85-1.84.59a.4.4 0 0 1-.11-.06 1 1 0 0 1-.4-1.08c.1-.4.34-.7.75-.92.32-.17.72-.36 1.19-.57.13-.06.26-.15.4-.29.03-.04.05-.09.06-.14v-.86c-.01-.45-.22-.7-.62-.75-.38-.04-.7.04-.95.24a.06.06 0 0 0-.02.09l.02.02c.35.2.45.46.3.76-.1.21-.27.3-.5.29-.24-.02-.38-.16-.42-.4a.75.75 0 0 1 .32-.8Zm1.84 1.78-1.12.64c-.3.17-.46.45-.5.86-.03.4.08.7.34.86.26.17.55.14.87-.09.31-.23.47-.52.46-.88a50.04 50.04 0 0 1-.02-1.4h-.03Z" fill="#6ACEB2"/><path d="M24.93 23h-.34c-.04 0-.07.04-.07.08v.41c0 .04.03.08.07.08h.34c.04 0 .07-.04.07-.08v-.4c0-.05-.03-.09-.07-.09ZM6.65 23c.07 0 .14 0 .2.03.03 0 .05.01.07.03l.03.06 2.34 6.73a.12.12 0 0 1 0 .1.1.1 0 0 1-.04.03.09.09 0 0 1-.05.02h-.09a.18.18 0 0 1-.1-.04.21.21 0 0 1-.07-.1l-.55-1.6a.14.14 0 0 0-.05-.06.12.12 0 0 0-.07-.02 405.47 405.47 0 0 0-3.31.03.14.14 0 0 0-.05.06l-.55 1.6a.21.21 0 0 1-.07.1.18.18 0 0 1-.1.03h-.1l-.04-.01A.1.1 0 0 1 4 29.9v-.06l2.34-6.73c0-.02.02-.04.04-.06a.13.13 0 0 1 .05-.03.8.8 0 0 1 .22-.03Zm-.03.33-.01.02-1.54 4.43v.05l.02.01H8.2l.02-.01v-.05L6.7 23.35l-.02-.02-.02-.01h-.03ZM24.93 25h-.15c-.05 0-.08.04-.08.09v4.82c0 .05.03.09.08.09h.15c.04 0 .07-.04.07-.09V25.1c0-.05-.03-.09-.07-.09ZM10.2 23c.04 0 .07.02.1.05.02.02.03.05.03.08v2.81a.03.03 0 0 0 .02.04h.02l.02-.02c.37-.66.95-.98 1.75-.96.92.02 1.5.51 1.74 1.48.14.58.16 1.17.05 1.78-.12.73-.41 1.22-.86 1.47a2 2 0 0 1-1.48.2 1.73 1.73 0 0 1-1.21-.93h-.02l-.02.01-.01.03v.75a.1.1 0 0 1-.03.07.09.09 0 0 1-.06.02h-.15a.08.08 0 0 1-.09-.08l.01-6.68c0-.03.01-.05.03-.08.02-.02.05-.04.08-.04h.09ZM12 25.32c-1.12 0-1.67.73-1.67 2.17 0 1.45.57 2.17 1.68 2.17 1.12 0 1.67-.73 1.66-2.18 0-1.45-.56-2.17-1.67-2.16ZM22.93 23l.04.03.02.04.01.04v6.73l-.02.03a.1.1 0 0 1-.06.02h-.16a.1.1 0 0 1-.03 0 .1.1 0 0 1-.06-.09v-.78l-.02-.01h-.03l-.02.02c-.25.48-.65.78-1.2.91a2 2 0 0 1-1.47-.21c-.45-.25-.74-.74-.86-1.47-.1-.6-.09-1.2.06-1.78.23-.96.82-1.45 1.74-1.47a1.82 1.82 0 0 1 1.77.97h.04v-2.86c0-.03.01-.06.04-.08a.12.12 0 0 1 .08-.04h.13Zm-1.9 2.33c-1.11 0-1.68.71-1.68 2.16-.01 1.44.54 2.16 1.65 2.17 1.12 0 1.68-.71 1.69-2.16 0-1.44-.55-2.16-1.66-2.17ZM16.09 25.05c.48-.1.95-.04 1.39.19.45.23.68.75.67 1.56a296.76 296.76 0 0 0 0 3.04.09.09 0 0 1-.08.06h-.14a.09.09 0 0 1-.06-.03.1.1 0 0 1-.03-.07V29l-.03-.02h-.03l-.02.03c-.25.63-.75.96-1.51.99-.76.03-1.29-.25-1.59-.86a1.06 1.06 0 0 1-.05-.86c.1-.28.29-.5.55-.67.16-.1.37-.2.62-.28a15.32 15.32 0 0 1 2.04-.32.08.08 0 0 0 .02-.05c.03-.44-.02-.8-.14-1.04-.15-.3-.45-.49-.88-.56a1.94 1.94 0 0 0-1.03.1c-.27.1-.49.34-.66.72a.1.1 0 0 1-.04.04.1.1 0 0 1-.15-.05l-.04-.1a.24.24 0 0 1 .01-.2c.26-.44.65-.72 1.18-.82Zm.15 2.47c-.15.03-.32.07-.49.14-.68.27-.95.7-.82 1.27.05.25.23.44.52.58.24.11.5.16.79.16a1.54 1.54 0 0 0 1.43-.96 3.13 3.13 0 0 0 .16-1.37.09.09 0 0 0-.05-.05h-.03l-1.5.23Z" fill="#929293"/></svg>