<!-- by TradingView --><svg width="56" height="56" viewBox="0 0 56 56" xmlns="http://www.w3.org/2000/svg"><path fill="#F0F3FA" d="M0 0h56v56H0z"/><path d="M21.1 14h14.8a.1.1 0 0 1 .1.1v8.8a.1.1 0 0 1-.14.09l-14.81-8.81a.1.1 0 0 1-.05-.11.1.1 0 0 1 .1-.07Z" fill="#0B4385"/><path d="m12.37 26.98 7.29-12.92a.08.08 0 0 1 .1-.03l7.52 4.44a.08.08 0 0 1 0 .13l-14.8 8.48a.08.08 0 0 1-.12-.05v-.05ZM36.52 14.74l7.47 12.84a.1.1 0 0 1-.04.14L36.48 32a.1.1 0 0 1-.14-.04.1.1 0 0 1-.02-.05V14.8a.1.1 0 0 1 .08-.1.1.1 0 0 1 .12.05Z" fill="#EF2C24"/><path d="M19.5 41.2 12 28.31a.1.1 0 0 1 .04-.13l7.48-4.3a.1.1 0 0 1 .15.09v17.16a.1.1 0 0 1-.07.1.1.1 0 0 1-.11-.05ZM43.69 28.81l-7.27 12.87a.1.1 0 0 1-.1.05.1.1 0 0 1-.03-.01L28.8 37.3a.1.1 0 0 1-.04-.08.1.1 0 0 1 .05-.09l14.74-8.45a.1.1 0 0 1 .12.01.1.1 0 0 1 .02.12Z" fill="#0B4385"/><path d="M34.92 42H20.07a.07.07 0 0 1-.07-.08v-8.84a.08.08 0 0 1 .11-.07l14.85 8.85a.07.07 0 0 1 .04.08.07.07 0 0 1-.08.06Z" fill="#EF2C24"/></svg>