<!-- by TradingView --><svg width="56" height="56" viewBox="0 0 56 56" xmlns="http://www.w3.org/2000/svg"><path fill="#C22423" d="M0 0h56v56H0z"/><path d="M24.42 24.24c1.16 1.19 2.45 3 1.86 4.77a7.72 7.72 0 0 1-1.98 2.88c-1.01.98-2.13 1.9-3.37 2.73a39.2 39.2 0 0 1-3.71 2.27c-1.38.73-2.61 1.35-3.7 1.85l-.5.18c-.01 0-.02.01-.02.03 0 .03.02.05.05.05.18 0 .36-.01.55-.07 2.7-.76 5.3-1.58 7.78-2.46a55.3 55.3 0 0 0 5.42-2.26c1.31-.62 2.56-1.35 3.74-2.18.6-.42 1.15-.88 1.67-1.4a4.71 4.71 0 0 0 1.21-1.87c.2-.72.12-1.4-.24-2.06a4.95 4.95 0 0 0-.59-.91 13.34 13.34 0 0 0-2.4-2.07 29.35 29.35 0 0 0-4.04-2.22 63.99 63.99 0 0 0-4.63-1.91l-3.05-1.08A62.91 62.91 0 0 0 13.38 17a.04.04 0 0 0-.03.02.04.04 0 0 0 0 .04c0 .02.02.04.05.05.37.17.67.3.9.42a54.21 54.21 0 0 1 5.4 3.02 25.03 25.03 0 0 1 4.72 3.69ZM15.8 38.53c-.4.12-.81.24-1.13.35-.2.07-.2.1.01.1.11 0 .23-.03.36-.07 3.13-.9 5.94-1.8 8.43-2.72a55.03 55.03 0 0 0 4.61-1.94c1.4-.67 2.7-1.43 3.92-2.29.72-.51 1.34-1.06 1.86-1.65.48-.54.88-1.18 1-1.84.24-1.34-.72-2.58-1.66-3.44a14.52 14.52 0 0 0-2.37-1.76l-.37-.22c-.74-.44-1.21-.73-1.83-1.02a56.44 56.44 0 0 0-3.65-1.62l-2.29-.9a106.7 106.7 0 0 0-5.94-1.98l-.73-.21-.8-.23a1.47 1.47 0 0 0-.39-.07c-.11 0-.12.02-.02.08a22.01 22.01 0 0 1 16.89 7.53c1.42 1.2 2.63 2.88 1.65 4.79-.39.76-1 1.41-1.66 1.97a24.94 24.94 0 0 1-4.99 3.08c-1.04.5-1.68.79-1.9.88-.87.37-2.12.85-3.74 1.45a251.05 251.05 0 0 1-5.26 1.73Zm2-20.88a78.28 78.28 0 0 1-1.71-.56.03.03 0 0 1 .01-.03.22.22 0 0 1 .09-.03h.13a69.16 69.16 0 0 1 4.35 1.33 89.73 89.73 0 0 1 5.19 1.86c1.8.75 3 1.27 3.58 1.54.95.47 1.91 1 2.88 1.6.89.55 1.7 1.16 2.42 1.84.47.44.87.95 1.17 1.53 1.1 2.07-.7 3.8-2.18 4.94-.35.27-.7.53-1.06.76-1.2.77-2.44 1.45-3.74 2.04-.98.45-1.98.88-3 1.3a135.51 135.51 0 0 1-9.65 3.17.54.54 0 0 1-.24.02c-.13-.03-.14-.06-.01-.1 1.22-.37 2.37-.74 3.47-1.09 1.81-.58 3.54-1.2 5.19-1.83 1-.4 2.17-.9 3.48-1.51 1.3-.61 2.55-1.33 3.76-2.17.55-.38 1.05-.77 1.49-1.18a4.92 4.92 0 0 0 1.61-2.53c.33-1.67-1-3.12-2.18-4.09a23.82 23.82 0 0 0-4.96-3.01 62.32 62.32 0 0 0-6.8-2.71l-3.28-1.1Zm17.74 6.05a31.05 31.05 0 0 0-3.67-2.06 93.64 93.64 0 0 0-12.72-4.56c-.17-.04-.31-.07-.42-.06a.04.04 0 0 0-.03.02v.05l.07.03c.1.05.34.12.7.22.52.15 1 .3 1.52.47l.72.23c1.6.5 3.47 1.17 5.63 2a46.47 46.47 0 0 1 3 1.3c.93.4 2.1 1.04 3.5 1.9.57.35 1.13.75 1.69 1.2.9.72 1.67 1.53 2.07 2.61.4 1.07.1 2.19-.6 3.06-.33.42-.63.75-.91 1a13.68 13.68 0 0 1-2.6 1.92c-.32.2-.58.35-.8.46l-.65.35c-.27.15-.54.3-.8.42-.76.36-1.6.74-2.5 1.14-.5.22-1.06.44-1.64.65-.24.08-.42.16-.66.26l-.33.13a93.83 93.83 0 0 1-3.5 1.2c-1.6.52-2.89.92-3.88 1.21-.16.05-.16.08.01.1a1 1 0 0 0 .37-.05 129.7 129.7 0 0 0 6.08-1.87 71.47 71.47 0 0 0 4.8-1.82 33.03 33.03 0 0 0 6.13-3.28c.67-.47 1.27-1 1.8-1.6.43-.5.73-.98.9-1.45.74-2.24-1.7-4.1-3.28-5.18Zm2.26 7.07c.39-.43.7-.78.98-1.32.41-.79.48-1.67.15-2.48a5.31 5.31 0 0 0-1.17-1.74c-.8-.79-1.68-1.45-2.64-2.05A30.07 30.07 0 0 0 30 20.6c-.28-.13-.54-.23-.81-.33-.22-.09-.44-.17-.68-.28a147.93 147.93 0 0 0-6.94-2.43l-.39-.12c-.32-.1-.71-.2-1.04-.33a.04.04 0 0 1-.02-.05v-.01c.02-.03.05-.05.1-.04.16.03.31.06.48.11 3.4 1 6.76 2.15 10.06 3.45.67.26 1.54.64 2.61 1.14a25.2 25.2 0 0 1 4.25 2.5 7.58 7.58 0 0 1 2.37 2.58c.85 1.7-.3 3.3-1.54 4.37-.75.63-1.56 1.2-2.43 1.72-1.55.91-3.13 1.7-4.73 2.34a79.03 79.03 0 0 1-5.59 2.1 178.48 178.48 0 0 1-5.48 1.65c-.24-.03-.24-.08-.01-.15a81.06 81.06 0 0 0 11.73-4.26c1.27-.59 2.5-1.27 3.72-2.04.2-.13.42-.29.64-.46l.06-.05.1-.08c.44-.34.99-.76 1.34-1.16ZM17.41 17.1l1.7.53 3.3 1.1c2.34.77 4.6 1.68 6.8 2.71 1.75.82 3.49 1.8 4.98 3.02 1.18.97 2.51 2.42 2.18 4.1-.2 1-.87 1.84-1.62 2.53-.44.4-.93.8-1.49 1.18a26.48 26.48 0 0 1-3.76 2.17 56.66 56.66 0 0 1-3.5 1.52 91.9 91.9 0 0 1-5.19 1.83c-1.1.36-2.26.72-3.48 1.1-.12.03-.12.06.02.09.06.01.14 0 .24-.03 2.34-.67 4.49-1.34 6.44-2 1.48-.5 2.56-.9 3.23-1.17 1.02-.41 2.02-.85 3-1.3 1.3-.59 2.55-1.27 3.74-2.04.36-.23.72-.49 1.07-.76 1.47-1.15 3.29-2.87 2.18-4.95-.3-.58-.7-1.09-1.17-1.54-.73-.67-1.54-1.29-2.43-1.84a31.6 31.6 0 0 0-2.88-1.6c-.58-.27-1.78-.79-3.59-1.54a89.46 89.46 0 0 0-7.91-2.73l-1.64-.46a.33.33 0 0 0-.14 0 .22.22 0 0 0-.09.02.03.03 0 0 0 0 .05h.01Zm5.97.42c3.43 1.07 7.1 2.3 10.3 3.7 2.02.9 3.97 1.96 5.75 3.34.54.42.97.86 1.4 1.39.23.29.43.63.6 1.01.38.92.23 1.83-.3 2.67-.29.44-.6.83-.94 1.15a18.37 18.37 0 0 1-4.25 2.91 66.84 66.84 0 0 1-9.26 3.75 80.98 80.98 0 0 1-5.05 1.52c-.24-.03-.24-.08-.01-.14 1.17-.36 2.36-.73 3.56-1.12 2.18-.7 4.34-1.5 6.49-2.4.6-.24 1.4-.61 2.4-1.1a18.75 18.75 0 0 0 4.99-3.33c.27-.27.54-.61.82-1.03.68-1.04.83-2.12.23-3.25-.3-.57-.7-1.09-1.18-1.54-.7-.66-1.52-1.29-2.46-1.88-1.3-.82-2.8-1.6-4.47-2.3a82.65 82.65 0 0 0-6.34-2.4 105.49 105.49 0 0 0-4.12-1.34l-.01-.03v-.03l.02-.02.04-.02h.05c.65.16 1.23.33 1.74.49Zm18.17 9.19a2.98 2.98 0 0 1-.34 3.17c-.31.44-.6.79-.86 1.04a16.05 16.05 0 0 1-3.5 2.54 42.44 42.44 0 0 1-6.03 2.73l-1.6.6A112.64 112.64 0 0 1 23 38.86c-.1.05-.08.09.02.1.08.02.17 0 .27-.02 3.21-.9 6.25-1.92 9.11-3.04.78-.3 1.8-.74 3.07-1.3 1.77-.8 3.35-1.7 4.73-2.7.68-.51 1.43-1.17 2-1.9.83-1.03 1.1-2.25.4-3.43A8.7 8.7 0 0 0 40.04 24a28.74 28.74 0 0 0-4.24-2.43 51.9 51.9 0 0 0-2.88-1.23c-1.3-.5-2.55-.97-3.73-1.38a148.7 148.7 0 0 0-5.53-1.78 4.92 4.92 0 0 0-.6-.14l-.02.02-.01.02a.06.06 0 0 0-.01.05.06.06 0 0 0 .03.04 668 668 0 0 1 4.17 1.36c1.58.52 3.3 1.16 4.64 1.7 1.73.69 3.38 1.47 4.96 2.34.97.54 1.9 1.16 2.77 1.86.46.36.83.71 1.1 1.04.4.46.68.88.86 1.25Z" fill="#fff"/></svg>