<!-- by TradingView --><svg width="56" height="56" viewBox="0 0 56 56" xmlns="http://www.w3.org/2000/svg"><path fill="#E3311E" d="M0 0h56v56H0z"/><path fill-rule="evenodd" d="M13.96 31.88c.03-.15.06-.29.07-.42a1685.22 1685.22 0 0 1 1.15-8.44.08.08 0 0 1 .05-.02h6.68a.04.04 0 0 1 .04.02v.05l-1.33 1.8a.2.2 0 0 1-.08.06H17.63l-.05.03v.01a.1.1 0 0 0-.04.06l-.24 1.4v.03a.05.05 0 0 0 .03.04H20.74a1.25 1.25 0 0 1 .23.03.04.04 0 0 1 .01.05c-.3.44-.72 1.02-1.25 1.76-.12.16-.19.15-.37.15h-.07a195.88 195.88 0 0 0-2.24 0l-.02.03-.23 1.5v.01a.04.04 0 0 0 .02.02l.01.01h4.22v.03l-.36.5c-.23.32-.54.73-.94 1.31-.07.1-.2.1-.33.1a52823.07 52823.07 0 0 0-8.16-.03.08.08 0 0 1-.03-.04l-.52-2.37c-.01-.06-.03-.06-.06 0l-1.06 2.36a.14.14 0 0 1-.13.08H4.03c-.03 0-.04-.02-.02-.04l4.94-8.88a.14.14 0 0 1 .12-.08h2.27c.04 0 .06.02.07.05l2.47 8.83c.03.1.06.1.08 0ZM7.9 29.95l1.98-3.92c.02-.04.04-.04.05 0 .12.59.33 1.6.65 3.02.02.11.02.25-.03.36-.15.33-.27.6-.63.59a439.83 439.83 0 0 0-2.02-.02.03.03 0 0 1 0-.03ZM35.57 32H29.3a.04.04 0 0 1-.04-.04l1.18-8.93.01-.02.03-.01h2.51a.04.04 0 0 1 .03.01v.03l-.9 6.92c0 .02.02.04.04.04h3.68c.02 0 .04.02.04.04l-.26 1.93-.01.02-.03.01Zm-10.84-6.34c.01.27.34.44.6.51l.57.16c.84.23 1.47.4 2.18.89.74.5 1 1.32.9 2.16-.1.78-.55 1.38-1.2 1.82-.71.47-1.5.73-2.4.79a5.62 5.62 0 0 1-3.83-1.16v-.04l1.05-1.5c.01-.02.03-.02.04-.01l.09.04c.3.17.64.35.96.46.66.2 1.75.37 2.4.06.45-.22.3-.75-.1-.92a8.7 8.7 0 0 0-1.16-.4 5.66 5.66 0 0 1-1.76-.74 2.04 2.04 0 0 1-.97-2c.04-.4.16-.75.35-1.05a3.65 3.65 0 0 1 2.83-1.69 5.82 5.82 0 0 1 3.97 1v.01l-1.18 1.57c-.02.02-.03.03-.05.01a3.72 3.72 0 0 0-2.5-.62c-.33.03-.8.28-.79.65Zm14.77.79.21-1.4c0-.02.02-.05.04-.05h2.74c.12 0 .23 0 .3-.08a315.86 315.86 0 0 0 1.4-1.92h-6.8l-.03.01-.01.03-1.18 8.93a.02.02 0 0 0 0 .02h5.64c.06 0 .13-.05.2-.14l.31-.43c.34-.46.66-.9 1-1.39v-.01a.02.02 0 0 0 0-.02H39l-.02-.02a.05.05 0 0 1 0-.04l.2-1.44a.04.04 0 0 1 .04-.03h2.37c.17 0 .26-.01.36-.16a90.46 90.46 0 0 1 1.28-1.8h-3.7a.05.05 0 0 1-.04-.06Zm10.64 2.1a.45.45 0 0 1 .04.03l1.7 3.36a.04.04 0 0 1-.01.06H49.1l-.05-.01a.08.08 0 0 1-.03-.04l-2.22-4.84a.07.07 0 0 1 .03-.1h.01l.02-.01h1.47c.6 0 .95-.28 1.04-.85.08-.46 0-.98-.53-1.1-.15-.05-.4-.06-.72-.05H47.1c-.02 0-.04 0-.04.03l-.98 6.92-.01.04a.05.05 0 0 1-.04 0H43.6l-.02-.01 1.18-8.92c0-.04.02-.06.06-.06h3.71c.66 0 1.1.03 1.35.09 1 .24 1.76.86 2.02 1.85a3.08 3.08 0 0 1-1.55 3.54c-.1.06-.16.07-.19.06-.1-.05-.11-.04-.01 0Z" fill="#FBF8F9"/></svg>