<!-- by TradingView --><svg width="56" height="56" viewBox="0 0 56 56" xmlns="http://www.w3.org/2000/svg"><path fill="#F0F3FA" d="M0 0h56v56H0z"/><path d="M29 32.15V44l15.19-14.5a2.68 2.68 0 0 0 0-3.83L30 12a5.52 5.52 0 0 0 1 6.58l5.18 5.3 1.94-1.86c1.15 1.02 3.06 3.66 1.46 6.05l-4.04 4.3-.51-.49 3.58-4.11a3.48 3.48 0 0 0-.49-4.73L29 32.14Zm1.42-13.04 5.25 5.15-1.23 1.2-2.98-3.42a4.76 4.76 0 0 1-1.04-2.93Z" fill="#69C6B4"/><path d="M27 32.15V44L11.81 29.5a2.68 2.68 0 0 1 0-3.83L26 12a5.52 5.52 0 0 1-1 6.58l-5.18 5.3-1.94-1.86c-1.15 1.02-3.06 3.66-1.46 6.05l4.04 4.3.51-.49-3.58-4.11a3.48 3.48 0 0 1 .49-4.73l9.11 9.1ZM25.58 19.1l-5.25 5.15 1.23 1.2 2.98-3.42a4.76 4.76 0 0 0 1.04-2.93Z" fill="#23A388"/><path d="M29 22h-2v3h-3v2h3v3h2v-3h3v-2h-3v-3Z" fill="#7C9E3F"/></svg>