<!-- by TradingView --><svg width="56" height="56" viewBox="0 0 56 56" xmlns="http://www.w3.org/2000/svg"><path fill="#F0F3FA" d="M0 0h56v56H0z"/><path d="M35 22.99a11.94 11.94 0 0 0-8.62 3.6A11.94 11.94 0 0 0 23 35h-7.8c-1.12 0-2.2-.53-2.2-1.78v-8.21c0-.92.4-1.62 1.27-1.93.19-.06.5-.08.93-.08h7.75c.02 0 .03-.02.04-.03l.01-.04.01-7.93c0-1.27.51-2 1.74-2h8.75c1.1 0 1.5 1.23 1.5 2.15v7.84Z" fill="#00B1AD"/><path d="m34.69 23 1.47.03c.08 0 .12.04.12.11.04 2.25-.36 4.36-1.2 6.32a8.1 8.1 0 0 1-7.13 5.18c-.03 0-.05.02-.04.05 0 .03.02.04.04.04 2.14.02 4-.65 5.58-1.98 2.65-2.24 3.9-6.17 4.14-9.63 0-.08.05-.12.13-.12h3.32c.1 0 .14.05.12.14-.68 6.34-4.4 11.16-10.96 11.46-.03 0-.04.02-.04.05 0 .04.02.05.05.06.9.06 1.8-.01 2.69-.21 5.64-1.26 8.8-5.86 9.65-11.37a.15.15 0 0 1 .14-.13h2.11c.09 0 .13.04.12.12a11.83 11.83 0 0 1-10.19 11.65c-.07.01-.11.06-.11.13a8.2 8.2 0 0 1-5.93 7.76c-1.68.49-3.47.3-5.63.3-.08 0-.13-.04-.13-.12v-8.09a11.55 11.55 0 0 1 3.32-8.2A11.45 11.45 0 0 1 34.69 23Z" fill="#048D8C"/></svg>