<!-- by TradingView --><svg width="56" height="56" viewBox="0 0 56 56" xmlns="http://www.w3.org/2000/svg"><path fill="#F0F3FA" d="M0 0h56v56H0z"/><path d="M19 23.06v15.88l-.01.04a.06.06 0 0 1-.04.02h-5.89c-.01 0-.03 0-.04-.02a.06.06 0 0 1-.02-.04V17.07c0-.03.03-.07.06-.07h14.56c.02 0 .04.02.05.04l2.87 5.46a.06.06 0 0 1 0 .06l-4.09 5.9a.06.06 0 0 0 0 .07l3.18 5.44a.06.06 0 0 0 .05.03h6.57a.06.06 0 0 0 .05-.03l3.47-5.93a.06.06 0 0 0 0-.06l-3.54-5.14a.06.06 0 0 1 0-.06l2.46-5.74a.06.06 0 0 1 .05-.04.06.06 0 0 1 .06.03l7.19 10.95a.06.06 0 0 1 0 .07l-7.55 10.92a.06.06 0 0 1-.06.03H27.7a.06.06 0 0 1-.05-.03l-7.46-10.84a.06.06 0 0 1 0-.07l3.54-4.96.01-.03a.06.06 0 0 0-.03-.06h-4.63l-.04.01-.03.04Z" fill="#161616"/><path d="M29.17 30.28c-.46-1.68.1-3.9.73-5.56a32.84 32.84 0 0 1 2.85-5.7.12.12 0 0 1 .16.03 36.03 36.03 0 0 1 3 4.71c.93 1.76 1.79 3.96 1.55 5.96-.26 2.2-1.97 3.26-4 3.28-1.88.02-3.74-.69-4.3-2.72Z" fill="#DC1E38"/></svg>