<!-- by TradingView --><svg width="56" height="56" viewBox="0 0 56 56" xmlns="http://www.w3.org/2000/svg"><path fill="#F0F3FA" d="M0 0h56v56H0z"/><path d="M28.93 22c.04 0 .07.03.07.07v4.45c0 .06.02.1.06.14l.88.66c1.24.91 3.62 2.68 7.3 5.52.23.19.46.32.67.4 1.34.46 2.6.46 3.77-.39a.1.1 0 0 0 0-.15c-2.17-1.66-4.04-3.22-5.78-4.68a137.07 137.07 0 0 0-4.26-3.46c-.4-.32-.64-.71-.64-1.27a3187.96 3187.96 0 0 0 0-5.38c0-.13.08-.25.17-.34a.52.52 0 0 1 .35-.15c.32.03.48.19.48.48v5.66c0 .06.03.1.07.15.17.22.34.39.5.5 1 .74 1.71 1.39 2.32 1.95.47.43.88.81 1.34 1.14.68.5 1.47 1.16 2.22 1.78.52.43 1.02.84 1.45 1.17 1.92 1.5 4.33 2.78 6.09.14a.08.08 0 0 0 0-.06.08.08 0 0 0-.02-.05c-3.39-2.4-6.15-5-9.14-7.8l-1.5-1.42a5 5 0 0 1-.27-.26.23.23 0 0 1-.06-.16V15.1a.1.1 0 0 0-.1-.1H21.08c-.02 0-.04 0-.06.02a.08.08 0 0 0-.02.06v5.96a.29.29 0 0 1-.1.21l-10.85 9.37c-.06.05-.07.1 0 .16a3.96 3.96 0 0 0 3.27 1.09c.1-.02.26-.07.38-.15 1.52-1.17 3.06-2.4 4.68-3.7 1.72-1.37 3.54-2.82 5.53-4.35.06-.05.1-.11.1-.2V17.9c0-.07 0-.14.03-.2a.49.49 0 0 1 .1-.16c.06-.05.11-.08.17-.1a.37.37 0 0 1 .2-.02c.3.02.49.17.49.47v5.3c0 .34-.06.6-.15.78-.13.25-.3.46-.54.63l-2.01 1.6a405.96 405.96 0 0 1-8.12 6.4.12.12 0 0 0 0 .1l.02.04c1 1 2.1 1.32 3.3.95.44-.14 1.05-.5 1.83-1.11l3.77-2.95a597.63 597.63 0 0 1 3.88-3.05.17.17 0 0 0 .02-.07v-4.45c0-.04.01-.06.05-.06h1.88ZM22 36.4v4.51c0 .06.03.09.1.09h11.78a.1.1 0 0 0 .07-.03v-.01c.03-.02.05-.04.05-.07v-4.45c0-.06.04-.12.1-.1 1.31.17 3.2.1 3.88-1.17a.16.16 0 0 0 .02-.11.15.15 0 0 0-.06-.1l-9.87-7.74a.12.12 0 0 0-.14 0l-9.84 7.55c-.09.07-.1.14-.07.24.48 1.38 2.63 1.47 3.87 1.3a.1.1 0 0 1 .08.02.1.1 0 0 1 .03.03v.04Z" fill="#25785A"/></svg>