<!-- by TradingView --><svg xmlns="http://www.w3.org/2000/svg" width="56" height="56" viewBox="0 0 56 56"><path fill="#F0F3FA" d="M0 0h56v56H0z"/><path d="M23.5 12c-.83 0-1.5.67-1.5 1.5V22h-8.5c-.83 0-1.5.67-1.5 1.5v10c0 .83.67 1.5 1.5 1.5H25v-7.32h10V13.5c0-.83-.67-1.5-1.5-1.5h-10z" fill="#00AEAC"/><path d="M38.08 22.38c-.33 2.92-1.37 12.15-10.48 12.57 3.55-.33 8.58-3.02 9.04-12.95H35a13 13 0 0 0-13 13v9h4a9 9 0 0 0 9-9v-.15A13 13 0 0 0 46 22h-2.6c-.36 4.44-3.33 12.59-12.91 13.02C34 34.7 41.13 31.64 41.9 22h-3.78l-.04.38z" fill="#018587"/></svg>