<!-- by TradingView --><svg width="56" height="56" viewBox="0 0 56 56" xmlns="http://www.w3.org/2000/svg"><path fill="#F0F3FA" d="M0 0h56v56H0z"/><path fill-rule="evenodd" d="M15.67 18v.69c0 2.07.29 4.94 1.07 7.82a34.43 34.43 0 0 0-8.07-1.11L8 25.38v.67c0 3.66 2.67 6.65 6.38 8.68A28.55 28.55 0 0 0 28 38c.5 0 1 0 1.5-.03 4.42-.21 8.76-1.4 12.12-3.24C45.33 32.7 48 29.71 48 26.05v-.67l-.67.02c-3.03.08-5.72.48-8.07 1.11a31.3 31.3 0 0 0 1.07-7.82V18l-.7.04c-4.6.29-7.68 3.62-9.58 7.52A27.07 27.07 0 0 0 28 31.63a27.07 27.07 0 0 0-2.05-6.07c-1.9-3.9-4.97-7.23-9.59-7.52l-.69-.04ZM26.9 32.78c-.4-2.2-1.1-4.55-2.12-6.66-1.7-3.49-4.24-6.2-7.8-6.71.07 2.1.42 4.86 1.24 7.55a21.1 21.1 0 0 1 5.1 2.45c1.5 1 2.7 2.16 3.58 3.37Zm-9.72-4.8a31.73 31.73 0 0 0-7.84-1.26c.3 2.7 2.4 5.09 5.67 6.88 2.2 1.2 4.87 2.1 7.73 2.6-2.1-1.43-3.6-3.59-4.67-5.94-.34-.74-.64-1.5-.9-2.28Zm10.07 8.66c-3.88-.54-6.4-3.4-8-6.9-.18-.4-.35-.81-.5-1.22 1.47.56 2.75 1.23 3.84 1.96 2.75 1.84 4.25 4.12 4.66 6.16Zm10.53-9.68a30.18 30.18 0 0 0 1.23-7.55c-3.55.51-6.1 3.22-7.79 6.71a26.36 26.36 0 0 0-2.12 6.66c.87-1.21 2.07-2.36 3.58-3.37a21.1 21.1 0 0 1 5.1-2.45Zm-9.03 9.68c.41-2.04 1.91-4.32 4.66-6.16 1.09-.73 2.37-1.4 3.84-1.96-.15.4-.32.81-.5 1.21-1.6 3.52-4.12 6.37-8 6.9Zm4.51-.43c2.1-1.44 3.6-3.6 4.67-5.95.34-.74.64-1.5.9-2.28a31.73 31.73 0 0 1 7.83-1.26c-.3 2.7-2.4 5.09-5.67 6.88-2.2 1.2-4.87 2.1-7.73 2.6Z" fill="#00A650"/></svg>