<!-- by TradingView --><svg width="56" height="56" viewBox="0 0 56 56" xmlns="http://www.w3.org/2000/svg"><path fill="#F0F3FA" d="M0 0h56v56H0z"/><path d="M22 14h4.5s1.06-2.7 1.48-3.96V10v.06A87.4 87.4 0 0 0 29.5 14H34c-1.2.9-2.47 1.94-3.7 2.8a1692.74 1692.74 0 0 0 1.37 4.2l-3.7-2.6-3.7 2.59 1.44-4.18L22 14Z" fill="url(#a1lvjtnt1)"/><path d="M28.31 46c.34-.01.69-.04 1.03-.08A28.93 28.93 0 0 1 36.6 32.9a30.59 30.59 0 0 1 5.4-4.16v-3.89a33.68 33.68 0 0 0-7.82 5.8 31.96 31.96 0 0 0-8.21 15.03c.77.2 1.55.3 2.34.32Z" fill="url(#b1lvjtnt1)"/><path d="M37.94 40.72c.41-.68.86-1.33 1.36-2a20.28 20.28 0 0 0 2.5-7.41c-.82.68-1.66 1.5-2.5 2.36a31.76 31.76 0 0 0-7.2 11.56 14 14 0 0 0 5.84-4.5Z" fill="url(#c1lvjtnt1)"/><path d="M24.14 45.07c.9-5.78 3.6-11.18 7.73-15.47A31.36 31.36 0 0 1 42 22.45v-3.47c-2.81 1-7.53 3.27-12.55 8.42a31.98 31.98 0 0 0-8.34 15.79c.92.76 1.94 1.4 3.03 1.88Z" fill="url(#d1lvjtnt1)"/><path d="M24.11 29.6c.65-.9 1.34-1.75 2.07-2.57-4.88-4.89-9.44-7.09-12.18-8.05v3.47a31.4 31.4 0 0 1 10.11 7.14Z" fill="url(#e1lvjtnt1)"/><path d="M21.07 34.73c.5-1.06 1.06-2.1 1.68-3.1-.3-.32-.6-.68-.92-.97a33.68 33.68 0 0 0-7.83-5.8v3.84a30.58 30.58 0 0 1 5.4 4.16c.6.61 1.16 1.24 1.67 1.87Z" fill="url(#f1lvjtnt1)"/><path d="M19.89 37.52a30.3 30.3 0 0 0-3.18-3.85c-.85-.87-1.7-1.65-2.52-2.36.35 2.6 1.2 5.12 2.52 7.42.5.68.94 1.33 1.35 2 .2.26.42.51.64.76.31-1.35.71-2.67 1.19-3.97Z" fill="url(#g1lvjtnt1)"/><defs><linearGradient id="a1lvjtnt1" x1="24.18" y1="12.79" x2="31.32" y2="20.2" gradientUnits="userSpaceOnUse"><stop stop-color="#F0D084"/><stop offset="1" stop-color="#87713C"/></linearGradient><linearGradient id="b1lvjtnt1" x1="25.97" y1="35.43" x2="42" y2="35.43" gradientUnits="userSpaceOnUse"><stop stop-color="#0E7F46"/><stop offset="1" stop-color="#25B463"/></linearGradient><linearGradient id="c1lvjtnt1" x1="32.11" y1="38.26" x2="41.81" y2="38.26" gradientUnits="userSpaceOnUse"><stop stop-color="#0E7F46"/><stop offset="1" stop-color="#25B463"/></linearGradient><linearGradient id="d1lvjtnt1" x1="20.32" y1="42.46" x2="42.49" y2="19.45" gradientUnits="userSpaceOnUse"><stop stop-color="#0E7F46"/><stop offset="1" stop-color="#25B463"/></linearGradient><linearGradient id="e1lvjtnt1" x1="26.18" y1="24.29" x2="14" y2="24.29" gradientUnits="userSpaceOnUse"><stop stop-color="#0E7F46"/><stop offset="1" stop-color="#25B463"/></linearGradient><linearGradient id="f1lvjtnt1" x1="22.75" y1="29.79" x2="14" y2="29.79" gradientUnits="userSpaceOnUse"><stop stop-color="#0E7F46"/><stop offset="1" stop-color="#25B463"/></linearGradient><linearGradient id="g1lvjtnt1" x1="19.89" y1="36.4" x2="14.19" y2="36.4" gradientUnits="userSpaceOnUse"><stop stop-color="#0E7F46"/><stop offset="1" stop-color="#25B463"/></linearGradient></defs></svg>