<!-- by TradingView --><svg width="56" height="56" viewBox="0 0 56 56" xmlns="http://www.w3.org/2000/svg"><path fill="#F0F3FA" d="M0 0h56v56H0z"/><path d="M14 27.59c0-1.79 1.48-4.47 2.22-5.59v3.91c0 1.68 2.22 3.35 3.34 4.47 1.1 1.12 4.44 3.91 4.44 5.6 0 2.18-1.07 4.38-2.68 4.99a2.68 2.68 0 0 0 0 0c.2-.14.46-.69.46-2.2 0-2.24-1.67-3.36-3.34-5.03-1.66-1.68-4.44-3.92-4.44-6.15Z" fill="#112ED4"/><path d="M17 24.59c0-1.79 1.48-4.47 2.22-5.59v3.91c0 1.68 2.22 3.35 3.34 4.47 1.1 1.12 4.44 3.91 4.44 5.6 0 2.18-1.07 4.38-2.68 4.99a2.68 2.68 0 0 0 0 0c.2-.14.46-.69.46-2.2 0-2.24-1.67-3.36-3.34-5.03-1.66-1.68-4.44-3.92-4.44-6.15Z" fill="#ED3338"/><path d="M21 41c-9.72-2.81-11-8.53-11-13.5C10 21.31 16.45 17 21.5 17c4.45 0 9.94 3.94 10.5 9l3-1.92C33.46 18.28 27.88 14 21.5 14 13.92 14 8 20.04 8 27.5S13.42 41 21 41Z" fill="#112ED4"/><path d="M32.15 34.12c.09-.53-.34-.84-.79-1a17.8 17.8 0 0 0-.48-.17c-.95-.3-2.15-.85-2.07-2.04.11-1.36 1.66-1.93 2.85-1.9 1.21.02 2.4.66 2.34 1.99h-1.26c.07-.72-.46-1.06-1.15-1.07-.65-.02-1.41.27-1.53.98-.08.52.43.79.84.93l.44.15c1 .31 2.16.9 2.07 2.12-.13 1.39-1.65 1.91-2.86 1.89-1.27-.01-2.6-.58-2.55-2h1.26c-.06.82.62 1.08 1.35 1.08.64.01 1.42-.25 1.54-.96ZM37.82 32.84h-1.6l.13-.84h1.3c.63 0 1.2-.45 1.28-1.08.07-.6-.28-.94-.87-.95h-1.07L36.06 36H35l1.09-7h2c1.11.03 1.98.67 1.9 1.86a1.63 1.63 0 0 1-.95 1.44c-.44.21-.82.23-1.22.54ZM37.3 36h-1.93l.62-1h1.34c.68 0 1.2-.4 1.29-1.08.07-.56-.17-1.05-.79-1.08H36.6l.15-.84h1.49l.18.3c.84.08 1.3.82 1.25 1.62-.09 1.3-1.1 2.09-2.36 2.08ZM42.47 29H43.33l.87 5.39L46.67 29h.94l-3.11 7h-1l-1.03-7Zm-.43 0H43l-1 7h-1l1.04-7ZM47 29h1l-1.04 7h-1L47 29Z"/></svg>