<!-- by TradingView --><svg width="56" height="56" viewBox="0 0 56 56" xmlns="http://www.w3.org/2000/svg"><path fill="#F0F3FA" d="M0 0h56v56H0z"/><path d="M26.92 41.5a11.87 11.87 0 0 1-3 4.36l-.79-.7c1-.9 1.64-2.66 1.64-3.66-.13-.04.13.04 0 0a7.75 7.75 0 0 1-3.18 3.51l-.59-.84c2.88-1.6 3.42-5.8 3.42-8.48 0-.92-.27-1.46-.42-2.19l1-.5c.23.44.65 1.42.69 2-.04-1.5.15-3.23-.46-4.65l1.05-.35c.62 1.47.61 3.43.64 5l.5-5h1.12l.54 5c.03-1.58-.02-3.51.61-5l1.05.35c-.6 1.42-.42 3.15-.46 4.65.04-.58.46-1.72.72-2l1 .5c0 .5-.4 1.27-.4 2.19 0 2.8.57 6.7 3.4 8.5l-.65.8a8.92 8.92 0 0 1-3.02-3.49c-.1 1.5.54 2.8 1.51 3.66l-.79.7a12.23 12.23 0 0 1-2.97-4.36l-.54 4.5h-1.11l-.5-4.5Z" fill="#7E7B77"/><path d="m28.04 10 .32.32c1.8 1.81 2.67 4.59 2.67 7.11-.13 3.08-.92 5.06-2.14 6.44C29.9 24.55 30 25 32 25c.23-1.97 1.12-4.41 2.8-5.6 1.9-1.38 3.98-2.13 6.35-2.13h.5v.5c0 4.65-4.62 7.53-8.65 8.23-.05 1.4.28 2.46.87 3.56A8.37 8.37 0 0 1 38.5 28c2.39 0 4.1.63 5.98 2.05l.52.39-.5.4a9.57 9.57 0 0 1-6 2.16c-2 0-3.88-.79-4.88-2-.82.69-1.12 1.5-1.62 2.5l-1-.5a5.28 5.28 0 0 1 2.05-2.83A7.81 7.81 0 0 1 32 26c-2 0-2.62-.52-3.86-1.42A7 7 0 0 1 23.96 26a6.1 6.1 0 0 1-1 3.81C24.39 31.1 24.5 32 25 33l-1 .5c-.5-1.5-.48-1.8-1.64-2.87A6.54 6.54 0 0 1 17.5 33a9.5 9.5 0 0 1-5.96-2.14l-.54-.4.54-.41A10.7 10.7 0 0 1 17.5 28c2.04 0 3.5.43 4.66 1.2.56-.94.94-1.91.8-3.2a12.73 12.73 0 0 1-6.4-2.76 7.61 7.61 0 0 1-2.7-5.46v-.51h.5c2 0 4.43.79 5.9 2.16 2.01 1.87 3.3 3.84 3.7 5.57 1.12.03 2.51-.45 3.4-1.1-1.78-1.8-2.36-4.34-2.36-6.47 0-3.8 1.72-6.37 2.69-7.15l.35-.28Zm.07 13.22c1.03-1.14 1.76-2.83 1.89-5.79 0-2.12-.63-4.4-2.02-6.03-.8.86-1.98 3.01-1.98 6.03 0 2.02.57 4.26 2.1 5.8ZM22.97 25c-.4-1.42-1.64-3.2-3.4-4.82-1.19-1.12-3.05-1.7-4.66-1.87a6.87 6.87 0 0 0 2.3 4.15A12.58 12.58 0 0 0 22.98 25Zm-1.4 5c-1-.63-2.27-1-4.07-1-1.59 0-3.46.64-4.78 1.47A7.95 7.95 0 0 0 17.5 32c1.5 0 2.98-.76 4.06-2Zm12.87.4c.79.94 2.36 1.6 4.06 1.6 1.32 0 3.03-.35 4.83-1.55A7.49 7.49 0 0 0 38.5 29c-1.39 0-2.78.53-4.06 1.4ZM33 25c3.6-.7 6.9-2.91 7.58-6.73-1.91 0-3.67.85-5.2 1.95-1.36.97-2.15 3.18-2.38 4.78Z" fill="#A6B651"/></svg>