<!-- by TradingView --><svg width="56" height="56" viewBox="0 0 56 56" xmlns="http://www.w3.org/2000/svg"><path fill="#F0F3FA" d="M0 0h56v56H0z"/><path d="m28 14 21 8.32V34.2L28 42 7 34.2V22.32L28 14ZM7.98 23.02v10.46L28 40.92l20.02-7.44V23.02L28 15.09 7.98 23.02Z" fill="#E40110"/><path d="m28 18 18 7.08v7.34L28 39l-18-6.58v-7.34L28 18Zm0 .53-17.53 6.9v6.64L28 38.47l17.53-6.4v-6.64L28 18.53Z" fill="#E40110"/><path d="M21.88 24a2.45 2.45 0 0 1 1.35.34l.12.02c.06 0 .1-.02.12-.07a.73.73 0 0 0 .06-.23h.2l-.03.31-.02.47v.77h-.19a1.96 1.96 0 0 0-.2-.68 1.4 1.4 0 0 0-.46-.55 1.2 1.2 0 0 0-.73-.22c-.26 0-.48.06-.65.19a.6.6 0 0 0-.25.5c0 .19.05.34.16.48.11.12.27.25.48.37a1385.16 1385.16 0 0 0 1.47.86c.2.15.38.3.5.48.13.18.19.39.19.63 0 .3-.1.55-.29.74-.18.2-.43.35-.73.45-.31.1-.65.14-1.01.14a3.24 3.24 0 0 1-1.32-.25.67.67 0 0 0-.28-.1c-.06 0-.1.03-.12.08a1 1 0 0 0-.06.22H20l.02-.38v-.56l.01-.9h.2c.01.3.07.59.17.85s.26.47.47.63c.21.15.5.23.84.23.2 0 .36-.02.51-.08a.87.87 0 0 0 .37-.26c.1-.11.14-.25.14-.42 0-.19-.06-.35-.16-.5-.1-.14-.25-.27-.44-.39-.18-.12-.39-.25-.63-.37-.26-.14-.5-.29-.72-.43-.23-.14-.4-.3-.54-.48-.13-.18-.2-.4-.2-.65 0-.28.09-.51.26-.7.17-.18.4-.32.68-.4.28-.1.58-.14.9-.14ZM26.77 24c1.5 0 2.23.87 2.23 2.44 0 1.39-.81 2.56-2.28 2.56h-2.06v-.14c.34 0 .34-.24.34-.6v-3.51c0-.35.05-.6-.34-.6V24h2.11Zm0 .13c-.4 0-.77.27-.77.6v3.54c0 .34.38.6.77.6 1.21 0 1.23-1.53 1.23-2.43 0-1.06-.12-1.71-.49-2.05a1.05 1.05 0 0 0-.74-.26ZM35.56 24v.14c-.43.02-.56.2-.56.6v3.5c0 .43.15.59.56.61V29h-2.2v-.15c.44-.02.64-.16.64-.6v-3.82L32.24 29h-.1l-1.9-4.54v3.38c0 .26.02.46.05.6.06.27.23.37.63.41V29h-1.36v-.15c.3-.04.44-.14.48-.4.03-.12.05-.3.05-.53v-3.17c0-.18-.02-.3-.05-.38a.23.23 0 0 0-.15-.17.92.92 0 0 0-.33-.06V24h1.71l1.47 3.58-.17.16L34 24h1.56ZM20.72 30c.25 0 .35.08.45.16a9.02 9.02 0 0 0 .12.05c.03 0 .04-.01.05-.04a1 1 0 0 0 .03-.17h.08l-.02 1h-.08c0-.13-.03-.36-.08-.49-.08-.25-.24-.42-.5-.42-.23 0-.41.17-.41.45 0 .37.33.56.6.76.3.23.6.5.6.92 0 .46-.31.78-.78.78a.81.81 0 0 1-.5-.15c-.05-.04-.1-.06-.12-.06-.03 0-.04.02-.05.05l-.03.16H20v-1h.08c.01.17.05.28.1.42.04.15.1.27.2.36.08.09.2.13.35.13.3 0 .45-.24.45-.51 0-.35-.28-.57-.54-.76-.32-.24-.62-.48-.62-.92 0-.4.28-.72.7-.72ZM35.15 30c.12 0 .22.02.28.05l.17.1a9.02 9.02 0 0 0 .12.06c.03 0 .04-.01.05-.04a.59.59 0 0 0 .03-.14h.08a8.17 8.17 0 0 1-.02.44v.43h-.08c0-.13-.03-.26-.07-.39a.73.73 0 0 0-.2-.3.43.43 0 0 0-.3-.12.4.4 0 0 0-.3.12.46.46 0 0 0-.12.33c0 .12.02.22.08.3.05.08.12.16.2.23.1.06.2.14.31.23.12.08.23.17.32.26a.8.8 0 0 1 .3.66c0 .17-.04.32-.1.44a.66.66 0 0 1-.3.25.9.9 0 0 1-.38.09.81.81 0 0 1-.51-.15c-.05-.04-.1-.06-.12-.06-.02 0-.04.02-.05.05a.8.8 0 0 0-.03.13h-.08v-.2a11.38 11.38 0 0 0 .02-.82h.08c0 .17.03.33.07.47.05.15.11.27.2.36.1.09.21.13.36.13.08 0 .16-.02.22-.05a.4.4 0 0 0 .17-.17.6.6 0 0 0 .06-.3.6.6 0 0 0-.07-.29.8.8 0 0 0-.19-.23 5.93 5.93 0 0 1-.59-.47.98.98 0 0 1-.23-.29.84.84 0 0 1-.08-.39c0-.16.03-.3.1-.4.06-.11.15-.2.26-.24.1-.05.22-.08.34-.08ZM23.7 30v.81h-.1c-.03-.36-.1-.56-.23-.64a.5.5 0 0 0-.28-.07h-.25c-.23 0-.27.11-.27.33v2.14c0 .22.04.33.27.33h.23c.14 0 .25-.02.32-.07.16-.1.24-.33.28-.73h.1v.9h-1.89v-.08c.25-.02.28-.14.28-.37v-2.1c0-.23-.03-.36-.28-.37V30h1.81Zm-.6 1.45v.08h-.64v-.08h.65Zm.1-.56.02 1.2h-.08a2.9 2.9 0 0 0-.05-.26.44.44 0 0 0-.1-.22c-.05-.05-.12-.08-.22-.08v-.08c.07 0 .13-.02.17-.06a.35.35 0 0 0 .1-.14 40.2 40.2 0 0 0 .08-.36h.09ZM25.05 30v.08c-.25.01-.28.14-.28.37v2.12c0 .22.03.33.26.33h.23c.2 0 .34-.07.43-.2.1-.14.18-.41.21-.7h.1v1h-1.92v-.08c.24-.02.28-.14.28-.37v-2.1c0-.23-.04-.36-.28-.37V30h.97ZM27.6 30l.93 2.65c.07.2.17.26.25.27V33h-.98v-.08c.27-.02.32-.08.22-.36l-.68-2.05.06-.07-.63 1.83a1.5 1.5 0 0 0-.09.31c-.02.24.1.33.32.34V33h-.73v-.08c.11-.03.22-.13.32-.4l.88-2.52h.13Zm.4 1.79v.08h-1.14l.04-.08H28ZM32.93 30l.93 2.65c.07.2.18.26.26.27V33h-.99v-.08c.27-.02.32-.08.23-.36l-.69-2.05.06-.07-.63 1.83a1.5 1.5 0 0 0-.09.31c0 .09 0 .15.02.2.05.1.16.13.32.14V33h-.74v-.08c.1-.03.21-.13.31-.4L32.8 30h.13Zm.4 1.79v.08H32.2l.04-.08h1.1ZM29.1 30h.98c.45 0 .87.23.87.73 0 .08-.02.17-.04.27-.12.4-.53.55-.9.55h-.34v-.09h.3c.42 0 .56-.3.56-.69 0-.44-.14-.69-.52-.69-.2 0-.24.07-.24.36v2.14c0 .23 0 .32.23.34V33h-.94v-.08c.24-.02.31-.11.31-.34v-2.14c0-.21-.03-.35-.27-.36V30Zm.58 1.48a4.28 4.28 0 0 1 .6.05c.17.03.3.09.37.17.08.08.14.21.17.38l.08.43c.02.11.04.2.07.25.02.05.06.07.1.07.04 0 .07-.01.1-.03a.63.63 0 0 0 .08-.1l.04.04a.72.72 0 0 1-.16.2.39.39 0 0 1-.23.06.38.38 0 0 1-.26-.1c-.07-.06-.11-.17-.14-.35l-.07-.41a2.8 2.8 0 0 0-.07-.31.5.5 0 0 0-.1-.2c-.05-.06-.12-.08-.2-.08h-.37l-.01-.07Z" fill="#E40110"/></svg>