<!-- by TradingView --><svg width="56" height="56" viewBox="0 0 56 56" xmlns="http://www.w3.org/2000/svg"><path fill="#F0F3FA" d="M0 0h56v56H0z"/><path fill-rule="evenodd" d="M50 28c0-5.89-19.52-6-22-6-2.48 0-22 .11-22 6s19.52 6 22 6c2.48 0 22-.11 22-6Zm-22 7c13.25 0 24-3.13 24-7s-10.75-7-24-7-24 3.13-24 7 10.75 7 24 7Z" fill="#8A8A8A"/><path d="M47 28H9c2.86-1.17 10.23-3 18-3s16.76 1.83 20 3ZM47 29H9c3.24.78 11.14 2 18 2 6.86 0 16.38-1.22 20-2Z" fill="#818B82"/><path d="M16 23h2l2.5 6 2.5-6h1.77L21.5 33h-2L16 23Zm-1 0h3v10h-3V23Zm8 0h3v10h-3V23ZM32 30h-3v-3h2c1.5 0 2 0 2-.5s-.5-.5-2-.5h-1v7h-3V23h5c2.07 0 4 1.35 4 3.5 0 2.14-1.99 3.5-4 3.5ZM40 23v10h-3V23h3Z" fill="#F30610"/></svg>