<!-- by TradingView --><svg width="56" height="56" viewBox="0 0 56 56" fill="none" xmlns="http://www.w3.org/2000/svg">
<rect width="56" height="56" fill="#F0F3FA"/>
<circle cx="28" cy="28" r="17" fill="#177FC1"/>
<path fill-rule="evenodd" clip-rule="evenodd" d="M27.875 19C20.0121 19 13.396 24.4797 11.4531 31.9219C11.4531 31.9219 11.6408 32.6978 11.8281 33.2734C12.0154 33.8491 12.2578 34.4377 12.2578 34.4377H43.7266C43.7266 34.4377 43.9744 33.8125 44.1172 33.3906C44.241 33.0247 44.4207 32.4264 44.4207 32.4264C42.6506 24.7287 35.9146 19 27.875 19Z" fill="#34C6F4" fill-opacity="0.4"/>
<path fill-rule="evenodd" clip-rule="evenodd" d="M28 45C34.8825 45 40.8181 40.8977 43.4922 35.0156C43.4922 35.0156 36.8202 32 28 32C19.1798 32 12.5625 35.0625 12.5625 35.0625C15.2366 40.9446 21.1175 45 28 45Z" fill="#177FC1"/>
<path fill-rule="evenodd" clip-rule="evenodd" d="M28 21C20.5434 21 14.0829 26.1235 11.7911 33.1647L12.1867 34.2959C12.5924 33.9224 13.0629 33.4371 13.5987 32.8844C16.4771 29.9153 21.2424 25 28 25C35.8533 25 41.2168 29.9495 43.4881 35.0139C43.4881 35.0139 43.6897 34.5623 43.8047 34.2734C43.9196 33.9846 44.0768 33.5348 44.0768 33.5348C41.9046 26.2935 35.5869 21 28 21Z" fill="#74D7FD" fill-opacity="0.5"/>
<path fill-rule="evenodd" clip-rule="evenodd" d="M28 23C20.5603 23 14.3314 27.921 12.0703 34L12.4863 34.9837C15.0802 32.8036 18.4688 24.9688 28 25C37.5312 25.0312 42.1562 32.125 43.4922 35L43.8039 34.2842C41.6776 28.0181 35.6187 23 28 23Z" fill="#A4DFFB" fill-opacity="0.8"/>
<path fill-rule="evenodd" clip-rule="evenodd" d="M28 25C21.4375 25 15.3125 29.1875 12.4844 34.9922C12.4844 34.9922 19.6292 32 28 32C36.3708 32 43.4922 35 43.4922 35C40.6406 29.0469 35.0072 25 28 25Z" fill="url(#paint0_linear_5085_143257)"/>
<path fill-rule="evenodd" clip-rule="evenodd" d="M44.6287 31.5528C43.2645 23.3103 36.3924 17 28 17C19.8296 17 12.8805 22.996 11.2468 30.9056C11.2468 30.9056 11.3956 31.7213 11.5312 32.2344C11.6446 32.663 11.8594 33.3281 11.8594 33.3281C14.0822 30.7391 19.9204 25 28 25C36.2909 25 42.058 31.0341 44.0794 33.5161C44.0794 33.5161 44.3008 32.8564 44.4219 32.4102C44.5093 32.0877 44.6287 31.5528 44.6287 31.5528Z" fill="url(#paint1_linear_5085_143257)" fill-opacity="0.3"/>
<defs>
<linearGradient id="paint0_linear_5085_143257" x1="25.625" y1="32.5" x2="34.8125" y2="24.4375" gradientUnits="userSpaceOnUse">
<stop offset="0.498431" stop-color="white"/>
<stop offset="0.832825" stop-color="white" stop-opacity="0.9"/>
</linearGradient>
<linearGradient id="paint1_linear_5085_143257" x1="27.875" y1="15.2696" x2="27.875" y2="34.5631" gradientUnits="userSpaceOnUse">
<stop stop-color="white" stop-opacity="0.26"/>
<stop offset="0.230668" stop-color="#1CC5FC"/>
<stop offset="1" stop-color="white" stop-opacity="0"/>
</linearGradient>
</defs>
</svg>
