<!-- by TradingView --><svg width="56" height="56" viewBox="0 0 56 56" xmlns="http://www.w3.org/2000/svg"><path fill="#F0F3FA" d="M0 0h56v56H0z"/><circle cx="28" cy="28" r="16" fill="#00A8A8"/><path d="M36.33 17.72a.5.5 0 0 0-.45-.72h-3.95a2 2 0 0 0-1.8 1.1l-1.08 2.18a.5.5 0 0 0 .45.72h3.96a2 2 0 0 0 1.78-1.1l1.09-2.18ZM35.28 21.5H28v.5h4.52a1 1 0 0 1 .88 1.46L25 39.82a.46.46 0 0 0 .8.48l11.1-15.64a2 2 0 0 0-1.62-3.16Z" fill="#FEFCFC"/><path d="M26.96 28H21c-1.5 0-2.45-1.98-1.8-3.3l7.2-14.56c2.91-.32 4.37-.13 6.6 1L25.56 23H31c.76 0 1.59.37 1.24 1.03L23.87 40l4.08-11.1c.24-.66-.28-.9-.99-.9Z" fill="#EF1C23"/></svg>