<!-- by TradingView --><svg width="56" height="56" viewBox="0 0 56 56" xmlns="http://www.w3.org/2000/svg"><path fill="#F0F3FA" d="M0 0h56v56H0z"/><path d="M28 26h-2.83c0-.58-1-1.5-2.21-1.5-.86 0-1.9.38-1.9 1.04 0 .57.78.79 2.45 1.21 1.86.48 4.49 1.1 4.49 3.65 0 2.22-1.98 3.6-4.75 3.6-3.7 0-5.24-2.2-5.24-4h2.84s.21 1.58 2.56 1.58c1.27 0 1.74-.53 1.74-1.02 0-.74-1-1-2.09-1.25-1.77-.4-4.89-1.05-4.89-3.63C18.17 23.57 20.3 22 23 22c3.08 0 5.01 2.2 5.01 4ZM38 22h-9v3h9v-3ZM36 26h-7v3h7v-3ZM32 30h-3v4h3v-4Z" fill="#1979F5"/><path d="M27.97 11a16.31 16.31 0 0 0-14.5 8.5 13.43 13.43 0 0 0-1.79 7.17v.02a14.9 14.9 0 0 0 4.88 10.45c1.01.99 2.18 1.8 3.46 2.41l.01-.02a15.15 15.15 0 0 0 16.2-1.77 15.53 15.53 0 0 1-17.7-1.57 12.71 12.71 0 0 1-4.63-9.13 12.08 12.08 0 0 1 3.47-8.95 14.73 14.73 0 0 1 10.6-4.47A14.36 14.36 0 0 1 42.31 27a14.32 14.32 0 0 1-12.42 15.16l-.22.03a14.73 14.73 0 0 1-2.31.08c-4.91-.02-8.89-1.52-11.79-4.43-2.53-2.55-3.87-5.83-4.57-8.57a16.99 16.99 0 0 0 11.36 14.77 17.05 17.05 0 0 0 22.4-13.2A16.98 16.98 0 0 0 27.96 11Z" fill="#1979F5"/></svg>