<!-- by TradingView --><svg width="56" height="56" viewBox="0 0 56 56" xmlns="http://www.w3.org/2000/svg"><path fill="#F0F3FA" d="M0 0h56v56H0z"/><path d="M40 44.5c-.64 0-1.92-.5-1.92-2.5v-1.3a.2.2 0 0 0-.2-.2h-.68a.2.2 0 0 0-.2.2V42h-8v-9.5a.5.5 0 0 0-.5-.5h-1a.5.5 0 0 0-.5.5V42h-8v-1.3a.2.2 0 0 0-.2-.2h-.68a.2.2 0 0 0-.2.2V42c0 .83-.38 2.5-1.92 2.5v.5h24v-.5ZM27.82 33h.36c.17 0 .3.13.3.3v6.4a.3.3 0 0 1-.3.3h-.36a.3.3 0 0 1-.3-.3v-6.4c0-.17.13-.3.3-.3Z" fill="#F43E19"/><path d="M16 44V12h24v31.84c-.48.06-1.5-.24-1.5-1.84v-1.5a.5.5 0 0 0-.5-.5h-.5a.5.5 0 0 1-.5-.5V14h-8v9.5a.5.5 0 0 1-.5.5h-1a.5.5 0 0 1-.5-.5V14h-8v25.5a.5.5 0 0 1-.5.5H18a.5.5 0 0 0-.5.5V42c0 .72-.54 2-1.5 2Zm11.72-28a.2.2 0 0 0-.2.2v6.6c0 .11.09.2.2.2h.56a.2.2 0 0 0 .2-.2v-6.6a.2.2 0 0 0-.2-.2h-.56Z" fill="#F43E19"/><path d="M35.7 16h-1.4a.3.3 0 0 0-.3.3V33c0 3.03 0 4.36-1.7 4.5a.28.28 0 0 1-.3-.3v-4.9a.3.3 0 0 0-.3-.3h-1.4a.3.3 0 0 0-.3.3v7.4c0 .17.14.3.3.3 4.74-.08 5.7-2.06 5.7-5V16.3a.3.3 0 0 0-.3-.3Z" fill="#F04117"/><path d="M26 23.7v-7.4a.3.3 0 0 0-.3-.3c-5.22.1-5.7 3.05-5.7 6 0 2.5 4 10 4 13 0 1.5-1.16 2.52-1.86 2.93a.1.1 0 0 1-.14-.09V32.3a.3.3 0 0 0-.3-.3h-1.4a.3.3 0 0 0-.3.3v7.4c0 .17.13.3.3.3 3.34-.08 5.7-1.5 5.7-5 0-5-4-10.5-4-13 0-1.89 1.18-2.73 1.88-2.97.06-.02.12.03.12.1v4.57c0 .16.13.3.3.3h1.4a.3.3 0 0 0 .3-.3Z" fill="#F43E19"/></svg>