<!-- by TradingView --><svg width="56" height="56" viewBox="0 0 56 56" xmlns="http://www.w3.org/2000/svg"><path fill="#F0F3FA" d="M0 0h56v56H0z"/><path d="m19.37 24.92 11.7 13.98a5.5 5.5 0 0 1-.4 7.45l-.51.48c.3-1.34.32-2.04-.4-3.06l-10.73-12.8a4.47 4.47 0 0 1 .34-6.05Z" fill="#00F"/><path d="m18.12 27.25 11.95 14.28a4.49 4.49 0 0 1 .35 5.2l-.28.27c.31-1.34.33-2.04-.4-3.06l-10.72-12.8a4.47 4.47 0 0 1-.9-3.89Z" fill="#0C0CC5"/><path d="m22.23 19.28 11.7 13.98a5.5 5.5 0 0 1-.4 7.46l-.52.47c.31-1.33.33-2.04-.4-3.06L21.9 25.33a4.47 4.47 0 0 1 .34-6.05Z" fill="#FBCD00"/><path d="M24.65 13.28 28.5 9l2.42 2.57c.27.43.73 1.88.4 4.28l1.62 2.57-1.21 1.29-3.23-3.86c-.14-.14-.49-.34-.81 0-.13.14-.26.36-.38.61l9.67 11.55a4.47 4.47 0 0 1-.34 6.05l-1.2 1.14c.3-1.34.32-2.04-.4-3.06L24.3 19.33a4.47 4.47 0 0 1 .34-6.05Z" fill="#00F"/><path d="m23.37 15.38 11.96 14.27a4.49 4.49 0 0 1 .35 5.21l-.28.27c.3-1.34.32-2.04-.4-3.06L24.26 19.26a4.47 4.47 0 0 1-.9-3.88Z" fill="#0C0CC5"/><path d="m20.96 21.47 11.96 14.28a4.49 4.49 0 0 1 .34 5.2l-.27.27c.3-1.34.32-2.04-.4-3.06l-10.73-12.8a4.47 4.47 0 0 1-.9-3.89Z" fill="#DF990B"/></svg>