<!-- by TradingView --><svg width="56" height="56" viewBox="0 0 56 56" xmlns="http://www.w3.org/2000/svg"><path fill="#F0F3FA" d="M0 0h56v56H0z"/><path d="m19.25 15.92-7 3.94a.5.5 0 0 0-.25.43v7.38c0 .2.12.38.3.46l7.5 3.28a.5.5 0 0 0 .4 0l6.34-2.96a.5.5 0 0 0 0-.9l-6.25-2.97a.5.5 0 0 1-.29-.45v-7.78a.5.5 0 0 0-.75-.43ZM24 21.14V14.3c0-.18.1-.34.25-.43l3.06-1.73a.5.5 0 0 1 .47-.02l15.36 7.47a.5.5 0 0 1 .02.89l-6.92 3.84a.5.5 0 0 1-.48 0l-7.98-4.18a.5.5 0 0 0-.47 0l-2.56 1.45a.5.5 0 0 1-.75-.44Z" fill="#233D92"/><path d="m19.75 31.64-6.92 3.9a.5.5 0 0 0 .03.88l15.37 7.45a.5.5 0 0 0 .51-.04l3.05-2.18a.5.5 0 0 0 .21-.4v-6.48a.5.5 0 0 0-.7-.46l-3.56 1.58a.5.5 0 0 1-.46-.02l-7.03-4.22a.5.5 0 0 0-.5 0ZM35.8 24.6l-6.32 2.94a.5.5 0 0 0 0 .91l6.23 2.87c.18.08.29.26.29.46v6.92c0 .36.37.6.7.46l7-3.03a.5.5 0 0 0 .3-.46v-7.34a.5.5 0 0 0-.3-.46l-7.5-3.28a.5.5 0 0 0-.4 0Z" fill="#23B888"/></svg>