<!-- by TradingView --><svg xmlns="http://www.w3.org/2000/svg" width="56" height="56" viewBox="0 0 56 56"><path fill="#F0F3FA" d="M0 0h56v56H0z"/><path fill-rule="evenodd" d="M15.37 19h22.7c1.4 0 1.67 1.2.99 2.34-.16.26-.78.66-1.06.66H14.83c-.17-.2-.32-.44-.47-.7-.69-1.15-.4-2.3 1.01-2.3zm25.08-6.14L37.15 18h-4.8l4.75-7.4c-.5-.58-.75-1.1-.58-1.38.2-.34.92-.27 1.83.11.59-.25 1.3-.2 1.87.18.59.4.9 1.04.9 1.7.68.68 1.02 1.3.83 1.63-.18.3-.75.28-1.5.02zM26.61 26.2c3.88 0 7.03 3.66 7.03 8.17 0 2.32-.84 4.42-2.17 5.9 0-.4.03-.73.05-1 .05-.56.07-.83-.26-.82-.23 0-.47.17-.77.4-.35.26-.8.59-1.43.79.43-.27.95-.6 1.4-.99.74-.62.93-.92 1.15-1.52.15-.44.24-1.13.25-1.83.05-1.7-.02-2.2-.33-2.51l-2.05-1.44c-.12-.12-.1-.48.02-.71.34 0 .47-.73.06-.7.1-.94-.6-1.91-1.2-2.1-.88-.27-1.44.3-1.6 1.32.41.18 1.1.53.73.64a2.3 2.3 0 0 1-.87.03c-.1.45.17 1.02.46 1.47l.15.3c.12.24.2.4.55.4.4 0 .62-.19.85-.4l.14-.13c-.08.38-.27.69-.53.85-.63.5-.5 1.12-.37 1.7.06.25.12.5.1.72.48-.73.84-1.7 1.15-2.75-.13 1.14-.54 1.97-.92 2.76-.34.7-.66 1.36-.75 2.16-.1-.3 0-.63.1-1.01s.21-.81.15-1.27c-.05-.4-.15-.72-.25-1.04a4.1 4.1 0 0 1-.24-1.41c-.15.18-.35.3-.55.41-.28.17-.57.33-.69.68-.13.38-.15.93-.16 1.49-.02.55-.04 1.1-.17 1.49-.09-.04-.17-.1-.25-.15-.15-.1-.3-.2-.55-.23-.11 0-.11-.1-.1-.36l.06-.05c.1-.1.25-.22.37-.56.17.02.21-.14.26-.3v-.03c.06-.2-.06-.48-.23-.3.07-.46-.11-.78-.4-.96H24.37l-.3.02c-.2 0-.37-.02-.55-.06-.22.13-.42.36-.5.74.18.07.5.22.58.32.09.1-.34-.01-.6-.1v.22c-.1.29-.03.67.17.95.22.31.6.5.82.5.23.01.38-.12.5-.23-.02.2-.2.3-.38.38l-.08.05c-.14.08-.22.2-.2.52a.95.95 0 0 1-.19-.25c-.14-.25-.3-.52-.87-.45-.38.06-1.08.6-1.42 1.4a5.07 5.07 0 0 0-.09 2.35 8.96 8.96 0 0 1-1.67-5.3c0-4.51 3.14-8.17 7.02-8.17zm.04 3.52c.28-.13.53-.34.1-.56a3.8 3.8 0 0 0-.04.42.77.77 0 0 0-.06.14zm-3.48 3.15c-.77-.22-.66 1.37-.29 1.35.07-.52.18-.76.47-1.08.45.14.76.11 1.04.1.24-.03.46-.04.73.04-.06-.84-1.46-1.46-1.95-.41zM26.9 28c-.35.35-.38.93-.29 1.5-.4-.18-.99-1.97.37-2.38.43-.12.64-.06.67.08.05.28-.16.4-.4.55-.12.07-.25.14-.35.25zm1.81-.74c1.4.02 2.72 1.73 2.16 2.84-.17.36-.64.67-1.23.74.23-.23.35-.48.3-.76.5-.23.6-.76.32-1.23a4.1 4.1 0 0 0-1.55-1.59zM23.3 41.58a6.2 6.2 0 0 1-.25-.17c-.03-.6-.03-1.29.42-1.68.18-.17.45-.25.8-.35.46-.14 1.07-.32 1.83-.82-.5.55-1.1.76-1.63.93-.36.12-.68.23-.87.43-.33.33-.35.91-.3 1.66zm4.13-2.28c-.12-.32.19-.72.6-.88-.33.04-.56.2-.77.34-.21.15-.4.27-.62.2a3.74 3.74 0 0 0-.13-.04c.7.5.88.82.9 1.06.04.26-.03.33-.25.4h-.03a1.52 1.52 0 0 0-.72.45c-.22.2-.4.37-.66.3-.34-.09-.43-.35-.33-.66.04-.12.16-.23.28-.35.15-.14.3-.28.29-.41-.1.16-.26.27-.43.38-.15.1-.31.2-.42.34-.13.17-.06.58.12.76.51.52.92.26 1.34-.01.3-.19.6-.38.94-.33.15.19.27.28.6.31 0-.91-.2-1.15-.41-1.39-.11-.12-.22-.25-.3-.47zm-5.29 1.38a8.36 8.36 0 0 1-.23-.24c.04-2.18.3-3.3 1.32-3.3-1.1.22-1.1 2.1-1.09 3.31v.23zm3.9-4.16c.13.11.2.26.25.4 0-.05 0-.12.02-.18l.09-.77c.05-.57.11-1.17.27-1.66.06.32 0 .68-.05 1.01-.1.64-.18 1.18.57 1.2-.4.22-.57.54-.57 1.25l-.06-.06a.9.9 0 0 1-.14-.14c-.1-.11-.14-.31-.2-.52-.04-.2-.09-.4-.19-.53zm4.2-2.13c-.17.2-.26.63-.35 1.08-.1.49-.2 1-.42 1.19-.26.23-.44.3-.73.21a1.5 1.5 0 0 1-.46-.24c.07.21.23.29.38.37.17.08.34.17.38.44.03.22.06.46-.41.85.86-.28 1.28-.6 1.46-1.2.08-.24.06-.5.04-.83l-.02-.64c0-.2.03-.45.07-.7l.06-.53zm-7.3.04c-.06.18-.05.26-.04.38v.02c-.05.08-.19.04-.24-.13-.11-.33.2-.43.28-.27zm3.67-9.06c4.28 0 7.74 4.03 7.74 9s-3.46 9-7.74 9c-4.27 0-7.74-4.03-7.74-9s3.47-9 7.74-9zM37.68 23c-.17.35-.25.6-.26 1H15.8c0-.4-.08-.65-.25-1h22.13zm-.36 2l-.2 1.6c-.4 3.22-.8 6.37-1.54 9.07-.3 1.08-.67 2.02-1.01 2.87-.43 1.08-.8 2.02-.9 2.93-.1 1.05.35 1.67.7 2.17l.02.02c.49.69.35 1.34-.86 1.34H19.7c-1.2 0-1.34-.65-.86-1.34l.02-.02c.36-.5.8-1.12.7-2.17-.1-.91-.47-1.85-.9-2.93-.33-.85-.7-1.79-1-2.87-.74-2.7-1.14-5.85-1.54-9.08L15.9 25h21.4zm-9.38 4.77c.1-.1.38-.26.58-.25.21.02.34.13.39.19-.11.04-.45.12-.97.06zm-.55.96c-.12-.07 0-.3.07-.4 0 .23.34.26.5.24-.14.09-.45.24-.57.16zm.68.25h-.82v.13H28c.13 0 .1-.09.07-.13zm.27-1.91c-.27-.08-.38.16-.4.29l.82-.05c-.03-.05-.16-.16-.42-.24zm-4.62 6.09c-.07-.02-.03-.15 0-.22 0 .07.15.15.22.18a.43.43 0 0 1-.22.04zm.53.28h-.7c.03-.04.13-.13.3-.13.18 0 .34.1.4.13zm-.03-1.09c.08-.07.3-.19.56-.12-.14.15-.43.14-.56.12zm-.7.13a.39.39 0 0 0-.28.1c0 .03.03.1.14.13.1.02.24-.07.3-.11 0-.04-.03-.1-.17-.12zm.73.1c.03-.04.14-.1.27-.1.13.01.16.08.16.12-.05.04-.18.13-.3.1-.1-.01-.13-.1-.13-.13z" fill="#82401A"/></svg>