<!-- by TradingView --><svg width="56" height="56" viewBox="0 0 56 56" fill="none" xmlns="http://www.w3.org/2000/svg">
<rect width="56" height="56" fill="#F0F3FA"/>
<path d="M38.8879 18C27.9655 18 19.9999 23 19.9999 23C19.9999 23 28.8103 16 41.3017 16C46.0086 16 47.9999 18 47.9999 21.375C47.9999 23.1412 46.7448 25 46.7448 25C46.7448 25 46.9999 23.8433 46.9999 22.7188C46.9999 20.6875 45.2499 18 38.8879 18Z" fill="#028A43"/>
<path d="M40.3965 15C29.2327 15 19.9999 22.5 19.9999 22.5C19.9999 22.5 28.3275 14 41.2413 14C44.6206 14 47.9995 15.5625 47.9995 18C47.6947 16.666 45.9103 15 40.3965 15Z" fill="#028A43"/>
<path d="M17.2578 39C28.5352 39 37 34 37 34C37 34 28.9447 41 16.8114 41C11.1726 41 7 38.3356 7 34.1765C7 31.1871 10 29 10 29C10 29 8 31.642 8 34.1765C8 38.0756 12.8918 39 17.2578 39Z" fill="#C8A642"/>
<path d="M16.8463 42C29.6815 42 37 35 37 35C37 35 29.8412 43 16.2077 43C10.5883 43 8 39.9062 8 39C9.53125 40.7188 12.2167 42 16.8463 42Z" fill="#C8A642"/>
<path fill-rule="evenodd" clip-rule="evenodd" d="M36 33C36 33 36.5938 29.6629 37.1677 26.8567C37.6794 24.3549 38.5729 24 41.6406 24C45.0052 24 46 25.0626 46 26.8567C46 29.2624 43.8906 30 41.8125 30C40.7589 30.0044 39.5469 30 39.5469 30L39.125 32.125L36 33ZM40.3823 25.5L39.8674 28.5H41.5626C42.21 28.5 43.0001 27.832 43.0001 26.718C43.0001 26.1029 42.7188 25.5 41.8085 25.5H40.3823Z" fill="#E6342C"/>
<path d="M25.5798 24L23.7 33C24.4791 32.752 26.0839 31.9979 26.2709 31.7854C26.4579 31.5728 27.0796 29.1084 27.2911 27.6914L28.899 33C28.899 33 29.8546 32.3587 30.3925 31.7854C30.9304 31.2121 33.2008 27.375 33.2008 27.375L31.8283 32.9734C31.8283 32.9734 34.3928 32.8955 34.8154 30.7234C35.6666 26.3484 36.2 24 36.2 24H35.6666C34.861 24 33.3422 24.1883 32.533 24.9838C31.3978 26.0996 30.0268 28.8164 29.8337 28.8164C29.6378 28.8164 29.6283 26.7905 28.4597 25.2495C27.7722 24.343 26.885 24 26.271 24H25.5798Z" fill="#E6342C"/>
<path d="M22.2496 32.0229L24 24C24 24 22.2496 24 21.5938 24.9062C21.345 25.2501 21.0341 26.2772 20.4991 28.9886C19.9641 31.6999 20.2812 30.0719 19.6469 33L22.2496 32.0229Z" fill="#E6342C"/>
<path d="M14.6323 24L20 24C20 24 20 26 17.7188 26C16.8438 26 15.9993 25.5 15.6456 25.5C15.0625 25.5 14.5567 25.6967 14.5567 26.1403C14.5567 27.1389 19 27.7903 19 30.2666C19 32.6732 16.6719 33 14.5567 33H9C9 33 9.85438 31 10.875 31H13.7479C14.6301 31 15.9993 31 15.9993 30.0461C15.9993 28.7697 11.0538 28.3906 11.4948 25.6464C11.7595 24 13.6552 24 14.6323 24Z" fill="#E6342C"/>
</svg>
