<!-- by TradingView --><svg width="56" height="56" viewBox="0 0 56 56" xmlns="http://www.w3.org/2000/svg"><path fill="#F0F3FA" d="M0 0h56v56H0z"/><path d="M19 9h8v13.8l-2.05 2.62c.27-.54.27-1.35.27-1.9 0-.43.72-1.8 1.08-2.43-.1-.09-.6-.21-1.9 0a8 8 0 0 0-3.24 1.62c-.09-.09-.43-.27-1.08-.27-.54 0-.6.48-.66.96-.03.24-.06.49-.15.67-.1.18-.18.5-.27.84V9Zm0 20.17V47h.08l2.08-5.1c0-.36.06-1.19.27-1.62.16-.31.5-.56.81-.78.22-.16.43-.31.54-.47.15-.2.22-1.6.29-3.1.06-1.33.13-2.73.25-3.49a5.03 5.03 0 0 0-2.16-1.89c-.94-.47-.97-.67-.99-.8-.01-.1-.02-.17-.36-.28-.3-.1-.58-.2-.81-.3ZM20.58 47H27v-8.07c-.47 0-.76.02-1.51.27l-1.58.53c.02 0-.02.07-.09.16-.08.11-.18.26-.23.4a3.9 3.9 0 0 1-.8 1.34c-.14.13-.53.47-.79.37a47.18 47.18 0 0 0-1.42 5ZM29 41.65V47h8V15h-8v7.55c.12.25.21.58.27.97.36 0 1.14.17 1.35.82.22.64.27.99.27 1.08.1.09.27.43.27 1.08 0 .65-.18 1.17-.27 1.35 0 .18.06.65.27 1.08.22.43-.45 1.08-.8 1.35.08.1.2.38 0 .81a.96.96 0 0 1-.82.54c.18 0 .54.11.54.54.1 0 .33.06.54.27.14.14.27.14.4.14.14 0 .28 0 .41.13.08.08.07.19.05.31-.04.29-.1.67 1.03 1.05 1.63.54 1.35 1.62.54 1.89-.64.21-2.07.8-2.7 1.08.45.09 1.51.21 2.16 0 .81-.27 1.9-.54 2.17-.27s-.27 1.35-.54 1.89c-.16.31-.14.35-.09.44.04.06.09.14.09.37 0 .3-.32.43-.57.53-.21.1-.37.16-.25.28.27.27.54.81.27 1.08-.13.14-.13.27-.13.44 0 .17 0 .37-.14.64-.12.25-.24.27-.39.3-.18.03-.4.07-.69.51-.32.5-.65.1-.97-.29-.22-.26-.43-.52-.65-.52-.35 0-1.03-.33-1.62-.79Zm-2.82-6.89c0-.42.55-1.94.82-2.65-.55-.27-1.64 0-1.9.26-.28.27-.83.8-.83 1.33 0 .42-.18.88-.27 1.06V39c.65-.42 1.73-.88 2.18-1.06.17-.48.13-.54.08-.62-.04-.05-.08-.11-.08-.3 0-.25-.06-.48-.13-.71a2.67 2.67 0 0 1-.14-.76c0-.26.07-.33.14-.4.06-.06.13-.13.13-.39Z" fill="#B23030"/></svg>