<!-- by TradingView --><svg width="56" height="56" viewBox="0 0 56 56" xmlns="http://www.w3.org/2000/svg"><path fill="#009555" d="M0 0h56v56H0z"/><path d="M10.5 28a2.5 2.5 0 1 0 0-5 2.5 2.5 0 0 0 0 5Z" fill="#F4B633"/><path d="M17 29.15c-.15 1.93-2.2 2.85-3.74 2.85-1.02 0-2-.21-2.76-.55 1.03-.45 1.65-1.12 1.4-1.78-.17-.49-.84-.55-1.4-.6.24-.03.47-.06.62-.12.54-.21 1.56-1.8 3.88-1.77 0 0 2.14.05 2 1.97Z" fill="#B3CE4D"/><path d="M10.5 31.45c-.76.34-1.74.55-2.76.55-1.55 0-3.59-.92-3.73-2.85-.15-1.92 2-1.97 2-1.97 2.31-.04 3.33 1.56 3.87 1.77.16.06.38.09.62.11-.56.06-1.23.12-1.4.61-.25.66.37 1.33 1.4 1.78Z" fill="#4FBAE9"/><path d="M10.5 31.45c-1.03-.45-1.65-1.12-1.4-1.78.17-.49.84-.55 1.4-.6.56.05 1.23.11 1.4.6.25.66-.37 1.33-1.4 1.78ZM21.53 32c-1.18 0-2.53-.65-2.53-2h1c.06.68.9 1 1.53 1 .62 0 1.47-.3 1.47-1 0-.82-1.18-.95-1.79-1.1-1.06-.27-2.21-.4-2.21-1.9s1.3-2 2.48-2c1.15 0 2.42.74 2.52 2h-1c0-.5-.69-1-1.5-1-.59 0-1.5.1-1.5 1 0 .77 1.2.85 1.77 1 1.07.28 2.23.68 2.23 2 0 1.3-1.3 2-2.47 2ZM26 27.8c.36-.51 1.2-.8 2-.8v1h-.31c-.9 0-1.69.48-1.69 1.41V32h-1v-5h1v.8ZM34 29.38V30h-4c.06.77.78 1 1.53 1 .57 0 1.24-.07 1.47-.52h1c-.34 1-1.45 1.52-2.47 1.52A2.45 2.45 0 0 1 29 29.5c0-1.47 1.08-2.5 2.53-2.5 1.38 0 2.47.98 2.47 2.38ZM32.9 29c-.01-.77-.68-1-1.4-1-.72 0-1.31.29-1.4 1h2.8ZM40 29.38V30h-4c.06.77.78 1 1.53 1 .57 0 1.24-.07 1.47-.52h1c-.34 1-1.45 1.52-2.47 1.52A2.45 2.45 0 0 1 35 29.5c0-1.47 1.08-2.5 2.53-2.5 1.38 0 2.47.98 2.47 2.38ZM38.9 29c-.01-.77-.68-1-1.4-1-.72 0-1.31.29-1.4 1h2.8ZM43.18 32.08 44.8 27H46l-2.22 6.57c-.28.78-.81 1.43-1.71 1.43h-.57v-1c.62.06 1.1-.24 1.28-.82l.4-1.1ZM42.2 27l1.3 4 .5 1.5-1 .5-2-6h1.2ZM47 29.48c0-1.32.92-2.48 2.3-2.48.63 0 1.3.27 1.7.78V27h1v5h-1v-.8c-.4.53-1.08.8-1.72.8C47.9 32 47 30.78 47 29.48Zm4 .02c0-.85-.62-1.5-1.5-1.5-.89 0-1.5.65-1.5 1.5s.6 1.5 1.5 1.5c.88 0 1.5-.66 1.5-1.5Z" fill="#F0F3FA"/></svg>