<!-- by TradingView --><svg width="56" height="56" viewBox="0 0 56 56" xmlns="http://www.w3.org/2000/svg"><path fill="#F0F3FA" d="M0 0h56v56H0z"/><path d="M13 43V13h30l-1 1H14v28l-1 1Z" fill="#55B85B"/><path d="m43 13-1 1v28H14l-1 1h30V13Z" fill="#213F97"/><path d="M15 15h25.54c-.24.18-.5.35-.75.51-.4.25-.8.5-1.11.82-.26.26-.3.62-.27.91.03.25.1.49.18.66l-.4 1.23-1.17.78.73-.73c.37-.37.15-1.4 0-1.86-.31.16-1.02.65-1.4 1.4-.35.71.13 1.2.44 1.37l-.9 1.34-.94.57.01-.04c.38-.74.78-2.16.93-2.78-.15 0-.65.18-1.39.93-.6.6-.84 1.84-.9 2.7l-.04.02-.92 1.84-2.1.84c.68-.51 1.77-1.36 2.1-1.69.37-.37.78-2.63.93-3.71-2.78.93-3.25 3.25-3.25 3.71v1.8l-2.27 2.27-.62.12c.2-.14.4-.3.57-.47.74-.75 1.86-4.34 2.32-6.04-1.4.93-4.27 3.06-4.64 4.18-.3.92-.21 2.11-.08 2.85l-1.3 2.15-1.24.25c.77-.47 1.69-1.32 1.69-2.47 0-1.48.62-3.71.93-4.64-1.4.47-3.25 2.79-3.72 4.18-.34 1.02.08 2.38.39 3.07l-.38.08-.93 1.86-.87.22c.15-.26.3-.6.4-1.05.37-1.49 1.08-4.95 1.4-6.5a8.51 8.51 0 0 0-3.26 4.64c-.32 1.3.04 2.7.35 3.45l-.82 2.04-.85.28c.42-.73.86-1.92.86-3.45 0-2.23.31-4.02.46-4.64-1.85 1.4-2.32 4.18-2.32 6.04a8 8 0 0 0 .36 2.53l-.4 1.6-1.02.68c.33-.83.6-1.8.6-2.5 0-.74-.31-2.78-.47-3.7-.12.25-.29.6-.46 1V15Z" fill="#55B85B"/><path fill-rule="evenodd" d="m19.48 33.95-.85 2.14C19.33 35.6 20.38 35 21 35h4.96a5.5 5.5 0 0 0 1.58-.5c-1.4.77-4.55 2.5-6.04 2.5-1.49 0-2.63-.6-3.1-.75-.05.03.05-.04 0 0l-1.18.4-.37 1.46c.38-.41.9-.82 1.4-.82h4.18c-.83.53-2.82 1.56-4.18 1.39a5.78 5.78 0 0 0-1.73-.06l-1.52.75V41h.46l1.4-1.4c.37-.36 1.7-.46 2.32-.46-.34.46-.99 1.3-1.45 1.86H41V16.52c-.18.27-.4.52-.66.65-.67.33-1.12.69-1.3.85l-.4 1.19.97-.96a6.4 6.4 0 0 1 1.39-.93c0 .47-.19 1.49-.93 1.86-.7.35-1.48.45-1.81.46l-1.1.74-.94 1.4-2.3 1.38-.81 1.62a9.64 9.64 0 0 1 2.78-1.89c.47-.15 1.03-.3 1.6-.46 1.14-.31 2.27-.62 2.58-.93-.62 1.08-2.23 3.25-3.71 3.25-1.49 0-3.02.23-3.64.39-.03.03.02-.02 0 0l-2.1.84-1.85 1.85c1.18-.67 3.32-1.81 4.34-2.15.64-.22 1.7-.33 2.67-.44 1.14-.13 2.19-.24 2.43-.49-.92.93-3.25 2.88-5.1 3.25a13.4 13.4 0 0 1-4.53.02l-.3.3-2.13.42-.19.08-1.3 2.16C25.84 30.17 27.33 29 28 29c.86 0 6.17-.07 7.61-.8-1.67 1.12-4.5 2.8-6.61 2.8l-4.54.12-2.17.44-.91 1.82c.88-.5 2.4-1.2 3.37-1.2.2 0 .44 0 .73.02 1.79.06 5.16.18 7.16-1.41-1.54 1.39-5.29 4.08-7.89 3.71-2.6-.37-3.32-.91-3.47-1.07l-1.61.4c-.07.05-.13.1-.19.12ZM35.9 28Zm1.86-7.43a3.48 3.48 0 0 0-1.4 1.43h1.4c.74 0 2.17-1.58 2.79-2.36-.62.16-2.05.56-2.79.93Z" fill="#213F97"/></svg>