<!-- by TradingView --><svg width="56" height="56" viewBox="0 0 56 56" xmlns="http://www.w3.org/2000/svg"><path fill="#F0F3FA" d="M0 0h56v56H0z"/><path fill-rule="evenodd" d="M41.5 41S44 34.5 44 28c0-7.75-3-13.5-3-13.5S36 12 28 12c-6.5 0-13.5 2.5-13.5 2.5S12 21 12 28c0 6.5 2.5 13 2.5 13s4.48 2.07 10 2.77V39c0-.17-.1-.5-.5-.5h-2c-.67 0-1-.1-1-.5v-2c.04.04.06.09.08.14.07.17.16.36.92.36h2.5c.33 0 1 .2 1 1v6.38l.5.04V37c0-.33-.2-1-1-1h-3c-.5 0-1-.1-1-.5v-3c.14.14.21.24.27.3.05.07.08.11.12.14.09.06.22.06.61.06h4c.33 0 1 .1 1 .5v10.48l.5.02V28.93c-1.74-2.16-3-5.92-3-7.44 0-3 1.84-5 3.5-5s3.5 2 3.5 5c0 1.52-1.26 5.28-3 7.44V44l.5-.01V33.5c0-.4.67-.5 1-.5h4c.4 0 .52 0 .6-.06.05-.03.08-.07.13-.13.06-.07.13-.17.27-.31v3c0 .4-.67.5-1 .5h-3c-.8 0-1 .67-1 1v6.95l.5-.02V37.5c0-.8.67-1 1-1H34c.4 0 .83-.33 1-.5v2c0 .4-.33.5-.5.5H32c-.4 0-.5.33-.5.5v4.86c7-.6 10-2.86 10-2.86ZM26 15c-.4 0-.83.33-1 .5.8.4 1 .83 1 1 .33 0 1.1-.1 1.5-.5.5-.5-1-1-1.5-1Zm5 .5c-.17-.17-.6-.5-1-.5-.5 0-2 .5-1.5 1 .4.4 1.17.5 1.5.5 0-.17.2-.6 1-1Zm-10 6c0 4 3.67 6.33 5.5 7-1-1.5-2.5-5-2.5-7 0-1.73.72-2.98 1.16-3.75.2-.35.34-.6.34-.75 0-.5-.5-1-1.5-1s-3 1.19-3 5.5Zm8.5 7c1.83-.67 5.5-3 5.5-7 0-4.31-2-5.5-3-5.5s-1.5.5-1.5 1c0 .15.14.4.34.75.44.77 1.16 2.02 1.16 3.75 0 2-1.5 5.5-2.5 7Z" fill="#EB6325"/></svg>