<!-- by TradingView --><svg width="56" height="56" viewBox="0 0 56 56" xmlns="http://www.w3.org/2000/svg"><path fill="#F0F3FA" d="M0 0h56v56H0z"/><path d="M28 44a16 16 0 0 0 14.54-22.7 39.2 39.2 0 0 0-6.03-1.9c-.64-.15-1.15-.28-1.51-.4-.58-.2-13-2.21-13 2.5 0 1.14 2.38 2.22 5.3 3.55C31.96 27.16 38 29.9 38 34.5c0 8.3-10.72 8.07-13.55 8h-3.22c2.05.96 4.35 1.5 6.77 1.5Z" fill="#C40001"/><path d="M18.67 41h5.59c2.12.04 12.74.21 12.74-6.5 0-3.51-5.66-6.34-10.35-8.69-3.32-1.65-6.15-3.07-6.15-4.31 0-4.86 10-4.5 14.5-4 1.84.2 3.96.55 5.9 1.03-.23-.3-.47-.61-.72-.9-3.58-.49-8.59-1.13-11.18-1.13-5.46 0-9 2.25-9 5 0 1.88 3.42 3.52 7.15 5.3 4.46 2.15 9.35 4.5 9.35 7.7 0 5.92-9.96 6-13 6l-1.73.03c-1.14.03-2.51.07-3.65.05.18.15.36.29.55.42Z" fill="#C40001"/><path d="M16.13 38.73c9.7.77 19.37.55 19.37-4.23 0-2.82-4.32-4.84-8.54-6.83C22.93 25.8 19 23.94 19 21.5c0-4.71 5.14-6 10-6 3.21 0 6.61 0 9.32.28-.3-.27-.63-.52-.96-.76C35.6 15 33.14 15 29.84 15H28c-7 0-9.5 4.23-9.5 6 0 3.24 5 5.66 9.49 7.83C31.66 30.61 35 32.23 35 34c0 4.77-7.46 4.6-11.65 4.52L22 38.5c-1.95 0-4.37-.05-6.24-.2l.37.43Z" fill="#C40001"/><path d="M14.25 36.19c3.07.8 6.9.81 7.75.81h.46c2.4.06 11.6.26 11.04-3-.26-1.5-3.27-3-6.65-4.68C22.3 27.05 17 24.39 17 21c0-5.5 7.5-7 11-7h7.75a16 16 0 0 0-21.5 22.19Z" fill="#C40001"/></svg>