<!-- by TradingView --><svg width="56" height="56" viewBox="0 0 56 56" xmlns="http://www.w3.org/2000/svg"><path fill="#F0F3FA" d="M0 0h56v56H0z"/><path d="M19 25v-2H9c-3.2 0-4 2.67-4 4v4c0 2.4 2 3 3 3h9c1.6 0 2-1.33 2-2v-4h-8v2h6v1c0 .8-.67 1-1 1H8.5C6.9 32 7 30.83 7 30.5V27c0-1.6 1-2 2-2h10ZM28 22h-1.1a1 1 0 0 0-.89.52l-5.97 11.04c-.11.2.03.44.26.44h2l4.62-8.4a1 1 0 0 1 1.08-.5V22Z" fill="#A1CF4A"/><path d="M28 25.1V22h.72a1 1 0 0 1 .87.5l6.44 11.05a.3.3 0 0 1-.26.45H33.3l-4.63-8.4a.99.99 0 0 0-.67-.5Z" fill="#26B951"/><path d="M50 24v-2h-9.5c-2 0-2.5 1.83-2.5 2.5v2c0 2 1.67 2.5 2.5 2.5H47c.5 0 1 .5 1 1v1c0 .8-.67 1-1 1h-9v2h9.5c1.6 0 2.5-1.67 2.5-2.5v-2c0-1.6-1.83-2.5-2.5-2.5H41c-.5 0-1-.67-1-1v-1c0-.4.5-1 1-1h9Z" fill="#A1CF4A"/><path d="M28 28a.3.3 0 0 0-.27.17L25 34h3v-6Z" fill="#F81C2C"/><path d="M28 34v-6c.1 0 .21.06.27.17L31 34h-3Z" fill="#A50A16"/></svg>