<!-- by TradingView --><svg xmlns="http://www.w3.org/2000/svg" width="56" height="56" viewBox="0 0 56 56"><path fill="#F0F3FA" d="M0 0h56v56H0z"/><circle cx="28" cy="28" r="12" fill="#29503E"/><path fill-rule="evenodd" d="M28 44a16 16 0 1 0 0-32 16 16 0 0 0 0 32zm0 1a17 17 0 1 0 0-34 17 17 0 0 0 0 34z" fill="#00923C"/><path d="M28.06 17.03c-.58 0-.84.71-.9 1.07h1.7c-.02-.36-.23-1.07-.8-1.07z" fill="#fff"/><path d="M27.2 18.07h1.63a1.69 1.69 0 0 0-.2-.62c-.12-.22-.3-.38-.57-.38-.28 0-.48.16-.62.38-.13.2-.2.44-.24.62zm.19-.66c.15-.22.36-.41.67-.41.3 0 .5.19.63.42.13.22.2.5.2.68l.01.03h-1.78l.01-.04c.03-.18.11-.45.26-.68z"/><path d="M25.55 20.36v1.73h5.03v-1.73l-1.72-1.63v-.64h-1.7v.64l-1.6 1.63zM19.99 25.71c-.18.54.3 1.11.55 1.33l2.38-2.9-.42-.98c-.58-.1-1.26.76-1.53 1.2-.25.23-.8.81-.98 1.35z" fill="#fff"/><path d="M21.64 23.58c-.27.25-.5.58-.64.8a4.7 4.7 0 0 0-.52.56c-.2.24-.37.52-.46.78a.97.97 0 0 0 .11.76c.12.22.28.4.4.51l2.35-2.86-.4-.94a.71.71 0 0 0-.41.08c-.15.07-.3.18-.43.3zm.4-.37a.76.76 0 0 1 .46-.09h.02l.43 1.02-2.4 2.95-.03-.02a2.02 2.02 0 0 1-.45-.56c-.12-.24-.2-.53-.11-.8.09-.28.27-.57.47-.81.19-.24.39-.45.52-.56.13-.23.37-.55.64-.81.14-.13.3-.24.45-.32z"/><path d="M35.86 25.71c.18.54-.29 1.11-.55 1.33l-2.37-2.9.42-.98c.58-.1 1.26.76 1.52 1.2.26.23.8.81.98 1.35z" fill="#fff"/><path d="M34.22 23.58c.27.25.5.58.63.8h.01c.13.12.33.32.52.56.19.24.37.52.45.78.09.26.02.53-.1.76-.12.22-.29.4-.41.51l-2.34-2.86.4-.94c.13-.02.27.01.4.08.15.07.3.18.44.3zm-.4-.37a.76.76 0 0 0-.47-.09h-.02l-.43 1.02 2.41 2.95.02-.02c.14-.12.32-.32.45-.56.13-.24.2-.53.11-.8a2.78 2.78 0 0 0-.46-.81c-.2-.24-.4-.45-.52-.56a4.03 4.03 0 0 0-.65-.81 1.9 1.9 0 0 0-.44-.32z"/><path d="M23.48 21.95c.51-.21 1.05.58 1.11.6l1.46 5.15c-.14.55-.64 1.64-1.52 1.64s-1.15-.24-1.18-.36c-.4.25-1.23 1.2-1.23 3.1 0 2.36 2.56 3.22 2.71 3.22.16 0 .66-.19.66-.62 0-.34-.39-.81-.58-1l.73-.08c0-.63.28-.62.41-.53 1.13 1.04 1.16 3.72-1.12 3.72-2.27 0-3.84-1.63-4.65-3.94-.8-2.31-.47-4.66.12-5.58.47-.74 1.62-2.85 2.14-3.82.14-.43.53-1.32.94-1.5z" fill="#fff"/><path d="M24.6 22.51h.02l1.47 5.19c-.08.28-.24.7-.5 1.05-.25.34-.6.63-1.06.63-.44 0-.73-.06-.92-.14a.7.7 0 0 1-.2-.13.3.3 0 0 1-.07-.08c-.41.27-1.19 1.22-1.19 3.05 0 1.16.63 1.96 1.29 2.47a4.6 4.6 0 0 0 1.4.71c.02 0 .08 0 .15-.03a.9.9 0 0 0 .21-.1c.14-.1.26-.25.26-.45 0-.16-.1-.36-.21-.54a2.94 2.94 0 0 0-.36-.44l-.05-.05.77-.08c0-.3.07-.46.17-.53.1-.08.22-.05.3 0 .57.53.86 1.48.72 2.28-.07.41-.25.78-.55 1.06-.31.27-.74.44-1.32.44-2.3 0-3.87-1.65-4.68-3.96a8.69 8.69 0 0 1-.46-3.32c.05-1 .29-1.82.58-2.29.47-.73 1.62-2.85 2.14-3.81a5.37 5.37 0 0 1 .64-1.26c.1-.12.2-.21.32-.26.27-.11.55.04.75.22l.27.25.03.03a3.26 3.26 0 0 0 .08.09zm-.42-.32c-.2-.17-.45-.3-.69-.2-.1.04-.2.12-.29.23a5.31 5.31 0 0 0-.63 1.24c-.52.97-1.67 3.09-2.14 3.83a5 5 0 0 0-.58 2.25c-.06.99.06 2.15.46 3.3.8 2.3 2.37 3.91 4.62 3.91.56 0 .98-.16 1.27-.42.3-.26.47-.62.54-1.02.13-.78-.15-1.7-.7-2.22-.07-.03-.15-.05-.23 0-.07.06-.14.2-.14.5v.04l-.69.07c.1.1.22.24.32.4.12.19.22.4.22.58a.6.6 0 0 1-.28.5.97.97 0 0 1-.23.11.6.6 0 0 1-.18.04 4.65 4.65 0 0 1-1.43-.73 3.13 3.13 0 0 1-1.31-2.52c0-1.9.82-2.88 1.25-3.13l.04-.02v.04l.07.1c.04.03.1.07.19.1.17.08.46.14.9.14.42 0 .76-.26 1-.6.25-.34.41-.74.48-1.01l-1.46-5.14a.5.5 0 0 1-.04-.03l-.05-.06-.03-.03a2.8 2.8 0 0 0-.26-.25z"/><path d="M32.52 21.95c-.51-.21-1.05.58-1.11.6l-1.46 5.15c.14.55.64 1.64 1.52 1.64s1.15-.24 1.18-.36c.4.25 1.23 1.2 1.23 3.1 0 2.36-2.56 3.22-2.71 3.22-.16 0-.66-.19-.66-.62 0-.34.39-.81.58-1l-.73-.08c0-.63-.28-.62-.41-.53-1.13 1.04-1.16 3.72 1.12 3.72 2.27 0 3.84-1.63 4.65-3.94.8-2.31.47-4.66-.12-5.58a88.62 88.62 0 0 1-2.14-3.82c-.14-.43-.53-1.32-.94-1.5z" fill="#fff"/><path d="M31.4 22.51h-.02l-1.47 5.19c.08.28.24.7.5 1.05.25.34.6.63 1.06.63.44 0 .73-.06.92-.14a.7.7 0 0 0 .2-.13.3.3 0 0 0 .07-.08c.41.27 1.19 1.22 1.19 3.05 0 1.16-.63 1.96-1.29 2.47a4.6 4.6 0 0 1-1.4.71.53.53 0 0 1-.15-.03.9.9 0 0 1-.21-.1c-.14-.1-.26-.25-.26-.45 0-.16.1-.36.21-.54.12-.18.27-.35.36-.44l.05-.05-.77-.08c0-.3-.07-.46-.17-.53-.1-.08-.22-.05-.3 0a2.65 2.65 0 0 0-.72 2.28c.07.41.25.78.55 1.06.31.27.74.44 1.32.44 2.3 0 3.87-1.65 4.68-3.96.4-1.16.52-2.33.46-3.32-.05-1-.29-1.82-.58-2.29a88.54 88.54 0 0 1-2.14-3.81 5.37 5.37 0 0 0-.64-1.26.88.88 0 0 0-.32-.26c-.27-.11-.55.04-.75.22l-.27.25-.03.03-.05.06a.43.43 0 0 1-.03.03zm.42-.32c.2-.17.45-.3.69-.2.1.04.2.12.29.23a5.3 5.3 0 0 1 .63 1.24c.52.97 1.67 3.09 2.14 3.83a5 5 0 0 1 .58 2.25c.06.99-.06 2.15-.46 3.3-.8 2.3-2.37 3.91-4.62 3.91-.56 0-.98-.16-1.27-.42-.3-.26-.47-.62-.54-1.02-.13-.78.15-1.7.7-2.22.07-.03.15-.05.22 0 .08.06.15.2.15.5v.04l.69.07c-.1.1-.22.24-.32.4-.12.19-.22.4-.22.58 0 .23.13.4.28.5.08.05.16.09.23.11a.6.6 0 0 0 .18.04 4.65 4.65 0 0 0 1.43-.73 3.13 3.13 0 0 0 1.31-2.52c0-1.9-.82-2.88-1.25-3.13l-.04-.02v.04a.2.2 0 0 1-.07.1.65.65 0 0 1-.19.1 2.4 2.4 0 0 1-.9.14c-.42 0-.76-.26-1-.6-.25-.34-.41-.74-.48-1.01l1.46-5.14.04-.03.05-.06.03-.03c.07-.08.15-.17.26-.25z"/><path d="M19.84 30.37c-1.17 0-2-1.55-2.28-2.33-.16 1.27.31 3.24 2.28 3.24 1.35 0 2.86-.93 3.71-1.59a.49.49 0 0 0 .07-.69.52.52 0 0 0-.73-.08c-.79.62-2.07 1.45-3.05 1.45z" fill="#fff"/><path d="M17.53 28.04h.06c.14.38.41.95.8 1.43.38.49.88.86 1.45.86.48 0 1.04-.2 1.58-.48a9.72 9.72 0 0 0 1.45-.95.55.55 0 0 1 .78.08c.18.23.15.56-.08.74-.43.33-1.02.73-1.68 1.04a4.9 4.9 0 0 1-2.05.55c-1 0-1.62-.5-1.97-1.16a3.71 3.71 0 0 1-.34-2.11zm.05.14c-.05.61.03 1.34.35 1.94.34.64.94 1.13 1.9 1.13.68 0 1.39-.23 2.04-.55a9.5 9.5 0 0 0 1.66-1.04c.2-.15.22-.44.07-.64a.49.49 0 0 0-.7-.07c-.39.3-.9.67-1.45.96a3.7 3.7 0 0 1-1.61.49c-.6 0-1.11-.4-1.5-.88a5.26 5.26 0 0 1-.76-1.34z"/><path d="M36.16 30.37c1.17 0 2-1.55 2.28-2.33.16 1.27-.31 3.24-2.28 3.24-1.35 0-2.86-.93-3.71-1.59a.49.49 0 0 1-.07-.69c.17-.23.5-.26.73-.08.79.62 2.08 1.45 3.05 1.45z" fill="#fff"/><path d="M38.47 28.04h-.06a5.2 5.2 0 0 1-.8 1.43c-.38.49-.88.86-1.45.86-.48 0-1.04-.2-1.58-.48a9.72 9.72 0 0 1-1.45-.95.55.55 0 0 0-.78.08.52.52 0 0 0 .08.74c.43.33 1.02.73 1.68 1.04a4.9 4.9 0 0 0 2.05.55c1 0 1.62-.5 1.97-1.16.34-.65.42-1.47.34-2.11zm-.05.14c.05.61-.03 1.34-.35 1.94a2.03 2.03 0 0 1-1.9 1.13c-.68 0-1.39-.23-2.04-.55a9.5 9.5 0 0 1-1.66-1.04.46.46 0 0 1-.07-.64.49.49 0 0 1 .7-.07c.39.3.9.67 1.45.96.54.28 1.12.49 1.61.49.6 0 1.11-.4 1.5-.88.35-.44.61-.96.76-1.34zM23.49 24.55c-.8-.06-.98.27-.96.44h.03c.13.02.7.08.93-.44zm8.88 0c.8-.06.97.27.96.44h-.03c-.14.02-.7.08-.93-.44zM30.03 24.12c.48.16.87.4 1.06.8.4.75.28 1.54-.02 2.2-.3.66-.77 1.2-1.13 1.48-.39.44-1.6.94-3.33.17-1.09-.49-1.6-.89-1.84-1.3-.21-.37-.21-.75-.2-1.18v-.18c0-.83.2-1.47.3-1.69l.01-.01h.02c.86-.24 2.21-.49 3.44-.5.62 0 1.2.06 1.69.21zm-5.1.34a4.3 4.3 0 0 0-.3 1.83c0 .44-.01.8.2 1.14.22.4.72.8 1.8 1.28 1.73.76 2.9.26 3.27-.16.35-.27.82-.8 1.12-1.46.29-.65.4-1.41.02-2.15-.2-.36-.55-.6-1.03-.75a5.55 5.55 0 0 0-1.66-.2c-1.22 0-2.56.25-3.42.47z"/><path d="M26.1 28.85c-.2 1.74-1.53 3.52-2.21 4.23.08-.09 2.18-.57 2.98-2.63v-.05l-.64-1.57c-.02-.06-.12-.05-.13.02z" fill="#fff"/><path fill-rule="evenodd" d="M26.16 28.83c-.01 0-.03.01-.03.03a6.6 6.6 0 0 1-.93 2.5c-.4.69-.85 1.26-1.18 1.63l.02-.01.22-.09c.22-.09.52-.22.83-.41a4.16 4.16 0 0 0 1.75-2.06l-.64-1.57c0-.02-.02-.03-.04-.02zm-2.25 4.28l.03-.02.08-.03.05-.02.22-.09c.22-.09.52-.22.84-.42a4.22 4.22 0 0 0 1.77-2.06.1.1 0 0 0 0-.08l-.64-1.57a.1.1 0 0 0-.1-.06.1.1 0 0 0-.1.1c-.1.85-.47 1.73-.91 2.48a9.89 9.89 0 0 1-1.28 1.72l.02.02.02.03z"/><path d="M29.98 28.85c.2 1.74 1.53 3.52 2.21 4.23-.08-.09-2.18-.57-2.98-2.63v-.05l.64-1.57c.02-.06.12-.05.13.02z" fill="#fff"/><path fill-rule="evenodd" d="M29.91 28.83c.02 0 .04.01.04.03.1.87.48 1.76.93 2.5.4.69.84 1.26 1.18 1.63l-.02-.01a5.68 5.68 0 0 1-1.05-.5 4.16 4.16 0 0 1-1.75-2.06l.63-1.57c.01-.02.03-.03.04-.02zm2.26 4.28l-.03-.02a1.8 1.8 0 0 0-.08-.03l-.05-.02-.22-.09a5.73 5.73 0 0 1-.84-.42 4.22 4.22 0 0 1-1.77-2.06.1.1 0 0 1 0-.08l.64-1.57a.1.1 0 0 1 .1-.06.1.1 0 0 1 .1.1c.09.85.47 1.73.91 2.48.44.74.95 1.37 1.28 1.72l-.02.02-.02.03z"/><path d="M25.12 22.33c1.42-.85 2.54-.47 2.93-.17.22-.12.83-.37 1.5-.4.86-.04.95.22 1.81.85.86.62.16 1.88-.21 2.33-.22.27-.48.9-.67 1.4-.12.32-.17.67-.17 1.02 0 .46-.1.92-.28 1.34-.38.83-.87 1.93-.98 2.34-.12.41 0 1.79-.05 2.42v4.66c0 .47-.64.85-1.1.85a.84.84 0 0 1-.83-.85v-4.66c0-1.26-.24-2.14-.36-2.42-.27-.75-.82-2.45-.87-3.36-.05-.91-.91-2.5-1.34-3.19-.39-.36-.8-1.3.62-2.16z" fill="#fff"/><path d="M30.93 22.23l.45.35c.45.32.49.81.37 1.27a3.1 3.1 0 0 1-.58 1.11c-.1.13-.22.35-.34.6-.11.26-.23.54-.32.8-.12.31-.17.65-.17 1 0 .46-.1.93-.29 1.35l-.58 1.33c-.18.43-.34.8-.4 1-.05.21-.05.64-.05 1.13 0 .5.04 1 .01 1.32v4.66c0 .48-.65.85-1.13.85a.87.87 0 0 1-.86-.88v-4.66c0-1.26-.24-2.14-.36-2.41-.14-.37-.34-.99-.52-1.62a9.3 9.3 0 0 1-.35-1.75A5.23 5.23 0 0 0 25.3 26c-.28-.6-.6-1.16-.81-1.5a1.2 1.2 0 0 1-.38-.92c.02-.4.28-.86 1-1.29 1.41-.85 2.54-.48 2.95-.18.24-.12.84-.36 1.5-.39.44-.02.68.04.92.18.12.07.24.16.38.27l.08.05zm-.49-.27a1.45 1.45 0 0 0-.88-.16c-.67.03-1.28.27-1.5.39h-.03c-.37-.3-1.49-.68-2.9.17-.7.42-.94.86-.97 1.24-.02.37.18.69.36.87h.01c.21.35.54.92.81 1.51.28.6.51 1.23.54 1.7.02.45.17 1.1.34 1.73.18.63.38 1.24.52 1.61a7 7 0 0 1 .36 2.44v4.66c0 .45.36.81.8.81.44 0 1.07-.33 1.07-.78v-4.66c.03-.32-.02-.83-.02-1.32 0-.5 0-.93.07-1.14.05-.2.2-.59.39-1.02l.59-1.33c.18-.41.28-.86.28-1.32 0-.35.05-.7.17-1.03.1-.26.2-.54.32-.8.12-.25.24-.47.35-.6.19-.23.46-.66.57-1.1.11-.44.07-.9-.35-1.2l-.45-.34-.07-.06a3.5 3.5 0 0 0-.38-.27z"/><path d="M29.67 21.72c-.89 0-1.42.25-1.6.4a3.27 3.27 0 0 0-1.42-.32c-.29 0-.64.04-.9.2-.17.1-.11.33.05.44a2.6 2.6 0 0 1 1.13 2.09c0 .3-.02.64-.04.99l-.02.32c-.02.46-.03.93 0 1.36.03.42.1.8.27 1.07.16.27.4.44.78.44.3 0 .52-.18.68-.47.15-.29.24-.68.3-1.12.1-.86.04-1.9-.05-2.6 0-.46.34-1.58 1.65-2.25v-.01a.3.3 0 0 0 .06-.16.24.24 0 0 0-.07-.19.6.6 0 0 0-.28-.13c-.13-.04-.3-.06-.54-.06zm-1.57.46c.14-.13.66-.4 1.57-.4.23 0 .4.03.52.06.13.03.2.08.25.12.04.04.06.1.06.13 0 .05-.02.09-.04.12-1.32.7-1.67 1.83-1.68 2.32.1.7.16 1.73.05 2.59-.05.43-.14.81-.3 1.09-.14.27-.34.43-.61.43a.79.79 0 0 1-.73-.4 2.45 2.45 0 0 1-.26-1.05c-.03-.42-.01-.88 0-1.35l.02-.32c.02-.35.04-.69.04-1 0-1-.59-1.7-1.07-2.07-.17-.13-.2-.37-.01-.45.17-.08.42-.14.74-.14.67 0 1.22.22 1.41.32l.02.02.02-.02zm1.5-.07a.18.18 0 0 0-.08-.1c-.05-.04-.12-.04-.24-.01-.22.05-.6.26-1.3.79-.2-.17-.5-.4-.82-.54a1.61 1.61 0 0 0-.5-.15.63.63 0 0 0-.42.1h-.01v.01c-.02.04-.01.1 0 .16l.13.23c.12.18.35.4.72.66s.58.63.69 1c.11.38.13.74.1.96a6 6 0 0 0-.26 1.33c-.01.23 0 .45.05.63s.15.31.3.37c.08.02.15.02.2-.01.06-.04.1-.1.13-.17.06-.14.07-.36.07-.61a8.78 8.78 0 0 0-.22-1.54c-.01-.24 0-.63.12-1 .1-.39.3-.75.6-.96.42-.26.62-.51.7-.72.09-.2.06-.36.04-.43zm-1.6.74c.7-.53 1.09-.73 1.3-.8.1-.02.16 0 .2 0l.04.08a.6.6 0 0 1-.04.39c-.08.19-.26.43-.66.69-.34.21-.54.6-.65.98-.1.4-.13.79-.12 1.04.1.42.2 1.04.22 1.53 0 .25 0 .45-.06.59-.03.06-.06.1-.1.13-.03.02-.08.03-.15 0-.13-.04-.21-.15-.26-.32a1.86 1.86 0 0 1-.04-.6c.03-.46.15-.98.26-1.32v-.01c.02-.23 0-.6-.1-.98a1.9 1.9 0 0 0-.72-1.04 2.77 2.77 0 0 1-.7-.65.83.83 0 0 1-.12-.21.27.27 0 0 1-.02-.11c.1-.07.24-.09.38-.07.15.01.31.07.47.14.32.15.63.38.82.54l.02.02.02-.02z"/><path d="M26.58 21.45c-.38-1.59-.95-2.08-1.19-2.12 0 .33.18 1.26.97 2.3a.65.65 0 0 0 .22-.18z" fill="#fff"/><path d="M25.36 19.29h.04c.13.03.34.17.56.5.22.33.46.86.65 1.65v.03a.83.83 0 0 1-.1.1.5.5 0 0 1-.14.08l-.03.01v-.02a4.2 4.2 0 0 1-.98-2.32v-.03zm.07.08c0 .35.2 1.23.94 2.21a.8.8 0 0 0 .18-.14 4.96 4.96 0 0 0-.64-1.61c-.2-.3-.37-.42-.48-.46z"/><path d="M29.47 21.45c.37-1.59.95-2.08 1.19-2.12 0 .33-.18 1.26-.97 2.3a.65.65 0 0 1-.22-.18z" fill="#fff"/><path d="M30.69 19.29h-.04c-.13.03-.34.17-.56.5-.23.33-.46.86-.65 1.65v.03l.1.1a.5.5 0 0 0 .14.08l.02.01.02-.02a4.2 4.2 0 0 0 .97-2.32v-.03zm-.07.08c0 .35-.2 1.23-.94 2.21a.8.8 0 0 1-.18-.14c.2-.78.43-1.3.64-1.61.2-.3.37-.42.48-.46z"/><path d="M29.62 21.73L28 18.79l-1.59 2.94h3.22zm-3.1-.07l1.47-2.73 1.52 2.73h-3zm2.3-.28L28 19.51l-.79 1.87h1.6zm-1.5-.07l.68-1.64.71 1.64h-1.4z"/><path fill-rule="evenodd" d="M30.33 13.08L28.1 13l-.02.56.8.03-.08 2.08.64.03.07-2.09.8.03.02-.56zm-4.94 2.87l-.23-2.86 1.33-.09c.46-.03.86.31.91.78.04.37-.14.7-.43.87l.94.96-.75.04-.78-.87-.5.05.12 1.03-.61.09zm.48-1.59l-.08-.77.66-.04c.17 0 .33.12.37.3.05.21-.1.42-.31.44l-.64.07zM19.13 16l1.43 2.29.47-.37-.55-.8.6-.44c.38-.26.47-.8.21-1.18a.79.79 0 0 0-1.1-.22l-1.06.72zm.73.11l.4.62.51-.36c.17-.13.2-.37.06-.53a.33.33 0 0 0-.43-.07l-.54.34zM13 28.08l2.67.2.01-.64-.97-.03.04-.52.92-.67.1-.77-1.05.81a.81.81 0 0 0-.73-.57c-.44-.02-.82.34-.86.8L13 28.1zm.55-.57l.73.04.04-.67c.01-.22-.16-.4-.37-.38a.37.37 0 0 0-.32.33l-.08.68zm9.83-10.93a1.4 1.4 0 0 0 1.38-1.43 1.4 1.4 0 0 0-1.38-1.43 1.4 1.4 0 0 0-1.37 1.43c0 .79.62 1.43 1.37 1.43zm.35-.57c.38-.16.53-.68.34-1.16-.2-.47-.65-.73-1.03-.56-.38.16-.53.68-.34 1.16.19.47.65.73 1.03.56zm15.92 8.27c.19.5.65.8 1.16.82v-.54a.65.65 0 0 1-.54-.18c-.28-.28-.21-.79.14-1.14.36-.35.88-.4 1.16-.12.26.27.22.74-.09 1.08l.38.48c.38-.38.53-.95.33-1.46-.26-.68-1.04-1-1.75-.7a1.4 1.4 0 0 0-.8 1.76zM14 33.62l-.2-.63-.25-.78.51-.18.25.78 1.9-.65.2.63-1.9.65.25.79-.51.18-.25-.79zm24.07 6.1l1.57-1.65-.39-.4-.56.59-1.42-1.47-.45.48 1.43 1.46-.56.59.38.4zM31.2 13.39l-.7 2.44 1.75.64.17-.47-1.25-.42.55-2.01-.52-.18zm1.26 3.09l2.03-1.96.52.3-.14 2.98-.48-.31.03-.67-.95-.56-.5.49-.51-.27zm1.3-.5l.69.42.06-1.15-.76.73zm.18 23.52l.16 2.15.4-.19-.05-.53.75-.32.37.33.4-.15-1.61-1.46-.42.17zm1.04.9l-.55.23-.07-.8.62.57zM17.75 21.1l-1.27-2.56.42-.44 2.72.93-.42.4-.61-.21-.77.8.32.64-.39.44zm-.11-1.43l.56-.58-1.05-.37.49.95zm-3.9 4.15l2.16 1.81.19-.56-.54-.45.4-1.06.64-.06.22-.54-2.85.28-.21.58zm1.8-.22l-.3.77-.8-.67 1.1-.1zm2.34 12.21l-2.74.37-.26-.57 1.77-2.33.23.54-.4.53.46 1.03.68-.1.26.53zm-1.33-.38l-.33-.75-.7.9 1.03-.15zM35.1 17.9l1.73-2.01.4.35-.3 2.02L38.06 17l.38.35-1.7 2.01-.42-.37.26-1.99-1.04 1.26-.45-.36zm6.09 17.44l-2.24-1.36-.26.53 1.4.8-1.92.14-.27.5 2.24 1.33.25-.45-1.42-.91 1.96-.12.26-.46zM21.1 41.26l.8-1.87.37.17.24 1.53.54-1.19.35.16-.78 1.87-.39-.17-.25-1.5-.47 1.16-.41-.16zm6.34-.13L27.5 43l.43-.04-.06-1.15.86 1.13.41-.02-.07-1.87-.39.02.01 1.2-.86-1.16-.39.02zm-14.21-10.4l.1.73 1.51-.22c.7-.1 1.21-.7 1.13-1.34-.09-.64-.73-1.08-1.43-.98l-1.52.21.1.73 1.6-.23c.27-.04.5.13.54.37.03.24-.16.46-.42.5l-1.61.23zm3-8.62l-.26.63c.52.15 1.07-.05 1.3-.5.26-.55 0-1.24-.6-1.56l-1.27-.69-.3.62 1.35.72c.22.12.32.38.22.58-.08.16-.26.24-.44.2zm22.91-4c-.66.57-2 1.72-2.02 1.76l.66.78a1.2 1.2 0 0 0 1.73.12l.1-.1c.5-.45.57-1.22.16-1.76l-.63-.8zm-.02.76c-.43.34-1.34 1.1-1.35 1.11l.21.25c.3.36.83.4 1.19.1.37-.31.42-.89.1-1.27l-.15-.19zm-16 23.31c-.01-.02.36-1.28.54-1.9l.7.15c.45.1.79.62.66 1.1l-.03.1a.99.99 0 0 1-1.1.73l-.78-.18zm.43-.23c0-.02.26-.85.4-1.24l.16.03c.34.07.61.46.5.8a.7.7 0 0 1-.76.5l-.3-.1zm3.25-.04c0 .26-.23.56-.6.56-.38 0-.61-.3-.61-.56 0-.27.23-.56.6-.56.38 0 .6.3.6.56zm.42 0a1.03 1.03 0 1 1-2.06 0 1.03 1.03 0 0 1 2.06 0zm-5.95-2.84l.4.21-.83 1.66-.4-.22.83-1.66zm11.88.85l-.41.18.7 1.72.42-.18-.7-1.72zm-12.82-.56a.4.4 0 0 1-.4.41.4.4 0 0 1-.4-.4.4.4 0 0 1 .4-.42c.22 0 .4.18.4.41zm15.7.29a.4.4 0 0 0 .4-.41.4.4 0 0 0-.4-.41.4.4 0 0 0-.4.4c0 .23.18.42.4.42zm6.68-13.66l-.09-.6-.5.08-.53.08-.5.08-.47.08-.5.08.28 1.95.5-.08-.2-1.35.48-.07.2 1.34.5-.08-.2-1.34.53-.09.2 1.35.5-.08-.2-1.35zm-.35 6.4l-.17.58-.38 1.3-.49-.15.38-1.3-.51-.16-.38 1.3-.48-.15.37-1.3-.46-.15-.37 1.3-.49-.15.55-1.89.48.15.46.15.49.15.51.16.49.15zm-12.47 8.5l-.45.06.05.38.18 1.47v.03l1.44-.19-.05-.37-.99.13-.04-.36.99-.13-.05-.38-.99.13-.05-.4.99-.12-.05-.38-.98.13zm10.56-12.54l2.55.26-.05.91-1.74.27 1.59.64-.02.86-2.62-.2.05-.66 1.65.2-1.58-.71.07-.54 1.8-.23-1.74-.22.04-.58zM17.74 39.54l-.85-1c-.3-.37-.34-.87-.07-1.12.18-.16.44-.17.7-.05-.16-.34-.13-.7.1-.91.29-.27.8-.16 1.14.25l.9 1.08-.95.86-.97.89zm-.13-.76l-.34-.4c-.13-.16-.14-.36-.03-.46.1-.1.3-.05.42.1l.34.4-.4.36zm.9-.83l-.33-.4c-.13-.16-.14-.36-.03-.45.1-.1.3-.06.42.09l.34.4-.4.36zm13.83 2.98c.02 0 .25-.17.36-.25-.14-.15-.55-.38-1.08-.15-.66.28-.36.76-.34.78.08.12.34.22.83.2.4 0 .5.08.5.14.02.07-.02.24-.33.37s-.56-.1-.64-.22l-.33.25c.17.2.66.52 1.22.2.56-.33.43-.76.3-.93-.07-.1-.34-.19-.72-.17-.38.03-.49-.04-.5-.07-.04-.05-.08-.18.15-.31.24-.13.49.05.58.16z" fill="#DC2C24"/></svg>