<!-- by TradingView --><svg width="56" height="56" viewBox="0 0 56 56" xmlns="http://www.w3.org/2000/svg"><path fill="#F0F3FA" d="M0 0h56v56H0z"/><path fill-rule="evenodd" d="M42 28c0-9.08-7-13-14-13s-14 3.92-14 13 7 13 14 13 14-3.92 14-13ZM28 42c10.3 0 18-6.54 18-14s-7.7-14-18-14-18 6.54-18 14 7.7 14 18 14Zm-4.96-14.7c-1.45-1.06-2.82-3.15-1.52-6.48 2-5.16 7.16-4.85 8.05-4.8 2.72.16 5.43 2.44 5.43 5.14-.47-1.03-1.92-3.08-3.9-3.08-2.49 0-4.26 1-4.26 3.08 0 .74.35 1.3.7 1.87.23.35.44.7.58 1.09.1-.37.3-.72.58-1.08 1.06-1.45 3.15-2.82 6.48-1.52 5.16 2 4.85 7.16 4.8 8.05-.16 2.72-2.44 5.43-5.14 5.43 1.03-.47 3.08-1.92 3.08-3.9 0-2.49-1-4.26-3.08-4.26-.74 0-1.3.35-1.87.7-.49.31-.97.61-1.56.7.23.1.46.26.7.46 1.35 1.06 2.61 3.16 1.4 6.49-1.86 5.15-6.64 4.84-7.47 4.79-2.52-.17-5.04-2.45-5.04-5.14.44 1.02 1.78 3.08 3.62 3.08 2.3 0 3.95-1 3.96-3.08 0-.74-.33-1.3-.66-1.87-.1-.17-.2-.33-.28-.5-.1.17-.21.34-.35.52-1.08 1.45-3.18 2.79-6.5 1.47-5.16-2.03-4.82-7.18-4.76-8.07.18-2.71 2.48-5.4 5.18-5.39-1.03.47-3.1 1.9-3.11 3.88-.02 2.48.97 4.26 3.06 4.27.74 0 1.3-.34 1.88-.7.35-.21.7-.43 1.1-.56-.37-.1-.73-.3-1.1-.6Zm2.8.6c.8.27 1.46.85 1.83 1.61a2.96 2.96 0 0 1 2.23-1.5 3.17 3.17 0 0 1-1.8-2.13 3.16 3.16 0 0 1-2.25 2.03Z" fill="#CB9836"/></svg>