<!-- by TradingView --><svg xmlns="http://www.w3.org/2000/svg" width="56" height="56" viewBox="0 0 56 56"><path fill="#F0F3FA" d="M0 0h56v56H0z"/><path d="M10 17h36v4H10v-4zm0 9h36v4H10v-4zm36 9H10v4h36v-4z" fill="#EC202B"/><path d="M28.73 21c2.27.02 4.26.9 4.97 1.34l-.99 1.8h-.51c-.39-.8-1.74-1.8-3.37-1.8-1.3 0-2.2.5-2.5.75-.62.59-.9 2.12 2.99 3.53 3.88 1.41 4.64 3.32 4.64 4 0 3.16-2.97 4.3-6.3 4.38-2.65.06-5-.79-5.84-1.22l.94-2.5.55.2c.96 1.98 3.16 2.27 4.36 2.3 1.2.03 2.8-.62 2.8-1.93-.02-1.04-1.23-1.7-1.84-1.9-2.14-.63-6.35-2.48-6.13-4.9.27-3.03 3.4-4.08 6.23-4.05z"/></svg>