<!-- by TradingView --><svg width="56" height="56" viewBox="0 0 56 56" xmlns="http://www.w3.org/2000/svg"><path fill="#F0F3FA" d="M0 0h56v56H0z"/><path d="M29.7 12.94h.03l.3.04-5.62 8a.04.04 0 0 1-.04.02h-9.5c1.21-2.18 2.86-4.36 4.93-5.72a14.84 14.84 0 0 1 9.9-2.34ZM31.95 13.28c.52.15 1.01.33 1.49.53-.36.11-.7.27-1.03.46-.2.12-.34.28-.45.5v-1.49Z" fill="#F80015"/><path d="m31.92 13.77.01 1.73v.16a1.71 1.71 0 0 1 .03-.27v-.62c.1-.22.26-.38.45-.5.33-.2.67-.35 1.03-.46l.79.34c1.7.82 3.2 1.9 4.51 3.26.02.2.03.45.03.75a4.6 4.6 0 0 1-.78 2.66 43.07 43.07 0 0 0-.7.01l-5.34-.04-.02-.01v-7.02Z" fill="#FA4958"/><path d="M34.12 20.76c0-.08-.07-.14-.13-.17l-.44-.28a2.28 2.28 0 0 1-1.08-1.78c-.08-.98.4-1.92 1.32-2.32.81-.35 1.77-.23 2.45.32a2.36 2.36 0 0 1-.1 3.68 3.97 3.97 0 0 1-1.52.57 363.36 363.36 0 0 0-1.13 0h.6l.02-.01v-.01Z" fill="#FB7580"/><path d="M38.82 17.47a15.26 15.26 0 0 1 4.13 9.26 15.53 15.53 0 0 1-.22 4.08 15.02 15.02 0 0 1-8.45 10.81 14.9 14.9 0 0 1-13.61-.53 15.13 15.13 0 0 1-5.4-5.16 238434.49 238434.49 0 0 0 9.78-5.21h.02l6.73 5.15a.02.02 0 0 0 .02 0 .02.02 0 0 0 0-.01l.09-9.98v-.01l.01-.01c2.8-2.13 5.2-3.54 6.9-4.82.67-.52.35-.08.02-.08h-1.2c.16-.27.66-.77.72-.9.28-.61.42-1.26.41-1.95 0-.29-.01-.52-.03-.71l.08.07ZM13.97 22.5l.04.01a4544.95 4544.95 0 0 1 5.41 4.03 31016.87 31016.87 0 0 1-5.5 6.67v-.02a15.15 15.15 0 0 1 .06-10.7Z" fill="#F80015"/><path d="M31.7 10.43 24.56 20.9a.24.24 0 0 1-.2.1H12.42l6.98 5.31c.12.09.14.25.05.36l-10 11.92 15.48-8.01a.25.25 0 0 1 .27.02l6.5 5.04v-9.6c0-.08.04-.15.1-.2L38.62 21h-6.66c-.14 0-.25-.1-.25-.24V10.43Zm-.16-.3c.07-.1.16-.14.25-.13.11.02.21.13.21.27v10.44h6.77c.24 0 .34.31.15.45L32 26.07v9.67c0 .2-.23.33-.4.2l-6.56-5.08-15.67 8.11a.25.25 0 0 1-.14.03.26.26 0 0 1-.23-.24c0-.06.02-.12.06-.17l10.12-12.07-7.06-5.36a.25.25 0 0 1 .15-.45h12.06l7.21-10.58Z"/></svg>