<!-- by TradingView --><svg width="56" height="56" viewBox="0 0 56 56" xmlns="http://www.w3.org/2000/svg"><path fill="#F0F3FA" d="M0 0h56v56H0z"/><path d="m27.86 25.47.29-.1c-.08-.33-.17-.65-.27-.97l-.29-.9a31.45 31.45 0 0 0-2.3-5.55c-.3-.58-.03-.91.6-.87 1.63.11 3.5 1.46 4.74 2.5.6.5 1.28 1.23 1.87 1.86l.56.61c.44.46 1.1 1.32 1.97 2.6a.5.5 0 0 0 .19.17.04.04 0 0 0 .06-.03v-.02a28.73 28.73 0 0 0-3.67-5.64.28.28 0 0 1-.03-.31l.27-.53a.23.23 0 0 0-.1-.3l-6.31-3.74c-.72-.43-1.34-.3-1.84.39l-.77 1.04a.33.33 0 0 1-.26.13l-6.96.14a.1.1 0 0 0-.08.05.09.09 0 0 0 0 .1c.4.46.75.9 1.05 1.28.37.5.33 1.39.3 2.11a18.31 18.31 0 0 0-.03.44.1.1 0 0 1-.05.03l-5.75 2.58c-.07.03-.07.1 0 .19.02.02.04.03.07.03.12.03.2.03.25.01l5.47-1.94a.04.04 0 0 1 .03 0l.01.01v.02l-.03 1.51-.01.03-.03.02-2.82 1.1c-.12.04-.13.1-.04.2l.04.03c.04.04.08.05.13.04l2.64-.6a.08.08 0 0 1 .07 0 .08.08 0 0 1 .03.06 2210.87 2210.87 0 0 1 .16 7.84c.03.79.08 1.68.01 2.34 0 .1-.07.22-.19.4a3.33 3.33 0 0 0-.44 1.9c.04-.67.26-1.27.66-1.8.44-.57.92-.15 1.07.35.4 1.24.4 2.48 0 3.72-.1.29-.27.51-.54.68a.18.18 0 0 1-.14.02c-.2-.05-.33-.14-.4-.25a3.95 3.95 0 0 1-.68-2.6c0 .54-.01.95-.04 1.23-.03.26.1.75.4 1.48.15.36.74.93 1.18.65 1.37-.88 1.5-3.2 1.04-4.49a3.91 3.91 0 0 0-.45-.92.2.2 0 0 1-.02-.16c.7-2.99 1.6-6.98 2.66-11.97a5.83 5.83 0 0 1 2.5-3.74c.31-.2.58-.03.75.26a42.66 42.66 0 0 1 3.47 7.28Zm-9.82-6.05L18 18a.23.23 0 0 1 .14-.22.24.24 0 0 1 .09-.02l2.97-.06a.04.04 0 0 1 .04.01.03.03 0 0 1 0 .04l-1.06 1.62a.1.1 0 0 1-.06.05c-.68.13-1.33.17-1.97.12a.14.14 0 0 1-.09-.04.13.13 0 0 1-.03-.1Zm1.3 1.61a.17.17 0 0 0 .05.24l.59.37a.2.2 0 0 1 .09.2l-1.63 8.96c-.08.44-.12.44-.13-.01l-.2-9.69c0-.19.08-.3.27-.35l1.1-.25a.1.1 0 0 1 .1.04.1.1 0 0 1 0 .11l-.24.38Z" fill="#78C539"/><path d="m27.86 25.47.29-.1C34 23.6 40 25.52 43.13 30.81v.04l-.03.03-.04-.01A14.97 14.97 0 0 0 34 25.66c-3.41-.55-6.55.07-9.41 1.86a16.17 16.17 0 0 0-5.19 5.2l-.04-.02h-.02v-.02a.03.03 0 0 1 0-.03c.79-1.27 1.71-2.44 2.77-3.5a15.53 15.53 0 0 1 5.74-3.68Z" fill="#DE0302"/><path d="m28.91 29.54-.39-1.65a.1.1 0 0 0-.08-.07.1.1 0 0 0-.03 0c-3.01.84-5.87 2.84-7.99 5.06l-.85.9h-.05c-.01-.01-.02-.03 0-.05a20.62 20.62 0 0 1 4.26-4.29 12.8 12.8 0 0 1 11.13-2.33 15.52 15.52 0 0 1 8.06 4.97h-.03l-.92-.77c-3.43-2.91-8.4-4.65-12.94-3.68a.13.13 0 0 0-.09.06.13.13 0 0 0-.01.1l.4 1.69c0 .02 0 .04.02.05l.06.01c2.1-.35 4.27-.19 6.52.04 3.12.31 5.86 1.92 8.01 4.15a.03.03 0 0 1 0 .03.03.03 0 0 1-.03.02c-1.4-.52-2.9-.83-4.54-.93a62.72 62.72 0 0 0-9.05.13c-.52.04-.76-.18-1.04-.62a3.28 3.28 0 0 0-2.22-1.52c-1.21-.22-1.95.49-2.77 1.3a.91.91 0 0 1-.33.16 12.52 12.52 0 0 0-4.27 2.5c-.02-.01-.02-.02 0-.04 2.52-2.7 5.55-4.4 9.1-5.11.06-.01.09-.05.07-.1Z" fill="#269D03"/><path d="M29.3 37.66a.1.1 0 0 0-.09.02.1.1 0 0 0-.03.08c.08.75-.17 1.39-.8 1.8-.88.6-2.47.63-3.2-.23a.33.33 0 0 1 .16-.54c.53-.15.9-.51 1.1-1.1a6.63 6.63 0 0 0-.16-4.53c-.37-.77-1-.3-1.2.31a8.83 8.83 0 0 0-.12 3.46c0 .07-.01.13-.05.18a.24.24 0 0 1-.16.08c-1.69.23-3.18.74-4.48 1.53-.4.25-.42.23-.04-.05a10.66 10.66 0 0 1 3.99-1.81c.06-.02.1-.06.1-.12-.04-1.67-.32-4.53 1.9-4.94 1.34-.24 2.09.85 2.3 1.99.06.32.21.9.45 1.74.13.44.38.84.86 1 1.29.42 2.76.3 4.07-.03a1238 1238 0 0 0 1.47-.36 26.3 26.3 0 0 1 5.33-.5c.44 0 2.72-.07 2.28.9-.15.34-.26.68-.31 1.02-.1.64-.17 1-.19 1.04a1.9 1.9 0 0 1-1.23 1.12c-1.9.65-3.09 0-3.6-1.86 0-.06-.05-.09-.1-.09-2.66.14-5.76.53-8.25-.1Z" fill="#78C539"/><path d="M19.67 36.93h-.01l-.04-.02v-.03a11.4 11.4 0 0 1 4.3-2.9c.09-.02.12 0 .1.1l-.09.52a.16.16 0 0 1-.13.14c-1.53.42-2.9 1.15-4.13 2.19Z" fill="#DE0302"/></svg>