<!-- by TradingView --><svg width="56" height="56" viewBox="0 0 56 56" xmlns="http://www.w3.org/2000/svg"><path fill="#F0F3FA" d="M0 0h56v56H0z"/><path d="m28 10 18 18-18 18-18-18 18-18Zm0 27a9 9 0 0 0 8.9-10.3 6.97 6.97 0 0 0-2.9-.88c-1.78 0-3.11 1.92-3.56 3.83-.44 1.9-1.77 5.35-4 5.35-2.15 0-4.97-2.49-7.08-4.45A9 9 0 0 0 28 37Zm-8.94-7.96a9 9 0 0 1 17.38-4.18c-1.8-1.5-3.75-2.86-6-2.86-1.77 0-3.1 1.91-4 4.59-.88 2.67-1.77 4.59-3.55 4.59-.85 0-2.55-1.1-3.83-2.14ZM28 39a11 11 0 1 0 0-22 11 11 0 0 0 0 22Z" fill="#FD0001"/></svg>