<!-- by TradingView --><svg width="56" height="56" viewBox="0 0 56 56" xmlns="http://www.w3.org/2000/svg"><path fill="#F0F3FA" d="M0 0h56v56H0z"/><path d="m25 14-4 4v22c-1.17-.94-2.72-1.76-3.75-5.7-.5-1.97.4-5.65 1.17-7.9-1.17 1.13-2.8 4.5-2.34 9.02.47 4.5 5.8 8.26 8.92 9.58V14ZM31 12l4 4v24c1.17-.93 2.72-1.71 3.74-5.63.5-1.94-.21-5.59-.99-7.83 1.17 1.12 2.63 4.48 2.16 8.95-.47 4.48-5.79 8.2-8.91 9.51V12Z" fill="#1A358E"/><path d="M20 23.57V19c-1.04.57-6 5.14-6 13.14 0 6.4 4.1 10.48 6 10.86-1.39-.57-4.54-3.2-4.96-9.14-.42-5.95 3.23-9.34 4.96-10.29ZM36 23.57V19c1.04.57 6 5.14 6 13.14 0 6.4-4.1 10.48-6 10.86 1.39-.57 4.54-3.2 4.96-9.14.42-5.95-3.23-9.34-4.96-10.29ZM26 45V7l4 2.8V45h-4Z" fill="#ECDF1D"/></svg>