<!-- by TradingView --><svg width="56" height="56" viewBox="0 0 56 56" xmlns="http://www.w3.org/2000/svg"><path fill="#F0F3FA" d="M0 0h56v56H0z"/><path d="M24.11 21.8c-.9.52-1.78.85-2.1.94-.05.6-.13 1.77-.08 1.78.06.01.63.17 1.87-.31 1.24-.49 4.88-2.88 7.24-3.4a9.67 9.67 0 0 1 3.86-.15v-.27c-.79-.34-2.84-1-4.7-1-2.34 0-4.97 1.75-6.09 2.4Z" fill="url(#a)"/><path d="M38.75 26.28c0-5.44-6.32-6.81-9.48-6.82.44-.28 1.96-.85 4.48-.85 4.43 0 7.26 3.23 8.12 4.84.24.79.72 2.38.72 2.47 0 .1-.05 2.57-2.12 5.55-1.65 2.39-3.8.55-4.68-.66.99-.5 2.96-2.13 2.96-4.53Z" fill="url(#b)"/><path d="M10 20.68c0-1.88 2.14-3.05 3.2-3.4l1.85.25 1.64 1.09c-1.58-.54-5.02-.78-5.02 2.06.52 2.82 5.1 3.04 7.31 2.8l.48 1.87c-7.28.66-9.46-2.32-9.46-4.67Z" fill="url(#c)"/><path d="M15.08 17c-.95 0-1.71.23-1.97.34.8.2 2.69.89 3.8 2.12 2.57 2.82 2.4 7.83 3.42 11.24.82 2.74 2.36 4.34 3.03 4.8-.66-4.13-2.2-12.92-3.03-15.1-1.04-2.71-4.06-3.4-5.25-3.4Z" fill="url(#d)"/><path d="M44 28.69c0-3.92-3.15-7.1-4.73-8.2a6.12 6.12 0 0 1 2.27 4.61c0 3.53-2.98 4.95-6.32 5.93-3.33.98-5.06.74-7.25-.07-2.19-.8-3.87-3.41-4.99-6.43a19.1 19.1 0 0 0-3.61-5.67 5.57 5.57 0 0 1 1.2 3.71c-.05.93-.17 3.01.45 6.86.5 3.07 1.52 5.05 1.96 5.65 1.05 1.3 4.35 3.92 9.22 3.92C39.75 39 44 33.58 44 28.69Z" fill="url(#e)"/><defs><linearGradient id="a" x1="33.93" y1="20.88" x2="23.05" y2="23.59" gradientUnits="userSpaceOnUse"><stop stop-color="#F5EE31"/><stop offset="1" stop-color="#EBA435"/></linearGradient><linearGradient id="b" x1="31.24" y1="19.34" x2="35.81" y2="32.68" gradientUnits="userSpaceOnUse"><stop stop-color="#4BBBEA"/><stop offset=".48" stop-color="#49ADE1"/><stop offset="1" stop-color="#3C7FC2"/></linearGradient><linearGradient id="c" x1="10" y1="19.92" x2="16.71" y2="20.68" gradientUnits="userSpaceOnUse"><stop stop-color="#80519F"/><stop offset=".87" stop-color="#D73482"/></linearGradient><linearGradient id="d" x1="14.3" y1="21.11" x2="20.79" y2="21.11" gradientUnits="userSpaceOnUse"><stop stop-color="#4B7EC0"/><stop offset="1" stop-color="#9FD5F3"/></linearGradient><linearGradient id="e" x1="45.7" y1="32.65" x2="23.05" y2="39.17" gradientUnits="userSpaceOnUse"><stop stop-color="#2C4CA1"/><stop offset=".28" stop-color="#2969B3"/><stop offset=".5" stop-color="#298FCE"/><stop offset="1" stop-color="#41B1E5"/></linearGradient></defs></svg>