<!-- by TradingView --><svg width="56" height="56" viewBox="0 0 56 56" fill="none" xmlns="http://www.w3.org/2000/svg">
<rect width="56" height="56" fill="#F0F3FA"/>
<path fill-rule="evenodd" clip-rule="evenodd" d="M23.8674 18.768C24.058 18.3586 24.4198 18 24.8125 18H31.9594C33.9055 18 35.1748 20.5412 34.3124 22.6213L29.5671 33.3336C29.4369 33.6475 29.1687 34 28.875 34H26.7812C26.4332 34 26.2095 33.4056 26.3708 33.0378L30.7969 22.9375C30.8825 22.7422 31.0002 22.2721 31 22.0734C30.9992 21.3988 30.5648 21 29.9375 21H26.5069L19.3517 36.3152C18.8848 37.2922 17.8544 38 16.9114 38H8.75L10.662 35H15.1562C15.8856 35 16.5575 34.4627 16.9114 33.7023L23.8674 18.768ZM24.8125 17C24.0832 17 23.4113 17.4717 23.0574 18.232L16.1013 33.1664C15.9108 33.5758 15.549 34 15.1562 34H10.1424L7 39H16.9114C18.1873 39 19.525 38.1839 20.1567 36.8621L20.7307 35.6608C20.7307 37.4375 22.4607 39 24.2296 39H31.5625C32.2918 39 32.9637 38.6556 33.3176 37.8953L40.1799 22.8393C40.3705 22.4299 40.7323 22 41.125 22H46.0625L49 17L38.9381 17C37.6622 17 36.4843 17.816 35.8526 19.1378L35.3967 20.1593C35.0048 18.4027 33.6769 17 31.9594 17H24.8125ZM35.2834 22.7271C35.2423 22.8557 35.1955 22.9838 35.1428 23.1109L30.3975 33.8231C30.1112 34.5137 29.5211 35 28.875 35H26.7812C25.5499 35 25.0659 33.629 25.5499 32.5259L30.0743 22.3428C30.1281 22.2202 30.0535 22 29.9375 22H27.0453L21.8356 33.3489L21.838 33.3503C20.9755 35.4304 22.2835 38 24.2296 38H31.5625C31.9552 38 32.317 37.6413 32.5076 37.2318L39.3699 22.3033C39.7238 21.543 40.3957 21 41.125 21H45.5429L47.3481 18H38.9381C37.995 18 37.1244 18.7077 36.6575 19.6847L35.2903 22.73L35.2834 22.7271Z" fill="#DA2631"/>
</svg>
