<!-- by TradingView --><svg width="56" height="56" viewBox="0 0 56 56" xmlns="http://www.w3.org/2000/svg"><path fill="#F0F3FA" d="M0 0h56v56H0z"/><path d="M37.95 31a10 10 0 0 1-.15 1H18.2a10 10 0 0 1-.15-1h19.9Zm.05-1c0-.34-.02-.67-.05-1h-19.9c-.03.33-.05.66-.05 1h20Zm-19.8-2h19.6a9.93 9.93 0 0 0-.26-1H18.46c-.1.33-.2.66-.26 1Zm.63-2h18.34a9.96 9.96 0 0 0-.5-1H19.33c-.19.32-.36.66-.5 1ZM20 24h16c-.26-.35-.55-.69-.86-1H20.86c-.3.31-.6.65-.86 1Zm2-2h12a9.96 9.96 0 0 0-12 0Z" fill="url(#a14zgjhlc)"/><path d="m12.12 31 .16 1h5.92a10 10 0 0 1-.15-1h-5.93Zm-.09-1H18c0-.34.02-.67.05-1H12c0 .34.01.67.03 1Zm0-2h6.17c.07-.34.16-.67.26-1h-6.34c-.04.33-.07.66-.09 1Zm.25-2h6.55c.15-.34.32-.68.5-1H12.5c-.08.33-.16.66-.22 1Zm.52-2H20c.26-.35.55-.69.86-1h-7.7c-.13.33-.25.66-.36 1Zm.8-2H22a10 10 0 0 1 1.64-1h-9.5c-.19.33-.37.66-.53 1Zm1.17-2h26.46c-.23-.34-.48-.68-.74-1H15.51c-.26.32-.5.66-.74 1Zm1.61-2h23.24c-.33-.35-.68-.68-1.04-1H17.42c-.36.32-.7.65-1.04 1Zm2.3-2h18.65a16 16 0 0 0-1.58-1h-15.5a16 16 0 0 0-1.58 1Zm3.74-2h11.16a15.97 15.97 0 0 0-11.16 0Zm19.44 7h-9.5A10 10 0 0 1 34 22h8.4c-.17-.34-.35-.67-.54-1Zm.98 2h-7.7c.3.31.6.65.86 1h7.2c-.1-.34-.23-.67-.36-1Zm.66 2h-6.84c.19.32.36.66.5 1h6.56a15.9 15.9 0 0 0-.22-1Zm.38 2h-6.34c.1.33.2.66.26 1h6.17c-.02-.34-.05-.67-.1-1Zm.12 2h-6.05c.03.33.05.66.05 1h5.97c.02-.33.03-.66.03-1Zm-.12 2h-5.93a10 10 0 0 1-.15 1h5.92l.16-1Z" fill="url(#b14zgjhlc)"/><path d="M43.72 32H12.28h31.44Zm-.22 1h-31c.1.34.19.67.3 1h30.4c.11-.33.2-.66.3-1Zm-.66 2H13.16c.14.34.3.67.45 1h28.78c.16-.33.3-.66.45-1Zm-.98 2H14.14c.2.34.41.67.63 1h26.46c.22-.33.43-.66.63-1Zm-1.37 2H15.5c.28.35.57.68.87 1h23.24c.3-.32.6-.65.87-1Zm-1.9 2H17.41c.4.35.82.69 1.25 1h18.66c.43-.31.85-.65 1.25-1Z" fill="#2A9C69"/><path d="M19.94 40.2h-1v-3.5c0-1-.5-1-1-1s-.5 1-1 1 0-.5-1-.5-.5.5-1.5.5 0-.5 0-1.5.5 0 1-1 0-.5 0-1 1 .5 1.5 0 .5-.5 0-.5 0-.5-.5-1.5-1.5 0-2 0 0-.5 1-1 .5 0 1 0 1 0 .5-.5 0-1 .5-1.5 0 .5.5.5.5-1 .5-1.5 2.5 0 3 .5-.5.5-1 1 0 .5 0 1 1 .5 1.5.5.5.5 1 1-.5.5-1 1c-.4.4-.5.84-.5 1h2c.5 0 1.6-.1 2-.5.5-.5-1 0-1.5-1s0-1 0-1.5-.5-1-.5-2 1 0 1.5.5 1 1 1.5.5-.5-1.5 0-2 1 0 1-.5 0-1 .5-1.5 1.5 0 2 .5 0 1-.5 1 0 .5.5 1.5.5 0 1 .5.5.5.5 1-1.5 0-2 0-.5 1 0 1 0 .5.5.5 1-.5 1.5 0 0 .5.5 1c.4.4.5 1.17.5 1.5l-1 1c-.4.4-.16.84 0 1h-3.5v4.5h-1v-4.5c-.33 0-1.1.1-1.5.5-.5.5 0 .5-.5.5s-.5-.5-.5-1-.5 0-1-.5c-.4-.4-.16-.83 0-1h-1.5c-.5 0 0 1 .5 1.5.4.4.5.84.5 1h-3v3.5ZM36 40.5v-5.1c-1 .17-3 .2-3-1 0-1.5 1.5-1 1.5-2s.5-.5 1-1.5-1.5-.5-1.5-1.5 1.5 0 2.5-.5-2-.5-.5-1.5c0-1 1.5 0 1.5-1s1 0 2 1.5 2 1 2.5 2-.5 1-1.5 1-1-1-2 0 .5.5 1.5 2 1.5-.5 2-.5 0 1.5 0 2-1 .25-1.5.25-1 .75-1.5.75-1-1-2-.75c-.8.2-.33.59 0 .75v5.1h-1Z" fill="#F0F3FA"/><defs><linearGradient id="a14zgjhlc" x1="38" y1="29" x2="17.5" y2="29" gradientUnits="userSpaceOnUse"><stop stop-color="#E57663"/><stop offset="1" stop-color="#E57663" stop-opacity=".39"/></linearGradient><linearGradient id="b14zgjhlc" x1="12" y1="28.5" x2="44" y2="28.5" gradientUnits="userSpaceOnUse"><stop stop-color="#E57663"/><stop offset="1" stop-color="#E57663" stop-opacity=".42"/></linearGradient></defs></svg>