<!-- by TradingView --><svg width="56" height="56" viewBox="0 0 56 56" xmlns="http://www.w3.org/2000/svg"><path fill="#F0F3FA" d="M0 0h56v56H0z"/><path d="m18.8 13.67 5.2 5.2v-7.42c.96-.24 1.97-.39 3-.45v13.9a.5.5 0 0 1-.86.36l-9.73-9.73a17.1 17.1 0 0 1 2.39-1.86ZM13.67 18.8a17.1 17.1 0 0 1 1.86-2.4l9.73 9.74a.5.5 0 0 1-.35.86H11c.06-1.03.21-2.04.45-3h7.41l-5.2-5.2ZM11.45 32c-.24-.97-.39-1.97-.45-3h13.9a.5.5 0 0 1 .36.86l-9.73 9.73a17.1 17.1 0 0 1-1.86-2.39l5.2-5.2h-7.42ZM18.8 42.33a17.1 17.1 0 0 1-2.4-1.86l9.74-9.73a.5.5 0 0 1 .86.35V45a17.01 17.01 0 0 1-3-.45v-7.41l-5.2 5.2ZM32 44.55c-.97.24-1.97.39-3 .45V31.1a.5.5 0 0 1 .86-.36l9.73 9.73a17.1 17.1 0 0 1-2.39 1.86l-5.2-5.2v7.42ZM42.33 37.2a17.1 17.1 0 0 1-1.86 2.4l-9.73-9.74a.5.5 0 0 1 .35-.86H45a17.01 17.01 0 0 1-.45 3h-7.41l5.2 5.2ZM44.55 24c.24.96.39 1.97.45 3H31.1a.5.5 0 0 1-.36-.86l9.73-9.73a17.1 17.1 0 0 1 1.86 2.39l-5.2 5.2h7.42ZM37.2 13.67a17.1 17.1 0 0 1 2.4 1.86l-9.74 9.73a.5.5 0 0 1-.86-.35V11c1.03.06 2.03.21 3 .45v7.41l5.2-5.2Z" fill="#014783"/></svg>