<!-- by TradingView --><svg width="56" height="56" viewBox="0 0 56 56" xmlns="http://www.w3.org/2000/svg"><path fill="#F0F3FA" d="M0 0h56v56H0z"/><path d="M4 23h4c1.27 0 3.26.39 3.26 2 0 1.32-1.3 1.98-2.4 2.23v.03c1.32.12 3.14.64 3.14 2.27C12 31.42 9.95 32 8.4 32H4v-.25c.82-.05 1-.24 1-1.1v-6.3c0-.81-.16-1.07-1-1.1V23Zm3.77.25c-.78 0-.77.35-.77 1.1v6.3c0 .79.03 1.06.81 1.06C9.25 31.7 10 31 10 29.5c0-1.48-.88-2.06-2.23-2.06H6.4v-.22H7.6c1.31 0 1.96-.8 1.96-2.07 0-1.17-.6-1.9-1.8-1.9Z" fill="url(#axqgvegbx)"/><path d="M16.5 23c2.44 0 3.5 2.28 3.5 4.43 0 2.1-1.08 4.57-3.5 4.57-2.45 0-3.5-2.27-3.5-4.43 0-2.1 1.08-4.57 3.5-4.57Zm-.04.22C15 23.22 15 26.17 15 27.5c0 1.35 0 4.28 1.54 4.28C18 31.78 18 28.82 18 27.5c0-1.34 0-4.28-1.54-4.28Z" fill="url(#bxqgvegbx)"/><path d="M39.5 23c2.44 0 3.5 2.28 3.5 4.43 0 2.1-1.08 4.57-3.5 4.57-2.45 0-3.5-2.27-3.5-4.43 0-2.1 1.08-4.57 3.5-4.57Zm-.04.22C38 23.22 38 26.17 38 27.5c0 1.35 0 4.28 1.54 4.28C41 31.78 41 28.82 41 27.5c0-1.34 0-4.28-1.54-4.28Z" fill="url(#cxqgvegbx)"/><path d="M23.95 23c1.55 0 2.29 1 2.29 0h.3l-.06 2.7h-.31c-.03-.4-.13-.8-.3-1.17a2.04 2.04 0 0 0-1.92-1.27c-.95 0-1.53 1.35-.95 2.24.5.77 1.1 1.08 1.64 1.39 1.06.61 2.36 1.38 2.36 2.76C27 31.4 25.3 32 23.8 32c-.88 0-1.4-.63-2.2-.63-.09 0-.15.05-.2.14-.03.09-.07.31-.1.49H21l.05-3h.31c.04.5.14.83.3 1.27a2.17 2.17 0 0 0 2.14 1.46c.94 0 1.2-.74 1.2-1.73 0-1.14-.68-1.59-1.55-2.07C22.36 27.29 21 26.43 21 25c0-1.6 1.57-2 2.95-2Z" fill="url(#dxqgvegbx)"/><path d="M35 23v3h-.28c-.09-.74-.24-2.02-.94-2.47-.25-.16-.31-.24-.78-.24h-.55v7.25c0 .95.07 1.16.98 1.2V32h-3.86v-.25c.9-.05.97-.27.97-1.21v-7.25H30c-.45 0-.53.08-.78.24-.71.45-.85 1.73-.94 2.47H28v-3h7Z" fill="url(#exqgvegbx)"/><path d="M52 23v.25c-.87.05-1 .61-1 1.37V32h-1l-4.72-7.79v6.07c0 .88.2 1.34 1.17 1.42v.3H44v-.3c.85-.08 1-.62 1-1.37v-5.99c0-.76-.22-1.06-1-1.09V23h2.5l4.22 6.6v-4.93c0-.86-.2-1.37-1.17-1.42V23H52Z" fill="url(#fxqgvegbx)"/><defs><linearGradient id="axqgvegbx" x1="8" y1="23" x2="8" y2="32" gradientUnits="userSpaceOnUse"><stop stop-color="#606060"/><stop offset="1" stop-color="#080808"/></linearGradient><linearGradient id="bxqgvegbx" x1="16.5" y1="23" x2="16.5" y2="32" gradientUnits="userSpaceOnUse"><stop stop-color="#606060"/><stop offset="1" stop-color="#080808"/></linearGradient><linearGradient id="cxqgvegbx" x1="39.5" y1="23" x2="39.5" y2="32" gradientUnits="userSpaceOnUse"><stop stop-color="#606060"/><stop offset="1" stop-color="#080808"/></linearGradient><linearGradient id="dxqgvegbx" x1="24" y1="23" x2="24" y2="32" gradientUnits="userSpaceOnUse"><stop stop-color="#606060"/><stop offset="1" stop-color="#080808"/></linearGradient><linearGradient id="exqgvegbx" x1="31.5" y1="23" x2="31.5" y2="32" gradientUnits="userSpaceOnUse"><stop stop-color="#606060"/><stop offset="1" stop-color="#080808"/></linearGradient><linearGradient id="fxqgvegbx" x1="48" y1="23" x2="48" y2="32" gradientUnits="userSpaceOnUse"><stop stop-color="#606060"/><stop offset="1" stop-color="#080808"/></linearGradient></defs></svg>