<!-- by TradingView --><svg width="56" height="56" viewBox="0 0 56 56" xmlns="http://www.w3.org/2000/svg"><path fill="#F0F3FA" d="M0 0h56v56H0z"/><path d="M21.3 11.89a.44.44 0 1 0 0-.89.44.44 0 0 0 0 .89ZM27.63 11.92a.37.37 0 1 0 0-.73.37.37 0 0 0 0 .73ZM32.72 12.19a.44.44 0 1 0 0-.89.44.44 0 0 0 0 .89ZM27.57 13.71a.54.54 0 1 0 0-1.08.54.54 0 0 0 0 1.08ZM22.13 14a.66.66 0 1 0 0-1.31.66.66 0 0 0 0 1.31ZM32.31 14.07a.66.66 0 1 0 0-1.32.66.66 0 0 0 0 1.32ZM37.17 14.87a.37.37 0 1 0 0-.74.37.37 0 0 0 0 .74ZM27.49 15.7a.76.76 0 1 0 0-1.5.76.76 0 0 0 0 1.5ZM16.9 15.2a.38.38 0 1 0 0-.76.38.38 0 0 0 0 .76ZM23.24 16.39a.94.94 0 1 0 0-1.9.94.94 0 0 0 0 1.9ZM31.74 16.5a.94.94 0 1 0 0-1.87.94.94 0 0 0 0 1.88ZM36.18 16.33a.54.54 0 1 0 0-1.08.54.54 0 0 0 0 1.08ZM17.94 16.61a.54.54 0 1 0 0-1.08.54.54 0 0 0 0 1.08ZM30.02 16.7l.26.07a.08.08 0 0 1 .04.05.08.08 0 0 1-.01.07 20.83 20.83 0 0 1-3.2 3.36.26.26 0 0 1-.23.05l-3.13-.82a.1.1 0 0 1-.05-.16L26 16.6c.04-.06.1-.09.18-.1 1.26-.13 2.54-.06 3.84.21ZM35.11 17.97a.76.76 0 1 0 0-1.52.76.76 0 0 0 0 1.52ZM40.52 17.34a.44.44 0 1 0 0-.88.44.44 0 0 0 0 .88ZM19.07 18.2a.76.76 0 1 0 0-1.52.76.76 0 0 0 0 1.53ZM24.77 16.71c.15-.03.18 0 .08.13l-1.95 2.3a.13.13 0 0 1-.15.05l-2.12-.71a.01.01 0 0 1 0-.02c1.26-.82 2.64-1.4 4.14-1.75ZM31.33 17.04a14.46 14.46 0 0 1 2.98 1.5.12.12 0 0 1-.01.14l-2.38 2.38a.48.48 0 0 1-.45.13l-3.37-.64a.1.1 0 0 1-.04-.16c1.1-1.01 2.12-2.1 3.04-3.28a.2.2 0 0 1 .23-.07ZM12.63 18a.45.45 0 1 0 0-.88.45.45 0 0 0 0 .89ZM39.14 18.59a.66.66 0 1 0 0-1.32.66.66 0 0 0 0 1.32ZM14.37 19.37a.66.66 0 1 0 0-1.32.66.66 0 0 0 0 1.32ZM37.62 20.38a.94.94 0 1 0 0-1.88.94.94 0 0 0 0 1.88ZM16.28 20.91a.94.94 0 1 0 0-1.88.94.94 0 0 0 0 1.88ZM17.86 20.92l1.87-1.87c.05-.04.1-.06.17-.04l2.28.77.02.02a.02.02 0 0 1-.01.03l-2.24 1.97a.33.33 0 0 1-.35.06l-1.7-.7c-.13-.05-.15-.13-.04-.24ZM32.83 21.15l2.15-2.08a.14.14 0 0 1 .2 0l2.07 2.15a.14.14 0 0 1-.02.22.14.14 0 0 1-.08.02l-4.22-.06a.14.14 0 0 1-.1-.25ZM23.4 23.18l-2.59-.87a.1.1 0 0 1-.04-.16l2.1-2.11a.1.1 0 0 1 .1-.03l3.23.84a.1.1 0 0 1 .03.18l-2.74 2.14a.1.1 0 0 1-.1.01ZM27.4 24.24l-2.9-.76a.1.1 0 0 1-.03-.18l2.76-2.14a.1.1 0 0 1 .08-.02l3.32.64a.1.1 0 0 1 .08.07.1.1 0 0 1-.04.1l-3.18 2.28a.1.1 0 0 1-.08.01Z" fill="#F18221"/><path d="M39.23 22.35h-.03c-3.22 3.63-7.86 6.15-12.43 7.9A64.64 64.64 0 0 1 14.4 33.6a.1.1 0 0 1-.04-.05l-.62-2.46a.08.08 0 0 1 .04-.08l.03-.01c6.33-.2 12.9-1.65 18.47-4.42 2.8-1.4 5.3-3.14 7.5-5.25.1-.1.14-.08.1.07-1.36 4.74-6.7 8.5-10.88 10.68a67.93 67.93 0 0 1-12.75 5.04c-.03 0-.06 0-.07-.03l-1.25-1.98a.06.06 0 0 1 .04-.09 55.38 55.38 0 0 0 15.32-5.49c3.3-1.78 6.6-4.2 8.95-7.14l-.01-.03Z" fill="#373435"/><path d="M18.94 22.32a.14.14 0 0 1 .03.25l-2.9 2.02c-.3.22-.37.16-.2-.18l1.3-2.55a.14.14 0 0 1 .17-.07l1.6.53ZM36.1 22.18h.2c.17 0 .19.06.06.18-1 .92-2.03 1.68-3.08 2.27-.2.11-.63.15-1.3.11-1.5-.08-2.58-.18-3.24-.3-.2-.04-.22-.12-.04-.23.94-.6 1.92-1.3 2.94-2.11a.96.96 0 0 1 .62-.12c1.42.18 2.7.25 3.84.2ZM11.22 23a.38.38 0 1 0 0-.75.38.38 0 0 0 0 .75ZM12.77 23.65a.54.54 0 1 0 0-1.08.54.54 0 0 0 0 1.08Z" fill="#F18221"/><path d="M38.85 27.8c.64-.42 1.38-.7 2.22-.85.19-.03.4-.17.59-.3.1-.06.15-.03.16.09l.14 1.6c.01.13-.02.14-.1.05-.77-.92-2.1-.06-2.93.5-.14.09-.13.14.04.14.6 0 1.26.15 1.96.45.4.17.68.1.87-.22.16-.27.22-.25.2.06l-.26 2.34-.01.02h-.07c-.04 0-.06-.02-.06-.06-.08-1.55-1.64-1.53-2.79-1.24a.06.06 0 0 0-.04.05.06.06 0 0 0 .03.06c.43.27.72.42 1.01.77l.88 1.09c.22.27.47.32.75.14.11-.07.15-.05.1.09l-.5 1.5c-.03.1-.09.12-.17.1-.8-.17-1.56-.44-2.15.02-.07.05-.1.03-.1-.05v-6.44c0-.08.03-.15.08-.2l.09-.11a.34.34 0 0 0 .08-.23V25.8c0-.08.02-.16.06-.22l1.57-2.73a.08.08 0 0 1 .14.01c.5 1.05.84 2.04 1.03 2.96.02.09 0 .1-.08.04-1.15-.99-2.3 1.14-2.8 1.89-.07.1-.05.13.06.06Z" fill="#144778"/><path d="m19.94 22.79 2.6.88a.07.07 0 0 1 .03.13l-3.6 2.25a.07.07 0 0 1-.06.01l-2.32-.78a.07.07 0 0 1-.05-.06.07.07 0 0 1 .03-.07l3.3-2.35a.07.07 0 0 1 .07-.01ZM14.47 24.4a.76.76 0 1 0 0-1.52.76.76 0 0 0 0 1.52ZM22.2 27.01l-2.14-.56a.13.13 0 0 1-.03-.23l3.49-2.2a.13.13 0 0 1 .1 0l2.6.67a.13.13 0 0 1 .08.18.13.13 0 0 1-.05.06L22.3 27a.13.13 0 0 1-.1.01ZM23.71 27.36a.45.45 0 0 1-.14-.04c-.08-.05-.07-.11.03-.17l3.65-2a.89.89 0 0 1 .52-.1l3.66.44c.14.02.15.06.02.12-1.59.77-3.25 1.4-4.98 1.92-.96.28-1.55.07-2.76-.17ZM15.2 27.96l.24-2.02a.22.22 0 0 1 .1-.16.22.22 0 0 1 .19-.03l2.16.73a.1.1 0 0 1 .01.2l-2.6 1.36c-.08.05-.12.02-.1-.08ZM13.65 28.3a.94.94 0 1 0 0-1.88.94.94 0 0 0 0 1.88ZM11.55 27.86a.66.66 0 1 0 0-1.32.66.66 0 0 0 0 1.32ZM9 27.18v-.2c.12-.2.23-.3.33-.34a.46.46 0 0 1 .6.51c-.04.23-.21.35-.52.35-.13 0-.27-.1-.41-.32ZM15.43 28.81a60.91 60.91 0 0 0 3.3-1.81.69.69 0 0 1 .59-.07l1.59.54c.12.04.12.09 0 .14a77.82 77.82 0 0 1-4.44 1.77c-.21.08-.58.14-1.1.18-.08 0-.13-.03-.16-.1-.1-.3-.03-.52.22-.65Z" fill="#F18221"/><path d="M36.09 30.3c.13-.37.08-.95.08-1.61a.3.3 0 0 1 .1-.21l1.4-1.42c.08-.08.12-.06.13.06v11.05c0 .46-.15.78-.46.99a.16.16 0 0 1-.2-.01l-1.12-.95a.22.22 0 0 1-.08-.17c-.02-2.48-.02-4.8 0-6.99 0-.28.05-.5.15-.75Z" fill="#144778"/><path d="M23.81 28.14c.11.03.11.06 0 .08-1.38.33-2.73.59-4.05.79-.33.05-.34.01-.03-.12.52-.21 1.15-.48 1.9-.82.84-.39 1.34-.14 2.18.07Z" fill="#F18221"/><path d="M34.96 38.84c-.04.5.04 1.1.23 1.82a.38.38 0 0 1-.19.42l-1.6.85c-.1.05-.14.02-.14-.09-.01-1.45-.02-4.22-.01-8.28 0-.37.05-.78.15-1.25.08-.36.1-.78.07-1.27a.46.46 0 0 1 .2-.41l1.29-1.01c.12-.1.18-.07.18.09v8.27c0 .35-.16.6-.18.86ZM32.43 31.55v10.5c0 .29-.07.3-.2.05a4.44 4.44 0 0 0-1.57-1.6.21.21 0 0 1-.1-.19v-5.25c0-.3.05-.68.17-1.16.1-.38.12-.82.06-1.31 0-.02 0-.05.02-.07a.12.12 0 0 1 .04-.05l1.53-.95.01-.01a.04.04 0 0 1 .03.02v.02ZM27.92 43h-.09a357.9 357.9 0 0 1 0-6.5c0-.8.28-1.5.27-2.27a.41.41 0 0 1 .22-.37l1.23-.65c.14-.07.2-.03.2.13v9.42a.17.17 0 0 1-.16.18l-1.67.06ZM25.65 40.54h-.38c-.08 0-.12-.04-.12-.12 0-1.87-.14-3.05.2-3.97.1-.29.12-.63.06-1.02a.23.23 0 0 1 .13-.25l1.39-.62c.1-.04.14-.01.14.09v8.17c0 .08-.05.13-.13.14-.2.01-.36-.07-.4-.29-.12-.65-.29-1.26-.48-1.84a.43.43 0 0 0-.41-.29ZM38.64 35.04l.83 1.58c.04.08.03.15-.02.22l-.75.89c-.06.06-.09.05-.09-.03v-2.66c0-.03.01-.04.03 0ZM22.53 37.56c.14-.34.22-.58.24-1.05 0-.12.06-.2.18-.25l1.26-.49c.11-.04.17 0 .17.12v5.7c0 .1-.12.33-.35.7-.04.07-.1.1-.17.07l-1.28-.43c-.1-.03-.14-.1-.14-.2v-3.7c0-.15.03-.31.1-.47ZM19.76 38.6c.3-.42.35-.48.3-1-.02-.17.05-.27.2-.33l1.18-.42c.13-.05.2 0 .2.14v4.3c0 .14-.06.17-.19.1l-.26-.15a.27.27 0 0 1-.14-.29l.25-2.07a.47.47 0 0 0-.4-.52 1.49 1.49 0 0 0-1.13.27h-.01v-.02ZM18.94 37.87v1.42a.19.19 0 0 1-.23.18.19.19 0 0 1-.1-.05l-1.06-1.07c-.1-.1-.08-.16.04-.2l1.2-.38c.1-.03.15 0 .15.1Z" fill="#144778"/></svg>