<!-- by TradingView --><svg width="56" height="56" viewBox="0 0 56 56" xmlns="http://www.w3.org/2000/svg"><path fill="#F0F3FA" d="M0 0h56v56H0z"/><path fill-rule="evenodd" d="M11.78 22.33c-.93-.06-2.78.3-2.78 2.13 0 .38.1 1.21.49 1.47.32.22.22.37.06.58-.08.11-.17.24-.22.4-.13.4-.06 1.92 0 2.63.05.27.26.82.65.82.25 0 .4-.12.57-.24.17-.13.33-.25.57-.25.2 0 .38.08.59.18.29.14.64.31 1.21.31.98 0 2.12-.65 2.29-.98.43.33 1.43.98 1.96.98.35 0 .7-.14 1.02-.27.28-.11.55-.22.77-.22.26 0 .47.13.67.26.19.12.36.23.56.23.18 0 .37-.06.55-.12.22-.07.42-.13.51-.04l.1.1c.34.4 1.49 1.7 2.65 1.7h4.44c.48 0 .81.3 1.11.58.28.25.53.48.85.4.65-.16 1.14-1.14 1.14-2.3.22-.16.85-.48 1.64-.48.5 0 .7.13.9.26.17.12.34.23.73.23.82 0 1.8-.33 2.29-.82.32.27 1.17.82 1.96.82.5 0 .7-.1.9-.18.17-.07.34-.15.73-.15.36 0 .56.13.74.24.23.15.44.27.9.09.42-.17.93-.08 1.39 0 .43.09.82.16 1.05 0 .4-.26.39-1.64.33-2.3.5-.1 1.54-.55 1.8-1.47.32-1.15-.17-2.46-.98-2.46-.27.16-.95.46-1.47.33-.27-.07-.42-.16-.57-.25a1.48 1.48 0 0 0-.9-.24c-.41 0-.57.08-.7.14-.12.06-.2.1-.45.02-.49-.16-1.14-.16-1.8-.16-.39 0-.9.12-1.47.25-.36.08-.75.17-1.14.24-.5.08-.96-.18-1.44-.45-.46-.26-.94-.54-1.5-.54-.6 0-1.03.33-1.4.61-.31.25-.58.45-.88.38-.31-.08-.58-.41-.85-.74-.3-.37-.6-.74-.95-.74-.28 0-.47.28-.69.59-.29.4-.62.89-1.27.89-.4 0-.8-.02-1.2-.04a7.9 7.9 0 0 0-1.9.04l-.32.08a2.65 2.65 0 0 1-1.84-.06 5.49 5.49 0 0 0-1.93-.35c-.84 0-1.25-.1-1.6-.2a3 3 0 0 0-.85-.13c-.4 0-.56.12-.7.22-.15.1-.27.2-.6.1-.3-.06-.5-.2-.67-.33-.23-.17-.44-.32-.8-.32-.33 0-.5.09-.62.15s-.2.1-.37.02c-.13-.07-.27-.44-.42-.83-.2-.54-.44-1.14-.72-1.14a.51.51 0 0 0-.4.15c-.1.09-.2.18-.5.18h-1.22Zm1.63 1.3c.06-.15.23-.45.5-.32.32.17.55 1.69.09 1.69-.2 0-.36-.2-.55-.44-.27-.34-.6-.76-1.18-.76-.83 0-.8.27-.78.55l.01.15c0 .42.54.79 1.16 1.21.85.58 1.84 1.25 1.84 2.29 0 1.8-1.58 1.87-1.9 1.7-.33-.16-1.8-.65-2.13-.32-.32.33-.4.33-.49.33-.26 0-.32-.33-.32-1.15v-.19c-.01-.42-.02-.8.32-.8.22 0 .37.22.54.47.22.32.47.68.93.68.82 0 1.05-.56 1.05-.72 0-.42-.54-.79-1.16-1.21-.85-.58-1.84-1.25-1.84-2.29 0-.98 1.12-1.52 2.12-1.52.98 0 1.63.5 1.8.66Zm7.36 1.81c0-.16-.5-.16-.82-.16-.33 0-.82.06-.82.33 0 .2.14.3.25.36l.08.05v2.7c-.11.06-.33.23-.33.5 0 .32.17.32.98.32.82 0 1.15 0 1.15-.33 0-.29-.04-.43-.26-.49v-1.97c0-.49.1-.65.75-.65.52 0 .75.33.75.49v2.3c0 1.14.95 2.11 2.51 2.11h3.43c.5 0 .63.3.75.57.07.18.14.35.31.43.23.11.9.16.9-.5 0-.65-.65-1.5-1.47-1.5h-3.75c-1.09 0-1.13-.48-1.17-.98l-.01-.13v-2.63c0-.65-.95-.98-1.76-.98-.67 0-1.26.33-1.47.5v-.34Zm-3.27-.33c-1.05-.91-2.07-.16-2.45.33-.92.92-.5 2.02-.17 2.46l1.15 1.31c.38.39 1.4.89 2.45-.16 1.04-1.05.65-2.19.33-2.62 0-.06-.27-.4-1.31-1.32Zm-.6 1.04c-.3-.25-.67-.23-.99.16-.26.31-.1.72.09.87l.15.17c.16.18.35.4.65.64h.01c.2.17.68.54 1.08.06.41-.5.08-.84-.1-1.02a1.3 1.3 0 0 1-.08-.08l-.26-.27a4.92 4.92 0 0 0-.54-.53Zm16.18-.77c.38-.49 1.4-1.24 2.45-.32 1.04.91 1.3 1.25 1.3 1.3.33.44.72 1.58-.32 2.63-1.05 1.05-2.07.55-2.45.16l-.66-.75a2.63 2.63 0 0 1-2.18 1.14c-1.63 0-1.8-.98-1.8-1.31v-2.22h-.4v-.57c.66 0 .96-.52 1.22-1.44h.33l-.02 1.28h1.47v.03c0 .47 0 .69-1.02.69v2.32c-.03.26-.06.68.5.68.61 0 1.17-.68 1.46-1.03l.03-.04-.07-.09c-.33-.43-.76-1.54.16-2.46Zm.8.57c.31-.4.71-.34.99-.04.19.2.33.41.48.62l.22.32.06.08c.15.2.4.55-.01 1.07-.4.5-.82.05-1-.14v-.01a5.28 5.28 0 0 1-.58-.75 8 8 0 0 0-.13-.19c-.17-.18-.3-.64-.04-.96Zm-5.38.31c0-.78-1.43-.98-1.98-.98-1.66 0-1.83.65-1.83.98 0 .33.17.5.5.5.47 0 .67-.25.85-.45.14-.17.26-.31.48-.31.48 0 .48.16.48.47v.03c0 .33-.15.75-1.31.75-.93 0-1.33.65-1.33 1.14 0 .5.13 1.15 1.33 1.15 1.2 0 1.6-.33 1.66-.5.1.17.68.5 1.21.5.67 0 .6-.54.44-.54h-.27c-.17 0-.23-.44-.23-.77v-1.97ZM27 28v-.5l-.68.24c-.5.16-.65.33-.65.65 0 .33.32.44.65.44.52 0 .68-.5.68-.83Zm10-2.56c0 .06.2.36.43.36v2.76c0 .33.52.98 1.3.98.79 0 1.64-.44 1.96-.65 0 .21.07.65.33.65.33 0 .98 0 .98-.65 0-.4-.19-.4-.41-.4l-.09.01V25c-.49 0-1.99.05-1.99.44 0 .37.28.36.45.36H40V28c0 .22 0 .56-.61.56-.22 0-.39-.04-.39-.56v-3c-.61 0-2 0-2 .44Zm5.98-.44c-.33 0-.98.22-.98.5 0 .37.3.36.46.36h.04v3.06c-.16 0-.17.03-.17.3 0 .32.16.32.98.32.81 0 .98 0 .98-.33 0-.26-.18-.32-.3-.32v-2.25c0-.16 0-.64.51-.64.5 0 .64.38.75.67.07.18.12.33.25.33.33 0 .75-.2.75-1.02 0-.82-.66-.98-1.15-.98-.49 0-1.3.16-1.47.66V25h-.65Z" fill="#F52C3F"/><path d="M19.77 24c.84-5.64 6.16-10.02 12.67-10.2a15.8 15.8 0 0 0-.44-.01c-6.7 0-12.25 4.44-13.11 10.21H18c.87-6.2 6.8-11 14-11s13.13 4.8 14 11c-.83-4.02-5.72-7.07-10.47-7.07-4.76 0-8.71 3.05-9.54 7.07h-.9c.82-4.33 4.95-7.66 10-7.85a12.7 12.7 0 0 0-.38 0h-.06c-5.25 0-9.6 3.4-10.44 7.85h-.9c.83-4.77 5.36-8.45 10.9-8.64a12.73 12.73 0 0 0-.45 0c-5.73 0-10.48 3.74-11.33 8.64h-.89c.84-5.2 5.76-9.23 11.78-9.42a15.63 15.63 0 0 0-.44 0c-6.22 0-11.36 4.09-12.22 9.42h-.89ZM38.17 31c-.88 6.15-6.39 10.93-13.13 11.14a14.63 14.63 0 0 0 .46 0c6.95 0 12.69-4.85 13.58-11.14H40c-.9 6.77-7.05 12-14.5 12S11.9 37.77 11 31c.86 4.39 5.92 7.71 10.85 7.71 4.92 0 9.02-3.32 9.88-7.71h.93c-.85 4.73-5.13 8.36-10.36 8.56a11.65 11.65 0 0 0 .4.01h.06c5.43 0 9.94-3.7 10.8-8.57h.93c-.85 5.2-5.54 9.22-11.27 9.42a12.85 12.85 0 0 0 .45 0c5.94 0 10.86-4.08 11.74-9.42h.92c-.86 5.68-5.96 10.07-12.2 10.28a15.5 15.5 0 0 0 .46 0c6.44 0 11.77-4.46 12.65-10.28h.93Z" fill="#2F416F"/></svg>