<!-- by TradingView --><svg width="56" height="56" viewBox="0 0 56 56" xmlns="http://www.w3.org/2000/svg"><path fill="#F0F3FA" d="M0 0h56v56H0z"/><path fill-rule="evenodd" d="M8 29.88V34l.09.05c1.63.8 4 1.96 5.91 1.96 2.44 0 6-1.1 6-5 0-2-1.89-3.27-4-4.5-.3-.18-.64-.36-.98-.54C14 25.41 13 24.88 13 24.5c0-.5.63-.5.99-.5H14c.83 0 2.32.67 3 1l4 2v1.3c0 2.35 1.15 7.7 7 7.7 3.32 0 4.54-.62 6-2.5 2 1 5.22 2.5 7.66 2.5 3.41 0 6.34-1 6.34-5 0-1.88-.49-3-4.39-4.41-2.35-.85-2.83-1.62-2.61-2.09.15-.31.61-.5 1-.5 1 0 4.21 1.16 6 2v-4c-2.5-1.5-3.56-2-6-2-1.95 0-6 .24-6 4 0 3.01 3.21 4.78 5 5.41.49.16 2 .84 2 1.59 0 .94-1.34 1.22-2 1a72.64 72.64 0 0 1-6-2.59V28c0-2.67-1.15-8-7-8-2.52 0-4.83 1.12-6 3-1.79-1.1-5.44-3-8.2-3-3.33 0-5.8 1.76-5.8 4.5 0 2.67 3.5 4.3 4.76 4.89l.24.11c.26.12.52.21.76.3.68.23 1.24.43 1.24 1.2 0 .7-.5 1-1 1l-6-2.12ZM28 24c-1.67 0-2 2.5-2 3.5v1c0 1.5.4 3.5 2 3.5s2-2.5 2-3.5v-1c0-1-.33-3.5-2-3.5Z" fill="#962123"/></svg>