<!-- by TradingView --><svg width="56" height="56" viewBox="0 0 56 56" xmlns="http://www.w3.org/2000/svg"><path fill="#F0F3FA" d="M0 0h56v56H0z"/><path d="M26.19 19.4c.35 0 .56-.5.25-.66a7.22 7.22 0 0 0-3.23-.74C19.74 18 17 20.5 17 23.59c0 3.08 2.74 5.42 6.21 5.41 3.82 0 8.58-1.86 9.33-2 3.81-.7 7.25 1.71 7.25 6s-3.66 7.59-8.3 7.59c-.2 0-.27.24-.1.32 1.4.7 3 1.09 4.69 1.09 5.48 0 9.92-3.93 9.92-9s-4.44-9-9.92-9c-3.86 0-6.17 3.5-9.76 3.5-2.53 0-4.66-1.66-4.66-4s2-4.1 4.53-4.1Z" fill="url(#a1vc55hyd)"/><path d="M29.83 37.65c-.36 0-.58.45-.27.6.92.48 2 .75 3.15.75 3.48 0 6.3-2.5 6.29-5.59 0-3.08-2.81-5.42-6.29-5.41-3.81 0-8.22 1.84-9.25 2-3.1.5-7.25-1.71-7.25-6s3.66-7.59 8.3-7.59c.2 0 .27-.24.1-.32-1.4-.7-3-1.09-4.69-1.09-5.48 0-9.92 3.93-9.92 9s4.36 9 9.84 9c4.58.05 6.25-3.5 9.84-3.5 2.53 0 4.66 1.57 4.66 3.91s-1.98 4.24-4.51 4.24Z" fill="url(#b1vc55hyd)"/><defs><linearGradient id="a1vc55hyd" x1="18.52" y1="20.82" x2="42.77" y2="35.12" gradientUnits="userSpaceOnUse"><stop stop-color="#264535"/><stop offset=".37" stop-color="#546153"/><stop offset=".72" stop-color="#896F4E"/></linearGradient><linearGradient id="b1vc55hyd" x1="10" y1="24.18" x2="38.36" y2="36.28" gradientUnits="userSpaceOnUse"><stop stop-color="#264535"/><stop offset=".51" stop-color="#888070"/><stop offset="1" stop-color="#896F4E"/></linearGradient></defs></svg>