<!-- by TradingView --><svg width="56" height="56" viewBox="0 0 56 56" xmlns="http://www.w3.org/2000/svg"><path fill="#F0F3FA" d="M0 0h56v56H0z"/><path d="M16.87 18a.2.2 0 0 1 .08.02c.02.02.02.03 0 .03a8.81 8.81 0 0 0-6.7 4.23 7.8 7.8 0 0 0-.46 7.22 8.06 8.06 0 0 0 4.86 4.13 8.8 8.8 0 0 1-2.97-.91c-5.34-2.73-4.78-10.39-.14-13.45A7.87 7.87 0 0 1 15.16 18h1.7Z" fill="#A0D9F6"/><path d="M20.99 21.84a5.8 5.8 0 0 0-2.94-1.82 6.08 6.08 0 0 0-6.33 2.3c-1.37 1.86-1.49 4.27-.8 6.43.02.08.01.08-.03 0a6.88 6.88 0 0 1-.42-5.78c1.4-3.53 5.63-5.22 8.84-2.86A7.19 7.19 0 0 1 21 21.84Z" fill="#A0D9F6"/><path d="M9.32 20.23c.07-.05.07-.05.01.01-2.43 2.6-2.62 6.53-1.33 9.7a9.08 9.08 0 0 0 4.89 5.1c3.11 1.27 6.53.37 9.33-1.24.06-.04.07-.03.02.02-2.25 2.15-5.16 3.57-8.31 3.08a9.44 9.44 0 0 1-6.7-4.93c-2.19-4.04-1.44-8.77 2.1-11.74ZM42.67 26.48c-.34.02-.63.15-.85.42a5.92 5.92 0 0 0-1.95-2.56c-2.43-1.85-5.5-1.07-7.8.53-.05.03-.06.03-.02-.02a8.53 8.53 0 0 1 2.67-2.02c3.26-1.56 6.9.24 7.97 3.63a.02.02 0 0 1-.02.02Z" fill="#A0D9F6"/><path d="M20.05 26.76v.01a.03.03 0 0 0 .01.02h.01c.28-.02.7.06.72.41 0 .23-.4.7-.53.83a.96.96 0 0 1-.41.26l-.27.07a.05.05 0 0 0-.04.03l-.48 1.33c-.14.34-.26.63-.56.84-.36.24-1 .55-1.42.38-.4-.17-.3-.64-.2-1a16.55 16.55 0 0 1 .47-1.59.03.03 0 0 0-.03-.01h-1.99a.06.06 0 0 0-.02.04c-.19.7-.34 1.28-.58 1.87-.09.21-.2.37-.34.48-.4.32-1.14.38-1.55.03-.32-.28-.16-.76-.05-1.18.1-.37.2-.7.32-1l-.01-.04-.15-.06c-.3-.1-.3-.36-.2-.63.15-.42.43-.73.8-.93a.07.07 0 0 0 .05-.05c.33-1.08.64-2.12 1.06-3.06.07-.15.18-.32.32-.5.46-.54 1.77-.38 1.74.51a4 4 0 0 1-.19.77 69.5 69.5 0 0 1-.7 2.24l2.05-.04h.01l.01-.02c.22-.78.48-1.58.8-2.4.14-.4.32-.72.52-.98.27-.36.82-.43 1.24-.31.46.13.53.56.47.98-.05.3-.12.58-.2.87-.18.56-.4 1.17-.68 1.83Z" fill="#E62129"/><path d="M45.86 29.66c0 .03 0 .05.04.04.45-.06 1.02-.16 1.7-.3.09-.01.17 0 .24.01.03.02.06.04.07.07.02.02.03.06.02.1-.01.11-.06.24-.14.37-.2.36-.54.82-.94.94-.2.05-.46.09-.75.1h-1.26c-.21-.01-.47-.01-.64-.09-.35-.15-.36-.52-.31-.86.07-.45.16-.92.27-1.39.36-1.5.76-2.9 1.21-4.21.21-.6.41-1.17 1.04-1.33.43-.11.84-.14 1.23-.08.38.05.4.38.32.7-.27 1.11-.65 1.93-1.27 3.48a21.5 21.5 0 0 0-.83 2.45ZM27.95 27.87c.1.24.22.47.37.7a3.42 3.42 0 0 0 1.26 1.58v.04c-.07.14-.4.32-.55.38-.75.32-1.38-.18-1.66-.86l-.36-.74a76.8 76.8 0 0 1-1.1-2.45.81.81 0 0 0-.37-.4l-.01-.02a.05.05 0 0 1 0-.05c.04-.04.1-.08.16-.1.4-.13.92-.21 1.25.05.1.09.21.22.32.39.29.46.52.95.7 1.48Z" fill="#0F59A0"/><path d="M28.32 28.57a3.44 3.44 0 0 1-.37-.7c.34-.42.6-.93.89-1.3.25-.33.57-.5.97-.5.12 0 .16.13.12.24a2.4 2.4 0 0 1-.27.48c-.43.6-.88 1.2-1.34 1.78Z" fill="#A0D9F6"/><path d="M41.53 29.33c-.38.7-1.07 1.9-2 1.63-.63-.19-.64-.9-.55-1.46.16-1 .43-1.95.82-2.88.14-.34.2-.5.54-.57.44-.1 1.07-.14.77.61-.33.8-.57 1.64-.74 2.5-.03.14-.06.25-.04.39a.07.07 0 0 0 .04.05.06.06 0 0 0 .06 0c.1-.1.19-.19.27-.3.51-.69.97-1.42 1.36-2.18.15-.29.36-.44.63-.44.24 0 .39.1.35.38-.1.8-.15 1.64-.07 2.44.04.32.13.73.18 1.02.03.14 0 .25-.13.3-.28.12-.62.25-.87.08-.5-.34-.53-1-.58-1.56 0-.04-.02-.04-.04 0ZM32.3 26.61a.8.8 0 0 0-.16.22c-.14.4-.05.74.26 1.04.56.54 1.1 1 .88 1.87-.09.35-.28.65-.56.9-.44.38-.94.46-1.49.24-.34-.14-1.05-.6-1.03-1.04.01-.3.48-.55.72-.6.19-.04.3.04.36.22.1.34.17.71.41.85.28.16.45-.1.45-.35 0-.54-.38-.86-.82-1.24a3.6 3.6 0 0 1-.38-.42c-.48-.6-.27-1.4.29-1.85.4-.33.86-.48 1.38-.45 1.26.08 1.2 1.3.34 1.87a.3.3 0 0 1-.17.06.1.1 0 0 1-.1-.1c.05-.45.07-.8-.2-1.2a.12.12 0 0 0-.09-.05.12.12 0 0 0-.1.03ZM22.36 28.35a.01.01 0 0 0 .01.01h1.86c.1 0 .18.02.24.06a.13.13 0 0 1 .06.08.15.15 0 0 1-.02.11c-.2.34-.57.73-.98.73h-1.2c-.02 0-.04 0-.04.03 0 .28.13.66.41.74.07.03.2 0 .35-.05a7.1 7.1 0 0 0 1.51-.77c.06-.04.1-.02.12.04.02.1-.01.23-.03.32-.05.22-.14.42-.28.6-.04.05-.17.13-.4.25-.5.26-1.29.58-1.84.48-1.03-.18-1.65-.98-1.33-2.1a4.29 4.29 0 0 1 2.45-2.78c.5-.18.94-.12 1.3.2.47.41.23 1.17-.19 1.5-.28.23-.58.36-.9.4-.1.02-.18.01-.23-.02a.1.1 0 0 1-.05-.07.1.1 0 0 1 .03-.08c.3-.32.5-.74.6-1.26v-.2a.09.09 0 0 0-.05-.05.08.08 0 0 0-.07 0c-.2.08-.4.27-.58.44-.39.39-.64.85-.75 1.39Z" fill="#0F59A0"/><path d="M35.6 30.98c-1.63-.85-1.79-3.19-.35-4.3a2.92 2.92 0 0 1 1.89-.6v-.03c-1.3-.23-2.5.34-3.04 1.6-.63 1.43.12 2.82 1.49 3.34.05.02.05.01 0-.01Zm2.26-1.56c-.46.6-1.16.84-1.9.65-.03-.01-.03 0 0 0 .9.41 1.89.12 2.32-.8a2.02 2.02 0 0 0-.72-2.55v.02c.72.71.94 1.82.3 2.68Zm-1.61.1c.82-.21 1.07-1.27.53-1.9a1.36 1.36 0 0 0-.6-.41l-.01-.02h.01c.39.06.68.25.88.58.47.75.05 1.67-.8 1.77-.09 0-.09 0-.01-.02Zm.2-.39h-.01c-.83-.2-.94-1.2-.22-1.65v-.02h-.01c-.87.36-.76 1.7.24 1.68Z" fill="#E62129"/><path d="m27 28.97.37.74c-.44.48-.9.93-1.37 1.34-.17.14-.34.26-.52.36-.3.18-.45-.06-.43-.33a1 1 0 0 1 .43-.84A7.56 7.56 0 0 0 27 28.97Z" fill="#A0D9F6"/><path d="M19.83 30.76v.02h.37l.01.01c-.08.22-.24.32-.48.3-.1 0-.19-.03-.26-.08l-.02-.02v-.02a.06.06 0 0 1 .01-.05c.14-.16.57-.64.38-.9a.04.04 0 0 0-.08.02.62.62 0 0 0-.02.35c.01.02 0 .03-.02.02-.44-.07-.09-.78.35-.55.4.2-.08.72-.24.9Z" fill="#E62129"/><path d="M40 31.63c.4-.07.72-.27 1-.55.04-.03.05-.03.03.01-.89 2.32-3.26 3.02-5.43 2.04-.08-.03-.08-.04 0-.02 1.65.4 3.34-.03 4.36-1.45a.07.07 0 0 1 .05-.03Z" fill="#A0D9F6"/></svg>