<!-- by TradingView --><svg width="56" height="56" viewBox="0 0 56 56" xmlns="http://www.w3.org/2000/svg"><path fill="#F0F3FA" d="M0 0h56v56H0z"/><path d="M40 12H16v23l18.78-9.5L40 35V12Z" fill="url(#ac3nxmgis)"/><path d="M33.74 28 16 37.5V44h24v-5.5L33.74 28Z" fill="#01265A"/><path d="m28 31-12 6v7h24v-2.28c-3.13-3.33-9.5-10.1-9.91-10.5-.42-.4-1.57-.39-2.09-.22Z" fill="url(#bc3nxmgis)"/><path d="m40 43-11.48-8a4.08 4.08 0 0 0 1.58-3.91L40 41.5V43Z" fill="#01A252"/><defs><linearGradient id="ac3nxmgis" x1="28" y1="12" x2="28" y2="35" gradientUnits="userSpaceOnUse"><stop stop-color="#016AAB"/><stop offset="1" stop-color="#00335D"/></linearGradient><linearGradient id="bc3nxmgis" x1="40" y1="42.22" x2="16" y2="42.77" gradientUnits="userSpaceOnUse"><stop stop-color="#F1D420"/><stop offset="1" stop-color="#98BC34"/></linearGradient></defs></svg>