<!-- by TradingView --><svg width="56" height="56" viewBox="0 0 56 56" xmlns="http://www.w3.org/2000/svg"><path fill="#EF5821" d="M0 0h56v56H0z"/><path d="m39.14 17.11-.66.17c-1.67.4-3.61.98-5.84 1.77-1.8.64-3.28 1.64-4.45 3.01-.46.54-1.43 1.73-2.89 3.55a8.62 8.62 0 0 1-3.44 2.6 167.74 167.74 0 0 1-7.64 2.97 11.1 11.1 0 0 0-2.82.43v-.02l.02-.01c3.18-1.11 6.3-2.3 9.39-3.59 1.14-.47 1.93-.87 2.35-1.18.74-.55 1.38-1.17 1.94-1.86 1.03-1.27 1.8-2.22 2.28-2.84a10.5 10.5 0 0 1 4.53-3.4c3.05-1.18 6.76-2.06 9.41-2.7l.05-.01.04.01c.02 0 .02.02.03.03v.1l-.02.04-.04.02-2.37.76c-.09.03-.09.06 0 .1l.13.05Z" fill="#FE9901"/><path d="M14.22 31.18c2.53-.9 5.07-1.9 7.64-2.97a8.61 8.61 0 0 0 3.44-2.6c1.46-1.82 2.43-3 2.9-3.55a10.26 10.26 0 0 1 4.44-3 56.94 56.94 0 0 1 6.5-1.95l3.02-.77.08.01c.03.01.05.03.07.06l.03.06-6.84 2.38c-1.1.39-1.98.71-2.64.97a9.8 9.8 0 0 0-4.2 3.15l-2.42 3.11c-1.17 1.48-2.4 2.08-4.33 2.97-3.2 1.48-6.67 2.36-10.36 3.15h-.01l-.02-.06.01-.02c.91-.27 1.81-.58 2.7-.94Z" fill="#fff"/><path d="M40.11 21.09c-1.2.28-3.2.87-5.99 1.77a11.38 11.38 0 0 0-5.76 3.92c-.7.93-1.44 1.85-2.2 2.74a9.76 9.76 0 0 1-2.47 2.19c-.4.24-1.4.67-2.97 1.31-1.8.73-3.6 1.43-5.42 2.12l-.18-.1a.2.2 0 0 0-.14-.01l-2.42.6h-.02a.02.02 0 0 1 0-.03l.03-.08a.09.09 0 0 1 .06-.06c2.72-.95 5.41-1.97 8.08-3.07 1.66-.68 2.55-.99 3.64-1.87a12.7 12.7 0 0 0 1.8-1.9l2.12-2.6a10.48 10.48 0 0 1 4.57-3.32 75.3 75.3 0 0 1 9.6-2.72c.04-.01.06 0 .05.05v.04a9.83 9.83 0 0 0-2.37 1.01Z" fill="#FE9901"/><path d="M15.3 35.14c1.82-.69 3.62-1.4 5.42-2.12a29.31 29.31 0 0 0 2.97-1.31 9.76 9.76 0 0 0 2.48-2.19c.75-.9 1.48-1.81 2.2-2.74a11.38 11.38 0 0 1 5.75-3.92c2.8-.9 4.8-1.49 6-1.77l3.22-.77h.03l.06.02c.03.02.03.03 0 .04a831.96 831.96 0 0 1-8.53 3c-2.08.71-4.03 1.74-5.38 3.5-1.12 1.45-2.15 2.82-2.9 3.7-.6.68-1.43 1.3-2.51 1.83a38.12 38.12 0 0 1-7.7 2.86 139.94 139.94 0 0 1-4.19 1v-.04c-.01-.02 0-.04.02-.05l3.06-1.04Z" fill="#fff"/><path d="M41.33 24.91a55.22 55.22 0 0 0-6.43 1.93c-2.07.76-3.5 1.96-4.94 3.74l-1.82 2.26a9.7 9.7 0 0 1-3.8 3.08 195.8 195.8 0 0 1-7.59 2.98l-.27-.09a.26.26 0 0 0-.15 0l-2.77.69c-.04 0-.05 0-.03-.04l.02-.06c0-.02.02-.02.03-.02.13.02.24 0 .34-.06l.3-.15c1.97-.66 4.69-1.68 8.13-3.06 1.8-.72 3-1.24 4.32-2.46.36-.32 1.4-1.6 3.12-3.81.75-.96 1.67-1.8 2.77-2.5.69-.45 1.76-.92 3.2-1.4a67.26 67.26 0 0 1 8.35-2.23v.04c0 .01 0 .02-.02.03-.87.34-1.74.66-2.63.94-.22.07-.27.13-.13.2Z" fill="#FE9901"/><path d="M16.76 38.9c2.54-.94 5.08-1.93 7.59-2.98a9.7 9.7 0 0 0 3.8-3.08l1.8-2.26a10.92 10.92 0 0 1 4.95-3.74c2.1-.77 4.25-1.42 6.43-1.93l3.65-.89.02.06c0 .02 0 .04-.03.05a911.89 911.89 0 0 1-7.87 2.74c-1.72.6-3.51 1.33-4.88 2.57-.38.34-.93.98-1.65 1.93a90.2 90.2 0 0 1-2.27 2.88c-.9 1.08-1.9 1.56-3.37 2.26-1.98.94-4.1 1.72-6.37 2.33-1.57.41-3.14.8-4.73 1.15-.17.03-.2-.01-.08-.14.02-.02.08-.02.19 0 .12.01.23 0 .32-.05l.28-.14c.74-.22 1.48-.47 2.22-.75ZM11.02 32.25a.13.13 0 0 1 .09-.02.04.04 0 0 1 .03.02.04.04 0 0 1 0 .04c-.01.04-.05.06-.1.04a.04.04 0 0 1-.04-.03.05.05 0 0 1 .02-.05Z" fill="#fff"/></svg>