<!-- by TradingView --><svg width="56" height="56" viewBox="0 0 56 56" xmlns="http://www.w3.org/2000/svg"><path fill="#F0F3FA" d="M0 0h56v56H0z"/><path d="m37.39 43-.2-.02L33 39.2 28.78 43H24l9-8 9 8h-4.61Z" fill="#B1B3B9"/><path d="M43 20.5 34 13v4l9 7.5v-4Z" fill="url(#a31wh4i4h)"/><path d="M43 20.5 39 24v4l4-3.5v-4Z" fill="url(#b31wh4i4h)"/><path d="M35 19.5v4L31 27v-4l4-3.5Z" fill="url(#c31wh4i4h)"/><path d="M42 32v4l-11-9v-4l11 9Z" fill="url(#d31wh4i4h)"/><path d="m34 13-10 9v4l10-9v-4Z" fill="url(#e31wh4i4h)"/><path d="m32 30-8-8v4l8 8v-4Z" fill="url(#f31wh4i4h)"/><path d="m32 30-10 9v4l10-9v-4Z" fill="url(#g31wh4i4h)"/><path d="m17 28-4 3.5V35l4-3.5V28Z" fill="url(#h31wh4i4h)"/><path d="M26.44 13h-.2L22 16.86 17.65 13H13l8.96 8L31 13h-4.56Z" fill="#B1B3B9"/><path d="M13 22.5V19l11 10v3.5l-11-10Z" fill="url(#i31wh4i4h)"/><path d="M20 36v-3.5l4-3.5v3.5L20 36Z" fill="url(#j31wh4i4h)"/><path d="M13 35.5v-4l9 7.5v4l-9-7.5Z" fill="url(#k31wh4i4h)"/><defs><linearGradient id="a31wh4i4h" x1="34" y1="15" x2="43" y2="22.5" gradientUnits="userSpaceOnUse"><stop stop-color="#2B2D49"/><stop offset="1" stop-color="#7197BD"/></linearGradient><linearGradient id="b31wh4i4h" x1="39" y1="21.3" x2="44.12" y2="24.21" gradientUnits="userSpaceOnUse"><stop stop-color="#2B2D49"/><stop offset="1" stop-color="#7197BD"/></linearGradient><linearGradient id="c31wh4i4h" x1="30.5" y1="24.5" x2="35" y2="21" gradientUnits="userSpaceOnUse"><stop stop-color="#475C7C"/><stop offset="1" stop-color="#262E48"/></linearGradient><linearGradient id="d31wh4i4h" x1="42" y1="34.5" x2="31" y2="24.5" gradientUnits="userSpaceOnUse"><stop stop-color="#6C8FB3"/><stop offset="1" stop-color="#343756"/></linearGradient><linearGradient id="e31wh4i4h" x1="24" y1="15.26" x2="34.14" y2="23.57" gradientUnits="userSpaceOnUse"><stop stop-color="#2B2D49"/><stop offset="1" stop-color="#7197BD"/></linearGradient><linearGradient id="f31wh4i4h" x1="24" y1="24.09" x2="33.01" y2="30.49" gradientUnits="userSpaceOnUse"><stop stop-color="#2B2D49"/><stop offset="1" stop-color="#7197BD"/></linearGradient><linearGradient id="g31wh4i4h" x1="22" y1="32.26" x2="32.14" y2="40.57" gradientUnits="userSpaceOnUse"><stop stop-color="#2B2D49"/><stop offset="1" stop-color="#7197BD"/></linearGradient><linearGradient id="h31wh4i4h" x1="17" y1="29.5" x2="13" y2="33.5" gradientUnits="userSpaceOnUse"><stop stop-color="#4B6183"/><stop offset="1" stop-color="#252E4C"/></linearGradient><linearGradient id="i31wh4i4h" x1="13" y1="21" x2="24" y2="31" gradientUnits="userSpaceOnUse"><stop stop-color="#6C8FB3"/><stop offset="1" stop-color="#343756"/></linearGradient><linearGradient id="j31wh4i4h" x1="24.5" y1="31" x2="20" y2="34.5" gradientUnits="userSpaceOnUse"><stop stop-color="#475C7C"/><stop offset="1" stop-color="#262E48"/></linearGradient><linearGradient id="k31wh4i4h" x1="13" y1="33.91" x2="21.67" y2="41.47" gradientUnits="userSpaceOnUse"><stop stop-color="#2B2D49"/><stop offset="1" stop-color="#7197BD"/></linearGradient></defs></svg>