<!-- by TradingView --><svg width="56" height="56" viewBox="0 0 56 56" xmlns="http://www.w3.org/2000/svg"><path fill="#F0F3FA" d="M0 0h56v56H0z"/><path d="M35.5 24h-7l-.5 3h.5l1-2h1l-1 6-1 .5v.5h4v-.5L32 31l1-6h1l.5 2h.5l.5-3ZM20.5 24h-4v1c.5 0 .62.4.5 1-.33 1.67-.5 3-1 4.5-.16.47-.5.5-1 .5v1h4v-1c-.4 0-.5-.33-.5-.5.33-1.5.5-3 1-5 .1-.39.67-.5 1-.5v-1ZM25.5 24h-4v1c.4 0 .5.33.5.5-.5 3.5-1 5.5-1 5.5s0 .5-1 .5v.5h6l1-3h-1c-.33.67-.5 2-1.5 2-.5 0-.5-.67-.5-1 .17-1.17.5-4.5.5-4.5s0-.5 1-.5v-1ZM9 24H5v1c.4 0 .5.33.5.5l1 6.5h1L9 29.5l.5 2.5H11l3.5-7h.5v-1h-2.5v1s.5 0 .5.5-1.5 2-1.5 2V24h-1L9 27.5c-.17-.5-.5-1.6-.5-2 0-.4.33-.5.5-.5v-1ZM40.5 24c1 0 3 .6 3 3 0 3-2 5-4.5 5s-3-2-3-3.5c0-1.28 1.5-4.5 4.5-4.5Zm-1 2-1 4s-.33 1 .5 1c.83 0 1-1 1-1l1-4s.36-1-.5-1-1 1-1 1ZM48 24h-3.5v1l.5.5-1 5.5-1 .5v.5h2.5v-.5l-1-.5 1-4.5L48 32h2l1-7 .5-.5V24h-2v.5l.5.5-.5 3-1.5-4Z" fill="#E41E26"/><path fill="url(#ah0pbqdek)" d="M6 33h44v1H6z"/><defs><linearGradient id="ah0pbqdek" x1="6" y1="33.5" x2="50" y2="33.5" gradientUnits="userSpaceOnUse"><stop stop-color="#BD9732"/><stop offset=".3" stop-color="#F7C505"/><stop offset=".59" stop-color="#BF9930"/><stop offset=".76" stop-color="#EDBD0E"/><stop offset="1" stop-color="#BD9732"/></linearGradient></defs></svg>