<!-- by TradingView --><svg width="56" height="56" viewBox="0 0 56 56" xmlns="http://www.w3.org/2000/svg"><path fill="#F0F3FA" d="M0 0h56v56H0z"/><path d="M13.6 24.3c6.88 0 12.34 3.48 14.44 5.72-2.05-1.56-5.26-1.24-5.26.44 0 4.14 10.33 7.3 16.07 8.41C14.75 38.88 9 28.31 9 26.55c0-2.25 2.58-2.25 4.6-2.25Z" fill="#0068A7"/><path d="M28.15 30.02c.86-2.08 4.38-3.94 5.12-2.46C35.12 31.27 27 38.53 22.39 42 43.9 31.66 44.6 19.72 43.8 18.13c-1-2-3.31-.9-5.1-.04-6.08 2.92-9.64 8.98-10.56 11.93Z" fill="#289755"/></svg>