<!-- by TradingView --><svg width="56" height="56" viewBox="0 0 56 56" fill="none" xmlns="http://www.w3.org/2000/svg">
<rect width="56" height="56" fill="#F0F3FA"/>
<path fill-rule="evenodd" clip-rule="evenodd" d="M25.2842 12C25.2842 12 24.9317 12.1023 24.3436 12.3254C25.6829 13.5555 26.3625 14.9874 26.9087 16.1381C27.0802 16.4995 27.2385 16.8331 27.4 17.124C27.3869 17.0648 27.3739 17.0058 27.361 16.9471C26.9131 14.9156 26.5421 13.233 25.2842 12ZM27.0579 18.7095C27.1797 18.8927 27.2932 19.0635 27.4 19.2188C26.4957 16.0139 24.7256 14.2054 23.0357 12.8708C22.6343 13.0528 22.1946 13.2656 21.7296 13.5114C24.5734 14.9711 26.0813 17.24 27.0579 18.7095ZM27.5 21.6357C25.9625 17.6719 22.9059 15.4128 20.3288 14.3143C19.9168 14.5699 19.4964 14.8491 19.0748 15.153C22.0373 16.2701 25.1842 18.542 27.5 21.6357ZM28 24.4072C26.0938 19.4443 21.1049 17.2606 17.8812 16.0832C17.4643 16.4347 17.0531 16.812 16.655 17.2163C20.862 18.4051 25.2842 20.9912 28 24.4072ZM28 26.4483C25.2166 21.6081 19.3337 19.3456 15.6355 18.3513C15.3469 18.705 15.0701 19.1496 14.8087 19.5696C14.7375 19.684 14.6675 19.7966 14.5987 19.9049C19.7636 20.7574 24.4118 23.3555 28 26.9316L28 26.4483ZM28 26.4483L28 26.9316C31.5882 23.3555 36.2364 20.7574 41.4013 19.9049C41.3325 19.7966 41.2625 19.684 41.1913 19.5696C40.9299 19.1496 40.6531 18.705 40.3645 18.3513C36.6663 19.3456 30.7834 21.6081 28 26.4483ZM28 29.4844C24.9093 23.7253 17.9271 21.8061 13.8899 20.9087C13.6632 21.3633 13.4581 21.9971 13.2787 22.5516C13.2377 22.6784 13.198 22.801 13.1597 22.9164C19.0748 23.5285 24.3436 26.1558 28 29.943L28 29.4844ZM28 32.3594C23.8677 26.0312 16.5374 24.8737 12.571 24.358C12.3431 24.924 12.2395 25.4572 12.1715 26.461C19.0539 26.461 24.4706 29.0938 28 32.9544L28 32.3594ZM28 35.2344C24.3732 28.8117 16.0243 28.0393 12 27.8072V29.5725C18.0822 29.9929 22.7353 30.4865 28 35.7564L28 35.2344ZM12.5049 31.0221C12.3898 31.0145 12.2786 31.0072 12.1715 31C12.2087 31.3433 12.3022 31.9474 12.3685 32.3749C12.3851 32.4821 12.3999 32.5781 12.4118 32.6562C18.3358 32.9072 23.9686 34.1387 28 38.4753L27.9999 37.9531C24.2941 31.7964 16.3047 31.2716 12.5049 31.0221ZM27.9999 40.875C25.0837 34.9946 16.497 34.2653 12.6566 34C12.75 34.5731 12.9265 35.25 13.1177 35.7564C18.4737 36.0048 24.5028 37.3208 28 41.4867L27.9999 40.875ZM28 43.9962C25.1339 39.0107 19 37.8151 13.5883 37.125C14.156 38.3987 14.7446 39.1245 14.7446 39.1245C18.7398 39.6154 25.9118 40.5642 28 45V43.9962ZM30.7158 12C30.7158 12 31.0683 12.1023 31.6564 12.3254C30.3171 13.5555 29.6375 14.9874 29.0913 16.1381C28.9198 16.4995 28.7615 16.8331 28.6 17.124C28.6131 17.0648 28.6261 17.0058 28.639 16.9471C29.0869 14.9156 29.4579 13.233 30.7158 12ZM28.9421 18.7095C28.8203 18.8927 28.7068 19.0635 28.6 19.2188C29.5043 16.0139 31.2744 14.2054 32.9643 12.8708C33.3657 13.0528 33.8054 13.2656 34.2704 13.5114C31.4266 14.9711 29.9187 17.24 28.9421 18.7095ZM28.5 21.6357C30.0375 17.6719 33.0941 15.4128 35.6712 14.3143C36.0832 14.5699 36.5036 14.8491 36.9252 15.153C33.9627 16.2701 30.8158 18.542 28.5 21.6357ZM28 24.4072C29.9062 19.4443 34.8951 17.2606 38.1188 16.0832C38.5357 16.4347 38.9469 16.812 39.345 17.2163C35.138 18.4051 30.7158 20.9912 28 24.4072ZM28 29.4844C31.0907 23.7253 38.0729 21.8061 42.1101 20.9087C42.3368 21.3633 42.5419 21.9971 42.7213 22.5516C42.7623 22.6784 42.802 22.801 42.8403 22.9164C36.9252 23.5285 31.6564 26.1558 28 29.943L28 29.4844ZM28 32.3594C32.1323 26.0312 39.4626 24.8737 43.429 24.358C43.6569 24.924 43.7605 25.4572 43.8285 26.461C36.9461 26.461 31.5294 29.0938 28 32.9544L28 32.3594ZM28 35.2344C31.6268 28.8117 39.9757 28.0393 44 27.8072V29.5725C37.9178 29.9929 33.2647 30.4865 28 35.7564L28 35.2344ZM43.4951 31.0221C43.6102 31.0145 43.7214 31.0072 43.8285 31C43.7913 31.3433 43.6978 31.9473 43.6315 32.3749C43.6149 32.482 43.6001 32.5781 43.5882 32.6562C37.6642 32.9072 32.0314 34.1387 28 38.4753L28.0001 37.9531C31.7059 31.7964 39.6953 31.2716 43.4951 31.0221ZM28.0001 40.875C30.9163 34.9946 39.503 34.2653 43.3434 34C43.25 34.5731 43.0735 35.25 42.8823 35.7564C37.5263 36.0048 31.4972 37.3208 28 41.4867L28.0001 40.875ZM28 43.9962C30.8661 39.0107 37 37.8151 42.4118 37.125C41.844 38.3987 41.2554 39.1245 41.2554 39.1245C37.2602 39.6154 30.0882 40.5642 28 45V43.9962Z" fill="#65AD49"/>
</svg>
