<!-- by TradingView --><svg width="56" height="56" viewBox="0 0 56 56" xmlns="http://www.w3.org/2000/svg"><path fill="#F0F3FA" d="M0 0h56v56H0z"/><path d="M21.4 29.86c0-.8-.9-1.06-1.54-1.26-1.17-.38-2.62-1-2.62-2.43 0-1.52 1.6-2.17 2.9-2.17 1.41 0 2.85.83 2.85 2.4h-1.6c0-.75-.58-1.16-1.29-1.16-.57 0-1.25.26-1.25.93 0 .72 1 1 1.55 1.16 1.24.37 2.6 1.04 2.6 2.51C23 31.4 21.51 32 20.17 32c-1.53 0-3.17-.84-3.17-2.55h1.61c0 .94.7 1.32 1.56 1.32.58 0 1.22-.24 1.22-.91ZM27 27h1v5h-1v-5Zm0 2.5h.36c0 1.5-.55 2.5-1.86 2.5-1.08 0-1.5-1.01-1.5-2v-3h1v3c0 .44 0 1 1 1 .73 0 1-.84 1-1.5ZM30 32h-1v-5h1v5Zm0-2.5h-.33c0-1.09.56-2.5 1.83-2.5 1.09 0 1.5.54 1.5 1.5V32h-1v-3c0-.5.03-1-.5-1-.71 0-1.5.9-1.5 1.5ZM46 32h-1v-5h1v5Zm0-2.5h-.33c0-1.1.54-2.5 1.83-2.5 1.09 0 1.5.9 1.5 1.87V32h-1v-3c0-.5 0-1-.5-1-1 0-1.5.9-1.5 1.5ZM37 30.53c0-.28-.2-.37-1-.53-.76-.17-2-.6-2-1.51 0-1 1.14-1.49 2.02-1.49.93 0 1.97.49 1.97 1.55H37c0-.43-.58-.55-.98-.55-.32 0-1.02.13-1.02.49 0 .92 3 .38 3 2.04 0 1.04-1.09 1.47-1.97 1.47-.94 0-2.03-.55-2.03-1.62h1c.02.48.57.62 1.03.62.33 0 .97-.08.97-.47Z" fill="#EE2127"/><path d="M30.25 24a11 11 0 1 0-.45 9h1.11a12 12 0 1 1 .4-9h-1.06Zm-1.59 9a10 10 0 1 1 .5-9h-.54a9.5 9.5 0 1 0-.54 9h.58Zm-1.73-9a8 8 0 1 0-.68 9h-.66a7.5 7.5 0 1 1 .76-9h.58Zm-3.61 9a6 6 0 1 1 1.15-9h-.7a5.5 5.5 0 1 0-1.48 9h1.03Z" fill="#EE2127"/><path fill-rule="evenodd" d="M41.5 27c-1.45 0-2.5 1.1-2.5 2.55C39 31 40.06 32 41.5 32s2.5-1 2.5-2.45A2.46 2.46 0 0 0 41.5 27Zm0 4a1.5 1.5 0 1 0 0-3 1.5 1.5 0 0 0 0 3Z" fill="#EE2127"/></svg>