<!-- by TradingView --><svg width="56" height="56" viewBox="0 0 56 56" fill="none" xmlns="http://www.w3.org/2000/svg">
<rect width="56" height="56" fill="#F0F3FA"/>
<path d="M33.0545 12.2187C33.0169 12.1915 33.0005 12.1538 33 12.1173C32.9993 12.0595 33.0387 12.0048 33.0977 12.0003C33.1136 11.9991 33.1309 12.0015 33.1493 12.0085C38.0788 13.8887 41.0056 18.7629 40.9992 23.9687C41 27.5359 39.4205 30.9851 38.5504 32.4728C38.3642 32.7911 37.9582 33.0034 37.5859 33C37.4201 32.9984 37.1692 32.9172 37.0391 32.8203C36.5228 32.4359 36.5123 31.8293 36.75 31.375C37.5184 29.9065 39.002 26.7473 39 23.25C38.9975 18.7131 36.6612 14.8233 33.0545 12.2187Z" fill="#356D24"/>
<path d="M42.1922 28.7844C43.6107 22.2051 41.2603 18.754 40.3162 17.2144C40.2516 17.109 40.3226 17 40.4064 17.0036C40.4341 17.0026 40.4633 17.0126 40.4893 17.0369C41.9422 18.3963 45.6246 22.3329 43.8438 30.1563C42.8288 34.6152 39.429 38.362 37.7656 39.75C37.5681 39.9149 37.2151 40.0003 36.9531 40C36.6339 39.9998 36.2943 39.8633 36.1398 39.6027C36.037 39.4293 35.9906 39.2314 35.995 39.0322C36.0021 38.7079 36.1437 38.3805 36.395 38.1504C37.9335 36.7424 41.2382 33.2091 42.1922 28.7844Z" fill="#356D24"/>
<path d="M46.0001 28.0022C46.0001 24.7199 45.321 22.8332 44.6379 21.1888C44.5983 21.0936 44.6538 21.0048 44.7266 21.0045C44.7516 21.0044 44.7787 21.0148 44.8047 21.0391C45.9436 22.1021 48.0001 25.2192 48.0001 29.5651C48.0001 33.911 45.4043 38.1566 41.6563 40.8498C41.5067 40.9573 41.241 41.006 41.0391 41.0045C40.4589 41 40.0054 40.5344 40.0001 39.9585C39.9968 39.6146 40.1413 39.2598 40.3829 39.068C43.9551 36.2307 46.0001 32.8473 46.0001 28.0022Z" fill="#356D24"/>
<path d="M22.949 12.2656C22.9866 12.2384 23.0031 12.2007 23.0035 12.1642C23.0043 12.1063 22.9649 12.0517 22.9059 12.0472C22.89 12.046 22.8726 12.0484 22.8542 12.0554C17.9247 13.9355 14.9979 18.8098 15.0043 24.0156C15.0035 27.5827 16.583 31.032 17.4532 32.5197C17.6394 32.838 18.0453 33.0503 18.4176 33.0468C18.5835 33.0453 18.8344 32.9641 18.9645 32.8672C19.4808 32.4828 19.4913 31.8762 19.2535 31.4219C18.4851 29.9534 17.0016 26.7941 17.0035 23.2969C17.0061 18.76 19.3423 14.8702 22.949 12.2656Z" fill="#356D24"/>
<path d="M13.8115 28.8312C12.393 22.2519 14.7433 18.8008 15.6874 17.2612C15.752 17.1558 15.681 17.0468 15.5973 17.0504C15.5695 17.0494 15.5404 17.0594 15.5143 17.0838C14.0614 18.4431 10.3791 22.3798 12.1599 30.2031C13.1749 34.6621 16.5747 38.4088 18.238 39.7968C18.4355 39.9617 18.7885 40.0471 19.0505 40.0468C19.3697 40.0466 19.7093 39.9101 19.8639 39.6495C19.9667 39.4762 20.0131 39.2782 20.0087 39.079C20.0016 38.7548 19.86 38.4273 19.6087 38.1973C18.0702 36.7892 14.7654 33.2559 13.8115 28.8312Z" fill="#356D24"/>
<path d="M10.0036 28.0469C10.0036 24.7657 10.6826 22.8796 11.3658 21.2356C11.4053 21.1404 11.3499 21.0516 11.2771 21.0514C11.252 21.0513 11.2249 21.0617 11.1989 21.0859C10.06 22.1486 8.00362 25.2648 8.00362 29.6094C8.00362 33.954 10.5994 38.1983 14.3474 40.8907C14.497 40.9981 14.7627 41.0469 14.9646 41.0453C15.5448 41.0408 15.9983 40.5754 16.0036 39.9997C16.0068 39.6559 15.8623 39.3012 15.6208 39.1094C12.0486 36.273 10.0036 32.8906 10.0036 28.0469Z" fill="#356D24"/>
<path fill-rule="evenodd" clip-rule="evenodd" d="M36 32.0805C36 36.7355 33.0159 41 28 41C22.6032 41 20 36.7684 20 32.0805C20 29.4814 21.5675 26.7233 23.1858 23.8756C23.4582 23.3963 23.732 22.9145 24 22.4305C25.3863 19.9271 26.6427 17.6685 27.3827 16.3796C27.5269 16.1285 27.7476 16.0018 28 16C28.2546 15.9982 28.541 16.1234 28.6875 16.3762C28.7809 16.5372 28.8833 16.7134 28.9937 16.9034C29.7664 18.2331 30.9312 20.2373 32.127 22.4305C32.3689 22.8742 32.6146 23.3151 32.8588 23.7534C34.4608 26.6285 36 29.3908 36 32.0805ZM31 33.4322C31 35.2942 29.881 37 28 37C25.9762 37 25 35.3074 25 33.4322C25 32.3926 25.5878 31.2893 26.1947 30.1502C26.2968 29.9585 26.3995 29.7658 26.5 29.5722C27.0198 28.5708 27.5028 27.6674 27.7803 27.1518C27.8328 27.0543 27.9081 27.0037 28 27.0002C28.0981 26.9965 28.2131 27.0465 28.2696 27.1505C28.5496 27.6657 29.0351 28.5696 29.5476 29.5722C29.6383 29.7497 29.7305 29.926 29.822 30.1014C30.4228 31.2514 31 32.3563 31 33.4322Z" fill="#FD671B"/>
</svg>
