<!-- by TradingView --><svg width="56" height="56" viewBox="0 0 56 56" xmlns="http://www.w3.org/2000/svg"><path fill="#F0F3FA" d="M0 0h56v56H0z"/><path d="M21 21h-8c-4.1 0-6.09 2.13-7.07 5H11l1.81-4.54a.2.2 0 0 1 .38 0L15 26h5.4c.19 0 .27.25.11.36l-4.45 3.3 1.31 3.73C21 30.57 21 24.69 21 21Zm-4.56 13L13 31.7l-4.44 2.97a.2.2 0 0 1-.3-.24l1.68-4.78-4.16-3.15C5 29.14 5 32.32 5 35h7c1.83 0 3.28-.37 4.44-1Z" fill="#F6921E"/><path d="M33 22h2v2h1v2h-1v4h2v2h-4V22Zm-9 2h8v2h-6v1h6v5h-8v-2h6v-1h-6v-5Zm21 2h-6v-2h8v8h-9v-5h7v-1Zm0 3h-5v1h5v-1Zm3-5h4v2h-2v6h-2v-8Z" fill="#B2B2A6"/></svg>