<!-- by TradingView --><svg width="56" height="56" viewBox="0 0 56 56" xmlns="http://www.w3.org/2000/svg"><path fill="#F0F3FA" d="M0 0h56v56H0z"/><path d="M15 26.55V12l3 1.64v12.38c0 2.32.52 2.97 1.13 2.98h3.37v3h-3.66C14.99 32 15 28.45 15 26.55ZM23 36.38V21.61l3 1.45V29h5.21c4.09 0 5.81 3.4 6.2 5.3-1.1.97-2.44.72-3.03.52-.04-2.15-2.04-2.7-3.03-2.82H26v3.15c0 3.22 3.13 4.72 4.9 4.72 1.41 0 2.5-.78 2.8-1.04 1.07.39 2.74.22 3.43.09C36.68 40.2 34.59 43 30.3 43c-5.42 0-7.12-4.41-7.3-6.62Z" fill="#444"/><path d="M29 28.5V17l3 1.17V28.5h-3Z" fill="#444"/><path d="M35.49 38.5c-5.58 0-6.41-3.98-6.49-6.05h3.05c.3 2.44 2.14 3.06 3.28 3.05 1.13 0 3.67-.55 3.67-3.5s-2.72-3.51-3.93-3.5h-2.83l.92-3h2.6c2.09.15 6.24 1.14 6.24 6.25 0 5.76-4.34 6.85-6.51 6.75Z" fill="#444"/></svg>