<!-- by TradingView --><svg width="56" height="56" viewBox="0 0 56 56" fill="none" xmlns="http://www.w3.org/2000/svg">
<rect width="56" height="56" fill="#F0F3FA"/>
<path fill-rule="evenodd" clip-rule="evenodd" d="M38.0975 14.6801C38.0975 14.6801 37.234 14 36.0313 14.0038C34.1875 14.0038 33 15.1454 33 16.6256C33 18.4823 35 20.5 35 20.5C35 20.5 32.7385 19 30.7502 19C28.7619 19 28.0057 20.2918 28 21.9375C27.9907 24.6258 32.125 27.0625 32.125 27.0625C35.5628 29.3648 37 32.5625 37 35C37 40.0001 32.875 44 27.2188 44C24.6443 44 22.0453 43.6194 20 42.6867C22.3931 44.0747 25.8424 45 28.2322 45C37.4928 45 45 37.4947 45 28.2366C45 22.665 42.2812 17.7283 38.0975 14.6801Z" fill="#8DC540"/>
<path fill-rule="evenodd" clip-rule="evenodd" d="M17.9025 41.3237C17.9025 41.3237 18.766 42.0038 19.9687 42C21.492 42.01 23 41.3237 23 39.2006C23 37.375 21 35.4375 21 35.4375C21 35.4375 23.25 37 25.1248 37C26.9995 37 27.994 35.7432 28 34C28 31.375 23.875 28.875 23.875 28.875C20.4372 26.5727 19 23.375 19 20.4375C19 15.5625 23.25 12.0038 28.7812 12.0038C31.3557 12.0038 33.9547 12.3844 36 13.3171C33.6069 11.9291 30.1576 11.0038 27.7678 11.0038C18.5072 11.0038 11 18.509 11 27.7672C11 33.3388 13.7188 38.2755 17.9025 41.3237Z" fill="#0C4CA3"/>
</svg>
