<!-- by TradingView --><svg width="56" height="56" viewBox="0 0 56 56" xmlns="http://www.w3.org/2000/svg"><path fill="#F0F3FA" d="M0 0h56v56H0z"/><path d="M21.2 12h13.68L44 21.35v13.4L34.99 44H21.13l-9.12-9.16V21.23l9.2-9.23Z" fill="#FFD64B"/><path d="M21 12h14l9 9v14l-9 9H21l-9-9V21l9-9Zm13.5 1h-13L13 21.5v13l8.5 8.5h13l8.5-8.5v-13L34.5 13Z" fill="#2B2A29"/><path d="M21 30h14v1H21v-1ZM21 32h14v1H21v-1ZM21 34h14v1H21v-1ZM21 40h14v1H21v-1Z" fill="#19DD79"/><path d="M31 17.85v-1.51s-.98-.34-2.63-.34c-1.64 0-3.34.8-3.34 2.12 0 1.31 1.5 1.89 3.68 2.88 2.19 1 2.04 1.72 2.04 2s-.55 1.68-2.44 1.68c-1.9 0-3.1-1.17-3.1-2.19H25v1.85s1.5.66 3.08.66c1.6 0 3.92-.5 3.92-2.4s-2.56-2.54-3.4-2.91c-.85-.38-2.31-1.06-2.31-1.93 0-.86 1.03-1.45 2.13-1.45 1.09 0 1.83.47 1.92.59.08.12.4.91.4.91l.26.04Z" fill="#181B1E"/><path d="M29 17h1v10h3v1h-4V17Z" fill="#181B1E"/><path d="M28 15h-1v9.28s.22 3.15-.96 3.15c-1.08 0-1.1-2.43-1.1-2.43h-.93s-.31 4 2 4c2.3 0 1.97-4.72 1.97-4.72L28 15Z" fill="url(#aoeytw4xy)"/><path d="M27 36h1v2.43h1V39h-2v-3Z" fill="#181B1E"/><path d="M33.02 38h.74l.04.55h.18l.04-.14V36H35v2.36c0 .35-.51.64-.98.64-.08 0-1.02.08-1.02-.57l.02-.43Z" fill="url(#boeytw4xy)"/><path d="M22.28 37.1c.04-.02.72 0 .72 0s.13-1.1-.9-1.1c-1.04 0-1 .7-1 .79 0 .09.25.48.72.92.46.44.46.83.22.83-.26 0-.3-.48-.3-.55H21S20.85 39 22 39c1.15 0 .98-.86.98-.86s-.1-.57-.9-1.04c-.8-.42.3-1.05.2 0Z" fill="#181B1E"/><defs><linearGradient id="aoeytw4xy" x1="26" y1="15" x2="26" y2="29"><stop offset="1" stop-color="#181B1E"/></linearGradient><linearGradient id="boeytw4xy" x1="34" y1="36" x2="34" y2="39"><stop offset="1" stop-color="#181B1E"/></linearGradient></defs></svg>