<!-- by TradingView --><svg width="56" height="56" viewBox="0 0 56 56" xmlns="http://www.w3.org/2000/svg"><path fill="#F0F3FA" d="M0 0h56v56H0z"/><path d="M30.35 20.15c.24.28.53.49.89.63.05.03.08.06.08.12v.12c0 .07-.04.1-.1.08l-2.15-.71c.38-.2.8-.28 1.28-.24Z" fill="#F05323"/><path d="M15.1 21.62a4.2 4.2 0 0 0-.3 2.19c.02.08-.02.14-.1.18l-.1.05c-.07.04-.1.01-.12-.06-.2-1.02-.07-2.5.79-3.28a.1.1 0 0 1 .15.04 6.92 6.92 0 0 1-.33.88Z" fill="#0066AE"/><path d="M37.29 29.66c-2.16.87-3.74 1.36-5.85 1.36a.65.65 0 0 0-.62.43c-.18.5-.14 1.03-.8 1.35-.82.38-1.55.3-2.2-.2-.34-.27-.43-.81-.96-.86a1.91 1.91 0 0 1-1.04-.35 75.96 75.96 0 0 0-2.64-2.1c-.12-.09-.3-.32-.54-.7-1.9-2.96.37-4.85 2.43-6.5.22-.17.6-.34 1.13-.5.48-.14.9-.35 1.29-.65 1.32.41 2.71.78 4.16 1.12 2.58.6 3.83 1.87 5.13 4.2.53.93.7 2.07.5 3.4ZM37.2 21.43c1.11 1.3 2.04 2.7 2.8 4.22.07.14.07.27 0 .4l-.13.21a.18.18 0 0 1-.18.1.18.18 0 0 1-.1-.05.19.19 0 0 1-.05-.1 2.07 2.07 0 0 0-1.14-1.37 4 4 0 0 1-1.1-1.23c-.03-.06-.03-.12.01-.17a.15.15 0 0 1 .08-.05.1.1 0 0 1 .09.02l.77.58a.08.08 0 0 0 .11-.03v-.05a1.8 1.8 0 0 0-.5-.9c-.72-.59-1.28-1.09-1.69-1.48.3-.1.65-.13 1.04-.1Z" fill="#F05323"/><path d="M41.27 27.98c.1.04.2 0 .33-.11.1-.09.16-.07.19.06a8.8 8.8 0 0 1 0 3.86c-.02.03-.03.07-.06.09a.17.17 0 0 1-.18.04.18.18 0 0 1-.08-.07.55.55 0 0 1-.07-.26 28.9 28.9 0 0 1-.07-2.28c0-.76-.35-1.29-.43-2.03-.01-.07.02-.12.08-.14a.13.13 0 0 1 .09 0 .1.1 0 0 1 .06.05c.06.15.07.34.03.56-.03.11.01.19.11.23Z" fill="#0B984C"/><path fill-rule="evenodd" d="M37.86 23.02c-.72-.6-1.28-1.1-1.69-1.5-.47-.27-.94-.57-1.4-.9a7.4 7.4 0 0 0-1.43-.85 7.72 7.72 0 0 0-3.88-.42c-.18.02-.19.08-.03.16.4.2 1.14.39 2.21.56 1.04.17 2.23.62 3.58 1.35.07.03.1.1.1.17v.17a.1.1 0 0 1-.04.08.08.08 0 0 1-.04 0h-.04a10.56 10.56 0 0 0-4.85-1.69c.24.28.53.49.89.63.05.03.08.06.08.12v.12c0 .07-.04.1-.1.08l-2.15-.71c-.26.09-.53.02-.8-.05-.36-.1-.71-.18-1.02.08-.1.08-.1.16-.01.25l.25.27c1.32.41 2.71.78 4.16 1.12 2.58.6 3.83 1.87 5.13 4.2.53.93.7 2.07.5 3.4a8.04 8.04 0 0 1-3.3 5.84l-.87.7c-1.31 1.04-2.28 1.81-3.65 2.22a29.54 29.54 0 0 1-6.06 1.19c-1.13.09-2.51.03-3.88-.03-1.18-.06-2.36-.11-3.35-.06-.66.03-1.18-.1-1.71-.24l-.28-.07a.14.14 0 0 0-.13.03.14.14 0 0 0-.05.11v.16c0 .05.02.1.05.14.03.04.07.07.12.09 1.17.38 3.04.97 4.52.9a15.24 15.24 0 0 1 1.6.03l.07.07a.1.1 0 0 1-.02.14.09.09 0 0 1-.05.02h-3.7c-.27 0-.4.13-.37.4 0 .08.02.13.06.18.08.08.17.15.24.2.08.05.15.07.21.07.73.02 1.35.06 1.86.12.28.03.7.2 1.25.49.78.41 1.72.63 2.82.64 3.95.03 6.96-.06 10.28-1.7.03 0 .05-.03.05-.07v-.11c0-.1-.05-.13-.13-.1-1.39.59-2.5.97-3.36 1.15-2.1.43-4.48.59-7.13.46a7.06 7.06 0 0 1-1.55-.35v-.09c0-.04.02-.06.06-.06 5.75.74 12.2-.55 16.7-4.44.14-.12.31-.2.48-.28.17-.08.34-.16.44-.26a9.22 9.22 0 0 0 2.65-5.59c.02-.15-.04-.32-.17-.51a.44.44 0 0 1-.08-.29c.07-1.31-.04-2.48-.34-3.48a.38.38 0 0 1 .04-.3l.2-.36c.05-.1.06-.2.03-.3a9.68 9.68 0 0 0-3.15-4.98c-.1-.08-.17-.11-.24-.1-.08.02-.16.08-.23.19 1.1 1.3 2.03 2.7 2.8 4.22.06.14.06.27-.02.4l-.12.21a.18.18 0 0 1-.18.1.18.18 0 0 1-.1-.05.19.19 0 0 1-.05-.1 2.07 2.07 0 0 0-1.14-1.37 4 4 0 0 1-1.1-1.23c-.03-.06-.03-.12.01-.17a.15.15 0 0 1 .08-.05.1.1 0 0 1 .09.02l.77.58a.08.08 0 0 0 .09 0l.02-.03v-.05c-.12-.41-.28-.7-.5-.9Zm2.25 10.27c0-.22-.01-.44.05-.66.33-1.13.45-2.47.35-4.04a.14.14 0 0 0-.14-.13h-.11c-.07 0-.1.03-.1.1l-.01 1.63c-.02 1.75-.62 4.42-1.94 5.77-1.3 1.33-2.95 2.1-4.6 2.89-.78.36-1.56.73-2.3 1.16-1.78 1.02-3.2 1.08-5.39 1-.9-.04-2.4.07-4.51.32a.17.17 0 0 0-.15.17v.11c0 .04.02.05.05.05l.82.03c.92.03 1.82.06 2.81-.04l3.46-.4a16.34 16.34 0 0 0 10.76-5.86c.3-.37.56-.72.75-1.05.22-.37.21-.72.2-1.05Z" fill="#0B984C"/><path d="M16.05 20.77h.09c.15-.05.16 0 .04.17-1 1.42-1.24 3-.72 4.75 0 .03.03.05.06.05h.08c.05 0 .08-.03.07-.09a7.42 7.42 0 0 1 .8-4.63l-.01-.05a.18.18 0 0 0-.06-.07c-.07-.05-.09-.11-.05-.18.29-.62.52-1.01.7-1.18 1.77-1.7 3.5-2.89 5.2-3.55a25.05 25.05 0 0 1 12.1-1.56c.04 0 .06.02.06.05v.1c0 .05-.03.07-.07.07a55.63 55.63 0 0 0-3.83-.06c-.67.02-1.17.06-1.48.13-.47.11-.91.19-1.33.26-.76.12-1.47.24-2.3.55-.08.03-.82.27-2.22.7-1.55.5-3.06 1.35-4.52 2.54a6.38 6.38 0 0 0-1.9 2.5 10.47 10.47 0 0 0-.93 4.83.18.18 0 0 1-.14.1h-.09c-.26-.1-.48-.34-.67-.69-.05-.1-.09-.22-.1-.34-.03-.2-.09-.32-.17-.37a.07.07 0 0 0-.1.02v.04a12.15 12.15 0 0 0 3.25 7.7c.9.65 1 .54.29-.33-.45-.54-.99-1.23-1.62-2.05-.3-.4-.3-.64-.28-.94 0-.13.01-.29-.01-.47a3.69 3.69 0 0 1-.05-.57c.01-.32.09-.33.22-.04l.26.56c.4.88.8 1.8 1.43 2.41a17.3 17.3 0 0 0 4.32 3.17 5.34 5.34 0 0 0 3.35.38.1.1 0 0 0 .03-.05.2.2 0 0 0 0-.09.15.15 0 0 0-.14-.13 42.5 42.5 0 0 1-1.87-.34 9.39 9.39 0 0 1-3.03-1.3v-.19a.08.08 0 0 1 .07-.07h.04c1.66.92 3.8 1.76 5.73 1.3.37-.1.68-.06.97-.02.25.03.49.06.73 0 .63-.16.64-.32.02-.5-.98-.27-2.23-.58-3.75-.92a9.73 9.73 0 0 1-2.96-1.05c-1.86-1.2-2.92-3.05-3.18-5.54-.06-.54.04-1.07.28-1.6a15.04 15.04 0 0 1 1.46-2.62 7.2 7.2 0 0 1 1.84-1.6l.47-.33 1.23-.99a6.48 6.48 0 0 1 2.75-1.29c.67-.14 1.35-.3 1.98-.46 1.03-.24 1.94-.46 2.56-.53 2.6-.3 6.09-.23 10.45.23.06 0 .1-.03.1-.09a.17.17 0 0 0 0-.11.16.16 0 0 0-.09-.08c-.35-.14-1.14-.4-2.37-.76-.96-.29-1.9-.24-2.94-.18l-.9.04c-.09 0-.12-.04-.1-.13 0-.04.03-.07.08-.1.75-.25 1.77-.21 2.9-.17l.97.03c.12 0 .18-.06.18-.18v-.17c0-.32-.16-.48-.47-.48h-1.89c-.1 0-.2-.02-.29-.07-.65-.33-1.35-.4-2-.47-.34-.03-.67-.06-.96-.13-3.94-.89-7.9-.68-11.89.63-2.83.93-5.32 2.72-6.53 5.46-.02.06-.01.1.02.15.03.03.06.05.1.06.06.02.11 0 .15-.05 1.92-2.17 3.65-3.98 6.26-5.08 1.83-.77 4.54-1 6.82-1.2l.88-.08a7.41 7.41 0 0 1 2.44.17c.37.09.37.15-.01.19-.62.06-1.07.08-1.36.07a30.8 30.8 0 0 0-6.2.62c-1.92.34-3.74.94-5.09 2.37-.25.27-.69.68-1.31 1.22-.87.74-1.5 1.6-1.91 2.54a.12.12 0 0 0 0 .09c.01.03.03.05.06.07Zm1.29.89c-.4 1.03-.65 2.05-.76 3.06-.03.24.04.75.2 1.52.02.06-.01.1-.07.1h-.08a5.58 5.58 0 0 1 .57-4.75c.01-.03.03-.03.04-.02l.08.04c.02.01.02.03.02.05Zm9.16 11.88v.06c-.02.06-.15.1-.37.1a4.9 4.9 0 0 1-.83-.07l-.08-.01c-.31-.05-.6-.12-.81-.2-.22-.07-.33-.14-.33-.2l.01-.06 2.41.38Z" fill="#0066AE"/></svg>