<!-- by TradingView --><svg width="56" height="56" viewBox="0 0 56 56" xmlns="http://www.w3.org/2000/svg"><path fill="#AEED00" d="M0 0h56v56H0z"/><path d="m23.15 16 .02.01v.01l.01.02v.05c-2 .36-3.64 1.2-4.92 2.52a7.4 7.4 0 0 0-2.12 4.97c-.1 2.2.54 4.05 1.94 5.55a8.12 8.12 0 0 0 5.47 2.53c.33.03 1.33.04 2.98.04.6 0 1.24.14 1.9.43a3.1 3.1 0 0 1 1.5 1.4c.33.6.49 1.27.47 2.02a3.97 3.97 0 0 1-2.16 3.61c-.76.43-1.57.68-2.41.76-2.47.25-4.7-.1-6.71-1.03a12.27 12.27 0 0 1-5.17-4.43A11.58 11.58 0 0 1 12 27.99c0-2.5.67-4.73 2.02-6.72A12.18 12.18 0 0 1 23.15 16Zm11.93.01 10.89 10.94a.1.1 0 0 1 0 .15L36.07 37l-.02.01h-.02a.04.04 0 0 1-.02-.05c.54-2.7.18-5.02-1.08-6.98a8.62 8.62 0 0 0-6.56-3.82 32.7 32.7 0 0 0-3.07-.06 3 3 0 0 1-1.96-.58 2.18 2.18 0 0 1-.84-1.83c0-1.11.56-1.84 1.66-2.2.2-.06.65-.1 1.34-.1a15774.94 15774.94 0 0 0 9.49 0v-5.33l.01-.03.03-.02a.05.05 0 0 1 .05.01Z" fill="#003538"/></svg>