<!-- by TradingView --><svg width="56" height="56" viewBox="0 0 56 56" fill="none" xmlns="http://www.w3.org/2000/svg">
<rect width="56" height="56" fill="#F0F3FA"/>
<path fill-rule="evenodd" clip-rule="evenodd" d="M36.4577 40C43.3624 40 49 34.4176 49 27.5312C49 20.6449 43.3624 15 36.4577 15C31.662 15 27.4969 17.7556 25.4 21.7083C27.3579 18.9234 30.6007 17 34.2699 17C40.2487 17 45.0043 21.9367 45.0043 27.8996C45.0043 33.8626 40.509 38.6 34.2699 38.6C31.9088 38.6 29.7242 37.9426 27.945 36.663C30.177 38.7336 33.1691 40 36.4577 40Z" fill="#D4D4D6"/>
<path fill-rule="evenodd" clip-rule="evenodd" d="M33.8619 35C38.7563 35 42.7239 30.7082 42.7239 25.88C42.7239 24.0728 42.168 22.3937 41.2157 21C42.9359 22.6961 44 25.0397 44 27.6285C44 32.8042 39.7467 37 34.5 37C29.2533 37 25 32.8042 25 27.6285C25 27.3285 25.0143 27.0318 25.0422 26.739C25.4797 31.164 29.2614 35 33.8619 35Z" fill="#D4D4D6"/>
<path fill-rule="evenodd" clip-rule="evenodd" d="M34.0229 33C37.8854 33 41 29.8689 41 26.0064C41 22.1439 37.8854 19 34.0229 19C31.7183 19 29.674 20.1275 28.3999 21.8472C29.5232 20.8562 30.9984 20.3 32.6141 20.3C36.1336 20.3 39 23.108 39 26.6274C39 29.9145 36.498 32.6203 33.3021 32.9633C33.539 32.9876 33.7795 33 34.0229 33Z" fill="#D4D4D6"/>
<path fill-rule="evenodd" clip-rule="evenodd" d="M13.4068 22C14.4366 22 15.4067 22.3037 16.3918 22.7194C16.7781 22.8824 17 23.2772 17 23.6589C17 24.4121 16.3049 24.942 15.4588 24.6273C14.8022 24.383 13.9227 24 13.2188 24C11.7816 24 11 24.4062 11 25.6563C11 26.4349 11.6647 26.695 12.3438 26.9375C14.3115 27.6403 16 28.5901 16 30.8438C16 33.5273 14.2188 35 11.25 35C9.75399 35 8.483 34.3568 7.47785 33.5273C7.18587 33.2864 7 32.9518 7 32.6979C7.00001 32.4753 7.07008 32.2898 7.18245 32.1309C7.27539 32.0172 7.39946 31.8372 7.47785 31.7415C7.67206 31.5045 7.93831 31.3268 8.2424 31.3268C8.4434 31.3305 8.57719 31.409 8.75402 31.5299C9.43267 32.1309 9.99202 33 11.4382 33C12.8843 33 13.5696 32.1665 13.7 31.3268C13.8304 30.4872 13.3712 29.6641 12.0938 29.2812C10.2866 28.7396 8.7 27.7188 8.7 25.6563C8.7 23.0307 10.9457 22 13.4068 22Z" fill="#C41522"/>
<path fill-rule="evenodd" clip-rule="evenodd" d="M29.5246 24L28.6721 28H30.1562C31.6873 28 32.5 27.2812 32.7 25.6901C32.8027 24.8725 32.4335 24 31.2965 24H29.5246ZM28.3118 30H29.8671C33.0312 30 35 28.375 35 25.4062C35 23.2188 34.0376 22 31.7026 22H28.4824C28.0243 22 27.6292 22.3223 27.5366 22.7716L25.2202 33.8378C25.2056 33.9086 25.1991 33.9789 25.2 34.0479C25.2 34.5626 25.6265 35 26.166 35H26.3373C26.798 35 27.2978 34.6742 27.3877 34.2218L28.3118 30Z" fill="#C41522"/>
<path fill-rule="evenodd" clip-rule="evenodd" d="M20.925 24H18.758C18.2303 24 17.8025 23.5465 17.8025 23C17.8025 22.4535 18.2303 22 18.758 22H25.4469C25.9747 22 26.4025 22.4535 26.4025 23C26.4025 23.5465 25.9747 24 25.4469 24H23.0681L21.0511 34.2084C20.9602 34.6691 20.5689 35 20.1148 35H19.8415C19.2769 35 18.8805 34.5551 18.8775 34.0309C18.8771 33.9567 18.8912 33.8809 18.9069 33.8046L20.925 24Z" fill="#C41522"/>
</svg>
