<!-- by TradingView --><svg width="56" height="56" viewBox="0 0 56 56" xmlns="http://www.w3.org/2000/svg"><path fill="#F0F3FA" d="M0 0h56v56H0z"/><path d="M26.27 19c1.31 1.3 2.16 2.68 2.16 4.47 0 1.73-.82 2.66-1.2 3.03l-.5-.6c.18-.17.77-.85.77-2.43 0-1.23-.34-1.91-1.23-2.84-.88.93-1.27 1.61-1.27 2.84 0 1.47.87 2.66 2.03 3.85.78.8 1.97 1.86 1.97 3.05a4.2 4.2 0 0 1-.57 1.63v-1.63c0-.84-.87-1.79-1.43-2.37-1.15-1.19-3-2.7-3-4.53 0-1.79.96-3.18 2.27-4.47Z" fill="url(#azx5wilzp)"/><path d="M25.73 36c-1.31-1.3-2.23-2.71-2.23-4.5 0-1.73.89-2.63 1.27-3l.5.6c-.18.17-.77.82-.77 2.4 0 1.23.34 2.07 1.23 3a3.99 3.99 0 0 0 1.27-3c0-1.47-.87-2.63-2.03-3.82-.78-.8-1.97-1.86-1.97-3.05 0-.67.55-1.63.55-1.63v1.63c0 .84 1.16 1.79 1.72 2.37 1.15 1.19 2.73 2.66 2.73 4.5 0 1.79-.96 3.2-2.27 4.5Z" fill="url(#bzx5wilzp)"/><path d="M47.74 31C46.48 31 46 29.53 46 28.5c0-1.04.5-2.5 1.75-2.5.51 0 .95.25 1.25.75l-.29.44c-.27-.4-.6-.69-.96-.69-.95 0-1.25 1.22-1.25 2 0 .77.3 2 1.24 2 .35 0 .72-.28 1-.65l.26.53c-.32.4-.8.62-1.26.62Zm.76-.71v-1.82h.5v1.9l-.5-.08ZM5.5 31c-.55 0-1.14-.2-1.5-.61l.2-.55c.33.35.82.57 1.3.57.47 0 .95-.21.95-.76 0-.5-.5-.7-.92-.81-.77-.22-1.44-.55-1.44-1.44 0-.87.66-1.4 1.5-1.4.45 0 .92.15 1.25.43l-.19.56c-.33-.28-.72-.4-1.06-.4-.49 0-.95.24-.95.78 0 .52.5.7.93.82.75.21 1.43.53 1.43 1.42C7 30.48 6.32 31 5.5 31ZM9.5 31c-.93 0-1.5-.76-1.5-2.19V26h.5v2.78c0 1.1.37 1.72 1 1.72.64 0 1-.62 1-1.72V26h.5v2.81c0 1.43-.56 2.19-1.5 2.19ZM12 31v-5h1.45c1.01 0 1.55.55 1.55 1.5s-.56 1.5-1.57 1.5h-1.15l.22-.34V31H12Zm.5-2.26-.22-.24h1.14c.68 0 1.05-.29 1.05-1s-.35-1-1.04-1H12.3l.21-.24v2.48ZM16.5 28h2v.5h-2V28Zm0 2.5H19v.5h-3v-5h3v.5h-2.5v4ZM30.5 28h2v.5h-2V28Zm0 2.5H33v.5h-3v-5h3v.5h-2.5v4ZM38.5 28h2v.5h-2V28Zm0 2.5H41v.5h-3v-5h3v.5h-2.5v4ZM20 31v-5h1.42c1 0 1.58.56 1.58 1.5s-.58 1.5-1.58 1.5h-1.13l.21-.33V31H20Zm2.43 0-.92-2.3h.55L23 31h-.57Zm-1.93-2.26-.21-.24h1.11c.68 0 1.08-.3 1.08-1 0-.71-.4-1-1.08-1H20.3l.21-.24v2.48ZM42 31v-5h1.42c1 0 1.58.56 1.58 1.5s-.58 1.5-1.58 1.5h-1.13l.21-.33V31H42Zm2.43 0-.92-2.3h.55L45 31h-.57Zm-1.93-2.26-.21-.24h1.11c.68 0 1.08-.3 1.08-1 0-.71-.4-1-1.08-1H42.3l.21-.24v2.48ZM34 31v-5h.5l2 4v-4h.5v5h-.5l-2-4v4H34ZM50.27 31v-1.91l.1.44L49 26h.49l1.16 2.98h-.27L51.55 26H52l-1.37 3.53.1-.44V31h-.46Z" fill="#656364"/><defs><linearGradient id="azx5wilzp" x1="26.73" y1="19" x2="26.73" y2="32" gradientUnits="userSpaceOnUse"><stop stop-color="#D54C20"/><stop offset="1" stop-color="#C8D86B"/></linearGradient><linearGradient id="bzx5wilzp" x1="25.27" y1="36" x2="25.27" y2="23" gradientUnits="userSpaceOnUse"><stop stop-color="#2076A7"/><stop offset="1" stop-color="#A5C3D4"/></linearGradient></defs></svg>