<!-- by TradingView --><svg width="56" height="56" viewBox="0 0 56 56" xmlns="http://www.w3.org/2000/svg"><path fill="#F0F3FA" d="M0 0h56v56H0z"/><path d="M22.49 19.34c-.14.17-.46.57-.64.82-.23.32-.5.87-.53 1.46l-.04.4c-.07.75-.18 1.92.16 1.86.4-.07 1.03-.59 1.73-1.62.69-1.03 1.69-2.15 1.9-1.97.21.17.37 1.37-.18 3.1l-2 6.34a5.19 5.19 0 0 0-.38 1.7c.04.6.33 1.82.66 1.82.26 0 .47-.73.78-1.84l.22-.78a107.9 107.9 0 0 1 2.64-7.58c.48-1.05.95-1.8 1.13-1.85.2-.04.1 1.01-.31 2.52-.34 1.21-1.4 4.5-1.89 6-.11.29-.31 1.11-.23 2.19.1 1.34.31 2.64 1.1.23a97.48 97.48 0 0 1 3.37-7.98c.3-.49.93-1.49 1.05-1.57.15-.1-1.11 3.08-1.38 3.73-.28.66-1 3.34-1 5.38s.97 2.41 1.33 2.16c.3-.21 1.04-1.26 1.6-2.05l.27-.38c.45-.64.76-1.28.86-1.52.15 1.05.54 3.14.95 3.1.4-.06 1.45-2.21 1.93-3.28-.25 1.21-.57 3.62.12 3.52.7-.1 1.86-2.74 2.35-4.05-.14-.01-.43.03-.5.34-.08.37-.88 1.38-1.13 1.09-.26-.3-.32-1.74 0-2.52.31-.78.6-1.66.23-2.73.2-.27.48-.9 0-1.34-.61-.55-2.3 1.3-2.65 2.01-.08.17-.2.37-.33.6-.44.72-1.02 1.7-.97 2.55-.1.08-.37.33-.59.71-.27.49-1.34 1.94-1.74 1.79-.4-.15-.7-2.33.65-6.11.6-1.7 1.1-2.89 1.47-3.73.43-1.03.66-1.56.59-1.9-.13-.62-.48-1.5-.82-1.53-.34-.02-1.51 1.95-1.8 2.77-.24.66-1.78 3.83-2.53 5.33.57-1.94 1.7-5.98 1.7-6.57 0-.73-.37-1.53-.67-1.53-.3 0-1.21 1.12-1.87 2.48a134.2 134.2 0 0 0-2.03 4.68c.49-1.62 1.38-5.16 1-6.42-.46-1.58-.85-1.92-2-.74L22.2 20.3l.28-.95ZM33.77 31.2a5.6 5.6 0 0 1-.17-2.08c.17-.76 2.34-3.16 2.45-3.13.11.04-.56 2.44-1.12 3.41-.45.78-.96 1.53-1.16 1.8Z" fill="#E92634"/><path d="M42 14.5H17.07v.5H42v-.5Zm0 1.5H17.07v.5H42V16Zm0 1.5H17.07v.5H42v-.5ZM17.07 19H42v.5H17.07V19ZM42 20.5H17.07v.5H42v-.5ZM17.07 22H42v.5H17.07V22ZM42 23.5H17.07v.5H42v-.5ZM17.07 25H42v.5H17.07V25Zm0 1.5H42v.5H17.07v-.5ZM42 28H17.07v.5H42V28Zm-24.93 1.5H42v.5H17.07v-.5ZM42 31H17.07v.5H42V31Zm-24.93 1.5H42v.5H17.07v-.5ZM42 34H17.07v.5H42V34Zm-24.93 1.5H42v.5H17.07v-.5ZM42 37H17.07v.5H42V37Z" fill="#022984"/><path d="M14 42V14h4v24h24v4H14Z" fill="#E92634"/></svg>