<!-- by TradingView --><svg xmlns="http://www.w3.org/2000/svg" width="56" height="56" viewBox="0 0 56 56"><path fill="#F0F3FA" d="M0 0h56v56H0z"/><path fill-rule="evenodd" d="M28 44a16 16 0 1 0 0-32 16 16 0 0 0 0 32zm0 1a17 17 0 1 0 0-34 17 17 0 0 0 0 34z" fill="#25A969"/><path d="M27.65 37.34c-.53-1.97-2.21-5.8-5.54-7.76 1.16 1.07 3.59 3.6 4.26 5.36a3.76 3.76 0 0 0 0 0c-.2-.38-.98-.91-2.99-.68-2.8.33-7.8-3.82-6.22-7.44.26-.6.93-1.28 3.18-1.08 2.87.26 6 3.37 6.45 5.54.42 2.05.36 3.91.86 6.06z" fill="url(#azmyxj4m3)"/><path d="M28.36 40.03c.16-1.99 1.15-5.96 4.08-8.44-.95 1.23-2.9 4.1-3.25 5.9a3.6 3.6 0 0 1 0 0c.12-.4.8-1.05 2.82-1.18 2.81-.19 7-5.07 4.81-8.27-.36-.53-1.14-1.06-3.31-.46-2.78.76-5.31 4.32-5.37 6.47-.06 2.05.33 3.83.22 5.98z" fill="url(#bzmyxj4m3)"/><path d="M25.98 27.9c1.28 1.56 1.67 4.57 1.7 5.88.27-2.93-.12-3.4-.12-7.56.26-3.27 1.78-4.96 2.4-5.56-1.55 3.13-1.91 7.97-1.9 10 .39-1.56.94-1.44 2.62-2.09 1.68-.64 2.6-3 2.66-5.95.07-2.95-.77-5.85-2.66-5.87-1.52-.02-3.25 2.32-3.93 3.5-.7.91-2.38 5.7-.77 7.65z" fill="url(#czmyxj4m3)"/><defs><linearGradient id="azmyxj4m3" x1="16.86" y1="27.81" x2="24.17" y2="32.83" gradientUnits="userSpaceOnUse"><stop stop-color="#7BB7E0"/><stop offset="1" stop-color="#2571A3"/></linearGradient><linearGradient id="bzmyxj4m3" x1="37.37" y1="30.83" x2="28.3" y2="36.81" gradientUnits="userSpaceOnUse"><stop stop-color="#23A566"/><stop offset="1" stop-color="#0D703B"/></linearGradient><linearGradient id="czmyxj4m3" x1="29.33" y1="16.75" x2="29.33" y2="33.78" gradientUnits="userSpaceOnUse"><stop stop-color="#DBA939"/><stop offset=".79" stop-color="#916828"/></linearGradient></defs></svg>