<!-- by TradingView --><svg width="56" height="56" viewBox="0 0 56 56" xmlns="http://www.w3.org/2000/svg"><path fill="#F0F3FA" d="M0 0h56v56H0z"/><path d="m9 25 1.06.1c8 .81 12.84 3 15.62 5.54 2.8 2.56 3.5 5.49 3.13 7.56l-.14.8h-.74c-14 0-18.5-8.24-18.84-12.82L9 25Zm2.08 2.22c.89 3.6 4.8 9.5 16.03 9.78-.05-1.27-.65-3.07-2.58-4.83-2.27-2.08-6.38-4.08-13.45-4.95Z" fill="#14A850"/><path d="m47 25-1.06.1c-8 .81-12.84 3-15.62 5.54-2.8 2.56-3.5 5.49-3.13 7.56l.14.8h.74c14 0 18.5-8.24 18.84-12.82L47 25Zm-2.08 2.22c-.89 3.6-4.8 9.5-16.03 9.78.05-1.27.65-3.07 2.58-4.83 2.27-2.08 6.38-4.08 13.45-4.95Z" fill="#14A850"/><path d="m16.24 17 1.16.3c5.02 1.27 7.98 5.09 9.62 9.23 1.64 4.11 2 8.62 1.85 11.54l-.05.93h-.84c-4.5 0-7.35-3.77-9.07-8a41.17 41.17 0 0 1-2.61-12.7l-.06-1.3Zm1.94 2.59c.27 3.12.98 7.18 2.37 10.61 1.49 3.66 3.61 6.32 6.56 6.76.02-2.65-.41-6.3-1.73-9.64-1.35-3.39-3.59-6.38-7.2-7.73Z" fill="#14A850"/><path d="m39.76 17-1.16.3c-5.02 1.27-7.98 5.09-9.62 9.23-1.64 4.11-2 8.62-1.85 11.54l.05.93h.84c4.5 0 7.35-3.77 9.07-8a41.17 41.17 0 0 0 2.61-12.7l.06-1.3Zm-1.94 2.59a38.25 38.25 0 0 1-2.37 10.61c-1.49 3.66-3.61 6.32-6.56 6.76-.02-2.65.41-6.3 1.73-9.64 1.35-3.39 3.59-6.38 7.2-7.73Z" fill="#14A850"/></svg>