<!-- by TradingView --><svg width="56" height="56" viewBox="0 0 56 56" xmlns="http://www.w3.org/2000/svg"><path fill="#F0F3FA" d="M0 0h56v56H0z"/><path d="M41 21.5V13h1v8.5c0 .47.07.86.23 1.12.13.22.34.38.77.38h3v1h-3c-.77 0-1.31-.34-1.63-.87A3.2 3.2 0 0 1 41 21.5Z" fill="#BE1F2B"/><path d="M30.72 21H41.5v1H31.28l-9.72 16H11v-1h10l9.72-16Z" fill="#BE1F2B"/><path d="M18 39V24h2v15c0 1.5 1.3 2 2.5 2 1.13 0 2.5-.14 2.5-1.5h2c0 2.55-2.23 3.5-4.5 3.5-2.34 0-4.5-1.35-4.5-4Z" fill="#BE1F2B"/><path fill-rule="evenodd" d="M19 24a2 2 0 1 0 0-4 2 2 0 0 0 0 4Zm0 1a3 3 0 1 0 0-6 3 3 0 0 0 0 6Z" fill="#BE1F2B"/><path fill-rule="evenodd" d="M19 25.5a3.5 3.5 0 1 0 0-7 3.5 3.5 0 0 0 0 7Zm0 .5a4 4 0 1 0 0-8 4 4 0 0 0 0 8Z" fill="#BE1F2B"/><path fill-rule="evenodd" d="M19 26.5a4.5 4.5 0 1 0 0-9 4.5 4.5 0 0 0 0 9Zm0 .5a5 5 0 1 0 0-10 5 5 0 0 0 0 10Z" fill="#BE1F2B"/><path fill-rule="evenodd" d="M19 27.5a5.5 5.5 0 1 0 0-11 5.5 5.5 0 0 0 0 11Zm0 .5a6 6 0 1 0 0-12 6 6 0 0 0 0 12Z" fill="#BE1F2B"/><path fill-rule="evenodd" d="M19 28.5a6.5 6.5 0 1 0 0-13 6.5 6.5 0 0 0 0 13Zm0 .5a7 7 0 1 0 0-14 7 7 0 0 0 0 14Z" fill="#BE1F2B"/><path fill-rule="evenodd" d="M19 30a8 8 0 1 0 0-16 8 8 0 0 0 0 16Zm0 1a9 9 0 1 0 0-18 9 9 0 0 0 0 18Z" fill="#BE1F2B"/><path d="M38 34a3 3 0 1 1-6 0 3 3 0 0 1 6 0Zm-3 2a2 2 0 1 0 0-4 2 2 0 0 0 0 4Z" fill="#BE1F2B"/><path d="M39 34a4 4 0 1 1-8 0 4 4 0 0 1 8 0Zm-4 3.5a3.5 3.5 0 1 0 0-7 3.5 3.5 0 0 0 0 7Z" fill="#BE1F2B"/><path d="M40 34a5 5 0 1 1-10 0 5 5 0 0 1 10 0Zm-5 4.5a4.5 4.5 0 1 0 0-9 4.5 4.5 0 0 0 0 9Z" fill="#BE1F2B"/><path d="M41 34a6 6 0 1 1-12 0 6 6 0 0 1 12 0Zm-6 5.5a5.5 5.5 0 1 0 0-11 5.5 5.5 0 0 0 0 11Z" fill="#BE1F2B"/><path d="M42 34a7 7 0 1 1-14 0 7 7 0 0 1 14 0Zm-7 6.5a6.5 6.5 0 1 0 0-13 6.5 6.5 0 0 0 0 13Z" fill="#BE1F2B"/><path d="M44 34a9 9 0 1 1-18 0 9 9 0 0 1 18 0Zm-9 8a8 8 0 1 0 0-16 8 8 0 0 0 0 16Z" fill="#BE1F2B"/><path fill-rule="evenodd" d="M36.5 23a4.5 4.5 0 1 0 0-9 4.5 4.5 0 0 0 0 9Zm0 1a5.5 5.5 0 1 0 0-11 5.5 5.5 0 0 0 0 11Z" fill="#BE1F2B"/></svg>