<!-- by TradingView --><svg width="56" height="56" viewBox="0 0 56 56" xmlns="http://www.w3.org/2000/svg"><path fill="#F0F3FA" d="M0 0h56v56H0z"/><path d="M27 17c-1.23.12-2.49.64-3.66 1.03l.32.94c1.36-.45 2.9-.97 4.34-.97 1.41 0 3.01.44 4.31.96l.38-.92c-1.1-.45-2.5-.93-3.69-1.04v-2h-2v2Zm1 3c-3.07 0-4.74 1.4-5.5 2l-.5-1c1-1 2.67-2 6-2s5 1 6 2l-.5 1c-.39-.52-2.43-2-5.5-2Z" fill="#223670"/><path fill-rule="evenodd" d="M28 44c8.8 0 16-7.2 16-16s-7.2-16-16-16-16 7.2-16 16 7.2 16 16 16Zm0 1a17 17 0 1 0 0-34 17 17 0 0 0 0 34Z" fill="#223670"/><path d="M16 33a2 2 0 1 1 0-4c.83 0 2.7.5 3.5 2.5-.31-.1-.94-.12-1.66.28A1.94 1.94 0 0 1 16 33ZM40 33a2 2 0 1 0 0-4c-.83 0-2.7.5-3.5 2.5.31-.1.94-.12 1.66.28.36.85 1.1 1.22 1.84 1.22ZM20.92 36.12A2.5 2.5 0 1 1 18.5 33c2.5 0 8.2 2.8 9 8a9.59 9.59 0 0 0-6.58-4.88ZM34.08 36.07A2.55 2.55 0 0 0 36.5 38c1.38 0 2.5-1.17 2.5-2.55A2.46 2.46 0 0 0 36.5 33c-2.5 0-8.2 2.75-9 7.95.74-1.48 3-4.27 6.58-4.88Z" fill="#35C7F4"/><path d="M21.67 38c1.1-.01 3.55-.03 5.83 3a5.2 5.2 0 0 0-4.51-1.7A1.5 1.5 0 1 1 21.5 38h.17ZM33.37 38c-1.1-.01-3.55-.03-5.83 3a5.2 5.2 0 0 1 4.51-1.7 1.5 1.5 0 1 0 1.5-1.3H33.36Z" fill="#35C7F4"/><path d="m28 27-6 4 6 6 6-6-6-4Z" fill="#223670"/><path d="m28 19.5 6.78 5.09-.56.82L28 21l-6.22 4.41-.56-.82L28 19.5Zm0 3.4 6.78 4.69-.56.82-6.22-4.3-6.22 4.3-.56-.82 6.78-4.7Zm0 3 7.78 5.18-.56.84L28 27.1l-7.22 4.82-.56-.84L28 25.9Z" fill="#223670"/></svg>