<!-- by TradingView --><svg width="56" height="56" viewBox="0 0 56 56" xmlns="http://www.w3.org/2000/svg"><path fill="#F0F3FA" d="M0 0h56v56H0z"/><path d="m16.8 26-.8 4h1l.7-3.5h.8c.6 0 .5.33.5.67 0 .33-.3.5-.5.5h-.51l-.2.66h1c.4 0 1.03-.36 1.19-1.16.16-.8-.6-1.17-1.2-1.17H16.8ZM19.5 30l1-4h1.83c.5 0 1.17.5 1 1.17-.13.53-.5.77-.66.83.3 0 .46.18.46.61C23.13 29 23 30 23 30h-.83l.22-1.39c.05-.28-.28-.28-.39-.28h-.7l.17-.66h.7c.16 0 .5-.1.5-.5s-.12-.67-.67-.67h-.7l-.88 3.5h-.92ZM27 26h-2.83l-.84 4h2.84l.16-.5h-1.9l.24-1.2h1.83l.18-.5h-1.91l.23-1.3h1.83L27 26ZM31 26h-2.18c-.82 0-1.32.5-1.32 1 0 .67 1.14 1.33 1.5 1.5.3.13.5.34.5.5 0 .4-.44.5-.68.5h-1.46L27 30h2.18c1.1 0 1.32-.67 1.32-1 0-.33-.27-.67-1-1-.73-.33-1-.67-1-1 0-.38.58-.5.95-.5h1.05l.5-.5ZM35 26h-2.18c-.82 0-1.32.5-1.32 1 0 .67 1.14 1.33 1.5 1.5.3.13.5.34.5.5 0 .4-.44.5-.68.5h-1.46L31 30h2.18c1.1 0 1.32-.67 1.32-1 0-.33-.27-.67-1-1-.73-.33-1-.67-1-1 0-.38.58-.5.95-.5h1.05l.5-.5ZM13.85 26h-1.12l.72 2L12 30h1.1l.72-1 .36 1h1.1l-.58-2 1.3-2h-1.1l-.68 1.17-.37-1.17Z"/><path d="M5 32.5h32v.5H5v-.5ZM13.65 24.5l.38-1.5H6.5v.36h1.67c-.1.08-.18.18-.26.28H5.5V24h2.15c-.13.22-.25.44-.34.64H4.5V25h2.67l-.06.16c-.05.17-.07.33-.07.48H4.5V26h2.58a2 2 0 0 0 .3.64h-2V27H7.6l-.11.11c-.15.14-.32.3-.48.53H5V28h1.79a3 3 0 0 0-.22.64H4.35V29H6.5c-.03.23-.04.44-.03.64H4V30h2.52c.04.23.11.45.2.64H4.5V31h2.41c.17.27.37.48.57.64H5V32h31.5L35 30v.5H9.5c-.7 0-1.5-.48-1.5-1.38C8 28.4 8.67 28 9.19 28H12l.5-1.5h-2.27c-.7 0-1.64-.1-1.39-1.16.18-.72.81-.84 1.16-.84h3.65Z" fill="#036EA2"/><path d="M38.64 28.3v1a2.07 2.07 0 0 1-1.62.7A1.95 1.95 0 0 1 35 28c0-1.16.86-2 2.01-2 .48 0 .96.11 1.36.37l.11.78h-.05c-.17-.66-.77-.99-1.42-.99-1.02 0-1.59.9-1.59 1.84 0 .95.57 1.82 1.6 1.84.45 0 .91-.16 1.25-.48V28.3c0-.22-.19-.25-.37-.25V28H39v.05c-.18 0-.37.03-.36.25ZM39.62 26h.67c.14 0 .27.02.39.07.11.05.21.13.3.22a1.37 1.37 0 0 1-.15 1.72.62.62 0 0 1-.42.16c.05.02.11.08.18.16a2.57 2.57 0 0 1 .23.35 23.22 23.22 0 0 1 .36.58 3.56 3.56 0 0 0 .36.47c.07.07.13.12.2.16.08.03.17.05.26.05V30h-.26a.86.86 0 0 1-.65-.27 2.3 2.3 0 0 1-.42-.62 21.55 21.55 0 0 0-.4-.68c-.05-.1-.12-.18-.2-.26-.07-.08-.15-.12-.23-.12v-.06a487.8 487.8 0 0 0 .25 0c.08 0 .17-.02.27-.05.1-.02.2-.08.28-.16a.8.8 0 0 0 .2-.39 1.35 1.35 0 0 0 .02-.34c0-.26-.06-.46-.16-.62a.53.53 0 0 0-.43-.25 2.2 2.2 0 0 0-.28 0h-.33l-.01-.05a.65.65 0 0 0-.02-.08l-.01-.05Zm.06 0v4h-.31v-4h.3Zm-.3 3.58V30H39v-.06h.06c.08 0 .16-.03.21-.1.06-.07.1-.16.1-.26h.01Zm0-3.16h-.01c0-.1-.04-.19-.1-.25a.26.26 0 0 0-.2-.11H39V26h.38v.42Zm.28 3.16h.02c0 .1.03.19.09.26s.13.1.21.1h.06V30h-.38v-.42ZM44 26c1.15 0 2 .85 2 2 0 1.16-.85 2-2 2-1.16 0-2-.85-2-2s.84-2 2-2Zm0 3.84c1.01 0 1.57-.9 1.57-1.84 0-.94-.56-1.84-1.57-1.84-1.02 0-1.57.9-1.57 1.84 0 .94.55 1.84 1.57 1.84ZM46.59 26v2.46c0 .57.23 1.37.93 1.37.68 0 .97-.7.97-1.3V26h.2v2.54c0 .7-.38 1.46-1.17 1.46-.81 0-1.22-.72-1.22-1.46V26h.29Zm-.27 0v.34h-.02a.3.3 0 0 0-.07-.2.2.2 0 0 0-.16-.08H46V26h.32Zm.57 0v.06h-.07a.22.22 0 0 0-.17.07.3.3 0 0 0-.06.2h-.01V26h.3Zm1.62 0v.34h-.02a.3.3 0 0 0-.07-.2.2.2 0 0 0-.16-.08h-.07V26h.32Zm.49 0v.06h-.07a.22.22 0 0 0-.17.07.3.3 0 0 0-.06.2h-.01V26H49ZM49.95 26h.75c.68 0 1.3.25 1.3 1 0 .52-.36 1-.83 1.14a1.5 1.5 0 0 1-1.01-.08v-.05l.1.01a1.8 1.8 0 0 0 .64-.06c.4-.11.83-.54.8-.96 0-.53-.47-.83-1.02-.83H50v-.04a.53.53 0 0 0-.04-.08l-.01-.05Zm.05 0v4h-.23v-4H50Zm-.23 3.58V30h-.5v-.06c.22 0 .5-.1.5-.36Zm0-3.16c0-.26-.28-.36-.5-.36V26h.5v.42Zm.23 3.16c0 .2.22.36.44.36h.09V30H50v-.42Z"/></svg>