<!-- by TradingView --><svg width="56" height="56" viewBox="0 0 56 56" xmlns="http://www.w3.org/2000/svg"><path fill="#F0F3FA" d="M0 0h56v56H0z"/><path fill-rule="evenodd" d="M24.42 15H45v12.13C45 31.76 42.14 41 30.68 41H11V27.13C11 22.8 13.33 15 24.42 15Zm-8.58 20.5H14.5v-.94H16V34h-2v3h.5v-1h1.34v-.5ZM18 37a1.5 1.5 0 1 0 0-3 1.5 1.5 0 0 0 0 3Zm0-.5a1 1 0 1 0 0-2 1 1 0 0 0 0 2Zm5-1a1.5 1.5 0 1 1-3 0 1.5 1.5 0 0 1 3 0Zm-.5 0a1 1 0 1 1-2 0 1 1 0 0 1 2 0Zm1-1.5H25c.88 0 1.5.57 1.5 1.5S25.89 37 25 37h-1.5v-3Zm.5 2.5h1a1 1 0 0 0 1-1 1 1 0 0 0-1-1h-1v2Zm15-11.35c0-2.52-3.16-3.15-4.74-3.15-3.31 0-3.79 1.35-3.79 1.8 0 .45.1 1.2 1.53 1.2.78 0 1.02-.3 1.24-.58.17-.22.33-.42.76-.42.76 0 1 .9 1 1.5h-2c-2.65 0-3 1.9-3 2.8 0 .9.85 2.7 4.26 2.7 3.41 0 4.74-2.6 4.74-3.5v-2.35ZM35 28v-1.24c-1.52 0-2 .8-2 1.24 0 .3.24 1 1 1s1-.7 1-1Zm-6.38-4.65c0-.9-1.3-1.35-2.62-1.35-1.31 0-3.5.99-3.5 3.15 0 1.71 1.93 2.34 3.35 2.8.82.26 1.46.47 1.46.8 0 .54-.48.94-.91 1.17-.9-.45-1.7-.92-2.4-1.34-.78-.46-1.43-.84-1.97-1.05V22.9c.16 0 .47-.09.47-.45s-.31-.45-.47-.45H18c-.16 0-.5.09-.5.45s.34.45.5.45V27h-.2c-2.33 0-2.8 1.3-2.8 1.75 0 .45 0 2.25 2.8 2.25s4.23-.9 4.23-1.35v-.83l.47.38c2.92 2.36 7.17 5.8 11.53 5.8 3.63 0 7.7-1.8 7.7-3.59 0-1.43-1.2-1.79-1.8-1.79-.65 0-1.44.44-2.32.94-1.09.61-2.32 1.3-3.58 1.3-2.37 0-4.42-.55-6.15-1.26.74-.4 1.62-1.2 1.62-2.75 0-1.49-1.33-2.02-2.52-2.5-.97-.39-1.86-.74-1.86-1.55 0-.72.59-.9.88-.9 1.05 0 1.6 1.5 1.75 2.1h.88v-1.65Zm-10.62 6V28s-1 .11-1 1.35c0 0 .16.45.53.45.38 0 .47-.3.47-.45ZM39 29c.51-.67 1.85-2 3.08-2 1.54 0 1.92 1 1.92 1.5s-.38 1.5-1.54 1.5c-.43 0-.65-.21-.9-.45-.4-.4-.88-.86-2.56-.55Z" fill="url(#asek22cyh)"/><defs><linearGradient id="asek22cyh" x1="14" y1="16" x2="41.5" y2="39" gradientUnits="userSpaceOnUse"><stop stop-color="#C3122F"/><stop offset=".65" stop-color="#D0465D"/><stop offset="1" stop-color="#C3173D"/></linearGradient></defs></svg>