<!-- by TradingView --><svg width="56" height="56" viewBox="0 0 56 56" xmlns="http://www.w3.org/2000/svg"><path fill="#F0F3FA" d="M0 0h56v56H0z"/><path fill-rule="evenodd" d="M12 14h32v28H12V14Zm1 1h30v26H13V15Z" fill="#ED2424"/><path d="M42 17h-6.86v20.09c-.32.8-1.14.71-1.14.71V39h4c2.3 0 4-3.48 4-3.48V17ZM14 17h4v18.23c0 2.9 2.51 2.77 2.51 2.77H23v1h-4.34c-5.22 0-4.64-3.78-4.64-3.78L14 17Z" fill="#ED2424"/><path d="M24 17a6 6 0 1 1 0 12 6 6 0 0 1 0-12Z" fill="#ED2424"/><path d="M24 27a6 6 0 1 1 0 12 6 6 0 0 1 0-12Z" fill="#ED2424"/><path d="M34 39h-.53V21.49c0-.82-.58-1.49-1.27-1.49-.7 0-1.2.67-1.2 1.49V39h-1V21.35c0-1.29.9-2.35 2-2.35s2 1.05 2 2.35V39Z" fill="#ED2424"/><path d="M30 38h-7v1h7v-1Z" fill="#ED2424"/></svg>