<!-- by TradingView --><svg width="56" height="56" viewBox="0 0 56 56" xmlns="http://www.w3.org/2000/svg"><path fill="#F0F3FA" d="M0 0h56v56H0z"/><path d="M15 31h-4l6-15h4l6 15h-4l-4-10-4 10ZM33 31h-4l6-15h4l6 15h-4l-4-10-4 10ZM22 40V37.53c0-.44-.2-.7-.72-.7-.34 0-.7.12-.94.33l-.34-.73c.36-.27.89-.43 1.4-.43 1 0 1.6.5 1.6 1.6V40h-1Zm-.9 0c-.64 0-1.21-.5-1.21-1.19 0-.79.7-1.28 1.39-1.28h.87V38h-.77c-.65 0-.62.57-.62.81 0 .27.24.49.57.49.32 0 .56-.22.67-.53l.18.52c-.14.47-.5.71-1.08.71ZM25.98 36c.91 0 1.52.75 1.52 1.59V40h-1v-2.25c0-.58-.35-.85-.77-.85-.55 0-.73.47-.73.97V40h-1v-4h1v1.05l-.27-.3c.24-.48.7-.75 1.25-.75ZM30 40c-1.02 0-1.61-1.05-1.61-2 0-.96.59-2 1.61-2 .82 0 1.5.73 1.5 2 0 1.24-.63 2-1.5 2Zm.18-.85c.47 0 .76-.55.76-1.15 0-.49-.22-1-.76-1s-.8.5-.8 1 .26 1.15.8 1.15ZM31 40v-5l1-1v6h-1ZM34.58 40c-1.04 0-1.74-.98-1.74-2s.77-2 1.8-2c1.05 0 1.7.98 1.7 2s-.73 2-1.76 2Zm0-.97c.54 0 .76-.53.76-1.03s-.15-1-.7-1c-.54 0-.8.5-.8 1s.2 1.03.74 1.03ZM17.5 36c.98 0 1.5.76 1.5 1.59V40h-1v-2.25c0-.58-.32-.85-.75-.85-.56 0-.75.5-.75.94V40h-1v-2.25c0-.58-.29-.85-.72-.85-.56 0-.78.5-.78.94V40h-1v-4h1v1.03l-.22-.28c.25-.5.72-.75 1.3-.75.67 0 1.18.4 1.32 1.01l-.36-.1c.24-.56.8-.91 1.46-.91ZM41.5 36c.98 0 1.5.76 1.5 1.59V40h-1v-2.25c0-.58-.32-.85-.75-.85-.56 0-.75.5-.75.94V40h-1v-2.25c0-.58-.29-.85-.72-.85-.56 0-.78.5-.78.94V40h-1v-4h1v1.03l-.22-.28c.25-.5.72-.75 1.3-.75.67 0 1.18.4 1.32 1.01l-.36-.1c.24-.56.8-.91 1.46-.91Z"/></svg>