<!-- by TradingView --><svg width="56" height="56" viewBox="0 0 56 56" fill="none" xmlns="http://www.w3.org/2000/svg">
<rect width="56" height="56" fill="#F0F3FA"/>
<circle cx="28" cy="28" r="15" fill="#404499"/>
<path fill-rule="evenodd" clip-rule="evenodd" d="M21 19.0063C21 23.5625 27.3089 27.4378 33.1238 27.4378L35.0697 23.0635C30.4276 23.0635 25 21.2812 25 17.8018C25 16.0938 25.9389 14.9723 27 14C25.3504 14.1875 24.25 14.25 23.0069 14.7822C21.7475 15.8888 21 17.3283 21 19.0063Z" fill="url(#paint0_linear_5085_141720)" fill-opacity="0.9"/>
<path d="M20 20.3438C20 16.6138 21.5066 15.5312 21.5066 15.5312C21.5066 15.5312 19.8063 16.686 18.7598 17.6135C17.7133 18.541 16.2141 20.0211 16.2141 20.0211C16.2141 20.0211 16 20.9025 16 22.2175C16 23.2773 16.1909 24.6188 16.6161 26.0076C18.0882 30.8164 23.7173 34.3367 23.7173 34.3367L27 28.8057C27 28.8057 20 26.3438 20 20.3438Z" fill="url(#paint1_linear_5085_141720)" fill-opacity="0.9"/>
<path d="M16.1669 28.3258C15.3748 26.3957 14.628 23 14.628 23C14.628 23 14 24.7579 14 27.4375C14 31.5 15.5625 35.625 18.9375 38.75L21.3125 37.4375C21.3125 37.4375 17.2868 31.0545 16.1669 28.3258Z" fill="url(#paint2_linear_5085_141720)" fill-opacity="0.9"/>
<path fill-rule="evenodd" clip-rule="evenodd" d="M28.0192 34.9515C32.2602 34.9515 36.3053 34.4685 39.7426 33.6739V31.7197C36.6385 32.4748 32.8377 33 28.6562 33C17.6706 33 8 31.2821 8 28.6823C8 27.4596 9.81805 26.7138 13.3641 26V25C7.34375 26 6 27.6789 6 29.5553C6 33.1649 16.2779 34.9515 28.0192 34.9515Z" fill="#3F4398"/>
<path fill-rule="evenodd" clip-rule="evenodd" d="M27.9808 34.9515C23.0942 34.9515 18.4239 34.8954 14.6875 33.875V31.8998C18.0321 32.8654 22.449 33 27.3438 33C38.3294 33 48 30.9123 48 28.3125C48 27.375 46.182 26.7138 42.6359 26V25C48 25.5 50 26.9361 50 28.8125C50 32.4221 39.7221 34.9515 27.9808 34.9515Z" fill="#3F4398"/>
<path fill-rule="evenodd" clip-rule="evenodd" d="M41.9999 14C41.9999 14 36.499 20.9728 31.8237 24.2274C27.2288 27.426 18.9999 29.5938 18.9999 29.5938C23.5312 31 26.8756 31 31.9999 31V32H28.9999V32.9706C28.9999 32.9706 27.6401 33.0534 25.9639 33C20.402 32.75 17.6626 32.5739 13.4822 31.674C13.4822 31.674 13.6612 32.3421 13.826 32.8302C13.9907 33.3184 14.2947 33.9865 14.2947 33.9865C14.2947 33.9865 19.402 35 26.8401 35C32.902 35 39.7499 34.25 41.9374 33.5312C42.2395 32.8459 42.4506 32.161 42.5739 31.4219L40.4999 31.7812C40.4999 31.7812 40.9999 29.5938 40.9999 26.5625C40.9999 23.5312 39.5871 20.9872 39.5871 20.9872C40.72 17.6301 41.9999 14 41.9999 14ZM39.5871 20.9872C39.5871 21.0217 39.5871 21.057 39.5871 21.0932C39.5877 23.3711 39.589 29.0156 37.5895 29.0156C37.0582 29.0156 36.9514 28.6009 36.9645 28.3281C36.9645 27.599 37.5235 26.3327 38.0631 25.1106C38.3791 24.3946 38.6885 23.6938 38.8749 23.125C39.095 22.4535 39.3375 21.727 39.5871 20.9872Z" fill="url(#paint3_linear_5085_141720)"/>
<defs>
<linearGradient id="paint0_linear_5085_141720" x1="31.156" y1="14" x2="31.156" y2="27.4378" gradientUnits="userSpaceOnUse">
<stop offset="0.108364" stop-color="#FFF4FB"/>
<stop offset="0.476341" stop-color="#C4BDDC"/>
<stop offset="1" stop-color="#D9D9D9" stop-opacity="0"/>
</linearGradient>
<linearGradient id="paint1_linear_5085_141720" x1="21.5279" y1="15.5312" x2="21.5279" y2="34.3367" gradientUnits="userSpaceOnUse">
<stop offset="0.252595" stop-color="#FFF4FB"/>
<stop offset="0.925595" stop-color="#D9D9D9" stop-opacity="0"/>
</linearGradient>
<linearGradient id="paint2_linear_5085_141720" x1="16.6709" y1="23.2028" x2="18.8858" y2="38.3018" gradientUnits="userSpaceOnUse">
<stop offset="0.142322" stop-color="#FBEBF6"/>
<stop offset="0.917113" stop-color="#D9D9D9" stop-opacity="0"/>
</linearGradient>
<linearGradient id="paint3_linear_5085_141720" x1="22.4658" y1="24.4448" x2="41.3183" y2="35.8394" gradientUnits="userSpaceOnUse">
<stop stop-color="#FF6F2B"/>
<stop offset="0.309555" stop-color="#FFA165"/>
<stop offset="0.419205" stop-color="white"/>
<stop offset="0.541394" stop-color="#FF732D"/>
<stop offset="0.666967" stop-color="#FF853E"/>
<stop offset="0.745647" stop-color="white"/>
<stop offset="0.789945" stop-color="#FF914E"/>
<stop offset="0.9175" stop-color="#FF732E"/>
</linearGradient>
</defs>
</svg>
