<!-- by TradingView --><svg width="56" height="56" viewBox="0 0 56 56" xmlns="http://www.w3.org/2000/svg"><path fill="#F0F3FA" d="M0 0h56v56H0z"/><path d="M17.5 41C13 41 9 38 9 32.5s3.74-8.5 8.5-8.5H20v5h-2.5c-2.07 0-3.5 1.34-3.5 3.5s1.5 3.55 3.56 3.5c2.08-.05 3.44-1.9 3.44-4V18c0-2.6 2.44-5 5-5v19c.01 4.84-3.34 9-8.5 9Z" fill="#153075"/><path d="M30 23V13c2.6 0 5 2.1 5 4.7V23h-5Zm8.36 1H27v5h11.36c2.17 0 3.64 1.33 3.64 3.5S40.67 36 38.5 36 35 34.67 35 32.5V30h-5v2.5c0 4.76 3.74 8.5 8.5 8.5s8.5-3.87 8.5-8.63C47 27.6 43.12 24 38.36 24Z" fill="#257925"/></svg>