<!-- by TradingView --><svg width="56" height="56" viewBox="0 0 56 56" fill="none" xmlns="http://www.w3.org/2000/svg">
<rect width="56" height="56" fill="#F0F3FA"/>
<path fill-rule="evenodd" clip-rule="evenodd" d="M7.50007 32.4934V30.3H6.65453C6.37791 30.3 6.27769 30.5342 6.2181 30.6735L6.2181 30.6735L6.2181 30.6735L6.2181 30.6735L6.2181 30.6735C6.20401 30.7064 6.1922 30.734 6.18086 30.752C6.17038 30.7672 6.15891 30.7986 6.14601 30.834C6.11949 30.9066 6.08691 30.9959 6.0443 30.9959C6.01497 30.9959 6.00007 30.9681 6.00007 30.9126L6.00006 30.87L6.00007 30L9.50002 30.0025C9.50002 30.0545 9.50043 30.1428 9.5009 30.2449L9.5009 30.2451V30.2452V30.2452V30.2452V30.2452V30.2452V30.2452V30.2452V30.2453V30.2453C9.50211 30.507 9.50374 30.8596 9.50002 30.9258L9.49946 30.9364C9.49725 30.9806 9.49612 31.0032 9.44569 31.0032C9.4242 31.0032 9.40174 30.9471 9.3695 30.8667C9.28753 30.6622 9.14233 30.3 8.78908 30.3H8.00011V32.4918L8.0001 32.5588C8.00008 33.1092 8.00006 33.4574 8.01578 33.6035C8.03502 33.7735 8.16446 33.8671 8.27345 33.8842C8.35599 33.8971 8.43919 33.9041 8.52253 33.905C8.57446 33.905 8.60042 33.9189 8.60042 33.9466C8.60042 33.9813 8.56965 34 8.50762 34C8.4247 34 8.33492 34.0003 8.24275 34.0007C8.05082 34.0014 7.84847 34.0021 7.67583 34H6.94994C6.8783 34 6.85378 33.9829 6.85378 33.9466C6.85378 33.9226 6.88936 33.9066 6.961 33.8997C6.99214 33.8952 7.06976 33.8916 7.13432 33.8886L7.13435 33.8886L7.13437 33.8886C7.16951 33.8869 7.20076 33.8855 7.21855 33.8842C7.29308 33.8671 7.48035 33.7764 7.50007 33.6035C7.50946 33.5115 7.50738 33.3365 7.50434 33.0806V33.0806V33.0806V33.0806V33.0806V33.0806L7.50434 33.0806C7.5024 32.9175 7.50007 32.7216 7.50007 32.4934ZM10.0022 32.8569V32.1673C10.0022 31.8461 10.0011 31.6016 10.0005 31.4485V31.4483V31.4482L10 31.2975C10 31.1758 9.9119 31.098 9.77966 31.0744C9.76144 31.0718 9.7488 31.0697 9.73854 31.0679L9.73854 31.0679C9.71256 31.0635 9.70196 31.0617 9.6551 31.0625C9.59852 31.0625 9.57055 31.0507 9.57055 31.0276C9.57055 31.0044 9.60697 31 9.67981 31L12.0039 31C12.0039 31 12 31.4833 12.0039 31.5471C11.9968 31.5754 11.9805 31.5898 11.9538 31.5898C11.9272 31.5898 11.9168 31.5754 11.9116 31.5471C11.8737 31.341 11.8249 31.3 11.6527 31.3C11.5789 31.2933 11.33 31.2954 11.0663 31.2976L11.0662 31.2976C10.9286 31.2988 10.787 31.3 10.6641 31.3C10.577 31.3 10.5 31.3594 10.5 31.5734V32.2676C10.5 32.2964 10.5313 32.3108 10.5547 32.3108C11.009 32.3108 11.3715 32.3082 11.4479 32.303C11.4915 32.3017 11.535 32.2977 11.5779 32.2912C11.6195 32.2844 11.6575 32.2679 11.6872 32.2439C11.7269 32.21 11.7522 32.1925 11.7665 32.1925C11.7899 32.1925 11.8016 32.2033 11.8016 32.2239C11.8016 32.2239 11.7964 32.2526 11.7867 32.3025C11.7769 32.3622 11.7685 32.4316 11.762 32.5082C11.7483 32.6573 11.7418 32.7448 11.7418 32.771C11.7418 32.8204 11.7269 32.845 11.6969 32.845C11.667 32.845 11.6527 32.8317 11.6527 32.8039C11.65 32.7587 11.6433 32.7137 11.6326 32.6692C11.6057 32.5804 11.5129 32.529 11.3542 32.5149C11.2612 32.5067 10.9332 32.5031 10.5547 32.5031C10.5547 32.5031 10.5 32.5159 10.5 32.5422V33.3449C10.5 33.5859 10.5541 33.6235 10.625 33.6641C10.6893 33.7009 10.9171 33.7005 11.1442 33.7001H11.1442L11.2144 33.7C11.4401 33.7 11.5955 33.6954 11.682 33.6641C11.7977 33.6226 11.8723 33.4838 11.9057 33.3319C11.9152 33.2929 11.9334 33.2733 11.9603 33.2733C11.9863 33.2733 12 33.2965 12 33.3438C12.0015 33.4725 12 34 12 34L9.71875 34C9.64656 34 9.61925 33.9743 9.61925 33.9481C9.61925 33.9301 9.65566 33.9182 9.7285 33.9131C9.74917 33.911 9.76151 33.909 9.77249 33.9072C9.78777 33.9048 9.80041 33.9028 9.82916 33.9013C9.90547 33.8886 9.95338 33.8168 9.97289 33.6858C10 33.5874 10.0026 33.3111 10.0022 32.8569ZM30.3707 32.1673V32.8569C30.3711 33.3111 30.3686 33.5874 30.3414 33.6858C30.3219 33.8168 30.274 33.8886 30.1977 33.9013C30.1703 33.9027 30.1607 33.9046 30.1491 33.9069C30.1399 33.9087 30.1293 33.9108 30.1073 33.9131C30.0345 33.9182 29.9981 33.9301 29.9981 33.9481C29.9981 33.9743 30.0254 34 30.0976 34L32.3685 34C32.3685 34 32.3701 33.4725 32.3685 33.3438C32.3685 33.2965 32.3549 33.2733 32.3289 33.2733C32.302 33.2733 32.2838 33.2929 32.2742 33.3319C32.2409 33.4838 32.1663 33.6226 32.0505 33.6641C31.964 33.6954 31.8086 33.7 31.5829 33.7L31.5127 33.7001C31.2856 33.7005 31.0578 33.7009 30.9936 33.6641C30.9227 33.6235 30.8686 33.5859 30.8686 33.3449V32.5422C30.8686 32.5159 30.9232 32.5031 30.9232 32.5031C31.3017 32.5031 31.6298 32.5067 31.7228 32.5149C31.8814 32.529 31.9742 32.5804 32.0011 32.6692C32.0118 32.7137 32.0185 32.7587 32.0213 32.8039C32.0213 32.8317 32.0356 32.845 32.0655 32.845C32.0954 32.845 32.1104 32.8204 32.1104 32.771C32.1104 32.7448 32.1169 32.6573 32.1305 32.5082C32.137 32.4316 32.1455 32.3622 32.1552 32.3025C32.165 32.2526 32.1702 32.2239 32.1702 32.2239C32.1702 32.2033 32.1585 32.1925 32.1351 32.1925C32.1208 32.1925 32.0954 32.21 32.0557 32.2439C32.026 32.2679 31.988 32.2844 31.9465 32.2912C31.9035 32.2977 31.8601 32.3017 31.8164 32.303C31.7401 32.3082 31.3776 32.3108 30.9232 32.3108C30.8998 32.3108 30.8686 32.2964 30.8686 32.2676V31.5734C30.8686 31.3594 30.9455 31.3 31.0326 31.3C31.1555 31.3 31.2972 31.2988 31.4348 31.2976L31.4348 31.2976C31.6986 31.2954 31.9475 31.2933 32.0213 31.3C32.1935 31.3 32.2422 31.341 32.2801 31.5471C32.2853 31.5754 32.2957 31.5898 32.3224 31.5898C32.3491 31.5898 32.3653 31.5754 32.3725 31.5471C32.3686 31.4833 32.3725 31 32.3725 31L30.1094 31C30.0366 31 30.0001 31.0044 30.0001 31.0276C30.0001 31.0623 30.0818 31.0681 30.1327 31.0717C30.1451 31.0726 30.1556 31.0734 30.1627 31.0744C30.295 31.098 30.3686 31.1758 30.3686 31.2975L30.3691 31.4482C30.3697 31.6013 30.3707 31.8459 30.3707 32.1673ZM14.1777 34C13.6552 34 13.2446 33.8617 12.9459 33.5851C12.6472 33.3084 12.498 32.9315 12.4983 32.4543C12.4983 32.0283 12.6384 31.6795 12.9185 31.4079C13.1987 31.1363 13.5792 31.0003 14.0602 31C14.3304 31.0012 14.5895 31.0444 14.8533 31.0885L14.9435 31.1035C14.9799 31.1035 14.9978 31.1216 14.9978 31.1497C14.9978 31.2131 14.998 31.2912 14.9983 31.3748C14.9988 31.5613 14.9993 31.7756 14.9978 31.918C14.9978 31.9766 14.9785 32 14.9544 32C14.9303 32 14.9185 31.9777 14.9185 31.922C14.9185 31.5156 14.4856 31.2948 14.012 31.3C13.2943 31.3 13 31.7812 13 32.4166C13 33.052 13.4148 33.7009 14.1381 33.7C14.4701 33.7088 14.8475 33.681 14.9185 33.3133C14.928 33.2631 14.9435 33.2369 14.9657 33.2369C14.9879 33.2369 14.9983 33.256 14.9983 33.2942C14.9928 33.3681 14.9838 33.4418 14.9714 33.5147C14.9595 33.6102 14.9421 33.7048 14.9195 33.7981C14.9072 33.8494 14.8713 33.893 14.825 33.9126C14.6887 33.9712 14.473 34.0003 14.1777 34ZM17.4676 32.2631H16.2311C16.1957 32.2631 16.1877 32.1737 16.1877 32.152C16.1877 31.9218 16.1858 31.7373 16.1844 31.5982C16.1829 31.451 16.1819 31.3548 16.1842 31.3098C16.1923 31.152 16.2745 31.0749 16.4262 31.0714C16.468 31.0714 16.4892 31.06 16.4892 31.036C16.4892 31.012 16.4648 31 16.4156 31H15.3874C15.3386 31 15.3137 31.0125 15.3137 31.036C15.3137 31.0595 15.3335 31.0714 15.3736 31.0714C15.5354 31.0672 15.6743 31.1315 15.6842 31.3098C15.6872 31.3623 15.6866 31.485 15.6856 31.6778V31.6778V31.6778V31.6778V31.6779V31.6779V31.6779C15.685 31.8053 15.6842 31.9634 15.6842 32.152V32.8513C15.6842 33.3109 15.6753 33.5929 15.6633 33.6972C15.6495 33.8296 15.6155 33.9026 15.5621 33.9157C15.5266 33.9183 15.4917 33.9225 15.4567 33.9277C15.4051 33.9329 15.3794 33.9449 15.3794 33.9631C15.3794 33.9897 15.3987 34.0033 15.4498 34.0033H16.5076C16.5541 34.0033 16.5776 33.984 16.5776 33.9631C16.5776 33.9423 16.5587 33.9313 16.5214 33.9313C16.4617 33.9306 16.402 33.9254 16.3429 33.9157C16.2646 33.9028 16.2186 33.8314 16.2048 33.7013C16.1931 33.5845 16.1873 33.3012 16.1873 32.8513V32.5014C16.1858 32.4887 16.1968 32.4762 16.208 32.4779H17.5045C17.5121 32.4765 17.5103 32.4816 17.5078 32.4889C17.5066 32.4926 17.5051 32.497 17.5045 32.5014V32.8513C17.5045 33.0318 17.5063 33.185 17.5078 33.3107V33.3107V33.3107V33.3108V33.3108V33.3108L17.5078 33.3109V33.311C17.5101 33.5051 17.5116 33.6339 17.5045 33.6972C17.4903 33.8296 17.4413 33.9026 17.3874 33.9157C17.3525 33.9183 17.3103 33.9225 17.2753 33.9277C17.2243 33.9329 17.1985 33.9449 17.1985 33.9631C17.1985 33.9897 17.221 34.0033 17.2721 34.0033H18.3252C18.3722 34.0033 18.3952 33.984 18.3952 33.9631C18.3952 33.9423 18.3768 33.9313 18.3395 33.9313C18.2796 33.9306 18.2197 33.9254 18.1604 33.9157C18.0822 33.9028 18.0362 33.8314 18.0224 33.7013C18.0107 33.5845 18.0049 33.3012 18.0049 32.8513V32.152C18.0049 31.6781 18.0072 31.3974 18.0118 31.3098C18.0198 31.152 18.0916 31.0749 18.2433 31.0714C18.2852 31.0714 18.3063 31.06 18.3063 31.036C18.3063 31.012 18.2819 31 18.2327 31H17.2859C17.2371 31 17.2123 31.0125 17.2123 31.036C17.2123 31.0595 17.2325 31.0714 17.2721 31.0714C17.434 31.0672 17.4942 31.1316 17.5045 31.3098C17.5073 31.3623 17.5067 31.4849 17.5059 31.6776V31.6778C17.5053 31.8052 17.5045 31.9633 17.5045 32.152C17.5045 32.1745 17.5045 32.2631 17.4676 32.2631ZM19.4001 32.1172V33.433L19.402 33.5136C19.4065 33.7249 19.4097 33.8716 19.4883 33.9062C19.5173 33.919 19.5354 33.9198 19.5664 33.9211C19.5847 33.9219 19.6074 33.9228 19.6395 33.9266C19.7102 33.9371 19.7455 33.9496 19.7455 33.9647C19.7455 33.9903 19.7186 34.0033 19.6641 34.0033H18.7227C18.6706 34.0033 18.6445 33.9903 18.6445 33.9647C18.6445 33.9471 18.6752 33.9356 18.7376 33.9306C18.7491 33.9291 18.7609 33.9281 18.7726 33.927C18.829 33.922 18.8853 33.9169 18.9214 33.8674C19.0001 33.8008 19.0019 33.5115 19.0001 33.3799V31.0018C19.0001 31.0018 19.0706 31 19.0994 31C19.1224 31 19.1532 31.0365 19.1996 31.0914C19.2115 31.1054 19.2243 31.1206 19.2383 31.1367C19.8035 31.7911 21.0001 33.0156 21.0001 33.0156V31.5001C21 31.4691 21.0004 31.4304 21.0008 31.3884V31.3884V31.3884V31.3883V31.3883V31.3882C21.0013 31.3421 21.0018 31.2921 21.0018 31.2441C20.9782 31.0969 20.8384 31.0632 20.7097 31.0705C20.6721 31.0705 20.653 31.059 20.653 31.0364C20.653 31.0139 20.6837 31.0018 20.746 31.0018H21.5982C21.6526 31.0018 21.6796 31.0134 21.6796 31.0364C21.6796 31.0595 21.6587 31.0705 21.6159 31.0705C21.4978 31.0705 21.4258 31.1127 21.4001 31.1969L21.4 31.2736C21.3999 31.3402 21.3998 31.4192 21.4001 31.4685V33.9973H21.2422C21.2422 33.9973 21.2182 33.9692 21.1638 33.913C20.521 33.2274 19.4001 32.1172 19.4001 32.1172ZM22.3456 33.5027C22.6172 33.8342 22.9954 34 23.4803 34C23.9379 34 24.3074 33.8483 24.5889 33.5449C24.863 33.2515 25.0001 32.8803 25.0001 32.4312C25.0004 31.9928 24.8671 31.6447 24.6 31.3868C24.333 31.1289 23.972 31 23.5169 31C23.0127 31.0003 22.6223 31.1688 22.3456 31.5054C22.1169 31.7804 22.0001 32.134 22.0005 32.498C22.0001 32.8659 22.1151 33.2239 22.3456 33.5027ZM24.4 32.5728C24.4 33.2863 24.1875 33.8 23.6341 33.8C22.9063 33.8 22.6 33.0481 22.6 32.3794C22.6 31.7866 22.8906 31.2 23.4099 31.2C24.1719 31.2 24.4 31.8594 24.4 32.5728ZM25.7726 33.487L26.194 30.135C26.2052 30.045 26.2292 30 26.2661 30C26.3001 30 26.3387 30.0526 26.3812 30.1593L27.5429 33.0618L28.7008 30.1255C28.732 30.0432 28.7633 30.0027 28.7946 30.0027C28.8259 30.0027 28.8567 30.0553 28.8712 30.162L29.2584 33.3392C29.2689 33.4658 29.2933 33.5902 29.3311 33.7091C29.3436 33.7441 29.3623 33.7754 29.386 33.8008C29.4097 33.8261 29.4377 33.8448 29.468 33.8556C29.5535 33.8883 29.6426 33.9056 29.7323 33.9069C29.7776 33.9069 29.7999 33.919 29.7999 33.9433C29.7999 33.9811 29.7627 34 29.6882 34H28.7932C28.7008 34 28.6593 33.969 28.6593 33.9379C28.6593 33.9069 28.7158 33.8697 28.7455 33.8556C28.7751 33.8414 28.7829 33.7685 28.7689 33.6348L28.5136 31.4922H28.4968L27.5681 33.7111C27.4936 33.9033 27.4412 33.9996 27.411 34C27.3859 34 27.3362 33.9136 27.2624 33.7422C26.9927 33.1207 26.8295 32.7308 26.7729 32.5724C26.7287 32.4565 26.677 32.3304 26.6152 32.1791L26.6151 32.1791C26.5415 31.9992 26.4534 31.7838 26.3457 31.5076H26.3284L26.0895 33.4755C26.0809 33.5557 26.0766 33.6364 26.0766 33.7172C26.0766 33.8029 26.1191 33.8576 26.2046 33.8812C26.263 33.898 26.3228 33.9066 26.3829 33.9069C26.4259 33.9069 26.4471 33.919 26.4471 33.9433C26.4471 33.9811 26.413 34 26.3449 34H25.4765C25.4256 34 25.3999 33.9811 25.3999 33.9433C25.3999 33.919 25.4228 33.9069 25.4681 33.9069C25.5109 33.9073 25.5536 33.9023 25.5955 33.892C25.6832 33.8711 25.7413 33.7361 25.7726 33.487ZM33.5 32.1374V32.8274C33.5 33.0054 33.5018 33.1564 33.5033 33.2804C33.5055 33.473 33.5071 33.6004 33.4999 33.6626C33.4809 33.8277 33.4032 33.8634 33.3125 33.8828C33.2494 33.8963 33.1927 33.9061 33.1453 33.9142L33.1453 33.9142C33.0526 33.9301 32.9955 33.9399 32.9955 33.96C32.9955 33.9862 33.0132 33.9996 33.0625 33.9996H34.4334C35.2839 33.9996 35.9999 33.4606 35.9999 32.4431C35.9999 31.7496 35.5512 31.1996 34.9433 31.0558C34.6414 30.9993 34.3284 30.9981 34.0151 30.9996C33.7742 31.0008 33.3771 31.0008 33.1218 31.0008H33.1215L33.0742 31.0008C33.0253 31.0008 33.0006 31.0131 33.0006 31.0363C33.0006 31.0594 33.0196 31.0713 33.0575 31.0713C33.2148 31.067 33.4909 31.1331 33.5 31.3064C33.5027 31.3582 33.5021 31.4792 33.5013 31.6693V31.6694V31.6695V31.6696V31.6697C33.5007 31.7954 33.5 31.9513 33.5 32.1374ZM34 32.5686V32.0746C34.0002 31.895 33.9995 31.78 33.999 31.6974V31.6973V31.6971V31.697C33.9984 31.5937 33.9981 31.5412 34 31.4762C34 31.3352 34.1547 31.2996 34.2671 31.2996C34.6679 31.2996 34.9185 31.3162 35.1536 31.5776C35.3684 31.8177 35.5037 32.1436 35.5037 32.5552C35.5033 33.2552 35.1758 33.6996 34.4334 33.6996C34.1702 33.6996 34 33.609 34 33.3605C33.9971 33.2892 33.9978 33.1625 33.9987 32.9803C33.9993 32.8652 34 32.728 34 32.5686ZM36.7415 32.8489V32.1504C36.7415 31.9619 36.7422 31.804 36.7428 31.6767V31.6764C36.7436 31.484 36.7442 31.3615 36.7415 31.3091C36.7348 31.1825 36.6194 31.108 36.5488 31.0871C36.5225 31.0797 36.4934 31.0771 36.4665 31.0747C36.4156 31.0701 36.3729 31.0663 36.3729 31.0314C36.3729 31.0048 36.4 30.9996 36.4542 30.9996L37.5562 30.9997C37.6006 30.9997 37.6273 31.0101 37.6273 31.0314C37.6273 31.0635 37.5824 31.0686 37.5324 31.0743C37.5128 31.0766 37.4924 31.0789 37.4736 31.083C37.3981 31.0991 37.2482 31.1742 37.2415 31.3091C37.2388 31.3618 37.2394 31.4844 37.2402 31.6769V31.677C37.2408 31.8043 37.2415 31.9621 37.2415 32.1504V32.8489V33.7178C37.2504 33.834 37.3159 33.8991 37.3959 33.9121C37.4525 33.9218 37.5096 33.9271 37.5669 33.9278C37.6024 33.9278 37.6202 33.9387 37.6202 33.9595C37.6202 33.9804 37.5988 33.9997 37.5562 33.9997H36.4408C36.3915 33.9997 36.3728 33.9861 36.3728 33.9595C36.3728 33.9289 36.4655 33.9186 36.5487 33.9121C36.6029 33.8991 36.7322 33.8335 36.7415 33.7158C36.7472 33.6439 36.7459 33.5083 36.7441 33.3091V33.309V33.3089C36.7429 33.1816 36.7415 33.0282 36.7415 32.8489ZM38.8138 33H39.68C39.6985 32.9989 39.7165 33.0241 39.7213 33.0414L40.0361 33.8373C40.0524 33.8833 40.0127 33.9127 39.9704 33.9258C39.9332 33.9284 39.9063 33.942 39.9063 33.9603C39.9063 33.996 39.9664 33.9976 40.0364 33.9993C40.0442 33.9995 40.0521 33.9997 40.0601 34C40.1792 33.9981 40.334 33.9984 40.5246 33.9988C40.6141 33.999 40.7116 33.9992 40.817 33.9992C40.8649 34.0007 40.9128 33.998 40.9603 33.9911C40.9864 33.9861 41 33.9805 41 33.9603C41 33.94 40.9822 33.9294 40.9477 33.9294C40.8915 33.9301 40.8354 33.925 40.7804 33.9142C40.658 33.8882 40.5412 33.7482 40.43 33.4941C40.0154 32.5094 39.6861 31.7189 39.442 31.1226C39.4044 31.0406 39.374 30.9996 39.3421 30.9996C39.3102 30.9996 39.2731 31.0503 39.2307 31.1515L38.2308 33.573C38.1998 33.6586 38.1555 33.7392 38.0995 33.8119C38.0737 33.8423 38.0419 33.8675 38.006 33.886C37.9701 33.9045 37.9308 33.916 37.8903 33.9198C37.8492 33.9251 37.8078 33.9277 37.7664 33.9274C37.735 33.9274 37.7188 33.9324 37.7188 33.9582C37.7188 33.984 37.7423 33.9972 37.7946 33.9972H38.7458C38.7907 33.9972 38.8138 33.9785 38.8138 33.9582C38.8138 33.938 38.7934 33.9274 38.7536 33.9274H38.694C38.5868 33.9274 38.5345 33.8879 38.5345 33.8079C38.5409 33.7269 38.5612 33.6475 38.5946 33.573L38.7782 33.043C38.786 33.0227 38.7981 33 38.8138 33ZM39.573 32.7981H38.9007H38.8987C38.8824 32.7981 38.8772 32.789 38.8809 32.7707L39.2135 31.8828C39.2187 31.8595 39.2297 31.8479 39.2375 31.8479C39.2454 31.8479 39.2522 31.8595 39.2574 31.8828L39.5929 32.7748C39.5986 32.79 39.5918 32.7981 39.573 32.7981Z" fill="#003D7A"/>
<path fill-rule="evenodd" clip-rule="evenodd" d="M44 23H5V29H44V23ZM7.5 25.1523V26.8477L7.5002 27.2953V27.2953C7.50034 27.4695 7.50042 27.5773 7.5 27.6479C7.5 27.8503 7.28512 27.8924 7.20448 27.9082L7.20447 27.9082C7.1963 27.9098 7.1895 27.9112 7.18445 27.9124C7.10021 27.9188 7 27.9291 7 27.9598C7 27.9864 7.02524 28 7.07516 28H8.42804C8.47122 28 8.4928 27.9807 8.4928 27.9598C8.4928 27.939 8.47481 27.928 8.43883 27.928C8.38088 27.9273 8.32303 27.9221 8.26568 27.9124C8.18473 27.8993 8 27.8357 8 27.6714V26.8477V25.1523C8 24.9637 7.99929 24.8057 7.99871 24.6783V24.6783V24.6783C7.99785 24.4854 7.99729 24.3626 8 24.3099C8.0007 24.1747 8.26793 24.0996 8.34439 24.0835C8.3634 24.0794 8.38407 24.077 8.40393 24.0748C8.45454 24.0691 8.5 24.0639 8.5 24.0318C8.5 24.0104 8.47301 24 8.42804 24H7.09098C7.03611 24 7 24.0052 7 24.0318C7 24.0666 7.04663 24.0706 7.10049 24.0751C7.12919 24.0775 7.15994 24.0801 7.18678 24.0876L7.20283 24.0921C7.2888 24.1158 7.5 24.1741 7.5 24.3935C7.50264 24.4447 7.50218 24.5338 7.50135 24.6947C7.50077 24.8078 7.5 24.9564 7.5 25.1523ZM19.5486 27.9991C19.263 28.0071 18.9786 27.9621 18.7103 27.8666C18.6748 27.8537 18.6447 27.8295 18.625 27.798C18.6052 27.7665 18.5968 27.7295 18.6013 27.6928C18.6013 27.5095 18.6109 27.2867 18.6301 27.0242C18.6374 26.9357 18.6606 26.8917 18.699 26.8917C18.7375 26.8917 18.7556 26.9208 18.7556 26.9786C18.7592 27.0678 18.7771 27.1559 18.8087 27.2398C18.9217 27.5836 19.1953 27.7 19.6294 27.7C19.9742 27.7 20.3961 27.5854 20.3981 27.1738C20.3981 26.8911 20.2097 26.6188 19.8329 26.3567L19.5689 26.173C19.0037 25.7782 18.7211 25.375 18.7211 24.9633C18.72 24.8272 18.7532 24.693 18.8177 24.5722C18.8822 24.4514 18.9762 24.3479 19.0913 24.2705C19.3358 24.0902 19.6561 24 20.0522 24C20.309 24.0008 20.565 24.0298 20.8152 24.0863C20.8717 24.1001 20.8955 24.1204 20.8955 24.1479C20.8955 24.1443 20.8945 24.1607 20.8923 24.1963L20.8923 24.1965L20.8842 24.3288C20.8763 24.4547 20.8729 24.6004 20.8729 24.7604C20.8729 24.8622 20.852 24.9133 20.8096 24.9133C20.7672 24.9133 20.753 24.8831 20.753 24.8215C20.7334 24.407 20.3246 24.2995 19.9781 24.3C19.5245 24.3 19.0545 24.6554 19.4191 25.0953C19.505 25.2027 19.6648 25.3347 19.8984 25.4912L20.059 25.5979C20.403 25.8296 20.646 26.0431 20.7881 26.2385C20.9282 26.4313 21.0024 26.6621 21 26.8983C21 27.675 20.3203 27.9991 19.5486 27.9991ZM26.7 26.8491V26.1509C26.7 25.9626 26.7007 25.8048 26.7014 25.6775V25.6773V25.6772V25.6771V25.677V25.6768V25.6767V25.6766V25.6765V25.6764V25.6763V25.6762C26.7023 25.4843 26.703 25.3621 26.7 25.3095C26.7 25.1824 26.6154 25.1068 26.5141 25.0834C26.4647 25.0739 26.4146 25.0699 26.3644 25.0714C26.3215 25.0714 26.3 25.0594 26.3 25.0354C26.3 25.012 26.328 25 26.3834 25H27.4401C27.8968 25 28.4617 25.2422 28.4617 25.8203C28.4617 26.1298 28.3047 26.456 27.9812 26.6032C28.2569 26.9682 28.4089 27.1667 28.4372 27.1987C28.4818 27.257 28.5223 27.3113 28.5598 27.3616C28.6464 27.4778 28.7172 27.5728 28.7859 27.6467L28.8007 27.6628C28.9306 27.8042 29.0084 27.8888 29.1479 27.9166L29.2352 27.925C29.2786 27.9302 29.3 27.9422 29.3 27.9604C29.3 27.987 29.2756 28 29.2277 28H28.8645C28.6826 28 28.547 27.975 28.4579 27.925C28.3335 27.8555 28.16 27.661 27.9375 27.3414C27.8284 27.1799 27.703 26.9974 27.5613 26.7938C27.544 26.7744 27.5183 26.7638 27.493 26.7657H27.2429C27.2041 26.764 27.2 26.8259 27.2 26.8491C27.2 27.2958 27.2056 27.5769 27.2182 27.6926C27.2339 27.8263 27.2838 27.8986 27.3679 27.9093C27.4296 27.9186 27.4917 27.9238 27.554 27.925C27.5845 27.925 27.5999 27.9354 27.5999 27.9567C27.5999 27.9781 27.5745 27.9963 27.5236 27.9963H26.4382C26.3884 27.9963 26.3624 27.9833 26.3624 27.9567C26.3624 27.9385 26.3904 27.9265 26.4462 27.9213C26.4841 27.9156 26.5221 27.9119 26.56 27.9093C26.6184 27.8958 26.6553 27.8234 26.6702 27.691C26.6802 27.5886 26.7 27.3079 26.7 26.8491ZM27.2 25.3856V26.3846C27.2 26.4247 27.2114 26.4482 27.2344 26.456L27.2568 26.4632C27.3335 26.4882 27.3677 26.4993 27.457 26.4961C27.8245 26.4961 27.9515 26.2214 27.9515 25.8906C27.9515 25.5429 27.7612 25.2977 27.3672 25.3C27.2602 25.3 27.2425 25.3134 27.2242 25.3272C27.2217 25.3291 27.2192 25.331 27.2164 25.3329C27.2029 25.345 27.1964 25.3647 27.2 25.3829V25.3856ZM30.5001 26.8444V26.1466C30.5001 25.9589 30.4993 25.8016 30.4987 25.6748C30.4978 25.4829 30.4972 25.3607 30.5001 25.3082C30.5001 25.1719 30.6198 25.0986 30.7256 25.083C30.7861 25.0743 30.8473 25.0703 30.9087 25.0711C30.9642 25.0711 31.0001 25.0586 31.0001 25.0353C31.0001 25.0119 30.9593 25 30.8946 25H29.6808C29.6124 25 29.6001 25.0114 29.6001 25.0353C29.6001 25.0591 29.6045 25.0711 29.6576 25.0711C29.8276 25.0599 30.0001 25.1172 30.0001 25.3082C30.0001 25.3344 29.9999 25.378 29.9995 25.4389C29.9988 25.5807 29.9975 25.8164 29.9975 26.146V26.8413C29.9975 27.2988 29.9898 27.5795 29.9743 27.6833C29.9467 27.8758 29.8923 27.892 29.7222 27.9126C29.6545 27.9178 29.6001 27.9297 29.6001 27.9479C29.6001 27.9743 29.6447 28 29.7131 28H31.8345C32.0058 28 32.0002 27.4819 31.9985 27.3297L31.9983 27.3047C31.9983 27.2601 31.9855 27.2378 31.9611 27.2378C31.933 27.2378 31.9159 27.2575 31.9098 27.2969C31.8655 27.7027 31.6646 27.7018 31.3279 27.7002L31.2614 27.7C31.0124 27.7 30.5443 27.6833 30.5196 27.4336C30.5103 27.3388 30.5001 27.1422 30.5001 26.8444ZM39.7001 27.2702V27.6909C39.7001 27.7647 39.666 27.8184 39.6328 27.8359C39.419 27.9511 39.1339 28.0009 38.742 28.0006C38.2414 28.0006 37.8354 27.882 37.5241 27.6447C37.1745 27.3796 36.9999 26.9986 37.0002 26.5016C36.9956 26.2294 37.0641 25.9611 37.1985 25.7254C37.3083 25.5304 37.4657 25.3671 37.6555 25.251C37.9271 25.0837 38.2657 25 38.6711 25C38.8962 24.9994 39.1208 25.0207 39.3418 25.0638C39.4399 25.0841 39.5392 25.0982 39.6392 25.1059C39.6743 25.1059 39.6922 25.1235 39.6922 25.1516C39.6832 25.2013 39.6788 25.2517 39.6788 25.3022C39.6699 25.4247 39.6654 25.584 39.6654 25.7802C39.6654 25.8339 39.6515 25.8605 39.6238 25.8605C39.604 25.8605 39.5911 25.8439 39.5861 25.8103C39.5476 25.3 38.8604 25.3 38.6184 25.3H38.6161C38.1406 25.3 37.5 25.5906 37.5 26.367C37.5 26.7847 37.6419 27.1284 37.8835 27.3982C38.1251 27.6679 38.4421 27.7 38.8347 27.7C39.2292 27.7 39.2288 27.5542 39.2278 27.2302L39.2277 27.1797C39.2277 26.9615 39.2264 26.8948 39.2238 26.8118C39.2238 26.6898 39.1673 26.617 39.0612 26.5944C39.0121 26.5856 38.9623 26.5817 38.9125 26.5829C38.8748 26.5829 38.856 26.5729 38.856 26.5523C38.856 26.5317 38.8823 26.5141 38.9353 26.5141H39.9247C39.9678 26.5141 40 26.5267 40 26.5523C40 26.5779 39.9851 26.5829 39.9559 26.5829C39.9194 26.5837 39.8831 26.5876 39.8473 26.5944C39.7551 26.612 39.7071 26.6848 39.7021 26.8123C39.7011 26.8931 39.7001 27.0458 39.7001 27.2702ZM24.0024 26.1673V26.8569C24.0028 27.3111 24.0002 27.5874 23.9731 27.6858C23.9536 27.8168 23.9057 27.8886 23.8294 27.9013C23.78 27.9038 23.7305 27.908 23.6811 27.9131C23.6083 27.9182 23.5719 27.9301 23.5719 27.9481C23.5719 27.9743 23.5992 28 23.6714 28L26.0002 28C26.0002 28 26.0018 27.4725 26.0002 27.3438C26.0002 27.2965 25.9866 27.2733 25.9605 27.2733C25.9337 27.2733 25.9155 27.2929 25.9059 27.3319C25.8725 27.4838 25.798 27.6226 25.6822 27.6641C25.5957 27.6954 25.4403 27.7 25.2146 27.7L25.1444 27.7001C24.9173 27.7005 24.6895 27.7009 24.6252 27.6641C24.5544 27.6235 24.5002 27.5859 24.5002 27.3449V26.5422C24.5002 26.5159 24.5549 26.5031 24.5549 26.5031C24.9334 26.5031 25.2614 26.5067 25.3544 26.5149C25.5131 26.529 25.6059 26.5804 25.6328 26.6692C25.6435 26.7137 25.6502 26.7587 25.6529 26.8039C25.6529 26.8317 25.6672 26.845 25.6972 26.845C25.7271 26.845 25.742 26.8204 25.742 26.771C25.742 26.7448 25.7485 26.6573 25.7622 26.5082C25.7687 26.4316 25.7772 26.3622 25.7869 26.3025C25.7967 26.2526 25.8019 26.2239 25.8019 26.2239C25.8019 26.2033 25.7902 26.1925 25.7668 26.1925C25.7524 26.1925 25.7271 26.21 25.6874 26.2439C25.6577 26.2679 25.6197 26.2844 25.5781 26.2912C25.5352 26.2977 25.4917 26.3017 25.4481 26.303C25.3718 26.3082 25.0093 26.3108 24.5549 26.3108C24.5315 26.3108 24.5002 26.2964 24.5002 26.2676V25.5734C24.5002 25.3594 24.5772 25.3 24.6643 25.3C24.7872 25.3 24.9287 25.2988 25.0663 25.2976L25.0665 25.2976L25.0665 25.2976C25.3302 25.2954 25.5791 25.2933 25.6529 25.3C25.8252 25.3 25.8739 25.341 25.9118 25.5471C25.917 25.5754 25.9274 25.5898 25.9541 25.5898C25.9807 25.5898 25.997 25.5754 26.0042 25.5471C26.0002 25.4833 26.0042 25 26.0042 25L23.6095 25C23.5367 25 23.5002 25.0044 23.5002 25.0276C23.5002 25.0507 23.5282 25.0625 23.5848 25.0625C23.6502 25.0614 23.7155 25.0653 23.7799 25.0744C23.9121 25.098 24.0002 25.1758 24.0002 25.2975L24.0007 25.4482C24.0014 25.6013 24.0024 25.8459 24.0024 26.1673ZM9.39723 26.1172V27.433L9.39912 27.5136C9.40369 27.7249 9.40687 27.8716 9.48545 27.9062C9.51444 27.919 9.53256 27.9198 9.56356 27.9211H9.56357C9.58183 27.9219 9.60457 27.9228 9.63664 27.9266C9.70733 27.9371 9.74268 27.9496 9.74268 27.9647C9.74268 27.9903 9.71571 28.0033 9.66129 28.0033H8.71984C8.66774 28.0033 8.6001 27.9903 8.6001 27.9647C8.6001 27.9471 8.6724 27.9356 8.73472 27.9306C8.74629 27.9291 8.75803 27.9281 8.76977 27.927C8.82613 27.922 8.8824 27.9169 8.91853 27.8674C8.99723 27.8008 8.99905 27.5115 8.99723 27.3799V25.0018C8.99723 25.0018 9.06772 25 9.09656 25C9.11954 25 9.15038 25.0365 9.1968 25.0914L9.19682 25.0914L9.19685 25.0915C9.20866 25.1055 9.22149 25.1206 9.23545 25.1367C9.80066 25.7911 10.9972 27.0156 10.9972 27.0156V25.5001C10.9972 25.4691 10.9976 25.4304 10.998 25.3885V25.3884C10.9985 25.3423 10.999 25.2922 10.999 25.2441C10.9754 25.0969 10.8355 25.0632 10.7069 25.0705C10.6692 25.0705 10.6501 25.059 10.6501 25.0364C10.6501 25.0139 10.6808 25.0018 10.7432 25.0018H11.5954C11.6498 25.0018 11.7 25.0134 11.7 25.0364C11.7 25.0595 11.6558 25.0705 11.6131 25.0705C11.4949 25.0705 11.423 25.1127 11.3973 25.1969L11.3972 25.2739V25.2739V25.2739V25.2739V25.274V25.274V25.2741V25.2741C11.3971 25.3407 11.397 25.4194 11.3973 25.4685V27.9973H11.2394C11.2394 27.9973 11.2154 27.9692 11.1609 27.913C10.5181 27.2274 9.39723 26.1172 9.39723 26.1172ZM34.4048 27.433V26.1172C34.4048 26.1172 35.5257 27.2274 36.1685 27.913C36.2229 27.9692 36.2469 27.9973 36.2469 27.9973H36.4048V25.4685C36.4046 25.4193 36.4047 25.3405 36.4047 25.2739L36.4048 25.1969C36.4306 25.1127 36.5025 25.0705 36.6206 25.0705C36.6634 25.0705 36.7001 25.0595 36.7001 25.0364C36.7001 25.0134 36.6574 25.0018 36.603 25.0018H35.7507C35.6884 25.0018 35.6577 25.0139 35.6577 25.0364C35.6577 25.059 35.6768 25.0705 35.7145 25.0705C35.8431 25.0632 35.983 25.0969 36.0065 25.2441C36.0065 25.2921 36.006 25.3421 36.0056 25.3882V25.3882V25.3883V25.3883V25.3884V25.3884V25.3884C36.0051 25.4304 36.0047 25.4691 36.0048 25.5001V27.0156C36.0048 27.0156 34.8082 25.7911 34.243 25.1367C34.2291 25.1207 34.2163 25.1055 34.2045 25.0916L34.2044 25.0915L34.2044 25.0914L34.2044 25.0914C34.1579 25.0365 34.1271 25 34.1041 25C34.0753 25 34.0048 25.0018 34.0048 25.0018V27.3799C34.0066 27.5115 34.0048 27.8008 33.9261 27.8674C33.89 27.9169 33.8337 27.922 33.7773 27.927C33.7701 27.9277 33.7628 27.9283 33.7556 27.9291C33.7511 27.9295 33.7467 27.93 33.7423 27.9306C33.68 27.9356 33.6001 27.9471 33.6001 27.9647C33.6001 27.9903 33.6432 28.0033 33.6953 28.0033H34.6689C34.7233 28.0033 34.7502 27.9903 34.7502 27.9647C34.7502 27.9496 34.7149 27.9371 34.6442 27.9266C34.6121 27.9228 34.5894 27.9219 34.5711 27.9211C34.5401 27.9198 34.522 27.919 34.493 27.9062C34.4144 27.8716 34.4113 27.7249 34.4067 27.5137V27.5136L34.4048 27.433ZM16.8755 28C16.3906 28 16.0124 27.8342 15.7409 27.5027C15.5103 27.2239 15.3953 26.8659 15.3958 26.498C15.3953 26.134 15.5121 25.7804 15.7409 25.5054C16.0176 25.1688 16.408 25.0003 16.9122 25C17.3672 25 17.7282 25.1289 17.9953 25.3868C18.2623 25.6447 18.3957 25.9928 18.3953 26.4312C18.3953 26.8803 18.2583 27.2515 17.9842 27.5449C17.7027 27.8483 17.3331 28 16.8755 28ZM17.0293 27.8C17.5828 27.8 17.7953 27.2863 17.7953 26.5728C17.7953 25.8594 17.5671 25.2 16.8052 25.2C16.2859 25.2 15.9953 25.7866 15.9953 26.3794C15.9953 27.0481 16.3015 27.8 17.0293 27.8ZM12.5046 26.1396V26.8296C12.5046 27.0076 12.5064 27.1585 12.5079 27.2825V27.2825V27.2826C12.5102 27.4752 12.5117 27.6026 12.5045 27.6648C12.4855 27.8299 12.4078 27.8656 12.3171 27.885C12.254 27.8985 12.1973 27.9083 12.1499 27.9164L12.1499 27.9164C12.0572 27.9323 12.0001 27.9421 12.0001 27.9622C12.0001 27.9884 12.0178 28.0018 12.0671 28.0018H13.438C14.2885 28.0018 15.0046 27.4628 15.0046 26.4453C15.0046 25.7518 14.5558 25.2018 13.948 25.058C13.646 25.0015 13.333 25.0003 13.0197 25.0018C12.7788 25.003 12.3818 25.003 12.1265 25.003H12.1264H12.1264H12.1264H12.1262L12.0789 25.003C12.0299 25.003 12.0053 25.0153 12.0053 25.0385C12.0053 25.0616 12.0242 25.0735 12.0621 25.0735C12.2195 25.0692 12.4955 25.1353 12.5046 25.3086C12.5073 25.3605 12.5068 25.4815 12.5059 25.6717V25.6718V25.6719V25.672V25.6721C12.5053 25.7978 12.5046 25.9536 12.5046 26.1396ZM13.0046 26.5708V26.0768C13.0048 25.8971 13.0041 25.7821 13.0036 25.6995V25.6994V25.6994V25.6993V25.6993C13.003 25.5959 13.0027 25.5434 13.0046 25.4784C13.0046 25.3374 13.1593 25.3018 13.2717 25.3018C13.6725 25.3018 13.9231 25.3184 14.1582 25.5798C14.373 25.8199 14.5084 26.1458 14.5084 26.5574C14.5079 27.2573 14.1804 27.7018 13.438 27.7018C13.1748 27.7018 13.0046 27.6112 13.0046 27.3627C13.0018 27.2914 13.0024 27.1647 13.0034 26.9825V26.9825V26.9825V26.9825L13.0034 26.9821C13.0039 26.8671 13.0046 26.73 13.0046 26.5708ZM32.5025 26.8493V26.1507C32.5025 25.9622 32.5032 25.8043 32.5037 25.677V25.6768C32.5046 25.4843 32.5052 25.3619 32.5025 25.3094C32.4958 25.1829 32.3804 25.1084 32.3098 25.0875C32.2834 25.08 32.2543 25.0774 32.2275 25.0751C32.1766 25.0705 32.1339 25.0667 32.1339 25.0318C32.1339 25.0052 32.161 25 32.2152 25L33.3172 25C33.3616 25 33.3882 25.0104 33.3882 25.0318C33.3882 25.0638 33.3433 25.069 33.2934 25.0747C33.2738 25.0769 33.2533 25.0793 33.2346 25.0834C33.1591 25.0995 33.0091 25.1745 33.0025 25.3094C32.9998 25.3621 33.0004 25.4846 33.0012 25.6769V25.6771V25.6772V25.6774C33.0018 25.8046 33.0025 25.9624 33.0025 26.1507V26.8493V27.7182C33.0114 27.8344 33.0769 27.8995 33.1568 27.9125C33.2135 27.9222 33.2706 27.9274 33.3278 27.9281C33.3634 27.9281 33.3811 27.9391 33.3811 27.9599C33.3811 27.9807 33.3598 28 33.3172 28H32.2017C32.1524 28 32.1338 27.9865 32.1338 27.9599C32.1338 27.9292 32.2265 27.9189 32.3097 27.9125C32.3638 27.8995 32.4932 27.8338 32.5025 27.7161C32.5082 27.6443 32.5069 27.5087 32.5051 27.3094V27.3093V27.3093V27.3093V27.3093C32.5039 27.1819 32.5025 27.0286 32.5025 26.8493ZM22.0047 26.5254L22.0048 25.299L21.5547 25.2991C21.2763 25.2991 21.2287 25.455 21.202 25.5424C21.1916 25.5764 21.1844 25.6 21.168 25.6C21.1386 25.6 21.1329 25.5665 21.1329 25.5121L21.1329 25.4759L21.1329 25.0048L22.3001 25.006L23.4 25.0072V25.4531C23.4 25.5434 23.4 25.5954 23.3769 25.5954C23.3569 25.5954 23.3474 25.575 23.3334 25.5448C23.2942 25.4601 23.2196 25.299 22.7781 25.299H22.5048L22.5048 26.5238L22.5048 26.5895C22.5047 27.1294 22.5047 27.471 22.5204 27.6143C22.5441 27.8193 22.7362 27.9081 22.9212 27.9101C22.9731 27.9101 22.9991 27.9237 22.9991 27.951C22.9991 27.985 22.9683 28.0033 22.9062 28.0033C22.8195 28.0033 22.7374 28.0037 22.6569 28.004C22.5002 28.0047 22.3493 28.0053 22.1805 28.0033H21.6094C21.5377 28.0033 21.5132 27.9866 21.5132 27.951C21.5132 27.9274 21.5488 27.9117 21.6204 27.9049C21.7929 27.8805 22.0047 27.8447 22.0047 27.6143V26.5254Z" fill="#003D7A"/>
<path d="M45.5 21L44.6151 26.6971L41.4 24L43.257 27.5625L38 28.5L43.257 29.6L41.4 33L44.6151 30.3L45.5 36L46.4375 30.3L49.6 33L47.6028 29.6L53 28.5L47.6028 27.6L49.6 24L46.4375 26.6971L45.5 21Z" fill="#D0C3AA"/>
<path fill-rule="evenodd" clip-rule="evenodd" d="M45.5 21V28.5L45.4953 28.5022L45.4942 28.5L45.5 28.5L45.4927 28.4969L44.6094 26.7031L41.3908 23.9844L45.4826 28.4926L43.2812 27.5625L38 28.5099L45.4893 28.5L45.4925 28.5036L43.2344 29.5781L41.4046 33L45.4946 28.5059L45.496 28.5075L44.5469 30.2969L45.5 36V28.5118L45.5001 28.5119L45.5 28.5118V28.5L47.6016 27.6094L49.6 24L45.5 28.5L46.4531 26.7031L45.5 21ZM45.5 28.5L45.497 28.5057L45.4962 28.5041L45.5 28.5ZM53 28.4901L45.5 28.5L45.5061 28.5032L46.4218 30.3438L49.6 33.0001L45.5086 28.5045L47.6094 29.6094L53 28.4901Z" fill="#988F81"/>
</svg>
