<!-- by TradingView --><svg width="56" height="56" viewBox="0 0 56 56" fill="none" xmlns="http://www.w3.org/2000/svg">
<rect width="56" height="56" fill="#F0F3FA"/>
<path fill-rule="evenodd" clip-rule="evenodd" d="M41.9688 25H44.1818C45.0148 25 45.5088 25.3574 45.7652 25.778C45.9095 26.0147 45.9989 26.3236 46 26.6C46 26.6059 45.0301 26.5857 45.0303 26.6C45.013 26.1747 44.5673 26 44.1818 26H41.875C41.5032 26 41.1832 26.3571 41.2 26.6911C41.2189 27.0657 41.3906 27.5 41.9688 27.5C43.1056 27.5 43.022 27.5 44.1262 27.5C45.2304 27.5 46 28.1553 46 29.2031C46 30.124 45.3353 31 44.3636 31H41.5758C41.207 31 40.8995 30.898 40.6565 30.7224C40.2225 30.4088 40.0029 29.9153 40 29.4C40 29.3945 41 29.4048 41 29.4C41 29.8271 41.2248 30 41.5758 30H44.1818C44.8438 30 45 29.5 45 29.2031C45 28.6406 44.499 28.5 44.1262 28.5C42.9894 28.5 42.8314 28.5 41.7272 28.5C40.623 28.5 40.2 27.6391 40.2 26.7375C40.2 25.836 40.7969 25 41.9688 25Z" fill="#1E1C4F"/>
<path fill-rule="evenodd" clip-rule="evenodd" d="M16 29.6239V24.9953H17V29.5585C17 29.811 17.1876 30 17.4191 30H21V30.9953H17.2572C16.5629 30.9953 16 30.3813 16 29.6239Z" fill="#1E1C4F"/>
<path fill-rule="evenodd" clip-rule="evenodd" d="M10 26.3125C10 25.5328 10.7498 25 11.381 25H15V26H11.381C11.1706 26 11 26.1519 11 26.4118V27.5H14V28.5H11V29.5882C11 29.8481 11.1706 30 11.381 30H15V31H11.2344C10.6032 31 10 30.5609 10 29.7812V26.3125Z" fill="#1E1C4F"/>
<path fill-rule="evenodd" clip-rule="evenodd" d="M22 26.3125C22 25.5328 22.7498 25 23.381 25H27V26H23.381C23.1706 26 23 26.1519 23 26.4118V27.5H26V28.5H23V29.5882C23 29.8481 23.1706 30 23.381 30H27V31H23.2344C22.6032 31 22 30.5609 22 29.7812V26.3125Z" fill="#1E1C4F"/>
<path fill-rule="evenodd" clip-rule="evenodd" d="M28 26.3934C28 25.6212 28.5117 24.9953 29.1429 24.9953H33V26H29.3653C29.1549 26 29 26.2243 29 26.4816V27.5H32V28.5H29V30.9953H28V26.3934Z" fill="#1E1C4F"/>
<path fill-rule="evenodd" clip-rule="evenodd" d="M6.08953 25H4V26H6V31H7V26H9V25H7.0625H6.08953Z" fill="#1E1C4F"/>
<path fill-rule="evenodd" clip-rule="evenodd" d="M49.0637 24.9953H47V25.9953H49V30.9953H50V25.9953H52V24.9953H50.0247H49.0637Z" fill="#1E1C4F"/>
<circle cx="36" cy="25.75" r="0.75" fill="#DE0B15"/>
<path d="M36 27L33 31H34.26L36 28.6986L37.8 31H39L36 27Z" fill="#DE0B15"/>
</svg>
