<!-- by TradingView --><svg width="56" height="56" viewBox="0 0 56 56" xmlns="http://www.w3.org/2000/svg"><path fill="#F0F3FA" d="M0 0h56v56H0z"/><path fill-rule="evenodd" d="M28 19.02 7.26 22.97C6.64 23.2 5 24.4 5 27.5c0 3.1 1.64 4.29 2.26 4.53L28 35.98c3.17-.58 7.86-1.46 11.88-2.25a342.98 342.98 0 0 0 7.05-1.46l.5-.13.15-.05c.16-.08.35-.15.5-.21l.04-.02.52-.21c.37-.17.75-.37 1.08-.66.63-.54 1.28-1.5 1.28-3.49a4.54 4.54 0 0 0-3.22-4.52L28 19.02ZM48 22l-20-4-21 4c-1 .33-3 1.9-3 5.5s2 5.17 3 5.5l21 4c6.33-1.17 19.2-3.6 20-4 .13-.07.3-.13.49-.2 1.25-.5 3.51-1.4 3.51-5.3 0-3.6-2.67-5.17-4-5.5Z" fill="#1372F2"/><path d="M14 24v2.35l-.3-.02c0-1.16-.16-1.99-1.2-1.99H12v5.16c0 .9.11 1.3.78 1.3v.2H8.22v-.2c.66 0 .78-.4.78-1.3v-5.1h-.5c-1.16 0-1.25.34-1.25 1.93H7V24h7ZM20 24v.2c-.7.01-1 .16-1 .85v4.9c0 .7.3.82 1 .85v.2h-5v-.2c.7-.03 1-.15 1-.85v-4.9c0-.7-.3-.84-1-.85V24h5ZM34 24v.2c-.7.01-1 .16-1 .85v4.9c0 .7.3.82 1 .85v.2h-5v-.2c.7-.03 1-.15 1-.85v-4.9c0-.7-.3-.84-1-.85V24h5ZM28 24v2.33h-.23c-.3-1.11-.76-2.1-1.97-2.1h-.16c-.22 0-.38.01-.49.05-.21.05-.15.2-.15.57v5c0 .9.5.92 1.27.92V31H21v-.2c.65-.03 1-.18 1-.85v-4.9c0-.66-.36-.84-1-.85V24h7Zm-1.52 3.38v.2H24.5v-.2h1.98Zm.35-1.3v2.8h-.24c0-1.1-.64-1.3-1.59-1.3v-.2c.75 0 1.59-.18 1.55-1.3h.28ZM38.2 24c.74 0 1.43.2 2.04.62.15.1.26.1.34.04.08-.08.13-.25.16-.53H41v2.2h-.26c-.06-.61-.22-.9-.48-1.26a2.08 2.08 0 0 0-1.62-.78c-.74 0-1.64-.05-1.64.78V30c0 .8.56.82 1.19.8 1.18-.02 2.55-.8 2.55-2.13H41c0 1.16-1.17 2.33-2.81 2.33-2.11 0-4.19-1.1-4.19-3.44 0-2.3 2.09-3.56 4.2-3.56ZM45.5 24c1.8 0 3.5 1.15 3.5 3.44 0 2.27-1.7 3.56-3.5 3.56S42 29.85 42 27.56C42 25.3 43.7 24 45.5 24Zm-.03.17c-.55 0-.47.41-.47 1-.05.45 0 4.33 0 4.66 0 .59-.05 1 .5 1s.5-.41.5-1c0-.3.04-4.26 0-4.66 0-.59.08-1-.53-1Z" fill="#1173F0"/></svg>