<!-- by TradingView --><svg width="56" height="56" viewBox="0 0 56 56" fill="none" xmlns="http://www.w3.org/2000/svg">
<rect width="56" height="56" fill="#F0F3FA"/>
<path d="M32 20H36.5035H37.1885H43.6875L49 31L45.4085 29.0406C45.4085 29.0406 44.0965 31.3335 43.0374 32.6315C42.5495 33.2294 42.3295 33.6366 41.7201 34.1005C41.1645 34.5234 40.5081 35 39.6124 35H34.875L36.5035 33.0124V23L32 20Z" fill="#4FAA41"/>
<path fill-rule="evenodd" clip-rule="evenodd" d="M13 26.8858C13 26.3966 13.4265 26 13.914 26H24.1485C24.636 26 25 26.3966 25 26.8858V30.0079C25 30.4971 25.5125 31 26 31C26.4875 31 27 30.4971 27 30.0079V25.7716C27 24.7932 26.2096 24 25.2345 24H12.7655C11.7904 24 11 24.7932 11 25.7716V38.2284C11 39.2068 11.7904 40 12.7655 40H20.125C20.6125 40 21 39.4892 21 39C21 38.5108 20.6125 38 20.125 38H13.914C13.4265 38 13 37.6034 13 37.1142V26.8858Z" fill="#DCC2A0"/>
<path fill-rule="evenodd" clip-rule="evenodd" d="M31 34.4185C31 34.1874 30.8144 34 30.5854 34H24.399C24.17 34 24 34.1874 24 34.4185V40.5971C24 40.8283 24.17 41 24.399 41H30.5854C30.8144 41 31 40.8283 31 40.5971L31 34.4185ZM23.6586 32C22.7426 32 22 32.7495 22 33.674L22 41.3416C22 42.2661 22.7426 43 23.6586 43H31.3414C32.2574 43 33 42.2661 33 41.3416V33.674C33 32.7495 32.2575 32 31.3415 32H23.6586Z" fill="#DCC2A0"/>
<path fill-rule="evenodd" clip-rule="evenodd" d="M19 16.4184C19 16.1873 19.1583 16 19.3921 16H35.638C35.8717 16 36 16.1873 36 16.4184V32.5781C36 32.8092 35.8717 32.9966 35.638 32.9966H34.8623C34.3947 32.9966 34 33.5378 34 34C34 34.4622 34.3947 35 34.8623 35H36.3067C37.2419 35 38 34.2506 38 33.3263V15.6737C38 14.7494 37.2419 14 36.3067 14H18.6933C17.7581 14 17 14.7494 17 15.6737V22.125C17 22.5872 17.5324 23 18 23C18.4676 23 19 22.5872 19 22.125V16.4184Z" fill="#DCC2A0"/>
</svg>
