<!-- by TradingView --><svg width="56" height="56" viewBox="0 0 56 56" xmlns="http://www.w3.org/2000/svg"><path fill="#F0F3FA" d="M0 0h56v56H0z"/><path d="M16 26v1h-2v-1h2Zm-2-1h1v4.46c0 .24.28.54.5.54.1 0 .26-.1.32-.11l.18.98a2 2 0 0 1-.62.13c-.85.04-1.38-.53-1.38-1.36V25ZM19.6 31c-1.5 0-2.6-.97-2.6-2.5 0-1.47 1.08-2.5 2.54-2.5 1.45 0 2.46 1 2.46 2.46V29h-4.42v-1H21c0-.6-.6-1-1.44-1-1.06 0-1.56.6-1.56 1.46 0 1.06 1 1.54 1.62 1.54.41 0 .84-.16 1-.56l1.35.08C21.72 30.59 20.59 31 19.6 31ZM33.6 31c-1.5 0-2.6-.97-2.6-2.5 0-1.47 1.08-2.5 2.54-2.5 1.45 0 2.46 1 2.46 2.46V29h-4.42v-1H35c0-.6-.75-1-1.44-1-1.06 0-1.55.9-1.56 1.5 0 .7.5 1.5 1.62 1.5.41 0 .84-.16 1-.56l1.35.08C35.72 30.59 34.59 31 33.6 31ZM23 31v-5h1v1c.18-.61 1.02-1 1.57-1a2 2 0 0 1 .43.05v1.21c-.13-.04-.4-.07-.58-.07-.58 0-1.42.43-1.42 1.02V31h-1ZM27 31v-5h1v1c.18-.61 1.02-1 1.57-1a2 2 0 0 1 .43.05v1.21c-.13-.04-.4-.07-.58-.07-.58 0-1.42.43-1.42 1.02V31h-1ZM43 31v-5h1v1c.18-.61 1.02-1 1.57-1a2 2 0 0 1 .43.05v1.21c-.13-.04-.4-.07-.58-.07-.58 0-1.42.43-1.42 1.02V31h-1ZM48.48 31c-.86 0-1.48-.57-1.48-1.44 0-1 .79-1.4 1.68-1.5.28-.03 1.32-.12 1.32-.56 0-.3-.58-.5-1-.5-.44 0-.61.22-.7.54l-1.14-.1c.18-.95 1.02-1.44 1.94-1.44 1 0 1.9.42 1.9 1.5V31h-1v-.76c-.24.51-.96.76-1.52.76Zm.36-.93c.5 0 1.16-.37 1.16-.9v-.67c-.23.16-.82.34-1.1.38-.14.02-.26.06-.37.11-.22.1-.35.27-.35.52 0 .37.28.56.66.56ZM39.5 33c-.94 0-2.11-.34-2.34-1.38l1.31-.18c.17.43.64.57 1.06.57.6 0 1.47-.38 1.47-1.01v-.5s-.33.5-1.47.5C38.15 31 37 30 37 28.53 37 27 38.1 26 39.5 26c1.1 0 1.5.5 1.5.5V26h1v5c0 1.38-1.3 2-2.5 2Zm0-3c.7 0 1.5-.5 1.5-1.47 0-1.03-.82-1.53-1.5-1.53-.7 0-1.5.5-1.5 1.53 0 1.04.72 1.47 1.5 1.47Z" fill="#08558F"/><path d="M11 27v-2c-2.89 0-3.8 2.09-4 4v2h2v-2c0-1.2 1.33-1.83 2-2Z" fill="#D6DF27"/><path d="M5 27v-2c2.89 0 3.8 2.09 4 4v2H7v-2c0-1.2-1.33-1.83-2-2Z" fill="#2EABDF"/></svg>