<!-- by TradingView --><svg width="56" height="56" viewBox="0 0 56 56" xmlns="http://www.w3.org/2000/svg"><path fill="#F0F3FA" d="M0 0h56v56H0z"/><path d="M25 18.15v-.05a339.81 339.81 0 0 0-2.3-1.67c-.5-.35-.43-1.02.08-1.32.28-.17.59-.14.92.1 1.28.9 2.05 1.46 2.32 1.68.21.17.39.41.52.72.07.18.1.46.1.85l-.03 1.82c0 .06-.03.09-.08.08l-1.43-.11a.1.1 0 0 1-.06-.04c-.01-.01-.04-.04-.04-.06v-2Z" fill="#02C0C4"/><path d="m24.19 23.93 8.9 1.39c.07 0 .1.05.1.13l-.6 4.98c0 .03-.02.05-.06.05l-1.42.1a.04.04 0 0 1-.05-.04v-.02c.39-1.1.32-2.15-.2-3.16a.07.07 0 0 1 .02-.1A2.22 2.22 0 0 0 32 25.45a.06.06 0 0 0-.03-.04h-.03l-3.7-.02a5.9 5.9 0 0 0-1.61.15 3.78 3.78 0 0 0-2.22 5.43V31l-.02.01-.02.01-1.33.09c-.05 0-.07-.02-.07-.07v-7.16a.1.1 0 0 0-.02-.06.1.1 0 0 0-.06-.03c-.74-.17-.93-.5-.68-1.25l.5-1.55c.06-.2.16-.38.3-.53.19-.2.5-.15.78-.12l9.03.75c.65.06 1 .39 1.08 1 .06.46.1 1.05.11 1.78 0 .42-.14.7-.43.85-.16.08-.43.1-.81.06a911.16 911.16 0 0 0-8.57-.84Z" fill="#FF293B"/><path d="M9.35 27.7H8.07c-.05 0-.07-.03-.07-.07v-2.57c0-.04.02-.06.06-.06h1.29l.03-.01.02-.04v-3.9a.06.06 0 0 1 .01-.03l.02-.02H11.94c.02 0 .06.02.06.05v3.88c0 .04.02.07.06.07h2.37c.04 0 .06.04.06.07-.06 1.48-1.01 2.51-2.43 2.63-.04 0-.06.03-.06.06v1.71c.01 1 .5 1.07 1.3 1.13a2.35 2.35 0 0 1 2.22 2.33.07.07 0 0 1-.06.05L12.9 33c-1.63 0-3.07-.92-3.4-2.6-.14-.68-.08-1.95-.09-2.64 0-.04-.02-.06-.06-.06ZM43.7 28.43c0 .03 0 .03.02.01l1.9-2.42.04-.02H48.85a.04.04 0 0 1 0 .06l-2.82 3.4-.01.03.01.03 2.96 3.4a.04.04 0 0 1 0 .05l-.01.02h-3.14a.11.11 0 0 1-.09-.03l-2.01-2.45c-.04-.04-.05-.03-.05.02v2.44a.03.03 0 0 1-.03.03h-2.62l-.03-.01-.01-.04V21.04a.03.03 0 0 1 .01-.03.04.04 0 0 1 .03-.01c1.58.06 2.67 1.28 2.66 2.9-.02 2.35-.02 3.86 0 4.53ZM36 29.58c.02 1.48 2.01.87 2-.35V27.7A2.66 2.66 0 0 1 40.45 25c.03 0 .05.01.05.05v4.31a3.6 3.6 0 0 1-.88 2.55c-1.72 1.85-5.36 1.33-6-1.46a8.74 8.74 0 0 1-.12-1.8 392.24 392.24 0 0 0 .02-3.63.07.07 0 0 1 .05-.02h2.39l.02.01.02.03v4.54Z" fill="#242021"/><path fill-rule="evenodd" d="M17.4 29.83H22.38c.03 0 .05-.02.06-.05.32-1.9-.58-3.7-2.22-4.46-2.28-1.04-4.95.57-5.2 3.2C14.8 31 16.48 33 18.82 33a4219.4 4219.4 0 0 0 3.06-.02.08.08 0 0 0 .04-.05v-.03c-.1-.98-.55-1.66-1.36-2.04-.4-.18-.9-.17-1.4-.16h-.4a1.55 1.55 0 0 1-1.38-.82v-.03l.02-.02Zm2.6-1.87a1.76 1.76 0 0 0-1.25-.46c-.5 0-1 .2-1.24.46-.02.02-.01.03.02.03a55 55 0 0 0 2.46-.03Z" fill="#242021"/><path d="M27.63 30.76a1.6 1.6 0 0 0 1.59-1.62c0-.89-.71-1.61-1.6-1.61a1.6 1.6 0 0 0-1.58 1.61c0 .9.71 1.62 1.59 1.62Z" fill="#FF293B"/><path d="M31.29 37.6c.22-1.98-1.12-4-3.16-4.18-.34-.03-.83.03-.81-.35 0-.04.02-.07.04-.1a.15.15 0 0 1 .1-.04l.64-.07c.96-.11 1.86-.67 2.44-1.43a66.65 66.65 0 0 1 .35-.46.14.14 0 0 1 .06-.01l1.44-.1c.09 0 .13.04.12.13l-.77 7c-.1.89-.22 3.19-1.55 3-.28-.04-.46-.2-.51-.5a.26.26 0 0 1 .1-.27 3.74 3.74 0 0 0 1.5-2.61Z" fill="#02C0C4"/><path d="M24.66 34.99c-.13.1-.24.3-.36.56a3.92 3.92 0 0 0-.37 1.7c0 .04-.01.09-.04.12a.18.18 0 0 1-.1.07c-.62.11-.82-.35-.83-.88a517.2 517.2 0 0 1 .02-5.13H23l1.55-.11a.15.15 0 0 1 .13.06 3.92 3.92 0 0 0 .78.81.08.08 0 0 1 0 .07l-.02.03c-.24.21-.4.46-.5.73-.21.6.09 1.36.54 1.77.6.54 1.36.74 2.17.76 1.27.03 2.01 1.47 1.28 2.53a1.57 1.57 0 0 1-2.78-.36c-.18-.5-.13-1 .17-1.5.11-.18.03-.29-.15-.36-.49-.2-.91-.48-1.28-.87a.17.17 0 0 0-.23 0Z" fill="#02C0C4"/></svg>