<!-- by TradingView --><svg width="56" height="56" viewBox="0 0 56 56" xmlns="http://www.w3.org/2000/svg"><path fill="#F0F3FA" d="M0 0h56v56H0z"/><path d="M20 16h9c-2.5 4.17-7.6 12.3-8 13.5-.4 1.2.5 3 1 3.5h-1l-7-10.5c2.5-3.5 4-6.5 6-6.5Z" fill="url(#affltrrrh)"/><path d="M17.36 25.5c-2-3.2-1.5-5.67-1-6.5-2.5 3.5-4 5.5-5.5 8-1.29 2.14-1 4 0 5.5l7 10.5h11c-3-4.5-9.5-14.3-11.5-17.5Z" fill="url(#bffltrrrh)"/><path d="M36 40h-9c2.5-4.17 7.6-12.3 8-13.5.4-1.2-.5-3-1-3.5h1l7 10.5C39.5 37 38 40 36 40Z" fill="url(#cffltrrrh)"/><path d="M38.64 30.5c2 3.2 1.5 5.67 1 6.5 2.5-3.5 4-5.5 5.5-8 1.29-2.14 1-4 0-5.5l-7-10.5h-11c3 4.5 9.5 14.3 11.5 17.5Z" fill="url(#dffltrrrh)"/><defs><linearGradient id="affltrrrh" x1="26.5" y1="16" x2="18.5" y2="28.5" gradientUnits="userSpaceOnUse"><stop stop-color="#B5D6F1"/><stop offset="1" stop-color="#09438B"/></linearGradient><linearGradient id="bffltrrrh" x1="19.43" y1="19" x2="19.43" y2="43" gradientUnits="userSpaceOnUse"><stop stop-color="#B0D3F0"/><stop offset="1" stop-color="#0A4188"/></linearGradient><linearGradient id="cffltrrrh" x1="29.5" y1="40" x2="37.5" y2="27.5" gradientUnits="userSpaceOnUse"><stop stop-color="#B5D6F1"/><stop offset="1" stop-color="#09438B"/></linearGradient><linearGradient id="dffltrrrh" x1="36.57" y1="37" x2="36.57" y2="13" gradientUnits="userSpaceOnUse"><stop stop-color="#B0D3F0"/><stop offset="1" stop-color="#0A4188"/></linearGradient></defs></svg>