<!-- by TradingView --><svg width="56" height="56" viewBox="0 0 56 56" xmlns="http://www.w3.org/2000/svg"><path fill="#F0F3FA" d="M0 0h56v56H0z"/><path d="m18 16-4-2v5.5l4 2.5v-6ZM18 26.5 14 24v5.5l4 2.5v-5.5ZM18 37.5 14 35v5.5l4 2.5v-5.5ZM28.5 16l-5 2.5L34 24v-5l-5.5-3ZM28 26l-5 2.5L34 34v-5l-6-3ZM28 36.5 24 39l10 6v-5l-6-3.5Z" fill="#ABABAB"/><path d="m26 13-8 3v6l16-9h-8ZM42 14l-8 5v5l8-5v-5ZM42 29v-5l-8 5v5l8-5ZM42 35l-8 5v5l8-5v-5ZM28.5 31.2 18 37.5V43l15-9.5-4.5-2.3ZM28.5 21 18 26.5V32l15-8.5-4.5-2.5Z" fill="#266A7E"/></svg>