<!-- by TradingView --><svg width="56" height="56" viewBox="0 0 56 56" xmlns="http://www.w3.org/2000/svg"><path fill="#F0F3FA" d="M0 0h56v56H0z"/><path d="M29 33.4c0 .96-2.48 3.96-3.75 5.03h5.65c.42-1.47.91-4.98.91-5.94 0-.97-.63-1.77-.9-2.04l-2.54 1.6c.28.14.63.39.63 1.35ZM28.79 28.45l-2.11 1.2s-.43-.4-.85-1.6c-.38-1.1 0-2.28.42-2.81.99-1.07 3.21-3.37 4.23-4.01l.02-.01c1.25-.8 1.6-1.02 4.13-.62a6.08 6.08 0 0 1 3.74 2.29l-2.8 1.37c-.29-.27-.87-.87-1.88-1.83a2.46 2.46 0 0 0-2.79-.4c-.7.54-2.28 1.85-2.96 2.8-.67.97-.28 2.01 0 2.41l.85 1.2Z" fill="#4F792D"/><path d="M35.1 18.31c-1.41.46-4.7 1.81-6.1 2.75.84-2.24 5.43-5.49 7.97-5.49 2.03 0 4.4.2 5.53.93L40 19c-.85-.53-3.62-1.1-4.9-.69ZM31 11c-.96.91-3 4.71-3 7 0-2.29-1.87-6.13-3-7h6ZM19.5 15.57c-1.02 0-4.02.14-5 .93L17 19s1.1-.4 2.63-.69c3.38-.64 6.37 1.54 7.5 2.75-3.39-5.22-6.37-5.49-7.64-5.49ZM38 38H14v1h24v-1ZM15 41v-1h24v1H15ZM16 43v-1h25v1H16Z" fill="#4F792D"/><path d="m19.63 11.46-1.41 3.2c5.07.32 8.03 3.23 8.88 4.96 0-4.05-5.36-7.23-7.48-8.16ZM35.56 11.6c-4.4 1.6-6.56 5.34-6.56 8.02a9.33 9.33 0 0 1 8.9-4.96l-2.34-3.06ZM20.1 23.8l-2.82-1.83A8.92 8.92 0 0 1 22.5 20c2.37 0 4.08 2.06 4.5 3-.56-.4-2.49-1-3.5-1-1.01 0-2.56 1-3.4 1.8ZM32.28 27.46c0-.97-1.8-2.35-2.65-3.02.57.8 1.58 2.7 1.25 3.02-.43.4-1.67 1.39-2.94 2.2-1.1.7-3.8 2.8-3.8 4 0 .97 1.4 2 2.11 2.4-.28-.53-.76-1.76-.42-2.4.42-.8 2.7-2.55 4.23-3.6 1.44-1.01 2.22-1.4 2.22-2.6ZM21 25h-1.5L14 33v2l7-10Z" fill="#BFA301"/><path d="M23.84 23h-.97L14 36.07v.91L23.84 23ZM25.83 23h-1.05L15 36.98h.94L25.84 23ZM36.5 25h-1.27L44 37.67v-2L36.5 25ZM33.01 23h-.84L44 40v-1.2L33.01 23ZM31.32 23h-.84l11.67 17H43L31.32 23Z" fill="#BFA301"/></svg>