<!-- by TradingView --><svg width="56" height="56" viewBox="0 0 56 56" xmlns="http://www.w3.org/2000/svg"><path fill="#F0F3FA" d="M0 0h56v56H0z"/><path d="m21.75 27.5-2.18 7.22c-.2.64.3 1.28 1 1.28h9.3l1.68-5h-5.89l.77-2.5h5.74l.35-1H21.75ZM34.65 27.5l-2.3 7.2c-.21.65.29 1.3 1 1.3h5.58c3.46 0 7.42-3.5 9.15-7.2.2-.4.36-.84.5-1.3H43.1C41.89 31 39.97 31 38.4 31l1.14-3.5h-4.9ZM21.7 20l-1.05 3.5c-.65-.23-1.7-.5-2.8-.53-2.98-.11-4.83 2-5.6 4.53H7.2a9.08 9.08 0 0 0 .47-1.5c1.66-3.9 5.67-7 10.17-7 2.61 0 3.85 1 3.85 1ZM32.52 27.5H21.75L24.3 19h11.18l-1.25 4h-6.27l-.8 2.5h6.06l-.7 2Z" fill="#566273"/><path d="M48.57 27.5c1.07-3.6.33-8.5-4.42-8.5h-6.79l-2.71 8.5h4.9l1.47-4.5c2.92 0 2.61 3 2.09 4.5h5.46Z" fill="#566273"/><path d="M37.36 19h6.1l-2.3 4h-.14l-.2.6-2.38 4.4H34.5l2.86-9Z" fill="#8992A0"/><path d="m34.49 28-2.15 6.7c-.2.65.3 1.3 1 1.3h5.59c3.46 0 7.42-3.5 9.15-7.2.12-.25.23-.52.33-.8h-5.5c-1.21 3-3.01 3-4.5 3l.98-3h-4.9Zm-14.92 6.72L21.59 28h10.76l-.18.5h-5.74l-.77 2.5h5.89l-1.67 5h-9.3c-.7 0-1.2-.64-1.01-1.28ZM7.1 28c-.56 3.7 1.15 8 5.71 8 5.07 0 6.06-4.41 6.76-7.56.12-.52.23-1.01.35-1.44h-3.97c-.42 2.4-1.22 5-2.61 5-1.57 0-1.54-2.38-1.38-3.33l.14-.67h-5Z" fill="#51869F"/><path d="M30.3 19h-6l-4.73 15.72c-.14.47.1.95.5 1.16L30.32 19ZM29.77 36h.1l.14-.4-.24.4ZM14.34 24.14a6.42 6.42 0 0 0-1.59 2.08l-4.8 7.02A8.56 8.56 0 0 1 7.67 26c1.66-3.9 5.67-7 10.17-7l-3.5 5.14Z" fill="#8992A0"/><path d="M38.44 28H34.5l-2.16 6.7a1.02 1.02 0 0 0 1 1.3h.38l4.72-8ZM7.1 28c-.06.45-.1.92-.1 1.38 0 1.36.3 2.72.95 3.86L11.53 28H7.1ZM21.6 28l-2.03 6.72c-.14.48.1.95.5 1.16L24.86 28H21.6Zm8.28 8h-.11l.24-.4-.13.4Z" fill="#7AA2B6"/></svg>