<!-- by TradingView --><svg width="56" height="56" viewBox="0 0 56 56" fill="none" xmlns="http://www.w3.org/2000/svg">
<rect width="56" height="56" fill="#F0F3FA"/>
<path fill-rule="evenodd" clip-rule="evenodd" d="M33 21.0873C33 24.9124 31.1432 26.5156 28 26.5156C24.8568 26.5156 23 24.3036 23 21.0873C23 18.5 24.8568 16 28 16C31.1432 16 33 18.375 33 21.0873ZM20.0684 21.0873C20.0684 24.0274 21.6331 26.5937 23.957 27.9615C21.6331 29.3294 20.0684 31.8956 20.0684 34.8358C20.0684 39.2126 23.5358 42.7607 27.8132 42.7607C32.0905 42.7607 35.558 39.2126 35.558 34.8358C35.558 31.8956 33.9932 29.3294 31.6694 27.9615C33.9932 26.5937 35.558 24.0275 35.558 21.0873C35.558 16.7105 32.0905 13.1624 27.8132 13.1624C23.5358 13.1624 20.0684 16.7105 20.0684 21.0873ZM28 29.3594C24.8568 29.3594 23 31.2837 23 34.5C23 37.4016 24.8568 40 28 40C31.1432 40 33 37.7163 33 34.5C33 31.2837 31.1432 29.3594 28 29.3594Z" fill="url(#paint0_linear_5085_142425)"/>
<path fill-rule="evenodd" clip-rule="evenodd" d="M35.2726 21.0625C35.2726 17.1734 32.0352 14 27.9998 14C23.9644 14 20.7271 17.3711 20.7271 21.0625L18.1703 20.525C18.1703 15.5016 22.4516 11.0045 27.943 11.0045C33.4345 11.0045 37.7157 15.5016 37.7157 20.525L35.2726 21.0625ZM37.7157 35.5H35.2498C35.2498 39.1914 32.0352 42 27.9998 42C23.9644 42 20.6363 39.1914 20.6363 35.5H18.3408C18.3408 40.5233 22.4516 44.9751 27.943 44.9751C33.4345 44.9751 37.7157 40.5233 37.7157 35.5Z" fill="url(#paint1_linear_5085_142425)"/>
<path fill-rule="evenodd" clip-rule="evenodd" d="M27.9432 26.6511C31.9786 26.6511 35 23.3037 35 19.1744C35 15.0452 32.0354 12 28 12C23.9646 12 21 15.3207 21 19.45H18C18 13.8308 22.5085 9 28 9C33.4915 9 38 13.5553 38 19.1744C38 22.9492 35.8775 26.2438 32.894 28L27.9432 26.6511ZM38 36.5499H35.2727C35.2727 40.6792 32.0354 44 28 44C23.9646 44 20.7273 40.9548 20.7273 36.8256C20.7273 32.6963 23.9078 29.3489 27.9432 29.3489L22.9924 28C20.0089 29.7562 18 33.0508 18 36.8256C18 42.4447 22.5085 47 28 47C33.4915 47 38 42.6062 38 36.5499Z" fill="url(#paint2_linear_5085_142425)"/>
<path d="M28.0185 26.5498C24.4673 26.5498 21 23.5793 21 19.4501H18C18 23.2248 20.0089 26.2439 22.9924 28.0001C22.9924 28.0001 25.608 29.349 27.9432 29.349C31.9786 29.349 35.2727 32.4208 35.2727 36.55H38C38 32.7753 35.8775 29.7563 32.894 28.0001C31.1446 27.2293 30.0146 26.7425 28.0185 26.5498Z" fill="url(#paint3_linear_5085_142425)"/>
<defs>
<linearGradient id="paint0_linear_5085_142425" x1="19.2052" y1="29.426" x2="37.7366" y2="30.015" gradientUnits="userSpaceOnUse">
<stop offset="0.0550017" stop-color="#3C569A"/>
<stop offset="0.151667" stop-color="#263873"/>
<stop offset="0.272169" stop-color="#205E79"/>
<stop offset="0.396633" stop-color="#189485"/>
<stop offset="0.776758" stop-color="#56A0B7"/>
</linearGradient>
<linearGradient id="paint1_linear_5085_142425" x1="17.9998" y1="30.3301" x2="38.941" y2="30.6245" gradientUnits="userSpaceOnUse">
<stop offset="0.315254" stop-color="#264073"/>
<stop offset="0.588268" stop-color="#17867E"/>
</linearGradient>
<linearGradient id="paint2_linear_5085_142425" x1="27.9432" y1="9" x2="27.9432" y2="47" gradientUnits="userSpaceOnUse">
<stop stop-color="#2E4C72"/>
<stop offset="0.121704" stop-color="#5F93B8"/>
<stop offset="0.223124" stop-color="#D9E8EF"/>
<stop offset="0.310345" stop-color="#C5E3E5"/>
<stop offset="0.419878" stop-color="#244E74"/>
<stop offset="0.513185" stop-color="#274D70"/>
<stop offset="0.630832" stop-color="#6B8EA4"/>
<stop offset="0.685598" stop-color="#AEC5D3"/>
<stop offset="0.752536" stop-color="#EEF8FF"/>
<stop offset="0.833671" stop-color="#669BC3"/>
<stop offset="1" stop-color="#2B5679"/>
</linearGradient>
<linearGradient id="paint3_linear_5085_142425" x1="27.9432" y1="19.1745" x2="27.9432" y2="38.136" gradientUnits="userSpaceOnUse">
<stop stop-color="#CAE6DA"/>
<stop offset="0.288618" stop-color="#318C61"/>
<stop offset="0.581301" stop-color="#338C60"/>
<stop offset="0.727642" stop-color="#49B39C"/>
<stop offset="0.906504" stop-color="#D6E7ED"/>
</linearGradient>
</defs>
</svg>
