<!-- by TradingView --><svg width="56" height="56" viewBox="0 0 56 56" xmlns="http://www.w3.org/2000/svg"><path fill="#F0F3FA" d="M0 0h56v56H0z"/><path fill-rule="evenodd" d="M52 23H4v10h48V23Zm-41.01 4H9.85v-.67H9.5v3.34h.5V31H7v-1.33h.5v-3.34h-.36V27H6v-2h4.99v2Zm2.51 4c-1.8 0-2.5-1.35-2.5-3s.7-3 2.5-3 2.5 1.35 2.5 3-.7 3-2.5 3Zm0-1.33c.3 0 .5-.17.5-.55v-2.24c0-.38-.2-.55-.5-.55s-.5.17-.5.55v2.24c0 .38.2.55.5.55ZM20.28 27h1.14v-2h-4.99v2h1.14v-.67H18v3.34h-.47V31h2.8v-1.33H20v-3.34h.28V27Zm5.5 2.67H26V31h-2.55v-1.33h.4l-.1-.68h-.9l-.11.68h.4V31h-2.28v-1.33h.27L22.25 25h2.42l1.12 4.67Zm-2.8-1.38h.62l-.27-1.48h-.07l-.27 1.48Zm3.28 1.38V31h4.11v-2.01H29v.68h-.55v-3.34H29V25h-2.75l.01 1.33h.33v3.34h-.33ZM30.6 31v-1.33h.4v-3.34h-.4V25h2.6v1.33H33v3.34h.2V31h-2.6Zm8.78-6h-2.17v1.33h.31v1.76L35.78 25h-2.4v1.33h.34v3.34h-.34V31h2.18v-1.33h-.32v-2.13L37.2 31H39v-4.67h.38V25Zm.26 4.67H40v-3.34h-.36V25h2.7c1.68 0 2.4 1.52 2.4 3 0 1.49-.72 3-2.4 3h-2.7v-1.33Zm2.74 0c.3 0 .46-.17.46-.55v-2.24c0-.37-.15-.55-.46-.55H42v3.34h.38ZM45 28c0 1.65.7 3 2.5 3s2.5-1.35 2.5-3-.7-3-2.5-3-2.5 1.35-2.5 3Zm3 1.12c0 .38-.2.55-.5.55s-.5-.17-.5-.55v-2.24c0-.38.2-.55.5-.55s.5.17.5.55v2.24Z" fill="#9B1418"/></svg>