<!-- by TradingView --><svg width="56" height="56" viewBox="0 0 56 56" xmlns="http://www.w3.org/2000/svg"><path fill="#F0F3FA" d="M0 0h56v56H0z"/><path d="M28 12c.04 0 .06 0 .07.02 3.46 5.02 9.2 7.23 14.83 5.63h.05l.03.03a.08.08 0 0 1 0 .1l-3.9 7.16a.11.11 0 0 1-.06.05.1.1 0 0 1-.08 0A25.87 25.87 0 0 0 28 22.61c-3.8 0-7.47.78-10.94 2.38a.1.1 0 0 1-.08 0 .11.11 0 0 1-.06-.05L13 17.77a.08.08 0 0 1 0-.09l.04-.03h.04c5.64 1.6 11.38-.61 14.83-5.63L28 12Z" fill="#FED131"/><path d="M28 38.21c.18 0 .3-.09.35-.27l2.2-7.25a4.63 4.63 0 0 1 3.15-3.48c.43-.14 1.32-.2 2.64-.2a12026.01 12026.01 0 0 1 6.61 0 .09.09 0 0 1 .05.08l-.01.05-6.42 11.18A15.24 15.24 0 0 1 35 40.74 9.23 9.23 0 0 1 27.99 44a9.23 9.23 0 0 1-7-3.26c-.47-.55-.99-1.36-1.56-2.42A97414.54 97414.54 0 0 1 13 27.1a.09.09 0 0 1 .04-.08h6.61c1.33 0 2.21.06 2.66.2a4.63 4.63 0 0 1 2.55 2.03c.2.3.4.8.6 1.45l2.18 7.25c.05.18.17.27.36.27Z" fill="#00A79D"/></svg>