<!-- by TradingView --><svg width="56" height="56" viewBox="0 0 56 56" xmlns="http://www.w3.org/2000/svg"><path fill="url(#azfnr4hug)" d="M0 0h56v56H0z"/><path d="M16 23v3h-.69c-.38-1.57-.74-2-1.56-2.38-.4-.2-.88-.3-1.42-.3H12V31c0 1.27.96 1.48 2 1.5v.5H7v-.5c1.05-.02 2-.22 2-1.5v-7.68h-.31c-.55 0-1.02.1-1.43.3-.8.38-1.14.77-1.57 2.38H5v-3h11ZM40 23v3h-.69c-.38-1.57-.74-2-1.56-2.38-.4-.2-.88-.3-1.42-.3H36V31c0 1.27.96 1.48 2 1.5v.5h-7v-.5c1.05-.02 2-.22 2-1.5v-7.68h-.31c-.55 0-1.02.1-1.43.3-.8.38-1.14.77-1.57 2.38H29v-3h11ZM22.5 23c2.9 0 5.5 1.77 5.5 5 0 3.18-2.63 5-5.5 5-2.9 0-5.5-1.76-5.5-5 0-3.18 2.63-5 5.5-5Zm-.05.24C20.18 23.24 20 26.16 20 28c0 1.87.3 4.76 2.55 4.76 2.26 0 2.45-2.94 2.45-4.76 0-1.85-.31-4.76-2.55-4.76ZM46.5 23c2.9 0 5.5 1.85 5.5 5.08 0 3.18-2.63 4.92-5.5 4.92-2.9 0-5.5-1.76-5.5-5 0-3.18 2.63-5 5.5-5Zm-.05.24C44.18 23.24 44 26.16 44 28c0 1.87.3 4.76 2.55 4.76 2.26 0 2.45-2.94 2.45-4.76 0-1.85-.31-4.76-2.55-4.76Z" fill="#fff"/><defs><linearGradient id="azfnr4hug" x1="10.42" y1="9.71" x2="68.15" y2="76.02" gradientUnits="userSpaceOnUse"><stop stop-color="#1A1E21"/><stop offset="1" stop-color="#06060A"/></linearGradient></defs></svg>