<!-- by TradingView --><svg xmlns="http://www.w3.org/2000/svg" width="56" height="56" viewBox="0 0 56 56"><path fill="#F0F3FA" d="M0 0h56v56H0z"/><circle cx="28" cy="28" r="17" fill="url(#a3n1locf4)"/><circle cx="28" cy="28.37" r="9.37" fill="#7F847F"/><circle cx="28" cy="28.32" r="8.77" fill="#E46179"/><path d="M12.82 31.55l1.58-.57.05.15c-.38.2-.65.47-.8.82-.16.35-.18.68-.08 1 .08.23.2.4.38.5.17.1.35.12.51.06.1-.03.2-.09.26-.16.09-.1.16-.26.22-.44.04-.14.1-.44.16-.9.1-.66.23-1.12.4-1.4.2-.27.44-.46.76-.57.4-.13.8-.09 1.19.13.39.22.66.57.82 1.05.05.15.08.3.1.44l-.01.56a.8.8 0 0 0 .02.3c.02.07.07.13.14.18.07.05.16.08.27.1l.04.12-1.81.6-.05-.13c.48-.27.8-.6.98-.98.16-.39.2-.75.08-1.1a.94.94 0 0 0-.42-.55.7.7 0 0 0-.59-.07.68.68 0 0 0-.3.2c-.08.1-.15.22-.2.37-.06.15-.11.41-.16.77-.08.51-.16.89-.24 1.13-.1.24-.21.44-.36.6-.16.17-.34.29-.57.36-.38.13-.75.1-1.11-.1-.36-.2-.62-.5-.76-.93a1.9 1.9 0 0 1-.06-.92c.02-.19.02-.31 0-.38a.2.2 0 0 0-.1-.12c-.05-.03-.16-.03-.31-.01l-.03-.11zM42.42 34.04a2.52 2.52 0 0 1-3.54 1.22 2.7 2.7 0 0 1-1.24-1.28 2.5 2.5 0 0 1 .11-2.32 2.55 2.55 0 0 1 3.6-1.16 2.52 2.52 0 0 1 1.07 3.54zm-.23-.07c.21-.41.17-.83-.14-1.27-.25-.35-.7-.7-1.35-1.03-.76-.4-1.4-.55-1.9-.48-.35.06-.62.25-.8.6-.11.22-.15.44-.12.65.04.26.18.53.44.8.25.27.63.53 1.12.8.6.3 1.07.48 1.42.52.35.04.63 0 .84-.1.21-.1.37-.27.49-.5zM37.48 23.85l.13-.04.06.15c.05.14.1.24.18.3.07.05.15.08.23.1.06 0 .21-.05.46-.14l3.11-1.15c.25-.09.4-.16.44-.2a.36.36 0 0 0 .1-.22c.02-.1 0-.2-.04-.34l-.06-.16.13-.04.78 2.12c.2.56.3 1.05.27 1.45-.03.49-.2.91-.5 1.27s-.7.63-1.18.8c-.33.13-.66.19-.98.19-.32 0-.6-.06-.85-.16a2.2 2.2 0 0 1-.65-.43 3.38 3.38 0 0 1-.85-1.38l-.78-2.12zm5.13.16l-3.7 1.36c-.19.08-.3.13-.34.17a.21.21 0 0 0-.07.13.6.6 0 0 0 .05.29c.14.39.39.64.73.74.46.15 1.07.08 1.82-.2.6-.22 1.06-.5 1.35-.82.23-.25.35-.52.37-.8 0-.19-.06-.48-.2-.87zM29.32 17.72v.14h-2.64v-.14h.17a.7.7 0 0 0 .35-.07c.07-.04.12-.1.15-.18.03-.06.04-.22.04-.47v-3.32c0-.26-.01-.42-.04-.49a.36.36 0 0 0-.17-.17.64.64 0 0 0-.33-.07h-.17v-.14h2.64v.14h-.17a.7.7 0 0 0-.35.08.36.36 0 0 0-.15.18c-.03.06-.04.21-.04.47V17c0 .26 0 .42.04.48a.4.4 0 0 0 .16.17c.09.05.2.07.34.07h.17zM18.03 16.55l3.96.56-1.5-1.58c-.2-.22-.37-.34-.51-.35-.19-.03-.38.06-.58.26l-.1-.1 1.22-1.15.1.1c-.14.17-.22.3-.25.38a.43.43 0 0 0 .02.27c.04.1.14.23.3.4l2.9 3.06-.1.09-5.37-.71 2.2 2.33c.2.21.39.3.55.3a.74.74 0 0 0 .44-.21l.09-.08.1.1-1.3 1.23-.1-.1c.2-.2.3-.37.3-.53 0-.15-.09-.33-.27-.52l-2.45-2.6-.17-.02a.98.98 0 0 0-.39 0 .85.85 0 0 0-.3.2l-.1-.1 1.3-1.23zM36.87 15.56l.18 4 1.27-1.76c.18-.25.27-.44.26-.57-.01-.2-.14-.36-.37-.52l.08-.12 1.36.98-.08.11c-.2-.1-.33-.16-.42-.16a.43.43 0 0 0-.26.07c-.09.05-.2.18-.34.37l-2.47 3.4-.1-.07-.3-5.4-1.88 2.6c-.18.23-.24.43-.19.59.05.16.14.3.28.4l.1.06-.08.11-1.45-1.05.08-.1c.22.15.41.22.57.2.15-.03.3-.16.46-.37l2.1-2.9-.02-.16c0-.17-.03-.3-.07-.38a.85.85 0 0 0-.24-.27l.08-.1 1.45 1.04zM12.56 26.05l.92-2.44.13.05-.05.12a.9.9 0 0 0-.08.4c.01.09.05.16.1.21.06.05.22.13.5.23l2.3.87c.43.16.72.23.88.22a.87.87 0 0 0 .46-.19c.15-.1.26-.28.35-.5.1-.25.12-.5.07-.71a1.13 1.13 0 0 0-.32-.59c-.17-.17-.5-.34-1-.53l-1.94-.73a1.2 1.2 0 0 0-.48-.1c-.1.01-.19.04-.25.1-.09.08-.17.22-.24.41l-.13-.05.61-1.63.13.05-.04.1a.67.67 0 0 0-.04.35c.02.11.08.2.17.29.06.05.19.12.38.2l1.8.67c.55.2.94.4 1.16.56.22.16.38.43.48.79.1.36.06.79-.13 1.28-.15.4-.32.7-.52.88-.26.25-.53.4-.81.43-.28.04-.62-.01-1-.16l-2.32-.87c-.28-.1-.45-.15-.53-.14a.36.36 0 0 0-.22.1c-.06.05-.13.18-.2.38l-.14-.05z" fill="#DD5065"/><path d="M21.5 34.48c-.32 1.38.92 1.67 1.48 1.6.06.4.25.63.54.83.24.15.94.1 1.26.06.55.83 1.39.6 1.74.39.92.42 2.58.17 3.3 0 .08.07.37.2.8.16.42-.04.77-.48.89-.7.17.07.63.18 1.04 0 .4-.17.52-.66.53-.88.57.1.98-.13 1.12-.25.22-.26.51-.98-.15-1.77-.67-.78-1.97-.85-2.54-.78A4.4 4.4 0 0 0 32.84 31c.21 0 .55.11.7.17-.13-.28-.52-.52-.7-.61v-.41c.26-.02.68.14.86.22-.4-.45-.78-.66-.86-.66a4.02 4.02 0 0 0-.8-2.03c2.18.49 3.65-.5 4.11-1.04a3.2 3.2 0 0 0 .13-4.2c-.53-.8-2.47-1.68-4.07-.87a3.38 3.38 0 0 0-1.8 3.23 4.72 4.72 0 0 0-5.06 0c.04-1.95-.97-2.92-1.49-3.16-.88-.51-3.37-.7-4.44 1.05a3.36 3.36 0 0 0 1.34 4.82c1 .45 2.38.3 2.94.17a3.86 3.86 0 0 0-.8 2.03c-.33.23-.58.54-.67.66.07-.08.48-.22.68-.29l.07.48c-.37.1-.61.45-.69.61.18-.14.53-.18.69-.18.17.87.95 1.8 1.32 2.15-.8-.13-2.49-.04-2.8 1.34z" fill="url(#b3n1locf4)"/><path d="M26.5 35.95c-.05-1.27-1.12-1.96-1.65-2.14-1.32-.42-2.34 0-2.68.52-.54 1.11.36 1.32.84 1.26.17 1.44 1.74.93 1.84.93.2.43 1.72 1.01 1.65-.57z" fill="url(#c3n1locf4)"/><path d="M29.27 35.95c.05-1.27 1.12-1.96 1.65-2.14 1.32-.42 2.34 0 2.67.52.54 1.11-.35 1.32-.83 1.26-.18 1.44-1.75.93-1.84.93-.2.43-1.72 1.01-1.65-.57z" fill="url(#d3n1locf4)"/><ellipse cx="27.94" cy="30.95" rx=".76" ry=".58" fill="#B91F68"/><ellipse cx="27.94" cy="30.95" rx=".48" ry=".37" fill="#FEA2D0"/><ellipse cx="22.23" cy="24.56" rx="2.12" ry="1.7" transform="rotate(30.38 22.23 24.56)" fill="url(#e3n1locf4)"/><ellipse rx="2.12" ry="1.7" transform="scale(-1 1) rotate(30.38 -61.96 -49.6)" fill="url(#f3n1locf4)"/><rect x="26.18" y="27.42" width="1.35" height="1.59" rx=".67" transform="rotate(51.62 26.18 27.42)" fill="#fff"/><rect x="26.11" y="27.74" width=".93" height="1.09" rx=".46" transform="rotate(51.62 26.11 27.74)"/><rect width="1.35" height="1.59" rx=".67" transform="scale(-1 1) rotate(51.62 -43.12 -16.94)" fill="#fff"/><circle cx="25.94" cy="28.44" r=".17" fill="#fff"/><rect width=".93" height="1.09" rx=".46" transform="scale(-1 1) rotate(51.62 -43.52 -16.87)"/><circle cx="29.83" cy="28.44" r=".17" fill="#fff"/><defs><linearGradient id="a3n1locf4" x1="28" y1="11" x2="28" y2="45" gradientUnits="userSpaceOnUse"><stop stop-color="#FEDCB7"/><stop offset="1" stop-color="#FDCD9D"/></linearGradient><linearGradient id="b3n1locf4" x1="27.94" y1="21.25" x2="27.94" y2="37.59" gradientUnits="userSpaceOnUse"><stop stop-color="#CCCEC7"/><stop offset=".28" stop-color="#827E7B"/><stop offset=".52" stop-color="#A09D98"/><stop offset=".71" stop-color="#A19D9A"/><stop offset="1" stop-color="#524E4B"/></linearGradient><linearGradient id="c3n1locf4" x1="24.25" y1="33.64" x2="25.07" y2="36.99" gradientUnits="userSpaceOnUse"><stop stop-color="#D3D4CF"/><stop offset="1" stop-color="#979394"/></linearGradient><linearGradient id="d3n1locf4" x1="32.64" y1="33.64" x2="31.51" y2="36.99" gradientUnits="userSpaceOnUse"><stop stop-color="#979797"/><stop offset="1" stop-color="#9A9695"/></linearGradient><linearGradient id="e3n1locf4" x1="19.94" y1="24.41" x2="24.4" y2="24.59" gradientUnits="userSpaceOnUse"><stop stop-color="#FDFEF9"/><stop offset="1" stop-color="#BDBEB9"/></linearGradient><linearGradient id="f3n1locf4" x1=".3" y1="1.61" x2="3.82" y2="1.88" gradientUnits="userSpaceOnUse"><stop stop-color="#FCFDF9"/><stop offset="1" stop-color="#C8C9C4"/></linearGradient></defs></svg>