<!-- by TradingView --><svg width="56" height="56" viewBox="0 0 56 56" xmlns="http://www.w3.org/2000/svg"><path fill="#F0F3FA" d="M0 0h56v56H0z"/><path d="m5.8 31 .83-4H5l.24-1H10l-.24 1H8.13l-.82 4H5.8ZM9.5 31l.69-4h1.14l-.2 1.18-.11-.32c.15-.31.35-.53.6-.66s.55-.2.88-.2l-.21 1.24a.75.75 0 0 0-.14-.01l-.13-.01a.96.96 0 0 0-.65.22c-.17.14-.28.37-.33.7L10.7 31H9.5ZM20.47 27c1.08 0 1.7.77 1.47 1.82L21.47 31H20l.43-2.05c.12-.5-.06-.78-.55-.78-.5 0-.85.28-.98.88L18.48 31H17l.85-4h1.4L19 28.17l-.19-.32a2 2 0 0 1 1.66-.85ZM23.68 31c-.55 0-1.2-.08-1.68-.38l.5-.95A3.3 3.3 0 0 0 24 30c.45 0 .47-.08.47-.25 0-.15-.22-.2-.53-.26a7.9 7.9 0 0 1-.48-.09c-.53-.12-1-.4-1-1 0-1.07 1.18-1.4 2.06-1.4.56 0 1.1.1 1.48.3l-.48.96A1.75 1.75 0 0 0 24.5 28c-.45 0-.76.1-.76.26 0 .14.23.21.52.27.15.02.31.05.49.1.52.1 1 .38 1 .97 0 1.06-1.2 1.4-2.07 1.4Z"/><path d="m26 31 .97-5h2.06c1.26 0 1.97.59 1.97 1.6 0 1.37-1.14 1.98-2.4 1.98h-1.58l.73-.52-.38 1.94H26Zm1.72-1.77-.48-.73h1.42c.6 0 .95-.23.95-.77 0-.42-.28-.73-.76-.73h-1.32l.73-.56-.54 2.79ZM33.3 31c-1.07 0-2.3-.53-2.3-1.76 0-1.45 1.4-2.24 2.7-2.24 1.07 0 2.3.52 2.3 1.76C36 30.2 34.6 31 33.3 31Zm.1-1.08c.6 0 1.04-.49 1.04-1.1 0-.46-.39-.74-.83-.74-.62 0-1.05.48-1.05 1.1 0 .44.3.74.83.74ZM36.66 31 36 27h1.25l.5 3.34h-.65L38.9 27h1.17l.5 3.34h-.64L41.72 27H43l-2.13 4H39.5l-.46-2.77h.4L38 31h-1.34ZM44.94 31c-1.06 0-1.94-.66-1.94-1.76 0-1.26.94-2.24 2.2-2.24 1 0 1.8.67 1.8 1.7 0 .19-.12.33-.3.36l-2.7.59.12-.71 1.45-.28a.3.3 0 0 0 .1-.03c.3-.17-.07-.63-.47-.63-.66 0-.96.62-.96 1.19 0 .52.2.81.76.81.33 0 .73-.15.96-.35l.53.85c-.45.36-1 .5-1.55.5ZM47 31l.69-4h1.14l-.2 1.18-.11-.32c.15-.31.35-.53.6-.66s.55-.2.88-.2l-.21 1.24a.75.75 0 0 0-.14-.01l-.13-.01a.96.96 0 0 0-.65.22c-.17.14-.28.37-.33.7L48.2 31H47ZM35.14 23.03c.4.47-.74 2.24-1.1 2.97 1.12-.1 1.42.14 1.83.65.87-1.93 1.62-3.82.72-4.9-1.52-1.8-5.38-.11-8.93 2.57.97-.6 6.45-2.52 7.48-1.29Z" fill="#ED2024"/><path d="M22.13 31.44c-.32 1.31-.02 1.79.63 2.57.66.78 1.48.94 2.39.98 2.68.13 5.85-2.08 7.36-3.47-.8-.12-1.15-.32-1.51-1.02-1.28.9-3.46 2.09-4.53 2.36-1.86.47-4.98.54-4.34-1.42Z" fill="#ED2024"/><path fill-rule="evenodd" d="M15.5 27H17l-.5 4H15v-.5c-.17.17-.7.5-1.5.5-1 0-1.16-1.53-1-2 .46-1.4 1-2 3-2Zm0 1c0 .67-.2 2-1 2-1 0-.5-2 1-2Z"/></svg>