<!-- by TradingView --><svg width="56" height="56" viewBox="0 0 56 56" xmlns="http://www.w3.org/2000/svg"><path fill="#F0F3FA" d="M0 0h56v56H0z"/><path d="M34.5 20.5c-.4.4-.5 1.5-.5 2 1.16.39 1.48.82 1.5 1 0-.81.67-1.34 1-1.5-.4-1.2-1.5-1.5-2-1.5ZM36.7 23c-.4.8-.37 2.17-.2 2.5 0-.8 1.67-2.67 2.5-3 0-.8-.33-1.17-.5-1.5-.5.33-1.4 1.2-1.8 2ZM37.7 24.5c-.8.8-1.2 2.67-1.2 3.5.67-.17 2.1-1.2 2.5-2 .4-.8.5-2.17.5-3-.33.17-1 .7-1.8 1.5ZM34.2 26c-.8-.8-.87-2.33-.7-3a3.5 3.5 0 0 1 2.5 2v2.5c-.33-.17-1-.7-1.8-1.5Z" fill="#E67225"/><path d="M38 20.5c-.4 0-1.3.69-1.3 1.08 0-.4-.87-.91-1.2-1.08 0-1.2.87-2.17 1.2-2.5.8.8 1.3 2 1.3 2.5Z" fill="#CA8559"/><path d="M33.4 12.99 34 23.5h-.5L33 13l.4-.01ZM34.9 10.01v11l-.4-.02V10l.4.01ZM39 10l-.5 12h-.4l.5-12h.4Zm2 3-1.6 11.03L39 24l1.6-11.03.4.03Z" fill="#E67225"/><path d="M37 8v10.5h-.5L36.6 8h.4Z" fill="#CA8559"/><path d="M9.76 36C7.66 36 6 33.82 6 31.5 6 29.08 7.68 27 9.9 27c.92 0 1.9.1 2.87.33l-.02 1.93-.4.13-.1-.34c-.28-1.1-1.42-1.49-2.32-1.49-1.7 0-2.93 2.2-2.93 3.94 0 2.06 1.2 3.92 3.21 3.92.98 0 2-1.14 2.39-2.11l.4.16-.4 1.94s-1.53.59-2.84.59ZM16.66 36C15.3 36 14 34.74 14 33c0-1.83 1.11-3 2.6-3 1.17 0 2.4.97 2.4 2.5 0 .34-.2.5-.5.5H15c0 1.34.92 2.13 2 2.13.52 0 1.06-.13 1.51-.47l.1-.07c.05 0 .08.06.08.17 0 .07-.03.15-.08.25-.47.66-1.25.99-1.95.99Zm-1.56-3.64h2.64c.05 0 .07-.04.07-.13 0-.89-.73-1.73-1.41-1.73-.66 0-1.38.94-1.38 1.77 0 .06.02.1.08.1ZM26.66 36C25.3 36 24 34.74 24 33c0-1.83 1.11-3 2.6-3 1.17 0 2.4.97 2.4 2.5 0 .34-.2.5-.5.5H25c0 1.34.92 2.13 2 2.13.52 0 1.06-.13 1.51-.47l.1-.07c.05 0 .08.06.08.17 0 .07-.03.15-.08.25-.47.66-1.25.99-1.95.99Zm-1.56-3.64h2.64c.05 0 .07-.04.07-.13 0-.89-.73-1.73-1.41-1.73-.66 0-1.38.94-1.38 1.77 0 .06.02.1.08.1ZM20 30h1v.54s.47-.54 1.03-.54c.48 0 .97.12.97.12v1.08s-.75-.36-1-.36c-.54 0-1 .38-1 .97V36h-1v-6ZM46 30h1v.54s.47-.54 1.03-.54c.48 0 .97.12.97.12v1.08s-.75-.36-1-.36c-.54 0-1 .38-1 .97V36h-1v-6ZM31.86 36c-.55 0-1.08-.18-1.62-.25l-.24-1.4h.39c.15.71.91 1.17 1.47 1.17.47 0 1.14-.25 1.14-.91 0-.58-.6-.92-1-1.1a3.88 3.88 0 0 0-.39-.19C31 33 30 32.52 30 31.56c0-1.17 1.29-1.56 2.08-1.56.48 0 .95.1 1.42.17l.17 1.37-.4-.03c-.1-.59-.64-1.04-1.13-1.04-.67 0-1.14.2-1.14.73 0 .8.93 1.07 1.43 1.34.55.3 1.57.73 1.57 1.61 0 1.28-1.25 1.85-2.14 1.85ZM37.48 36c-1.01 0-1.48-.63-1.48-1.75v-3.61h-1V30h1v-1h1v1h1.76v.64H37v3.53c0 .7.3 1.18.95 1.18.28 0 .57-.08.86-.25l.19.27c-.14.14-.35.28-.64.43-.28.13-.58.2-.88.2ZM40 34.68c0-.54.34-1 1.03-1.35.61-.32 1.2-.45 1.79-.68.08-.03.18-.1.18-.2v-1.02c0-.6-.51-.91-.96-.91-.49 0-.93.39-.93 1 0 .32-.18.48-.54.48-.26 0-.52-.06-.52-.26 0-1.19 1.72-1.74 2.53-1.74.96 0 1.42.44 1.42 1.52v3.14c0 .38.15.66.48.66.12 0 .33-.06.52-.19v.4c-.36.31-.74.47-1 .47-.39 0-.84-.16-1-.59-.5.41-.87.58-1.5.59-.7.01-1.5-.37-1.5-1.32Zm1.9.56c.3 0 1.1-.19 1.1-.68v-1.4c-.45.18-.96.33-1.21.42-.33.13-.68.46-.68.9 0 .53.4.76.8.76Z" fill="#E67225"/></svg>