<!-- by TradingView --><svg xmlns="http://www.w3.org/2000/svg" width="56" height="56" viewBox="0 0 56 56"><path fill="#F0F3FA" d="M0 0h56v56H0z"/><path d="M43.9 20.32l2.24 1.8 1.4-1.14-3.78-1.04a.36.36 0 0 0 .15.38z" fill="#C8342A"/><path d="M50.21 18.64c-.01-.04-.06-.14-.23-.14l-.13.01-5.8 1.2a.33.33 0 0 0-.3.23l3.8 1.05 2.5-2.02c.05-.04.21-.17.16-.33z" fill="url(#auww0av20)"/><path d="M43.9 23.91l2.24-1.8 1.4 1.13-3.78 1.05a.36.36 0 0 1 .15-.38z" fill="#C8342A"/><path d="M50.21 25.59c-.01.04-.06.14-.23.14l-.13-.01-5.8-1.2a.33.33 0 0 1-.3-.23l3.8-1.05 2.5 2.02c.05.04.21.17.16.33z" fill="url(#buww0av20)"/><path d="M46.15 22.11l1.4 1.13 2.87-.78c.43-.12.58-.17.58-.34 0-.18-.15-.23-.58-.35L47.55 21l-1.4 1.12" fill="url(#cuww0av20)"/><path d="M9 28.29c.01-.11-.05-.29-.44-.29h-.25v-1h.98c.43 0 .71.26.71.66V28c.23-.75.7-1.1 1.5-.96V28c-.57-.08-1.28.65-1.42 1.16-.07.25-.1.51-.1.77V32H9v-3.71zM12.5 27h1v3.73c-.01.12.2.28.31.27h.36v1h-.97c-.44 0-.7-.2-.7-.67V27zM15 28.34c.01-.11-.07-.35-.18-.34h-.19v-1h.92c.43 0 .64.29.64.63v.15l-.01.22h.02c.14-.3.37-.55.64-.73.28-.18.6-.26.93-.27.73 0 .87.32 1.08.99h.02c.16-.3.4-.56.69-.74.29-.18.62-.25.96-.25 1.01 0 1.48.56 1.48 1.85V32h-1v-2.93c0-.56-.2-1.07-.76-1.07-.6 0-1.03.6-1.16 1.21-.05.2-.08.42-.08.63V32h-1v-2.93c0-.52-.08-1.07-.67-1.07-.6 0-1.11.6-1.26 1.22-.05.2-.07.41-.07.62V32h-1v-3.66zM27.73 29.26c0-1.26-.75-2.26-2.1-2.26-1.42 0-2.4 1.03-2.4 2.5 0 1.35.97 2.5 2.54 2.5.7 0 1.38-.25 1.9-.72l-.49-.82c-.37.32-.84.5-1.32.53a1.35 1.35 0 0 1-1.42-1.28h3.27c-.01-.01.02-.3.02-.45zm-3.26-.37a1.15 1.15 0 0 1 1.16-.96c.49 0 .87.4.89.96h-2.05zM32.79 27c-.39 0-.53.36-.53.58v.13h-.02s-.38-.71-1.5-.71c-1.4 0-2.16 1.11-2.16 2.48 0 1.37.78 2.52 2.19 2.52.65 0 1.07-.22 1.35-.63h.02l-.01.1v.24c0 .9-.64 1.22-1.37 1.22-.47 0-.93-.12-1.35-.33l-.38.98c.54.27 1.13.41 1.73.42 1.26 0 2.56-.64 2.56-2.35v-3.28c0-.13.08-.27.21-.27h.37V27H32.8zm-1.77 4c-.79 0-1.21-.68-1.21-1.55 0-.84.4-1.45 1.14-1.45.66 0 1.21.37 1.21 1.5-.01 1.11-.56 1.5-1.14 1.5zM38.15 30.78v-1.93c0-1.09-.43-1.85-1.88-1.85l-1.27.02V28h1.26c.55 0 .82.1.82.8v.04h-.15c-.7 0-2.6.12-2.6 1.64 0 .98.7 1.52 1.49 1.52.27.01.54-.07.77-.22.35-.22.5-.52.5-.52-.02.07 0 .14 0 .2 0 .3.21.54.61.54h.98v-1h-.33s-.2 0-.2-.22zm-1.07-1c0 .6-.4 1.27-1 1.27-.44 0-.65-.3-.65-.62 0-.68.9-.77 1.46-.77h.2v.12zM39 26.32c.01-.12-.15-.33-.27-.32h-.3v-1h1.08c.44 0 .49.22.49.65v1.93l.03.41c.36-.57 1.13-.85 1.79-.84 1.08 0 1.34.44 1.34 1.72v1.9c-.01.11.17.23.28.21h.32V32h-.93c-.45 0-.67-.2-.67-.65v-2.23c0-.59 0-.98-.62-.98-.3 0-.59.1-.82.28-.42.32-.7.84-.7 1.35V32H39v-5.68zM5 26h1v1h1v1H6v2.04c0 .8.84.9 1.16.9l.23-.01v1.04l-.37.03C6.34 32 5 31.8 5 30.2V26z" fill="#1B3F71"/><defs><linearGradient id="auww0av20" x1="43.58" y1="19.74" x2="49.94" y2="19.74" gradientUnits="userSpaceOnUse"><stop stop-color="#F26E26"/><stop offset=".97" stop-color="#FFD349"/></linearGradient><linearGradient id="buww0av20" x1="43.58" y1="24.49" x2="49.94" y2="24.49" gradientUnits="userSpaceOnUse"><stop stop-color="#F26E26"/><stop offset=".97" stop-color="#FFD349"/></linearGradient><linearGradient id="cuww0av20" x1="43.58" y1="22.12" x2="49.94" y2="22.12" gradientUnits="userSpaceOnUse"><stop stop-color="#F26E26"/><stop offset=".97" stop-color="#FFD349"/></linearGradient></defs></svg>