<!-- by TradingView --><svg width="56" height="56" viewBox="0 0 56 56" xmlns="http://www.w3.org/2000/svg"><path fill="#F0F3FA" d="M0 0h56v56H0z"/><path d="M15 32c-.87.52-2.37 2-4.5 2-2.16 0-3.92-1.42-4.5-2 .42.42 2.66 1 4.5 1 1.87 0 3.7-.52 4.5-1ZM14.59 25.96c-.7-1.32-2.04-2.83-2.59-2.96.74.18 2.6.92 3.46 2.55.86 1.65.53 3.45.14 4.45 0-2-.41-2.9-1.01-4.04ZM6.41 25.96C7.11 24.64 8.45 23.13 9 23c-.74.18-2.6.92-3.46 2.55A5.54 5.54 0 0 0 5.4 30c0-2 .41-2.9 1.01-4.04Z" fill="#101231"/><path d="M11.92 35.7A50.53 50.53 0 0 0 5 40c1.15-.99 3.25-3.18 5.86-4.54 2.6-1.37 5.9-2.06 9.14-2.46a22.97 22.97 0 0 0-8.08 2.7Z" fill="#FECC23"/><path d="M19.14 26.15c-.58 0-.88.57-1.04 1.35H18V26h4v1.5h-.1c-.07-.78-.41-1.35-1.03-1.35-.17 0-.3-.03-.38 0-.07.02-.12.33-.15.4a.81.81 0 0 0-.05.3v3.53c0 .47.23.53.67.53l.01.04-.01.05h-1.9c-.02 0-.02-.02-.02-.05 0-.03 0-.04.02-.04.43 0 .66-.07.66-.53v-3.54a.78.78 0 0 0-.04-.3c-.03-.07-.08-.37-.16-.39-.08-.02-.2 0-.38 0ZM28.02 30.9l.01.05-.01.05H26.9c-.13 0-.36-.23-.7-.68-.34-.45-.74-1.08-1.21-1.87-.12.03-.23.04-.34.04l-.36-.01v1.88c0 .45.17.54.6.54.02 0 .03.02.03.05 0 .03 0 .05-.02.05h-1.86c-.01 0-.02-.02-.02-.05 0-.03 0-.05.02-.05.44 0 .63-.09.63-.54v-3.7c0-.43-.22-.56-.65-.56V26h1.9c.43 0 .77.09 1 .27.24.18.36.42.36.73 0 .25-.08.49-.22.71-.14.22-.33.4-.56.54.43.68.79 1.2 1.07 1.59.3.37.55.65.78.82.22.16.44.24.66.24Zm-3.72-2.63.44.03c.33 0 .56-.07.7-.22.14-.16.21-.42.21-.79 0-.42-.08-.72-.23-.9a.8.8 0 0 0-.64-.25.92.92 0 0 0-.3.04c-.13.05-.18.18-.18.5v1.59ZM30 30.35c0 .47.17.55.6.55.02 0 .02.02.02.05l-.01.05h-1.97c-.01 0-.02-.02-.02-.05 0-.03.01-.05.02-.05.45 0 .66-.07.66-.55v-3.7c0-.47-.22-.55-.66-.55-.01 0-.02-.02-.02-.05 0-.03.01-.05.02-.05h1.97s.02.02.02.05c0 .03-.01.05-.02.05-.44 0-.61.1-.61.56v3.7ZM31.97 26.95c0 .65.63.99 1.12 1.27.55.33 1.2.72 1.2 1.45 0 .25-.06.48-.2.68-.26.4-.78.65-1.46.65-.43 0-.87-.1-1.18-.29a.14.14 0 0 1-.06-.05.2.2 0 0 1-.01-.1l-.08-1.1c0-.02 0-.03.03-.03s.05 0 .06.02c.21.66.64 1.4 1.43 1.4.52 0 .88-.3.88-.84 0-.45-.25-.79-.55-1.02-.63-.5-1.73-.8-1.73-1.77 0-.83.8-1.22 1.54-1.22.36 0 .68.06.97.18.08.03.12.07.12.14l.04.96c0 .02-.01.03-.04.04-.03 0-.04 0-.05-.02a1.92 1.92 0 0 0-.37-.8.96.96 0 0 0-.82-.37c-.48 0-.84.33-.84.82ZM39.53 26.9c0-.52-.23-.8-.68-.8-.02 0-.02-.02-.02-.05 0-.03 0-.05.02-.05h1.5c.01 0 .02.02.02.05 0 .03 0 .04-.02.04-.41 0-.62.28-.62.82v2.2c0 1.1-.73 1.89-1.83 1.89-1.09 0-1.9-.74-1.9-1.85v-2.52c0-.44-.19-.54-.61-.54-.02 0-.02-.01-.02-.04s0-.05.02-.05h1.83c.02 0 .02.02.02.05 0 .03 0 .04-.02.04-.42 0-.6.12-.6.56v2.23c0 1.23.54 1.87 1.49 1.87.94 0 1.42-.75 1.42-1.62V26.9ZM43 30.32c0 .43.14.5.54.5h.7c.68 0 1.14-.44 1.3-1.12 0-.01 0-.02.03-.01.03 0 .05 0 .05.02V31h-3.98c-.01 0-.02-.02-.02-.05 0-.03 0-.05.02-.05.44 0 .66-.08.66-.55v-3.7c0-.46-.23-.55-.66-.55-.01 0-.02-.02-.02-.05 0-.03 0-.05.02-.05h1.96c.02 0 .02.02.02.05 0 .03 0 .05-.02.05-.43 0-.6.1-.6.56v3.66ZM51.27 30.9c.02 0 .03.02.03.05 0 .03-.01.05-.03.05h-1.6c-.02 0-.03-.02-.03-.05 0-.03.01-.04.03-.04.45 0 .52-.22.35-.61l-.79-1.83h-1.29l-.57 1.5c-.2.5-.05.94.58.94.02 0 .03.01.03.04s0 .05-.03.05h-1.63c-.01 0-.02-.02-.02-.05 0-.03 0-.04.02-.04.53 0 .73-.61.89-1.02l1.49-3.86c0-.02.02-.03.05-.03.03 0 .04 0 .05.03l1.68 3.9c.14.31.34.98.79.98ZM48 28.3h1.14l-.6-1.42-.54 1.41Z" fill="#111332"/></svg>