<!-- by TradingView --><svg width="56" height="56" viewBox="0 0 56 56" xmlns="http://www.w3.org/2000/svg"><path fill="#F0F3FA" d="M0 0h56v56H0z"/><path d="m46.2 34.29.2-.29H49l-.2.29h-.6L47.4 36H46l.8-1.71h-.6Z" fill="#E40613"/><path d="M26 20c-8.22 0-17.58 1.13-21 2 1.45-.3 8.04-1.08 21-1 13.04.08 17 2.5 17 4h9c0-3-15.73-5-26-5ZM19 31H5c0 4 20.08 5.06 29.5 5l.5-1c-11.06 0-15.34-2.6-16-4Z" fill="#E3010F"/><path fill-rule="evenodd" d="m36.2 34-.8 2h.99l.39-.86h.59c.13 0 .31.17 0 .86h.98l.2-.57c.06-.2.05-.43-.4-.43.25 0 .6-.14.79-.43.17-.25 0-.57-.79-.57H36.2Zm.97.29-.2.57h.4c.06 0 .4-.15.4-.29 0-.14-.27-.28-.4-.28h-.2Z" fill="#E3010F"/><path d="M42 34h-2.25L39 36h2.25l.19-.29H40.3l.19-.57h.75l.19-.28h-.75l.19-.43h.93L42 34ZM42.95 34 42 36h1.14l.38-1.14.38 1.14h1.34l.76-2h-1.14l-.57 1.14L43.9 34h-.95Z" fill="#E40613"/><path d="M11.57 23H4.43L4 24h2.81l-2.16 6H7.5l2.12-6H11l.57-1Z"/><path d="m10.5 24.5-2 5.5h2.52l1.12-3h.87c.22 0 .58-.01.28.86-.33.93-.69 1.82-.83 2.14h2.27c.34-.84.86-2.48.82-2.92-.04-.45-.48-.6-.8-.7l-.23-.07s2.2.1 2.47-1.75c.07-.46-.2-1.56-2.67-1.56H12l-.8 1.5h-.7Zm2.87-.5H14c.5 0 .6.42.5 1-.12.73-.63 1-1.01 1H13l.37-2Z"/><path fill-rule="evenodd" d="M19 23h3.5l-1 7h-2.2l.2-1H18l-.62 1H15l4-7Zm1.5 1.5L20 28h-1.5l2-3.5Z"/><path d="M26.5 23h-2.36l-1.93 4.67L22 30h2l1.5-3 .5 3h2.43L31 23h-2.36l-1.14 3-1-3ZM35 23h-2.62c-.77 0-1.13.32-1.38 1-.18.48-.5 1.5-.5 1.5 0 .78 2.3 1.78 2.3 2.56 0 .77-.88.94-1.3.94-.86 0-1.05-.86-.38-1.33h-1.48s-.59 1.01-.61 1.16c-.17.94.62 1.17.97 1.17h2c1.67 0 2.8-1.17 3-2.33.2-1.17-2.42-2.73-2.42-3.11 0-.56.08-.56.92-.56.67 0 .77.37.7.5l-.15.5h2.22c0-.06.14-.42.23-1 .1-.64-1-1-1.5-1Z"/><path d="M36.5 27h-1a4.08 4.08 0 0 1-3 3.2l-1 2.8h2.54l.96-2.5.5 2.5H38l-.5-3.5 3-2.5h-2L36 29l.5-2Z"/><path fill-rule="evenodd" d="M41.02 27h2.99c.5 0 1.23.5.91 1.76a25.4 25.4 0 0 1-.6 2.12c-.2.7-.9 2.12-2.8 2.12h-2.56c-.62 0-1.27-.67-.8-1.94l.54-1.4c.18-.46.3-.76.33-.9l2-1.76Zm.83 3.61c-.2.35-.37.67-.5.93-.2.36-.38.46-.94.46-.55 0-.46-.46-.23-.77l1.4-2.77c.07-.15.36-.46.92-.46.34 0 .6.11.47.46-.14.35-.66 1.31-1.12 2.15Z"/><path d="M47.6 27h-2.3c.21.06.37.88-.3 3-.67 2.12-1.51 2.7-2 2.82V33h2l1.5-3 .48 3h2.5L52 27h-2.3l-1.2 3-.9-3Z"/></svg>