<!-- by TradingView --><svg width="56" height="56" viewBox="0 0 56 56" xmlns="http://www.w3.org/2000/svg"><path fill="#F0F3FA" d="M0 0h56v56H0z"/><path d="M38.03 40.8a6.65 6.65 0 0 1-9.23-1.6 7.26 7.26 0 0 1-1.27-5.38 3.43 3.43 0 0 0-3-4.25c-.82-.14-1.37-.25-1.66-.32a8.94 8.94 0 0 1-5.93-4.64 8.71 8.71 0 0 1 2.8-11.1 8.4 8.4 0 0 1 11.2 1.43 9.16 9.16 0 0 1 2.08 7.3c-.05.3-.15.86-.32 1.7a3.43 3.43 0 0 0 1.83 4.11c.28.14.69.22.96.28a7.07 7.07 0 0 1 5.43 7.78 6.85 6.85 0 0 1-2.9 4.7Z" fill="url(#a)"/><path d="M38 26a3 3 0 1 0 0-6 3 3 0 0 0 0 6ZM20 42a6 6 0 1 0 0-12 6 6 0 0 0 0 12Z" fill="#A3195B"/><defs><linearGradient id="a" x1="38.59" y1="27.74" x2="26" y2="36.34" gradientUnits="userSpaceOnUse"><stop stop-color="#EE462E"/><stop offset="1" stop-color="#EE6D22"/></linearGradient></defs></svg>