<!-- by TradingView --><svg width="56" height="56" viewBox="0 0 56 56" xmlns="http://www.w3.org/2000/svg"><path fill="#F0F3FA" d="M0 0h56v56H0z"/><path d="M17.12 13h21.76A4.14 4.14 0 0 1 43 17.12v21.76A4.14 4.14 0 0 1 38.88 43H17.12A4.14 4.14 0 0 1 13 38.88V17.12A4.14 4.14 0 0 1 17.12 13Z" fill="#010066"/><path fill-rule="evenodd" d="M27.44 29H33v5h-9v-9h2v2.72c0 .63.72 1.28 1.44 1.28ZM39 20h-7v5h5.56c.82 0 1.44.63 1.44 1.48v12.04c0 .85-.62 1.48-1.44 1.48H19.44c-.82 0-1.44-.63-1.44-1.48V25h-5v-5h5v-4h6v4h2v-4h13v4Z" fill="#FFF500"/></svg>