<!-- by TradingView --><svg width="56" height="56" viewBox="0 0 56 56" xmlns="http://www.w3.org/2000/svg"><path fill="#F0F3FA" d="M0 0h56v56H0z"/><path d="M35.25 16v1.71c.34.43.82 1.07 1.22 1.72.21.34.41.68.55 1 .1.2.18.42.22.61l1.43.25-.87 1.07c.18.58.45 1.82.47 3.24l1.73.57-1.22 1.2c0 .35-.04.83-.1 1.29a4.6 4.6 0 0 1-.25.92 1.17 1.17 0 0 1 .85 1.18v.4l-.36-.17a.8.8 0 0 0-.47-.1.18.18 0 0 0-.11.08c-.03.04-.07.12-.07.3 0 1.17-1.68 3.73-6.3 3.73h-.47l.35-.47c1.44-.79 4.4-3.67 4.4-8.75 0-.96-.39-3.5-1.97-5.85-.82-1.22-.96-2.15-.69-2.8.27-.67.89-.98 1.36-1.07l.3-.06Zm-1.2 1.3c-.17.45-.13 1.19.65 2.36a12.15 12.15 0 0 1 2.06 6.12c0 4.53-2.27 7.41-3.92 8.69 3.76-.3 4.93-2.45 4.93-3.2a1 1 0 0 1 .15-.59.68.68 0 0 1 .43-.27 1 1 0 0 1 .35-.01.61.61 0 0 0-.2-.23.88.88 0 0 0-.48-.16h-.6l.42-.42a.96.96 0 0 0 .2-.37 9.25 9.25 0 0 0 .24-1.95v-.1l.79-.79-1.3-.42v-.18a12 12 0 0 0-.5-3.41l-.04-.15.69-.68h-1.16v-.25c0-.14-.06-.37-.2-.66-.13-.29-.31-.61-.52-.94-.41-.66-.9-1.32-1.24-1.73l-.06-.07v-1.25c-.28.12-.55.34-.68.67ZM20.75 16v1.71a19.8 19.8 0 0 0-1.22 1.72c-.21.34-.41.68-.55 1-.1.2-.18.42-.22.61h-1.9l1.34 1.32a12.8 12.8 0 0 0-.47 3.24l-1.73.57 1.22 1.2c0 .35.04.83.1 1.29a4.6 4.6 0 0 0 .25.92 1.17 1.17 0 0 0-.85 1.18v.4l.36-.17a.8.8 0 0 1 .47-.1c.05.02.09.04.11.08.03.04.07.12.07.3 0 1.17 1.68 3.73 6.3 3.73h.47l-.35-.47c-1.44-.79-4.4-3.67-4.4-8.75 0-.96.39-3.5 1.97-5.85.82-1.22.96-2.15.69-2.8a1.83 1.83 0 0 0-1.36-1.07l-.3-.06Zm1.2 1.3c.17.45.13 1.19-.65 2.36a12.15 12.15 0 0 0-2.06 6.12c0 4.53 2.27 7.41 3.92 8.69-3.76-.3-4.93-2.45-4.93-3.2a1 1 0 0 0-.15-.59.68.68 0 0 0-.43-.27 1 1 0 0 0-.35-.01c.05-.1.12-.18.2-.23a.88.88 0 0 1 .48-.16h.6l-.42-.42a.96.96 0 0 1-.2-.37 9.25 9.25 0 0 1-.24-1.95v-.1l-.79-.79 1.3-.42v-.18a12 12 0 0 1 .5-3.41l.04-.15-.69-.68h1.16v-.25c0-.14.06-.37.2-.66.13-.29.31-.61.52-.94.41-.66.9-1.32 1.24-1.73l.06-.07v-1.25c.28.12.55.34.68.67Z" fill="#B12331"/><path fill-rule="evenodd" d="M28 44a16 16 0 1 0 0-32 16 16 0 0 0 0 32Zm0 1a17 17 0 1 0 0-34 17 17 0 0 0 0 34Z" fill="#B12331"/><path fill-rule="evenodd" d="M28 33.5a7.5 7.5 0 1 0 0-15 7.5 7.5 0 0 0 0 15Zm0 .5a8 8 0 1 0 0-16 8 8 0 0 0 0 16Z" fill="#B12331"/><path d="M27 21.1c-.74.15-1.42.46-2 .9v-2.33a6.97 6.97 0 0 1 6 0V22a4.98 4.98 0 0 0-2-.9V25h-2v-3.9Z" fill="#B12331"/><path d="M21 26a7 7 0 0 1 3-5.75V23a5 5 0 0 0 3 7.9V28h-1v-2h7c0-2-.67-2.67-1-3v-2.5c2.5 2 3 4 3 5.5 0 1.2-1.33 1.83-2 2l1 1.5-1 1.5-2.5-3H29v4.93A7 7 0 0 1 21 26Z" fill="#B12331"/><path fill-rule="evenodd" d="M27.5 37.75c.14 0 .25.11.25.25v2a.25.25 0 1 1-.5 0v-2c0-.14.11-.25.25-.25ZM29 35c-.17-.17-.6-.5-1-.5s-.83.33-1 .5c-.33-.66-1.58-.91-2.48-.98L24 34l.5 2a1.4 1.4 0 0 0-.53-.08c-.86.06-1.33 1.02-1.47 1.58 1.24-.62 1.96-.08 2.3.5.1.18.16.35.2.5.17-.17.31-.27.43-.31.45-.17.57.42.57.81v2c0 .5.5 1 1.5 1 .8 0 1.5-.5 1.5-1v-2c0-.87.52-1.09 1-1.08.18 0 .36.03.5.08v-1a3.86 3.86 0 0 1 2.5 1c0-1.2-.75-1.73-1.4-1.91A2.21 2.21 0 0 0 31 36a5.58 5.58 0 0 0 1-1.5 4.73 4.73 0 0 0-.51-.1c-1.32-.18-2.2.3-2.49.6Zm2.22-.13a2.6 2.6 0 0 0-2.22.84c-.25-.25-.6-.71-1-.71-.45 0-.86.57-1.14.84-.49-.98-1.1-1.2-2.21-1.3l.56 2.22c-.4-.13-.94-.44-1.36-.3a.89.89 0 0 0-.4.27c.74-.03 1.4.37 1.77 1l.16-.05c.8-.18 1.12.69 1.12 1.32v1.5c0 .5 0 1 1 1s1-.5 1-1V39c0-.9.58-1.6 1.5-1.58v-.92c.4-.54.86-1.05 1.22-1.63Zm.65 1.88c-.3-.18-.64-.25-.87-.25h-1c.5 0 1.46.1 1.87.25Z" fill="#B12331"/><path fill-rule="evenodd" d="M40.79 19.8c0 .48 0 .87.45 1.28a.9.9 0 0 1 .3.5c.09.41-.22.73-.22 1.13 0 .4.74.57.99.8.14.13.21.27.23.43.03.39-.28.7-.3 1.08-.02.14 0 .3.12.5.56 1.02.56 2.03.56 2.52 0 .35-.28.7-.24 1.03.04.29.38.38.3.72-.09.45-.62.77-.96 1.02v.01c-.2.16-.61.37-.7.63 0 .04.03.11.11.22.31.37.95.7.95 1.23 0 .16-.1.3-.2.38-.29.28-.84.56-1.4.81-.38.17-.76.32-1.06.43-.02.26-.09.6-.23.93-.17.41-.47.84-.98 1.07-.6.27-1.11.28-1.47.18-.01.18-.04.38-.1.57-.04.16-.1.33-.2.46a.6.6 0 0 1-.48.27c-.35 0-.67-.16-.95-.35-.74-.5-1.09-.92-1.96-1.2-.51-.18-2-.37-2.35-.45l2.6-.43c1.14-.3 1.76-.48 2.66-.48.2 0 .43-.1.6-.37.26-.42.02-1.23.52-1.48.4-.2 1.03.28 1.36-.02.09-.09.13-.16.14-.23.11-.47-.22-1.07-.22-1.54 0-.26.07-.52.33-.63a.65.65 0 0 1 .34-.04c.33.04.62.23.93.35-.14-.25-.38-.63-.52-1.03-.3-.8.56-1.46.38-2.03a4.07 4.07 0 0 0-.32-.34.63.63 0 0 1-.23-.57c.02-.14.1-.3.15-.42.15-.34.22-.66.03-1.01-.16-.29-.23-.5-.27-.69-.03-.15 0-.3-.03-.44 0-.05-.02-.11-.18-.26-.35-.32-.35-.65-.35-.95v-.01c0-.3 0-.61-.23-1.05-.3-.53-.3-.94-.3-1.26 0-.3 0-.45-.19-.62-.32-.3-.47-.73-.47-1.14 0-.41.15-.84.47-1.14.25-.23.59-.19.84-.1.63.21 1.75.95 1.75 1.73ZM37 36.15c.12.08.5.23 1.12 0v-1.06h-.9c-.16.2-.36.34-.57.41l.35.65Zm-.9-.57c-.8.1-1.58.4-2.39.47.78.28 1.24.75 1.9 1.21.25.17.46.25.64.25l.04-.04a1 1 0 0 0 .13-.32c.07-.25.1-.56.1-.8l-.42-.77Zm1.37-.98h1.18v1.2c.14-.14.25-.32.34-.52.14-.35.19-.7.19-.92v-.16l.17-.07.97-.38-.33-.86h-.57a.9.9 0 0 1-.03.2.91.91 0 0 1-.96.68c-.24 0-.57-.18-.8-.1-.16.18-.08.7-.16.93Zm1.87-2.2h1.03l.43 1.13a4.56 4.56 0 0 0 1.04-.64c0-.05-.03-.11-.11-.2-.3-.36-.82-.63-.94-1.1a.4.4 0 0 1-.28.1c-.47 0-.82-.37-1.27-.43h-.03a.43.43 0 0 0-.03.19 3.14 3.14 0 0 0 .16.96Zm1.52-1.2c.13-.23.36-.4.56-.56l-.47-.37h-.58c.15.3.37.6.49.92Zm-.68-1.42h.6v-1h-.37l-.2.34c-.1.2-.1.41-.03.66Zm.44-1.49h.44l1.22.14a2 2 0 0 0 .08-.26l-1.34-.81-.6.27.02.02c.16.18.24.4.18.64Zm-.53-1.05.97-.44 1.3.79a4.35 4.35 0 0 0-.42-1.73h-1.58c.1.38-.01.72-.16 1.06a1.2 1.2 0 0 0-.1.32Zm.06-1.86h1.58a1.27 1.27 0 0 1-.04-.24l-1.13-.66-.54.59.13.3Zm-.21-.97.52-.56 1.31.76c.06-.18.24-.43.22-.63 0-.03 0-.06-.04-.1l-1.66-.54-.51.8c.08.09.13.18.16.27Zm-.48-.74.6-.92.78.25a.7.7 0 0 1-.06-.3c0-.33.3-.7.23-1.04a.35.35 0 0 0-.06-.12l-1.36.41-.36.33c.22.45.22.81.22 1.1v.3Zm-.45-1.88.3-.26 1.28-.4c-.28-.37-.33-.79-.34-1.13h-1.23l-.28.3c.17.26.17.52.17.75v.02c0 .22 0 .45.1.72Zm-.6-1.88c-.1-.17-.16-.38-.16-.6 0-.31.12-.61.32-.8.38-.34 1.39.8 1.55 1.04h-1.32l-.39.36Zm3.73 9-.83-.1v1.1l.52.4c.21-.15.4-.3.52-.44.07-.09.1-.15.1-.18v-.01a.9.9 0 0 1-.3-.55.9.9 0 0 1 0-.22Z" fill="#B12331"/><path d="m25.76 35.32 1.13.59.46-.49 1.04.54h1.11v1.15L28 38l1.03-1.09v-.46h-.75l-.84-.44-.46.49-.75-.39v.34h-.6L27 38l-2.5-2.04h1.26v-.64Z" fill="#B12331"/><path fill-rule="evenodd" d="M20.3 36.73c1 .49 2.08.73 3.21.6a6.7 6.7 0 0 1-3.28-.37c-.03.22-.12.4-.24.56-.16.2-.39.33-.62.4a2.6 2.6 0 0 1-1.32-.01l-.29-.08.13-.27a1.9 1.9 0 0 1 1.05-.91l.35-.12a7.99 7.99 0 0 1-.7-.43c-.24.28-.58.4-.9.44-.4.05-.83-.03-1.09-.12l-.37-.13.28-.28c.38-.4.78-.59 1.14-.66a9.4 9.4 0 0 1-.68-.7 1.1 1.1 0 0 1-1.04.02c-.4-.19-.71-.55-.89-.82l-.24-.39h.44c.33 0 .62.03.87.07l-.35-.56a1.67 1.67 0 0 1-2.18-1.16l-.07-.23.22-.08a1.86 1.86 0 0 1 1.36.08l-.18-.5c-.46.06-.84-.08-1.13-.3a2 2 0 0 1-.68-.95l-.1-.32h.33c.51 0 .92.07 1.24.19a8.75 8.75 0 0 1-.04-.2 1.7 1.7 0 0 1-1.07-.43 1.14 1.14 0 0 1-.37-.8v-.25h.24c.48 0 .85.11 1.11.28v-.29c-.44-.05-.76-.21-.98-.42a1.14 1.14 0 0 1-.37-.8v-.25h.24c.52 0 .9.13 1.16.32l.04-.35a1.13 1.13 0 0 1-.54-.35c-.25-.27-.42-.71-.42-1.35v-.25h.24c.22 0 .53.1.77.38l.15.2.1-.52-.16-.08c-.21-.1-.5-.32-.6-.67-.09-.38.07-.8.54-1.22l.06-.07h.1c.25 0 .4.24.43.52l.01.16.3-.8c-.75-.8-.74-1.47-.44-1.78l.13-.13.15.08c.36.19.57.46.66.74l.12-.23-.1-.11c-.2-.2-.4-.56-.38-1 .02-.46.28-.94.9-1.36l.22-.16.12.25c.1.2.18.54.13.93.41-.58.87-1.14 1.38-1.69-.54.58-1.01 1.24-1.43 1.96-.07.3-.21.61-.47.92l-.21.48c.24-.15.53-.26.86-.26h.33l-.1.33c-.09.27-.27.65-.55.93-.15.13-.32.25-.54.3a.94.94 0 0 1-.48-.02c-.09.26-.17.53-.24.8.14-.12.31-.23.52-.34l.35-.17v.4c0 .2-.06.5-.24.76a1.1 1.1 0 0 1-.9.47l-.11.6c.15-.06.32-.1.53-.1h.24v.24c0 .2-.06.5-.24.77-.15.22-.38.4-.71.45l-.04.38a1.9 1.9 0 0 1 1.23-.36h.24v.25c0 .23-.1.54-.37.8-.24.23-.62.4-1.15.43a18.69 18.69 0 0 0 0 .5c.17-.15.4-.31.7-.47l.34-.18v.4c0 .2-.06.5-.24.76-.15.22-.37.39-.69.45l.13.57c.18-.2.5-.37.96-.53l.32-.1v.34c0 .26-.05.66-.23.96-.1.15-.23.29-.43.35-.1.02-.2.03-.3.01l.2.51a2 2 0 0 1 .92-.59l.31-.1v.34c0 .33-.15.97-.69 1.44.18.3.37.61.57.91 0-.45.17-1.01.67-1.54l.27-.28.13.38c.08.27.16.7.12 1.13-.05.4-.21.82-.6 1.08.17.21.36.42.55.61.02-.3.17-.61.49-.94l.17-.17.16.17c.25.25.47.9.06 1.75.26.2.52.4.8.56-.08-.32-.05-.75.2-1.25l.1-.23.22.11c.2.1.45.33.53.68.07.33-.03.7-.36 1.08Zm-4.32-4.5c.2-.18.3-.39.37-.58a.97.97 0 0 0-.43.46l.06.13ZM15.06 26a.59.59 0 0 0 .27-.21.78.78 0 0 0 .1-.18.59.59 0 0 0-.28.22.77.77 0 0 0-.08.15V26Zm-.37 4.32c-.19-.13-.49-.25-.97-.3.09.14.2.27.34.37.18.14.4.23.7.21l-.07-.28Zm1.86 3.84-.05-.02a3.48 3.48 0 0 0-.7-.14c.1.09.21.17.33.23.14.06.28.09.41.07.03 0 .07-.01.1-.03a9.43 9.43 0 0 1-.09-.1ZM25 36.97Zm-8.06-16.4h-.1l.01-.1c.1-.52.95-1.36 1.82-.97.03 0 .06.02.09.04l-.05.09c-.46.87-1.29.93-1.77.93Zm1.69-.98a1.14 1.14 0 0 0-1.14.16c-.17.12-.3.27-.4.42-.07.1-.12.2-.14.3.48-.01 1.25-.08 1.68-.88Zm-2.08-.3c.03.3 0 .73-.34 1.17a.85.85 0 0 1-.08-.41c0-.2.1-.48.42-.76Zm-.96 2.37.01.16a1.08 1.08 0 0 1-.24-.59c.15.13.2.29.23.43Zm-.89 1.4Zm-.07.86c.1-.34.11-.57.1-.7-.2.25-.22.43-.2.53.02.06.06.12.1.17Zm-.4 1.35c.12.13.23.35.28.7a.71.71 0 0 1-.17-.14 1.25 1.25 0 0 1-.27-.7l.16.14Zm.09 2.07c.05.06.1.11.13.17a1.16 1.16 0 0 1-.67-.29.73.73 0 0 1-.13-.16c.33.04.54.16.67.28Zm.9 0a.73.73 0 0 0-.14.17c.34-.05.54-.17.67-.29.06-.05.1-.1.13-.16-.33.04-.54.16-.67.28Zm-.9 1.48.13.17a1.16 1.16 0 0 1-.67-.28.73.73 0 0 1-.13-.17c.33.05.54.16.67.28Zm1.11 1.65.03.1c.1.03.15.03.2.02.04-.02.1-.06.14-.14.06-.09.1-.2.12-.32-.3.14-.43.26-.49.34Zm-.7 1.49c.24.08.49.24.66.59-.18.02-.39.01-.59-.05a1.1 1.1 0 0 1-.66-.59c.18-.02.39-.02.59.05Zm2.77.83c-.22.38-.25.75-.22 1 .13-.14.2-.34.22-.56.02-.15.02-.3 0-.44Zm-.28 3.26c.37-.23.72-.26.97-.22a.99.99 0 0 1-.55.22c-.14.02-.29.02-.42 0Zm1.2-.92c0 .06.03.11.07.16.08-.27.08-.49.05-.64-.14.22-.15.38-.13.48Zm.7 1.98c.21-.09.44-.14.63-.16a.66.66 0 0 1-.12.25c-.1.11-.23.2-.4.24-.22.07-.47.08-.7.05.15-.17.36-.3.58-.38Zm1-1.52c-.09.28-.08.5-.05.65.14-.22.14-.38.12-.48a.45.45 0 0 0-.07-.17Z" fill="#B12331"/></svg>