<!-- by TradingView --><svg width="56" height="56" viewBox="0 0 56 56" xmlns="http://www.w3.org/2000/svg"><path fill="#F0F3FA" d="M0 0h56v56H0z"/><path d="M36.75 23a6.05 6.05 0 0 1 2.7.54c.1.03.18.04.25.04.11 0 .2-.04.23-.12a1 1 0 0 0 .14-.36h.37l-.08 2.48h-.38c-.1-.83-.6-1.57-1.32-1.97-.4-.23-.88-.35-1.46-.35-.7 0-2.2.35-2.2 1.24 0 1.17 2.4 1.55 3.21 1.93 1.04.44 2.79 1.2 2.79 2.57 0 1.85-2.73 2-4.07 2a8.03 8.03 0 0 1-2.63-.4c-.25-.1-.43-.16-.56-.16-.11 0-.2.04-.25.12-.04.08-.08.28-.11.44H33v-3h.44c.05.48.17.91.36 1.33.21.42.52.75.94 1 .42.26.99.39 1.69.39.76 0 2.57-.23 2.57-1.22 0-1.13-2.17-1.67-3-2.03-1.06-.46-3-1.04-3-2.47 0-1.7 2.5-2 3.75-2ZM32 23v.22c-.8.1-1 .28-1 .78v3.65C31 30 30.22 31 28 31c-1.44 0-3-.53-3-2.06v-4.77c0-.7-.3-.93-1-.95V23h4v.22c-.72.02-1 .22-1 .95v4.18c0 .77-.07 1.76.74 2.12.22.1.5.14.82.14 1.7 0 2.15-1.2 2.15-2.68v-4.04c0-.59-.63-.63-1.1-.67V23H32ZM15 23h3.5c1.26 0 3.5.35 3.5 2 0 1.77-2.26 2.12-3.61 2.12h-1.14V27h1.25c1.14 0 1.5-.87 1.5-2 0-.98-.41-1.78-1.5-1.78-.65 0-.5.38-.5.95v5.5c0 .7-.05 1.07.65 1.1V31H15v-.22c.69-.04 1-.4 1-1.1v-5.5c0-.67-.32-.94-1-.96V23Zm2.25 4c.34 0 .63.03.88.06.25.02.45-.04.63-.02l.51.04c.72.06 1.24.2 1.58.43.35.23.57.57.68 1.03.1.42.18 1.94.83 1.94.22-.02.33-.1.47-.26l.17.14c-.21.23-.44.39-.68.48-.25.1-.54.16-.89.16-1.47 0-1.58-1.12-1.8-2.3a5.45 5.45 0 0 0-.2-.81 1.31 1.31 0 0 0-.34-.56.75.75 0 0 0-.56-.2h-1.28V27ZM14 22v4h-.44c-.3-1.63-.88-3.61-2.9-3.61H10v9.68c0 1.28.8 1.56 2.02 1.6V34H5.98v-.34c1.23-.03 2.02-.3 2.02-1.6V22.4h-.65c-2.02 0-2.58 1.97-2.91 3.61H4v-4h10ZM52 22v4h-.44c-.3-1.63-.88-3.61-2.9-3.61H48v9.68c0 1.28.8 1.56 2.02 1.6V34h-6.04v-.34c1.23-.03 2.02-.3 2.02-1.6V22.4h-.65c-2.02 0-2.58 1.97-2.91 3.61H42v-4h10Z" fill="#AC8100"/><path d="M42 32H13v-.5h29v.5Z"/><path fill="#878787" d="M14 33h27v2H14z"/></svg>