<!-- by TradingView --><svg width="56" height="56" viewBox="0 0 56 56" xmlns="http://www.w3.org/2000/svg"><path fill="#F0F3FA" d="M0 0h56v56H0z"/><path d="M9 27v-8c1.55 0 2 1.33 2 2v1h1c1.55 0 2 1.33 2 2h-3v3c0 1.6 1.22 2 1.87 2 1.16 0 1.13 1 1.13 2h-2c-2 0-3-2.5-3-4Z" fill="#2E3166"/><path d="M15 27.5V22c1.6 0 2 1.33 2 2v2.5c0 1 .4 2.5 2 2.5s2-1.5 2-2.5V22h2v5.5c0 1.5-1.2 3.5-4 3.5s-4-2-4-3.5ZM34 27.5V22c1.6 0 2 1.33 2 2v2.5c0 1 .4 2.5 2 2.5s2-1.5 2-2.5V22h2v5.5c0 1.5-1.2 3.5-4 3.5s-4-2-4-3.5Z" fill="#2D3363"/><path fill-rule="evenodd" d="M33 26.5c0 1.29-.54 2.45-1.4 3.27.73.64 1.4 1.7 1.4 3.23 0 2.8-2.22 4-3 4h-4c0-1.6 1.04-2 1.56-2H29c.78 0 2-.4 2-2s-1.22-2-2-2h-.5a4.5 4.5 0 1 1 0-9H33c0 .53-.19 1.48-.87 1.85.55.74.87 1.66.87 2.65Zm-2 0a2.5 2.5 0 1 1-5 0 2.5 2.5 0 0 1 5 0Z" fill="#2E3164"/><path d="M25 39a1 1 0 0 1 1-1h7a1 1 0 1 1 0 2h-7a1 1 0 0 1-1-1Z" fill="#E30C15"/><path d="M34 34a1 1 0 0 1 1-1h7a1 1 0 1 1 0 2h-7a1 1 0 0 1-1-1Z" fill="#2A79C1"/><path d="M43 29a1 1 0 0 1 1-1h7a1 1 0 1 1 0 2h-7a1 1 0 0 1-1-1Z" fill="#9EC51A"/></svg>