<!-- by TradingView --><svg width="56" height="56" viewBox="0 0 56 56" xmlns="http://www.w3.org/2000/svg"><path fill="#F0F3FA" d="M0 0h56v56H0z"/><path d="m17.35 25.35-3.44.07h-.12a.02.02 0 0 1 0-.02c.02-.07.17-.13.23-.17L19 22c.05-.02.08-.01.11.04v.05l-.02.03c-.23.2-.42.38-.57.54-.63.64-1.1 1.09-1.59 1.65-.1.1-.19.23-.26.36-.02.03-.01.05.01.07l.13.07c.26.11.47.21.64.3a.5.5 0 0 1 .17.13l.01.03c0 .04-.02.06-.06.06h-.22Z" fill="#C73134"/><path d="m14.45 23.35-3.37 2.9c-.02.02-.02.03-.01.05.35.94.7 1.85 1.02 2.74.05.12.12.18.25.18a38.5 38.5 0 0 1 .8.02l-.42 1.22-.01.01-.02.01-3.05.02h-.03a.07.07 0 0 1-.03-.03l-.06-.14-1.02-2.78c-.02-.05-.03-.05-.05 0l-.96 2.82c-.05.14-.1.12-.23.12H4.5l-.02-.01a.03.03 0 0 1 0-.03l2.56-7.4.01-.02.03-.01 2.9-.02.02.01v.04l-1.3 3.82c-.03.06-.01.07.03.03.9-.79 1.94-1.7 3.12-2.7l1.24-1.08c.14-.12.21-.11.4-.11a84.99 84.99 0 0 1 1.26.03v.01l-.05.08-.24.22ZM33.09 24.64l-2.38 6.09a.05.05 0 0 0 0 .05c.11.1.16.22.31.22h19.63c-.11.36-.18.6-.32.95l-.03.03a17.58 17.58 0 0 0-.2.02H29.48c-.13 0-.27 0-.4-.02-.36-.05-.62-.36-.71-.7a1.37 1.37 0 0 1-.03-.5c.01-.13.06-.24.1-.36.63-2.11 1.66-4.17 2.4-6.25.03-.07.07-.1.13-.12.11-.02.24-.05.39-.05h1.93c.02 0 .03.01.03.03l-.22.61ZM22.86 26.94c.08.39.04.76-.1 1.11l-.48 1.16a.3.3 0 0 0-.03.15c.01.06.06.1.14.11a3 3 0 0 0 .63 0h.07a.02.02 0 0 1 0 .01h.01v.02l-.39.94c0 .03-.03.04-.06.04a263.26 263.26 0 0 1-2.12.02.59.59 0 0 1-.39-.12.81.81 0 0 1-.35-.84 82.71 82.71 0 0 1 .8-2.1c-.03-.15-.13-.2-.28-.16-.17.04-.2.16-.27.31a276.6 276.6 0 0 0-1.17 2.88l-.03.01-2.37.01v-.01l.82-2.07.92-2.4.02-.01h1.81a1.88 1.88 0 0 1 .18.02l.01.01a1.08 1.08 0 0 1-.02.34l.01.01h.01c.14-.05.27-.15.4-.2.26-.13.56-.19.9-.18.63.01 1.15.35 1.33.94Z"/><path d="M44.6 27.13c.02.34-.03.67-.16.99-.15.37-.3.75-.47 1.12-.07.18.08.24.24.23.16.02.33.02.5 0h.07l.01.01.01.02-.39.95c0 .01 0 .02-.02.03l-.04.02H42.3c-.13 0-.23 0-.28-.03a.83.83 0 0 1-.51-.63c-.03-.2 0-.37.06-.54l.65-1.62c.04-.1.11-.2.08-.3-.02-.07-.08-.11-.16-.12-.16 0-.27.06-.33.2a306.36 306.36 0 0 0-1.22 3.02h-.03l-2.37.02c-.01 0-.02 0-.01-.02l.78-1.96L40 26.06c0-.01 0-.02.02-.03l.03-.01c.14-.02.26-.02.34-.02h1.6c.01 0 .03 0 .03.02.03.07-.07.3-.1.37 0 .01 0 .02.02 0a1.96 1.96 0 0 1 2.05-.2c.35.21.56.52.62.94ZM13.58 28.64l1.04-2.61.01-.02h.02l.66-.01h1.58a8.03 8.03 0 0 0 .1.03l-1.2 3.13c-.03.08-.04.14-.04.17.02.08.08.12.18.12a10.08 10.08 0 0 0 .7.02v.01l-.37.97a.07.07 0 0 1-.07.04l-2.07.01c-.35 0-.64-.3-.73-.6-.08-.25-.04-.62.04-.86l.15-.4Z"/><path fill-rule="evenodd" d="m50.7 30.5.34-.84.05-.13c.01-.03 0-.04-.02-.03h-.69c-.05 0-.13-.02-.15-.08a.17.17 0 0 1 0-.11c.36-.87.63-1.78.9-2.7.25-.8.49-1.6.78-2.36l.01-.03c.03-.06.1-.22.07-.22h-2.08c-.08 0-.17.03-.26.05-.04.01-.06.03-.07.05-.07.18-.15.51-.24.89-.1.44-.22.93-.35 1.26a.02.02 0 0 1-.02 0 2.03 2.03 0 0 0-1.19-.24 3.2 3.2 0 0 0-2.34 1.2c-.15.21-.26.4-.31.58a2.76 2.76 0 0 0-.03 1.58c.16.58.64 1.01 1.27 1.11.46.07.92.03 1.31-.2a17.25 17.25 0 0 0 .3-.17l.01.01c.02.09.12.4.24.4a262.65 262.65 0 0 1 2.47-.03Zm-3.17-2-.22.62c-.06.16-.06.42.17.4.17-.02.3-.3.35-.44l.63-1.7a.57.57 0 0 0 .02-.19c0-.12-.07-.24-.2-.2-.2.04-.28.24-.35.43l-.4 1.08ZM29.18 27.7l.53-1.36.12-.3c.01-.03 0-.04-.02-.04h-2.27l-.02.02-.14.24a.02.02 0 0 1-.02 0h-.01c-.2-.13-.43-.21-.67-.24a3.23 3.23 0 0 0-2.08.46c-.42.26-.75.59-.99 1.01-.43.9-.46 2.28.53 2.88.45.28.98.27 1.49.15l.01.01a.57.57 0 0 1-.55.47H4.47c-.05 0-.1 0-.1.05l-.18.43-.19.47c0 .03 0 .05.03.05h1.33a177705.98 177705.98 0 0 0 20.82 0 1.62 1.62 0 0 0 1.43-.6c.14-.16.24-.33.3-.5l1.27-3.2Zm-2.83-.3a258.99 258.99 0 0 0-.66 1.7c-.05.12-.05.3.12.34.24.06.36-.26.44-.46l.02-.05.57-1.48c.05-.13.08-.41-.15-.39-.18.03-.27.19-.34.34ZM38.1 27.22c.08-.23.18-.46.27-.68l.23-.52s0-.02-.02-.02h-2.24a.07.07 0 0 0-.05.03l-.14.22a.03.03 0 0 1-.02.01.04.04 0 0 1-.03 0 1.57 1.57 0 0 0-.86-.26c-.7-.02-1.37.13-1.95.52-.45.28-.82.69-1 1.16-.22.52-.25 1.06-.12 1.61.1.43.36.76.76 1 .29.16.69.22 1.02.2.3 0 .56-.07.78-.2l.34-.2h.01l.01.01.02.06c.02.12.06.28.14.31h.01c.02.01.07.03.13.03a140.82 140.82 0 0 1 2.34-.02l.02-.01.02-.03.4-1.03-.01-.01v-.01H37.46c-.12-.01-.23-.06-.18-.2l.8-1.97Zm-2.65-.48c-.21.04-.29.24-.36.43l-.4 1.1-.23.6c-.06.16-.06.42.18.4.16-.03.29-.3.34-.44l.63-1.7a.57.57 0 0 0 .03-.18c0-.12-.07-.24-.2-.21Z"/></svg>