<!-- by TradingView --><svg width="56" height="56" viewBox="0 0 56 56" xmlns="http://www.w3.org/2000/svg"><path fill="#F0F3FA" d="M0 0h56v56H0z"/><path d="m6 26 2 3.5-.23.2L6 26.65 4.23 29.7 4 29.5 6 26Z" fill="#879677"/><path d="M16.31 26c.96 0 1.69.6 1.69 1.58 0 .96-.61 1.42-1.58 1.42h-.72v2H15v-5h1.31Zm.11 2.3c.52 0 .88-.2.88-.7a.85.85 0 0 0-.88-.9h-.72v1.6h.72ZM17.62 31l1.98-5h.04l1.98 5h-.76l-1.44-3.9.48-.33L18.27 31h-.65Zm1.2-1.6h1.6l.24.6h-2.03l.2-.6ZM22.7 27.97v.25l.16-.15L24.91 26h.99l-2.16 2.17L26 31h-.97l-1.85-2.37-.48.38V31H22v-5h.7v1.97ZM26.7 29.18c0 .65.67 1.12 1.29 1.12.63 0 1.31-.44 1.31-1.12V26h.7v3.2c0 1.1-.97 1.8-2.01 1.8-1.04 0-1.99-.7-1.99-1.8V26h.7v3.18ZM30 31l1.98-5h.04L34 31h-.76l-1.44-3.9.48-.33L30.65 31H30Zm1.2-1.6h1.6l.24.6H31l.2-.6ZM39 31l-4-3.52V31h-.7v-5l4 3.55V26h.7v5ZM40.85 26h3v.7h-1.19V31H42v-4.3h-1.15V26ZM46.14 31c-.5 0-.95-.26-1.14-.71V31h-.5v-5h.5v2.85c.25-.46.67-.69 1.22-.69.77 0 1.28.67 1.28 1.4 0 .78-.56 1.44-1.36 1.44Zm-.14-.55c.49 0 .85-.41.85-.9a.87.87 0 0 0-.85-.87c-.38 0-.9.22-1 .6v.56c.1.39.61.6 1 .6ZM48 31v-5h.5v5H48Zm1.5-1.5L51 31h-.62l-1.18-1.2.3-.3Zm-1 1V30l1.77-1.5H51l-2.5 2ZM11 26h2v.43h-.79V29h-.44v-2.57H11V26ZM9.88 26c.23 0 .43.04.6.12.17.07.3.18.38.32.1.14.14.3.14.51 0 .12-.02.24-.06.35a.88.88 0 0 1-.51.55c-.14.05-.3.08-.5.08h-.46V29H9v-3h.88Zm.05 1.5a.7.7 0 0 0 .3-.05.5.5 0 0 0 .18-.14.5.5 0 0 0 .1-.18.56.56 0 0 0 .03-.17.54.54 0 0 0-.03-.17.46.46 0 0 0-.1-.18.46.46 0 0 0-.18-.13.67.67 0 0 0-.28-.05h-.48v1.07h.46Z" fill="#707070"/><path d="M4 30h9v.5H4V30Z" fill="#879677"/><path d="M51.75 30.75a.25.25 0 1 1-.5 0 .25.25 0 0 1 .5 0ZM13.25 28.75a.25.25 0 1 1-.5 0 .25.25 0 0 1 .5 0Z" fill="#707070"/></svg>