<!-- by TradingView --><svg width="56" height="56" viewBox="0 0 56 56" xmlns="http://www.w3.org/2000/svg"><path fill="#F0F3FA" d="M0 0h56v56H0z"/><path d="M11.73 22.82 7 35h3.72l3.46-9.45 3.5 9.45h3.81l-4.7-12.18A2.75 2.75 0 0 0 14.25 21c-1.1 0-2.1.72-2.53 1.82ZM18.18 21h12.17a3.5 3.5 0 0 1 3.33 3.73c0 1.57-1.33 2.6-2 2.93.87.13 2.59 1 2.59 3.5 0 3.13-3.2 3.84-5.01 3.84h-5.5l-1.26-3h6.63c.57.02 1.7-.46 1.7-1.68 0-1.23-1.37-1.89-2.05-2.06l-4.53-1.7h5c.6 0 1.1-.53 1.1-1.18 0-.65-.5-1.38-1.1-1.38h-5.89a6.87 6.87 0 0 1-5.18-3Zm4.05 1.8c.25 0 .45-.22.45-.5 0-.27-.2-.49-.45-.49-.26 0-.46.22-.46.5 0 .27.2.5.46.5ZM36 35V21h3.25l5.25 7.41V21H48v14h-3.02l-5.48-7.77V35H36Z" fill="url(#a)"/><defs><linearGradient id="a" x1="7" y1="28" x2="48" y2="28" gradientUnits="userSpaceOnUse"><stop stop-color="#429DC8"/><stop offset="1" stop-color="#83BD46"/></linearGradient></defs></svg>