<!-- by TradingView --><svg width="56" height="56" viewBox="0 0 56 56" xmlns="http://www.w3.org/2000/svg"><path fill="#F0F3FA" d="M0 0h56v56H0z"/><path fill-rule="evenodd" d="M13 30c4.97 0 9-1.34 9-3s-4.03-3-9-3-9 1.34-9 3 4.03 3 9 3Zm0-1c4.42 0 8-.62 8-2s-3.58-2-8-2-8 .62-8 2 3.58 2 8 2Z" fill="url(#abprnabb5)"/><path fill-rule="evenodd" d="M22 27c0 1.66-4.03 3-9 3s-9-1.34-9-3 4.03-3 9-3 9 1.34 9 3Zm-8.28 2.49a25.81 25.81 0 0 1-1.44 0c-4.36-.08-7.78-.92-7.78-2.5 0-1.65 3.8-2.5 8.5-2.5s8.5.85 8.5 2.5c0 1.58-3.42 2.42-7.78 2.5Z" fill="url(#bbprnabb5)"/><path d="M13 31c-2.4 0-5-.67-6-1 1.17.67 3.5 2 6 2s4.5-1.33 6-2c-1.33.33-3.6 1-6 1Z" fill="#241E56"/><path d="M16 32c-2.34.5-3.66.5-6 0 .5.5 1.19 1.5 3 1.5s2.5-1 3-1.5Z" fill="url(#cbprnabb5)"/><path d="M16 32c-2.34 1-3.66 1-6 0 .5.5 1.19 1.5 3 1.5s2.5-1 3-1.5Z" fill="#221F5B"/><path d="M13 31c-2.4 0-5-.67-6-1 1.17.67 3.5 1.5 6 1.5s4.5-.83 6-1.5c-1.33.33-3.6 1-6 1Z" fill="url(#dbprnabb5)"/><path d="M13 23c-3.6 0-5.5 2-6 3 .33.67 2 2 6 2s5.67-1.33 6-2c-.5-1-2.4-3-6-3Z" fill="#2E3192"/><path d="M17.78 27.04C17.3 25.27 16 24 14.47 24c-1.77 0-3.23 1.69-3.47 3.88a15 15 0 0 0 1.97.12c2.33 0 3.86-.45 4.8-.96Z" fill="#315EAB" fill-opacity=".5"/><circle cx="16.5" cy="24.5" r=".5" fill="#F8F9FA" fill-opacity=".8"/><path d="M33 26.75V33c2.06 0 2-1.46 2-1.88V28c0-2 1.86-3 2.5-3h3.21c1.03 0 1.29-1.17 1.29-2h-5.14C34.29 23 33 25.5 33 26.75Z" fill="#261D54"/><path d="M33 33v-6.25C33 25.5 34.29 23 36.86 23H42c0 .34-.64 1-1.29 1H37.5c-1.93 0-3.5 1.5-3.5 2.75v6.1c-.34.15-.48.15-1 .15Z" fill="url(#ebprnabb5)"/><path d="M40 27h-3c-.33 0-1 .2-1 1s.67 1 1 1h1.5c.8 0 1.5-1.33 1.5-2Z" fill="#221F5C"/><path d="M36 28h2.5c.5 0 1-.36 1-1H37c-.33 0-1 0-1 1Z" fill="url(#fbprnabb5)"/><path d="M23 28.63V23c2 0 2 .63 2 1.25V29c0 .63.5 2 2.5 2s2.5-1.38 2.5-2v-4.75c0-1 .5-1.25 2-1.25v5.63c0 1.45-.9 4.37-4.5 4.37S23 30.08 23 28.62Z" fill="url(#gbprnabb5)"/><path d="M24 29v-5.9c1 0 1 .86 1 1.07v4.57c0 .65.5 2.26 2.5 2.26 1.6 0 2.5-1.5 2.5-2.26v-4.57c0-1.04.67-1.07 1-1.07V29c0 1.26-1.1 3-3.5 3S24 30.26 24 29Z" fill="url(#hbprnabb5)"/><path d="M31.5 24.5a.5.5 0 1 1-1 0 .5.5 0 0 1 1 0Z" fill="url(#ibprnabb5)"/><circle cx="29.5" cy="31.5" r=".5" fill="url(#jbprnabb5)"/><circle cx="35.5" cy="24.5" r=".5" fill="url(#kbprnabb5)"/><path fill-rule="evenodd" d="M47 31.75a3.75 3.75 0 1 0 0-7.5 3.75 3.75 0 0 0 0 7.5ZM47 33a5 5 0 1 0 0-10 5 5 0 0 0 0 10Z" fill="url(#lbprnabb5)"/><path fill-rule="evenodd" d="M47 31c1.47 0 3-1 3-3s-1.53-3-3-3-3 1-3 3 1.53 3 3 3Zm0 1a4 4 0 1 0 0-8 4 4 0 0 0 0 8Z" fill="url(#mbprnabb5)"/><circle cx="45.5" cy="24.5" r=".5" fill="url(#nbprnabb5)"/><circle cx="49.5" cy="31.5" r=".5" fill="url(#obprnabb5)"/><defs><linearGradient id="abprnabb5" x1="7" y1="26" x2="21" y2="28" gradientUnits="userSpaceOnUse"><stop stop-color="#24205B"/><stop offset="1" stop-color="#43AAD9"/></linearGradient><linearGradient id="bbprnabb5" x1="8" y1="24.5" x2="20" y2="29" gradientUnits="userSpaceOnUse"><stop stop-color="#129FE0"/><stop offset=".52" stop-color="#231A55"/><stop offset="1" stop-color="#251D58"/></linearGradient><linearGradient id="cbprnabb5" x1="10" y1="32.5" x2="15.5" y2="32.5" gradientUnits="userSpaceOnUse"><stop stop-color="#2C88D0"/><stop offset=".58" stop-color="#3880BF"/><stop offset="1" stop-color="#159CE3"/></linearGradient><linearGradient id="dbprnabb5" x1="7.5" y1="30.5" x2="18.5" y2="30.5" gradientUnits="userSpaceOnUse"><stop stop-color="#3274C1"/><stop offset=".53" stop-color="#3480C0"/><stop offset="1" stop-color="#3EA2DA"/></linearGradient><linearGradient id="ebprnabb5" x1="42" y1="23" x2="33.27" y2="32.62" gradientUnits="userSpaceOnUse"><stop stop-color="#3A8CCD"/><stop offset=".4" stop-color="#459ED7"/><stop offset=".74" stop-color="#2C3091"/><stop offset="1" stop-color="#2B3596"/></linearGradient><linearGradient id="fbprnabb5" x1="36.5" y1="27.5" x2="39" y2="27.5" gradientUnits="userSpaceOnUse"><stop stop-color="#42ACD9"/><stop offset="1" stop-color="#3A82C5"/></linearGradient><linearGradient id="gbprnabb5" x1="23" y1="26.13" x2="32" y2="26.13" gradientUnits="userSpaceOnUse"><stop stop-color="#2E3294"/><stop offset="1" stop-color="#221F5A"/></linearGradient><linearGradient id="hbprnabb5" x1="24.5" y1="26.13" x2="30.5" y2="26.13" gradientUnits="userSpaceOnUse"><stop stop-color="#221F57"/><stop offset=".38" stop-color="#314099"/><stop offset=".54" stop-color="#3F99D8"/><stop offset=".84" stop-color="#3E94CE"/><stop offset="1" stop-color="#2E3291"/></linearGradient><linearGradient id="ibprnabb5" x1="31.5" y1="24" x2="32.5" y2="25" gradientUnits="userSpaceOnUse"><stop stop-color="#FAFCFE"/><stop offset="1" stop-color="#FAFCFE" stop-opacity="0"/></linearGradient><linearGradient id="jbprnabb5" x1="29" y1="31" x2="30" y2="32" gradientUnits="userSpaceOnUse"><stop stop-color="#FAFCFE"/><stop offset="1" stop-color="#FAFCFE" stop-opacity="0"/></linearGradient><linearGradient id="kbprnabb5" x1="35" y1="24" x2="36" y2="25" gradientUnits="userSpaceOnUse"><stop stop-color="#FAFCFE"/><stop offset="1" stop-color="#FAFCFE" stop-opacity="0"/></linearGradient><linearGradient id="lbprnabb5" x1="44.5" y1="23.63" x2="48.88" y2="32.38" gradientUnits="userSpaceOnUse"><stop stop-color="#41A6DA"/><stop offset="1" stop-color="#24205B"/></linearGradient><linearGradient id="mbprnabb5" x1="45.67" y1="24.67" x2="47.67" y2="31.33" gradientUnits="userSpaceOnUse"><stop stop-color="#242059"/><stop offset="1" stop-color="#47A8DF"/></linearGradient><linearGradient id="nbprnabb5" x1="45" y1="24" x2="46" y2="25" gradientUnits="userSpaceOnUse"><stop stop-color="#FAFCFE"/><stop offset="1" stop-color="#FAFCFE" stop-opacity="0"/></linearGradient><linearGradient id="obprnabb5" x1="49" y1="31" x2="50" y2="32" gradientUnits="userSpaceOnUse"><stop stop-color="#FAFCFE"/><stop offset="1" stop-color="#FAFCFE" stop-opacity="0"/></linearGradient></defs></svg>