<!-- by TradingView --><svg width="56" height="56" viewBox="0 0 56 56" fill="none" xmlns="http://www.w3.org/2000/svg">
<rect width="56" height="56" fill="#F0F3FA"/>
<path fill-rule="evenodd" clip-rule="evenodd" d="M43.8835 16H12.3325L6 28L12.3351 40H43.8808L50 28L43.8835 16ZM7.23304 28L13.0115 17H43.1859L48.752 28L43.1859 39H13.0089L7.23304 28ZM18.9999 24V21H22L25.9375 28.3125L22.4055 34.9999H14.4999L11 28.3125L15.0312 21H17.9999V24L14.6065 30.0352C14.5493 30.1434 14.4999 30.2599 14.4999 30.3743C14.4999 30.7287 14.7499 31 15.1874 31H21.7734C22.1688 31 22.4999 30.75 22.4999 30.3743C22.4999 30.2614 22.461 30.1464 22.4055 30.0394L18.9999 24ZM30.5 21H26.5L27 21.4667V33.4198C27 34.2925 27.6897 35 28.5624 35C29.4351 35 30 34.2925 30 33.4198V21.4667L30.5 21ZM34.95 21H42.0625C42.0625 21 43.7504 23.885 44.8834 26.0312C44.9649 26.1856 44.9999 26.3155 44.9999 26.4246C44.9997 26.9744 43.9115 27 43.5936 27C42.3008 27 41.7117 26.2761 41.3679 25.5573C41.0242 24.8386 39.8608 24 38.4999 24C37.139 24 34.9999 25 34.9999 27.375C34.9999 29.75 36.8705 31 38.4574 31C40.2311 31 41.0009 30.0273 41.8362 28.9718C41.9109 28.8775 41.986 28.7825 42.0625 28.6875C42.0625 28.6875 43.4456 28.5787 44.0155 28.6875C44.9999 28.8741 44.9999 29.5625 44.9999 29.5625L42.0625 35H34.95L31 28.0625L34.95 21Z" fill="black"/>
</svg>
