<!-- by TradingView --><svg width="56" height="56" viewBox="0 0 56 56" xmlns="http://www.w3.org/2000/svg"><path fill="#F0F3FA" d="M0 0h56v56H0z"/><path d="M13 14c0-1.1.9-2 2-2h26a2 2 0 0 1 2 2v28a2 2 0 0 1-2 2H15a2 2 0 0 1-2-2V14Z" fill="#F8C102"/><path fill-rule="evenodd" d="M41 13H15a1 1 0 0 0-1 1v28a1 1 0 0 0 1 1h26a1 1 0 0 0 1-1V14a1 1 0 0 0-1-1Zm-26-1a2 2 0 0 0-2 2v28c0 1.1.9 2 2 2h26a2 2 0 0 0 2-2V14a2 2 0 0 0-2-2H15Z"/><path d="M21 21h-4v14c0 2.97 1.2 6.85 8 7 6.79.15 8-4.5 8-7V21h-4v13c0 2.5-.8 4-4 4s-4-1.87-4-4V21Z"/><path d="M35 35h4V21c0-2.97-1.2-6.85-8-7-6.79-.15-8 4.5-8 7v14h4V22c0-2.5.8-4 4-4s4 1.87 4 4v13Z"/></svg>