<!-- by TradingView --><svg width="56" height="56" viewBox="0 0 56 56" xmlns="http://www.w3.org/2000/svg"><path fill="url(#a)" d="M0 0h56v56H0z"/><path d="M24.74 21h-5.68l-.02-.02v-.05c.67-1.3 1.45-2.92 2.3-4.62.45-.86.83-1.3 1.75-1.3l13.9-.01c.68 0 1.13.31 1.33.94l2.41 7.37c.18.54.27.96.27 1.27 0 .51-.08.95-.26 1.3-.4.83-2.5 4.94-6.3 12.34-.44.85-.91.78-1.83.78l-20.93-.01c-.18 0-.31-.02-.4-.04a.37.37 0 0 1-.15-.1.44.44 0 0 1-.08-.5l1.15-2.24a.09.09 0 0 1 .05-.05h.06c1.78.8 2.1.93 4.53.94h8.63c2.5 0 4.88-.85 7.14-2.17a6.2 6.2 0 0 0 1.54-1.25c.26-.3.62-.86 1.06-1.7l3.67-6.9c.2-.36.24-.7.15-1-.35-1.2-.64-1.98-.84-2.6-.09-.25-.25-.38-.5-.38h-5.13a.23.23 0 0 0-.13.03.25.25 0 0 0-.09.1c-2.6 4.85-4.52 8.35-5.8 10.77-.35.65-.9 1.08-1.63 1.1-1.5.03-3.18.01-5.04 0-.42 0-.69-.13-.81-.27a.31.31 0 0 1-.08-.17 1.2 1.2 0 0 1 .1-.77c3.64-6.86 5.54-10.32 5.73-10.67a.09.09 0 0 0 0-.08.08.08 0 0 0-.03-.03.07.07 0 0 0-.04-.01Z" fill="#F7CE00"/><defs><linearGradient id="a" x1="10.42" y1="9.71" x2="68.15" y2="76.02" gradientUnits="userSpaceOnUse"><stop stop-color="#1A1E21"/><stop offset="1" stop-color="#06060A"/></linearGradient></defs></svg>