<!-- by TradingView --><svg width="56" height="56" viewBox="0 0 56 56" xmlns="http://www.w3.org/2000/svg"><path fill="#194172" d="M0 0h56v56H0z"/><path d="m38 11-6 3v20.5c0 2.83-2.5 4.5-4 4.5.56 2.27 2.82 4.03 4 4.5 3.95-1.13 6-5.5 6-9V11Z" fill="#AE9D81"/><path d="M22 21v-3l5-2v23c0 1.5 2.59 4.76 4 5-.47.24-1.59 1-3.3 1-1.7 0-2.23-.26-2.7-.5v-25L22 21Z" fill="#fff"/><path d="m24 21-2 1v21s1.53 1 2 1V21Z" fill="#AE9D81"/><path d="M16 27.5v-3l5-2.5v20.5c-.6-.58-1.75-1.52-2-2V26l-3 1.5Z" fill="#fff"/><path d="m18 27.5-2 1V35s.5 3.5 2 4.5v-12Z" fill="#AE9D81"/></svg>