<!-- by TradingView --><svg width="56" height="56" viewBox="0 0 56 56" xmlns="http://www.w3.org/2000/svg"><path fill="#126632" d="M0 0h56v56H0z"/><path d="M33 21v11c0 2.23-1 5-5 5s-5-2.77-5-5V21c-2-2.44-4.55-4.52-7-6.48V32c1.69 2.02 3.79 5.1 6.29 7.54C24 41.21 26 43 28 43s4.5-2.12 5.71-3.46c1-1.08 4.78-5.32 6.29-7.54V14.52A32.26 32.26 0 0 0 33 21ZM40 33c-2.56 4.1-5 8-9 11 5.52-1.12 9-5.47 9-11ZM25 44c-3.75-2.81-6.22-7.32-9-11 .23 3.89 2.33 9.83 9 11Z" fill="#fff"/><path d="M23 19.5c0-2-4-5.5-6.5-5.5 1.74 1.47 4.73 3.45 6.5 5.5ZM33 19.5c0-3 4-5.5 6.5-5.5-2.1 1.47-4.86 3.62-6.5 5.5Z" fill="#fff"/></svg>