<!-- by TradingView --><svg width="56" height="56" viewBox="0 0 56 56" xmlns="http://www.w3.org/2000/svg"><path fill="#F0F3FA" d="M0 0h56v56H0z"/><path d="m35.42 20.68-.39-5.3h.01l.66 5.33c0 .08.04.14.1.2l5.9 4.98c.08.06.1.04.09-.05l-1.55-7.6a.32.32 0 0 0-.12-.2L35 14.04a.13.13 0 0 0-.07-.03c-.03 0-.06 0-.08.02l-6.47 4.32a.18.18 0 0 0-.06.06.18.18 0 0 0-.02.09v7.61l.01.04.03.02a.06.06 0 0 0 .07 0l6.94-5.3a.2.2 0 0 0 .07-.18Zm-15.12.03.65-5.33h.01l-.39 5.3c0 .08.02.13.08.18l6.94 5.3a.06.06 0 0 0 .06 0l.03-.03.01-.03v-7.61c0-.03 0-.06-.02-.09a.17.17 0 0 0-.06-.06l-6.46-4.32a.13.13 0 0 0-.16.01l-5.12 4.02a.32.32 0 0 0-.11.19l-1.55 7.6c-.02.09 0 .1.08.04l5.9-4.98c.06-.05.1-.11.1-.19Zm-.71 9.91.84-8.95.02-.03a.06.06 0 0 1 .05-.03l.04.01 7.13 5.6a.06.06 0 0 1 .02.05v10.58a.07.07 0 0 1-.04.06.06.06 0 0 1-.06-.01l-7.98-7.22a.07.07 0 0 1-.02-.06Zm16.82 0-.85-8.96-.01-.03-.02-.02a.06.06 0 0 0-.06 0l-7.15 5.62-.01.02V37.9l.03.02a.06.06 0 0 0 .06 0l8-7.24a.06.06 0 0 0 .01-.05Zm.5.02-1.1-8.99v-.03c0-.02.02-.02.03-.03a.06.06 0 0 1 .06 0l6.16 5.57.02.04L44 37.43v.04l-.03.03a.06.06 0 0 1-.07-.01l-6.98-6.82a.06.06 0 0 1-.02-.03Zm-17.81 0 1.09-8.98a.06.06 0 0 0-.04-.06.06.06 0 0 0-.06 0l-6.15 5.56a.06.06 0 0 0-.02.04L12 37.43v.04l.03.03a.06.06 0 0 0 .07-.01l6.98-6.82a.06.06 0 0 0 .02-.04Zm.16.56 7.7 6.7a.06.06 0 0 1 .01.06l-.02.03a.06.06 0 0 1-.03.01H12.37l-.04-.01a.06.06 0 0 1-.02-.07l.01-.03 6.85-6.69a.06.06 0 0 1 .08 0Zm24.41 6.7-6.85-6.7a.06.06 0 0 0-.08 0l-7.7 6.7a.06.06 0 0 0-.02.06l.03.03.03.01h14.55l.03-.01a.06.06 0 0 0 .03-.07l-.02-.03Z" fill="#991A1E"/></svg>