<!-- by TradingView --><svg width="56" height="56" viewBox="0 0 56 56" xmlns="http://www.w3.org/2000/svg"><path fill="#F0F3FA" d="M0 0h56v56H0z"/><path fill-rule="evenodd" d="M17.53 28.92a6.5 6.5 0 1 0-12.06-4.84 6.5 6.5 0 0 0 12.06 4.84Zm-5.04.35a.69.69 0 0 1-.14.15c-.03.02-.05.02-.06-.02a10.6 10.6 0 0 1-2.67-5.59c-.17-.49.52-.7.88-.76.02 0 .02 0 .02-.03l-.01-.01H6.72v.01c0 .02.01.02.03.03.76.08 1.16.64 1.47 1.25a16362.97 16362.97 0 0 0 3.39 6.69.09.09 0 0 0 .12-.03c.36-.52.68-1.06.94-1.61.74-1.53 1.62-3.26 2.65-5.2.23-.45.5-.72.91-.94.16-.08.15-.13-.03-.15l-.25-.04c-.13-.02-.8-.02-1.99-.02-.02 0-.03.01-.02.03l.02.03h.01c.33.04 1.09.21 1.05.66-.02.24-.07.44-.14.6a79.9 79.9 0 0 1-2.39 4.95Z" fill="url(#a)"/><path d="M20.08 27.66h1.47a.1.1 0 0 0 .07-.02c.05-.05.07-.12.06-.21a.11.11 0 0 1 .03-.1.13.13 0 0 1 .1-.04h.05c.09 0 .14.04.14.12v.9l-.02.06-.04.04a.13.13 0 0 1-.12 0l-.09-.03a.13.13 0 0 1-.05-.04.11.11 0 0 1-.03-.06v-.19c0-.07-.05-.09-.12-.09L20 27.99c-.04 0 0 .02 0 .05v2.47l.01.04.04.02h1.83a.2.2 0 0 0 .1-.03.18.18 0 0 0 .08-.08l.12-.27c.12-.26.22-.25.28.02.02.13.03.35 0 .69 0 .07-.04.1-.11.1h-3.93c-.08 0-.12-.04-.12-.11v-.12c-.01-.06.02-.09.08-.09h.3a.3.3 0 0 0 .2-.08.26.26 0 0 0 .1-.18l.02-.73v-3.4c0-.28 0-.56-.04-.82a.13.13 0 0 0-.02-.06.14.14 0 0 0-.05-.04 1.2 1.2 0 0 0-.49-.14c-.08 0-.1-.04-.07-.11l.02-.05c0-.02.02-.04.04-.05a.13.13 0 0 1 .07-.02h3.92c.06 0 .1.03.1.09v.76l-.03.06a.1.1 0 0 1-.05.03c-.06 0-.1 0-.14-.02-.02-.02-.04-.05-.05-.1a.65.65 0 0 0-.2-.34.16.16 0 0 0-.1-.04h-1.84c-.05 0-.07.02-.07.07v2.08c0 .05.02.07.08.07ZM37.7 26.5a.04.04 0 0 0-.04 0v.02l-.01.01.01 3.69c0 .52.47.47.89.46.08 0 .12.04.1.12l-.01.1c-.01.06-.06.1-.13.1h-2.13c-.08 0-.13-.04-.13-.12v-.08c0-.09.05-.13.14-.13h.32c.08 0 .16-.03.21-.08a.26.26 0 0 0 .08-.2V25.1c0-.05.04-.09.1-.1.2-.03.33-.01.5.15 1.89 1.73 2.85 2.98 4.51 4.48l.04.02h.04l.03-.03.01-.03v-3.96a.2.2 0 0 0-.05-.13.23.23 0 0 0-.13-.07l-.51-.09a.25.25 0 0 1-.17-.1c-.06-.1-.02-.25.1-.25h2.13c.07 0 .14.08.14.15v.07c0 .07-.03.11-.1.11l-.38.02a.28.28 0 0 0-.19.08.24.24 0 0 0-.07.17v5.3c0 .05-.04.08-.1.1h-.39c-.1-.02-.16-.05-.2-.09-1.13-1.04-2.4-2.44-4.35-4.22a.94.94 0 0 0-.26-.19Z" fill="#890512"/><path fill-rule="evenodd" d="M29.06 28.6c.28 1.42 1.34 2.26 2.86 2.38.65.06 1.27-.02 1.86-.22 2.95-1.03 3.06-5.12-.29-5.68-1.75-.3-3.87.23-4.38 2.13a3 3 0 0 0-.05 1.38Zm1.85-2.8c-.77.57-1.01 1.6-.86 2.49.15.89.5 1.6 1.35 2.02.78.39 1.97.36 2.69-.15.77-.56 1.01-1.59.86-2.48-.15-.9-.5-1.6-1.35-2.03a2.83 2.83 0 0 0-2.69.16Z" fill="#890512"/><path fill-rule="evenodd" d="M25 28.48c-.01-.02-.01-.04.03-.04h.96c.03 0 .07 0 .1.02l.08.06 2.55 2.77c.63.68 1.7.75 2.62.7.03 0 .05-.02.05-.05v-.06c0-.05-.03-.07-.09-.08a2.8 2.8 0 0 1-1.79-.82 30 30 0 0 1-2.26-2.56l.01-.02.02-.01c.88-.48 1.4-1.33 1-2.24a1.87 1.87 0 0 0-1-.94 3.4 3.4 0 0 0-1.35-.21l-2.63.01c-.08 0-.13.04-.12.12v.06c0 .03.02.06.04.08.03.03.06.04.1.04h.05c.23.02.64.05.63.36v4.82c0 .05-.04.08-.08.11-.1.08-.22.1-.36.1-.1-.01-.14.03-.14.12v.04c0 .1.05.14.15.14h2.02c.1 0 .16-.04.17-.13v-.04c.02-.09-.02-.13-.12-.13l-.46-.01c-.12 0-.17-.1-.18-.2v-2.01Zm.03-2.97a.07.07 0 0 0-.03.05v2.48c0 .02 0 .04.03.06l.05.02h.94c.33 0 .65-.14.9-.38.23-.25.36-.58.36-.92v-.03c0-.35-.13-.68-.37-.92a1.25 1.25 0 0 0-.9-.39h-.93c-.02 0-.04.01-.05.03ZM45.9 30.68c-.26.02-.41-.01-.44-.08l-.02-.1.59-1.38c.02-.04.06-.12.11-.12h2.32c.06 0 .11.09.14.14l.48 1.02c.13.3.1.48-.1.56a.11.11 0 0 0-.04.05.1.1 0 0 0-.02.06c0 .06.02.1.04.12.03.03.08.04.16.04a42.65 42.65 0 0 0 1.83-.01l.03-.02a.08.08 0 0 0 .02-.07v-.05c-.02-.06-.06-.09-.12-.09a.72.72 0 0 1-.69-.43l-2.5-5.14a.3.3 0 0 0-.11-.13.34.34 0 0 0-.35 0 .31.31 0 0 0-.12.13l-2.47 5.24c-.12.25-.25.3-.54.26-.08-.02-.13.02-.14.1l-.02.1c-.01.08.02.12.1.12h1.87c.02 0 .04 0 .06-.02.02 0 .03-.02.05-.03a.14.14 0 0 0 .04-.1l-.01-.07c-.02-.07-.07-.1-.15-.1Zm2.37-2.23-.98-1.8-.02-.01h-.05l-.01.02-.82 1.79a.04.04 0 0 0 0 .04l.02.01h1.82a.05.05 0 0 0 .04-.01v-.04Z" fill="#890512"/><defs><linearGradient id="a" x1="6.46" y1="30.36" x2="15.99" y2="24.35" gradientUnits="userSpaceOnUse"><stop stop-color="#890512"/><stop offset="1" stop-color="#E41D30"/></linearGradient></defs></svg>