<!-- by TradingView --><svg width="56" height="56" viewBox="0 0 56 56" xmlns="http://www.w3.org/2000/svg"><path fill="url(#aqck0xq0d)" d="M0 0h56v56H0z"/><path d="M25.38 13.83 21.5 20c1.5-1.5 4.45-2 6.55-2H39a208.16 208.16 0 0 0-8-4c-.9-.42-2.2-1-3.47-1-1.28 0-1.72.42-2.16.83Z" fill="#E0C47D"/><path d="M14 22v1.42l2.5 5.08 8.88-14.67c-1.8.98-6.06 3.17-8.22 4.17-2.17 1-3.16 3-3.16 4ZM38.81 18H32.5L42 32.5V21c0-.83-2-3-3.19-3ZM27.53 38c3.78 0 6.57-2.17 7.47-3l-4.32 7.17c-.3.27-1.26.83-2.7.83-1.44 0-1.48 0-2.26-.42L17 38h10.53Z" fill="#C4A22E"/><path d="m42 32.5-3.2-4.92-8.12 14.59c2.4-1.25 7.67-4 9.47-5 1.8-1 1.85-3.67 1.85-4.67ZM23 38l-9-14.58v11.66c0 1.34 2.1 2.92 3 2.92h6Z" fill="#E0C47D"/><path d="M28 11c1.5 0 3.19 1.08 3.99 1.5H32c3.1 1.6 5.72 3 8.76 4.7 1.12.61 3.24 1.78 3.24 3.2v13.55c0 1.4.09 2.57-2.1 4.12-2.03 1.43-6.78 3.81-9.46 5.23-.71.38-2.74 1.7-4.44 1.7-.87 0-4.65-1.48-5.33-1.7a52 52 0 0 1-9.05-4.86c-.4-.3-.77-.66-1.05-1.04a3.83 3.83 0 0 1-.57-1.75l.07-14.45c0-2.02 1.95-3.67 3.7-4.5 1.76-.82 4.98-2.63 7.36-3.98C24.66 11.86 26.5 11 28 11Zm0 1c-1.5 0-2.97.7-4.35 1.47-2.38 1.34-5.67 3.2-7.46 4.04-2.2 1.03-3.19 2.41-3.19 3.69v14.3c0 .23.12 1.09.34 1.38.21.3.53.6.88.87 3.19 2.3 5.25 3 8.9 4.7.62.2 4.15 1.55 4.88 1.55 1.51 0 3.38-1.16 3.99-1.48 2.66-1.41 7.03-3.62 9.01-5.02 1.79-1.26 2-2.05 2-3.5V21c0-1.59-.78-1.96-2.71-3.04a311.76 311.76 0 0 0-8.74-4.67C30.88 12.94 29.5 12 28 12Z" fill="#C4A22E"/><path d="M23 25c-.69 0-1.71.71-2 1 0-.86.43-3 2.14-3 1.72 0 2.72 1.71 3 2.57L29 32.5s2.29-3.96 2.29-4.64c0-.35-.43-.43-.86-.43V27H33v.43c-.43 0-.86.43-.86.43L28.5 35c-.43-1.29-1.76-4.46-2.79-6.86-1.28-3-1.85-3.14-2.71-3.14Z" fill="#C4A22E"/><circle cx="32" cy="25" r="1" fill="#C4A22E"/><defs><linearGradient id="aqck0xq0d" x1="10.42" y1="9.71" x2="68.15" y2="76.02" gradientUnits="userSpaceOnUse"><stop stop-color="#1A1E21"/><stop offset="1" stop-color="#06060A"/></linearGradient></defs></svg>