<!-- by TradingView --><svg width="56" height="56" viewBox="0 0 56 56" xmlns="http://www.w3.org/2000/svg"><path fill="#384F76" d="M0 0h56v56H0z"/><path d="M28 22h23.21c.26 0 .42.03.5.09.21.16.29.35.29.63v10.44c0 .25-.03.43-.1.52-.17.24-.35.3-.69.31h-8.68c-.07 0-.11-.04-.11-.11v-.56c0-.08.04-.12.12-.12h8.56c.03 0 .05-.01.05-.05V22.81l-.01-.03h-.03a136863.23 136863.23 0 0 1-46.25 0v10.37c0 .04.01.05.04.05h8.56c.08 0 .12.04.12.12v.56c0 .07-.04.11-.11.11H4.79c-.34 0-.52-.07-.7-.31-.06-.1-.09-.27-.09-.52V22.72c0-.28.08-.47.3-.63.07-.06.23-.08.49-.08L28 22Z" fill="#fff"/><path d="M13.53 28.9c.01-.17-.09-.28-.3-.33l-.3-.07c-.82-.18-1.72-.38-1.73-1.2-.01-.87.7-1.27 1.6-1.3a3.1 3.1 0 0 1 1.78.48.08.08 0 0 1 0 .07v.03l-.52.65-.03.02h-.04c-.45-.22-.82-.4-1.33-.34-.37.04-.33.41 0 .5l.34.07c.69.15 1.57.34 1.71 1.02.15.7-.34 1.3-1.12 1.44-.94.17-1.8-.01-2.57-.54-.02-.02-.03-.04 0-.07l.6-.66.02-.01a.06.06 0 0 1 .06 0c.41.3.88.45 1.41.44.16 0 .3-.05.39-.13a.11.11 0 0 0 .03-.08Zm4.6-2.9a42.49 42.49 0 0 1 .58.02l1.79 3.92c.02.04 0 .06-.05.06h-1.18a.06.06 0 0 1-.02-.03l-.3-.64c0-.03-.03-.04-.06-.04h-1.53c-.04 0-.06 0-.08.04l-.29.64-.02.02h-1.19c-.04 0-.06-.01-.04-.06l1.8-3.9V26h.03l.55-.01Zm-.48 2.38a.03.03 0 0 0 0 .03.03.03 0 0 0 .03.01h.86a.03.03 0 0 0 .03-.01v-.03l-.43-1v-.01a.03.03 0 0 0-.04 0l-.02.01-.43 1Zm24.88.9h1.44c.04 0 .06.02.07.05l.27.64.02.02.04.01h1.08c.05 0 .06-.02.04-.06l-1.68-3.92-.01-.01h-.02a37.65 37.65 0 0 0-1.08.01L41 29.94c-.01.04 0 .06.05.06h1.08l.04-.01.02-.02.27-.64a.07.07 0 0 1 .07-.05Zm.28-.89v-.01l.4-1a.03.03 0 0 1 .05-.01l.01.01.4 1v.03a.03.03 0 0 1-.03.01h-.8a.03.03 0 0 1-.02-.01v-.02Zm-18.95.05c.02 0 .03 0 .04-.03l.91-2.36c.02-.03.05-.05.09-.05h1.21l.02.02a.04.04 0 0 1 0 .05l-1.68 3.86a.08.08 0 0 1-.07.05 5.75 5.75 0 0 1-1.03 0 .08.08 0 0 1-.07-.05l-1.69-3.87a.04.04 0 0 1 0-.04l.03-.01.02-.01h1.2c.03 0 .06.02.07.05a835.66 835.66 0 0 0 .95 2.4ZM34.46 26a472.31 472.31 0 0 0-3.72.02l-.01.02v.91c0 .03.01.05.04.05h1.2c.03 0 .03.01.03.05v2.89l.03.04.05.02a102.05 102.05 0 0 1 1.11-.02.06.06 0 0 0 .02-.04v-2.9c0-.03.02-.04.06-.04h1.18c.04 0 .05-.02.05-.05v-.9l-.01-.04h-.03Zm4.5 2.59-.01.02v.02l.98 1.32a.03.03 0 0 1-.01.05h-1.29c-.02 0-.04 0-.05-.03l-.86-1.15a.08.08 0 0 0-.03-.02l-.04-.01h-.4l-.03.01a.05.05 0 0 0-.02.04v1.11l-.01.04-.04.01h-1.1a.06.06 0 0 1-.03-.02l-.02-.01v-3.93l.01-.03h.03L38 26c.97 0 1.85.4 1.8 1.42-.03.55-.31.95-.84 1.17ZM37.2 27v.89h.02l.01.02H38.05c.16 0 .3-.06.4-.14a.4.4 0 0 0 .16-.32v-.05a.37.37 0 0 0-.04-.17.45.45 0 0 0-.13-.14.58.58 0 0 0-.18-.1.68.68 0 0 0-.21-.03h-.81l-.03.02-.01.02ZM27.83 30h1.16l.01-.03v-3.96h-.01a.03.03 0 0 0-.04 0l-1.14.93-.01.02v3.03l.03.01Z" fill="#fff"/><path fill="#fff" fill-opacity=".5" d="M14 33h28v1H14z"/></svg>