<!-- by TradingView --><svg width="56" height="56" viewBox="0 0 56 56" xmlns="http://www.w3.org/2000/svg"><path fill="#F0F3FA" d="M0 0h56v56H0z"/><path d="M24.5 41c.5 0 .5.24.5.53v3.94c0 .3 0 .53-.5.53s-.5-.18-.5-.53v-3.94c0-.35 0-.53.5-.53Z" fill="url(#aemp3auqc)"/><path fill-rule="evenodd" d="M34.48 46A1.5 1.5 0 0 1 33 44.5c0-.84.67-1.5 1.48-1.5H37v-.37c0-.67-.87-.63-.87-.63h-2.46a.2.2 0 0 1-.2-.2v-.6c0-.1.1-.2.2-.2h2.8A1.4 1.4 0 0 1 38 42.33v3.14c0 .3-.24.53-.52.53h-3Zm.52-1c-.5 0-1 0-1-.5s.5-.5 1-.5h2v1h-2Z" fill="url(#bemp3auqc)"/><path d="m16.08 41.78 2.28 3.8c.15.27.34.42.64.42.32 0 .53-.15.67-.42l2.25-3.78c.06-.1.08-.28.08-.38 0-.3-.16-.42-.51-.42-.22 0-.4.11-.5.3L19 44.66l-1.97-3.38a.54.54 0 0 0-.48-.27c-.24 0-.55.15-.55.42 0 .06.04.27.08.36ZM26.08 41.78l2.28 3.8c.15.27.34.42.64.42.32 0 .53-.15.67-.42l2.25-3.78c.06-.1.08-.28.08-.38 0-.3-.16-.42-.51-.42-.22 0-.4.11-.5.3L29 44.66l-1.97-3.38a.54.54 0 0 0-.48-.27c-.24 0-.55.15-.55.42 0 .06.04.27.08.36Z" fill="#181B1E"/><path d="M20.68 14.74c6.58-3.52 11.1-3.76 12.22-3.74 4.22.06 5.9 3.16 6.08 7.8.22 5.14-1.4 18.2-7.86 18.2C26.1 37 13 28.98 13 23.46c0-2.34 1.1-5.2 7.68-8.72ZM27.5 28a4.5 4.5 0 1 0 0-9 4.5 4.5 0 0 0 0 9Z" fill="url(#cemp3auqc)"/><path d="M37 16v-.04a4.01 4.01 0 0 0-5-3.85c2.26.4 4.12 1.89 5 3.89Z" fill="#E8A087"/><defs><linearGradient id="aemp3auqc" x1="24.5" y1="41" x2="24.5" y2="46"><stop offset="1" stop-color="#181B1E"/></linearGradient><linearGradient id="bemp3auqc" x1="35.5" y1="41" x2="35.5" y2="46"><stop offset="1" stop-color="#181B1E"/></linearGradient><linearGradient id="cemp3auqc" x1="37" y1="12" x2="20.52" y2="32.5" gradientUnits="userSpaceOnUse"><stop stop-color="#CF1223"/><stop offset="1" stop-color="#810F19"/></linearGradient></defs></svg>