<!-- by TradingView --><svg width="56" height="56" viewBox="0 0 56 56" xmlns="http://www.w3.org/2000/svg"><path fill="#322E2F" d="M0 0h56v56H0z"/><path d="m11.2 24.87 7.26-.67a.08.08 0 0 0 .05-.03l8.34-10.76a.07.07 0 0 0 0-.07l-.15-.3a.08.08 0 0 0-.08-.04c-.02 0-.03 0-.04.02L11.15 24.74a.07.07 0 0 0-.02.04v.04c0 .02.02.03.03.04h.05Zm18.25-11.8-.3.15a.07.07 0 0 0-.04.05.07.07 0 0 0 0 .06l8.36 10.78a.07.07 0 0 0 .05.03l7.29.72.04-.01c.02 0 .03-.02.03-.04v-.04a.07.07 0 0 0-.02-.04L29.53 13.08a.08.08 0 0 0-.08 0Zm-1.42 27.16.08.01c.04 0 .05 0 .06-.04l2.29-15.67c.02-.16.1-.3.24-.4.13-.1.3-.14.46-.13l5.78.57h.03l.02.03.01.03v.02l-8.9 16.76c-.06.12-.12.12-.19 0l-8.9-16.65c-.03-.06 0-.09.06-.1l5.9-.53c.16-.02.32.03.45.13.14.1.22.23.24.39l2.3 15.53.03.03.04.02Zm-.2 4.71c.04.04.1.06.18.06.08 0 .14-.02.18-.06a19744.3 19744.3 0 0 1 16.8-19.57.05.05 0 0 0-.04-.05l-7.28-.67c-.05 0-.1 0-.14.03a.22.22 0 0 0-.1.09l-9.27 17.46c-.03.05-.08.08-.15.08-.07 0-.12-.03-.15-.08l-9.3-17.45a.22.22 0 0 0-.1-.1.24.24 0 0 0-.13-.02l-7.28.67-.03.01a.05.05 0 0 0-.02.05l.01.02c5.6 6.5 11.22 13.01 16.82 19.53Z" fill="#fff"/></svg>