<!-- by TradingView --><svg width="56" height="56" viewBox="0 0 56 56" xmlns="http://www.w3.org/2000/svg"><path fill="#F0F3FA" d="M0 0h56v56H0z"/><path fill-rule="evenodd" d="M45 28a17 17 0 1 1-34 0 17 17 0 0 1 34 0ZM28 43a15 15 0 0 0 14.6-18.48L41.41 26H14.58l-1.17-1.48A15 15 0 0 0 28 43Zm0 0 5.13-6.5H22.87L28 43ZM13.54 24a15 15 0 0 1 28.92 0H13.54ZM28 44a16 16 0 1 0 0-32 16 16 0 0 0 0 32ZM16.16 28l-.8-1h25.27l-.79 1H16.16Zm1.58 2-.8-1h22.11l-.79 1H17.74Zm1.58 2-.8-1h18.95l-.79 1H19.32Zm1.57 2-.78-1h15.78l-.78 1H20.89Zm1.58 2-.79-1h12.64l-.8 1H22.48Z" fill="#133C70"/><path d="M28 36 18 21h20L28 36Z" fill="#00AEEA"/></svg>