<!-- by TradingView --><svg width="56" height="56" viewBox="0 0 56 56" xmlns="http://www.w3.org/2000/svg"><path fill="#FF9015" d="M0 0h56v56H0z"/><path d="M7.5 32c-.18 0-.3-.07-.36-.21A1457.14 1457.14 0 0 1 4 24.06a.06.06 0 0 1 .06-.05h1.67c.08 0 .13.03.15.1.36.9.86 2.2 1.5 3.91.05.13.1.2.13.2s.07-.07.12-.2l1.49-3.91c.03-.07.08-.1.15-.1l1.68-.01a.06.06 0 0 1 .04.03.06.06 0 0 1 0 .05c-1.23 3.08-2.27 5.65-3.11 7.7-.06.15-.18.22-.37.22Zm6.07-3.11c-.04 0-.06.02-.06.06v1.27c0 .18.09.28.27.28h2.15c.02 0 .04 0 .05.02l.02.05v1.38c0 .01 0 .02-.02.03a.05.05 0 0 1-.03.02h-3.9c-.02 0-.03 0-.04-.02l-.01-.03v-7.9c0-.03.02-.05.06-.05h3.88c.01 0 .03 0 .04.02l.02.05v1.5c0 .02 0 .04-.02.05a.05.05 0 0 1-.04.02h-2.19c-.16 0-.24.08-.24.24v1.22a.09.09 0 0 0 .03.06.08.08 0 0 0 .05.03h1.87c.02 0 .03 0 .05.02l.02.05v1.55l-.02.06a.07.07 0 0 1-.05.02h-1.89Zm6-1.07c0-.07.02-.08.07-.03.96 1.03 2.16 2.35 3.6 3.97.18.2.41.26.7.2.04-.01.06-.04.06-.08v-7.82l-.01-.03-.04-.01h-1.38c-.04 0-.06.02-.06.06l-.01 4.24c0 .06-.01.09-.03.1a.09.09 0 0 1-.06.03.08.08 0 0 1-.06-.03l-3.5-4.1c-.26-.3-.43-.32-.78-.29-.05 0-.07.03-.07.08v7.8c0 .01 0 .03.02.04l.04.01h1.46l.03-.01.01-.03v-4.1ZM28.61 32h-1.57a.06.06 0 0 1-.05-.04v-6.33l-.02-.05a.06.06 0 0 0-.05-.01h-1.87c-.02 0-.03 0-.04-.02a.06.06 0 0 1-.02-.04v-1.45c0-.02 0-.03.02-.04a.06.06 0 0 1 .04-.02h5.64c.02 0 .03 0 .04.02.02 0 .02.02.02.04v1.45c0 .01 0 .03-.02.04a.06.06 0 0 1-.04.02h-1.96l-.04.01a.06.06 0 0 0-.02.05v6.31c0 .02 0 .03-.02.04a.06.06 0 0 1-.04.02Zm4.89-3.05c0-.04.02-.06.06-.06h1.89c.02 0 .03-.01.05-.03a.07.07 0 0 0 .02-.05v-1.55l-.02-.05a.07.07 0 0 0-.05-.02h-1.87a.08.08 0 0 1-.07-.06v-1.25c0-.16.07-.24.23-.24h2.19c.01 0 .03 0 .04-.02a.06.06 0 0 0 .02-.04v-1.52l-.02-.04a.06.06 0 0 0-.05-.02h-3.88c-.03 0-.05.02-.05.05v7.9l.01.04.04.01h3.9c.01 0 .02 0 .03-.02a.05.05 0 0 0 .02-.03v-1.38c0-.02 0-.04-.02-.05a.07.07 0 0 0-.05-.02h-2.15c-.18 0-.27-.1-.27-.28v-1.27Zm6.13-1.17c-.05-.05-.07-.04-.07.03v4.1a.05.05 0 0 1 0 .03h-.02l-.02.01h-1.46l-.04-.01a.06.06 0 0 1-.02-.04L38 24.1c0-.04.02-.07.07-.07.35-.03.51-.02.77.28a1881.1 1881.1 0 0 1 3.53 4.12.08.08 0 0 0 .07 0 .1.1 0 0 0 .03-.02c.02-.02.02-.05.02-.1l.01-4.24c0-.04.02-.06.06-.06h1.38a.05.05 0 0 1 .03 0l.01.02v.02l.02 7.81c0 .04-.02.07-.07.08-.28.07-.5 0-.68-.2a195.72 195.72 0 0 0-3.61-3.96Zm8.6-1.1-.04.03a866.96 866.96 0 0 0-1.45-2.4.59.59 0 0 0-.5-.3L44.7 24c-.08 0-.1.03-.05.1.5.82 1.37 2.2 2.58 4.13.1.15.14.35.14.6a1499.86 1499.86 0 0 1 0 3.15l.04.01A50.85 50.85 0 0 0 49 32v-.03L49 32v-3c0-.25.06-.62.15-.77a61 61 0 0 1 1.95-2.86c.37-.5.66-.92.87-1.25l.03-.06c0-.04-.04-.06-.09-.06h-1.74c-.1 0-.2.05-.3.1a.59.59 0 0 0-.2.2l-1.43 2.38Z" fill="#fff"/></svg>