<!-- by TradingView --><svg width="56" height="56" viewBox="0 0 56 56" xmlns="http://www.w3.org/2000/svg"><path fill="#F0F3FA" d="M0 0h56v56H0z"/><path d="M28.8 12a16 16 0 0 1 0 31.96c-3.55-3.85-5.8-9.58-5.8-15.98S25.25 15.85 28.8 12Z" fill="url(#am54pyg33)"/><path d="M28.8 43.98C25.24 40.13 23 34.4 23 28s2.25-12.13 5.8-15.98L28 12a16 16 0 1 0 .8 31.98Z" fill="url(#bm54pyg33)"/><path d="M34.07 28.5c-.8 9.2-4.33 12.17-6 12.5l1.5 1c3.2-1.2 4.33-9.5 4.5-13.5Z" fill="#fff"/><path d="M34.65 25c2 2.79 3.24 6.04 2.85 9.54-.33 2.9-2.7 5.04-5.67 4.32a4.31 4.31 0 0 1-3.26-4.43c0-3.63 3.74-7.1 6.08-9.43Zm-4.1 9.43c0 1.8 1.2 2.4 1.69 2.5h.05c1.82.46 3.04-.88 3.24-2.6.27-2.47-.26-6.42-.96-7.83-1.38 1.53-4.01 5.68-4.01 7.93ZM27.07 39.5c-4 0-7-2.33-8-3.5 1.6 3.2 6.33 4.33 8.5 4.5l-.5-1Z" fill="#fff"/><path d="M16.57 34c2 0 4.13.16 5.95 1.05 1.9.94 2.44 2.67 1.78 4.6-.38 1.13-1.42 1.35-2.48 1.35h-.04c-3.18 0-4.67-4.61-5.21-7Zm.5.5c.43 1.56 2.6 5.5 4.71 5.5.61 0 1.33.02 1.56-.66.5-1.47.19-2.68-1.27-3.4a16.13 16.13 0 0 0-5-1.44ZM31.57 23c-4.4 4-7.5 4.33-8.5 4v1c3.2.4 7-3.17 8.5-5Z" fill="#fff"/><path d="M31.57 23c-.64.07-2.51.25-4 .5-1.48.25-1.69 2-1.05 3.28.08.17.55.72 1.55.72.84 0 1.66-.86 2-1.5.4-.75 1.22-2.25 1.5-3Zm-4.08 0c1.6-.26 3.2-.5 4.82-.5-.52 1.3-.95 2.64-1.6 3.86-.55 1-1.38 2.14-2.64 2.14-1.4 0-2.2-.78-2.45-1.28-.93-1.86-.27-3.86 1.87-4.21ZM23.57 31c-3.2-.8-6-4-7-5.5 1.5 3.5 4.83 6 7 6.5v-1Z" fill="#fff"/><path d="M15 23.9c1.9.32 4.01.84 5.42 2.25 1.18 1.18 2.48 3.22 1 4.7-.65.66-1.6.78-2.43.64-3.66-.6-3.66-4.66-3.99-7.6Zm.57.6c.22 2.15.82 5.92 3.42 6.35.66.11 1.38-.36 1.73-.7 1.02-1.02.1-2.4-.65-3.15a12.72 12.72 0 0 0-4.5-2.5ZM31 43.5c-.29.33-.98.4-2.5.5-4.97-5.3-6.05-11.67-5.92-16.5.06-2.24.45-4.36 1.05-6.3-1.63-1.29-2.06-3.62-2.06-6.7.9 3.88 1.8 5.27 2.37 5.75A21.8 21.8 0 0 1 29 12a24.25 24.25 0 0 0-4.55 8.5h.12l-.26.52c-.6 2.24-.8 4.43-.74 6.48.23 6.92 4.67 13.04 7.43 16Z" fill="#fff"/><path d="M21.32 13.16c1.26.97 2.78 2.12 3.17 3.74.3 1.26-.25 3.1-1.71 3.1-1.12 0-2.21-.74-2.21-2.03 0-1.71.23-3.2.75-4.81Zm.25.84c-.4 1.3-.5 2.12-.5 3.5 0 1 .87 1.49 1.7 1.49 1.15 0 1.53-1.06 1.3-1.99-.32-1.33-1.81-2.39-2.5-3Z" fill="#fff"/><defs><linearGradient id="am54pyg33" x1="45.5" y1="27.98" x2="23" y2="27.98" gradientUnits="userSpaceOnUse"><stop stop-color="#81BF40"/><stop offset="1" stop-color="#1D9944"/></linearGradient><linearGradient id="bm54pyg33" x1="12" y1="29.5" x2="22.5" y2="30" gradientUnits="userSpaceOnUse"><stop stop-color="#005085"/><stop offset="1" stop-color="#00A0D5"/></linearGradient></defs></svg>