<!-- by TradingView --><svg width="56" height="56" viewBox="0 0 56 56" xmlns="http://www.w3.org/2000/svg"><path fill="#F0F3FA" d="M0 0h56v56H0z"/><path d="M30 28.89c0 .1 0 .22-.02.34H26.9c.07.84.64 1.23 1.3 1.23.44 0 .86-.12 1.26-.34l.37.4c-.52.32-1.08.48-1.7.48-1.02 0-2.13-.54-2.13-1.96 0-1.34.99-2.04 2-2.04 1 0 2 .54 2 1.89Zm-.83-.2c0-.75-.38-1.16-1.14-1.16-.7 0-1.07.4-1.13 1.2h2.27v-.04ZM35 25v6h-.7v-.72c-.39.52-.99.72-1.5.72-.89 0-1.8-.5-1.8-2 0-1.52 1.11-2 2-2 .49 0 .93.16 1.3.5V25h.7Zm-2.01 5.43c.43 0 .97-.2 1.31-.62v-1.7a1.44 1.44 0 0 0-1.12-.5c-.73 0-1.48.32-1.48 1.39 0 1.07.58 1.43 1.29 1.43ZM40 31h-.7v-.8c-.45.54-1.2.8-1.82.8-.64 0-1.48-.26-1.48-1.2V27h.7v2.73c0 .6.61.74 1.04.74a2.1 2.1 0 0 0 1.56-.66V27h.7v4ZM43.47 27c.63 0 1.53.25 1.53 1.2V31h-.7v-2.7c0-.56-.5-.77-1.05-.77s-1.18.25-1.55.7V31H41v-4h.7v.8c.38-.42 1.12-.8 1.77-.8ZM52 27.62c-.24.05-.5.09-.8.1-.3.02-.65.02-1.07.02.76.21.87.52.87.97 0 1.21-1.28 1.29-2 1.29h-.99c-.19.09-.31.23-.31.38 0 .21.28.32.83.32h1.02c.57 0 2.18.1 2.18 1.1 0 .77-1.04 1.2-2.99 1.2-.73 0-2.72 0-2.72-1h1c0 .46 1.3.46 1.72.46.35 0 2.26.06 2.26-.66 0-.37-.87-.52-1.68-.52h-1c-.41 0-1.65 0-1.65-.75 0-.26.25-.51.7-.7-.74-.24-.87-.6-.87-1.12 0-1.2 1.53-1.36 2.25-1.36.5 0 .92 0 1.26-.03a7.54 7.54 0 0 0 1.66-.32l.33.62Zm-3.25.23c-.49 0-1.48.13-1.48.86 0 .76.99.86 1.48.86.89 0 1.66-.3 1.66-.86 0-.58-.74-.86-1.66-.86Z" fill="#00AEEF"/><path d="M21.63 31c-2.89 0-3.7-2.83-3.85-4-1.93 1 0 5 3.85 5 1.93 0 3.37-1 3.37-2 0-.8-.32-1-.48-1-.77 1.6-1.93 2-2.9 2Z" fill="#7C4200"/><path d="m22.6 24 2.4 2c-5.4-.8-7.38 2-7.7 3.5-.49-1-.3-1.9 0-2.5.96-2 3.69-2.83 5.3-3ZM22.6 27.5c-.78 0-2.26.67-2.9 1l1.45 1c.32-.33 1.25-1 2.4-1 .73 0 1.45 1 1.45 1.5 0-2-1.45-2.5-2.4-2.5Z" fill="#F9A01B"/><path fill-rule="evenodd" d="M4 26v4.5c1 1 3.5 1.5 6 1.5 2 0 5-.5 6-1.5V26c-1.5-1-2.8-2-6-2s-5.33 1.17-6 2Zm1 1h1v1l.75-1h.75l.25 1 .5-1h.5v.5h.5l.25-.5h.5l-.5 2h.5l.75-2h.5l-.25.5h.5l.5-.5h.5l-.5.75.25 1.25h.5l.75-2h1l.5 2v-2c-.5-.5-2-2-5-2s-5.08 1.25-5 2Zm.25.5H5v2c.58.67 2 1.5 5 1.5s4.67-.83 5-1.5h-.5l-.25-.5h-1l-.25.5h-1l-.5-1.5H11l-.25 1.5h-2L9 28h-.5l-.75 1.5h-.5l-.5-1.25-.5 1.25h-.5l-.5-2Zm8.75 0-.25 1h.5l-.25-1Z" fill="#01AEEF"/></svg>