<!-- by TradingView --><svg width="56" height="56" viewBox="0 0 56 56" xmlns="http://www.w3.org/2000/svg"><path fill="#F0F3FA" d="M0 0h56v56H0z"/><path d="M26.5 20c.83-.67 3.1-2 5.5-2 3 0 8.5 2 13 2 3.6 0 5.5-1.33 6-2-.67 2.17-3.39 6-9 6-7 0-7-1-12-1-4 0-7.5 1.17-9 2 1.67-1.33 5.7-4 8.5-4C33 21 40 22 42 22c1.59 0 4.94 0 5.49-.98-.18.18-2.01.48-2.49.48-7 0-9-2-13-2-3.2 0-5 .5-5.5.5Z" fill="#ED1A23"/><path d="m7.61 26 1.33 3.96 1.28-3.25.1-.34a.98.98 0 0 0 .04-.3.2.2 0 0 0 0-.06V26H11v.01c-.04.05-.1.13-.14.24l-.18.4L8.93 31h-.25l-1.27-3.66L6.25 31H6l-1.6-4.17A6.73 6.73 0 0 0 4 26V26h.9v.12a1.41 1.41 0 0 0 .12.56l1.23 3.24L7.41 26h.2ZM15.27 28.6h-2.54v1.94c0 .24 0 .34.07.46H12c.07-.13.07-.25.07-.46v-4.07c0-.22 0-.3-.07-.47h.8c-.1.27-.07.32-.07.47v1.79h2.54v-1.8c0-.22 0-.29-.07-.46h.8c-.07.18-.07.38-.07.47v4.07c0 .25.07.46.07.46h-.8c.07-.15.07-.23.07-.46V28.6ZM33.27 28.6h-2.54v1.94c0 .24 0 .34.07.46H30c.07-.13.07-.25.07-.46v-4.07c0-.22 0-.3-.07-.47h.8c-.1.27-.07.32-.07.47v1.79h2.54v-1.8c0-.22 0-.29-.07-.46h.8c-.07.18-.07.38-.07.47v4.07c0 .25.07.46.07.46h-.8c.07-.15.07-.23.07-.46V28.6ZM17.1 30v-3c0-.46 0-.57-.1-1h.88c-.1.45-.1.54-.1 1v3c0 .46 0 .67.1 1H17c.1-.34.1-.54.1-1ZM20.66 26.33a5.08 5.08 0 0 0-1.2.12c-.17.03-.32.07-.46.11l.1-.56h3.8l.1.56a5.22 5.22 0 0 0-1.68-.23V30s0 .6.07 1h-.78c.05-.32.05-1 .05-1v-3.67ZM24 26h3l-.23.46a3.3 3.3 0 0 0-.67-.1 5.23 5.23 0 0 0-.98 0l-.46.01v1.88h1.94s-.1.46-.6.46l-1.34.02v1.94a14.52 14.52 0 0 0 1.72-.11c.23-.03.43-.07.62-.12l-.11.56H24v-5ZM49 26h3l-.23.46a3.3 3.3 0 0 0-.67-.1 5.23 5.23 0 0 0-.98 0l-.46.01v1.88h1.94s-.1.46-.6.46l-1.34.02v1.94a14.52 14.52 0 0 0 1.72-.11c.23-.03.43-.07.62-.12l-.11.56H49v-5ZM37.4 26c1.03 0 2 .53 2.4 1.5a2.62 2.62 0 0 1 .13 1.64A2.4 2.4 0 0 1 37.6 31c-1.03 0-2-.51-2.4-1.48a2.62 2.62 0 0 1-.13-1.65A2.39 2.39 0 0 1 37.4 26Zm.2 4.7c1.07 0 1.68-.97 1.68-1.98 0-.35-.04-.67-.12-.96-.22-.84-.86-1.46-1.76-1.46-1.1 0-1.68.95-1.68 1.97 0 .34.04.66.11.96.23.84.86 1.47 1.77 1.47ZM41.75 29.65a16.08 16.08 0 0 0 .06 1.16l.05.18V31H41v-5h1.46c.8 0 1.6.46 1.6 1.35 0 .6-.36 1.13-.92 1.37l1.25 1.7a3.96 3.96 0 0 0 .33.39l.14.11.14.07V31h-1.03a1.64 1.64 0 0 0-.2-.4l-1.28-1.72-.16.02a3.85 3.85 0 0 1-.58-.03v.78Zm0-1.05a1.84 1.84 0 0 0 .4.04c.17 0 .34-.03.48-.08.5-.18.7-.69.7-1.19 0-.6-.3-1.13-.96-1.13a2.53 2.53 0 0 0-.62.07v2.29ZM47.64 26.85h-.09a.85.85 0 0 0-.1-.17c-.2-.27-.55-.38-.87-.38-.31 0-.65.1-.79.4a.68.68 0 0 0-.05.28c0 .57.72 1.02 1.13 1.32.6.44 1.4 1.09 1.04 1.92-.24.58-.93.78-1.51.78a3.06 3.06 0 0 1-1.4-.35l.1-.74h.1c.03.1.08.2.15.3.23.33.63.5 1.02.5.42 0 .92-.21.92-.7 0-.45-.37-.8-.7-1.04-.6-.46-1.5-.96-1.5-1.82 0-.17.04-.33.12-.47.28-.46.84-.68 1.36-.68.31 0 .63.06.93.16l.17.06-.03.63ZM38.17 35c-.58 0-1.17-.37-1.17-1s.6-1 1.17-1c.35 0 .63.1.83.28l-.15.14a.97.97 0 0 0-.67-.23c-.47 0-.95.3-.95.81s.48.81.95.81a1 1 0 0 0 .67-.22l.15.16c-.21.16-.52.25-.83.25Zm.6-.28v-.5H38V34h1v.75l-.23-.03ZM40 35v-2h.94c.43 0 1.02.15 1.02.69 0 .27-.17.48-.48.6-.15.05-.33.08-.54.08h-.8l.09-.1V35H40Zm1.71 0-.64-.73h.28L42 35h-.29Zm-1.48-.71-.08-.1h.78c.5 0 .77-.19.77-.5 0-.32-.27-.5-.77-.5h-.78l.08-.1v1.2ZM44 35a.98.98 0 0 1-.72-.28A1.06 1.06 0 0 1 43 34a.99.99 0 0 1 .28-.71A1.03 1.03 0 0 1 44 33a1.02 1.02 0 0 1 .71.28A1.03 1.03 0 0 1 45 34a1.03 1.03 0 0 1-.29.72.95.95 0 0 1-.7.28Zm0-.19c.12 0 .22-.02.32-.05a.76.76 0 0 0 .42-.43c.04-.1.06-.21.06-.33a.84.84 0 0 0-.06-.32.77.77 0 0 0-.42-.43.8.8 0 0 0-.32-.06.81.81 0 0 0-.57.23.83.83 0 0 0-.23.58c0 .12.02.22.06.32a.79.79 0 0 0 .74.5ZM47 35c-.62 0-1-.3-1-.86V33h.26v1.13c0 .47.27.68.74.68.48 0 .75-.21.75-.68V33H48v1.14c0 .56-.37.86-1 .86ZM49 35v-2h.96c.43 0 1.04.15 1.04.69 0 .53-.61.68-1.04.68h-.81l.08-.1V35H49Zm.23-.71-.08-.1h.8c.51 0 .78-.2.78-.5 0-.32-.27-.5-.78-.5h-.8l.08-.1v1.2Z"/></svg>