<!-- by TradingView --><svg width="56" height="56" viewBox="0 0 56 56" xmlns="http://www.w3.org/2000/svg"><path fill="#F0F3FA" d="M0 0h56v56H0z"/><path d="M13.79 28 12 14h2.38l.96 8.56L16.6 18h1.89l1.2 4.54.95-8.54H23l-1.77 14h-2.38l-1.35-5-1.28 5H13.8ZM27.72 28C24.8 28 24 25.64 24 23.29v-4.56c0-2.55.96-4.73 4.03-4.73 2.66 0 3.97 1.35 3.97 3.73V18h-3v-.18c0-.82.12-1.82-1-1.82-1.15 0-1 .91-1 1.73v6.07c0 .86-.17 2.2 1 2.2s1-1.22 1-2.07V22h-1l.03-2H32v8h-2v-1.4c-.4.9-1.23 1.4-2.28 1.4ZM38 28c-2.82 0-3.88-1.77-4-4.25l2.6-.4c.03.9.06 2.65 1.4 2.65.7 0 1-.66 1-1.27 0-1.75-1.83-2.79-3.1-3.8A4.86 4.86 0 0 1 34 17.2C34 15 35.7 14 38 14c2.48 0 3.59 1.67 3.7 3.8l-2.57.34a8.42 8.42 0 0 0-.13-1.1c-.08-.55-.35-1.04-1-1.04-.68 0-1 .62-1 1.2 0 .96.5 1.56 1.24 2.16C40.02 20.8 42 22.2 42 24.6c0 2-1.9 3.39-4 3.39ZM13 43V29h3v6h3v-6h3v14h-3v-6h-3v6h-3Z"/><path d="M22 35h-9v2h9v-2Z" fill="#239FDB"/><path d="M28 43c-2.9 0-4-1.84-4-4.55V29h3v9.84c0 .88-.15 2.16 1 2.16s1-1.27 1-2.16V29h3v9.45c0 2.7-1.1 4.55-4 4.55ZM34 43V29h4c2.46 0 4.5.7 4.5 3.5 0 1.46-.7 2.73-2.19 2.98C42.12 35.73 43 37.26 43 39c0 2.73-1.83 4-4.45 4H34Zm3-2h.96c1.4 0 2.04-.64 2.04-2 0-1.42-.61-2-2.1-2H37v4Zm0-6h.96c1.17 0 2.04-.94 2.04-2 0-1.32-.8-2-2-2h-1v4Z"/></svg>