<!-- by TradingView --><svg width="56" height="56" viewBox="0 0 56 56" xmlns="http://www.w3.org/2000/svg"><path fill="#F0F3FA" d="M0 0h56v56H0z"/><path d="M23 28v3.97A2.1 2.1 0 0 1 21 34c-1.02 0-2-.94-2-2.03V22h-3v9.97A2.1 2.1 0 0 1 14 34c-1.01 0-2-.94-2-2.03V22H9v10c0 2.82 2.14 5 4.77 5 1.51 0 2.86-.75 3.73-1.92A4.65 4.65 0 0 0 21.23 37 4.85 4.85 0 0 0 26 32v-4h-3ZM31 37V22h3v12h2.45c.78 0 1.55-.46 1.55-1.33V20.35c0-.87-.77-1.35-1.55-1.35h-4.7a4.47 4.47 0 0 0-.75-3h5.6c2.43 0 4.4 2.2 4.4 4.9v11.2c0 2.7-1.97 4.9-4.4 4.9H31Z"/><path fill="#ED1C24" d="M26 22h3.5v6H26zM43 25h3.5v12H43V25Z"/><circle cx="27.75" cy="18.25" r="2.25" fill="#ED1C24"/><circle cx="44.75" cy="21.25" r="2.25" fill="#ED1C24"/></svg>