<!-- by TradingView --><svg width="56" height="56" viewBox="0 0 56 56" xmlns="http://www.w3.org/2000/svg"><path fill="#081E51" d="M0 0h56v56H0z"/><path d="M9.46 19.2c-.43.32-.78.75-1.01 1.24-.24.5-.35 1.04-.34 1.6 0 .46.06.92.19 1.37.15.48.4.93.72 1.3.34.49.78.89 1.28 1.18.09.05.26.13.42.23.3.2.63.46.7.5l1.77 1.28c1.17-.8 2.25-1.75 3.22-2.82a4.22 4.22 0 0 0 1.3-3.04 3.42 3.42 0 0 0-.33-1.66 3.23 3.23 0 0 0-1.07-1.26 5.77 5.77 0 0 0-3.38-.99 5.38 5.38 0 0 0-3.47 1.07Zm3.25 8.14c-.35-.27-.78-.57-1.2-.88a2.69 2.69 0 0 0-1.03-.68l-.1-.05c-.45-.25-.84-.6-1.14-1.02l-.1-.1a3.64 3.64 0 0 1-.87-2.57 3.3 3.3 0 0 1 .32-1.51c.23-.47.56-.87.96-1.17a5.23 5.23 0 0 1 3.38-1.06 5.68 5.68 0 0 1 3.33.94c.43.3.77.73 1 1.22a4.25 4.25 0 0 1-.97 4.51 18.22 18.22 0 0 1-3.1 2.74l-.48-.37Z" fill="#2994CD"/><path d="M9.7 19.42a3.26 3.26 0 0 0-1.24 2.61c0 .44.05.86.16 1.28.13.42.34.81.62 1.15l.06.07c.31.45.71.82 1.18 1.1.08.05.24.12.38.21.28.18.58.41.64.46l1.63 1.19a16.93 16.93 0 0 0 2.97-2.63 3.91 3.91 0 0 0 1.2-2.82 3.16 3.16 0 0 0-.28-1.53 3 3 0 0 0-.98-1.17 5.3 5.3 0 0 0-3.14-.9 4.94 4.94 0 0 0-3.2.98Zm2.92 7.49-1.02-.74-.07-.05c-.13-.09-.35-.26-.58-.41a2.6 2.6 0 0 0-.29-.16l-.1-.06c-.4-.24-.77-.56-1.05-.95l-.08-.11-.06-.07c-.26-.32-.46-.7-.59-1.1a4.5 4.5 0 0 1-.16-1.22c-.02-.49.08-.97.29-1.4.2-.43.51-.8.89-1.08.9-.67 2-1.01 3.1-.96a5.2 5.2 0 0 1 3.05.87c.4.27.72.66.93 1.11.21.45.3.95.27 1.46a3.97 3.97 0 0 1-1.16 2.7 16.8 16.8 0 0 1-2.86 2.54l-.5-.37Z" fill="#2994CD"/><path d="M9.97 19.65c-.36.27-.65.63-.85 1.05-.2.42-.3.89-.29 1.36 0 .4.05.79.16 1.17.12.4.31.75.57 1.06l.04.06c.3.42.67.77 1.1 1.02l.35.2c.2.13.39.28.58.43l1.47 1.08c1-.7 1.92-1.5 2.74-2.42a3.64 3.64 0 0 0 1.1-2.6 2.79 2.79 0 0 0-1.17-2.5 4.86 4.86 0 0 0-2.87-.83 4.5 4.5 0 0 0-2.93.92Zm2.43 6.7-.68-.5-.07-.04a5.75 5.75 0 0 0-.52-.37c-.1-.05-.19-.1-.25-.15l-.1-.05a3.28 3.28 0 0 1-.99-.9l-.1-.14c-.25-.3-.43-.63-.55-1-.1-.37-.15-.75-.15-1.13a2.82 2.82 0 0 1 1.08-2.28 4.4 4.4 0 0 1 2.83-.9c.98-.03 1.96.25 2.8.8a2.75 2.75 0 0 1 1.1 2.36 3.64 3.64 0 0 1-1.06 2.5 15.7 15.7 0 0 1-2.62 2.33l-.72-.53Z" fill="#2994CD"/><path d="M10.24 19.87a2.76 2.76 0 0 0-1.03 2.2c0 .36.04.72.14 1.07.1.36.28.69.52.97l.04.06c.27.38.61.7 1 .94.07.04.2.1.31.18l.53.37 1.33.98c.9-.63 1.75-1.37 2.5-2.2a3.34 3.34 0 0 0 1-2.39 2.7 2.7 0 0 0-.24-1.29c-.18-.4-.46-.74-.8-1a4.39 4.39 0 0 0-2.64-.73 4.06 4.06 0 0 0-2.66.84Zm1.6 5.68-.06-.04a7.4 7.4 0 0 0-.8-.54 3.2 3.2 0 0 1-.9-.84l-.1-.11a2.73 2.73 0 0 1-.48-.91c-.1-.34-.14-.69-.13-1.04a2.58 2.58 0 0 1 .97-2.07 3.96 3.96 0 0 1 2.56-.8c.9-.03 1.78.22 2.53.73a2.51 2.51 0 0 1 1 2.15 3.3 3.3 0 0 1-.97 2.27c-.71.8-1.5 1.51-2.37 2.13l-1.25-.93Z" fill="#2994CD"/><path d="M10.51 20.09a2.5 2.5 0 0 0-.93 1.95v.15a2.68 2.68 0 0 0 .64 1.84c.25.34.55.63.9.86l.28.16.47.35 1.19.88c.82-.58 1.58-1.25 2.25-2a3.05 3.05 0 0 0 .9-2.18c.03-.4-.05-.8-.22-1.16a2.33 2.33 0 0 0-.73-.9 3.9 3.9 0 0 0-2.36-.71c-.86-.04-1.7.23-2.39.76Zm1.45 5.16a.41.41 0 0 1-.06-.05l-.4-.3a1.98 1.98 0 0 0-.2-.12l-.09-.05c-.33-.21-.61-.48-.84-.8v-.03a.55.55 0 0 1-.07-.03c-.2-.24-.35-.53-.44-.83-.08-.3-.12-.63-.11-.95a2.33 2.33 0 0 1 .86-1.87 3.5 3.5 0 0 1 2.29-.73c.8-.03 1.6.2 2.27.67.3.22.53.5.68.84a3.02 3.02 0 0 1-.66 3.14c-.64.73-1.36 1.38-2.13 1.94l-1.1-.83Z" fill="#2994CD"/><path d="M10.8 20.31a2.27 2.27 0 0 0-.82 1.8 2.38 2.38 0 0 0 .53 1.68l.03.05c.22.3.5.57.8.78l.25.15.4.31 1.06.78c.73-.52 1.4-1.12 2-1.8a2.77 2.77 0 0 0 .81-1.95c.02-.36-.05-.72-.2-1.05a2.1 2.1 0 0 0-.67-.81 3.47 3.47 0 0 0-2.1-.63 3.2 3.2 0 0 0-2.1.7Zm1.3 4.64-.06-.05a12.1 12.1 0 0 0-.54-.36l-.08-.05a3.1 3.1 0 0 1-.77-.74l-.04-.04c-.17-.22-.3-.47-.39-.74-.07-.27-.1-.55-.1-.83a2.1 2.1 0 0 1 .76-1.7 3.06 3.06 0 0 1 2.02-.64 3.3 3.3 0 0 1 2 .59c.26.2.47.45.61.75s.2.64.18.98a2.68 2.68 0 0 1-.76 1.83c-.57.64-1.2 1.22-1.89 1.71l-.95-.71Z" fill="#2994CD"/><path d="M11.05 20.53a2.04 2.04 0 0 0-.72 1.6c0 .27.04.53.12.78a2.06 2.06 0 0 0 .38.77c.2.28.43.52.7.7l.2.15c.15.1.3.21.36.27l.9.67c.65-.46 1.25-1 1.8-1.6.43-.46.68-1.08.69-1.73.02-.32-.04-.64-.17-.93a1.89 1.89 0 0 0-.57-.73 3.02 3.02 0 0 0-1.84-.56 2.8 2.8 0 0 0-1.85.61Zm1.15 4.11-.06-.03c-.07-.06-.19-.16-.3-.23l-.13-.1a2.93 2.93 0 0 1-.75-.72l-.03-.03c-.16-.2-.28-.42-.35-.66-.06-.24-.1-.49-.1-.74a1.84 1.84 0 0 1 .67-1.47c.5-.4 1.12-.6 1.75-.57.62-.02 1.23.16 1.75.52.23.17.4.4.53.67a2.38 2.38 0 0 1-.5 2.47c-.5.56-1.06 1.06-1.66 1.5l-.82-.6Z" fill="#2994CD"/><path d="M11.32 20.76a1.78 1.78 0 0 0-.62 1.34v.12c.01.2.04.41.1.61.06.23.17.45.32.64l.03.04c.17.24.38.45.62.62l.17.12.3.23.76.58c.55-.4 1.07-.87 1.52-1.4.38-.4.6-.93.6-1.5a1.74 1.74 0 0 0-.63-1.45 2.54 2.54 0 0 0-1.57-.48 2.34 2.34 0 0 0-1.6.53Zm1 3.58-.06-.05-.23-.18a.85.85 0 0 0-.1-.07l-.08-.05a2.8 2.8 0 0 1-.58-.6l-.03-.03a1.7 1.7 0 0 1-.3-.57c-.05-.2-.08-.42-.07-.64a1.62 1.62 0 0 1 .55-1.26c.43-.34.96-.52 1.5-.5.52-.01 1.03.14 1.47.45a1.56 1.56 0 0 1 .57 1.31c0 .53-.2 1.03-.56 1.4-.42.48-.9.92-1.4 1.3l-.67-.5Z" fill="#2994CD"/><path d="M11.6 20.98c-.17.14-.3.33-.4.53a2.19 2.19 0 0 0-.06 1.26c.06.2.16.39.28.55l.02.03c.16.2.34.37.54.52l.13.1.24.2.62.47c.47-.34.9-.74 1.28-1.18.32-.35.5-.81.5-1.3a1.5 1.5 0 0 0-.52-1.22 2.06 2.06 0 0 0-1.31-.42c-.48-.02-.95.14-1.32.46Zm.85 3.06-.09-.07-.16-.12-.07-.06-.07-.04a3.27 3.27 0 0 1-.5-.52l-.02-.03c-.11-.15-.2-.31-.24-.5a2.15 2.15 0 0 1-.07-.53 1.38 1.38 0 0 1 .46-1.06 1.8 1.8 0 0 1 1.22-.42c.43-.02.85.11 1.2.37.17.13.3.3.37.49.08.2.12.4.1.61 0 .44-.16.86-.46 1.18-.35.4-.74.78-1.16 1.1l-.51-.4Z" fill="#2994CD"/><path d="M11.87 21.2a1.24 1.24 0 0 0-.41 1c0 .15.02.32.05.48.05.16.12.32.23.46.13.18.29.34.46.49.19.17.44.37.75.6.38-.27.74-.6 1.05-.97.25-.3.4-.67.4-1.07a1.27 1.27 0 0 0-.42-1.02 1.6 1.6 0 0 0-1.05-.35c-.39-.01-.77.12-1.06.38Zm.42 2.3c-.16-.13-.3-.29-.43-.46a1.22 1.22 0 0 1-.2-.4 1.93 1.93 0 0 1-.04-.44 1.15 1.15 0 0 1 .35-.87c.26-.23.6-.35.95-.33.33-.01.67.1.94.3.12.11.22.25.28.4.06.16.08.33.07.5 0 .35-.12.7-.35.96-.28.33-.59.62-.92.88l-.65-.53ZM9.6 26.96a4.21 4.21 0 0 0-1.31 3.05c-.03.58.08 1.14.33 1.66.24.5.61.94 1.07 1.26a5.76 5.76 0 0 0 3.41.97 5.34 5.34 0 0 0 3.45-1.08 3.5 3.5 0 0 0 1.35-2.8c0-.47-.07-.93-.2-1.38-.15-.48-.4-.92-.72-1.3a3.98 3.98 0 0 0-1.29-1.18c-.09-.05-.26-.13-.42-.23-.3-.2-.63-.46-.7-.5l-1.75-1.29c-1.18.8-2.26 1.75-3.22 2.82Zm.16 5.82a3.2 3.2 0 0 1-1.32-2.77 4.27 4.27 0 0 1 1.27-2.93 18.23 18.23 0 0 1 3.1-2.74l.48.35a103.38 103.38 0 0 0 1.9 1.38 5.09 5.09 0 0 0 .43.24c.44.25.82.6 1.12 1l.1.14a3.62 3.62 0 0 1 .87 2.57 3.15 3.15 0 0 1-1.27 2.67 5.23 5.23 0 0 1-3.35 1.03 5.62 5.62 0 0 1-3.32-.94Z" fill="#2994CD"/><path d="M9.86 27.18A3.95 3.95 0 0 0 8.66 30c-.03.52.08 1.04.3 1.5a3 3 0 0 0 .97 1.17c.94.63 2.04.94 3.15.9 1.13.05 2.25-.3 3.18-1 .4-.29.71-.68.93-1.14.22-.45.32-.96.31-1.46 0-.43-.05-.86-.17-1.28a3.3 3.3 0 0 0-.61-1.15l-.06-.06a3.89 3.89 0 0 0-1.18-1.1c-.08-.05-.24-.12-.38-.21l-.64-.47-1.63-1.18a17.18 17.18 0 0 0-2.97 2.65Zm.16 5.39A2.98 2.98 0 0 1 8.82 30a3.94 3.94 0 0 1 1.16-2.71c.86-.96 1.82-1.81 2.86-2.54l.5.37 1.03.73.07.05.58.42.28.16.1.05c.41.24.77.57 1.06.96l.08.1.05.07c.27.32.47.7.6 1.1.1.4.15.81.15 1.23.02.48-.08.96-.29 1.4-.2.43-.51.8-.89 1.08-.9.66-1.98 1-3.08.95a5.18 5.18 0 0 1-3.06-.87v.02Z" fill="#2994CD"/><path d="M10.13 27.36a3.65 3.65 0 0 0-1.1 2.61 2.78 2.78 0 0 0 1.17 2.5c.85.58 1.86.87 2.88.83a4.49 4.49 0 0 0 2.92-.92 3.02 3.02 0 0 0 1.14-2.4c0-.4-.05-.8-.16-1.18-.12-.4-.31-.75-.57-1.06l-.05-.07c-.3-.41-.66-.76-1.09-1.02-.07-.04-.22-.1-.35-.2-.2-.12-.4-.27-.58-.42l-1.48-1.08c-1 .69-1.91 1.5-2.73 2.41Zm.15 4.96a2.61 2.61 0 0 1-.85-1.03c-.2-.41-.28-.87-.25-1.33a3.66 3.66 0 0 1 1.05-2.5c.79-.87 1.67-1.65 2.62-2.32l.7.52.68.5.06.04a6.82 6.82 0 0 0 .79.52l.09.05c.38.23.72.54.99.9l.1.14a3.12 3.12 0 0 1 .7 2.14c0 .44-.09.88-.27 1.27-.2.4-.47.74-.81 1-.82.61-1.81.92-2.82.88a4.72 4.72 0 0 1-2.78-.78Z" fill="#2994CD"/><path d="M10.4 27.57a3.33 3.33 0 0 0-1 2.38c-.03.45.05.89.24 1.29.18.4.46.74.8 1 .79.53 1.7.8 2.63.76.95.04 1.88-.26 2.65-.84a2.76 2.76 0 0 0 1.03-2.2c0-.37-.04-.73-.14-1.08a2.9 2.9 0 0 0-.56-1.02 3.48 3.48 0 0 0-1.3-1.13c-.23-.15-.47-.34-.53-.38l-1.32-.99c-.92.63-1.76 1.37-2.5 2.2Zm.14 4.53a2.5 2.5 0 0 1-1-2.14 3.34 3.34 0 0 1 .97-2.28c.72-.8 1.52-1.5 2.39-2.12.35.24.8.58 1.24.91l.06.05a22.43 22.43 0 0 0 .7.47l.09.06c.35.22.66.51.9.86l.04.05.05.06c.22.27.38.58.48.92.1.33.14.68.14 1.02a2.59 2.59 0 0 1-.97 2.08c-.74.56-1.64.84-2.56.8-.9.03-1.78-.23-2.53-.74Z" fill="#2994CD"/><path d="M12.9 25.76c-.82.58-1.58 1.25-2.25 2a3.06 3.06 0 0 0-.9 2.17c-.03.4.05.8.22 1.17.17.37.42.68.74.9.7.49 1.52.73 2.35.7.86.04 1.7-.22 2.4-.75a2.54 2.54 0 0 0 .94-2.02c0-.33-.05-.65-.13-.97a2.7 2.7 0 0 0-.47-.9l-.04-.05a3.36 3.36 0 0 0-.9-.86l-.28-.16-.47-.35-1.2-.88h-.01Zm-2.1 6.1c-.3-.2-.53-.5-.69-.84a2.27 2.27 0 0 1-.2-1.09 3.03 3.03 0 0 1 .86-2.05c.64-.72 1.35-1.36 2.13-1.92a65.2 65.2 0 0 1 1.57 1.17l.2.12.08.05c.33.2.61.48.85.8l.02.02c0 .02.02.04.03.05.2.25.36.53.45.84.09.3.13.62.12.93a2.33 2.33 0 0 1-.87 1.87 3.5 3.5 0 0 1-2.3.73c-.8.03-1.58-.2-2.25-.67Z" fill="#2994CD"/><path d="M10.92 27.97a2.75 2.75 0 0 0-.8 1.95c-.02.36.04.72.2 1.04.14.33.36.6.64.82.6.41 1.3.63 2.01.62h.18c.73.02 1.45-.22 2.03-.69a2.3 2.3 0 0 0 .82-1.8c.01-.29-.03-.58-.1-.87-.09-.3-.23-.57-.42-.8l-.04-.05a3.22 3.22 0 0 0-.8-.79l-.24-.15a8.16 8.16 0 0 1-.4-.3c-.38-.3-.77-.58-1.05-.79a11.9 11.9 0 0 0-2.03 1.8Zm.14 3.67a2.03 2.03 0 0 1-.78-1.73 2.7 2.7 0 0 1 .76-1.83c.57-.64 1.2-1.22 1.89-1.71l.96.7.05.05.35.27.17.1.08.05c.3.2.55.44.77.73l.03.05c.18.22.31.47.4.74.07.27.1.55.1.83a2.1 2.1 0 0 1-.76 1.7c-.58.45-1.3.67-2.02.64a3.3 3.3 0 0 1-2-.59Z" fill="#2994CD"/><path d="M11.19 28.16c-.45.46-.7 1.08-.7 1.73a1.88 1.88 0 0 0 .74 1.66 3 3 0 0 0 1.83.55c.67.03 1.32-.18 1.85-.6a2.04 2.04 0 0 0 .72-1.6c0-.27-.02-.53-.1-.78-.06-.27-.2-.52-.36-.74l-.04-.04a3.1 3.1 0 0 0-.7-.7l-.2-.14-.35-.27-.9-.68c-.66.46-1.26 1-1.8 1.61Zm.13 3.25a1.7 1.7 0 0 1-.53-.66 1.8 1.8 0 0 1-.15-.86c.01-.6.25-1.19.66-1.61.5-.56 1.05-1.07 1.65-1.5l.81.6.06.05.3.22.14.1.07.04c.25.18.48.41.66.67l.04.04c.15.2.27.42.35.66.06.24.09.49.09.74a1.85 1.85 0 0 1-.67 1.46c-.5.4-1.12.6-1.74.58a2.85 2.85 0 0 1-1.74-.53Z" fill="#2994CD"/><path d="M11.45 28.37c-.38.4-.6.94-.6 1.5-.02.28.03.56.15.81.11.26.28.47.5.64.46.33 1 .5 1.57.48.57.02 1.12-.17 1.57-.53.2-.17.36-.38.47-.62.1-.24.16-.5.15-.78 0-.23-.03-.46-.08-.68a1.84 1.84 0 0 0-.32-.63l-.03-.03a3.1 3.1 0 0 0-.63-.62l-.17-.12-.3-.23-.75-.58c-.56.4-1.07.87-1.53 1.39Zm.13 2.81c-.2-.15-.35-.35-.45-.57-.1-.23-.14-.48-.12-.74 0-.52.2-1.02.56-1.39.42-.48.89-.92 1.4-1.3l.66.5.07.05.24.18.1.07.07.04c.23.18.42.39.59.62l.02.04c.14.17.24.36.3.57.05.21.08.43.08.64a1.6 1.6 0 0 1-.56 1.26 2.2 2.2 0 0 1-1.49.5 2.37 2.37 0 0 1-1.47-.47Z" fill="#2994CD"/><path d="M11.71 28.56c-.31.35-.5.82-.5 1.3a1.5 1.5 0 0 0 .53 1.23c.38.28.84.43 1.3.41.49.02.95-.14 1.33-.45.16-.14.3-.33.39-.53a2.23 2.23 0 0 0 .06-1.24 1.5 1.5 0 0 0-.28-.55l-.02-.03c-.16-.2-.33-.4-.53-.55l-.14-.1-.23-.2-.62-.47c-.47.34-.9.74-1.29 1.18Zm.14 2.4a1.32 1.32 0 0 1-.46-1.1c0-.45.16-.87.46-1.18.35-.41.74-.78 1.16-1.1l.52.4.09.07.15.12.07.05.07.05c.18.15.35.33.5.52l.02.03c.1.15.17.32.21.5.05.17.07.36.07.54a1.36 1.36 0 0 1-.46 1.06c-.34.28-.77.43-1.21.41-.43.01-.85-.12-1.2-.38Z" fill="#2994CD"/><path d="M11.98 28.76c-.26.3-.4.68-.4 1.07a1.26 1.26 0 0 0 .42 1.02c.3.24.67.36 1.05.34.38.02.75-.11 1.05-.37a1.25 1.25 0 0 0 .41-.99c0-.16-.02-.32-.05-.48a1.35 1.35 0 0 0-.23-.46 2.94 2.94 0 0 0-.45-.5l-.76-.6c-.38.28-.73.6-1.04.97Zm.12 1.97c-.12-.11-.22-.25-.28-.4a1.1 1.1 0 0 1-.07-.5c0-.35.12-.7.35-.96.28-.33.59-.62.92-.88.23.17.45.34.65.54.16.14.3.3.43.48.09.11.15.23.2.37.03.14.05.29.05.44a1.12 1.12 0 0 1-.35.86c-.27.23-.6.36-.95.34-.34.01-.68-.09-.95-.3Z" fill="#2994CD"/><path d="M8.18 21.02s-1.09 2.9 2.07 4.87c.16.1 3.69 2.62 3.69 2.62l.03.02a2.5 2.5 0 0 1 .95 1.67 2.66 2.66 0 0 1-.45 1.88c-.36.5-.88.85-1.47.97-1.1.23-2.55.09-4.25-1.14l.03.06c.18.34 1.22 1.97 4.16 2.02 0 0 3.73.3 4.86-2.85 0 0 1.18-2.85-2.2-5.1l-2.96-2.1a5.04 5.04 0 0 1-1.34-1.38c-.47-.73-.82-1.67-.17-2.45 0 0 1.4-1.98 5.35-.35.29.14.57.3.83.5 0 0-.76-1.96-4.07-2.26h-.21c-.83 0-3.96.2-4.85 3.02ZM24.34 34l-.1-.3c-.39.19-.8.3-1.22.3-1.94 0-3.02-1.02-3.02-3.22V25h2v5.43c0 .99-.03 1.57 1 1.57s1-.7 1-1.57V25h2v9h-1.66ZM28 34v-9h1.82l.15.24c1.25-.43 2.08-.2 3.03 0l-.46 1.89c-1.2-.6-2.54.15-2.54 1.37V34h-2ZM38 28.5c0-.8.04-1.5-1-1.5-.95 0-1 .87-1 1.5V30c0 .83.01 2 1 2 1.1 0 1-.6 1-2.1v-1.4Zm-.91 7.07c.7 0 1.18-.7 1.18-1.57v-.5c-.5.5-.77.5-1.27.5-1.83 0-3-1.35-3-3.43v-2.49c0-1.97 1.19-3.08 3-3.08.44-.03.9.09 1.27.34l.33-.33H40v9.56c0 1.45-.65 2.43-2.49 2.43l-.42-1.43ZM46 28c0-.5 0-1-1-1s-1 .36-1 1v1h2v-1Zm-2 3v.22c0 1.12.9 1.44 2.92.34l.66 1.63c-.83.51-1.61.8-2.58.81-1.65.06-3-.72-3-2.52V28c0-1.9 1.18-3 3-3s3 1.19 3 3v2.5l-4 .5Z" fill="#fff"/></svg>