<!-- by TradingView --><svg width="56" height="56" viewBox="0 0 56 56" xmlns="http://www.w3.org/2000/svg"><path fill="#F0F3FA" d="M0 0h56v56H0z"/><path d="M23.59 28.45a3.53 3.53 0 0 1-.29-.6c-.12-.3.29-.39.62-.43.34-.05.77.13.86.43.1.3-.24.95-.24 1.38v1.68h-.95c.05-.74.11-2.28 0-2.46ZM24.54 32.47l-.8.65.18 9.45.62.39v-10.5Z" fill="#175222"/><path d="M24.07 24.57a4.86 4.86 0 0 0 1.57-.86l-.2.73c-2.61 1-3.23 1.47-3.66 2.24-.35.63-.4 1.33-.38 1.6-.34.09-.58.6-.82.65-.23.04-.42-.09-.57-.17-.14-.1.1-.35.29-.48.19-.13-.2-.43 0-.69.19-.26.38.13.28.26-.1.13-.04.39.24.43.29.04.24-.86.58-1.73.33-.86 1.38-1.46 2.67-1.98Z" fill="#195321"/><path fill-rule="evenodd" d="M34.4 39.76c1.65-2.74 2.69-6.54 2.69-10.75 0-4.2-1.04-8-2.7-10.74-1.65-2.74-3.9-4.36-6.32-4.36-2.41 0-4.66 1.62-6.32 4.36-1.66 2.74-2.7 6.54-2.7 10.74 0 4.21 1.04 8.01 2.7 10.75 1.66 2.74 3.9 4.36 6.32 4.36 2.42 0 4.67-1.62 6.33-4.36Zm-6.33 4.62c5.14 0 9.3-6.88 9.3-15.37 0-8.48-4.16-15.36-9.3-15.36-5.13 0-9.3 6.88-9.3 15.36 0 8.5 4.17 15.37 9.3 15.37Z" fill="#195321"/><path fill-rule="evenodd" d="M35.05 40.36c1.84-2.89 2.99-6.9 2.99-11.35 0-4.44-1.15-8.45-3-11.34-1.84-2.9-4.35-4.63-7.06-4.63-2.72 0-5.23 1.73-7.07 4.63-1.85 2.89-3 6.9-3 11.34 0 4.45 1.15 8.46 3 11.35 1.84 2.9 4.35 4.63 7.07 4.63 2.7 0 5.22-1.73 7.07-4.63Zm-7.07 4.89c5.71 0 10.34-7.27 10.34-16.24 0-8.96-4.63-16.23-10.34-16.23-5.72 0-10.35 7.27-10.35 16.23 0 8.97 4.63 16.24 10.35 16.24Z" fill="#195321"/><path d="M21.1 36.31c.16.34.07.69 0 .82-.47 0-.52-.82-.66-1.34-.11-.41-.5-.66-.67-.73.05-2.72.53-4.4.81-4.66.29-.26 1.77 0 2 0 .25 0 .63-.52.82-.4.19.14-.24.57-.62.66-.38.08-1.53-.05-1.86 0-.34.04-.29.56-.48 1.03-.19.48-.24 2.2-.14 2.68.1.47.62 1.5.8 1.94Z" fill="#195321"/><path fill-rule="evenodd" d="M22.62 28.32h.02c.17.01.42.05.62.14.1.05.2.11.25.21.06.1.07.22.02.35-.07.18-.2.32-.31.43a5 5 0 0 1-.32.29c-.08.08-.12.16-.12.27 0 .16.03.27.06.34l.05.09.02.02.34.24h-3.64l-.04-.05c-.11-.12-.23-.41-.05-.78a1.76 1.76 0 0 1-.09-.42c-.01-.18 0-.4.13-.55l.03-.05 3.03-.53Zm-2.83 1.65c-.11.22-.07.39-.03.47h1.28a.84.84 0 0 1-.03-.15c-.02-.12 0-.3.16-.39a.71.71 0 0 1-.63-.1l-.1-.01-.23.03c-.15.04-.31.1-.42.15Zm1.39-.07c.11.17.1.2.11.36l.06.18h1.22c-.05-.1-.08-.25-.08-.43 0-.12.04-.22.09-.3a1.3 1.3 0 0 0-.69-.07c-.26.05-.46.14-.51.17a.87.87 0 0 1-.2.09Zm1.62-.45c-.09-.12-.19-.3-.21-.5-.03-.2.05-.32.1-.36.13 0 .3.04.44.1a.3.3 0 0 1 .13.1c.02.03.03.07 0 .14a.95.95 0 0 1-.25.34l-.12.1-.05.05-.04.03Zm-.47-.81a.78.78 0 0 0-.03.35c.02.14.07.28.13.4a1.94 1.94 0 0 0-1.21.2c-.11.08-.3.13-.47.03a.52.52 0 0 1 .01-.29c.2-.67.48-.5 1.57-.7Zm-1.7.3-.86.15a.64.64 0 0 0-.05.34c0 .1.03.19.05.26l.36-.12c.1-.02.2-.04.3-.04h.02c0-.1.01-.18.04-.26.03-.13.1-.25.14-.33Z" fill="#175222"/><path d="M13.45 26.1 12 25.98l.75.96L12 28l1.45-.27.53 1.3.57-1.3 1.45.15-.84-.95.84-.96-1.45.12-.57-1.07-.53 1.07ZM14.45 33.11 13 33l.75.95-.75 1.07 1.45-.27.53 1.3.57-1.3 1.45.15-.84-.95L17 33l-1.45.11-.57-1.07-.53 1.07ZM14.45 18.09 13 17.97l.75.95L13 20l1.45-.26.53 1.3.57-1.3 1.45.15-.84-.96.84-.95-1.45.12-.57-1.07-.53 1.07ZM19.45 12.08 18 11.96l.75.95-.75 1.07 1.45-.26.53 1.3.57-1.3 1.45.15-.84-.96.84-.95-1.45.12-.57-1.07-.53 1.07ZM27.45 9.07 26 8.95l.75.96-.75 1.07 1.45-.27.53 1.3.57-1.3 1.45.15-.84-.95.84-.96-1.45.12L27.98 8l-.53 1.07ZM36.45 12.08 35 11.96l.75.95-.75 1.07 1.45-.26.53 1.3.57-1.3 1.45.15-.84-.96.84-.95-1.45.12-.57-1.07-.53 1.07ZM40.45 18.09 39 17.97l.75.95L39 20l1.45-.26.53 1.3.57-1.3 1.45.15-.84-.96.84-.95-1.45.12-.57-1.07-.53 1.07ZM41.45 26.1 40 25.98l.75.96L40 28l1.45-.27.53 1.3.57-1.3 1.45.15-.84-.95.84-.96-1.45.12-.57-1.07-.53 1.07ZM40.45 33.11 39 33l.75.95-.75 1.07 1.45-.27.53 1.3.57-1.3 1.45.15-.84-.95L43 33l-1.45.11-.57-1.07-.53 1.07Z" fill="#195321"/><path d="M22.59 35.8c-.12-.15-.21-.15-.24-.14 0 .13 0 .49.05.87.04.47-.1 2.33.14 2.33.24 0 .24-1.13.33-1.86.1-.73.24-1.12.29-1.25.05-.13-.05-.86-.2-.86-.13 0-.13.82-.18.99-.05.17-.05.08-.2-.09Z" fill="#27562A"/><path fill-rule="evenodd" d="M24.45 31.12a1.7 1.7 0 0 0-.75-.08.82.82 0 0 0-.3.11 6.5 6.5 0 0 0-1 .84.81.81 0 0 0-.15.3 8.03 8.03 0 0 0 .37 1.02c.02.04.06.06.11.07.06.01.14 0 .24-.02.2-.06.43-.2.6-.37.11-.1.22-.2.33-.28.02 0 .03-.02.05-.03l.26-.2c.2-.18.37-.4.48-.78.05-.18.04-.3 0-.39a.44.44 0 0 0-.24-.2Zm-2.33 1.73v.03c.08.2.16.42.25.56.07.11.18.17.3.2.13.02.26 0 .39-.03.25-.08.53-.24.73-.45.09-.1.19-.17.3-.25l.04-.03.28-.22c.23-.2.43-.46.56-.9a.74.74 0 0 0-.03-.56.71.71 0 0 0-.37-.32c-.3-.12-.68-.12-.9-.1-.14.02-.28.08-.42.15a6.8 6.8 0 0 0-1.06.89c-.1.12-.17.27-.22.44a6.5 6.5 0 0 0-.13.5c0 .06-.02.12-.03.17-.06.24-.12.5-.22.75-.15.4-.15.99-.11 1.52l.07.73.04.47c0 .3.02 1.58-.04 2.19.06-.6.32-1.88.32-2.2l-.04-.48-.07-.73a3.71 3.71 0 0 1 .1-1.42 5.3 5.3 0 0 0 .26-.91Z" fill="#195122"/><path d="M32.74 40.45c-.19.66-.07 1.4 0 1.69l.39-.3a6.97 6.97 0 0 1 0-1.17c.04-.9.57-1.51 1-2.12a4.7 4.7 0 0 0 .57-1.8c.92-.1 1.24-1.39 1.14-2-.1-.6-.85-3.7-1.33-6.08-.38-1.9-.76-2.6-.9-2.72-.8-.35-2.57-1.47-3.34-1.99l-.2.3c.7.48 2.31 1.53 3.15 1.95 1.05.52 1.15 4.19 1.38 5.1.24.9.72 2.67.82 3.45.1.77-.34 1.46-.72 1.6-.38.12-.1-1.26-.33-1.13-.24.13.19 2.12-.24 2.29-.35.14-.43-1.3-.43-2.03-.67.43-.1 2.07 0 2.63s-.72 1.51-.96 2.33Z" fill="#195321"/><path d="M25.97 31.82c-.23-.34-.03-1.06.1-1.38.06.19.2.61.29.82.07.2.5.66.71.86-.11-.03-.36-.07-.48 0-.11.07-.2.26-.23.35a5.4 5.4 0 0 0-.39-.65Z" fill="#195122"/><path d="M25.16 33.37c-.42 0-.65-.14-.71-.21.12.2.45.6.71.6.34 0 1.1.13 1.1-.17 0-.3-.57-.22-1.1-.22Z" fill="#28502E"/><path fill-rule="evenodd" d="M27.36 33.5c-.23 0-.66.04-.62.18.04.17.66.21.9.21l.5-.04a4.2 4.2 0 0 1 1.08-.04c.03.03.05.07.07.12.04.09.09.18.21.18.1 0 .13-.13.16-.25.04-.13.08-.25.18-.18.19.13.43.51.33.73-.1.22-1.2.65-2.62.6h-1.31c-.57 0-1 .01-1.23-.06v.24c.33.1.7.17.92.17l.56-.02c.4-.02.8-.04.87.02.03.03.07.12.12.22.1.18.2.4.35.51.13.1.05.21-.05.36-.08.14-.18.3-.14.46l.09.26c.11.3.25.68.1 1.08-.04.12-.08.2-.1.29-.12.27-.16.37-.09.7.04.18.05.37.06.56 0 .29.02.58.13.78.2.35.29 1.26.2 1.73-.08.38 0 1.42.04 1.9h.2l-.06-8.85a7.48 7.48 0 0 0 1.82-.3c.3.56.9 1.94.86 2.98l-.05.96c-.04.63-.06.93.05 1.02l.09.07c.1.08.17.13.1.36-.03.1-.06.17-.1.23-.05.14-.1.24-.1.5v2.3l.2-.13c.12-.78.36-2.37.28-2.5-.05-.1-.08-.31-.1-.48-.01-.12-.02-.23-.04-.26a.8.8 0 0 0-.06-.1c-.06-.07-.13-.16-.13-.25l.06-.53c.06-.44.13-1.02.13-1.24 0-.34-.67-3.5-.76-3.8-.1-.3-.1-.43-.05-.47l.04-.03c.12-.06.38-.21.34-.57h-1.38c-.46-.08-1.4-.37-1.43-.95.1-.02.47-.01 1.05.13.71.17.8-.1.71-.22a.77.77 0 0 0-.23-.15c-.17-.08-.35-.17-.3-.28.1-.17 1-.09 1.34.21.34.3.9.78 1.05.74.07-.02.03-.13-.02-.24-.05-.11-.1-.24-.03-.28.08-.05.36.12.63.28.24.14.47.28.52.24.04-.04.01-.15-.02-.24-.03-.1-.06-.2.02-.2.06 0 .23.11.39.21.17.12.35.23.37.18.05-.08-.19-.69-.71-.69a7.26 7.26 0 0 0-.4 0v-.01l-.03-.07c-.08-.1.54-.6.85-.82-.06-.06-.3-.12-.71.13-.2.11-.35.25-.5.38-.22.21-.42.4-.74.4-.33 0-.11-.69.08-1.3.12-.36.22-.7.2-.86-.03-.35.02-.44.05-.44l.38-.17a1.44 1.44 0 0 0-.42-.21l.42-1.21-1 1.2c-.22 0-.72.04-.95.18-.13.08-.23.21-.33.36-.12.17-.25.34-.43.41-.12.05-.26.1-.39.13-.24.07-.46.14-.52.22.13-.29.41-.9.52-1.08l.28-.36c.26-.33.6-.75.63-.9l.08-.26c.08-.3.2-.73.2-.98-.3.37-.9 1.19-.9 1.46 0 .35-.38 1-.43.83-.05-.18.14-.6.29-.91l.19-.48c.17-.46.4-1.07.57-1.25l.24-.22c.17-.13.29-.22.19-.34-.1-.12-.06-.25-.03-.38l.03-.18v-.12c-.03-.17-.05-.37.14-.44.05-.02.05-.08 0-.18l.29-.25c-.29-.23-.86-.74-.86-.91 0-.1.12-.35.25-.61.15-.29.3-.6.32-.77.05-.33-.13-.55-.27-.72l-.01-.01c-.12-.14.1-.55.24-.74-.04-2-1.86-2.39-2.77-2.33-2.49 0-2.48 1.84-2.48 2.06v.01l.04.4c.02.24.05.5.05.68l-.04.55c-.04.36-.08.78-.05.96.03.18.21.4.37.6.1.14.2.25.2.3 0 .11-.06.2-.1.22l.1.3c.14-.06.43-.28.43-.55s-.3-.43-.49-.53l-.13-.08c-.05-.05 0-.07.11-.1.1-.04.21-.08.32-.16.17-.12-.1-.58-.28-.89-.08-.12-.14-.22-.15-.27-.02-.09-.02-.35-.02-.6 0-.26 0-.5-.03-.57-.04-.13-.43-2.03 2.15-2.03 2.06 0 2.45 1.36 2.38 2.03-.1.5-.3 1.58-.33 1.86l-.05.32c-.04.28-.1.58-.1.8 0 .08.07.2.18.34.04.62.07 1.49-.03 1.69a.93.93 0 0 0-.1.4c0 .1 0 .2-.04.33-.1.3-1.39 2.85-1.86 3.46a13 13 0 0 1-1.48-2.9c-.2-.8-.3-1.82-.34-2.24h-.23v-.39l-.39.52v1.55c.1.5.42 1.66.96 2.42.67.95 1.38 2.12 1.38 3.02l.01.5c.02.43.03.46-.34.5-.48.04-1.24.04-1.48.04s-.14.21.33.26c.2.01.54 0 .9-.02.49-.03 1-.06 1.1.02l.21.15c.26.2.62.5.8.5h-1.62Zm-1.48.7c.4-.02 1.19-.02 1.19.08 0 .13-.72.22-1.2.22-.47 0-.85-.05-.8-.22.02-.1.26-.1.52-.09h.29Zm.86-6.74c-.2-.34-.21-.55-.2-.6.16-.06.4.26.6.51.09.13.17.23.22.26.14.09.19-.17.19-.39 0-.13.04-.13.12-.12h.16c.2-.05.29-.13.34-.3.04-.18.14-.27.28-.35l.08-.05c.09-.04.12-.07.16-.17.05-.13.14.13.2.3.04.18-.06.3-.2.4-.14.08-.28.38-.38.68-.08.25-.35.33-.48.35.02.19.04.6 0 .73-.04.18-.19.18-.19 0 0-.09-.18-.3-.39-.56-.19-.23-.4-.48-.51-.69Zm-.67-2.9c.33.47 1.05 1.39 1.24 1.39.14 0 .33-.06.47-.12a.85.85 0 0 1 .2-.05l.38-.05v-.6l.86-.35v.91c-.48.1-1.53.51-1.91 1.34-.2-.16-.57-.54-.57-.78h-.29c-.17-.26-.5-.96-.38-1.68Zm2.29-.03c-.08.17-.32.3-.43.34.01-.17.08-.53.24-.56.19-.04.28 0 .19.22Zm.33-.6c-.08.02-.23.12-.19.3.05.2.1.3.2.3.09 0 .18-.3 0-.6Zm.67-1.04c-.15-.25-.67-.2-.9-.13 0 .08.12.26.42.3.3.03.45-.1.48-.17Zm-3.43 0a.7.7 0 0 1 .52-.18c.23.04.45.13.52.18-.1.05-.37.17-.52.17-.15 0-.41-.12-.52-.17ZM27.55 25c0 .17-.03.24-.05.26-.2 0-.2-.26-.2-.39 0-.22-.02-.69.06-.86.06-.14.15-.14.26-.14.07 0 .14 0 .21-.04.13-.05.02-.1-.1-.14-.07-.02-.14-.04-.18-.07-.15-.09.9-.35.9 0 0 .34-.38.52-.52.52a2 2 0 0 1-.43-.09l.05.95Zm-.67-.47c.06 0 .19-.07.19-.3 0-.22.02-.26.07-.34l.07-.14c.05-.1.04-.2.03-.26 0-.08 0-.13.07-.13.06 0 .11-.07.17-.15.07-.1.15-.2.26-.15.19.08.33.13.52.17.2.04.29 0 .24-.09-.02-.04-.1-.04-.2-.04-.09 0-.18 0-.23-.04l-.03-.04c-.08-.07-.15-.13-.4-.13-.16 0-.2.06-.25.15-.03.06-.07.13-.18.19-.24.13-.43.43-.47.7-.05.25-.05.55.14.6Zm.33-3.41h-1.28c.08-.1.31-.3.62-.3.3 0 .57.2.66.3Zm1.05 0h1.15a.58.58 0 0 0-.53-.3c-.3 0-.54.2-.62.3Zm.43.25c-.23-.03-.44.2-.52.3.1.05.33.14.52.18.2.03.43-.1.53-.17-.08-.09-.3-.27-.53-.3Zm-2.57.4c.06-.12.23-.35.43-.35.19 0 .42.17.52.26a1 1 0 0 1-.52.17.93.93 0 0 1-.43-.09Zm5.1 12.04c0-.38.25-.54.38-.57.06.4.15 1.2 0 1.34-.19.18-.38-.3-.38-.77Zm.71-.7-.1 2.03c-.15-.17-.47-.46-.47-.25 0 .25.05.64.57.73a13 13 0 0 1-.1 2.93c.22.12.63-.17.63-2.24 0-2.59-.05-3.1-.53-3.2Zm-10.58 0-.2 1.47c-.15-.1-.47-.4-.47-.77 0-.38.44-.62.67-.7Zm-.67-1.03c.03-.14.28-.43 1-.43.9 0 1.24 0 .9.21-.16.11-.32.06-.5 0-.17-.05-.35-.1-.54 0-.38.22-.53.22-.86.22Zm.86 0c-.32.06-.88.23-.57.47.3.25.5-.21.57-.47Zm10.4 7.94c-.23.13-.62.63-.39 1.6.23.97.13 1.38.05 1.47l.33-.35v-1.12c0-.2.04-.4.08-.62.07-.41.15-.8-.08-.98Zm-3.77-9.45v1.38c.38.12 1.14.32 1.14.22 0-.05-.05-.12-.11-.2-.1-.14-.22-.3-.13-.4.15-.18.62-.27.86-.18.1.03.22.14.34.24.19.15.37.3.42.2.07-.12.15-.48.23-.81l.1-.45.09-.24c.12-.34.28-.77.01-1.01-.33-.3-1-.26-1.47.43-.42.14-1.3.5-1.48.82Z" fill="#195321"/><path d="M17 36.91h-3.57c.97.6 2.94 2 3.05 2.72.15.91-1.86 3.5-1.9 4.06-.05.56.1.78 2.76 2.16 2.67 1.38 4.9 1.12 5.33.95.34-.14.36-.86.33-1.64.35.06 3.19.4 5 .4a17 17 0 0 0 4-.4c.55.6 1.14 2.06 2.27 1.81 3.72-.82 8.1-3.1 8.1-3.97 0-.86-2.04-1.73-2.14-3.5-.07-1.41 1.81-2.63 2.77-3.06l-3.77.34-.33-1.55c-.54.7-1.6 2.25-1.48 2.94.14.86 1.86 1.2 2 2.2.12.8-.8 1.13-1.29 1.2l-.71-1.94A37.24 37.24 0 0 1 28 41.06a37.9 37.9 0 0 1-8.7-1.12l-.86 1.9c-.37.02-1.17-.1-1.43-.87-.34-.95 1.9-1.68 2-2.8.08-.9-1.08-2.02-1.67-2.46l-.33 1.2Z" fill="#195321"/></svg>