<!-- by TradingView --><svg width="56" height="56" viewBox="0 0 56 56" xmlns="http://www.w3.org/2000/svg"><path fill="#FF5000" d="M0 0h56v56H0z"/><path d="M26 18.22c-1.82-.71-2.42-1.28-3.17-3L22 13.35l4.46 4.21c-1.39-1.3-1.71-2.05-1.71-3.9v-2.04l2.42 5.51c-.75-1.72-.75-2.52 0-4.23L28 11l.83 1.89c.75 1.71.75 2.52 0 4.22l2.42-5.5v2.04c0 1.85-.32 2.59-1.7 3.9l4.45-4.2-.83 1.88c-.76 1.71-1.35 2.28-3.17 3L28 19l-2-.78Zm13 8.82 3.37-5.14.63.34-4 6.2V41h-4l.03-5.25-2.15 3.64h-.63l-4.23-7.17-4.23 7.17h-.63L21 35.73V41h-4V28.42l-4-6.24.63-.34 9.84 16.69 1.43-2.42L17 22.22V18h4v10h4.55l-.09-.1c-1.27-2.2-1.3-3.68-1.3-3.74.02-.97.43-1.9 1.15-2.58a3.88 3.88 0 0 1 2.7-1.05h.02c1 0 1.98.37 2.7 1.05.72.68 1.13 1.6 1.14 2.58v.08c0 .05-.01 1.46-1.28 3.64l-.09.12H35V17.97h4v9.07Zm-7.85-2.8v-.14a1.32 1.32 0 0 0-.45-.9 1.41 1.41 0 0 0-1.9.05c-.26.24-.4.57-.41.91 0 0 .04 1.09 1.46 3.58l.1-.18c1.18-2.04 1.2-3.31 1.2-3.32Zm-9.3 5.32 3.46 5.85 2.3-3.9-1.16-1.95h-4.6Zm4.73-1.17 5.98 10.13 1.42-2.4-3.67-6.22-.57-.96c-2.05-3.3-2.07-4.72-2.07-4.78 0-.53.23-1.04.62-1.4.4-.38.92-.58 1.47-.57.23 0 .46.03.68.1a3.14 3.14 0 0 0-2.41-1.08H28c-.82 0-1.6.3-2.2.85-.58.55-.91 1.3-.92 2.1.12 1.2.53 2.37 1.2 3.4l.5.83Zm4.36 1.17 3.46 5.86.6-1.07v-4.8h-4.06v.01Z" fill="#fff"/></svg>