<!-- by TradingView --><svg width="56" height="56" viewBox="0 0 56 56" xmlns="http://www.w3.org/2000/svg"><path fill="#F0F3FA" d="M0 0h56v56H0z"/><path d="M35 21.42 37.77 24s.93-.56 2.61-.56c1.65 0 3.28.8 4.03 1.6.75.81 1.26.96 1.8.96.53 0 2.32-.7 3.79-.7 0 0-1.16-2.3-2.82-2.3-1.65 0-2.75.98-4.33.54-1.24-.34-3.2-2.44-5.7-2.54-.68-.02-1.4.1-2.15.42Z" fill="#E40918"/><path d="m12 26-2.97 5H7v-2.5L5.74 31H4v-5h2v2.5L7.21 26h1.36v3.02L10.45 26H12ZM12.5 26H14l-1.5 5H11l1.5-5ZM14.52 26h1.6l1.37 3 .9-3H20l-1.5 5h-1.6l-1.4-3-.87 3H13l1.52-5Z" fill="#002A5F"/><path d="M21.91 27H18.5l.27-1H25l-.3 1h-1.17l-1.17 4h-1.62l1.17-4ZM25.38 26H29l-.3 1h-2.06l-.31 1h2.1l-.29 1h-2.06l-.29 1h2.07l-.26 1H24l1.38-5ZM30.56 29h-.24l-.65 2H28l1.54-5h2.69c.5 0 1.96.08 1.75.98 0 1.02-.85 1.68-1.72 1.83l.99 2.19h-1.83l-.86-2Zm0-.85h.52c.5 0 1.1-.2 1.1-.83 0-.37-.5-.34-.76-.34h-.52l-.34 1.17ZM35.4 26H37l.37 2.92L39.4 26H41l-1.4 5h-1.3l.84-3.01L37.12 31h-.65l-.35-3.01-.84 3.01H34l1.4-5ZM44.3 30h-2l-.65 1H40l3.23-5h.45c.84.75 1.5 1.12 2.1 1.28L46 31h-1.65l-.05-1Zm-.02-1-.08-2.13h-.03L42.9 29h1.38ZM48.57 28.73h-.23L47.61 31H46l1.29-4.06c1.1-.25 2.82-.74 4.5-.94.17.21.21.37.21.64-.2 1.02-.71 1.77-1.76 1.97l.85 2.39h-1.76l-.76-2.27Zm.05-.86h.5c.53 0 1.14-.24 1.14-.88 0-.38-.47-.37-.73-.37h-.5l-.4 1.25Z" fill="#002A5F"/></svg>