<!-- by TradingView --><svg width="56" height="56" viewBox="0 0 56 56" fill="none" xmlns="http://www.w3.org/2000/svg">
<rect width="56" height="56" fill="#F0F3FA"/>
<path fill-rule="evenodd" clip-rule="evenodd" d="M34.8886 11.0976C34.906 10.9675 35.094 10.9675 35.1114 11.0976L35.6856 15.3984L37.0178 11.2693C37.0581 11.1444 37.2431 11.178 37.237 11.3092L37.0348 15.6435L39.0822 11.8189C39.1441 11.7032 39.3201 11.7693 39.2907 11.8973L38.3187 16.1258L41.0153 12.7286C41.0969 12.6258 41.2583 12.7223 41.2065 12.843L39.4958 16.8298L42.7551 13.9692C42.8537 13.8826 42.9953 14.0065 42.9229 14.1159L40.5285 17.7329L44.2457 15.5008C44.3581 15.4333 44.4754 15.5804 44.3846 15.6752L41.3834 18.8061L45.4391 17.2742C45.5618 17.2279 45.6509 17.3936 45.5446 17.4706L42.0332 20.0148L46.2969 19.2325C46.4259 19.2088 46.484 19.3878 46.3658 19.4445L42.457 21.3203L46.7917 21.3126C46.9228 21.3123 46.9481 21.4988 46.8216 21.5335L42.641 22.6805L46.9075 23.4476C47.0366 23.4709 47.0281 23.6589 46.8975 23.6704L42.5795 24.0517L46.6405 25.5691C46.7634 25.615 46.7216 25.7985 46.591 25.7865L42.2744 25.3899L45.9995 27.6088C46.1122 27.6759 46.0383 27.849 45.9119 27.8138L41.7354 26.6521L45.0049 29.5011C45.1038 29.5873 45.0002 29.7444 44.8821 29.6872L40.98 27.7976L43.6887 31.1852C43.7706 31.2877 43.6407 31.4238 43.5347 31.3464L40.0324 28.7898L42.0933 32.6071C42.1556 32.7225 42.0035 32.8332 41.913 32.7381L38.923 29.5966L40.2699 33.7209C40.3106 33.8456 40.1412 33.9273 40.0691 33.8176L37.6876 30.1921L38.2771 34.4909C38.2949 34.6209 38.1136 34.671 38.0623 34.5502L36.3657 30.5573L36.1789 34.8923C36.1733 35.0235 35.986 35.0403 35.9571 34.9123L35 30.6803L34.0429 34.9123C34.014 35.0403 33.8267 35.0235 33.8211 34.8923L33.6343 30.5573L31.9377 34.5502C31.8864 34.671 31.7051 34.6209 31.7229 34.4909L32.3124 30.1921L29.9309 33.8176C29.8588 33.9273 29.6894 33.8456 29.7301 33.7209L31.077 29.5966L28.087 32.7381C27.9965 32.8332 27.8444 32.7225 27.9067 32.6071L29.9676 28.7898L26.4652 31.3464C26.3593 31.4238 26.2293 31.2877 26.3113 31.1852L29.02 27.7976L25.1179 29.6872C24.9998 29.7444 24.8962 29.5873 24.9951 29.5011L27.9322 26.9417C28.0376 26.8713 28.1332 26.7853 28.224 26.6874L28.2646 26.6521L28.2534 26.6552C28.3948 26.4973 28.5257 26.3112 28.6655 26.1126C28.8355 25.871 29.0187 25.6106 29.25 25.3594C29.25 25.3594 28.7008 25.2983 28.4375 25.4375C28.2328 25.5457 28.0914 25.7009 27.952 25.854C27.7928 26.0288 27.6361 26.2008 27.3906 26.2969C27.1304 26.3987 26.9265 26.3566 26.7168 26.3133C26.5707 26.2832 26.4219 26.2524 26.2492 26.2693L27.7256 25.3899L23.409 25.7865C23.2784 25.7985 23.2366 25.615 23.3595 25.5691L27.4205 24.0517L23.1025 23.6704C22.9719 23.6589 22.9634 23.4709 23.0925 23.4476L27.359 22.6805L23.1784 21.5335C23.0519 21.4988 23.0772 21.3123 23.2083 21.3126L27.543 21.3203L23.6342 19.4445C23.516 19.3878 23.5741 19.2088 23.7031 19.2325L27.9668 20.0148L24.4554 17.4706C24.3491 17.3936 24.4382 17.2279 24.5609 17.2742L28.6166 18.8061L25.6154 15.6752C25.5246 15.5804 25.6419 15.4333 25.7543 15.5008L29.4715 17.7329L27.0771 14.1159C27.0047 14.0065 27.1463 13.8826 27.2449 13.9692L30.5042 16.8298L28.7934 12.843C28.7417 12.7223 28.9031 12.6258 28.9847 12.7286L31.6813 16.1258L30.7093 11.8973C30.6799 11.7693 30.8559 11.7032 30.9178 11.8189L32.9652 15.6435L32.763 11.3092C32.7569 11.178 32.9419 11.1444 32.9822 11.2693L34.3144 15.3984L34.8886 11.0976ZM25.3717 27.1079C25.7092 27.1261 26.0954 27.1469 26.4654 27.1525L24.0881 27.8138C23.9617 27.849 23.8878 27.6759 24.0005 27.6088L24.882 27.0838C25.0246 27.0893 25.1911 27.0982 25.3715 27.1079L25.3715 27.1079L25.3717 27.1079ZM29.2957 25.1094C29.2957 25.1094 29.7047 24.6189 30.0359 24.412C30.2104 24.3029 30.3958 24.2817 30.5728 24.2615C30.8017 24.2353 31.0167 24.2107 31.1761 23.9995C31.4831 23.5928 31.1761 22.7031 31.1761 22.7031C31.1761 22.7031 31.1887 23.2279 30.9062 23.5469C30.7499 23.7235 30.5688 23.762 30.3812 23.802C30.2187 23.8366 30.0512 23.8722 29.8906 23.9995C29.5445 24.2738 29.2957 25.1094 29.2957 25.1094Z" fill="#FE1415"/>
<path fill-rule="evenodd" clip-rule="evenodd" d="M12.3001 33.2453C11.9237 33.3586 11.3723 33.6386 11.3723 33.6386L10 30.1382C10.8438 37.2945 17.5189 44 25.8365 44C33.1558 44 37 40.8752 37 40.8752C37 40.8752 32.0998 42.3075 30.7368 42.3075C30.0275 42.3075 29.1934 41.4457 29.1934 41.4457L28.4396 38.8696C28.4396 38.8696 27.5073 37.5758 27.2606 36.6081C27.17 36.253 27.199 35.9485 27.2272 35.6519C27.2606 35.3012 27.2929 34.9617 27.1253 34.5629C26.9541 34.1555 26.6154 33.6189 26.6154 33.6189V28.6633C26.6154 28.6633 27.8956 27.9159 28.5749 27.1884C28.7406 27.0109 28.8405 26.8352 28.9372 26.6653L28.9372 26.6653C29.0612 26.4471 29.1798 26.2385 29.4254 26.0478C29.5902 25.9198 29.748 25.8673 29.9054 25.815C30.0658 25.7617 30.2256 25.7085 30.3918 25.5758C30.6351 25.3816 30.7462 25.2292 30.923 24.9868L30.9524 24.9465C31.2485 24.5412 31.5515 23.806 31.5515 23.806C31.5515 23.806 32.5331 23.7805 33.1558 23.8503C33.3618 23.8734 33.6111 23.963 33.8424 24.0462C34.0733 24.1292 34.2863 24.2058 34.4202 24.2031C34.4759 24.2035 34.5179 24.1906 34.5418 24.1596C34.718 23.9298 34.2288 23.705 33.7836 23.5003C33.4478 23.346 33.137 23.2031 33.1558 23.0783C33.1759 22.9458 33.5445 22.9969 33.94 23.0517C34.4103 23.1169 34.9185 23.1874 34.9231 22.9603C34.9287 22.6763 34.7087 22.6594 34.3097 22.6286C34.184 22.619 34.0405 22.6079 33.8807 22.5867C33.2138 22.4982 33.2297 22.2712 33.5231 22.1737C33.5706 22.1579 33.641 22.1377 33.7253 22.1134C34.161 21.9879 34.9682 21.7555 34.9147 21.4805C34.8544 21.1702 34.4289 21.3388 34.0109 21.5044C33.606 21.6649 33.2081 21.8225 33.1558 21.5395C33.1391 21.449 33.3008 21.3232 33.3008 21.3232C33.3008 21.3232 34.4523 20.7994 34.2189 20.4432C34.0599 20.2005 33.4368 20.6183 32.8841 20.9889C32.5191 21.2336 32.1848 21.4577 32.0349 21.4577C31.6579 21.4577 31.5515 21.3984 31.5515 21.1397C31.5515 21.0294 31.5654 20.9089 31.5791 20.7893C31.6203 20.4295 31.6606 20.0786 31.3196 20.0417C31.0349 20.0965 31.0037 20.3707 30.9696 20.6707C30.9515 20.8293 30.9327 20.9952 30.875 21.1397C30.8221 21.2723 30.7564 21.3501 30.6935 21.4246C30.619 21.5129 30.5485 21.5964 30.5078 21.7608C30.4304 22.0735 30.5078 22.5867 30.5078 22.5867C30.5078 22.5867 29.5709 22.8035 29.1548 23.216C29.0045 23.3649 28.944 23.532 28.8846 23.6962C28.8193 23.8765 28.7553 24.0535 28.5749 24.1993C28.3945 24.3451 28.2215 24.3812 28.0385 24.4194C27.903 24.4477 27.762 24.4772 27.6085 24.5532C27.4206 24.6463 27.2894 24.7605 27.162 24.8713C27.0036 25.0092 26.8512 25.1418 26.6034 25.2219C26.2799 25.3263 26.1465 25.3082 25.9524 25.2819C25.8443 25.2673 25.7174 25.2501 25.5282 25.2501C25.2361 25.2501 24.9732 25.4146 24.7124 25.5777C24.4246 25.7578 24.1394 25.9362 23.82 25.8905C23.2457 25.8082 22.6603 24.9465 22.6603 24.9465L23.3562 24.5532L23.0944 23.6713C23.2779 23.4259 23.5005 22.9138 23.5 22.5867C23.4999 22.4859 23.469 22.3892 23.4358 22.2851C23.4007 22.1754 23.3631 22.0575 23.3562 21.9181C23.3421 21.6368 23.3831 21.4283 23.4248 21.2156C23.4621 21.0256 23.5 20.8323 23.5 20.5808C23.5 19.6511 22.3809 19 21.4717 19.0001C21.2722 18.9989 21.0793 19.0275 20.8758 19.0577C20.6533 19.0907 20.4182 19.1256 20.1476 19.1256C19.9879 19.1256 19.8477 19.0907 19.7151 19.0577C19.5942 19.0276 19.4797 18.9991 19.3624 19C18.963 19.0031 18.7886 19.2732 18.6079 19.5531C18.5057 19.7114 18.4015 19.8729 18.2534 19.9909C18.0046 20.1891 17.6712 20.3356 17.3981 20.4556C17.1863 20.5487 17.0108 20.6258 16.939 20.6988C16.824 20.8158 16.9214 20.8963 17.0365 20.9914C17.1418 21.0784 17.2618 21.1776 17.2483 21.3281C17.2369 21.454 17.163 21.5351 17.0903 21.6149C17.0128 21.6999 16.9367 21.7834 16.939 21.9181C16.9425 22.1194 17.0779 22.211 17.225 22.3105C17.3323 22.3831 17.4458 22.46 17.5189 22.5867C17.6547 22.8224 17.6676 23.0424 17.6805 23.2639C17.6929 23.4773 17.7055 23.6922 17.8281 23.9239C17.9748 24.201 18.1583 24.3525 18.351 24.5117C18.4976 24.6327 18.6495 24.7581 18.7946 24.9465C18.8405 25.0061 18.8838 25.0606 18.9244 25.1117C19.1948 25.4519 19.3462 25.6422 19.3462 26.1941C19.3462 26.5761 19.122 26.6728 18.8316 26.7982C18.7109 26.8503 18.5788 26.9073 18.4467 26.9917C18.1838 27.1596 17.9439 27.2608 17.7141 27.3577L17.7141 27.3577C17.3835 27.4971 17.0737 27.6277 16.7457 27.9357C16.2794 28.3736 16.1565 28.8735 16.0297 29.389C15.9203 29.8337 15.808 30.29 15.47 30.7281C15.2817 30.9722 15.0982 31.1312 14.9154 31.2895C14.7272 31.4526 14.5399 31.6149 14.349 31.8687C14.2163 32.0452 14.1494 32.2264 14.0856 32.3994C13.9952 32.6448 13.9108 32.8737 13.6531 33.0487C13.3986 33.2216 13.1593 33.2101 12.905 33.198C12.7159 33.189 12.5184 33.1796 12.3001 33.2453ZM14.4842 36.2734C14.1055 36.5567 13.6144 36.8044 13.6144 36.8044C14.4842 38.1409 15.2247 38.9477 16.8614 40.0882C16.8614 40.0882 18.1417 39.4652 18.8907 38.9477C19.7854 38.3296 20.9974 37.119 20.9974 37.119C20.9974 37.119 20.7054 36.7015 20.6302 36.3914C20.5776 36.175 20.6284 35.9985 20.679 35.8223C20.73 35.6451 20.7809 35.4682 20.7268 35.2509C20.6817 35.0696 20.6307 34.9695 20.5503 34.8119L20.5335 34.779C20.332 34.3828 20.0477 34.1884 19.752 33.9862C19.5112 33.8214 19.2627 33.6516 19.0454 33.3632C18.779 33.0099 18.4462 32.3997 18.4462 32.3997C18.4462 32.3997 17.5876 33.6918 16.8614 34.3464C16.5898 34.5912 16.3512 34.7414 16.1091 34.8938L16.1091 34.8938C15.8887 35.0326 15.6655 35.1732 15.4119 35.3886C15.2413 35.5334 15.1178 35.6658 14.9976 35.7947C14.8489 35.9541 14.7053 36.108 14.4842 36.2734ZM24.5385 26.2918C24.5385 26.2918 25.1687 25.8554 25.6175 25.7419C25.8595 25.6807 26.0644 25.7197 26.2652 25.7579C26.4899 25.8006 26.7095 25.8424 26.9704 25.7419C27.214 25.648 27.3474 25.4865 27.4839 25.3213C27.6057 25.1739 27.7298 25.0237 27.9367 24.916C28.2003 24.7789 28.6923 24.6604 28.6923 24.6604C28.392 25.3478 27.4922 26.2918 26.9704 26.2918H24.5385ZM29.8443 23.5103C29.5243 23.7174 29.1292 24.2084 29.1292 24.2084C29.1292 24.2084 29.3553 23.4899 29.6897 23.2153C29.8481 23.0853 30.0274 23.073 30.2022 23.0611C30.3963 23.0478 30.585 23.035 30.7334 22.8614C31.0063 22.542 30.946 21.7995 30.946 21.7995C30.946 21.7995 31.2426 22.6902 30.946 23.0973C30.792 23.3087 30.5843 23.3333 30.3631 23.3596C30.1921 23.3798 30.013 23.4011 29.8443 23.5103ZM17.4028 40.5016L21.1716 37.67L19.9154 38.9285C19.9154 38.9285 20.2174 39.4848 20.07 39.7937C19.9691 40.005 19.6408 39.9858 19.3741 39.9702C19.1437 39.9567 18.9592 39.9459 19.007 40.0886C19.0327 40.1654 19.0681 40.2428 19.1037 40.3204C19.2107 40.554 19.3184 40.7891 19.1616 41.0128C19.0705 41.1428 18.9363 41.1708 18.814 41.1964C18.7414 41.2116 18.673 41.2259 18.6203 41.26L17.4028 40.5016ZM28.0722 39.9312C27.8845 39.2811 27.3958 38.3384 27.3958 38.3384C27.3958 38.3384 27.2297 40.131 27.7437 41.0717C28.1509 41.8169 29.2898 42.5858 29.2898 42.5858C29.2898 42.5858 28.5447 41.7373 28.3042 41.0717C28.2203 40.8396 28.1963 40.6518 28.1716 40.4586V40.4586C28.1509 40.2964 28.1298 40.1304 28.0722 39.9312ZM19.1038 31.7902C19.1038 31.7902 19.562 32.5721 19.9542 32.9897C20.1747 33.2246 20.4153 33.3476 20.6483 33.4666C20.9352 33.6133 21.2107 33.7541 21.423 34.0909C21.6566 34.4614 21.6486 34.8795 21.6407 35.2921C21.6321 35.7404 21.6237 36.1822 21.9255 36.5489C22.3812 37.1024 23.3171 37.1781 23.3171 37.1781C23.3171 37.1781 22.5999 37.2761 22.1574 37.1781L22.0849 37.1622C21.778 37.0951 21.6882 37.0754 21.423 36.8438C21.07 36.5355 21.1289 36.1203 21.191 35.6823C21.2431 35.3153 21.2974 34.9323 21.1138 34.5825C20.9423 34.2558 20.7053 34.093 20.4608 33.925C20.2533 33.7825 20.0404 33.6362 19.8575 33.383C19.4557 32.8267 19.1038 31.7902 19.1038 31.7902ZM22.7762 30.8851C21.7687 29.5441 20.7082 27.1097 20.7082 27.1097C20.7082 27.1097 21.3844 29.8244 22.4089 31.2194C23.5692 32.7992 26.3517 34.2869 26.3517 34.2869C26.3517 34.2869 23.937 32.4305 22.7762 30.8851ZM22.5829 32.6745C21.6062 30.9122 20.3989 27.9946 20.3989 27.9946C20.3989 27.9946 21.0214 30.5989 22.2737 32.8712C23.7674 35.5816 25.5399 37.1972 25.5399 37.1972C25.5399 37.1972 23.607 34.5223 22.5829 32.6745ZM11.6815 34.1102L11.7975 34.4051C11.7975 34.4051 12.3325 34.2013 12.6865 34.1102C12.9552 34.041 13.1988 34.0588 13.4311 34.0757C13.7597 34.0998 14.0656 34.1221 14.3873 33.8939C14.7342 33.6478 14.7998 33.3103 14.8697 32.9504C14.9227 32.6778 14.9782 32.3923 15.1604 32.1241C15.3457 31.8515 15.5548 31.6861 15.7606 31.5235C15.9896 31.3424 16.2145 31.1647 16.3973 30.846C16.5639 30.5558 16.6011 30.2883 16.6382 30.021C16.6755 29.7529 16.7128 29.4849 16.8805 29.1943C17.1512 28.7251 17.7889 28.1521 17.7889 28.1521C17.7889 28.1521 16.9805 28.5576 16.6293 28.9976C16.4118 29.2701 16.3524 29.5389 16.2914 29.8156C16.239 30.0525 16.1855 30.2953 16.0301 30.551C15.8491 30.8491 15.651 31.0319 15.4491 31.218C15.2689 31.3843 15.0857 31.5533 14.9091 31.8095C14.7419 32.0523 14.6602 32.2858 14.5813 32.5115C14.4801 32.8007 14.3835 33.077 14.1167 33.3433C13.9151 33.5446 13.5786 33.5555 13.2381 33.5667H13.2381C13.0479 33.5729 12.8564 33.5791 12.6865 33.6186C12.0887 33.7575 11.6815 34.1102 11.6815 34.1102ZM18.3498 23.7075C18.4878 24.1058 18.9876 24.5727 18.9876 24.5727C18.9876 24.5727 18.269 24.2268 18.0406 23.8058C17.924 23.591 17.9311 23.3977 17.9383 23.1973C17.9444 23.0305 17.9506 22.8587 17.886 22.6653C17.7706 22.3207 17.4608 21.8394 17.4608 21.8394L17.5574 21.5052L17.4608 21.0136C17.4608 21.0136 17.8309 21.0103 18.0406 20.9153C18.2032 20.8415 18.2784 20.7113 18.3539 20.5804C18.4278 20.4524 18.502 20.3237 18.659 20.2467C18.9072 20.125 19.3548 20.1287 19.3548 20.1287C19.3548 20.1287 18.833 20.3647 18.659 20.9153C18.5719 21.1911 18.0406 21.3085 18.0406 21.3085V21.8394C18.0406 21.8394 18.2733 22.2301 18.3498 22.508C18.41 22.7266 18.3759 22.9113 18.3422 23.0938C18.3063 23.288 18.2709 23.4798 18.3498 23.7075ZM19.3937 19.4594C19.3937 19.4594 19.8779 19.487 20.1861 19.4594C20.3801 19.442 20.5313 19.3894 20.6784 19.3382C20.8578 19.2758 21.0311 19.2155 21.2685 19.2239C21.8414 19.2441 22.6407 19.7539 22.6407 19.7539C22.6407 19.7539 21.8068 19.6022 21.2685 19.6165C21.085 19.6213 20.9369 19.659 20.7941 19.6954C20.6055 19.7435 20.426 19.7892 20.1861 19.7539C19.86 19.7058 19.3937 19.4594 19.3937 19.4594Z" fill="black"/>
</svg>
