<!-- by TradingView --><svg width="56" height="56" viewBox="0 0 56 56" xmlns="http://www.w3.org/2000/svg"><path fill="#F0F3FA" d="M0 0h56v56H0z"/><path d="M18 20.98h-7v1.52c.18 0-.23.1.64.1.88 0 1.82.7 1.64 1.07 1.28 4.11 3.94 12.67 4.38 13.96.43 1.29.18 1.97 0 2.15l-1.64 1.6 7.1.55-1.64-1.62c-.87-.85-.72-1.79-.54-2.14l2.73-8.06c1.82 2.15 5.69 6.77 6.56 8.06.88 1.29.37 1.97 0 2.14l-2.18 2.15 10.39.54-3.28-3.22c2.18-6.98 6.67-21.27 7.1-22.56.44-1.29.92-1.6 1.1-1.6H45V13h-1l-11.03 2.07v.9h3.28c.88 0 1.1.9 1.1 1.25l-5.48 18.26-7.1-9.13c.36-1.25 1.2-4.08 1.64-5.37.43-1.29 1.27-.98 1.64-.98H30v-2H19v1.4l3.03-.03c.88 0 1.1.72 1.1 1.07l-4.38 13.97c-.91-2.87-2.84-8.92-3.28-10.2-.44-1.3.18-1.21.55-1.21H18v-2.02Z" fill="#202F2C"/><path d="M16.56 20.98H10V23h.55c.87 0 1.45.4 1.64 1.07a932.7 932.7 0 0 0 4.37 13.56c.44 1.29.18 1.97 0 2.15l-1.64 1.6 7.11.55-1.64-1.62c-.87-.85-.73-1.79-.55-2.14l2.74-8.06c1.82 2.15 5.69 6.77 6.56 8.06.88 1.29.37 1.97 0 2.14l-2.19 2.15 10.4.54-3.29-3.22c2.19-6.98 6.67-21.27 7.11-22.56.44-1.29.91-1.6 1.1-1.6H44l.05-2.62-11.08 1.5V16h2.19c.87 0 1.09.86 1.09 1.22l-5.47 18.26-7.1-9.13c.36-1.25 1.2-4.08 1.63-5.37.44-1.29 1.33-.98 1.69-.98h2.04l-.05-2H19v2h1.94c.87 0 1.1.09 1.1.44l-4.38 13.97a1215 1215 0 0 0-3.29-10.2c-.43-1.3.19-1.21.55-1.21h1.64v-2.02Z" fill="#8B1825"/></svg>