<!-- by TradingView --><svg xmlns="http://www.w3.org/2000/svg" width="56" height="56" viewBox="0 0 56 56"><path fill="#F0F3FA" d="M0 0h56v56H0z"/><path d="M44.4 29.07c0-2.22-1.79-5.9-2.68-7.46h.91l1.14-1.4-3.06-1.16-2.45 1.17L33 29.8c-1.96-5.78-5.43-8.27-6.92-8.79-.73.54-2.27 1.67-2.62 1.89-.35.21-1.49 2.42-2.01 3.5l4.63 6.99 10 8.57h4.08c-2.53-.95-3.21-3.69-3.23-4.94 2.48-1.73 7.45-5.74 7.45-7.96Z" fill="#F6DBCC"/><path d="M43.7 24.16c-1.23-.44-2.21-2.56-2.55-3.57.16.44 1.11.54 1.57.53l.4-1.12h-4.78l.8-1.6a6.2 6.2 0 0 1 3.58-.92c2.43 0 2.72 3.32 1.8 3.11a1.17 1.17 0 0 0-1.31.64c.67 1.16 1.72 3.37.49 2.93Z" fill="#FC063F"/><path fill-rule="evenodd" d="M27.16 20.85a15.9 15.9 0 0 1 6.08 8.8l3.41-2.56c.5.59 1.9 1.76 3.45 1.76 1.55 0 3.2-1.38 3.89-2.1l.24.98-2.76 1.92c-.37 1.1-1.55 3.33-3.25 3.33h-3.64l-.81 2.94 3.17 1.04c.17 1.66 1.12 4.98 3.51 4.98H34.9l-5.6-4.19-7.56-12.32 1.06-3.93 4.36-.65Zm8.79 8.1c.74.19 2.92.74 4.08.8h.81c-.4.9-1.67 2.7-3.59 2.7a8.98 8.98 0 0 1-3.41-.5l1.86-3.06.25.06Z" fill="#E1C3B0"/><path d="M28.86 22.39c-6.04-7.55-16.16-6.14-20.47-4.5 4.79-.3 9.02.75 10.54 1.32-5.2-.5-10.12 2.93-11.93 4.71 7.37-2.27 12.35-1.78 13.93-1.25-7.02.23-9.77 5.14-10.27 7.56 3.9-5.86 12.36-5.1 16.1-3.98a7.76 7.76 0 0 0-3.62-2.72c1.91.09 4.6.94 5.72 1.36l-2.1-2.22 2.1-.28Z" fill="#16884B"/><path d="m11.5 22.96-1.9-1.42 6.17-.29-2.06 1.7 3.44 10.98 3.94-13.64-1.83-1.48 9.54-.46-4 1.94-1.49 5.57 7.55 8.64 5.27-17.85-3.39-1.25 12.2-.4-3.32 1.65-8.27 21.83 3.5 3.52-10.27-.85 3.06-2.67-7.33-9.21-3.05 9.2 1.83 2.22h-7.38l2.39-2.21-4.6-15.52Z" fill="#3C2624"/><path d="m10.83 22.96-1.89-1.42 6.16-.29-2.05 1.7 3.44 10.98 3.94-13.64-1.83-1.48 9.54-.46-4 1.94-1.5 5.57 7.55 8.64 5.27-17.85-3.38-1.25 12.2-.4-3.33 1.65-8.26 21.83 3.5 3.52-10.27-.85 3.05-2.67-7.32-9.21-3.05 9.2 1.83 2.22h-7.38l2.38-2.21-4.6-15.52Z" fill="#E5202D"/></svg>