<!-- by TradingView --><svg width="56" height="56" viewBox="0 0 56 56" xmlns="http://www.w3.org/2000/svg"><path fill="#F0F3FA" d="M0 0h56v56H0z"/><path d="M28 17.74c11.04 0 20 4.56 20 10.27 0 5.7-8.96 10.27-20 10.27S8 33.72 8 28.01c0-5.7 8.96-10.27 20-10.27Z" fill="#D8D8D8"/><path d="M28 17c5.71 0 10.94 1.17 14.71 3.11C46.58 22.06 49 24.9 49 28c0 3.12-2.42 5.84-6.29 7.88C38.94 37.84 33.71 39 28 39c-5.71 0-10.94-1.17-14.71-3.12C9.42 33.95 7 31.13 7 28c0-3.11 2.42-5.84 6.29-7.89C17.06 18.17 22.19 17 28 17Zm14.23 4c-3.68-1.86-8.71-3.03-14.23-3.03-5.61 0-10.65 1.17-14.23 3.02s-5.7 4.28-5.7 7.01c0 2.73 2.22 5.16 5.7 7 3.68 1.86 8.71 3.03 14.23 3.03 5.61 0 10.65-1.17 14.23-3.02s5.7-4.28 5.7-7.01c0-2.73-2.12-5.16-5.7-7Z" fill="#3BA5BC"/><path d="M21.88 20.8c-.2 0-1.27-.1-2.44 1.1-1.37 1.3-8.8 9.1-9.3 11.8-.1.54-.14.99-.14 1.36 0 1.49.74 1.77 1.9 1.7 1.47-.1 2.68.15 10.6-7 0 0-.46 2-.5 3.8-.03 1.48.4 3.2 2.13 3.2 3.81 0 7.24-4.27 8.51-5.39 1.27-1.11 10.47-9.18 13.7-10.3 1.17-.37 1.66-.92 1.66-1.3 0-.58-.8-1-1.66-1-.23 0-.46.02-.69.08-1.66.46-5.96 2.97-9.88 6.3-4 3.35-9.16 7.34-10.53 7.62 0 0-.23 0-.24-.39 0-.61.31-.92.9-2.03 1.17-2.41 2.73-5.59.68-5.59-1.96 0-7.04 4.1-9.3 5.96-2.24 1.77-3.09 3.05-3.77 3.05-.29 0-.49-.16-.51-.45 0-.55.34-1.08 1.25-1.95 1.57-1.48 5.97-6.68 7.73-8.26 1.66-1.57 1.76-2.4-.1-2.31Z" fill="#7ABDEA"/><path d="M21.88 20.03c-.2 0-1.27-.1-2.44 1.11-1.37 1.3-8.8 9.1-9.3 11.79-.1.54-.14 1-.14 1.37 0 1.48.74 1.76 1.9 1.69 1.47-.1 2.68.15 10.6-6.99 0 0-.46 2-.5 3.8-.03 1.47.4 3.2 2.13 3.2 3.81 0 7.24-4.28 8.51-5.4 1.27-1.1 10.47-9.18 13.7-10.3C47.5 19.95 48 19.39 48 19c0-.58-.8-1-1.66-1-.23 0-.46.02-.69.08-1.66.47-5.96 2.97-9.88 6.31-4 3.34-9.16 7.33-10.53 7.61 0 0-.23 0-.24-.39 0-.61.31-.92.9-2.02 1.17-2.42 2.73-5.59.68-5.59-1.96 0-7.04 4.1-9.3 5.96C15.05 31.72 14.2 33 13.52 33c-.29 0-.49-.16-.51-.45 0-.55.34-1.07 1.25-1.94 1.57-1.49 5.97-6.68 7.73-8.26 1.66-1.58 1.76-2.41-.1-2.32Z" fill="#002360"/></svg>