<!-- by TradingView --><svg xmlns="http://www.w3.org/2000/svg" width="56" height="56" viewBox="0 0 56 56"><path fill="#F0F3FA" d="M0 0h56v56H0z"/><path d="M16.44 18.1c-1.01.14-1.96.42-2.36 2.14.66-.13 2.38-.42 3.86-.42.43 0 .81.03 1.14.08-.5-.63-1.56-1.8-2.5-1.8h-.14ZM12.94 26.3c.4.52 1.37.64 2.1.64h.01c.39 0 .76-.03 1.03-.06-1.34-.99-2.81-3.05-3.3-3.75-.93 1.5-.46 2.35.16 3.16ZM26.66 12.67a2.7 2.7 0 0 0-1.62-.67c-.48 0-1 .17-1.57.52.71.48 2.8 1.95 3.78 3.27.1-.84.19-2.53-.59-3.12ZM22.55 14.37c-.86 5.16.95 7.2 1.48 7.67 1.01-1.48 1.37-2.91 1.06-4.26-.41-1.83-1.95-3.01-2.54-3.41ZM18.43 16.13c-.12.89 1.04 2.01 1.81 2.62-.24-1.63.18-4.13.34-4.97-1.73.4-2 1.34-2.15 2.35ZM26.47 22.32c0 1.5.53 2.92 1.53 4.1a6.31 6.31 0 0 0 0-8.22 6.3 6.3 0 0 0-1.53 4.12ZM14.65 22.26c.46.68 2 2.63 4.4 2.63 1.06 0 2.19-.39 3.33-1.15-.4-.44-1.83-1.7-5.14-1.7-.8 0-1.68.07-2.6.22ZM35.41 13.78c.17.84.6 3.33.35 4.96.67-.52 1.94-1.66 1.8-2.61-.14-1-.41-1.94-2.15-2.35ZM39.56 18.1c-.98-.13-2.11 1.13-2.64 1.8.33-.05.71-.08 1.14-.08 1.48 0 3.2.3 3.86.42-.4-1.72-1.35-2-2.36-2.14ZM33.62 23.74a6.05 6.05 0 0 0 3.34 1.15c2.4 0 3.93-1.95 4.4-2.63-.92-.15-1.8-.22-2.6-.22-3.32 0-4.75 1.26-5.14 1.7ZM32.53 12.52a3.03 3.03 0 0 0-1.57-.52 2.7 2.7 0 0 0-1.62.67c-.78.59-.7 2.28-.6 3.12 1-1.32 3.08-2.79 3.79-3.27ZM30.9 17.78c-.3 1.35.06 2.78 1.07 4.26.53-.48 2.33-2.53 1.48-7.67-.59.4-2.13 1.58-2.54 3.4ZM43.06 26.3c.62-.82 1.1-1.67.15-3.17-.48.7-1.95 2.76-3.29 3.74.28.04.64.07 1.03.07.74 0 1.7-.12 2.11-.65ZM40.06 29l-.07.51a12.54 12.54 0 0 1-5.66 9.03l.59 1.01A14.05 14.05 0 0 0 41.03 30h1.7C41.9 35.61 38.1 40.47 33 42.39v-5.06c2.5-1.44 4.46-3.45 5.17-6.33H37c-.7 2.55-2.4 4.23-4.7 5.45l-.3.16V44l.73-.23c6.1-1.93 10.5-7.47 11.2-14.11L44 29h-3.94ZM18.93 31H17.9c.72 2.9 2.55 4.86 5.09 6.3v5.3A15.6 15.6 0 0 1 13.1 30H15a13.84 13.84 0 0 0 6.17 9.53l.51-.87a12.8 12.8 0 0 1-5.77-9.21l-.06-.45H12l.06.57c.7 6.7 5.14 12.28 11.3 14.23l.64.2v-7.32l-.27-.14c-2.34-1.25-4.09-2.93-4.8-5.54Z" fill="#92A352"/><path d="M38 27.53a6.26 6.26 0 0 0-8.18 0c-.5.4-.82 1.07-.82 1.84V44h1V29.37c0-.5.32-.9.73-.9h.52c.84.39 1.74.53 2.66.53 1.5 0 2.9-.46 4.09-1.47ZM18 27.53a6.26 6.26 0 0 1 8.18 0c.5.4.82 1.07.82 1.84V44h-1V29.37c0-.5-.32-.9-.73-.9h-.52c-.84.39-1.74.53-2.66.53-1.5 0-2.9-.46-4.09-1.47Z" fill="#92A352"/></svg>