<!-- by TradingView --><svg width="56" height="56" viewBox="0 0 56 56" xmlns="http://www.w3.org/2000/svg"><path fill="#F0F3FA" d="M0 0h56v56H0z"/><path d="M32.5 25.5c-1.6 0-2.67 1.33-3 2A6.2 6.2 0 0 0 27 27c-1.2 0-2.17 1.67-2.5 2.5-.8-.4-2.67-.5-3.5-.5-4.8 0-6 4-6 6v2.5c-.4.8-.83 1.33-1 1.5 0 1.2.33 2.5.5 3 1.2.4 1.83.17 2 0 0-2.8 3.33-3.83 5-4v3c.8.4 2.5.17 3 0 0-.83-.4-2.6 0-3 .4-.4.83.17 1 .5-.8.8-1 4-1 5.5 0 .33.3 1 1.5 1s1.83-.67 2-1c0-2 1.17-4.5 2-5.5 2 .8 2.17 3.33 2 4.5 0 .33.3 1 1.5 1s1.5-.67 1.5-1v-1c0-2-1-3.5-1.5-4s-1.5-2.5-.5-3.5 1-1 1.5-2.5 1.5-1 2-1 .5 0 0-1c-.4-.8-.17-1 0-1 3.2-.4 5.17-3.5 5.5-5-2 2-3.67 2.5-4 2.5.17-.5.5-1.8.5-3 0-1.5-3-2.31-3.5-3.5-.4-.95.5-1.06 1-1 0-1.2-1-1.83-1.5-2-.5.67-1.4 2.4-1 4 .5 2 3 3.5 2 4.5s-1 0-3 0Z" fill="#D0AD54"/><path d="M32 15c0 1.6-1.67 2.67-2.5 3 1-2 0-5.5 1-5.5S32 13 32 15Z" fill="#EC1D24"/><path d="M26.9 11.35c1.54.55 2.04 2.66 2.1 3.65-1.61-1.73-5.3-1.89-4.98-2.93.32-1.05.95-1.4 2.88-.72Z" fill="#5ABE3C"/><path d="M23.02 14.98c1.04-1.27 3.09-1.04 3.98-.77-2.12.94-3.6 4.35-4.41 3.71-.81-.64-.89-1.36.43-2.94Z" fill="#2650A9"/><path d="M26.24 20.07c-.72-1.55.37-3.36 1.01-4.07-.04 2.4 2.48 5.34 1.54 5.8-.95.46-1.65.21-2.55-1.73Z" fill="#39393A"/><path d="m23 32-2 1c0-.17-.2-1-1-1-1 0-1.5 1.5-1.5 2s0 1 1 1h1l.5-1.5h2L22 37h-3c-2.5 0-3-2-3-3s1.5-4 4.5-4c2.4 0 2.67 1.33 2.5 2ZM27 30h-2c-.5 2.5-.6 3.2-1 4-.4.8-.83 1-1 1l-.5 2c.83 0 2.6-.2 3-1 .4-.8 1.17-4.33 1.5-6ZM33 30h-5c-.33 1.17-1.1 3.8-1.5 5-.4 1.2 1 2 1.5 2h3l.5-2h-2c-.4 0-.5-.33-.5-.5h2l.5-1.5H29v-.5h3.5L33 30Z" fill="#F0D89C"/></svg>