<!-- by TradingView --><svg width="56" height="56" viewBox="0 0 56 56" xmlns="http://www.w3.org/2000/svg"><path fill="#F0F3FA" d="M0 0h56v56H0z"/><path fill-rule="evenodd" d="M30.36 29.89c.07-.3.33-.89 1.23-.89 1.13 0 .96 1.04.83 1.56-.1.37-.27 1.15-.1 1.33V32h-.73v-.44c-.2.22-.59.44-.97.44-.26 0-.82-.28-.57-1.11.23-.75.93-.78 1.24-.78.26 0 .53-.04.53-.31 0-.2-.41-.36-.74.09h-.72Zm1.4.67c-.04.24-.17.62-.5.74-.48.2-.7-.34-.23-.52.08-.04.18-.06.28-.08.16-.03.32-.06.45-.14Z" fill="#010161"/><path d="m20.18 33 .68-4h.72l-.07.48h.03c.14-.28.4-.48.71-.48.77 0 .79.92.7 1.5-.08.6-.45 1.5-1.13 1.5a.57.57 0 0 1-.58-.46h-.02L21 33h-.82Zm1.16-2.53c-.12.8.71.82.84.01.04-.28.03-.72-.26-.72-.34 0-.54.45-.58.71ZM34.25 29.88h.73c.02-.27-.12-.88-.84-.88-.52 0-.97.21-1.13.8-.15.52.09.85.48.98.16.05.6.03.6.28 0 .17-.18.23-.31.23-.17 0-.3-.15-.31-.29h-.74c-.08.64.35.98.84 1 .56.02 1.16-.27 1.28-1 .03-.25 0-.5-.16-.68-.17-.2-.47-.23-.7-.28-.42-.1-.35-.41 0-.4.13.01.26.11.26.24Z" fill="#010161"/><path d="m9.91 36.44-3.13-6.95a1.3 1.3 0 0 1 0-1.08l.95-2.04a.71.71 0 0 1 1.3 0l2.75 6.18.92-1.9-.41-.86c-.2-.4-.2-.86-.03-1.26l.88-2.06c.05-.1.12-.2.2-.28a.73.73 0 0 1 .97 0l.24.22L17.94 19h1.23l-4 8.9 2.05 4.55L23.38 19h1.23l-7.97 17.43a.71.71 0 0 1-1.3 0l-2.02-4.4-2.11 4.42a.71.71 0 0 1-1.3-.01Z" fill="#000074"/><path d="M18.28 21.58c1.17-.14 2.4-.22 3.66-.25l.31-.68c-1.3.1-2.56.25-3.77.43l-.2.5ZM5 28.74c0-3.17 4.68-5.93 11.54-7.31l-.18.44c-6.11 1.11-10.33 3.77-10.33 6.87 0 4.1 7.58 7.41 16.94 7.41 9.36 0 16.94-3.63 16.94-7.73 0-.14 0-.28-.03-.42h8.22c.02.14.02.28.02.42 0 4.56-9.65 8.58-21.56 8.58C14.66 37 5 33.3 5 28.74Z" fill="#E9562A"/><path d="M35.8 23.47h1.44C37.28 23.01 37 22 35.6 22c-1.04 0-1.91.35-2.23 1.33-.29.86.17 1.43.94 1.63.31.09 1.19.06 1.19.47 0 .3-.36.4-.62.4-.33 0-.57-.17-.62-.4h-1.43c-.18 1.18.85 1.62 1.95 1.57 1.02-.06 2-.56 2.2-1.67.07-.42 0-.84-.3-1.14-.35-.33-.93-.38-1.39-.46-.82-.16-.69-.69 0-.65.27.01.51.18.51.39Z" fill="#000074"/><path fill-rule="evenodd" d="m28.2 27 2.47-5h1.44l.3 5h-1.33v-.42h-1.33l-.21.42h-1.33Zm2.88-3.33v1.66h-.82l.82-1.66ZM46.79 27l2.46-5h1.44l.31 5h-1.33v-.42h-1.34l-.2.42h-1.34Zm2.88-3.33v1.66h-.83l.83-1.66Z" fill="#000074"/><path d="M23.58 27v-5h1.24l-.1 3.43L26.14 22h.93v3.43L28.3 22h1.33l-2.15 5h-1.34l.1-3.13L24.92 27h-1.34ZM37.1 27l1.18-5h1.2l-.43 1.86L40.72 22h1.68l-1.89 1.95.87 3.05h-1.46l-.54-1.88-.83.87-.23 1H37.1ZM41.62 27l1.05-5h1.21l-1.06 5h-1.2ZM47.92 22h-3.64l-.26 1.25h1.2l-.8 3.75h1.22l.79-3.75h1.18l.31-1.25Z" fill="#000074"/><path d="M23.69 32h-.72l.51-3h.62l.1.32s.14-.32.45-.32c.41 0 .37.85.37 1.27h-.61c0-.14 0-.42-.2-.42-.34 0-.42 1.4-.52 2.15Z" fill="#010161"/><path fill-rule="evenodd" d="M25.78 31.93c.1.04.22.07.33.07.5.01 1.03-.37 1.3-1h-.8c-.17.24-.4.36-.59.29-.16-.07-.25-.28-.24-.54h1.71c.2-.72-.03-1.45-.58-1.68-.6-.25-1.34.2-1.65.98-.3.8-.08 1.63.52 1.88Zm1.1-1.8c-.01-.21-.1-.37-.24-.43-.21-.09-.5.1-.68.42h.93Z" fill="#010161"/><path d="M29.82 31.01c-.29.62-.8 1-1.28.99a.8.8 0 0 1-.36-.09c-.45-.23-.62-.87-.45-1.52.2-.79 1-1.7 1.78-1.29.33.17.52.57.52 1.03h-.7c-.02-.18-.13-.35-.3-.38-.31-.04-.57.35-.66.64-.1.32-.13.82.25.82.2 0 .42-.17.57-.43h.73l-.1.23ZM35.9 28.15h.68l-.17.85h.26l-.19.85h-.24l-.2 1.28a.1.1 0 0 0 .1.13h.18l-.15.74h-.48a.42.42 0 0 1-.4-.5l.28-1.65h-.26l.19-.85h.24l.17-.85Z" fill="#010161"/></svg>