<!-- by TradingView --><svg width="56" height="56" viewBox="0 0 56 56" xmlns="http://www.w3.org/2000/svg"><path fill="#F0F3FA" d="M0 0h56v56H0z"/><path d="M39.12 18.63s3.87-.02 5.57 1.77c1.71 1.8 1.68 3.69.28 5.8-1.59 2.08-3.72 3.95-3.78 4.02-.06.08-.4.03-.51-.1-.12-.14-.49-.55-.16-.8.32-.26 3.35-3.1 3.09-5-.27-1.88-.49-3.8-4.9-4.5 0 0 .04-1.2.41-1.19ZM10.15 32.81c.04.02 2.25-.67 2.25-.67s1.83-5 10.13-9.1c0 0 .47-.78-.63-.52-1.04.38-9.9 4.68-11.75 10.3ZM22.96 22.16s-.22.84.66.49c.87-.36 6.95-3.12 14.09-2.96 0 0 .08-.03.3-.44.22-.4.34-.58-.1-.58-.44 0-6.73-.64-14.95 3.49Z" fill="#C31D2D"/><path d="M33.13 15h1.91l-2.84 5.05-4.16 7.5s-.38.51.13 1.33c.54.87 2.83 5.21 2.83 5.21s.19.46.57-.23L42.27 15h1.78l-10.4 18.76-3.54 5.92s-.78.7-1.39-.12c-.6-.83-3.45-6.04-3.45-6.04s-.34-.53-.62 0c-.29.63-3.23 5.95-3.23 5.95s-1.06 1.28-1.9-.14c-.82-1.46-5.47-9.6-5.47-9.6s-.28-1.86.28-2.75c.55-.9 1.22-2.07 1.48-2.3.27-.22 1-.16 1.46.7.45.88 4.72 8.59 4.72 8.59s.24.45.66-.32c.43-.76 1.12-2.06 1.12-2.06s.35-.44.06-.92c-.3-.48-1.47-1.37-.87-2.78a20.1 20.1 0 0 1 1.84-3.11s.68-.48 1.31.34c.31.39.59 1.56.97.69.5-1.02 6.05-10.81 6.05-10.81Z" fill="#2E3892"/><path d="m10 33.58 2-.6s.24-.12.27.6c.03.72.64 2.7 3.04 3.2 2.4.51 4.98.44 6.17.35 1.26-.1 2.94-.12 2.94-.12v.68s-3.86.68-6.77.66c-2.91-.01-7.5-.1-7.65-4.77ZM39.57 30.05S35.94 34 25.3 36.75v.85s9.56-2.12 15.09-6.87l-.8-.68Z" fill="#C31D2D"/></svg>