<!-- by TradingView --><svg width="56" height="56" viewBox="0 0 56 56" xmlns="http://www.w3.org/2000/svg"><path fill="#F0F3FA" d="M0 0h56v56H0z"/><path fill-rule="evenodd" d="M20.66 23.15a26.37 26.37 0 0 0-15.32-.01c-.47.14-.8.51-.9 1a19.01 19.01 0 0 0-.11 7.54c.1.49.4.86.87 1.02 7.17 2.53 13.54.7 15.54 0 .43-.16.73-.5.85-.95.77-3 .28-6.16-.02-7.58-.1-.5-.44-.88-.91-1.02ZM21 28c0-2.76-3.58-5-8-5s-8 2.24-8 5 3.58 5 8 5 8-2.24 8-5Z" fill="#00A6E9"/><path d="M24 22h28v1H24v-1ZM24 33h28v1H24v-1Z" fill="#00A6E9"/><path fill-rule="evenodd" d="M46 28a4 4 0 1 0-8 0 4 4 0 0 0 8 0Zm-.56 0a3.45 3.45 0 1 0-6.9.01 3.45 3.45 0 0 0 6.9-.01Z" fill="#F53240"/><path fill-rule="evenodd" d="M45 28a3 3 0 1 0-6.01 0 3 3 0 0 0 6 0Zm-.53 0a2.48 2.48 0 1 0-4.96 0 2.48 2.48 0 0 0 4.96 0Z" fill="#F53240"/><path d="M5.43 26h1.34l.3 2h.25l.93-2h.54l.29 2h.26l.92-2H11l-1.61 4h-.73l-.26-2h-.35l-.79 2h-.62l-.54-3.5H5l.43-.5Z" fill="#00A6E9"/><path d="M10.3 27h2.37L12 29.5h1l1.16-3.5h.73l-.26 1h.63l.85-.99H17l-.99 1.27s.16.12.2.42c.05.3.2 1.8.2 1.8h.43l1.74-3.49h.83l.47 3.49H21l-.17.5h-1.67l-.46-2.21L17.54 30H15.7l-.42-2.23s-.13-.13-.79-.13L13.8 30H11l.81-2.5h-1.65l.15-.5Z" fill="#00A6E9"/><path d="M12.1 26h.75l-.1.6H12l.1-.6ZM17.56 29h1.7v.64h-1.7V29ZM30.5 30.5H32V32h-3v-8h3v1.5h-1.5V27H32v1.5h-1.5v2ZM37 24v1.5h-1.28V32h-1.5v-6.5H33V24h4Z" fill="#00A6E9"/><path fill-rule="evenodd" d="M24 24h2.3c.8 0 1.47.8 1.47 1.77v.4c0 .84-.58 1.53-1.28 1.53h-.2c.94 0 1.71.92 1.71 2.05v.46c0 .99-.67 1.79-1.49 1.79H24v-8Zm1.5 1h.27c.4 0 .73.45.73 1s-.33 1-.73 1h-.27v-2Zm.35 4h-.35v1.86h.35a.93.93 0 0 0 0-1.86Z" fill="#00A6E9"/><path d="M50.5 28.5V24H52v8h-1.25l-2.25-4.5V32H47v-8h1.32l2.18 4.5Z" fill="#00A6E9"/></svg>