<!-- by TradingView --><svg xmlns="http://www.w3.org/2000/svg" width="56" height="56" viewBox="0 0 56 56"><path fill="#F0F3FA" d="M0 0h56v56H0z"/><path d="M8.25 27H7.5v-1.5h.75c.4 0 1.25 0 1.25.75s-.81.75-1.23.75h-.02zm-.44-3H6v8h1.5v-3.39c1.58 0 3.5-.16 3.5-2.29C11 24.3 9.4 24 7.81 24zm13.16 3.83l1.01-.89a2.8 2.8 0 0 0-2.13-.94c-1 0-2.11.58-2.11 1.64 0 .7.52 1.28 1.57 1.74l.55.24c.47.21.7.43.7.65 0 .12-.06.22-.19.31a.9.9 0 0 1-.52.14c-.2 0-.42-.06-.68-.18a2.28 2.28 0 0 1-.67-.48l-1 .96c.56.65 1.32.98 2.26.98.72 0 1.28-.17 1.7-.5.43-.35.64-.77.64-1.28 0-.38-.12-.71-.35-1a3.52 3.52 0 0 0-1.3-.83l-.59-.26c-.26-.11-.42-.2-.49-.27a.3.3 0 0 1-.1-.2c0-.06.02-.1.05-.15a.33.33 0 0 1 .11-.11c.1-.07.25-.1.43-.1.33 0 .7.17 1.11.53zm5.01 0l1-.89a2.8 2.8 0 0 0-2.13-.94c-1 0-2.1.58-2.1 1.64 0 .7.52 1.28 1.57 1.74l.55.24c.47.21.7.43.7.65 0 .12-.06.22-.2.31a.9.9 0 0 1-.51.14c-.2 0-.43-.06-.68-.18a2.28 2.28 0 0 1-.68-.48l-1 .96c.57.65 1.32.98 2.27.98.71 0 1.28-.17 1.7-.5.43-.35.64-.77.64-1.28 0-.38-.12-.71-.35-1a3.53 3.53 0 0 0-1.3-.83l-.6-.26c-.25-.11-.42-.2-.48-.27a.3.3 0 0 1-.1-.2c0-.06.02-.1.04-.15a.33.33 0 0 1 .12-.11c.1-.07.24-.1.43-.1.33 0 .7.17 1.11.53zm-11.93-.5c-.9 0-1.59.72-1.59 1.66 0 .5.16.9.46 1.22a1.49 1.49 0 0 0 1.13.48c.46 0 .85-.16 1.15-.47.3-.31.46-.72.46-1.23 0-.96-.7-1.67-1.61-1.67zM15.5 26H17v6h-1.5v-.75l-.04.04a2.4 2.4 0 0 1-.73.53 2.64 2.64 0 0 1-2.9-.68 2.95 2.95 0 0 1-.83-2.13c0-1.63 1.16-3.01 2.75-3.01.7 0 1.23.26 1.75.78V26z" fill="#1D94B9"/><path d="M50 37c0 .55-4.7 1-10.5 1S29 37.55 29 37s4.7-1 10.5-1 10.5.45 10.5 1" fill="#DBDADA"/><path d="M39.5 19c-1.78 0-3.28 1.3-3.28 2.5s1.5 2.23 3.28 2.23c1.78 0 3.28-1.02 3.28-2.23 0-1.2-1.5-2.5-3.28-2.5zm0 6a5.25 5.25 0 0 1-3.1-.96A3.16 3.16 0 0 1 35 21.5c0-.98.5-1.88 1.4-2.54a5.25 5.25 0 0 1 3.1-.96c1.16 0 2.27.34 3.1.96.9.66 1.4 1.56 1.4 2.54s-.5 1.88-1.4 2.54c-.83.62-1.94.96-3.1.96z" fill="#2C2C2C"/><path d="M35.65 34.95a1.65 1.65 0 0 1-2.82 1.17 1.65 1.65 0 1 1 2.34-2.33c.3.3.48.73.48 1.16z" fill="#FCCE0C"/><path d="M34 33.67a1.34 1.34 0 1 0 0 2.67 1.34 1.34 0 0 0 0-2.67zM34 37a2 2 0 1 1 0-4 2 2 0 0 1 0 4z" fill="#2C2C2C"/><path d="M46.6 34.95a1.65 1.65 0 0 1-2.81 1.17 1.65 1.65 0 1 1 2.33-2.33c.31.3.49.73.49 1.16z" fill="#FCCE0C"/><path d="M45 33.67a1.34 1.34 0 1 0 0 2.67 1.34 1.34 0 0 0 0-2.67zM45 37a2 2 0 1 1 0-4 2 2 0 0 1 0 4z" fill="#2C2C2C"/><path d="M47.35 35H31.67a3.1 3.1 0 0 1-2.23-.97 3.37 3.37 0 0 1-.93-2.32V23.3c0-.87.34-1.7.93-2.32a3.1 3.1 0 0 1 2.23-.97h15.68c.84 0 1.64.35 2.24.97.59.61.92 1.45.92 2.32v8.42c0 .87-.33 1.7-.92 2.32-.6.62-1.4.97-2.24.97z" fill="#F79922"/><path d="M31.6 20.8a2.8 2.8 0 0 0-1.96.8c-.52.5-.81 1.2-.82 1.91v7.97c0 .72.3 1.41.82 1.92.52.5 1.22.8 1.95.8H47.4a2.8 2.8 0 0 0 1.96-.8c.52-.5.81-1.2.82-1.92v-7.97c0-.71-.3-1.4-.82-1.91a2.8 2.8 0 0 0-1.96-.8H31.6zM47.4 35H31.6c-.96 0-1.87-.37-2.55-1.03A3.48 3.48 0 0 1 28 31.48v-7.97c0-.93.38-1.82 1.05-2.48A3.64 3.64 0 0 1 31.6 20H47.4c.96 0 1.87.37 2.55 1.03A3.48 3.48 0 0 1 51 23.51v7.97c0 .94-.38 1.83-1.05 2.49A3.64 3.64 0 0 1 47.4 35z" fill="#2C2C2C"/><path fill-rule="evenodd" d="M48 23h-1v2.46a2.5 2.5 0 0 0-1.47-.46A2.45 2.45 0 0 0 43 27.5a2.42 2.42 0 0 0 2.5 2.5c.57 0 1.09-.17 1.5-.47V30h1v-7zm-2.5 6c.82 0 1.5-.7 1.5-1.5 0-.78-.69-1.5-1.49-1.5-.81 0-1.51.7-1.51 1.5s.69 1.5 1.5 1.5zM31 25h1v.48c.42-.3.95-.48 1.53-.48A2.43 2.43 0 0 1 36 27.5c0 1.43-1.07 2.5-2.5 2.5a2.5 2.5 0 0 1-1.5-.46V32h-1v-7zm1 2.5c0-.8.7-1.5 1.51-1.5.8 0 1.49.72 1.49 1.5 0 .8-.68 1.5-1.5 1.5-.81 0-1.5-.7-1.5-1.5zm7.49-1.5c-.8 0-1.49.72-1.49 1.5 0 .8.68 1.5 1.5 1.5.81 0 1.5-.7 1.5-1.5s-.7-1.5-1.51-1.5zm-.02-1A2.45 2.45 0 0 1 42 27.5a2.42 2.42 0 0 1-2.5 2.5 2.44 2.44 0 0 1-2.5-2.5c0-1.42 1.05-2.5 2.47-2.5z" fill="#fff"/></svg>