<!-- by TradingView --><svg width="56" height="56" viewBox="0 0 56 56" xmlns="http://www.w3.org/2000/svg"><path fill="#F0F3FA" d="M0 0h56v56H0z"/><path fill-rule="evenodd" d="m48.05 28.88.57.26c1.1.5 1.54 1.4 1.33 2.7-.23 1.41-1.73 2.04-2.92 2.13-.42.04-1.74.04-3.96.01-.05 0-.07-.03-.07-.08v-9.79c0-.06.03-.1.08-.1h3.41c1.08.02 2.44.4 2.92 1.61.28.74.2 1.73-.27 2.33-.3.37-.66.65-1.1.83-.06.03-.06.06 0 .1ZM44 25.06v.03l.02 3.34c0 .02 0 .04.02.05l.04.02 2.47-.02c.52 0 1.02-.18 1.38-.49.37-.3.57-.72.57-1.16v-.21c0-.22-.05-.43-.15-.63-.1-.2-.25-.37-.43-.52-.19-.15-.4-.27-.64-.35a2.3 2.3 0 0 0-.75-.12l-2.47.02h-.02l-.02.02-.02.02Zm.01 4.45-.01.03v3.42l.01.03.03.01h2.77a2.6 2.6 0 0 0 1.55-.48c.4-.3.64-.73.64-1.16v-.22c0-.43-.23-.85-.64-1.16a2.6 2.6 0 0 0-1.55-.48h-2.77l-.03.01ZM29 24.01a11.54 11.54 0 0 0-1.01.02.1.1 0 0 0-.04.04L24 33.97a.02.02 0 0 0 0 .01l.01.01h1.08c.02 0 .03 0 .04-.02l1-2.34c.03-.06.06-.13.11-.13h4.52c.05 0 .09.08.1.13l1 2.34c.02.02.03.03.05.03h1.07l.02-.01v-.02l-3.93-9.9a.1.1 0 0 0-.04-.04A.08.08 0 0 0 29 24Zm-.57 1.52-1.92 4.9a.05.05 0 0 0 0 .05.05.05 0 0 0 .05.02h3.85l.02-.01.02-.02v-.05l-1.93-4.89-.02-.02a.05.05 0 0 0-.05 0l-.02.02ZM34.1 24c-.04 0-.1.03-.1.07v9.85c0 .02 0 .04.02.05l.04.03h3.2a4.68 4.68 0 0 0 4.37-2.94c.24-.57.37-1.2.37-1.82v-.43c0-1.27-.49-2.48-1.37-3.38A4.7 4.7 0 0 0 37.29 24L34.1 24Zm.92 1.03a.08.08 0 0 0-.02.05l.01 7.84a.08.08 0 0 0 .08.08h2.06c1.03 0 2-.4 2.73-1.1A3.68 3.68 0 0 0 41 29.25v-.52a3.64 3.64 0 0 0-1.13-2.64A3.86 3.86 0 0 0 37.14 25h-2.06l-.06.03Z" fill="#808185"/><path d="m24.9 29.85-.2-.84A4.96 4.96 0 0 0 22.67 26a5.52 5.52 0 0 0-4.18-.97c-.4.27-.56-.05-.47-.93.01-.05.04-.08.1-.08l1.2-.01c3.16-.02 6.26 2.4 5.59 5.85Z" fill="#0BA6DF"/><path d="M24.9 29.85c-.41 2.3-2.47 3.78-4.68 4.09-.48.07-1.2.08-2.15.04-.03 0-.07-.02-.07-.05v-.88c0-.04.05-.05.08-.05.67 0 1.63.05 2.31-.1 2.98-.63 4.64-4 2.34-6.46a4.1 4.1 0 0 0-2.36-1.27 14.4 14.4 0 0 0-1.88-.15 5.52 5.52 0 0 1 5.96 3.17c.08.2.17.47.25.82l.2.84ZM9.53 30.43a4.17 4.17 0 0 1-.4-4.07c.03-.05.02-.1-.02-.13l-.08-.05a5.65 5.65 0 0 1 3.6-2.07c.62-.1 1.4-.13 2.34-.09.02 0 .03.01.03.03v1c0 .03-.01.04-.03.04h-1.35a4.5 4.5 0 0 0-4.05 2.49c-.4.9-.42 1.86-.04 2.85Z" fill="#0274BA"/><path d="m9.03 26.18.08.05c.04.04.05.08.03.13a4.17 4.17 0 0 0 .39 4.07 4.68 4.68 0 0 0 3.8 2.56c.23.02.77.03 1.6.01.04 0 .06.01.06.05v.87c0 .05-.02.07-.07.07h-1.64c-2.48-.22-4.69-1.72-5.19-4.18-.26-1.3.05-2.5.94-3.63ZM16.27 20.78a8.08 8.08 0 0 0-4-1.62l-1.34-.02c-1.6.14-3.09.85-4.48 2.13a5.07 5.07 0 0 1 2.81-2.82 5.74 5.74 0 0 1 5.1.32c.8.44 1.44 1.1 1.9 2.01Z" fill="#0BA6DF"/><path d="M10.93 19.14c-1.09.18-2 .67-2.72 1.47A4.06 4.06 0 0 0 7 23.3v6.94l-.99-1.07V23.1c0-.72.15-1.32.44-1.83 1.39-1.28 2.89-1.99 4.48-2.13ZM16.27 20.78c.45.58.69 1.33.71 2.26.03 1.08.05 3.2.02 6.32l-1 1.05v-6.87a4.3 4.3 0 0 0-1.34-3.07 4.85 4.85 0 0 0-2.38-1.3c1.3.1 2.63.64 3.99 1.61Z" fill="#0274BA"/><path d="M7 30.24v2.67c0 .06.02.09.07.09h1.89l.02.01.01.02v.91c0 .04-.01.06-.05.06h-2.9l-.03-.01v-4.82L7 30.24ZM17 29.36v4.58l-.01.04-.03.01h-.91c-.03 0-.05-.02-.05-.06v-3.52l1-1.05Z" fill="#0BA6DF"/></svg>