<!-- by TradingView --><svg width="56" height="56" viewBox="0 0 56 56" xmlns="http://www.w3.org/2000/svg"><path fill="#004B5B" d="M0 0h56v56H0z"/><path fill-rule="evenodd" d="M28 44a16 16 0 1 0 0-32 16 16 0 0 0 0 32Zm0 1a17 17 0 1 0 0-34 17 17 0 0 0 0 34Z" fill="#FFFF0A"/><path fill-rule="evenodd" d="M39 24H17v4h22v-4Zm-23-1v6h24v-6H16ZM39 32H17v4h22v-4Zm-23-1v6h24v-6H16Z" fill="#FFFF0A"/><path fill="#FFFF0A" d="M16 21h24v1H16zM28 16l-9 5h18l-9-5ZM21.8 23H19v14h7v-9l-4.2-5ZM34 23h3v14h-7v-9l4-5Z"/></svg>