<!-- by TradingView --><svg width="56" height="56" viewBox="0 0 56 56" xmlns="http://www.w3.org/2000/svg"><path fill="#F0F3FA" d="M0 0h56v56H0z"/><path d="m18 15-5 .93V19h4l-3.45 1v3h2.91L14 24v3h5c3 0 3.5-.13 3.5 4v8.94c0 2.13 2.76 4.97 3.5 4.97h4c2 0 3-4.08 3-4.97V31c0-3.2 1.85-4 3-4h6v-3l-2.5-1h3v-3L39 19h4v-3l-6-1h-3c-1.5 0-6 1-6 3 0-2-4.49-3-6-3h-4Z" fill="url(#ako30m1cz)"/><path fill-rule="evenodd" d="M43 19h-5a13.8 13.8 0 0 0-8.5 2.65l.17.2.88 1.01C32.47 21.21 35.03 20 37.5 20H43v3h-5.5c-1.58 0-3.57.87-5.16 2.17.26.4.51.81.73 1.23C34.28 25.05 35.8 24 37 24h5v3h-4c-1.57 0-3.55 2.24-4 3.5V42a4 4 0 0 1-4 4h-3.9a4.02 4.02 0 0 1-4.1-4V30.1a4 4 0 0 0-4-3.1h-4v-3h5c1.3 0 2.77.89 3.92 2.12.23-.5.5-1 .82-1.51-1-.96-2.17-1.61-3.32-1.61H13.5v-3h6.92c1.84 0 3.56.98 4.98 2.38.24-.27.49-.53.75-.79l.03-.03A12 12 0 0 0 18.77 19H13v-3h6c3.47 0 6.55 1 9 3 2.58-1.9 5.56-3 10-3h5v3Zm-17.36 8.12a5.83 5.83 0 0 0-.64 2.63v11.49c0 1.78.79 1.77 1.06 1.76H30c1 0 1-.27 1-1.76V29.75a5.6 5.6 0 0 0-.56-2.5A5.09 5.09 0 0 0 29.5 30v12h-3V30c0-.85-.32-1.88-.86-2.88Zm3.08-2.3c-.28.4-.52.79-.72 1.18-.21-.42-.45-.84-.7-1.25.21-.24.45-.5.7-.75l.39.45.33.38Z" fill="url(#bko30m1cz)"/><defs><linearGradient id="ako30m1cz" x1="13" y1="18.74" x2="41.85" y2="18.74" gradientUnits="userSpaceOnUse"><stop offset="0" stop-color="#EABF47"/><stop offset=".1" stop-color="#E9C454"/><stop offset=".18" stop-color="#D3A62A"/><stop offset=".29" stop-color="#CB8600"/><stop offset=".42" stop-color="#180100"/><stop offset=".53" stop-color="#FFFFE8"/><stop offset=".59" stop-color="#EEE4B5"/><stop offset=".68" stop-color="#E6CD6B"/><stop offset=".78" stop-color="#E2C55D"/><stop offset=".86" stop-color="#D6AA1C"/><stop offset=".93" stop-color="#D9A117"/><stop offset="1" stop-color="#D39900"/></linearGradient><linearGradient id="bko30m1cz" x1="28" y1="16" x2="28" y2="46" gradientUnits="userSpaceOnUse"><stop stop-color="#E1C073"/><stop offset=".1" stop-color="#E7CB8D"/><stop offset=".18" stop-color="#F4E8D1"/><stop offset=".26" stop-color="#F9F5E9"/><stop offset=".43" stop-color="#E1C276"/><stop offset=".47" stop-color="#DAB158"/><stop offset=".54" stop-color="#C98918"/><stop offset=".67" stop-color="#C67C04"/><stop offset=".82" stop-color="#DAA741"/><stop offset="1" stop-color="#ECD290"/></linearGradient></defs></svg>