<!-- by TradingView --><svg width="56" height="56" viewBox="0 0 56 56" xmlns="http://www.w3.org/2000/svg"><path fill="#F0F3FA" d="M0 0h56v56H0z"/><path d="M40.37 25.61c.04.06.1.09.17.08.07 0 .13-.04.16-.1.25-.52.61-.97 1.08-1.34.05-.04.08-.1.08-.16a.2.2 0 0 0-.09-.16c-1.36-.93-1.9-2.24-1.6-3.95.1-.57.4-1.08.93-1.54.5-.43 1.05-.68 1.61-.73 1.14-.1 2.16.1 3.04.59.91.5 1.6 1.27 2.06 2.3.18.4.22 1.02.15 1.88-.08.89-.5 1.57-1.26 2.05-.1.07-.12.15-.05.25a6.34 6.34 0 0 1 1.16 2.7c.34 2.24.22 4.06-.37 5.47-.45 1.07-1.07 1.78-1.87 2.12-.83.36-1.8.28-2.88-.24a4 4 0 0 1-1.09-.87l-.31-.33c-.1-.1-.2-.1-.3.02a4.55 4.55 0 0 1-4.92 1.79c-.2-.04-.3.03-.33.22l-.1.78c-.1.67-.38 1.26-.86 1.76-.52.55-1.12.81-1.8.8a4.3 4.3 0 0 1-3-1.17 5.15 5.15 0 0 1-1.42-2.89.15.15 0 0 0-.1-.12.15.15 0 0 0-.17.03l-.26.24a6.6 6.6 0 0 1-1.67 1.15 3.9 3.9 0 0 1-1.41.26 5.57 5.57 0 0 1-5.08-2.7.15.15 0 0 0-.15-.06c-.07 0-.1.04-.13.1a3.7 3.7 0 0 1-1.45 1.9c-.9.62-2.1.72-3.6.3-.7-.2-1.31-.66-1.83-1.4a6.02 6.02 0 0 1-.93-2.14 9.68 9.68 0 0 1-.29-3.03c.1-.91.29-1.73.57-2.44.05-.13.02-.24-.09-.33a13.63 13.63 0 0 1-2.87-3.06A6.37 6.37 0 0 1 8 20.1c-.03-1.5.44-2.62 1.39-3.37a3.05 3.05 0 0 1 2.06-.72 4.2 4.2 0 0 1 2.5.92c.65.52 1.19 1.22 1.6 2.1.02.06.07.09.13.1.06 0 .1-.03.14-.08.4-.66.94-1.2 1.63-1.66a4.45 4.45 0 0 1 6.15 1.34c.42.64.64 1.49.65 2.55a7.66 7.66 0 0 1-.45 2.7l-.56.93c-.07.12-.04.22.08.29h.01c.13.07.24.05.34-.06a2.84 2.84 0 0 1 2.32-1.03c.94.01 1.72.34 2.34 1 .34.35.6.67.77.96.02.05.06.07.12.06.05 0 .09-.03.11-.08.62-1.5 1.6-2.32 2.94-2.46.84-.08 1.7.16 2.57.71.09.06.18.06.27.03a4.99 4.99 0 0 1 2.87-.24c1.06.22 1.86.73 2.39 1.53Z" fill="#A4A4A2"/><path d="M15.76 19.69c.05-.03.09-.13.11-.3a.65.65 0 0 1 .1-.3 4.35 4.35 0 0 1 4.27-2.16 3.9 3.9 0 0 1 3.5 4.03c-.01 1.38-.21 2.42-.62 3.12a10.6 10.6 0 0 0-.48 1.06c.26.22.55.39.87.51l.05-.01a2.48 2.48 0 0 1 2.28-1.31c.95.01 1.76.4 2.44 1.18.48.56.8.97.96 1.22.02.03.04.04.08.04s.06-.03.07-.07a3.9 3.9 0 0 1 1.05-2.07c.57-.56 1.3-.83 2.16-.8.85.04 1.56.33 2.13.88.07.07.14.07.22.02.26-.18.53-.29.8-.34 1.82-.3 3.24.18 4.26 1.47.07.1.16.15.27.18.12.03.2.12.25.26.01.05.05.08.1.08.06 0 .1-.03.1-.08a3.2 3.2 0 0 1 1.51-2.03c.13-.08.14-.18.03-.28l-.2-.2a8.7 8.7 0 0 1-1.12-1.25 2.8 2.8 0 0 1-.5-1.63l.03-1.13c0-.08.03-.15.06-.23.2-.46.53-.86 1.02-1.2.37-.25.88-.38 1.53-.39 1.49-.02 2.7.54 3.63 1.68.35.43.56.9.63 1.41.06.37.05.9-.03 1.6-.03.3-.17.6-.4.87-.15.17-.42.41-.8.72l-.12.1c-.12.1-.13.2-.03.31a5.83 5.83 0 0 1 1.25 2.85c.13.8.17 1.87.1 3.2a5.02 5.02 0 0 1-1.06 3.1c-.78.92-1.8 1.17-3.05.74a3.57 3.57 0 0 1-1.93-1.57.28.28 0 0 0-.23-.14c-.1 0-.18.03-.25.1a6.45 6.45 0 0 1-1.78 1.58c-.7.37-1.48.51-2.34.41l-1.06-.12c-.26 0-.4.12-.44.37l-.04.43a4.1 4.1 0 0 1-.42 1.71c-.28.43-.58.73-.91.9-.35.18-.78.25-1.3.21a3.6 3.6 0 0 1-3.21-2.31 6.24 6.24 0 0 1-.52-1.96.16.16 0 0 0-.11-.15.17.17 0 0 0-.19.03c-.49.42-.97.8-1.43 1.16-.6.46-1.34.71-2.2.75a5.99 5.99 0 0 1-2.35-.37 5.63 5.63 0 0 1-2.78-2.48.14.14 0 0 0-.14-.07c-.06.01-.1.04-.12.1-.19.51-.46 1-.8 1.47a3.09 3.09 0 0 1-2.09 1.25c-.8.13-1.61 0-2.43-.38a3.64 3.64 0 0 1-1.58-1.64 5.6 5.6 0 0 1-.7-2.14c-.09-.87-.1-1.78-.05-2.75.05-.73.23-1.38.55-1.97.08-.15.06-.27-.07-.38a17.99 17.99 0 0 1-2.64-2.7A6.24 6.24 0 0 1 8.57 18c.88-1.59 2.16-2.12 3.84-1.6.45.14.9.4 1.35.76.41.34.73.69.97 1.06l.38.56c.31.45.47.7.46.73l.01.11c.04.1.1.12.18.07Z" fill="#F0F3FA"/><path d="M20.02 17.92a1.5 1.5 0 0 1 1.56.53c.33.39.58.82.76 1.28.04.13.07.26.07.39s0 .31.02.55c.02.52.01.9-.02 1.14-.06.39-.2.74-.44 1.07l-.1.16a10.6 10.6 0 0 1-.77 1.35 8.04 8.04 0 0 1-3.14 1.86.34.34 0 0 0-.16.12.75.75 0 0 0-.12.78c.44 1.14.65 2.2.64 3.18 0 .62 0 .96-.02 1.04a4.2 4.2 0 0 1-1.13 2.72c-.2.2-.47.33-.82.4-1.43.3-2.42-.13-2.97-1.27a3.1 3.1 0 0 1-.25-1.1l-.08-1.15.37 1.15c0 .03.03.04.06.04.04 0 .05-.03.05-.06 0-.26-.04-.52-.12-.79a4.92 4.92 0 0 1 .53-4.01c.18-.2.25-.45.22-.73 0-.07-.04-.11-.1-.14a.16.16 0 0 0-.16.02l-.3.23c-.14-.02-.21-.13-.2-.35l-.4-.34c.08-.03.13-.06.15-.1.04-.12 0-.2-.1-.27a9.09 9.09 0 0 1-3.37-3.7c-.2-.41-.2-.83 0-1.26.02-.97.1-1.62.23-1.94.27-.65.75-1.04 1.44-1.17.09-.02.13-.07.14-.15 0-.09-.04-.14-.12-.17-.58-.18-1.06-.09-1.44.29-.35.35-.51.81-.48 1.4a.8.8 0 0 0-.05-.3c-.03-.08-.08-.1-.15-.04l-.23.17a2.6 2.6 0 0 1 1.97-1.98c.55-.11 1.14.03 1.77.44.54.35.98.79 1.3 1.33.4.64.8 1.64 1.2 3 .22.71.4 1.24.53 1.59.06.15.17.23.34.23s.28-.08.35-.23c.21-.54.36-1.1.43-1.68.1-.74.26-1.3.47-1.66.5-.87 1.4-1.4 2.68-1.6a.1.1 0 0 0 .09-.08.1.1 0 0 0-.04-.11l-.1-.08Z" fill="#FC0903"/><path d="M13.4 26.33c-.01.22.06.33.2.35-.53.84-.76 1.9-.67 3.16.03.56.07.93.12 1.13l.08 1.14c.03.47.12.84.25 1.11.55 1.14 1.54 1.56 2.97 1.27.35-.07.62-.2.82-.4a4.2 4.2 0 0 0 1.14-2.72l.01-1.04c0-.98-.2-2.04-.64-3.18a.75.75 0 0 1 .12-.78c.04-.06.1-.1.16-.12 1.2-.38 2.24-1 3.14-1.86a10.6 10.6 0 0 0 .87-1.51c.24-.33.38-.68.44-1.07.03-.24.04-.62.02-1.14l-.02-.55c0-.13-.03-.26-.07-.39-.18-.46-.43-.89-.76-1.28a1.5 1.5 0 0 0-1.56-.53c-1.71-.23-2.78.38-3.2 1.82-.1.3-.22 1.08-.37 2.31-.01.12-.08.18-.2.18h-.01c-.15 0-.21-.08-.2-.22.06-1.38.37-2.42.92-3.1a3.9 3.9 0 0 1 1.94-1.3 2.68 2.68 0 0 1 2.31.19 3.5 3.5 0 0 1 1.7 3.44 5.45 5.45 0 0 1-1.72 3.6 7.27 7.27 0 0 1-3.1 1.76c-.15.04-.19.13-.14.26.5 1.2.74 2.4.74 3.63-.02 2.97-1.04 4.45-3.07 4.44-1.07 0-1.9-.54-2.48-1.6-.44-.8-.7-1.8-.78-3.01a5.8 5.8 0 0 1 .89-3.58c.08-.13.13-.27.15-.41Z" fill="#B51006"/><path d="M46.2 22.64c-.37.54-.92.85-1.65.92a3.18 3.18 0 0 1-2.1-.57 3.1 3.1 0 0 1-1.32-1.71c-.21-.7-.13-1.32.24-1.87.38-.54.93-.85 1.67-.92.73-.06 1.43.12 2.1.57a3.1 3.1 0 0 1 1.31 1.72c.21.7.13 1.32-.24 1.86Z" fill="#0486B7"/><path d="M9.45 18.91c-.09.61 0 1.2.23 1.75-.2.43-.2.85 0 1.25a9.09 9.09 0 0 0 3.38 3.71c.1.06.13.15.09.26-.02.05-.07.08-.14.11a9.72 9.72 0 0 1-3.14-3.08 5.32 5.32 0 0 1-.85-4.16l.22-.17c.08-.05.13-.04.16.05a.8.8 0 0 1 .05.28Z" fill="#B51006"/><path d="M43.66 19.21c.04.02.06.05.05.1-.01.04-.04.06-.08.06-.88-.01-1.47.36-1.78 1.1a.1.1 0 0 1-.1.08.1.1 0 0 1-.1-.06c-.28-.49-.21-.92.2-1.31.22-.21.46-.3.73-.3.17.02.45.1.82.24l.26.1Z" fill="#F0F3FA"/><path d="M43.87 33.84c-.76.01-1.42-.45-1.98-1.37a6.69 6.69 0 0 1-.88-3.39 6.67 6.67 0 0 1 .74-3.4c.53-.96 1.17-1.44 1.94-1.45.76-.02 1.42.44 1.98 1.37.56.93.86 2.05.88 3.38a6.67 6.67 0 0 1-.74 3.41c-.53.95-1.17 1.43-1.94 1.45Z" fill="#0486B7"/><path d="M35.92 25.12c-.04 0-.07-.03-.08-.08 0-.04.01-.08.06-.09 1.66-.47 2.9.05 3.73 1.53a7.38 7.38 0 0 1 .7 4.26 3.95 3.95 0 0 1-1.27 2.48 3.3 3.3 0 0 1-2.6.85 5.82 5.82 0 0 1-2.25-.7c-.05-.02-.1-.02-.15.02-.04.04-.05.09-.03.14.32.89.34 1.74.08 2.54-.17.54-.44.94-.8 1.2-.4.26-.86.34-1.4.22A2.85 2.85 0 0 1 30 35.98a5.69 5.69 0 0 1-.63-2.45 22.9 22.9 0 0 1 .24-4.87c.36-2.33 1.05-3.7 2.05-4.1a2.5 2.5 0 0 1 1.28-.18c.47.06.82.28 1.08.65.32.47.5.9.57 1.32.02.13.1.22.24.27.13.04.25 0 .35-.1.44-.46.9-.73 1.4-.82.19-.03.27-.13.25-.31-.01-.18-.11-.27-.3-.27h-.6Z" fill="#028333"/><path d="M42.04 30.75c0 .05-.01.07-.06.07h-.01c-.03.01-.05 0-.05-.02-.31-1.56-.4-2.9-.28-4.02.05-.47.24-.97.56-1.49.33-.52.77-.73 1.32-.65.14.02.22.1.25.24.02.13-.03.23-.16.3-.52.26-.91.58-1.17.95a.98.98 0 0 0-.11.22 9.47 9.47 0 0 0-.3 4.4Z" fill="#F0F3FA"/><path d="M30.37 26.86c.09-.38.25-.8.49-1.28.3-.6.74-.88 1.33-.83.1.01.17.05.22.13a.2.2 0 0 1 .01.22c-.08.14-.18.23-.29.26a.2.2 0 0 0-.15.12 1.3 1.3 0 0 1-.61.64.42.42 0 0 0-.14.12 5.6 5.6 0 0 0-.7 2.23 23.95 23.95 0 0 0-.35 5.48l-.2-.4a22.2 22.2 0 0 1 .39-6.69Z" fill="#ADEBA8"/><path d="m26.31 24.93-.3.05a.18.18 0 0 0-.15.13c-.02.06-.01.1.03.12.14.07.21.19.2.35a.38.38 0 0 1-.26.34c-.39.16-.74.4-1.05.73a.15.15 0 0 1-.07.05c-.14.03-.24-.07-.3-.31-.02-.07-.06-.1-.13-.1s-.11.04-.12.11l-.07.43c-.11-.65.1-1.16.61-1.53.53-.39 1.07-.5 1.61-.37Z" fill="#FED9BB"/><path d="M26.31 24.93c.63.18 1.12.56 1.47 1.13a6.09 6.09 0 0 1-1.06 8.05 3.84 3.84 0 0 1-4.72.25 5.67 5.67 0 0 1-2.2-2.88c-.13-.38-.27-1.17-.4-2.37-.11-.97.02-1.78.38-2.42.03-.04.06-.05.11-.04.05.01.07.04.07.1v.57c0 .1.06.17.17.19.1.02.18-.03.22-.13.12-.35.44-.71.97-1.08a.24.24 0 0 0 .12-.25c-.02-.1-.07-.16-.17-.18-.06-.01-.1-.07-.13-.17s.01-.15.11-.17c.42-.07.72-.04.9.08 1.01.67 1.37 1.63 1.09 2.89-.07.3-.06.87.02 1.69 0 .08.04.15.1.21.12.13.29.23.51.31a.3.3 0 0 1 .17.14l.13.22c.03.05.07.08.12.1.26.1.48.1.66.02.21-.1.26-.3.14-.62a.34.34 0 0 0-.3-.23c-.09-.01-.13-.06-.13-.15v-1.44l-.01-.07-.56-1.85.07-.43c0-.07.05-.1.12-.1.07-.01.11.02.13.09.06.24.16.34.3.3.03 0 .05-.02.07-.04.31-.33.66-.57 1.05-.73a.38.38 0 0 0 .26-.34c.01-.16-.06-.28-.2-.35-.04-.02-.05-.06-.03-.12a.18.18 0 0 1 .15-.13l.3-.05Z" fill="#FBB407"/><path d="M13.05 30.97c-.05-.2-.09-.57-.13-1.13a5.15 5.15 0 0 1 .68-3.16l.3-.23c.05-.03.1-.04.16-.02.06.03.1.07.1.14a.93.93 0 0 1-.22.73l-.12.2a4.92 4.92 0 0 0-.41 3.81c.08.27.12.53.12.79 0 .03-.01.05-.05.06-.03 0-.05-.01-.06-.04l-.37-1.15Z" fill="#FED9BB"/><path d="M36.48 29.72c-.21.42-.55.65-1.01.7a1.9 1.9 0 0 1-.8-.28.23.23 0 0 1-.11-.2 1.8 1.8 0 0 1 .12-.77c.12-.3.32-.47.6-.5.36-.04.67.03.91.2.28.2.38.49.29.85Z" fill="#F0F3FA"/><path d="M35.47 30.43c.46-.06.8-.3 1-.7.1.25.25.2.5-.15a.13.13 0 0 1 .14-.07c.06.01.1.05.1.1.1.35.09.66-.04.93-.24.52-.77.73-1.59.6-.1 0-.15-.07-.14-.17.02-.08.07-.16.17-.24.08-.05.09-.12.04-.19-.03-.06-.1-.1-.18-.11Z" fill="#FED9BB"/></svg>