<!-- by TradingView --><svg width="56" height="56" viewBox="0 0 56 56" xmlns="http://www.w3.org/2000/svg"><path fill="#F0F3FA" d="M0 0h56v56H0z"/><path d="M30.11 35.69c-1.6 3.3.66 8.25 2 10.31-1-7.22 7.96-9.28 10.95-13.4 2.39-3.3-.33-10.32-2-13.41.34 1.37.6 4.54-.99 6.18-2 2.07-7.97 6.2-9.96 10.32Z" fill="url(#aflmceh3l)"/><path d="M13.42 20.77c2.2-2.86 7.05-7.77 11.56-7.77 4.58 0 6.24 2.06 9.22 2.06 2.39 0 4.35-.69 5.67-1.03-.99 2.4-4.17 7.22-8.93 7.22-5.96 0-7.95-3.1-11.92-3.1a7.45 7.45 0 0 0-5.6 2.62Z" fill="url(#bflmceh3l)"/><path d="M19 35.69c-7.8-3.3-8.46-11-7.8-14.44 0 4.95 9.76 4.13 14.65 11.34 4.19 6.2-.65 12.03-2.93 13.41 1.95-2.06 3.9-7.01-3.91-10.31Z" fill="url(#cflmceh3l)"/><defs><linearGradient id="aflmceh3l" x1="41.51" y1="19.19" x2="30.94" y2="44.72" gradientUnits="userSpaceOnUse"><stop stop-color="#567C47"/><stop offset=".24" stop-color="#359A4C"/><stop offset=".47" stop-color="#96B665"/><stop offset=".69" stop-color="#429E50"/><stop offset="1" stop-color="#369C54"/></linearGradient><linearGradient id="bflmceh3l" x1="16.04" y1="18.16" x2="39.89" y2="16.24" gradientUnits="userSpaceOnUse"><stop stop-color="#EC5D25"/><stop offset="1" stop-color="#F6971A"/></linearGradient><linearGradient id="cflmceh3l" x1="19.02" y1="21.25" x2="19.02" y2="46" gradientUnits="userSpaceOnUse"><stop stop-color="#2692CF"/><stop offset=".51" stop-color="#2656A3"/><stop offset="1" stop-color="#162F69"/></linearGradient></defs></svg>