<!-- by TradingView --><svg width="56" height="56" viewBox="0 0 56 56" xmlns="http://www.w3.org/2000/svg"><path fill="#F0F3FA" d="M0 0h56v56H0z"/><path d="M18.24 16h19.92l3.62 1.82c2.6 1.31 4.6 3.66 5.57 6.52" fill="#E9C501"/><path d="M8.5 22h39v1H38v10h9.7v1H8.5v-1H18V23H8.5v-1Z" fill="#F0F3FA"/><path d="M19 23v10h1.5v-4.76L22.46 33h1.63l-2.1-5.27L24.1 23h-1.63l-1.96 4.27V23H19Zm6.5 10V23h4c.55 0 1 .5 1 1.11v3.83c0 .62-.45 1.06-1 1.06H27v4h-1.5Zm1.5-9v4h2v-4h-2Zm5.96 9h3.08c.53 0 .96-.5.96-1.1V30h-1.48v2h-1.87v-8h1.88v2H37v-1.9c0-.6-.43-1.1-.96-1.1h-3.08c-.53 0-.96.5-.96 1.1v7.8c0 .6.43 1.1.96 1.1Z" fill="#63D401"/></svg>