<!-- by TradingView --><svg width="56" height="56" viewBox="0 0 56 56" xmlns="http://www.w3.org/2000/svg"><path fill="#F0F3FA" d="M0 0h56v56H0z"/><path d="m4 33 5.5-9 .5 1H4v-2h8.5L7 32v-1h6v2H4ZM14 36l6.5-13H23l-6.5 13H14Zm2.8-3.62L13 23h2.5l3 7.5-1.7 1.88ZM24 33V23h2v3l-.5-1c.34-.7 1.7-2 3-2H31l-.5 2H29c-2 0-3 1.21-3 2v6h-2ZM36.41 33C33.5 33 31 31.05 31 28c0-2.84 2.17-5 5-5 2.88 0 5 2.2 5 5.04V29h-8v-2h6.5l-1.06.64c0-1.38-1.02-2.64-2.44-2.64-1.45 0-2.5 1.28-2.5 2.68v.43c0 1.63 1.4 2.63 2.98 2.63 1.03 0 1.76-.32 2.39-.93l1.46 1.62c-.87 1-2.2 1.57-3.92 1.57ZM41 33l4.5-5.5v1L41.13 23H44l3 4h-1l3-4h3l-4.5 5.5v-1L52 33h-3l-3-4h1l-3 4h-3Z" fill="#A41E22"/></svg>